<?xml version="1.0" encoding="UTF-8" standalone="no"?>
<!DOCTYPE svg PUBLIC "-//W3C//DTD SVG 1.1//EN"
 "http://www.w3.org/Graphics/SVG/1.1/DTD/svg11.dtd">
<!-- Generated by graphviz version 12.2.1 (20241206.2353)
 -->
<!-- Title: optimizeBite_C Pages: 1 -->
<svg width="231pt" height="66pt"
 viewBox="0.00 0.00 230.50 66.00" xmlns="http://www.w3.org/2000/svg" xmlns:xlink="http://www.w3.org/1999/xlink">
<g id="graph0" class="graph" transform="scale(1 1) rotate(0) translate(4 62)">
<title>optimizeBite_C</title>
<!-- Node1 -->
<g id="Node000001" class="node">
<title>Node1</title>
<g id="a_Node000001"><a xlink:title=" ">
<polygon fill="#999999" stroke="#666666" points="82.75,-39 0,-39 0,-19 82.75,-19 82.75,-39"/>
<text text-anchor="middle" x="41.38" y="-25.5" font-family="Helvetica,sans-Serif" font-size="10.00">optimizeBite_C</text>
</a>
</g>
</g>
<!-- Node2 -->
<g id="Node000002" class="node">
<title>Node2</title>
<g id="a_Node000002"><a xlink:href="$class_fitness.html#aba60038eac4e0e15d995e57f4ba079e1" xlink:title=" ">
<polygon fill="white" stroke="#666666" points="222.5,-58 118.75,-58 118.75,-38 222.5,-38 222.5,-58"/>
<text text-anchor="middle" x="170.62" y="-44.5" font-family="Helvetica,sans-Serif" font-size="10.00">Fitness::evaluations</text>
</a>
</g>
</g>
<!-- Node1&#45;&gt;Node2 -->
<g id="edge3_Node000001_Node000002" class="edge">
<title>Node1&#45;&gt;Node2</title>
<g id="a_edge3_Node000001_Node000002"><a xlink:title=" ">
<path fill="none" stroke="#63b8ff" d="M82.99,-35.06C90.79,-36.23 99.12,-37.47 107.42,-38.71"/>
<polygon fill="#63b8ff" stroke="#63b8ff" points="106.77,-42.15 117.18,-40.17 107.8,-35.23 106.77,-42.15"/>
</a>
</g>
</g>
<!-- Node3 -->
<g id="Node000003" class="node">
<title>Node3</title>
<g id="a_Node000003"><a xlink:href="$evaluator_8h.html#ac05c49788a31e5f7cb8efbe8ca3b548e" xlink:title=" ">
<polygon fill="white" stroke="#666666" points="219.12,-20 122.12,-20 122.12,0 219.12,0 219.12,-20"/>
<text text-anchor="middle" x="170.62" y="-6.5" font-family="Helvetica,sans-Serif" font-size="10.00">noop_callback_par</text>
</a>
</g>
</g>
<!-- Node1&#45;&gt;Node3 -->
<g id="edge4_Node000001_Node000003" class="edge">
<title>Node1&#45;&gt;Node3</title>
<g id="a_edge4_Node000001_Node000003"><a xlink:title=" ">
<path fill="none" stroke="#63b8ff" d="M82.99,-22.94C91.78,-21.62 101.25,-20.21 110.58,-18.82"/>
<polygon fill="#63b8ff" stroke="#63b8ff" points="110.98,-22.3 120.35,-17.36 109.95,-15.37 110.98,-22.3"/>
</a>
</g>
</g>
</g>
</svg>
