<?xml version="1.0" encoding="UTF-8" standalone="no"?>
<!DOCTYPE svg PUBLIC "-//W3C//DTD SVG 1.1//EN"
 "http://www.w3.org/Graphics/SVG/1.1/DTD/svg11.dtd">
<!-- Generated by graphviz version 12.2.1 (20241206.2353)
 -->
<!-- Title: _fcmaescpp/biteoptimizer.cpp Pages: 1 -->
<svg width="986pt" height="252pt"
 viewBox="0.00 0.00 985.50 252.00" xmlns="http://www.w3.org/2000/svg" xmlns:xlink="http://www.w3.org/1999/xlink">
<g id="graph0" class="graph" transform="scale(1 1) rotate(0) translate(4 248)">
<title>_fcmaescpp/biteoptimizer.cpp</title>
<!-- Node1 -->
<g id="Node000001" class="node">
<title>Node1</title>
<g id="a_Node000001"><a xlink:title=" ">
<polygon fill="#999999" stroke="#666666" points="427.62,-244 281.12,-244 281.12,-224 427.62,-224 427.62,-244"/>
<text text-anchor="middle" x="354.38" y="-230.5" font-family="Helvetica,sans-Serif" font-size="10.00">_fcmaescpp/biteoptimizer.cpp</text>
</a>
</g>
</g>
<!-- Node2 -->
<g id="Node000002" class="node">
<title>Node2</title>
<g id="a_Node000002"><a xlink:title=" ">
<polygon fill="#e0e0e0" stroke="#999999" points="64.75,-132 0,-132 0,-112 64.75,-112 64.75,-132"/>
<text text-anchor="middle" x="32.38" y="-118.5" font-family="Helvetica,sans-Serif" font-size="10.00">Eigen/Core</text>
</a>
</g>
</g>
<!-- Node1&#45;&gt;Node2 -->
<g id="edge26_Node000001_Node000002" class="edge">
<title>Node1&#45;&gt;Node2</title>
<g id="a_edge26_Node000001_Node000002"><a xlink:title=" ">
<path fill="none" stroke="#63b8ff" d="M318.94,-223.57C287.55,-214.99 240.61,-201.63 200.38,-188 153.01,-171.95 99.26,-150.59 65.59,-136.81"/>
<polygon fill="#63b8ff" stroke="#63b8ff" points="66.96,-133.59 56.38,-133.03 64.29,-140.06 66.96,-133.59"/>
</a>
</g>
</g>
<!-- Node3 -->
<g id="Node000003" class="node">
<title>Node3</title>
<g id="a_Node000003"><a xlink:title=" ">
<polygon fill="#e0e0e0" stroke="#999999" points="136.12,-132 82.62,-132 82.62,-112 136.12,-112 136.12,-132"/>
<text text-anchor="middle" x="109.38" y="-118.5" font-family="Helvetica,sans-Serif" font-size="10.00">iostream</text>
</a>
</g>
</g>
<!-- Node1&#45;&gt;Node3 -->
<g id="edge27_Node000001_Node000003" class="edge">
<title>Node1&#45;&gt;Node3</title>
<g id="a_edge27_Node000001_Node000003"><a xlink:title=" ">
<path fill="none" stroke="#63b8ff" d="M331.06,-223.67C309.09,-214.78 275.32,-200.89 246.38,-188 208.8,-171.27 166.05,-150.74 138.45,-137.29"/>
<polygon fill="#63b8ff" stroke="#63b8ff" points="140.18,-134.25 129.66,-133 137.11,-140.53 140.18,-134.25"/>
</a>
</g>
</g>
<!-- Node4 -->
<g id="Node000004" class="node">
<title>Node4</title>
<g id="a_Node000004"><a xlink:title=" ">
<polygon fill="#e0e0e0" stroke="#999999" points="447.88,-188 404.88,-188 404.88,-168 447.88,-168 447.88,-188"/>
<text text-anchor="middle" x="426.38" y="-174.5" font-family="Helvetica,sans-Serif" font-size="10.00">float.h</text>
</a>
</g>
</g>
<!-- Node1&#45;&gt;Node4 -->
<g id="edge28_Node000001_Node000004" class="edge">
<title>Node1&#45;&gt;Node4</title>
<g id="a_edge28_Node000001_Node000004"><a xlink:title=" ">
<path fill="none" stroke="#63b8ff" d="M366.92,-223.59C377.34,-215.77 392.42,-204.46 404.79,-195.19"/>
<polygon fill="#63b8ff" stroke="#63b8ff" points="406.87,-198.01 412.77,-189.21 402.67,-192.41 406.87,-198.01"/>
</a>
</g>
</g>
<!-- Node5 -->
<g id="Node000005" class="node">
<title>Node5</title>
<g id="a_Node000005"><a xlink:title=" ">
<polygon fill="#e0e0e0" stroke="#999999" points="506.38,-188 466.38,-188 466.38,-168 506.38,-168 506.38,-188"/>
<text text-anchor="middle" x="486.38" y="-174.5" font-family="Helvetica,sans-Serif" font-size="10.00">ctime</text>
</a>
</g>
</g>
<!-- Node1&#45;&gt;Node5 -->
<g id="edge29_Node000001_Node000005" class="edge">
<title>Node1&#45;&gt;Node5</title>
<g id="a_edge29_Node000001_Node000005"><a xlink:title=" ">
<path fill="none" stroke="#63b8ff" d="M377.37,-223.59C399.05,-214.72 431.7,-201.37 455.61,-191.59"/>
<polygon fill="#63b8ff" stroke="#63b8ff" points="456.91,-194.84 464.84,-187.81 454.26,-188.36 456.91,-194.84"/>
</a>
</g>
</g>
<!-- Node6 -->
<g id="Node000006" class="node">
<title>Node6</title>
<g id="a_Node000006"><a xlink:title=" ">
<polygon fill="#e0e0e0" stroke="#999999" points="202.5,-132 154.25,-132 154.25,-112 202.5,-112 202.5,-132"/>
<text text-anchor="middle" x="178.38" y="-118.5" font-family="Helvetica,sans-Serif" font-size="10.00">random</text>
</a>
</g>
</g>
<!-- Node1&#45;&gt;Node6 -->
<g id="edge30_Node000001_Node000006" class="edge">
<title>Node1&#45;&gt;Node6</title>
<g id="a_edge30_Node000001_Node000006"><a xlink:title=" ">
<path fill="none" stroke="#63b8ff" d="M339.37,-223.62C308.98,-204.63 239.89,-161.45 202.87,-138.31"/>
<polygon fill="#63b8ff" stroke="#63b8ff" points="204.96,-135.49 194.63,-133.16 201.25,-141.43 204.96,-135.49"/>
</a>
</g>
</g>
<!-- Node7 -->
<g id="Node000007" class="node">
<title>Node7</title>
<g id="a_Node000007"><a xlink:href="$biteopt_8h.html" xlink:title="The inclusion file for the CBiteOpt and CBiteOptDeep classes.">
<polygon fill="white" stroke="#666666" points="877.12,-188 823.62,-188 823.62,-168 877.12,-168 877.12,-188"/>
<text text-anchor="middle" x="850.38" y="-174.5" font-family="Helvetica,sans-Serif" font-size="10.00">biteopt.h</text>
</a>
</g>
</g>
<!-- Node1&#45;&gt;Node7 -->
<g id="edge31_Node000001_Node000007" class="edge">
<title>Node1&#45;&gt;Node7</title>
<g id="a_edge31_Node000001_Node000007"><a xlink:title=" ">
<path fill="none" stroke="#63b8ff" d="M428.1,-224.97C535.1,-213.32 729.62,-192.15 811.94,-183.18"/>
<polygon fill="#63b8ff" stroke="#63b8ff" points="812.18,-186.68 821.74,-182.12 811.42,-179.72 812.18,-186.68"/>
</a>
</g>
</g>
<!-- Node14 -->
<g id="Node000014" class="node">
<title>Node14</title>
<g id="a_Node000014"><a xlink:href="$evaluator_8h.html" xlink:title=" ">
<polygon fill="white" stroke="#666666" points="386.38,-188 322.38,-188 322.38,-168 386.38,-168 386.38,-188"/>
<text text-anchor="middle" x="354.38" y="-174.5" font-family="Helvetica,sans-Serif" font-size="10.00">evaluator.h</text>
</a>
</g>
</g>
<!-- Node1&#45;&gt;Node14 -->
<g id="edge39_Node000001_Node000014" class="edge">
<title>Node1&#45;&gt;Node14</title>
<g id="a_edge39_Node000001_Node000014"><a xlink:title=" ">
<path fill="none" stroke="#63b8ff" d="M354.38,-223.59C354.38,-217.01 354.38,-207.96 354.38,-199.73"/>
<polygon fill="#63b8ff" stroke="#63b8ff" points="357.88,-199.81 354.38,-189.81 350.88,-199.81 357.88,-199.81"/>
</a>
</g>
</g>
<!-- Node8 -->
<g id="Node000008" class="node">
<title>Node8</title>
<g id="a_Node000008"><a xlink:href="$spheropt_8h.html" xlink:title="The inclusion file for the CSpherOpt class.">
<polygon fill="white" stroke="#666666" points="881.25,-132 819.5,-132 819.5,-112 881.25,-112 881.25,-132"/>
<text text-anchor="middle" x="850.38" y="-118.5" font-family="Helvetica,sans-Serif" font-size="10.00">spheropt.h</text>
</a>
</g>
</g>
<!-- Node7&#45;&gt;Node8 -->
<g id="edge32_Node000007_Node000008" class="edge">
<title>Node7&#45;&gt;Node8</title>
<g id="a_edge32_Node000007_Node000008"><a xlink:title=" ">
<path fill="none" stroke="#63b8ff" d="M850.38,-167.59C850.38,-161.01 850.38,-151.96 850.38,-143.73"/>
<polygon fill="#63b8ff" stroke="#63b8ff" points="853.88,-143.81 850.38,-133.81 846.88,-143.81 853.88,-143.81"/>
</a>
</g>
</g>
<!-- Node13 -->
<g id="Node000013" class="node">
<title>Node13</title>
<g id="a_Node000013"><a xlink:href="$nmsopt_8h.html" xlink:title="The inclusion file for the CNMSeqOpt class.">
<polygon fill="white" stroke="#666666" points="955.62,-132 899.12,-132 899.12,-112 955.62,-112 955.62,-132"/>
<text text-anchor="middle" x="927.38" y="-118.5" font-family="Helvetica,sans-Serif" font-size="10.00">nmsopt.h</text>
</a>
</g>
</g>
<!-- Node7&#45;&gt;Node13 -->
<g id="edge37_Node000007_Node000013" class="edge">
<title>Node7&#45;&gt;Node13</title>
<g id="a_edge37_Node000007_Node000013"><a xlink:title=" ">
<path fill="none" stroke="#63b8ff" d="M863.79,-167.59C874.98,-159.74 891.19,-148.38 904.43,-139.09"/>
<polygon fill="#63b8ff" stroke="#63b8ff" points="906.44,-141.96 912.62,-133.35 902.42,-136.22 906.44,-141.96"/>
</a>
</g>
</g>
<!-- Node9 -->
<g id="Node000009" class="node">
<title>Node9</title>
<g id="a_Node000009"><a xlink:href="$biteaux_8h.html" xlink:title="The inclusion file for the CBiteRnd, CBitePop, CBiteParPops, CBiteOptInterface, and CBiteOptBase clas...">
<polygon fill="white" stroke="#666666" points="916.25,-76 860.5,-76 860.5,-56 916.25,-56 916.25,-76"/>
<text text-anchor="middle" x="888.38" y="-62.5" font-family="Helvetica,sans-Serif" font-size="10.00">biteaux.h</text>
</a>
</g>
</g>
<!-- Node8&#45;&gt;Node9 -->
<g id="edge33_Node000008_Node000009" class="edge">
<title>Node8&#45;&gt;Node9</title>
<g id="a_edge33_Node000008_Node000009"><a xlink:title=" ">
<path fill="none" stroke="#63b8ff" d="M856.99,-111.59C862.06,-104.39 869.21,-94.23 875.4,-85.43"/>
<polygon fill="#63b8ff" stroke="#63b8ff" points="878.07,-87.73 880.96,-77.54 872.34,-83.7 878.07,-87.73"/>
</a>
</g>
</g>
<!-- Node10 -->
<g id="Node000010" class="node">
<title>Node10</title>
<g id="a_Node000010"><a xlink:title=" ">
<polygon fill="#e0e0e0" stroke="#999999" points="847.5,-20 799.25,-20 799.25,0 847.5,0 847.5,-20"/>
<text text-anchor="middle" x="823.38" y="-6.5" font-family="Helvetica,sans-Serif" font-size="10.00">stdint.h</text>
</a>
</g>
</g>
<!-- Node9&#45;&gt;Node10 -->
<g id="edge34_Node000009_Node000010" class="edge">
<title>Node9&#45;&gt;Node10</title>
<g id="a_edge34_Node000009_Node000010"><a xlink:title=" ">
<path fill="none" stroke="#63b8ff" d="M877.05,-55.59C867.73,-47.85 854.3,-36.69 843.2,-27.47"/>
<polygon fill="#63b8ff" stroke="#63b8ff" points="845.66,-24.96 835.73,-21.27 841.19,-30.35 845.66,-24.96"/>
</a>
</g>
</g>
<!-- Node11 -->
<g id="Node000011" class="node">
<title>Node11</title>
<g id="a_Node000011"><a xlink:title=" ">
<polygon fill="#e0e0e0" stroke="#999999" points="911.38,-20 865.38,-20 865.38,0 911.38,0 911.38,-20"/>
<text text-anchor="middle" x="888.38" y="-6.5" font-family="Helvetica,sans-Serif" font-size="10.00">math.h</text>
</a>
</g>
</g>
<!-- Node9&#45;&gt;Node11 -->
<g id="edge35_Node000009_Node000011" class="edge">
<title>Node9&#45;&gt;Node11</title>
<g id="a_edge35_Node000009_Node000011"><a xlink:title=" ">
<path fill="none" stroke="#63b8ff" d="M888.38,-55.59C888.38,-49.01 888.38,-39.96 888.38,-31.73"/>
<polygon fill="#63b8ff" stroke="#63b8ff" points="891.88,-31.81 888.38,-21.81 884.88,-31.81 891.88,-31.81"/>
</a>
</g>
</g>
<!-- Node12 -->
<g id="Node000012" class="node">
<title>Node12</title>
<g id="a_Node000012"><a xlink:title=" ">
<polygon fill="#e0e0e0" stroke="#999999" points="977.5,-20 929.25,-20 929.25,0 977.5,0 977.5,-20"/>
<text text-anchor="middle" x="953.38" y="-6.5" font-family="Helvetica,sans-Serif" font-size="10.00">string.h</text>
</a>
</g>
</g>
<!-- Node9&#45;&gt;Node12 -->
<g id="edge36_Node000009_Node000012" class="edge">
<title>Node9&#45;&gt;Node12</title>
<g id="a_edge36_Node000009_Node000012"><a xlink:title=" ">
<path fill="none" stroke="#63b8ff" d="M899.7,-55.59C909.02,-47.85 922.45,-36.69 933.55,-27.47"/>
<polygon fill="#63b8ff" stroke="#63b8ff" points="935.56,-30.35 941.02,-21.27 931.09,-24.96 935.56,-30.35"/>
</a>
</g>
</g>
<!-- Node13&#45;&gt;Node9 -->
<g id="edge38_Node000013_Node000009" class="edge">
<title>Node13&#45;&gt;Node9</title>
<g id="a_edge38_Node000013_Node000009"><a xlink:title=" ">
<path fill="none" stroke="#63b8ff" d="M920.58,-111.59C915.38,-104.39 908.04,-94.23 901.69,-85.43"/>
<polygon fill="#63b8ff" stroke="#63b8ff" points="904.67,-83.58 895.98,-77.53 898.99,-87.68 904.67,-83.58"/>
</a>
</g>
</g>
<!-- Node14&#45;&gt;Node2 -->
<g id="edge40_Node000014_Node000002" class="edge">
<title>Node14&#45;&gt;Node2</title>
<g id="a_edge40_Node000014_Node000002"><a xlink:title=" ">
<path fill="none" stroke="#63b8ff" d="M322.24,-172.47C271.93,-165.23 171.23,-150.23 76.26,-132.46"/>
<polygon fill="#63b8ff" stroke="#63b8ff" points="76.98,-129.04 66.5,-130.62 75.68,-135.92 76.98,-129.04"/>
</a>
</g>
</g>
<!-- Node14&#45;&gt;Node3 -->
<g id="edge41_Node000014_Node000003" class="edge">
<title>Node14&#45;&gt;Node3</title>
<g id="a_edge41_Node000014_Node000003"><a xlink:title=" ">
<path fill="none" stroke="#63b8ff" d="M322.08,-170.39C283.04,-162.33 215.09,-148.05 147.34,-132.4"/>
<polygon fill="#63b8ff" stroke="#63b8ff" points="148.49,-129.07 137.95,-130.22 146.9,-135.89 148.49,-129.07"/>
</a>
</g>
</g>
<!-- Node14&#45;&gt;Node6 -->
<g id="edge46_Node000014_Node000006" class="edge">
<title>Node14&#45;&gt;Node6</title>
<g id="a_edge46_Node000014_Node000006"><a xlink:title=" ">
<path fill="none" stroke="#63b8ff" d="M323.72,-167.59C292.97,-158.16 245.68,-143.65 213.46,-133.76"/>
<polygon fill="#63b8ff" stroke="#63b8ff" points="214.77,-130.51 204.18,-130.92 212.72,-137.2 214.77,-130.51"/>
</a>
</g>
</g>
<!-- Node15 -->
<g id="Node000015" class="node">
<title>Node15</title>
<g id="a_Node000015"><a xlink:title=" ">
<polygon fill="#e0e0e0" stroke="#999999" points="382.25,-132 326.5,-132 326.5,-112 382.25,-112 382.25,-132"/>
<text text-anchor="middle" x="354.38" y="-118.5" font-family="Helvetica,sans-Serif" font-size="10.00">algorithm</text>
</a>
</g>
</g>
<!-- Node14&#45;&gt;Node15 -->
<g id="edge42_Node000014_Node000015" class="edge">
<title>Node14&#45;&gt;Node15</title>
<g id="a_edge42_Node000014_Node000015"><a xlink:title=" ">
<path fill="none" stroke="#63b8ff" d="M354.38,-167.59C354.38,-161.01 354.38,-151.96 354.38,-143.73"/>
<polygon fill="#63b8ff" stroke="#63b8ff" points="357.88,-143.81 354.38,-133.81 350.88,-143.81 357.88,-143.81"/>
</a>
</g>
</g>
<!-- Node16 -->
<g id="Node000016" class="node">
<title>Node16</title>
<g id="a_Node000016"><a xlink:title=" ">
<polygon fill="#e0e0e0" stroke="#999999" points="442.5,-132 400.25,-132 400.25,-112 442.5,-112 442.5,-132"/>
<text text-anchor="middle" x="421.38" y="-118.5" font-family="Helvetica,sans-Serif" font-size="10.00">queue</text>
</a>
</g>
</g>
<!-- Node14&#45;&gt;Node16 -->
<g id="edge43_Node000014_Node000016" class="edge">
<title>Node14&#45;&gt;Node16</title>
<g id="a_edge43_Node000014_Node000016"><a xlink:title=" ">
<path fill="none" stroke="#63b8ff" d="M366.05,-167.59C375.65,-159.85 389.5,-148.69 400.94,-139.47"/>
<polygon fill="#63b8ff" stroke="#63b8ff" points="403.07,-142.25 408.66,-133.25 398.68,-136.8 403.07,-142.25"/>
</a>
</g>
</g>
<!-- Node17 -->
<g id="Node000017" class="node">
<title>Node17</title>
<g id="a_Node000017"><a xlink:title=" ">
<polygon fill="#e0e0e0" stroke="#999999" points="503.88,-132 460.88,-132 460.88,-112 503.88,-112 503.88,-132"/>
<text text-anchor="middle" x="482.38" y="-118.5" font-family="Helvetica,sans-Serif" font-size="10.00">mutex</text>
</a>
</g>
</g>
<!-- Node14&#45;&gt;Node17 -->
<g id="edge44_Node000014_Node000017" class="edge">
<title>Node14&#45;&gt;Node17</title>
<g id="a_edge44_Node000014_Node000017"><a xlink:title=" ">
<path fill="none" stroke="#63b8ff" d="M376.67,-167.59C396.98,-159.02 427.22,-146.27 450.16,-136.59"/>
<polygon fill="#63b8ff" stroke="#63b8ff" points="451.51,-139.82 459.37,-132.71 448.79,-133.37 451.51,-139.82"/>
</a>
</g>
</g>
<!-- Node18 -->
<g id="Node000018" class="node">
<title>Node18</title>
<g id="a_Node000018"><a xlink:title=" ">
<polygon fill="#e0e0e0" stroke="#999999" points="564.88,-132 521.88,-132 521.88,-112 564.88,-112 564.88,-132"/>
<text text-anchor="middle" x="543.38" y="-118.5" font-family="Helvetica,sans-Serif" font-size="10.00">thread</text>
</a>
</g>
</g>
<!-- Node14&#45;&gt;Node18 -->
<g id="edge45_Node000014_Node000018" class="edge">
<title>Node14&#45;&gt;Node18</title>
<g id="a_edge45_Node000014_Node000018"><a xlink:title=" ">
<path fill="none" stroke="#63b8ff" d="M386.7,-168.01C416.59,-159.66 462.54,-146.75 510.52,-132.81"/>
<polygon fill="#63b8ff" stroke="#63b8ff" points="511.36,-136.21 519.98,-130.05 509.4,-129.49 511.36,-136.21"/>
</a>
</g>
</g>
<!-- Node19 -->
<g id="Node000019" class="node">
<title>Node19</title>
<g id="a_Node000019"><a xlink:title=" ">
<polygon fill="#e0e0e0" stroke="#999999" points="625.88,-132 582.88,-132 582.88,-112 625.88,-112 625.88,-132"/>
<text text-anchor="middle" x="604.38" y="-118.5" font-family="Helvetica,sans-Serif" font-size="10.00">vector</text>
</a>
</g>
</g>
<!-- Node14&#45;&gt;Node19 -->
<g id="edge47_Node000014_Node000019" class="edge">
<title>Node14&#45;&gt;Node19</title>
<g id="a_edge47_Node000014_Node000019"><a xlink:title=" ">
<path fill="none" stroke="#63b8ff" d="M386.47,-170.08C389.81,-169.37 393.16,-168.67 396.38,-168 472,-152.25 494.2,-151.64 571.7,-132.51"/>
<polygon fill="#63b8ff" stroke="#63b8ff" points="572.16,-136 581.02,-130.19 570.47,-129.21 572.16,-136"/>
</a>
</g>
</g>
<!-- Node20 -->
<g id="Node000020" class="node">
<title>Node20</title>
<g id="a_Node000020"><a xlink:title=" ">
<polygon fill="#e0e0e0" stroke="#999999" points="689,-132 643.75,-132 643.75,-112 689,-112 689,-132"/>
<text text-anchor="middle" x="666.38" y="-118.5" font-family="Helvetica,sans-Serif" font-size="10.00">chrono</text>
</a>
</g>
</g>
<!-- Node14&#45;&gt;Node20 -->
<g id="edge48_Node000014_Node000020" class="edge">
<title>Node14&#45;&gt;Node20</title>
<g id="a_edge48_Node000014_Node000020"><a xlink:title=" ">
<path fill="none" stroke="#63b8ff" d="M386.44,-169.92C389.79,-169.24 393.15,-168.59 396.38,-168 498.55,-149.38 528.48,-154.64 632.46,-132.42"/>
<polygon fill="#63b8ff" stroke="#63b8ff" points="632.93,-135.89 641.96,-130.35 631.45,-129.05 632.93,-135.89"/>
</a>
</g>
</g>
<!-- Node21 -->
<g id="Node000021" class="node">
<title>Node21</title>
<g id="a_Node000021"><a xlink:title=" ">
<polygon fill="#e0e0e0" stroke="#999999" points="801.38,-132 707.38,-132 707.38,-112 801.38,-112 801.38,-132"/>
<text text-anchor="middle" x="754.38" y="-118.5" font-family="Helvetica,sans-Serif" font-size="10.00">condition_variable</text>
</a>
</g>
</g>
<!-- Node14&#45;&gt;Node21 -->
<g id="edge49_Node000014_Node000021" class="edge">
<title>Node14&#45;&gt;Node21</title>
<g id="a_edge49_Node000014_Node000021"><a xlink:title=" ">
<path fill="none" stroke="#63b8ff" d="M386.42,-169.81C389.77,-169.16 393.14,-168.54 396.38,-168 526.2,-146.4 562.6,-150.49 695.99,-132.28"/>
<polygon fill="#63b8ff" stroke="#63b8ff" points="696.11,-135.79 705.54,-130.95 695.15,-128.86 696.11,-135.79"/>
</a>
</g>
</g>
<!-- Node22 -->
<g id="Node000022" class="node">
<title>Node22</title>
<g id="a_Node000022"><a xlink:title=" ">
<polygon fill="#e0e0e0" stroke="#999999" points="308.38,-132 220.38,-132 220.38,-112 308.38,-112 308.38,-132"/>
<text text-anchor="middle" x="264.38" y="-118.5" font-family="Helvetica,sans-Serif" font-size="10.00">pcg_random.hpp</text>
</a>
</g>
</g>
<!-- Node14&#45;&gt;Node22 -->
<g id="edge50_Node000014_Node000022" class="edge">
<title>Node14&#45;&gt;Node22</title>
<g id="a_edge50_Node000014_Node000022"><a xlink:title=" ">
<path fill="none" stroke="#63b8ff" d="M338.7,-167.59C325.23,-159.51 305.56,-147.71 289.83,-138.27"/>
<polygon fill="#63b8ff" stroke="#63b8ff" points="291.85,-135.4 281.47,-133.26 288.25,-141.4 291.85,-135.4"/>
</a>
</g>
</g>
</g>
</svg>
