<?xml version="1.0" encoding="UTF-8" standalone="no"?>
<!DOCTYPE svg PUBLIC "-//W3C//DTD SVG 1.1//EN"
 "http://www.w3.org/Graphics/SVG/1.1/DTD/svg11.dtd">
<!-- Generated by graphviz version 12.2.1 (20241206.2353)
 -->
<!-- Title: biteopt::BiteOptimizer::getBestValue Pages: 1 -->
<svg width="295pt" height="52pt"
 viewBox="0.00 0.00 295.00 52.00" xmlns="http://www.w3.org/2000/svg" xmlns:xlink="http://www.w3.org/1999/xlink">
<g id="graph0" class="graph" transform="scale(1 1) rotate(0) translate(4 48)">
<title>biteopt::BiteOptimizer::getBestValue</title>
<!-- Node1 -->
<g id="Node000001" class="node">
<title>Node1</title>
<g id="a_Node000001"><a xlink:title=" ">
<polygon fill="#999999" stroke="#666666" points="110.5,-32 0,-32 0,0 110.5,0 110.5,-32"/>
<text text-anchor="start" x="8" y="-18.5" font-family="Helvetica,sans-Serif" font-size="10.00">biteopt::BiteOptimizer</text>
<text text-anchor="middle" x="55.25" y="-6.5" font-family="Helvetica,sans-Serif" font-size="10.00">::getBestValue</text>
</a>
</g>
</g>
<!-- Node2 -->
<g id="Node000002" class="node">
<title>Node2</title>
<g id="a_Node000002"><a xlink:href="$class_c_bite_opt_deep.html#a961516dc7772d327e64965fc3e07ce31" xlink:title=" ">
<polygon fill="white" stroke="#666666" points="287,-26 146.5,-26 146.5,-6 287,-6 287,-26"/>
<text text-anchor="middle" x="216.75" y="-12.5" font-family="Helvetica,sans-Serif" font-size="10.00">CBiteOptDeep::getBestCost</text>
</a>
</g>
</g>
<!-- Node1&#45;&gt;Node2 -->
<g id="edge3_Node000001_Node000002" class="edge">
<title>Node1&#45;&gt;Node2</title>
<g id="a_edge3_Node000001_Node000002"><a xlink:title=" ">
<path fill="none" stroke="#63b8ff" d="M110.69,-16C118.42,-16 126.51,-16 134.61,-16"/>
<polygon fill="#63b8ff" stroke="#63b8ff" points="134.53,-19.5 144.53,-16 134.53,-12.5 134.53,-19.5"/>
</a>
</g>
</g>
<!-- Node2&#45;&gt;Node2 -->
<g id="edge4_Node000002_Node000002" class="edge">
<title>Node2&#45;&gt;Node2</title>
<g id="a_edge4_Node000002_Node000002"><a xlink:title=" ">
<path fill="none" stroke="#63b8ff" d="M191.09,-26.34C180.12,-34.98 188.68,-44 216.75,-44 232.1,-44 241.62,-41.3 245.29,-37.44"/>
<polygon fill="#63b8ff" stroke="#63b8ff" points="248.69,-36.6 242.79,-27.8 241.92,-38.36 248.69,-36.6"/>
</a>
</g>
</g>
</g>
</svg>
