<?xml version="1.0" encoding="UTF-8" standalone="no"?>
<!DOCTYPE svg PUBLIC "-//W3C//DTD SVG 1.1//EN"
 "http://www.w3.org/Graphics/SVG/1.1/DTD/svg11.dtd">
<!-- Generated by graphviz version 12.2.1 (20241206.2353)
 -->
<!-- Title: fcmaes.journal.Journal.value Pages: 1 -->
<svg width="442pt" height="40pt"
 viewBox="0.00 0.00 441.50 40.00" xmlns="http://www.w3.org/2000/svg" xmlns:xlink="http://www.w3.org/1999/xlink">
<g id="graph0" class="graph" transform="scale(1 1) rotate(0) translate(4 36)">
<title>fcmaes.journal.Journal.value</title>
<!-- Node1 -->
<g id="Node000001" class="node">
<title>Node1</title>
<g id="a_Node000001"><a xlink:title="Writes the trial value to a file and ensures that data is written to disk.">
<polygon fill="#999999" stroke="#666666" points="140.5,-26 0,-26 0,-6 140.5,-6 140.5,-26"/>
<text text-anchor="middle" x="70.25" y="-12.5" font-family="Helvetica,sans-Serif" font-size="10.00">fcmaes.journal.Journal.value</text>
</a>
</g>
</g>
<!-- Node2 -->
<g id="Node000002" class="node">
<title>Node2</title>
<g id="a_Node000002"><a xlink:href="$namespacefcmaes_1_1journal.html#a968c87aa2fb6e2e186e221f834d63552" xlink:title="Creates and returns a JSON representation of a trial value message.">
<polygon fill="white" stroke="#666666" points="275,-32 176.5,-32 176.5,0 275,0 275,-32"/>
<text text-anchor="start" x="184.5" y="-18.5" font-family="Helvetica,sans-Serif" font-size="10.00">fcmaes.journal.trial</text>
<text text-anchor="middle" x="225.75" y="-6.5" font-family="Helvetica,sans-Serif" font-size="10.00">_value</text>
</a>
</g>
</g>
<!-- Node1&#45;&gt;Node2 -->
<g id="edge3_Node000001_Node000002" class="edge">
<title>Node1&#45;&gt;Node2</title>
<g id="a_edge3_Node000001_Node000002"><a xlink:title=" ">
<path fill="none" stroke="#63b8ff" d="M140.81,-16C148.81,-16 156.91,-16 164.76,-16"/>
<polygon fill="#63b8ff" stroke="#63b8ff" points="164.54,-19.5 174.54,-16 164.54,-12.5 164.54,-19.5"/>
</a>
</g>
</g>
<!-- Node3 -->
<g id="Node000003" class="node">
<title>Node3</title>
<g id="a_Node000003"><a xlink:href="$namespacefcmaes_1_1journal.html#ab2d4646b056641882ced63f7d0299978" xlink:title="Converts a given message object to its JSON representation.">
<polygon fill="white" stroke="#666666" points="433.5,-32 311,-32 311,0 433.5,0 433.5,-32"/>
<text text-anchor="start" x="319" y="-18.5" font-family="Helvetica,sans-Serif" font-size="10.00">fcmaes.journal.message</text>
<text text-anchor="middle" x="372.25" y="-6.5" font-family="Helvetica,sans-Serif" font-size="10.00">_to_json</text>
</a>
</g>
</g>
<!-- Node2&#45;&gt;Node3 -->
<g id="edge4_Node000002_Node000003" class="edge">
<title>Node2&#45;&gt;Node3</title>
<g id="a_edge4_Node000002_Node000003"><a xlink:title=" ">
<path fill="none" stroke="#63b8ff" d="M275.27,-16C282.96,-16 291.05,-16 299.14,-16"/>
<polygon fill="#63b8ff" stroke="#63b8ff" points="299.03,-19.5 309.03,-16 299.03,-12.5 299.03,-19.5"/>
</a>
</g>
</g>
</g>
</svg>
