<?xml version="1.0" encoding="UTF-8" standalone="no"?>
<!DOCTYPE svg PUBLIC "-//W3C//DTD SVG 1.1//EN"
 "http://www.w3.org/Graphics/SVG/1.1/DTD/svg11.dtd">
<!-- Generated by graphviz version 12.2.1 (20241206.2353)
 -->
<!-- Title: CBiteOpt::generateSol2b Pages: 1 -->
<svg width="597pt" height="252pt"
 viewBox="0.00 0.00 597.00 252.00" xmlns="http://www.w3.org/2000/svg" xmlns:xlink="http://www.w3.org/1999/xlink">
<g id="graph0" class="graph" transform="scale(1 1) rotate(0) translate(4 248)">
<title>CBiteOpt::generateSol2b</title>
<!-- Node1 -->
<g id="Node000001" class="node">
<title>Node1</title>
<g id="a_Node000001"><a xlink:title=" ">
<polygon fill="#999999" stroke="#666666" points="124.75,-115 0,-115 0,-95 124.75,-95 124.75,-115"/>
<text text-anchor="middle" x="62.38" y="-101.5" font-family="Helvetica,sans-Serif" font-size="10.00">CBiteOpt::generateSol2b</text>
</a>
</g>
</g>
<!-- Node2 -->
<g id="Node000002" class="node">
<title>Node2</title>
<g id="a_Node000002"><a xlink:href="$class_c_bite_pop.html#ad427518ed1d47fbe3c2222b3a11badb7" xlink:title=" ">
<polygon fill="white" stroke="#666666" points="449.62,-244 344.38,-244 344.38,-212 449.62,-212 449.62,-244"/>
<text text-anchor="start" x="352.38" y="-230.5" font-family="Helvetica,sans-Serif" font-size="10.00">CBitePop&lt; int64_t &gt;</text>
<text text-anchor="middle" x="397" y="-218.5" font-family="Helvetica,sans-Serif" font-size="10.00">::CBitePop</text>
</a>
</g>
</g>
<!-- Node1&#45;&gt;Node2 -->
<g id="edge18_Node000001_Node000002" class="edge">
<title>Node1&#45;&gt;Node2</title>
<g id="a_edge18_Node000001_Node000002"><a xlink:title=" ">
<path fill="none" stroke="#63b8ff" d="M68.41,-115.37C80.49,-138.92 113.66,-196.19 160.75,-219 214.5,-245.03 283.53,-244.28 332.89,-238.84"/>
<polygon fill="#63b8ff" stroke="#63b8ff" points="333.04,-242.35 342.55,-237.67 332.2,-235.4 333.04,-242.35"/>
</a>
</g>
</g>
<!-- Node3 -->
<g id="Node000003" class="node">
<title>Node3</title>
<g id="a_Node000003"><a xlink:href="$class_c_bite_rnd.html#a4e9ad0a5c5e09149a60f849736d8d7ce" xlink:title=" ">
<polygon fill="white" stroke="#666666" points="278.38,-96 188.88,-96 188.88,-76 278.38,-76 278.38,-96"/>
<text text-anchor="middle" x="233.62" y="-82.5" font-family="Helvetica,sans-Serif" font-size="10.00">CBiteRnd::getInt</text>
</a>
</g>
</g>
<!-- Node1&#45;&gt;Node3 -->
<g id="edge19_Node000001_Node000003" class="edge">
<title>Node1&#45;&gt;Node3</title>
<g id="a_edge19_Node000001_Node000003"><a xlink:title=" ">
<path fill="none" stroke="#63b8ff" d="M124.96,-98.09C142.08,-96.16 160.57,-94.09 177.31,-92.21"/>
<polygon fill="#63b8ff" stroke="#63b8ff" points="177.53,-95.71 187.08,-91.11 176.75,-88.75 177.53,-95.71"/>
</a>
</g>
</g>
<!-- Node6 -->
<g id="Node000006" class="node">
<title>Node6</title>
<g id="a_Node000006"><a xlink:href="$class_c_bite_opt.html#af25cdfb71a0ad9081148c31da58fe949" xlink:title=" ">
<polygon fill="white" stroke="#666666" points="298.62,-134 168.62,-134 168.62,-114 298.62,-114 298.62,-134"/>
<text text-anchor="middle" x="233.62" y="-120.5" font-family="Helvetica,sans-Serif" font-size="10.00">CBiteOpt::getMinSolIndex</text>
</a>
</g>
</g>
<!-- Node1&#45;&gt;Node6 -->
<g id="edge22_Node000001_Node000006" class="edge">
<title>Node1&#45;&gt;Node6</title>
<g id="a_edge22_Node000001_Node000006"><a xlink:title=" ">
<path fill="none" stroke="#63b8ff" d="M124.96,-111.91C135.41,-113.09 146.37,-114.32 157.13,-115.52"/>
<polygon fill="#63b8ff" stroke="#63b8ff" points="156.41,-118.97 166.74,-116.6 157.19,-112.01 156.41,-118.97"/>
</a>
</g>
</g>
<!-- Node8 -->
<g id="Node000008" class="node">
<title>Node8</title>
<g id="a_Node000008"><a xlink:href="$class_c_bite_opt_base.html#abf93d2e584756812ad210f86e4f84a69" xlink:title=" ">
<polygon fill="white" stroke="#666666" points="451.5,-184 342.5,-184 342.5,-152 451.5,-152 451.5,-184"/>
<text text-anchor="start" x="350.5" y="-170.5" font-family="Helvetica,sans-Serif" font-size="10.00">CBiteOptBase&lt; int64</text>
<text text-anchor="middle" x="397" y="-158.5" font-family="Helvetica,sans-Serif" font-size="10.00">_t &gt;::select</text>
</a>
</g>
</g>
<!-- Node1&#45;&gt;Node8 -->
<g id="edge31_Node000001_Node000008" class="edge">
<title>Node1&#45;&gt;Node8</title>
<g id="a_edge31_Node000001_Node000008"><a xlink:title=" ">
<path fill="none" stroke="#63b8ff" d="M85.26,-115.49C104.65,-124.3 133.95,-136.47 160.75,-143 217.15,-156.74 282.99,-162.93 330.65,-165.72"/>
<polygon fill="#63b8ff" stroke="#63b8ff" points="330.36,-169.21 340.54,-166.26 330.74,-162.22 330.36,-169.21"/>
</a>
</g>
</g>
<!-- Node9 -->
<g id="Node000009" class="node">
<title>Node9</title>
<g id="a_Node000009"><a xlink:href="$class_c_bite_pop.html#aaa8e3f180accfedf21218cbed8ffbb79" xlink:title=" ">
<polygon fill="white" stroke="#666666" points="306.5,-20 160.75,-20 160.75,0 306.5,0 306.5,-20"/>
<text text-anchor="middle" x="233.62" y="-6.5" font-family="Helvetica,sans-Serif" font-size="10.00">CBitePop::getParamsOrdered</text>
</a>
</g>
</g>
<!-- Node1&#45;&gt;Node9 -->
<g id="edge26_Node000001_Node000009" class="edge">
<title>Node1&#45;&gt;Node9</title>
<g id="a_edge26_Node000001_Node000009"><a xlink:title=" ">
<path fill="none" stroke="#63b8ff" d="M69.15,-94.55C82.1,-77.48 115.08,-45.73 150.31,-25.58"/>
<polygon fill="#63b8ff" stroke="#63b8ff" points="151.8,-28.75 158.96,-20.94 148.49,-22.59 151.8,-28.75"/>
</a>
</g>
</g>
<!-- Node1&#45;&gt;Node9 -->
<g id="edge27_Node000001_Node000009" class="edge">
<title>Node1&#45;&gt;Node9</title>
<g id="a_edge27_Node000001_Node000009"><a xlink:title=" ">
<path fill="none" stroke="#63b8ff" d="M80.53,-94.75C98.9,-79.77 129.63,-53.44 160.75,-38 173.54,-31.66 188.69,-27.25 201.78,-23.56"/>
<polygon fill="#63b8ff" stroke="#63b8ff" points="202.52,-26.99 211.18,-20.89 200.61,-20.25 202.52,-26.99"/>
</a>
</g>
</g>
<!-- Node10 -->
<g id="Node000010" class="node">
<title>Node10</title>
<g id="a_Node000010"><a xlink:href="$class_c_bite_rnd.html#ab73d2c6a6e4c1f5da7441168f165529d" xlink:title=" ">
<polygon fill="white" stroke="#666666" points="285.88,-58 181.38,-58 181.38,-38 285.88,-38 285.88,-58"/>
<text text-anchor="middle" x="233.62" y="-44.5" font-family="Helvetica,sans-Serif" font-size="10.00">CBiteRnd::getSqrInt</text>
</a>
</g>
</g>
<!-- Node1&#45;&gt;Node10 -->
<g id="edge28_Node000001_Node000010" class="edge">
<title>Node1&#45;&gt;Node10</title>
<g id="a_edge28_Node000001_Node000010"><a xlink:title=" ">
<path fill="none" stroke="#63b8ff" d="M87.91,-94.53C107.43,-86.42 135.56,-75.21 160.75,-67 166.58,-65.1 172.72,-63.25 178.85,-61.5"/>
<polygon fill="#63b8ff" stroke="#63b8ff" points="179.66,-64.91 188.37,-58.86 177.79,-58.16 179.66,-64.91"/>
</a>
</g>
</g>
<!-- Node12 -->
<g id="Node000012" class="node">
<title>Node12</title>
<g id="a_Node000012"><a xlink:href="$class_c_bite_opt.html#ab98060db69130d7610818bddda8c7115" xlink:title=" ">
<polygon fill="white" stroke="#666666" points="292.62,-210 174.62,-210 174.62,-190 292.62,-190 292.62,-210"/>
<text text-anchor="middle" x="233.62" y="-196.5" font-family="Helvetica,sans-Serif" font-size="10.00">CBiteOpt::selectAltPop</text>
</a>
</g>
</g>
<!-- Node1&#45;&gt;Node12 -->
<g id="edge32_Node000001_Node000012" class="edge">
<title>Node1&#45;&gt;Node12</title>
<g id="a_edge32_Node000001_Node000012"><a xlink:title=" ">
<path fill="none" stroke="#63b8ff" d="M75.18,-115.49C92.74,-130.65 127.28,-158.74 160.75,-176 167.82,-179.65 175.57,-182.91 183.27,-185.77"/>
<polygon fill="#63b8ff" stroke="#63b8ff" points="182.03,-189.04 192.63,-189.04 184.34,-182.44 182.03,-189.04"/>
</a>
</g>
</g>
<!-- Node4 -->
<g id="Node000004" class="node">
<title>Node4</title>
<g id="a_Node000004"><a xlink:href="$class_c_bite_rnd.html#afdb77334884f1a612780def0dec0a326" xlink:title=" ">
<polygon fill="white" stroke="#666666" points="436.12,-96 357.88,-96 357.88,-76 436.12,-76 436.12,-96"/>
<text text-anchor="middle" x="397" y="-82.5" font-family="Helvetica,sans-Serif" font-size="10.00">CBiteRnd::get</text>
</a>
</g>
</g>
<!-- Node3&#45;&gt;Node4 -->
<g id="edge20_Node000003_Node000004" class="edge">
<title>Node3&#45;&gt;Node4</title>
<g id="a_edge20_Node000003_Node000004"><a xlink:title=" ">
<path fill="none" stroke="#63b8ff" d="M278.72,-86C299.6,-86 324.64,-86 346.2,-86"/>
<polygon fill="#63b8ff" stroke="#63b8ff" points="345.94,-89.5 355.94,-86 345.94,-82.5 345.94,-89.5"/>
</a>
</g>
</g>
<!-- Node5 -->
<g id="Node000005" class="node">
<title>Node5</title>
<g id="a_Node000005"><a xlink:href="$class_c_bite_rnd.html#ae1167f8ecac85f268ced4bc1d2fa953b" xlink:title=" ">
<polygon fill="white" stroke="#666666" points="589,-96 487.5,-96 487.5,-76 589,-76 589,-96"/>
<text text-anchor="middle" x="538.25" y="-82.5" font-family="Helvetica,sans-Serif" font-size="10.00">CBiteRnd::advance</text>
</a>
</g>
</g>
<!-- Node4&#45;&gt;Node5 -->
<g id="edge21_Node000004_Node000005" class="edge">
<title>Node4&#45;&gt;Node5</title>
<g id="a_edge21_Node000004_Node000005"><a xlink:title=" ">
<path fill="none" stroke="#63b8ff" d="M436.42,-86C448.68,-86 462.58,-86 476.04,-86"/>
<polygon fill="#63b8ff" stroke="#63b8ff" points="475.7,-89.5 485.7,-86 475.7,-82.5 475.7,-89.5"/>
</a>
</g>
</g>
<!-- Node7 -->
<g id="Node000007" class="node">
<title>Node7</title>
<g id="a_Node000007"><a xlink:href="$class_c_bite_rnd.html#aa4c960b792982f495cc19c04ad9c2705" xlink:title=" ">
<polygon fill="white" stroke="#666666" points="445.88,-134 348.12,-134 348.12,-114 445.88,-114 445.88,-134"/>
<text text-anchor="middle" x="397" y="-120.5" font-family="Helvetica,sans-Serif" font-size="10.00">CBiteRnd::getPow</text>
</a>
</g>
</g>
<!-- Node6&#45;&gt;Node7 -->
<g id="edge23_Node000006_Node000007" class="edge">
<title>Node6&#45;&gt;Node7</title>
<g id="a_edge23_Node000006_Node000007"><a xlink:title=" ">
<path fill="none" stroke="#63b8ff" d="M298.87,-124C311.26,-124 324.19,-124 336.42,-124"/>
<polygon fill="#63b8ff" stroke="#63b8ff" points="336.38,-127.5 346.38,-124 336.38,-120.5 336.38,-127.5"/>
</a>
</g>
</g>
<!-- Node6&#45;&gt;Node8 -->
<g id="edge25_Node000006_Node000008" class="edge">
<title>Node6&#45;&gt;Node8</title>
<g id="a_edge25_Node000006_Node000008"><a xlink:title=" ">
<path fill="none" stroke="#63b8ff" d="M272.87,-134.43C290.33,-139.19 311.49,-144.96 331.31,-150.36"/>
<polygon fill="#63b8ff" stroke="#63b8ff" points="330.13,-153.67 340.7,-152.92 331.97,-146.91 330.13,-153.67"/>
</a>
</g>
</g>
<!-- Node7&#45;&gt;Node5 -->
<g id="edge24_Node000007_Node000005" class="edge">
<title>Node7&#45;&gt;Node5</title>
<g id="a_edge24_Node000007_Node000005"><a xlink:title=" ">
<path fill="none" stroke="#63b8ff" d="M436.42,-113.52C452.4,-109.15 471.15,-104.04 488.11,-99.41"/>
<polygon fill="#63b8ff" stroke="#63b8ff" points="488.77,-102.86 497.5,-96.85 486.93,-96.1 488.77,-102.86"/>
</a>
</g>
</g>
<!-- Node11 -->
<g id="Node000011" class="node">
<title>Node11</title>
<g id="a_Node000011"><a xlink:href="$class_c_bite_rnd.html#aabbf1ffd535ca8fe31fda768f15ccd1b" xlink:title=" ">
<polygon fill="white" stroke="#666666" points="443.62,-58 350.38,-58 350.38,-38 443.62,-38 443.62,-58"/>
<text text-anchor="middle" x="397" y="-44.5" font-family="Helvetica,sans-Serif" font-size="10.00">CBiteRnd::getSqr</text>
</a>
</g>
</g>
<!-- Node10&#45;&gt;Node11 -->
<g id="edge29_Node000010_Node000011" class="edge">
<title>Node10&#45;&gt;Node11</title>
<g id="a_edge29_Node000010_Node000011"><a xlink:title=" ">
<path fill="none" stroke="#63b8ff" d="M286.13,-48C302.93,-48 321.68,-48 338.86,-48"/>
<polygon fill="#63b8ff" stroke="#63b8ff" points="338.38,-51.5 348.38,-48 338.38,-44.5 338.38,-51.5"/>
</a>
</g>
</g>
<!-- Node11&#45;&gt;Node5 -->
<g id="edge30_Node000011_Node000005" class="edge">
<title>Node11&#45;&gt;Node5</title>
<g id="a_edge30_Node000011_Node000005"><a xlink:title=" ">
<path fill="none" stroke="#63b8ff" d="M436.42,-58.48C452.4,-62.85 471.15,-67.96 488.11,-72.59"/>
<polygon fill="#63b8ff" stroke="#63b8ff" points="486.93,-75.9 497.5,-75.15 488.77,-69.14 486.93,-75.9"/>
</a>
</g>
</g>
<!-- Node12&#45;&gt;Node2 -->
<g id="edge33_Node000012_Node000002" class="edge">
<title>Node12&#45;&gt;Node2</title>
<g id="a_edge33_Node000012_Node000002"><a xlink:title=" ">
<path fill="none" stroke="#63b8ff" d="M292.89,-210.11C305.8,-212.35 319.55,-214.74 332.66,-217.01"/>
<polygon fill="#63b8ff" stroke="#63b8ff" points="332.04,-220.45 342.49,-218.72 333.24,-213.56 332.04,-220.45"/>
</a>
</g>
</g>
<!-- Node12&#45;&gt;Node8 -->
<g id="edge34_Node000012_Node000008" class="edge">
<title>Node12&#45;&gt;Node8</title>
<g id="a_edge34_Node000012_Node000008"><a xlink:title=" ">
<path fill="none" stroke="#63b8ff" d="M287.47,-189.52C301.46,-186.75 316.72,-183.72 331.26,-180.84"/>
<polygon fill="#63b8ff" stroke="#63b8ff" points="331.6,-184.34 340.73,-178.96 330.24,-177.47 331.6,-184.34"/>
</a>
</g>
</g>
</g>
</svg>
