<?xml version="1.0" encoding="UTF-8" standalone="no"?>
<!DOCTYPE svg PUBLIC "-//W3C//DTD SVG 1.1//EN"
 "http://www.w3.org/Graphics/SVG/1.1/DTD/svg11.dtd">
<!-- Generated by graphviz version 12.2.1 (20241206.2353)
 -->
<!-- Title: CBitePop::calcLP1Coeff Pages: 1 -->
<svg width="638pt" height="142pt"
 viewBox="0.00 0.00 637.50 142.00" xmlns="http://www.w3.org/2000/svg" xmlns:xlink="http://www.w3.org/1999/xlink">
<g id="graph0" class="graph" transform="scale(1 1) rotate(0) translate(4 138)">
<title>CBitePop::calcLP1Coeff</title>
<!-- Node1 -->
<g id="Node000001" class="node">
<title>Node1</title>
<g id="a_Node000001"><a xlink:title=" ">
<polygon fill="#999999" stroke="#666666" points="629.5,-77 507,-77 507,-57 629.5,-57 629.5,-77"/>
<text text-anchor="middle" x="568.25" y="-63.5" font-family="Helvetica,sans-Serif" font-size="10.00">CBitePop::calcLP1Coeff</text>
</a>
</g>
</g>
<!-- Node2 -->
<g id="Node000002" class="node">
<title>Node2</title>
<g id="a_Node000002"><a xlink:href="$class_c_bite_pop.html#a4656171c63f1944ae045d6f222d9d33a" xlink:title=" ">
<polygon fill="white" stroke="#666666" points="470.62,-134 335.38,-134 335.38,-114 470.62,-114 470.62,-134"/>
<text text-anchor="middle" x="403" y="-120.5" font-family="Helvetica,sans-Serif" font-size="10.00">CBitePop::decrCurPopSize</text>
</a>
</g>
</g>
<!-- Node1&#45;&gt;Node2 -->
<g id="edge10_Node000001_Node000002" class="edge">
<title>Node1&#45;&gt;Node2</title>
<g id="a_edge10_Node000001_Node000002"><a xlink:title=" ">
<path fill="none" stroke="#63b8ff" d="M532.57,-81.66C514.4,-89.09 491.67,-98.01 471,-105 462.07,-108.02 452.36,-110.97 443.17,-113.6"/>
<polygon fill="#63b8ff" stroke="#63b8ff" points="533.67,-84.99 541.57,-77.94 530.99,-78.52 533.67,-84.99"/>
</a>
</g>
</g>
<!-- Node3 -->
<g id="Node000003" class="node">
<title>Node3</title>
<g id="a_Node000003"><a xlink:href="$class_c_bite_pop.html#a48d6ede5c82534c973e0458726e820dd" xlink:title=" ">
<polygon fill="white" stroke="#666666" points="469.12,-96 336.88,-96 336.88,-76 469.12,-76 469.12,-96"/>
<text text-anchor="middle" x="403" y="-82.5" font-family="Helvetica,sans-Serif" font-size="10.00">CBitePop::incrCurPopSize</text>
</a>
</g>
</g>
<!-- Node1&#45;&gt;Node3 -->
<g id="edge11_Node000001_Node000003" class="edge">
<title>Node1&#45;&gt;Node3</title>
<g id="a_edge11_Node000001_Node000003"><a xlink:title=" ">
<path fill="none" stroke="#63b8ff" d="M495.64,-75.33C486.97,-76.34 478.14,-77.37 469.56,-78.37"/>
<polygon fill="#63b8ff" stroke="#63b8ff" points="495.89,-78.83 505.42,-74.2 495.08,-71.88 495.89,-78.83"/>
</a>
</g>
</g>
<!-- Node4 -->
<g id="Node000004" class="node">
<title>Node4</title>
<g id="a_Node000004"><a xlink:href="$class_c_bite_pop.html#a7488531e6b12accb61f068bbe654f580" xlink:title=" ">
<polygon fill="white" stroke="#666666" points="456.75,-58 349.25,-58 349.25,-38 456.75,-38 456.75,-58"/>
<text text-anchor="middle" x="403" y="-44.5" font-family="Helvetica,sans-Serif" font-size="10.00">CBitePop::initBuffers</text>
</a>
</g>
</g>
<!-- Node1&#45;&gt;Node4 -->
<g id="edge12_Node000001_Node000004" class="edge">
<title>Node1&#45;&gt;Node4</title>
<g id="a_edge12_Node000001_Node000004"><a xlink:title=" ">
<path fill="none" stroke="#63b8ff" d="M495.66,-58.67C482.7,-57.16 469.4,-55.61 457.08,-54.18"/>
<polygon fill="#63b8ff" stroke="#63b8ff" points="495.08,-62.12 505.42,-59.8 495.89,-55.17 495.08,-62.12"/>
</a>
</g>
</g>
<!-- Node8 -->
<g id="Node000008" class="node">
<title>Node8</title>
<g id="a_Node000008"><a xlink:href="$class_c_bite_pop.html#a767519aa2fcc2667dc135a131bc9fd85" xlink:title=" ">
<polygon fill="white" stroke="#666666" points="471,-20 335,-20 335,0 471,0 471,-20"/>
<text text-anchor="middle" x="403" y="-6.5" font-family="Helvetica,sans-Serif" font-size="10.00">CBitePop::resetCurPopPos</text>
</a>
</g>
</g>
<!-- Node1&#45;&gt;Node8 -->
<g id="edge17_Node000001_Node000008" class="edge">
<title>Node1&#45;&gt;Node8</title>
<g id="a_edge17_Node000001_Node000008"><a xlink:title=" ">
<path fill="none" stroke="#63b8ff" d="M532.57,-52.34C514.4,-44.91 491.67,-35.99 471,-29 462.07,-25.98 452.36,-23.03 443.17,-20.4"/>
<polygon fill="#63b8ff" stroke="#63b8ff" points="530.99,-55.48 541.57,-56.06 533.67,-49.01 530.99,-55.48"/>
</a>
</g>
</g>
<!-- Node5 -->
<g id="Node000005" class="node">
<title>Node5</title>
<g id="a_Node000005"><a xlink:href="$class_c_bite_pop.html#a73402384f4b75abf6d956dc086ccf36e" xlink:title=" ">
<polygon fill="white" stroke="#666666" points="106,-96 0,-96 0,-76 106,-76 106,-96"/>
<text text-anchor="middle" x="53" y="-82.5" font-family="Helvetica,sans-Serif" font-size="10.00">CBitePop::CBitePop</text>
</a>
</g>
</g>
<!-- Node4&#45;&gt;Node5 -->
<g id="edge13_Node000004_Node000005" class="edge">
<title>Node4&#45;&gt;Node5</title>
<g id="a_edge13_Node000004_Node000005"><a xlink:title=" ">
<path fill="none" stroke="#63b8ff" d="M339.98,-60.53C326.51,-62.94 312.31,-65.26 299,-67 232.8,-75.65 155.97,-80.82 106.26,-83.54"/>
<polygon fill="#63b8ff" stroke="#63b8ff" points="340.4,-64.01 349.6,-58.76 339.13,-57.13 340.4,-64.01"/>
</a>
</g>
</g>
<!-- Node6 -->
<g id="Node000006" class="node">
<title>Node6</title>
<g id="a_Node000006"><a xlink:href="$class_c_bite_pop.html#a3fc2d887ae91be62fd9fc3100268e53c" xlink:title=" ">
<polygon fill="white" stroke="#666666" points="263,-58 178,-58 178,-38 263,-38 263,-58"/>
<text text-anchor="middle" x="220.5" y="-44.5" font-family="Helvetica,sans-Serif" font-size="10.00">CBitePop::copy</text>
</a>
</g>
</g>
<!-- Node4&#45;&gt;Node6 -->
<g id="edge14_Node000004_Node000006" class="edge">
<title>Node4&#45;&gt;Node6</title>
<g id="a_edge14_Node000004_Node000006"><a xlink:title=" ">
<path fill="none" stroke="#63b8ff" d="M337.37,-48C312.77,-48 285.4,-48 263.44,-48"/>
<polygon fill="#63b8ff" stroke="#63b8ff" points="337.31,-51.5 347.31,-48 337.31,-44.5 337.31,-51.5"/>
</a>
</g>
</g>
<!-- Node6&#45;&gt;Node5 -->
<g id="edge15_Node000006_Node000005" class="edge">
<title>Node6&#45;&gt;Node5</title>
<g id="a_edge15_Node000006_Node000005"><a xlink:title=" ">
<path fill="none" stroke="#63b8ff" d="M166.76,-60.11C145.13,-65.08 120.35,-70.77 99.53,-75.55"/>
<polygon fill="#63b8ff" stroke="#63b8ff" points="167.3,-63.58 176.26,-57.93 165.73,-56.75 167.3,-63.58"/>
</a>
</g>
</g>
<!-- Node7 -->
<g id="Node000007" class="node">
<title>Node7</title>
<g id="a_Node000007"><a xlink:href="$class_c_bite_pop.html#ab18cf322db6ab186db1e19b53e34c232" xlink:title=" ">
<polygon fill="white" stroke="#666666" points="105.62,-58 0.38,-58 0.38,-38 105.62,-38 105.62,-58"/>
<text text-anchor="middle" x="53" y="-44.5" font-family="Helvetica,sans-Serif" font-size="10.00">CBitePop::operator=</text>
</a>
</g>
</g>
<!-- Node6&#45;&gt;Node7 -->
<g id="edge16_Node000006_Node000007" class="edge">
<title>Node6&#45;&gt;Node7</title>
<g id="a_edge16_Node000006_Node000007"><a xlink:title=" ">
<path fill="none" stroke="#63b8ff" d="M166.35,-48C146.97,-48 125.09,-48 105.83,-48"/>
<polygon fill="#63b8ff" stroke="#63b8ff" points="166.22,-51.5 176.22,-48 166.22,-44.5 166.22,-51.5"/>
</a>
</g>
</g>
<!-- Node9 -->
<g id="Node000009" class="node">
<title>Node9</title>
<g id="a_Node000009"><a xlink:href="$class_c_bite_opt_base.html#a768362da5c773eea5a8649d44676eeed" xlink:title=" ">
<polygon fill="white" stroke="#666666" points="299,-20 142,-20 142,0 299,0 299,-20"/>
<text text-anchor="middle" x="220.5" y="-6.5" font-family="Helvetica,sans-Serif" font-size="10.00">CBiteOptBase::initCommonVars</text>
</a>
</g>
</g>
<!-- Node8&#45;&gt;Node9 -->
<g id="edge18_Node000008_Node000009" class="edge">
<title>Node8&#45;&gt;Node9</title>
<g id="a_edge18_Node000008_Node000009"><a xlink:title=" ">
<path fill="none" stroke="#63b8ff" d="M323.05,-10C315.14,-10 307.11,-10 299.22,-10"/>
<polygon fill="#63b8ff" stroke="#63b8ff" points="323.02,-13.5 333.02,-10 323.02,-6.5 323.02,-13.5"/>
</a>
</g>
</g>
</g>
</svg>
