<?xml version="1.0" encoding="UTF-8" standalone="no"?>
<!DOCTYPE svg PUBLIC "-//W3C//DTD SVG 1.1//EN"
 "http://www.w3.org/Graphics/SVG/1.1/DTD/svg11.dtd">
<!-- Generated by graphviz version 12.2.1 (20241206.2353)
 -->
<!-- Title: CBiteOptBase::CBiteOptBase Pages: 1 -->
<svg width="318pt" height="46pt"
 viewBox="0.00 0.00 318.25 46.00" xmlns="http://www.w3.org/2000/svg" xmlns:xlink="http://www.w3.org/1999/xlink">
<g id="graph0" class="graph" transform="scale(1 1) rotate(0) translate(4 42)">
<title>CBiteOptBase::CBiteOptBase</title>
<!-- Node1 -->
<g id="Node000001" class="node">
<title>Node1</title>
<g id="a_Node000001"><a xlink:title=" ">
<polygon fill="#999999" stroke="#666666" points="310.25,-20 162.25,-20 162.25,0 310.25,0 310.25,-20"/>
<text text-anchor="middle" x="236.25" y="-6.5" font-family="Helvetica,sans-Serif" font-size="10.00">CBiteOptBase::CBiteOptBase</text>
</a>
</g>
</g>
<!-- Node1&#45;&gt;Node1 -->
<g id="edge3_Node000001_Node000001" class="edge">
<title>Node1&#45;&gt;Node1</title>
<g id="a_edge3_Node000001_Node000001"><a xlink:title=" ">
<path fill="none" stroke="#63b8ff" d="M267.17,-31.11C263.49,-35.14 253.18,-38 236.25,-38 206.16,-38 196.99,-28.98 208.74,-20.34"/>
<polygon fill="#63b8ff" stroke="#63b8ff" points="270.57,-30.26 264.22,-21.78 263.9,-32.37 270.57,-30.26"/>
</a>
</g>
</g>
<!-- Node2 -->
<g id="Node000002" class="node">
<title>Node2</title>
<g id="a_Node000002"><a xlink:href="$class_c_bite_opt_base.html#a8b1b8265762299edcd1714553ce2104d" xlink:title=" ">
<polygon fill="white" stroke="#666666" points="126.25,-20 0,-20 0,0 126.25,0 126.25,-20"/>
<text text-anchor="middle" x="63.12" y="-6.5" font-family="Helvetica,sans-Serif" font-size="10.00">CBiteOptBase::operator=</text>
</a>
</g>
</g>
<!-- Node1&#45;&gt;Node2 -->
<g id="edge4_Node000001_Node000002" class="edge">
<title>Node1&#45;&gt;Node2</title>
<g id="a_edge4_Node000001_Node000002"><a xlink:title=" ">
<path fill="none" stroke="#63b8ff" d="M150.76,-10C142.66,-10 134.54,-10 126.71,-10"/>
<polygon fill="#63b8ff" stroke="#63b8ff" points="150.67,-13.5 160.67,-10 150.67,-6.5 150.67,-13.5"/>
</a>
</g>
</g>
</g>
</svg>
