<?xml version="1.0" encoding="UTF-8" standalone="no"?>
<!DOCTYPE svg PUBLIC "-//W3C//DTD SVG 1.1//EN"
 "http://www.w3.org/Graphics/SVG/1.1/DTD/svg11.dtd">
<!-- Generated by graphviz version 12.2.1 (20241206.2353)
 -->
<!-- Title: CBiteOpt::generateSol2d Pages: 1 -->
<svg width="711pt" height="325pt"
 viewBox="0.00 0.00 710.50 325.00" xmlns="http://www.w3.org/2000/svg" xmlns:xlink="http://www.w3.org/1999/xlink">
<g id="graph0" class="graph" transform="scale(1 1) rotate(0) translate(4 321)">
<title>CBiteOpt::generateSol2d</title>
<!-- Node1 -->
<g id="Node000001" class="node">
<title>Node1</title>
<g id="a_Node000001"><a xlink:title=" ">
<polygon fill="#999999" stroke="#666666" points="124.75,-109 0,-109 0,-89 124.75,-89 124.75,-109"/>
<text text-anchor="middle" x="62.38" y="-95.5" font-family="Helvetica,sans-Serif" font-size="10.00">CBiteOpt::generateSol2d</text>
</a>
</g>
</g>
<!-- Node2 -->
<g id="Node000002" class="node">
<title>Node2</title>
<g id="a_Node000002"><a xlink:href="$class_c_bite_opt.html#a2363863090db7154792f78ec46abcf47" xlink:title=" ">
<polygon fill="white" stroke="#666666" points="285.5,-172 160.75,-172 160.75,-152 285.5,-152 285.5,-172"/>
<text text-anchor="middle" x="223.12" y="-158.5" font-family="Helvetica,sans-Serif" font-size="10.00">CBiteOpt::generateSol2c</text>
</a>
</g>
</g>
<!-- Node1&#45;&gt;Node2 -->
<g id="edge21_Node000001_Node000002" class="edge">
<title>Node1&#45;&gt;Node2</title>
<g id="a_edge21_Node000001_Node000002"><a xlink:title=" ">
<path fill="none" stroke="#63b8ff" d="M89.59,-109.4C115.67,-119.75 155.93,-135.73 185.23,-147.36"/>
<polygon fill="#63b8ff" stroke="#63b8ff" points="183.88,-150.59 194.46,-151.02 186.46,-144.08 183.88,-150.59"/>
</a>
</g>
</g>
<!-- Node5 -->
<g id="Node000005" class="node">
<title>Node5</title>
<g id="a_Node000005"><a xlink:href="$class_c_bite_rnd.html#a4e9ad0a5c5e09149a60f849736d8d7ce" xlink:title=" ">
<polygon fill="white" stroke="#666666" points="420.75,-317 331.25,-317 331.25,-297 420.75,-297 420.75,-317"/>
<text text-anchor="middle" x="376" y="-303.5" font-family="Helvetica,sans-Serif" font-size="10.00">CBiteRnd::getInt</text>
</a>
</g>
</g>
<!-- Node1&#45;&gt;Node5 -->
<g id="edge35_Node000001_Node000005" class="edge">
<title>Node1&#45;&gt;Node5</title>
<g id="a_edge35_Node000001_Node000005"><a xlink:title=" ">
<path fill="none" stroke="#63b8ff" d="M74.3,-109.16C108.29,-140.26 216.21,-235.28 321.5,-288 324.57,-289.54 327.8,-291.01 331.09,-292.41"/>
<polygon fill="#63b8ff" stroke="#63b8ff" points="329.66,-295.6 340.24,-296.03 332.23,-289.1 329.66,-295.6"/>
</a>
</g>
</g>
<!-- Node7 -->
<g id="Node000007" class="node">
<title>Node7</title>
<g id="a_Node000007"><a xlink:href="$class_c_bite_pop.html#aaa8e3f180accfedf21218cbed8ffbb79" xlink:title=" ">
<polygon fill="white" stroke="#666666" points="428.62,-115 323.38,-115 323.38,-83 428.62,-83 428.62,-115"/>
<text text-anchor="start" x="331.38" y="-101.5" font-family="Helvetica,sans-Serif" font-size="10.00">CBitePop&lt; int64_t &gt;</text>
<text text-anchor="middle" x="376" y="-89.5" font-family="Helvetica,sans-Serif" font-size="10.00">::getParamsOrdered</text>
</a>
</g>
</g>
<!-- Node1&#45;&gt;Node7 -->
<g id="edge36_Node000001_Node000007" class="edge">
<title>Node1&#45;&gt;Node7</title>
<g id="a_edge36_Node000001_Node000007"><a xlink:title=" ">
<path fill="none" stroke="#63b8ff" d="M124.94,-99C179.01,-99 257.33,-99 311.86,-99"/>
<polygon fill="#63b8ff" stroke="#63b8ff" points="311.61,-102.5 321.61,-99 311.61,-95.5 311.61,-102.5"/>
</a>
</g>
</g>
<!-- Node11 -->
<g id="Node000011" class="node">
<title>Node11</title>
<g id="a_Node000011"><a xlink:href="$class_c_bite_opt_base.html#abf93d2e584756812ad210f86e4f84a69" xlink:title=" ">
<polygon fill="white" stroke="#666666" points="430.5,-65 321.5,-65 321.5,-33 430.5,-33 430.5,-65"/>
<text text-anchor="start" x="329.5" y="-51.5" font-family="Helvetica,sans-Serif" font-size="10.00">CBiteOptBase&lt; int64</text>
<text text-anchor="middle" x="376" y="-39.5" font-family="Helvetica,sans-Serif" font-size="10.00">_t &gt;::select</text>
</a>
</g>
</g>
<!-- Node1&#45;&gt;Node11 -->
<g id="edge40_Node000001_Node000011" class="edge">
<title>Node1&#45;&gt;Node11</title>
<g id="a_edge40_Node000001_Node000011"><a xlink:title=" ">
<path fill="none" stroke="#63b8ff" d="M124.94,-89.12C178.35,-80.55 255.41,-68.19 309.85,-59.45"/>
<polygon fill="#63b8ff" stroke="#63b8ff" points="310.29,-62.93 319.61,-57.89 309.18,-56.02 310.29,-62.93"/>
</a>
</g>
</g>
<!-- Node13 -->
<g id="Node000013" class="node">
<title>Node13</title>
<g id="a_Node000013"><a xlink:href="$class_c_bite_rnd.html#ab73d2c6a6e4c1f5da7441168f165529d" xlink:title=" ">
<polygon fill="white" stroke="#666666" points="275.38,-20 170.88,-20 170.88,0 275.38,0 275.38,-20"/>
<text text-anchor="middle" x="223.12" y="-6.5" font-family="Helvetica,sans-Serif" font-size="10.00">CBiteRnd::getSqrInt</text>
</a>
</g>
</g>
<!-- Node1&#45;&gt;Node13 -->
<g id="edge37_Node000001_Node000013" class="edge">
<title>Node1&#45;&gt;Node13</title>
<g id="a_edge37_Node000001_Node000013"><a xlink:title=" ">
<path fill="none" stroke="#63b8ff" d="M81.23,-88.52C100.7,-77.16 132.8,-58.55 160.75,-43 171.03,-37.28 182.35,-31.15 192.45,-25.74"/>
<polygon fill="#63b8ff" stroke="#63b8ff" points="193.92,-28.92 201.09,-21.12 190.62,-22.75 193.92,-28.92"/>
</a>
</g>
</g>
<!-- Node3 -->
<g id="Node000003" class="node">
<title>Node3</title>
<g id="a_Node000003"><a xlink:href="$class_c_bite_rnd.html#a6ccc0608cbc9080d9509a0e4c483adfe" xlink:title=" ">
<polygon fill="white" stroke="#666666" points="560.88,-153 470.62,-153 470.62,-133 560.88,-133 560.88,-153"/>
<text text-anchor="middle" x="515.75" y="-139.5" font-family="Helvetica,sans-Serif" font-size="10.00">CBiteRnd::getBit</text>
</a>
</g>
</g>
<!-- Node2&#45;&gt;Node3 -->
<g id="edge22_Node000002_Node000003" class="edge">
<title>Node2&#45;&gt;Node3</title>
<g id="a_edge22_Node000002_Node000003"><a xlink:title=" ">
<path fill="none" stroke="#63b8ff" d="M285.76,-157.97C336.97,-154.62 409.22,-149.9 458.79,-146.66"/>
<polygon fill="#63b8ff" stroke="#63b8ff" points="458.99,-150.15 468.74,-146.01 458.54,-143.17 458.99,-150.15"/>
</a>
</g>
</g>
<!-- Node2&#45;&gt;Node5 -->
<g id="edge24_Node000002_Node000005" class="edge">
<title>Node2&#45;&gt;Node5</title>
<g id="a_edge24_Node000002_Node000005"><a xlink:title=" ">
<path fill="none" stroke="#63b8ff" d="M232.6,-172.36C244.56,-187.05 267,-214.84 285.5,-239 301.93,-260.46 299.81,-271.88 321.5,-288 323.22,-289.28 325.03,-290.48 326.91,-291.6"/>
<polygon fill="#63b8ff" stroke="#63b8ff" points="324.88,-294.49 335.38,-295.92 328.06,-288.26 324.88,-294.49"/>
</a>
</g>
</g>
<!-- Node2&#45;&gt;Node7 -->
<g id="edge27_Node000002_Node000007" class="edge">
<title>Node2&#45;&gt;Node7</title>
<g id="a_edge27_Node000002_Node000007"><a xlink:title=" ">
<path fill="none" stroke="#63b8ff" d="M249.04,-151.6C269.62,-143 299.48,-130.53 324.96,-119.89"/>
<polygon fill="#63b8ff" stroke="#63b8ff" points="326.3,-123.13 334.18,-116.04 323.6,-116.67 326.3,-123.13"/>
</a>
</g>
</g>
<!-- Node8 -->
<g id="Node000008" class="node">
<title>Node8</title>
<g id="a_Node000008"><a xlink:href="$class_c_bite_rnd.html#adca97316ecce595b9175815493f7a3a2" xlink:title=" ">
<polygon fill="white" stroke="#666666" points="430.5,-229 321.5,-229 321.5,-209 430.5,-209 430.5,-229"/>
<text text-anchor="middle" x="376" y="-215.5" font-family="Helvetica,sans-Serif" font-size="10.00">CBiteRnd::getPowInt</text>
</a>
</g>
</g>
<!-- Node2&#45;&gt;Node8 -->
<g id="edge28_Node000002_Node000008" class="edge">
<title>Node2&#45;&gt;Node8</title>
<g id="a_edge28_Node000002_Node000008"><a xlink:title=" ">
<path fill="none" stroke="#63b8ff" d="M251.8,-172.45C275.65,-181.47 310.32,-194.57 336.81,-204.57"/>
<polygon fill="#63b8ff" stroke="#63b8ff" points="335.24,-207.72 345.83,-207.98 337.71,-201.17 335.24,-207.72"/>
</a>
</g>
</g>
<!-- Node10 -->
<g id="Node000010" class="node">
<title>Node10</title>
<g id="a_Node000010"><a xlink:href="$class_c_bite_rnd.html#a6e9234ff0489b0d3d38ef71be159b34d" xlink:title=" ">
<polygon fill="white" stroke="#666666" points="565,-191 466.5,-191 466.5,-171 565,-171 565,-191"/>
<text text-anchor="middle" x="515.75" y="-177.5" font-family="Helvetica,sans-Serif" font-size="10.00">CBiteRnd::getRaw</text>
</a>
</g>
</g>
<!-- Node2&#45;&gt;Node10 -->
<g id="edge31_Node000002_Node000010" class="edge">
<title>Node2&#45;&gt;Node10</title>
<g id="a_edge31_Node000002_Node000010"><a xlink:title=" ">
<path fill="none" stroke="#63b8ff" d="M285.76,-166.03C335.58,-169.29 405.32,-173.85 454.71,-177.07"/>
<polygon fill="#63b8ff" stroke="#63b8ff" points="454.46,-180.57 464.67,-177.73 454.92,-173.58 454.46,-180.57"/>
</a>
</g>
</g>
<!-- Node2&#45;&gt;Node11 -->
<g id="edge33_Node000002_Node000011" class="edge">
<title>Node2&#45;&gt;Node11</title>
<g id="a_edge33_Node000002_Node000011"><a xlink:title=" ">
<path fill="none" stroke="#63b8ff" d="M233.53,-151.69C250.02,-134.04 285.81,-97.69 321.5,-74 323.09,-72.95 324.72,-71.92 326.39,-70.91"/>
<polygon fill="#63b8ff" stroke="#63b8ff" points="327.9,-74.08 334.93,-66.15 324.49,-67.96 327.9,-74.08"/>
</a>
</g>
</g>
<!-- Node12 -->
<g id="Node000012" class="node">
<title>Node12</title>
<g id="a_Node000012"><a xlink:href="$class_c_bite_pop.html#a0d5ab322641bb1a091df91ff7ee630c4" xlink:title=" ">
<polygon fill="white" stroke="#666666" points="428.62,-279 323.38,-279 323.38,-247 428.62,-247 428.62,-279"/>
<text text-anchor="start" x="331.38" y="-265.5" font-family="Helvetica,sans-Serif" font-size="10.00">CBitePop&lt; int64_t &gt;</text>
<text text-anchor="middle" x="376" y="-253.5" font-family="Helvetica,sans-Serif" font-size="10.00">::zeroParams</text>
</a>
</g>
</g>
<!-- Node2&#45;&gt;Node12 -->
<g id="edge34_Node000002_Node000012" class="edge">
<title>Node2&#45;&gt;Node12</title>
<g id="a_edge34_Node000002_Node000012"><a xlink:title=" ">
<path fill="none" stroke="#63b8ff" d="M235.49,-172.27C253.05,-187.79 288.22,-217.6 321.5,-238 323.34,-239.13 325.23,-240.23 327.16,-241.32"/>
<polygon fill="#63b8ff" stroke="#63b8ff" points="325.21,-244.25 335.69,-245.85 328.5,-238.07 325.21,-244.25"/>
</a>
</g>
</g>
<!-- Node4 -->
<g id="Node000004" class="node">
<title>Node4</title>
<g id="a_Node000004"><a xlink:href="$class_c_bite_rnd.html#ae1167f8ecac85f268ced4bc1d2fa953b" xlink:title=" ">
<polygon fill="white" stroke="#666666" points="702.5,-191 601,-191 601,-171 702.5,-171 702.5,-191"/>
<text text-anchor="middle" x="651.75" y="-177.5" font-family="Helvetica,sans-Serif" font-size="10.00">CBiteRnd::advance</text>
</a>
</g>
</g>
<!-- Node3&#45;&gt;Node4 -->
<g id="edge23_Node000003_Node000004" class="edge">
<title>Node3&#45;&gt;Node4</title>
<g id="a_edge23_Node000003_Node000004"><a xlink:title=" ">
<path fill="none" stroke="#63b8ff" d="M553.72,-153.48C568.95,-157.8 586.8,-162.86 603,-167.46"/>
<polygon fill="#63b8ff" stroke="#63b8ff" points="601.87,-170.78 612.44,-170.14 603.78,-164.04 601.87,-170.78"/>
</a>
</g>
</g>
<!-- Node6 -->
<g id="Node000006" class="node">
<title>Node6</title>
<g id="a_Node000006"><a xlink:href="$class_c_bite_rnd.html#afdb77334884f1a612780def0dec0a326" xlink:title=" ">
<polygon fill="white" stroke="#666666" points="554.88,-292 476.62,-292 476.62,-272 554.88,-272 554.88,-292"/>
<text text-anchor="middle" x="515.75" y="-278.5" font-family="Helvetica,sans-Serif" font-size="10.00">CBiteRnd::get</text>
</a>
</g>
</g>
<!-- Node5&#45;&gt;Node6 -->
<g id="edge25_Node000005_Node000006" class="edge">
<title>Node5&#45;&gt;Node6</title>
<g id="a_edge25_Node000005_Node000006"><a xlink:title=" ">
<path fill="none" stroke="#63b8ff" d="M420.96,-299.02C435,-296.47 450.64,-293.63 465.06,-291.02"/>
<polygon fill="#63b8ff" stroke="#63b8ff" points="465.61,-294.48 474.82,-289.25 464.36,-287.59 465.61,-294.48"/>
</a>
</g>
</g>
<!-- Node6&#45;&gt;Node4 -->
<g id="edge26_Node000006_Node000004" class="edge">
<title>Node6&#45;&gt;Node4</title>
<g id="a_edge26_Node000006_Node000004"><a xlink:title=" ">
<path fill="none" stroke="#63b8ff" d="M530.59,-271.57C553.67,-254.17 600.27,-219.05 628.17,-198.02"/>
<polygon fill="#63b8ff" stroke="#63b8ff" points="630.1,-200.95 635.98,-192.13 625.89,-195.36 630.1,-200.95"/>
</a>
</g>
</g>
<!-- Node9 -->
<g id="Node000009" class="node">
<title>Node9</title>
<g id="a_Node000009"><a xlink:href="$class_c_bite_rnd.html#aa4c960b792982f495cc19c04ad9c2705" xlink:title=" ">
<polygon fill="white" stroke="#666666" points="564.62,-229 466.88,-229 466.88,-209 564.62,-209 564.62,-229"/>
<text text-anchor="middle" x="515.75" y="-215.5" font-family="Helvetica,sans-Serif" font-size="10.00">CBiteRnd::getPow</text>
</a>
</g>
</g>
<!-- Node8&#45;&gt;Node9 -->
<g id="edge29_Node000008_Node000009" class="edge">
<title>Node8&#45;&gt;Node9</title>
<g id="a_edge29_Node000008_Node000009"><a xlink:title=" ">
<path fill="none" stroke="#63b8ff" d="M430.65,-219C438.66,-219 446.96,-219 455.09,-219"/>
<polygon fill="#63b8ff" stroke="#63b8ff" points="454.89,-222.5 464.89,-219 454.89,-215.5 454.89,-222.5"/>
</a>
</g>
</g>
<!-- Node9&#45;&gt;Node4 -->
<g id="edge30_Node000009_Node000004" class="edge">
<title>Node9&#45;&gt;Node4</title>
<g id="a_edge30_Node000009_Node000004"><a xlink:title=" ">
<path fill="none" stroke="#63b8ff" d="M553.72,-208.52C568.95,-204.2 586.8,-199.14 603,-194.54"/>
<polygon fill="#63b8ff" stroke="#63b8ff" points="603.78,-197.96 612.44,-191.86 601.87,-191.22 603.78,-197.96"/>
</a>
</g>
</g>
<!-- Node10&#45;&gt;Node4 -->
<g id="edge32_Node000010_Node000004" class="edge">
<title>Node10&#45;&gt;Node4</title>
<g id="a_edge32_Node000010_Node000004"><a xlink:title=" ">
<path fill="none" stroke="#63b8ff" d="M565.13,-181C572.97,-181 581.19,-181 589.3,-181"/>
<polygon fill="#63b8ff" stroke="#63b8ff" points="589.13,-184.5 599.13,-181 589.13,-177.5 589.13,-184.5"/>
</a>
</g>
</g>
<!-- Node14 -->
<g id="Node000014" class="node">
<title>Node14</title>
<g id="a_Node000014"><a xlink:href="$class_c_bite_rnd.html#aabbf1ffd535ca8fe31fda768f15ccd1b" xlink:title=" ">
<polygon fill="white" stroke="#666666" points="562.38,-65 469.12,-65 469.12,-45 562.38,-45 562.38,-65"/>
<text text-anchor="middle" x="515.75" y="-51.5" font-family="Helvetica,sans-Serif" font-size="10.00">CBiteRnd::getSqr</text>
</a>
</g>
</g>
<!-- Node13&#45;&gt;Node14 -->
<g id="edge38_Node000013_Node000014" class="edge">
<title>Node13&#45;&gt;Node14</title>
<g id="a_edge38_Node000013_Node000014"><a xlink:title=" ">
<path fill="none" stroke="#63b8ff" d="M275.57,-9.45C317.67,-9.97 378.52,-12.91 430.5,-24 447.79,-27.69 466.31,-34.2 481.56,-40.3"/>
<polygon fill="#63b8ff" stroke="#63b8ff" points="480.05,-43.46 490.63,-44.05 482.73,-37 480.05,-43.46"/>
</a>
</g>
</g>
<!-- Node14&#45;&gt;Node4 -->
<g id="edge39_Node000014_Node000004" class="edge">
<title>Node14&#45;&gt;Node4</title>
<g id="a_edge39_Node000014_Node000004"><a xlink:title=" ">
<path fill="none" stroke="#63b8ff" d="M527.72,-65.31C550.39,-86.63 602.69,-135.81 631.26,-162.67"/>
<polygon fill="#63b8ff" stroke="#63b8ff" points="628.85,-165.21 638.53,-169.51 633.64,-160.11 628.85,-165.21"/>
</a>
</g>
</g>
</g>
</svg>
