<?xml version="1.0" encoding="UTF-8" standalone="no"?>
<!DOCTYPE svg PUBLIC "-//W3C//DTD SVG 1.1//EN"
 "http://www.w3.org/Graphics/SVG/1.1/DTD/svg11.dtd">
<!-- Generated by graphviz version 12.2.1 (20241206.2353)
 -->
<!-- Title: fcmaes.mapelites.Archive.get_c Pages: 1 -->
<svg width="551pt" height="97pt"
 viewBox="0.00 0.00 551.00 97.00" xmlns="http://www.w3.org/2000/svg" xmlns:xlink="http://www.w3.org/1999/xlink">
<g id="graph0" class="graph" transform="scale(1 1) rotate(0) translate(4 93)">
<title>fcmaes.mapelites.Archive.get_c</title>
<!-- Node1 -->
<g id="Node000001" class="node">
<title>Node1</title>
<g id="a_Node000001"><a xlink:title="Retrieves a slice of the cs list for the given index.">
<polygon fill="#999999" stroke="#666666" points="543,-48 386.75,-48 386.75,-28 543,-28 543,-48"/>
<text text-anchor="middle" x="464.88" y="-34.5" font-family="Helvetica,sans-Serif" font-size="10.00">fcmaes.mapelites.Archive.get_c</text>
</a>
</g>
</g>
<!-- Node2 -->
<g id="Node000002" class="node">
<title>Node2</title>
<g id="a_Node000002"><a xlink:href="$classfcmaes_1_1mapelites_1_1_archive.html#a9884e6696809729e69a167c91d245464" xlink:title="Generates an array of results produced by the get_c method for a range of indices.">
<polygon fill="white" stroke="#666666" points="350.75,-70 189.25,-70 189.25,-50 350.75,-50 350.75,-70"/>
<text text-anchor="middle" x="270" y="-56.5" font-family="Helvetica,sans-Serif" font-size="10.00">fcmaes.mapelites.Archive.get_cs</text>
</a>
</g>
</g>
<!-- Node1&#45;&gt;Node2 -->
<g id="edge5_Node000001_Node000002" class="edge">
<title>Node1&#45;&gt;Node2</title>
<g id="a_edge5_Node000001_Node000002"><a xlink:title=" ">
<path fill="none" stroke="#63b8ff" d="M375,-48.14C366.99,-49.05 358.9,-49.97 350.97,-50.88"/>
<polygon fill="#63b8ff" stroke="#63b8ff" points="375.22,-51.64 384.76,-47.02 374.42,-44.68 375.22,-51.64"/>
</a>
</g>
</g>
<!-- Node5 -->
<g id="Node000005" class="node">
<title>Node5</title>
<g id="a_Node000005"><a xlink:href="$classfcmaes_1_1mapelites_1_1_archive.html#abf4f2d32b118fa044a6eb99d9b508c1f" xlink:title="Returns decoded data using the decode_d method.">
<polygon fill="white" stroke="#666666" points="342.88,-32 197.12,-32 197.12,0 342.88,0 342.88,-32"/>
<text text-anchor="start" x="205.12" y="-18.5" font-family="Helvetica,sans-Serif" font-size="10.00">fcmaes.mapelites.Archive.get</text>
<text text-anchor="middle" x="270" y="-6.5" font-family="Helvetica,sans-Serif" font-size="10.00">_cs_decoded</text>
</a>
</g>
</g>
<!-- Node1&#45;&gt;Node5 -->
<g id="edge8_Node000001_Node000005" class="edge">
<title>Node1&#45;&gt;Node5</title>
<g id="a_edge8_Node000001_Node000005"><a xlink:title=" ">
<path fill="none" stroke="#63b8ff" d="M375.16,-27.88C364.44,-26.66 353.59,-25.42 343.15,-24.23"/>
<polygon fill="#63b8ff" stroke="#63b8ff" points="374.42,-31.32 384.76,-28.98 375.22,-24.36 374.42,-31.32"/>
</a>
</g>
</g>
<!-- Node3 -->
<g id="Node000003" class="node">
<title>Node3</title>
<g id="a_Node000003"><a xlink:href="$classfcmaes_1_1mapelites_1_1_archive.html#a62da9c6f511c298d1ef06d6af7600196" xlink:title="Loads data from a specified file into the current object, initializing or updating its properties and...">
<polygon fill="white" stroke="#666666" points="151.75,-89 1.5,-89 1.5,-69 151.75,-69 151.75,-89"/>
<text text-anchor="middle" x="76.62" y="-75.5" font-family="Helvetica,sans-Serif" font-size="10.00">fcmaes.mapelites.Archive.load</text>
</a>
</g>
</g>
<!-- Node2&#45;&gt;Node3 -->
<g id="edge6_Node000002_Node000003" class="edge">
<title>Node2&#45;&gt;Node3</title>
<g id="a_edge6_Node000002_Node000003"><a xlink:title=" ">
<path fill="none" stroke="#63b8ff" d="M177.73,-69.06C169.16,-69.91 160.55,-70.77 152.16,-71.6"/>
<polygon fill="#63b8ff" stroke="#63b8ff" points="177.84,-72.57 187.44,-68.1 177.15,-65.6 177.84,-72.57"/>
</a>
</g>
</g>
<!-- Node4 -->
<g id="Node000004" class="node">
<title>Node4</title>
<g id="a_Node000004"><a xlink:href="$classfcmaes_1_1mapelites_1_1_archive.html#aedbfd9567b2d8da13a94da232465aa42" xlink:title="Saves the processed data and corresponding metadata in a compressed NPZ format.">
<polygon fill="white" stroke="#666666" points="153.25,-51 0,-51 0,-31 153.25,-31 153.25,-51"/>
<text text-anchor="middle" x="76.62" y="-37.5" font-family="Helvetica,sans-Serif" font-size="10.00">fcmaes.mapelites.Archive.save</text>
</a>
</g>
</g>
<!-- Node2&#45;&gt;Node4 -->
<g id="edge7_Node000002_Node000004" class="edge">
<title>Node2&#45;&gt;Node4</title>
<g id="a_edge7_Node000002_Node000004"><a xlink:title=" ">
<path fill="none" stroke="#63b8ff" d="M177.65,-50.93C169.63,-50.13 161.56,-49.33 153.68,-48.55"/>
<polygon fill="#63b8ff" stroke="#63b8ff" points="177.15,-54.4 187.44,-51.9 177.84,-47.43 177.15,-54.4"/>
</a>
</g>
</g>
</g>
</svg>
