<?xml version="1.0" encoding="UTF-8" standalone="no"?>
<!DOCTYPE svg PUBLIC "-//W3C//DTD SVG 1.1//EN"
 "http://www.w3.org/Graphics/SVG/1.1/DTD/svg11.dtd">
<!-- Generated by graphviz version 12.2.1 (20241206.2353)
 -->
<!-- Title: examples.employee.problem.optimize_mo Pages: 1 -->
<svg width="611pt" height="28pt"
 viewBox="0.00 0.00 611.00 28.00" xmlns="http://www.w3.org/2000/svg" xmlns:xlink="http://www.w3.org/1999/xlink">
<g id="graph0" class="graph" transform="scale(1 1) rotate(0) translate(4 24)">
<title>examples.employee.problem.optimize_mo</title>
<!-- Node1 -->
<g id="Node000001" class="node">
<title>Node1</title>
<g id="a_Node000001"><a xlink:title=" ">
<polygon fill="#999999" stroke="#666666" points="199,-20 0,-20 0,0 199,0 199,-20"/>
<text text-anchor="middle" x="99.5" y="-6.5" font-family="Helvetica,sans-Serif" font-size="10.00">examples.employee.problem.optimize_mo</text>
</a>
</g>
</g>
<!-- Node2 -->
<g id="Node000002" class="node">
<title>Node2</title>
<g id="a_Node000002"><a xlink:href="$classexamples_1_1employee_1_1problem.html#a7e757b49faf9cee5a35c9ca99b3e28c3" xlink:title=" ">
<polygon fill="white" stroke="#666666" points="426.5,-20 235,-20 235,0 426.5,0 426.5,-20"/>
<text text-anchor="middle" x="330.75" y="-6.5" font-family="Helvetica,sans-Serif" font-size="10.00">examples.employee.problem.fitness_mo</text>
</a>
</g>
</g>
<!-- Node1&#45;&gt;Node2 -->
<g id="edge3_Node000001_Node000002" class="edge">
<title>Node1&#45;&gt;Node2</title>
<g id="a_edge3_Node000001_Node000002"><a xlink:title=" ">
<path fill="none" stroke="#63b8ff" d="M199.39,-10C207.38,-10 215.47,-10 223.51,-10"/>
<polygon fill="#63b8ff" stroke="#63b8ff" points="223.31,-13.5 233.31,-10 223.31,-6.5 223.31,-13.5"/>
</a>
</g>
</g>
<!-- Node3 -->
<g id="Node000003" class="node">
<title>Node3</title>
<g id="a_Node000003"><a xlink:href="$namespaceexamples_1_1employee.html#aa8d6cedc8d0c67de9584d0c0118ad058" xlink:title=" ">
<polygon fill="white" stroke="#666666" points="603,-20 462.5,-20 462.5,0 603,0 603,-20"/>
<text text-anchor="middle" x="532.75" y="-6.5" font-family="Helvetica,sans-Serif" font-size="10.00">examples.employee.fitness_</text>
</a>
</g>
</g>
<!-- Node2&#45;&gt;Node3 -->
<g id="edge4_Node000002_Node000003" class="edge">
<title>Node2&#45;&gt;Node3</title>
<g id="a_edge4_Node000002_Node000003"><a xlink:title=" ">
<path fill="none" stroke="#63b8ff" d="M426.77,-10C434.76,-10 442.79,-10 450.67,-10"/>
<polygon fill="#63b8ff" stroke="#63b8ff" points="450.54,-13.5 460.54,-10 450.54,-6.5 450.54,-13.5"/>
</a>
</g>
</g>
</g>
</svg>
