<?xml version="1.0" encoding="UTF-8" standalone="no"?>
<!DOCTYPE svg PUBLIC "-//W3C//DTD SVG 1.1//EN"
 "http://www.w3.org/Graphics/SVG/1.1/DTD/svg11.dtd">
<!-- Generated by graphviz version 12.2.1 (20241206.2353)
 -->
<!-- Title: examples.scheduling.fitness.score Pages: 1 -->
<svg width="383pt" height="116pt"
 viewBox="0.00 0.00 382.75 116.00" xmlns="http://www.w3.org/2000/svg" xmlns:xlink="http://www.w3.org/1999/xlink">
<g id="graph0" class="graph" transform="scale(1 1) rotate(0) translate(4 112)">
<title>examples.scheduling.fitness.score</title>
<!-- Node1 -->
<g id="Node000001" class="node">
<title>Node1</title>
<g id="a_Node000001"><a xlink:title=" ">
<polygon fill="#999999" stroke="#666666" points="374.75,-58 208,-58 208,-38 374.75,-38 374.75,-58"/>
<text text-anchor="middle" x="291.38" y="-44.5" font-family="Helvetica,sans-Serif" font-size="10.00">examples.scheduling.fitness.score</text>
</a>
</g>
</g>
<!-- Node1&#45;&gt;Node1 -->
<g id="edge8_Node000001_Node000001" class="edge">
<title>Node1&#45;&gt;Node1</title>
<g id="a_edge8_Node000001_Node000001"><a xlink:title=" ">
<path fill="none" stroke="#63b8ff" d="M328.06,-69.11C323.68,-73.14 311.46,-76 291.38,-76 255.68,-76 244.8,-66.98 258.74,-58.34"/>
<polygon fill="#63b8ff" stroke="#63b8ff" points="331.34,-67.88 324.54,-59.76 324.78,-70.35 331.34,-67.88"/>
</a>
</g>
</g>
<!-- Node2 -->
<g id="Node000002" class="node">
<title>Node2</title>
<g id="a_Node000002"><a xlink:href="$classexamples_1_1scheduling_1_1fitness.html#a4eff7a725e23a7148b932307532f6542" xlink:title=" ">
<polygon fill="white" stroke="#666666" points="157.38,-108 14.62,-108 14.62,-76 157.38,-76 157.38,-108"/>
<text text-anchor="start" x="22.62" y="-94.5" font-family="Helvetica,sans-Serif" font-size="10.00">examples.scheduling.fitness.</text>
<text text-anchor="middle" x="86" y="-82.5" font-family="Helvetica,sans-Serif" font-size="10.00">__call__</text>
</a>
</g>
</g>
<!-- Node1&#45;&gt;Node2 -->
<g id="edge5_Node000001_Node000002" class="edge">
<title>Node1&#45;&gt;Node2</title>
<g id="a_edge5_Node000001_Node000002"><a xlink:title=" ">
<path fill="none" stroke="#63b8ff" d="M230.67,-60.92C207.83,-65.86 181.57,-71.54 157.8,-76.68"/>
<polygon fill="#63b8ff" stroke="#63b8ff" points="231.41,-64.34 240.44,-58.8 229.93,-57.5 231.41,-64.34"/>
</a>
</g>
</g>
<!-- Node3 -->
<g id="Node000003" class="node">
<title>Node3</title>
<g id="a_Node000003"><a xlink:href="$classexamples_1_1scheduling_1_1fitness.html#a8d58e9d7e95ceb929858cdc06b0eda47" xlink:title=" ">
<polygon fill="white" stroke="#666666" points="164.12,-58 7.88,-58 7.88,-38 164.12,-38 164.12,-58"/>
<text text-anchor="middle" x="86" y="-44.5" font-family="Helvetica,sans-Serif" font-size="10.00">examples.scheduling.fitness.fun</text>
</a>
</g>
</g>
<!-- Node1&#45;&gt;Node3 -->
<g id="edge6_Node000001_Node000003" class="edge">
<title>Node1&#45;&gt;Node3</title>
<g id="a_edge6_Node000001_Node000003"><a xlink:title=" ">
<path fill="none" stroke="#63b8ff" d="M196.17,-48C185.53,-48 174.79,-48 164.39,-48"/>
<polygon fill="#63b8ff" stroke="#63b8ff" points="196.14,-51.5 206.14,-48 196.14,-44.5 196.14,-51.5"/>
</a>
</g>
</g>
<!-- Node4 -->
<g id="Node000004" class="node">
<title>Node4</title>
<g id="a_Node000004"><a xlink:href="$classexamples_1_1scheduling_1_1fitness.html#a713c154b74b96a06274438bae71e2419" xlink:title=" ">
<polygon fill="white" stroke="#666666" points="172,-20 0,-20 0,0 172,0 172,-20"/>
<text text-anchor="middle" x="86" y="-6.5" font-family="Helvetica,sans-Serif" font-size="10.00">examples.scheduling.fitness.qd_fun</text>
</a>
</g>
</g>
<!-- Node1&#45;&gt;Node4 -->
<g id="edge7_Node000001_Node000004" class="edge">
<title>Node1&#45;&gt;Node4</title>
<g id="a_edge7_Node000001_Node000004"><a xlink:title=" ">
<path fill="none" stroke="#63b8ff" d="M222.99,-35.41C197.03,-30.56 167.69,-25.08 142.93,-20.45"/>
<polygon fill="#63b8ff" stroke="#63b8ff" points="222.3,-38.84 232.78,-37.24 223.59,-31.96 222.3,-38.84"/>
</a>
</g>
</g>
</g>
</svg>
