<?xml version="1.0" encoding="UTF-8" standalone="no"?>
<!DOCTYPE svg PUBLIC "-//W3C//DTD SVG 1.1//EN"
 "http://www.w3.org/Graphics/SVG/1.1/DTD/svg11.dtd">
<!-- Generated by graphviz version 12.2.1 (20241206.2353)
 -->
<!-- Title: anpcpc.ANPCPC.fitness Pages: 1 -->
<svg width="350pt" height="78pt"
 viewBox="0.00 0.00 349.75 78.00" xmlns="http://www.w3.org/2000/svg" xmlns:xlink="http://www.w3.org/1999/xlink">
<g id="graph0" class="graph" transform="scale(1 1) rotate(0) translate(4 74)">
<title>anpcpc.ANPCPC.fitness</title>
<!-- Node1 -->
<g id="Node000001" class="node">
<title>Node1</title>
<g id="a_Node000001"><a xlink:title=" ">
<polygon fill="#999999" stroke="#666666" points="341.75,-48 216.25,-48 216.25,-28 341.75,-28 341.75,-48"/>
<text text-anchor="middle" x="279" y="-34.5" font-family="Helvetica,sans-Serif" font-size="10.00">anpcpc.ANPCPC.fitness</text>
</a>
</g>
</g>
<!-- Node2 -->
<g id="Node000002" class="node">
<title>Node2</title>
<g id="a_Node000002"><a xlink:href="$classexamples_1_1employee_1_1problem.html#a96c79aee6dab29a25fd28b0b383f1916" xlink:title=" ">
<polygon fill="white" stroke="#666666" points="180.25,-70 0,-70 0,-50 180.25,-50 180.25,-70"/>
<text text-anchor="middle" x="90.12" y="-56.5" font-family="Helvetica,sans-Serif" font-size="10.00">examples.employee.problem.optimize</text>
</a>
</g>
</g>
<!-- Node1&#45;&gt;Node2 -->
<g id="edge3_Node000001_Node000002" class="edge">
<title>Node1&#45;&gt;Node2</title>
<g id="a_edge3_Node000001_Node000002"><a xlink:title=" ">
<path fill="none" stroke="#63b8ff" d="M204.56,-46.65C196.52,-47.59 188.26,-48.56 180.06,-49.53"/>
<polygon fill="#63b8ff" stroke="#63b8ff" points="204.75,-50.15 214.27,-45.5 203.93,-43.2 204.75,-50.15"/>
</a>
</g>
</g>
<!-- Node3 -->
<g id="Node000003" class="node">
<title>Node3</title>
<g id="a_Node000003"><a xlink:href="$classquantumcomm_1_1constellation__udp.html#a8c60ffafb21bc14b969a3f3f4079d24d" xlink:title="A verbose evaluation of the fitness functions.">
<polygon fill="white" stroke="#666666" points="159.25,-32 21,-32 21,0 159.25,0 159.25,-32"/>
<text text-anchor="start" x="29" y="-18.5" font-family="Helvetica,sans-Serif" font-size="10.00">quantumcomm.constellation</text>
<text text-anchor="middle" x="90.12" y="-6.5" font-family="Helvetica,sans-Serif" font-size="10.00">_udp.pretty</text>
</a>
</g>
</g>
<!-- Node1&#45;&gt;Node3 -->
<g id="edge4_Node000001_Node000003" class="edge">
<title>Node1&#45;&gt;Node3</title>
<g id="a_edge4_Node000001_Node000003"><a xlink:title=" ">
<path fill="none" stroke="#63b8ff" d="M204.58,-29.36C189.74,-27.61 174.18,-25.78 159.51,-24.05"/>
<polygon fill="#63b8ff" stroke="#63b8ff" points="203.93,-32.8 214.27,-30.5 204.75,-25.85 203.93,-32.8"/>
</a>
</g>
</g>
</g>
</svg>
