<?xml version="1.0" encoding="UTF-8" standalone="no"?>
<!DOCTYPE svg PUBLIC "-//W3C//DTD SVG 1.1//EN"
 "http://www.w3.org/Graphics/SVG/1.1/DTD/svg11.dtd">
<!-- Generated by graphviz version 12.2.1 (20241206.2353)
 -->
<!-- Title: examples.maxcut.fcmaes_SPSA Pages: 1 -->
<svg width="161pt" height="308pt"
 viewBox="0.00 0.00 160.75 308.00" xmlns="http://www.w3.org/2000/svg" xmlns:xlink="http://www.w3.org/1999/xlink">
<g id="graph0" class="graph" transform="scale(1 1) rotate(0) translate(4 304)">
<title>examples.maxcut.fcmaes_SPSA</title>
<!-- Node1 -->
<g id="Node000001" class="node">
<title>Node1</title>
<g id="a_Node000001"><a xlink:title=" ">
<polygon fill="#999999" stroke="none" points="152.75,-116 0,-116 0,0 152.75,0 152.75,-116"/>
<text text-anchor="start" x="4" y="-102.5" font-family="Helvetica,sans-Serif" font-size="10.00">examples.maxcut.fcmaes_SPSA</text>
<text text-anchor="start" x="11.44" y="-86.5" font-family="Helvetica,sans-Serif" font-size="10.00">+</text>
<text text-anchor="start" x="28.88" y="-86.5" font-family="Helvetica,sans-Serif" font-size="10.00">opt</text>
<text text-anchor="start" x="11.44" y="-70.5" font-family="Helvetica,sans-Serif" font-size="10.00">+</text>
<text text-anchor="start" x="28.88" y="-70.5" font-family="Helvetica,sans-Serif" font-size="10.00">__init__(self, maxiter</text>
<text text-anchor="start" x="28.88" y="-58.5" font-family="Helvetica,sans-Serif" font-size="10.00">=1000)</text>
<text text-anchor="start" x="11.44" y="-42.5" font-family="Helvetica,sans-Serif" font-size="10.00">+</text>
<text text-anchor="start" x="28.88" y="-42.5" font-family="Helvetica,sans-Serif" font-size="10.00">minimize(self, fun,</text>
<text text-anchor="start" x="28.88" y="-30.5" font-family="Helvetica,sans-Serif" font-size="10.00"> bounds, guess=None,</text>
<text text-anchor="start" x="28.88" y="-18.5" font-family="Helvetica,sans-Serif" font-size="10.00"> sdevs=None, rg=None,</text>
<text text-anchor="start" x="28.88" y="-6.5" font-family="Helvetica,sans-Serif" font-size="10.00"> store=None)</text>
<polygon fill="#666666" stroke="#666666" points="0,-98 0,-98 152.75,-98 152.75,-98 0,-98"/>
<polygon fill="#666666" stroke="#666666" points="0,-82 0,-82 26.88,-82 26.88,-82 0,-82"/>
<polygon fill="#666666" stroke="#666666" points="26.88,-82 26.88,-82 152.75,-82 152.75,-82 26.88,-82"/>
<polygon fill="none" stroke="#666666" points="0,0 0,-116 152.75,-116 152.75,0 0,0"/>
</a>
</g>
</g>
<!-- Node2 -->
<g id="Node000002" class="node">
<title>Node2</title>
<g id="a_Node000002"><a xlink:href="$classfcmaes_1_1optimizer_1_1_optimizer.html" xlink:title="Provides functionalities for optimization tasks.">
<polygon fill="white" stroke="none" points="149.5,-300 3.25,-300 3.25,-152 149.5,-152 149.5,-300"/>
<text text-anchor="start" x="16.38" y="-286.5" font-family="Helvetica,sans-Serif" font-size="10.00">fcmaes.optimizer.Optimizer</text>
<text text-anchor="start" x="7.25" y="-270.5" font-family="Helvetica,sans-Serif" font-size="10.00">+</text>
<text text-anchor="start" x="17.25" y="-270.5" font-family="Helvetica,sans-Serif" font-size="10.00">max_evaluations</text>
<text text-anchor="start" x="7.25" y="-254.5" font-family="Helvetica,sans-Serif" font-size="10.00">+</text>
<text text-anchor="start" x="17.25" y="-254.5" font-family="Helvetica,sans-Serif" font-size="10.00">name</text>
<text text-anchor="start" x="7.25" y="-238.5" font-family="Helvetica,sans-Serif" font-size="10.00">+</text>
<text text-anchor="start" x="17.25" y="-238.5" font-family="Helvetica,sans-Serif" font-size="10.00">__init__(self, Optional</text>
<text text-anchor="start" x="17.25" y="-226.5" font-family="Helvetica,sans-Serif" font-size="10.00">[int] max_evaluations=50000,</text>
<text text-anchor="start" x="17.25" y="-214.5" font-family="Helvetica,sans-Serif" font-size="10.00"> Optional[str] name=&#39;&#39;)</text>
<text text-anchor="start" x="7.25" y="-198.5" font-family="Helvetica,sans-Serif" font-size="10.00">+</text>
<text text-anchor="start" x="17.25" y="-198.5" font-family="Helvetica,sans-Serif" font-size="10.00">max_eval_num(self,</text>
<text text-anchor="start" x="17.25" y="-186.5" font-family="Helvetica,sans-Serif" font-size="10.00"> store=None)</text>
<text text-anchor="start" x="7.25" y="-170.5" font-family="Helvetica,sans-Serif" font-size="10.00">+</text>
<text text-anchor="start" x="17.25" y="-170.5" font-family="Helvetica,sans-Serif" font-size="10.00">get_count_runs(self,</text>
<text text-anchor="start" x="17.25" y="-158.5" font-family="Helvetica,sans-Serif" font-size="10.00"> store=None)</text>
<polygon fill="#666666" stroke="#666666" points="3.25,-282 3.25,-282 149.5,-282 149.5,-282 3.25,-282"/>
<polygon fill="#666666" stroke="#666666" points="3.25,-250 3.25,-250 15.25,-250 15.25,-250 3.25,-250"/>
<polygon fill="#666666" stroke="#666666" points="15.25,-250 15.25,-250 149.5,-250 149.5,-250 15.25,-250"/>
<polygon fill="none" stroke="#666666" points="3.25,-152 3.25,-300 149.5,-300 149.5,-152 3.25,-152"/>
</a>
</g>
</g>
<!-- Node2&#45;&gt;Node1 -->
<g id="edge2_Node000001_Node000002" class="edge">
<title>Node2&#45;&gt;Node1</title>
<g id="a_edge2_Node000001_Node000002"><a xlink:title=" ">
<path fill="none" stroke="#63b8ff" d="M76.38,-140.7C76.38,-132.26 76.38,-123.84 76.38,-115.78"/>
<polygon fill="none" stroke="#63b8ff" points="72.88,-140.68 76.38,-150.68 79.88,-140.68 72.88,-140.68"/>
</a>
</g>
</g>
</g>
</svg>
