<?xml version="1.0" encoding="UTF-8" standalone="no"?>
<!DOCTYPE svg PUBLIC "-//W3C//DTD SVG 1.1//EN"
 "http://www.w3.org/Graphics/SVG/1.1/DTD/svg11.dtd">
<!-- Generated by graphviz version 12.2.1 (20241206.2353)
 -->
<!-- Title: Fitness::getClosestFeasible Pages: 1 -->
<svg width="406pt" height="66pt"
 viewBox="0.00 0.00 406.25 66.00" xmlns="http://www.w3.org/2000/svg" xmlns:xlink="http://www.w3.org/1999/xlink">
<g id="graph0" class="graph" transform="scale(1 1) rotate(0) translate(4 62)">
<title>Fitness::getClosestFeasible</title>
<!-- Node1 -->
<g id="Node000001" class="node">
<title>Node1</title>
<g id="a_Node000001"><a xlink:title=" ">
<polygon fill="#999999" stroke="#666666" points="398.25,-39 260,-39 260,-19 398.25,-19 398.25,-39"/>
<text text-anchor="middle" x="329.12" y="-25.5" font-family="Helvetica,sans-Serif" font-size="10.00">Fitness::getClosestFeasible</text>
</a>
</g>
</g>
<!-- Node2 -->
<g id="Node000002" class="node">
<title>Node2</title>
<g id="a_Node000002"><a xlink:href="$crfmnes_8cpp.html#aa1796ba79109494532e2a57b9555b7e5" xlink:title=" ">
<polygon fill="white" stroke="#666666" points="224,-58 129.25,-58 129.25,-38 224,-38 224,-58"/>
<text text-anchor="middle" x="176.62" y="-44.5" font-family="Helvetica,sans-Serif" font-size="10.00">askCRFMNES_C</text>
</a>
</g>
</g>
<!-- Node1&#45;&gt;Node2 -->
<g id="edge4_Node000001_Node000002" class="edge">
<title>Node1&#45;&gt;Node2</title>
<g id="a_edge4_Node000001_Node000002"><a xlink:title=" ">
<path fill="none" stroke="#63b8ff" d="M248.66,-39.03C240.4,-40.07 232.22,-41.11 224.5,-42.08"/>
<polygon fill="#63b8ff" stroke="#63b8ff" points="248.94,-42.53 258.42,-37.8 248.06,-35.58 248.94,-42.53"/>
</a>
</g>
</g>
<!-- Node3 -->
<g id="Node000003" class="node">
<title>Node3</title>
<g id="a_Node000003"><a xlink:href="$class_fitness.html#a780edd5ddec4867c4d59c4cd3995f6ce" xlink:title=" ">
<polygon fill="white" stroke="#666666" points="218,-20 135.25,-20 135.25,0 218,0 218,-20"/>
<text text-anchor="middle" x="176.62" y="-6.5" font-family="Helvetica,sans-Serif" font-size="10.00">Fitness::values</text>
</a>
</g>
</g>
<!-- Node1&#45;&gt;Node3 -->
<g id="edge5_Node000001_Node000003" class="edge">
<title>Node1&#45;&gt;Node3</title>
<g id="a_edge5_Node000001_Node000003"><a xlink:title=" ">
<path fill="none" stroke="#63b8ff" d="M248.61,-18.96C238.19,-17.65 227.88,-16.34 218.48,-15.16"/>
<polygon fill="#63b8ff" stroke="#63b8ff" points="248.06,-22.42 258.42,-20.2 248.94,-15.47 248.06,-22.42"/>
</a>
</g>
</g>
<!-- Node4 -->
<g id="Node000004" class="node">
<title>Node4</title>
<g id="a_Node000004"><a xlink:href="$pgpe_8cpp.html#a83f6d1c91509d2c28e236afbea4bd172" xlink:title=" ">
<polygon fill="white" stroke="#666666" points="93.25,-20 0,-20 0,0 93.25,0 93.25,-20"/>
<text text-anchor="middle" x="46.62" y="-6.5" font-family="Helvetica,sans-Serif" font-size="10.00">optimizePGPE_C</text>
</a>
</g>
</g>
<!-- Node3&#45;&gt;Node4 -->
<g id="edge6_Node000003_Node000004" class="edge">
<title>Node3&#45;&gt;Node4</title>
<g id="a_edge6_Node000003_Node000004"><a xlink:title=" ">
<path fill="none" stroke="#63b8ff" d="M123.36,-10C113.44,-10 103.13,-10 93.42,-10"/>
<polygon fill="#63b8ff" stroke="#63b8ff" points="123.26,-13.5 133.26,-10 123.26,-6.5 123.26,-13.5"/>
</a>
</g>
</g>
</g>
</svg>
