<?xml version="1.0" encoding="UTF-8" standalone="no"?>
<!DOCTYPE svg PUBLIC "-//W3C//DTD SVG 1.1//EN"
 "http://www.w3.org/Graphics/SVG/1.1/DTD/svg11.dtd">
<!-- Generated by graphviz version 12.2.1 (20241206.2353)
 -->
<!-- Title: examples.employee.problem.fitness_mo Pages: 1 -->
<svg width="435pt" height="66pt"
 viewBox="0.00 0.00 434.50 66.00" xmlns="http://www.w3.org/2000/svg" xmlns:xlink="http://www.w3.org/1999/xlink">
<g id="graph0" class="graph" transform="scale(1 1) rotate(0) translate(4 62)">
<title>examples.employee.problem.fitness_mo</title>
<!-- Node1 -->
<g id="Node000001" class="node">
<title>Node1</title>
<g id="a_Node000001"><a xlink:title=" ">
<polygon fill="#999999" stroke="#666666" points="426.5,-39 235,-39 235,-19 426.5,-19 426.5,-39"/>
<text text-anchor="middle" x="330.75" y="-25.5" font-family="Helvetica,sans-Serif" font-size="10.00">examples.employee.problem.fitness_mo</text>
</a>
</g>
</g>
<!-- Node2 -->
<g id="Node000002" class="node">
<title>Node2</title>
<g id="a_Node000002"><a xlink:href="$classexamples_1_1employee_1_1problem.html#a96c79aee6dab29a25fd28b0b383f1916" xlink:title=" ">
<polygon fill="white" stroke="#666666" points="189.62,-58 9.38,-58 9.38,-38 189.62,-38 189.62,-58"/>
<text text-anchor="middle" x="99.5" y="-44.5" font-family="Helvetica,sans-Serif" font-size="10.00">examples.employee.problem.optimize</text>
</a>
</g>
</g>
<!-- Node1&#45;&gt;Node2 -->
<g id="edge3_Node000001_Node000002" class="edge">
<title>Node1&#45;&gt;Node2</title>
<g id="a_edge3_Node000001_Node000002"><a xlink:title=" ">
<path fill="none" stroke="#63b8ff" d="M223.38,-37.82C212.19,-38.74 200.9,-39.68 189.92,-40.59"/>
<polygon fill="#63b8ff" stroke="#63b8ff" points="223.33,-41.33 233.01,-37.02 222.76,-34.36 223.33,-41.33"/>
</a>
</g>
</g>
<!-- Node3 -->
<g id="Node000003" class="node">
<title>Node3</title>
<g id="a_Node000003"><a xlink:href="$classexamples_1_1employee_1_1problem.html#a451356183bd266ec5feb44a1b9cf92ef" xlink:title=" ">
<polygon fill="white" stroke="#666666" points="199,-20 0,-20 0,0 199,0 199,-20"/>
<text text-anchor="middle" x="99.5" y="-6.5" font-family="Helvetica,sans-Serif" font-size="10.00">examples.employee.problem.optimize_mo</text>
</a>
</g>
</g>
<!-- Node1&#45;&gt;Node3 -->
<g id="edge4_Node000001_Node000003" class="edge">
<title>Node1&#45;&gt;Node3</title>
<g id="a_edge4_Node000001_Node000003"><a xlink:title=" ">
<path fill="none" stroke="#63b8ff" d="M223.22,-20.17C215.19,-19.51 207.11,-18.84 199.13,-18.17"/>
<polygon fill="#63b8ff" stroke="#63b8ff" points="222.76,-23.64 233.01,-20.98 223.33,-16.67 222.76,-23.64"/>
</a>
</g>
</g>
</g>
</svg>
