<?xml version="1.0" encoding="UTF-8" standalone="no"?>
<!DOCTYPE svg PUBLIC "-//W3C//DTD SVG 1.1//EN"
 "http://www.w3.org/Graphics/SVG/1.1/DTD/svg11.dtd">
<!-- Generated by graphviz version 12.2.1 (20241206.2353)
 -->
<!-- Title: fcmaes.cmaes.Cmaes.ask Pages: 1 -->
<svg width="347pt" height="204pt"
 viewBox="0.00 0.00 346.75 204.00" xmlns="http://www.w3.org/2000/svg" xmlns:xlink="http://www.w3.org/1999/xlink">
<g id="graph0" class="graph" transform="scale(1 1) rotate(0) translate(4 200)">
<title>fcmaes.cmaes.Cmaes.ask</title>
<!-- Node1 -->
<g id="Node000001" class="node">
<title>Node1</title>
<g id="a_Node000001"><a xlink:title="Generates a NumPy array by decoding elements in the current data structure.">
<polygon fill="#999999" stroke="#666666" points="338.75,-114 205,-114 205,-94 338.75,-94 338.75,-114"/>
<text text-anchor="middle" x="271.88" y="-100.5" font-family="Helvetica,sans-Serif" font-size="10.00">fcmaes.cmaes.Cmaes.ask</text>
</a>
</g>
</g>
<!-- Node2 -->
<g id="Node000002" class="node">
<title>Node2</title>
<g id="a_Node000002"><a xlink:href="$classfcmaes_1_1cmaes_1_1_cmaes.html#a974188898932b9c2ecacb33387c08fd8" xlink:title="Performs an optimization process within a generation loop until termination conditions are met.">
<polygon fill="white" stroke="#666666" points="168.25,-196 0.75,-196 0.75,-176 168.25,-176 168.25,-196"/>
<text text-anchor="middle" x="84.5" y="-182.5" font-family="Helvetica,sans-Serif" font-size="10.00">fcmaes.cmaes.Cmaes.doOptimize</text>
</a>
</g>
</g>
<!-- Node1&#45;&gt;Node2 -->
<g id="edge6_Node000001_Node000002" class="edge">
<title>Node1&#45;&gt;Node2</title>
<g id="a_edge6_Node000001_Node000002"><a xlink:title=" ">
<path fill="none" stroke="#63b8ff" d="M248.35,-120.98C228.45,-135.21 198.14,-155.06 169,-167 160.75,-170.38 151.77,-173.22 142.87,-175.59"/>
<polygon fill="#63b8ff" stroke="#63b8ff" points="250.25,-123.92 256.27,-115.2 246.12,-118.27 250.25,-123.92"/>
</a>
</g>
</g>
<!-- Node3 -->
<g id="Node000003" class="node">
<title>Node3</title>
<g id="a_Node000003"><a xlink:href="$classfcmaes_1_1mode_1_1_m_o_d_e.html#a6f479d982825465b97c89e528351bf36" xlink:title="Minimizes the given multi&#45;objective function in parallel, using a specified number of workers and an ...">
<polygon fill="white" stroke="#666666" points="169,-158 0,-158 0,-138 169,-138 169,-158"/>
<text text-anchor="middle" x="84.5" y="-144.5" font-family="Helvetica,sans-Serif" font-size="10.00">fcmaes.mode.MODE.minimize_par</text>
</a>
</g>
</g>
<!-- Node1&#45;&gt;Node3 -->
<g id="edge7_Node000001_Node000003" class="edge">
<title>Node1&#45;&gt;Node3</title>
<g id="a_edge7_Node000001_Node000003"><a xlink:title=" ">
<path fill="none" stroke="#63b8ff" d="M217.68,-117.23C202.02,-121.08 184.83,-125.26 169,-129 156.99,-131.84 143.99,-134.83 131.91,-137.59"/>
<polygon fill="#63b8ff" stroke="#63b8ff" points="218.44,-120.65 227.31,-114.86 216.77,-113.85 218.44,-120.65"/>
</a>
</g>
</g>
<!-- Node4 -->
<g id="Node000004" class="node">
<title>Node4</title>
<g id="a_Node000004"><a xlink:href="$classfcmaes_1_1modecpp_1_1_m_o_d_e___c.html#a672b403a7e745d9e69532454f32d2b62" xlink:title="Run a parallel multi&#45;objective optimization process.">
<polygon fill="white" stroke="#666666" points="146.5,-120 22.5,-120 22.5,-88 146.5,-88 146.5,-120"/>
<text text-anchor="start" x="30.5" y="-106.5" font-family="Helvetica,sans-Serif" font-size="10.00">fcmaes.modecpp.MODE</text>
<text text-anchor="middle" x="84.5" y="-94.5" font-family="Helvetica,sans-Serif" font-size="10.00">_C.minimize_par</text>
</a>
</g>
</g>
<!-- Node1&#45;&gt;Node4 -->
<g id="edge8_Node000001_Node000004" class="edge">
<title>Node1&#45;&gt;Node4</title>
<g id="a_edge8_Node000001_Node000004"><a xlink:title=" ">
<path fill="none" stroke="#63b8ff" d="M193.55,-104C178.01,-104 161.88,-104 146.97,-104"/>
<polygon fill="#63b8ff" stroke="#63b8ff" points="193.22,-107.5 203.22,-104 193.22,-100.5 193.22,-107.5"/>
</a>
</g>
</g>
<!-- Node5 -->
<g id="Node000005" class="node">
<title>Node5</title>
<g id="a_Node000005"><a xlink:href="$classfcmaes_1_1mode_1_1_m_o_d_e.html#a3b3a358c6fded3c638706495c88eff1a" xlink:title="Minimizes a given function using a custom optimization approach until the maximum number of evaluatio...">
<polygon fill="white" stroke="#666666" points="169,-70 0,-70 0,-50 169,-50 169,-70"/>
<text text-anchor="middle" x="84.5" y="-56.5" font-family="Helvetica,sans-Serif" font-size="10.00">fcmaes.mode.MODE.minimize_ser</text>
</a>
</g>
</g>
<!-- Node1&#45;&gt;Node5 -->
<g id="edge9_Node000001_Node000005" class="edge">
<title>Node1&#45;&gt;Node5</title>
<g id="a_edge9_Node000001_Node000005"><a xlink:title=" ">
<path fill="none" stroke="#63b8ff" d="M217.68,-90.77C202.02,-86.92 184.83,-82.74 169,-79 156.99,-76.16 143.99,-73.17 131.91,-70.41"/>
<polygon fill="#63b8ff" stroke="#63b8ff" points="216.77,-94.15 227.31,-93.14 218.44,-87.35 216.77,-94.15"/>
</a>
</g>
</g>
<!-- Node6 -->
<g id="Node000006" class="node">
<title>Node6</title>
<g id="a_Node000006"><a xlink:href="$classfcmaes_1_1modecpp_1_1_m_o_d_e___c.html#aa4a7a3e4f9a3fc84dc37faf820025306" xlink:title="Minimizes the given scalar function using a serial optimization method.">
<polygon fill="white" stroke="#666666" points="146.5,-32 22.5,-32 22.5,0 146.5,0 146.5,-32"/>
<text text-anchor="start" x="30.5" y="-18.5" font-family="Helvetica,sans-Serif" font-size="10.00">fcmaes.modecpp.MODE</text>
<text text-anchor="middle" x="84.5" y="-6.5" font-family="Helvetica,sans-Serif" font-size="10.00">_C.minimize_ser</text>
</a>
</g>
</g>
<!-- Node1&#45;&gt;Node6 -->
<g id="edge10_Node000001_Node000006" class="edge">
<title>Node1&#45;&gt;Node6</title>
<g id="a_edge10_Node000001_Node000006"><a xlink:title=" ">
<path fill="none" stroke="#63b8ff" d="M247.46,-87.04C227.42,-73.14 197.4,-53.76 169,-41 161.96,-37.84 154.41,-34.94 146.84,-32.33"/>
<polygon fill="#63b8ff" stroke="#63b8ff" points="245.27,-89.78 255.46,-92.68 249.31,-84.06 245.27,-89.78"/>
</a>
</g>
</g>
</g>
</svg>
