<?xml version="1.0" encoding="UTF-8" standalone="no"?>
<!DOCTYPE svg PUBLIC "-//W3C//DTD SVG 1.1//EN"
 "http://www.w3.org/Graphics/SVG/1.1/DTD/svg11.dtd">
<!-- Generated by graphviz version 12.2.1 (20241206.2353)
 -->
<!-- Title: fcmaes.optimizer.Da_cpp.minimize Pages: 1 -->
<svg width="309pt" height="140pt"
 viewBox="0.00 0.00 308.50 140.00" xmlns="http://www.w3.org/2000/svg" xmlns:xlink="http://www.w3.org/1999/xlink">
<g id="graph0" class="graph" transform="scale(1 1) rotate(0) translate(4 136)">
<title>fcmaes.optimizer.Da_cpp.minimize</title>
<!-- Node1 -->
<g id="Node000001" class="node">
<title>Node1</title>
<g id="a_Node000001"><a xlink:title="Minimizes an objective function within given bounds using a stochastic optimization method.">
<polygon fill="#999999" stroke="#666666" points="106.75,-82 0,-82 0,-50 106.75,-50 106.75,-82"/>
<text text-anchor="start" x="8" y="-68.5" font-family="Helvetica,sans-Serif" font-size="10.00">fcmaes.optimizer.Da</text>
<text text-anchor="middle" x="53.38" y="-56.5" font-family="Helvetica,sans-Serif" font-size="10.00">_cpp.minimize</text>
</a>
</g>
</g>
<!-- Node2 -->
<g id="Node000002" class="node">
<title>Node2</title>
<g id="a_Node000002"><a xlink:href="$classfcmaes_1_1advretry_1_1_store.html#a329ccb4c8a17a35fec30a506495dee61" xlink:title="Retrieves the count of runs.">
<polygon fill="white" stroke="#666666" points="285.88,-132 157.38,-132 157.38,-100 285.88,-100 285.88,-132"/>
<text text-anchor="start" x="165.38" y="-118.5" font-family="Helvetica,sans-Serif" font-size="10.00">fcmaes.advretry.Store.get</text>
<text text-anchor="middle" x="221.62" y="-106.5" font-family="Helvetica,sans-Serif" font-size="10.00">_count_runs</text>
</a>
</g>
</g>
<!-- Node1&#45;&gt;Node2 -->
<g id="edge4_Node000001_Node000002" class="edge">
<title>Node1&#45;&gt;Node2</title>
<g id="a_edge4_Node000001_Node000002"><a xlink:title=" ">
<path fill="none" stroke="#63b8ff" d="M106.98,-81.82C122.2,-86.4 139.02,-91.46 154.94,-96.24"/>
<polygon fill="#63b8ff" stroke="#63b8ff" points="153.75,-99.54 164.34,-99.07 155.77,-92.84 153.75,-99.54"/>
</a>
</g>
</g>
<!-- Node3 -->
<g id="Node000003" class="node">
<title>Node3</title>
<g id="a_Node000003"><a xlink:href="$classfcmaes_1_1optimizer_1_1_optimizer.html#acf09b9b314cc4faf25c9935e76ae1821" xlink:title="Gets the count of runs from the provided store.">
<polygon fill="white" stroke="#666666" points="297.88,-82 145.38,-82 145.38,-50 297.88,-50 297.88,-82"/>
<text text-anchor="start" x="153.38" y="-68.5" font-family="Helvetica,sans-Serif" font-size="10.00">fcmaes.optimizer.Optimizer.get</text>
<text text-anchor="middle" x="221.62" y="-56.5" font-family="Helvetica,sans-Serif" font-size="10.00">_count_runs</text>
</a>
</g>
</g>
<!-- Node1&#45;&gt;Node3 -->
<g id="edge5_Node000001_Node000003" class="edge">
<title>Node1&#45;&gt;Node3</title>
<g id="a_edge5_Node000001_Node000003"><a xlink:title=" ">
<path fill="none" stroke="#63b8ff" d="M106.98,-66C115.47,-66 124.46,-66 133.51,-66"/>
<polygon fill="#63b8ff" stroke="#63b8ff" points="133.47,-69.5 143.47,-66 133.47,-62.5 133.47,-69.5"/>
</a>
</g>
</g>
<!-- Node4 -->
<g id="Node000004" class="node">
<title>Node4</title>
<g id="a_Node000004"><a xlink:href="$classfcmaes_1_1optimizer_1_1_optimizer.html#adfc4b7f5b36503f186c68d521a9ede8a" xlink:title="Evaluates and returns the maximum number of evaluations based on the provided store or the object&#39;s d...">
<polygon fill="white" stroke="#666666" points="300.5,-32 142.75,-32 142.75,0 300.5,0 300.5,-32"/>
<text text-anchor="start" x="150.75" y="-18.5" font-family="Helvetica,sans-Serif" font-size="10.00">fcmaes.optimizer.Optimizer.max</text>
<text text-anchor="middle" x="221.62" y="-6.5" font-family="Helvetica,sans-Serif" font-size="10.00">_eval_num</text>
</a>
</g>
</g>
<!-- Node1&#45;&gt;Node4 -->
<g id="edge6_Node000001_Node000004" class="edge">
<title>Node1&#45;&gt;Node4</title>
<g id="a_edge6_Node000001_Node000004"><a xlink:title=" ">
<path fill="none" stroke="#63b8ff" d="M106.98,-50.18C122.2,-45.6 139.02,-40.54 154.94,-35.76"/>
<polygon fill="#63b8ff" stroke="#63b8ff" points="155.77,-39.16 164.34,-32.93 153.75,-32.46 155.77,-39.16"/>
</a>
</g>
</g>
</g>
</svg>
