<?xml version="1.0" encoding="UTF-8" standalone="no"?>
<!DOCTYPE svg PUBLIC "-//W3C//DTD SVG 1.1//EN"
 "http://www.w3.org/Graphics/SVG/1.1/DTD/svg11.dtd">
<!-- Generated by graphviz version 12.2.1 (20241206.2353)
 -->
<!-- Title: examples.robot.PushReward.__call__ Pages: 1 -->
<svg width="328pt" height="116pt"
 viewBox="0.00 0.00 328.00 116.00" xmlns="http://www.w3.org/2000/svg" xmlns:xlink="http://www.w3.org/1999/xlink">
<g id="graph0" class="graph" transform="scale(1 1) rotate(0) translate(4 112)">
<title>examples.robot.PushReward.__call__</title>
<!-- Node1 -->
<g id="Node000001" class="node">
<title>Node1</title>
<g id="a_Node000001"><a xlink:title=" ">
<polygon fill="#999999" stroke="#666666" points="145,-76 0,-76 0,-44 145,-44 145,-76"/>
<text text-anchor="start" x="8" y="-62.5" font-family="Helvetica,sans-Serif" font-size="10.00">examples.robot.PushReward.</text>
<text text-anchor="middle" x="72.5" y="-50.5" font-family="Helvetica,sans-Serif" font-size="10.00">__call__</text>
</a>
</g>
</g>
<!-- Node2 -->
<g id="Node000002" class="node">
<title>Node2</title>
<g id="a_Node000002"><a xlink:href="$namespaceexamples_1_1robot.html#a252c38079aadabb2799d5085b5eb4a48" xlink:title=" ">
<polygon fill="white" stroke="#666666" points="320,-108 181,-108 181,-88 320,-88 320,-108"/>
<text text-anchor="middle" x="250.5" y="-94.5" font-family="Helvetica,sans-Serif" font-size="10.00">examples.robot.create_body</text>
</a>
</g>
</g>
<!-- Node1&#45;&gt;Node2 -->
<g id="edge4_Node000001_Node000002" class="edge">
<title>Node1&#45;&gt;Node2</title>
<g id="a_edge4_Node000001_Node000002"><a xlink:title=" ">
<path fill="none" stroke="#63b8ff" d="M145.34,-75.51C160.11,-78.7 175.52,-82.03 189.81,-85.11"/>
<polygon fill="#63b8ff" stroke="#63b8ff" points="189,-88.52 199.52,-87.21 190.48,-81.68 189,-88.52"/>
</a>
</g>
</g>
<!-- Node3 -->
<g id="Node000003" class="node">
<title>Node3</title>
<g id="a_Node000003"><a xlink:href="$namespaceexamples_1_1robot.html#ac017cc6df6c6717fcc3f1bb730354cde" xlink:title=" ">
<polygon fill="white" stroke="#666666" points="318.5,-70 182.5,-70 182.5,-50 318.5,-50 318.5,-70"/>
<text text-anchor="middle" x="250.5" y="-56.5" font-family="Helvetica,sans-Serif" font-size="10.00">examples.robot.make_base</text>
</a>
</g>
</g>
<!-- Node1&#45;&gt;Node3 -->
<g id="edge5_Node000001_Node000003" class="edge">
<title>Node1&#45;&gt;Node3</title>
<g id="a_edge5_Node000001_Node000003"><a xlink:title=" ">
<path fill="none" stroke="#63b8ff" d="M145.34,-60C153.7,-60 162.27,-60 170.72,-60"/>
<polygon fill="#63b8ff" stroke="#63b8ff" points="170.63,-63.5 180.63,-60 170.63,-56.5 170.63,-63.5"/>
</a>
</g>
</g>
<!-- Node4 -->
<g id="Node000004" class="node">
<title>Node4</title>
<g id="a_Node000004"><a xlink:href="$namespaceexamples_1_1robot.html#aa5b8f7a38272096913298ba3f11b72d8" xlink:title=" ">
<polygon fill="white" stroke="#666666" points="300.12,-32 200.88,-32 200.88,0 300.12,0 300.12,-32"/>
<text text-anchor="start" x="208.88" y="-18.5" font-family="Helvetica,sans-Serif" font-size="10.00">examples.robot.run</text>
<text text-anchor="middle" x="250.5" y="-6.5" font-family="Helvetica,sans-Serif" font-size="10.00">_simulation</text>
</a>
</g>
</g>
<!-- Node1&#45;&gt;Node4 -->
<g id="edge6_Node000001_Node000004" class="edge">
<title>Node1&#45;&gt;Node4</title>
<g id="a_edge6_Node000001_Node000004"><a xlink:title=" ">
<path fill="none" stroke="#63b8ff" d="M139.29,-43.55C155.79,-39.43 173.4,-35.02 189.6,-30.98"/>
<polygon fill="#63b8ff" stroke="#63b8ff" points="190.23,-34.42 199.09,-28.6 188.54,-27.63 190.23,-34.42"/>
</a>
</g>
</g>
</g>
</svg>
