<?xml version="1.0" encoding="UTF-8" standalone="no"?>
<!DOCTYPE svg PUBLIC "-//W3C//DTD SVG 1.1//EN"
 "http://www.w3.org/Graphics/SVG/1.1/DTD/svg11.dtd">
<!-- Generated by graphviz version 12.2.1 (20241206.2353)
 -->
<!-- Title: fcmaes.evaluator.parallel.__call__ Pages: 1 -->
<svg width="269pt" height="66pt"
 viewBox="0.00 0.00 268.75 66.00" xmlns="http://www.w3.org/2000/svg" xmlns:xlink="http://www.w3.org/1999/xlink">
<g id="graph0" class="graph" transform="scale(1 1) rotate(0) translate(4 62)">
<title>fcmaes.evaluator.parallel.__call__</title>
<!-- Node1 -->
<g id="Node000001" class="node">
<title>Node1</title>
<g id="a_Node000001"><a xlink:title="Evaluates the input using the provided evaluator function in parallel and returns the result.">
<polygon fill="#999999" stroke="#666666" points="260.75,-45 133,-45 133,-13 260.75,-13 260.75,-45"/>
<text text-anchor="start" x="141" y="-31.5" font-family="Helvetica,sans-Serif" font-size="10.00">fcmaes.evaluator.parallel.</text>
<text text-anchor="middle" x="196.88" y="-19.5" font-family="Helvetica,sans-Serif" font-size="10.00">__call__</text>
</a>
</g>
</g>
<!-- Node2 -->
<g id="Node000002" class="node">
<title>Node2</title>
<g id="a_Node000002"><a xlink:href="$classhbv_1_1hbv.html#a89aea998d9546dc3465bf46fbee95689" xlink:title=" ">
<polygon fill="white" stroke="#666666" points="97,-58 0,-58 0,-38 97,-38 97,-58"/>
<text text-anchor="middle" x="48.5" y="-44.5" font-family="Helvetica,sans-Serif" font-size="10.00">hbv.hbv.qd_fitness</text>
</a>
</g>
</g>
<!-- Node1&#45;&gt;Node2 -->
<g id="edge3_Node000001_Node000002" class="edge">
<title>Node1&#45;&gt;Node2</title>
<g id="a_edge3_Node000001_Node000002"><a xlink:title=" ">
<path fill="none" stroke="#63b8ff" d="M121.17,-38.7C113.13,-39.74 105.11,-40.78 97.5,-41.77"/>
<polygon fill="#63b8ff" stroke="#63b8ff" points="121.56,-42.18 131.02,-37.42 120.66,-35.23 121.56,-42.18"/>
</a>
</g>
</g>
<!-- Node3 -->
<g id="Node000003" class="node">
<title>Node3</title>
<g id="a_Node000003"><a xlink:href="$classlrgv_1_1lrgv.html#a527b9b7a7927721b5320ab433bf75aea" xlink:title=" ">
<polygon fill="white" stroke="#666666" points="97,-20 0,-20 0,0 97,0 97,-20"/>
<text text-anchor="middle" x="48.5" y="-6.5" font-family="Helvetica,sans-Serif" font-size="10.00">lrgv.lrgv.qd_fitness</text>
</a>
</g>
</g>
<!-- Node1&#45;&gt;Node3 -->
<g id="edge4_Node000001_Node000003" class="edge">
<title>Node1&#45;&gt;Node3</title>
<g id="a_edge4_Node000001_Node000003"><a xlink:title=" ">
<path fill="none" stroke="#63b8ff" d="M121.17,-19.3C113.13,-18.26 105.11,-17.22 97.5,-16.23"/>
<polygon fill="#63b8ff" stroke="#63b8ff" points="120.66,-22.77 131.02,-20.58 121.56,-15.82 120.66,-22.77"/>
</a>
</g>
</g>
</g>
</svg>
