<?xml version="1.0" encoding="UTF-8" standalone="no"?>
<!DOCTYPE svg PUBLIC "-//W3C//DTD SVG 1.1//EN"
 "http://www.w3.org/Graphics/SVG/1.1/DTD/svg11.dtd">
<!-- Generated by graphviz version 12.2.1 (20241206.2353)
 -->
<!-- Title: CBiteSel&lt; tCount &gt; Pages: 1 -->
<svg width="254pt" height="697pt"
 viewBox="0.00 0.00 254.25 697.00" xmlns="http://www.w3.org/2000/svg" xmlns:xlink="http://www.w3.org/1999/xlink">
<g id="graph0" class="graph" transform="scale(1 1) rotate(0) translate(4 693)">
<title>CBiteSel&lt; tCount &gt;</title>
<!-- Node1 -->
<g id="Node000001" class="node">
<title>Node1</title>
<g id="a_Node000001"><a xlink:title=" ">
<polygon fill="#999999" stroke="none" points="170.25,-152 76,-152 76,-100 170.25,-100 170.25,-152"/>
<text text-anchor="start" x="80" y="-138.5" font-family="Helvetica,sans-Serif" font-size="10.00">CBiteSel&lt; tCount &gt;</text>
<text text-anchor="start" x="121.62" y="-122.5" font-family="Helvetica,sans-Serif" font-size="10.00"> </text>
<text text-anchor="start" x="87.81" y="-106.5" font-family="Helvetica,sans-Serif" font-size="10.00">+</text>
<text text-anchor="start" x="105.62" y="-106.5" font-family="Helvetica,sans-Serif" font-size="10.00">CBiteSel()</text>
<polygon fill="#666666" stroke="#666666" points="76,-134 76,-134 170.25,-134 170.25,-134 76,-134"/>
<polygon fill="#666666" stroke="#666666" points="76,-118 76,-118 170.25,-118 170.25,-118 76,-118"/>
<polygon fill="none" stroke="#666666" points="76,-100 76,-152 170.25,-152 170.25,-100 76,-100"/>
</a>
</g>
</g>
<!-- Node3 -->
<g id="Node000003" class="node">
<title>Node3</title>
<g id="a_Node000003"><a xlink:href="$class_c_bite_sel.html" xlink:title=" ">
<polygon fill="white" stroke="none" points="70.25,-52 0,-52 0,0 70.25,0 70.25,-52"/>
<text text-anchor="start" x="4" y="-38.5" font-family="Helvetica,sans-Serif" font-size="10.00">CBiteSel&lt; 4 &gt;</text>
<text text-anchor="start" x="33.62" y="-22.5" font-family="Helvetica,sans-Serif" font-size="10.00"> </text>
<text text-anchor="start" x="5.81" y="-6.5" font-family="Helvetica,sans-Serif" font-size="10.00">+</text>
<text text-anchor="start" x="17.62" y="-6.5" font-family="Helvetica,sans-Serif" font-size="10.00">CBiteSel()</text>
<polygon fill="#666666" stroke="#666666" points="0,-34 0,-34 70.25,-34 70.25,-34 0,-34"/>
<polygon fill="#666666" stroke="#666666" points="0,-18 0,-18 70.25,-18 70.25,-18 0,-18"/>
<polygon fill="none" stroke="#666666" points="0,0 0,-52 70.25,-52 70.25,0 0,0"/>
</a>
</g>
</g>
<!-- Node1&#45;&gt;Node3 -->
<g id="edge6_Node000001_Node000003" class="edge">
<title>Node1&#45;&gt;Node3</title>
<g id="a_edge6_Node000001_Node000003"><a xlink:title=" ">
<path fill="none" stroke="orange" d="M93.26,-91.74C81.56,-78.71 68.37,-64.03 57.52,-51.94"/>
<polygon fill="orange" stroke="orange" points="90.39,-93.79 99.68,-98.89 95.6,-89.11 90.39,-93.79"/>
</a>
</g>
<text text-anchor="middle" x="97.52" y="-72.5" font-family="Helvetica,sans-Serif" font-size="10.00" fill="grey"> &lt; 4 &gt;</text>
</g>
<!-- Node4 -->
<g id="Node000004" class="node">
<title>Node4</title>
<g id="a_Node000004"><a xlink:href="$class_c_bite_sel.html" xlink:title=" ">
<polygon fill="white" stroke="none" points="158.25,-52 88,-52 88,0 158.25,0 158.25,-52"/>
<text text-anchor="start" x="92" y="-38.5" font-family="Helvetica,sans-Serif" font-size="10.00">CBiteSel&lt; 3 &gt;</text>
<text text-anchor="start" x="121.62" y="-22.5" font-family="Helvetica,sans-Serif" font-size="10.00"> </text>
<text text-anchor="start" x="93.81" y="-6.5" font-family="Helvetica,sans-Serif" font-size="10.00">+</text>
<text text-anchor="start" x="105.62" y="-6.5" font-family="Helvetica,sans-Serif" font-size="10.00">CBiteSel()</text>
<polygon fill="#666666" stroke="#666666" points="88,-34 88,-34 158.25,-34 158.25,-34 88,-34"/>
<polygon fill="#666666" stroke="#666666" points="88,-18 88,-18 158.25,-18 158.25,-18 88,-18"/>
<polygon fill="none" stroke="#666666" points="88,0 88,-52 158.25,-52 158.25,0 88,0"/>
</a>
</g>
</g>
<!-- Node1&#45;&gt;Node4 -->
<g id="edge7_Node000001_Node000004" class="edge">
<title>Node1&#45;&gt;Node4</title>
<g id="a_edge7_Node000001_Node000004"><a xlink:title=" ">
<path fill="none" stroke="orange" d="M123.12,-88.74C123.12,-76.49 123.12,-63.1 123.12,-51.94"/>
<polygon fill="orange" stroke="orange" points="119.63,-88.5 123.13,-98.5 126.63,-88.5 119.63,-88.5"/>
</a>
</g>
<text text-anchor="middle" x="136.25" y="-72.5" font-family="Helvetica,sans-Serif" font-size="10.00" fill="grey"> &lt; 3 &gt;</text>
</g>
<!-- Node5 -->
<g id="Node000005" class="node">
<title>Node5</title>
<g id="a_Node000005"><a xlink:href="$class_c_bite_sel.html" xlink:title=" ">
<polygon fill="white" stroke="none" points="246.25,-52 176,-52 176,0 246.25,0 246.25,-52"/>
<text text-anchor="start" x="180" y="-38.5" font-family="Helvetica,sans-Serif" font-size="10.00">CBiteSel&lt; 2 &gt;</text>
<text text-anchor="start" x="209.62" y="-22.5" font-family="Helvetica,sans-Serif" font-size="10.00"> </text>
<text text-anchor="start" x="181.81" y="-6.5" font-family="Helvetica,sans-Serif" font-size="10.00">+</text>
<text text-anchor="start" x="193.62" y="-6.5" font-family="Helvetica,sans-Serif" font-size="10.00">CBiteSel()</text>
<polygon fill="#666666" stroke="#666666" points="176,-34 176,-34 246.25,-34 246.25,-34 176,-34"/>
<polygon fill="#666666" stroke="#666666" points="176,-18 176,-18 246.25,-18 246.25,-18 176,-18"/>
<polygon fill="none" stroke="#666666" points="176,0 176,-52 246.25,-52 246.25,0 176,0"/>
</a>
</g>
</g>
<!-- Node1&#45;&gt;Node5 -->
<g id="edge8_Node000001_Node000005" class="edge">
<title>Node1&#45;&gt;Node5</title>
<g id="a_edge8_Node000001_Node000005"><a xlink:title=" ">
<path fill="none" stroke="orange" d="M152.99,-91.74C164.69,-78.71 177.88,-64.03 188.73,-51.94"/>
<polygon fill="orange" stroke="orange" points="150.65,-89.11 146.57,-98.89 155.86,-93.79 150.65,-89.11"/>
</a>
</g>
<text text-anchor="middle" x="185.52" y="-72.5" font-family="Helvetica,sans-Serif" font-size="10.00" fill="grey"> &lt; 2 &gt;</text>
</g>
<!-- Node2 -->
<g id="Node000002" class="node">
<title>Node2</title>
<g id="a_Node000002"><a xlink:href="$class_c_bite_sel_base.html" xlink:title=" ">
<polygon fill="white" stroke="none" points="195.88,-689 50.38,-689 50.38,-189 195.88,-189 195.88,-689"/>
<text text-anchor="start" x="92.38" y="-675.5" font-family="Helvetica,sans-Serif" font-size="10.00">CBiteSelBase</text>
<text text-anchor="start" x="54.75" y="-659.5" font-family="Helvetica,sans-Serif" font-size="10.00">#</text>
<text text-anchor="start" x="64.38" y="-659.5" font-family="Helvetica,sans-Serif" font-size="10.00">int Count</text>
<text text-anchor="start" x="54.75" y="-643.5" font-family="Helvetica,sans-Serif" font-size="10.00">#</text>
<text text-anchor="start" x="64.38" y="-643.5" font-family="Helvetica,sans-Serif" font-size="10.00">int SparseMul</text>
<text text-anchor="start" x="54.75" y="-627.5" font-family="Helvetica,sans-Serif" font-size="10.00">#</text>
<text text-anchor="start" x="64.38" y="-627.5" font-family="Helvetica,sans-Serif" font-size="10.00">int CountSp</text>
<text text-anchor="start" x="54.75" y="-611.5" font-family="Helvetica,sans-Serif" font-size="10.00">#</text>
<text text-anchor="start" x="64.38" y="-611.5" font-family="Helvetica,sans-Serif" font-size="10.00">int CountSp1</text>
<text text-anchor="start" x="54.75" y="-595.5" font-family="Helvetica,sans-Serif" font-size="10.00">#</text>
<text text-anchor="start" x="64.38" y="-595.5" font-family="Helvetica,sans-Serif" font-size="10.00">double AccumCoeff</text>
<text text-anchor="start" x="54.75" y="-579.5" font-family="Helvetica,sans-Serif" font-size="10.00">#</text>
<text text-anchor="start" x="64.38" y="-579.5" font-family="Helvetica,sans-Serif" font-size="10.00">double SlotAccums</text>
<text text-anchor="start" x="54.75" y="-563.5" font-family="Helvetica,sans-Serif" font-size="10.00">#</text>
<text text-anchor="start" x="64.38" y="-563.5" font-family="Helvetica,sans-Serif" font-size="10.00">int * Sels</text>
<text text-anchor="start" x="54.75" y="-547.5" font-family="Helvetica,sans-Serif" font-size="10.00">#</text>
<text text-anchor="start" x="64.38" y="-547.5" font-family="Helvetica,sans-Serif" font-size="10.00">int * SelBuf</text>
<text text-anchor="start" x="54.75" y="-531.5" font-family="Helvetica,sans-Serif" font-size="10.00">#</text>
<text text-anchor="start" x="64.38" y="-531.5" font-family="Helvetica,sans-Serif" font-size="10.00">int SelBufCapacity</text>
<text text-anchor="start" x="54.75" y="-515.5" font-family="Helvetica,sans-Serif" font-size="10.00">#</text>
<text text-anchor="start" x="64.38" y="-515.5" font-family="Helvetica,sans-Serif" font-size="10.00">int Sel</text>
<text text-anchor="start" x="54.75" y="-499.5" font-family="Helvetica,sans-Serif" font-size="10.00">#</text>
<text text-anchor="start" x="64.38" y="-499.5" font-family="Helvetica,sans-Serif" font-size="10.00">int Selp</text>
<text text-anchor="start" x="54.75" y="-483.5" font-family="Helvetica,sans-Serif" font-size="10.00">#</text>
<text text-anchor="start" x="64.38" y="-483.5" font-family="Helvetica,sans-Serif" font-size="10.00">int Slot</text>
<text text-anchor="start" x="54.75" y="-467.5" font-family="Helvetica,sans-Serif" font-size="10.00">#</text>
<text text-anchor="start" x="64.38" y="-467.5" font-family="Helvetica,sans-Serif" font-size="10.00">bool IsSelected</text>
<text text-anchor="start" x="54.75" y="-451.5" font-family="Helvetica,sans-Serif" font-size="10.00">#</text>
<text text-anchor="start" x="64.38" y="-451.5" font-family="Helvetica,sans-Serif" font-size="10.00">static const int SlotCount</text>
<text text-anchor="start" x="54.38" y="-435.5" font-family="Helvetica,sans-Serif" font-size="10.00">+</text>
<text text-anchor="start" x="64.38" y="-435.5" font-family="Helvetica,sans-Serif" font-size="10.00">CBiteSelBase(const</text>
<text text-anchor="start" x="64.38" y="-423.5" font-family="Helvetica,sans-Serif" font-size="10.00"> int aCount)</text>
<text text-anchor="start" x="54.38" y="-407.5" font-family="Helvetica,sans-Serif" font-size="10.00">+</text>
<text text-anchor="start" x="64.38" y="-407.5" font-family="Helvetica,sans-Serif" font-size="10.00">~CBiteSelBase()</text>
<text text-anchor="start" x="54.38" y="-391.5" font-family="Helvetica,sans-Serif" font-size="10.00">+</text>
<text text-anchor="start" x="64.38" y="-391.5" font-family="Helvetica,sans-Serif" font-size="10.00">void reset(CBiteRnd</text>
<text text-anchor="start" x="64.38" y="-379.5" font-family="Helvetica,sans-Serif" font-size="10.00"> &amp;rnd, const int ParamCount)</text>
<text text-anchor="start" x="54.38" y="-363.5" font-family="Helvetica,sans-Serif" font-size="10.00">+</text>
<text text-anchor="start" x="64.38" y="-363.5" font-family="Helvetica,sans-Serif" font-size="10.00">int getChoiceCount</text>
<text text-anchor="start" x="64.38" y="-351.5" font-family="Helvetica,sans-Serif" font-size="10.00">() const</text>
<text text-anchor="start" x="54.38" y="-335.5" font-family="Helvetica,sans-Serif" font-size="10.00">+</text>
<text text-anchor="start" x="64.38" y="-335.5" font-family="Helvetica,sans-Serif" font-size="10.00">void incr(CBiteRnd</text>
<text text-anchor="start" x="64.38" y="-323.5" font-family="Helvetica,sans-Serif" font-size="10.00"> &amp;rnd, const double</text>
<text text-anchor="start" x="64.38" y="-311.5" font-family="Helvetica,sans-Serif" font-size="10.00"> v=1.0)</text>
<text text-anchor="start" x="54.38" y="-295.5" font-family="Helvetica,sans-Serif" font-size="10.00">+</text>
<text text-anchor="start" x="64.38" y="-295.5" font-family="Helvetica,sans-Serif" font-size="10.00">void decr(CBiteRnd</text>
<text text-anchor="start" x="64.38" y="-283.5" font-family="Helvetica,sans-Serif" font-size="10.00"> &amp;rnd)</text>
<text text-anchor="start" x="54.38" y="-267.5" font-family="Helvetica,sans-Serif" font-size="10.00">+</text>
<text text-anchor="start" x="64.38" y="-267.5" font-family="Helvetica,sans-Serif" font-size="10.00">int select(CBiteRnd</text>
<text text-anchor="start" x="64.38" y="-255.5" font-family="Helvetica,sans-Serif" font-size="10.00"> &amp;rnd)</text>
<text text-anchor="start" x="54.38" y="-239.5" font-family="Helvetica,sans-Serif" font-size="10.00">+</text>
<text text-anchor="start" x="64.38" y="-239.5" font-family="Helvetica,sans-Serif" font-size="10.00">int getSel() const</text>
<text text-anchor="start" x="54.38" y="-223.5" font-family="Helvetica,sans-Serif" font-size="10.00">+</text>
<text text-anchor="start" x="64.38" y="-223.5" font-family="Helvetica,sans-Serif" font-size="10.00">void unsetIsSelected()</text>
<text text-anchor="start" x="54.38" y="-207.5" font-family="Helvetica,sans-Serif" font-size="10.00">+</text>
<text text-anchor="start" x="64.38" y="-207.5" font-family="Helvetica,sans-Serif" font-size="10.00">bool getIsSelected</text>
<text text-anchor="start" x="64.38" y="-195.5" font-family="Helvetica,sans-Serif" font-size="10.00">() const</text>
<polygon fill="#666666" stroke="#666666" points="50.38,-671 50.38,-671 195.88,-671 195.88,-671 50.38,-671"/>
<polygon fill="#666666" stroke="#666666" points="50.38,-447 50.38,-447 62.38,-447 62.38,-447 50.38,-447"/>
<polygon fill="#666666" stroke="#666666" points="62.38,-447 62.38,-447 195.88,-447 195.88,-447 62.38,-447"/>
<polygon fill="none" stroke="#666666" points="50.38,-189 50.38,-689 195.88,-689 195.88,-189 50.38,-189"/>
</a>
</g>
</g>
<!-- Node2&#45;&gt;Node1 -->
<g id="edge5_Node000001_Node000002" class="edge">
<title>Node2&#45;&gt;Node1</title>
<g id="a_edge5_Node000001_Node000002"><a xlink:title=" ">
<path fill="none" stroke="#63b8ff" d="M123.12,-177.76C123.12,-168 123.12,-159.28 123.12,-151.93"/>
<polygon fill="none" stroke="#63b8ff" points="119.63,-177.67 123.13,-187.67 126.63,-177.67 119.63,-177.67"/>
</a>
</g>
</g>
</g>
</svg>
