<?xml version="1.0" encoding="UTF-8" standalone="no"?>
<!DOCTYPE svg PUBLIC "-//W3C//DTD SVG 1.1//EN"
 "http://www.w3.org/Graphics/SVG/1.1/DTD/svg11.dtd">
<!-- Generated by graphviz version 12.2.1 (20241206.2353)
 -->
<!-- Title: examples.solo_mgar_udp.solo_mgar_udp.eph Pages: 1 -->
<svg width="303pt" height="102pt"
 viewBox="0.00 0.00 302.50 102.00" xmlns="http://www.w3.org/2000/svg" xmlns:xlink="http://www.w3.org/1999/xlink">
<g id="graph0" class="graph" transform="scale(1 1) rotate(0) translate(4 98)">
<title>examples.solo_mgar_udp.solo_mgar_udp.eph</title>
<!-- Node1 -->
<g id="Node000001" class="node">
<title>Node1</title>
<g id="a_Node000001"><a xlink:title=" ">
<polygon fill="#999999" stroke="#666666" points="294.5,-60 169.75,-60 169.75,-28 294.5,-28 294.5,-60"/>
<text text-anchor="start" x="177.75" y="-46.5" font-family="Helvetica,sans-Serif" font-size="10.00">examples.solo_mgar</text>
<text text-anchor="middle" x="232.12" y="-34.5" font-family="Helvetica,sans-Serif" font-size="10.00">_udp.solo_mgar_udp.eph</text>
</a>
</g>
</g>
<!-- Node2 -->
<g id="Node000002" class="node">
<title>Node2</title>
<g id="a_Node000002"><a xlink:href="$classexamples_1_1solo__mgar__udp_1_1solo__mgar__udp.html#aba1e8ae9f93e4d570147f475185e809a" xlink:title=" ">
<polygon fill="white" stroke="#666666" points="129.25,-94 4.5,-94 4.5,-50 129.25,-50 129.25,-94"/>
<text text-anchor="start" x="12.5" y="-80.5" font-family="Helvetica,sans-Serif" font-size="10.00">examples.solo_mgar</text>
<text text-anchor="start" x="12.5" y="-68.5" font-family="Helvetica,sans-Serif" font-size="10.00">_udp.solo_mgar_udp.plot</text>
<text text-anchor="middle" x="66.88" y="-56.5" font-family="Helvetica,sans-Serif" font-size="10.00">_distance_and_flybys</text>
</a>
</g>
</g>
<!-- Node1&#45;&gt;Node2 -->
<g id="edge3_Node000001_Node000002" class="edge">
<title>Node1&#45;&gt;Node2</title>
<g id="a_edge3_Node000001_Node000002"><a xlink:title=" ">
<path fill="none" stroke="#63b8ff" d="M158.3,-56.49C148.74,-58.13 139.03,-59.8 129.68,-61.4"/>
<polygon fill="#63b8ff" stroke="#63b8ff" points="158.65,-59.98 167.92,-54.84 157.47,-53.08 158.65,-59.98"/>
</a>
</g>
</g>
<!-- Node3 -->
<g id="Node000003" class="node">
<title>Node3</title>
<g id="a_Node000003"><a xlink:href="$classexamples_1_1solo__mgar__udp_1_1solo__mgar__udp.html#a5e609bd39357f14e70695debc374e38f" xlink:title=" ">
<polygon fill="white" stroke="#666666" points="133.75,-32 0,-32 0,0 133.75,0 133.75,-32"/>
<text text-anchor="start" x="8" y="-18.5" font-family="Helvetica,sans-Serif" font-size="10.00">examples.solo_mgar</text>
<text text-anchor="middle" x="66.88" y="-6.5" font-family="Helvetica,sans-Serif" font-size="10.00">_udp.solo_mgar_udp.pretty</text>
</a>
</g>
</g>
<!-- Node1&#45;&gt;Node3 -->
<g id="edge4_Node000001_Node000003" class="edge">
<title>Node1&#45;&gt;Node3</title>
<g id="a_edge4_Node000001_Node000003"><a xlink:title=" ">
<path fill="none" stroke="#63b8ff" d="M158.16,-31.49C150.13,-30.11 141.98,-28.71 134.04,-27.35"/>
<polygon fill="#63b8ff" stroke="#63b8ff" points="157.47,-34.92 167.92,-33.16 158.65,-28.02 157.47,-34.92"/>
</a>
</g>
</g>
</g>
</svg>
