<?xml version="1.0" encoding="UTF-8" standalone="no"?>
<!DOCTYPE svg PUBLIC "-//W3C//DTD SVG 1.1//EN"
 "http://www.w3.org/Graphics/SVG/1.1/DTD/svg11.dtd">
<!-- Generated by graphviz version 12.2.1 (20241206.2353)
 -->
<!-- Title: acmaes::AcmaesOptimizer::updateCMA Pages: 1 -->
<svg width="564pt" height="159pt"
 viewBox="0.00 0.00 564.00 159.00" xmlns="http://www.w3.org/2000/svg" xmlns:xlink="http://www.w3.org/1999/xlink">
<g id="graph0" class="graph" transform="scale(1 1) rotate(0) translate(4 155)">
<title>acmaes::AcmaesOptimizer::updateCMA</title>
<!-- Node1 -->
<g id="Node000001" class="node">
<title>Node1</title>
<g id="a_Node000001"><a xlink:title=" ">
<polygon fill="#999999" stroke="#666666" points="134.5,-107 0,-107 0,-75 134.5,-75 134.5,-107"/>
<text text-anchor="start" x="8" y="-93.5" font-family="Helvetica,sans-Serif" font-size="10.00">acmaes::AcmaesOptimizer</text>
<text text-anchor="middle" x="67.25" y="-81.5" font-family="Helvetica,sans-Serif" font-size="10.00">::updateCMA</text>
</a>
</g>
</g>
<!-- Node2 -->
<g id="Node000002" class="node">
<title>Node2</title>
<g id="a_Node000002"><a xlink:href="$evaluator_8h.html#a7689f88ea48c85c22d9b34208decd67c" xlink:title=" ">
<polygon fill="white" stroke="#666666" points="415.5,-151 354.5,-151 354.5,-131 415.5,-131 415.5,-151"/>
<text text-anchor="middle" x="385" y="-137.5" font-family="Helvetica,sans-Serif" font-size="10.00">sort_index</text>
</a>
</g>
</g>
<!-- Node1&#45;&gt;Node2 -->
<g id="edge9_Node000001_Node000002" class="edge">
<title>Node1&#45;&gt;Node2</title>
<g id="a_edge9_Node000001_Node000002"><a xlink:title=" ">
<path fill="none" stroke="#63b8ff" d="M93.51,-107.41C113.49,-119.36 142.58,-134.54 170.5,-141 229.22,-154.59 299.47,-150.92 342.92,-146.43"/>
<polygon fill="#63b8ff" stroke="#63b8ff" points="343.11,-149.93 352.66,-145.35 342.34,-142.97 343.11,-149.93"/>
</a>
</g>
</g>
<!-- Node4 -->
<g id="Node000004" class="node">
<title>Node4</title>
<g id="a_Node000004"><a xlink:href="$classacmaes_1_1_acmaes_optimizer.html#a6e1292651cf19abf87f9ece1aa9c92d7" xlink:title=" ">
<polygon fill="white" stroke="#666666" points="305,-132 170.5,-132 170.5,-100 305,-100 305,-132"/>
<text text-anchor="start" x="178.5" y="-118.5" font-family="Helvetica,sans-Serif" font-size="10.00">acmaes::AcmaesOptimizer</text>
<text text-anchor="middle" x="237.75" y="-106.5" font-family="Helvetica,sans-Serif" font-size="10.00">::updateBD</text>
</a>
</g>
</g>
<!-- Node1&#45;&gt;Node4 -->
<g id="edge11_Node000001_Node000004" class="edge">
<title>Node1&#45;&gt;Node4</title>
<g id="a_edge11_Node000001_Node000004"><a xlink:title=" ">
<path fill="none" stroke="#63b8ff" d="M134.85,-100.88C142.72,-102.05 150.82,-103.25 158.83,-104.44"/>
<polygon fill="#63b8ff" stroke="#63b8ff" points="158.18,-107.88 168.59,-105.89 159.21,-100.96 158.18,-107.88"/>
</a>
</g>
</g>
<!-- Node5 -->
<g id="Node000005" class="node">
<title>Node5</title>
<g id="a_Node000005"><a xlink:href="$classacmaes_1_1_acmaes_optimizer.html#a911e67d9e8445b3a8be575f184341b8e" xlink:title=" ">
<polygon fill="white" stroke="#666666" points="305,-82 170.5,-82 170.5,-50 305,-50 305,-82"/>
<text text-anchor="start" x="178.5" y="-68.5" font-family="Helvetica,sans-Serif" font-size="10.00">acmaes::AcmaesOptimizer</text>
<text text-anchor="middle" x="237.75" y="-56.5" font-family="Helvetica,sans-Serif" font-size="10.00">::updateCovariance</text>
</a>
</g>
</g>
<!-- Node1&#45;&gt;Node5 -->
<g id="edge12_Node000001_Node000005" class="edge">
<title>Node1&#45;&gt;Node5</title>
<g id="a_edge12_Node000001_Node000005"><a xlink:title=" ">
<path fill="none" stroke="#63b8ff" d="M134.85,-81.12C142.72,-79.95 150.82,-78.75 158.83,-77.56"/>
<polygon fill="#63b8ff" stroke="#63b8ff" points="159.21,-81.04 168.59,-76.11 158.18,-74.12 159.21,-81.04"/>
</a>
</g>
</g>
<!-- Node7 -->
<g id="Node000007" class="node">
<title>Node7</title>
<g id="a_Node000007"><a xlink:href="$classacmaes_1_1_acmaes_optimizer.html#ae9f3415b9bcc43366193e7d4b0beda87" xlink:title=" ">
<polygon fill="white" stroke="#666666" points="305,-32 170.5,-32 170.5,0 305,0 305,-32"/>
<text text-anchor="start" x="178.5" y="-18.5" font-family="Helvetica,sans-Serif" font-size="10.00">acmaes::AcmaesOptimizer</text>
<text text-anchor="middle" x="237.75" y="-6.5" font-family="Helvetica,sans-Serif" font-size="10.00">::updateEvolutionPaths</text>
</a>
</g>
</g>
<!-- Node1&#45;&gt;Node7 -->
<g id="edge16_Node000001_Node000007" class="edge">
<title>Node1&#45;&gt;Node7</title>
<g id="a_edge16_Node000001_Node000007"><a xlink:title=" ">
<path fill="none" stroke="#63b8ff" d="M99.67,-74.68C119.72,-64.51 146.37,-51.42 170.5,-41 173.89,-39.54 177.39,-38.07 180.93,-36.63"/>
<polygon fill="#63b8ff" stroke="#63b8ff" points="182.21,-39.89 190.21,-32.94 179.63,-33.38 182.21,-39.89"/>
</a>
</g>
</g>
<!-- Node3 -->
<g id="Node000003" class="node">
<title>Node3</title>
<g id="a_Node000003"><a xlink:href="$evaluator_8h.html#a85426eb5cecc23caa06090d795034e5c" xlink:title=" ">
<polygon fill="white" stroke="#666666" points="556,-151 465,-151 465,-131 556,-131 556,-151"/>
<text text-anchor="middle" x="510.5" y="-137.5" font-family="Helvetica,sans-Serif" font-size="10.00">compareIndexVal</text>
</a>
</g>
</g>
<!-- Node2&#45;&gt;Node3 -->
<g id="edge10_Node000002_Node000003" class="edge">
<title>Node2&#45;&gt;Node3</title>
<g id="a_edge10_Node000002_Node000003"><a xlink:title=" ">
<path fill="none" stroke="#63b8ff" d="M415.9,-141C427.27,-141 440.63,-141 453.64,-141"/>
<polygon fill="#63b8ff" stroke="#63b8ff" points="453.41,-144.5 463.41,-141 453.41,-137.5 453.41,-144.5"/>
</a>
</g>
</g>
<!-- Node5&#45;&gt;Node2 -->
<g id="edge15_Node000005_Node000002" class="edge">
<title>Node5&#45;&gt;Node2</title>
<g id="a_edge15_Node000005_Node000002"><a xlink:title=" ">
<path fill="none" stroke="#63b8ff" d="M285.95,-82.45C292.44,-85.11 298.95,-87.98 305,-91 324.42,-100.68 345.11,-113.89 360.44,-124.3"/>
<polygon fill="#63b8ff" stroke="#63b8ff" points="358.21,-127.01 368.43,-129.81 362.18,-121.25 358.21,-127.01"/>
</a>
</g>
</g>
<!-- Node6 -->
<g id="Node000006" class="node">
<title>Node6</title>
<g id="a_Node000006"><a xlink:href="$namespaceacmaes.html#a8f3b844e07e4684f10852956288758de" xlink:title=" ">
<polygon fill="white" stroke="#666666" points="429,-76 341,-76 341,-56 429,-56 429,-76"/>
<text text-anchor="middle" x="385" y="-62.5" font-family="Helvetica,sans-Serif" font-size="10.00">acmaes::inverse</text>
</a>
</g>
</g>
<!-- Node5&#45;&gt;Node6 -->
<g id="edge13_Node000005_Node000006" class="edge">
<title>Node5&#45;&gt;Node6</title>
<g id="a_edge13_Node000005_Node000006"><a xlink:title=" ">
<path fill="none" stroke="#63b8ff" d="M305.42,-66C313.35,-66 321.37,-66 329.1,-66"/>
<polygon fill="#63b8ff" stroke="#63b8ff" points="329.05,-69.5 339.05,-66 329.05,-62.5 329.05,-69.5"/>
</a>
</g>
</g>
<!-- Node6&#45;&gt;Node6 -->
<g id="edge14_Node000006_Node000006" class="edge">
<title>Node6&#45;&gt;Node6</title>
<g id="a_edge14_Node000006_Node000006"><a xlink:title=" ">
<path fill="none" stroke="#63b8ff" d="M365.06,-76.34C356.54,-84.98 363.18,-94 385,-94 396.93,-94 404.32,-91.3 407.18,-87.44"/>
<polygon fill="#63b8ff" stroke="#63b8ff" points="410.65,-86.93 405.24,-77.82 403.79,-88.32 410.65,-86.93"/>
</a>
</g>
</g>
</g>
</svg>
