<?xml version="1.0" encoding="UTF-8" standalone="no"?>
<!DOCTYPE svg PUBLIC "-//W3C//DTD SVG 1.1//EN"
 "http://www.w3.org/Graphics/SVG/1.1/DTD/svg11.dtd">
<!-- Generated by graphviz version 12.2.1 (20241206.2353)
 -->
<!-- Title: fcmaes.journal.journal_wrapper.store_x Pages: 1 -->
<svg width="420pt" height="78pt"
 viewBox="0.00 0.00 419.75 78.00" xmlns="http://www.w3.org/2000/svg" xmlns:xlink="http://www.w3.org/1999/xlink">
<g id="graph0" class="graph" transform="scale(1 1) rotate(0) translate(4 74)">
<title>fcmaes.journal.journal_wrapper.store_x</title>
<!-- Node1 -->
<g id="Node000001" class="node">
<title>Node1</title>
<g id="a_Node000001"><a xlink:title="Stores the parameters of a specific trial for a worker.">
<polygon fill="#999999" stroke="#666666" points="111.25,-54 0,-54 0,-22 111.25,-22 111.25,-54"/>
<text text-anchor="start" x="8" y="-40.5" font-family="Helvetica,sans-Serif" font-size="10.00">fcmaes.journal.journal</text>
<text text-anchor="middle" x="55.62" y="-28.5" font-family="Helvetica,sans-Serif" font-size="10.00">_wrapper.store_x</text>
</a>
</g>
</g>
<!-- Node2 -->
<g id="Node000002" class="node">
<title>Node2</title>
<g id="a_Node000002"><a xlink:href="$namespacefcmaes_1_1journal.html#ab08848e83cf71c33842407ee31354411" xlink:title="Generates a JSON message containing trial parameter details.">
<polygon fill="white" stroke="#666666" points="245.75,-54 147.25,-54 147.25,-22 245.75,-22 245.75,-54"/>
<text text-anchor="start" x="155.25" y="-40.5" font-family="Helvetica,sans-Serif" font-size="10.00">fcmaes.journal.trial</text>
<text text-anchor="middle" x="196.5" y="-28.5" font-family="Helvetica,sans-Serif" font-size="10.00">_param</text>
</a>
</g>
</g>
<!-- Node1&#45;&gt;Node2 -->
<g id="edge4_Node000001_Node000002" class="edge">
<title>Node1&#45;&gt;Node2</title>
<g id="a_edge4_Node000001_Node000002"><a xlink:title=" ">
<path fill="none" stroke="#63b8ff" d="M111.51,-38C119.36,-38 127.46,-38 135.4,-38"/>
<polygon fill="#63b8ff" stroke="#63b8ff" points="135.35,-41.5 145.35,-38 135.35,-34.5 135.35,-41.5"/>
</a>
</g>
</g>
<!-- Node3 -->
<g id="Node000003" class="node">
<title>Node3</title>
<g id="a_Node000003"><a xlink:href="$namespacefcmaes_1_1journal.html#a3d2994fbc61c2eb4fa0bf4b6018b055e" xlink:title="Generates a JSON representation of a float distribution within a specified range.">
<polygon fill="white" stroke="#666666" points="411.75,-70 281.75,-70 281.75,-50 411.75,-50 411.75,-70"/>
<text text-anchor="middle" x="346.75" y="-56.5" font-family="Helvetica,sans-Serif" font-size="10.00">fcmaes.journal.distribution</text>
</a>
</g>
</g>
<!-- Node2&#45;&gt;Node3 -->
<g id="edge5_Node000002_Node000003" class="edge">
<title>Node2&#45;&gt;Node3</title>
<g id="a_edge5_Node000002_Node000003"><a xlink:title=" ">
<path fill="none" stroke="#63b8ff" d="M246.04,-45.2C253.82,-46.36 262.03,-47.58 270.26,-48.8"/>
<polygon fill="#63b8ff" stroke="#63b8ff" points="269.56,-52.23 279.96,-50.24 270.58,-45.31 269.56,-52.23"/>
</a>
</g>
</g>
<!-- Node4 -->
<g id="Node000004" class="node">
<title>Node4</title>
<g id="a_Node000004"><a xlink:href="$namespacefcmaes_1_1journal.html#ab2d4646b056641882ced63f7d0299978" xlink:title="Converts a given message object to its JSON representation.">
<polygon fill="white" stroke="#666666" points="408,-32 285.5,-32 285.5,0 408,0 408,-32"/>
<text text-anchor="start" x="293.5" y="-18.5" font-family="Helvetica,sans-Serif" font-size="10.00">fcmaes.journal.message</text>
<text text-anchor="middle" x="346.75" y="-6.5" font-family="Helvetica,sans-Serif" font-size="10.00">_to_json</text>
</a>
</g>
</g>
<!-- Node2&#45;&gt;Node4 -->
<g id="edge6_Node000002_Node000004" class="edge">
<title>Node2&#45;&gt;Node4</title>
<g id="a_edge6_Node000002_Node000004"><a xlink:title=" ">
<path fill="none" stroke="#63b8ff" d="M246.04,-30.8C255.03,-29.46 264.58,-28.05 274.08,-26.64"/>
<polygon fill="#63b8ff" stroke="#63b8ff" points="274.3,-30.14 283.67,-25.21 273.27,-23.22 274.3,-30.14"/>
</a>
</g>
</g>
</g>
</svg>
