<?xml version="1.0" encoding="UTF-8" standalone="no"?>
<!DOCTYPE svg PUBLIC "-//W3C//DTD SVG 1.1//EN"
 "http://www.w3.org/Graphics/SVG/1.1/DTD/svg11.dtd">
<!-- Generated by graphviz version 12.2.1 (20241206.2353)
 -->
<!-- Title: examples.f8.f8_problem.fun Pages: 1 -->
<svg width="455pt" height="90pt"
 viewBox="0.00 0.00 455.00 90.00" xmlns="http://www.w3.org/2000/svg" xmlns:xlink="http://www.w3.org/1999/xlink">
<g id="graph0" class="graph" transform="scale(1 1) rotate(0) translate(4 86)">
<title>examples.f8.f8_problem.fun</title>
<!-- Node1 -->
<g id="Node000001" class="node">
<title>Node1</title>
<g id="a_Node000001"><a xlink:title=" ">
<polygon fill="#999999" stroke="#666666" points="447,-51 310.25,-51 310.25,-31 447,-31 447,-51"/>
<text text-anchor="middle" x="378.62" y="-37.5" font-family="Helvetica,sans-Serif" font-size="10.00">examples.f8.f8_problem.fun</text>
</a>
</g>
</g>
<!-- Node2 -->
<g id="Node000002" class="node">
<title>Node2</title>
<g id="a_Node000002"><a xlink:href="$classexamples_1_1harvesting_1_1fitness.html#add29e0fd221efd5ffa3ce2f0933b633f" xlink:title=" ">
<polygon fill="white" stroke="#666666" points="274.25,-82 133,-82 133,-50 274.25,-50 274.25,-82"/>
<text text-anchor="start" x="141" y="-68.5" font-family="Helvetica,sans-Serif" font-size="10.00">examples.harvesting.fitness.</text>
<text text-anchor="middle" x="203.62" y="-56.5" font-family="Helvetica,sans-Serif" font-size="10.00">__call__</text>
</a>
</g>
</g>
<!-- Node1&#45;&gt;Node2 -->
<g id="edge6_Node000001_Node000002" class="edge">
<title>Node1&#45;&gt;Node2</title>
<g id="a_edge6_Node000001_Node000002"><a xlink:title=" ">
<path fill="none" stroke="#63b8ff" d="M298.91,-52.38C290.83,-53.54 282.66,-54.72 274.68,-55.88"/>
<polygon fill="#63b8ff" stroke="#63b8ff" points="299.35,-55.85 308.75,-50.95 298.35,-48.92 299.35,-55.85"/>
</a>
</g>
</g>
<!-- Node5 -->
<g id="Node000005" class="node">
<title>Node5</title>
<g id="a_Node000005"><a xlink:href="$classexamples_1_1jobshop_1_1fitness.html#a65088d25d52805209f6dfec80ed1aa9f" xlink:title=" ">
<polygon fill="white" stroke="#666666" points="268.62,-32 138.62,-32 138.62,0 268.62,0 268.62,-32"/>
<text text-anchor="start" x="146.62" y="-18.5" font-family="Helvetica,sans-Serif" font-size="10.00">examples.jobshop.fitness.</text>
<text text-anchor="middle" x="203.62" y="-6.5" font-family="Helvetica,sans-Serif" font-size="10.00">__call__</text>
</a>
</g>
</g>
<!-- Node1&#45;&gt;Node5 -->
<g id="edge9_Node000001_Node000005" class="edge">
<title>Node1&#45;&gt;Node5</title>
<g id="a_edge9_Node000001_Node000005"><a xlink:title=" ">
<path fill="none" stroke="#63b8ff" d="M299,-29.64C288.95,-28.19 278.77,-26.71 268.99,-25.3"/>
<polygon fill="#63b8ff" stroke="#63b8ff" points="298.35,-33.08 308.75,-31.05 299.35,-26.15 298.35,-33.08"/>
</a>
</g>
</g>
<!-- Node3 -->
<g id="Node000003" class="node">
<title>Node3</title>
<g id="a_Node000003"><a xlink:href="$classhbv_1_1hbv.html#a89aea998d9546dc3465bf46fbee95689" xlink:title=" ">
<polygon fill="white" stroke="#666666" points="97,-76 0,-76 0,-56 97,-56 97,-76"/>
<text text-anchor="middle" x="48.5" y="-62.5" font-family="Helvetica,sans-Serif" font-size="10.00">hbv.hbv.qd_fitness</text>
</a>
</g>
</g>
<!-- Node2&#45;&gt;Node3 -->
<g id="edge7_Node000002_Node000003" class="edge">
<title>Node2&#45;&gt;Node3</title>
<g id="a_edge7_Node000002_Node000003"><a xlink:title=" ">
<path fill="none" stroke="#63b8ff" d="M121.52,-66C113.26,-66 105.07,-66 97.34,-66"/>
<polygon fill="#63b8ff" stroke="#63b8ff" points="121.27,-69.5 131.27,-66 121.27,-62.5 121.27,-69.5"/>
</a>
</g>
</g>
<!-- Node4 -->
<g id="Node000004" class="node">
<title>Node4</title>
<g id="a_Node000004"><a xlink:href="$classlrgv_1_1lrgv.html#a527b9b7a7927721b5320ab433bf75aea" xlink:title=" ">
<polygon fill="white" stroke="#666666" points="97,-32 0,-32 0,-12 97,-12 97,-32"/>
<text text-anchor="middle" x="48.5" y="-18.5" font-family="Helvetica,sans-Serif" font-size="10.00">lrgv.lrgv.qd_fitness</text>
</a>
</g>
</g>
<!-- Node2&#45;&gt;Node4 -->
<g id="edge8_Node000002_Node000004" class="edge">
<title>Node2&#45;&gt;Node4</title>
<g id="a_edge8_Node000002_Node000004"><a xlink:title=" ">
<path fill="none" stroke="#63b8ff" d="M134.64,-46.46C117.77,-41.62 100.34,-36.61 85.68,-32.4"/>
<polygon fill="#63b8ff" stroke="#63b8ff" points="133.57,-49.8 144.15,-49.2 135.51,-43.07 133.57,-49.8"/>
</a>
</g>
</g>
<!-- Node5&#45;&gt;Node4 -->
<g id="edge10_Node000005_Node000004" class="edge">
<title>Node5&#45;&gt;Node4</title>
<g id="a_edge10_Node000005_Node000004"><a xlink:title=" ">
<path fill="none" stroke="#63b8ff" d="M126.78,-18.97C116.7,-19.37 106.59,-19.76 97.17,-20.13"/>
<polygon fill="#63b8ff" stroke="#63b8ff" points="126.76,-22.48 136.62,-18.59 126.49,-15.48 126.76,-22.48"/>
</a>
</g>
</g>
</g>
</svg>
