<?xml version="1.0" encoding="UTF-8" standalone="no"?>
<!DOCTYPE svg PUBLIC "-//W3C//DTD SVG 1.1//EN"
 "http://www.w3.org/Graphics/SVG/1.1/DTD/svg11.dtd">
<!-- Generated by graphviz version 12.2.1 (20241206.2353)
 -->
<!-- Title: fcmaes.mapelites.Archive.info Pages: 1 -->
<svg width="535pt" height="201pt"
 viewBox="0.00 0.00 535.25 200.61" xmlns="http://www.w3.org/2000/svg" xmlns:xlink="http://www.w3.org/1999/xlink">
<g id="graph0" class="graph" transform="scale(1 1) rotate(0) translate(4 196.61)">
<title>fcmaes.mapelites.Archive.info</title>
<!-- Node1 -->
<g id="Node000001" class="node">
<title>Node1</title>
<g id="a_Node000001"><a xlink:title="Generates a formatted string containing key metrics.">
<polygon fill="#999999" stroke="#666666" points="148,-92.61 0,-92.61 0,-72.61 148,-72.61 148,-92.61"/>
<text text-anchor="middle" x="74" y="-79.11" font-family="Helvetica,sans-Serif" font-size="10.00">fcmaes.mapelites.Archive.info</text>
</a>
</g>
</g>
<!-- Node2 -->
<g id="Node000002" class="node">
<title>Node2</title>
<g id="a_Node000002"><a xlink:href="$classfcmaes_1_1mapelites_1_1_archive.html#abfbc79753a308a9880da632d96b37d5c" xlink:title="Retrieves a copy of the counts as a NumPy array.">
<polygon fill="white" stroke="#666666" points="329.75,-192.61 184,-192.61 184,-160.61 329.75,-160.61 329.75,-192.61"/>
<text text-anchor="start" x="192" y="-179.11" font-family="Helvetica,sans-Serif" font-size="10.00">fcmaes.mapelites.Archive.get</text>
<text text-anchor="middle" x="256.88" y="-167.11" font-family="Helvetica,sans-Serif" font-size="10.00">_counts</text>
</a>
</g>
</g>
<!-- Node1&#45;&gt;Node2 -->
<g id="edge8_Node000001_Node000002" class="edge">
<title>Node1&#45;&gt;Node2</title>
<g id="a_edge8_Node000001_Node000002"><a xlink:title=" ">
<path fill="none" stroke="#63b8ff" d="M89.19,-93.1C109.42,-107.7 148.1,-134.29 184,-151.61 187.05,-153.09 190.22,-154.52 193.44,-155.9"/>
<polygon fill="#63b8ff" stroke="#63b8ff" points="191.88,-159.04 202.46,-159.55 194.51,-152.55 191.88,-159.04"/>
</a>
</g>
</g>
<!-- Node3 -->
<g id="Node000003" class="node">
<title>Node3</title>
<g id="a_Node000003"><a xlink:href="$classfcmaes_1_1mapelites_1_1_archive.html#a7d6497547e738f46792eed929c0eb09c" xlink:title="Retrieves the current number of occupied spaces from the associated value.">
<polygon fill="white" stroke="#666666" points="329.75,-142.61 184,-142.61 184,-110.61 329.75,-110.61 329.75,-142.61"/>
<text text-anchor="start" x="192" y="-129.11" font-family="Helvetica,sans-Serif" font-size="10.00">fcmaes.mapelites.Archive.get</text>
<text text-anchor="middle" x="256.88" y="-117.11" font-family="Helvetica,sans-Serif" font-size="10.00">_occupied</text>
</a>
</g>
</g>
<!-- Node1&#45;&gt;Node3 -->
<g id="edge9_Node000001_Node000003" class="edge">
<title>Node1&#45;&gt;Node3</title>
<g id="a_edge9_Node000001_Node000003"><a xlink:title=" ">
<path fill="none" stroke="#63b8ff" d="M117.86,-93.04C135.58,-97.35 156.7,-102.49 177.03,-107.43"/>
<polygon fill="#63b8ff" stroke="#63b8ff" points="176.2,-110.83 186.75,-109.8 177.86,-104.03 176.2,-110.83"/>
</a>
</g>
</g>
<!-- Node4 -->
<g id="Node000004" class="node">
<title>Node4</title>
<g id="a_Node000004"><a xlink:href="$classfcmaes_1_1mapelites_1_1_archive.html#a50c9e9bac3b339e4158614dad396bb18" xlink:title="Calculates the QD (Quality&#45;Diversity) score based on the provided array of values.">
<polygon fill="white" stroke="#666666" points="329.75,-54.61 184,-54.61 184,-22.61 329.75,-22.61 329.75,-54.61"/>
<text text-anchor="start" x="192" y="-41.11" font-family="Helvetica,sans-Serif" font-size="10.00">fcmaes.mapelites.Archive.get</text>
<text text-anchor="middle" x="256.88" y="-29.11" font-family="Helvetica,sans-Serif" font-size="10.00">_qd_score</text>
</a>
</g>
</g>
<!-- Node1&#45;&gt;Node4 -->
<g id="edge10_Node000001_Node000004" class="edge">
<title>Node1&#45;&gt;Node4</title>
<g id="a_edge10_Node000001_Node000004"><a xlink:title=" ">
<path fill="none" stroke="#63b8ff" d="M117.86,-72.18C135.58,-67.87 156.7,-62.74 177.03,-57.79"/>
<polygon fill="#63b8ff" stroke="#63b8ff" points="177.86,-61.19 186.75,-55.43 176.2,-54.39 177.86,-61.19"/>
</a>
</g>
</g>
<!-- Node5 -->
<g id="Node000005" class="node">
<title>Node5</title>
<g id="a_Node000005"><a xlink:href="$classfcmaes_1_1advretry_1_1_store.html#a3cc073975313c4893de761cfc9771d77" xlink:title="Gets the stored y&#45;values up to the specified count.">
<polygon fill="white" stroke="#666666" points="518.62,-68.61 374.38,-68.61 374.38,-48.61 518.62,-48.61 518.62,-68.61"/>
<text text-anchor="middle" x="446.5" y="-55.11" font-family="Helvetica,sans-Serif" font-size="10.00">fcmaes.advretry.Store.get_ys</text>
</a>
</g>
</g>
<!-- Node1&#45;&gt;Node5 -->
<g id="edge13_Node000001_Node000005" class="edge">
<title>Node1&#45;&gt;Node5</title>
<g id="a_edge13_Node000001_Node000005"><a xlink:title=" ">
<path fill="none" stroke="#63b8ff" d="M148.2,-77.87C209.97,-73.87 298.37,-68.14 362.71,-63.98"/>
<polygon fill="#63b8ff" stroke="#63b8ff" points="362.76,-67.48 372.52,-63.34 362.31,-60.49 362.76,-67.48"/>
</a>
</g>
</g>
<!-- Node6 -->
<g id="Node000006" class="node">
<title>Node6</title>
<g id="a_Node000006"><a xlink:href="$classfcmaes_1_1mapelites_1_1_archive.html#a91c9f1ac5485896833fc7b9859b85af1" xlink:title="Returns a copy of the ys array.">
<polygon fill="white" stroke="#666666" points="527.25,-27.61 365.75,-27.61 365.75,-7.61 527.25,-7.61 527.25,-27.61"/>
<text text-anchor="middle" x="446.5" y="-14.11" font-family="Helvetica,sans-Serif" font-size="10.00">fcmaes.mapelites.Archive.get_ys</text>
</a>
</g>
</g>
<!-- Node1&#45;&gt;Node6 -->
<g id="edge14_Node000001_Node000006" class="edge">
<title>Node1&#45;&gt;Node6</title>
<g id="a_edge14_Node000001_Node000006"><a xlink:title=" ">
<path fill="none" stroke="#63b8ff" d="M86.32,-72.3C105,-56.05 144.21,-25.15 184,-13.61 247.21,4.71 322.67,1 376.24,-5.66"/>
<polygon fill="#63b8ff" stroke="#63b8ff" points="375.46,-9.09 385.83,-6.92 376.37,-2.15 375.46,-9.09"/>
</a>
</g>
</g>
<!-- Node4&#45;&gt;Node5 -->
<g id="edge11_Node000004_Node000005" class="edge">
<title>Node4&#45;&gt;Node5</title>
<g id="a_edge11_Node000004_Node000005"><a xlink:title=" ">
<path fill="none" stroke="#63b8ff" d="M330.15,-46.32C340.8,-47.45 351.84,-48.63 362.68,-49.78"/>
<polygon fill="#63b8ff" stroke="#63b8ff" points="362.06,-53.24 372.38,-50.82 362.81,-46.28 362.06,-53.24"/>
</a>
</g>
</g>
<!-- Node4&#45;&gt;Node6 -->
<g id="edge12_Node000004_Node000006" class="edge">
<title>Node4&#45;&gt;Node6</title>
<g id="a_edge12_Node000004_Node000006"><a xlink:title=" ">
<path fill="none" stroke="#63b8ff" d="M330.15,-30.52C338.01,-29.64 346.08,-28.74 354.13,-27.84"/>
<polygon fill="#63b8ff" stroke="#63b8ff" points="354.41,-31.33 363.96,-26.74 353.63,-24.37 354.41,-31.33"/>
</a>
</g>
</g>
</g>
</svg>
