<?xml version="1.0" encoding="UTF-8" standalone="no"?>
<!DOCTYPE svg PUBLIC "-//W3C//DTD SVG 1.1//EN"
 "http://www.w3.org/Graphics/SVG/1.1/DTD/svg11.dtd">
<!-- Generated by graphviz version 12.2.1 (20241206.2353)
 -->
<!-- Title: fcmaes.retry.Store.sort Pages: 1 -->
<svg width="426pt" height="62pt"
 viewBox="0.00 0.00 425.75 62.00" xmlns="http://www.w3.org/2000/svg" xmlns:xlink="http://www.w3.org/1999/xlink">
<g id="graph0" class="graph" transform="scale(1 1) rotate(0) translate(4 58)">
<title>fcmaes.retry.Store.sort</title>
<!-- Node1 -->
<g id="Node000001" class="node">
<title>Node1</title>
<g id="a_Node000001"><a xlink:title="Sort entries to retain the best ones, thereby optimizing storage for new entries.">
<polygon fill="#999999" stroke="#666666" points="417.75,-48 302,-48 302,-28 417.75,-28 417.75,-48"/>
<text text-anchor="middle" x="359.88" y="-34.5" font-family="Helvetica,sans-Serif" font-size="10.00">fcmaes.retry.Store.sort</text>
</a>
</g>
</g>
<!-- Node2 -->
<g id="Node000002" class="node">
<title>Node2</title>
<g id="a_Node000002"><a xlink:href="$classfcmaes_1_1retry_1_1_store.html#aed35531d1489fd7b28d69dc3c9794508" xlink:title="Adds a result to the data structure, updating statistical values and recording the given data point.">
<polygon fill="white" stroke="#666666" points="115,-54 0,-54 0,-22 115,-22 115,-54"/>
<text text-anchor="start" x="8" y="-40.5" font-family="Helvetica,sans-Serif" font-size="10.00">fcmaes.retry.Store.add</text>
<text text-anchor="middle" x="57.5" y="-28.5" font-family="Helvetica,sans-Serif" font-size="10.00">_result</text>
</a>
</g>
</g>
<!-- Node1&#45;&gt;Node2 -->
<g id="edge4_Node000001_Node000002" class="edge">
<title>Node1&#45;&gt;Node2</title>
<g id="a_edge4_Node000001_Node000002"><a xlink:title=" ">
<path fill="none" stroke="#63b8ff" d="M290.66,-40.46C282.35,-40.68 273.98,-40.87 266,-41 214.9,-41.83 202.1,-41.83 151,-41 139.43,-40.81 127.06,-40.49 115.24,-40.13"/>
<polygon fill="#63b8ff" stroke="#63b8ff" points="290.5,-43.96 300.39,-40.17 290.3,-36.96 290.5,-43.96"/>
</a>
</g>
</g>
<!-- Node3 -->
<g id="Node000003" class="node">
<title>Node3</title>
<g id="a_Node000003"><a xlink:href="$classfcmaes_1_1retry_1_1_store.html#a440b834ab3066810ed77da1c5093fa49" xlink:title="Increases the count of evaluations and performs sorting based on a condition.">
<polygon fill="white" stroke="#666666" points="266,-32 151,-32 151,0 266,0 266,-32"/>
<text text-anchor="start" x="159" y="-18.5" font-family="Helvetica,sans-Serif" font-size="10.00">fcmaes.retry.Store.incr</text>
<text text-anchor="middle" x="208.5" y="-6.5" font-family="Helvetica,sans-Serif" font-size="10.00">_count_evals</text>
</a>
</g>
</g>
<!-- Node1&#45;&gt;Node3 -->
<g id="edge5_Node000001_Node000003" class="edge">
<title>Node1&#45;&gt;Node3</title>
<g id="a_edge5_Node000001_Node000003"><a xlink:title=" ">
<path fill="none" stroke="#63b8ff" d="M290.34,-27.91C282.34,-26.73 274.24,-25.54 266.43,-24.38"/>
<polygon fill="#63b8ff" stroke="#63b8ff" points="289.65,-31.34 300.05,-29.34 290.67,-24.42 289.65,-31.34"/>
</a>
</g>
</g>
<!-- Node3&#45;&gt;Node2 -->
<g id="edge6_Node000003_Node000002" class="edge">
<title>Node3&#45;&gt;Node2</title>
<g id="a_edge6_Node000003_Node000002"><a xlink:title=" ">
<path fill="none" stroke="#63b8ff" d="M139.37,-26.06C131.25,-27.26 123.03,-28.47 115.1,-29.64"/>
<polygon fill="#63b8ff" stroke="#63b8ff" points="139.87,-29.52 149.25,-24.6 138.84,-22.6 139.87,-29.52"/>
</a>
</g>
</g>
</g>
</svg>
