<?xml version="1.0" encoding="UTF-8" standalone="no"?>
<!DOCTYPE svg PUBLIC "-//W3C//DTD SVG 1.1//EN"
 "http://www.w3.org/Graphics/SVG/1.1/DTD/svg11.dtd">
<!-- Generated by graphviz version 12.2.1 (20241206.2353)
 -->
<!-- Title: differential_evolution::DeOptimizer::modify Pages: 1 -->
<svg width="637pt" height="171pt"
 viewBox="0.00 0.00 636.75 171.00" xmlns="http://www.w3.org/2000/svg" xmlns:xlink="http://www.w3.org/1999/xlink">
<g id="graph0" class="graph" transform="scale(1 1) rotate(0) translate(4 167)">
<title>differential_evolution::DeOptimizer::modify</title>
<!-- Node1 -->
<g id="Node000001" class="node">
<title>Node1</title>
<g id="a_Node000001"><a xlink:title=" ">
<polygon fill="#999999" stroke="#666666" points="628.75,-117 516.75,-117 516.75,-85 628.75,-85 628.75,-117"/>
<text text-anchor="start" x="524.75" y="-103.5" font-family="Helvetica,sans-Serif" font-size="10.00">differential_evolution</text>
<text text-anchor="middle" x="572.75" y="-91.5" font-family="Helvetica,sans-Serif" font-size="10.00">::DeOptimizer::modify</text>
</a>
</g>
</g>
<!-- Node2 -->
<g id="Node000002" class="node">
<title>Node2</title>
<g id="a_Node000002"><a xlink:href="$classdifferential__evolution_1_1_de_optimizer.html#a18f5c0a1c724443666e4827126716315" xlink:title=" ">
<polygon fill="white" stroke="#666666" points="303.5,-163 171.25,-163 171.25,-131 303.5,-131 303.5,-163"/>
<text text-anchor="start" x="179.25" y="-149.5" font-family="Helvetica,sans-Serif" font-size="10.00">differential_evolution</text>
<text text-anchor="middle" x="237.38" y="-137.5" font-family="Helvetica,sans-Serif" font-size="10.00">::DeOptimizer::doOptimize</text>
</a>
</g>
</g>
<!-- Node1&#45;&gt;Node2 -->
<g id="edge11_Node000001_Node000002" class="edge">
<title>Node1&#45;&gt;Node2</title>
<g id="a_edge11_Node000001_Node000002"><a xlink:title=" ">
<path fill="none" stroke="#63b8ff" d="M507.18,-120.29C498.35,-122.47 489.37,-124.46 480.75,-126 421.4,-136.63 352.88,-141.94 303.86,-144.55"/>
<polygon fill="#63b8ff" stroke="#63b8ff" points="507.95,-123.7 516.76,-117.82 506.2,-116.92 507.95,-123.7"/>
</a>
</g>
</g>
<!-- Node3 -->
<g id="Node000003" class="node">
<title>Node3</title>
<g id="a_Node000003"><a xlink:href="$classdifferential__evolution_1_1_de_optimizer.html#aff18de19791b75f799d4aa5e9c60b5fa" xlink:title=" ">
<polygon fill="white" stroke="#666666" points="480.75,-117 339.5,-117 339.5,-85 480.75,-85 480.75,-117"/>
<text text-anchor="start" x="347.5" y="-103.5" font-family="Helvetica,sans-Serif" font-size="10.00">differential_evolution</text>
<text text-anchor="middle" x="410.12" y="-91.5" font-family="Helvetica,sans-Serif" font-size="10.00">::DeOptimizer::next_improve</text>
</a>
</g>
</g>
<!-- Node1&#45;&gt;Node3 -->
<g id="edge12_Node000001_Node000003" class="edge">
<title>Node1&#45;&gt;Node3</title>
<g id="a_edge12_Node000001_Node000003"><a xlink:title=" ">
<path fill="none" stroke="#63b8ff" d="M505.01,-101C497.07,-101 488.95,-101 480.98,-101"/>
<polygon fill="#63b8ff" stroke="#63b8ff" points="504.96,-104.5 514.96,-101 504.96,-97.5 504.96,-104.5"/>
</a>
</g>
</g>
<!-- Node7 -->
<g id="Node000007" class="node">
<title>Node7</title>
<g id="a_Node000007"><a xlink:href="$classdifferential__evolution_1_1_de_optimizer.html#a8babf7e82f12af63653d0d26df11e8b0" xlink:title=" ">
<polygon fill="white" stroke="#666666" points="464.25,-66 356,-66 356,-34 464.25,-34 464.25,-66"/>
<text text-anchor="start" x="364" y="-52.5" font-family="Helvetica,sans-Serif" font-size="10.00">differential_evolution</text>
<text text-anchor="middle" x="410.12" y="-40.5" font-family="Helvetica,sans-Serif" font-size="10.00">::DeOptimizer::nextX</text>
</a>
</g>
</g>
<!-- Node1&#45;&gt;Node7 -->
<g id="edge17_Node000001_Node000007" class="edge">
<title>Node1&#45;&gt;Node7</title>
<g id="a_edge17_Node000001_Node000007"><a xlink:title=" ">
<path fill="none" stroke="#63b8ff" d="M509.12,-81.12C493.86,-76.27 477.71,-71.14 463.01,-66.47"/>
<polygon fill="#63b8ff" stroke="#63b8ff" points="508.01,-84.43 518.6,-84.12 510.13,-77.76 508.01,-84.43"/>
</a>
</g>
</g>
<!-- Node3&#45;&gt;Node2 -->
<g id="edge13_Node000003_Node000002" class="edge">
<title>Node3&#45;&gt;Node2</title>
<g id="a_edge13_Node000003_Node000002"><a xlink:title=" ">
<path fill="none" stroke="#63b8ff" d="M337.07,-120.41C324.54,-123.79 311.6,-127.27 299.4,-130.56"/>
<polygon fill="#63b8ff" stroke="#63b8ff" points="337.76,-123.85 346.5,-117.87 335.93,-117.09 337.76,-123.85"/>
</a>
</g>
</g>
<!-- Node4 -->
<g id="Node000004" class="node">
<title>Node4</title>
<g id="a_Node000004"><a xlink:href="$classdifferential__evolution_1_1_de_optimizer.html#accf9be34ac5d30b9a2df15dba24f4dce" xlink:title=" ">
<polygon fill="white" stroke="#666666" points="289.62,-113 185.12,-113 185.12,-81 289.62,-81 289.62,-113"/>
<text text-anchor="start" x="193.12" y="-99.5" font-family="Helvetica,sans-Serif" font-size="10.00">differential_evolution</text>
<text text-anchor="middle" x="237.38" y="-87.5" font-family="Helvetica,sans-Serif" font-size="10.00">::DeOptimizer::tell</text>
</a>
</g>
</g>
<!-- Node3&#45;&gt;Node4 -->
<g id="edge14_Node000003_Node000004" class="edge">
<title>Node3&#45;&gt;Node4</title>
<g id="a_edge14_Node000003_Node000004"><a xlink:title=" ">
<path fill="none" stroke="#63b8ff" d="M327.88,-99.1C314.96,-98.79 301.9,-98.49 289.91,-98.21"/>
<polygon fill="#63b8ff" stroke="#63b8ff" points="327.59,-102.59 337.67,-99.33 327.75,-95.59 327.59,-102.59"/>
</a>
</g>
</g>
<!-- Node5 -->
<g id="Node000005" class="node">
<title>Node5</title>
<g id="a_Node000005"><a xlink:href="$classdifferential__evolution_1_1_de_optimizer.html#a0af3433f0f60f99f8a9fbf9f10f36360" xlink:title=" ">
<polygon fill="white" stroke="#666666" points="135.25,-94 0,-94 0,-50 135.25,-50 135.25,-94"/>
<text text-anchor="start" x="8" y="-80.5" font-family="Helvetica,sans-Serif" font-size="10.00">differential_evolution</text>
<text text-anchor="start" x="8" y="-68.5" font-family="Helvetica,sans-Serif" font-size="10.00">::DeOptimizer::do_optimize</text>
<text text-anchor="middle" x="67.62" y="-56.5" font-family="Helvetica,sans-Serif" font-size="10.00">_delayed_update</text>
</a>
</g>
</g>
<!-- Node4&#45;&gt;Node5 -->
<g id="edge15_Node000004_Node000005" class="edge">
<title>Node4&#45;&gt;Node5</title>
<g id="a_edge15_Node000004_Node000005"><a xlink:title=" ">
<path fill="none" stroke="#63b8ff" d="M173.53,-87.63C161.15,-85.79 148.12,-83.85 135.61,-81.98"/>
<polygon fill="#63b8ff" stroke="#63b8ff" points="172.77,-91.06 183.18,-89.07 173.8,-84.14 172.77,-91.06"/>
</a>
</g>
</g>
<!-- Node6 -->
<g id="Node000006" class="node">
<title>Node6</title>
<g id="a_Node000006"><a xlink:href="$classdifferential__evolution_1_1_de_optimizer.html#aa1d0f0d9ddbb192cb30b470d8c3c1af0" xlink:title=" ">
<polygon fill="white" stroke="#666666" points="121,-144 14.25,-144 14.25,-112 121,-112 121,-144"/>
<text text-anchor="start" x="22.25" y="-130.5" font-family="Helvetica,sans-Serif" font-size="10.00">differential_evolution</text>
<text text-anchor="middle" x="67.62" y="-118.5" font-family="Helvetica,sans-Serif" font-size="10.00">::DeOptimizer::tellAll</text>
</a>
</g>
</g>
<!-- Node4&#45;&gt;Node6 -->
<g id="edge16_Node000004_Node000006" class="edge">
<title>Node4&#45;&gt;Node6</title>
<g id="a_edge16_Node000004_Node000006"><a xlink:title=" ">
<path fill="none" stroke="#63b8ff" d="M173.58,-108.6C156.37,-111.78 137.89,-115.2 121.31,-118.26"/>
<polygon fill="#63b8ff" stroke="#63b8ff" points="173.99,-112.09 183.19,-106.83 172.72,-105.2 173.99,-112.09"/>
</a>
</g>
</g>
<!-- Node8 -->
<g id="Node000008" class="node">
<title>Node8</title>
<g id="a_Node000008"><a xlink:href="$classdifferential__evolution_1_1_de_optimizer.html#af7935d4c0d376a000470f2b943aadbd6" xlink:title=" ">
<polygon fill="white" stroke="#666666" points="289.62,-63 185.12,-63 185.12,-31 289.62,-31 289.62,-63"/>
<text text-anchor="start" x="193.12" y="-49.5" font-family="Helvetica,sans-Serif" font-size="10.00">differential_evolution</text>
<text text-anchor="middle" x="237.38" y="-37.5" font-family="Helvetica,sans-Serif" font-size="10.00">::DeOptimizer::ask</text>
</a>
</g>
</g>
<!-- Node7&#45;&gt;Node8 -->
<g id="edge18_Node000007_Node000008" class="edge">
<title>Node7&#45;&gt;Node8</title>
<g id="a_edge18_Node000007_Node000008"><a xlink:title=" ">
<path fill="none" stroke="#63b8ff" d="M344.29,-48.86C326.33,-48.55 307.08,-48.21 289.99,-47.91"/>
<polygon fill="#63b8ff" stroke="#63b8ff" points="343.99,-52.36 354.05,-49.03 344.12,-45.36 343.99,-52.36"/>
</a>
</g>
</g>
<!-- Node8&#45;&gt;Node5 -->
<g id="edge20_Node000008_Node000005" class="edge">
<title>Node8&#45;&gt;Node5</title>
<g id="a_edge20_Node000008_Node000005"><a xlink:title=" ">
<path fill="none" stroke="#63b8ff" d="M173.53,-56.37C161.15,-58.21 148.12,-60.15 135.61,-62.02"/>
<polygon fill="#63b8ff" stroke="#63b8ff" points="173.8,-59.86 183.18,-54.93 172.77,-52.94 173.8,-59.86"/>
</a>
</g>
</g>
<!-- Node9 -->
<g id="Node000009" class="node">
<title>Node9</title>
<g id="a_Node000009"><a xlink:href="$classdifferential__evolution_1_1_de_optimizer.html#a0dcd44cbcddd9e0dde1ccd2ea5fbf96d" xlink:title=" ">
<polygon fill="white" stroke="#666666" points="122.5,-32 12.75,-32 12.75,0 122.5,0 122.5,-32"/>
<text text-anchor="start" x="20.75" y="-18.5" font-family="Helvetica,sans-Serif" font-size="10.00">differential_evolution</text>
<text text-anchor="middle" x="67.62" y="-6.5" font-family="Helvetica,sans-Serif" font-size="10.00">::DeOptimizer::askAll</text>
</a>
</g>
</g>
<!-- Node8&#45;&gt;Node9 -->
<g id="edge19_Node000008_Node000009" class="edge">
<title>Node8&#45;&gt;Node9</title>
<g id="a_edge19_Node000008_Node000009"><a xlink:title=" ">
<path fill="none" stroke="#63b8ff" d="M173.37,-35.36C156.72,-32.28 138.9,-28.99 122.77,-26.01"/>
<polygon fill="#63b8ff" stroke="#63b8ff" points="172.72,-38.8 183.19,-37.17 173.99,-31.91 172.72,-38.8"/>
</a>
</g>
</g>
</g>
</svg>
