<?xml version="1.0" encoding="UTF-8" standalone="no"?>
<!DOCTYPE svg PUBLIC "-//W3C//DTD SVG 1.1//EN"
 "http://www.w3.org/Graphics/SVG/1.1/DTD/svg11.dtd">
<!-- Generated by graphviz version 12.2.1 (20241206.2353)
 -->
<!-- Title: fcmaes.advretry.Store.get_y Pages: 1 -->
<svg width="727pt" height="267pt"
 viewBox="0.00 0.00 726.75 267.00" xmlns="http://www.w3.org/2000/svg" xmlns:xlink="http://www.w3.org/1999/xlink">
<g id="graph0" class="graph" transform="scale(1 1) rotate(0) translate(4 263)">
<title>fcmaes.advretry.Store.get_y</title>
<!-- Node1 -->
<g id="Node000001" class="node">
<title>Node1</title>
<g id="a_Node000001"><a xlink:title="Fetches a value for a given ID from a dictionary of float values.">
<polygon fill="#999999" stroke="#666666" points="718.75,-193 579.75,-193 579.75,-173 718.75,-173 718.75,-193"/>
<text text-anchor="middle" x="649.25" y="-179.5" font-family="Helvetica,sans-Serif" font-size="10.00">fcmaes.advretry.Store.get_y</text>
</a>
</g>
</g>
<!-- Node2 -->
<g id="Node000002" class="node">
<title>Node2</title>
<g id="a_Node000002"><a xlink:href="$classfcmaes_1_1advretry_1_1_store.html#ab543494f5cc2e6a7f877ca8cb0e35591" xlink:title="Returns the limits and other related calculations used for determining bounds during operations like ...">
<polygon fill="white" stroke="#666666" points="530.62,-259 392.38,-259 392.38,-239 530.62,-239 530.62,-259"/>
<text text-anchor="middle" x="461.5" y="-245.5" font-family="Helvetica,sans-Serif" font-size="10.00">fcmaes.advretry.Store.limits</text>
</a>
</g>
</g>
<!-- Node1&#45;&gt;Node2 -->
<g id="edge13_Node000001_Node000002" class="edge">
<title>Node1&#45;&gt;Node2</title>
<g id="a_edge13_Node000001_Node000002"><a xlink:title=" ">
<path fill="none" stroke="#63b8ff" d="M618,-198.48C597.46,-208.52 569.47,-221.3 543.75,-230 534.28,-233.2 524.01,-236.06 514.07,-238.52"/>
<polygon fill="#63b8ff" stroke="#63b8ff" points="619.53,-201.63 626.94,-194.05 616.42,-195.36 619.53,-201.63"/>
</a>
</g>
</g>
<!-- Node3 -->
<g id="Node000003" class="node">
<title>Node3</title>
<g id="a_Node000003"><a xlink:href="$classfcmaes_1_1mapelites_1_1_archive.html#a691e8315e1b9c8d92b67520216c72cdf" xlink:title="Selects and retrieves random elements based on the given range and size.">
<polygon fill="white" stroke="#666666" points="543.75,-221 379.25,-221 379.25,-189 543.75,-189 543.75,-221"/>
<text text-anchor="start" x="387.25" y="-207.5" font-family="Helvetica,sans-Serif" font-size="10.00">fcmaes.mapelites.Archive.random</text>
<text text-anchor="middle" x="461.5" y="-195.5" font-family="Helvetica,sans-Serif" font-size="10.00">_xs_one</text>
</a>
</g>
</g>
<!-- Node1&#45;&gt;Node3 -->
<g id="edge14_Node000001_Node000003" class="edge">
<title>Node1&#45;&gt;Node3</title>
<g id="a_edge14_Node000001_Node000003"><a xlink:title=" ">
<path fill="none" stroke="#63b8ff" d="M567.92,-192.51C560.05,-193.45 552.05,-194.39 544.16,-195.33"/>
<polygon fill="#63b8ff" stroke="#63b8ff" points="568.33,-195.99 577.84,-191.34 567.5,-189.04 568.33,-195.99"/>
</a>
</g>
</g>
<!-- Node4 -->
<g id="Node000004" class="node">
<title>Node4</title>
<g id="a_Node000004"><a xlink:href="$classfcmaes_1_1mapelites_1_1_archive.html#a82cd0403d58fbb41ef29c2cfb6ac74f7" xlink:title="Updates statistical data and modifies the internal data store with the given values if certain condit...">
<polygon fill="white" stroke="#666666" points="534.38,-171 388.62,-171 388.62,-151 534.38,-151 534.38,-171"/>
<text text-anchor="middle" x="461.5" y="-157.5" font-family="Helvetica,sans-Serif" font-size="10.00">fcmaes.mapelites.Archive.set</text>
</a>
</g>
</g>
<!-- Node1&#45;&gt;Node4 -->
<g id="edge15_Node000001_Node000004" class="edge">
<title>Node1&#45;&gt;Node4</title>
<g id="a_edge15_Node000001_Node000004"><a xlink:title=" ">
<path fill="none" stroke="#63b8ff" d="M567.95,-173.49C556.9,-172.18 545.6,-170.84 534.71,-169.55"/>
<polygon fill="#63b8ff" stroke="#63b8ff" points="567.5,-176.96 577.84,-174.66 568.33,-170.01 567.5,-176.96"/>
</a>
</g>
</g>
<!-- Node5 -->
<g id="Node000005" class="node">
<title>Node5</title>
<g id="a_Node000005"><a xlink:href="$classfcmaes_1_1advretry_1_1_store.html#aa5c9f7209b6bfb5bf079ad940a84eea4" xlink:title="Sorts and updates stored data based on the given criteria.">
<polygon fill="white" stroke="#666666" points="527.25,-133 395.75,-133 395.75,-113 527.25,-113 527.25,-133"/>
<text text-anchor="middle" x="461.5" y="-119.5" font-family="Helvetica,sans-Serif" font-size="10.00">fcmaes.advretry.Store.sort</text>
</a>
</g>
</g>
<!-- Node1&#45;&gt;Node5 -->
<g id="edge16_Node000001_Node000005" class="edge">
<title>Node1&#45;&gt;Node5</title>
<g id="a_edge16_Node000001_Node000005"><a xlink:title=" ">
<path fill="none" stroke="#63b8ff" d="M613.98,-168.11C593.8,-159.7 567.61,-149.43 543.75,-142 533.65,-138.86 522.71,-135.96 512.22,-133.43"/>
<polygon fill="#63b8ff" stroke="#63b8ff" points="612.56,-171.31 623.13,-171.97 615.28,-164.86 612.56,-171.31"/>
</a>
</g>
</g>
<!-- Node6 -->
<g id="Node000006" class="node">
<title>Node6</title>
<g id="a_Node000006"><a xlink:href="$classfcmaes_1_1advretry_1_1_store.html#a7dfa5440d1d295083cef68ea37be60fe" xlink:title="Adds a result to the current optimization process, updating the best result if necessary and storing ...">
<polygon fill="white" stroke="#666666" points="332.38,-227 201.62,-227 201.62,-195 332.38,-195 332.38,-227"/>
<text text-anchor="start" x="209.62" y="-213.5" font-family="Helvetica,sans-Serif" font-size="10.00">fcmaes.advretry.Store.add</text>
<text text-anchor="middle" x="267" y="-201.5" font-family="Helvetica,sans-Serif" font-size="10.00">_result</text>
</a>
</g>
</g>
<!-- Node5&#45;&gt;Node6 -->
<g id="edge17_Node000005_Node000006" class="edge">
<title>Node5&#45;&gt;Node6</title>
<g id="a_edge17_Node000005_Node000006"><a xlink:title=" ">
<path fill="none" stroke="#63b8ff" d="M387.57,-137.71C384.7,-139.02 381.92,-140.45 379.25,-142 358.87,-153.88 362.69,-167.63 343.25,-181 335.6,-186.26 326.89,-190.8 318.18,-194.65"/>
<polygon fill="#63b8ff" stroke="#63b8ff" points="388.83,-140.98 396.82,-134.02 386.23,-134.47 388.83,-140.98"/>
</a>
</g>
</g>
<!-- Node7 -->
<g id="Node000007" class="node">
<title>Node7</title>
<g id="a_Node000007"><a xlink:href="$classfcmaes_1_1retry_1_1_store.html#aed35531d1489fd7b28d69dc3c9794508" xlink:title="Adds a result to the data structure, updating statistical values and recording the given data point.">
<polygon fill="white" stroke="#666666" points="134.88,-145 19.88,-145 19.88,-113 134.88,-113 134.88,-145"/>
<text text-anchor="start" x="27.88" y="-131.5" font-family="Helvetica,sans-Serif" font-size="10.00">fcmaes.retry.Store.add</text>
<text text-anchor="middle" x="77.38" y="-119.5" font-family="Helvetica,sans-Serif" font-size="10.00">_result</text>
</a>
</g>
</g>
<!-- Node5&#45;&gt;Node7 -->
<g id="edge18_Node000005_Node000007" class="edge">
<title>Node5&#45;&gt;Node7</title>
<g id="a_edge18_Node000005_Node000007"><a xlink:title=" ">
<path fill="none" stroke="#63b8ff" d="M405.09,-135.97C380.92,-141.39 355.37,-146.72 343.25,-148 275.85,-155.11 258.29,-153.67 190.75,-148 172.61,-146.48 153,-143.6 135.31,-140.53"/>
<polygon fill="#63b8ff" stroke="#63b8ff" points="405.59,-139.44 414.57,-133.82 404.04,-132.62 405.59,-139.44"/>
</a>
</g>
</g>
<!-- Node8 -->
<g id="Node000008" class="node">
<title>Node8</title>
<g id="a_Node000008"><a xlink:href="$classfcmaes_1_1advretry_1_1_store.html#ac1a185da0fdff01550d275b4635f73df" xlink:title="Compares the current count of runs against a specified limit and increments internal counters accordi...">
<polygon fill="white" stroke="#666666" points="331.25,-139 202.75,-139 202.75,-107 331.25,-107 331.25,-139"/>
<text text-anchor="start" x="210.75" y="-125.5" font-family="Helvetica,sans-Serif" font-size="10.00">fcmaes.advretry.Store.get</text>
<text text-anchor="middle" x="267" y="-113.5" font-family="Helvetica,sans-Serif" font-size="10.00">_runs_compare_incr</text>
</a>
</g>
</g>
<!-- Node5&#45;&gt;Node8 -->
<g id="edge19_Node000005_Node000008" class="edge">
<title>Node5&#45;&gt;Node8</title>
<g id="a_edge19_Node000005_Node000008"><a xlink:title=" ">
<path fill="none" stroke="#63b8ff" d="M384.03,-123C366.61,-123 348.29,-123 331.47,-123"/>
<polygon fill="#63b8ff" stroke="#63b8ff" points="383.81,-126.5 393.81,-123 383.81,-119.5 383.81,-126.5"/>
</a>
</g>
</g>
<!-- Node9 -->
<g id="Node000009" class="node">
<title>Node9</title>
<g id="a_Node000009"><a xlink:href="$classfcmaes_1_1retry_1_1_store.html#a440b834ab3066810ed77da1c5093fa49" xlink:title="Increases the count of evaluations and performs sorting based on a condition.">
<polygon fill="white" stroke="#666666" points="324.5,-89 209.5,-89 209.5,-57 324.5,-57 324.5,-89"/>
<text text-anchor="start" x="217.5" y="-75.5" font-family="Helvetica,sans-Serif" font-size="10.00">fcmaes.retry.Store.incr</text>
<text text-anchor="middle" x="267" y="-63.5" font-family="Helvetica,sans-Serif" font-size="10.00">_count_evals</text>
</a>
</g>
</g>
<!-- Node5&#45;&gt;Node9 -->
<g id="edge20_Node000005_Node000009" class="edge">
<title>Node5&#45;&gt;Node9</title>
<g id="a_edge20_Node000005_Node000009"><a xlink:title=" ">
<path fill="none" stroke="#63b8ff" d="M409.01,-109.63C383.01,-102.87 351.42,-94.67 324.73,-87.73"/>
<polygon fill="#63b8ff" stroke="#63b8ff" points="408.12,-113.01 418.68,-112.14 409.88,-106.24 408.12,-113.01"/>
</a>
</g>
</g>
<!-- Node10 -->
<g id="Node000010" class="node">
<title>Node10</title>
<g id="a_Node000010"><a xlink:href="$classfcmaes_1_1advretry_1_1_store.html#acff238ba31618eab7787f5204b5676f3" xlink:title="Sets the data for an internal storage structure and processes it.">
<polygon fill="white" stroke="#666666" points="343.25,-39 190.75,-39 190.75,-19 343.25,-19 343.25,-39"/>
<text text-anchor="middle" x="267" y="-25.5" font-family="Helvetica,sans-Serif" font-size="10.00">fcmaes.advretry.Store.set_data</text>
</a>
</g>
</g>
<!-- Node5&#45;&gt;Node10 -->
<g id="edge22_Node000005_Node000010" class="edge">
<title>Node5&#45;&gt;Node10</title>
<g id="a_edge22_Node000005_Node000010"><a xlink:title=" ">
<path fill="none" stroke="#63b8ff" d="M438.49,-105.83C415.8,-88.9 378.8,-63.37 343.25,-48 335.58,-44.68 327.21,-41.86 318.94,-39.48"/>
<polygon fill="#63b8ff" stroke="#63b8ff" points="436.29,-108.56 446.37,-111.81 440.52,-102.98 436.29,-108.56"/>
</a>
</g>
</g>
<!-- Node9&#45;&gt;Node7 -->
<g id="edge21_Node000009_Node000007" class="edge">
<title>Node9&#45;&gt;Node7</title>
<g id="a_edge21_Node000009_Node000007"><a xlink:title=" ">
<path fill="none" stroke="#63b8ff" d="M199.94,-92.72C178.25,-99.19 154.38,-106.31 133.58,-112.52"/>
<polygon fill="#63b8ff" stroke="#63b8ff" points="200.69,-96.15 209.27,-89.93 198.69,-89.44 200.69,-96.15"/>
</a>
</g>
</g>
<!-- Node11 -->
<g id="Node000011" class="node">
<title>Node11</title>
<g id="a_Node000011"><a xlink:href="$classfcmaes_1_1advretry_1_1_store.html#adc9b28c43aee9110aef2fad53f30a077" xlink:title="Loads and processes data from a compressed file.">
<polygon fill="white" stroke="#666666" points="143.88,-58 10.88,-58 10.88,-38 143.88,-38 143.88,-58"/>
<text text-anchor="middle" x="77.38" y="-44.5" font-family="Helvetica,sans-Serif" font-size="10.00">fcmaes.advretry.Store.load</text>
</a>
</g>
</g>
<!-- Node10&#45;&gt;Node11 -->
<g id="edge23_Node000010_Node000011" class="edge">
<title>Node10&#45;&gt;Node11</title>
<g id="a_edge23_Node000010_Node000011"><a xlink:title=" ">
<path fill="none" stroke="#63b8ff" d="M179.3,-37.78C167.56,-38.97 155.66,-40.17 144.36,-41.32"/>
<polygon fill="#63b8ff" stroke="#63b8ff" points="179.39,-41.29 188.99,-36.8 178.69,-34.32 179.39,-41.29"/>
</a>
</g>
</g>
<!-- Node12 -->
<g id="Node000012" class="node">
<title>Node12</title>
<g id="a_Node000012"><a xlink:href="$classfcmaes_1_1multiretry_1_1multiretry.html#a34c47ed6cd26370e8c8d5227791921b8" xlink:title="Loads data from a compressed pickle (.pbz2) file and sets it to the current instance.">
<polygon fill="white" stroke="#666666" points="154.75,-20 0,-20 0,0 154.75,0 154.75,-20"/>
<text text-anchor="middle" x="77.38" y="-6.5" font-family="Helvetica,sans-Serif" font-size="10.00">fcmaes.multiretry.multiretry.load</text>
</a>
</g>
</g>
<!-- Node10&#45;&gt;Node12 -->
<g id="edge24_Node000010_Node000012" class="edge">
<title>Node10&#45;&gt;Node12</title>
<g id="a_edge24_Node000010_Node000012"><a xlink:title=" ">
<path fill="none" stroke="#63b8ff" d="M179.15,-20.2C171.07,-19.39 162.92,-18.56 154.95,-17.75"/>
<polygon fill="#63b8ff" stroke="#63b8ff" points="178.69,-23.68 188.99,-21.2 179.39,-16.71 178.69,-23.68"/>
</a>
</g>
</g>
</g>
</svg>
