<?xml version="1.0" encoding="UTF-8" standalone="no"?>
<!DOCTYPE svg PUBLIC "-//W3C//DTD SVG 1.1//EN"
 "http://www.w3.org/Graphics/SVG/1.1/DTD/svg11.dtd">
<!-- Generated by graphviz version 12.2.1 (20241206.2353)
 -->
<!-- Title: quantumcomm.constellation_udp.plot Pages: 1 -->
<svg width="696pt" height="334pt"
 viewBox="0.00 0.00 696.00 334.00" xmlns="http://www.w3.org/2000/svg" xmlns:xlink="http://www.w3.org/1999/xlink">
<g id="graph0" class="graph" transform="scale(1 1) rotate(0) translate(4 330)">
<title>quantumcomm.constellation_udp.plot</title>
<!-- Node1 -->
<g id="Node000001" class="node">
<title>Node1</title>
<g id="a_Node000001"><a xlink:title="Plot the full constellations with solution path and optional orbits.">
<polygon fill="#999999" stroke="#666666" points="138.25,-157 0,-157 0,-125 138.25,-125 138.25,-157"/>
<text text-anchor="start" x="8" y="-143.5" font-family="Helvetica,sans-Serif" font-size="10.00">quantumcomm.constellation</text>
<text text-anchor="middle" x="69.12" y="-131.5" font-family="Helvetica,sans-Serif" font-size="10.00">_udp.plot</text>
</a>
</g>
</g>
<!-- Node2 -->
<g id="Node000002" class="node">
<title>Node2</title>
<g id="a_Node000002"><a xlink:href="$classquantumcomm_1_1constellation__udp.html#a06e2f7fe5888de4c38d08d4b1f290511" xlink:title="Builds a networkx graph from the satellite positions.">
<polygon fill="white" stroke="#666666" points="323.38,-282 185.12,-282 185.12,-250 323.38,-250 323.38,-282"/>
<text text-anchor="start" x="193.12" y="-268.5" font-family="Helvetica,sans-Serif" font-size="10.00">quantumcomm.constellation</text>
<text text-anchor="middle" x="254.25" y="-256.5" font-family="Helvetica,sans-Serif" font-size="10.00">_udp.build_graph</text>
</a>
</g>
</g>
<!-- Node1&#45;&gt;Node2 -->
<g id="edge13_Node000001_Node000002" class="edge">
<title>Node1&#45;&gt;Node2</title>
<g id="a_edge13_Node000001_Node000002"><a xlink:title=" ">
<path fill="none" stroke="#63b8ff" d="M82.85,-157.22C100.93,-179.22 136.1,-218.35 174.25,-241 176.55,-242.36 178.92,-243.66 181.36,-244.89"/>
<polygon fill="#63b8ff" stroke="#63b8ff" points="179.72,-247.99 190.27,-248.98 182.64,-241.63 179.72,-247.99"/>
</a>
</g>
</g>
<!-- Node7 -->
<g id="Node000007" class="node">
<title>Node7</title>
<g id="a_Node000007"><a xlink:href="$classquantumcomm_1_1constellation__udp.html#a538e6e0a73831c10938e12e9ec73513c" xlink:title="Compute one full&#45;orbit of the motherships from epoch ep0 (for plots)">
<polygon fill="white" stroke="#666666" points="334.25,-232 174.25,-232 174.25,-200 334.25,-200 334.25,-232"/>
<text text-anchor="start" x="182.25" y="-218.5" font-family="Helvetica,sans-Serif" font-size="10.00">quantumcomm.constellation</text>
<text text-anchor="middle" x="254.25" y="-206.5" font-family="Helvetica,sans-Serif" font-size="10.00">_udp.compute_orbit_motherships</text>
</a>
</g>
</g>
<!-- Node1&#45;&gt;Node7 -->
<g id="edge18_Node000001_Node000007" class="edge">
<title>Node1&#45;&gt;Node7</title>
<g id="a_edge18_Node000001_Node000007"><a xlink:title=" ">
<path fill="none" stroke="#63b8ff" d="M101.05,-157.27C121.5,-167.67 149.08,-181.03 174.25,-191 178.54,-192.7 182.99,-194.36 187.5,-195.98"/>
<polygon fill="#63b8ff" stroke="#63b8ff" points="186.05,-199.18 196.65,-199.14 188.34,-192.56 186.05,-199.18"/>
</a>
</g>
</g>
<!-- Node9 -->
<g id="Node000009" class="node">
<title>Node9</title>
<g id="a_Node000009"><a xlink:href="$classquantumcomm_1_1constellation__udp.html#a055cad3b277eb52218b1926cf1730044" xlink:title="Compute one full&#45;orbit of the Walker constellation planes (for plots)">
<polygon fill="white" stroke="#666666" points="323.38,-182 185.12,-182 185.12,-150 323.38,-150 323.38,-182"/>
<text text-anchor="start" x="193.12" y="-168.5" font-family="Helvetica,sans-Serif" font-size="10.00">quantumcomm.constellation</text>
<text text-anchor="middle" x="254.25" y="-156.5" font-family="Helvetica,sans-Serif" font-size="10.00">_udp.compute_orbit_walker</text>
</a>
</g>
</g>
<!-- Node1&#45;&gt;Node9 -->
<g id="edge20_Node000001_Node000009" class="edge">
<title>Node1&#45;&gt;Node9</title>
<g id="a_edge20_Node000001_Node000009"><a xlink:title=" ">
<path fill="none" stroke="#63b8ff" d="M138.57,-150.34C150.05,-151.91 162.03,-153.55 173.75,-155.15"/>
<polygon fill="#63b8ff" stroke="#63b8ff" points="173,-158.58 183.38,-156.46 173.95,-151.64 173,-158.58"/>
</a>
</g>
</g>
<!-- Node10 -->
<g id="Node000010" class="node">
<title>Node10</title>
<g id="a_Node000010"><a xlink:href="$classquantumcomm_1_1constellation__udp.html#a46cbd774de9aefba3ee882c665072446" xlink:title="Construct cumulative position of Walker satellites, motherships and rovers.">
<polygon fill="white" stroke="#666666" points="323.38,-132 185.12,-132 185.12,-100 323.38,-100 323.38,-132"/>
<text text-anchor="start" x="193.12" y="-118.5" font-family="Helvetica,sans-Serif" font-size="10.00">quantumcomm.constellation</text>
<text text-anchor="middle" x="254.25" y="-106.5" font-family="Helvetica,sans-Serif" font-size="10.00">_udp.construct_pos</text>
</a>
</g>
</g>
<!-- Node1&#45;&gt;Node10 -->
<g id="edge21_Node000001_Node000010" class="edge">
<title>Node1&#45;&gt;Node10</title>
<g id="a_edge21_Node000001_Node000010"><a xlink:title=" ">
<path fill="none" stroke="#63b8ff" d="M138.57,-131.66C150.05,-130.09 162.03,-128.45 173.75,-126.85"/>
<polygon fill="#63b8ff" stroke="#63b8ff" points="173.95,-130.36 183.38,-125.54 173,-123.42 173.95,-130.36"/>
</a>
</g>
</g>
<!-- Node11 -->
<g id="Node000011" class="node">
<title>Node11</title>
<g id="a_Node000011"><a xlink:href="$namespacequantumcomm.html#ab6b2e04e125b00253e56eea291fb11a5" xlink:title="Computes the position of the rovers at time t based on the initial latitude and longitude.">
<polygon fill="white" stroke="#666666" points="316.25,-82 192.25,-82 192.25,-50 316.25,-50 316.25,-82"/>
<text text-anchor="start" x="200.25" y="-68.5" font-family="Helvetica,sans-Serif" font-size="10.00">quantumcomm.construct</text>
<text text-anchor="middle" x="254.25" y="-56.5" font-family="Helvetica,sans-Serif" font-size="10.00">_rover_pos</text>
</a>
</g>
</g>
<!-- Node1&#45;&gt;Node11 -->
<g id="edge22_Node000001_Node000011" class="edge">
<title>Node1&#45;&gt;Node11</title>
<g id="a_edge22_Node000001_Node000011"><a xlink:title=" ">
<path fill="none" stroke="#63b8ff" d="M101.05,-124.73C121.5,-114.33 149.08,-100.97 174.25,-91 178.54,-89.3 182.99,-87.64 187.5,-86.02"/>
<polygon fill="#63b8ff" stroke="#63b8ff" points="188.34,-89.44 196.65,-82.86 186.05,-82.82 188.34,-89.44"/>
</a>
</g>
</g>
<!-- Node12 -->
<g id="Node000012" class="node">
<title>Node12</title>
<g id="a_Node000012"><a xlink:href="$classquantumcomm_1_1constellation__udp.html#a0488615446771fa666b9fa156ab6627e" xlink:title="Generates two Walker constellations according to specifications.">
<polygon fill="white" stroke="#666666" points="323.38,-32 185.12,-32 185.12,0 323.38,0 323.38,-32"/>
<text text-anchor="start" x="193.12" y="-18.5" font-family="Helvetica,sans-Serif" font-size="10.00">quantumcomm.constellation</text>
<text text-anchor="middle" x="254.25" y="-6.5" font-family="Helvetica,sans-Serif" font-size="10.00">_udp.construct_walkers</text>
</a>
</g>
</g>
<!-- Node1&#45;&gt;Node12 -->
<g id="edge23_Node000001_Node000012" class="edge">
<title>Node1&#45;&gt;Node12</title>
<g id="a_edge23_Node000001_Node000012"><a xlink:title=" ">
<path fill="none" stroke="#63b8ff" d="M82.85,-124.78C100.93,-102.78 136.1,-63.65 174.25,-41 176.55,-39.64 178.92,-38.34 181.36,-37.11"/>
<polygon fill="#63b8ff" stroke="#63b8ff" points="182.64,-40.37 190.27,-33.02 179.72,-34.01 182.64,-40.37"/>
</a>
</g>
</g>
<!-- Node3 -->
<g id="Node000003" class="node">
<title>Node3</title>
<g id="a_Node000003"><a xlink:href="$namespacequantumcomm.html#a0b9a5d09cf8b8062250d0631d392b9e4" xlink:title=" ">
<polygon fill="white" stroke="#666666" points="516.38,-276 374.38,-276 374.38,-256 516.38,-256 516.38,-276"/>
<text text-anchor="middle" x="445.38" y="-262.5" font-family="Helvetica,sans-Serif" font-size="10.00">quantumcomm.get_adjmatrix</text>
</a>
</g>
</g>
<!-- Node2&#45;&gt;Node3 -->
<g id="edge14_Node000002_Node000003" class="edge">
<title>Node2&#45;&gt;Node3</title>
<g id="a_edge14_Node000002_Node000003"><a xlink:title=" ">
<path fill="none" stroke="#63b8ff" d="M323.8,-266C336.47,-266 349.82,-266 362.83,-266"/>
<polygon fill="#63b8ff" stroke="#63b8ff" points="362.64,-269.5 372.64,-266 362.64,-262.5 362.64,-269.5"/>
</a>
</g>
</g>
<!-- Node4 -->
<g id="Node000004" class="node">
<title>Node4</title>
<g id="a_Node000004"><a xlink:href="$namespacequantumcomm.html#adeb3d6f34e9ce9bde81d145e0cb4b1c6" xlink:title="Given two position vectors returns the distance of the line of sight to the origin.">
<polygon fill="white" stroke="#666666" points="678.25,-326 566.25,-326 566.25,-294 678.25,-294 678.25,-326"/>
<text text-anchor="start" x="574.25" y="-312.5" font-family="Helvetica,sans-Serif" font-size="10.00">quantumcomm.line_of</text>
<text text-anchor="middle" x="622.25" y="-300.5" font-family="Helvetica,sans-Serif" font-size="10.00">_sight</text>
</a>
</g>
</g>
<!-- Node3&#45;&gt;Node4 -->
<g id="edge15_Node000003_Node000004" class="edge">
<title>Node3&#45;&gt;Node4</title>
<g id="a_edge15_Node000003_Node000004"><a xlink:title=" ">
<path fill="none" stroke="#63b8ff" d="M487.82,-276.43C507.87,-281.47 532.43,-287.65 554.99,-293.33"/>
<polygon fill="#63b8ff" stroke="#63b8ff" points="553.86,-296.65 564.41,-295.7 555.56,-289.86 553.86,-296.65"/>
</a>
</g>
</g>
<!-- Node5 -->
<g id="Node000005" class="node">
<title>Node5</title>
<g id="a_Node000005"><a xlink:href="$namespacequantumcomm.html#af0f5b86687bc9356f53b8e0fcd826c2d" xlink:title="Computes the edge weight according to QKD probabilities.">
<polygon fill="white" stroke="#666666" points="688,-276 556.5,-276 556.5,-256 688,-256 688,-276"/>
<text text-anchor="middle" x="622.25" y="-262.5" font-family="Helvetica,sans-Serif" font-size="10.00">quantumcomm.qkd_metric</text>
</a>
</g>
</g>
<!-- Node3&#45;&gt;Node5 -->
<g id="edge16_Node000003_Node000005" class="edge">
<title>Node3&#45;&gt;Node5</title>
<g id="a_edge16_Node000003_Node000005"><a xlink:title=" ">
<path fill="none" stroke="#63b8ff" d="M516.75,-266C525.99,-266 535.5,-266 544.84,-266"/>
<polygon fill="#63b8ff" stroke="#63b8ff" points="544.6,-269.5 554.6,-266 544.6,-262.5 544.6,-269.5"/>
</a>
</g>
</g>
<!-- Node6 -->
<g id="Node000006" class="node">
<title>Node6</title>
<g id="a_Node000006"><a xlink:href="$namespacequantumcomm.html#a32214ea35bfdc5ac32988510e98f5643" xlink:title="Computes the cosine of the zenith angle (theta_z) of the LOS between source and destination node.">
<polygon fill="white" stroke="#666666" points="677.12,-238 567.38,-238 567.38,-206 677.12,-206 677.12,-238"/>
<text text-anchor="start" x="575.38" y="-224.5" font-family="Helvetica,sans-Serif" font-size="10.00">quantumcomm.zenith</text>
<text text-anchor="middle" x="622.25" y="-212.5" font-family="Helvetica,sans-Serif" font-size="10.00">_angle</text>
</a>
</g>
</g>
<!-- Node3&#45;&gt;Node6 -->
<g id="edge17_Node000003_Node000006" class="edge">
<title>Node3&#45;&gt;Node6</title>
<g id="a_edge17_Node000003_Node000006"><a xlink:title=" ">
<path fill="none" stroke="#63b8ff" d="M487.82,-255.57C508.22,-250.44 533.28,-244.13 556.16,-238.38"/>
<polygon fill="#63b8ff" stroke="#63b8ff" points="556.87,-241.81 565.72,-235.97 555.17,-235.02 556.87,-241.81"/>
</a>
</g>
</g>
<!-- Node8 -->
<g id="Node000008" class="node">
<title>Node8</title>
<g id="a_Node000008"><a xlink:href="$namespacequantumcomm.html#a7c43375b014085ada1580778d0deb20c" xlink:title="Construct array of mothership orbital elements (the TLEs of actual Earth&#45;orbiting satellites below ar...">
<polygon fill="white" stroke="#666666" points="520.5,-232 370.25,-232 370.25,-200 520.5,-200 520.5,-232"/>
<text text-anchor="start" x="378.25" y="-218.5" font-family="Helvetica,sans-Serif" font-size="10.00">quantumcomm.get_mothership</text>
<text text-anchor="middle" x="445.38" y="-206.5" font-family="Helvetica,sans-Serif" font-size="10.00">_satellites</text>
</a>
</g>
</g>
<!-- Node7&#45;&gt;Node8 -->
<g id="edge19_Node000007_Node000008" class="edge">
<title>Node7&#45;&gt;Node8</title>
<g id="a_edge19_Node000007_Node000008"><a xlink:title=" ">
<path fill="none" stroke="#63b8ff" d="M334.63,-216C342.6,-216 350.72,-216 358.75,-216"/>
<polygon fill="#63b8ff" stroke="#63b8ff" points="358.51,-219.5 368.51,-216 358.51,-212.5 358.51,-219.5"/>
</a>
</g>
</g>
<!-- Node13 -->
<g id="Node000013" class="node">
<title>Node13</title>
<g id="a_Node000013"><a xlink:href="$classquantumcomm_1_1constellation__udp.html#a7751ec7ef991c732aeffdb2ac59332e6" xlink:title="Generates a Walker constallation as a SatrecArray.">
<polygon fill="white" stroke="#666666" points="514.5,-32 376.25,-32 376.25,0 514.5,0 514.5,-32"/>
<text text-anchor="start" x="384.25" y="-18.5" font-family="Helvetica,sans-Serif" font-size="10.00">quantumcomm.constellation</text>
<text text-anchor="middle" x="445.38" y="-6.5" font-family="Helvetica,sans-Serif" font-size="10.00">_udp.generate_walker</text>
</a>
</g>
</g>
<!-- Node12&#45;&gt;Node13 -->
<g id="edge24_Node000012_Node000013" class="edge">
<title>Node12&#45;&gt;Node13</title>
<g id="a_edge24_Node000012_Node000013"><a xlink:title=" ">
<path fill="none" stroke="#63b8ff" d="M323.8,-16C337.09,-16 351.13,-16 364.75,-16"/>
<polygon fill="#63b8ff" stroke="#63b8ff" points="364.55,-19.5 374.55,-16 364.55,-12.5 364.55,-19.5"/>
</a>
</g>
</g>
</g>
</svg>
