<?xml version="1.0" encoding="UTF-8" standalone="no"?>
<!DOCTYPE svg PUBLIC "-//W3C//DTD SVG 1.1//EN"
 "http://www.w3.org/Graphics/SVG/1.1/DTD/svg11.dtd">
<!-- Generated by graphviz version 12.2.1 (20241206.2353)
 -->
<!-- Title: fcmaes.cmaes.Cmaes.tell_one Pages: 1 -->
<svg width="563pt" height="128pt"
 viewBox="0.00 0.00 563.00 128.00" xmlns="http://www.w3.org/2000/svg" xmlns:xlink="http://www.w3.org/1999/xlink">
<g id="graph0" class="graph" transform="scale(1 1) rotate(0) translate(4 124)">
<title>fcmaes.cmaes.Cmaes.tell_one</title>
<!-- Node1 -->
<g id="Node000001" class="node">
<title>Node1</title>
<g id="a_Node000001"><a xlink:title="Processes the given fitness value and solution vector, performs updates to internal data structures,...">
<polygon fill="#999999" stroke="#666666" points="151.75,-76 0,-76 0,-56 151.75,-56 151.75,-76"/>
<text text-anchor="middle" x="75.88" y="-62.5" font-family="Helvetica,sans-Serif" font-size="10.00">fcmaes.cmaes.Cmaes.tell_one</text>
</a>
</g>
</g>
<!-- Node2 -->
<g id="Node000002" class="node">
<title>Node2</title>
<g id="a_Node000002"><a xlink:href="$classfcmaes_1_1cmaes_1_1_cmaes.html#a7dada2c399890feafb59c01d1f424ee5" xlink:title="Updates the evolutionary process using the Covariance Matrix Adaptation (CMA) strategy.">
<polygon fill="white" stroke="#666666" points="357.5,-76 187.75,-76 187.75,-56 357.5,-56 357.5,-76"/>
<text text-anchor="middle" x="272.62" y="-62.5" font-family="Helvetica,sans-Serif" font-size="10.00">fcmaes.cmaes.Cmaes.updateCMA</text>
</a>
</g>
</g>
<!-- Node1&#45;&gt;Node2 -->
<g id="edge5_Node000001_Node000002" class="edge">
<title>Node1&#45;&gt;Node2</title>
<g id="a_edge5_Node000001_Node000002"><a xlink:title=" ">
<path fill="none" stroke="#63b8ff" d="M152.17,-66C160.03,-66 168.09,-66 176.13,-66"/>
<polygon fill="#63b8ff" stroke="#63b8ff" points="175.95,-69.5 185.95,-66 175.95,-62.5 175.95,-69.5"/>
</a>
</g>
</g>
<!-- Node3 -->
<g id="Node000003" class="node">
<title>Node3</title>
<g id="a_Node000003"><a xlink:href="$classfcmaes_1_1cmaes_1_1_cmaes.html#ae26e42639fa8cb28b64c1fe1bcd7109c" xlink:title="Updates the internal state of the covariance matrix and its derived attributes, such as eigenvalues,...">
<polygon fill="white" stroke="#666666" points="555,-120 393.5,-120 393.5,-100 555,-100 555,-120"/>
<text text-anchor="middle" x="474.25" y="-106.5" font-family="Helvetica,sans-Serif" font-size="10.00">fcmaes.cmaes.Cmaes.updateBD</text>
</a>
</g>
</g>
<!-- Node2&#45;&gt;Node3 -->
<g id="edge6_Node000002_Node000003" class="edge">
<title>Node2&#45;&gt;Node3</title>
<g id="a_edge6_Node000002_Node000003"><a xlink:title=" ">
<path fill="none" stroke="#63b8ff" d="M321.19,-76.48C349.21,-82.66 384.87,-90.52 414.62,-97.08"/>
<polygon fill="#63b8ff" stroke="#63b8ff" points="413.71,-100.46 424.23,-99.2 415.22,-93.62 413.71,-100.46"/>
</a>
</g>
</g>
<!-- Node4 -->
<g id="Node000004" class="node">
<title>Node4</title>
<g id="a_Node000004"><a xlink:href="$classfcmaes_1_1cmaes_1_1_cmaes.html#afd8b8665d87f14c53cd60da16c932336" xlink:title="Updates the covariance matrix and returns the negative covariance scaling factor.">
<polygon fill="white" stroke="#666666" points="547.88,-82 400.62,-82 400.62,-50 547.88,-50 547.88,-82"/>
<text text-anchor="start" x="408.62" y="-68.5" font-family="Helvetica,sans-Serif" font-size="10.00">fcmaes.cmaes.Cmaes.update</text>
<text text-anchor="middle" x="474.25" y="-56.5" font-family="Helvetica,sans-Serif" font-size="10.00">Covariance</text>
</a>
</g>
</g>
<!-- Node2&#45;&gt;Node4 -->
<g id="edge7_Node000002_Node000004" class="edge">
<title>Node2&#45;&gt;Node4</title>
<g id="a_edge7_Node000002_Node000004"><a xlink:title=" ">
<path fill="none" stroke="#63b8ff" d="M357.99,-66C368.2,-66 378.63,-66 388.83,-66"/>
<polygon fill="#63b8ff" stroke="#63b8ff" points="388.72,-69.5 398.72,-66 388.72,-62.5 388.72,-69.5"/>
</a>
</g>
</g>
<!-- Node5 -->
<g id="Node000005" class="node">
<title>Node5</title>
<g id="a_Node000005"><a xlink:href="$classfcmaes_1_1cmaes_1_1_cmaes.html#ae3fd3fbe79efd9509bb8462382d63bdd" xlink:title="Updates the evolution paths required for generating new samples in the covariance matrix adaptation e...">
<polygon fill="white" stroke="#666666" points="547.88,-32 400.62,-32 400.62,0 547.88,0 547.88,-32"/>
<text text-anchor="start" x="408.62" y="-18.5" font-family="Helvetica,sans-Serif" font-size="10.00">fcmaes.cmaes.Cmaes.update</text>
<text text-anchor="middle" x="474.25" y="-6.5" font-family="Helvetica,sans-Serif" font-size="10.00">EvolutionPaths</text>
</a>
</g>
</g>
<!-- Node2&#45;&gt;Node5 -->
<g id="edge8_Node000002_Node000005" class="edge">
<title>Node2&#45;&gt;Node5</title>
<g id="a_edge8_Node000002_Node000005"><a xlink:title=" ">
<path fill="none" stroke="#63b8ff" d="M315.47,-55.52C338.99,-49.63 369.08,-42.09 396.66,-35.18"/>
<polygon fill="#63b8ff" stroke="#63b8ff" points="397.17,-38.66 406.02,-32.84 395.47,-31.87 397.17,-38.66"/>
</a>
</g>
</g>
</g>
</svg>
