<?xml version="1.0" encoding="UTF-8" standalone="no"?>
<!DOCTYPE svg PUBLIC "-//W3C//DTD SVG 1.1//EN"
 "http://www.w3.org/Graphics/SVG/1.1/DTD/svg11.dtd">
<!-- Generated by graphviz version 12.2.1 (20241206.2353)
 -->
<!-- Title: fcmaes.mapelites.Archive.set_c Pages: 1 -->
<svg width="548pt" height="28pt"
 viewBox="0.00 0.00 548.00 28.00" xmlns="http://www.w3.org/2000/svg" xmlns:xlink="http://www.w3.org/1999/xlink">
<g id="graph0" class="graph" transform="scale(1 1) rotate(0) translate(4 24)">
<title>fcmaes.mapelites.Archive.set_c</title>
<!-- Node1 -->
<g id="Node000001" class="node">
<title>Node1</title>
<g id="a_Node000001"><a xlink:title="Sets the values of a specific segment of the &#39;cs&#39; attribute.">
<polygon fill="#999999" stroke="#666666" points="540,-20 383.75,-20 383.75,0 540,0 540,-20"/>
<text text-anchor="middle" x="461.88" y="-6.5" font-family="Helvetica,sans-Serif" font-size="10.00">fcmaes.mapelites.Archive.set_c</text>
</a>
</g>
</g>
<!-- Node2 -->
<g id="Node000002" class="node">
<title>Node2</title>
<g id="a_Node000002"><a xlink:href="$classfcmaes_1_1mapelites_1_1_archive.html#a7b98c28bd774c39099d0e41b1c38459d" xlink:title="Sets the values from the provided array&#45;like object to the internal structure by calling set_c method...">
<polygon fill="white" stroke="#666666" points="347.75,-20 186.25,-20 186.25,0 347.75,0 347.75,-20"/>
<text text-anchor="middle" x="267" y="-6.5" font-family="Helvetica,sans-Serif" font-size="10.00">fcmaes.mapelites.Archive.set_cs</text>
</a>
</g>
</g>
<!-- Node1&#45;&gt;Node2 -->
<g id="edge3_Node000001_Node000002" class="edge">
<title>Node1&#45;&gt;Node2</title>
<g id="a_edge3_Node000001_Node000002"><a xlink:title=" ">
<path fill="none" stroke="#63b8ff" d="M372,-10C363.99,-10 355.9,-10 347.97,-10"/>
<polygon fill="#63b8ff" stroke="#63b8ff" points="371.75,-13.5 381.75,-10 371.75,-6.5 371.75,-13.5"/>
</a>
</g>
</g>
<!-- Node3 -->
<g id="Node000003" class="node">
<title>Node3</title>
<g id="a_Node000003"><a xlink:href="$classfcmaes_1_1mapelites_1_1_archive.html#a62da9c6f511c298d1ef06d6af7600196" xlink:title="Loads data from a specified file into the current object, initializing or updating its properties and...">
<polygon fill="white" stroke="#666666" points="150.25,-20 0,-20 0,0 150.25,0 150.25,-20"/>
<text text-anchor="middle" x="75.12" y="-6.5" font-family="Helvetica,sans-Serif" font-size="10.00">fcmaes.mapelites.Archive.load</text>
</a>
</g>
</g>
<!-- Node2&#45;&gt;Node3 -->
<g id="edge4_Node000002_Node000003" class="edge">
<title>Node2&#45;&gt;Node3</title>
<g id="a_edge4_Node000002_Node000003"><a xlink:title=" ">
<path fill="none" stroke="#63b8ff" d="M174.5,-10C166.5,-10 158.48,-10 150.65,-10"/>
<polygon fill="#63b8ff" stroke="#63b8ff" points="174.24,-13.5 184.24,-10 174.24,-6.5 174.24,-13.5"/>
</a>
</g>
</g>
</g>
</svg>
