<?xml version="1.0" encoding="UTF-8" standalone="no"?>
<!DOCTYPE svg PUBLIC "-//W3C//DTD SVG 1.1//EN"
 "http://www.w3.org/Graphics/SVG/1.1/DTD/svg11.dtd">
<!-- Generated by graphviz version 12.2.1 (20241206.2353)
 -->
<!-- Title: fcmaes.advretry.Store.sort Pages: 1 -->
<svg width="502pt" height="161pt"
 viewBox="0.00 0.00 502.25 161.00" xmlns="http://www.w3.org/2000/svg" xmlns:xlink="http://www.w3.org/1999/xlink">
<g id="graph0" class="graph" transform="scale(1 1) rotate(0) translate(4 157)">
<title>fcmaes.advretry.Store.sort</title>
<!-- Node1 -->
<g id="Node000001" class="node">
<title>Node1</title>
<g id="a_Node000001"><a xlink:title="Sorts and updates stored data based on the given criteria.">
<polygon fill="#999999" stroke="#666666" points="131.5,-96 0,-96 0,-76 131.5,-76 131.5,-96"/>
<text text-anchor="middle" x="65.75" y="-82.5" font-family="Helvetica,sans-Serif" font-size="10.00">fcmaes.advretry.Store.sort</text>
</a>
</g>
</g>
<!-- Node2 -->
<g id="Node000002" class="node">
<title>Node2</title>
<g id="a_Node000002"><a xlink:href="$classfcmaes_1_1advretry_1_1_store.html#a00ab052ea8b184b7344875122481b623" xlink:title="Calculates the normalized distance between two points in a Euclidean space.">
<polygon fill="white" stroke="#666666" points="319.25,-153 167.5,-153 167.5,-133 319.25,-133 319.25,-153"/>
<text text-anchor="middle" x="243.38" y="-139.5" font-family="Helvetica,sans-Serif" font-size="10.00">fcmaes.advretry.Store.distance</text>
</a>
</g>
</g>
<!-- Node1&#45;&gt;Node2 -->
<g id="edge7_Node000001_Node000002" class="edge">
<title>Node1&#45;&gt;Node2</title>
<g id="a_edge7_Node000001_Node000002"><a xlink:title=" ">
<path fill="none" stroke="#63b8ff" d="M92.15,-96.48C112.35,-104.61 141.46,-115.81 167.5,-124 173.73,-125.96 180.3,-127.86 186.85,-129.65"/>
<polygon fill="#63b8ff" stroke="#63b8ff" points="185.77,-132.99 196.34,-132.17 187.57,-126.22 185.77,-132.99"/>
</a>
</g>
</g>
<!-- Node3 -->
<g id="Node000003" class="node">
<title>Node3</title>
<g id="a_Node000003"><a xlink:href="$classfcmaes_1_1advretry_1_1_store.html#a97e407315b2e0c802b9d5b4414f3f91b" xlink:title="Retrieves a segment of the xs array corresponding to the provided pid.">
<polygon fill="white" stroke="#666666" points="312.88,-115 173.88,-115 173.88,-95 312.88,-95 312.88,-115"/>
<text text-anchor="middle" x="243.38" y="-101.5" font-family="Helvetica,sans-Serif" font-size="10.00">fcmaes.advretry.Store.get_x</text>
</a>
</g>
</g>
<!-- Node1&#45;&gt;Node3 -->
<g id="edge8_Node000001_Node000003" class="edge">
<title>Node1&#45;&gt;Node3</title>
<g id="a_edge8_Node000001_Node000003"><a xlink:title=" ">
<path fill="none" stroke="#63b8ff" d="M131.65,-93.02C141.69,-94.11 152.17,-95.24 162.5,-96.36"/>
<polygon fill="#63b8ff" stroke="#63b8ff" points="161.8,-99.8 172.12,-97.4 162.55,-92.84 161.8,-99.8"/>
</a>
</g>
</g>
<!-- Node4 -->
<g id="Node000004" class="node">
<title>Node4</title>
<g id="a_Node000004"><a xlink:href="$classfcmaes_1_1advretry_1_1_store.html#a907617cde0def7276f1f609d7690335f" xlink:title="Fetches a value for a given ID from a dictionary of float values.">
<polygon fill="white" stroke="#666666" points="312.88,-77 173.88,-77 173.88,-57 312.88,-57 312.88,-77"/>
<text text-anchor="middle" x="243.38" y="-63.5" font-family="Helvetica,sans-Serif" font-size="10.00">fcmaes.advretry.Store.get_y</text>
</a>
</g>
</g>
<!-- Node1&#45;&gt;Node4 -->
<g id="edge9_Node000001_Node000004" class="edge">
<title>Node1&#45;&gt;Node4</title>
<g id="a_edge9_Node000001_Node000004"><a xlink:title=" ">
<path fill="none" stroke="#63b8ff" d="M131.65,-78.98C141.69,-77.89 152.17,-76.76 162.5,-75.64"/>
<polygon fill="#63b8ff" stroke="#63b8ff" points="162.55,-79.16 172.12,-74.6 161.8,-72.2 162.55,-79.16"/>
</a>
</g>
</g>
<!-- Node5 -->
<g id="Node000005" class="node">
<title>Node5</title>
<g id="a_Node000005"><a xlink:href="$classfcmaes_1_1advretry_1_1_store.html#a0ae90f35f58deb629c18747fbf9b1cc9" xlink:title="Replaces the y and x values at a specified index.">
<polygon fill="white" stroke="#666666" points="316.62,-39 170.12,-39 170.12,-19 316.62,-19 316.62,-39"/>
<text text-anchor="middle" x="243.38" y="-25.5" font-family="Helvetica,sans-Serif" font-size="10.00">fcmaes.advretry.Store.replace</text>
</a>
</g>
</g>
<!-- Node1&#45;&gt;Node5 -->
<g id="edge10_Node000001_Node000005" class="edge">
<title>Node1&#45;&gt;Node5</title>
<g id="a_edge10_Node000001_Node000005"><a xlink:title=" ">
<path fill="none" stroke="#63b8ff" d="M92.15,-75.52C112.35,-67.39 141.46,-56.19 167.5,-48 173.73,-46.04 180.3,-44.14 186.85,-42.35"/>
<polygon fill="#63b8ff" stroke="#63b8ff" points="187.57,-45.78 196.34,-39.83 185.77,-39.01 187.57,-45.78"/>
</a>
</g>
</g>
<!-- Node6 -->
<g id="Node000006" class="node">
<title>Node6</title>
<g id="a_Node000006"><a xlink:href="$classfcmaes_1_1advretry_1_1_store.html#a732636cd5ab3c40b878ef2e0274b1d1b" xlink:title="Sets a subset of the xs list for a specific process ID.">
<polygon fill="white" stroke="#666666" points="494.25,-58 355.25,-58 355.25,-38 494.25,-38 494.25,-58"/>
<text text-anchor="middle" x="424.75" y="-44.5" font-family="Helvetica,sans-Serif" font-size="10.00">fcmaes.advretry.Store.set_x</text>
</a>
</g>
</g>
<!-- Node5&#45;&gt;Node6 -->
<g id="edge11_Node000005_Node000006" class="edge">
<title>Node5&#45;&gt;Node6</title>
<g id="a_edge11_Node000005_Node000006"><a xlink:title=" ">
<path fill="none" stroke="#63b8ff" d="M317.08,-36.7C325.88,-37.63 334.92,-38.59 343.82,-39.53"/>
<polygon fill="#63b8ff" stroke="#63b8ff" points="343.19,-42.99 353.5,-40.56 343.93,-36.03 343.19,-42.99"/>
</a>
</g>
</g>
<!-- Node7 -->
<g id="Node000007" class="node">
<title>Node7</title>
<g id="a_Node000007"><a xlink:href="$classfcmaes_1_1advretry_1_1_store.html#a12d96e54629b449293d2aabf5542ddc1" xlink:title="Sets the value of y for a given pid within the &#39;ys&#39; mapping.">
<polygon fill="white" stroke="#666666" points="494.25,-20 355.25,-20 355.25,0 494.25,0 494.25,-20"/>
<text text-anchor="middle" x="424.75" y="-6.5" font-family="Helvetica,sans-Serif" font-size="10.00">fcmaes.advretry.Store.set_y</text>
</a>
</g>
</g>
<!-- Node5&#45;&gt;Node7 -->
<g id="edge12_Node000005_Node000007" class="edge">
<title>Node5&#45;&gt;Node7</title>
<g id="a_edge12_Node000005_Node000007"><a xlink:title=" ">
<path fill="none" stroke="#63b8ff" d="M317.08,-21.3C325.88,-20.37 334.92,-19.41 343.82,-18.47"/>
<polygon fill="#63b8ff" stroke="#63b8ff" points="343.93,-21.97 353.5,-17.44 343.19,-15.01 343.93,-21.97"/>
</a>
</g>
</g>
</g>
</svg>
