<?xml version="1.0" encoding="UTF-8" standalone="no"?>
<!DOCTYPE svg PUBLIC "-//W3C//DTD SVG 1.1//EN"
 "http://www.w3.org/Graphics/SVG/1.1/DTD/svg11.dtd">
<!-- Generated by graphviz version 12.2.1 (20241206.2353)
 -->
<!-- Title: fcmaes.advretry.Store.dump Pages: 1 -->
<svg width="314pt" height="90pt"
 viewBox="0.00 0.00 313.75 90.00" xmlns="http://www.w3.org/2000/svg" xmlns:xlink="http://www.w3.org/1999/xlink">
<g id="graph0" class="graph" transform="scale(1 1) rotate(0) translate(4 86)">
<title>fcmaes.advretry.Store.dump</title>
<!-- Node1 -->
<g id="Node000001" class="node">
<title>Node1</title>
<g id="a_Node000001"><a xlink:title="Logs a summary of the execution metrics and current status.">
<polygon fill="#999999" stroke="#666666" points="305.75,-51 166.75,-51 166.75,-31 305.75,-31 305.75,-51"/>
<text text-anchor="middle" x="236.25" y="-37.5" font-family="Helvetica,sans-Serif" font-size="10.00">fcmaes.advretry.Store.dump</text>
</a>
</g>
</g>
<!-- Node2 -->
<g id="Node000002" class="node">
<title>Node2</title>
<g id="a_Node000002"><a xlink:href="$classfcmaes_1_1advretry_1_1_store.html#a7dfa5440d1d295083cef68ea37be60fe" xlink:title="Adds a result to the current optimization process, updating the best result if necessary and storing ...">
<polygon fill="white" stroke="#666666" points="130.75,-82 0,-82 0,-50 130.75,-50 130.75,-82"/>
<text text-anchor="start" x="8" y="-68.5" font-family="Helvetica,sans-Serif" font-size="10.00">fcmaes.advretry.Store.add</text>
<text text-anchor="middle" x="65.38" y="-56.5" font-family="Helvetica,sans-Serif" font-size="10.00">_result</text>
</a>
</g>
</g>
<!-- Node1&#45;&gt;Node2 -->
<g id="edge3_Node000001_Node000002" class="edge">
<title>Node1&#45;&gt;Node2</title>
<g id="a_edge3_Node000001_Node000002"><a xlink:title=" ">
<path fill="none" stroke="#63b8ff" d="M155.23,-52.85C147.17,-54.04 139.06,-55.24 131.18,-56.41"/>
<polygon fill="#63b8ff" stroke="#63b8ff" points="155.69,-56.32 165.06,-51.39 154.66,-49.39 155.69,-56.32"/>
</a>
</g>
</g>
<!-- Node3 -->
<g id="Node000003" class="node">
<title>Node3</title>
<g id="a_Node000003"><a xlink:href="$classfcmaes_1_1retry_1_1_store.html#aed35531d1489fd7b28d69dc3c9794508" xlink:title="Adds a result to the data structure, updating statistical values and recording the given data point.">
<polygon fill="white" stroke="#666666" points="122.88,-32 7.88,-32 7.88,0 122.88,0 122.88,-32"/>
<text text-anchor="start" x="15.88" y="-18.5" font-family="Helvetica,sans-Serif" font-size="10.00">fcmaes.retry.Store.add</text>
<text text-anchor="middle" x="65.38" y="-6.5" font-family="Helvetica,sans-Serif" font-size="10.00">_result</text>
</a>
</g>
</g>
<!-- Node1&#45;&gt;Node3 -->
<g id="edge4_Node000001_Node000003" class="edge">
<title>Node1&#45;&gt;Node3</title>
<g id="a_edge4_Node000001_Node000003"><a xlink:title=" ">
<path fill="none" stroke="#63b8ff" d="M155.31,-29.17C144.44,-27.56 133.48,-25.93 123.14,-24.4"/>
<polygon fill="#63b8ff" stroke="#63b8ff" points="154.66,-32.61 165.06,-30.61 155.69,-25.68 154.66,-32.61"/>
</a>
</g>
</g>
</g>
</svg>
