<?xml version="1.0" encoding="UTF-8" standalone="no"?>
<!DOCTYPE svg PUBLIC "-//W3C//DTD SVG 1.1//EN"
 "http://www.w3.org/Graphics/SVG/1.1/DTD/svg11.dtd">
<!-- Generated by graphviz version 12.2.1 (20241206.2353)
 -->
<!-- Title: pgpe::ADAM::ADAM Pages: 1 -->
<svg width="205pt" height="66pt"
 viewBox="0.00 0.00 205.00 66.00" xmlns="http://www.w3.org/2000/svg" xmlns:xlink="http://www.w3.org/1999/xlink">
<g id="graph0" class="graph" transform="scale(1 1) rotate(0) translate(4 62)">
<title>pgpe::ADAM::ADAM</title>
<!-- Node1 -->
<g id="Node000001" class="node">
<title>Node1</title>
<g id="a_Node000001"><a xlink:title=" ">
<polygon fill="#999999" stroke="#666666" points="107.5,-39 0,-39 0,-19 107.5,-19 107.5,-39"/>
<text text-anchor="middle" x="53.75" y="-25.5" font-family="Helvetica,sans-Serif" font-size="10.00">pgpe::ADAM::ADAM</text>
</a>
</g>
</g>
<!-- Node2 -->
<g id="Node000002" class="node">
<title>Node2</title>
<g id="a_Node000002"><a xlink:href="$evaluator_8h.html#a493b3a74ec3481711548e4b506b009cd" xlink:title=" ">
<polygon fill="white" stroke="#666666" points="197,-58 143.5,-58 143.5,-38 197,-38 197,-58"/>
<text text-anchor="middle" x="170.25" y="-44.5" font-family="Helvetica,sans-Serif" font-size="10.00">constant</text>
</a>
</g>
</g>
<!-- Node1&#45;&gt;Node2 -->
<g id="edge3_Node000001_Node000002" class="edge">
<title>Node1&#45;&gt;Node2</title>
<g id="a_edge3_Node000001_Node000002"><a xlink:title=" ">
<path fill="none" stroke="#63b8ff" d="M107.98,-37.83C116.12,-39.18 124.37,-40.55 132.07,-41.83"/>
<polygon fill="#63b8ff" stroke="#63b8ff" points="131.31,-45.25 141.75,-43.44 132.46,-38.35 131.31,-45.25"/>
</a>
</g>
</g>
<!-- Node3 -->
<g id="Node000003" class="node">
<title>Node3</title>
<g id="a_Node000003"><a xlink:href="$evaluator_8h.html#a909812174fa9829bc49f6e00edb00b90" xlink:title=" ">
<polygon fill="white" stroke="#666666" points="190.25,-20 150.25,-20 150.25,0 190.25,0 190.25,-20"/>
<text text-anchor="middle" x="170.25" y="-6.5" font-family="Helvetica,sans-Serif" font-size="10.00">zeros</text>
</a>
</g>
</g>
<!-- Node1&#45;&gt;Node3 -->
<g id="edge4_Node000001_Node000003" class="edge">
<title>Node1&#45;&gt;Node3</title>
<g id="a_edge4_Node000001_Node000003"><a xlink:title=" ">
<path fill="none" stroke="#63b8ff" d="M107.98,-20.17C118.49,-18.42 129.18,-16.65 138.63,-15.08"/>
<polygon fill="#63b8ff" stroke="#63b8ff" points="139.04,-18.56 148.33,-13.47 137.9,-11.66 139.04,-18.56"/>
</a>
</g>
</g>
</g>
</svg>
