<?xml version="1.0" encoding="UTF-8" standalone="no"?>
<!DOCTYPE svg PUBLIC "-//W3C//DTD SVG 1.1//EN"
 "http://www.w3.org/Graphics/SVG/1.1/DTD/svg11.dtd">
<!-- Generated by graphviz version 12.2.1 (20241206.2353)
 -->
<!-- Title: fcmaes.optimizer.random_search Pages: 1 -->
<svg width="206pt" height="356pt"
 viewBox="0.00 0.00 206.00 356.00" xmlns="http://www.w3.org/2000/svg" xmlns:xlink="http://www.w3.org/1999/xlink">
<g id="graph0" class="graph" transform="scale(1 1) rotate(0) translate(4 352)">
<title>fcmaes.optimizer.random_search</title>
<!-- Node1 -->
<g id="Node000001" class="node">
<title>Node1</title>
<g id="a_Node000001"><a xlink:title="A class for performing optimization using a random search strategy.">
<polygon fill="#999999" stroke="none" points="198,-164 0,-164 0,0 198,0 198,-164"/>
<text text-anchor="start" x="43.88" y="-150.5" font-family="Helvetica,sans-Serif" font-size="10.00">fcmaes.optimizer.random</text>
<text text-anchor="start" x="81.75" y="-138.5" font-family="Helvetica,sans-Serif" font-size="10.00">_search</text>
<text text-anchor="start" x="97.5" y="-122.5" font-family="Helvetica,sans-Serif" font-size="10.00"> </text>
<text text-anchor="start" x="4" y="-106.5" font-family="Helvetica,sans-Serif" font-size="10.00">+</text>
<text text-anchor="start" x="14" y="-106.5" font-family="Helvetica,sans-Serif" font-size="10.00">__init__(self, max</text>
<text text-anchor="start" x="14" y="-94.5" font-family="Helvetica,sans-Serif" font-size="10.00">_evaluations=50000)</text>
<text text-anchor="start" x="4" y="-78.5" font-family="Helvetica,sans-Serif" font-size="10.00">+</text>
<text text-anchor="start" x="14" y="-78.5" font-family="Helvetica,sans-Serif" font-size="10.00">Tuple[np.ndarray, float,</text>
<text text-anchor="start" x="14" y="-66.5" font-family="Helvetica,sans-Serif" font-size="10.00"> int] minimize(self, Callable</text>
<text text-anchor="start" x="14" y="-54.5" font-family="Helvetica,sans-Serif" font-size="10.00">[[ArrayLike], float] fun, Optional</text>
<text text-anchor="start" x="14" y="-42.5" font-family="Helvetica,sans-Serif" font-size="10.00">[Bounds] bounds, Optional[ArrayLike]</text>
<text text-anchor="start" x="14" y="-30.5" font-family="Helvetica,sans-Serif" font-size="10.00"> guess=None, Optional[float] sdevs</text>
<text text-anchor="start" x="14" y="-18.5" font-family="Helvetica,sans-Serif" font-size="10.00">=None, Optional[Generator] rg=Generator</text>
<text text-anchor="start" x="14" y="-6.5" font-family="Helvetica,sans-Serif" font-size="10.00">(PCG64DXSM()), store=None)</text>
<polygon fill="#666666" stroke="#666666" points="0,-134 0,-134 198,-134 198,-134 0,-134"/>
<polygon fill="#666666" stroke="#666666" points="0,-118 0,-118 198,-118 198,-118 0,-118"/>
<polygon fill="none" stroke="#666666" points="0,0 0,-164 198,-164 198,0 0,0"/>
</a>
</g>
</g>
<!-- Node2 -->
<g id="Node000002" class="node">
<title>Node2</title>
<g id="a_Node000002"><a xlink:href="$classfcmaes_1_1optimizer_1_1_optimizer.html" xlink:title="Provides functionalities for optimization tasks.">
<polygon fill="white" stroke="none" points="172.12,-348 25.88,-348 25.88,-200 172.12,-200 172.12,-348"/>
<text text-anchor="start" x="39" y="-334.5" font-family="Helvetica,sans-Serif" font-size="10.00">fcmaes.optimizer.Optimizer</text>
<text text-anchor="start" x="29.88" y="-318.5" font-family="Helvetica,sans-Serif" font-size="10.00">+</text>
<text text-anchor="start" x="39.88" y="-318.5" font-family="Helvetica,sans-Serif" font-size="10.00">max_evaluations</text>
<text text-anchor="start" x="29.88" y="-302.5" font-family="Helvetica,sans-Serif" font-size="10.00">+</text>
<text text-anchor="start" x="39.88" y="-302.5" font-family="Helvetica,sans-Serif" font-size="10.00">name</text>
<text text-anchor="start" x="29.88" y="-286.5" font-family="Helvetica,sans-Serif" font-size="10.00">+</text>
<text text-anchor="start" x="39.88" y="-286.5" font-family="Helvetica,sans-Serif" font-size="10.00">__init__(self, Optional</text>
<text text-anchor="start" x="39.88" y="-274.5" font-family="Helvetica,sans-Serif" font-size="10.00">[int] max_evaluations=50000,</text>
<text text-anchor="start" x="39.88" y="-262.5" font-family="Helvetica,sans-Serif" font-size="10.00"> Optional[str] name=&#39;&#39;)</text>
<text text-anchor="start" x="29.88" y="-246.5" font-family="Helvetica,sans-Serif" font-size="10.00">+</text>
<text text-anchor="start" x="39.88" y="-246.5" font-family="Helvetica,sans-Serif" font-size="10.00">max_eval_num(self,</text>
<text text-anchor="start" x="39.88" y="-234.5" font-family="Helvetica,sans-Serif" font-size="10.00"> store=None)</text>
<text text-anchor="start" x="29.88" y="-218.5" font-family="Helvetica,sans-Serif" font-size="10.00">+</text>
<text text-anchor="start" x="39.88" y="-218.5" font-family="Helvetica,sans-Serif" font-size="10.00">get_count_runs(self,</text>
<text text-anchor="start" x="39.88" y="-206.5" font-family="Helvetica,sans-Serif" font-size="10.00"> store=None)</text>
<polygon fill="#666666" stroke="#666666" points="25.88,-330 25.88,-330 172.12,-330 172.12,-330 25.88,-330"/>
<polygon fill="#666666" stroke="#666666" points="25.88,-298 25.88,-298 37.88,-298 37.88,-298 25.88,-298"/>
<polygon fill="#666666" stroke="#666666" points="37.88,-298 37.88,-298 172.12,-298 172.12,-298 37.88,-298"/>
<polygon fill="none" stroke="#666666" points="25.88,-200 25.88,-348 172.12,-348 172.12,-200 25.88,-200"/>
</a>
</g>
</g>
<!-- Node2&#45;&gt;Node1 -->
<g id="edge2_Node000001_Node000002" class="edge">
<title>Node2&#45;&gt;Node1</title>
<g id="a_edge2_Node000001_Node000002"><a xlink:title=" ">
<path fill="none" stroke="#63b8ff" d="M99,-188.6C99,-180.4 99,-172.11 99,-163.95"/>
<polygon fill="none" stroke="#63b8ff" points="95.5,-188.57 99,-198.57 102.5,-188.57 95.5,-188.57"/>
</a>
</g>
</g>
</g>
</svg>
