<?xml version="1.0" encoding="UTF-8" standalone="no"?>
<!DOCTYPE svg PUBLIC "-//W3C//DTD SVG 1.1//EN"
 "http://www.w3.org/Graphics/SVG/1.1/DTD/svg11.dtd">
<!-- Generated by graphviz version 12.2.1 (20241206.2353)
 -->
<!-- Title: fcmaes.multiretry.multiretry.size Pages: 1 -->
<svg width="511pt" height="40pt"
 viewBox="0.00 0.00 510.50 40.00" xmlns="http://www.w3.org/2000/svg" xmlns:xlink="http://www.w3.org/1999/xlink">
<g id="graph0" class="graph" transform="scale(1 1) rotate(0) translate(4 36)">
<title>fcmaes.multiretry.multiretry.size</title>
<!-- Node1 -->
<g id="Node000001" class="node">
<title>Node1</title>
<g id="a_Node000001"><a xlink:title="Calculates and returns the size of the problem statistics.">
<polygon fill="#999999" stroke="#666666" points="502.5,-26 347.75,-26 347.75,-6 502.5,-6 502.5,-26"/>
<text text-anchor="middle" x="425.12" y="-12.5" font-family="Helvetica,sans-Serif" font-size="10.00">fcmaes.multiretry.multiretry.size</text>
</a>
</g>
</g>
<!-- Node2 -->
<g id="Node000002" class="node">
<title>Node2</title>
<g id="a_Node000002"><a xlink:href="$classfcmaes_1_1multiretry_1_1multiretry.html#a7c6d566da882dd32bae574f6ed3fb38c" xlink:title="Dumps the problem statistics for debugging purposes.">
<polygon fill="white" stroke="#666666" points="311.75,-26 151,-26 151,-6 311.75,-6 311.75,-26"/>
<text text-anchor="middle" x="231.38" y="-12.5" font-family="Helvetica,sans-Serif" font-size="10.00">fcmaes.multiretry.multiretry.dump</text>
</a>
</g>
</g>
<!-- Node1&#45;&gt;Node2 -->
<g id="edge3_Node000001_Node000002" class="edge">
<title>Node1&#45;&gt;Node2</title>
<g id="a_edge3_Node000001_Node000002"><a xlink:title=" ">
<path fill="none" stroke="#63b8ff" d="M336.19,-16C328.12,-16 319.99,-16 312,-16"/>
<polygon fill="#63b8ff" stroke="#63b8ff" points="336,-19.5 346,-16 336,-12.5 336,-19.5"/>
</a>
</g>
</g>
<!-- Node3 -->
<g id="Node000003" class="node">
<title>Node3</title>
<g id="a_Node000003"><a xlink:href="$classfcmaes_1_1retry_1_1_store.html#aed35531d1489fd7b28d69dc3c9794508" xlink:title="Adds a result to the data structure, updating statistical values and recording the given data point.">
<polygon fill="white" stroke="#666666" points="115,-32 0,-32 0,0 115,0 115,-32"/>
<text text-anchor="start" x="8" y="-18.5" font-family="Helvetica,sans-Serif" font-size="10.00">fcmaes.retry.Store.add</text>
<text text-anchor="middle" x="57.5" y="-6.5" font-family="Helvetica,sans-Serif" font-size="10.00">_result</text>
</a>
</g>
</g>
<!-- Node2&#45;&gt;Node3 -->
<g id="edge4_Node000002_Node000003" class="edge">
<title>Node2&#45;&gt;Node3</title>
<g id="a_edge4_Node000002_Node000003"><a xlink:title=" ">
<path fill="none" stroke="#63b8ff" d="M139.23,-16C131.11,-16 123.05,-16 115.34,-16"/>
<polygon fill="#63b8ff" stroke="#63b8ff" points="139.21,-19.5 149.21,-16 139.21,-12.5 139.21,-19.5"/>
</a>
</g>
</g>
</g>
</svg>
