<?xml version="1.0" encoding="UTF-8" standalone="no"?>
<!DOCTYPE svg PUBLIC "-//W3C//DTD SVG 1.1//EN"
 "http://www.w3.org/Graphics/SVG/1.1/DTD/svg11.dtd">
<!-- Generated by graphviz version 12.2.1 (20241206.2353)
 -->
<!-- Title: mode_optimizer::MoDeOptimizer::pareto_levels Pages: 1 -->
<svg width="948pt" height="40pt"
 viewBox="0.00 0.00 948.25 40.00" xmlns="http://www.w3.org/2000/svg" xmlns:xlink="http://www.w3.org/1999/xlink">
<g id="graph0" class="graph" transform="scale(1 1) rotate(0) translate(4 36)">
<title>mode_optimizer::MoDeOptimizer::pareto_levels</title>
<!-- Node1 -->
<g id="Node000001" class="node">
<title>Node1</title>
<g id="a_Node000001"><a xlink:title=" ">
<polygon fill="#999999" stroke="#666666" points="940.25,-32 781,-32 781,0 940.25,0 940.25,-32"/>
<text text-anchor="start" x="789" y="-18.5" font-family="Helvetica,sans-Serif" font-size="10.00">mode_optimizer::MoDeOptimizer</text>
<text text-anchor="middle" x="860.62" y="-6.5" font-family="Helvetica,sans-Serif" font-size="10.00">::pareto_levels</text>
</a>
</g>
</g>
<!-- Node2 -->
<g id="Node000002" class="node">
<title>Node2</title>
<g id="a_Node000002"><a xlink:href="$classmode__optimizer_1_1_mo_de_optimizer.html#a3762607fa33f7bb558fd7aae9690fc37" xlink:title=" ">
<polygon fill="white" stroke="#666666" points="745,-32 585.75,-32 585.75,0 745,0 745,-32"/>
<text text-anchor="start" x="593.75" y="-18.5" font-family="Helvetica,sans-Serif" font-size="10.00">mode_optimizer::MoDeOptimizer</text>
<text text-anchor="middle" x="665.38" y="-6.5" font-family="Helvetica,sans-Serif" font-size="10.00">::pareto</text>
</a>
</g>
</g>
<!-- Node1&#45;&gt;Node2 -->
<g id="edge6_Node000001_Node000002" class="edge">
<title>Node1&#45;&gt;Node2</title>
<g id="a_edge6_Node000001_Node000002"><a xlink:title=" ">
<path fill="none" stroke="#63b8ff" d="M769.42,-9.26C761.37,-9.23 753.26,-9.26 745.32,-9.35"/>
<polygon fill="#63b8ff" stroke="#63b8ff" points="769.2,-12.76 779.23,-9.34 769.26,-5.76 769.2,-12.76"/>
</a>
</g>
</g>
<!-- Node2&#45;&gt;Node1 -->
<g id="edge7_Node000002_Node000001" class="edge">
<title>Node2&#45;&gt;Node1</title>
<g id="a_edge7_Node000002_Node000001"><a xlink:title=" ">
<path fill="none" stroke="#63b8ff" d="M756.64,-22.74C764.69,-22.77 772.8,-22.74 780.74,-22.65"/>
<polygon fill="#63b8ff" stroke="#63b8ff" points="756.86,-19.24 746.83,-22.66 756.8,-26.24 756.86,-19.24"/>
</a>
</g>
</g>
<!-- Node3 -->
<g id="Node000003" class="node">
<title>Node3</title>
<g id="a_Node000003"><a xlink:href="$classmode__optimizer_1_1_mo_de_optimizer.html#a8941e256d6ff3843da336b4473513363" xlink:title=" ">
<polygon fill="white" stroke="#666666" points="549.75,-32 390.5,-32 390.5,0 549.75,0 549.75,-32"/>
<text text-anchor="start" x="398.5" y="-18.5" font-family="Helvetica,sans-Serif" font-size="10.00">mode_optimizer::MoDeOptimizer</text>
<text text-anchor="middle" x="470.12" y="-6.5" font-family="Helvetica,sans-Serif" font-size="10.00">::pop_update</text>
</a>
</g>
</g>
<!-- Node2&#45;&gt;Node3 -->
<g id="edge8_Node000002_Node000003" class="edge">
<title>Node2&#45;&gt;Node3</title>
<g id="a_edge8_Node000002_Node000003"><a xlink:title=" ">
<path fill="none" stroke="#63b8ff" d="M574.17,-16C566.12,-16 558.01,-16 550.07,-16"/>
<polygon fill="#63b8ff" stroke="#63b8ff" points="573.98,-19.5 583.98,-16 573.98,-12.5 573.98,-19.5"/>
</a>
</g>
</g>
<!-- Node4 -->
<g id="Node000004" class="node">
<title>Node4</title>
<g id="a_Node000004"><a xlink:href="$classmode__optimizer_1_1_mo_de_optimizer.html#abe30b3010caaf8d4648b31adfa127fd2" xlink:title=" ">
<polygon fill="white" stroke="#666666" points="354.5,-32 195.25,-32 195.25,0 354.5,0 354.5,-32"/>
<text text-anchor="start" x="203.25" y="-18.5" font-family="Helvetica,sans-Serif" font-size="10.00">mode_optimizer::MoDeOptimizer</text>
<text text-anchor="middle" x="274.88" y="-6.5" font-family="Helvetica,sans-Serif" font-size="10.00">::tell</text>
</a>
</g>
</g>
<!-- Node3&#45;&gt;Node4 -->
<g id="edge9_Node000003_Node000004" class="edge">
<title>Node3&#45;&gt;Node4</title>
<g id="a_edge9_Node000003_Node000004"><a xlink:title=" ">
<path fill="none" stroke="#63b8ff" d="M378.92,-16C370.87,-16 362.76,-16 354.82,-16"/>
<polygon fill="#63b8ff" stroke="#63b8ff" points="378.73,-19.5 388.73,-16 378.73,-12.5 378.73,-19.5"/>
</a>
</g>
</g>
<!-- Node5 -->
<g id="Node000005" class="node">
<title>Node5</title>
<g id="a_Node000005"><a xlink:href="$classmode__optimizer_1_1_mo_de_optimizer.html#a9d11baa8f5e4d3e4f68fe678918eb09a" xlink:title=" ">
<polygon fill="white" stroke="#666666" points="159.25,-32 0,-32 0,0 159.25,0 159.25,-32"/>
<text text-anchor="start" x="8" y="-18.5" font-family="Helvetica,sans-Serif" font-size="10.00">mode_optimizer::MoDeOptimizer</text>
<text text-anchor="middle" x="79.62" y="-6.5" font-family="Helvetica,sans-Serif" font-size="10.00">::tell</text>
</a>
</g>
</g>
<!-- Node4&#45;&gt;Node5 -->
<g id="edge10_Node000004_Node000005" class="edge">
<title>Node4&#45;&gt;Node5</title>
<g id="a_edge10_Node000004_Node000005"><a xlink:title=" ">
<path fill="none" stroke="#63b8ff" d="M183.67,-16C175.62,-16 167.51,-16 159.57,-16"/>
<polygon fill="#63b8ff" stroke="#63b8ff" points="183.48,-19.5 193.48,-16 183.48,-12.5 183.48,-19.5"/>
</a>
</g>
</g>
</g>
</svg>
