<?xml version="1.0" encoding="UTF-8" standalone="no"?>
<!DOCTYPE svg PUBLIC "-//W3C//DTD SVG 1.1//EN"
 "http://www.w3.org/Graphics/SVG/1.1/DTD/svg11.dtd">
<!-- Generated by graphviz version 12.2.1 (20241206.2353)
 -->
<!-- Title: CBiteRnd::getInt Pages: 1 -->
<svg width="593pt" height="501pt"
 viewBox="0.00 0.00 592.50 500.85" xmlns="http://www.w3.org/2000/svg" xmlns:xlink="http://www.w3.org/1999/xlink">
<g id="graph0" class="graph" transform="scale(1 1) rotate(0) translate(4 496.85)">
<title>CBiteRnd::getInt</title>
<!-- Node1 -->
<g id="Node000001" class="node">
<title>Node1</title>
<g id="a_Node000001"><a xlink:title=" ">
<polygon fill="#999999" stroke="#666666" points="584.5,-247 495,-247 495,-227 584.5,-227 584.5,-247"/>
<text text-anchor="middle" x="539.75" y="-233.5" font-family="Helvetica,sans-Serif" font-size="10.00">CBiteRnd::getInt</text>
</a>
</g>
</g>
<!-- Node2 -->
<g id="Node000002" class="node">
<title>Node2</title>
<g id="a_Node000002"><a xlink:href="$class_c_bite_opt.html#aaf2f5bc8a214a95532426c9a9b38fdb8" xlink:title=" ">
<polygon fill="white" stroke="#666666" points="276.5,-380 157,-380 157,-360 276.5,-360 276.5,-380"/>
<text text-anchor="middle" x="216.75" y="-366.5" font-family="Helvetica,sans-Serif" font-size="10.00">CBiteOpt::generateSol1</text>
</a>
</g>
</g>
<!-- Node1&#45;&gt;Node2 -->
<g id="edge31_Node000001_Node000002" class="edge">
<title>Node1&#45;&gt;Node2</title>
<g id="a_edge31_Node000001_Node000002"><a xlink:title=" ">
<path fill="none" stroke="#63b8ff" d="M523.78,-256.19C509.14,-273.64 485.25,-298.77 459,-313 401.68,-344.07 327.71,-358.33 276.88,-364.79"/>
<polygon fill="#63b8ff" stroke="#63b8ff" points="526.38,-258.55 529.97,-248.58 520.95,-254.13 526.38,-258.55"/>
</a>
</g>
</g>
<!-- Node4 -->
<g id="Node000004" class="node">
<title>Node4</title>
<g id="a_Node000004"><a xlink:href="$class_c_bite_opt.html#ab6de0da3b279e77788efed7d3e05a0e2" xlink:title=" ">
<polygon fill="white" stroke="#666666" points="276.5,-418 157,-418 157,-398 276.5,-398 276.5,-418"/>
<text text-anchor="middle" x="216.75" y="-404.5" font-family="Helvetica,sans-Serif" font-size="10.00">CBiteOpt::generateSol2</text>
</a>
</g>
</g>
<!-- Node1&#45;&gt;Node4 -->
<g id="edge33_Node000001_Node000004" class="edge">
<title>Node1&#45;&gt;Node4</title>
<g id="a_edge33_Node000001_Node000004"><a xlink:title=" ">
<path fill="none" stroke="#63b8ff" d="M529.45,-257.71C517.04,-282.94 492.66,-325.04 459,-348 404.45,-385.22 328.93,-399.38 276.99,-404.75"/>
<polygon fill="#63b8ff" stroke="#63b8ff" points="532.55,-259.34 533.65,-248.8 526.22,-256.35 532.55,-259.34"/>
</a>
</g>
</g>
<!-- Node5 -->
<g id="Node000005" class="node">
<title>Node5</title>
<g id="a_Node000005"><a xlink:href="$class_c_bite_opt.html#abd6c435c82a97476332139663d9a1c82" xlink:title=" ">
<polygon fill="white" stroke="#666666" points="459,-228 334.25,-228 334.25,-208 459,-208 459,-228"/>
<text text-anchor="middle" x="396.62" y="-214.5" font-family="Helvetica,sans-Serif" font-size="10.00">CBiteOpt::generateSol2b</text>
</a>
</g>
</g>
<!-- Node1&#45;&gt;Node5 -->
<g id="edge35_Node000001_Node000005" class="edge">
<title>Node1&#45;&gt;Node5</title>
<g id="a_edge35_Node000001_Node000005"><a xlink:title=" ">
<path fill="none" stroke="#63b8ff" d="M483.51,-229.56C475.58,-228.5 467.39,-227.39 459.35,-226.31"/>
<polygon fill="#63b8ff" stroke="#63b8ff" points="482.99,-233.02 493.37,-230.89 483.93,-226.09 482.99,-233.02"/>
</a>
</g>
</g>
<!-- Node6 -->
<g id="Node000006" class="node">
<title>Node6</title>
<g id="a_Node000006"><a xlink:href="$class_c_bite_opt.html#a2363863090db7154792f78ec46abcf47" xlink:title=" ">
<polygon fill="white" stroke="#666666" points="459,-190 334.25,-190 334.25,-170 459,-170 459,-190"/>
<text text-anchor="middle" x="396.62" y="-176.5" font-family="Helvetica,sans-Serif" font-size="10.00">CBiteOpt::generateSol2c</text>
</a>
</g>
</g>
<!-- Node1&#45;&gt;Node6 -->
<g id="edge37_Node000001_Node000006" class="edge">
<title>Node1&#45;&gt;Node6</title>
<g id="a_edge37_Node000001_Node000006"><a xlink:title=" ">
<path fill="none" stroke="#63b8ff" d="M509.02,-221.57C494.21,-214.22 475.9,-205.6 459,-199 451.21,-195.96 442.71,-193.06 434.6,-190.5"/>
<polygon fill="#63b8ff" stroke="#63b8ff" points="507.25,-224.6 517.76,-225.98 510.4,-218.35 507.25,-224.6"/>
</a>
</g>
</g>
<!-- Node7 -->
<g id="Node000007" class="node">
<title>Node7</title>
<g id="a_Node000007"><a xlink:href="$class_c_bite_opt.html#a76fa9d8bf4abde13b69e06761acc82f5" xlink:title=" ">
<polygon fill="white" stroke="#666666" points="279.12,-152 154.38,-152 154.38,-132 279.12,-132 279.12,-152"/>
<text text-anchor="middle" x="216.75" y="-138.5" font-family="Helvetica,sans-Serif" font-size="10.00">CBiteOpt::generateSol2d</text>
</a>
</g>
</g>
<!-- Node1&#45;&gt;Node7 -->
<g id="edge41_Node000001_Node000007" class="edge">
<title>Node1&#45;&gt;Node7</title>
<g id="a_edge41_Node000001_Node000007"><a xlink:title=" ">
<path fill="none" stroke="#63b8ff" d="M524.71,-217.46C510.44,-199.31 486.55,-173.3 459,-161 402.03,-135.56 329.98,-133.24 279.51,-135.78"/>
<polygon fill="#63b8ff" stroke="#63b8ff" points="521.88,-219.51 530.7,-225.38 527.46,-215.29 521.88,-219.51"/>
</a>
</g>
</g>
<!-- Node8 -->
<g id="Node000008" class="node">
<title>Node8</title>
<g id="a_Node000008"><a xlink:href="$class_c_bite_opt.html#a01e7f5a94a2ae837844f8c60ddf21db6" xlink:title=" ">
<polygon fill="white" stroke="#666666" points="276.5,-266 157,-266 157,-246 276.5,-246 276.5,-266"/>
<text text-anchor="middle" x="216.75" y="-252.5" font-family="Helvetica,sans-Serif" font-size="10.00">CBiteOpt::generateSol5</text>
</a>
</g>
</g>
<!-- Node1&#45;&gt;Node8 -->
<g id="edge42_Node000001_Node000008" class="edge">
<title>Node1&#45;&gt;Node8</title>
<g id="a_edge42_Node000001_Node000008"><a xlink:title=" ">
<path fill="none" stroke="#63b8ff" d="M483.37,-240.28C425.78,-243.69 335.95,-249 276.98,-252.49"/>
<polygon fill="#63b8ff" stroke="#63b8ff" points="483.5,-243.78 493.28,-239.69 483.09,-236.79 483.5,-243.78"/>
</a>
</g>
</g>
<!-- Node9 -->
<g id="Node000009" class="node">
<title>Node9</title>
<g id="a_Node000009"><a xlink:href="$class_c_bite_opt.html#a001440627928387b57b5f266696ba330" xlink:title=" ">
<polygon fill="white" stroke="#666666" points="456.38,-492 336.88,-492 336.88,-472 456.38,-472 456.38,-492"/>
<text text-anchor="middle" x="396.62" y="-478.5" font-family="Helvetica,sans-Serif" font-size="10.00">CBiteOpt::generateSol6</text>
</a>
</g>
</g>
<!-- Node1&#45;&gt;Node9 -->
<g id="edge44_Node000001_Node000009" class="edge">
<title>Node1&#45;&gt;Node9</title>
<g id="a_edge44_Node000001_Node000009"><a xlink:title=" ">
<path fill="none" stroke="#63b8ff" d="M537.19,-258.38C532.83,-302.43 516.74,-403.97 459,-461 454.59,-465.35 449.25,-468.8 443.57,-471.54"/>
<polygon fill="#63b8ff" stroke="#63b8ff" points="540.66,-258.88 538.03,-248.62 533.68,-258.28 540.66,-258.88"/>
</a>
</g>
</g>
<!-- Node10 -->
<g id="Node000010" class="node">
<title>Node10</title>
<g id="a_Node000010"><a xlink:href="$class_c_bite_opt.html#adca09db7345122f1da38d8f5c1800d83" xlink:title=" ">
<polygon fill="white" stroke="#666666" points="456.38,-452 336.88,-452 336.88,-432 456.38,-432 456.38,-452"/>
<text text-anchor="middle" x="396.62" y="-438.5" font-family="Helvetica,sans-Serif" font-size="10.00">CBiteOpt::generateSol9</text>
</a>
</g>
</g>
<!-- Node1&#45;&gt;Node10 -->
<g id="edge46_Node000001_Node000010" class="edge">
<title>Node1&#45;&gt;Node10</title>
<g id="a_edge46_Node000001_Node000010"><a xlink:title=" ">
<path fill="none" stroke="#63b8ff" d="M534.2,-258.23C525.48,-294.32 503.2,-368.09 459,-413 451.06,-421.06 440.45,-427.16 430.28,-431.63"/>
<polygon fill="#63b8ff" stroke="#63b8ff" points="537.58,-259.15 536.4,-248.62 530.76,-257.59 537.58,-259.15"/>
</a>
</g>
</g>
<!-- Node11 -->
<g id="Node000011" class="node">
<title>Node11</title>
<g id="a_Node000011"><a xlink:href="$class_c_bite_opt_deep.html#a5f9dce3d0bcb37dd0d63fec707204786" xlink:title=" ">
<polygon fill="white" stroke="#666666" points="457.88,-96 335.38,-96 335.38,-76 457.88,-76 457.88,-96"/>
<text text-anchor="middle" x="396.62" y="-82.5" font-family="Helvetica,sans-Serif" font-size="10.00">CBiteOptDeep::optimize</text>
</a>
</g>
</g>
<!-- Node1&#45;&gt;Node11 -->
<g id="edge48_Node000001_Node000011" class="edge">
<title>Node1&#45;&gt;Node11</title>
<g id="a_edge48_Node000001_Node000011"><a xlink:title=" ">
<path fill="none" stroke="#63b8ff" d="M527.07,-217.07C512.9,-193.94 487.35,-155.47 459,-128 446.11,-115.51 429.12,-104.2 416.29,-96.47"/>
<polygon fill="#63b8ff" stroke="#63b8ff" points="523.99,-218.73 532.14,-225.51 529.99,-215.13 523.99,-218.73"/>
</a>
</g>
</g>
<!-- Node13 -->
<g id="Node000013" class="node">
<title>Node13</title>
<g id="a_Node000013"><a xlink:href="$class_c_d_e_opt.html#a819e3692005dd630f7bc83d4444e23ee" xlink:title=" ">
<polygon fill="white" stroke="#666666" points="444.75,-58 348.5,-58 348.5,-38 444.75,-38 444.75,-58"/>
<text text-anchor="middle" x="396.62" y="-44.5" font-family="Helvetica,sans-Serif" font-size="10.00">CDEOpt::optimize</text>
</a>
</g>
</g>
<!-- Node1&#45;&gt;Node13 -->
<g id="edge51_Node000001_Node000013" class="edge">
<title>Node1&#45;&gt;Node13</title>
<g id="a_edge51_Node000001_Node000013"><a xlink:title=" ">
<path fill="none" stroke="#63b8ff" d="M534.63,-215.82C526.54,-179.94 505.19,-107.2 459,-67 454.88,-63.41 450.08,-60.5 445.03,-58.14"/>
<polygon fill="#63b8ff" stroke="#63b8ff" points="531.15,-216.32 536.64,-225.38 538,-214.87 531.15,-216.32"/>
</a>
</g>
</g>
<!-- Node14 -->
<g id="Node000014" class="node">
<title>Node14</title>
<g id="a_Node000014"><a xlink:href="$class_c_bite_sel_base.html#a608b89514f2f4430e4e0a6ff6660c7cf" xlink:title=" ">
<polygon fill="white" stroke="#666666" points="449.25,-20 344,-20 344,0 449.25,0 449.25,-20"/>
<text text-anchor="middle" x="396.62" y="-6.5" font-family="Helvetica,sans-Serif" font-size="10.00">CBiteSelBase::reset</text>
</a>
</g>
</g>
<!-- Node1&#45;&gt;Node14 -->
<g id="edge52_Node000001_Node000014" class="edge">
<title>Node1&#45;&gt;Node14</title>
<g id="a_edge52_Node000001_Node000014"><a xlink:title=" ">
<path fill="none" stroke="#63b8ff" d="M536.62,-215.29C531.32,-173.23 513.75,-80.26 459,-29 455.34,-25.57 451.06,-22.76 446.51,-20.45"/>
<polygon fill="#63b8ff" stroke="#63b8ff" points="533.12,-215.56 537.72,-225.1 540.08,-214.77 533.12,-215.56"/>
</a>
</g>
</g>
<!-- Node16 -->
<g id="Node000016" class="node">
<title>Node16</title>
<g id="a_Node000016"><a xlink:href="$class_c_bite_opt.html#a344271b2490d03eaa0c8e1ab062d916d" xlink:title=" ">
<polygon fill="white" stroke="#666666" points="457.12,-304 336.12,-304 336.12,-284 457.12,-284 457.12,-304"/>
<text text-anchor="middle" x="396.62" y="-290.5" font-family="Helvetica,sans-Serif" font-size="10.00">CBiteOpt::selectParPop</text>
</a>
</g>
</g>
<!-- Node1&#45;&gt;Node16 -->
<g id="edge54_Node000001_Node000016" class="edge">
<title>Node1&#45;&gt;Node16</title>
<g id="a_edge54_Node000001_Node000016"><a xlink:title=" ">
<path fill="none" stroke="#63b8ff" d="M503.46,-251.78C489.62,-257.53 473.59,-264.13 459,-270 447.75,-274.53 435.29,-279.42 424.56,-283.6"/>
<polygon fill="#63b8ff" stroke="#63b8ff" points="504.73,-255.04 512.62,-247.96 502.04,-248.58 504.73,-255.04"/>
</a>
</g>
</g>
<!-- Node3 -->
<g id="Node000003" class="node">
<title>Node3</title>
<g id="a_Node000003"><a xlink:href="$class_c_bite_opt.html#a2f56a9d5d682c92e2da1234ed68d54ed" xlink:title=" ">
<polygon fill="white" stroke="#666666" points="99.25,-323 0,-323 0,-303 99.25,-303 99.25,-323"/>
<text text-anchor="middle" x="49.62" y="-309.5" font-family="Helvetica,sans-Serif" font-size="10.00">CBiteOpt::optimize</text>
</a>
</g>
</g>
<!-- Node2&#45;&gt;Node3 -->
<g id="edge32_Node000002_Node000003" class="edge">
<title>Node2&#45;&gt;Node3</title>
<g id="a_edge32_Node000002_Node000003"><a xlink:title=" ">
<path fill="none" stroke="#63b8ff" d="M154.24,-356.77C147.78,-354.99 141.35,-353.07 135.25,-351 112.68,-343.35 87.92,-331.84 71.05,-323.5"/>
<polygon fill="#63b8ff" stroke="#63b8ff" points="153.07,-360.08 163.63,-359.21 154.83,-353.3 153.07,-360.08"/>
</a>
</g>
</g>
<!-- Node4&#45;&gt;Node3 -->
<g id="edge34_Node000004_Node000003" class="edge">
<title>Node4&#45;&gt;Node3</title>
<g id="a_edge34_Node000004_Node000003"><a xlink:title=" ">
<path fill="none" stroke="#63b8ff" d="M146.13,-393.96C142.38,-392.46 138.73,-390.82 135.25,-389 102.88,-372.07 73.1,-339.92 59.07,-323.39"/>
<polygon fill="#63b8ff" stroke="#63b8ff" points="144.87,-397.22 155.47,-397.25 147.2,-390.62 144.87,-397.22"/>
</a>
</g>
</g>
<!-- Node5&#45;&gt;Node3 -->
<g id="edge36_Node000005_Node000003" class="edge">
<title>Node5&#45;&gt;Node3</title>
<g id="a_edge36_Node000005_Node000003"><a xlink:title=" ">
<path fill="none" stroke="#63b8ff" d="M322.63,-210.99C268.74,-208.69 194.72,-211.69 135.25,-237 101.27,-251.46 71.78,-285.35 58.35,-302.56"/>
<polygon fill="#63b8ff" stroke="#63b8ff" points="322.14,-214.46 332.3,-211.47 322.49,-207.47 322.14,-214.46"/>
</a>
</g>
</g>
<!-- Node6&#45;&gt;Node3 -->
<g id="edge40_Node000006_Node000003" class="edge">
<title>Node6&#45;&gt;Node3</title>
<g id="a_edge40_Node000006_Node000003"><a xlink:title=" ">
<path fill="none" stroke="#63b8ff" d="M322.42,-172.54C267.61,-170.32 192.55,-174.65 135.25,-206 93.9,-228.62 65.7,-280.73 55.19,-302.81"/>
<polygon fill="#63b8ff" stroke="#63b8ff" points="322.12,-176.03 332.28,-173.03 322.46,-169.03 322.12,-176.03"/>
</a>
</g>
</g>
<!-- Node6&#45;&gt;Node7 -->
<g id="edge38_Node000006_Node000007" class="edge">
<title>Node6&#45;&gt;Node7</title>
<g id="a_edge38_Node000006_Node000007"><a xlink:title=" ">
<path fill="none" stroke="#63b8ff" d="M335.46,-167.15C313.06,-162.36 287.94,-156.99 266.67,-152.45"/>
<polygon fill="#63b8ff" stroke="#63b8ff" points="334.56,-170.53 345.07,-169.2 336.02,-163.69 334.56,-170.53"/>
</a>
</g>
</g>
<!-- Node7&#45;&gt;Node3 -->
<g id="edge39_Node000007_Node000003" class="edge">
<title>Node7&#45;&gt;Node3</title>
<g id="a_edge39_Node000007_Node000003"><a xlink:title=" ">
<path fill="none" stroke="#63b8ff" d="M149.9,-156.89C144.68,-159.46 139.71,-162.47 135.25,-166 87.67,-203.63 61.87,-275.88 53.6,-302.67"/>
<polygon fill="#63b8ff" stroke="#63b8ff" points="150.98,-160.24 158.79,-153.08 148.22,-153.81 150.98,-160.24"/>
</a>
</g>
</g>
<!-- Node8&#45;&gt;Node3 -->
<g id="edge43_Node000008_Node000003" class="edge">
<title>Node8&#45;&gt;Node3</title>
<g id="a_edge43_Node000008_Node000003"><a xlink:title=" ">
<path fill="none" stroke="#63b8ff" d="M154.24,-269.23C147.78,-271.01 141.35,-272.93 135.25,-275 112.68,-282.65 87.92,-294.16 71.05,-302.5"/>
<polygon fill="#63b8ff" stroke="#63b8ff" points="154.83,-272.7 163.63,-266.79 153.07,-265.92 154.83,-272.7"/>
</a>
</g>
</g>
<!-- Node9&#45;&gt;Node3 -->
<g id="edge45_Node000009_Node000003" class="edge">
<title>Node9&#45;&gt;Node3</title>
<g id="a_edge45_Node000009_Node000003"><a xlink:title=" ">
<path fill="none" stroke="#63b8ff" d="M325.23,-491.38C269.41,-495.18 191.68,-492.01 135.25,-456 84.91,-423.88 60.65,-350.21 53.21,-323.18"/>
<polygon fill="#63b8ff" stroke="#63b8ff" points="325.23,-494.89 334.93,-490.63 324.68,-487.92 325.23,-494.89"/>
</a>
</g>
</g>
<!-- Node10&#45;&gt;Node3 -->
<g id="edge47_Node000010_Node000003" class="edge">
<title>Node10&#45;&gt;Node3</title>
<g id="a_edge47_Node000010_Node000003"><a xlink:title=" ">
<path fill="none" stroke="#63b8ff" d="M325.06,-453.45C270.05,-458.86 193.47,-458.42 135.25,-427 91.65,-403.47 64.35,-346.61 54.63,-323.27"/>
<polygon fill="#63b8ff" stroke="#63b8ff" points="325.39,-456.93 334.96,-452.38 324.64,-449.98 325.39,-456.93"/>
</a>
</g>
</g>
<!-- Node11&#45;&gt;Node11 -->
<g id="edge50_Node000011_Node000011" class="edge">
<title>Node11&#45;&gt;Node11</title>
<g id="a_edge50_Node000011_Node000011"><a xlink:title=" ">
<path fill="none" stroke="#63b8ff" d="M421.92,-107.44C418.66,-111.3 410.23,-114 396.62,-114 371.75,-114 364.17,-104.98 373.88,-96.34"/>
<polygon fill="#63b8ff" stroke="#63b8ff" points="425.36,-106.77 419.71,-97.81 418.54,-108.34 425.36,-106.77"/>
</a>
</g>
</g>
<!-- Node12 -->
<g id="Node000012" class="node">
<title>Node12</title>
<g id="a_Node000012"><a xlink:href="$classbiteopt_1_1_bite_optimizer.html#a7f48d5b15bac207bebbc9492708fb3fd" xlink:title=" ">
<polygon fill="white" stroke="#666666" points="272,-102 161.5,-102 161.5,-70 272,-70 272,-102"/>
<text text-anchor="start" x="169.5" y="-88.5" font-family="Helvetica,sans-Serif" font-size="10.00">biteopt::BiteOptimizer</text>
<text text-anchor="middle" x="216.75" y="-76.5" font-family="Helvetica,sans-Serif" font-size="10.00">::doOptimize</text>
</a>
</g>
</g>
<!-- Node11&#45;&gt;Node12 -->
<g id="edge49_Node000011_Node000012" class="edge">
<title>Node11&#45;&gt;Node12</title>
<g id="a_edge49_Node000011_Node000012"><a xlink:title=" ">
<path fill="none" stroke="#63b8ff" d="M323.76,-86C306.57,-86 288.49,-86 272.23,-86"/>
<polygon fill="#63b8ff" stroke="#63b8ff" points="323.39,-89.5 333.39,-86 323.39,-82.5 323.39,-89.5"/>
</a>
</g>
</g>
<!-- Node15 -->
<g id="Node000015" class="node">
<title>Node15</title>
<g id="a_Node000015"><a xlink:href="$classexamples_1_1siemens_1_1_plant.html#a4570217ffc213f931499ca5ca147819c" xlink:title=" ">
<polygon fill="white" stroke="#666666" points="298.25,-20 135.25,-20 135.25,0 298.25,0 298.25,-20"/>
<text text-anchor="middle" x="216.75" y="-6.5" font-family="Helvetica,sans-Serif" font-size="10.00">examples.siemens.Plant.simulate</text>
</a>
</g>
</g>
<!-- Node14&#45;&gt;Node15 -->
<g id="edge53_Node000014_Node000015" class="edge">
<title>Node14&#45;&gt;Node15</title>
<g id="a_edge53_Node000014_Node000015"><a xlink:title=" ">
<path fill="none" stroke="#63b8ff" d="M332.48,-10C321.49,-10 309.92,-10 298.53,-10"/>
<polygon fill="#63b8ff" stroke="#63b8ff" points="332.18,-13.5 342.18,-10 332.18,-6.5 332.18,-13.5"/>
</a>
</g>
</g>
<!-- Node16&#45;&gt;Node2 -->
<g id="edge55_Node000016_Node000002" class="edge">
<title>Node16&#45;&gt;Node2</title>
<g id="a_edge55_Node000016_Node000002"><a xlink:title=" ">
<path fill="none" stroke="#63b8ff" d="M366.06,-309.89C355.9,-315.48 344.5,-321.89 334.25,-328 317.94,-337.72 315.74,-343.6 298.25,-351 290.31,-354.36 281.68,-357.18 273.1,-359.54"/>
<polygon fill="#63b8ff" stroke="#63b8ff" points="367.67,-313 374.77,-305.14 364.32,-306.85 367.67,-313"/>
</a>
</g>
</g>
<!-- Node16&#45;&gt;Node8 -->
<g id="edge58_Node000016_Node000008" class="edge">
<title>Node16&#45;&gt;Node8</title>
<g id="a_edge58_Node000016_Node000008"><a xlink:title=" ">
<path fill="none" stroke="#63b8ff" d="M335.46,-281.15C313.06,-276.36 287.94,-270.99 266.67,-266.45"/>
<polygon fill="#63b8ff" stroke="#63b8ff" points="334.56,-284.53 345.07,-283.2 336.02,-277.69 334.56,-284.53"/>
</a>
</g>
</g>
<!-- Node17 -->
<g id="Node000017" class="node">
<title>Node17</title>
<g id="a_Node000017"><a xlink:href="$class_c_bite_opt.html#ae48399aea9fc3c2e01b370b846d88c82" xlink:title=" ">
<polygon fill="white" stroke="#666666" points="276.5,-342 157,-342 157,-322 276.5,-322 276.5,-342"/>
<text text-anchor="middle" x="216.75" y="-328.5" font-family="Helvetica,sans-Serif" font-size="10.00">CBiteOpt::generateSol4</text>
</a>
</g>
</g>
<!-- Node16&#45;&gt;Node17 -->
<g id="edge56_Node000016_Node000017" class="edge">
<title>Node16&#45;&gt;Node17</title>
<g id="a_edge56_Node000016_Node000017"><a xlink:title=" ">
<path fill="none" stroke="#63b8ff" d="M335.46,-306.85C313.06,-311.64 287.94,-317.01 266.67,-321.55"/>
<polygon fill="#63b8ff" stroke="#63b8ff" points="336.02,-310.31 345.07,-304.8 334.56,-303.47 336.02,-310.31"/>
</a>
</g>
</g>
<!-- Node18 -->
<g id="Node000018" class="node">
<title>Node18</title>
<g id="a_Node000018"><a xlink:href="$class_c_bite_opt.html#aac1bd4dd832e20880872b94b07773946" xlink:title=" ">
<polygon fill="white" stroke="#666666" points="279.12,-304 154.38,-304 154.38,-284 279.12,-284 279.12,-304"/>
<text text-anchor="middle" x="216.75" y="-290.5" font-family="Helvetica,sans-Serif" font-size="10.00">CBiteOpt::generateSol5b</text>
</a>
</g>
</g>
<!-- Node16&#45;&gt;Node18 -->
<g id="edge59_Node000016_Node000018" class="edge">
<title>Node16&#45;&gt;Node18</title>
<g id="a_edge59_Node000016_Node000018"><a xlink:title=" ">
<path fill="none" stroke="#63b8ff" d="M324.63,-294C309.68,-294 294.02,-294 279.44,-294"/>
<polygon fill="#63b8ff" stroke="#63b8ff" points="324.39,-297.5 334.39,-294 324.39,-290.5 324.39,-297.5"/>
</a>
</g>
</g>
<!-- Node17&#45;&gt;Node3 -->
<g id="edge57_Node000017_Node000003" class="edge">
<title>Node17&#45;&gt;Node3</title>
<g id="a_edge57_Node000017_Node000003"><a xlink:title=" ">
<path fill="none" stroke="#63b8ff" d="M145.48,-323.91C130.02,-322.14 113.97,-320.29 99.57,-318.63"/>
<polygon fill="#63b8ff" stroke="#63b8ff" points="144.76,-327.36 155.1,-325.02 145.56,-320.4 144.76,-327.36"/>
</a>
</g>
</g>
<!-- Node18&#45;&gt;Node3 -->
<g id="edge60_Node000018_Node000003" class="edge">
<title>Node18&#45;&gt;Node3</title>
<g id="a_edge60_Node000018_Node000003"><a xlink:title=" ">
<path fill="none" stroke="#63b8ff" d="M143.11,-302.36C128.37,-304.05 113.21,-305.8 99.53,-307.37"/>
<polygon fill="#63b8ff" stroke="#63b8ff" points="143.23,-305.87 152.76,-301.25 142.43,-298.91 143.23,-305.87"/>
</a>
</g>
</g>
</g>
</svg>
