<?xml version="1.0" encoding="UTF-8" standalone="no"?>
<!DOCTYPE svg PUBLIC "-//W3C//DTD SVG 1.1//EN"
 "http://www.w3.org/Graphics/SVG/1.1/DTD/svg11.dtd">
<!-- Generated by graphviz version 12.2.1 (20241206.2353)
 -->
<!-- Title: fcmaes.mode.MODE.tell Pages: 1 -->
<svg width="608pt" height="116pt"
 viewBox="0.00 0.00 607.50 116.00" xmlns="http://www.w3.org/2000/svg" xmlns:xlink="http://www.w3.org/1999/xlink">
<g id="graph0" class="graph" transform="scale(1 1) rotate(0) translate(4 112)">
<title>fcmaes.mode.MODE.tell</title>
<!-- Node1 -->
<g id="Node000001" class="node">
<title>Node1</title>
<g id="a_Node000001"><a xlink:title="Updates the internal population data with the given ys values, and optionally, with the corresponding...">
<polygon fill="#999999" stroke="#666666" points="124,-64 0,-64 0,-44 124,-44 124,-64"/>
<text text-anchor="middle" x="62" y="-50.5" font-family="Helvetica,sans-Serif" font-size="10.00">fcmaes.mode.MODE.tell</text>
</a>
</g>
</g>
<!-- Node2 -->
<g id="Node000002" class="node">
<title>Node2</title>
<g id="a_Node000002"><a xlink:href="$classfcmaes_1_1mode_1_1_m_o_d_e.html#a29791dbcb2e070361529475630de2052" xlink:title="Updates the population by performing non&#45;dominated sorting, crowding distance sorting,...">
<polygon fill="white" stroke="#666666" points="287,-70 160,-70 160,-38 287,-38 287,-70"/>
<text text-anchor="start" x="168" y="-56.5" font-family="Helvetica,sans-Serif" font-size="10.00">fcmaes.mode.MODE.pop</text>
<text text-anchor="middle" x="223.5" y="-44.5" font-family="Helvetica,sans-Serif" font-size="10.00">_update</text>
</a>
</g>
</g>
<!-- Node1&#45;&gt;Node2 -->
<g id="edge8_Node000001_Node000002" class="edge">
<title>Node1&#45;&gt;Node2</title>
<g id="a_edge8_Node000001_Node000002"><a xlink:title=" ">
<path fill="none" stroke="#63b8ff" d="M124.21,-54C132.09,-54 140.23,-54 148.29,-54"/>
<polygon fill="#63b8ff" stroke="#63b8ff" points="148.09,-57.5 158.09,-54 148.09,-50.5 148.09,-57.5"/>
</a>
</g>
</g>
<!-- Node3 -->
<g id="Node000003" class="node">
<title>Node3</title>
<g id="a_Node000003"><a xlink:href="$namespacefcmaes_1_1mode.html#a0f27ab476c153a96dba3568003ab075a" xlink:title="Calculates the crowding distance for the first objective in a multi&#45;objective optimization problem.">
<polygon fill="white" stroke="#666666" points="448.5,-108 323,-108 323,-88 448.5,-88 448.5,-108"/>
<text text-anchor="middle" x="385.75" y="-94.5" font-family="Helvetica,sans-Serif" font-size="10.00">fcmaes.mode.crowd_dist</text>
</a>
</g>
</g>
<!-- Node2&#45;&gt;Node3 -->
<g id="edge9_Node000002_Node000003" class="edge">
<title>Node2&#45;&gt;Node3</title>
<g id="a_edge9_Node000002_Node000003"><a xlink:title=" ">
<path fill="none" stroke="#63b8ff" d="M284.17,-70.38C301.23,-75.07 319.62,-80.12 335.95,-84.6"/>
<polygon fill="#63b8ff" stroke="#63b8ff" points="334.86,-87.93 345.43,-87.2 336.71,-81.18 334.86,-87.93"/>
</a>
</g>
</g>
<!-- Node4 -->
<g id="Node000004" class="node">
<title>Node4</title>
<g id="a_Node000004"><a xlink:href="$namespacefcmaes_1_1mode.html#aee5b0cd4fba6d7edff0afe48a8bc636a" xlink:title="Determines Pareto domination levels for a set of solutions considering objectives and constraint viol...">
<polygon fill="white" stroke="#666666" points="438.38,-70 333.12,-70 333.12,-38 438.38,-38 438.38,-70"/>
<text text-anchor="start" x="341.12" y="-56.5" font-family="Helvetica,sans-Serif" font-size="10.00">fcmaes.mode.pareto</text>
<text text-anchor="middle" x="385.75" y="-44.5" font-family="Helvetica,sans-Serif" font-size="10.00">_domination</text>
</a>
</g>
</g>
<!-- Node2&#45;&gt;Node4 -->
<g id="edge10_Node000002_Node000004" class="edge">
<title>Node2&#45;&gt;Node4</title>
<g id="a_edge10_Node000002_Node000004"><a xlink:title=" ">
<path fill="none" stroke="#63b8ff" d="M287.38,-54C298.5,-54 310.1,-54 321.24,-54"/>
<polygon fill="#63b8ff" stroke="#63b8ff" points="321.14,-57.5 331.14,-54 321.14,-50.5 321.14,-57.5"/>
</a>
</g>
</g>
<!-- Node8 -->
<g id="Node000008" class="node">
<title>Node8</title>
<g id="a_Node000008"><a xlink:href="$namespacefcmaes_1_1mode.html#afba15234474d356adb0ed83aa94f73a6" xlink:title="Applies genetic variation operations, including simulated binary crossover (SBX) and polynomial mutat...">
<polygon fill="white" stroke="#666666" points="443.25,-20 328.25,-20 328.25,0 443.25,0 443.25,-20"/>
<text text-anchor="middle" x="385.75" y="-6.5" font-family="Helvetica,sans-Serif" font-size="10.00">fcmaes.mode.variation</text>
</a>
</g>
</g>
<!-- Node2&#45;&gt;Node8 -->
<g id="edge14_Node000002_Node000008" class="edge">
<title>Node2&#45;&gt;Node8</title>
<g id="a_edge14_Node000002_Node000008"><a xlink:title=" ">
<path fill="none" stroke="#63b8ff" d="M284.17,-37.62C301.23,-32.93 319.62,-27.88 335.95,-23.4"/>
<polygon fill="#63b8ff" stroke="#63b8ff" points="336.71,-26.82 345.43,-20.8 334.86,-20.07 336.71,-26.82"/>
</a>
</g>
</g>
<!-- Node5 -->
<g id="Node000005" class="node">
<title>Node5</title>
<g id="a_Node000005"><a xlink:href="$namespacefcmaes_1_1mode.html#a64da91b9fe11c4db2c528851fe65f4e4" xlink:title="Computes the rank of objects based on their sum of ranks across all columns.">
<polygon fill="white" stroke="#666666" points="599.5,-108 484.5,-108 484.5,-88 599.5,-88 599.5,-108"/>
<text text-anchor="middle" x="542" y="-94.5" font-family="Helvetica,sans-Serif" font-size="10.00">fcmaes.mode.objranks</text>
</a>
</g>
</g>
<!-- Node4&#45;&gt;Node5 -->
<g id="edge11_Node000004_Node000005" class="edge">
<title>Node4&#45;&gt;Node5</title>
<g id="a_edge11_Node000004_Node000005"><a xlink:title=" ">
<path fill="none" stroke="#63b8ff" d="M438.54,-68.77C456.2,-73.81 475.86,-79.42 493.19,-84.36"/>
<polygon fill="#63b8ff" stroke="#63b8ff" points="492.17,-87.71 502.75,-87.09 494.09,-80.98 492.17,-87.71"/>
</a>
</g>
</g>
<!-- Node6 -->
<g id="Node000006" class="node">
<title>Node6</title>
<g id="a_Node000006"><a xlink:href="$namespacefcmaes_1_1mode.html#a2570992dd7d42219e4b1381adff7a710" xlink:title="Determines the Pareto levels of a given set of points.">
<polygon fill="white" stroke="#666666" points="594.62,-70 489.38,-70 489.38,-38 594.62,-38 594.62,-70"/>
<text text-anchor="start" x="497.38" y="-56.5" font-family="Helvetica,sans-Serif" font-size="10.00">fcmaes.mode.pareto</text>
<text text-anchor="middle" x="542" y="-44.5" font-family="Helvetica,sans-Serif" font-size="10.00">_levels</text>
</a>
</g>
</g>
<!-- Node4&#45;&gt;Node6 -->
<g id="edge12_Node000004_Node000006" class="edge">
<title>Node4&#45;&gt;Node6</title>
<g id="a_edge12_Node000004_Node000006"><a xlink:title=" ">
<path fill="none" stroke="#63b8ff" d="M438.54,-54C451.13,-54 464.74,-54 477.79,-54"/>
<polygon fill="#63b8ff" stroke="#63b8ff" points="477.57,-57.5 487.57,-54 477.57,-50.5 477.57,-57.5"/>
</a>
</g>
</g>
<!-- Node7 -->
<g id="Node000007" class="node">
<title>Node7</title>
<g id="a_Node000007"><a xlink:href="$namespacefcmaes_1_1mode.html#af072da864e0f91afc47942de9a8901a5" xlink:title="Computes the ranks of constraint values, adjusted by their feasibility and scaled by the fraction of ...">
<polygon fill="white" stroke="#666666" points="593.12,-20 490.88,-20 490.88,0 593.12,0 593.12,-20"/>
<text text-anchor="middle" x="542" y="-6.5" font-family="Helvetica,sans-Serif" font-size="10.00">fcmaes.mode.ranks</text>
</a>
</g>
</g>
<!-- Node4&#45;&gt;Node7 -->
<g id="edge13_Node000004_Node000007" class="edge">
<title>Node4&#45;&gt;Node7</title>
<g id="a_edge13_Node000004_Node000007"><a xlink:title=" ">
<path fill="none" stroke="#63b8ff" d="M438.54,-39.23C456.2,-34.19 475.86,-28.58 493.19,-23.64"/>
<polygon fill="#63b8ff" stroke="#63b8ff" points="494.09,-27.02 502.75,-20.91 492.17,-20.29 494.09,-27.02"/>
</a>
</g>
</g>
</g>
</svg>
