<?xml version="1.0" encoding="UTF-8" standalone="no"?>
<!DOCTYPE svg PUBLIC "-//W3C//DTD SVG 1.1//EN"
 "http://www.w3.org/Graphics/SVG/1.1/DTD/svg11.dtd">
<!-- Generated by graphviz version 12.2.1 (20241206.2353)
 -->
<!-- Title: fcmaes.advretry.Store.replace Pages: 1 -->
<svg width="330pt" height="66pt"
 viewBox="0.00 0.00 329.50 66.00" xmlns="http://www.w3.org/2000/svg" xmlns:xlink="http://www.w3.org/1999/xlink">
<g id="graph0" class="graph" transform="scale(1 1) rotate(0) translate(4 62)">
<title>fcmaes.advretry.Store.replace</title>
<!-- Node1 -->
<g id="Node000001" class="node">
<title>Node1</title>
<g id="a_Node000001"><a xlink:title="Replaces the y and x values at a specified index.">
<polygon fill="#999999" stroke="#666666" points="146.5,-39 0,-39 0,-19 146.5,-19 146.5,-39"/>
<text text-anchor="middle" x="73.25" y="-25.5" font-family="Helvetica,sans-Serif" font-size="10.00">fcmaes.advretry.Store.replace</text>
</a>
</g>
</g>
<!-- Node2 -->
<g id="Node000002" class="node">
<title>Node2</title>
<g id="a_Node000002"><a xlink:href="$classfcmaes_1_1advretry_1_1_store.html#a732636cd5ab3c40b878ef2e0274b1d1b" xlink:title="Sets a subset of the xs list for a specific process ID.">
<polygon fill="white" stroke="#666666" points="321.5,-58 182.5,-58 182.5,-38 321.5,-38 321.5,-58"/>
<text text-anchor="middle" x="252" y="-44.5" font-family="Helvetica,sans-Serif" font-size="10.00">fcmaes.advretry.Store.set_x</text>
</a>
</g>
</g>
<!-- Node1&#45;&gt;Node2 -->
<g id="edge3_Node000001_Node000002" class="edge">
<title>Node1&#45;&gt;Node2</title>
<g id="a_edge3_Node000001_Node000002"><a xlink:title=" ">
<path fill="none" stroke="#63b8ff" d="M146.91,-36.81C154.8,-37.66 162.87,-38.53 170.85,-39.38"/>
<polygon fill="#63b8ff" stroke="#63b8ff" points="170.22,-42.84 180.54,-40.43 170.97,-35.88 170.22,-42.84"/>
</a>
</g>
</g>
<!-- Node3 -->
<g id="Node000003" class="node">
<title>Node3</title>
<g id="a_Node000003"><a xlink:href="$classfcmaes_1_1advretry_1_1_store.html#a12d96e54629b449293d2aabf5542ddc1" xlink:title="Sets the value of y for a given pid within the &#39;ys&#39; mapping.">
<polygon fill="white" stroke="#666666" points="321.5,-20 182.5,-20 182.5,0 321.5,0 321.5,-20"/>
<text text-anchor="middle" x="252" y="-6.5" font-family="Helvetica,sans-Serif" font-size="10.00">fcmaes.advretry.Store.set_y</text>
</a>
</g>
</g>
<!-- Node1&#45;&gt;Node3 -->
<g id="edge4_Node000001_Node000003" class="edge">
<title>Node1&#45;&gt;Node3</title>
<g id="a_edge4_Node000001_Node000003"><a xlink:title=" ">
<path fill="none" stroke="#63b8ff" d="M146.91,-21.19C154.8,-20.34 162.87,-19.47 170.85,-18.62"/>
<polygon fill="#63b8ff" stroke="#63b8ff" points="170.97,-22.12 180.54,-17.57 170.22,-15.16 170.97,-22.12"/>
</a>
</g>
</g>
</g>
</svg>
