<?xml version="1.0" encoding="UTF-8" standalone="no"?>
<!DOCTYPE svg PUBLIC "-//W3C//DTD SVG 1.1//EN"
 "http://www.w3.org/Graphics/SVG/1.1/DTD/svg11.dtd">
<!-- Generated by graphviz version 12.2.1 (20241206.2353)
 -->
<!-- Title: mode_optimizer::MoDeOptimizer::pareto_levels Pages: 1 -->
<svg width="782pt" height="166pt"
 viewBox="0.00 0.00 781.75 166.00" xmlns="http://www.w3.org/2000/svg" xmlns:xlink="http://www.w3.org/1999/xlink">
<g id="graph0" class="graph" transform="scale(1 1) rotate(0) translate(4 162)">
<title>mode_optimizer::MoDeOptimizer::pareto_levels</title>
<!-- Node1 -->
<g id="Node000001" class="node">
<title>Node1</title>
<g id="a_Node000001"><a xlink:title=" ">
<polygon fill="#999999" stroke="#666666" points="159.25,-70 0,-70 0,-38 159.25,-38 159.25,-70"/>
<text text-anchor="start" x="8" y="-56.5" font-family="Helvetica,sans-Serif" font-size="10.00">mode_optimizer::MoDeOptimizer</text>
<text text-anchor="middle" x="79.62" y="-44.5" font-family="Helvetica,sans-Serif" font-size="10.00">::pareto_levels</text>
</a>
</g>
</g>
<!-- Node2 -->
<g id="Node000002" class="node">
<title>Node2</title>
<g id="a_Node000002"><a xlink:href="$classmode__optimizer_1_1_mo_de_optimizer.html#af5f89faff00f2714a594e1d60cd2d6e3" xlink:title=" ">
<polygon fill="white" stroke="#666666" points="354.5,-120 195.25,-120 195.25,-88 354.5,-88 354.5,-120"/>
<text text-anchor="start" x="203.25" y="-106.5" font-family="Helvetica,sans-Serif" font-size="10.00">mode_optimizer::MoDeOptimizer</text>
<text text-anchor="middle" x="274.88" y="-94.5" font-family="Helvetica,sans-Serif" font-size="10.00">::is_dominated</text>
</a>
</g>
</g>
<!-- Node1&#45;&gt;Node2 -->
<g id="edge13_Node000001_Node000002" class="edge">
<title>Node1&#45;&gt;Node2</title>
<g id="a_edge13_Node000001_Node000002"><a xlink:title=" ">
<path fill="none" stroke="#63b8ff" d="M144.17,-70.44C161.75,-74.99 181,-79.97 199.15,-84.67"/>
<polygon fill="#63b8ff" stroke="#63b8ff" points="198.27,-88.05 208.83,-87.17 200.02,-81.28 198.27,-88.05"/>
</a>
</g>
</g>
<!-- Node3 -->
<g id="Node000003" class="node">
<title>Node3</title>
<g id="a_Node000003"><a xlink:href="$classmode__optimizer_1_1_mo_de_optimizer.html#a3762607fa33f7bb558fd7aae9690fc37" xlink:title=" ">
<polygon fill="white" stroke="#666666" points="354.5,-70 195.25,-70 195.25,-38 354.5,-38 354.5,-70"/>
<text text-anchor="start" x="203.25" y="-56.5" font-family="Helvetica,sans-Serif" font-size="10.00">mode_optimizer::MoDeOptimizer</text>
<text text-anchor="middle" x="274.88" y="-44.5" font-family="Helvetica,sans-Serif" font-size="10.00">::pareto</text>
</a>
</g>
</g>
<!-- Node1&#45;&gt;Node3 -->
<g id="edge14_Node000001_Node000003" class="edge">
<title>Node1&#45;&gt;Node3</title>
<g id="a_edge14_Node000001_Node000003"><a xlink:title=" ">
<path fill="none" stroke="#63b8ff" d="M159.51,-47.35C167.45,-47.26 175.56,-47.23 183.61,-47.26"/>
<polygon fill="#63b8ff" stroke="#63b8ff" points="183.39,-50.76 193.42,-47.34 183.45,-43.76 183.39,-50.76"/>
</a>
</g>
</g>
<!-- Node8 -->
<g id="Node000008" class="node">
<title>Node8</title>
<g id="a_Node000008"><a xlink:href="$evaluator_8h.html#a909812174fa9829bc49f6e00edb00b90" xlink:title=" ">
<polygon fill="white" stroke="#666666" points="636.25,-20 596.25,-20 596.25,0 636.25,0 636.25,-20"/>
<text text-anchor="middle" x="616.25" y="-6.5" font-family="Helvetica,sans-Serif" font-size="10.00">zeros</text>
</a>
</g>
</g>
<!-- Node1&#45;&gt;Node8 -->
<g id="edge24_Node000001_Node000008" class="edge">
<title>Node1&#45;&gt;Node8</title>
<g id="a_edge24_Node000001_Node000008"><a xlink:title=" ">
<path fill="none" stroke="#63b8ff" d="M149.78,-37.54C164.72,-34.37 180.46,-31.32 195.25,-29 281.38,-15.46 303.41,-14.23 390.5,-10 459.82,-6.64 541.3,-7.95 584.59,-9.06"/>
<polygon fill="#63b8ff" stroke="#63b8ff" points="584.39,-12.56 594.48,-9.33 584.58,-5.56 584.39,-12.56"/>
</a>
</g>
</g>
<!-- Node3&#45;&gt;Node1 -->
<g id="edge18_Node000003_Node000001" class="edge">
<title>Node3&#45;&gt;Node1</title>
<g id="a_edge18_Node000003_Node000001"><a xlink:title=" ">
<path fill="none" stroke="#63b8ff" d="M194.93,-60.65C186.99,-60.74 178.88,-60.77 170.83,-60.74"/>
<polygon fill="#63b8ff" stroke="#63b8ff" points="171.05,-57.24 161.02,-60.66 170.99,-64.24 171.05,-57.24"/>
</a>
</g>
</g>
<!-- Node4 -->
<g id="Node000004" class="node">
<title>Node4</title>
<g id="a_Node000004"><a xlink:href="$classmode__optimizer_1_1_mo_de_optimizer.html#a1d4ce60e415e141efaef2728d9952933" xlink:title=" ">
<polygon fill="white" stroke="#666666" points="549.75,-158 390.5,-158 390.5,-126 549.75,-126 549.75,-158"/>
<text text-anchor="start" x="398.5" y="-144.5" font-family="Helvetica,sans-Serif" font-size="10.00">mode_optimizer::MoDeOptimizer</text>
<text text-anchor="middle" x="470.12" y="-132.5" font-family="Helvetica,sans-Serif" font-size="10.00">::objranks</text>
</a>
</g>
</g>
<!-- Node3&#45;&gt;Node4 -->
<g id="edge15_Node000003_Node000004" class="edge">
<title>Node3&#45;&gt;Node4</title>
<g id="a_edge15_Node000003_Node000004"><a xlink:title=" ">
<path fill="none" stroke="#63b8ff" d="M336.7,-70.37C342.88,-72.9 348.92,-75.77 354.5,-79 373.28,-89.88 372.03,-100.6 390.5,-112 395.92,-115.34 401.76,-118.42 407.74,-121.22"/>
<polygon fill="#63b8ff" stroke="#63b8ff" points="405.92,-124.24 416.49,-125.06 408.74,-117.83 405.92,-124.24"/>
</a>
</g>
</g>
<!-- Node5 -->
<g id="Node000005" class="node">
<title>Node5</title>
<g id="a_Node000005"><a xlink:href="$evaluator_8h.html#a7689f88ea48c85c22d9b34208decd67c" xlink:title=" ">
<polygon fill="white" stroke="#666666" points="646.75,-108 585.75,-108 585.75,-88 646.75,-88 646.75,-108"/>
<text text-anchor="middle" x="616.25" y="-94.5" font-family="Helvetica,sans-Serif" font-size="10.00">sort_index</text>
</a>
</g>
</g>
<!-- Node3&#45;&gt;Node5 -->
<g id="edge22_Node000003_Node000005" class="edge">
<title>Node3&#45;&gt;Node5</title>
<g id="a_edge22_Node000003_Node000005"><a xlink:title=" ">
<path fill="none" stroke="#63b8ff" d="M344.4,-70.47C359.52,-73.68 375.5,-76.74 390.5,-79 454.13,-88.59 528.67,-93.69 573.9,-96.12"/>
<polygon fill="#63b8ff" stroke="#63b8ff" points="573.62,-99.61 583.78,-96.63 573.98,-92.62 573.62,-99.61"/>
</a>
</g>
</g>
<!-- Node7 -->
<g id="Node000007" class="node">
<title>Node7</title>
<g id="a_Node000007"><a xlink:href="$classmode__optimizer_1_1_mo_de_optimizer.html#a7d415b38158a793f2a2d666e921d838b" xlink:title=" ">
<polygon fill="white" stroke="#666666" points="549.75,-70 390.5,-70 390.5,-38 549.75,-38 549.75,-70"/>
<text text-anchor="start" x="398.5" y="-56.5" font-family="Helvetica,sans-Serif" font-size="10.00">mode_optimizer::MoDeOptimizer</text>
<text text-anchor="middle" x="470.12" y="-44.5" font-family="Helvetica,sans-Serif" font-size="10.00">::ranks</text>
</a>
</g>
</g>
<!-- Node3&#45;&gt;Node7 -->
<g id="edge19_Node000003_Node000007" class="edge">
<title>Node3&#45;&gt;Node7</title>
<g id="a_edge19_Node000003_Node000007"><a xlink:title=" ">
<path fill="none" stroke="#63b8ff" d="M354.76,-54C362.7,-54 370.81,-54 378.86,-54"/>
<polygon fill="#63b8ff" stroke="#63b8ff" points="378.67,-57.5 388.67,-54 378.67,-50.5 378.67,-57.5"/>
</a>
</g>
</g>
<!-- Node3&#45;&gt;Node8 -->
<g id="edge23_Node000003_Node000008" class="edge">
<title>Node3&#45;&gt;Node8</title>
<g id="a_edge23_Node000003_Node000008"><a xlink:title=" ">
<path fill="none" stroke="#63b8ff" d="M344.4,-37.53C359.52,-34.32 375.5,-31.26 390.5,-29 459.37,-18.62 541.03,-13.49 584.46,-11.33"/>
<polygon fill="#63b8ff" stroke="#63b8ff" points="584.58,-14.83 594.4,-10.86 584.24,-7.84 584.58,-14.83"/>
</a>
</g>
</g>
<!-- Node4&#45;&gt;Node5 -->
<g id="edge16_Node000004_Node000005" class="edge">
<title>Node4&#45;&gt;Node5</title>
<g id="a_edge16_Node000004_Node000005"><a xlink:title=" ">
<path fill="none" stroke="#63b8ff" d="M524.79,-125.62C541.28,-120.58 559.14,-115.13 574.61,-110.41"/>
<polygon fill="#63b8ff" stroke="#63b8ff" points="575.4,-113.83 583.94,-107.56 573.35,-107.13 575.4,-113.83"/>
</a>
</g>
</g>
<!-- Node6 -->
<g id="Node000006" class="node">
<title>Node6</title>
<g id="a_Node000006"><a xlink:href="$evaluator_8h.html#a85426eb5cecc23caa06090d795034e5c" xlink:title=" ">
<polygon fill="white" stroke="#666666" points="773.75,-108 682.75,-108 682.75,-88 773.75,-88 773.75,-108"/>
<text text-anchor="middle" x="728.25" y="-94.5" font-family="Helvetica,sans-Serif" font-size="10.00">compareIndexVal</text>
</a>
</g>
</g>
<!-- Node5&#45;&gt;Node6 -->
<g id="edge17_Node000005_Node000006" class="edge">
<title>Node5&#45;&gt;Node6</title>
<g id="a_edge17_Node000005_Node000006"><a xlink:title=" ">
<path fill="none" stroke="#63b8ff" d="M647.02,-98C654.54,-98 662.87,-98 671.23,-98"/>
<polygon fill="#63b8ff" stroke="#63b8ff" points="671.06,-101.5 681.06,-98 671.06,-94.5 671.06,-101.5"/>
</a>
</g>
</g>
<!-- Node7&#45;&gt;Node5 -->
<g id="edge20_Node000007_Node000005" class="edge">
<title>Node7&#45;&gt;Node5</title>
<g id="a_edge20_Node000007_Node000005"><a xlink:title=" ">
<path fill="none" stroke="#63b8ff" d="M524.79,-70.38C541.28,-75.42 559.14,-80.87 574.61,-85.59"/>
<polygon fill="#63b8ff" stroke="#63b8ff" points="573.35,-88.87 583.94,-88.44 575.4,-82.17 573.35,-88.87"/>
</a>
</g>
</g>
<!-- Node7&#45;&gt;Node8 -->
<g id="edge21_Node000007_Node000008" class="edge">
<title>Node7&#45;&gt;Node8</title>
<g id="a_edge21_Node000007_Node000008"><a xlink:title=" ">
<path fill="none" stroke="#63b8ff" d="M524.79,-37.62C545.28,-31.36 567.88,-24.46 585.37,-19.12"/>
<polygon fill="#63b8ff" stroke="#63b8ff" points="586.07,-22.57 594.61,-16.3 584.02,-15.87 586.07,-22.57"/>
</a>
</g>
</g>
</g>
</svg>
