<?xml version="1.0" encoding="UTF-8" standalone="no"?>
<!DOCTYPE svg PUBLIC "-//W3C//DTD SVG 1.1//EN"
 "http://www.w3.org/Graphics/SVG/1.1/DTD/svg11.dtd">
<!-- Generated by graphviz version 12.2.1 (20241206.2353)
 -->
<!-- Title: CBiteRnd::getSqr Pages: 1 -->
<svg width="538pt" height="408pt"
 viewBox="0.00 0.00 537.75 408.00" xmlns="http://www.w3.org/2000/svg" xmlns:xlink="http://www.w3.org/1999/xlink">
<g id="graph0" class="graph" transform="scale(1 1) rotate(0) translate(4 404)">
<title>CBiteRnd::getSqr</title>
<!-- Node1 -->
<g id="Node000001" class="node">
<title>Node1</title>
<g id="a_Node000001"><a xlink:title=" ">
<polygon fill="#999999" stroke="#666666" points="529.75,-210 436.5,-210 436.5,-190 529.75,-190 529.75,-210"/>
<text text-anchor="middle" x="483.12" y="-196.5" font-family="Helvetica,sans-Serif" font-size="10.00">CBiteRnd::getSqr</text>
</a>
</g>
</g>
<!-- Node2 -->
<g id="Node000002" class="node">
<title>Node2</title>
<g id="a_Node000002"><a xlink:href="$class_c_bite_rnd.html#ab73d2c6a6e4c1f5da7441168f165529d" xlink:title=" ">
<polygon fill="white" stroke="#666666" points="400.5,-210 296,-210 296,-190 400.5,-190 400.5,-210"/>
<text text-anchor="middle" x="348.25" y="-196.5" font-family="Helvetica,sans-Serif" font-size="10.00">CBiteRnd::getSqrInt</text>
</a>
</g>
</g>
<!-- Node1&#45;&gt;Node2 -->
<g id="edge24_Node000001_Node000002" class="edge">
<title>Node1&#45;&gt;Node2</title>
<g id="a_edge24_Node000001_Node000002"><a xlink:title=" ">
<path fill="none" stroke="#63b8ff" d="M424.58,-200C416.64,-200 408.54,-200 400.72,-200"/>
<polygon fill="#63b8ff" stroke="#63b8ff" points="424.51,-203.5 434.51,-200 424.51,-196.5 424.51,-203.5"/>
</a>
</g>
</g>
<!-- Node3 -->
<g id="Node000003" class="node">
<title>Node3</title>
<g id="a_Node000003"><a xlink:href="$class_c_bite_opt.html#aaf2f5bc8a214a95532426c9a9b38fdb8" xlink:title=" ">
<polygon fill="white" stroke="#666666" points="257.38,-400 137.88,-400 137.88,-380 257.38,-380 257.38,-400"/>
<text text-anchor="middle" x="197.62" y="-386.5" font-family="Helvetica,sans-Serif" font-size="10.00">CBiteOpt::generateSol1</text>
</a>
</g>
</g>
<!-- Node2&#45;&gt;Node3 -->
<g id="edge25_Node000002_Node000003" class="edge">
<title>Node2&#45;&gt;Node3</title>
<g id="a_edge25_Node000002_Node000003"><a xlink:title=" ">
<path fill="none" stroke="#63b8ff" d="M342.18,-221.33C332.48,-257.46 307.9,-330.69 260,-371 255.9,-374.45 251.19,-377.27 246.22,-379.58"/>
<polygon fill="#63b8ff" stroke="#63b8ff" points="345.56,-222.23 344.63,-211.68 338.77,-220.51 345.56,-222.23"/>
</a>
</g>
</g>
<!-- Node5 -->
<g id="Node000005" class="node">
<title>Node5</title>
<g id="a_Node000005"><a xlink:href="$class_c_bite_opt.html#a8a5048dc4357f48344cf5ade0757ae2b" xlink:title=" ">
<polygon fill="white" stroke="#666666" points="260,-362 135.25,-362 135.25,-342 260,-342 260,-362"/>
<text text-anchor="middle" x="197.62" y="-348.5" font-family="Helvetica,sans-Serif" font-size="10.00">CBiteOpt::generateSol10</text>
</a>
</g>
</g>
<!-- Node2&#45;&gt;Node5 -->
<g id="edge27_Node000002_Node000005" class="edge">
<title>Node2&#45;&gt;Node5</title>
<g id="a_edge27_Node000002_Node000005"><a xlink:title=" ">
<path fill="none" stroke="#63b8ff" d="M339.08,-220.69C326.48,-249.97 299.54,-303.24 260,-333 255.45,-336.42 250.28,-339.23 244.92,-341.54"/>
<polygon fill="#63b8ff" stroke="#63b8ff" points="342.17,-222.38 342.76,-211.8 335.7,-219.71 342.17,-222.38"/>
</a>
</g>
</g>
<!-- Node6 -->
<g id="Node000006" class="node">
<title>Node6</title>
<g id="a_Node000006"><a xlink:href="$class_c_bite_opt.html#ab6de0da3b279e77788efed7d3e05a0e2" xlink:title=" ">
<polygon fill="white" stroke="#666666" points="257.38,-324 137.88,-324 137.88,-304 257.38,-304 257.38,-324"/>
<text text-anchor="middle" x="197.62" y="-310.5" font-family="Helvetica,sans-Serif" font-size="10.00">CBiteOpt::generateSol2</text>
</a>
</g>
</g>
<!-- Node2&#45;&gt;Node6 -->
<g id="edge29_Node000002_Node000006" class="edge">
<title>Node2&#45;&gt;Node6</title>
<g id="a_edge29_Node000002_Node000006"><a xlink:title=" ">
<path fill="none" stroke="#63b8ff" d="M334.09,-219.65C318.73,-241.14 291.39,-275.14 260,-295 254.63,-298.4 248.6,-301.23 242.49,-303.57"/>
<polygon fill="#63b8ff" stroke="#63b8ff" points="336.94,-221.68 339.77,-211.47 331.19,-217.69 336.94,-221.68"/>
</a>
</g>
</g>
<!-- Node7 -->
<g id="Node000007" class="node">
<title>Node7</title>
<g id="a_Node000007"><a xlink:href="$class_c_bite_opt.html#abd6c435c82a97476332139663d9a1c82" xlink:title=" ">
<polygon fill="white" stroke="#666666" points="260,-286 135.25,-286 135.25,-266 260,-266 260,-286"/>
<text text-anchor="middle" x="197.62" y="-272.5" font-family="Helvetica,sans-Serif" font-size="10.00">CBiteOpt::generateSol2b</text>
</a>
</g>
</g>
<!-- Node2&#45;&gt;Node7 -->
<g id="edge31_Node000002_Node000007" class="edge">
<title>Node2&#45;&gt;Node7</title>
<g id="a_edge31_Node000002_Node000007"><a xlink:title=" ">
<path fill="none" stroke="#63b8ff" d="M324.93,-217.09C307.88,-229.51 283.41,-246 260,-257 253.14,-260.23 245.59,-263.08 238.2,-265.53"/>
<polygon fill="#63b8ff" stroke="#63b8ff" points="326.88,-220 332.83,-211.23 322.71,-214.38 326.88,-220"/>
</a>
</g>
</g>
<!-- Node8 -->
<g id="Node000008" class="node">
<title>Node8</title>
<g id="a_Node000008"><a xlink:href="$class_c_bite_opt.html#a76fa9d8bf4abde13b69e06761acc82f5" xlink:title=" ">
<polygon fill="white" stroke="#666666" points="260,-248 135.25,-248 135.25,-228 260,-228 260,-248"/>
<text text-anchor="middle" x="197.62" y="-234.5" font-family="Helvetica,sans-Serif" font-size="10.00">CBiteOpt::generateSol2d</text>
</a>
</g>
</g>
<!-- Node2&#45;&gt;Node8 -->
<g id="edge33_Node000002_Node000008" class="edge">
<title>Node2&#45;&gt;Node8</title>
<g id="a_edge33_Node000002_Node000008"><a xlink:title=" ">
<path fill="none" stroke="#63b8ff" d="M295.18,-213.31C276.93,-217.98 256.7,-223.15 239.5,-227.55"/>
<polygon fill="#63b8ff" stroke="#63b8ff" points="295.96,-216.73 304.78,-210.86 294.22,-209.95 295.96,-216.73"/>
</a>
</g>
</g>
<!-- Node9 -->
<g id="Node000009" class="node">
<title>Node9</title>
<g id="a_Node000009"><a xlink:href="$class_c_bite_opt.html#a2babc6c08dad9718d349683242805bc0" xlink:title=" ">
<polygon fill="white" stroke="#666666" points="257.38,-210 137.88,-210 137.88,-190 257.38,-190 257.38,-210"/>
<text text-anchor="middle" x="197.62" y="-196.5" font-family="Helvetica,sans-Serif" font-size="10.00">CBiteOpt::generateSol3</text>
</a>
</g>
</g>
<!-- Node2&#45;&gt;Node9 -->
<g id="edge35_Node000002_Node000009" class="edge">
<title>Node2&#45;&gt;Node9</title>
<g id="a_edge35_Node000002_Node000009"><a xlink:title=" ">
<path fill="none" stroke="#63b8ff" d="M284.29,-200C275.49,-200 266.47,-200 257.74,-200"/>
<polygon fill="#63b8ff" stroke="#63b8ff" points="284.17,-203.5 294.17,-200 284.17,-196.5 284.17,-203.5"/>
</a>
</g>
</g>
<!-- Node10 -->
<g id="Node000010" class="node">
<title>Node10</title>
<g id="a_Node000010"><a xlink:href="$class_c_bite_opt.html#ae48399aea9fc3c2e01b370b846d88c82" xlink:title=" ">
<polygon fill="white" stroke="#666666" points="257.38,-172 137.88,-172 137.88,-152 257.38,-152 257.38,-172"/>
<text text-anchor="middle" x="197.62" y="-158.5" font-family="Helvetica,sans-Serif" font-size="10.00">CBiteOpt::generateSol4</text>
</a>
</g>
</g>
<!-- Node2&#45;&gt;Node10 -->
<g id="edge37_Node000002_Node000010" class="edge">
<title>Node2&#45;&gt;Node10</title>
<g id="a_edge37_Node000002_Node000010"><a xlink:title=" ">
<path fill="none" stroke="#63b8ff" d="M295.18,-186.69C276.93,-182.02 256.7,-176.85 239.5,-172.45"/>
<polygon fill="#63b8ff" stroke="#63b8ff" points="294.22,-190.05 304.78,-189.14 295.96,-183.27 294.22,-190.05"/>
</a>
</g>
</g>
<!-- Node11 -->
<g id="Node000011" class="node">
<title>Node11</title>
<g id="a_Node000011"><a xlink:href="$class_c_bite_opt.html#a01e7f5a94a2ae837844f8c60ddf21db6" xlink:title=" ">
<polygon fill="white" stroke="#666666" points="257.38,-134 137.88,-134 137.88,-114 257.38,-114 257.38,-134"/>
<text text-anchor="middle" x="197.62" y="-120.5" font-family="Helvetica,sans-Serif" font-size="10.00">CBiteOpt::generateSol5</text>
</a>
</g>
</g>
<!-- Node2&#45;&gt;Node11 -->
<g id="edge39_Node000002_Node000011" class="edge">
<title>Node2&#45;&gt;Node11</title>
<g id="a_edge39_Node000002_Node000011"><a xlink:title=" ">
<path fill="none" stroke="#63b8ff" d="M324.93,-182.91C307.88,-170.49 283.41,-154 260,-143 253.14,-139.77 245.59,-136.92 238.2,-134.47"/>
<polygon fill="#63b8ff" stroke="#63b8ff" points="322.71,-185.62 332.83,-188.77 326.88,-180 322.71,-185.62"/>
</a>
</g>
</g>
<!-- Node12 -->
<g id="Node000012" class="node">
<title>Node12</title>
<g id="a_Node000012"><a xlink:href="$class_c_bite_opt.html#aac1bd4dd832e20880872b94b07773946" xlink:title=" ">
<polygon fill="white" stroke="#666666" points="260,-96 135.25,-96 135.25,-76 260,-76 260,-96"/>
<text text-anchor="middle" x="197.62" y="-82.5" font-family="Helvetica,sans-Serif" font-size="10.00">CBiteOpt::generateSol5b</text>
</a>
</g>
</g>
<!-- Node2&#45;&gt;Node12 -->
<g id="edge41_Node000002_Node000012" class="edge">
<title>Node2&#45;&gt;Node12</title>
<g id="a_edge41_Node000002_Node000012"><a xlink:title=" ">
<path fill="none" stroke="#63b8ff" d="M334.09,-180.35C318.73,-158.86 291.39,-124.86 260,-105 254.63,-101.6 248.6,-98.77 242.49,-96.43"/>
<polygon fill="#63b8ff" stroke="#63b8ff" points="331.19,-182.31 339.77,-188.53 336.94,-178.32 331.19,-182.31"/>
</a>
</g>
</g>
<!-- Node13 -->
<g id="Node000013" class="node">
<title>Node13</title>
<g id="a_Node000013"><a xlink:href="$class_c_bite_opt.html#a332b03425de84b8ef8eb362af8e75e78" xlink:title=" ">
<polygon fill="white" stroke="#666666" points="257.38,-58 137.88,-58 137.88,-38 257.38,-38 257.38,-58"/>
<text text-anchor="middle" x="197.62" y="-44.5" font-family="Helvetica,sans-Serif" font-size="10.00">CBiteOpt::generateSol8</text>
</a>
</g>
</g>
<!-- Node2&#45;&gt;Node13 -->
<g id="edge43_Node000002_Node000013" class="edge">
<title>Node2&#45;&gt;Node13</title>
<g id="a_edge43_Node000002_Node000013"><a xlink:title=" ">
<path fill="none" stroke="#63b8ff" d="M339.08,-179.31C326.48,-150.03 299.54,-96.76 260,-67 255.45,-63.58 250.28,-60.77 244.92,-58.46"/>
<polygon fill="#63b8ff" stroke="#63b8ff" points="335.7,-180.29 342.76,-188.2 342.17,-177.62 335.7,-180.29"/>
</a>
</g>
</g>
<!-- Node14 -->
<g id="Node000014" class="node">
<title>Node14</title>
<g id="a_Node000014"><a xlink:href="$class_c_bite_opt.html#adca09db7345122f1da38d8f5c1800d83" xlink:title=" ">
<polygon fill="white" stroke="#666666" points="257.38,-20 137.88,-20 137.88,0 257.38,0 257.38,-20"/>
<text text-anchor="middle" x="197.62" y="-6.5" font-family="Helvetica,sans-Serif" font-size="10.00">CBiteOpt::generateSol9</text>
</a>
</g>
</g>
<!-- Node2&#45;&gt;Node14 -->
<g id="edge45_Node000002_Node000014" class="edge">
<title>Node2&#45;&gt;Node14</title>
<g id="a_edge45_Node000002_Node000014"><a xlink:title=" ">
<path fill="none" stroke="#63b8ff" d="M342.18,-178.67C332.48,-142.54 307.9,-69.31 260,-29 255.9,-25.55 251.19,-22.73 246.22,-20.42"/>
<polygon fill="#63b8ff" stroke="#63b8ff" points="338.77,-179.49 344.63,-188.32 345.56,-177.77 338.77,-179.49"/>
</a>
</g>
</g>
<!-- Node4 -->
<g id="Node000004" class="node">
<title>Node4</title>
<g id="a_Node000004"><a xlink:href="$class_c_bite_opt.html#a2f56a9d5d682c92e2da1234ed68d54ed" xlink:title=" ">
<polygon fill="white" stroke="#666666" points="99.25,-210 0,-210 0,-190 99.25,-190 99.25,-210"/>
<text text-anchor="middle" x="49.62" y="-196.5" font-family="Helvetica,sans-Serif" font-size="10.00">CBiteOpt::optimize</text>
</a>
</g>
</g>
<!-- Node3&#45;&gt;Node4 -->
<g id="edge26_Node000003_Node000004" class="edge">
<title>Node3&#45;&gt;Node4</title>
<g id="a_edge26_Node000003_Node000004"><a xlink:title=" ">
<path fill="none" stroke="#63b8ff" d="M139.24,-374.07C137.86,-373.11 136.52,-372.09 135.25,-371 82.31,-325.88 59.28,-239.72 52.71,-210.21"/>
<polygon fill="#63b8ff" stroke="#63b8ff" points="137.25,-376.97 147.67,-378.88 140.72,-370.89 137.25,-376.97"/>
</a>
</g>
</g>
<!-- Node5&#45;&gt;Node4 -->
<g id="edge28_Node000005_Node000004" class="edge">
<title>Node5&#45;&gt;Node4</title>
<g id="a_edge28_Node000005_Node000004"><a xlink:title=" ">
<path fill="none" stroke="#63b8ff" d="M140.12,-336.34C138.43,-335.3 136.8,-334.19 135.25,-333 91.09,-299.28 63.75,-235.41 54.33,-210.41"/>
<polygon fill="#63b8ff" stroke="#63b8ff" points="138.45,-339.42 148.94,-340.91 141.67,-333.2 138.45,-339.42"/>
</a>
</g>
</g>
<!-- Node6&#45;&gt;Node4 -->
<g id="edge30_Node000006_Node000004" class="edge">
<title>Node6&#45;&gt;Node4</title>
<g id="a_edge30_Node000006_Node000004"><a xlink:title=" ">
<path fill="none" stroke="#63b8ff" d="M141.93,-298.84C139.62,-297.65 137.38,-296.37 135.25,-295 99.4,-271.94 69.51,-229.65 56.96,-210.24"/>
<polygon fill="#63b8ff" stroke="#63b8ff" points="140.46,-302.02 151.01,-302.9 143.31,-295.62 140.46,-302.02"/>
</a>
</g>
</g>
<!-- Node7&#45;&gt;Node4 -->
<g id="edge32_Node000007_Node000004" class="edge">
<title>Node7&#45;&gt;Node4</title>
<g id="a_edge32_Node000007_Node000004"><a xlink:title=" ">
<path fill="none" stroke="#63b8ff" d="M146.27,-261.75C142.49,-260.27 138.78,-258.69 135.25,-257 107.93,-243.92 79.35,-222.88 63.38,-210.35"/>
<polygon fill="#63b8ff" stroke="#63b8ff" points="144.99,-265 155.59,-265.1 147.36,-258.42 144.99,-265"/>
</a>
</g>
</g>
<!-- Node8&#45;&gt;Node4 -->
<g id="edge34_Node000008_Node000004" class="edge">
<title>Node8&#45;&gt;Node4</title>
<g id="a_edge34_Node000008_Node000004"><a xlink:title=" ">
<path fill="none" stroke="#63b8ff" d="M145.22,-224.62C127.36,-219.97 107.6,-214.83 90.78,-210.45"/>
<polygon fill="#63b8ff" stroke="#63b8ff" points="144.32,-228 154.88,-227.13 146.08,-221.23 144.32,-228"/>
</a>
</g>
</g>
<!-- Node9&#45;&gt;Node4 -->
<g id="edge36_Node000009_Node000004" class="edge">
<title>Node9&#45;&gt;Node4</title>
<g id="a_edge36_Node000009_Node000004"><a xlink:title=" ">
<path fill="none" stroke="#63b8ff" d="M126.27,-200C117.22,-200 108.12,-200 99.52,-200"/>
<polygon fill="#63b8ff" stroke="#63b8ff" points="126.15,-203.5 136.15,-200 126.15,-196.5 126.15,-203.5"/>
</a>
</g>
</g>
<!-- Node10&#45;&gt;Node4 -->
<g id="edge38_Node000010_Node000004" class="edge">
<title>Node10&#45;&gt;Node4</title>
<g id="a_edge38_Node000010_Node000004"><a xlink:title=" ">
<path fill="none" stroke="#63b8ff" d="M145.22,-175.38C127.36,-180.03 107.6,-185.17 90.78,-189.55"/>
<polygon fill="#63b8ff" stroke="#63b8ff" points="146.08,-178.77 154.88,-172.87 144.32,-172 146.08,-178.77"/>
</a>
</g>
</g>
<!-- Node11&#45;&gt;Node4 -->
<g id="edge40_Node000011_Node000004" class="edge">
<title>Node11&#45;&gt;Node4</title>
<g id="a_edge40_Node000011_Node000004"><a xlink:title=" ">
<path fill="none" stroke="#63b8ff" d="M146.27,-138.25C142.49,-139.73 138.78,-141.31 135.25,-143 107.93,-156.08 79.35,-177.12 63.38,-189.65"/>
<polygon fill="#63b8ff" stroke="#63b8ff" points="147.36,-141.58 155.59,-134.9 144.99,-135 147.36,-141.58"/>
</a>
</g>
</g>
<!-- Node12&#45;&gt;Node4 -->
<g id="edge42_Node000012_Node000004" class="edge">
<title>Node12&#45;&gt;Node4</title>
<g id="a_edge42_Node000012_Node000004"><a xlink:title=" ">
<path fill="none" stroke="#63b8ff" d="M141.93,-101.16C139.62,-102.35 137.38,-103.63 135.25,-105 99.4,-128.06 69.51,-170.35 56.96,-189.76"/>
<polygon fill="#63b8ff" stroke="#63b8ff" points="143.31,-104.38 151.01,-97.1 140.46,-97.98 143.31,-104.38"/>
</a>
</g>
</g>
<!-- Node13&#45;&gt;Node4 -->
<g id="edge44_Node000013_Node000004" class="edge">
<title>Node13&#45;&gt;Node4</title>
<g id="a_edge44_Node000013_Node000004"><a xlink:title=" ">
<path fill="none" stroke="#63b8ff" d="M140.12,-63.66C138.43,-64.7 136.8,-65.81 135.25,-67 91.09,-100.72 63.75,-164.59 54.33,-189.59"/>
<polygon fill="#63b8ff" stroke="#63b8ff" points="141.67,-66.8 148.94,-59.09 138.45,-60.58 141.67,-66.8"/>
</a>
</g>
</g>
<!-- Node14&#45;&gt;Node4 -->
<g id="edge46_Node000014_Node000004" class="edge">
<title>Node14&#45;&gt;Node4</title>
<g id="a_edge46_Node000014_Node000004"><a xlink:title=" ">
<path fill="none" stroke="#63b8ff" d="M139.24,-25.93C137.86,-26.89 136.52,-27.91 135.25,-29 82.31,-74.12 59.28,-160.28 52.71,-189.79"/>
<polygon fill="#63b8ff" stroke="#63b8ff" points="140.72,-29.11 147.67,-21.12 137.25,-23.03 140.72,-29.11"/>
</a>
</g>
</g>
</g>
</svg>
