<?xml version="1.0" encoding="UTF-8" standalone="no"?>
<!DOCTYPE svg PUBLIC "-//W3C//DTD SVG 1.1//EN"
 "http://www.w3.org/Graphics/SVG/1.1/DTD/svg11.dtd">
<!-- Generated by graphviz version 12.2.1 (20241206.2353)
 -->
<!-- Title: crmfnes::CrfmnesOptimizer::tell Pages: 1 -->
<svg width="634pt" height="392pt"
 viewBox="0.00 0.00 633.75 392.00" xmlns="http://www.w3.org/2000/svg" xmlns:xlink="http://www.w3.org/1999/xlink">
<g id="graph0" class="graph" transform="scale(1 1) rotate(0) translate(4 388)">
<title>crmfnes::CrfmnesOptimizer::tell</title>
<!-- Node1 -->
<g id="Node000001" class="node">
<title>Node1</title>
<g id="a_Node000001"><a xlink:title=" ">
<polygon fill="#999999" stroke="#666666" points="136.75,-220 0,-220 0,-188 136.75,-188 136.75,-220"/>
<text text-anchor="start" x="8" y="-206.5" font-family="Helvetica,sans-Serif" font-size="10.00">crmfnes::CrfmnesOptimizer</text>
<text text-anchor="middle" x="68.38" y="-194.5" font-family="Helvetica,sans-Serif" font-size="10.00">::tell</text>
</a>
</g>
</g>
<!-- Node2 -->
<g id="Node000002" class="node">
<title>Node2</title>
<g id="a_Node000002"><a xlink:href="$classcrmfnes_1_1_crfmnes_optimizer.html#a61b800bdcb2be2c0add38eabc9bb2df5" xlink:title=" ">
<polygon fill="white" stroke="#666666" points="326,-384 172.75,-384 172.75,-364 326,-364 326,-384"/>
<text text-anchor="middle" x="249.38" y="-370.5" font-family="Helvetica,sans-Serif" font-size="10.00">crmfnes::CrfmnesOptimizer::c1</text>
</a>
</g>
</g>
<!-- Node1&#45;&gt;Node2 -->
<g id="edge15_Node000001_Node000002" class="edge">
<title>Node1&#45;&gt;Node2</title>
<g id="a_edge15_Node000001_Node000002"><a xlink:title=" ">
<path fill="none" stroke="#63b8ff" d="M76.5,-220.22C90.53,-250.29 124.6,-314.82 172.75,-350 177.69,-353.61 183.18,-356.68 188.9,-359.31"/>
<polygon fill="#63b8ff" stroke="#63b8ff" points="187.36,-362.46 197.94,-362.98 190,-355.98 187.36,-362.46"/>
</a>
</g>
</g>
<!-- Node3 -->
<g id="Node000003" class="node">
<title>Node3</title>
<g id="a_Node000003"><a xlink:href="$classcrmfnes_1_1_crfmnes_optimizer.html#a1c0bc5770261a21ed819387c339b3c05" xlink:title=" ">
<polygon fill="white" stroke="#666666" points="498.75,-261 362,-261 362,-229 498.75,-229 498.75,-261"/>
<text text-anchor="start" x="370" y="-247.5" font-family="Helvetica,sans-Serif" font-size="10.00">crmfnes::CrfmnesOptimizer</text>
<text text-anchor="middle" x="430.38" y="-235.5" font-family="Helvetica,sans-Serif" font-size="10.00">::cexp</text>
</a>
</g>
</g>
<!-- Node1&#45;&gt;Node3 -->
<g id="edge16_Node000001_Node000003" class="edge">
<title>Node1&#45;&gt;Node3</title>
<g id="a_edge16_Node000001_Node000003"><a xlink:title=" ">
<path fill="none" stroke="#63b8ff" d="M78.18,-220.25C93.43,-246.45 127.49,-297.06 172.75,-317 235.08,-344.46 261.02,-337.4 326,-317 356.04,-307.57 384.98,-285.98 404.56,-268.89"/>
<polygon fill="#63b8ff" stroke="#63b8ff" points="406.66,-271.71 411.75,-262.42 401.97,-266.51 406.66,-271.71"/>
</a>
</g>
</g>
<!-- Node4 -->
<g id="Node000004" class="node">
<title>Node4</title>
<g id="a_Node000004"><a xlink:href="$evaluator_8h.html#a493b3a74ec3481711548e4b506b009cd" xlink:title=" ">
<polygon fill="white" stroke="#666666" points="276.12,-308 222.62,-308 222.62,-288 276.12,-288 276.12,-308"/>
<text text-anchor="middle" x="249.38" y="-294.5" font-family="Helvetica,sans-Serif" font-size="10.00">constant</text>
</a>
</g>
</g>
<!-- Node1&#45;&gt;Node4 -->
<g id="edge17_Node000001_Node000004" class="edge">
<title>Node1&#45;&gt;Node4</title>
<g id="a_edge17_Node000001_Node000004"><a xlink:title=" ">
<path fill="none" stroke="#63b8ff" d="M87.43,-220.45C107.05,-237.48 140,-263.71 172.75,-279 184.77,-284.61 198.67,-288.71 211.25,-291.64"/>
<polygon fill="#63b8ff" stroke="#63b8ff" points="210.35,-295.02 220.86,-293.68 211.81,-288.18 210.35,-295.02"/>
</a>
</g>
</g>
<!-- Node5 -->
<g id="Node000005" class="node">
<title>Node5</title>
<g id="a_Node000005"><a xlink:href="$classcrmfnes_1_1_crfmnes_optimizer.html#ae0b69c9a8ba0266efb3fe667de42134f" xlink:title=" ">
<polygon fill="white" stroke="#666666" points="317.75,-270 181,-270 181,-238 317.75,-238 317.75,-270"/>
<text text-anchor="start" x="189" y="-256.5" font-family="Helvetica,sans-Serif" font-size="10.00">crmfnes::CrfmnesOptimizer</text>
<text text-anchor="middle" x="249.38" y="-244.5" font-family="Helvetica,sans-Serif" font-size="10.00">::eta_B</text>
</a>
</g>
</g>
<!-- Node1&#45;&gt;Node5 -->
<g id="edge18_Node000001_Node000005" class="edge">
<title>Node1&#45;&gt;Node5</title>
<g id="a_edge18_Node000001_Node000005"><a xlink:title=" ">
<path fill="none" stroke="#63b8ff" d="M127.99,-220.37C144.13,-224.88 161.8,-229.82 178.51,-234.48"/>
<polygon fill="#63b8ff" stroke="#63b8ff" points="177.3,-237.78 187.87,-237.1 179.18,-231.04 177.3,-237.78"/>
</a>
</g>
</g>
<!-- Node6 -->
<g id="Node000006" class="node">
<title>Node6</title>
<g id="a_Node000006"><a xlink:href="$classcrmfnes_1_1_crfmnes_optimizer.html#a1748dadb5cbf900c7835cabfbb898456" xlink:title=" ">
<polygon fill="white" stroke="#666666" points="317.75,-220 181,-220 181,-188 317.75,-188 317.75,-220"/>
<text text-anchor="start" x="189" y="-206.5" font-family="Helvetica,sans-Serif" font-size="10.00">crmfnes::CrfmnesOptimizer</text>
<text text-anchor="middle" x="249.38" y="-194.5" font-family="Helvetica,sans-Serif" font-size="10.00">::eta_conv_sigma</text>
</a>
</g>
</g>
<!-- Node1&#45;&gt;Node6 -->
<g id="edge19_Node000001_Node000006" class="edge">
<title>Node1&#45;&gt;Node6</title>
<g id="a_edge19_Node000001_Node000006"><a xlink:title=" ">
<path fill="none" stroke="#63b8ff" d="M137.05,-204C147.52,-204 158.41,-204 169.11,-204"/>
<polygon fill="#63b8ff" stroke="#63b8ff" points="169.09,-207.5 179.09,-204 169.09,-200.5 169.09,-207.5"/>
</a>
</g>
</g>
<!-- Node7 -->
<g id="Node000007" class="node">
<title>Node7</title>
<g id="a_Node000007"><a xlink:href="$classcrmfnes_1_1_crfmnes_optimizer.html#afa07fb187d0982f0bdcf00c943e9e641" xlink:title=" ">
<polygon fill="white" stroke="#666666" points="317.75,-170 181,-170 181,-138 317.75,-138 317.75,-170"/>
<text text-anchor="start" x="189" y="-156.5" font-family="Helvetica,sans-Serif" font-size="10.00">crmfnes::CrfmnesOptimizer</text>
<text text-anchor="middle" x="249.38" y="-144.5" font-family="Helvetica,sans-Serif" font-size="10.00">::eta_stag_sigma</text>
</a>
</g>
</g>
<!-- Node1&#45;&gt;Node7 -->
<g id="edge20_Node000001_Node000007" class="edge">
<title>Node1&#45;&gt;Node7</title>
<g id="a_edge20_Node000001_Node000007"><a xlink:title=" ">
<path fill="none" stroke="#63b8ff" d="M127.99,-187.63C144.13,-183.12 161.8,-178.18 178.51,-173.52"/>
<polygon fill="#63b8ff" stroke="#63b8ff" points="179.18,-176.96 187.87,-170.9 177.3,-170.22 179.18,-176.96"/>
</a>
</g>
</g>
<!-- Node8 -->
<g id="Node000008" class="node">
<title>Node8</title>
<g id="a_Node000008"><a xlink:href="$classcrmfnes_1_1_crfmnes_optimizer.html#a914d39cf65f7277f14b0ed3cbf4e0d73" xlink:title=" ">
<polygon fill="white" stroke="#666666" points="317.75,-70 181,-70 181,-38 317.75,-38 317.75,-70"/>
<text text-anchor="start" x="189" y="-56.5" font-family="Helvetica,sans-Serif" font-size="10.00">crmfnes::CrfmnesOptimizer</text>
<text text-anchor="middle" x="249.38" y="-44.5" font-family="Helvetica,sans-Serif" font-size="10.00">::sort_indices_by</text>
</a>
</g>
</g>
<!-- Node1&#45;&gt;Node8 -->
<g id="edge21_Node000001_Node000008" class="edge">
<title>Node1&#45;&gt;Node8</title>
<g id="a_edge21_Node000001_Node000008"><a xlink:title=" ">
<path fill="none" stroke="#63b8ff" d="M78.64,-187.7C94.53,-161.15 129.51,-108.56 172.75,-79 174.55,-77.77 176.41,-76.6 178.32,-75.48"/>
<polygon fill="#63b8ff" stroke="#63b8ff" points="179.64,-78.74 186.9,-71.03 176.41,-72.53 179.64,-78.74"/>
</a>
</g>
</g>
<!-- Node12 -->
<g id="Node000012" class="node">
<title>Node12</title>
<g id="a_Node000012"><a xlink:href="$classcrmfnes_1_1_crfmnes_optimizer.html#ad0e305a53657d5e357d198610c0c21e3" xlink:title=" ">
<polygon fill="white" stroke="#666666" points="317.75,-120 181,-120 181,-88 317.75,-88 317.75,-120"/>
<text text-anchor="start" x="189" y="-106.5" font-family="Helvetica,sans-Serif" font-size="10.00">crmfnes::CrfmnesOptimizer</text>
<text text-anchor="middle" x="249.38" y="-94.5" font-family="Helvetica,sans-Serif" font-size="10.00">::w_dist_hat</text>
</a>
</g>
</g>
<!-- Node1&#45;&gt;Node12 -->
<g id="edge25_Node000001_Node000012" class="edge">
<title>Node1&#45;&gt;Node12</title>
<g id="a_edge25_Node000001_Node000012"><a xlink:title=" ">
<path fill="none" stroke="#63b8ff" d="M88.02,-187.71C107.88,-171.06 140.78,-145.38 172.75,-129 175.63,-127.52 178.62,-126.11 181.68,-124.75"/>
<polygon fill="#63b8ff" stroke="#63b8ff" points="182.93,-128.02 190.83,-120.97 180.25,-121.55 182.93,-128.02"/>
</a>
</g>
</g>
<!-- Node14 -->
<g id="Node000014" class="node">
<title>Node14</title>
<g id="a_Node000014"><a xlink:href="$evaluator_8h.html#a909812174fa9829bc49f6e00edb00b90" xlink:title=" ">
<polygon fill="white" stroke="#666666" points="269.38,-20 229.38,-20 229.38,0 269.38,0 269.38,-20"/>
<text text-anchor="middle" x="249.38" y="-6.5" font-family="Helvetica,sans-Serif" font-size="10.00">zeros</text>
</a>
</g>
</g>
<!-- Node1&#45;&gt;Node14 -->
<g id="edge28_Node000001_Node000014" class="edge">
<title>Node1&#45;&gt;Node14</title>
<g id="a_edge28_Node000001_Node000014"><a xlink:title=" ">
<path fill="none" stroke="#63b8ff" d="M74.27,-187.56C85.55,-152.64 116.78,-70.82 172.75,-29 185.67,-19.35 202.95,-14.56 217.72,-12.21"/>
<polygon fill="#63b8ff" stroke="#63b8ff" points="217.93,-15.71 227.41,-10.98 217.05,-8.76 217.93,-15.71"/>
</a>
</g>
</g>
<!-- Node9 -->
<g id="Node000009" class="node">
<title>Node9</title>
<g id="a_Node000009"><a xlink:href="$classcrmfnes_1_1_crfmnes_optimizer.html#adae78062208e6dc79abad146a0461ec3" xlink:title=" ">
<polygon fill="white" stroke="#666666" points="498.75,-70 362,-70 362,-38 498.75,-38 498.75,-70"/>
<text text-anchor="start" x="370" y="-56.5" font-family="Helvetica,sans-Serif" font-size="10.00">crmfnes::CrfmnesOptimizer</text>
<text text-anchor="middle" x="430.38" y="-44.5" font-family="Helvetica,sans-Serif" font-size="10.00">::num_feasible</text>
</a>
</g>
</g>
<!-- Node8&#45;&gt;Node9 -->
<g id="edge22_Node000008_Node000009" class="edge">
<title>Node8&#45;&gt;Node9</title>
<g id="a_edge22_Node000008_Node000009"><a xlink:title=" ">
<path fill="none" stroke="#63b8ff" d="M318.05,-54C328.52,-54 339.41,-54 350.11,-54"/>
<polygon fill="#63b8ff" stroke="#63b8ff" points="350.09,-57.5 360.09,-54 350.09,-50.5 350.09,-57.5"/>
</a>
</g>
</g>
<!-- Node10 -->
<g id="Node000010" class="node">
<title>Node10</title>
<g id="a_Node000010"><a xlink:href="$evaluator_8h.html#a7689f88ea48c85c22d9b34208decd67c" xlink:title=" ">
<polygon fill="white" stroke="#666666" points="460.88,-20 399.88,-20 399.88,0 460.88,0 460.88,-20"/>
<text text-anchor="middle" x="430.38" y="-6.5" font-family="Helvetica,sans-Serif" font-size="10.00">sort_index</text>
</a>
</g>
</g>
<!-- Node8&#45;&gt;Node10 -->
<g id="edge23_Node000008_Node000010" class="edge">
<title>Node8&#45;&gt;Node10</title>
<g id="a_edge23_Node000008_Node000010"><a xlink:title=" ">
<path fill="none" stroke="#63b8ff" d="M317.28,-37.55C341.25,-31.66 367.52,-25.2 388.6,-20.02"/>
<polygon fill="#63b8ff" stroke="#63b8ff" points="389.39,-23.43 398.27,-17.65 387.72,-16.64 389.39,-23.43"/>
</a>
</g>
</g>
<!-- Node11 -->
<g id="Node000011" class="node">
<title>Node11</title>
<g id="a_Node000011"><a xlink:href="$evaluator_8h.html#a85426eb5cecc23caa06090d795034e5c" xlink:title=" ">
<polygon fill="white" stroke="#666666" points="625.75,-20 534.75,-20 534.75,0 625.75,0 625.75,-20"/>
<text text-anchor="middle" x="580.25" y="-6.5" font-family="Helvetica,sans-Serif" font-size="10.00">compareIndexVal</text>
</a>
</g>
</g>
<!-- Node10&#45;&gt;Node11 -->
<g id="edge24_Node000010_Node000011" class="edge">
<title>Node10&#45;&gt;Node11</title>
<g id="a_edge24_Node000010_Node000011"><a xlink:title=" ">
<path fill="none" stroke="#63b8ff" d="M461.3,-10C479.03,-10 502.07,-10 523.08,-10"/>
<polygon fill="#63b8ff" stroke="#63b8ff" points="522.98,-13.5 532.98,-10 522.98,-6.5 522.98,-13.5"/>
</a>
</g>
</g>
<!-- Node12&#45;&gt;Node3 -->
<g id="edge27_Node000012_Node000003" class="edge">
<title>Node12&#45;&gt;Node3</title>
<g id="a_edge27_Node000012_Node000003"><a xlink:title=" ">
<path fill="none" stroke="#63b8ff" d="M309.99,-120.34C315.6,-122.86 321.03,-125.74 326,-129 362.59,-153.03 394.33,-193.2 412.66,-219.4"/>
<polygon fill="#63b8ff" stroke="#63b8ff" points="409.63,-221.16 418.16,-227.44 415.41,-217.21 409.63,-221.16"/>
</a>
</g>
</g>
<!-- Node13 -->
<g id="Node000013" class="node">
<title>Node13</title>
<g id="a_Node000013"><a xlink:href="$classcrmfnes_1_1_crfmnes_optimizer.html#a13448f49cc0f161fa5fdbd6430cc7804" xlink:title=" ">
<polygon fill="white" stroke="#666666" points="498.75,-120 362,-120 362,-88 498.75,-88 498.75,-120"/>
<text text-anchor="start" x="370" y="-106.5" font-family="Helvetica,sans-Serif" font-size="10.00">crmfnes::CrfmnesOptimizer</text>
<text text-anchor="middle" x="430.38" y="-94.5" font-family="Helvetica,sans-Serif" font-size="10.00">::alpha_dist</text>
</a>
</g>
</g>
<!-- Node12&#45;&gt;Node13 -->
<g id="edge26_Node000012_Node000013" class="edge">
<title>Node12&#45;&gt;Node13</title>
<g id="a_edge26_Node000012_Node000013"><a xlink:title=" ">
<path fill="none" stroke="#63b8ff" d="M318.05,-104C328.52,-104 339.41,-104 350.11,-104"/>
<polygon fill="#63b8ff" stroke="#63b8ff" points="350.09,-107.5 360.09,-104 350.09,-100.5 350.09,-107.5"/>
</a>
</g>
</g>
</g>
</svg>
