<?xml version="1.0" encoding="UTF-8" standalone="no"?>
<!DOCTYPE svg PUBLIC "-//W3C//DTD SVG 1.1//EN"
 "http://www.w3.org/Graphics/SVG/1.1/DTD/svg11.dtd">
<!-- Generated by graphviz version 12.2.1 (20241206.2353)
 -->
<!-- Title: examples.jobshop.fitness.fun Pages: 1 -->
<svg width="478pt" height="106pt"
 viewBox="0.00 0.00 478.25 106.00" xmlns="http://www.w3.org/2000/svg" xmlns:xlink="http://www.w3.org/1999/xlink">
<g id="graph0" class="graph" transform="scale(1 1) rotate(0) translate(4 102)">
<title>examples.jobshop.fitness.fun</title>
<!-- Node1 -->
<g id="Node000001" class="node">
<title>Node1</title>
<g id="a_Node000001"><a xlink:title=" ">
<polygon fill="#999999" stroke="#666666" points="143.5,-67 0,-67 0,-47 143.5,-47 143.5,-67"/>
<text text-anchor="middle" x="71.75" y="-53.5" font-family="Helvetica,sans-Serif" font-size="10.00">examples.jobshop.fitness.fun</text>
</a>
</g>
</g>
<!-- Node2 -->
<g id="Node000002" class="node">
<title>Node2</title>
<g id="a_Node000002"><a xlink:href="$namespaceexamples_1_1jobshop.html#a3bfeb2d540dcef3a8111193fd5990f23" xlink:title=" ">
<polygon fill="white" stroke="#666666" points="302.38,-98 183.62,-98 183.62,-66 302.38,-66 302.38,-98"/>
<text text-anchor="start" x="191.62" y="-84.5" font-family="Helvetica,sans-Serif" font-size="10.00">examples.jobshop.exec</text>
<text text-anchor="middle" x="243" y="-72.5" font-family="Helvetica,sans-Serif" font-size="10.00">_tasks</text>
</a>
</g>
</g>
<!-- Node1&#45;&gt;Node2 -->
<g id="edge5_Node000001_Node000002" class="edge">
<title>Node1&#45;&gt;Node2</title>
<g id="a_edge5_Node000001_Node000002"><a xlink:title=" ">
<path fill="none" stroke="#63b8ff" d="M143.55,-67.46C152.95,-68.85 162.59,-70.27 171.97,-71.66"/>
<polygon fill="#63b8ff" stroke="#63b8ff" points="171.37,-75.11 181.77,-73.1 172.39,-68.18 171.37,-75.11"/>
</a>
</g>
</g>
<!-- Node3 -->
<g id="Node000003" class="node">
<title>Node3</title>
<g id="a_Node000003"><a xlink:href="$namespaceexamples_1_1jobshop.html#aa5e76ed2d482c6572421cff829f9da68" xlink:title=" ">
<polygon fill="white" stroke="#666666" points="306.5,-48 179.5,-48 179.5,-16 306.5,-16 306.5,-48"/>
<text text-anchor="start" x="187.5" y="-34.5" font-family="Helvetica,sans-Serif" font-size="10.00">examples.jobshop.filtered</text>
<text text-anchor="middle" x="243" y="-22.5" font-family="Helvetica,sans-Serif" font-size="10.00">_tasks</text>
</a>
</g>
</g>
<!-- Node1&#45;&gt;Node3 -->
<g id="edge6_Node000001_Node000003" class="edge">
<title>Node1&#45;&gt;Node3</title>
<g id="a_edge6_Node000001_Node000003"><a xlink:title=" ">
<path fill="none" stroke="#63b8ff" d="M143.55,-46.54C151.55,-45.36 159.72,-44.15 167.77,-42.96"/>
<polygon fill="#63b8ff" stroke="#63b8ff" points="168.15,-46.45 177.53,-41.52 167.13,-39.52 168.15,-46.45"/>
</a>
</g>
</g>
<!-- Node4 -->
<g id="Node000004" class="node">
<title>Node4</title>
<g id="a_Node000004"><a xlink:href="$namespaceexamples_1_1jobshop.html#a750acc4c674962244544953c8738f08a" xlink:title=" ">
<polygon fill="white" stroke="#666666" points="464.62,-70 348.12,-70 348.12,-38 464.62,-38 464.62,-70"/>
<text text-anchor="start" x="356.12" y="-56.5" font-family="Helvetica,sans-Serif" font-size="10.00">examples.jobshop.filter</text>
<text text-anchor="middle" x="406.38" y="-44.5" font-family="Helvetica,sans-Serif" font-size="10.00">_tasks</text>
</a>
</g>
</g>
<!-- Node3&#45;&gt;Node4 -->
<g id="edge7_Node000003_Node000004" class="edge">
<title>Node3&#45;&gt;Node4</title>
<g id="a_edge7_Node000003_Node000004"><a xlink:title=" ">
<path fill="none" stroke="#63b8ff" d="M306.85,-40.57C316.52,-41.89 326.55,-43.25 336.34,-44.59"/>
<polygon fill="#63b8ff" stroke="#63b8ff" points="335.82,-48.05 346.2,-45.93 336.76,-41.11 335.82,-48.05"/>
</a>
</g>
</g>
<!-- Node5 -->
<g id="Node000005" class="node">
<title>Node5</title>
<g id="a_Node000005"><a xlink:href="$namespaceexamples_1_1jobshop.html#a51c2115b043ef1e6627c7e92383cb656" xlink:title=" ">
<polygon fill="white" stroke="#666666" points="470.25,-20 342.5,-20 342.5,0 470.25,0 470.25,-20"/>
<text text-anchor="middle" x="406.38" y="-6.5" font-family="Helvetica,sans-Serif" font-size="10.00">examples.jobshop.reorder</text>
</a>
</g>
</g>
<!-- Node3&#45;&gt;Node5 -->
<g id="edge8_Node000003_Node000005" class="edge">
<title>Node3&#45;&gt;Node5</title>
<g id="a_edge8_Node000003_Node000005"><a xlink:title=" ">
<path fill="none" stroke="#63b8ff" d="M306.85,-23.43C314.73,-22.36 322.85,-21.25 330.89,-20.15"/>
<polygon fill="#63b8ff" stroke="#63b8ff" points="331.23,-23.64 340.66,-18.82 330.28,-16.71 331.23,-23.64"/>
</a>
</g>
</g>
</g>
</svg>
