<?xml version="1.0" encoding="UTF-8" standalone="no"?>
<!DOCTYPE svg PUBLIC "-//W3C//DTD SVG 1.1//EN"
 "http://www.w3.org/Graphics/SVG/1.1/DTD/svg11.dtd">
<!-- Generated by graphviz version 12.2.1 (20241206.2353)
 -->
<!-- Title: mode_optimizer::MoDeOptimizer::nextX Pages: 1 -->
<svg width="444pt" height="116pt"
 viewBox="0.00 0.00 443.75 116.00" xmlns="http://www.w3.org/2000/svg" xmlns:xlink="http://www.w3.org/1999/xlink">
<g id="graph0" class="graph" transform="scale(1 1) rotate(0) translate(4 112)">
<title>mode_optimizer::MoDeOptimizer::nextX</title>
<!-- Node1 -->
<g id="Node000001" class="node">
<title>Node1</title>
<g id="a_Node000001"><a xlink:title=" ">
<polygon fill="#999999" stroke="#666666" points="159.25,-64 0,-64 0,-32 159.25,-32 159.25,-64"/>
<text text-anchor="start" x="8" y="-50.5" font-family="Helvetica,sans-Serif" font-size="10.00">mode_optimizer::MoDeOptimizer</text>
<text text-anchor="middle" x="79.62" y="-38.5" font-family="Helvetica,sans-Serif" font-size="10.00">::nextX</text>
</a>
</g>
</g>
<!-- Node2 -->
<g id="Node000002" class="node">
<title>Node2</title>
<g id="a_Node000002"><a xlink:href="$classmode__optimizer_1_1_mo_de_optimizer.html#af3c43901c39d8ee6f6ec5fb1d02f327e" xlink:title=" ">
<polygon fill="white" stroke="#666666" points="354.5,-108 195.25,-108 195.25,-76 354.5,-76 354.5,-108"/>
<text text-anchor="start" x="203.25" y="-94.5" font-family="Helvetica,sans-Serif" font-size="10.00">mode_optimizer::MoDeOptimizer</text>
<text text-anchor="middle" x="274.88" y="-82.5" font-family="Helvetica,sans-Serif" font-size="10.00">::modify</text>
</a>
</g>
</g>
<!-- Node1&#45;&gt;Node2 -->
<g id="edge5_Node000001_Node000002" class="edge">
<title>Node1&#45;&gt;Node2</title>
<g id="a_edge5_Node000001_Node000002"><a xlink:title=" ">
<path fill="none" stroke="#63b8ff" d="M152.86,-64.45C165.13,-67.24 177.96,-70.16 190.49,-73.02"/>
<polygon fill="#63b8ff" stroke="#63b8ff" points="189.4,-76.36 199.93,-75.16 190.96,-69.53 189.4,-76.36"/>
</a>
</g>
</g>
<!-- Node3 -->
<g id="Node000003" class="node">
<title>Node3</title>
<g id="a_Node000003"><a xlink:href="$evaluator_8h.html#a0007d50439e7d7122b6dd54d05c7c45b" xlink:title=" ">
<polygon fill="white" stroke="#666666" points="435.75,-80 390.5,-80 390.5,-60 435.75,-60 435.75,-80"/>
<text text-anchor="middle" x="413.12" y="-66.5" font-family="Helvetica,sans-Serif" font-size="10.00">rand01</text>
</a>
</g>
</g>
<!-- Node1&#45;&gt;Node3 -->
<g id="edge7_Node000001_Node000003" class="edge">
<title>Node1&#45;&gt;Node3</title>
<g id="a_edge7_Node000001_Node000003"><a xlink:title=" ">
<path fill="none" stroke="#63b8ff" d="M159.61,-53.24C229.46,-57.88 327.95,-64.41 378.82,-67.79"/>
<polygon fill="#63b8ff" stroke="#63b8ff" points="378.37,-71.27 388.58,-68.44 378.84,-64.28 378.37,-71.27"/>
</a>
</g>
</g>
<!-- Node4 -->
<g id="Node000004" class="node">
<title>Node4</title>
<g id="a_Node000004"><a xlink:href="$evaluator_8h.html#a3f89a72cbd8f38570fbb77117bdc7cbb" xlink:title=" ">
<polygon fill="white" stroke="#666666" points="297.88,-20 251.88,-20 251.88,0 297.88,0 297.88,-20"/>
<text text-anchor="middle" x="274.88" y="-6.5" font-family="Helvetica,sans-Serif" font-size="10.00">randInt</text>
</a>
</g>
</g>
<!-- Node1&#45;&gt;Node4 -->
<g id="edge8_Node000001_Node000004" class="edge">
<title>Node1&#45;&gt;Node4</title>
<g id="a_edge8_Node000001_Node000004"><a xlink:title=" ">
<path fill="none" stroke="#63b8ff" d="M159.51,-32.49C187.82,-26.92 218.23,-20.94 240.57,-16.55"/>
<polygon fill="#63b8ff" stroke="#63b8ff" points="241.16,-20 250.29,-14.64 239.8,-13.13 241.16,-20"/>
</a>
</g>
</g>
<!-- Node2&#45;&gt;Node3 -->
<g id="edge6_Node000002_Node000003" class="edge">
<title>Node2&#45;&gt;Node3</title>
<g id="a_edge6_Node000002_Node000003"><a xlink:title=" ">
<path fill="none" stroke="#63b8ff" d="M354.74,-79.27C363.13,-77.91 371.31,-76.59 378.73,-75.39"/>
<polygon fill="#63b8ff" stroke="#63b8ff" points="379.24,-78.85 388.56,-73.81 378.13,-71.94 379.24,-78.85"/>
</a>
</g>
</g>
</g>
</svg>
