<?xml version="1.0" encoding="UTF-8" standalone="no"?>
<!DOCTYPE svg PUBLIC "-//W3C//DTD SVG 1.1//EN"
 "http://www.w3.org/Graphics/SVG/1.1/DTD/svg11.dtd">
<!-- Generated by graphviz version 12.2.1 (20241206.2353)
 -->
<!-- Title: fcmaes.journal.Base_message Pages: 1 -->
<svg width="444pt" height="172pt"
 viewBox="0.00 0.00 443.88 172.00" xmlns="http://www.w3.org/2000/svg" xmlns:xlink="http://www.w3.org/1999/xlink">
<g id="graph0" class="graph" transform="scale(1 1) rotate(0) translate(4 168)">
<title>fcmaes.journal.Base_message</title>
<!-- Node1 -->
<g id="Node000001" class="node">
<title>Node1</title>
<g id="a_Node000001"><a xlink:title="Represents the base structure of a message.">
<polygon fill="#999999" stroke="none" points="269.75,-164 172.5,-164 172.5,-100 269.75,-100 269.75,-164"/>
<text text-anchor="start" x="176.5" y="-150.5" font-family="Helvetica,sans-Serif" font-size="10.00">fcmaes.journal.Base</text>
<text text-anchor="start" x="198.62" y="-138.5" font-family="Helvetica,sans-Serif" font-size="10.00">_message</text>
<text text-anchor="start" x="219.62" y="-122.5" font-family="Helvetica,sans-Serif" font-size="10.00"> </text>
<text text-anchor="start" x="219.62" y="-106.5" font-family="Helvetica,sans-Serif" font-size="10.00"> </text>
<polygon fill="#666666" stroke="#666666" points="172.5,-134 172.5,-134 269.75,-134 269.75,-134 172.5,-134"/>
<polygon fill="#666666" stroke="#666666" points="172.5,-118 172.5,-118 269.75,-118 269.75,-118 172.5,-118"/>
<polygon fill="none" stroke="#666666" points="172.5,-100 172.5,-164 269.75,-164 269.75,-100 172.5,-100"/>
</a>
</g>
</g>
<!-- Node2 -->
<g id="Node000002" class="node">
<title>Node2</title>
<g id="a_Node000002"><a xlink:href="$classfcmaes_1_1journal_1_1_study__start.html" xlink:title="Represents the initial message to start a study.">
<polygon fill="white" stroke="none" points="100.25,-64 0,-64 0,0 100.25,0 100.25,-64"/>
<text text-anchor="start" x="4" y="-50.5" font-family="Helvetica,sans-Serif" font-size="10.00">fcmaes.journal.Study</text>
<text text-anchor="start" x="37.75" y="-38.5" font-family="Helvetica,sans-Serif" font-size="10.00">_start</text>
<text text-anchor="start" x="9.38" y="-22.5" font-family="Helvetica,sans-Serif" font-size="10.00">+</text>
<text text-anchor="start" x="24.75" y="-22.5" font-family="Helvetica,sans-Serif" font-size="10.00">List directions</text>
<text text-anchor="start" x="48.62" y="-6.5" font-family="Helvetica,sans-Serif" font-size="10.00"> </text>
<polygon fill="#666666" stroke="#666666" points="0,-34 0,-34 100.25,-34 100.25,-34 0,-34"/>
<polygon fill="#666666" stroke="#666666" points="0,-18 0,-18 22.75,-18 22.75,-18 0,-18"/>
<polygon fill="#666666" stroke="#666666" points="22.75,-18 22.75,-18 100.25,-18 100.25,-18 22.75,-18"/>
<polygon fill="none" stroke="#666666" points="0,0 0,-64 100.25,-64 100.25,0 0,0"/>
</a>
</g>
</g>
<!-- Node1&#45;&gt;Node2 -->
<g id="edge5_Node000001_Node000002" class="edge">
<title>Node1&#45;&gt;Node2</title>
<g id="a_edge5_Node000001_Node000002"><a xlink:title=" ">
<path fill="none" stroke="#63b8ff" d="M162.77,-97.56C142.35,-85.86 119.64,-72.84 99.98,-61.57"/>
<polygon fill="none" stroke="#63b8ff" points="160.85,-100.49 171.27,-102.43 164.33,-94.42 160.85,-100.49"/>
</a>
</g>
</g>
<!-- Node3 -->
<g id="Node000003" class="node">
<title>Node3</title>
<g id="a_Node000003"><a xlink:href="$classfcmaes_1_1journal_1_1_trial__param.html" xlink:title="Represents the parameters associated with a specific trial.">
<polygon fill="white" stroke="none" points="211.88,-64 118.38,-64 118.38,0 211.88,0 211.88,-64"/>
<text text-anchor="start" x="122.38" y="-50.5" font-family="Helvetica,sans-Serif" font-size="10.00">fcmaes.journal.Trial</text>
<text text-anchor="start" x="149" y="-38.5" font-family="Helvetica,sans-Serif" font-size="10.00">_param</text>
<text text-anchor="start" x="124.19" y="-22.5" font-family="Helvetica,sans-Serif" font-size="10.00">+</text>
<text text-anchor="start" x="136" y="-22.5" font-family="Helvetica,sans-Serif" font-size="10.00">Dict distribution</text>
<text text-anchor="start" x="163.62" y="-6.5" font-family="Helvetica,sans-Serif" font-size="10.00"> </text>
<polygon fill="#666666" stroke="#666666" points="118.38,-34 118.38,-34 211.88,-34 211.88,-34 118.38,-34"/>
<polygon fill="#666666" stroke="#666666" points="118.38,-18 118.38,-18 134,-18 134,-18 118.38,-18"/>
<polygon fill="#666666" stroke="#666666" points="134,-18 134,-18 211.88,-18 211.88,-18 134,-18"/>
<polygon fill="none" stroke="#666666" points="118.38,0 118.38,-64 211.88,-64 211.88,0 118.38,0"/>
</a>
</g>
</g>
<!-- Node1&#45;&gt;Node3 -->
<g id="edge6_Node000001_Node000003" class="edge">
<title>Node1&#45;&gt;Node3</title>
<g id="a_edge6_Node000001_Node000003"><a xlink:title=" ">
<path fill="none" stroke="#63b8ff" d="M197.97,-90.48C192.91,-81.62 187.63,-72.38 182.82,-63.97"/>
<polygon fill="none" stroke="#63b8ff" points="194.81,-92 202.81,-98.95 200.89,-88.53 194.81,-92"/>
</a>
</g>
</g>
<!-- Node4 -->
<g id="Node000004" class="node">
<title>Node4</title>
<g id="a_Node000004"><a xlink:href="$classfcmaes_1_1journal_1_1_trial__start.html" xlink:title="Represents the start of a trial within a specific study.">
<polygon fill="white" stroke="none" points="323.88,-64 230.38,-64 230.38,0 323.88,0 323.88,-64"/>
<text text-anchor="start" x="234.38" y="-50.5" font-family="Helvetica,sans-Serif" font-size="10.00">fcmaes.journal.Trial</text>
<text text-anchor="start" x="264.75" y="-38.5" font-family="Helvetica,sans-Serif" font-size="10.00">_start</text>
<text text-anchor="start" x="275.62" y="-22.5" font-family="Helvetica,sans-Serif" font-size="10.00"> </text>
<text text-anchor="start" x="275.62" y="-6.5" font-family="Helvetica,sans-Serif" font-size="10.00"> </text>
<polygon fill="#666666" stroke="#666666" points="230.38,-34 230.38,-34 323.88,-34 323.88,-34 230.38,-34"/>
<polygon fill="#666666" stroke="#666666" points="230.38,-18 230.38,-18 323.88,-18 323.88,-18 230.38,-18"/>
<polygon fill="none" stroke="#666666" points="230.38,0 230.38,-64 323.88,-64 323.88,0 230.38,0"/>
</a>
</g>
</g>
<!-- Node1&#45;&gt;Node4 -->
<g id="edge7_Node000001_Node000004" class="edge">
<title>Node1&#45;&gt;Node4</title>
<g id="a_edge7_Node000001_Node000004"><a xlink:title=" ">
<path fill="none" stroke="#63b8ff" d="M244.28,-90.48C249.34,-81.62 254.62,-72.38 259.43,-63.97"/>
<polygon fill="none" stroke="#63b8ff" points="241.36,-88.53 239.44,-98.95 247.44,-92 241.36,-88.53"/>
</a>
</g>
</g>
<!-- Node5 -->
<g id="Node000005" class="node">
<title>Node5</title>
<g id="a_Node000005"><a xlink:href="$classfcmaes_1_1journal_1_1_trial__value.html" xlink:title="Represents the value of a single trial in an experiment.">
<polygon fill="white" stroke="none" points="435.88,-64 342.38,-64 342.38,0 435.88,0 435.88,-64"/>
<text text-anchor="start" x="346.38" y="-50.5" font-family="Helvetica,sans-Serif" font-size="10.00">fcmaes.journal.Trial</text>
<text text-anchor="start" x="374.88" y="-38.5" font-family="Helvetica,sans-Serif" font-size="10.00">_value</text>
<text text-anchor="start" x="353.44" y="-22.5" font-family="Helvetica,sans-Serif" font-size="10.00">+</text>
<text text-anchor="start" x="370.5" y="-22.5" font-family="Helvetica,sans-Serif" font-size="10.00">List values</text>
<text text-anchor="start" x="387.62" y="-6.5" font-family="Helvetica,sans-Serif" font-size="10.00"> </text>
<polygon fill="#666666" stroke="#666666" points="342.38,-34 342.38,-34 435.88,-34 435.88,-34 342.38,-34"/>
<polygon fill="#666666" stroke="#666666" points="342.38,-18 342.38,-18 368.5,-18 368.5,-18 342.38,-18"/>
<polygon fill="#666666" stroke="#666666" points="368.5,-18 368.5,-18 435.88,-18 435.88,-18 368.5,-18"/>
<polygon fill="none" stroke="#666666" points="342.38,0 342.38,-64 435.88,-64 435.88,0 342.38,0"/>
</a>
</g>
</g>
<!-- Node1&#45;&gt;Node5 -->
<g id="edge8_Node000001_Node000005" class="edge">
<title>Node1&#45;&gt;Node5</title>
<g id="a_edge8_Node000001_Node000005"><a xlink:title=" ">
<path fill="none" stroke="#63b8ff" d="M279.6,-96.89C300.14,-84.91 322.93,-71.62 342.38,-60.27"/>
<polygon fill="none" stroke="#63b8ff" points="277.9,-93.83 271.02,-101.89 281.43,-99.88 277.9,-93.83"/>
</a>
</g>
</g>
</g>
</svg>
