<?xml version="1.0" encoding="UTF-8" standalone="no"?>
<!DOCTYPE svg PUBLIC "-//W3C//DTD SVG 1.1//EN"
 "http://www.w3.org/Graphics/SVG/1.1/DTD/svg11.dtd">
<!-- Generated by graphviz version 12.2.1 (20241206.2353)
 -->
<!-- Title: evaluator::result Pages: 1 -->
<svg width="265pt" height="114pt"
 viewBox="0.00 0.00 265.00 114.00" xmlns="http://www.w3.org/2000/svg" xmlns:xlink="http://www.w3.org/1999/xlink">
<g id="graph0" class="graph" transform="scale(1 1) rotate(0) translate(4 110)">
<title>evaluator::result</title>
<!-- Node1 -->
<g id="Node000001" class="node">
<title>Node1</title>
<g id="a_Node000001"><a xlink:title=" ">
<polygon fill="#999999" stroke="#666666" points="257,-63 171.25,-63 171.25,-43 257,-43 257,-63"/>
<text text-anchor="middle" x="214.12" y="-49.5" font-family="Helvetica,sans-Serif" font-size="10.00">evaluator::result</text>
</a>
</g>
</g>
<!-- Node2 -->
<g id="Node000002" class="node">
<title>Node2</title>
<g id="a_Node000002"><a xlink:href="$classacmaes_1_1_acmaes_optimizer.html#ab3af1e3acb2561d4b0be23b402b232a9" xlink:title=" ">
<polygon fill="white" stroke="#666666" points="134.88,-106 0.38,-106 0.38,-62 134.88,-62 134.88,-106"/>
<text text-anchor="start" x="8.38" y="-92.5" font-family="Helvetica,sans-Serif" font-size="10.00">acmaes::AcmaesOptimizer</text>
<text text-anchor="start" x="8.38" y="-80.5" font-family="Helvetica,sans-Serif" font-size="10.00">::do_optimize_delayed</text>
<text text-anchor="middle" x="67.62" y="-68.5" font-family="Helvetica,sans-Serif" font-size="10.00">_update</text>
</a>
</g>
</g>
<!-- Node1&#45;&gt;Node2 -->
<g id="edge3_Node000001_Node000002" class="edge">
<title>Node1&#45;&gt;Node2</title>
<g id="a_edge3_Node000001_Node000002"><a xlink:title=" ">
<path fill="none" stroke="#63b8ff" d="M159.9,-64.42C151.9,-66.13 143.57,-67.92 135.33,-69.69"/>
<polygon fill="#63b8ff" stroke="#63b8ff" points="160.42,-67.89 169.46,-62.37 158.95,-61.04 160.42,-67.89"/>
</a>
</g>
</g>
<!-- Node3 -->
<g id="Node000003" class="node">
<title>Node3</title>
<g id="a_Node000003"><a xlink:href="$classdifferential__evolution_1_1_de_optimizer.html#a0af3433f0f60f99f8a9fbf9f10f36360" xlink:title=" ">
<polygon fill="white" stroke="#666666" points="135.25,-44 0,-44 0,0 135.25,0 135.25,-44"/>
<text text-anchor="start" x="8" y="-30.5" font-family="Helvetica,sans-Serif" font-size="10.00">differential_evolution</text>
<text text-anchor="start" x="8" y="-18.5" font-family="Helvetica,sans-Serif" font-size="10.00">::DeOptimizer::do_optimize</text>
<text text-anchor="middle" x="67.62" y="-6.5" font-family="Helvetica,sans-Serif" font-size="10.00">_delayed_update</text>
</a>
</g>
</g>
<!-- Node1&#45;&gt;Node3 -->
<g id="edge4_Node000001_Node000003" class="edge">
<title>Node1&#45;&gt;Node3</title>
<g id="a_edge4_Node000001_Node000003"><a xlink:title=" ">
<path fill="none" stroke="#63b8ff" d="M159.71,-41.54C151.86,-39.86 143.69,-38.1 135.6,-36.37"/>
<polygon fill="#63b8ff" stroke="#63b8ff" points="158.95,-44.96 169.46,-43.63 160.42,-38.11 158.95,-44.96"/>
</a>
</g>
</g>
</g>
</svg>
