<?xml version="1.0" encoding="UTF-8" standalone="no"?>
<!DOCTYPE svg PUBLIC "-//W3C//DTD SVG 1.1//EN"
 "http://www.w3.org/Graphics/SVG/1.1/DTD/svg11.dtd">
<!-- Generated by graphviz version 12.2.1 (20241206.2353)
 -->
<!-- Title: CNMSeqOpt::eval Pages: 1 -->
<svg width="257pt" height="190pt"
 viewBox="0.00 0.00 256.75 190.00" xmlns="http://www.w3.org/2000/svg" xmlns:xlink="http://www.w3.org/1999/xlink">
<g id="graph0" class="graph" transform="scale(1 1) rotate(0) translate(4 186)">
<title>CNMSeqOpt::eval</title>
<!-- Node1 -->
<g id="Node000001" class="node">
<title>Node1</title>
<g id="a_Node000001"><a xlink:title=" ">
<polygon fill="#999999" stroke="#666666" points="96.25,-101 0,-101 0,-81 96.25,-81 96.25,-101"/>
<text text-anchor="middle" x="48.12" y="-87.5" font-family="Helvetica,sans-Serif" font-size="10.00">CNMSeqOpt::eval</text>
</a>
</g>
</g>
<!-- Node2 -->
<g id="Node000002" class="node">
<title>Node2</title>
<g id="a_Node000002"><a xlink:href="$class_c_bite_pop.html#a57e751582761922bbabff1ddb7af277b" xlink:title=" ">
<polygon fill="white" stroke="#666666" points="242.75,-182 138.25,-182 138.25,-150 242.75,-150 242.75,-182"/>
<text text-anchor="start" x="146.25" y="-168.5" font-family="Helvetica,sans-Serif" font-size="10.00">CBitePop&lt; double &gt;</text>
<text text-anchor="middle" x="190.5" y="-156.5" font-family="Helvetica,sans-Serif" font-size="10.00">::copyValues</text>
</a>
</g>
</g>
<!-- Node1&#45;&gt;Node2 -->
<g id="edge5_Node000001_Node000002" class="edge">
<title>Node1&#45;&gt;Node2</title>
<g id="a_edge5_Node000001_Node000002"><a xlink:title=" ">
<path fill="none" stroke="#63b8ff" d="M65.02,-101.41C81.49,-111.99 108.16,-128.56 132.25,-141 134.74,-142.28 137.31,-143.56 139.91,-144.83"/>
<polygon fill="#63b8ff" stroke="#63b8ff" points="138.16,-147.87 148.7,-148.94 141.13,-141.53 138.16,-147.87"/>
</a>
</g>
</g>
<!-- Node3 -->
<g id="Node000003" class="node">
<title>Node3</title>
<g id="a_Node000003"><a xlink:href="$class_c_bite_opt_interface.html#a45d7e2c9ea31b6f8bb23758a6879df9d" xlink:title=" ">
<polygon fill="white" stroke="#666666" points="240.88,-132 140.12,-132 140.12,-100 240.88,-100 240.88,-132"/>
<text text-anchor="start" x="148.12" y="-118.5" font-family="Helvetica,sans-Serif" font-size="10.00">CBiteOptInterface::</text>
<text text-anchor="middle" x="190.5" y="-106.5" font-family="Helvetica,sans-Serif" font-size="10.00">optcost</text>
</a>
</g>
</g>
<!-- Node1&#45;&gt;Node3 -->
<g id="edge6_Node000001_Node000003" class="edge">
<title>Node1&#45;&gt;Node3</title>
<g id="a_edge6_Node000001_Node000003"><a xlink:title=" ">
<path fill="none" stroke="#63b8ff" d="M96.65,-99.46C106.92,-101.29 117.92,-103.25 128.62,-105.16"/>
<polygon fill="#63b8ff" stroke="#63b8ff" points="127.68,-108.54 138.14,-106.85 128.9,-101.65 127.68,-108.54"/>
</a>
</g>
</g>
<!-- Node4 -->
<g id="Node000004" class="node">
<title>Node4</title>
<g id="a_Node000004"><a xlink:href="$class_c_bite_opt_base.html#a9e49b98f5f6a2470d060282b2fd26a53" xlink:title=" ">
<polygon fill="white" stroke="#666666" points="248.75,-82 132.25,-82 132.25,-50 248.75,-50 248.75,-82"/>
<text text-anchor="start" x="140.25" y="-68.5" font-family="Helvetica,sans-Serif" font-size="10.00">CBiteOptBase&lt; double</text>
<text text-anchor="middle" x="190.5" y="-56.5" font-family="Helvetica,sans-Serif" font-size="10.00"> &gt;::updateBestCost</text>
</a>
</g>
</g>
<!-- Node1&#45;&gt;Node4 -->
<g id="edge7_Node000001_Node000004" class="edge">
<title>Node1&#45;&gt;Node4</title>
<g id="a_edge7_Node000001_Node000004"><a xlink:title=" ">
<path fill="none" stroke="#63b8ff" d="M96.65,-82.54C104.41,-81.15 112.59,-79.7 120.75,-78.24"/>
<polygon fill="#63b8ff" stroke="#63b8ff" points="121.09,-81.74 130.32,-76.54 119.86,-74.85 121.09,-81.74"/>
</a>
</g>
</g>
<!-- Node5 -->
<g id="Node000005" class="node">
<title>Node5</title>
<g id="a_Node000005"><a xlink:href="$class_c_bite_opt_base.html#a634a498e8ebd71bbf87fd1df02f178e0" xlink:title=" ">
<polygon fill="white" stroke="#666666" points="248.75,-32 132.25,-32 132.25,0 248.75,0 248.75,-32"/>
<text text-anchor="start" x="140.25" y="-18.5" font-family="Helvetica,sans-Serif" font-size="10.00">CBiteOptBase&lt; double</text>
<text text-anchor="middle" x="190.5" y="-6.5" font-family="Helvetica,sans-Serif" font-size="10.00"> &gt;::wrapParamReal</text>
</a>
</g>
</g>
<!-- Node1&#45;&gt;Node5 -->
<g id="edge8_Node000001_Node000005" class="edge">
<title>Node1&#45;&gt;Node5</title>
<g id="a_edge8_Node000001_Node000005"><a xlink:title=" ">
<path fill="none" stroke="#63b8ff" d="M65.02,-80.59C81.49,-70.01 108.16,-53.44 132.25,-41 134.74,-39.72 137.31,-38.44 139.91,-37.17"/>
<polygon fill="#63b8ff" stroke="#63b8ff" points="141.13,-40.47 148.7,-33.06 138.16,-34.13 141.13,-40.47"/>
</a>
</g>
</g>
</g>
</svg>
