<?xml version="1.0" encoding="UTF-8" standalone="no"?>
<!DOCTYPE svg PUBLIC "-//W3C//DTD SVG 1.1//EN"
 "http://www.w3.org/Graphics/SVG/1.1/DTD/svg11.dtd">
<!-- Generated by graphviz version 12.2.1 (20241206.2353)
 -->
<!-- Title: CBiteOpt::generateSol2c Pages: 1 -->
<svg width="429pt" height="47pt"
 viewBox="0.00 0.00 428.75 47.00" xmlns="http://www.w3.org/2000/svg" xmlns:xlink="http://www.w3.org/1999/xlink">
<g id="graph0" class="graph" transform="scale(1 1) rotate(0) translate(4 43)">
<title>CBiteOpt::generateSol2c</title>
<!-- Node1 -->
<g id="Node000001" class="node">
<title>Node1</title>
<g id="a_Node000001"><a xlink:title=" ">
<polygon fill="#999999" stroke="#666666" points="420.75,-20 296,-20 296,0 420.75,0 420.75,-20"/>
<text text-anchor="middle" x="358.38" y="-6.5" font-family="Helvetica,sans-Serif" font-size="10.00">CBiteOpt::generateSol2c</text>
</a>
</g>
</g>
<!-- Node2 -->
<g id="Node000002" class="node">
<title>Node2</title>
<g id="a_Node000002"><a xlink:href="$class_c_bite_opt.html#a76fa9d8bf4abde13b69e06761acc82f5" xlink:title=" ">
<polygon fill="white" stroke="#666666" points="260,-39 135.25,-39 135.25,-19 260,-19 260,-39"/>
<text text-anchor="middle" x="197.62" y="-25.5" font-family="Helvetica,sans-Serif" font-size="10.00">CBiteOpt::generateSol2d</text>
</a>
</g>
</g>
<!-- Node1&#45;&gt;Node2 -->
<g id="edge4_Node000001_Node000002" class="edge">
<title>Node1&#45;&gt;Node2</title>
<g id="a_edge4_Node000001_Node000002"><a xlink:title=" ">
<path fill="none" stroke="#63b8ff" d="M284.29,-18.75C276.27,-19.71 268.15,-20.68 260.29,-21.62"/>
<polygon fill="#63b8ff" stroke="#63b8ff" points="284.53,-22.24 294.04,-17.58 283.7,-15.29 284.53,-22.24"/>
</a>
</g>
</g>
<!-- Node3 -->
<g id="Node000003" class="node">
<title>Node3</title>
<g id="a_Node000003"><a xlink:href="$class_c_bite_opt.html#a2f56a9d5d682c92e2da1234ed68d54ed" xlink:title=" ">
<polygon fill="white" stroke="#666666" points="99.25,-20 0,-20 0,0 99.25,0 99.25,-20"/>
<text text-anchor="middle" x="49.62" y="-6.5" font-family="Helvetica,sans-Serif" font-size="10.00">CBiteOpt::optimize</text>
</a>
</g>
</g>
<!-- Node1&#45;&gt;Node3 -->
<g id="edge6_Node000001_Node000003" class="edge">
<title>Node1&#45;&gt;Node3</title>
<g id="a_edge6_Node000001_Node000003"><a xlink:title=" ">
<path fill="none" stroke="#63b8ff" d="M284.18,-10C227.1,-10 149.4,-10 99.62,-10"/>
<polygon fill="#63b8ff" stroke="#63b8ff" points="284.16,-13.5 294.16,-10 284.15,-6.5 284.16,-13.5"/>
</a>
</g>
</g>
<!-- Node2&#45;&gt;Node3 -->
<g id="edge5_Node000002_Node000003" class="edge">
<title>Node2&#45;&gt;Node3</title>
<g id="a_edge5_Node000002_Node000003"><a xlink:title=" ">
<path fill="none" stroke="#63b8ff" d="M123.94,-19.54C115.71,-18.47 107.47,-17.4 99.64,-16.38"/>
<polygon fill="#63b8ff" stroke="#63b8ff" points="123.26,-22.98 133.63,-20.8 124.17,-16.04 123.26,-22.98"/>
</a>
</g>
</g>
</g>
</svg>
