<?xml version="1.0" encoding="UTF-8" standalone="no"?>
<!DOCTYPE svg PUBLIC "-//W3C//DTD SVG 1.1//EN"
 "http://www.w3.org/Graphics/SVG/1.1/DTD/svg11.dtd">
<!-- Generated by graphviz version 12.2.1 (20241206.2353)
 -->
<!-- Title: examples.trappist_delivery.fitness.__call__ Pages: 1 -->
<svg width="553pt" height="66pt"
 viewBox="0.00 0.00 552.50 66.00" xmlns="http://www.w3.org/2000/svg" xmlns:xlink="http://www.w3.org/1999/xlink">
<g id="graph0" class="graph" transform="scale(1 1) rotate(0) translate(4 62)">
<title>examples.trappist_delivery.fitness.__call__</title>
<!-- Node1 -->
<g id="Node000001" class="node">
<title>Node1</title>
<g id="a_Node000001"><a xlink:title=" ">
<polygon fill="#999999" stroke="#666666" points="166.75,-45 0,-45 0,-13 166.75,-13 166.75,-45"/>
<text text-anchor="start" x="8" y="-31.5" font-family="Helvetica,sans-Serif" font-size="10.00">examples.trappist_delivery.fitness.</text>
<text text-anchor="middle" x="83.38" y="-19.5" font-family="Helvetica,sans-Serif" font-size="10.00">__call__</text>
</a>
</g>
</g>
<!-- Node2 -->
<g id="Node000002" class="node">
<title>Node2</title>
<g id="a_Node000002"><a xlink:href="$namespaceexamples_1_1trappist__delivery.html#a2ac010d1048b03a8b3a60890c6d297ea" xlink:title=" ">
<polygon fill="white" stroke="#666666" points="337.25,-45 202.75,-45 202.75,-13 337.25,-13 337.25,-45"/>
<text text-anchor="start" x="210.75" y="-31.5" font-family="Helvetica,sans-Serif" font-size="10.00">examples.trappist_delivery.</text>
<text text-anchor="middle" x="270" y="-19.5" font-family="Helvetica,sans-Serif" font-size="10.00">_fitness</text>
</a>
</g>
</g>
<!-- Node1&#45;&gt;Node2 -->
<g id="edge4_Node000001_Node000002" class="edge">
<title>Node1&#45;&gt;Node2</title>
<g id="a_edge4_Node000001_Node000002"><a xlink:title=" ">
<path fill="none" stroke="#63b8ff" d="M167.24,-29C175.16,-29 183.17,-29 191.05,-29"/>
<polygon fill="#63b8ff" stroke="#63b8ff" points="190.94,-32.5 200.94,-29 190.94,-25.5 190.94,-32.5"/>
</a>
</g>
</g>
<!-- Node3 -->
<g id="Node000003" class="node">
<title>Node3</title>
<g id="a_Node000003"><a xlink:href="$namespaceexamples_1_1trappist__delivery.html#a3edb3cf576e5d7d7c04b7537dca935d5" xlink:title=" ">
<polygon fill="white" stroke="#666666" points="539.25,-58 378.5,-58 378.5,-38 539.25,-38 539.25,-58"/>
<text text-anchor="middle" x="458.88" y="-44.5" font-family="Helvetica,sans-Serif" font-size="10.00">examples.trappist_delivery.check</text>
</a>
</g>
</g>
<!-- Node2&#45;&gt;Node3 -->
<g id="edge5_Node000002_Node000003" class="edge">
<title>Node2&#45;&gt;Node3</title>
<g id="a_edge5_Node000002_Node000003"><a xlink:title=" ">
<path fill="none" stroke="#63b8ff" d="M337.67,-35.78C347.09,-36.74 356.91,-37.73 366.69,-38.73"/>
<polygon fill="#63b8ff" stroke="#63b8ff" points="366.32,-42.21 376.62,-39.74 367.03,-35.25 366.32,-42.21"/>
</a>
</g>
</g>
<!-- Node4 -->
<g id="Node000004" class="node">
<title>Node4</title>
<g id="a_Node000004"><a xlink:href="$namespaceexamples_1_1trappist__delivery.html#af96d18a768624688d121c794e4f942f0" xlink:title=" ">
<polygon fill="white" stroke="#666666" points="544.5,-20 373.25,-20 373.25,0 544.5,0 544.5,-20"/>
<text text-anchor="middle" x="458.88" y="-6.5" font-family="Helvetica,sans-Serif" font-size="10.00">examples.trappist_delivery.optimize</text>
</a>
</g>
</g>
<!-- Node2&#45;&gt;Node4 -->
<g id="edge6_Node000002_Node000004" class="edge">
<title>Node2&#45;&gt;Node4</title>
<g id="a_edge6_Node000002_Node000004"><a xlink:title=" ">
<path fill="none" stroke="#63b8ff" d="M337.67,-22.22C345.44,-21.43 353.48,-20.61 361.54,-19.79"/>
<polygon fill="#63b8ff" stroke="#63b8ff" points="361.83,-23.28 371.43,-18.79 361.13,-16.32 361.83,-23.28"/>
</a>
</g>
</g>
</g>
</svg>
