<?xml version="1.0" encoding="UTF-8" standalone="no"?>
<!DOCTYPE svg PUBLIC "-//W3C//DTD SVG 1.1//EN"
 "http://www.w3.org/Graphics/SVG/1.1/DTD/svg11.dtd">
<!-- Generated by graphviz version 12.2.1 (20241206.2353)
 -->
<!-- Title: differential_evolution::DeOptimizer::tell Pages: 1 -->
<svg width="685pt" height="134pt"
 viewBox="0.00 0.00 685.00 134.00" xmlns="http://www.w3.org/2000/svg" xmlns:xlink="http://www.w3.org/1999/xlink">
<g id="graph0" class="graph" transform="scale(1 1) rotate(0) translate(4 130)">
<title>differential_evolution::DeOptimizer::tell</title>
<!-- Node1 -->
<g id="Node000001" class="node">
<title>Node1</title>
<g id="a_Node000001"><a xlink:title=" ">
<polygon fill="#999999" stroke="#666666" points="104.5,-76 0,-76 0,-44 104.5,-44 104.5,-76"/>
<text text-anchor="start" x="8" y="-62.5" font-family="Helvetica,sans-Serif" font-size="10.00">differential_evolution</text>
<text text-anchor="middle" x="52.25" y="-50.5" font-family="Helvetica,sans-Serif" font-size="10.00">::DeOptimizer::tell</text>
</a>
</g>
</g>
<!-- Node2 -->
<g id="Node000002" class="node">
<title>Node2</title>
<g id="a_Node000002"><a xlink:href="$classdifferential__evolution_1_1_de_optimizer.html#aff18de19791b75f799d4aa5e9c60b5fa" xlink:title=" ">
<polygon fill="white" stroke="#666666" points="281.75,-120 140.5,-120 140.5,-88 281.75,-88 281.75,-120"/>
<text text-anchor="start" x="148.5" y="-106.5" font-family="Helvetica,sans-Serif" font-size="10.00">differential_evolution</text>
<text text-anchor="middle" x="211.12" y="-94.5" font-family="Helvetica,sans-Serif" font-size="10.00">::DeOptimizer::next_improve</text>
</a>
</g>
</g>
<!-- Node1&#45;&gt;Node2 -->
<g id="edge9_Node000001_Node000002" class="edge">
<title>Node1&#45;&gt;Node2</title>
<g id="a_edge9_Node000001_Node000002"><a xlink:title=" ">
<path fill="none" stroke="#63b8ff" d="M104.62,-74.41C116.11,-77.63 128.49,-81.1 140.58,-84.49"/>
<polygon fill="#63b8ff" stroke="#63b8ff" points="139.54,-87.84 150.11,-87.17 141.43,-81.1 139.54,-87.84"/>
</a>
</g>
</g>
<!-- Node4 -->
<g id="Node000004" class="node">
<title>Node4</title>
<g id="a_Node000004"><a xlink:href="$classdifferential__evolution_1_1_de_optimizer.html#a922dfb6a6903d18311a87e2fe553c78b" xlink:title=" ">
<polygon fill="white" stroke="#666666" points="580,-76 473.25,-76 473.25,-44 580,-44 580,-76"/>
<text text-anchor="start" x="481.25" y="-62.5" font-family="Helvetica,sans-Serif" font-size="10.00">differential_evolution</text>
<text text-anchor="middle" x="526.62" y="-50.5" font-family="Helvetica,sans-Serif" font-size="10.00">::DeOptimizer::rnd01</text>
</a>
</g>
</g>
<!-- Node1&#45;&gt;Node4 -->
<g id="edge14_Node000001_Node000004" class="edge">
<title>Node1&#45;&gt;Node4</title>
<g id="a_edge14_Node000001_Node000004"><a xlink:title=" ">
<path fill="none" stroke="#63b8ff" d="M104.7,-60C191.47,-60 366.67,-60 461.38,-60"/>
<polygon fill="#63b8ff" stroke="#63b8ff" points="461.28,-63.5 471.28,-60 461.28,-56.5 461.28,-63.5"/>
</a>
</g>
</g>
<!-- Node7 -->
<g id="Node000007" class="node">
<title>Node7</title>
<g id="a_Node000007"><a xlink:href="$classdifferential__evolution_1_1_de_optimizer.html#a750fb2ff0c0981be30414916d8c872bf" xlink:title=" ">
<polygon fill="white" stroke="#666666" points="268.25,-32 154,-32 154,0 268.25,0 268.25,-32"/>
<text text-anchor="start" x="162" y="-18.5" font-family="Helvetica,sans-Serif" font-size="10.00">differential_evolution</text>
<text text-anchor="middle" x="211.12" y="-6.5" font-family="Helvetica,sans-Serif" font-size="10.00">::DeOptimizer::sample</text>
</a>
</g>
</g>
<!-- Node1&#45;&gt;Node7 -->
<g id="edge15_Node000001_Node000007" class="edge">
<title>Node1&#45;&gt;Node7</title>
<g id="a_edge15_Node000001_Node000007"><a xlink:title=" ">
<path fill="none" stroke="#63b8ff" d="M104.62,-45.59C116.78,-42.18 129.93,-38.49 142.69,-34.91"/>
<polygon fill="#63b8ff" stroke="#63b8ff" points="143.63,-38.29 152.31,-32.22 141.74,-31.55 143.63,-38.29"/>
</a>
</g>
</g>
<!-- Node3 -->
<g id="Node000003" class="node">
<title>Node3</title>
<g id="a_Node000003"><a xlink:href="$classdifferential__evolution_1_1_de_optimizer.html#a9f8d2654bcad80c32d9358faa62cebd9" xlink:title=" ">
<polygon fill="white" stroke="#666666" points="429.75,-120 317.75,-120 317.75,-88 429.75,-88 429.75,-120"/>
<text text-anchor="start" x="325.75" y="-106.5" font-family="Helvetica,sans-Serif" font-size="10.00">differential_evolution</text>
<text text-anchor="middle" x="373.75" y="-94.5" font-family="Helvetica,sans-Serif" font-size="10.00">::DeOptimizer::modify</text>
</a>
</g>
</g>
<!-- Node2&#45;&gt;Node3 -->
<g id="edge10_Node000002_Node000003" class="edge">
<title>Node2&#45;&gt;Node3</title>
<g id="a_edge10_Node000002_Node000003"><a xlink:title=" ">
<path fill="none" stroke="#63b8ff" d="M282.11,-104C290.06,-104 298.15,-104 306.06,-104"/>
<polygon fill="#63b8ff" stroke="#63b8ff" points="305.97,-107.5 315.97,-104 305.97,-100.5 305.97,-107.5"/>
</a>
</g>
</g>
<!-- Node3&#45;&gt;Node4 -->
<g id="edge11_Node000003_Node000004" class="edge">
<title>Node3&#45;&gt;Node4</title>
<g id="a_edge11_Node000003_Node000004"><a xlink:title=" ">
<path fill="none" stroke="#63b8ff" d="M430.07,-87.87C440.44,-84.84 451.34,-81.66 461.93,-78.57"/>
<polygon fill="#63b8ff" stroke="#63b8ff" points="462.75,-81.98 471.37,-75.82 460.79,-75.26 462.75,-81.98"/>
</a>
</g>
</g>
<!-- Node5 -->
<g id="Node000005" class="node">
<title>Node5</title>
<g id="a_Node000005"><a xlink:href="$classdifferential__evolution_1_1_de_optimizer.html#a427ae953a5503dc4369da1bbb338fe67" xlink:title=" ">
<polygon fill="white" stroke="#666666" points="587.5,-126 465.75,-126 465.75,-94 587.5,-94 587.5,-126"/>
<text text-anchor="start" x="473.75" y="-112.5" font-family="Helvetica,sans-Serif" font-size="10.00">differential_evolution</text>
<text text-anchor="middle" x="526.62" y="-100.5" font-family="Helvetica,sans-Serif" font-size="10.00">::DeOptimizer::sample_i</text>
</a>
</g>
</g>
<!-- Node3&#45;&gt;Node5 -->
<g id="edge12_Node000003_Node000005" class="edge">
<title>Node3&#45;&gt;Node5</title>
<g id="a_edge12_Node000003_Node000005"><a xlink:title=" ">
<path fill="none" stroke="#63b8ff" d="M430.07,-106.2C437.9,-106.51 446.05,-106.84 454.13,-107.16"/>
<polygon fill="#63b8ff" stroke="#63b8ff" points="453.84,-110.65 463.97,-107.55 454.11,-103.65 453.84,-110.65"/>
</a>
</g>
</g>
<!-- Node6 -->
<g id="Node000006" class="node">
<title>Node6</title>
<g id="a_Node000006"><a xlink:href="$evaluator_8h.html#aa3d770d0f4bda035e2cc8c6f5c1b0aee" xlink:title=" ">
<polygon fill="white" stroke="#666666" points="677,-120 623.5,-120 623.5,-100 677,-100 677,-120"/>
<text text-anchor="middle" x="650.25" y="-106.5" font-family="Helvetica,sans-Serif" font-size="10.00">normreal</text>
</a>
</g>
</g>
<!-- Node5&#45;&gt;Node6 -->
<g id="edge13_Node000005_Node000006" class="edge">
<title>Node5&#45;&gt;Node6</title>
<g id="a_edge13_Node000005_Node000006"><a xlink:title=" ">
<path fill="none" stroke="#63b8ff" d="M587.72,-110C595.89,-110 604.08,-110 611.69,-110"/>
<polygon fill="#63b8ff" stroke="#63b8ff" points="611.59,-113.5 621.59,-110 611.59,-106.5 611.59,-113.5"/>
</a>
</g>
</g>
<!-- Node8 -->
<g id="Node000008" class="node">
<title>Node8</title>
<g id="a_Node000008"><a xlink:href="$evaluator_8h.html#a5b652df2286e1f0c4dae7d4dd841bb8f" xlink:title=" ">
<polygon fill="white" stroke="#666666" points="404.62,-26 342.88,-26 342.88,-6 404.62,-6 404.62,-26"/>
<text text-anchor="middle" x="373.75" y="-12.5" font-family="Helvetica,sans-Serif" font-size="10.00">normalVec</text>
</a>
</g>
</g>
<!-- Node7&#45;&gt;Node8 -->
<g id="edge16_Node000007_Node000008" class="edge">
<title>Node7&#45;&gt;Node8</title>
<g id="a_edge16_Node000007_Node000008"><a xlink:title=" ">
<path fill="none" stroke="#63b8ff" d="M268.3,-16C288.98,-16 312.01,-16 331.17,-16"/>
<polygon fill="#63b8ff" stroke="#63b8ff" points="331.04,-19.5 341.04,-16 331.04,-12.5 331.04,-19.5"/>
</a>
</g>
</g>
</g>
</svg>
