<?xml version="1.0" encoding="UTF-8" standalone="no"?>
<!DOCTYPE svg PUBLIC "-//W3C//DTD SVG 1.1//EN"
 "http://www.w3.org/Graphics/SVG/1.1/DTD/svg11.dtd">
<!-- Generated by graphviz version 12.2.1 (20241206.2353)
 -->
<!-- Title: examples.scheduling.fitness.score Pages: 1 -->
<svg width="927pt" height="128pt"
 viewBox="0.00 0.00 927.25 128.00" xmlns="http://www.w3.org/2000/svg" xmlns:xlink="http://www.w3.org/1999/xlink">
<g id="graph0" class="graph" transform="scale(1 1) rotate(0) translate(4 124)">
<title>examples.scheduling.fitness.score</title>
<!-- Node1 -->
<g id="Node000001" class="node">
<title>Node1</title>
<g id="a_Node000001"><a xlink:title=" ">
<polygon fill="#999999" stroke="#666666" points="166.75,-48 0,-48 0,-28 166.75,-28 166.75,-48"/>
<text text-anchor="middle" x="83.38" y="-34.5" font-family="Helvetica,sans-Serif" font-size="10.00">examples.scheduling.fitness.score</text>
</a>
</g>
</g>
<!-- Node1&#45;&gt;Node1 -->
<g id="edge10_Node000001_Node000001" class="edge">
<title>Node1&#45;&gt;Node1</title>
<g id="a_edge10_Node000001_Node000001"><a xlink:title=" ">
<path fill="none" stroke="#63b8ff" d="M51.88,-48.34C38.41,-56.98 48.91,-66 83.38,-66 102.76,-66 114.56,-63.14 118.78,-59.11"/>
<polygon fill="#63b8ff" stroke="#63b8ff" points="122.09,-57.97 115.39,-49.76 115.51,-60.36 122.09,-57.97"/>
</a>
</g>
</g>
<!-- Node2 -->
<g id="Node000002" class="node">
<title>Node2</title>
<g id="a_Node000002"><a xlink:href="$namespaceexamples_1_1scheduling.html#af71d892a26a7cf4e51f3d0c28dd3d93b" xlink:title=" ">
<polygon fill="white" stroke="#666666" points="350,-68 213.25,-68 213.25,-48 350,-48 350,-68"/>
<text text-anchor="middle" x="281.62" y="-54.5" font-family="Helvetica,sans-Serif" font-size="10.00">examples.scheduling.select</text>
</a>
</g>
</g>
<!-- Node1&#45;&gt;Node2 -->
<g id="edge11_Node000001_Node000002" class="edge">
<title>Node1&#45;&gt;Node2</title>
<g id="a_edge11_Node000001_Node000002"><a xlink:title=" ">
<path fill="none" stroke="#63b8ff" d="M167.03,-46.42C178.5,-47.59 190.26,-48.79 201.66,-49.95"/>
<polygon fill="#63b8ff" stroke="#63b8ff" points="201.11,-53.41 211.42,-50.95 201.82,-46.45 201.11,-53.41"/>
</a>
</g>
</g>
<!-- Node8 -->
<g id="Node000008" class="node">
<title>Node8</title>
<g id="a_Node000008"><a xlink:href="$namespaceexamples_1_1scheduling.html#aef8d4dd874790f032aa9f541c3c199a6" xlink:title=" ">
<polygon fill="white" stroke="#666666" points="360.5,-29 202.75,-29 202.75,-9 360.5,-9 360.5,-29"/>
<text text-anchor="middle" x="281.62" y="-15.5" font-family="Helvetica,sans-Serif" font-size="10.00">examples.scheduling.select_dvs</text>
</a>
</g>
</g>
<!-- Node1&#45;&gt;Node8 -->
<g id="edge17_Node000001_Node000008" class="edge">
<title>Node1&#45;&gt;Node8</title>
<g id="a_edge17_Node000001_Node000008"><a xlink:title=" ">
<path fill="none" stroke="#63b8ff" d="M167.03,-30C175.01,-29.23 183.12,-28.44 191.16,-27.66"/>
<polygon fill="#63b8ff" stroke="#63b8ff" points="191.32,-31.16 200.94,-26.71 190.65,-24.19 191.32,-31.16"/>
</a>
</g>
</g>
<!-- Node3 -->
<g id="Node000003" class="node">
<title>Node3</title>
<g id="a_Node000003"><a xlink:href="$namespaceexamples_1_1scheduling.html#afe388874c2fafb820cc0d1a456332d53" xlink:title=" ">
<polygon fill="white" stroke="#666666" points="540.38,-120 403.62,-120 403.62,-88 540.38,-88 540.38,-120"/>
<text text-anchor="start" x="411.62" y="-106.5" font-family="Helvetica,sans-Serif" font-size="10.00">examples.scheduling.dyson</text>
<text text-anchor="middle" x="472" y="-94.5" font-family="Helvetica,sans-Serif" font-size="10.00">_stations</text>
</a>
</g>
</g>
<!-- Node2&#45;&gt;Node3 -->
<g id="edge12_Node000002_Node000003" class="edge">
<title>Node2&#45;&gt;Node3</title>
<g id="a_edge12_Node000002_Node000003"><a xlink:title=" ">
<path fill="none" stroke="#63b8ff" d="M325.37,-68.44C345.24,-73.29 369.52,-79.22 392.51,-84.83"/>
<polygon fill="#63b8ff" stroke="#63b8ff" points="391.65,-88.23 402.2,-87.2 393.31,-81.43 391.65,-88.23"/>
</a>
</g>
</g>
<!-- Node4 -->
<g id="Node000004" class="node">
<title>Node4</title>
<g id="a_Node000004"><a xlink:href="$namespaceexamples_1_1scheduling.html#a5473acc487e865227b4f1d9ac06d8102" xlink:title=" ">
<polygon fill="white" stroke="#666666" points="543,-70 401,-70 401,-50 543,-50 543,-70"/>
<text text-anchor="middle" x="472" y="-56.5" font-family="Helvetica,sans-Serif" font-size="10.00">examples.scheduling.timings</text>
</a>
</g>
</g>
<!-- Node2&#45;&gt;Node4 -->
<g id="edge13_Node000002_Node000004" class="edge">
<title>Node2&#45;&gt;Node4</title>
<g id="a_edge13_Node000002_Node000004"><a xlink:title=" ">
<path fill="none" stroke="#63b8ff" d="M350.37,-58.72C363.01,-58.85 376.35,-59 389.36,-59.13"/>
<polygon fill="#63b8ff" stroke="#63b8ff" points="389.14,-62.63 399.17,-59.24 389.21,-55.63 389.14,-62.63"/>
</a>
</g>
</g>
<!-- Node5 -->
<g id="Node000005" class="node">
<title>Node5</title>
<g id="a_Node000005"><a xlink:href="$namespaceexamples_1_1scheduling.html#a65b621b377aebb2c8a0b9af590aa280d" xlink:title=" ">
<polygon fill="white" stroke="#666666" points="547.5,-32 396.5,-32 396.5,0 547.5,0 547.5,-32"/>
<text text-anchor="start" x="404.5" y="-18.5" font-family="Helvetica,sans-Serif" font-size="10.00">examples.scheduling.trajectory</text>
<text text-anchor="middle" x="472" y="-6.5" font-family="Helvetica,sans-Serif" font-size="10.00">_selection</text>
</a>
</g>
</g>
<!-- Node2&#45;&gt;Node5 -->
<g id="edge14_Node000002_Node000005" class="edge">
<title>Node2&#45;&gt;Node5</title>
<g id="a_edge14_Node000002_Node000005"><a xlink:title=" ">
<path fill="none" stroke="#63b8ff" d="M329.67,-47.51C346.79,-43.69 366.7,-39.25 386.08,-34.93"/>
<polygon fill="#63b8ff" stroke="#63b8ff" points="386.62,-38.4 395.62,-32.81 385.09,-31.57 386.62,-38.4"/>
</a>
</g>
</g>
<!-- Node6 -->
<g id="Node000006" class="node">
<title>Node6</title>
<g id="a_Node000006"><a xlink:href="$namespaceexamples_1_1scheduling.html#a9b78175a9bd193289a2db7a992840231" xlink:title=" ">
<polygon fill="white" stroke="#666666" points="732.25,-26 583.5,-26 583.5,-6 732.25,-6 732.25,-26"/>
<text text-anchor="middle" x="657.88" y="-12.5" font-family="Helvetica,sans-Serif" font-size="10.00">examples.scheduling.disjoined</text>
</a>
</g>
</g>
<!-- Node5&#45;&gt;Node6 -->
<g id="edge15_Node000005_Node000006" class="edge">
<title>Node5&#45;&gt;Node6</title>
<g id="a_edge15_Node000005_Node000006"><a xlink:title=" ">
<path fill="none" stroke="#63b8ff" d="M547.79,-16C555.7,-16 563.78,-16 571.79,-16"/>
<polygon fill="#63b8ff" stroke="#63b8ff" points="571.53,-19.5 581.53,-16 571.53,-12.5 571.53,-19.5"/>
</a>
</g>
</g>
<!-- Node7 -->
<g id="Node000007" class="node">
<title>Node7</title>
<g id="a_Node000007"><a xlink:href="$namespaceexamples_1_1scheduling.html#a171925bee0250e0755f9521ef6756bc7" xlink:title=" ">
<polygon fill="white" stroke="#666666" points="919.25,-26 768.25,-26 768.25,-6 919.25,-6 919.25,-26"/>
<text text-anchor="middle" x="843.75" y="-12.5" font-family="Helvetica,sans-Serif" font-size="10.00">examples.scheduling.next_free</text>
</a>
</g>
</g>
<!-- Node6&#45;&gt;Node7 -->
<g id="edge16_Node000006_Node000007" class="edge">
<title>Node6&#45;&gt;Node7</title>
<g id="a_edge16_Node000006_Node000007"><a xlink:title=" ">
<path fill="none" stroke="#63b8ff" d="M732.6,-16C740.48,-16 748.55,-16 756.55,-16"/>
<polygon fill="#63b8ff" stroke="#63b8ff" points="756.29,-19.5 766.29,-16 756.29,-12.5 756.29,-19.5"/>
</a>
</g>
</g>
<!-- Node8&#45;&gt;Node5 -->
<g id="edge18_Node000008_Node000005" class="edge">
<title>Node8&#45;&gt;Node5</title>
<g id="a_edge18_Node000008_Node000005"><a xlink:title=" ">
<path fill="none" stroke="#63b8ff" d="M360.88,-17.75C368.69,-17.63 376.65,-17.5 384.54,-17.38"/>
<polygon fill="#63b8ff" stroke="#63b8ff" points="384.56,-20.88 394.5,-17.22 384.45,-13.88 384.56,-20.88"/>
</a>
</g>
</g>
</g>
</svg>
