<?xml version="1.0" encoding="UTF-8" standalone="no"?>
<!DOCTYPE svg PUBLIC "-//W3C//DTD SVG 1.1//EN"
 "http://www.w3.org/Graphics/SVG/1.1/DTD/svg11.dtd">
<!-- Generated by graphviz version 12.2.1 (20241206.2353)
 -->
<!-- Title: examples.benchmark_gtop_pygmo.pygmo_udp.fitness Pages: 1 -->
<svg width="384pt" height="78pt"
 viewBox="0.00 0.00 384.25 78.00" xmlns="http://www.w3.org/2000/svg" xmlns:xlink="http://www.w3.org/1999/xlink">
<g id="graph0" class="graph" transform="scale(1 1) rotate(0) translate(4 74)">
<title>examples.benchmark_gtop_pygmo.pygmo_udp.fitness</title>
<!-- Node1 -->
<g id="Node000001" class="node">
<title>Node1</title>
<g id="a_Node000001"><a xlink:title=" ">
<polygon fill="#999999" stroke="#666666" points="376.25,-54 216.25,-54 216.25,-22 376.25,-22 376.25,-54"/>
<text text-anchor="start" x="224.25" y="-40.5" font-family="Helvetica,sans-Serif" font-size="10.00">examples.benchmark</text>
<text text-anchor="middle" x="296.25" y="-28.5" font-family="Helvetica,sans-Serif" font-size="10.00">_gtop_pygmo.pygmo_udp.fitness</text>
</a>
</g>
</g>
<!-- Node2 -->
<g id="Node000002" class="node">
<title>Node2</title>
<g id="a_Node000002"><a xlink:href="$classexamples_1_1employee_1_1problem.html#a96c79aee6dab29a25fd28b0b383f1916" xlink:title=" ">
<polygon fill="white" stroke="#666666" points="180.25,-70 0,-70 0,-50 180.25,-50 180.25,-70"/>
<text text-anchor="middle" x="90.12" y="-56.5" font-family="Helvetica,sans-Serif" font-size="10.00">examples.employee.problem.optimize</text>
</a>
</g>
</g>
<!-- Node1&#45;&gt;Node2 -->
<g id="edge3_Node000001_Node000002" class="edge">
<title>Node1&#45;&gt;Node2</title>
<g id="a_edge3_Node000001_Node000002"><a xlink:title=" ">
<path fill="none" stroke="#63b8ff" d="M204.73,-47.76C196.67,-48.62 188.52,-49.5 180.47,-50.37"/>
<polygon fill="#63b8ff" stroke="#63b8ff" points="204.97,-51.25 214.53,-46.7 204.22,-44.29 204.97,-51.25"/>
</a>
</g>
</g>
<!-- Node3 -->
<g id="Node000003" class="node">
<title>Node3</title>
<g id="a_Node000003"><a xlink:href="$classquantumcomm_1_1constellation__udp.html#a8c60ffafb21bc14b969a3f3f4079d24d" xlink:title="A verbose evaluation of the fitness functions.">
<polygon fill="white" stroke="#666666" points="159.25,-32 21,-32 21,0 159.25,0 159.25,-32"/>
<text text-anchor="start" x="29" y="-18.5" font-family="Helvetica,sans-Serif" font-size="10.00">quantumcomm.constellation</text>
<text text-anchor="middle" x="90.12" y="-6.5" font-family="Helvetica,sans-Serif" font-size="10.00">_udp.pretty</text>
</a>
</g>
</g>
<!-- Node1&#45;&gt;Node3 -->
<g id="edge4_Node000001_Node000003" class="edge">
<title>Node1&#45;&gt;Node3</title>
<g id="a_edge4_Node000001_Node000003"><a xlink:title=" ">
<path fill="none" stroke="#63b8ff" d="M204.59,-28.23C189.51,-26.6 174.09,-24.94 159.67,-23.39"/>
<polygon fill="#63b8ff" stroke="#63b8ff" points="204.22,-31.71 214.53,-29.3 204.97,-24.75 204.22,-31.71"/>
</a>
</g>
</g>
</g>
</svg>
