<?xml version="1.0" encoding="UTF-8" standalone="no"?>
<!DOCTYPE svg PUBLIC "-//W3C//DTD SVG 1.1//EN"
 "http://www.w3.org/Graphics/SVG/1.1/DTD/svg11.dtd">
<!-- Generated by graphviz version 12.2.1 (20241206.2353)
 -->
<!-- Title: fcmaes.journal.Journal.write_x Pages: 1 -->
<svg width="638pt" height="78pt"
 viewBox="0.00 0.00 637.50 78.00" xmlns="http://www.w3.org/2000/svg" xmlns:xlink="http://www.w3.org/1999/xlink">
<g id="graph0" class="graph" transform="scale(1 1) rotate(0) translate(4 74)">
<title>fcmaes.journal.Journal.write_x</title>
<!-- Node1 -->
<g id="Node000001" class="node">
<title>Node1</title>
<g id="a_Node000001"><a xlink:title="Writes parameter values for a given trial and worker.">
<polygon fill="#999999" stroke="#666666" points="148.75,-48 0,-48 0,-28 148.75,-28 148.75,-48"/>
<text text-anchor="middle" x="74.38" y="-34.5" font-family="Helvetica,sans-Serif" font-size="10.00">fcmaes.journal.Journal.write_x</text>
</a>
</g>
</g>
<!-- Node2 -->
<g id="Node000002" class="node">
<title>Node2</title>
<g id="a_Node000002"><a xlink:href="$classfcmaes_1_1journal_1_1_journal.html#a071316e37bbbe42be6c9dda9bfe0a7d7" xlink:title="Writes a parameter value to the associated file for a given trial and worker.">
<polygon fill="white" stroke="#666666" points="329,-48 184.75,-48 184.75,-28 329,-28 329,-48"/>
<text text-anchor="middle" x="256.88" y="-34.5" font-family="Helvetica,sans-Serif" font-size="10.00">fcmaes.journal.Journal.param</text>
</a>
</g>
</g>
<!-- Node1&#45;&gt;Node2 -->
<g id="edge5_Node000001_Node000002" class="edge">
<title>Node1&#45;&gt;Node2</title>
<g id="a_edge5_Node000001_Node000002"><a xlink:title=" ">
<path fill="none" stroke="#63b8ff" d="M149.05,-38C157,-38 165.13,-38 173.18,-38"/>
<polygon fill="#63b8ff" stroke="#63b8ff" points="172.96,-41.5 182.96,-38 172.96,-34.5 172.96,-41.5"/>
</a>
</g>
</g>
<!-- Node3 -->
<g id="Node000003" class="node">
<title>Node3</title>
<g id="a_Node000003"><a xlink:href="$namespacefcmaes_1_1journal.html#ab08848e83cf71c33842407ee31354411" xlink:title="Generates a JSON message containing trial parameter details.">
<polygon fill="white" stroke="#666666" points="463.5,-54 365,-54 365,-22 463.5,-22 463.5,-54"/>
<text text-anchor="start" x="373" y="-40.5" font-family="Helvetica,sans-Serif" font-size="10.00">fcmaes.journal.trial</text>
<text text-anchor="middle" x="414.25" y="-28.5" font-family="Helvetica,sans-Serif" font-size="10.00">_param</text>
</a>
</g>
</g>
<!-- Node2&#45;&gt;Node3 -->
<g id="edge6_Node000002_Node000003" class="edge">
<title>Node2&#45;&gt;Node3</title>
<g id="a_edge6_Node000002_Node000003"><a xlink:title=" ">
<path fill="none" stroke="#63b8ff" d="M329.2,-38C337.24,-38 345.37,-38 353.24,-38"/>
<polygon fill="#63b8ff" stroke="#63b8ff" points="353.04,-41.5 363.04,-38 353.04,-34.5 353.04,-41.5"/>
</a>
</g>
</g>
<!-- Node4 -->
<g id="Node000004" class="node">
<title>Node4</title>
<g id="a_Node000004"><a xlink:href="$namespacefcmaes_1_1journal.html#a3d2994fbc61c2eb4fa0bf4b6018b055e" xlink:title="Generates a JSON representation of a float distribution within a specified range.">
<polygon fill="white" stroke="#666666" points="629.5,-70 499.5,-70 499.5,-50 629.5,-50 629.5,-70"/>
<text text-anchor="middle" x="564.5" y="-56.5" font-family="Helvetica,sans-Serif" font-size="10.00">fcmaes.journal.distribution</text>
</a>
</g>
</g>
<!-- Node3&#45;&gt;Node4 -->
<g id="edge7_Node000003_Node000004" class="edge">
<title>Node3&#45;&gt;Node4</title>
<g id="a_edge7_Node000003_Node000004"><a xlink:title=" ">
<path fill="none" stroke="#63b8ff" d="M463.79,-45.2C471.57,-46.36 479.78,-47.58 488.01,-48.8"/>
<polygon fill="#63b8ff" stroke="#63b8ff" points="487.31,-52.23 497.71,-50.24 488.33,-45.31 487.31,-52.23"/>
</a>
</g>
</g>
<!-- Node5 -->
<g id="Node000005" class="node">
<title>Node5</title>
<g id="a_Node000005"><a xlink:href="$namespacefcmaes_1_1journal.html#ab2d4646b056641882ced63f7d0299978" xlink:title="Converts a given message object to its JSON representation.">
<polygon fill="white" stroke="#666666" points="625.75,-32 503.25,-32 503.25,0 625.75,0 625.75,-32"/>
<text text-anchor="start" x="511.25" y="-18.5" font-family="Helvetica,sans-Serif" font-size="10.00">fcmaes.journal.message</text>
<text text-anchor="middle" x="564.5" y="-6.5" font-family="Helvetica,sans-Serif" font-size="10.00">_to_json</text>
</a>
</g>
</g>
<!-- Node3&#45;&gt;Node5 -->
<g id="edge8_Node000003_Node000005" class="edge">
<title>Node3&#45;&gt;Node5</title>
<g id="a_edge8_Node000003_Node000005"><a xlink:title=" ">
<path fill="none" stroke="#63b8ff" d="M463.79,-30.8C472.78,-29.46 482.33,-28.05 491.83,-26.64"/>
<polygon fill="#63b8ff" stroke="#63b8ff" points="492.05,-30.14 501.42,-25.21 491.02,-23.22 492.05,-30.14"/>
</a>
</g>
</g>
</g>
</svg>
