<?xml version="1.0" encoding="UTF-8" standalone="no"?>
<!DOCTYPE svg PUBLIC "-//W3C//DTD SVG 1.1//EN"
 "http://www.w3.org/Graphics/SVG/1.1/DTD/svg11.dtd">
<!-- Generated by graphviz version 12.2.1 (20241206.2353)
 -->
<!-- Title: fcmaes.optimizer.Minimize Pages: 1 -->
<svg width="252pt" height="344pt"
 viewBox="0.00 0.00 251.75 344.00" xmlns="http://www.w3.org/2000/svg" xmlns:xlink="http://www.w3.org/1999/xlink">
<g id="graph0" class="graph" transform="scale(1 1) rotate(0) translate(4 340)">
<title>fcmaes.optimizer.Minimize</title>
<!-- Node1 -->
<g id="Node000001" class="node">
<title>Node1</title>
<g id="a_Node000001"><a xlink:title="Optimization utilizing the scipy minimize function.">
<polygon fill="#999999" stroke="none" points="243.75,-152 0,-152 0,0 243.75,0 243.75,-152"/>
<text text-anchor="start" x="63.38" y="-138.5" font-family="Helvetica,sans-Serif" font-size="10.00">fcmaes.optimizer.Minimize</text>
<text text-anchor="start" x="120.38" y="-122.5" font-family="Helvetica,sans-Serif" font-size="10.00"> </text>
<text text-anchor="start" x="4" y="-106.5" font-family="Helvetica,sans-Serif" font-size="10.00">+</text>
<text text-anchor="start" x="14" y="-106.5" font-family="Helvetica,sans-Serif" font-size="10.00">__init__(self, max</text>
<text text-anchor="start" x="14" y="-94.5" font-family="Helvetica,sans-Serif" font-size="10.00">_evaluations=50000,</text>
<text text-anchor="start" x="14" y="-82.5" font-family="Helvetica,sans-Serif" font-size="10.00"> store=None)</text>
<text text-anchor="start" x="4" y="-66.5" font-family="Helvetica,sans-Serif" font-size="10.00">+</text>
<text text-anchor="start" x="14" y="-66.5" font-family="Helvetica,sans-Serif" font-size="10.00">Tuple[np.ndarray, float,</text>
<text text-anchor="start" x="14" y="-54.5" font-family="Helvetica,sans-Serif" font-size="10.00"> int] minimize(self, Callable</text>
<text text-anchor="start" x="14" y="-42.5" font-family="Helvetica,sans-Serif" font-size="10.00">[[ArrayLike], float] fun, Optional</text>
<text text-anchor="start" x="14" y="-30.5" font-family="Helvetica,sans-Serif" font-size="10.00">[Bounds] bounds, Optional[ArrayLike]</text>
<text text-anchor="start" x="14" y="-18.5" font-family="Helvetica,sans-Serif" font-size="10.00"> guess=None, Optional[float] sdevs</text>
<text text-anchor="start" x="14" y="-6.5" font-family="Helvetica,sans-Serif" font-size="10.00">=None, rg=Generator(PCG64DXSM()), store=None)</text>
<polygon fill="#666666" stroke="#666666" points="0,-134 0,-134 243.75,-134 243.75,-134 0,-134"/>
<polygon fill="#666666" stroke="#666666" points="0,-118 0,-118 243.75,-118 243.75,-118 0,-118"/>
<polygon fill="none" stroke="#666666" points="0,0 0,-152 243.75,-152 243.75,0 0,0"/>
</a>
</g>
</g>
<!-- Node2 -->
<g id="Node000002" class="node">
<title>Node2</title>
<g id="a_Node000002"><a xlink:href="$classfcmaes_1_1optimizer_1_1_optimizer.html" xlink:title="Provides functionalities for optimization tasks.">
<polygon fill="white" stroke="none" points="195,-336 48.75,-336 48.75,-188 195,-188 195,-336"/>
<text text-anchor="start" x="61.88" y="-322.5" font-family="Helvetica,sans-Serif" font-size="10.00">fcmaes.optimizer.Optimizer</text>
<text text-anchor="start" x="52.75" y="-306.5" font-family="Helvetica,sans-Serif" font-size="10.00">+</text>
<text text-anchor="start" x="62.75" y="-306.5" font-family="Helvetica,sans-Serif" font-size="10.00">max_evaluations</text>
<text text-anchor="start" x="52.75" y="-290.5" font-family="Helvetica,sans-Serif" font-size="10.00">+</text>
<text text-anchor="start" x="62.75" y="-290.5" font-family="Helvetica,sans-Serif" font-size="10.00">name</text>
<text text-anchor="start" x="52.75" y="-274.5" font-family="Helvetica,sans-Serif" font-size="10.00">+</text>
<text text-anchor="start" x="62.75" y="-274.5" font-family="Helvetica,sans-Serif" font-size="10.00">__init__(self, Optional</text>
<text text-anchor="start" x="62.75" y="-262.5" font-family="Helvetica,sans-Serif" font-size="10.00">[int] max_evaluations=50000,</text>
<text text-anchor="start" x="62.75" y="-250.5" font-family="Helvetica,sans-Serif" font-size="10.00"> Optional[str] name=&#39;&#39;)</text>
<text text-anchor="start" x="52.75" y="-234.5" font-family="Helvetica,sans-Serif" font-size="10.00">+</text>
<text text-anchor="start" x="62.75" y="-234.5" font-family="Helvetica,sans-Serif" font-size="10.00">max_eval_num(self,</text>
<text text-anchor="start" x="62.75" y="-222.5" font-family="Helvetica,sans-Serif" font-size="10.00"> store=None)</text>
<text text-anchor="start" x="52.75" y="-206.5" font-family="Helvetica,sans-Serif" font-size="10.00">+</text>
<text text-anchor="start" x="62.75" y="-206.5" font-family="Helvetica,sans-Serif" font-size="10.00">get_count_runs(self,</text>
<text text-anchor="start" x="62.75" y="-194.5" font-family="Helvetica,sans-Serif" font-size="10.00"> store=None)</text>
<polygon fill="#666666" stroke="#666666" points="48.75,-318 48.75,-318 195,-318 195,-318 48.75,-318"/>
<polygon fill="#666666" stroke="#666666" points="48.75,-286 48.75,-286 60.75,-286 60.75,-286 48.75,-286"/>
<polygon fill="#666666" stroke="#666666" points="60.75,-286 60.75,-286 195,-286 195,-286 60.75,-286"/>
<polygon fill="none" stroke="#666666" points="48.75,-188 48.75,-336 195,-336 195,-188 48.75,-188"/>
</a>
</g>
</g>
<!-- Node2&#45;&gt;Node1 -->
<g id="edge2_Node000001_Node000002" class="edge">
<title>Node2&#45;&gt;Node1</title>
<g id="a_edge2_Node000001_Node000002"><a xlink:title=" ">
<path fill="none" stroke="#63b8ff" d="M121.88,-176.72C121.88,-168.37 121.88,-159.94 121.88,-151.71"/>
<polygon fill="none" stroke="#63b8ff" points="118.38,-176.5 121.88,-186.5 125.38,-176.5 118.38,-176.5"/>
</a>
</g>
</g>
</g>
</svg>
