<?xml version="1.0" encoding="UTF-8" standalone="no"?>
<!DOCTYPE svg PUBLIC "-//W3C//DTD SVG 1.1//EN"
 "http://www.w3.org/Graphics/SVG/1.1/DTD/svg11.dtd">
<!-- Generated by graphviz version 12.2.1 (20241206.2353)
 -->
<!-- Title: fcmaes.mapelites.Archive.save Pages: 1 -->
<svg width="551pt" height="242pt"
 viewBox="0.00 0.00 551.00 242.00" xmlns="http://www.w3.org/2000/svg" xmlns:xlink="http://www.w3.org/1999/xlink">
<g id="graph0" class="graph" transform="scale(1 1) rotate(0) translate(4 238)">
<title>fcmaes.mapelites.Archive.save</title>
<!-- Node1 -->
<g id="Node000001" class="node">
<title>Node1</title>
<g id="a_Node000001"><a xlink:title="Saves the processed data and corresponding metadata in a compressed NPZ format.">
<polygon fill="#999999" stroke="#666666" points="153.25,-124 0,-124 0,-104 153.25,-104 153.25,-124"/>
<text text-anchor="middle" x="76.62" y="-110.5" font-family="Helvetica,sans-Serif" font-size="10.00">fcmaes.mapelites.Archive.save</text>
</a>
</g>
</g>
<!-- Node2 -->
<g id="Node000002" class="node">
<title>Node2</title>
<g id="a_Node000002"><a xlink:href="$classfcmaes_1_1mapelites_1_1_archive.html#a57b4373d065065bf5d4dbc7cc312c092" xlink:title="Generates a formatted string using name, capacity, dimension, and quality&#45;dimension values for a spec...">
<polygon fill="white" stroke="#666666" points="349.62,-234 190.38,-234 190.38,-214 349.62,-214 349.62,-234"/>
<text text-anchor="middle" x="270" y="-220.5" font-family="Helvetica,sans-Serif" font-size="10.00">fcmaes.mapelites.Archive.fname</text>
</a>
</g>
</g>
<!-- Node1&#45;&gt;Node2 -->
<g id="edge8_Node000001_Node000002" class="edge">
<title>Node1&#45;&gt;Node2</title>
<g id="a_edge8_Node000001_Node000002"><a xlink:title=" ">
<path fill="none" stroke="#63b8ff" d="M87,-124.23C104.94,-143.18 146.21,-183.73 189.25,-205 192.91,-206.81 196.75,-208.45 200.69,-209.94"/>
<polygon fill="#63b8ff" stroke="#63b8ff" points="199.24,-213.15 209.84,-213.05 201.5,-206.52 199.24,-213.15"/>
</a>
</g>
</g>
<!-- Node3 -->
<g id="Node000003" class="node">
<title>Node3</title>
<g id="a_Node000003"><a xlink:href="$classfcmaes_1_1mapelites_1_1_archive.html#abfbc79753a308a9880da632d96b37d5c" xlink:title="Retrieves a copy of the counts as a NumPy array.">
<polygon fill="white" stroke="#666666" points="342.88,-196 197.12,-196 197.12,-164 342.88,-164 342.88,-196"/>
<text text-anchor="start" x="205.12" y="-182.5" font-family="Helvetica,sans-Serif" font-size="10.00">fcmaes.mapelites.Archive.get</text>
<text text-anchor="middle" x="270" y="-170.5" font-family="Helvetica,sans-Serif" font-size="10.00">_counts</text>
</a>
</g>
</g>
<!-- Node1&#45;&gt;Node3 -->
<g id="edge9_Node000001_Node000003" class="edge">
<title>Node1&#45;&gt;Node3</title>
<g id="a_edge9_Node000001_Node000003"><a xlink:title=" ">
<path fill="none" stroke="#63b8ff" d="M105.02,-124.48C127.53,-132.99 160.32,-145.16 189.25,-155 194.23,-156.69 199.39,-158.41 204.59,-160.1"/>
<polygon fill="#63b8ff" stroke="#63b8ff" points="203.23,-163.34 213.82,-163.08 205.38,-156.68 203.23,-163.34"/>
</a>
</g>
</g>
<!-- Node4 -->
<g id="Node000004" class="node">
<title>Node4</title>
<g id="a_Node000004"><a xlink:href="$classfcmaes_1_1mapelites_1_1_archive.html#a9884e6696809729e69a167c91d245464" xlink:title="Generates an array of results produced by the get_c method for a range of indices.">
<polygon fill="white" stroke="#666666" points="350.75,-146 189.25,-146 189.25,-126 350.75,-126 350.75,-146"/>
<text text-anchor="middle" x="270" y="-132.5" font-family="Helvetica,sans-Serif" font-size="10.00">fcmaes.mapelites.Archive.get_cs</text>
</a>
</g>
</g>
<!-- Node1&#45;&gt;Node4 -->
<g id="edge10_Node000001_Node000004" class="edge">
<title>Node1&#45;&gt;Node4</title>
<g id="a_edge10_Node000001_Node000004"><a xlink:title=" ">
<path fill="none" stroke="#63b8ff" d="M153.54,-122.73C161.41,-123.63 169.47,-124.56 177.49,-125.48"/>
<polygon fill="#63b8ff" stroke="#63b8ff" points="176.94,-128.94 187.28,-126.61 177.74,-121.99 176.94,-128.94"/>
</a>
</g>
</g>
<!-- Node6 -->
<g id="Node000006" class="node">
<title>Node6</title>
<g id="a_Node000006"><a xlink:href="$classfcmaes_1_1mapelites_1_1_archive.html#a97f1345584f4d25bd8a24af6cb7d7e4c" xlink:title="Returns a copy of the stats data as a NumPy array.">
<polygon fill="white" stroke="#666666" points="342.88,-108 197.12,-108 197.12,-76 342.88,-76 342.88,-108"/>
<text text-anchor="start" x="205.12" y="-94.5" font-family="Helvetica,sans-Serif" font-size="10.00">fcmaes.mapelites.Archive.get</text>
<text text-anchor="middle" x="270" y="-82.5" font-family="Helvetica,sans-Serif" font-size="10.00">_stats</text>
</a>
</g>
</g>
<!-- Node1&#45;&gt;Node6 -->
<g id="edge12_Node000001_Node000006" class="edge">
<title>Node1&#45;&gt;Node6</title>
<g id="a_edge12_Node000001_Node000006"><a xlink:title=" ">
<path fill="none" stroke="#63b8ff" d="M153.54,-105.27C164.04,-104.07 174.87,-102.82 185.49,-101.6"/>
<polygon fill="#63b8ff" stroke="#63b8ff" points="185.88,-105.08 195.42,-100.46 185.08,-98.12 185.88,-105.08"/>
</a>
</g>
</g>
<!-- Node7 -->
<g id="Node000007" class="node">
<title>Node7</title>
<g id="a_Node000007"><a xlink:href="$classfcmaes_1_1advretry_1_1_store.html#a3cc073975313c4893de761cfc9771d77" xlink:title="Gets the stored y&#45;values up to the specified count.">
<polygon fill="white" stroke="#666666" points="342.12,-58 197.88,-58 197.88,-38 342.12,-38 342.12,-58"/>
<text text-anchor="middle" x="270" y="-44.5" font-family="Helvetica,sans-Serif" font-size="10.00">fcmaes.advretry.Store.get_ys</text>
</a>
</g>
</g>
<!-- Node1&#45;&gt;Node7 -->
<g id="edge13_Node000001_Node000007" class="edge">
<title>Node1&#45;&gt;Node7</title>
<g id="a_edge13_Node000001_Node000007"><a xlink:title=" ">
<path fill="none" stroke="#63b8ff" d="M99.45,-103.54C121.66,-93.21 157.27,-77.46 189.25,-67 195.49,-64.96 202.07,-63.04 208.66,-61.26"/>
<polygon fill="#63b8ff" stroke="#63b8ff" points="209.45,-64.67 218.26,-58.78 207.7,-57.89 209.45,-64.67"/>
</a>
</g>
</g>
<!-- Node8 -->
<g id="Node000008" class="node">
<title>Node8</title>
<g id="a_Node000008"><a xlink:href="$classfcmaes_1_1mapelites_1_1_archive.html#a91c9f1ac5485896833fc7b9859b85af1" xlink:title="Returns a copy of the ys array.">
<polygon fill="white" stroke="#666666" points="350.75,-20 189.25,-20 189.25,0 350.75,0 350.75,-20"/>
<text text-anchor="middle" x="270" y="-6.5" font-family="Helvetica,sans-Serif" font-size="10.00">fcmaes.mapelites.Archive.get_ys</text>
</a>
</g>
</g>
<!-- Node1&#45;&gt;Node8 -->
<g id="edge14_Node000001_Node000008" class="edge">
<title>Node1&#45;&gt;Node8</title>
<g id="a_edge14_Node000001_Node000008"><a xlink:title=" ">
<path fill="none" stroke="#63b8ff" d="M88.01,-103.63C106.63,-85.65 147.64,-48.71 189.25,-29 193.19,-27.13 197.33,-25.44 201.56,-23.91"/>
<polygon fill="#63b8ff" stroke="#63b8ff" points="202.36,-27.33 210.78,-20.89 200.19,-20.68 202.36,-27.33"/>
</a>
</g>
</g>
<!-- Node5 -->
<g id="Node000005" class="node">
<title>Node5</title>
<g id="a_Node000005"><a xlink:href="$classfcmaes_1_1mapelites_1_1_archive.html#ad3c852a54d31d2126b5f233e7d2fd7bb" xlink:title="Retrieves a slice of the cs list for the given index.">
<polygon fill="white" stroke="#666666" points="543,-146 386.75,-146 386.75,-126 543,-126 543,-146"/>
<text text-anchor="middle" x="464.88" y="-132.5" font-family="Helvetica,sans-Serif" font-size="10.00">fcmaes.mapelites.Archive.get_c</text>
</a>
</g>
</g>
<!-- Node4&#45;&gt;Node5 -->
<g id="edge11_Node000004_Node000005" class="edge">
<title>Node4&#45;&gt;Node5</title>
<g id="a_edge11_Node000004_Node000005"><a xlink:title=" ">
<path fill="none" stroke="#63b8ff" d="M351.12,-136C359.07,-136 367.17,-136 375.2,-136"/>
<polygon fill="#63b8ff" stroke="#63b8ff" points="374.97,-139.5 384.97,-136 374.97,-132.5 374.97,-139.5"/>
</a>
</g>
</g>
</g>
</svg>
