<?xml version="1.0" encoding="UTF-8" standalone="no"?>
<!DOCTYPE svg PUBLIC "-//W3C//DTD SVG 1.1//EN"
 "http://www.w3.org/Graphics/SVG/1.1/DTD/svg11.dtd">
<!-- Generated by graphviz version 12.2.1 (20241206.2353)
 -->
<!-- Title: fcmaes.optimizer.CheckBounds Pages: 1 -->
<svg width="156pt" height="88pt"
 viewBox="0.00 0.00 155.50 88.00" xmlns="http://www.w3.org/2000/svg" xmlns:xlink="http://www.w3.org/1999/xlink">
<g id="graph0" class="graph" transform="scale(1 1) rotate(0) translate(4 84)">
<title>fcmaes.optimizer.CheckBounds</title>
<!-- Node1 -->
<g id="Node000001" class="node">
<title>Node1</title>
<g id="a_Node000001"><a xlink:title="Validates whether a given set of values falls within specified bounds.">
<polygon fill="#999999" stroke="none" points="147.5,-80 0,-80 0,0 147.5,0 147.5,-80"/>
<text text-anchor="start" x="4" y="-66.5" font-family="Helvetica,sans-Serif" font-size="10.00">fcmaes.optimizer.CheckBounds</text>
<text text-anchor="start" x="10.69" y="-50.5" font-family="Helvetica,sans-Serif" font-size="10.00">+</text>
<text text-anchor="start" x="27.38" y="-50.5" font-family="Helvetica,sans-Serif" font-size="10.00">bounds</text>
<text text-anchor="start" x="10.69" y="-34.5" font-family="Helvetica,sans-Serif" font-size="10.00">+</text>
<text text-anchor="start" x="27.38" y="-34.5" font-family="Helvetica,sans-Serif" font-size="10.00">__init__(self, Bounds</text>
<text text-anchor="start" x="27.38" y="-22.5" font-family="Helvetica,sans-Serif" font-size="10.00"> bounds)</text>
<text text-anchor="start" x="10.69" y="-6.5" font-family="Helvetica,sans-Serif" font-size="10.00">+</text>
<text text-anchor="start" x="27.38" y="-6.5" font-family="Helvetica,sans-Serif" font-size="10.00">__call__(self, **kwargs)</text>
<polygon fill="#666666" stroke="#666666" points="0,-62 0,-62 147.5,-62 147.5,-62 0,-62"/>
<polygon fill="#666666" stroke="#666666" points="0,-46 0,-46 25.38,-46 25.38,-46 0,-46"/>
<polygon fill="#666666" stroke="#666666" points="25.38,-46 25.38,-46 147.5,-46 147.5,-46 25.38,-46"/>
<polygon fill="none" stroke="#666666" points="0,0 0,-80 147.5,-80 147.5,0 0,0"/>
</a>
</g>
</g>
</g>
</svg>
