<?xml version="1.0" encoding="UTF-8" standalone="no"?>
<!DOCTYPE svg PUBLIC "-//W3C//DTD SVG 1.1//EN"
 "http://www.w3.org/Graphics/SVG/1.1/DTD/svg11.dtd">
<!-- Generated by graphviz version 12.2.1 (20241206.2353)
 -->
<!-- Title: differential_evolution::DeOptimizer::init Pages: 1 -->
<svg width="361pt" height="78pt"
 viewBox="0.00 0.00 360.50 78.00" xmlns="http://www.w3.org/2000/svg" xmlns:xlink="http://www.w3.org/1999/xlink">
<g id="graph0" class="graph" transform="scale(1 1) rotate(0) translate(4 74)">
<title>differential_evolution::DeOptimizer::init</title>
<!-- Node1 -->
<g id="Node000001" class="node">
<title>Node1</title>
<g id="a_Node000001"><a xlink:title=" ">
<polygon fill="#999999" stroke="#666666" points="104.5,-48 0,-48 0,-16 104.5,-16 104.5,-48"/>
<text text-anchor="start" x="8" y="-34.5" font-family="Helvetica,sans-Serif" font-size="10.00">differential_evolution</text>
<text text-anchor="middle" x="52.25" y="-22.5" font-family="Helvetica,sans-Serif" font-size="10.00">::DeOptimizer::init</text>
</a>
</g>
</g>
<!-- Node2 -->
<g id="Node000002" class="node">
<title>Node2</title>
<g id="a_Node000002"><a xlink:href="$classdifferential__evolution_1_1_de_optimizer.html#a750fb2ff0c0981be30414916d8c872bf" xlink:title=" ">
<polygon fill="white" stroke="#666666" points="254.75,-70 140.5,-70 140.5,-38 254.75,-38 254.75,-70"/>
<text text-anchor="start" x="148.5" y="-56.5" font-family="Helvetica,sans-Serif" font-size="10.00">differential_evolution</text>
<text text-anchor="middle" x="197.62" y="-44.5" font-family="Helvetica,sans-Serif" font-size="10.00">::DeOptimizer::sample</text>
</a>
</g>
</g>
<!-- Node1&#45;&gt;Node2 -->
<g id="edge4_Node000001_Node000002" class="edge">
<title>Node1&#45;&gt;Node2</title>
<g id="a_edge4_Node000001_Node000002"><a xlink:title=" ">
<path fill="none" stroke="#63b8ff" d="M104.61,-39.88C112.56,-41.1 120.88,-42.38 129.13,-43.64"/>
<polygon fill="#63b8ff" stroke="#63b8ff" points="128.37,-47.07 138.78,-45.12 129.43,-40.15 128.37,-47.07"/>
</a>
</g>
</g>
<!-- Node4 -->
<g id="Node000004" class="node">
<title>Node4</title>
<g id="a_Node000004"><a xlink:href="$evaluator_8h.html#a909812174fa9829bc49f6e00edb00b90" xlink:title=" ">
<polygon fill="white" stroke="#666666" points="217.62,-20 177.62,-20 177.62,0 217.62,0 217.62,-20"/>
<text text-anchor="middle" x="197.62" y="-6.5" font-family="Helvetica,sans-Serif" font-size="10.00">zeros</text>
</a>
</g>
</g>
<!-- Node1&#45;&gt;Node4 -->
<g id="edge6_Node000001_Node000004" class="edge">
<title>Node1&#45;&gt;Node4</title>
<g id="a_edge6_Node000001_Node000004"><a xlink:title=" ">
<path fill="none" stroke="#63b8ff" d="M104.61,-24.12C125.2,-20.96 148.24,-17.42 166.12,-14.68"/>
<polygon fill="#63b8ff" stroke="#63b8ff" points="166.45,-18.17 175.81,-13.19 165.39,-11.25 166.45,-18.17"/>
</a>
</g>
</g>
<!-- Node3 -->
<g id="Node000003" class="node">
<title>Node3</title>
<g id="a_Node000003"><a xlink:href="$evaluator_8h.html#a5b652df2286e1f0c4dae7d4dd841bb8f" xlink:title=" ">
<polygon fill="white" stroke="#666666" points="352.5,-64 290.75,-64 290.75,-44 352.5,-44 352.5,-64"/>
<text text-anchor="middle" x="321.62" y="-50.5" font-family="Helvetica,sans-Serif" font-size="10.00">normalVec</text>
</a>
</g>
</g>
<!-- Node2&#45;&gt;Node3 -->
<g id="edge5_Node000002_Node000003" class="edge">
<title>Node2&#45;&gt;Node3</title>
<g id="a_edge5_Node000002_Node000003"><a xlink:title=" ">
<path fill="none" stroke="#63b8ff" d="M254.98,-54C263.11,-54 271.35,-54 279.11,-54"/>
<polygon fill="#63b8ff" stroke="#63b8ff" points="278.95,-57.5 288.95,-54 278.95,-50.5 278.95,-57.5"/>
</a>
</g>
</g>
</g>
</svg>
