<?xml version="1.0" encoding="UTF-8" standalone="no"?>
<!DOCTYPE svg PUBLIC "-//W3C//DTD SVG 1.1//EN"
 "http://www.w3.org/Graphics/SVG/1.1/DTD/svg11.dtd">
<!-- Generated by graphviz version 12.2.1 (20241206.2353)
 -->
<!-- Title: quantumcomm.constellation_udp.average_shortest_path Pages: 1 -->
<svg width="496pt" height="40pt"
 viewBox="0.00 0.00 495.50 40.00" xmlns="http://www.w3.org/2000/svg" xmlns:xlink="http://www.w3.org/1999/xlink">
<g id="graph0" class="graph" transform="scale(1 1) rotate(0) translate(4 36)">
<title>quantumcomm.constellation_udp.average_shortest_path</title>
<!-- Node1 -->
<g id="Node000001" class="node">
<title>Node1</title>
<g id="a_Node000001"><a xlink:title="Computes the average shortest path length between the source and destination partitions of nodes in t...">
<polygon fill="#999999" stroke="#666666" points="487.5,-32 348.5,-32 348.5,0 487.5,0 487.5,-32"/>
<text text-anchor="start" x="356.5" y="-18.5" font-family="Helvetica,sans-Serif" font-size="10.00">quantumcomm.constellation</text>
<text text-anchor="middle" x="418" y="-6.5" font-family="Helvetica,sans-Serif" font-size="10.00">_udp.average_shortest_path</text>
</a>
</g>
</g>
<!-- Node2 -->
<g id="Node000002" class="node">
<title>Node2</title>
<g id="a_Node000002"><a xlink:href="$classquantumcomm_1_1constellation__udp.html#a13abd2e63f36cb79a4c08d96557d3d87" xlink:title="Evaluate the fitness of the decision variables.">
<polygon fill="white" stroke="#666666" points="312.5,-32 174.25,-32 174.25,0 312.5,0 312.5,-32"/>
<text text-anchor="start" x="182.25" y="-18.5" font-family="Helvetica,sans-Serif" font-size="10.00">quantumcomm.constellation</text>
<text text-anchor="middle" x="243.38" y="-6.5" font-family="Helvetica,sans-Serif" font-size="10.00">_udp.fitness</text>
</a>
</g>
</g>
<!-- Node1&#45;&gt;Node2 -->
<g id="edge3_Node000001_Node000002" class="edge">
<title>Node1&#45;&gt;Node2</title>
<g id="a_edge3_Node000001_Node000002"><a xlink:title=" ">
<path fill="none" stroke="#63b8ff" d="M336.97,-16C328.91,-16 320.78,-16 312.86,-16"/>
<polygon fill="#63b8ff" stroke="#63b8ff" points="336.76,-19.5 346.76,-16 336.76,-12.5 336.76,-19.5"/>
</a>
</g>
</g>
<!-- Node3 -->
<g id="Node000003" class="node">
<title>Node3</title>
<g id="a_Node000003"><a xlink:href="$classquantumcomm_1_1constellation__udp.html#a8c60ffafb21bc14b969a3f3f4079d24d" xlink:title="A verbose evaluation of the fitness functions.">
<polygon fill="white" stroke="#666666" points="138.25,-32 0,-32 0,0 138.25,0 138.25,-32"/>
<text text-anchor="start" x="8" y="-18.5" font-family="Helvetica,sans-Serif" font-size="10.00">quantumcomm.constellation</text>
<text text-anchor="middle" x="69.12" y="-6.5" font-family="Helvetica,sans-Serif" font-size="10.00">_udp.pretty</text>
</a>
</g>
</g>
<!-- Node2&#45;&gt;Node3 -->
<g id="edge4_Node000002_Node000003" class="edge">
<title>Node2&#45;&gt;Node3</title>
<g id="a_edge4_Node000002_Node000003"><a xlink:title=" ">
<path fill="none" stroke="#63b8ff" d="M162.33,-16C154.45,-16 146.5,-16 138.74,-16"/>
<polygon fill="#63b8ff" stroke="#63b8ff" points="162.29,-19.5 172.29,-16 162.29,-12.5 162.29,-19.5"/>
</a>
</g>
</g>
</g>
</svg>
