<?xml version="1.0" encoding="UTF-8" standalone="no"?>
<!DOCTYPE svg PUBLIC "-//W3C//DTD SVG 1.1//EN"
 "http://www.w3.org/Graphics/SVG/1.1/DTD/svg11.dtd">
<!-- Generated by graphviz version 12.2.1 (20241206.2353)
 -->
<!-- Title: fcmaes.evaluator.parallel.__call__ Pages: 1 -->
<svg width="437pt" height="40pt"
 viewBox="0.00 0.00 437.00 40.00" xmlns="http://www.w3.org/2000/svg" xmlns:xlink="http://www.w3.org/1999/xlink">
<g id="graph0" class="graph" transform="scale(1 1) rotate(0) translate(4 36)">
<title>fcmaes.evaluator.parallel.__call__</title>
<!-- Node1 -->
<g id="Node000001" class="node">
<title>Node1</title>
<g id="a_Node000001"><a xlink:title="Evaluates the input using the provided evaluator function in parallel and returns the result.">
<polygon fill="#999999" stroke="#666666" points="127.75,-32 0,-32 0,0 127.75,0 127.75,-32"/>
<text text-anchor="start" x="8" y="-18.5" font-family="Helvetica,sans-Serif" font-size="10.00">fcmaes.evaluator.parallel.</text>
<text text-anchor="middle" x="63.88" y="-6.5" font-family="Helvetica,sans-Serif" font-size="10.00">__call__</text>
</a>
</g>
</g>
<!-- Node2 -->
<g id="Node000002" class="node">
<title>Node2</title>
<g id="a_Node000002"><a xlink:href="$namespacefcmaes_1_1evaluator.html#a3f1de81bb9ebb3f1026990d51627f5e3" xlink:title="Evaluates a set of inputs in parallel using a provided evaluator function.">
<polygon fill="white" stroke="#666666" points="275.75,-32 163.75,-32 163.75,0 275.75,0 275.75,-32"/>
<text text-anchor="start" x="171.75" y="-18.5" font-family="Helvetica,sans-Serif" font-size="10.00">fcmaes.evaluator.eval</text>
<text text-anchor="middle" x="219.75" y="-6.5" font-family="Helvetica,sans-Serif" font-size="10.00">_parallel</text>
</a>
</g>
</g>
<!-- Node1&#45;&gt;Node2 -->
<g id="edge3_Node000001_Node000002" class="edge">
<title>Node1&#45;&gt;Node2</title>
<g id="a_edge3_Node000001_Node000002"><a xlink:title=" ">
<path fill="none" stroke="#63b8ff" d="M127.91,-16C135.92,-16 144.13,-16 152.2,-16"/>
<polygon fill="#63b8ff" stroke="#63b8ff" points="151.94,-19.5 161.94,-16 151.94,-12.5 151.94,-19.5"/>
</a>
</g>
</g>
<!-- Node3 -->
<g id="Node000003" class="node">
<title>Node3</title>
<g id="a_Node000003"><a xlink:href="$namespacefcmaes_1_1evaluator.html#afe255aa77cf706556cd5740a6d9dc120" xlink:title="Evaluates a segment of data in parallel by sending and receiving data through a pipe.">
<polygon fill="white" stroke="#666666" points="429,-32 311.75,-32 311.75,0 429,0 429,-32"/>
<text text-anchor="start" x="319.75" y="-18.5" font-family="Helvetica,sans-Serif" font-size="10.00">fcmaes.evaluator._eval</text>
<text text-anchor="middle" x="370.38" y="-6.5" font-family="Helvetica,sans-Serif" font-size="10.00">_parallel_segment</text>
</a>
</g>
</g>
<!-- Node2&#45;&gt;Node3 -->
<g id="edge4_Node000002_Node000003" class="edge">
<title>Node2&#45;&gt;Node3</title>
<g id="a_edge4_Node000002_Node000003"><a xlink:title=" ">
<path fill="none" stroke="#63b8ff" d="M276.09,-16C283.95,-16 292.1,-16 300.18,-16"/>
<polygon fill="#63b8ff" stroke="#63b8ff" points="299.99,-19.5 309.99,-16 299.99,-12.5 299.99,-19.5"/>
</a>
</g>
</g>
</g>
</svg>
