<?xml version="1.0" encoding="UTF-8" standalone="no"?>
<!DOCTYPE svg PUBLIC "-//W3C//DTD SVG 1.1//EN"
 "http://www.w3.org/Graphics/SVG/1.1/DTD/svg11.dtd">
<!-- Generated by graphviz version 12.2.1 (20241206.2353)
 -->
<!-- Title: examples.solo_mgar_udp.solo_mgar_udp.mo_fitness Pages: 1 -->
<svg width="439pt" height="90pt"
 viewBox="0.00 0.00 439.25 90.00" xmlns="http://www.w3.org/2000/svg" xmlns:xlink="http://www.w3.org/1999/xlink">
<g id="graph0" class="graph" transform="scale(1 1) rotate(0) translate(4 86)">
<title>examples.solo_mgar_udp.solo_mgar_udp.mo_fitness</title>
<!-- Node1 -->
<g id="Node000001" class="node">
<title>Node1</title>
<g id="a_Node000001"><a xlink:title=" ">
<polygon fill="#999999" stroke="#666666" points="122.5,-63 0,-63 0,-19 122.5,-19 122.5,-63"/>
<text text-anchor="start" x="8" y="-49.5" font-family="Helvetica,sans-Serif" font-size="10.00">examples.solo_mgar</text>
<text text-anchor="start" x="8" y="-37.5" font-family="Helvetica,sans-Serif" font-size="10.00">_udp.solo_mgar_udp.mo</text>
<text text-anchor="middle" x="61.25" y="-25.5" font-family="Helvetica,sans-Serif" font-size="10.00">_fitness</text>
</a>
</g>
</g>
<!-- Node2 -->
<g id="Node000002" class="node">
<title>Node2</title>
<g id="a_Node000002"><a xlink:href="$classexamples_1_1solo__mgar__udp_1_1solo__mgar__udp.html#a92828aaaf12b6addeb33a6249b7539b8" xlink:title=" ">
<polygon fill="white" stroke="#666666" points="267.5,-63 158.5,-63 158.5,-19 267.5,-19 267.5,-63"/>
<text text-anchor="start" x="166.5" y="-49.5" font-family="Helvetica,sans-Serif" font-size="10.00">examples.solo_mgar</text>
<text text-anchor="start" x="166.5" y="-37.5" font-family="Helvetica,sans-Serif" font-size="10.00">_udp.solo_mgar_udp.</text>
<text text-anchor="middle" x="213" y="-25.5" font-family="Helvetica,sans-Serif" font-size="10.00">_compute_dvs</text>
</a>
</g>
</g>
<!-- Node1&#45;&gt;Node2 -->
<g id="edge4_Node000001_Node000002" class="edge">
<title>Node1&#45;&gt;Node2</title>
<g id="a_edge4_Node000001_Node000002"><a xlink:title=" ">
<path fill="none" stroke="#63b8ff" d="M122.73,-41C130.58,-41 138.65,-41 146.58,-41"/>
<polygon fill="#63b8ff" stroke="#63b8ff" points="146.54,-44.5 156.54,-41 146.54,-37.5 146.54,-44.5"/>
</a>
</g>
</g>
<!-- Node3 -->
<g id="Node000003" class="node">
<title>Node3</title>
<g id="a_Node000003"><a xlink:href="$namespaceexamples_1_1solo__mgar__udp.html#a6d928d9b61388ba3bc08749cb303c94e" xlink:title=" ">
<polygon fill="white" stroke="#666666" points="420.38,-82 314.38,-82 314.38,-50 420.38,-50 420.38,-82"/>
<text text-anchor="start" x="322.38" y="-68.5" font-family="Helvetica,sans-Serif" font-size="10.00">examples.solo_mgar</text>
<text text-anchor="middle" x="367.38" y="-56.5" font-family="Helvetica,sans-Serif" font-size="10.00">_udp._dv_mga</text>
</a>
</g>
</g>
<!-- Node2&#45;&gt;Node3 -->
<g id="edge5_Node000002_Node000003" class="edge">
<title>Node2&#45;&gt;Node3</title>
<g id="a_edge5_Node000002_Node000003"><a xlink:title=" ">
<path fill="none" stroke="#63b8ff" d="M267.72,-49.81C279.08,-51.68 291.18,-53.66 302.87,-55.58"/>
<polygon fill="#63b8ff" stroke="#63b8ff" points="301.98,-58.98 312.41,-57.15 303.11,-52.07 301.98,-58.98"/>
</a>
</g>
</g>
<!-- Node4 -->
<g id="Node000004" class="node">
<title>Node4</title>
<g id="a_Node000004"><a xlink:href="$namespaceexamples_1_1solo__mgar__udp.html#a2f01caf14c62d02e55dfc2245172590b" xlink:title=" ">
<polygon fill="white" stroke="#666666" points="431.25,-32 303.5,-32 303.5,0 431.25,0 431.25,-32"/>
<text text-anchor="start" x="311.5" y="-18.5" font-family="Helvetica,sans-Serif" font-size="10.00">examples.solo_mgar</text>
<text text-anchor="middle" x="367.38" y="-6.5" font-family="Helvetica,sans-Serif" font-size="10.00">_udp.compute_resonance</text>
</a>
</g>
</g>
<!-- Node2&#45;&gt;Node4 -->
<g id="edge6_Node000002_Node000004" class="edge">
<title>Node2&#45;&gt;Node4</title>
<g id="a_edge6_Node000002_Node000004"><a xlink:title=" ">
<path fill="none" stroke="#63b8ff" d="M267.72,-32.19C275.62,-30.89 283.86,-29.54 292.08,-28.19"/>
<polygon fill="#63b8ff" stroke="#63b8ff" points="292.44,-31.68 301.74,-26.6 291.3,-24.77 292.44,-31.68"/>
</a>
</g>
</g>
</g>
</svg>
