<?xml version="1.0" encoding="UTF-8" standalone="no"?>
<!DOCTYPE svg PUBLIC "-//W3C//DTD SVG 1.1//EN"
 "http://www.w3.org/Graphics/SVG/1.1/DTD/svg11.dtd">
<!-- Generated by graphviz version 12.2.1 (20241206.2353)
 -->
<!-- Title: CBiteOptInterface::optcost Pages: 1 -->
<svg width="413pt" height="180pt"
 viewBox="0.00 0.00 413.00 180.00" xmlns="http://www.w3.org/2000/svg" xmlns:xlink="http://www.w3.org/1999/xlink">
<g id="graph0" class="graph" transform="scale(1 1) rotate(0) translate(4 176)">
<title>CBiteOptInterface::optcost</title>
<!-- Node1 -->
<g id="Node000001" class="node">
<title>Node1</title>
<g id="a_Node000001"><a xlink:title=" ">
<polygon fill="#999999" stroke="#666666" points="405,-102 304.25,-102 304.25,-70 405,-70 405,-102"/>
<text text-anchor="start" x="312.25" y="-88.5" font-family="Helvetica,sans-Serif" font-size="10.00">CBiteOptInterface::</text>
<text text-anchor="middle" x="354.62" y="-76.5" font-family="Helvetica,sans-Serif" font-size="10.00">optcost</text>
</a>
</g>
</g>
<!-- Node2 -->
<g id="Node000002" class="node">
<title>Node2</title>
<g id="a_Node000002"><a xlink:href="$class_c_n_m_seq_opt.html#a1ef451e7a70db607e096c343dac37bb1" xlink:title=" ">
<polygon fill="white" stroke="#666666" points="257.75,-172 161.5,-172 161.5,-152 257.75,-152 257.75,-172"/>
<text text-anchor="middle" x="209.62" y="-158.5" font-family="Helvetica,sans-Serif" font-size="10.00">CNMSeqOpt::eval</text>
</a>
</g>
</g>
<!-- Node1&#45;&gt;Node2 -->
<g id="edge7_Node000001_Node000002" class="edge">
<title>Node1&#45;&gt;Node2</title>
<g id="a_edge7_Node000001_Node000002"><a xlink:title=" ">
<path fill="none" stroke="#63b8ff" d="M323.25,-109.21C307.46,-120.5 287.49,-133.62 268.25,-143 261.62,-146.23 254.31,-149.12 247.18,-151.6"/>
<polygon fill="#63b8ff" stroke="#63b8ff" points="325.25,-112.08 331.27,-103.36 321.13,-106.43 325.25,-112.08"/>
</a>
</g>
</g>
<!-- Node4 -->
<g id="Node000004" class="node">
<title>Node4</title>
<g id="a_Node000004"><a xlink:href="$class_c_bite_opt.html#a2f56a9d5d682c92e2da1234ed68d54ed" xlink:title=" ">
<polygon fill="white" stroke="#666666" points="259.25,-134 160,-134 160,-114 259.25,-114 259.25,-134"/>
<text text-anchor="middle" x="209.62" y="-120.5" font-family="Helvetica,sans-Serif" font-size="10.00">CBiteOpt::optimize</text>
</a>
</g>
</g>
<!-- Node1&#45;&gt;Node4 -->
<g id="edge9_Node000001_Node000004" class="edge">
<title>Node1&#45;&gt;Node4</title>
<g id="a_edge9_Node000001_Node000004"><a xlink:title=" ">
<path fill="none" stroke="#63b8ff" d="M292.99,-102.11C278.37,-106 263.13,-110.05 249.79,-113.59"/>
<polygon fill="#63b8ff" stroke="#63b8ff" points="293.78,-105.52 302.55,-99.57 291.99,-98.76 293.78,-105.52"/>
</a>
</g>
</g>
<!-- Node5 -->
<g id="Node000005" class="node">
<title>Node5</title>
<g id="a_Node000005"><a xlink:href="$class_c_d_e_opt.html#a819e3692005dd630f7bc83d4444e23ee" xlink:title=" ">
<polygon fill="white" stroke="#666666" points="257.75,-96 161.5,-96 161.5,-76 257.75,-76 257.75,-96"/>
<text text-anchor="middle" x="209.62" y="-82.5" font-family="Helvetica,sans-Serif" font-size="10.00">CDEOpt::optimize</text>
</a>
</g>
</g>
<!-- Node1&#45;&gt;Node5 -->
<g id="edge10_Node000001_Node000005" class="edge">
<title>Node1&#45;&gt;Node5</title>
<g id="a_edge10_Node000001_Node000005"><a xlink:title=" ">
<path fill="none" stroke="#63b8ff" d="M292.66,-86C281.15,-86 269.26,-86 258.22,-86"/>
<polygon fill="#63b8ff" stroke="#63b8ff" points="292.5,-89.5 302.5,-86 292.5,-82.5 292.5,-89.5"/>
</a>
</g>
</g>
<!-- Node6 -->
<g id="Node000006" class="node">
<title>Node6</title>
<g id="a_Node000006"><a xlink:href="$class_c_s_m_a_e_s_opt.html#ae6322c2f8523f5a70a5d5bac5b9baa43" xlink:title=" ">
<polygon fill="white" stroke="#666666" points="268.25,-58 151,-58 151,-38 268.25,-38 268.25,-58"/>
<text text-anchor="middle" x="209.62" y="-44.5" font-family="Helvetica,sans-Serif" font-size="10.00">CSMAESOpt::optimize</text>
</a>
</g>
</g>
<!-- Node1&#45;&gt;Node6 -->
<g id="edge11_Node000001_Node000006" class="edge">
<title>Node1&#45;&gt;Node6</title>
<g id="a_edge11_Node000001_Node000006"><a xlink:title=" ">
<path fill="none" stroke="#63b8ff" d="M292.99,-69.89C278.37,-66 263.13,-61.95 249.79,-58.41"/>
<polygon fill="#63b8ff" stroke="#63b8ff" points="291.99,-73.24 302.55,-72.43 293.78,-66.48 291.99,-73.24"/>
</a>
</g>
</g>
<!-- Node7 -->
<g id="Node000007" class="node">
<title>Node7</title>
<g id="a_Node000007"><a xlink:href="$class_c_spher_opt.html#a1515c953ba95c15ca8722ad8fb46523d" xlink:title=" ">
<polygon fill="white" stroke="#666666" points="263.38,-20 155.88,-20 155.88,0 263.38,0 263.38,-20"/>
<text text-anchor="middle" x="209.62" y="-6.5" font-family="Helvetica,sans-Serif" font-size="10.00">CSpherOpt::optimize</text>
</a>
</g>
</g>
<!-- Node1&#45;&gt;Node7 -->
<g id="edge12_Node000001_Node000007" class="edge">
<title>Node1&#45;&gt;Node7</title>
<g id="a_edge12_Node000001_Node000007"><a xlink:title=" ">
<path fill="none" stroke="#63b8ff" d="M323.25,-62.79C307.46,-51.5 287.49,-38.38 268.25,-29 261.62,-25.77 254.31,-22.88 247.18,-20.4"/>
<polygon fill="#63b8ff" stroke="#63b8ff" points="321.13,-65.57 331.27,-68.64 325.25,-59.92 321.13,-65.57"/>
</a>
</g>
</g>
<!-- Node3 -->
<g id="Node000003" class="node">
<title>Node3</title>
<g id="a_Node000003"><a xlink:href="$class_c_n_m_seq_opt.html#a7acf8fee1b87f954b19f8a4313e58b7d" xlink:title=" ">
<polygon fill="white" stroke="#666666" points="115,-172 0,-172 0,-152 115,-152 115,-172"/>
<text text-anchor="middle" x="57.5" y="-158.5" font-family="Helvetica,sans-Serif" font-size="10.00">CNMSeqOpt::optimize</text>
</a>
</g>
</g>
<!-- Node2&#45;&gt;Node3 -->
<g id="edge8_Node000002_Node000003" class="edge">
<title>Node2&#45;&gt;Node3</title>
<g id="a_edge8_Node000002_Node000003"><a xlink:title=" ">
<path fill="none" stroke="#63b8ff" d="M149.62,-162C138.37,-162 126.61,-162 115.42,-162"/>
<polygon fill="#63b8ff" stroke="#63b8ff" points="149.61,-165.5 159.61,-162 149.61,-158.5 149.61,-165.5"/>
</a>
</g>
</g>
</g>
</svg>
