<?xml version="1.0" encoding="UTF-8" standalone="no"?>
<!DOCTYPE svg PUBLIC "-//W3C//DTD SVG 1.1//EN"
 "http://www.w3.org/Graphics/SVG/1.1/DTD/svg11.dtd">
<!-- Generated by graphviz version 12.2.1 (20241206.2353)
 -->
<!-- Title: examples.vilar.VilarOscillator Pages: 1 -->
<svg width="143pt" height="160pt"
 viewBox="0.00 0.00 142.75 160.00" xmlns="http://www.w3.org/2000/svg" xmlns:xlink="http://www.w3.org/1999/xlink">
<g id="graph0" class="graph" transform="scale(1 1) rotate(0) translate(4 156)">
<title>examples.vilar.VilarOscillator</title>
<!-- Node1 -->
<g id="Node000001" class="node">
<title>Node1</title>
<g id="a_Node000001"><a xlink:title=" ">
<polygon fill="#999999" stroke="none" points="134.75,-64 0,-64 0,0 134.75,0 134.75,-64"/>
<text text-anchor="start" x="4" y="-50.5" font-family="Helvetica,sans-Serif" font-size="10.00">examples.vilar.VilarOscillator</text>
<text text-anchor="start" x="7.69" y="-34.5" font-family="Helvetica,sans-Serif" font-size="10.00">+</text>
<text text-anchor="start" x="21.38" y="-34.5" font-family="Helvetica,sans-Serif" font-size="10.00">int volume</text>
<text text-anchor="start" x="7.69" y="-18.5" font-family="Helvetica,sans-Serif" font-size="10.00">+</text>
<text text-anchor="start" x="21.38" y="-18.5" font-family="Helvetica,sans-Serif" font-size="10.00">__init__(self, parameter</text>
<text text-anchor="start" x="21.38" y="-6.5" font-family="Helvetica,sans-Serif" font-size="10.00">_values=None)</text>
<polygon fill="#666666" stroke="#666666" points="0,-46 0,-46 134.75,-46 134.75,-46 0,-46"/>
<polygon fill="#666666" stroke="#666666" points="0,-30 0,-30 19.38,-30 19.38,-30 0,-30"/>
<polygon fill="#666666" stroke="#666666" points="19.38,-30 19.38,-30 134.75,-30 134.75,-30 19.38,-30"/>
<polygon fill="none" stroke="#666666" points="0,0 0,-64 134.75,-64 134.75,0 0,0"/>
</a>
</g>
</g>
<!-- Node2 -->
<g id="Node000002" class="node">
<title>Node2</title>
<g id="a_Node000002"><a xlink:title=" ">
<polygon fill="white" stroke="none" points="106.62,-152 28.12,-152 28.12,-100 106.62,-100 106.62,-152"/>
<text text-anchor="start" x="32.12" y="-138.5" font-family="Helvetica,sans-Serif" font-size="10.00">gillespy2::Model</text>
<text text-anchor="start" x="65.88" y="-122.5" font-family="Helvetica,sans-Serif" font-size="10.00"> </text>
<text text-anchor="start" x="65.88" y="-106.5" font-family="Helvetica,sans-Serif" font-size="10.00"> </text>
<polygon fill="#666666" stroke="#666666" points="28.12,-134 28.12,-134 106.62,-134 106.62,-134 28.12,-134"/>
<polygon fill="#666666" stroke="#666666" points="28.12,-118 28.12,-118 106.62,-118 106.62,-118 28.12,-118"/>
<polygon fill="none" stroke="#666666" points="28.12,-100 28.12,-152 106.62,-152 106.62,-100 28.12,-100"/>
</a>
</g>
</g>
<!-- Node2&#45;&gt;Node1 -->
<g id="edge2_Node000001_Node000002" class="edge">
<title>Node2&#45;&gt;Node1</title>
<g id="a_edge2_Node000001_Node000002"><a xlink:title=" ">
<path fill="none" stroke="#63b8ff" d="M67.38,-89.06C67.38,-80.78 67.38,-72.04 67.38,-63.98"/>
<polygon fill="none" stroke="#63b8ff" points="63.88,-88.83 67.38,-98.83 70.88,-88.83 63.88,-88.83"/>
</a>
</g>
</g>
</g>
</svg>
