<?xml version="1.0" encoding="UTF-8" standalone="no"?>
<!DOCTYPE svg PUBLIC "-//W3C//DTD SVG 1.1//EN"
 "http://www.w3.org/Graphics/SVG/1.1/DTD/svg11.dtd">
<!-- Generated by graphviz version 12.2.1 (20241206.2353)
 -->
<!-- Title: dual_annealing::VisitingDistribution::visit_fn Pages: 1 -->
<svg width="295pt" height="104pt"
 viewBox="0.00 0.00 295.00 104.00" xmlns="http://www.w3.org/2000/svg" xmlns:xlink="http://www.w3.org/1999/xlink">
<g id="graph0" class="graph" transform="scale(1 1) rotate(0) translate(4 100)">
<title>dual_annealing::VisitingDistribution::visit_fn</title>
<!-- Node1 -->
<g id="Node000001" class="node">
<title>Node1</title>
<g id="a_Node000001"><a xlink:title=" ">
<polygon fill="#999999" stroke="#666666" points="118.75,-64 0,-64 0,-32 118.75,-32 118.75,-64"/>
<text text-anchor="start" x="8" y="-50.5" font-family="Helvetica,sans-Serif" font-size="10.00">dual_annealing::Visiting</text>
<text text-anchor="middle" x="59.38" y="-38.5" font-family="Helvetica,sans-Serif" font-size="10.00">Distribution::visit_fn</text>
</a>
</g>
</g>
<!-- Node2 -->
<g id="Node000002" class="node">
<title>Node2</title>
<g id="a_Node000002"><a xlink:href="$namespacedual__annealing.html#a151b32ba2575f7a0632b5c55162fb4bd" xlink:title=" ">
<polygon fill="white" stroke="#666666" points="274.62,-96 167.12,-96 167.12,-76 274.62,-76 274.62,-96"/>
<text text-anchor="middle" x="220.88" y="-82.5" font-family="Helvetica,sans-Serif" font-size="10.00">dual_annealing::expv</text>
</a>
</g>
</g>
<!-- Node1&#45;&gt;Node2 -->
<g id="edge4_Node000001_Node000002" class="edge">
<title>Node1&#45;&gt;Node2</title>
<g id="a_edge4_Node000001_Node000002"><a xlink:title=" ">
<path fill="none" stroke="#63b8ff" d="M118.86,-61.93C133.88,-65.51 149.99,-69.35 164.83,-72.88"/>
<polygon fill="#63b8ff" stroke="#63b8ff" points="163.88,-76.26 174.42,-75.17 165.5,-69.45 163.88,-76.26"/>
</a>
</g>
</g>
<!-- Node3 -->
<g id="Node000003" class="node">
<title>Node3</title>
<g id="a_Node000003"><a xlink:href="$namespacedual__annealing.html#aa453b3bdb1c9bcf34d298af39b661639" xlink:title=" ">
<polygon fill="white" stroke="#666666" points="273.12,-58 168.62,-58 168.62,-38 273.12,-38 273.12,-58"/>
<text text-anchor="middle" x="220.88" y="-44.5" font-family="Helvetica,sans-Serif" font-size="10.00">dual_annealing::logv</text>
</a>
</g>
</g>
<!-- Node1&#45;&gt;Node3 -->
<g id="edge5_Node000001_Node000003" class="edge">
<title>Node1&#45;&gt;Node3</title>
<g id="a_edge5_Node000001_Node000003"><a xlink:title=" ">
<path fill="none" stroke="#63b8ff" d="M118.86,-48C131.25,-48 144.38,-48 156.92,-48"/>
<polygon fill="#63b8ff" stroke="#63b8ff" points="156.73,-51.5 166.73,-48 156.73,-44.5 156.73,-51.5"/>
</a>
</g>
</g>
<!-- Node4 -->
<g id="Node000004" class="node">
<title>Node4</title>
<g id="a_Node000004"><a xlink:href="$namespacedual__annealing.html#a3688f9a35c8af0e21f7670473fdfc196" xlink:title=" ">
<polygon fill="white" stroke="#666666" points="287,-20 154.75,-20 154.75,0 287,0 287,-20"/>
<text text-anchor="middle" x="220.88" y="-6.5" font-family="Helvetica,sans-Serif" font-size="10.00">dual_annealing::normalVec</text>
</a>
</g>
</g>
<!-- Node1&#45;&gt;Node4 -->
<g id="edge6_Node000001_Node000004" class="edge">
<title>Node1&#45;&gt;Node4</title>
<g id="a_edge6_Node000001_Node000004"><a xlink:title=" ">
<path fill="none" stroke="#63b8ff" d="M118.86,-34.07C133.88,-30.49 149.99,-26.65 164.83,-23.12"/>
<polygon fill="#63b8ff" stroke="#63b8ff" points="165.5,-26.55 174.42,-20.83 163.88,-19.74 165.5,-26.55"/>
</a>
</g>
</g>
</g>
</svg>
