<?xml version="1.0" encoding="UTF-8" standalone="no"?>
<!DOCTYPE svg PUBLIC "-//W3C//DTD SVG 1.1//EN"
 "http://www.w3.org/Graphics/SVG/1.1/DTD/svg11.dtd">
<!-- Generated by graphviz version 12.2.1 (20241206.2353)
 -->
<!-- Title: examples.benchmark_gtop_pygmo.Cma_pyg Pages: 1 -->
<svg width="154pt" height="376pt"
 viewBox="0.00 0.00 154.25 376.00" xmlns="http://www.w3.org/2000/svg" xmlns:xlink="http://www.w3.org/1999/xlink">
<g id="graph0" class="graph" transform="scale(1 1) rotate(0) translate(4 372)">
<title>examples.benchmark_gtop_pygmo.Cma_pyg</title>
<!-- Node1 -->
<g id="Node000001" class="node">
<title>Node1</title>
<g id="a_Node000001"><a xlink:title="CMA_ES pagmo implementation.">
<polygon fill="#999999" stroke="none" points="141,-184 5.25,-184 5.25,0 141,0 141,-184"/>
<text text-anchor="start" x="21.38" y="-170.5" font-family="Helvetica,sans-Serif" font-size="10.00">examples.benchmark</text>
<text text-anchor="start" x="21.38" y="-158.5" font-family="Helvetica,sans-Serif" font-size="10.00">_gtop_pygmo.Cma_pyg</text>
<text text-anchor="start" x="9.25" y="-142.5" font-family="Helvetica,sans-Serif" font-size="10.00">+</text>
<text text-anchor="start" x="19.25" y="-142.5" font-family="Helvetica,sans-Serif" font-size="10.00">popsize</text>
<text text-anchor="start" x="9.25" y="-126.5" font-family="Helvetica,sans-Serif" font-size="10.00">+</text>
<text text-anchor="start" x="19.25" y="-126.5" font-family="Helvetica,sans-Serif" font-size="10.00">guess</text>
<text text-anchor="start" x="9.25" y="-110.5" font-family="Helvetica,sans-Serif" font-size="10.00">+</text>
<text text-anchor="start" x="19.25" y="-110.5" font-family="Helvetica,sans-Serif" font-size="10.00">stop_fitness</text>
<text text-anchor="start" x="9.25" y="-94.5" font-family="Helvetica,sans-Serif" font-size="10.00">+</text>
<text text-anchor="start" x="19.25" y="-94.5" font-family="Helvetica,sans-Serif" font-size="10.00">__init__(self, max</text>
<text text-anchor="start" x="19.25" y="-82.5" font-family="Helvetica,sans-Serif" font-size="10.00">_evaluations=50000,</text>
<text text-anchor="start" x="19.25" y="-70.5" font-family="Helvetica,sans-Serif" font-size="10.00"> popsize=31, guess=None,</text>
<text text-anchor="start" x="19.25" y="-58.5" font-family="Helvetica,sans-Serif" font-size="10.00"> stop_fitness=&#45;np.inf)</text>
<text text-anchor="start" x="9.25" y="-42.5" font-family="Helvetica,sans-Serif" font-size="10.00">+</text>
<text text-anchor="start" x="19.25" y="-42.5" font-family="Helvetica,sans-Serif" font-size="10.00">minimize(self, fun,</text>
<text text-anchor="start" x="19.25" y="-30.5" font-family="Helvetica,sans-Serif" font-size="10.00"> bounds, guess=None,</text>
<text text-anchor="start" x="19.25" y="-18.5" font-family="Helvetica,sans-Serif" font-size="10.00"> sdevs=0.3, rg=Generator</text>
<text text-anchor="start" x="19.25" y="-6.5" font-family="Helvetica,sans-Serif" font-size="10.00">(MT19937()), store=None)</text>
<polygon fill="#666666" stroke="#666666" points="5.25,-154 5.25,-154 141,-154 141,-154 5.25,-154"/>
<polygon fill="#666666" stroke="#666666" points="5.25,-106 5.25,-106 17.25,-106 17.25,-106 5.25,-106"/>
<polygon fill="#666666" stroke="#666666" points="17.25,-106 17.25,-106 141,-106 141,-106 17.25,-106"/>
<polygon fill="none" stroke="#666666" points="5.25,0 5.25,-184 141,-184 141,0 5.25,0"/>
</a>
</g>
</g>
<!-- Node2 -->
<g id="Node000002" class="node">
<title>Node2</title>
<g id="a_Node000002"><a xlink:href="$classfcmaes_1_1optimizer_1_1_optimizer.html" xlink:title="Provides functionalities for optimization tasks.">
<polygon fill="white" stroke="none" points="146.25,-368 0,-368 0,-220 146.25,-220 146.25,-368"/>
<text text-anchor="start" x="13.12" y="-354.5" font-family="Helvetica,sans-Serif" font-size="10.00">fcmaes.optimizer.Optimizer</text>
<text text-anchor="start" x="4" y="-338.5" font-family="Helvetica,sans-Serif" font-size="10.00">+</text>
<text text-anchor="start" x="14" y="-338.5" font-family="Helvetica,sans-Serif" font-size="10.00">max_evaluations</text>
<text text-anchor="start" x="4" y="-322.5" font-family="Helvetica,sans-Serif" font-size="10.00">+</text>
<text text-anchor="start" x="14" y="-322.5" font-family="Helvetica,sans-Serif" font-size="10.00">name</text>
<text text-anchor="start" x="4" y="-306.5" font-family="Helvetica,sans-Serif" font-size="10.00">+</text>
<text text-anchor="start" x="14" y="-306.5" font-family="Helvetica,sans-Serif" font-size="10.00">__init__(self, Optional</text>
<text text-anchor="start" x="14" y="-294.5" font-family="Helvetica,sans-Serif" font-size="10.00">[int] max_evaluations=50000,</text>
<text text-anchor="start" x="14" y="-282.5" font-family="Helvetica,sans-Serif" font-size="10.00"> Optional[str] name=&#39;&#39;)</text>
<text text-anchor="start" x="4" y="-266.5" font-family="Helvetica,sans-Serif" font-size="10.00">+</text>
<text text-anchor="start" x="14" y="-266.5" font-family="Helvetica,sans-Serif" font-size="10.00">max_eval_num(self,</text>
<text text-anchor="start" x="14" y="-254.5" font-family="Helvetica,sans-Serif" font-size="10.00"> store=None)</text>
<text text-anchor="start" x="4" y="-238.5" font-family="Helvetica,sans-Serif" font-size="10.00">+</text>
<text text-anchor="start" x="14" y="-238.5" font-family="Helvetica,sans-Serif" font-size="10.00">get_count_runs(self,</text>
<text text-anchor="start" x="14" y="-226.5" font-family="Helvetica,sans-Serif" font-size="10.00"> store=None)</text>
<polygon fill="#666666" stroke="#666666" points="0,-350 0,-350 146.25,-350 146.25,-350 0,-350"/>
<polygon fill="#666666" stroke="#666666" points="0,-318 0,-318 12,-318 12,-318 0,-318"/>
<polygon fill="#666666" stroke="#666666" points="12,-318 12,-318 146.25,-318 146.25,-318 12,-318"/>
<polygon fill="none" stroke="#666666" points="0,-220 0,-368 146.25,-368 146.25,-220 0,-220"/>
</a>
</g>
</g>
<!-- Node2&#45;&gt;Node1 -->
<g id="edge2_Node000001_Node000002" class="edge">
<title>Node2&#45;&gt;Node1</title>
<g id="a_edge2_Node000001_Node000002"><a xlink:title=" ">
<path fill="none" stroke="#63b8ff" d="M73.12,-208.99C73.12,-200.66 73.12,-192.19 73.12,-183.79"/>
<polygon fill="none" stroke="#63b8ff" points="69.63,-208.72 73.13,-218.72 76.63,-208.72 69.63,-208.72"/>
</a>
</g>
</g>
</g>
</svg>
