<?xml version="1.0" encoding="UTF-8" standalone="no"?>
<!DOCTYPE svg PUBLIC "-//W3C//DTD SVG 1.1//EN"
 "http://www.w3.org/Graphics/SVG/1.1/DTD/svg11.dtd">
<!-- Generated by graphviz version 12.2.1 (20241206.2353)
 -->
<!-- Title: CBiteRnd::getGaussian Pages: 1 -->
<svg width="429pt" height="142pt"
 viewBox="0.00 0.00 428.75 142.00" xmlns="http://www.w3.org/2000/svg" xmlns:xlink="http://www.w3.org/1999/xlink">
<g id="graph0" class="graph" transform="scale(1 1) rotate(0) translate(4 138)">
<title>CBiteRnd::getGaussian</title>
<!-- Node1 -->
<g id="Node000001" class="node">
<title>Node1</title>
<g id="a_Node000001"><a xlink:title=" ">
<polygon fill="#999999" stroke="#666666" points="420.75,-77 301.25,-77 301.25,-57 420.75,-57 420.75,-77"/>
<text text-anchor="middle" x="361" y="-63.5" font-family="Helvetica,sans-Serif" font-size="10.00">CBiteRnd::getGaussian</text>
</a>
</g>
</g>
<!-- Node2 -->
<g id="Node000002" class="node">
<title>Node2</title>
<g id="a_Node000002"><a xlink:href="$class_c_bite_opt.html#a332b03425de84b8ef8eb362af8e75e78" xlink:title=" ">
<polygon fill="white" stroke="#666666" points="260,-134 140.5,-134 140.5,-114 260,-114 260,-134"/>
<text text-anchor="middle" x="200.25" y="-120.5" font-family="Helvetica,sans-Serif" font-size="10.00">CBiteOpt::generateSol8</text>
</a>
</g>
</g>
<!-- Node1&#45;&gt;Node2 -->
<g id="edge6_Node000001_Node000002" class="edge">
<title>Node1&#45;&gt;Node2</title>
<g id="a_edge6_Node000001_Node000002"><a xlink:title=" ">
<path fill="none" stroke="#63b8ff" d="M325.23,-81.84C307.44,-89.21 285.35,-98 265.25,-105 256.71,-107.97 247.44,-110.9 238.66,-113.53"/>
<polygon fill="#63b8ff" stroke="#63b8ff" points="326.42,-85.14 334.3,-78.06 323.72,-78.68 326.42,-85.14"/>
</a>
</g>
</g>
<!-- Node4 -->
<g id="Node000004" class="node">
<title>Node4</title>
<g id="a_Node000004"><a xlink:href="$class_c_bite_pop.html#aecaac61269e65bda93cb2dc1a3a26091" xlink:title=" ">
<polygon fill="white" stroke="#666666" points="265.25,-96 135.25,-96 135.25,-76 265.25,-76 265.25,-96"/>
<text text-anchor="middle" x="200.25" y="-82.5" font-family="Helvetica,sans-Serif" font-size="10.00">CBitePop::getGaussianInt</text>
</a>
</g>
</g>
<!-- Node1&#45;&gt;Node4 -->
<g id="edge8_Node000001_Node000004" class="edge">
<title>Node1&#45;&gt;Node4</title>
<g id="a_edge8_Node000001_Node000004"><a xlink:title=" ">
<path fill="none" stroke="#63b8ff" d="M289.72,-75.41C281.74,-76.37 273.64,-77.34 265.74,-78.28"/>
<polygon fill="#63b8ff" stroke="#63b8ff" points="289.87,-78.92 299.38,-74.25 289.04,-71.97 289.87,-78.92"/>
</a>
</g>
</g>
<!-- Node5 -->
<g id="Node000005" class="node">
<title>Node5</title>
<g id="a_Node000005"><a xlink:href="$class_c_n_m_seq_opt.html#aff1efaf9224552ae9a607a60f4ca17fc" xlink:title=" ">
<polygon fill="white" stroke="#666666" points="245.75,-58 154.75,-58 154.75,-38 245.75,-38 245.75,-58"/>
<text text-anchor="middle" x="200.25" y="-44.5" font-family="Helvetica,sans-Serif" font-size="10.00">CNMSeqOpt::init</text>
</a>
</g>
</g>
<!-- Node1&#45;&gt;Node5 -->
<g id="edge9_Node000001_Node000005" class="edge">
<title>Node1&#45;&gt;Node5</title>
<g id="a_edge9_Node000001_Node000005"><a xlink:title=" ">
<path fill="none" stroke="#63b8ff" d="M289.67,-58.58C274.84,-56.81 259.59,-54.98 246.02,-53.36"/>
<polygon fill="#63b8ff" stroke="#63b8ff" points="289.04,-62.03 299.38,-59.75 289.87,-55.08 289.04,-62.03"/>
</a>
</g>
</g>
<!-- Node6 -->
<g id="Node000006" class="node">
<title>Node6</title>
<g id="a_Node000006"><a xlink:href="$class_c_bite_ort.html#a0687c4810cab96a266d421eec88368fb" xlink:title=" ">
<polygon fill="white" stroke="#666666" points="246.12,-20 154.38,-20 154.38,0 246.12,0 246.12,-20"/>
<text text-anchor="middle" x="200.25" y="-6.5" font-family="Helvetica,sans-Serif" font-size="10.00">CBiteOrt::sample</text>
</a>
</g>
</g>
<!-- Node1&#45;&gt;Node6 -->
<g id="edge10_Node000001_Node000006" class="edge">
<title>Node1&#45;&gt;Node6</title>
<g id="a_edge10_Node000001_Node000006"><a xlink:title=" ">
<path fill="none" stroke="#63b8ff" d="M325.23,-52.16C307.44,-44.79 285.35,-36 265.25,-29 256.71,-26.03 247.44,-23.1 238.66,-20.47"/>
<polygon fill="#63b8ff" stroke="#63b8ff" points="323.72,-55.32 334.3,-55.94 326.42,-48.86 323.72,-55.32"/>
</a>
</g>
</g>
<!-- Node3 -->
<g id="Node000003" class="node">
<title>Node3</title>
<g id="a_Node000003"><a xlink:href="$class_c_bite_opt.html#a2f56a9d5d682c92e2da1234ed68d54ed" xlink:title=" ">
<polygon fill="white" stroke="#666666" points="99.25,-134 0,-134 0,-114 99.25,-114 99.25,-134"/>
<text text-anchor="middle" x="49.62" y="-120.5" font-family="Helvetica,sans-Serif" font-size="10.00">CBiteOpt::optimize</text>
</a>
</g>
</g>
<!-- Node2&#45;&gt;Node3 -->
<g id="edge7_Node000002_Node000003" class="edge">
<title>Node2&#45;&gt;Node3</title>
<g id="a_edge7_Node000002_Node000003"><a xlink:title=" ">
<path fill="none" stroke="#63b8ff" d="M128.62,-124C118.79,-124 108.87,-124 99.56,-124"/>
<polygon fill="#63b8ff" stroke="#63b8ff" points="128.57,-127.5 138.57,-124 128.57,-120.5 128.57,-127.5"/>
</a>
</g>
</g>
</g>
</svg>
