<?xml version="1.0" encoding="UTF-8" standalone="no"?>
<!DOCTYPE svg PUBLIC "-//W3C//DTD SVG 1.1//EN"
 "http://www.w3.org/Graphics/SVG/1.1/DTD/svg11.dtd">
<!-- Generated by graphviz version 12.2.1 (20241206.2353)
 -->
<!-- Title: anpcp.ANPCP.get_selection Pages: 1 -->
<svg width="400pt" height="28pt"
 viewBox="0.00 0.00 400.25 28.00" xmlns="http://www.w3.org/2000/svg" xmlns:xlink="http://www.w3.org/1999/xlink">
<g id="graph0" class="graph" transform="scale(1 1) rotate(0) translate(4 24)">
<title>anpcp.ANPCP.get_selection</title>
<!-- Node1 -->
<g id="Node000001" class="node">
<title>Node1</title>
<g id="a_Node000001"><a xlink:title=" ">
<polygon fill="#999999" stroke="#666666" points="139.75,-20 0,-20 0,0 139.75,0 139.75,-20"/>
<text text-anchor="middle" x="69.88" y="-6.5" font-family="Helvetica,sans-Serif" font-size="10.00">anpcp.ANPCP.get_selection</text>
</a>
</g>
</g>
<!-- Node2 -->
<g id="Node000002" class="node">
<title>Node2</title>
<g id="a_Node000002"><a xlink:href="$namespaceanpcp.html#ad1c73ca9e8ad8f9a6b51cf5738b5ddf9" xlink:title=" ">
<polygon fill="white" stroke="#666666" points="265.25,-20 175.75,-20 175.75,0 265.25,0 265.25,-20"/>
<text text-anchor="middle" x="220.5" y="-6.5" font-family="Helvetica,sans-Serif" font-size="10.00">anpcp.selection_</text>
</a>
</g>
</g>
<!-- Node1&#45;&gt;Node2 -->
<g id="edge3_Node000001_Node000002" class="edge">
<title>Node1&#45;&gt;Node2</title>
<g id="a_edge3_Node000001_Node000002"><a xlink:title=" ">
<path fill="none" stroke="#63b8ff" d="M139.97,-10C148.12,-10 156.35,-10 164.27,-10"/>
<polygon fill="#63b8ff" stroke="#63b8ff" points="164.1,-13.5 174.1,-10 164.1,-6.5 164.1,-13.5"/>
</a>
</g>
</g>
<!-- Node3 -->
<g id="Node000003" class="node">
<title>Node3</title>
<g id="a_Node000003"><a xlink:href="$namespaceanpcp.html#a1633c5905b3d9dfa0816c7193e554322" xlink:title=" ">
<polygon fill="white" stroke="#666666" points="392.25,-20 301.25,-20 301.25,0 392.25,0 392.25,-20"/>
<text text-anchor="middle" x="346.75" y="-6.5" font-family="Helvetica,sans-Serif" font-size="10.00">anpcp.next_free_</text>
</a>
</g>
</g>
<!-- Node2&#45;&gt;Node3 -->
<g id="edge4_Node000002_Node000003" class="edge">
<title>Node2&#45;&gt;Node3</title>
<g id="a_edge4_Node000002_Node000003"><a xlink:title=" ">
<path fill="none" stroke="#63b8ff" d="M265.66,-10C273.34,-10 281.43,-10 289.39,-10"/>
<polygon fill="#63b8ff" stroke="#63b8ff" points="289.38,-13.5 299.38,-10 289.38,-6.5 289.38,-13.5"/>
</a>
</g>
</g>
</g>
</svg>
