<?xml version="1.0" encoding="UTF-8" standalone="no"?>
<!DOCTYPE svg PUBLIC "-//W3C//DTD SVG 1.1//EN"
 "http://www.w3.org/Graphics/SVG/1.1/DTD/svg11.dtd">
<!-- Generated by graphviz version 12.2.1 (20241206.2353)
 -->
<!-- Title: examples.rover.RoverDomain.__call__ Pages: 1 -->
<svg width="484pt" height="196pt"
 viewBox="0.00 0.00 484.25 196.00" xmlns="http://www.w3.org/2000/svg" xmlns:xlink="http://www.w3.org/1999/xlink">
<g id="graph0" class="graph" transform="scale(1 1) rotate(0) translate(4 192)">
<title>examples.rover.RoverDomain.__call__</title>
<!-- Node1 -->
<g id="Node000001" class="node">
<title>Node1</title>
<g id="a_Node000001"><a xlink:title=" ">
<polygon fill="#999999" stroke="#666666" points="148.75,-116 0,-116 0,-84 148.75,-84 148.75,-116"/>
<text text-anchor="start" x="8" y="-102.5" font-family="Helvetica,sans-Serif" font-size="10.00">examples.rover.RoverDomain.</text>
<text text-anchor="middle" x="74.38" y="-90.5" font-family="Helvetica,sans-Serif" font-size="10.00">__call__</text>
</a>
</g>
</g>
<!-- Node2 -->
<g id="Node000002" class="node">
<title>Node2</title>
<g id="a_Node000002"><a xlink:href="$classexamples_1_1rover_1_1_rover_domain.html#a60840a6ab40f86a73f7bd1bce9099d12" xlink:title=" ">
<polygon fill="white" stroke="#666666" points="395,-188 184.75,-188 184.75,-168 395,-168 395,-188"/>
<text text-anchor="middle" x="289.88" y="-174.5" font-family="Helvetica,sans-Serif" font-size="10.00">examples.rover.RoverDomain.estimate_cost</text>
</a>
</g>
</g>
<!-- Node1&#45;&gt;Node2 -->
<g id="edge7_Node000001_Node000002" class="edge">
<title>Node1&#45;&gt;Node2</title>
<g id="a_edge7_Node000001_Node000002"><a xlink:title=" ">
<path fill="none" stroke="#63b8ff" d="M100.4,-116.46C121.91,-129.87 154.21,-148.28 184.75,-159 190.91,-161.16 197.38,-163.09 203.93,-164.81"/>
<polygon fill="#63b8ff" stroke="#63b8ff" points="203,-168.19 213.55,-167.15 204.66,-161.39 203,-168.19"/>
</a>
</g>
</g>
<!-- Node3 -->
<g id="Node000003" class="node">
<title>Node3</title>
<g id="a_Node000003"><a xlink:href="$classexamples_1_1rover_1_1_point_b_spline.html#ace33159f5979622fd5dd8ed23ebe3cab" xlink:title=" ">
<polygon fill="white" stroke="#666666" points="369.12,-150 210.62,-150 210.62,-118 369.12,-118 369.12,-150"/>
<text text-anchor="start" x="218.62" y="-136.5" font-family="Helvetica,sans-Serif" font-size="10.00">examples.rover.PointBSpline.set</text>
<text text-anchor="middle" x="289.88" y="-124.5" font-family="Helvetica,sans-Serif" font-size="10.00">_params</text>
</a>
</g>
</g>
<!-- Node1&#45;&gt;Node3 -->
<g id="edge8_Node000001_Node000003" class="edge">
<title>Node1&#45;&gt;Node3</title>
<g id="a_edge8_Node000001_Node000003"><a xlink:title=" ">
<path fill="none" stroke="#63b8ff" d="M149.15,-111.75C165.36,-114.33 182.7,-117.09 199.46,-119.76"/>
<polygon fill="#63b8ff" stroke="#63b8ff" points="198.45,-123.14 208.87,-121.26 199.55,-116.23 198.45,-123.14"/>
</a>
</g>
</g>
<!-- Node4 -->
<g id="Node000004" class="node">
<title>Node4</title>
<g id="a_Node000004"><a xlink:href="$classexamples_1_1rover_1_1_rover_domain.html#a5fc4dbfdeeeb45e828c2db21fe2eb908" xlink:title=" ">
<polygon fill="white" stroke="#666666" points="371,-82 208.75,-82 208.75,-50 371,-50 371,-82"/>
<text text-anchor="start" x="216.75" y="-68.5" font-family="Helvetica,sans-Serif" font-size="10.00">examples.rover.RoverDomain.set</text>
<text text-anchor="middle" x="289.88" y="-56.5" font-family="Helvetica,sans-Serif" font-size="10.00">_params</text>
</a>
</g>
</g>
<!-- Node1&#45;&gt;Node4 -->
<g id="edge9_Node000001_Node000004" class="edge">
<title>Node1&#45;&gt;Node4</title>
<g id="a_edge9_Node000001_Node000004"><a xlink:title=" ">
<path fill="none" stroke="#63b8ff" d="M149.15,-88.25C164.72,-85.77 181.33,-83.13 197.46,-80.56"/>
<polygon fill="#63b8ff" stroke="#63b8ff" points="197.71,-84.06 207.04,-79.03 196.61,-77.15 197.71,-84.06"/>
</a>
</g>
</g>
<!-- Node6 -->
<g id="Node000006" class="node">
<title>Node6</title>
<g id="a_Node000006"><a xlink:href="$classexamples_1_1rover_1_1_trajectory.html#a599041aa0cfc739a83362487794d363c" xlink:title=" ">
<polygon fill="white" stroke="#666666" points="362.38,-32 217.38,-32 217.38,0 362.38,0 362.38,-32"/>
<text text-anchor="start" x="225.38" y="-18.5" font-family="Helvetica,sans-Serif" font-size="10.00">examples.rover.Trajectory.set</text>
<text text-anchor="middle" x="289.88" y="-6.5" font-family="Helvetica,sans-Serif" font-size="10.00">_params</text>
</a>
</g>
</g>
<!-- Node1&#45;&gt;Node6 -->
<g id="edge12_Node000001_Node000006" class="edge">
<title>Node1&#45;&gt;Node6</title>
<g id="a_edge12_Node000001_Node000006"><a xlink:title=" ">
<path fill="none" stroke="#63b8ff" d="M100.99,-83.71C122.6,-70.58 154.72,-52.48 184.75,-41 191.55,-38.4 198.71,-36.01 205.96,-33.82"/>
<polygon fill="#63b8ff" stroke="#63b8ff" points="206.89,-37.2 215.54,-31.09 204.96,-30.47 206.89,-37.2"/>
</a>
</g>
</g>
<!-- Node4&#45;&gt;Node4 -->
<g id="edge11_Node000004_Node000004" class="edge">
<title>Node4&#45;&gt;Node4</title>
<g id="a_edge11_Node000004_Node000004"><a xlink:title=" ">
<path fill="none" stroke="#63b8ff" d="M260.64,-82.44C255.18,-91.58 264.93,-100 289.88,-100 303.52,-100 312.61,-97.48 317.16,-93.71"/>
<polygon fill="#63b8ff" stroke="#63b8ff" points="320.6,-94.38 318.85,-83.93 313.7,-93.19 320.6,-94.38"/>
</a>
</g>
</g>
<!-- Node5 -->
<g id="Node000005" class="node">
<title>Node5</title>
<g id="a_Node000005"><a xlink:href="$evaluator_8h.html#a231544ac51b3f9312c104a3b7a3c49a6" xlink:title=" ">
<polygon fill="white" stroke="#666666" points="476.25,-76 431,-76 431,-56 476.25,-56 476.25,-76"/>
<text text-anchor="middle" x="453.62" y="-62.5" font-family="Helvetica,sans-Serif" font-size="10.00">normal</text>
</a>
</g>
</g>
<!-- Node4&#45;&gt;Node5 -->
<g id="edge10_Node000004_Node000005" class="edge">
<title>Node4&#45;&gt;Node5</title>
<g id="a_edge10_Node000004_Node000005"><a xlink:title=" ">
<path fill="none" stroke="#63b8ff" d="M371.28,-66C388.2,-66 405.15,-66 419.17,-66"/>
<polygon fill="#63b8ff" stroke="#63b8ff" points="419.14,-69.5 429.14,-66 419.14,-62.5 419.14,-69.5"/>
</a>
</g>
</g>
</g>
</svg>
