<?xml version="1.0" encoding="UTF-8" standalone="no"?>
<!DOCTYPE svg PUBLIC "-//W3C//DTD SVG 1.1//EN"
 "http://www.w3.org/Graphics/SVG/1.1/DTD/svg11.dtd">
<!-- Generated by graphviz version 12.2.1 (20241206.2353)
 -->
<!-- Title: CBiteOpt::generateSol6 Pages: 1 -->
<svg width="544pt" height="204pt"
 viewBox="0.00 0.00 543.75 204.00" xmlns="http://www.w3.org/2000/svg" xmlns:xlink="http://www.w3.org/1999/xlink">
<g id="graph0" class="graph" transform="scale(1 1) rotate(0) translate(4 200)">
<title>CBiteOpt::generateSol6</title>
<!-- Node1 -->
<g id="Node000001" class="node">
<title>Node1</title>
<g id="a_Node000001"><a xlink:title=" ">
<polygon fill="#999999" stroke="#666666" points="119.5,-114 0,-114 0,-94 119.5,-94 119.5,-114"/>
<text text-anchor="middle" x="59.75" y="-100.5" font-family="Helvetica,sans-Serif" font-size="10.00">CBiteOpt::generateSol6</text>
</a>
</g>
</g>
<!-- Node2 -->
<g id="Node000002" class="node">
<title>Node2</title>
<g id="a_Node000002"><a xlink:href="$class_c_bite_rnd.html#a6ccc0608cbc9080d9509a0e4c483adfe" xlink:title=" ">
<polygon fill="white" stroke="#666666" points="394.5,-196 304.25,-196 304.25,-176 394.5,-176 394.5,-196"/>
<text text-anchor="middle" x="349.38" y="-182.5" font-family="Helvetica,sans-Serif" font-size="10.00">CBiteRnd::getBit</text>
</a>
</g>
</g>
<!-- Node1&#45;&gt;Node2 -->
<g id="edge10_Node000001_Node000002" class="edge">
<title>Node1&#45;&gt;Node2</title>
<g id="a_edge10_Node000001_Node000002"><a xlink:title=" ">
<path fill="none" stroke="#63b8ff" d="M72.27,-114.45C89.14,-129.06 122.19,-155.13 155.5,-167 199.68,-182.75 252.94,-186.98 292.29,-187.57"/>
<polygon fill="#63b8ff" stroke="#63b8ff" points="292.24,-191.07 302.26,-187.63 292.28,-184.07 292.24,-191.07"/>
</a>
</g>
</g>
<!-- Node4 -->
<g id="Node000004" class="node">
<title>Node4</title>
<g id="a_Node000004"><a xlink:href="$class_c_bite_rnd.html#a4e9ad0a5c5e09149a60f849736d8d7ce" xlink:title=" ">
<polygon fill="white" stroke="#666666" points="254.75,-158 165.25,-158 165.25,-138 254.75,-138 254.75,-158"/>
<text text-anchor="middle" x="210" y="-144.5" font-family="Helvetica,sans-Serif" font-size="10.00">CBiteRnd::getInt</text>
</a>
</g>
</g>
<!-- Node1&#45;&gt;Node4 -->
<g id="edge12_Node000001_Node000004" class="edge">
<title>Node1&#45;&gt;Node4</title>
<g id="a_edge12_Node000001_Node000004"><a xlink:title=" ">
<path fill="none" stroke="#63b8ff" d="M95.88,-114.43C115.93,-120.38 141.31,-127.91 162.94,-134.33"/>
<polygon fill="#63b8ff" stroke="#63b8ff" points="161.83,-137.65 172.41,-137.14 163.82,-130.94 161.83,-137.65"/>
</a>
</g>
</g>
<!-- Node6 -->
<g id="Node000006" class="node">
<title>Node6</title>
<g id="a_Node000006"><a xlink:href="$class_c_bite_pop.html#aaa8e3f180accfedf21218cbed8ffbb79" xlink:title=" ">
<polygon fill="white" stroke="#666666" points="262.62,-120 157.38,-120 157.38,-88 262.62,-88 262.62,-120"/>
<text text-anchor="start" x="165.38" y="-106.5" font-family="Helvetica,sans-Serif" font-size="10.00">CBitePop&lt; int64_t &gt;</text>
<text text-anchor="middle" x="210" y="-94.5" font-family="Helvetica,sans-Serif" font-size="10.00">::getParamsOrdered</text>
</a>
</g>
</g>
<!-- Node1&#45;&gt;Node6 -->
<g id="edge15_Node000001_Node000006" class="edge">
<title>Node1&#45;&gt;Node6</title>
<g id="a_edge15_Node000001_Node000006"><a xlink:title=" ">
<path fill="none" stroke="#63b8ff" d="M119.77,-104C128.21,-104 136.92,-104 145.44,-104"/>
<polygon fill="#63b8ff" stroke="#63b8ff" points="145.38,-107.5 155.38,-104 145.38,-100.5 145.38,-107.5"/>
</a>
</g>
</g>
<!-- Node7 -->
<g id="Node000007" class="node">
<title>Node7</title>
<g id="a_Node000007"><a xlink:href="$class_c_bite_rnd.html#aa4c960b792982f495cc19c04ad9c2705" xlink:title=" ">
<polygon fill="white" stroke="#666666" points="398.25,-95 300.5,-95 300.5,-75 398.25,-75 398.25,-95"/>
<text text-anchor="middle" x="349.38" y="-81.5" font-family="Helvetica,sans-Serif" font-size="10.00">CBiteRnd::getPow</text>
</a>
</g>
</g>
<!-- Node1&#45;&gt;Node7 -->
<g id="edge16_Node000001_Node000007" class="edge">
<title>Node1&#45;&gt;Node7</title>
<g id="a_edge16_Node000001_Node000007"><a xlink:title=" ">
<path fill="none" stroke="#63b8ff" d="M91.93,-93.6C110.22,-88.05 133.9,-81.8 155.5,-79 203.54,-72.77 216.09,-77.27 264.5,-79 272.33,-79.28 280.57,-79.71 288.7,-80.21"/>
<polygon fill="#63b8ff" stroke="#63b8ff" points="288.34,-83.69 298.55,-80.85 288.8,-76.7 288.34,-83.69"/>
</a>
</g>
</g>
<!-- Node8 -->
<g id="Node000008" class="node">
<title>Node8</title>
<g id="a_Node000008"><a xlink:href="$class_c_bite_opt_base.html#a7b849dbede3dc6be555a4197541fad51" xlink:title=" ">
<polygon fill="white" stroke="#666666" points="264.5,-32 155.5,-32 155.5,0 264.5,0 264.5,-32"/>
<text text-anchor="start" x="163.5" y="-18.5" font-family="Helvetica,sans-Serif" font-size="10.00">CBiteOptBase&lt; int64</text>
<text text-anchor="middle" x="210" y="-6.5" font-family="Helvetica,sans-Serif" font-size="10.00">_t &gt;::getRealValue</text>
</a>
</g>
</g>
<!-- Node1&#45;&gt;Node8 -->
<g id="edge18_Node000001_Node000008" class="edge">
<title>Node1&#45;&gt;Node8</title>
<g id="a_edge18_Node000001_Node000008"><a xlink:title=" ">
<path fill="none" stroke="#63b8ff" d="M77.41,-93.54C96.24,-81.77 127.88,-62.19 155.5,-46 159.91,-43.42 164.54,-40.75 169.17,-38.11"/>
<polygon fill="#63b8ff" stroke="#63b8ff" points="170.87,-41.17 177.85,-33.21 167.43,-35.08 170.87,-41.17"/>
</a>
</g>
</g>
<!-- Node3 -->
<g id="Node000003" class="node">
<title>Node3</title>
<g id="a_Node000003"><a xlink:href="$class_c_bite_rnd.html#ae1167f8ecac85f268ced4bc1d2fa953b" xlink:title=" ">
<polygon fill="white" stroke="#666666" points="535.75,-158 434.25,-158 434.25,-138 535.75,-138 535.75,-158"/>
<text text-anchor="middle" x="485" y="-144.5" font-family="Helvetica,sans-Serif" font-size="10.00">CBiteRnd::advance</text>
</a>
</g>
</g>
<!-- Node2&#45;&gt;Node3 -->
<g id="edge11_Node000002_Node000003" class="edge">
<title>Node2&#45;&gt;Node3</title>
<g id="a_edge11_Node000002_Node000003"><a xlink:title=" ">
<path fill="none" stroke="#63b8ff" d="M387.24,-175.52C402.43,-171.2 420.22,-166.14 436.38,-161.54"/>
<polygon fill="#63b8ff" stroke="#63b8ff" points="437.14,-164.97 445.8,-158.86 435.22,-158.23 437.14,-164.97"/>
</a>
</g>
</g>
<!-- Node5 -->
<g id="Node000005" class="node">
<title>Node5</title>
<g id="a_Node000005"><a xlink:href="$class_c_bite_rnd.html#afdb77334884f1a612780def0dec0a326" xlink:title=" ">
<polygon fill="white" stroke="#666666" points="388.5,-158 310.25,-158 310.25,-138 388.5,-138 388.5,-158"/>
<text text-anchor="middle" x="349.38" y="-144.5" font-family="Helvetica,sans-Serif" font-size="10.00">CBiteRnd::get</text>
</a>
</g>
</g>
<!-- Node4&#45;&gt;Node5 -->
<g id="edge13_Node000004_Node000005" class="edge">
<title>Node4&#45;&gt;Node5</title>
<g id="a_edge13_Node000004_Node000005"><a xlink:title=" ">
<path fill="none" stroke="#63b8ff" d="M255.22,-148C269.09,-148 284.48,-148 298.69,-148"/>
<polygon fill="#63b8ff" stroke="#63b8ff" points="298.28,-151.5 308.28,-148 298.27,-144.5 298.28,-151.5"/>
</a>
</g>
</g>
<!-- Node5&#45;&gt;Node3 -->
<g id="edge14_Node000005_Node000003" class="edge">
<title>Node5&#45;&gt;Node3</title>
<g id="a_edge14_Node000005_Node000003"><a xlink:title=" ">
<path fill="none" stroke="#63b8ff" d="M388.67,-148C399.31,-148 411.14,-148 422.75,-148"/>
<polygon fill="#63b8ff" stroke="#63b8ff" points="422.71,-151.5 432.71,-148 422.71,-144.5 422.71,-151.5"/>
</a>
</g>
</g>
<!-- Node7&#45;&gt;Node3 -->
<g id="edge17_Node000007_Node000003" class="edge">
<title>Node7&#45;&gt;Node3</title>
<g id="a_edge17_Node000007_Node000003"><a xlink:title=" ">
<path fill="none" stroke="#63b8ff" d="M372.44,-95.4C394.01,-105.57 427.09,-121.17 451.63,-132.74"/>
<polygon fill="#63b8ff" stroke="#63b8ff" points="450,-135.84 460.53,-136.94 452.98,-129.51 450,-135.84"/>
</a>
</g>
</g>
</g>
</svg>
