<?xml version="1.0" encoding="UTF-8" standalone="no"?>
<!DOCTYPE svg PUBLIC "-//W3C//DTD SVG 1.1//EN"
 "http://www.w3.org/Graphics/SVG/1.1/DTD/svg11.dtd">
<!-- Generated by graphviz version 12.2.1 (20241206.2353)
 -->
<!-- Title: normal Pages: 1 -->
<svg width="436pt" height="422pt"
 viewBox="0.00 0.00 436.25 422.00" xmlns="http://www.w3.org/2000/svg" xmlns:xlink="http://www.w3.org/1999/xlink">
<g id="graph0" class="graph" transform="scale(1 1) rotate(0) translate(4 418)">
<title>normal</title>
<!-- Node1 -->
<g id="Node000001" class="node">
<title>Node1</title>
<g id="a_Node000001"><a xlink:title=" ">
<polygon fill="#999999" stroke="#666666" points="428.25,-300 383,-300 383,-280 428.25,-280 428.25,-300"/>
<text text-anchor="middle" x="405.62" y="-286.5" font-family="Helvetica,sans-Serif" font-size="10.00">normal</text>
</a>
</g>
</g>
<!-- Node2 -->
<g id="Node000002" class="node">
<title>Node2</title>
<g id="a_Node000002"><a xlink:href="$classfcmaes_1_1de_1_1_d_e.html#adf6645de9d62c0900bad93d5a6934a4b" xlink:title="Generates a sample from the specified distribution.">
<polygon fill="white" stroke="#666666" points="325.25,-414 206.5,-414 206.5,-394 325.25,-394 325.25,-414"/>
<text text-anchor="middle" x="265.88" y="-400.5" font-family="Helvetica,sans-Serif" font-size="10.00">fcmaes.de.DE._sample</text>
</a>
</g>
</g>
<!-- Node1&#45;&gt;Node2 -->
<g id="edge16_Node000001_Node000002" class="edge">
<title>Node1&#45;&gt;Node2</title>
<g id="a_edge16_Node000001_Node000002"><a xlink:title=" ">
<path fill="none" stroke="#63b8ff" d="M397.38,-311.24C388.8,-333.11 372.4,-366.51 347,-385 340.64,-389.63 333.32,-393.14 325.74,-395.81"/>
<polygon fill="#63b8ff" stroke="#63b8ff" points="400.66,-312.46 400.82,-301.87 394.09,-310.05 400.66,-312.46"/>
</a>
</g>
</g>
<!-- Node3 -->
<g id="Node000003" class="node">
<title>Node3</title>
<g id="a_Node000003"><a xlink:href="$classfcmaes_1_1mode_1_1_m_o_d_e.html#a8eb775858ef6da65ce5d71629503e622" xlink:title="Generates a sampled value based on specific distribution boundaries.">
<polygon fill="white" stroke="#666666" points="339.88,-376 191.88,-376 191.88,-356 339.88,-356 339.88,-376"/>
<text text-anchor="middle" x="265.88" y="-362.5" font-family="Helvetica,sans-Serif" font-size="10.00">fcmaes.mode.MODE._sample</text>
</a>
</g>
</g>
<!-- Node1&#45;&gt;Node3 -->
<g id="edge17_Node000001_Node000003" class="edge">
<title>Node1&#45;&gt;Node3</title>
<g id="a_edge17_Node000001_Node000003"><a xlink:title=" ">
<path fill="none" stroke="#63b8ff" d="M390.16,-308.98C379.55,-321.6 364.06,-337.54 347,-347 340.75,-350.47 333.88,-353.3 326.88,-355.63"/>
<polygon fill="#63b8ff" stroke="#63b8ff" points="392.78,-311.31 396.32,-301.32 387.32,-306.92 392.78,-311.31"/>
</a>
</g>
</g>
<!-- Node4 -->
<g id="Node000004" class="node">
<title>Node4</title>
<g id="a_Node000004"><a xlink:href="$classcrmfnes_1_1_crfmnes_optimizer.html#ac3695788414c855140e6615040309e42" xlink:title=" ">
<polygon fill="white" stroke="#666666" points="345.12,-338 186.62,-338 186.62,-318 345.12,-318 345.12,-338"/>
<text text-anchor="middle" x="265.88" y="-324.5" font-family="Helvetica,sans-Serif" font-size="10.00">crmfnes::CrfmnesOptimizer::ask</text>
</a>
</g>
</g>
<!-- Node1&#45;&gt;Node4 -->
<g id="edge18_Node000001_Node000004" class="edge">
<title>Node1&#45;&gt;Node4</title>
<g id="a_edge18_Node000001_Node000004"><a xlink:title=" ">
<path fill="none" stroke="#63b8ff" d="M371.72,-301.39C363.67,-304.02 355.06,-306.72 347,-309 336.41,-312 324.94,-314.91 314.08,-317.52"/>
<polygon fill="#63b8ff" stroke="#63b8ff" points="372.79,-304.72 381.16,-298.23 370.57,-298.08 372.79,-304.72"/>
</a>
</g>
</g>
<!-- Node6 -->
<g id="Node000006" class="node">
<title>Node6</title>
<g id="a_Node000006"><a xlink:href="$classpgpe_1_1_p_g_p_e_optimizer.html#a431dca3f8ed9c12e85c449474001930c" xlink:title=" ">
<polygon fill="white" stroke="#666666" points="333.12,-300 198.62,-300 198.62,-280 333.12,-280 333.12,-300"/>
<text text-anchor="middle" x="265.88" y="-286.5" font-family="Helvetica,sans-Serif" font-size="10.00">pgpe::PGPEOptimizer::ask</text>
</a>
</g>
</g>
<!-- Node1&#45;&gt;Node6 -->
<g id="edge20_Node000001_Node000006" class="edge">
<title>Node1&#45;&gt;Node6</title>
<g id="a_edge20_Node000001_Node000006"><a xlink:title=" ">
<path fill="none" stroke="#63b8ff" d="M371.58,-290C360.1,-290 346.78,-290 333.57,-290"/>
<polygon fill="#63b8ff" stroke="#63b8ff" points="371.28,-293.5 381.28,-290 371.28,-286.5 371.28,-293.5"/>
</a>
</g>
</g>
<!-- Node7 -->
<g id="Node000007" class="node">
<title>Node7</title>
<g id="a_Node000007"><a xlink:href="$classacmaes_1_1_acmaes_optimizer.html#ae6ef63f98f9b5b9034438301df2ca323" xlink:title=" ">
<polygon fill="white" stroke="#666666" points="333.12,-194 198.62,-194 198.62,-162 333.12,-162 333.12,-194"/>
<text text-anchor="start" x="206.62" y="-180.5" font-family="Helvetica,sans-Serif" font-size="10.00">acmaes::AcmaesOptimizer</text>
<text text-anchor="middle" x="265.88" y="-168.5" font-family="Helvetica,sans-Serif" font-size="10.00">::ask_all</text>
</a>
</g>
</g>
<!-- Node1&#45;&gt;Node7 -->
<g id="edge21_Node000001_Node000007" class="edge">
<title>Node1&#45;&gt;Node7</title>
<g id="a_edge21_Node000001_Node000007"><a xlink:title=" ">
<path fill="none" stroke="#63b8ff" d="M395.97,-269.38C386.65,-249.61 370.01,-220.28 347,-203 342.69,-199.76 337.95,-196.94 333,-194.48"/>
<polygon fill="#63b8ff" stroke="#63b8ff" points="392.71,-270.67 399.98,-278.37 399.1,-267.82 392.71,-270.67"/>
</a>
</g>
</g>
<!-- Node9 -->
<g id="Node000009" class="node">
<title>Node9</title>
<g id="a_Node000009"><a xlink:href="$classexamples_1_1rover_1_1_rover_domain.html#a5fc4dbfdeeeb45e828c2db21fe2eb908" xlink:title=" ">
<polygon fill="white" stroke="#666666" points="347,-244 184.75,-244 184.75,-212 347,-212 347,-244"/>
<text text-anchor="start" x="192.75" y="-230.5" font-family="Helvetica,sans-Serif" font-size="10.00">examples.rover.RoverDomain.set</text>
<text text-anchor="middle" x="265.88" y="-218.5" font-family="Helvetica,sans-Serif" font-size="10.00">_params</text>
</a>
</g>
</g>
<!-- Node1&#45;&gt;Node9 -->
<g id="edge23_Node000001_Node000009" class="edge">
<title>Node1&#45;&gt;Node9</title>
<g id="a_edge23_Node000001_Node000009"><a xlink:title=" ">
<path fill="none" stroke="#63b8ff" d="M372.32,-275.46C351.65,-266.16 324.79,-254.07 303.36,-244.42"/>
<polygon fill="#63b8ff" stroke="#63b8ff" points="370.86,-278.64 381.42,-279.55 373.74,-272.26 370.86,-278.64"/>
</a>
</g>
</g>
<!-- Node11 -->
<g id="Node000011" class="node">
<title>Node11</title>
<g id="a_Node000011"><a xlink:href="$classacmaes_1_1_acmaes_optimizer.html#ac1703b5f2c650cf8da235ea475e17d6f" xlink:title=" ">
<polygon fill="white" stroke="#666666" points="333.12,-138 198.62,-138 198.62,-106 333.12,-106 333.12,-138"/>
<text text-anchor="start" x="206.62" y="-124.5" font-family="Helvetica,sans-Serif" font-size="10.00">acmaes::AcmaesOptimizer</text>
<text text-anchor="middle" x="265.88" y="-112.5" font-family="Helvetica,sans-Serif" font-size="10.00">::tell</text>
</a>
</g>
</g>
<!-- Node1&#45;&gt;Node11 -->
<g id="edge26_Node000001_Node000011" class="edge">
<title>Node1&#45;&gt;Node11</title>
<g id="a_edge26_Node000001_Node000011"><a xlink:title=" ">
<path fill="none" stroke="#63b8ff" d="M400.97,-268.32C394.87,-238.51 379.88,-184.94 347,-153 340.9,-147.08 333.55,-142.25 325.8,-138.34"/>
<polygon fill="#63b8ff" stroke="#63b8ff" points="397.51,-268.84 402.79,-278.02 404.39,-267.55 397.51,-268.84"/>
</a>
</g>
</g>
<!-- Node5 -->
<g id="Node000005" class="node">
<title>Node5</title>
<g id="a_Node000005"><a xlink:href="$classcrmfnes_1_1_crfmnes_optimizer.html#aa451fe19e5c4b4617099daf96ed4d171" xlink:title=" ">
<polygon fill="white" stroke="#666666" points="142.75,-344 6,-344 6,-312 142.75,-312 142.75,-344"/>
<text text-anchor="start" x="14" y="-330.5" font-family="Helvetica,sans-Serif" font-size="10.00">crmfnes::CrfmnesOptimizer</text>
<text text-anchor="middle" x="74.38" y="-318.5" font-family="Helvetica,sans-Serif" font-size="10.00">::doOptimize</text>
</a>
</g>
</g>
<!-- Node4&#45;&gt;Node5 -->
<g id="edge19_Node000004_Node000005" class="edge">
<title>Node4&#45;&gt;Node5</title>
<g id="a_edge19_Node000004_Node000005"><a xlink:title=" ">
<path fill="none" stroke="#63b8ff" d="M174.65,-328C163.99,-328 153.26,-328 142.99,-328"/>
<polygon fill="#63b8ff" stroke="#63b8ff" points="174.64,-331.5 184.64,-328 174.64,-324.5 174.64,-331.5"/>
</a>
</g>
</g>
<!-- Node8 -->
<g id="Node000008" class="node">
<title>Node8</title>
<g id="a_Node000008"><a xlink:href="$classacmaes_1_1_acmaes_optimizer.html#a6ffd7f760692210629187fea1b98007c" xlink:title=" ">
<polygon fill="white" stroke="#666666" points="141.62,-194 7.12,-194 7.12,-162 141.62,-162 141.62,-194"/>
<text text-anchor="start" x="15.12" y="-180.5" font-family="Helvetica,sans-Serif" font-size="10.00">acmaes::AcmaesOptimizer</text>
<text text-anchor="middle" x="74.38" y="-168.5" font-family="Helvetica,sans-Serif" font-size="10.00">::doOptimize</text>
</a>
</g>
</g>
<!-- Node7&#45;&gt;Node8 -->
<g id="edge22_Node000007_Node000008" class="edge">
<title>Node7&#45;&gt;Node8</title>
<g id="a_edge22_Node000007_Node000008"><a xlink:title=" ">
<path fill="none" stroke="#63b8ff" d="M187.05,-178C172.13,-178 156.62,-178 142.08,-178"/>
<polygon fill="#63b8ff" stroke="#63b8ff" points="186.82,-181.5 196.82,-178 186.82,-174.5 186.82,-181.5"/>
</a>
</g>
</g>
<!-- Node9&#45;&gt;Node9 -->
<g id="edge25_Node000009_Node000009" class="edge">
<title>Node9&#45;&gt;Node9</title>
<g id="a_edge25_Node000009_Node000009"><a xlink:title=" ">
<path fill="none" stroke="#63b8ff" d="M289.16,-255.71C285.28,-259.48 277.52,-262 265.88,-262 244.58,-262 236.27,-253.58 240.93,-244.44"/>
<polygon fill="#63b8ff" stroke="#63b8ff" points="292.61,-256.34 290.6,-245.94 285.68,-255.32 292.61,-256.34"/>
</a>
</g>
</g>
<!-- Node10 -->
<g id="Node000010" class="node">
<title>Node10</title>
<g id="a_Node000010"><a xlink:href="$classexamples_1_1rover_1_1_rover_domain.html#a4ba9fa810af2a6417e90599214aae3df" xlink:title=" ">
<polygon fill="white" stroke="#666666" points="148.75,-244 0,-244 0,-212 148.75,-212 148.75,-244"/>
<text text-anchor="start" x="8" y="-230.5" font-family="Helvetica,sans-Serif" font-size="10.00">examples.rover.RoverDomain.</text>
<text text-anchor="middle" x="74.38" y="-218.5" font-family="Helvetica,sans-Serif" font-size="10.00">__call__</text>
</a>
</g>
</g>
<!-- Node9&#45;&gt;Node10 -->
<g id="edge24_Node000009_Node000010" class="edge">
<title>Node9&#45;&gt;Node10</title>
<g id="a_edge24_Node000009_Node000010"><a xlink:title=" ">
<path fill="none" stroke="#63b8ff" d="M173.2,-228C165.16,-228 157.1,-228 149.24,-228"/>
<polygon fill="#63b8ff" stroke="#63b8ff" points="173,-231.5 183,-228 173,-224.5 173,-231.5"/>
</a>
</g>
</g>
<!-- Node11&#45;&gt;Node8 -->
<g id="edge28_Node000011_Node000008" class="edge">
<title>Node11&#45;&gt;Node8</title>
<g id="a_edge28_Node000011_Node000008"><a xlink:title=" ">
<path fill="none" stroke="#63b8ff" d="M198.15,-141.72C176.25,-148.19 152.14,-155.31 131.13,-161.52"/>
<polygon fill="#63b8ff" stroke="#63b8ff" points="198.99,-145.12 207.59,-138.93 197.01,-138.41 198.99,-145.12"/>
</a>
</g>
</g>
<!-- Node12 -->
<g id="Node000012" class="node">
<title>Node12</title>
<g id="a_Node000012"><a xlink:href="$classacmaes_1_1_acmaes_optimizer.html#ab3af1e3acb2561d4b0be23b402b232a9" xlink:title=" ">
<polygon fill="white" stroke="#666666" points="141.62,-144 7.12,-144 7.12,-100 141.62,-100 141.62,-144"/>
<text text-anchor="start" x="15.12" y="-130.5" font-family="Helvetica,sans-Serif" font-size="10.00">acmaes::AcmaesOptimizer</text>
<text text-anchor="start" x="15.12" y="-118.5" font-family="Helvetica,sans-Serif" font-size="10.00">::do_optimize_delayed</text>
<text text-anchor="middle" x="74.38" y="-106.5" font-family="Helvetica,sans-Serif" font-size="10.00">_update</text>
</a>
</g>
</g>
<!-- Node11&#45;&gt;Node12 -->
<g id="edge27_Node000011_Node000012" class="edge">
<title>Node11&#45;&gt;Node12</title>
<g id="a_edge27_Node000011_Node000012"><a xlink:title=" ">
<path fill="none" stroke="#63b8ff" d="M187.05,-122C172.13,-122 156.62,-122 142.08,-122"/>
<polygon fill="#63b8ff" stroke="#63b8ff" points="186.82,-125.5 196.82,-122 186.82,-118.5 186.82,-125.5"/>
</a>
</g>
</g>
<!-- Node13 -->
<g id="Node000013" class="node">
<title>Node13</title>
<g id="a_Node000013"><a xlink:href="$classacmaes_1_1_acmaes_optimizer.html#ad73e4ffab0c5d511107d58491540de24" xlink:title=" ">
<polygon fill="white" stroke="#666666" points="141.62,-82 7.12,-82 7.12,-50 141.62,-50 141.62,-82"/>
<text text-anchor="start" x="15.12" y="-68.5" font-family="Helvetica,sans-Serif" font-size="10.00">acmaes::AcmaesOptimizer</text>
<text text-anchor="middle" x="74.38" y="-56.5" font-family="Helvetica,sans-Serif" font-size="10.00">::tell_all</text>
</a>
</g>
</g>
<!-- Node11&#45;&gt;Node13 -->
<g id="edge29_Node000011_Node000013" class="edge">
<title>Node11&#45;&gt;Node13</title>
<g id="a_edge29_Node000011_Node000013"><a xlink:title=" ">
<path fill="none" stroke="#63b8ff" d="M198.15,-102.28C176.25,-95.81 152.14,-88.69 131.13,-82.48"/>
<polygon fill="#63b8ff" stroke="#63b8ff" points="197.01,-105.59 207.59,-105.07 198.99,-98.88 197.01,-105.59"/>
</a>
</g>
</g>
<!-- Node14 -->
<g id="Node000014" class="node">
<title>Node14</title>
<g id="a_Node000014"><a xlink:href="$classacmaes_1_1_acmaes_optimizer.html#aaabb9e299b54d36fc3244bfc05184e27" xlink:title=" ">
<polygon fill="white" stroke="#666666" points="141.62,-32 7.12,-32 7.12,0 141.62,0 141.62,-32"/>
<text text-anchor="start" x="15.12" y="-18.5" font-family="Helvetica,sans-Serif" font-size="10.00">acmaes::AcmaesOptimizer</text>
<text text-anchor="middle" x="74.38" y="-6.5" font-family="Helvetica,sans-Serif" font-size="10.00">::tell_all_asked</text>
</a>
</g>
</g>
<!-- Node11&#45;&gt;Node14 -->
<g id="edge30_Node000011_Node000014" class="edge">
<title>Node11&#45;&gt;Node14</title>
<g id="a_edge30_Node000011_Node000014"><a xlink:title=" ">
<path fill="none" stroke="#63b8ff" d="M236.26,-98.61C213.59,-80.96 180.55,-57.1 148.75,-41 142.63,-37.9 136.03,-35.04 129.39,-32.45"/>
<polygon fill="#63b8ff" stroke="#63b8ff" points="233.8,-101.13 243.82,-104.58 238.14,-95.63 233.8,-101.13"/>
</a>
</g>
</g>
</g>
</svg>
