<?xml version="1.0" encoding="UTF-8" standalone="no"?>
<!DOCTYPE svg PUBLIC "-//W3C//DTD SVG 1.1//EN"
 "http://www.w3.org/Graphics/SVG/1.1/DTD/svg11.dtd">
<!-- Generated by graphviz version 12.2.1 (20241206.2353)
 -->
<!-- Title: _fcmaescpp/include/evaluator.h Pages: 1 -->
<svg width="944pt" height="96pt"
 viewBox="0.00 0.00 943.62 96.00" xmlns="http://www.w3.org/2000/svg" xmlns:xlink="http://www.w3.org/1999/xlink">
<g id="graph0" class="graph" transform="scale(1 1) rotate(0) translate(4 92)">
<title>_fcmaescpp/include/evaluator.h</title>
<!-- Node1 -->
<g id="Node000001" class="node">
<title>Node1</title>
<g id="a_Node000001"><a xlink:title=" ">
<polygon fill="#999999" stroke="#666666" points="538.12,-88 435.12,-88 435.12,-56 538.12,-56 538.12,-88"/>
<text text-anchor="start" x="443.12" y="-74.5" font-family="Helvetica,sans-Serif" font-size="10.00">_fcmaescpp/include</text>
<text text-anchor="middle" x="486.62" y="-62.5" font-family="Helvetica,sans-Serif" font-size="10.00">/evaluator.h</text>
</a>
</g>
</g>
<!-- Node2 -->
<g id="Node000002" class="node">
<title>Node2</title>
<g id="a_Node000002"><a xlink:href="$acmaesoptimizer_8cpp.html" xlink:title=" ">
<polygon fill="white" stroke="#666666" points="165.25,-20 0,-20 0,0 165.25,0 165.25,-20"/>
<text text-anchor="middle" x="82.62" y="-6.5" font-family="Helvetica,sans-Serif" font-size="10.00">_fcmaescpp/acmaesoptimizer.cpp</text>
</a>
</g>
</g>
<!-- Node1&#45;&gt;Node2 -->
<g id="edge7_Node000001_Node000002" class="edge">
<title>Node1&#45;&gt;Node2</title>
<g id="a_edge7_Node000001_Node000002"><a xlink:title=" ">
<path fill="none" stroke="#63b8ff" d="M423.41,-61.61C347.86,-50.39 222.18,-31.73 146.39,-20.47"/>
<polygon fill="#63b8ff" stroke="#63b8ff" points="422.73,-65.05 433.14,-63.06 423.76,-58.13 422.73,-65.05"/>
</a>
</g>
</g>
<!-- Node3 -->
<g id="Node000003" class="node">
<title>Node3</title>
<g id="a_Node000003"><a xlink:href="$biteoptimizer_8cpp.html" xlink:title=" ">
<polygon fill="white" stroke="#666666" points="329.88,-20 183.38,-20 183.38,0 329.88,0 329.88,-20"/>
<text text-anchor="middle" x="256.62" y="-6.5" font-family="Helvetica,sans-Serif" font-size="10.00">_fcmaescpp/biteoptimizer.cpp</text>
</a>
</g>
</g>
<!-- Node1&#45;&gt;Node3 -->
<g id="edge8_Node000001_Node000003" class="edge">
<title>Node1&#45;&gt;Node3</title>
<g id="a_edge8_Node000001_Node000003"><a xlink:title=" ">
<path fill="none" stroke="#63b8ff" d="M423.77,-54.6C381.77,-43.65 328.01,-29.62 292.96,-20.48"/>
<polygon fill="#63b8ff" stroke="#63b8ff" points="422.7,-57.94 433.26,-57.08 424.46,-51.17 422.7,-57.94"/>
</a>
</g>
</g>
<!-- Node4 -->
<g id="Node000004" class="node">
<title>Node4</title>
<g id="a_Node000004"><a xlink:href="$crfmnes_8cpp.html" xlink:title=" ">
<polygon fill="white" stroke="#666666" points="473.75,-20 347.5,-20 347.5,0 473.75,0 473.75,-20"/>
<text text-anchor="middle" x="410.62" y="-6.5" font-family="Helvetica,sans-Serif" font-size="10.00">_fcmaescpp/crfmnes.cpp</text>
</a>
</g>
</g>
<!-- Node1&#45;&gt;Node4 -->
<g id="edge9_Node000001_Node000004" class="edge">
<title>Node1&#45;&gt;Node4</title>
<g id="a_edge9_Node000001_Node000004"><a xlink:title=" ">
<path fill="none" stroke="#63b8ff" d="M458.02,-48.42C445.73,-38.71 432.04,-27.9 422.54,-20.41"/>
<polygon fill="#63b8ff" stroke="#63b8ff" points="455.85,-51.16 465.87,-54.61 460.19,-45.67 455.85,-51.16"/>
</a>
</g>
</g>
<!-- Node5 -->
<g id="Node000005" class="node">
<title>Node5</title>
<g id="a_Node000005"><a xlink:href="$deoptimizer_8cpp.html" xlink:title=" ">
<polygon fill="white" stroke="#666666" points="633.25,-20 492,-20 492,0 633.25,0 633.25,-20"/>
<text text-anchor="middle" x="562.62" y="-6.5" font-family="Helvetica,sans-Serif" font-size="10.00">_fcmaescpp/deoptimizer.cpp</text>
</a>
</g>
</g>
<!-- Node1&#45;&gt;Node5 -->
<g id="edge10_Node000001_Node000005" class="edge">
<title>Node1&#45;&gt;Node5</title>
<g id="a_edge10_Node000001_Node000005"><a xlink:title=" ">
<path fill="none" stroke="#63b8ff" d="M515.23,-48.42C527.52,-38.71 541.21,-27.9 550.71,-20.41"/>
<polygon fill="#63b8ff" stroke="#63b8ff" points="513.06,-45.67 507.38,-54.61 517.4,-51.16 513.06,-45.67"/>
</a>
</g>
</g>
<!-- Node6 -->
<g id="Node000006" class="node">
<title>Node6</title>
<g id="a_Node000006"><a xlink:href="$modeoptimizer_8cpp.html" xlink:title=" ">
<polygon fill="white" stroke="#666666" points="806,-20 651.25,-20 651.25,0 806,0 806,-20"/>
<text text-anchor="middle" x="728.62" y="-6.5" font-family="Helvetica,sans-Serif" font-size="10.00">_fcmaescpp/modeoptimizer.cpp</text>
</a>
</g>
</g>
<!-- Node1&#45;&gt;Node6 -->
<g id="edge11_Node000001_Node000006" class="edge">
<title>Node1&#45;&gt;Node6</title>
<g id="a_edge11_Node000001_Node000006"><a xlink:title=" ">
<path fill="none" stroke="#63b8ff" d="M549.59,-55.39C594.31,-44.3 652.89,-29.78 690.65,-20.42"/>
<polygon fill="#63b8ff" stroke="#63b8ff" points="548.87,-51.96 540.01,-57.76 550.56,-58.75 548.87,-51.96"/>
</a>
</g>
</g>
<!-- Node7 -->
<g id="Node000007" class="node">
<title>Node7</title>
<g id="a_Node000007"><a xlink:href="$pgpe_8cpp.html" xlink:title=" ">
<polygon fill="white" stroke="#666666" points="935.62,-20 823.62,-20 823.62,0 935.62,0 935.62,-20"/>
<text text-anchor="middle" x="879.62" y="-6.5" font-family="Helvetica,sans-Serif" font-size="10.00">_fcmaescpp/pgpe.cpp</text>
</a>
</g>
</g>
<!-- Node1&#45;&gt;Node7 -->
<g id="edge12_Node000001_Node000007" class="edge">
<title>Node1&#45;&gt;Node7</title>
<g id="a_edge12_Node000001_Node000007"><a xlink:title=" ">
<path fill="none" stroke="#63b8ff" d="M549.64,-61.38C625.22,-49.84 750.78,-30.67 823.28,-19.6"/>
<polygon fill="#63b8ff" stroke="#63b8ff" points="549.26,-57.9 539.9,-62.87 550.32,-64.82 549.26,-57.9"/>
</a>
</g>
</g>
</g>
</svg>
