<?xml version="1.0" encoding="UTF-8" standalone="no"?>
<!DOCTYPE svg PUBLIC "-//W3C//DTD SVG 1.1//EN"
 "http://www.w3.org/Graphics/SVG/1.1/DTD/svg11.dtd">
<!-- Generated by graphviz version 12.2.1 (20241206.2353)
 -->
<!-- Title: examples.repython.closest_value Pages: 1 -->
<svg width="457pt" height="40pt"
 viewBox="0.00 0.00 457.25 40.00" xmlns="http://www.w3.org/2000/svg" xmlns:xlink="http://www.w3.org/1999/xlink">
<g id="graph0" class="graph" transform="scale(1 1) rotate(0) translate(4 36)">
<title>examples.repython.closest_value</title>
<!-- Node1 -->
<g id="Node000001" class="node">
<title>Node1</title>
<g id="a_Node000001"><a xlink:title="Get closest value to val in arr.">
<polygon fill="#999999" stroke="#666666" points="449.25,-32 316.25,-32 316.25,0 449.25,0 449.25,-32"/>
<text text-anchor="start" x="324.25" y="-18.5" font-family="Helvetica,sans-Serif" font-size="10.00">examples.repython.closest</text>
<text text-anchor="middle" x="382.75" y="-6.5" font-family="Helvetica,sans-Serif" font-size="10.00">_value</text>
</a>
</g>
</g>
<!-- Node2 -->
<g id="Node000002" class="node">
<title>Node2</title>
<g id="a_Node000002"><a xlink:href="$namespaceexamples_1_1repython.html#aa59bb6e94f8b70a49a0679275692624d" xlink:title=" ">
<polygon fill="white" stroke="#666666" points="280.25,-26 160,-26 160,-6 280.25,-6 280.25,-26"/>
<text text-anchor="middle" x="220.12" y="-12.5" font-family="Helvetica,sans-Serif" font-size="10.00">examples.repython.re_2</text>
</a>
</g>
</g>
<!-- Node1&#45;&gt;Node2 -->
<g id="edge3_Node000001_Node000002" class="edge">
<title>Node1&#45;&gt;Node2</title>
<g id="a_edge3_Node000001_Node000002"><a xlink:title=" ">
<path fill="none" stroke="#63b8ff" d="M304.62,-16C296.56,-16 288.45,-16 280.63,-16"/>
<polygon fill="#63b8ff" stroke="#63b8ff" points="304.44,-19.5 314.44,-16 304.44,-12.5 304.44,-19.5"/>
</a>
</g>
</g>
<!-- Node3 -->
<g id="Node000003" class="node">
<title>Node3</title>
<g id="a_Node000003"><a xlink:href="$classexamples_1_1repython_1_1_r_e2.html#a7b942a0dcfcc17647034a022e4ee8b22" xlink:title=" ">
<polygon fill="white" stroke="#666666" points="124,-32 0,-32 0,0 124,0 124,-32"/>
<text text-anchor="start" x="8" y="-18.5" font-family="Helvetica,sans-Serif" font-size="10.00">examples.repython.RE2.</text>
<text text-anchor="middle" x="62" y="-6.5" font-family="Helvetica,sans-Serif" font-size="10.00">__call__</text>
</a>
</g>
</g>
<!-- Node2&#45;&gt;Node3 -->
<g id="edge4_Node000002_Node000003" class="edge">
<title>Node2&#45;&gt;Node3</title>
<g id="a_edge4_Node000002_Node000003"><a xlink:title=" ">
<path fill="none" stroke="#63b8ff" d="M148.42,-16C140.39,-16 132.27,-16 124.38,-16"/>
<polygon fill="#63b8ff" stroke="#63b8ff" points="148.14,-19.5 158.14,-16 148.14,-12.5 148.14,-19.5"/>
</a>
</g>
</g>
</g>
</svg>
