<?xml version="1.0" encoding="UTF-8" standalone="no"?>
<!DOCTYPE svg PUBLIC "-//W3C//DTD SVG 1.1//EN"
 "http://www.w3.org/Graphics/SVG/1.1/DTD/svg11.dtd">
<!-- Generated by graphviz version 12.2.1 (20241206.2353)
 -->
<!-- Title: edgecover.numba_covered Pages: 1 -->
<svg width="461pt" height="66pt"
 viewBox="0.00 0.00 461.00 66.00" xmlns="http://www.w3.org/2000/svg" xmlns:xlink="http://www.w3.org/1999/xlink">
<g id="graph0" class="graph" transform="scale(1 1) rotate(0) translate(4 62)">
<title>edgecover.numba_covered</title>
<!-- Node1 -->
<g id="Node000001" class="node">
<title>Node1</title>
<g id="a_Node000001"><a xlink:title=" ">
<polygon fill="#999999" stroke="#666666" points="453,-39 320,-39 320,-19 453,-19 453,-39"/>
<text text-anchor="middle" x="386.5" y="-25.5" font-family="Helvetica,sans-Serif" font-size="10.00">edgecover.numba_covered</text>
</a>
</g>
</g>
<!-- Node2 -->
<g id="Node000002" class="node">
<title>Node2</title>
<g id="a_Node000002"><a xlink:href="$namespaceedgecover.html#ad20c66f5851e97419ed4bda2ef1aa333" xlink:title=" ">
<polygon fill="white" stroke="#666666" points="284,-39 166.75,-39 166.75,-19 284,-19 284,-39"/>
<text text-anchor="middle" x="225.38" y="-25.5" font-family="Helvetica,sans-Serif" font-size="10.00">edgecover.not_covered</text>
</a>
</g>
</g>
<!-- Node1&#45;&gt;Node2 -->
<g id="edge4_Node000001_Node000002" class="edge">
<title>Node1&#45;&gt;Node2</title>
<g id="a_edge4_Node000001_Node000002"><a xlink:title=" ">
<path fill="none" stroke="#63b8ff" d="M308.5,-29C300.42,-29 292.3,-29 284.49,-29"/>
<polygon fill="#63b8ff" stroke="#63b8ff" points="308.35,-32.5 318.35,-29 308.35,-25.5 308.35,-32.5"/>
</a>
</g>
</g>
<!-- Node3 -->
<g id="Node000003" class="node">
<title>Node3</title>
<g id="a_Node000003"><a xlink:href="$classedgecover_1_1problem.html#a8ad14faff9c46c2d1da7ddf258b015b2" xlink:title=" ">
<polygon fill="white" stroke="#666666" points="130.75,-58 0,-58 0,-38 130.75,-38 130.75,-58"/>
<text text-anchor="middle" x="65.38" y="-44.5" font-family="Helvetica,sans-Serif" font-size="10.00">edgecover.problem.fitness</text>
</a>
</g>
</g>
<!-- Node2&#45;&gt;Node3 -->
<g id="edge5_Node000002_Node000003" class="edge">
<title>Node2&#45;&gt;Node3</title>
<g id="a_edge5_Node000002_Node000003"><a xlink:title=" ">
<path fill="none" stroke="#63b8ff" d="M155.28,-37.31C147.29,-38.27 139.17,-39.25 131.24,-40.2"/>
<polygon fill="#63b8ff" stroke="#63b8ff" points="155.43,-40.82 164.94,-36.15 154.59,-33.87 155.43,-40.82"/>
</a>
</g>
</g>
<!-- Node4 -->
<g id="Node000004" class="node">
<title>Node4</title>
<g id="a_Node000004"><a xlink:href="$namespaceedgecover.html#a182ff9dbc428e26929d7fa0413315027" xlink:title=" ">
<polygon fill="white" stroke="#666666" points="118.38,-20 12.38,-20 12.38,0 118.38,0 118.38,-20"/>
<text text-anchor="middle" x="65.38" y="-6.5" font-family="Helvetica,sans-Serif" font-size="10.00">edgecover.solve_opt</text>
</a>
</g>
</g>
<!-- Node2&#45;&gt;Node4 -->
<g id="edge6_Node000002_Node000004" class="edge">
<title>Node2&#45;&gt;Node4</title>
<g id="a_edge6_Node000002_Node000004"><a xlink:title=" ">
<path fill="none" stroke="#63b8ff" d="M155.32,-20.7C143.07,-19.22 130.5,-17.71 118.81,-16.31"/>
<polygon fill="#63b8ff" stroke="#63b8ff" points="154.59,-24.13 164.94,-21.85 155.43,-17.18 154.59,-24.13"/>
</a>
</g>
</g>
</g>
</svg>
