<?xml version="1.0" encoding="UTF-8" standalone="no"?>
<!DOCTYPE svg PUBLIC "-//W3C//DTD SVG 1.1//EN"
 "http://www.w3.org/Graphics/SVG/1.1/DTD/svg11.dtd">
<!-- Generated by graphviz version 12.2.1 (20241206.2353)
 -->
<!-- Title: examples.crypto.simulate Pages: 1 -->
<svg width="603pt" height="132pt"
 viewBox="0.00 0.00 603.00 132.00" xmlns="http://www.w3.org/2000/svg" xmlns:xlink="http://www.w3.org/1999/xlink">
<g id="graph0" class="graph" transform="scale(1 1) rotate(0) translate(4 128)">
<title>examples.crypto.simulate</title>
<!-- Node1 -->
<g id="Node000001" class="node">
<title>Node1</title>
<g id="a_Node000001"><a xlink:title=" ">
<polygon fill="#999999" stroke="#666666" points="127.75,-86 0,-86 0,-66 127.75,-66 127.75,-86"/>
<text text-anchor="middle" x="63.88" y="-72.5" font-family="Helvetica,sans-Serif" font-size="10.00">examples.crypto.simulate</text>
</a>
</g>
</g>
<!-- Node2 -->
<g id="Node000002" class="node">
<title>Node2</title>
<g id="a_Node000002"><a xlink:href="$namespaceexamples_1_1crypto.html#a38e3ca807ed30d1fa4d4a5cc478e1525" xlink:title=" ">
<polygon fill="white" stroke="#666666" points="292.25,-124 163.75,-124 163.75,-104 292.25,-104 292.25,-124"/>
<text text-anchor="middle" x="228" y="-110.5" font-family="Helvetica,sans-Serif" font-size="10.00">examples.crypto.get_ema</text>
</a>
</g>
</g>
<!-- Node1&#45;&gt;Node2 -->
<g id="edge9_Node000001_Node000002" class="edge">
<title>Node1&#45;&gt;Node2</title>
<g id="a_edge9_Node000001_Node000002"><a xlink:title=" ">
<path fill="none" stroke="#63b8ff" d="M109.61,-86.48C128.74,-90.97 151.29,-96.25 171.48,-100.99"/>
<polygon fill="#63b8ff" stroke="#63b8ff" points="170.41,-104.33 180.94,-103.2 172,-97.51 170.41,-104.33"/>
</a>
</g>
</g>
<!-- Node3 -->
<g id="Node000003" class="node">
<title>Node3</title>
<g id="a_Node000003"><a xlink:href="$namespaceexamples_1_1crypto.html#a8fe56bb9960bb347eee6e2c39ddbd90f" xlink:title=" ">
<polygon fill="white" stroke="#666666" points="292.25,-86 163.75,-86 163.75,-66 292.25,-66 292.25,-86"/>
<text text-anchor="middle" x="228" y="-72.5" font-family="Helvetica,sans-Serif" font-size="10.00">examples.crypto.get_sma</text>
</a>
</g>
</g>
<!-- Node1&#45;&gt;Node3 -->
<g id="edge10_Node000001_Node000003" class="edge">
<title>Node1&#45;&gt;Node3</title>
<g id="a_edge10_Node000001_Node000003"><a xlink:title=" ">
<path fill="none" stroke="#63b8ff" d="M128.02,-76C135.94,-76 144.09,-76 152.17,-76"/>
<polygon fill="#63b8ff" stroke="#63b8ff" points="151.98,-79.5 161.98,-76 151.98,-72.5 151.98,-79.5"/>
</a>
</g>
</g>
<!-- Node4 -->
<g id="Node000004" class="node">
<title>Node4</title>
<g id="a_Node000004"><a xlink:href="$namespaceexamples_1_1crypto.html#a61f6c93fa62a257ed271a0aa1210f604" xlink:title=" ">
<polygon fill="white" stroke="#666666" points="291.12,-48 164.88,-48 164.88,-28 291.12,-28 291.12,-48"/>
<text text-anchor="middle" x="228" y="-34.5" font-family="Helvetica,sans-Serif" font-size="10.00">examples.crypto.strategy</text>
</a>
</g>
</g>
<!-- Node1&#45;&gt;Node4 -->
<g id="edge11_Node000001_Node000004" class="edge">
<title>Node1&#45;&gt;Node4</title>
<g id="a_edge11_Node000001_Node000004"><a xlink:title=" ">
<path fill="none" stroke="#63b8ff" d="M109.61,-65.52C128.74,-61.03 151.29,-55.75 171.48,-51.01"/>
<polygon fill="#63b8ff" stroke="#63b8ff" points="172,-54.49 180.94,-48.8 170.41,-47.67 172,-54.49"/>
</a>
</g>
</g>
<!-- Node5 -->
<g id="Node000005" class="node">
<title>Node5</title>
<g id="a_Node000005"><a xlink:href="$namespaceexamples_1_1crypto.html#a54eb39bc81fed172b7d1d74dcec022c2" xlink:title=" ">
<polygon fill="white" stroke="#666666" points="595,-67 473.25,-67 473.25,-47 595,-47 595,-67"/>
<text text-anchor="middle" x="534.12" y="-53.5" font-family="Helvetica,sans-Serif" font-size="10.00">examples.crypto.buy_all</text>
</a>
</g>
</g>
<!-- Node4&#45;&gt;Node5 -->
<g id="edge12_Node000004_Node000005" class="edge">
<title>Node4&#45;&gt;Node5</title>
<g id="a_edge12_Node000004_Node000005"><a xlink:title=" ">
<path fill="none" stroke="#63b8ff" d="M273.7,-48.42C290.68,-51.88 310.26,-55.29 328.25,-57 372.4,-61.19 422.15,-61.3 461.57,-60.31"/>
<polygon fill="#63b8ff" stroke="#63b8ff" points="461.51,-63.81 471.41,-60.03 461.31,-56.81 461.51,-63.81"/>
</a>
</g>
</g>
<!-- Node6 -->
<g id="Node000006" class="node">
<title>Node6</title>
<g id="a_Node000006"><a xlink:href="$namespaceexamples_1_1crypto.html#a941dc0c737b40581bde98db6aef23525" xlink:title=" ">
<polygon fill="white" stroke="#666666" points="437.25,-48 328.25,-48 328.25,-28 437.25,-28 437.25,-48"/>
<text text-anchor="middle" x="382.75" y="-34.5" font-family="Helvetica,sans-Serif" font-size="10.00">examples.crypto.hodl</text>
</a>
</g>
</g>
<!-- Node4&#45;&gt;Node6 -->
<g id="edge13_Node000004_Node000006" class="edge">
<title>Node4&#45;&gt;Node6</title>
<g id="a_edge13_Node000004_Node000006"><a xlink:title=" ">
<path fill="none" stroke="#63b8ff" d="M291.57,-38C299.75,-38 308.14,-38 316.36,-38"/>
<polygon fill="#63b8ff" stroke="#63b8ff" points="316.31,-41.5 326.31,-38 316.31,-34.5 316.31,-41.5"/>
</a>
</g>
</g>
<!-- Node7 -->
<g id="Node000007" class="node">
<title>Node7</title>
<g id="a_Node000007"><a xlink:href="$namespaceexamples_1_1crypto.html#a8e16e3bee50df8bd1b44e55fe8950e10" xlink:title=" ">
<polygon fill="white" stroke="#666666" points="594.62,-20 473.62,-20 473.62,0 594.62,0 594.62,-20"/>
<text text-anchor="middle" x="534.12" y="-6.5" font-family="Helvetica,sans-Serif" font-size="10.00">examples.crypto.sell_all</text>
</a>
</g>
</g>
<!-- Node4&#45;&gt;Node7 -->
<g id="edge16_Node000004_Node000007" class="edge">
<title>Node4&#45;&gt;Node7</title>
<g id="a_edge16_Node000004_Node000007"><a xlink:title=" ">
<path fill="none" stroke="#63b8ff" d="M276.24,-27.51C292.63,-24.25 311.17,-21 328.25,-19 372.5,-13.82 422.45,-11.55 461.95,-10.59"/>
<polygon fill="#63b8ff" stroke="#63b8ff" points="461.89,-14.09 471.81,-10.37 461.74,-7.09 461.89,-14.09"/>
</a>
</g>
</g>
<!-- Node6&#45;&gt;Node5 -->
<g id="edge14_Node000006_Node000005" class="edge">
<title>Node6&#45;&gt;Node5</title>
<g id="a_edge14_Node000006_Node000005"><a xlink:title=" ">
<path fill="none" stroke="#63b8ff" d="M437.68,-44.86C445.46,-45.85 453.57,-46.88 461.63,-47.91"/>
<polygon fill="#63b8ff" stroke="#63b8ff" points="461.08,-51.36 471.45,-49.15 461.97,-44.42 461.08,-51.36"/>
</a>
</g>
</g>
<!-- Node6&#45;&gt;Node7 -->
<g id="edge15_Node000006_Node000007" class="edge">
<title>Node6&#45;&gt;Node7</title>
<g id="a_edge15_Node000006_Node000007"><a xlink:title=" ">
<path fill="none" stroke="#63b8ff" d="M437.68,-27.89C446.93,-26.16 456.64,-24.34 466.18,-22.55"/>
<polygon fill="#63b8ff" stroke="#63b8ff" points="466.59,-26.03 475.78,-20.75 465.3,-19.15 466.59,-26.03"/>
</a>
</g>
</g>
</g>
</svg>
