<?xml version="1.0" encoding="UTF-8" standalone="no"?>
<!DOCTYPE svg PUBLIC "-//W3C//DTD SVG 1.1//EN"
 "http://www.w3.org/Graphics/SVG/1.1/DTD/svg11.dtd">
<!-- Generated by graphviz version 12.2.1 (20241206.2353)
 -->
<!-- Title: examples.vessel.print_result Pages: 1 -->
<svg width="831pt" height="144pt"
 viewBox="0.00 0.00 831.25 144.27" xmlns="http://www.w3.org/2000/svg" xmlns:xlink="http://www.w3.org/1999/xlink">
<g id="graph0" class="graph" transform="scale(1 1) rotate(0) translate(4 140.27)">
<title>examples.vessel.print_result</title>
<!-- Node1 -->
<g id="Node000001" class="node">
<title>Node1</title>
<g id="a_Node000001"><a xlink:title=" ">
<polygon fill="#999999" stroke="#666666" points="111.25,-86 0,-86 0,-54 111.25,-54 111.25,-86"/>
<text text-anchor="start" x="8" y="-72.5" font-family="Helvetica,sans-Serif" font-size="10.00">examples.vessel.print</text>
<text text-anchor="middle" x="55.62" y="-60.5" font-family="Helvetica,sans-Serif" font-size="10.00">_result</text>
</a>
</g>
</g>
<!-- Node2 -->
<g id="Node000002" class="node">
<title>Node2</title>
<g id="a_Node000002"><a xlink:href="$namespaceexamples_1_1vessel.html#aa26c59f34fa12f86c197263f10fd1dca" xlink:title=" ">
<polygon fill="white" stroke="#666666" points="646.75,-122 515.25,-122 515.25,-102 646.75,-102 646.75,-122"/>
<text text-anchor="middle" x="581" y="-108.5" font-family="Helvetica,sans-Serif" font-size="10.00">examples.vessel._feasible</text>
</a>
</g>
</g>
<!-- Node1&#45;&gt;Node2 -->
<g id="edge11_Node000001_Node000002" class="edge">
<title>Node1&#45;&gt;Node2</title>
<g id="a_edge11_Node000001_Node000002"><a xlink:title=" ">
<path fill="none" stroke="#63b8ff" d="M80.36,-86.35C97.95,-97.42 122.97,-111.08 147.25,-117 269.68,-146.86 417.44,-135.45 504.78,-124.03"/>
<polygon fill="#63b8ff" stroke="#63b8ff" points="505.23,-127.5 514.68,-122.69 504.3,-120.56 505.23,-127.5"/>
</a>
</g>
</g>
<!-- Node4 -->
<g id="Node000004" class="node">
<title>Node4</title>
<g id="a_Node000004"><a xlink:href="$namespaceexamples_1_1vessel.html#a95a5805807fc62c2224ce037be72bee4" xlink:title=" ">
<polygon fill="white" stroke="#666666" points="276.5,-108 147.25,-108 147.25,-76 276.5,-76 276.5,-108"/>
<text text-anchor="start" x="155.25" y="-94.5" font-family="Helvetica,sans-Serif" font-size="10.00">examples.vessel.feasable</text>
<text text-anchor="middle" x="211.88" y="-82.5" font-family="Helvetica,sans-Serif" font-size="10.00">_cost_penalty</text>
</a>
</g>
</g>
<!-- Node1&#45;&gt;Node4 -->
<g id="edge13_Node000001_Node000004" class="edge">
<title>Node1&#45;&gt;Node4</title>
<g id="a_edge13_Node000001_Node000004"><a xlink:title=" ">
<path fill="none" stroke="#63b8ff" d="M111.44,-77.82C119.21,-78.93 127.31,-80.08 135.39,-81.23"/>
<polygon fill="#63b8ff" stroke="#63b8ff" points="134.86,-84.69 145.25,-82.64 135.85,-77.76 134.86,-84.69"/>
</a>
</g>
</g>
<!-- Node6 -->
<g id="Node000006" class="node">
<title>Node6</title>
<g id="a_Node000006"><a xlink:href="$namespaceexamples_1_1vessel.html#adda1cdd4b5189fb2a4b564572cdf0dcc" xlink:title=" ">
<polygon fill="white" stroke="#666666" points="641.5,-81 520.5,-81 520.5,-61 641.5,-61 641.5,-81"/>
<text text-anchor="middle" x="581" y="-67.5" font-family="Helvetica,sans-Serif" font-size="10.00">examples.vessel.weight</text>
</a>
</g>
</g>
<!-- Node1&#45;&gt;Node6 -->
<g id="edge20_Node000001_Node000006" class="edge">
<title>Node1&#45;&gt;Node6</title>
<g id="a_edge20_Node000001_Node000006"><a xlink:title=" ">
<path fill="none" stroke="#63b8ff" d="M111.73,-67.88C123.45,-67.52 135.76,-67.19 147.25,-67 274.55,-64.89 422.94,-67.33 508.72,-69.22"/>
<polygon fill="#63b8ff" stroke="#63b8ff" points="508.55,-72.71 518.63,-69.44 508.71,-65.71 508.55,-72.71"/>
</a>
</g>
</g>
<!-- Node7 -->
<g id="Node000007" class="node">
<title>Node7</title>
<g id="a_Node000007"><a xlink:href="$namespaceexamples_1_1vessel.html#a8adc06d6d9db18a2bfac93d6483c23af" xlink:title=" ">
<polygon fill="white" stroke="#666666" points="451.12,-20 327.12,-20 327.12,0 451.12,0 451.12,-20"/>
<text text-anchor="middle" x="389.12" y="-6.5" font-family="Helvetica,sans-Serif" font-size="10.00">examples.vessel.penalty</text>
</a>
</g>
</g>
<!-- Node1&#45;&gt;Node7 -->
<g id="edge19_Node000001_Node000007" class="edge">
<title>Node1&#45;&gt;Node7</title>
<g id="a_edge19_Node000001_Node000007"><a xlink:title=" ">
<path fill="none" stroke="#63b8ff" d="M91.17,-53.64C107.77,-46.47 128.17,-38.64 147.25,-34 202.73,-20.5 267.16,-14.57 315.42,-11.98"/>
<polygon fill="#63b8ff" stroke="#63b8ff" points="315.38,-15.48 325.19,-11.49 315.03,-8.49 315.38,-15.48"/>
</a>
</g>
</g>
<!-- Node3 -->
<g id="Node000003" class="node">
<title>Node3</title>
<g id="a_Node000003"><a xlink:href="$namespaceexamples_1_1vessel.html#a9b9b7d9b525b0e32dec4a679dd25fb79" xlink:title=" ">
<polygon fill="white" stroke="#666666" points="823.25,-122 696.25,-122 696.25,-102 823.25,-102 823.25,-122"/>
<text text-anchor="middle" x="759.75" y="-108.5" font-family="Helvetica,sans-Serif" font-size="10.00">examples.vessel.discrete</text>
</a>
</g>
</g>
<!-- Node2&#45;&gt;Node3 -->
<g id="edge12_Node000002_Node000003" class="edge">
<title>Node2&#45;&gt;Node3</title>
<g id="a_edge12_Node000002_Node000003"><a xlink:title=" ">
<path fill="none" stroke="#63b8ff" d="M647.06,-112C659.27,-112 672.12,-112 684.58,-112"/>
<polygon fill="#63b8ff" stroke="#63b8ff" points="684.37,-115.5 694.37,-112 684.37,-108.5 684.37,-115.5"/>
</a>
</g>
</g>
<!-- Node5 -->
<g id="Node000005" class="node">
<title>Node5</title>
<g id="a_Node000005"><a xlink:href="$namespaceexamples_1_1vessel.html#a68aa194637f52a545cb4d8e1f552f3f8" xlink:title=" ">
<polygon fill="white" stroke="#666666" points="465.75,-102 312.5,-102 312.5,-82 465.75,-82 465.75,-102"/>
<text text-anchor="middle" x="389.12" y="-88.5" font-family="Helvetica,sans-Serif" font-size="10.00">examples.vessel.feasable_cost</text>
</a>
</g>
</g>
<!-- Node4&#45;&gt;Node5 -->
<g id="edge14_Node000004_Node000005" class="edge">
<title>Node4&#45;&gt;Node5</title>
<g id="a_edge14_Node000004_Node000005"><a xlink:title=" ">
<path fill="none" stroke="#63b8ff" d="M276.64,-92C284.49,-92 292.62,-92 300.74,-92"/>
<polygon fill="#63b8ff" stroke="#63b8ff" points="300.68,-95.5 310.68,-92 300.68,-88.5 300.68,-95.5"/>
</a>
</g>
</g>
<!-- Node4&#45;&gt;Node7 -->
<g id="edge17_Node000004_Node000007" class="edge">
<title>Node4&#45;&gt;Node7</title>
<g id="a_edge17_Node000004_Node000007"><a xlink:title=" ">
<path fill="none" stroke="#63b8ff" d="M247.92,-75.6C279.37,-60.89 325.16,-39.46 355.77,-25.14"/>
<polygon fill="#63b8ff" stroke="#63b8ff" points="356.96,-28.45 364.54,-21.04 354,-22.11 356.96,-28.45"/>
</a>
</g>
</g>
<!-- Node5&#45;&gt;Node2 -->
<g id="edge15_Node000005_Node000002" class="edge">
<title>Node5&#45;&gt;Node2</title>
<g id="a_edge15_Node000005_Node000002"><a xlink:title=" ">
<path fill="none" stroke="#63b8ff" d="M465.99,-99.99C478.4,-101.3 491.27,-102.65 503.7,-103.96"/>
<polygon fill="#63b8ff" stroke="#63b8ff" points="503.15,-107.42 513.46,-104.99 503.88,-100.46 503.15,-107.42"/>
</a>
</g>
</g>
<!-- Node5&#45;&gt;Node6 -->
<g id="edge16_Node000005_Node000006" class="edge">
<title>Node5&#45;&gt;Node6</title>
<g id="a_edge16_Node000005_Node000006"><a xlink:title=" ">
<path fill="none" stroke="#63b8ff" d="M465.99,-83.61C480.17,-82.04 494.94,-80.41 508.97,-78.86"/>
<polygon fill="#63b8ff" stroke="#63b8ff" points="508.98,-82.38 518.54,-77.8 508.21,-75.42 508.98,-82.38"/>
</a>
</g>
</g>
<!-- Node8 -->
<g id="Node000008" class="node">
<title>Node8</title>
<g id="a_Node000008"><a xlink:href="$namespaceexamples_1_1vessel.html#acf59dad747a84939ba5b8e0da39d030b" xlink:title=" ">
<polygon fill="white" stroke="#666666" points="660.25,-20 501.75,-20 501.75,0 660.25,0 660.25,-20"/>
<text text-anchor="middle" x="581" y="-6.5" font-family="Helvetica,sans-Serif" font-size="10.00">examples.vessel.constraint_ineq</text>
</a>
</g>
</g>
<!-- Node7&#45;&gt;Node8 -->
<g id="edge18_Node000007_Node000008" class="edge">
<title>Node7&#45;&gt;Node8</title>
<g id="a_edge18_Node000007_Node000008"><a xlink:title=" ">
<path fill="none" stroke="#63b8ff" d="M451.51,-10C463.83,-10 477.01,-10 490.07,-10"/>
<polygon fill="#63b8ff" stroke="#63b8ff" points="489.97,-13.5 499.97,-10 489.97,-6.5 489.97,-13.5"/>
</a>
</g>
</g>
</g>
</svg>
