<?xml version="1.0" encoding="UTF-8" standalone="no"?>
<!DOCTYPE svg PUBLIC "-//W3C//DTD SVG 1.1//EN"
 "http://www.w3.org/Graphics/SVG/1.1/DTD/svg11.dtd">
<!-- Generated by graphviz version 12.2.1 (20241206.2353)
 -->
<!-- Title: examples.harvesting.adjust_timing Pages: 1 -->
<svg width="836pt" height="103pt"
 viewBox="0.00 0.00 835.75 103.00" xmlns="http://www.w3.org/2000/svg" xmlns:xlink="http://www.w3.org/1999/xlink">
<g id="graph0" class="graph" transform="scale(1 1) rotate(0) translate(4 99)">
<title>examples.harvesting.adjust_timing</title>
<!-- Node1 -->
<g id="Node000001" class="node">
<title>Node1</title>
<g id="a_Node000001"><a xlink:title=" ">
<polygon fill="#999999" stroke="#666666" points="827.75,-48 692.5,-48 692.5,-16 827.75,-16 827.75,-48"/>
<text text-anchor="start" x="700.5" y="-34.5" font-family="Helvetica,sans-Serif" font-size="10.00">examples.harvesting.adjust</text>
<text text-anchor="middle" x="760.12" y="-22.5" font-family="Helvetica,sans-Serif" font-size="10.00">_timing</text>
</a>
</g>
</g>
<!-- Node2 -->
<g id="Node000002" class="node">
<title>Node2</title>
<g id="a_Node000002"><a xlink:href="$namespaceexamples_1_1harvesting.html#a5e6fd72941106ed07937bf8806852011" xlink:title=" ">
<polygon fill="white" stroke="#666666" points="643.75,-70 513.75,-70 513.75,-38 643.75,-38 643.75,-70"/>
<text text-anchor="start" x="521.75" y="-56.5" font-family="Helvetica,sans-Serif" font-size="10.00">examples.harvesting.exec</text>
<text text-anchor="middle" x="578.75" y="-44.5" font-family="Helvetica,sans-Serif" font-size="10.00">_tasks</text>
</a>
</g>
</g>
<!-- Node1&#45;&gt;Node2 -->
<g id="edge9_Node000001_Node000002" class="edge">
<title>Node1&#45;&gt;Node2</title>
<g id="a_edge9_Node000001_Node000002"><a xlink:title=" ">
<path fill="none" stroke="#63b8ff" d="M680.89,-41.6C668.58,-43.11 655.98,-44.65 644.04,-46.11"/>
<polygon fill="#63b8ff" stroke="#63b8ff" points="681.08,-45.1 690.58,-40.41 680.22,-38.15 681.08,-45.1"/>
</a>
</g>
</g>
<!-- Node8 -->
<g id="Node000008" class="node">
<title>Node8</title>
<g id="a_Node000008"><a xlink:href="$namespaceexamples_1_1harvesting.html#a666bda29f0fbc73cf7507967dbd8e2d8" xlink:title=" ">
<polygon fill="white" stroke="#666666" points="656.5,-20 501,-20 501,0 656.5,0 656.5,-20"/>
<text text-anchor="middle" x="578.75" y="-6.5" font-family="Helvetica,sans-Serif" font-size="10.00">examples.harvesting.scheduling</text>
</a>
</g>
</g>
<!-- Node1&#45;&gt;Node8 -->
<g id="edge16_Node000001_Node000008" class="edge">
<title>Node1&#45;&gt;Node8</title>
<g id="a_edge16_Node000001_Node000008"><a xlink:title=" ">
<path fill="none" stroke="#63b8ff" d="M680.67,-22.38C672.81,-21.41 664.83,-20.43 656.98,-19.47"/>
<polygon fill="#63b8ff" stroke="#63b8ff" points="680.22,-25.85 690.58,-23.59 681.08,-18.9 680.22,-25.85"/>
</a>
</g>
</g>
<!-- Node3 -->
<g id="Node000003" class="node">
<title>Node3</title>
<g id="a_Node000003"><a xlink:href="$classexamples_1_1harvesting_1_1fitness.html#ac9d51d3f1b4b38e405e5cce9fdd48b7d" xlink:title=" ">
<polygon fill="white" stroke="#666666" points="465,-64 310.25,-64 310.25,-44 465,-44 465,-64"/>
<text text-anchor="middle" x="387.62" y="-50.5" font-family="Helvetica,sans-Serif" font-size="10.00">examples.harvesting.fitness.fun</text>
</a>
</g>
</g>
<!-- Node2&#45;&gt;Node3 -->
<g id="edge10_Node000002_Node000003" class="edge">
<title>Node2&#45;&gt;Node3</title>
<g id="a_edge10_Node000002_Node000003"><a xlink:title=" ">
<path fill="none" stroke="#63b8ff" d="M502.07,-54C490.03,-54 477.56,-54 465.49,-54"/>
<polygon fill="#63b8ff" stroke="#63b8ff" points="501.94,-57.5 511.94,-54 501.94,-50.5 501.94,-57.5"/>
</a>
</g>
</g>
<!-- Node4 -->
<g id="Node000004" class="node">
<title>Node4</title>
<g id="a_Node000004"><a xlink:href="$classexamples_1_1harvesting_1_1fitness.html#add29e0fd221efd5ffa3ce2f0933b633f" xlink:title=" ">
<polygon fill="white" stroke="#666666" points="274.25,-95 133,-95 133,-63 274.25,-63 274.25,-95"/>
<text text-anchor="start" x="141" y="-81.5" font-family="Helvetica,sans-Serif" font-size="10.00">examples.harvesting.fitness.</text>
<text text-anchor="middle" x="203.62" y="-69.5" font-family="Helvetica,sans-Serif" font-size="10.00">__call__</text>
</a>
</g>
</g>
<!-- Node3&#45;&gt;Node4 -->
<g id="edge11_Node000003_Node000004" class="edge">
<title>Node3&#45;&gt;Node4</title>
<g id="a_edge11_Node000003_Node000004"><a xlink:title=" ">
<path fill="none" stroke="#63b8ff" d="M298.84,-66.06C290.76,-67.17 282.63,-68.28 274.73,-69.37"/>
<polygon fill="#63b8ff" stroke="#63b8ff" points="299.3,-69.53 308.73,-64.7 298.35,-62.59 299.3,-69.53"/>
</a>
</g>
</g>
<!-- Node7 -->
<g id="Node000007" class="node">
<title>Node7</title>
<g id="a_Node000007"><a xlink:href="$classexamples_1_1jobshop_1_1fitness.html#a65088d25d52805209f6dfec80ed1aa9f" xlink:title=" ">
<polygon fill="white" stroke="#666666" points="268.62,-45 138.62,-45 138.62,-13 268.62,-13 268.62,-45"/>
<text text-anchor="start" x="146.62" y="-31.5" font-family="Helvetica,sans-Serif" font-size="10.00">examples.jobshop.fitness.</text>
<text text-anchor="middle" x="203.62" y="-19.5" font-family="Helvetica,sans-Serif" font-size="10.00">__call__</text>
</a>
</g>
</g>
<!-- Node3&#45;&gt;Node7 -->
<g id="edge14_Node000003_Node000007" class="edge">
<title>Node3&#45;&gt;Node7</title>
<g id="a_edge14_Node000003_Node000007"><a xlink:title=" ">
<path fill="none" stroke="#63b8ff" d="M298.9,-41.95C288.83,-40.57 278.7,-39.17 269.01,-37.84"/>
<polygon fill="#63b8ff" stroke="#63b8ff" points="298.35,-45.41 308.73,-43.3 299.3,-38.47 298.35,-45.41"/>
</a>
</g>
</g>
<!-- Node5 -->
<g id="Node000005" class="node">
<title>Node5</title>
<g id="a_Node000005"><a xlink:href="$classhbv_1_1hbv.html#a89aea998d9546dc3465bf46fbee95689" xlink:title=" ">
<polygon fill="white" stroke="#666666" points="97,-89 0,-89 0,-69 97,-69 97,-89"/>
<text text-anchor="middle" x="48.5" y="-75.5" font-family="Helvetica,sans-Serif" font-size="10.00">hbv.hbv.qd_fitness</text>
</a>
</g>
</g>
<!-- Node4&#45;&gt;Node5 -->
<g id="edge12_Node000004_Node000005" class="edge">
<title>Node4&#45;&gt;Node5</title>
<g id="a_edge12_Node000004_Node000005"><a xlink:title=" ">
<path fill="none" stroke="#63b8ff" d="M121.52,-79C113.26,-79 105.07,-79 97.34,-79"/>
<polygon fill="#63b8ff" stroke="#63b8ff" points="121.27,-82.5 131.27,-79 121.27,-75.5 121.27,-82.5"/>
</a>
</g>
</g>
<!-- Node6 -->
<g id="Node000006" class="node">
<title>Node6</title>
<g id="a_Node000006"><a xlink:href="$classlrgv_1_1lrgv.html#a527b9b7a7927721b5320ab433bf75aea" xlink:title=" ">
<polygon fill="white" stroke="#666666" points="97,-45 0,-45 0,-25 97,-25 97,-45"/>
<text text-anchor="middle" x="48.5" y="-31.5" font-family="Helvetica,sans-Serif" font-size="10.00">lrgv.lrgv.qd_fitness</text>
</a>
</g>
</g>
<!-- Node4&#45;&gt;Node6 -->
<g id="edge13_Node000004_Node000006" class="edge">
<title>Node4&#45;&gt;Node6</title>
<g id="a_edge13_Node000004_Node000006"><a xlink:title=" ">
<path fill="none" stroke="#63b8ff" d="M134.64,-59.46C117.77,-54.62 100.34,-49.61 85.68,-45.4"/>
<polygon fill="#63b8ff" stroke="#63b8ff" points="133.57,-62.8 144.15,-62.2 135.51,-56.07 133.57,-62.8"/>
</a>
</g>
</g>
<!-- Node7&#45;&gt;Node6 -->
<g id="edge15_Node000007_Node000006" class="edge">
<title>Node7&#45;&gt;Node6</title>
<g id="a_edge15_Node000007_Node000006"><a xlink:title=" ">
<path fill="none" stroke="#63b8ff" d="M126.78,-31.97C116.7,-32.37 106.59,-32.76 97.17,-33.13"/>
<polygon fill="#63b8ff" stroke="#63b8ff" points="126.76,-35.48 136.62,-31.59 126.49,-28.48 126.76,-35.48"/>
</a>
</g>
</g>
</g>
</svg>
