<?xml version="1.0" encoding="UTF-8" standalone="no"?>
<!DOCTYPE svg PUBLIC "-//W3C//DTD SVG 1.1//EN"
 "http://www.w3.org/Graphics/SVG/1.1/DTD/svg11.dtd">
<!-- Generated by graphviz version 12.2.1 (20241206.2353)
 -->
<!-- Title: vrptw.opt_dir Pages: 1 -->
<svg width="195pt" height="46pt"
 viewBox="0.00 0.00 194.50 46.00" xmlns="http://www.w3.org/2000/svg" xmlns:xlink="http://www.w3.org/1999/xlink">
<g id="graph0" class="graph" transform="scale(1 1) rotate(0) translate(4 42)">
<title>vrptw.opt_dir</title>
<!-- Node1 -->
<g id="Node000001" class="node">
<title>Node1</title>
<g id="a_Node000001"><a xlink:title=" ">
<polygon fill="#999999" stroke="#666666" points="71.5,-20 0,-20 0,0 71.5,0 71.5,-20"/>
<text text-anchor="middle" x="35.75" y="-6.5" font-family="Helvetica,sans-Serif" font-size="10.00">vrptw.opt_dir</text>
</a>
</g>
</g>
<!-- Node1&#45;&gt;Node1 -->
<g id="edge3_Node000001_Node000001" class="edge">
<title>Node1&#45;&gt;Node1</title>
<g id="a_edge3_Node000001_Node000001"><a xlink:title=" ">
<path fill="none" stroke="#63b8ff" d="M18.07,-20.34C10.52,-28.98 16.41,-38 35.75,-38 46.33,-38 52.88,-35.3 55.41,-31.44"/>
<polygon fill="#63b8ff" stroke="#63b8ff" points="58.9,-31.06 53.69,-21.83 52.01,-32.29 58.9,-31.06"/>
</a>
</g>
</g>
<!-- Node2 -->
<g id="Node000002" class="node">
<title>Node2</title>
<g id="a_Node000002"><a xlink:href="$namespacevrptw.html#a0304b6337cf8df9d3a0c67295ee045b7" xlink:title=" ">
<polygon fill="white" stroke="#666666" points="186.5,-20 107.5,-20 107.5,0 186.5,0 186.5,-20"/>
<text text-anchor="middle" x="147" y="-6.5" font-family="Helvetica,sans-Serif" font-size="10.00">vrptw.optimize</text>
</a>
</g>
</g>
<!-- Node1&#45;&gt;Node2 -->
<g id="edge4_Node000001_Node000002" class="edge">
<title>Node1&#45;&gt;Node2</title>
<g id="a_edge4_Node000001_Node000002"><a xlink:title=" ">
<path fill="none" stroke="#63b8ff" d="M71.92,-10C79.55,-10 87.76,-10 95.85,-10"/>
<polygon fill="#63b8ff" stroke="#63b8ff" points="95.6,-13.5 105.6,-10 95.6,-6.5 95.6,-13.5"/>
</a>
</g>
</g>
</g>
</svg>
