<?xml version="1.0" encoding="UTF-8" standalone="no"?>
<!DOCTYPE svg PUBLIC "-//W3C//DTD SVG 1.1//EN"
 "http://www.w3.org/Graphics/SVG/1.1/DTD/svg11.dtd">
<!-- Generated by graphviz version 12.2.1 (20241206.2353)
 -->
<!-- Title: examples.harvesting.retry_modecpp Pages: 1 -->
<svg width="487pt" height="84pt"
 viewBox="0.00 0.00 486.50 84.00" xmlns="http://www.w3.org/2000/svg" xmlns:xlink="http://www.w3.org/1999/xlink">
<g id="graph0" class="graph" transform="scale(1 1) rotate(0) translate(4 80)">
<title>examples.harvesting.retry_modecpp</title>
<!-- Node1 -->
<g id="Node000001" class="node">
<title>Node1</title>
<g id="a_Node000001"><a xlink:title=" ">
<polygon fill="#999999" stroke="#666666" points="478.5,-45 350,-45 350,-13 478.5,-13 478.5,-45"/>
<text text-anchor="start" x="358" y="-31.5" font-family="Helvetica,sans-Serif" font-size="10.00">examples.harvesting.retry</text>
<text text-anchor="middle" x="414.25" y="-19.5" font-family="Helvetica,sans-Serif" font-size="10.00">_modecpp</text>
</a>
</g>
</g>
<!-- Node2 -->
<g id="Node000002" class="node">
<title>Node2</title>
<g id="a_Node000002"><a xlink:href="$namespaceexamples_1_1harvesting.html#a12ed3a155bf3c4c55dcfa7935b5d5b90" xlink:title=" ">
<polygon fill="white" stroke="#666666" points="314,-39 168.25,-39 168.25,-19 314,-19 314,-39"/>
<text text-anchor="middle" x="241.12" y="-25.5" font-family="Helvetica,sans-Serif" font-size="10.00">examples.harvesting.optimize</text>
</a>
</g>
</g>
<!-- Node1&#45;&gt;Node2 -->
<g id="edge5_Node000001_Node000002" class="edge">
<title>Node1&#45;&gt;Node2</title>
<g id="a_edge5_Node000001_Node000002"><a xlink:title=" ">
<path fill="none" stroke="#63b8ff" d="M338.06,-29C330.15,-29 322.12,-29 314.25,-29"/>
<polygon fill="#63b8ff" stroke="#63b8ff" points="338.02,-32.5 348.02,-29 338.02,-25.5 338.02,-32.5"/>
</a>
</g>
</g>
<!-- Node3 -->
<g id="Node000003" class="node">
<title>Node3</title>
<g id="a_Node000003"><a xlink:href="$namespaceexamples_1_1harvesting.html#a499ab2843b981f8e2c10eb21636a6d01" xlink:title=" ">
<polygon fill="white" stroke="#666666" points="131.12,-58 1.12,-58 1.12,-38 131.12,-38 131.12,-58"/>
<text text-anchor="middle" x="66.12" y="-44.5" font-family="Helvetica,sans-Serif" font-size="10.00">examples.harvesting.main</text>
</a>
</g>
</g>
<!-- Node2&#45;&gt;Node3 -->
<g id="edge6_Node000002_Node000003" class="edge">
<title>Node2&#45;&gt;Node3</title>
<g id="a_edge6_Node000002_Node000003"><a xlink:title=" ">
<path fill="none" stroke="#63b8ff" d="M156.39,-38.2C148.02,-39.12 139.62,-40.04 131.49,-40.93"/>
<polygon fill="#63b8ff" stroke="#63b8ff" points="156.7,-41.68 166.26,-37.11 155.93,-34.73 156.7,-41.68"/>
</a>
</g>
</g>
<!-- Node4 -->
<g id="Node000004" class="node">
<title>Node4</title>
<g id="a_Node000004"><a xlink:href="$namespaceexamples_1_1harvesting.html#ab869345e6c0b51fa393095935a395060" xlink:title=" ">
<polygon fill="white" stroke="#666666" points="132.25,-20 0,-20 0,0 132.25,0 132.25,-20"/>
<text text-anchor="middle" x="66.12" y="-6.5" font-family="Helvetica,sans-Serif" font-size="10.00">examples.harvesting.optall</text>
</a>
</g>
</g>
<!-- Node2&#45;&gt;Node4 -->
<g id="edge8_Node000002_Node000004" class="edge">
<title>Node2&#45;&gt;Node4</title>
<g id="a_edge8_Node000002_Node000004"><a xlink:title=" ">
<path fill="none" stroke="#63b8ff" d="M156.47,-19.81C148.45,-18.93 140.39,-18.05 132.58,-17.19"/>
<polygon fill="#63b8ff" stroke="#63b8ff" points="155.93,-23.27 166.26,-20.89 156.7,-16.32 155.93,-23.27"/>
</a>
</g>
</g>
<!-- Node3&#45;&gt;Node3 -->
<g id="edge7_Node000003_Node000003" class="edge">
<title>Node3&#45;&gt;Node3</title>
<g id="a_edge7_Node000003_Node000003"><a xlink:title=" ">
<path fill="none" stroke="#63b8ff" d="M97.38,-69.11C93.65,-73.14 83.24,-76 66.12,-76 35.71,-76 26.44,-66.98 38.32,-58.34"/>
<polygon fill="#63b8ff" stroke="#63b8ff" points="100.78,-68.24 94.39,-59.78 94.11,-70.37 100.78,-68.24"/>
</a>
</g>
</g>
</g>
</svg>
