<?xml version="1.0" encoding="UTF-8" standalone="no"?>
<!DOCTYPE svg PUBLIC "-//W3C//DTD SVG 1.1//EN"
 "http://www.w3.org/Graphics/SVG/1.1/DTD/svg11.dtd">
<!-- Generated by graphviz version 12.2.1 (20241206.2353)
 -->
<!-- Title: examples.gear_train.discrete Pages: 1 -->
<svg width="631pt" height="124pt"
 viewBox="0.00 0.00 630.75 124.00" xmlns="http://www.w3.org/2000/svg" xmlns:xlink="http://www.w3.org/1999/xlink">
<g id="graph0" class="graph" transform="scale(1 1) rotate(0) translate(4 120)">
<title>examples.gear_train.discrete</title>
<!-- Node1 -->
<g id="Node000001" class="node">
<title>Node1</title>
<g id="a_Node000001"><a xlink:title=" ">
<polygon fill="#999999" stroke="#666666" points="622.75,-85 481.5,-85 481.5,-65 622.75,-65 622.75,-85"/>
<text text-anchor="middle" x="552.12" y="-71.5" font-family="Helvetica,sans-Serif" font-size="10.00">examples.gear_train.discrete</text>
</a>
</g>
</g>
<!-- Node2 -->
<g id="Node000002" class="node">
<title>Node2</title>
<g id="a_Node000002"><a xlink:href="$namespaceexamples_1_1gear__train.html#a8650b80b6d76475be4dfd225a55c62b0" xlink:title=" ">
<polygon fill="white" stroke="#666666" points="445.5,-91 338.75,-91 338.75,-59 445.5,-59 445.5,-91"/>
<text text-anchor="start" x="346.75" y="-77.5" font-family="Helvetica,sans-Serif" font-size="10.00">examples.gear_train.</text>
<text text-anchor="middle" x="392.12" y="-65.5" font-family="Helvetica,sans-Serif" font-size="10.00">_feasible</text>
</a>
</g>
</g>
<!-- Node1&#45;&gt;Node2 -->
<g id="edge7_Node000001_Node000002" class="edge">
<title>Node1&#45;&gt;Node2</title>
<g id="a_edge7_Node000001_Node000002"><a xlink:title=" ">
<path fill="none" stroke="#63b8ff" d="M469.87,-75C461.74,-75 453.63,-75 445.9,-75"/>
<polygon fill="#63b8ff" stroke="#63b8ff" points="469.85,-78.5 479.85,-75 469.85,-71.5 469.85,-78.5"/>
</a>
</g>
</g>
<!-- Node3 -->
<g id="Node000003" class="node">
<title>Node3</title>
<g id="a_Node000003"><a xlink:href="$namespaceexamples_1_1gear__train.html#adf9cb51be26cd8e06226d3836a2782f1" xlink:title=" ">
<polygon fill="white" stroke="#666666" points="302.75,-116 159.25,-116 159.25,-84 302.75,-84 302.75,-116"/>
<text text-anchor="start" x="167.25" y="-102.5" font-family="Helvetica,sans-Serif" font-size="10.00">examples.gear_train.feasable</text>
<text text-anchor="middle" x="231" y="-90.5" font-family="Helvetica,sans-Serif" font-size="10.00">_ratio</text>
</a>
</g>
</g>
<!-- Node2&#45;&gt;Node3 -->
<g id="edge8_Node000002_Node000003" class="edge">
<title>Node2&#45;&gt;Node3</title>
<g id="a_edge8_Node000002_Node000003"><a xlink:title=" ">
<path fill="none" stroke="#63b8ff" d="M327.21,-85.04C319.32,-86.28 311.22,-87.55 303.23,-88.81"/>
<polygon fill="#63b8ff" stroke="#63b8ff" points="327.75,-88.5 337.09,-83.49 326.66,-81.58 327.75,-88.5"/>
</a>
</g>
</g>
<!-- Node4 -->
<g id="Node000004" class="node">
<title>Node4</title>
<g id="a_Node000004"><a xlink:href="$namespaceexamples_1_1gear__train.html#a5f77cab0f2182c613735dba90ac0a2b2" xlink:title=" ">
<polygon fill="white" stroke="#666666" points="293.75,-66 168.25,-66 168.25,-34 293.75,-34 293.75,-66"/>
<text text-anchor="start" x="176.25" y="-52.5" font-family="Helvetica,sans-Serif" font-size="10.00">examples.gear_train.print</text>
<text text-anchor="middle" x="231" y="-40.5" font-family="Helvetica,sans-Serif" font-size="10.00">_result</text>
</a>
</g>
</g>
<!-- Node2&#45;&gt;Node4 -->
<g id="edge9_Node000002_Node000004" class="edge">
<title>Node2&#45;&gt;Node4</title>
<g id="a_edge9_Node000002_Node000004"><a xlink:title=" ">
<path fill="none" stroke="#63b8ff" d="M327.36,-64.98C316.42,-63.26 305.06,-61.48 294.16,-59.77"/>
<polygon fill="#63b8ff" stroke="#63b8ff" points="326.66,-68.42 337.09,-66.51 327.75,-61.5 326.66,-68.42"/>
</a>
</g>
</g>
<!-- Node5 -->
<g id="Node000005" class="node">
<title>Node5</title>
<g id="a_Node000005"><a xlink:href="$namespaceexamples_1_1gear__train.html#a6942c7e5c634c2d56ccc8e6991db3725" xlink:title=" ">
<polygon fill="white" stroke="#666666" points="123.25,-100 0,-100 0,-68 123.25,-68 123.25,-100"/>
<text text-anchor="start" x="8" y="-86.5" font-family="Helvetica,sans-Serif" font-size="10.00">examples.gear_train.test</text>
<text text-anchor="middle" x="61.62" y="-74.5" font-family="Helvetica,sans-Serif" font-size="10.00">_optimizer</text>
</a>
</g>
</g>
<!-- Node4&#45;&gt;Node5 -->
<g id="edge10_Node000004_Node000005" class="edge">
<title>Node4&#45;&gt;Node5</title>
<g id="a_edge10_Node000004_Node000005"><a xlink:title=" ">
<path fill="none" stroke="#63b8ff" d="M157.11,-64.81C145.95,-67.07 134.53,-69.39 123.66,-71.6"/>
<polygon fill="#63b8ff" stroke="#63b8ff" points="157.56,-68.29 166.67,-62.87 156.17,-61.43 157.56,-68.29"/>
</a>
</g>
</g>
<!-- Node6 -->
<g id="Node000006" class="node">
<title>Node6</title>
<g id="a_Node000006"><a xlink:href="$namespaceexamples_1_1gear__train.html#aedfd50e048f3a8af3a3782a7e4b76fb1" xlink:title=" ">
<polygon fill="white" stroke="#666666" points="123.25,-32 0,-32 0,0 123.25,0 123.25,-32"/>
<text text-anchor="start" x="8" y="-18.5" font-family="Helvetica,sans-Serif" font-size="10.00">examples.gear_train.test</text>
<text text-anchor="middle" x="61.62" y="-6.5" font-family="Helvetica,sans-Serif" font-size="10.00">_optimizer_adv</text>
</a>
</g>
</g>
<!-- Node4&#45;&gt;Node6 -->
<g id="edge11_Node000004_Node000006" class="edge">
<title>Node4&#45;&gt;Node6</title>
<g id="a_edge11_Node000004_Node000006"><a xlink:title=" ">
<path fill="none" stroke="#63b8ff" d="M157.11,-35.19C145.95,-32.93 134.53,-30.61 123.66,-28.4"/>
<polygon fill="#63b8ff" stroke="#63b8ff" points="156.17,-38.57 166.67,-37.13 157.56,-31.71 156.17,-38.57"/>
</a>
</g>
</g>
<!-- Node6&#45;&gt;Node6 -->
<g id="edge12_Node000006_Node000006" class="edge">
<title>Node6&#45;&gt;Node6</title>
<g id="a_edge12_Node000006_Node000006"><a xlink:title=" ">
<path fill="none" stroke="#63b8ff" d="M89.85,-43.71C85.14,-47.48 75.74,-50 61.62,-50 35.82,-50 25.74,-41.58 31.39,-32.44"/>
<polygon fill="#63b8ff" stroke="#63b8ff" points="93.28,-44.39 91.6,-33.93 86.39,-43.16 93.28,-44.39"/>
</a>
</g>
</g>
</g>
</svg>
