<?xml version="1.0" encoding="UTF-8" standalone="no"?>
<!DOCTYPE svg PUBLIC "-//W3C//DTD SVG 1.1//EN"
 "http://www.w3.org/Graphics/SVG/1.1/DTD/svg11.dtd">
<!-- Generated by graphviz version 12.2.1 (20241206.2353)
 -->
<!-- Title: examples.elitescass2.plot_archive Pages: 1 -->
<svg width="466pt" height="100pt"
 viewBox="0.00 0.00 465.50 100.00" xmlns="http://www.w3.org/2000/svg" xmlns:xlink="http://www.w3.org/1999/xlink">
<g id="graph0" class="graph" transform="scale(1 1) rotate(0) translate(4 96)">
<title>examples.elitescass2.plot_archive</title>
<!-- Node1 -->
<g id="Node000001" class="node">
<title>Node1</title>
<g id="a_Node000001"><a xlink:title=" ">
<polygon fill="#999999" stroke="#666666" points="457.5,-54 328.25,-54 328.25,-22 457.5,-22 457.5,-54"/>
<text text-anchor="start" x="336.25" y="-40.5" font-family="Helvetica,sans-Serif" font-size="10.00">examples.elitescass2.plot</text>
<text text-anchor="middle" x="392.88" y="-28.5" font-family="Helvetica,sans-Serif" font-size="10.00">_archive</text>
</a>
</g>
</g>
<!-- Node2 -->
<g id="Node000002" class="node">
<title>Node2</title>
<g id="a_Node000002"><a xlink:href="$namespaceexamples_1_1elitescass2.html#a99523598aa4aa14064852c19c9db7cdb" xlink:title=" ">
<polygon fill="white" stroke="#666666" points="292.25,-92 163,-92 163,-72 292.25,-72 292.25,-92"/>
<text text-anchor="middle" x="227.62" y="-78.5" font-family="Helvetica,sans-Serif" font-size="10.00">examples.elitescass2.plot</text>
</a>
</g>
</g>
<!-- Node1&#45;&gt;Node2 -->
<g id="edge5_Node000001_Node000002" class="edge">
<title>Node1&#45;&gt;Node2</title>
<g id="a_edge5_Node000001_Node000002"><a xlink:title=" ">
<path fill="none" stroke="#63b8ff" d="M320.16,-57.33C301.94,-62.24 283.05,-67.33 267.2,-71.6"/>
<polygon fill="#63b8ff" stroke="#63b8ff" points="320.88,-60.76 329.63,-54.78 319.06,-54 320.88,-60.76"/>
</a>
</g>
</g>
<!-- Node3 -->
<g id="Node000003" class="node">
<title>Node3</title>
<g id="a_Node000003"><a xlink:href="$namespaceexamples_1_1elitescass2.html#a585abcf3e78b314f5965d009c5a42fcd" xlink:title=" ">
<polygon fill="white" stroke="#666666" points="291.12,-54 164.12,-54 164.12,-22 291.12,-22 291.12,-54"/>
<text text-anchor="start" x="172.12" y="-40.5" font-family="Helvetica,sans-Serif" font-size="10.00">examples.elitescass2.run</text>
<text text-anchor="middle" x="227.62" y="-28.5" font-family="Helvetica,sans-Serif" font-size="10.00">_diversifier</text>
</a>
</g>
</g>
<!-- Node1&#45;&gt;Node3 -->
<g id="edge6_Node000001_Node000003" class="edge">
<title>Node1&#45;&gt;Node3</title>
<g id="a_edge6_Node000001_Node000003"><a xlink:title=" ">
<path fill="none" stroke="#63b8ff" d="M316.48,-38C308.1,-38 299.63,-38 291.42,-38"/>
<polygon fill="#63b8ff" stroke="#63b8ff" points="316.31,-41.5 326.31,-38 316.31,-34.5 316.31,-41.5"/>
</a>
</g>
</g>
<!-- Node4 -->
<g id="Node000004" class="node">
<title>Node4</title>
<g id="a_Node000004"><a xlink:href="$namespaceexamples_1_1elitescass2.html#a2d34737ea1ce88ba22a59acf69e098a2" xlink:title=" ">
<polygon fill="white" stroke="#666666" points="127,-32 0,-32 0,0 127,0 127,-32"/>
<text text-anchor="start" x="8" y="-18.5" font-family="Helvetica,sans-Serif" font-size="10.00">examples.elitescass2.run</text>
<text text-anchor="middle" x="63.5" y="-6.5" font-family="Helvetica,sans-Serif" font-size="10.00">_map_elites</text>
</a>
</g>
</g>
<!-- Node1&#45;&gt;Node4 -->
<g id="edge8_Node000001_Node000004" class="edge">
<title>Node1&#45;&gt;Node4</title>
<g id="a_edge8_Node000001_Node000004"><a xlink:title=" ">
<path fill="none" stroke="#63b8ff" d="M325.58,-18.96C314.54,-16.49 303.13,-14.34 292.25,-13 236.72,-6.14 172.99,-7.78 127.1,-10.62"/>
<polygon fill="#63b8ff" stroke="#63b8ff" points="324.47,-22.3 335.01,-21.19 326.08,-15.48 324.47,-22.3"/>
</a>
</g>
</g>
<!-- Node3&#45;&gt;Node4 -->
<g id="edge7_Node000003_Node000004" class="edge">
<title>Node3&#45;&gt;Node4</title>
<g id="a_edge7_Node000003_Node000004"><a xlink:title=" ">
<path fill="none" stroke="#63b8ff" d="M152.82,-27.98C144.29,-26.83 135.65,-25.65 127.28,-24.52"/>
<polygon fill="#63b8ff" stroke="#63b8ff" points="152.06,-31.41 162.44,-29.29 153,-24.48 152.06,-31.41"/>
</a>
</g>
</g>
</g>
</svg>
