<?xml version="1.0" encoding="UTF-8" standalone="no"?>
<!DOCTYPE svg PUBLIC "-//W3C//DTD SVG 1.1//EN"
 "http://www.w3.org/Graphics/SVG/1.1/DTD/svg11.dtd">
<!-- Generated by graphviz version 12.2.1 (20241206.2353)
 -->
<!-- Title: examples.cassini2_minlp.check_multiretry Pages: 1 -->
<svg width="348pt" height="52pt"
 viewBox="0.00 0.00 348.25 52.00" xmlns="http://www.w3.org/2000/svg" xmlns:xlink="http://www.w3.org/1999/xlink">
<g id="graph0" class="graph" transform="scale(1 1) rotate(0) translate(4 48)">
<title>examples.cassini2_minlp.check_multiretry</title>
<!-- Node1 -->
<g id="Node000001" class="node">
<title>Node1</title>
<g id="a_Node000001"><a xlink:title=" ">
<polygon fill="#999999" stroke="#666666" points="340.25,-32 185.5,-32 185.5,0 340.25,0 340.25,-32"/>
<text text-anchor="start" x="193.5" y="-18.5" font-family="Helvetica,sans-Serif" font-size="10.00">examples.cassini2_minlp.check</text>
<text text-anchor="middle" x="262.88" y="-6.5" font-family="Helvetica,sans-Serif" font-size="10.00">_multiretry</text>
</a>
</g>
</g>
<!-- Node2 -->
<g id="Node000002" class="node">
<title>Node2</title>
<g id="a_Node000002"><a xlink:href="$namespaceexamples_1_1cassini2__minlp.html#a2ee9f2bd126e600b50641bc9a006a7b4" xlink:title=" ">
<polygon fill="white" stroke="#666666" points="149.5,-26 0,-26 0,-6 149.5,-6 149.5,-26"/>
<text text-anchor="middle" x="74.75" y="-12.5" font-family="Helvetica,sans-Serif" font-size="10.00">examples.cassini2_minlp.main</text>
</a>
</g>
</g>
<!-- Node1&#45;&gt;Node2 -->
<g id="edge3_Node000001_Node000002" class="edge">
<title>Node1&#45;&gt;Node2</title>
<g id="a_edge3_Node000001_Node000002"><a xlink:title=" ">
<path fill="none" stroke="#63b8ff" d="M173.85,-16C165.86,-16 157.81,-16 149.96,-16"/>
<polygon fill="#63b8ff" stroke="#63b8ff" points="173.58,-19.5 183.58,-16 173.58,-12.5 173.58,-19.5"/>
</a>
</g>
</g>
<!-- Node2&#45;&gt;Node2 -->
<g id="edge4_Node000002_Node000002" class="edge">
<title>Node2&#45;&gt;Node2</title>
<g id="a_edge4_Node000002_Node000002"><a xlink:title=" ">
<path fill="none" stroke="#63b8ff" d="M108.35,-37.11C104.34,-41.14 93.14,-44 74.75,-44 42.05,-44 32.08,-34.98 44.86,-26.34"/>
<polygon fill="#63b8ff" stroke="#63b8ff" points="111.7,-36.08 105.13,-27.77 105.08,-38.36 111.7,-36.08"/>
</a>
</g>
</g>
</g>
</svg>
