<?xml version="1.0" encoding="UTF-8" standalone="no"?>
<!DOCTYPE svg PUBLIC "-//W3C//DTD SVG 1.1//EN"
 "http://www.w3.org/Graphics/SVG/1.1/DTD/svg11.dtd">
<!-- Generated by graphviz version 12.2.1 (20241206.2353)
 -->
<!-- Title: dual_annealing::uniformVec Pages: 1 -->
<svg width="519pt" height="40pt"
 viewBox="0.00 0.00 518.75 40.00" xmlns="http://www.w3.org/2000/svg" xmlns:xlink="http://www.w3.org/1999/xlink">
<g id="graph0" class="graph" transform="scale(1 1) rotate(0) translate(4 36)">
<title>dual_annealing::uniformVec</title>
<!-- Node1 -->
<g id="Node000001" class="node">
<title>Node1</title>
<g id="a_Node000001"><a xlink:title=" ">
<polygon fill="#999999" stroke="#666666" points="510.75,-26 375.5,-26 375.5,-6 510.75,-6 510.75,-26"/>
<text text-anchor="middle" x="443.12" y="-12.5" font-family="Helvetica,sans-Serif" font-size="10.00">dual_annealing::uniformVec</text>
</a>
</g>
</g>
<!-- Node2 -->
<g id="Node000002" class="node">
<title>Node2</title>
<g id="a_Node000002"><a xlink:href="$classdual__annealing_1_1_energy_state.html#a44539c22d2beaefdaf44bad69a84a570" xlink:title=" ">
<polygon fill="white" stroke="#666666" points="339.5,-32 199,-32 199,0 339.5,0 339.5,-32"/>
<text text-anchor="start" x="207" y="-18.5" font-family="Helvetica,sans-Serif" font-size="10.00">dual_annealing::EnergyState</text>
<text text-anchor="middle" x="269.25" y="-6.5" font-family="Helvetica,sans-Serif" font-size="10.00">::reset</text>
</a>
</g>
</g>
<!-- Node1&#45;&gt;Node2 -->
<g id="edge3_Node000001_Node000002" class="edge">
<title>Node1&#45;&gt;Node2</title>
<g id="a_edge3_Node000001_Node000002"><a xlink:title=" ">
<path fill="none" stroke="#63b8ff" d="M363.92,-16C355.89,-16 347.77,-16 339.85,-16"/>
<polygon fill="#63b8ff" stroke="#63b8ff" points="363.67,-19.5 373.67,-16 363.67,-12.5 363.67,-19.5"/>
</a>
</g>
</g>
<!-- Node3 -->
<g id="Node000003" class="node">
<title>Node3</title>
<g id="a_Node000003"><a xlink:href="$classexamples_1_1siemens_1_1_plant.html#a4570217ffc213f931499ca5ca147819c" xlink:title=" ">
<polygon fill="white" stroke="#666666" points="163,-26 0,-26 0,-6 163,-6 163,-26"/>
<text text-anchor="middle" x="81.5" y="-12.5" font-family="Helvetica,sans-Serif" font-size="10.00">examples.siemens.Plant.simulate</text>
</a>
</g>
</g>
<!-- Node2&#45;&gt;Node3 -->
<g id="edge4_Node000002_Node000003" class="edge">
<title>Node2&#45;&gt;Node3</title>
<g id="a_edge4_Node000002_Node000003"><a xlink:title=" ">
<path fill="none" stroke="#63b8ff" d="M187.07,-16C179.15,-16 171.12,-16 163.21,-16"/>
<polygon fill="#63b8ff" stroke="#63b8ff" points="187.04,-19.5 197.04,-16 187.04,-12.5 187.04,-19.5"/>
</a>
</g>
</g>
</g>
</svg>
