<?xml version="1.0" encoding="UTF-8" standalone="no"?>
<!DOCTYPE svg PUBLIC "-//W3C//DTD SVG 1.1//EN"
 "http://www.w3.org/Graphics/SVG/1.1/DTD/svg11.dtd">
<!-- Generated by graphviz version 12.2.1 (20241206.2353)
 -->
<!-- Title: examples.tandem_minlp.test_optimizer Pages: 1 -->
<svg width="331pt" height="52pt"
 viewBox="0.00 0.00 331.00 52.00" xmlns="http://www.w3.org/2000/svg" xmlns:xlink="http://www.w3.org/1999/xlink">
<g id="graph0" class="graph" transform="scale(1 1) rotate(0) translate(4 48)">
<title>examples.tandem_minlp.test_optimizer</title>
<!-- Node1 -->
<g id="Node000001" class="node">
<title>Node1</title>
<g id="a_Node000001"><a xlink:title=" ">
<polygon fill="#999999" stroke="#666666" points="323,-32 181.75,-32 181.75,0 323,0 323,-32"/>
<text text-anchor="start" x="189.75" y="-18.5" font-family="Helvetica,sans-Serif" font-size="10.00">examples.tandem_minlp.test</text>
<text text-anchor="middle" x="252.38" y="-6.5" font-family="Helvetica,sans-Serif" font-size="10.00">_optimizer</text>
</a>
</g>
</g>
<!-- Node2 -->
<g id="Node000002" class="node">
<title>Node2</title>
<g id="a_Node000002"><a xlink:href="$namespaceexamples_1_1tandem__minlp.html#a9dfca19c3f1a75d4015416930751b3d3" xlink:title=" ">
<polygon fill="white" stroke="#666666" points="145.75,-26 0,-26 0,-6 145.75,-6 145.75,-26"/>
<text text-anchor="middle" x="72.88" y="-12.5" font-family="Helvetica,sans-Serif" font-size="10.00">examples.tandem_minlp.main</text>
</a>
</g>
</g>
<!-- Node1&#45;&gt;Node2 -->
<g id="edge3_Node000001_Node000002" class="edge">
<title>Node1&#45;&gt;Node2</title>
<g id="a_edge3_Node000001_Node000002"><a xlink:title=" ">
<path fill="none" stroke="#63b8ff" d="M170.18,-16C162.13,-16 153.99,-16 146.04,-16"/>
<polygon fill="#63b8ff" stroke="#63b8ff" points="169.96,-19.5 179.96,-16 169.96,-12.5 169.96,-19.5"/>
</a>
</g>
</g>
<!-- Node2&#45;&gt;Node2 -->
<g id="edge4_Node000002_Node000002" class="edge">
<title>Node2&#45;&gt;Node2</title>
<g id="a_edge4_Node000002_Node000002"><a xlink:title=" ">
<path fill="none" stroke="#63b8ff" d="M104.94,-37.11C101.11,-41.14 90.43,-44 72.88,-44 41.67,-44 32.17,-34.98 44.35,-26.34"/>
<polygon fill="#63b8ff" stroke="#63b8ff" points="108.32,-36.18 101.87,-27.78 101.67,-38.37 108.32,-36.18"/>
</a>
</g>
</g>
</g>
</svg>
