<?xml version="1.0" encoding="UTF-8" standalone="no"?>
<!DOCTYPE svg PUBLIC "-//W3C//DTD SVG 1.1//EN"
 "http://www.w3.org/Graphics/SVG/1.1/DTD/svg11.dtd">
<!-- Generated by graphviz version 12.2.1 (20241206.2353)
 -->
<!-- Title: examples.yahpo.evaluate_ranger_ Pages: 1 -->
<svg width="567pt" height="90pt"
 viewBox="0.00 0.00 567.00 90.00" xmlns="http://www.w3.org/2000/svg" xmlns:xlink="http://www.w3.org/1999/xlink">
<g id="graph0" class="graph" transform="scale(1 1) rotate(0) translate(4 86)">
<title>examples.yahpo.evaluate_ranger_</title>
<!-- Node1 -->
<g id="Node000001" class="node">
<title>Node1</title>
<g id="a_Node000001"><a xlink:title=" ">
<polygon fill="#999999" stroke="#666666" points="559,-54 432,-54 432,-22 559,-22 559,-54"/>
<text text-anchor="start" x="440" y="-40.5" font-family="Helvetica,sans-Serif" font-size="10.00">examples.yahpo.evaluate</text>
<text text-anchor="middle" x="495.5" y="-28.5" font-family="Helvetica,sans-Serif" font-size="10.00">_ranger_</text>
</a>
</g>
</g>
<!-- Node2 -->
<g id="Node000002" class="node">
<title>Node2</title>
<g id="a_Node000002"><a xlink:href="$namespaceexamples_1_1yahpo.html#aca8ebb42199ed8663e4d2fb1704bb11d" xlink:title=" ">
<polygon fill="white" stroke="#666666" points="396,-76 292.25,-76 292.25,-44 396,-44 396,-76"/>
<text text-anchor="start" x="300.25" y="-62.5" font-family="Helvetica,sans-Serif" font-size="10.00">examples.yahpo.opt</text>
<text text-anchor="middle" x="344.12" y="-50.5" font-family="Helvetica,sans-Serif" font-size="10.00">_ranger_hardware</text>
</a>
</g>
</g>
<!-- Node1&#45;&gt;Node2 -->
<g id="edge9_Node000001_Node000002" class="edge">
<title>Node1&#45;&gt;Node2</title>
<g id="a_edge9_Node000001_Node000002"><a xlink:title=" ">
<path fill="none" stroke="#63b8ff" d="M420.44,-48.91C412.24,-50.12 404.02,-51.33 396.2,-52.48"/>
<polygon fill="#63b8ff" stroke="#63b8ff" points="420.7,-52.41 430.09,-47.49 419.68,-45.48 420.7,-52.41"/>
</a>
</g>
</g>
<!-- Node4 -->
<g id="Node000004" class="node">
<title>Node4</title>
<g id="a_Node000004"><a xlink:href="$namespaceexamples_1_1yahpo.html#a657da003ad951471dc74d132dda50c01" xlink:title=" ">
<polygon fill="white" stroke="#666666" points="114.25,-32 0,-32 0,0 114.25,0 114.25,-32"/>
<text text-anchor="start" x="8" y="-18.5" font-family="Helvetica,sans-Serif" font-size="10.00">examples.yahpo.opt</text>
<text text-anchor="middle" x="57.13" y="-6.5" font-family="Helvetica,sans-Serif" font-size="10.00">_ranger_interpretability</text>
</a>
</g>
</g>
<!-- Node1&#45;&gt;Node4 -->
<g id="edge16_Node000001_Node000004" class="edge">
<title>Node1&#45;&gt;Node4</title>
<g id="a_edge16_Node000001_Node000004"><a xlink:title=" ">
<path fill="none" stroke="#63b8ff" d="M420.19,-34.25C333.63,-29.89 192.54,-22.78 114.51,-18.84"/>
<polygon fill="#63b8ff" stroke="#63b8ff" points="419.84,-37.74 430,-34.75 420.19,-30.75 419.84,-37.74"/>
</a>
</g>
</g>
<!-- Node3 -->
<g id="Node000003" class="node">
<title>Node3</title>
<g id="a_Node000003"><a xlink:href="$namespaceexamples_1_1yahpo.html#a00ed0fa5c4577f6841d751aa5de9beb4" xlink:title=" ">
<polygon fill="white" stroke="#666666" points="256.25,-70 150.25,-70 150.25,-50 256.25,-50 256.25,-70"/>
<text text-anchor="middle" x="203.25" y="-56.5" font-family="Helvetica,sans-Serif" font-size="10.00">examples.yahpo.plot</text>
</a>
</g>
</g>
<!-- Node2&#45;&gt;Node3 -->
<g id="edge10_Node000002_Node000003" class="edge">
<title>Node2&#45;&gt;Node3</title>
<g id="a_edge10_Node000002_Node000003"><a xlink:title=" ">
<path fill="none" stroke="#63b8ff" d="M280.37,-53.28C272.48,-53.21 264.46,-53.26 256.75,-53.43"/>
<polygon fill="#63b8ff" stroke="#63b8ff" points="280.24,-56.78 290.29,-53.43 280.35,-49.78 280.24,-56.78"/>
</a>
</g>
</g>
<!-- Node3&#45;&gt;Node2 -->
<g id="edge11_Node000003_Node000002" class="edge">
<title>Node3&#45;&gt;Node2</title>
<g id="a_edge11_Node000003_Node000002"><a xlink:title=" ">
<path fill="none" stroke="#63b8ff" d="M268.22,-66.73C276.12,-66.79 284.12,-66.72 291.81,-66.54"/>
<polygon fill="#63b8ff" stroke="#63b8ff" points="268.31,-63.23 258.26,-66.59 268.21,-70.23 268.31,-63.23"/>
</a>
</g>
</g>
<!-- Node3&#45;&gt;Node4 -->
<g id="edge12_Node000003_Node000004" class="edge">
<title>Node3&#45;&gt;Node4</title>
<g id="a_edge12_Node000003_Node000004"><a xlink:title=" ">
<path fill="none" stroke="#63b8ff" d="M172.66,-45.39C155.93,-39.23 134.45,-32.33 114.62,-26.64"/>
<polygon fill="#63b8ff" stroke="#63b8ff" points="171.41,-48.66 182,-48.97 173.91,-42.12 171.41,-48.66"/>
</a>
</g>
</g>
<!-- Node5 -->
<g id="Node000005" class="node">
<title>Node5</title>
<g id="a_Node000005"><a xlink:href="$namespaceexamples_1_1yahpo.html#aa0f008c277a52f11bb7ae3430c49384c" xlink:title=" ">
<polygon fill="white" stroke="#666666" points="109,-82 5.25,-82 5.25,-50 109,-50 109,-82"/>
<text text-anchor="start" x="13.25" y="-68.5" font-family="Helvetica,sans-Serif" font-size="10.00">examples.yahpo.opt</text>
<text text-anchor="middle" x="57.13" y="-56.5" font-family="Helvetica,sans-Serif" font-size="10.00">_xgboost</text>
</a>
</g>
</g>
<!-- Node3&#45;&gt;Node5 -->
<g id="edge14_Node000003_Node000005" class="edge">
<title>Node3&#45;&gt;Node5</title>
<g id="a_edge14_Node000003_Node000005"><a xlink:title=" ">
<path fill="none" stroke="#63b8ff" d="M138.49,-55.94C128.73,-56.26 118.76,-56.74 109.32,-57.38"/>
<polygon fill="#63b8ff" stroke="#63b8ff" points="138.39,-59.45 148.3,-55.7 138.21,-52.45 138.39,-59.45"/>
</a>
</g>
</g>
<!-- Node4&#45;&gt;Node3 -->
<g id="edge13_Node000004_Node000003" class="edge">
<title>Node4&#45;&gt;Node3</title>
<g id="a_edge13_Node000004_Node000003"><a xlink:title=" ">
<path fill="none" stroke="#63b8ff" d="M103.61,-36.21C118.29,-41.18 134.67,-46.25 149.81,-50.51"/>
<polygon fill="#63b8ff" stroke="#63b8ff" points="104.79,-32.92 94.2,-32.94 102.5,-39.53 104.79,-32.92"/>
</a>
</g>
</g>
<!-- Node5&#45;&gt;Node3 -->
<g id="edge15_Node000005_Node000003" class="edge">
<title>Node5&#45;&gt;Node3</title>
<g id="a_edge15_Node000005_Node000003"><a xlink:title=" ">
<path fill="none" stroke="#63b8ff" d="M120.6,-70.1C130.34,-69.8 140.32,-69.33 149.81,-68.71"/>
<polygon fill="#63b8ff" stroke="#63b8ff" points="120.75,-66.59 110.83,-70.33 120.91,-73.59 120.75,-66.59"/>
</a>
</g>
</g>
</g>
</svg>
