<?xml version="1.0" encoding="UTF-8" standalone="no"?>
<!DOCTYPE svg PUBLIC "-//W3C//DTD SVG 1.1//EN"
 "http://www.w3.org/Graphics/SVG/1.1/DTD/svg11.dtd">
<!-- Generated by graphviz version 12.2.1 (20241206.2353)
 -->
<!-- Title: examples.prophet_opt.btc_show_x Pages: 1 -->
<svg width="511pt" height="100pt"
 viewBox="0.00 0.00 510.50 100.00" xmlns="http://www.w3.org/2000/svg" xmlns:xlink="http://www.w3.org/1999/xlink">
<g id="graph0" class="graph" transform="scale(1 1) rotate(0) translate(4 96)">
<title>examples.prophet_opt.btc_show_x</title>
<!-- Node1 -->
<g id="Node000001" class="node">
<title>Node1</title>
<g id="a_Node000001"><a xlink:title=" ">
<polygon fill="#999999" stroke="#666666" points="128.5,-48 0,-48 0,-16 128.5,-16 128.5,-48"/>
<text text-anchor="start" x="8" y="-34.5" font-family="Helvetica,sans-Serif" font-size="10.00">examples.prophet_opt.btc</text>
<text text-anchor="middle" x="64.25" y="-22.5" font-family="Helvetica,sans-Serif" font-size="10.00">_show_x</text>
</a>
</g>
</g>
<!-- Node2 -->
<g id="Node000002" class="node">
<title>Node2</title>
<g id="a_Node000002"><a xlink:href="$namespaceexamples_1_1prophet__opt.html#ae4e0f5b1e89fcbb3c76d779137998d54" xlink:title=" ">
<polygon fill="white" stroke="#666666" points="307.62,-70 179.12,-70 179.12,-38 307.62,-38 307.62,-70"/>
<text text-anchor="start" x="187.12" y="-56.5" font-family="Helvetica,sans-Serif" font-size="10.00">examples.prophet_opt.btc</text>
<text text-anchor="middle" x="243.38" y="-44.5" font-family="Helvetica,sans-Serif" font-size="10.00">_show_params</text>
</a>
</g>
</g>
<!-- Node1&#45;&gt;Node2 -->
<g id="edge5_Node000001_Node000002" class="edge">
<title>Node1&#45;&gt;Node2</title>
<g id="a_edge5_Node000001_Node000002"><a xlink:title=" ">
<path fill="none" stroke="#63b8ff" d="M128.7,-39.88C141.29,-41.44 154.62,-43.1 167.55,-44.71"/>
<polygon fill="#63b8ff" stroke="#63b8ff" points="166.92,-48.15 177.27,-45.91 167.78,-41.21 166.92,-48.15"/>
</a>
</g>
</g>
<!-- Node5 -->
<g id="Node000005" class="node">
<title>Node5</title>
<g id="a_Node000005"><a xlink:href="$namespaceexamples_1_1prophet__opt.html#a6de43eaac1a61a76257187d2827f2ece" xlink:title=" ">
<polygon fill="white" stroke="#666666" points="322.25,-20 164.5,-20 164.5,0 322.25,0 322.25,-20"/>
<text text-anchor="middle" x="243.38" y="-6.5" font-family="Helvetica,sans-Serif" font-size="10.00">examples.prophet_opt.convert_x</text>
</a>
</g>
</g>
<!-- Node1&#45;&gt;Node5 -->
<g id="edge8_Node000001_Node000005" class="edge">
<title>Node1&#45;&gt;Node5</title>
<g id="a_edge8_Node000001_Node000005"><a xlink:title=" ">
<path fill="none" stroke="#63b8ff" d="M128.7,-24.12C136.61,-23.14 144.82,-22.12 153.04,-21.1"/>
<polygon fill="#63b8ff" stroke="#63b8ff" points="153.23,-24.6 162.72,-19.89 152.37,-17.65 153.23,-24.6"/>
</a>
</g>
</g>
<!-- Node3 -->
<g id="Node000003" class="node">
<title>Node3</title>
<g id="a_Node000003"><a xlink:href="$namespaceexamples_1_1prophet__opt.html#aaef1882f68b34d7af026e8781098c1d5" xlink:title=" ">
<polygon fill="white" stroke="#666666" points="494.62,-92 366.12,-92 366.12,-60 494.62,-60 494.62,-92"/>
<text text-anchor="start" x="374.12" y="-78.5" font-family="Helvetica,sans-Serif" font-size="10.00">examples.prophet_opt.btc</text>
<text text-anchor="middle" x="430.38" y="-66.5" font-family="Helvetica,sans-Serif" font-size="10.00">_eval_params</text>
</a>
</g>
</g>
<!-- Node2&#45;&gt;Node3 -->
<g id="edge6_Node000002_Node000003" class="edge">
<title>Node2&#45;&gt;Node3</title>
<g id="a_edge6_Node000002_Node000003"><a xlink:title=" ">
<path fill="none" stroke="#63b8ff" d="M308.04,-61.57C323.1,-63.36 339.28,-65.29 354.77,-67.13"/>
<polygon fill="#63b8ff" stroke="#63b8ff" points="354.06,-70.57 364.4,-68.27 354.89,-63.62 354.06,-70.57"/>
</a>
</g>
</g>
<!-- Node4 -->
<g id="Node000004" class="node">
<title>Node4</title>
<g id="a_Node000004"><a xlink:href="$namespaceexamples_1_1prophet__opt.html#a8a4ce6e419eeaa24cd84dcbd0930f019" xlink:title=" ">
<polygon fill="white" stroke="#666666" points="502.5,-42 358.25,-42 358.25,-22 502.5,-22 502.5,-42"/>
<text text-anchor="middle" x="430.38" y="-28.5" font-family="Helvetica,sans-Serif" font-size="10.00">examples.prophet_opt.plot_df</text>
</a>
</g>
</g>
<!-- Node2&#45;&gt;Node4 -->
<g id="edge7_Node000002_Node000004" class="edge">
<title>Node2&#45;&gt;Node4</title>
<g id="a_edge7_Node000002_Node000004"><a xlink:title=" ">
<path fill="none" stroke="#63b8ff" d="M308.04,-46.43C320.49,-44.95 333.71,-43.38 346.68,-41.83"/>
<polygon fill="#63b8ff" stroke="#63b8ff" points="346.96,-45.33 356.47,-40.67 346.13,-38.37 346.96,-45.33"/>
</a>
</g>
</g>
</g>
</svg>
