<?xml version="1.0" encoding="UTF-8" standalone="no"?>
<!DOCTYPE svg PUBLIC "-//W3C//DTD SVG 1.1//EN"
 "http://www.w3.org/Graphics/SVG/1.1/DTD/svg11.dtd">
<!-- Generated by graphviz version 12.2.1 (20241206.2353)
 -->
<!-- Title: examples.prophet_opt.optimize_btc Pages: 1 -->
<svg width="746pt" height="122pt"
 viewBox="0.00 0.00 745.50 122.00" xmlns="http://www.w3.org/2000/svg" xmlns:xlink="http://www.w3.org/1999/xlink">
<g id="graph0" class="graph" transform="scale(1 1) rotate(0) translate(4 118)">
<title>examples.prophet_opt.optimize_btc</title>
<!-- Node1 -->
<g id="Node000001" class="node">
<title>Node1</title>
<g id="a_Node000001"><a xlink:title=" ">
<polygon fill="#999999" stroke="#666666" points="170.5,-42 0,-42 0,-22 170.5,-22 170.5,-42"/>
<text text-anchor="middle" x="85.25" y="-28.5" font-family="Helvetica,sans-Serif" font-size="10.00">examples.prophet_opt.optimize_btc</text>
</a>
</g>
</g>
<!-- Node2 -->
<g id="Node000002" class="node">
<title>Node2</title>
<g id="a_Node000002"><a xlink:href="$namespaceexamples_1_1prophet__opt.html#a18a248c54de45c4841f27809e3a642b1" xlink:title=" ">
<polygon fill="white" stroke="#666666" points="349.25,-70 220.75,-70 220.75,-38 349.25,-38 349.25,-70"/>
<text text-anchor="start" x="228.75" y="-56.5" font-family="Helvetica,sans-Serif" font-size="10.00">examples.prophet_opt.btc</text>
<text text-anchor="middle" x="285" y="-44.5" font-family="Helvetica,sans-Serif" font-size="10.00">_show_x</text>
</a>
</g>
</g>
<!-- Node1&#45;&gt;Node2 -->
<g id="edge7_Node000001_Node000002" class="edge">
<title>Node1&#45;&gt;Node2</title>
<g id="a_edge7_Node000001_Node000002"><a xlink:title=" ">
<path fill="none" stroke="#63b8ff" d="M170.97,-41.43C183.66,-42.84 196.65,-44.28 209.11,-45.67"/>
<polygon fill="#63b8ff" stroke="#63b8ff" points="208.55,-49.13 218.87,-46.75 209.32,-42.17 208.55,-49.13"/>
</a>
</g>
</g>
<!-- Node7 -->
<g id="Node000007" class="node">
<title>Node7</title>
<g id="a_Node000007"><a xlink:href="$namespaceexamples_1_1prophet__opt.html#a7549217e0180b68ae1bd365ca7287fe4" xlink:title=" ">
<polygon fill="white" stroke="#666666" points="363.5,-20 206.5,-20 206.5,0 363.5,0 363.5,-20"/>
<text text-anchor="middle" x="285" y="-6.5" font-family="Helvetica,sans-Serif" font-size="10.00">examples.prophet_opt.load_data</text>
</a>
</g>
</g>
<!-- Node1&#45;&gt;Node7 -->
<g id="edge12_Node000001_Node000007" class="edge">
<title>Node1&#45;&gt;Node7</title>
<g id="a_edge12_Node000001_Node000007"><a xlink:title=" ">
<path fill="none" stroke="#63b8ff" d="M170.97,-22.57C178.79,-21.7 186.73,-20.82 194.59,-19.95"/>
<polygon fill="#63b8ff" stroke="#63b8ff" points="194.96,-23.43 204.52,-18.84 194.19,-16.47 194.96,-23.43"/>
</a>
</g>
</g>
<!-- Node3 -->
<g id="Node000003" class="node">
<title>Node3</title>
<g id="a_Node000003"><a xlink:href="$namespaceexamples_1_1prophet__opt.html#ae4e0f5b1e89fcbb3c76d779137998d54" xlink:title=" ">
<polygon fill="white" stroke="#666666" points="542.62,-92 414.12,-92 414.12,-60 542.62,-60 542.62,-92"/>
<text text-anchor="start" x="422.12" y="-78.5" font-family="Helvetica,sans-Serif" font-size="10.00">examples.prophet_opt.btc</text>
<text text-anchor="middle" x="478.38" y="-66.5" font-family="Helvetica,sans-Serif" font-size="10.00">_show_params</text>
</a>
</g>
</g>
<!-- Node2&#45;&gt;Node3 -->
<g id="edge8_Node000002_Node000003" class="edge">
<title>Node2&#45;&gt;Node3</title>
<g id="a_edge8_Node000002_Node000003"><a xlink:title=" ">
<path fill="none" stroke="#63b8ff" d="M349.73,-61.33C366.67,-63.27 385.13,-65.4 402.61,-67.41"/>
<polygon fill="#63b8ff" stroke="#63b8ff" points="402.09,-70.87 412.42,-68.53 402.89,-63.91 402.09,-70.87"/>
</a>
</g>
</g>
<!-- Node6 -->
<g id="Node000006" class="node">
<title>Node6</title>
<g id="a_Node000006"><a xlink:href="$namespaceexamples_1_1prophet__opt.html#a6de43eaac1a61a76257187d2827f2ece" xlink:title=" ">
<polygon fill="white" stroke="#666666" points="557.25,-42 399.5,-42 399.5,-22 557.25,-22 557.25,-42"/>
<text text-anchor="middle" x="478.38" y="-28.5" font-family="Helvetica,sans-Serif" font-size="10.00">examples.prophet_opt.convert_x</text>
</a>
</g>
</g>
<!-- Node2&#45;&gt;Node6 -->
<g id="edge11_Node000002_Node000006" class="edge">
<title>Node2&#45;&gt;Node6</title>
<g id="a_edge11_Node000002_Node000006"><a xlink:title=" ">
<path fill="none" stroke="#63b8ff" d="M349.73,-46.67C362,-45.26 375.07,-43.76 387.99,-42.28"/>
<polygon fill="#63b8ff" stroke="#63b8ff" points="388.24,-45.77 397.78,-41.15 387.44,-38.82 388.24,-45.77"/>
</a>
</g>
</g>
<!-- Node4 -->
<g id="Node000004" class="node">
<title>Node4</title>
<g id="a_Node000004"><a xlink:href="$namespaceexamples_1_1prophet__opt.html#aaef1882f68b34d7af026e8781098c1d5" xlink:title=" ">
<polygon fill="white" stroke="#666666" points="729.62,-114 601.12,-114 601.12,-82 729.62,-82 729.62,-114"/>
<text text-anchor="start" x="609.12" y="-100.5" font-family="Helvetica,sans-Serif" font-size="10.00">examples.prophet_opt.btc</text>
<text text-anchor="middle" x="665.38" y="-88.5" font-family="Helvetica,sans-Serif" font-size="10.00">_eval_params</text>
</a>
</g>
</g>
<!-- Node3&#45;&gt;Node4 -->
<g id="edge9_Node000003_Node000004" class="edge">
<title>Node3&#45;&gt;Node4</title>
<g id="a_edge9_Node000003_Node000004"><a xlink:title=" ">
<path fill="none" stroke="#63b8ff" d="M543.04,-83.57C558.1,-85.36 574.28,-87.29 589.77,-89.13"/>
<polygon fill="#63b8ff" stroke="#63b8ff" points="589.06,-92.57 599.4,-90.27 589.89,-85.62 589.06,-92.57"/>
</a>
</g>
</g>
<!-- Node5 -->
<g id="Node000005" class="node">
<title>Node5</title>
<g id="a_Node000005"><a xlink:href="$namespaceexamples_1_1prophet__opt.html#a8a4ce6e419eeaa24cd84dcbd0930f019" xlink:title=" ">
<polygon fill="white" stroke="#666666" points="737.5,-64 593.25,-64 593.25,-44 737.5,-44 737.5,-64"/>
<text text-anchor="middle" x="665.38" y="-50.5" font-family="Helvetica,sans-Serif" font-size="10.00">examples.prophet_opt.plot_df</text>
</a>
</g>
</g>
<!-- Node3&#45;&gt;Node5 -->
<g id="edge10_Node000003_Node000005" class="edge">
<title>Node3&#45;&gt;Node5</title>
<g id="a_edge10_Node000003_Node000005"><a xlink:title=" ">
<path fill="none" stroke="#63b8ff" d="M543.04,-68.43C555.49,-66.95 568.71,-65.38 581.68,-63.83"/>
<polygon fill="#63b8ff" stroke="#63b8ff" points="581.96,-67.33 591.47,-62.67 581.13,-60.37 581.96,-67.33"/>
</a>
</g>
</g>
</g>
</svg>
