<?xml version="1.0" encoding="UTF-8" standalone="no"?>
<!DOCTYPE svg PUBLIC "-//W3C//DTD SVG 1.1//EN"
 "http://www.w3.org/Graphics/SVG/1.1/DTD/svg11.dtd">
<!-- Generated by graphviz version 12.2.1 (20241206.2353)
 -->
<!-- Title: lrgv.optimize_qd Pages: 1 -->
<svg width="316pt" height="66pt"
 viewBox="0.00 0.00 316.25 66.00" xmlns="http://www.w3.org/2000/svg" xmlns:xlink="http://www.w3.org/1999/xlink">
<g id="graph0" class="graph" transform="scale(1 1) rotate(0) translate(4 62)">
<title>lrgv.optimize_qd</title>
<!-- Node1 -->
<g id="Node000001" class="node">
<title>Node1</title>
<g id="a_Node000001"><a xlink:title=" ">
<polygon fill="#999999" stroke="#666666" points="86.5,-39 0,-39 0,-19 86.5,-19 86.5,-39"/>
<text text-anchor="middle" x="43.25" y="-25.5" font-family="Helvetica,sans-Serif" font-size="10.00">lrgv.optimize_qd</text>
</a>
</g>
</g>
<!-- Node2 -->
<g id="Node000002" class="node">
<title>Node2</title>
<g id="a_Node000002"><a xlink:href="$namespacelrgv.html#af66d50b3590ffa761afae82d3302a9e5" xlink:title=" ">
<polygon fill="white" stroke="#666666" points="212,-58 122.5,-58 122.5,-38 212,-38 212,-58"/>
<text text-anchor="middle" x="167.25" y="-44.5" font-family="Helvetica,sans-Serif" font-size="10.00">lrgv.optimize_mo</text>
</a>
</g>
</g>
<!-- Node1&#45;&gt;Node2 -->
<g id="edge4_Node000001_Node000002" class="edge">
<title>Node1&#45;&gt;Node2</title>
<g id="a_edge4_Node000001_Node000002"><a xlink:title=" ">
<path fill="none" stroke="#63b8ff" d="M86.92,-35.65C94.67,-36.85 102.86,-38.13 110.92,-39.38"/>
<polygon fill="#63b8ff" stroke="#63b8ff" points="110.24,-42.82 120.66,-40.9 111.32,-35.9 110.24,-42.82"/>
</a>
</g>
</g>
<!-- Node3 -->
<g id="Node000003" class="node">
<title>Node3</title>
<g id="a_Node000003"><a xlink:href="$namespacelrgv.html#ab44b25d6ed6c94ba6a458846cb48830e" xlink:title=" ">
<polygon fill="white" stroke="#666666" points="210.5,-20 124,-20 124,0 210.5,0 210.5,-20"/>
<text text-anchor="middle" x="167.25" y="-6.5" font-family="Helvetica,sans-Serif" font-size="10.00">lrgv.plot_archive</text>
</a>
</g>
</g>
<!-- Node1&#45;&gt;Node3 -->
<g id="edge5_Node000001_Node000003" class="edge">
<title>Node1&#45;&gt;Node3</title>
<g id="a_edge5_Node000001_Node000003"><a xlink:title=" ">
<path fill="none" stroke="#63b8ff" d="M86.92,-22.35C95.23,-21.06 104.05,-19.69 112.66,-18.35"/>
<polygon fill="#63b8ff" stroke="#63b8ff" points="112.97,-21.84 122.31,-16.84 111.9,-14.92 112.97,-21.84"/>
</a>
</g>
</g>
<!-- Node4 -->
<g id="Node000004" class="node">
<title>Node4</title>
<g id="a_Node000004"><a xlink:href="$namespacelrgv.html#a2fe3ed09ae5ef083c2fa961c8875803e" xlink:title=" ">
<polygon fill="white" stroke="#666666" points="308.25,-20 248,-20 248,0 308.25,0 308.25,-20"/>
<text text-anchor="middle" x="278.12" y="-6.5" font-family="Helvetica,sans-Serif" font-size="10.00">lrgv.plot3d</text>
</a>
</g>
</g>
<!-- Node3&#45;&gt;Node4 -->
<g id="edge6_Node000003_Node000004" class="edge">
<title>Node3&#45;&gt;Node4</title>
<g id="a_edge6_Node000003_Node000004"><a xlink:title=" ">
<path fill="none" stroke="#63b8ff" d="M210.97,-10C219.31,-10 228.04,-10 236.31,-10"/>
<polygon fill="#63b8ff" stroke="#63b8ff" points="236.12,-13.5 246.12,-10 236.12,-6.5 236.12,-13.5"/>
</a>
</g>
</g>
</g>
</svg>
