<?xml version="1.0" encoding="UTF-8" standalone="no"?>
<!DOCTYPE svg PUBLIC "-//W3C//DTD SVG 1.1//EN"
 "http://www.w3.org/Graphics/SVG/1.1/DTD/svg11.dtd">
<!-- Generated by graphviz version 12.2.1 (20241206.2353)
 -->
<!-- Title: predict.r Pages: 1 -->
<svg width="538pt" height="140pt"
 viewBox="0.00 0.00 538.00 140.00" xmlns="http://www.w3.org/2000/svg" xmlns:xlink="http://www.w3.org/1999/xlink">
<g id="graph0" class="graph" transform="scale(1 1) rotate(0) translate(4 136)">
<title>predict.r</title>
<!-- Node1 -->
<g id="Node000001" class="node">
<title>Node1</title>
<g id="a_Node000001"><a xlink:title=" ">
<polygon fill="#999999" stroke="#666666" points="530,-76 478.75,-76 478.75,-56 530,-56 530,-76"/>
<text text-anchor="middle" x="504.38" y="-62.5" font-family="Helvetica,sans-Serif" font-size="10.00">predict.r</text>
</a>
</g>
</g>
<!-- Node2 -->
<g id="Node000002" class="node">
<title>Node2</title>
<g id="a_Node000002"><a xlink:href="$namespacepredict.html#ae74d61a5e7d5bd7326999923fe2a4f05" xlink:title=" ">
<polygon fill="white" stroke="#666666" points="353.25,-132 260,-132 260,-100 353.25,-100 353.25,-132"/>
<text text-anchor="start" x="268" y="-118.5" font-family="Helvetica,sans-Serif" font-size="10.00">predict.find_harris</text>
<text text-anchor="middle" x="306.62" y="-106.5" font-family="Helvetica,sans-Serif" font-size="10.00">_estimate_eps</text>
</a>
</g>
</g>
<!-- Node1&#45;&gt;Node2 -->
<g id="edge14_Node000001_Node000002" class="edge">
<title>Node1&#45;&gt;Node2</title>
<g id="a_edge14_Node000001_Node000002"><a xlink:title=" ">
<path fill="none" stroke="#63b8ff" d="M481.6,-83.17C470.59,-90.91 456.63,-99.33 442.75,-104 414.06,-113.64 380.13,-116.63 353.44,-117.21"/>
<polygon fill="#63b8ff" stroke="#63b8ff" points="483.61,-86.04 489.59,-77.29 479.46,-80.4 483.61,-86.04"/>
</a>
</g>
</g>
<!-- Node4 -->
<g id="Node000004" class="node">
<title>Node4</title>
<g id="a_Node000004"><a xlink:href="$namespacepredict.html#ad077eccae37490e4ed56b294cbd4befd" xlink:title=" ">
<polygon fill="white" stroke="#666666" points="352.12,-82 261.12,-82 261.12,-50 352.12,-50 352.12,-82"/>
<text text-anchor="start" x="269.12" y="-68.5" font-family="Helvetica,sans-Serif" font-size="10.00">predict.find_other</text>
<text text-anchor="middle" x="306.62" y="-56.5" font-family="Helvetica,sans-Serif" font-size="10.00">_model</text>
</a>
</g>
</g>
<!-- Node1&#45;&gt;Node4 -->
<g id="edge17_Node000001_Node000004" class="edge">
<title>Node1&#45;&gt;Node4</title>
<g id="a_edge17_Node000001_Node000004"><a xlink:title=" ">
<path fill="none" stroke="#63b8ff" d="M467.39,-66C434.97,-66 387.19,-66 352.33,-66"/>
<polygon fill="#63b8ff" stroke="#63b8ff" points="467.07,-69.5 477.07,-66 467.07,-62.5 467.07,-69.5"/>
</a>
</g>
</g>
<!-- Node6 -->
<g id="Node000006" class="node">
<title>Node6</title>
<g id="a_Node000006"><a xlink:href="$namespacepredict.html#af5ad07c8bb3af886e070227f63a64f49" xlink:title=" ">
<polygon fill="white" stroke="#666666" points="352.12,-32 261.12,-32 261.12,0 352.12,0 352.12,-32"/>
<text text-anchor="start" x="269.12" y="-18.5" font-family="Helvetica,sans-Serif" font-size="10.00">predict.find_other</text>
<text text-anchor="middle" x="306.62" y="-6.5" font-family="Helvetica,sans-Serif" font-size="10.00">_model_eps</text>
</a>
</g>
</g>
<!-- Node1&#45;&gt;Node6 -->
<g id="edge20_Node000001_Node000006" class="edge">
<title>Node1&#45;&gt;Node6</title>
<g id="a_edge20_Node000001_Node000006"><a xlink:title=" ">
<path fill="none" stroke="#63b8ff" d="M467.81,-56.92C435.39,-48.63 387.34,-36.36 352.33,-27.42"/>
<polygon fill="#63b8ff" stroke="#63b8ff" points="466.56,-60.21 477.12,-59.29 468.29,-53.43 466.56,-60.21"/>
</a>
</g>
</g>
<!-- Node8 -->
<g id="Node000008" class="node">
<title>Node8</title>
<g id="a_Node000008"><a xlink:href="$namespacepredict.html#aabf7895b0c2014fbaf861964feb49186" xlink:title=" ">
<polygon fill="white" stroke="#666666" points="442.75,-95 389.25,-95 389.25,-75 442.75,-75 442.75,-95"/>
<text text-anchor="middle" x="416" y="-81.5" font-family="Helvetica,sans-Serif" font-size="10.00">predict.rl</text>
</a>
</g>
</g>
<!-- Node1&#45;&gt;Node8 -->
<g id="edge23_Node000001_Node000008" class="edge">
<title>Node1&#45;&gt;Node8</title>
<g id="a_edge23_Node000001_Node000008"><a xlink:title=" ">
<path fill="none" stroke="#63b8ff" d="M467.29,-73.94C459.18,-75.72 450.74,-77.58 443.13,-79.25"/>
<polygon fill="#63b8ff" stroke="#63b8ff" points="467.9,-77.39 476.91,-71.82 466.4,-70.55 467.9,-77.39"/>
</a>
</g>
</g>
<!-- Node3 -->
<g id="Node000003" class="node">
<title>Node3</title>
<g id="a_Node000003"><a xlink:href="$namespacepredict.html#a3a578b72e4180dffe78dd9382cb34426" xlink:title=" ">
<polygon fill="white" stroke="#666666" points="94,-82 0,-82 0,-50 94,-50 94,-82"/>
<text text-anchor="start" x="8" y="-68.5" font-family="Helvetica,sans-Serif" font-size="10.00">predict.test_harris</text>
<text text-anchor="middle" x="47" y="-56.5" font-family="Helvetica,sans-Serif" font-size="10.00">_estimate_eps</text>
</a>
</g>
</g>
<!-- Node2&#45;&gt;Node3 -->
<g id="edge15_Node000002_Node000003" class="edge">
<title>Node2&#45;&gt;Node3</title>
<g id="a_edge15_Node000002_Node000003"><a xlink:title=" ">
<path fill="none" stroke="#63b8ff" d="M248.49,-110.13C213.95,-106.02 169.17,-99.7 130,-91 118.23,-88.38 105.7,-84.92 94.07,-81.41"/>
<polygon fill="#63b8ff" stroke="#63b8ff" points="247.95,-113.59 258.29,-111.27 248.76,-106.64 247.95,-113.59"/>
</a>
</g>
</g>
<!-- Node3&#45;&gt;Node3 -->
<g id="edge16_Node000003_Node000003" class="edge">
<title>Node3&#45;&gt;Node3</title>
<g id="a_edge16_Node000003_Node000003"><a xlink:title=" ">
<path fill="none" stroke="#63b8ff" d="M68.66,-93.71C65.05,-97.48 57.83,-100 47,-100 27.2,-100 19.46,-91.58 23.79,-82.44"/>
<polygon fill="#63b8ff" stroke="#63b8ff" points="72.11,-94.33 70,-83.94 65.18,-93.37 72.11,-94.33"/>
</a>
</g>
</g>
<!-- Node5 -->
<g id="Node000005" class="node">
<title>Node5</title>
<g id="a_Node000005"><a xlink:href="$namespacepredict.html#ad246ba8a830fe9fd72e974cf6daeaff8" xlink:title=" ">
<polygon fill="white" stroke="#666666" points="224,-82 130,-82 130,-50 224,-50 224,-82"/>
<text text-anchor="start" x="138" y="-68.5" font-family="Helvetica,sans-Serif" font-size="10.00">predict.test_harris</text>
<text text-anchor="middle" x="177" y="-56.5" font-family="Helvetica,sans-Serif" font-size="10.00">_prediciton</text>
</a>
</g>
</g>
<!-- Node4&#45;&gt;Node5 -->
<g id="edge18_Node000004_Node000005" class="edge">
<title>Node4&#45;&gt;Node5</title>
<g id="a_edge18_Node000004_Node000005"><a xlink:title=" ">
<path fill="none" stroke="#63b8ff" d="M249.38,-66C241,-66 232.45,-66 224.32,-66"/>
<polygon fill="#63b8ff" stroke="#63b8ff" points="249.12,-69.5 259.12,-66 249.12,-62.5 249.12,-69.5"/>
</a>
</g>
</g>
<!-- Node5&#45;&gt;Node3 -->
<g id="edge19_Node000005_Node000003" class="edge">
<title>Node5&#45;&gt;Node3</title>
<g id="a_edge19_Node000005_Node000003"><a xlink:title=" ">
<path fill="none" stroke="#63b8ff" d="M118.44,-66C110.3,-66 102.03,-66 94.14,-66"/>
<polygon fill="#63b8ff" stroke="#63b8ff" points="118.28,-69.5 128.28,-66 118.28,-62.5 118.28,-69.5"/>
</a>
</g>
</g>
<!-- Node7 -->
<g id="Node000007" class="node">
<title>Node7</title>
<g id="a_Node000007"><a xlink:href="$namespacepredict.html#ad721282821c568630118f56abb709e48" xlink:title=" ">
<polygon fill="white" stroke="#666666" points="224,-32 130,-32 130,0 224,0 224,-32"/>
<text text-anchor="start" x="138" y="-18.5" font-family="Helvetica,sans-Serif" font-size="10.00">predict.test_harris</text>
<text text-anchor="middle" x="177" y="-6.5" font-family="Helvetica,sans-Serif" font-size="10.00">_prediciton_eps</text>
</a>
</g>
</g>
<!-- Node6&#45;&gt;Node7 -->
<g id="edge21_Node000006_Node000007" class="edge">
<title>Node6&#45;&gt;Node7</title>
<g id="a_edge21_Node000006_Node000007"><a xlink:title=" ">
<path fill="none" stroke="#63b8ff" d="M249.38,-16C241,-16 232.45,-16 224.32,-16"/>
<polygon fill="#63b8ff" stroke="#63b8ff" points="249.12,-19.5 259.12,-16 249.12,-12.5 249.12,-19.5"/>
</a>
</g>
</g>
<!-- Node7&#45;&gt;Node3 -->
<g id="edge22_Node000007_Node000003" class="edge">
<title>Node7&#45;&gt;Node3</title>
<g id="a_edge22_Node000007_Node000003"><a xlink:title=" ">
<path fill="none" stroke="#63b8ff" d="M123.57,-36.48C112.39,-40.85 100.73,-45.4 90.01,-49.59"/>
<polygon fill="#63b8ff" stroke="#63b8ff" points="124.64,-39.82 132.68,-32.92 122.09,-33.3 124.64,-39.82"/>
</a>
</g>
</g>
<!-- Node8&#45;&gt;Node2 -->
<g id="edge24_Node000008_Node000002" class="edge">
<title>Node8&#45;&gt;Node2</title>
<g id="a_edge24_Node000008_Node000002"><a xlink:title=" ">
<path fill="none" stroke="#63b8ff" d="M378.21,-95.62C370.26,-97.92 361.76,-100.37 353.5,-102.75"/>
<polygon fill="#63b8ff" stroke="#63b8ff" points="378.92,-99.06 387.55,-92.92 376.97,-92.34 378.92,-99.06"/>
</a>
</g>
</g>
<!-- Node8&#45;&gt;Node4 -->
<g id="edge25_Node000008_Node000004" class="edge">
<title>Node8&#45;&gt;Node4</title>
<g id="a_edge25_Node000008_Node000004"><a xlink:title=" ">
<path fill="none" stroke="#63b8ff" d="M377.82,-78.42C369.57,-76.96 360.75,-75.4 352.23,-73.89"/>
<polygon fill="#63b8ff" stroke="#63b8ff" points="377.06,-81.84 387.52,-80.14 378.28,-74.95 377.06,-81.84"/>
</a>
</g>
</g>
<!-- Node8&#45;&gt;Node6 -->
<g id="edge26_Node000008_Node000006" class="edge">
<title>Node8&#45;&gt;Node6</title>
<g id="a_edge26_Node000008_Node000006"><a xlink:title=" ">
<path fill="none" stroke="#63b8ff" d="M392.65,-68.11C381.11,-59.64 366.67,-49.42 353.25,-41 348.66,-38.12 343.71,-35.22 338.83,-32.46"/>
<polygon fill="#63b8ff" stroke="#63b8ff" points="390.25,-70.69 400.37,-73.84 394.42,-65.07 390.25,-70.69"/>
</a>
</g>
</g>
</g>
</svg>
