<?xml version="1.0" encoding="UTF-8" standalone="no"?>
<!DOCTYPE svg PUBLIC "-//W3C//DTD SVG 1.1//EN"
 "http://www.w3.org/Graphics/SVG/1.1/DTD/svg11.dtd">
<!-- Generated by graphviz version 12.2.1 (20241206.2353)
 -->
<!-- Title: examples.prophet_opt.load_data Pages: 1 -->
<svg width="372pt" height="196pt"
 viewBox="0.00 0.00 371.50 196.00" xmlns="http://www.w3.org/2000/svg" xmlns:xlink="http://www.w3.org/1999/xlink">
<g id="graph0" class="graph" transform="scale(1 1) rotate(0) translate(4 192)">
<title>examples.prophet_opt.load_data</title>
<!-- Node1 -->
<g id="Node000001" class="node">
<title>Node1</title>
<g id="a_Node000001"><a xlink:title=" ">
<polygon fill="#999999" stroke="#666666" points="363.5,-116 206.5,-116 206.5,-96 363.5,-96 363.5,-116"/>
<text text-anchor="middle" x="285" y="-102.5" font-family="Helvetica,sans-Serif" font-size="10.00">examples.prophet_opt.load_data</text>
</a>
</g>
</g>
<!-- Node2 -->
<g id="Node000002" class="node">
<title>Node2</title>
<g id="a_Node000002"><a xlink:href="$namespaceexamples_1_1prophet__opt.html#a61ac51634dd7cfd9cf39a7947fcbd281" xlink:title=" ">
<polygon fill="white" stroke="#666666" points="149.5,-188 21,-188 21,-156 149.5,-156 149.5,-188"/>
<text text-anchor="start" x="29" y="-174.5" font-family="Helvetica,sans-Serif" font-size="10.00">examples.prophet_opt.btc</text>
<text text-anchor="middle" x="85.25" y="-162.5" font-family="Helvetica,sans-Serif" font-size="10.00">_strategy</text>
</a>
</g>
</g>
<!-- Node1&#45;&gt;Node2 -->
<g id="edge6_Node000001_Node000002" class="edge">
<title>Node1&#45;&gt;Node2</title>
<g id="a_edge6_Node000001_Node000002"><a xlink:title=" ">
<path fill="none" stroke="#63b8ff" d="M246.08,-120.32C224.11,-128.46 195.87,-138.66 170.5,-147 161.8,-149.86 152.56,-152.75 143.49,-155.5"/>
<polygon fill="#63b8ff" stroke="#63b8ff" points="247.07,-123.69 255.21,-116.92 244.62,-117.13 247.07,-123.69"/>
</a>
</g>
</g>
<!-- Node3 -->
<g id="Node000003" class="node">
<title>Node3</title>
<g id="a_Node000003"><a xlink:href="$namespaceexamples_1_1prophet__opt.html#a89edb34f6787ecf7671d592512524b7f" xlink:title=" ">
<polygon fill="white" stroke="#666666" points="170.5,-138 0,-138 0,-118 170.5,-118 170.5,-138"/>
<text text-anchor="middle" x="85.25" y="-124.5" font-family="Helvetica,sans-Serif" font-size="10.00">examples.prophet_opt.optimize_btc</text>
</a>
</g>
</g>
<!-- Node1&#45;&gt;Node3 -->
<g id="edge7_Node000001_Node000003" class="edge">
<title>Node1&#45;&gt;Node3</title>
<g id="a_edge7_Node000001_Node000003"><a xlink:title=" ">
<path fill="none" stroke="#63b8ff" d="M194.91,-115.91C186.92,-116.8 178.85,-117.7 170.9,-118.58"/>
<polygon fill="#63b8ff" stroke="#63b8ff" points="195.07,-119.42 204.62,-114.83 194.3,-112.46 195.07,-119.42"/>
</a>
</g>
</g>
<!-- Node4 -->
<g id="Node000004" class="node">
<title>Node4</title>
<g id="a_Node000004"><a xlink:href="$namespaceexamples_1_1prophet__opt.html#a6036ff4e616cbf09671db7d938061190" xlink:title=" ">
<polygon fill="white" stroke="#666666" points="161.12,-100 9.38,-100 9.38,-68 161.12,-68 161.12,-100"/>
<text text-anchor="start" x="17.38" y="-86.5" font-family="Helvetica,sans-Serif" font-size="10.00">examples.prophet_opt.optimize</text>
<text text-anchor="middle" x="85.25" y="-74.5" font-family="Helvetica,sans-Serif" font-size="10.00">_btc_ask_tell</text>
</a>
</g>
</g>
<!-- Node1&#45;&gt;Node4 -->
<g id="edge8_Node000001_Node000004" class="edge">
<title>Node1&#45;&gt;Node4</title>
<g id="a_edge8_Node000001_Node000004"><a xlink:title=" ">
<path fill="none" stroke="#63b8ff" d="M195,-96.1C183.8,-94.85 172.43,-93.59 161.46,-92.37"/>
<polygon fill="#63b8ff" stroke="#63b8ff" points="194.3,-99.54 204.62,-97.17 195.07,-92.58 194.3,-99.54"/>
</a>
</g>
</g>
<!-- Node5 -->
<g id="Node000005" class="node">
<title>Node5</title>
<g id="a_Node000005"><a xlink:href="$namespaceexamples_1_1prophet__opt.html#ae9fc3dd94248f2146ad53fcf139d55fb" xlink:title=" ">
<polygon fill="white" stroke="#666666" points="154.38,-32 16.12,-32 16.12,0 154.38,0 154.38,-32"/>
<text text-anchor="start" x="24.12" y="-18.5" font-family="Helvetica,sans-Serif" font-size="10.00">examples.prophet_opt.show</text>
<text text-anchor="middle" x="85.25" y="-6.5" font-family="Helvetica,sans-Serif" font-size="10.00">_good_result</text>
</a>
</g>
</g>
<!-- Node1&#45;&gt;Node5 -->
<g id="edge9_Node000001_Node000005" class="edge">
<title>Node1&#45;&gt;Node5</title>
<g id="a_edge9_Node000001_Node000005"><a xlink:title=" ">
<path fill="none" stroke="#63b8ff" d="M251,-90.98C215.45,-74.8 159.07,-49.14 122.37,-32.44"/>
<polygon fill="#63b8ff" stroke="#63b8ff" points="249.39,-94.09 259.94,-95.05 252.29,-87.72 249.39,-94.09"/>
</a>
</g>
</g>
<!-- Node5&#45;&gt;Node5 -->
<g id="edge10_Node000005_Node000005" class="edge">
<title>Node5&#45;&gt;Node5</title>
<g id="a_edge10_Node000005_Node000005"><a xlink:title=" ">
<path fill="none" stroke="#63b8ff" d="M118.54,-43.71C112.99,-47.48 101.89,-50 85.25,-50 54.82,-50 42.93,-41.58 49.59,-32.44"/>
<polygon fill="#63b8ff" stroke="#63b8ff" points="121.96,-44.43 120.6,-33.92 115.11,-42.99 121.96,-44.43"/>
</a>
</g>
</g>
</g>
</svg>
