<?xml version="1.0" encoding="UTF-8" standalone="no"?>
<!DOCTYPE svg PUBLIC "-//W3C//DTD SVG 1.1//EN"
 "http://www.w3.org/Graphics/SVG/1.1/DTD/svg11.dtd">
<!-- Generated by graphviz version 12.2.1 (20241206.2353)
 -->
<!-- Title: examples.spring._feasible Pages: 1 -->
<svg width="425pt" height="40pt"
 viewBox="0.00 0.00 425.00 40.00" xmlns="http://www.w3.org/2000/svg" xmlns:xlink="http://www.w3.org/1999/xlink">
<g id="graph0" class="graph" transform="scale(1 1) rotate(0) translate(4 36)">
<title>examples.spring._feasible</title>
<!-- Node1 -->
<g id="Node000001" class="node">
<title>Node1</title>
<g id="a_Node000001"><a xlink:title=" ">
<polygon fill="#999999" stroke="#666666" points="417,-26 287.75,-26 287.75,-6 417,-6 417,-26"/>
<text text-anchor="middle" x="352.38" y="-12.5" font-family="Helvetica,sans-Serif" font-size="10.00">examples.spring._feasible</text>
</a>
</g>
</g>
<!-- Node2 -->
<g id="Node000002" class="node">
<title>Node2</title>
<g id="a_Node000002"><a xlink:href="$namespaceexamples_1_1spring.html#a5548a6c0d57e91af650b43407f2f1c60" xlink:title=" ">
<polygon fill="white" stroke="#666666" points="251.75,-32 142.75,-32 142.75,0 251.75,0 251.75,-32"/>
<text text-anchor="start" x="150.75" y="-18.5" font-family="Helvetica,sans-Serif" font-size="10.00">examples.spring.print</text>
<text text-anchor="middle" x="197.25" y="-6.5" font-family="Helvetica,sans-Serif" font-size="10.00">_result</text>
</a>
</g>
</g>
<!-- Node1&#45;&gt;Node2 -->
<g id="edge3_Node000001_Node000002" class="edge">
<title>Node1&#45;&gt;Node2</title>
<g id="a_edge3_Node000001_Node000002"><a xlink:title=" ">
<path fill="none" stroke="#63b8ff" d="M275.9,-16C267.78,-16 259.64,-16 251.86,-16"/>
<polygon fill="#63b8ff" stroke="#63b8ff" points="275.81,-19.5 285.81,-16 275.81,-12.5 275.81,-19.5"/>
</a>
</g>
</g>
<!-- Node3 -->
<g id="Node000003" class="node">
<title>Node3</title>
<g id="a_Node000003"><a xlink:href="$namespaceexamples_1_1spring.html#a4f4f0af3100172a2bbc0cb83f41b898b" xlink:title=" ">
<polygon fill="white" stroke="#666666" points="106.75,-32 0,-32 0,0 106.75,0 106.75,-32"/>
<text text-anchor="start" x="8" y="-18.5" font-family="Helvetica,sans-Serif" font-size="10.00">examples.spring.test</text>
<text text-anchor="middle" x="53.38" y="-6.5" font-family="Helvetica,sans-Serif" font-size="10.00">_minimize_SLSQP</text>
</a>
</g>
</g>
<!-- Node2&#45;&gt;Node3 -->
<g id="edge4_Node000002_Node000003" class="edge">
<title>Node2&#45;&gt;Node3</title>
<g id="a_edge4_Node000002_Node000003"><a xlink:title=" ">
<path fill="none" stroke="#63b8ff" d="M131.29,-16C123.21,-16 115.02,-16 107.15,-16"/>
<polygon fill="#63b8ff" stroke="#63b8ff" points="131.1,-19.5 141.1,-16 131.1,-12.5 131.1,-19.5"/>
</a>
</g>
</g>
</g>
</svg>
