<?xml version="1.0" encoding="UTF-8" standalone="no"?>
<!DOCTYPE svg PUBLIC "-//W3C//DTD SVG 1.1//EN"
 "http://www.w3.org/Graphics/SVG/1.1/DTD/svg11.dtd">
<!-- Generated by graphviz version 12.2.1 (20241206.2353)
 -->
<!-- Title: examples.quant.objective_function Pages: 1 -->
<svg width="289pt" height="90pt"
 viewBox="0.00 0.00 289.00 90.00" xmlns="http://www.w3.org/2000/svg" xmlns:xlink="http://www.w3.org/1999/xlink">
<g id="graph0" class="graph" transform="scale(1 1) rotate(0) translate(4 86)">
<title>examples.quant.objective_function</title>
<!-- Node1 -->
<g id="Node000001" class="node">
<title>Node1</title>
<g id="a_Node000001"><a xlink:title=" ">
<polygon fill="#999999" stroke="#666666" points="127,-57 0,-57 0,-25 127,-25 127,-57"/>
<text text-anchor="start" x="8" y="-43.5" font-family="Helvetica,sans-Serif" font-size="10.00">examples.quant.objective</text>
<text text-anchor="middle" x="63.5" y="-31.5" font-family="Helvetica,sans-Serif" font-size="10.00">_function</text>
</a>
</g>
</g>
<!-- Node2 -->
<g id="Node000002" class="node">
<title>Node2</title>
<g id="a_Node000002"><a xlink:href="$namespaceexamples_1_1quant.html#a9757373bc2b175a335aa0d5f752dcd78" xlink:title=" ">
<polygon fill="white" stroke="#666666" points="281,-82 163,-82 163,-50 281,-50 281,-82"/>
<text text-anchor="start" x="171" y="-68.5" font-family="Helvetica,sans-Serif" font-size="10.00">examples.quant.get</text>
<text text-anchor="middle" x="222" y="-56.5" font-family="Helvetica,sans-Serif" font-size="10.00">_probability_distribution</text>
</a>
</g>
</g>
<!-- Node1&#45;&gt;Node2 -->
<g id="edge3_Node000001_Node000002" class="edge">
<title>Node1&#45;&gt;Node2</title>
<g id="a_edge3_Node000001_Node000002"><a xlink:title=" ">
<path fill="none" stroke="#63b8ff" d="M127.25,-51.02C135.17,-52.29 143.31,-53.59 151.33,-54.87"/>
<polygon fill="#63b8ff" stroke="#63b8ff" points="150.62,-58.3 161.05,-56.42 151.73,-51.39 150.62,-58.3"/>
</a>
</g>
</g>
<!-- Node3 -->
<g id="Node000003" class="node">
<title>Node3</title>
<g id="a_Node000003"><a xlink:href="$namespaceexamples_1_1quant.html#a9072d95c70ea7d05b666c80254547034" xlink:title=" ">
<polygon fill="white" stroke="#666666" points="272.75,-32 171.25,-32 171.25,0 272.75,0 272.75,-32"/>
<text text-anchor="start" x="179.25" y="-18.5" font-family="Helvetica,sans-Serif" font-size="10.00">examples.quant.get</text>
<text text-anchor="middle" x="222" y="-6.5" font-family="Helvetica,sans-Serif" font-size="10.00">_var_form</text>
</a>
</g>
</g>
<!-- Node1&#45;&gt;Node3 -->
<g id="edge4_Node000001_Node000003" class="edge">
<title>Node1&#45;&gt;Node3</title>
<g id="a_edge4_Node000001_Node000003"><a xlink:title=" ">
<path fill="none" stroke="#63b8ff" d="M127.25,-30.98C138.11,-29.24 149.38,-27.44 160.18,-25.72"/>
<polygon fill="#63b8ff" stroke="#63b8ff" points="160.42,-29.22 169.74,-24.19 159.31,-22.31 160.42,-29.22"/>
</a>
</g>
</g>
</g>
</svg>
