<?xml version="1.0" encoding="UTF-8" standalone="no"?>
<!DOCTYPE svg PUBLIC "-//W3C//DTD SVG 1.1//EN"
 "http://www.w3.org/Graphics/SVG/1.1/DTD/svg11.dtd">
<!-- Generated by graphviz version 12.2.1 (20241206.2353)
 -->
<!-- Title: mmkp.fitness_ Pages: 1 -->
<svg width="395pt" height="66pt"
 viewBox="0.00 0.00 395.00 66.00" xmlns="http://www.w3.org/2000/svg" xmlns:xlink="http://www.w3.org/1999/xlink">
<g id="graph0" class="graph" transform="scale(1 1) rotate(0) translate(4 62)">
<title>mmkp.fitness_</title>
<!-- Node1 -->
<g id="Node000001" class="node">
<title>Node1</title>
<g id="a_Node000001"><a xlink:title=" ">
<polygon fill="#999999" stroke="#666666" points="387,-39 306.5,-39 306.5,-19 387,-19 387,-39"/>
<text text-anchor="middle" x="346.75" y="-25.5" font-family="Helvetica,sans-Serif" font-size="10.00">mmkp.fitness_</text>
</a>
</g>
</g>
<!-- Node2 -->
<g id="Node000002" class="node">
<title>Node2</title>
<g id="a_Node000002"><a xlink:href="$classmmkp_1_1_m_m_k_p.html#a213f560e4e944cc784b84e78cf46f9ba" xlink:title=" ">
<polygon fill="white" stroke="#666666" points="270.5,-39 142.75,-39 142.75,-19 270.5,-19 270.5,-39"/>
<text text-anchor="middle" x="206.62" y="-25.5" font-family="Helvetica,sans-Serif" font-size="10.00">mmkp.MMKP.fitness_pen</text>
</a>
</g>
</g>
<!-- Node1&#45;&gt;Node2 -->
<g id="edge4_Node000001_Node000002" class="edge">
<title>Node1&#45;&gt;Node2</title>
<g id="a_edge4_Node000001_Node000002"><a xlink:title=" ">
<path fill="none" stroke="#63b8ff" d="M294.72,-29C286.98,-29 278.91,-29 270.94,-29"/>
<polygon fill="#63b8ff" stroke="#63b8ff" points="294.66,-32.5 304.66,-29 294.66,-25.5 294.66,-32.5"/>
</a>
</g>
</g>
<!-- Node3 -->
<g id="Node000003" class="node">
<title>Node3</title>
<g id="a_Node000003"><a xlink:href="$classmmkp_1_1_m_m_k_p.html#a47221aa9a69b03bc277ca6bd3c3afd20" xlink:title=" ">
<polygon fill="white" stroke="#666666" points="104.12,-58 2.62,-58 2.62,-38 104.12,-38 104.12,-58"/>
<text text-anchor="middle" x="53.38" y="-44.5" font-family="Helvetica,sans-Serif" font-size="10.00">mmkp.MMKP.dump</text>
</a>
</g>
</g>
<!-- Node2&#45;&gt;Node3 -->
<g id="edge5_Node000002_Node000003" class="edge">
<title>Node2&#45;&gt;Node3</title>
<g id="a_edge5_Node000002_Node000003"><a xlink:title=" ">
<path fill="none" stroke="#63b8ff" d="M131.02,-38.37C122.04,-39.5 113.03,-40.63 104.52,-41.7"/>
<polygon fill="#63b8ff" stroke="#63b8ff" points="131.37,-41.86 140.86,-37.14 130.5,-34.91 131.37,-41.86"/>
</a>
</g>
</g>
<!-- Node4 -->
<g id="Node000004" class="node">
<title>Node4</title>
<g id="a_Node000004"><a xlink:href="$classmmkp_1_1_m_m_k_p.html#aeab8da83296dbb68b5c90753e6fe6ff1" xlink:title=" ">
<polygon fill="white" stroke="#666666" points="106.75,-20 0,-20 0,0 106.75,0 106.75,-20"/>
<text text-anchor="middle" x="53.38" y="-6.5" font-family="Helvetica,sans-Serif" font-size="10.00">mmkp.MMKP.fitness</text>
</a>
</g>
</g>
<!-- Node2&#45;&gt;Node4 -->
<g id="edge6_Node000002_Node000004" class="edge">
<title>Node2&#45;&gt;Node4</title>
<g id="a_edge6_Node000002_Node000004"><a xlink:title=" ">
<path fill="none" stroke="#63b8ff" d="M131.19,-19.65C122.97,-18.62 114.73,-17.58 106.86,-16.59"/>
<polygon fill="#63b8ff" stroke="#63b8ff" points="130.5,-23.09 140.86,-20.86 131.37,-16.14 130.5,-23.09"/>
</a>
</g>
</g>
</g>
</svg>
