<?xml version="1.0" encoding="UTF-8" standalone="no"?>
<!DOCTYPE svg PUBLIC "-//W3C//DTD SVG 1.1//EN"
 "http://www.w3.org/Graphics/SVG/1.1/DTD/svg11.dtd">
<!-- Generated by graphviz version 12.2.1 (20241206.2353)
 -->
<!-- Title: examples.arm.forward_kinematics Pages: 1 -->
<svg width="403pt" height="66pt"
 viewBox="0.00 0.00 402.50 66.00" xmlns="http://www.w3.org/2000/svg" xmlns:xlink="http://www.w3.org/1999/xlink">
<g id="graph0" class="graph" transform="scale(1 1) rotate(0) translate(4 62)">
<title>examples.arm.forward_kinematics</title>
<!-- Node1 -->
<g id="Node000001" class="node">
<title>Node1</title>
<g id="a_Node000001"><a xlink:title="Calculates links positions given joint angles.">
<polygon fill="#999999" stroke="#666666" points="394.5,-45 281.75,-45 281.75,-13 394.5,-13 394.5,-45"/>
<text text-anchor="start" x="289.75" y="-31.5" font-family="Helvetica,sans-Serif" font-size="10.00">examples.arm.forward</text>
<text text-anchor="middle" x="338.12" y="-19.5" font-family="Helvetica,sans-Serif" font-size="10.00">_kinematics</text>
</a>
</g>
</g>
<!-- Node2 -->
<g id="Node000002" class="node">
<title>Node2</title>
<g id="a_Node000002"><a xlink:href="$classexamples_1_1arm_1_1fitness.html#ac275bc61471d8757c126d150d47ce202" xlink:title=" ">
<polygon fill="white" stroke="#666666" points="245.75,-45 133,-45 133,-13 245.75,-13 245.75,-45"/>
<text text-anchor="start" x="141" y="-31.5" font-family="Helvetica,sans-Serif" font-size="10.00">examples.arm.fitness.</text>
<text text-anchor="middle" x="189.38" y="-19.5" font-family="Helvetica,sans-Serif" font-size="10.00">__call__</text>
</a>
</g>
</g>
<!-- Node1&#45;&gt;Node2 -->
<g id="edge4_Node000001_Node000002" class="edge">
<title>Node1&#45;&gt;Node2</title>
<g id="a_edge4_Node000001_Node000002"><a xlink:title=" ">
<path fill="none" stroke="#63b8ff" d="M270.26,-29C262.12,-29 253.88,-29 245.93,-29"/>
<polygon fill="#63b8ff" stroke="#63b8ff" points="270.13,-32.5 280.13,-29 270.13,-25.5 270.13,-32.5"/>
</a>
</g>
</g>
<!-- Node3 -->
<g id="Node000003" class="node">
<title>Node3</title>
<g id="a_Node000003"><a xlink:href="$classhbv_1_1hbv.html#a89aea998d9546dc3465bf46fbee95689" xlink:title=" ">
<polygon fill="white" stroke="#666666" points="97,-58 0,-58 0,-38 97,-38 97,-58"/>
<text text-anchor="middle" x="48.5" y="-44.5" font-family="Helvetica,sans-Serif" font-size="10.00">hbv.hbv.qd_fitness</text>
</a>
</g>
</g>
<!-- Node2&#45;&gt;Node3 -->
<g id="edge5_Node000002_Node000003" class="edge">
<title>Node2&#45;&gt;Node3</title>
<g id="a_edge5_Node000002_Node000003"><a xlink:title=" ">
<path fill="none" stroke="#63b8ff" d="M121.54,-38.14C113.3,-39.27 105.02,-40.4 97.15,-41.48"/>
<polygon fill="#63b8ff" stroke="#63b8ff" points="121.76,-41.65 131.19,-36.82 120.81,-34.71 121.76,-41.65"/>
</a>
</g>
</g>
<!-- Node4 -->
<g id="Node000004" class="node">
<title>Node4</title>
<g id="a_Node000004"><a xlink:href="$classlrgv_1_1lrgv.html#a527b9b7a7927721b5320ab433bf75aea" xlink:title=" ">
<polygon fill="white" stroke="#666666" points="97,-20 0,-20 0,0 97,0 97,-20"/>
<text text-anchor="middle" x="48.5" y="-6.5" font-family="Helvetica,sans-Serif" font-size="10.00">lrgv.lrgv.qd_fitness</text>
</a>
</g>
</g>
<!-- Node2&#45;&gt;Node4 -->
<g id="edge6_Node000002_Node000004" class="edge">
<title>Node2&#45;&gt;Node4</title>
<g id="a_edge6_Node000002_Node000004"><a xlink:title=" ">
<path fill="none" stroke="#63b8ff" d="M121.54,-19.86C113.3,-18.73 105.02,-17.6 97.15,-16.52"/>
<polygon fill="#63b8ff" stroke="#63b8ff" points="120.81,-23.29 131.19,-21.18 121.76,-16.35 120.81,-23.29"/>
</a>
</g>
</g>
</g>
</svg>
