<?xml version="1.0" encoding="UTF-8" standalone="no"?>
<!DOCTYPE svg PUBLIC "-//W3C//DTD SVG 1.1//EN"
 "http://www.w3.org/Graphics/SVG/1.1/DTD/svg11.dtd">
<!-- Generated by graphviz version 12.2.1 (20241206.2353)
 -->
<!-- Title: examples.examples.test_all Pages: 1 -->
<svg width="309pt" height="46pt"
 viewBox="0.00 0.00 308.50 46.00" xmlns="http://www.w3.org/2000/svg" xmlns:xlink="http://www.w3.org/1999/xlink">
<g id="graph0" class="graph" transform="scale(1 1) rotate(0) translate(4 42)">
<title>examples.examples.test_all</title>
<!-- Node1 -->
<g id="Node000001" class="node">
<title>Node1</title>
<g id="a_Node000001"><a xlink:title=" ">
<polygon fill="#999999" stroke="#666666" points="300.5,-20 163,-20 163,0 300.5,0 300.5,-20"/>
<text text-anchor="middle" x="231.75" y="-6.5" font-family="Helvetica,sans-Serif" font-size="10.00">examples.examples.test_all</text>
</a>
</g>
</g>
<!-- Node2 -->
<g id="Node000002" class="node">
<title>Node2</title>
<g id="a_Node000002"><a xlink:href="$namespaceexamples_1_1examples.html#ac7178a19ba2e34dfe2f03d3165a9a84e" xlink:title=" ">
<polygon fill="white" stroke="#666666" points="127,-20 0,-20 0,0 127,0 127,-20"/>
<text text-anchor="middle" x="63.5" y="-6.5" font-family="Helvetica,sans-Serif" font-size="10.00">examples.examples.main</text>
</a>
</g>
</g>
<!-- Node1&#45;&gt;Node2 -->
<g id="edge3_Node000001_Node000002" class="edge">
<title>Node1&#45;&gt;Node2</title>
<g id="a_edge3_Node000001_Node000002"><a xlink:title=" ">
<path fill="none" stroke="#63b8ff" d="M151.35,-10C143.32,-10 135.24,-10 127.41,-10"/>
<polygon fill="#63b8ff" stroke="#63b8ff" points="151.14,-13.5 161.14,-10 151.14,-6.5 151.14,-13.5"/>
</a>
</g>
</g>
<!-- Node2&#45;&gt;Node2 -->
<g id="edge4_Node000002_Node000002" class="edge">
<title>Node2&#45;&gt;Node2</title>
<g id="a_edge4_Node000002_Node000002"><a xlink:title=" ">
<path fill="none" stroke="#63b8ff" d="M93.24,-31.44C89.41,-35.3 79.49,-38 63.5,-38 34.25,-38 25.34,-28.98 36.77,-20.34"/>
<polygon fill="#63b8ff" stroke="#63b8ff" points="96.62,-30.54 90.63,-21.8 89.86,-32.37 96.62,-30.54"/>
</a>
</g>
</g>
</g>
</svg>
