<?xml version="1.0" encoding="UTF-8" standalone="no"?>
<!DOCTYPE svg PUBLIC "-//W3C//DTD SVG 1.1//EN"
 "http://www.w3.org/Graphics/SVG/1.1/DTD/svg11.dtd">
<!-- Generated by graphviz version 12.2.1 (20241206.2353)
 -->
<!-- Title: examples.vessel.feasable_cost_penalty Pages: 1 -->
<svg width="684pt" height="104pt"
 viewBox="0.00 0.00 684.00 104.00" xmlns="http://www.w3.org/2000/svg" xmlns:xlink="http://www.w3.org/1999/xlink">
<g id="graph0" class="graph" transform="scale(1 1) rotate(0) translate(4 100)">
<title>examples.vessel.feasable_cost_penalty</title>
<!-- Node1 -->
<g id="Node000001" class="node">
<title>Node1</title>
<g id="a_Node000001"><a xlink:title=" ">
<polygon fill="#999999" stroke="#666666" points="129.25,-45 0,-45 0,-13 129.25,-13 129.25,-45"/>
<text text-anchor="start" x="8" y="-31.5" font-family="Helvetica,sans-Serif" font-size="10.00">examples.vessel.feasable</text>
<text text-anchor="middle" x="64.62" y="-19.5" font-family="Helvetica,sans-Serif" font-size="10.00">_cost_penalty</text>
</a>
</g>
</g>
<!-- Node2 -->
<g id="Node000002" class="node">
<title>Node2</title>
<g id="a_Node000002"><a xlink:href="$namespaceexamples_1_1vessel.html#a68aa194637f52a545cb4d8e1f552f3f8" xlink:title=" ">
<polygon fill="white" stroke="#666666" points="318.5,-58 165.25,-58 165.25,-38 318.5,-38 318.5,-58"/>
<text text-anchor="middle" x="241.88" y="-44.5" font-family="Helvetica,sans-Serif" font-size="10.00">examples.vessel.feasable_cost</text>
</a>
</g>
</g>
<!-- Node1&#45;&gt;Node2 -->
<g id="edge7_Node000001_Node000002" class="edge">
<title>Node1&#45;&gt;Node2</title>
<g id="a_edge7_Node000001_Node000002"><a xlink:title=" ">
<path fill="none" stroke="#63b8ff" d="M129.39,-35.91C137.33,-36.77 145.55,-37.67 153.77,-38.56"/>
<polygon fill="#63b8ff" stroke="#63b8ff" points="153.12,-42.01 163.44,-39.6 153.87,-35.05 153.12,-42.01"/>
</a>
</g>
</g>
<!-- Node6 -->
<g id="Node000006" class="node">
<title>Node6</title>
<g id="a_Node000006"><a xlink:href="$namespaceexamples_1_1vessel.html#a8adc06d6d9db18a2bfac93d6483c23af" xlink:title=" ">
<polygon fill="white" stroke="#666666" points="303.88,-20 179.88,-20 179.88,0 303.88,0 303.88,-20"/>
<text text-anchor="middle" x="241.88" y="-6.5" font-family="Helvetica,sans-Serif" font-size="10.00">examples.vessel.penalty</text>
</a>
</g>
</g>
<!-- Node1&#45;&gt;Node6 -->
<g id="edge11_Node000001_Node000006" class="edge">
<title>Node1&#45;&gt;Node6</title>
<g id="a_edge11_Node000001_Node000006"><a xlink:title=" ">
<path fill="none" stroke="#63b8ff" d="M129.39,-22.09C142.03,-20.72 155.39,-19.27 168.3,-17.87"/>
<polygon fill="#63b8ff" stroke="#63b8ff" points="168.43,-21.38 177.99,-16.82 167.67,-14.42 168.43,-21.38"/>
</a>
</g>
</g>
<!-- Node3 -->
<g id="Node000003" class="node">
<title>Node3</title>
<g id="a_Node000003"><a xlink:href="$namespaceexamples_1_1vessel.html#aa26c59f34fa12f86c197263f10fd1dca" xlink:title=" ">
<polygon fill="white" stroke="#666666" points="499.5,-96 368,-96 368,-76 499.5,-76 499.5,-96"/>
<text text-anchor="middle" x="433.75" y="-82.5" font-family="Helvetica,sans-Serif" font-size="10.00">examples.vessel._feasible</text>
</a>
</g>
</g>
<!-- Node2&#45;&gt;Node3 -->
<g id="edge8_Node000002_Node000003" class="edge">
<title>Node2&#45;&gt;Node3</title>
<g id="a_edge8_Node000002_Node000003"><a xlink:title=" ">
<path fill="none" stroke="#63b8ff" d="M295.26,-58.48C318.19,-63.07 345.3,-68.5 369.36,-73.31"/>
<polygon fill="#63b8ff" stroke="#63b8ff" points="368.56,-76.72 379.05,-75.25 369.93,-69.86 368.56,-76.72"/>
</a>
</g>
</g>
<!-- Node5 -->
<g id="Node000005" class="node">
<title>Node5</title>
<g id="a_Node000005"><a xlink:href="$namespaceexamples_1_1vessel.html#adda1cdd4b5189fb2a4b564572cdf0dcc" xlink:title=" ">
<polygon fill="white" stroke="#666666" points="494.25,-58 373.25,-58 373.25,-38 494.25,-38 494.25,-58"/>
<text text-anchor="middle" x="433.75" y="-44.5" font-family="Helvetica,sans-Serif" font-size="10.00">examples.vessel.weight</text>
</a>
</g>
</g>
<!-- Node2&#45;&gt;Node5 -->
<g id="edge10_Node000002_Node000005" class="edge">
<title>Node2&#45;&gt;Node5</title>
<g id="a_edge10_Node000002_Node000005"><a xlink:title=" ">
<path fill="none" stroke="#63b8ff" d="M318.74,-48C332.78,-48 347.4,-48 361.31,-48"/>
<polygon fill="#63b8ff" stroke="#63b8ff" points="361.28,-51.5 371.28,-48 361.28,-44.5 361.28,-51.5"/>
</a>
</g>
</g>
<!-- Node4 -->
<g id="Node000004" class="node">
<title>Node4</title>
<g id="a_Node000004"><a xlink:href="$namespaceexamples_1_1vessel.html#a9b9b7d9b525b0e32dec4a679dd25fb79" xlink:title=" ">
<polygon fill="white" stroke="#666666" points="676,-96 549,-96 549,-76 676,-76 676,-96"/>
<text text-anchor="middle" x="612.5" y="-82.5" font-family="Helvetica,sans-Serif" font-size="10.00">examples.vessel.discrete</text>
</a>
</g>
</g>
<!-- Node3&#45;&gt;Node4 -->
<g id="edge9_Node000003_Node000004" class="edge">
<title>Node3&#45;&gt;Node4</title>
<g id="a_edge9_Node000003_Node000004"><a xlink:title=" ">
<path fill="none" stroke="#63b8ff" d="M499.81,-86C512.02,-86 524.87,-86 537.33,-86"/>
<polygon fill="#63b8ff" stroke="#63b8ff" points="537.12,-89.5 547.12,-86 537.12,-82.5 537.12,-89.5"/>
</a>
</g>
</g>
<!-- Node7 -->
<g id="Node000007" class="node">
<title>Node7</title>
<g id="a_Node000007"><a xlink:href="$namespaceexamples_1_1vessel.html#acf59dad747a84939ba5b8e0da39d030b" xlink:title=" ">
<polygon fill="white" stroke="#666666" points="513,-20 354.5,-20 354.5,0 513,0 513,-20"/>
<text text-anchor="middle" x="433.75" y="-6.5" font-family="Helvetica,sans-Serif" font-size="10.00">examples.vessel.constraint_ineq</text>
</a>
</g>
</g>
<!-- Node6&#45;&gt;Node7 -->
<g id="edge12_Node000006_Node000007" class="edge">
<title>Node6&#45;&gt;Node7</title>
<g id="a_edge12_Node000006_Node000007"><a xlink:title=" ">
<path fill="none" stroke="#63b8ff" d="M304.26,-10C316.58,-10 329.76,-10 342.82,-10"/>
<polygon fill="#63b8ff" stroke="#63b8ff" points="342.72,-13.5 352.72,-10 342.72,-6.5 342.72,-13.5"/>
</a>
</g>
</g>
</g>
</svg>
