<?xml version="1.0" encoding="UTF-8" standalone="no"?>
<!DOCTYPE svg PUBLIC "-//W3C//DTD SVG 1.1//EN"
 "http://www.w3.org/Graphics/SVG/1.1/DTD/svg11.dtd">
<!-- Generated by graphviz version 12.2.1 (20241206.2353)
 -->
<!-- Title: predict.rl Pages: 1 -->
<svg width="449pt" height="140pt"
 viewBox="0.00 0.00 448.50 140.00" xmlns="http://www.w3.org/2000/svg" xmlns:xlink="http://www.w3.org/1999/xlink">
<g id="graph0" class="graph" transform="scale(1 1) rotate(0) translate(4 136)">
<title>predict.rl</title>
<!-- Node1 -->
<g id="Node000001" class="node">
<title>Node1</title>
<g id="a_Node000001"><a xlink:title=" ">
<polygon fill="#999999" stroke="#666666" points="440.5,-76 387,-76 387,-56 440.5,-56 440.5,-76"/>
<text text-anchor="middle" x="413.75" y="-62.5" font-family="Helvetica,sans-Serif" font-size="10.00">predict.rl</text>
</a>
</g>
</g>
<!-- Node2 -->
<g id="Node000002" class="node">
<title>Node2</title>
<g id="a_Node000002"><a xlink:href="$namespacepredict.html#ae74d61a5e7d5bd7326999923fe2a4f05" xlink:title=" ">
<polygon fill="white" stroke="#666666" points="223.62,-132 130.38,-132 130.38,-100 223.62,-100 223.62,-132"/>
<text text-anchor="start" x="138.38" y="-118.5" font-family="Helvetica,sans-Serif" font-size="10.00">predict.find_harris</text>
<text text-anchor="middle" x="177" y="-106.5" font-family="Helvetica,sans-Serif" font-size="10.00">_estimate_eps</text>
</a>
</g>
</g>
<!-- Node1&#45;&gt;Node2 -->
<g id="edge10_Node000001_Node000002" class="edge">
<title>Node1&#45;&gt;Node2</title>
<g id="a_edge10_Node000001_Node000002"><a xlink:title=" ">
<path fill="none" stroke="#63b8ff" d="M380.24,-80.87C370.95,-84.65 360.71,-88.37 351,-91 308.67,-102.45 259.01,-108.94 223.78,-112.42"/>
<polygon fill="#63b8ff" stroke="#63b8ff" points="381.38,-84.19 389.22,-77.07 378.65,-77.74 381.38,-84.19"/>
</a>
</g>
</g>
<!-- Node4 -->
<g id="Node000004" class="node">
<title>Node4</title>
<g id="a_Node000004"><a xlink:href="$namespacepredict.html#ad077eccae37490e4ed56b294cbd4befd" xlink:title=" ">
<polygon fill="white" stroke="#666666" points="351,-82 260,-82 260,-50 351,-50 351,-82"/>
<text text-anchor="start" x="268" y="-68.5" font-family="Helvetica,sans-Serif" font-size="10.00">predict.find_other</text>
<text text-anchor="middle" x="305.5" y="-56.5" font-family="Helvetica,sans-Serif" font-size="10.00">_model</text>
</a>
</g>
</g>
<!-- Node1&#45;&gt;Node4 -->
<g id="edge13_Node000001_Node000004" class="edge">
<title>Node1&#45;&gt;Node4</title>
<g id="a_edge13_Node000001_Node000004"><a xlink:title=" ">
<path fill="none" stroke="#63b8ff" d="M375.41,-66C367.61,-66 359.31,-66 351.27,-66"/>
<polygon fill="#63b8ff" stroke="#63b8ff" points="375.24,-69.5 385.24,-66 375.24,-62.5 375.24,-69.5"/>
</a>
</g>
</g>
<!-- Node6 -->
<g id="Node000006" class="node">
<title>Node6</title>
<g id="a_Node000006"><a xlink:href="$namespacepredict.html#af5ad07c8bb3af886e070227f63a64f49" xlink:title=" ">
<polygon fill="white" stroke="#666666" points="351,-32 260,-32 260,0 351,0 351,-32"/>
<text text-anchor="start" x="268" y="-18.5" font-family="Helvetica,sans-Serif" font-size="10.00">predict.find_other</text>
<text text-anchor="middle" x="305.5" y="-6.5" font-family="Helvetica,sans-Serif" font-size="10.00">_model_eps</text>
</a>
</g>
</g>
<!-- Node1&#45;&gt;Node6 -->
<g id="edge16_Node000001_Node000006" class="edge">
<title>Node1&#45;&gt;Node6</title>
<g id="a_edge16_Node000001_Node000006"><a xlink:title=" ">
<path fill="none" stroke="#63b8ff" d="M380.18,-50.67C367.87,-44.88 353.81,-38.26 341.29,-32.37"/>
<polygon fill="#63b8ff" stroke="#63b8ff" points="378.57,-53.78 389.11,-54.87 381.55,-47.45 378.57,-53.78"/>
</a>
</g>
</g>
<!-- Node3 -->
<g id="Node000003" class="node">
<title>Node3</title>
<g id="a_Node000003"><a xlink:href="$namespacepredict.html#a3a578b72e4180dffe78dd9382cb34426" xlink:title=" ">
<polygon fill="white" stroke="#666666" points="94,-82 0,-82 0,-50 94,-50 94,-82"/>
<text text-anchor="start" x="8" y="-68.5" font-family="Helvetica,sans-Serif" font-size="10.00">predict.test_harris</text>
<text text-anchor="middle" x="47" y="-56.5" font-family="Helvetica,sans-Serif" font-size="10.00">_estimate_eps</text>
</a>
</g>
</g>
<!-- Node2&#45;&gt;Node3 -->
<g id="edge11_Node000002_Node000003" class="edge">
<title>Node2&#45;&gt;Node3</title>
<g id="a_edge11_Node000002_Node000003"><a xlink:title=" ">
<path fill="none" stroke="#63b8ff" d="M123.57,-95.52C112.39,-91.15 100.73,-86.6 90.01,-82.41"/>
<polygon fill="#63b8ff" stroke="#63b8ff" points="122.09,-98.7 132.68,-99.08 124.64,-92.18 122.09,-98.7"/>
</a>
</g>
</g>
<!-- Node3&#45;&gt;Node3 -->
<g id="edge12_Node000003_Node000003" class="edge">
<title>Node3&#45;&gt;Node3</title>
<g id="a_edge12_Node000003_Node000003"><a xlink:title=" ">
<path fill="none" stroke="#63b8ff" d="M68.66,-93.71C65.05,-97.48 57.83,-100 47,-100 27.2,-100 19.46,-91.58 23.79,-82.44"/>
<polygon fill="#63b8ff" stroke="#63b8ff" points="72.11,-94.33 70,-83.94 65.18,-93.37 72.11,-94.33"/>
</a>
</g>
</g>
<!-- Node5 -->
<g id="Node000005" class="node">
<title>Node5</title>
<g id="a_Node000005"><a xlink:href="$namespacepredict.html#ad246ba8a830fe9fd72e974cf6daeaff8" xlink:title=" ">
<polygon fill="white" stroke="#666666" points="224,-82 130,-82 130,-50 224,-50 224,-82"/>
<text text-anchor="start" x="138" y="-68.5" font-family="Helvetica,sans-Serif" font-size="10.00">predict.test_harris</text>
<text text-anchor="middle" x="177" y="-56.5" font-family="Helvetica,sans-Serif" font-size="10.00">_prediciton</text>
</a>
</g>
</g>
<!-- Node4&#45;&gt;Node5 -->
<g id="edge14_Node000004_Node000005" class="edge">
<title>Node4&#45;&gt;Node5</title>
<g id="a_edge14_Node000004_Node000005"><a xlink:title=" ">
<path fill="none" stroke="#63b8ff" d="M248.27,-66C240.19,-66 231.95,-66 224.09,-66"/>
<polygon fill="#63b8ff" stroke="#63b8ff" points="248.03,-69.5 258.03,-66 248.03,-62.5 248.03,-69.5"/>
</a>
</g>
</g>
<!-- Node5&#45;&gt;Node3 -->
<g id="edge15_Node000005_Node000003" class="edge">
<title>Node5&#45;&gt;Node3</title>
<g id="a_edge15_Node000005_Node000003"><a xlink:title=" ">
<path fill="none" stroke="#63b8ff" d="M118.44,-66C110.3,-66 102.03,-66 94.14,-66"/>
<polygon fill="#63b8ff" stroke="#63b8ff" points="118.28,-69.5 128.28,-66 118.28,-62.5 118.28,-69.5"/>
</a>
</g>
</g>
<!-- Node7 -->
<g id="Node000007" class="node">
<title>Node7</title>
<g id="a_Node000007"><a xlink:href="$namespacepredict.html#ad721282821c568630118f56abb709e48" xlink:title=" ">
<polygon fill="white" stroke="#666666" points="224,-32 130,-32 130,0 224,0 224,-32"/>
<text text-anchor="start" x="138" y="-18.5" font-family="Helvetica,sans-Serif" font-size="10.00">predict.test_harris</text>
<text text-anchor="middle" x="177" y="-6.5" font-family="Helvetica,sans-Serif" font-size="10.00">_prediciton_eps</text>
</a>
</g>
</g>
<!-- Node6&#45;&gt;Node7 -->
<g id="edge17_Node000006_Node000007" class="edge">
<title>Node6&#45;&gt;Node7</title>
<g id="a_edge17_Node000006_Node000007"><a xlink:title=" ">
<path fill="none" stroke="#63b8ff" d="M248.27,-16C240.19,-16 231.95,-16 224.09,-16"/>
<polygon fill="#63b8ff" stroke="#63b8ff" points="248.03,-19.5 258.03,-16 248.03,-12.5 248.03,-19.5"/>
</a>
</g>
</g>
<!-- Node7&#45;&gt;Node3 -->
<g id="edge18_Node000007_Node000003" class="edge">
<title>Node7&#45;&gt;Node3</title>
<g id="a_edge18_Node000007_Node000003"><a xlink:title=" ">
<path fill="none" stroke="#63b8ff" d="M123.57,-36.48C112.39,-40.85 100.73,-45.4 90.01,-49.59"/>
<polygon fill="#63b8ff" stroke="#63b8ff" points="124.64,-39.82 132.68,-32.92 122.09,-33.3 124.64,-39.82"/>
</a>
</g>
</g>
</g>
</svg>
