<?xml version="1.0" encoding="UTF-8" standalone="no"?>
<!DOCTYPE svg PUBLIC "-//W3C//DTD SVG 1.1//EN"
 "http://www.w3.org/Graphics/SVG/1.1/DTD/svg11.dtd">
<!-- Generated by graphviz version 12.2.1 (20241206.2353)
 -->
<!-- Title: examples.harvesting.main Pages: 1 -->
<svg width="484pt" height="52pt"
 viewBox="0.00 0.00 484.25 52.00" xmlns="http://www.w3.org/2000/svg" xmlns:xlink="http://www.w3.org/1999/xlink">
<g id="graph0" class="graph" transform="scale(1 1) rotate(0) translate(4 48)">
<title>examples.harvesting.main</title>
<!-- Node1 -->
<g id="Node000001" class="node">
<title>Node1</title>
<g id="a_Node000001"><a xlink:title=" ">
<polygon fill="#999999" stroke="#666666" points="130,-26 0,-26 0,-6 130,-6 130,-26"/>
<text text-anchor="middle" x="65" y="-12.5" font-family="Helvetica,sans-Serif" font-size="10.00">examples.harvesting.main</text>
</a>
</g>
</g>
<!-- Node1&#45;&gt;Node1 -->
<g id="edge4_Node000001_Node000001" class="edge">
<title>Node1&#45;&gt;Node1</title>
<g id="a_edge4_Node000001_Node000001"><a xlink:title=" ">
<path fill="none" stroke="#63b8ff" d="M37.37,-26.34C25.57,-34.98 34.78,-44 65,-44 82,-44 92.35,-41.14 96.06,-37.11"/>
<polygon fill="#63b8ff" stroke="#63b8ff" points="99.45,-36.25 93.09,-27.78 92.78,-38.37 99.45,-36.25"/>
</a>
</g>
</g>
<!-- Node2 -->
<g id="Node000002" class="node">
<title>Node2</title>
<g id="a_Node000002"><a xlink:href="$namespaceexamples_1_1harvesting.html#a12ed3a155bf3c4c55dcfa7935b5d5b90" xlink:title=" ">
<polygon fill="white" stroke="#666666" points="311.75,-26 166,-26 166,-6 311.75,-6 311.75,-26"/>
<text text-anchor="middle" x="238.88" y="-12.5" font-family="Helvetica,sans-Serif" font-size="10.00">examples.harvesting.optimize</text>
</a>
</g>
</g>
<!-- Node1&#45;&gt;Node2 -->
<g id="edge5_Node000001_Node000002" class="edge">
<title>Node1&#45;&gt;Node2</title>
<g id="a_edge5_Node000001_Node000002"><a xlink:title=" ">
<path fill="none" stroke="#63b8ff" d="M130.49,-16C138.26,-16 146.28,-16 154.27,-16"/>
<polygon fill="#63b8ff" stroke="#63b8ff" points="154.01,-19.5 164.01,-16 154.01,-12.5 154.01,-19.5"/>
</a>
</g>
</g>
<!-- Node3 -->
<g id="Node000003" class="node">
<title>Node3</title>
<g id="a_Node000003"><a xlink:href="$namespaceexamples_1_1harvesting.html#abe8c6e1997927ab3f18d66329f8e3ff9" xlink:title=" ">
<polygon fill="white" stroke="#666666" points="476.25,-32 347.75,-32 347.75,0 476.25,0 476.25,-32"/>
<text text-anchor="start" x="355.75" y="-18.5" font-family="Helvetica,sans-Serif" font-size="10.00">examples.harvesting.retry</text>
<text text-anchor="middle" x="412" y="-6.5" font-family="Helvetica,sans-Serif" font-size="10.00">_modecpp</text>
</a>
</g>
</g>
<!-- Node2&#45;&gt;Node3 -->
<g id="edge6_Node000002_Node000003" class="edge">
<title>Node2&#45;&gt;Node3</title>
<g id="a_edge6_Node000002_Node000003"><a xlink:title=" ">
<path fill="none" stroke="#63b8ff" d="M311.95,-16C319.96,-16 328.13,-16 336.17,-16"/>
<polygon fill="#63b8ff" stroke="#63b8ff" points="335.91,-19.5 345.91,-16 335.91,-12.5 335.91,-19.5"/>
</a>
</g>
</g>
</g>
</svg>
