<?xml version="1.0" encoding="UTF-8" standalone="no"?>
<!DOCTYPE svg PUBLIC "-//W3C//DTD SVG 1.1//EN"
 "http://www.w3.org/Graphics/SVG/1.1/DTD/svg11.dtd">
<!-- Generated by graphviz version 12.2.1 (20241206.2353)
 -->
<!-- Title: examples.harvesting.filtered_tasks Pages: 1 -->
<svg width="656pt" height="115pt"
 viewBox="0.00 0.00 655.50 115.00" xmlns="http://www.w3.org/2000/svg" xmlns:xlink="http://www.w3.org/1999/xlink">
<g id="graph0" class="graph" transform="scale(1 1) rotate(0) translate(4 111)">
<title>examples.harvesting.filtered_tasks</title>
<!-- Node1 -->
<g id="Node000001" class="node">
<title>Node1</title>
<g id="a_Node000001"><a xlink:title=" ">
<polygon fill="#999999" stroke="#666666" points="647.5,-76 509.25,-76 509.25,-44 647.5,-44 647.5,-76"/>
<text text-anchor="start" x="517.25" y="-62.5" font-family="Helvetica,sans-Serif" font-size="10.00">examples.harvesting.filtered</text>
<text text-anchor="middle" x="578.38" y="-50.5" font-family="Helvetica,sans-Serif" font-size="10.00">_tasks</text>
</a>
</g>
</g>
<!-- Node2 -->
<g id="Node000002" class="node">
<title>Node2</title>
<g id="a_Node000002"><a xlink:href="$classexamples_1_1harvesting_1_1fitness.html#acb6ce7a10ef6b8a08952a7cf7b94b4f6" xlink:title=" ">
<polygon fill="white" stroke="#666666" points="473.25,-89 310.25,-89 310.25,-69 473.25,-69 473.25,-89"/>
<text text-anchor="middle" x="391.75" y="-75.5" font-family="Helvetica,sans-Serif" font-size="10.00">examples.harvesting.fitness.chart</text>
</a>
</g>
</g>
<!-- Node1&#45;&gt;Node2 -->
<g id="edge9_Node000001_Node000002" class="edge">
<title>Node1&#45;&gt;Node2</title>
<g id="a_edge9_Node000001_Node000002"><a xlink:title=" ">
<path fill="none" stroke="#63b8ff" d="M497.71,-68.2C489.72,-69.02 481.6,-69.86 473.6,-70.68"/>
<polygon fill="#63b8ff" stroke="#63b8ff" points="497.8,-71.71 507.38,-67.2 497.08,-64.75 497.8,-71.71"/>
</a>
</g>
</g>
<!-- Node3 -->
<g id="Node000003" class="node">
<title>Node3</title>
<g id="a_Node000003"><a xlink:href="$classexamples_1_1harvesting_1_1fitness.html#ac9d51d3f1b4b38e405e5cce9fdd48b7d" xlink:title=" ">
<polygon fill="white" stroke="#666666" points="469.12,-51 314.38,-51 314.38,-31 469.12,-31 469.12,-51"/>
<text text-anchor="middle" x="391.75" y="-37.5" font-family="Helvetica,sans-Serif" font-size="10.00">examples.harvesting.fitness.fun</text>
</a>
</g>
</g>
<!-- Node1&#45;&gt;Node3 -->
<g id="edge11_Node000001_Node000003" class="edge">
<title>Node1&#45;&gt;Node3</title>
<g id="a_edge11_Node000001_Node000003"><a xlink:title=" ">
<path fill="none" stroke="#63b8ff" d="M497.63,-51.79C488.3,-50.83 478.8,-49.86 469.52,-48.9"/>
<polygon fill="#63b8ff" stroke="#63b8ff" points="497.08,-55.25 507.38,-52.8 497.8,-48.29 497.08,-55.25"/>
</a>
</g>
</g>
<!-- Node2&#45;&gt;Node2 -->
<g id="edge10_Node000002_Node000002" class="edge">
<title>Node2&#45;&gt;Node2</title>
<g id="a_edge10_Node000002_Node000002"><a xlink:title=" ">
<path fill="none" stroke="#63b8ff" d="M425.08,-100.11C421.11,-104.14 410,-107 391.75,-107 359.31,-107 349.43,-97.98 362.1,-89.34"/>
<polygon fill="#63b8ff" stroke="#63b8ff" points="428.44,-99.1 421.89,-90.77 421.81,-101.37 428.44,-99.1"/>
</a>
</g>
</g>
<!-- Node4 -->
<g id="Node000004" class="node">
<title>Node4</title>
<g id="a_Node000004"><a xlink:href="$classexamples_1_1harvesting_1_1fitness.html#add29e0fd221efd5ffa3ce2f0933b633f" xlink:title=" ">
<polygon fill="white" stroke="#666666" points="274.25,-82 133,-82 133,-50 274.25,-50 274.25,-82"/>
<text text-anchor="start" x="141" y="-68.5" font-family="Helvetica,sans-Serif" font-size="10.00">examples.harvesting.fitness.</text>
<text text-anchor="middle" x="203.62" y="-56.5" font-family="Helvetica,sans-Serif" font-size="10.00">__call__</text>
</a>
</g>
</g>
<!-- Node3&#45;&gt;Node4 -->
<g id="edge12_Node000003_Node000004" class="edge">
<title>Node3&#45;&gt;Node4</title>
<g id="a_edge12_Node000003_Node000004"><a xlink:title=" ">
<path fill="none" stroke="#63b8ff" d="M302.6,-52.84C293.23,-54.1 283.79,-55.37 274.66,-56.59"/>
<polygon fill="#63b8ff" stroke="#63b8ff" points="303.03,-56.31 312.47,-51.51 302.09,-49.38 303.03,-56.31"/>
</a>
</g>
</g>
<!-- Node7 -->
<g id="Node000007" class="node">
<title>Node7</title>
<g id="a_Node000007"><a xlink:href="$classexamples_1_1jobshop_1_1fitness.html#a65088d25d52805209f6dfec80ed1aa9f" xlink:title=" ">
<polygon fill="white" stroke="#666666" points="268.62,-32 138.62,-32 138.62,0 268.62,0 268.62,-32"/>
<text text-anchor="start" x="146.62" y="-18.5" font-family="Helvetica,sans-Serif" font-size="10.00">examples.jobshop.fitness.</text>
<text text-anchor="middle" x="203.62" y="-6.5" font-family="Helvetica,sans-Serif" font-size="10.00">__call__</text>
</a>
</g>
</g>
<!-- Node3&#45;&gt;Node7 -->
<g id="edge15_Node000003_Node000007" class="edge">
<title>Node3&#45;&gt;Node7</title>
<g id="a_edge15_Node000003_Node000007"><a xlink:title=" ">
<path fill="none" stroke="#63b8ff" d="M302.7,-29.17C291.37,-27.65 279.94,-26.12 269.08,-24.66"/>
<polygon fill="#63b8ff" stroke="#63b8ff" points="302.09,-32.62 312.47,-30.49 303.03,-25.69 302.09,-32.62"/>
</a>
</g>
</g>
<!-- Node5 -->
<g id="Node000005" class="node">
<title>Node5</title>
<g id="a_Node000005"><a xlink:href="$classhbv_1_1hbv.html#a89aea998d9546dc3465bf46fbee95689" xlink:title=" ">
<polygon fill="white" stroke="#666666" points="97,-76 0,-76 0,-56 97,-56 97,-76"/>
<text text-anchor="middle" x="48.5" y="-62.5" font-family="Helvetica,sans-Serif" font-size="10.00">hbv.hbv.qd_fitness</text>
</a>
</g>
</g>
<!-- Node4&#45;&gt;Node5 -->
<g id="edge13_Node000004_Node000005" class="edge">
<title>Node4&#45;&gt;Node5</title>
<g id="a_edge13_Node000004_Node000005"><a xlink:title=" ">
<path fill="none" stroke="#63b8ff" d="M121.52,-66C113.26,-66 105.07,-66 97.34,-66"/>
<polygon fill="#63b8ff" stroke="#63b8ff" points="121.27,-69.5 131.27,-66 121.27,-62.5 121.27,-69.5"/>
</a>
</g>
</g>
<!-- Node6 -->
<g id="Node000006" class="node">
<title>Node6</title>
<g id="a_Node000006"><a xlink:href="$classlrgv_1_1lrgv.html#a527b9b7a7927721b5320ab433bf75aea" xlink:title=" ">
<polygon fill="white" stroke="#666666" points="97,-32 0,-32 0,-12 97,-12 97,-32"/>
<text text-anchor="middle" x="48.5" y="-18.5" font-family="Helvetica,sans-Serif" font-size="10.00">lrgv.lrgv.qd_fitness</text>
</a>
</g>
</g>
<!-- Node4&#45;&gt;Node6 -->
<g id="edge14_Node000004_Node000006" class="edge">
<title>Node4&#45;&gt;Node6</title>
<g id="a_edge14_Node000004_Node000006"><a xlink:title=" ">
<path fill="none" stroke="#63b8ff" d="M134.64,-46.46C117.77,-41.62 100.34,-36.61 85.68,-32.4"/>
<polygon fill="#63b8ff" stroke="#63b8ff" points="133.57,-49.8 144.15,-49.2 135.51,-43.07 133.57,-49.8"/>
</a>
</g>
</g>
<!-- Node7&#45;&gt;Node6 -->
<g id="edge16_Node000007_Node000006" class="edge">
<title>Node7&#45;&gt;Node6</title>
<g id="a_edge16_Node000007_Node000006"><a xlink:title=" ">
<path fill="none" stroke="#63b8ff" d="M126.78,-18.97C116.7,-19.37 106.59,-19.76 97.17,-20.13"/>
<polygon fill="#63b8ff" stroke="#63b8ff" points="126.76,-22.48 136.62,-18.59 126.49,-15.48 126.76,-22.48"/>
</a>
</g>
</g>
</g>
</svg>
