<?xml version="1.0" encoding="UTF-8" standalone="no"?>
<!DOCTYPE svg PUBLIC "-//W3C//DTD SVG 1.1//EN"
 "http://www.w3.org/Graphics/SVG/1.1/DTD/svg11.dtd">
<!-- Generated by graphviz version 12.2.1 (20241206.2353)
 -->
<!-- Title: examples.scheduling.main Pages: 1 -->
<svg width="632pt" height="90pt"
 viewBox="0.00 0.00 631.50 90.00" xmlns="http://www.w3.org/2000/svg" xmlns:xlink="http://www.w3.org/1999/xlink">
<g id="graph0" class="graph" transform="scale(1 1) rotate(0) translate(4 86)">
<title>examples.scheduling.main</title>
<!-- Node1 -->
<g id="Node000001" class="node">
<title>Node1</title>
<g id="a_Node000001"><a xlink:title=" ">
<polygon fill="#999999" stroke="#666666" points="131.5,-51 0,-51 0,-31 131.5,-31 131.5,-51"/>
<text text-anchor="middle" x="65.75" y="-37.5" font-family="Helvetica,sans-Serif" font-size="10.00">examples.scheduling.main</text>
</a>
</g>
</g>
<!-- Node1&#45;&gt;Node1 -->
<g id="edge6_Node000001_Node000001" class="edge">
<title>Node1&#45;&gt;Node1</title>
<g id="a_edge6_Node000001_Node000001"><a xlink:title=" ">
<path fill="none" stroke="#63b8ff" d="M39.97,-51.34C28.95,-59.98 37.55,-69 65.75,-69 81.17,-69 90.73,-66.3 94.43,-62.44"/>
<polygon fill="#63b8ff" stroke="#63b8ff" points="97.82,-61.6 91.91,-52.8 91.05,-63.36 97.82,-61.6"/>
</a>
</g>
</g>
<!-- Node2 -->
<g id="Node000002" class="node">
<title>Node2</title>
<g id="a_Node000002"><a xlink:href="$namespaceexamples_1_1scheduling.html#a6556fae25bdbd6c39503674979477c1d" xlink:title=" ">
<polygon fill="white" stroke="#666666" points="288.5,-57 167.5,-57 167.5,-25 288.5,-25 288.5,-57"/>
<text text-anchor="start" x="175.5" y="-43.5" font-family="Helvetica,sans-Serif" font-size="10.00">examples.scheduling.nd</text>
<text text-anchor="middle" x="228" y="-31.5" font-family="Helvetica,sans-Serif" font-size="10.00">_optimize</text>
</a>
</g>
</g>
<!-- Node1&#45;&gt;Node2 -->
<g id="edge7_Node000001_Node000002" class="edge">
<title>Node1&#45;&gt;Node2</title>
<g id="a_edge7_Node000001_Node000002"><a xlink:title=" ">
<path fill="none" stroke="#63b8ff" d="M131.93,-41C139.73,-41 147.73,-41 155.61,-41"/>
<polygon fill="#63b8ff" stroke="#63b8ff" points="155.53,-44.5 165.53,-41 155.53,-37.5 155.53,-44.5"/>
</a>
</g>
</g>
<!-- Node3 -->
<g id="Node000003" class="node">
<title>Node3</title>
<g id="a_Node000003"><a xlink:href="$namespaceexamples_1_1scheduling.html#a1bf9ac13dfe55503a90073b1ca96d486" xlink:title=" ">
<polygon fill="white" stroke="#666666" points="449.62,-82 325.62,-82 325.62,-50 449.62,-50 449.62,-82"/>
<text text-anchor="start" x="333.62" y="-68.5" font-family="Helvetica,sans-Serif" font-size="10.00">examples.scheduling.get</text>
<text text-anchor="middle" x="387.62" y="-56.5" font-family="Helvetica,sans-Serif" font-size="10.00">_fitness</text>
</a>
</g>
</g>
<!-- Node2&#45;&gt;Node3 -->
<g id="edge8_Node000002_Node000003" class="edge">
<title>Node2&#45;&gt;Node3</title>
<g id="a_edge8_Node000002_Node000003"><a xlink:title=" ">
<path fill="none" stroke="#63b8ff" d="M288.59,-50.45C296.96,-51.78 305.63,-53.15 314.2,-54.51"/>
<polygon fill="#63b8ff" stroke="#63b8ff" points="313.46,-57.94 323.88,-56.05 314.55,-51.03 313.46,-57.94"/>
</a>
</g>
</g>
<!-- Node4 -->
<g id="Node000004" class="node">
<title>Node4</title>
<g id="a_Node000004"><a xlink:href="$namespaceexamples_1_1scheduling.html#a61f08d3370844ad2267d011c37260ad2" xlink:title=" ">
<polygon fill="white" stroke="#666666" points="450.75,-32 324.5,-32 324.5,0 450.75,0 450.75,-32"/>
<text text-anchor="start" x="332.5" y="-18.5" font-family="Helvetica,sans-Serif" font-size="10.00">examples.scheduling.plot</text>
<text text-anchor="middle" x="387.62" y="-6.5" font-family="Helvetica,sans-Serif" font-size="10.00">_archive</text>
</a>
</g>
</g>
<!-- Node2&#45;&gt;Node4 -->
<g id="edge9_Node000002_Node000004" class="edge">
<title>Node2&#45;&gt;Node4</title>
<g id="a_edge9_Node000002_Node000004"><a xlink:title=" ">
<path fill="none" stroke="#63b8ff" d="M288.59,-31.55C296.47,-30.3 304.63,-29.01 312.71,-27.72"/>
<polygon fill="#63b8ff" stroke="#63b8ff" points="313.24,-31.18 322.57,-26.16 312.14,-24.27 313.24,-31.18"/>
</a>
</g>
</g>
<!-- Node5 -->
<g id="Node000005" class="node">
<title>Node5</title>
<g id="a_Node000005"><a xlink:href="$namespaceexamples_1_1scheduling.html#a446a90f88f19e750f2a8c52f98660ee4" xlink:title=" ">
<polygon fill="white" stroke="#666666" points="623.5,-26 486.75,-26 486.75,-6 623.5,-6 623.5,-26"/>
<text text-anchor="middle" x="555.12" y="-12.5" font-family="Helvetica,sans-Serif" font-size="10.00">examples.scheduling.plot3d</text>
</a>
</g>
</g>
<!-- Node4&#45;&gt;Node5 -->
<g id="edge10_Node000004_Node000005" class="edge">
<title>Node4&#45;&gt;Node5</title>
<g id="a_edge10_Node000004_Node000005"><a xlink:title=" ">
<path fill="none" stroke="#63b8ff" d="M451.19,-16C459.03,-16 467.13,-16 475.18,-16"/>
<polygon fill="#63b8ff" stroke="#63b8ff" points="474.98,-19.5 484.98,-16 474.98,-12.5 474.98,-19.5"/>
</a>
</g>
</g>
</g>
</svg>
