<?xml version="1.0" encoding="UTF-8" standalone="no"?>
<!DOCTYPE svg PUBLIC "-//W3C//DTD SVG 1.1//EN"
 "http://www.w3.org/Graphics/SVG/1.1/DTD/svg11.dtd">
<!-- Generated by graphviz version 12.2.1 (20241206.2353)
 -->
<!-- Title: fcmaes.journal.trial_value Pages: 1 -->
<svg width="606pt" height="91pt"
 viewBox="0.00 0.00 606.00 91.00" xmlns="http://www.w3.org/2000/svg" xmlns:xlink="http://www.w3.org/1999/xlink">
<g id="graph0" class="graph" transform="scale(1 1) rotate(0) translate(4 87)">
<title>fcmaes.journal.trial_value</title>
<!-- Node1 -->
<g id="Node000001" class="node">
<title>Node1</title>
<g id="a_Node000001"><a xlink:title="Creates and returns a JSON representation of a trial value message.">
<polygon fill="#999999" stroke="#666666" points="598,-48 499.5,-48 499.5,-16 598,-16 598,-48"/>
<text text-anchor="start" x="507.5" y="-34.5" font-family="Helvetica,sans-Serif" font-size="10.00">fcmaes.journal.trial</text>
<text text-anchor="middle" x="548.75" y="-22.5" font-family="Helvetica,sans-Serif" font-size="10.00">_value</text>
</a>
</g>
</g>
<!-- Node2 -->
<g id="Node000002" class="node">
<title>Node2</title>
<g id="a_Node000002"><a xlink:href="$classfcmaes_1_1journal_1_1journal__wrapper.html#a36307cef398f9219427d7c4802c7079a" xlink:title="Stores the provided y value, associated with a worker and trial ID, in the list of ys.">
<polygon fill="white" stroke="#666666" points="448.88,-70 337.62,-70 337.62,-38 448.88,-38 448.88,-70"/>
<text text-anchor="start" x="345.62" y="-56.5" font-family="Helvetica,sans-Serif" font-size="10.00">fcmaes.journal.journal</text>
<text text-anchor="middle" x="393.25" y="-44.5" font-family="Helvetica,sans-Serif" font-size="10.00">_wrapper.store_y</text>
</a>
</g>
</g>
<!-- Node1&#45;&gt;Node2 -->
<g id="edge7_Node000001_Node000002" class="edge">
<title>Node1&#45;&gt;Node2</title>
<g id="a_edge7_Node000001_Node000002"><a xlink:title=" ">
<path fill="none" stroke="#63b8ff" d="M488.13,-40.55C475.31,-42.38 461.81,-44.32 449.18,-46.13"/>
<polygon fill="#63b8ff" stroke="#63b8ff" points="488.28,-44.06 497.68,-39.18 487.29,-37.13 488.28,-44.06"/>
</a>
</g>
</g>
<!-- Node6 -->
<g id="Node000006" class="node">
<title>Node6</title>
<g id="a_Node000006"><a xlink:href="$classfcmaes_1_1journal_1_1_journal.html#a657e3ac3b8ab3aa80bed8190a69e753d" xlink:title="Writes the trial value to a file and ensures that data is written to disk.">
<polygon fill="white" stroke="#666666" points="463.5,-20 323,-20 323,0 463.5,0 463.5,-20"/>
<text text-anchor="middle" x="393.25" y="-6.5" font-family="Helvetica,sans-Serif" font-size="10.00">fcmaes.journal.Journal.value</text>
</a>
</g>
</g>
<!-- Node1&#45;&gt;Node6 -->
<g id="edge11_Node000001_Node000006" class="edge">
<title>Node1&#45;&gt;Node6</title>
<g id="a_edge11_Node000001_Node000006"><a xlink:title=" ">
<path fill="none" stroke="#63b8ff" d="M487.85,-23.42C479.97,-22.29 471.84,-21.12 463.81,-19.97"/>
<polygon fill="#63b8ff" stroke="#63b8ff" points="487.29,-26.87 497.68,-24.82 488.28,-19.94 487.29,-26.87"/>
</a>
</g>
</g>
<!-- Node3 -->
<g id="Node000003" class="node">
<title>Node3</title>
<g id="a_Node000003"><a xlink:href="$classfcmaes_1_1journal_1_1journal__wrapper.html#ad219e74b48d4588e84683ec326143a48" xlink:title="Executes the callable functionality, managing and processing a batch of inputs and outputs concurrent...">
<polygon fill="white" stroke="#666666" points="265.62,-70 154.38,-70 154.38,-38 265.62,-38 265.62,-70"/>
<text text-anchor="start" x="162.38" y="-56.5" font-family="Helvetica,sans-Serif" font-size="10.00">fcmaes.journal.journal</text>
<text text-anchor="middle" x="210" y="-44.5" font-family="Helvetica,sans-Serif" font-size="10.00">_wrapper.__call__</text>
</a>
</g>
</g>
<!-- Node2&#45;&gt;Node3 -->
<g id="edge8_Node000002_Node000003" class="edge">
<title>Node2&#45;&gt;Node3</title>
<g id="a_edge8_Node000002_Node000003"><a xlink:title=" ">
<path fill="none" stroke="#63b8ff" d="M325.99,-54C306.28,-54 284.91,-54 266,-54"/>
<polygon fill="#63b8ff" stroke="#63b8ff" points="325.86,-57.5 335.86,-54 325.86,-50.5 325.86,-57.5"/>
</a>
</g>
</g>
<!-- Node4 -->
<g id="Node000004" class="node">
<title>Node4</title>
<g id="a_Node000004"><a xlink:href="$classhbv_1_1hbv.html#a89aea998d9546dc3465bf46fbee95689" xlink:title=" ">
<polygon fill="white" stroke="#666666" points="97,-83 0,-83 0,-63 97,-63 97,-83"/>
<text text-anchor="middle" x="48.5" y="-69.5" font-family="Helvetica,sans-Serif" font-size="10.00">hbv.hbv.qd_fitness</text>
</a>
</g>
</g>
<!-- Node3&#45;&gt;Node4 -->
<g id="edge9_Node000003_Node000004" class="edge">
<title>Node3&#45;&gt;Node4</title>
<g id="a_edge9_Node000003_Node000004"><a xlink:title=" ">
<path fill="none" stroke="#63b8ff" d="M143.09,-61.85C127.75,-63.68 111.69,-65.59 97.3,-67.31"/>
<polygon fill="#63b8ff" stroke="#63b8ff" points="143.09,-65.38 152.61,-60.72 142.26,-58.43 143.09,-65.38"/>
</a>
</g>
</g>
<!-- Node5 -->
<g id="Node000005" class="node">
<title>Node5</title>
<g id="a_Node000005"><a xlink:href="$classlrgv_1_1lrgv.html#a527b9b7a7927721b5320ab433bf75aea" xlink:title=" ">
<polygon fill="white" stroke="#666666" points="97,-45 0,-45 0,-25 97,-25 97,-45"/>
<text text-anchor="middle" x="48.5" y="-31.5" font-family="Helvetica,sans-Serif" font-size="10.00">lrgv.lrgv.qd_fitness</text>
</a>
</g>
</g>
<!-- Node3&#45;&gt;Node5 -->
<g id="edge10_Node000003_Node000005" class="edge">
<title>Node3&#45;&gt;Node5</title>
<g id="a_edge10_Node000003_Node000005"><a xlink:title=" ">
<path fill="none" stroke="#63b8ff" d="M143.09,-46.15C127.75,-44.32 111.69,-42.41 97.3,-40.69"/>
<polygon fill="#63b8ff" stroke="#63b8ff" points="142.26,-49.57 152.61,-47.28 143.09,-42.62 142.26,-49.57"/>
</a>
</g>
</g>
<!-- Node7 -->
<g id="Node000007" class="node">
<title>Node7</title>
<g id="a_Node000007"><a xlink:href="$classfcmaes_1_1journal_1_1_journal.html#a7dd993c2fa0347ea449a35ec8c953120" xlink:title="Writes a list of values to corresponding trial IDs for all workers.">
<polygon fill="white" stroke="#666666" points="287,-20 133,-20 133,0 287,0 287,-20"/>
<text text-anchor="middle" x="210" y="-6.5" font-family="Helvetica,sans-Serif" font-size="10.00">fcmaes.journal.Journal.write_ys</text>
</a>
</g>
</g>
<!-- Node6&#45;&gt;Node7 -->
<g id="edge12_Node000006_Node000007" class="edge">
<title>Node6&#45;&gt;Node7</title>
<g id="a_edge12_Node000006_Node000007"><a xlink:title=" ">
<path fill="none" stroke="#63b8ff" d="M311.44,-10C303.42,-10 295.29,-10 287.31,-10"/>
<polygon fill="#63b8ff" stroke="#63b8ff" points="311.18,-13.5 321.18,-10 311.18,-6.5 311.18,-13.5"/>
</a>
</g>
</g>
</g>
</svg>
