<?xml version="1.0" encoding="UTF-8" standalone="no"?>
<!DOCTYPE svg PUBLIC "-//W3C//DTD SVG 1.1//EN"
 "http://www.w3.org/Graphics/SVG/1.1/DTD/svg11.dtd">
<!-- Generated by graphviz version 12.2.1 (20241206.2353)
 -->
<!-- Title: examples.elitescass2.run_diversifier Pages: 1 -->
<svg width="476pt" height="40pt"
 viewBox="0.00 0.00 476.00 40.00" xmlns="http://www.w3.org/2000/svg" xmlns:xlink="http://www.w3.org/1999/xlink">
<g id="graph0" class="graph" transform="scale(1 1) rotate(0) translate(4 36)">
<title>examples.elitescass2.run_diversifier</title>
<!-- Node1 -->
<g id="Node000001" class="node">
<title>Node1</title>
<g id="a_Node000001"><a xlink:title=" ">
<polygon fill="#999999" stroke="#666666" points="127,-32 0,-32 0,0 127,0 127,-32"/>
<text text-anchor="start" x="8" y="-18.5" font-family="Helvetica,sans-Serif" font-size="10.00">examples.elitescass2.run</text>
<text text-anchor="middle" x="63.5" y="-6.5" font-family="Helvetica,sans-Serif" font-size="10.00">_diversifier</text>
</a>
</g>
</g>
<!-- Node2 -->
<g id="Node000002" class="node">
<title>Node2</title>
<g id="a_Node000002"><a xlink:href="$namespaceexamples_1_1elitescass2.html#a30538a53214b86ebd4dde6f1ce3fe044" xlink:title=" ">
<polygon fill="white" stroke="#666666" points="292.25,-32 163,-32 163,0 292.25,0 292.25,-32"/>
<text text-anchor="start" x="171" y="-18.5" font-family="Helvetica,sans-Serif" font-size="10.00">examples.elitescass2.plot</text>
<text text-anchor="middle" x="227.62" y="-6.5" font-family="Helvetica,sans-Serif" font-size="10.00">_archive</text>
</a>
</g>
</g>
<!-- Node1&#45;&gt;Node2 -->
<g id="edge3_Node000001_Node000002" class="edge">
<title>Node1&#45;&gt;Node2</title>
<g id="a_edge3_Node000001_Node000002"><a xlink:title=" ">
<path fill="none" stroke="#63b8ff" d="M127.18,-16C135.06,-16 143.17,-16 151.22,-16"/>
<polygon fill="#63b8ff" stroke="#63b8ff" points="150.99,-19.5 160.99,-16 150.99,-12.5 150.99,-19.5"/>
</a>
</g>
</g>
<!-- Node3 -->
<g id="Node000003" class="node">
<title>Node3</title>
<g id="a_Node000003"><a xlink:href="$namespaceexamples_1_1elitescass2.html#ab94c74c431f8fff119e0db2a1ba6aec5" xlink:title=" ">
<polygon fill="white" stroke="#666666" points="468,-26 328.25,-26 328.25,-6 468,-6 468,-26"/>
<text text-anchor="middle" x="398.12" y="-12.5" font-family="Helvetica,sans-Serif" font-size="10.00">examples.elitescass2.plot3d</text>
</a>
</g>
</g>
<!-- Node2&#45;&gt;Node3 -->
<g id="edge4_Node000002_Node000003" class="edge">
<title>Node2&#45;&gt;Node3</title>
<g id="a_edge4_Node000002_Node000003"><a xlink:title=" ">
<path fill="none" stroke="#63b8ff" d="M292.33,-16C300.25,-16 308.42,-16 316.55,-16"/>
<polygon fill="#63b8ff" stroke="#63b8ff" points="316.47,-19.5 326.47,-16 316.47,-12.5 316.47,-19.5"/>
</a>
</g>
</g>
</g>
</svg>
