<?xml version="1.0" encoding="UTF-8" standalone="no"?>
<!DOCTYPE svg PUBLIC "-//W3C//DTD SVG 1.1//EN"
 "http://www.w3.org/Graphics/SVG/1.1/DTD/svg11.dtd">
<!-- Generated by graphviz version 12.2.1 (20241206.2353)
 -->
<!-- Title: examples.gear_train.feasable_ratio Pages: 1 -->
<svg width="490pt" height="78pt"
 viewBox="0.00 0.00 490.25 78.00" xmlns="http://www.w3.org/2000/svg" xmlns:xlink="http://www.w3.org/1999/xlink">
<g id="graph0" class="graph" transform="scale(1 1) rotate(0) translate(4 74)">
<title>examples.gear_train.feasable_ratio</title>
<!-- Node1 -->
<g id="Node000001" class="node">
<title>Node1</title>
<g id="a_Node000001"><a xlink:title=" ">
<polygon fill="#999999" stroke="#666666" points="143.5,-48 0,-48 0,-16 143.5,-16 143.5,-48"/>
<text text-anchor="start" x="8" y="-34.5" font-family="Helvetica,sans-Serif" font-size="10.00">examples.gear_train.feasable</text>
<text text-anchor="middle" x="71.75" y="-22.5" font-family="Helvetica,sans-Serif" font-size="10.00">_ratio</text>
</a>
</g>
</g>
<!-- Node2 -->
<g id="Node000002" class="node">
<title>Node2</title>
<g id="a_Node000002"><a xlink:href="$namespaceexamples_1_1gear__train.html#a8650b80b6d76475be4dfd225a55c62b0" xlink:title=" ">
<polygon fill="white" stroke="#666666" points="295.62,-70 188.88,-70 188.88,-38 295.62,-38 295.62,-70"/>
<text text-anchor="start" x="196.88" y="-56.5" font-family="Helvetica,sans-Serif" font-size="10.00">examples.gear_train.</text>
<text text-anchor="middle" x="242.25" y="-44.5" font-family="Helvetica,sans-Serif" font-size="10.00">_feasible</text>
</a>
</g>
</g>
<!-- Node1&#45;&gt;Node2 -->
<g id="edge4_Node000001_Node000002" class="edge">
<title>Node1&#45;&gt;Node2</title>
<g id="a_edge4_Node000001_Node000002"><a xlink:title=" ">
<path fill="none" stroke="#63b8ff" d="M143.72,-41.27C154.87,-42.72 166.33,-44.22 177.31,-45.65"/>
<polygon fill="#63b8ff" stroke="#63b8ff" points="176.67,-49.1 187.04,-46.92 177.58,-42.16 176.67,-49.1"/>
</a>
</g>
</g>
<!-- Node4 -->
<g id="Node000004" class="node">
<title>Node4</title>
<g id="a_Node000004"><a xlink:href="$namespaceexamples_1_1gear__train.html#aa60f94f1dcb8bd291893acc7c3284ffb" xlink:title=" ">
<polygon fill="white" stroke="#666666" points="305,-20 179.5,-20 179.5,0 305,0 305,-20"/>
<text text-anchor="middle" x="242.25" y="-6.5" font-family="Helvetica,sans-Serif" font-size="10.00">examples.gear_train.ratio</text>
</a>
</g>
</g>
<!-- Node1&#45;&gt;Node4 -->
<g id="edge6_Node000001_Node000004" class="edge">
<title>Node1&#45;&gt;Node4</title>
<g id="a_edge6_Node000001_Node000004"><a xlink:title=" ">
<path fill="none" stroke="#63b8ff" d="M143.72,-22.73C151.73,-21.69 159.9,-20.62 167.94,-19.57"/>
<polygon fill="#63b8ff" stroke="#63b8ff" points="168.22,-23.07 177.68,-18.3 167.31,-16.12 168.22,-23.07"/>
</a>
</g>
</g>
<!-- Node3 -->
<g id="Node000003" class="node">
<title>Node3</title>
<g id="a_Node000003"><a xlink:href="$namespaceexamples_1_1gear__train.html#aed91576b10d97cb488c1badbe66e796c" xlink:title=" ">
<polygon fill="white" stroke="#666666" points="482.25,-64 341,-64 341,-44 482.25,-44 482.25,-64"/>
<text text-anchor="middle" x="411.62" y="-50.5" font-family="Helvetica,sans-Serif" font-size="10.00">examples.gear_train.discrete</text>
</a>
</g>
</g>
<!-- Node2&#45;&gt;Node3 -->
<g id="edge5_Node000002_Node000003" class="edge">
<title>Node2&#45;&gt;Node3</title>
<g id="a_edge5_Node000002_Node000003"><a xlink:title=" ">
<path fill="none" stroke="#63b8ff" d="M295.75,-54C306.39,-54 317.82,-54 329.19,-54"/>
<polygon fill="#63b8ff" stroke="#63b8ff" points="329,-57.5 339,-54 329,-50.5 329,-57.5"/>
</a>
</g>
</g>
</g>
</svg>
