<?xml version="1.0" encoding="UTF-8" standalone="no"?>
<!DOCTYPE svg PUBLIC "-//W3C//DTD SVG 1.1//EN"
 "http://www.w3.org/Graphics/SVG/1.1/DTD/svg11.dtd">
<!-- Generated by graphviz version 12.2.1 (20241206.2353)
 -->
<!-- Title: examples.scheduling.select_dvs Pages: 1 -->
<svg width="725pt" height="40pt"
 viewBox="0.00 0.00 724.50 40.00" xmlns="http://www.w3.org/2000/svg" xmlns:xlink="http://www.w3.org/1999/xlink">
<g id="graph0" class="graph" transform="scale(1 1) rotate(0) translate(4 36)">
<title>examples.scheduling.select_dvs</title>
<!-- Node1 -->
<g id="Node000001" class="node">
<title>Node1</title>
<g id="a_Node000001"><a xlink:title=" ">
<polygon fill="#999999" stroke="#666666" points="157.75,-26 0,-26 0,-6 157.75,-6 157.75,-26"/>
<text text-anchor="middle" x="78.88" y="-12.5" font-family="Helvetica,sans-Serif" font-size="10.00">examples.scheduling.select_dvs</text>
</a>
</g>
</g>
<!-- Node2 -->
<g id="Node000002" class="node">
<title>Node2</title>
<g id="a_Node000002"><a xlink:href="$namespaceexamples_1_1scheduling.html#a65b621b377aebb2c8a0b9af590aa280d" xlink:title=" ">
<polygon fill="white" stroke="#666666" points="344.75,-32 193.75,-32 193.75,0 344.75,0 344.75,-32"/>
<text text-anchor="start" x="201.75" y="-18.5" font-family="Helvetica,sans-Serif" font-size="10.00">examples.scheduling.trajectory</text>
<text text-anchor="middle" x="269.25" y="-6.5" font-family="Helvetica,sans-Serif" font-size="10.00">_selection</text>
</a>
</g>
</g>
<!-- Node1&#45;&gt;Node2 -->
<g id="edge4_Node000001_Node000002" class="edge">
<title>Node1&#45;&gt;Node2</title>
<g id="a_edge4_Node000001_Node000002"><a xlink:title=" ">
<path fill="none" stroke="#63b8ff" d="M158.13,-16C165.94,-16 173.9,-16 181.79,-16"/>
<polygon fill="#63b8ff" stroke="#63b8ff" points="181.75,-19.5 191.75,-16 181.75,-12.5 181.75,-19.5"/>
</a>
</g>
</g>
<!-- Node3 -->
<g id="Node000003" class="node">
<title>Node3</title>
<g id="a_Node000003"><a xlink:href="$namespaceexamples_1_1scheduling.html#a9b78175a9bd193289a2db7a992840231" xlink:title=" ">
<polygon fill="white" stroke="#666666" points="529.5,-26 380.75,-26 380.75,-6 529.5,-6 529.5,-26"/>
<text text-anchor="middle" x="455.12" y="-12.5" font-family="Helvetica,sans-Serif" font-size="10.00">examples.scheduling.disjoined</text>
</a>
</g>
</g>
<!-- Node2&#45;&gt;Node3 -->
<g id="edge5_Node000002_Node000003" class="edge">
<title>Node2&#45;&gt;Node3</title>
<g id="a_edge5_Node000002_Node000003"><a xlink:title=" ">
<path fill="none" stroke="#63b8ff" d="M345.04,-16C352.95,-16 361.03,-16 369.04,-16"/>
<polygon fill="#63b8ff" stroke="#63b8ff" points="368.78,-19.5 378.78,-16 368.78,-12.5 368.78,-19.5"/>
</a>
</g>
</g>
<!-- Node4 -->
<g id="Node000004" class="node">
<title>Node4</title>
<g id="a_Node000004"><a xlink:href="$namespaceexamples_1_1scheduling.html#a171925bee0250e0755f9521ef6756bc7" xlink:title=" ">
<polygon fill="white" stroke="#666666" points="716.5,-26 565.5,-26 565.5,-6 716.5,-6 716.5,-26"/>
<text text-anchor="middle" x="641" y="-12.5" font-family="Helvetica,sans-Serif" font-size="10.00">examples.scheduling.next_free</text>
</a>
</g>
</g>
<!-- Node3&#45;&gt;Node4 -->
<g id="edge6_Node000003_Node000004" class="edge">
<title>Node3&#45;&gt;Node4</title>
<g id="a_edge6_Node000003_Node000004"><a xlink:title=" ">
<path fill="none" stroke="#63b8ff" d="M529.85,-16C537.73,-16 545.8,-16 553.8,-16"/>
<polygon fill="#63b8ff" stroke="#63b8ff" points="553.54,-19.5 563.54,-16 553.54,-12.5 553.54,-19.5"/>
</a>
</g>
</g>
</g>
</svg>
