<?xml version="1.0" encoding="UTF-8" standalone="no"?>
<!DOCTYPE svg PUBLIC "-//W3C//DTD SVG 1.1//EN"
 "http://www.w3.org/Graphics/SVG/1.1/DTD/svg11.dtd">
<!-- Generated by graphviz version 12.2.1 (20241206.2353)
 -->
<!-- Title: examples.vessel.test_minimize_SLSQP Pages: 1 -->
<svg width="976pt" height="144pt"
 viewBox="0.00 0.00 976.25 144.27" xmlns="http://www.w3.org/2000/svg" xmlns:xlink="http://www.w3.org/1999/xlink">
<g id="graph0" class="graph" transform="scale(1 1) rotate(0) translate(4 140.27)">
<title>examples.vessel.test_minimize_SLSQP</title>
<!-- Node1 -->
<g id="Node000001" class="node">
<title>Node1</title>
<g id="a_Node000001"><a xlink:title=" ">
<polygon fill="#999999" stroke="#666666" points="109,-86 0,-86 0,-54 109,-54 109,-86"/>
<text text-anchor="start" x="8" y="-72.5" font-family="Helvetica,sans-Serif" font-size="10.00">examples.vessel.test</text>
<text text-anchor="middle" x="54.5" y="-60.5" font-family="Helvetica,sans-Serif" font-size="10.00">_minimize_SLSQP</text>
</a>
</g>
</g>
<!-- Node2 -->
<g id="Node000002" class="node">
<title>Node2</title>
<g id="a_Node000002"><a xlink:href="$namespaceexamples_1_1vessel.html#aa3edc89d9a8061a39a6985e4a588ec96" xlink:title=" ">
<polygon fill="white" stroke="#666666" points="256.25,-86 145,-86 145,-54 256.25,-54 256.25,-86"/>
<text text-anchor="start" x="153" y="-72.5" font-family="Helvetica,sans-Serif" font-size="10.00">examples.vessel.print</text>
<text text-anchor="middle" x="200.62" y="-60.5" font-family="Helvetica,sans-Serif" font-size="10.00">_result</text>
</a>
</g>
</g>
<!-- Node1&#45;&gt;Node2 -->
<g id="edge12_Node000001_Node000002" class="edge">
<title>Node1&#45;&gt;Node2</title>
<g id="a_edge12_Node000001_Node000002"><a xlink:title=" ">
<path fill="none" stroke="#63b8ff" d="M109.17,-70C117.11,-70 125.37,-70 133.53,-70"/>
<polygon fill="#63b8ff" stroke="#63b8ff" points="133.44,-73.5 143.44,-70 133.44,-66.5 133.44,-73.5"/>
</a>
</g>
</g>
<!-- Node3 -->
<g id="Node000003" class="node">
<title>Node3</title>
<g id="a_Node000003"><a xlink:href="$namespaceexamples_1_1vessel.html#aa26c59f34fa12f86c197263f10fd1dca" xlink:title=" ">
<polygon fill="white" stroke="#666666" points="791.75,-122 660.25,-122 660.25,-102 791.75,-102 791.75,-122"/>
<text text-anchor="middle" x="726" y="-108.5" font-family="Helvetica,sans-Serif" font-size="10.00">examples.vessel._feasible</text>
</a>
</g>
</g>
<!-- Node2&#45;&gt;Node3 -->
<g id="edge13_Node000002_Node000003" class="edge">
<title>Node2&#45;&gt;Node3</title>
<g id="a_edge13_Node000002_Node000003"><a xlink:title=" ">
<path fill="none" stroke="#63b8ff" d="M225.36,-86.35C242.95,-97.42 267.97,-111.08 292.25,-117 414.68,-146.86 562.44,-135.45 649.78,-124.03"/>
<polygon fill="#63b8ff" stroke="#63b8ff" points="650.23,-127.5 659.68,-122.69 649.3,-120.56 650.23,-127.5"/>
</a>
</g>
</g>
<!-- Node5 -->
<g id="Node000005" class="node">
<title>Node5</title>
<g id="a_Node000005"><a xlink:href="$namespaceexamples_1_1vessel.html#a95a5805807fc62c2224ce037be72bee4" xlink:title=" ">
<polygon fill="white" stroke="#666666" points="421.5,-108 292.25,-108 292.25,-76 421.5,-76 421.5,-108"/>
<text text-anchor="start" x="300.25" y="-94.5" font-family="Helvetica,sans-Serif" font-size="10.00">examples.vessel.feasable</text>
<text text-anchor="middle" x="356.88" y="-82.5" font-family="Helvetica,sans-Serif" font-size="10.00">_cost_penalty</text>
</a>
</g>
</g>
<!-- Node2&#45;&gt;Node5 -->
<g id="edge15_Node000002_Node000005" class="edge">
<title>Node2&#45;&gt;Node5</title>
<g id="a_edge15_Node000002_Node000005"><a xlink:title=" ">
<path fill="none" stroke="#63b8ff" d="M256.44,-77.82C264.21,-78.93 272.31,-80.08 280.39,-81.23"/>
<polygon fill="#63b8ff" stroke="#63b8ff" points="279.86,-84.69 290.25,-82.64 280.85,-77.76 279.86,-84.69"/>
</a>
</g>
</g>
<!-- Node7 -->
<g id="Node000007" class="node">
<title>Node7</title>
<g id="a_Node000007"><a xlink:href="$namespaceexamples_1_1vessel.html#adda1cdd4b5189fb2a4b564572cdf0dcc" xlink:title=" ">
<polygon fill="white" stroke="#666666" points="786.5,-81 665.5,-81 665.5,-61 786.5,-61 786.5,-81"/>
<text text-anchor="middle" x="726" y="-67.5" font-family="Helvetica,sans-Serif" font-size="10.00">examples.vessel.weight</text>
</a>
</g>
</g>
<!-- Node2&#45;&gt;Node7 -->
<g id="edge22_Node000002_Node000007" class="edge">
<title>Node2&#45;&gt;Node7</title>
<g id="a_edge22_Node000002_Node000007"><a xlink:title=" ">
<path fill="none" stroke="#63b8ff" d="M256.73,-67.88C268.45,-67.52 280.76,-67.19 292.25,-67 419.55,-64.89 567.94,-67.33 653.72,-69.22"/>
<polygon fill="#63b8ff" stroke="#63b8ff" points="653.55,-72.71 663.63,-69.44 653.71,-65.71 653.55,-72.71"/>
</a>
</g>
</g>
<!-- Node8 -->
<g id="Node000008" class="node">
<title>Node8</title>
<g id="a_Node000008"><a xlink:href="$namespaceexamples_1_1vessel.html#a8adc06d6d9db18a2bfac93d6483c23af" xlink:title=" ">
<polygon fill="white" stroke="#666666" points="596.12,-20 472.12,-20 472.12,0 596.12,0 596.12,-20"/>
<text text-anchor="middle" x="534.12" y="-6.5" font-family="Helvetica,sans-Serif" font-size="10.00">examples.vessel.penalty</text>
</a>
</g>
</g>
<!-- Node2&#45;&gt;Node8 -->
<g id="edge21_Node000002_Node000008" class="edge">
<title>Node2&#45;&gt;Node8</title>
<g id="a_edge21_Node000002_Node000008"><a xlink:title=" ">
<path fill="none" stroke="#63b8ff" d="M236.17,-53.64C252.77,-46.47 273.17,-38.64 292.25,-34 347.73,-20.5 412.16,-14.57 460.42,-11.98"/>
<polygon fill="#63b8ff" stroke="#63b8ff" points="460.38,-15.48 470.19,-11.49 460.03,-8.49 460.38,-15.48"/>
</a>
</g>
</g>
<!-- Node4 -->
<g id="Node000004" class="node">
<title>Node4</title>
<g id="a_Node000004"><a xlink:href="$namespaceexamples_1_1vessel.html#a9b9b7d9b525b0e32dec4a679dd25fb79" xlink:title=" ">
<polygon fill="white" stroke="#666666" points="968.25,-122 841.25,-122 841.25,-102 968.25,-102 968.25,-122"/>
<text text-anchor="middle" x="904.75" y="-108.5" font-family="Helvetica,sans-Serif" font-size="10.00">examples.vessel.discrete</text>
</a>
</g>
</g>
<!-- Node3&#45;&gt;Node4 -->
<g id="edge14_Node000003_Node000004" class="edge">
<title>Node3&#45;&gt;Node4</title>
<g id="a_edge14_Node000003_Node000004"><a xlink:title=" ">
<path fill="none" stroke="#63b8ff" d="M792.06,-112C804.27,-112 817.12,-112 829.58,-112"/>
<polygon fill="#63b8ff" stroke="#63b8ff" points="829.37,-115.5 839.37,-112 829.37,-108.5 829.37,-115.5"/>
</a>
</g>
</g>
<!-- Node6 -->
<g id="Node000006" class="node">
<title>Node6</title>
<g id="a_Node000006"><a xlink:href="$namespaceexamples_1_1vessel.html#a68aa194637f52a545cb4d8e1f552f3f8" xlink:title=" ">
<polygon fill="white" stroke="#666666" points="610.75,-102 457.5,-102 457.5,-82 610.75,-82 610.75,-102"/>
<text text-anchor="middle" x="534.12" y="-88.5" font-family="Helvetica,sans-Serif" font-size="10.00">examples.vessel.feasable_cost</text>
</a>
</g>
</g>
<!-- Node5&#45;&gt;Node6 -->
<g id="edge16_Node000005_Node000006" class="edge">
<title>Node5&#45;&gt;Node6</title>
<g id="a_edge16_Node000005_Node000006"><a xlink:title=" ">
<path fill="none" stroke="#63b8ff" d="M421.64,-92C429.49,-92 437.62,-92 445.74,-92"/>
<polygon fill="#63b8ff" stroke="#63b8ff" points="445.68,-95.5 455.68,-92 445.68,-88.5 445.68,-95.5"/>
</a>
</g>
</g>
<!-- Node5&#45;&gt;Node8 -->
<g id="edge19_Node000005_Node000008" class="edge">
<title>Node5&#45;&gt;Node8</title>
<g id="a_edge19_Node000005_Node000008"><a xlink:title=" ">
<path fill="none" stroke="#63b8ff" d="M392.92,-75.6C424.37,-60.89 470.16,-39.46 500.77,-25.14"/>
<polygon fill="#63b8ff" stroke="#63b8ff" points="501.96,-28.45 509.54,-21.04 499,-22.11 501.96,-28.45"/>
</a>
</g>
</g>
<!-- Node6&#45;&gt;Node3 -->
<g id="edge17_Node000006_Node000003" class="edge">
<title>Node6&#45;&gt;Node3</title>
<g id="a_edge17_Node000006_Node000003"><a xlink:title=" ">
<path fill="none" stroke="#63b8ff" d="M610.99,-99.99C623.4,-101.3 636.27,-102.65 648.7,-103.96"/>
<polygon fill="#63b8ff" stroke="#63b8ff" points="648.15,-107.42 658.46,-104.99 648.88,-100.46 648.15,-107.42"/>
</a>
</g>
</g>
<!-- Node6&#45;&gt;Node7 -->
<g id="edge18_Node000006_Node000007" class="edge">
<title>Node6&#45;&gt;Node7</title>
<g id="a_edge18_Node000006_Node000007"><a xlink:title=" ">
<path fill="none" stroke="#63b8ff" d="M610.99,-83.61C625.17,-82.04 639.94,-80.41 653.97,-78.86"/>
<polygon fill="#63b8ff" stroke="#63b8ff" points="653.98,-82.38 663.54,-77.8 653.21,-75.42 653.98,-82.38"/>
</a>
</g>
</g>
<!-- Node9 -->
<g id="Node000009" class="node">
<title>Node9</title>
<g id="a_Node000009"><a xlink:href="$namespaceexamples_1_1vessel.html#acf59dad747a84939ba5b8e0da39d030b" xlink:title=" ">
<polygon fill="white" stroke="#666666" points="805.25,-20 646.75,-20 646.75,0 805.25,0 805.25,-20"/>
<text text-anchor="middle" x="726" y="-6.5" font-family="Helvetica,sans-Serif" font-size="10.00">examples.vessel.constraint_ineq</text>
</a>
</g>
</g>
<!-- Node8&#45;&gt;Node9 -->
<g id="edge20_Node000008_Node000009" class="edge">
<title>Node8&#45;&gt;Node9</title>
<g id="a_edge20_Node000008_Node000009"><a xlink:title=" ">
<path fill="none" stroke="#63b8ff" d="M596.51,-10C608.83,-10 622.01,-10 635.07,-10"/>
<polygon fill="#63b8ff" stroke="#63b8ff" points="634.97,-13.5 644.97,-10 634.97,-6.5 634.97,-13.5"/>
</a>
</g>
</g>
</g>
</svg>
