<?xml version="1.0" encoding="UTF-8" standalone="no"?>
<!DOCTYPE svg PUBLIC "-//W3C//DTD SVG 1.1//EN"
 "http://www.w3.org/Graphics/SVG/1.1/DTD/svg11.dtd">
<!-- Generated by graphviz version 12.2.1 (20241206.2353)
 -->
<!-- Title: examples.prophet_opt.fitness Pages: 1 -->
<svg width="346pt" height="78pt"
 viewBox="0.00 0.00 346.00 78.00" xmlns="http://www.w3.org/2000/svg" xmlns:xlink="http://www.w3.org/1999/xlink">
<g id="graph0" class="graph" transform="scale(1 1) rotate(0) translate(4 74)">
<title>examples.prophet_opt.fitness</title>
<!-- Node1 -->
<g id="Node000001" class="node">
<title>Node1</title>
<g id="a_Node000001"><a xlink:title=" ">
<polygon fill="#999999" stroke="#666666" points="144.25,-42 0,-42 0,-22 144.25,-22 144.25,-42"/>
<text text-anchor="middle" x="72.12" y="-28.5" font-family="Helvetica,sans-Serif" font-size="10.00">examples.prophet_opt.fitness</text>
</a>
</g>
</g>
<!-- Node2 -->
<g id="Node000002" class="node">
<title>Node2</title>
<g id="a_Node000002"><a xlink:href="$namespaceexamples_1_1prophet__opt.html#aaef1882f68b34d7af026e8781098c1d5" xlink:title=" ">
<polygon fill="white" stroke="#666666" points="323.38,-70 194.88,-70 194.88,-38 323.38,-38 323.38,-70"/>
<text text-anchor="start" x="202.88" y="-56.5" font-family="Helvetica,sans-Serif" font-size="10.00">examples.prophet_opt.btc</text>
<text text-anchor="middle" x="259.12" y="-44.5" font-family="Helvetica,sans-Serif" font-size="10.00">_eval_params</text>
</a>
</g>
</g>
<!-- Node1&#45;&gt;Node2 -->
<g id="edge3_Node000001_Node000002" class="edge">
<title>Node1&#45;&gt;Node2</title>
<g id="a_edge3_Node000001_Node000002"><a xlink:title=" ">
<path fill="none" stroke="#63b8ff" d="M144.65,-40.51C157.39,-42.02 170.69,-43.6 183.51,-45.13"/>
<polygon fill="#63b8ff" stroke="#63b8ff" points="182.79,-48.57 193.13,-46.27 183.61,-41.61 182.79,-48.57"/>
</a>
</g>
</g>
<!-- Node3 -->
<g id="Node000003" class="node">
<title>Node3</title>
<g id="a_Node000003"><a xlink:href="$namespaceexamples_1_1prophet__opt.html#a6de43eaac1a61a76257187d2827f2ece" xlink:title=" ">
<polygon fill="white" stroke="#666666" points="338,-20 180.25,-20 180.25,0 338,0 338,-20"/>
<text text-anchor="middle" x="259.12" y="-6.5" font-family="Helvetica,sans-Serif" font-size="10.00">examples.prophet_opt.convert_x</text>
</a>
</g>
</g>
<!-- Node1&#45;&gt;Node3 -->
<g id="edge4_Node000001_Node000003" class="edge">
<title>Node1&#45;&gt;Node3</title>
<g id="a_edge4_Node000001_Node000003"><a xlink:title=" ">
<path fill="none" stroke="#63b8ff" d="M144.65,-23.49C152.53,-22.56 160.62,-21.59 168.68,-20.64"/>
<polygon fill="#63b8ff" stroke="#63b8ff" points="169.02,-24.12 178.53,-19.47 168.19,-17.17 169.02,-24.12"/>
</a>
</g>
</g>
</g>
</svg>
