<?xml version="1.0" encoding="UTF-8" standalone="no"?>
<!DOCTYPE svg PUBLIC "-//W3C//DTD SVG 1.1//EN"
 "http://www.w3.org/Graphics/SVG/1.1/DTD/svg11.dtd">
<!-- Generated by graphviz version 12.2.1 (20241206.2353)
 -->
<!-- Title: _fcmaescpp/include/LBFGS.h Pages: 1 -->
<svg width="864pt" height="108pt"
 viewBox="0.00 0.00 863.62 108.00" xmlns="http://www.w3.org/2000/svg" xmlns:xlink="http://www.w3.org/1999/xlink">
<g id="graph0" class="graph" transform="scale(1 1) rotate(0) translate(4 104)">
<title>_fcmaescpp/include/LBFGS.h</title>
<!-- Node1 -->
<g id="Node000001" class="node">
<title>Node1</title>
<g id="a_Node000001"><a xlink:title=" ">
<polygon fill="#999999" stroke="#666666" points="388.88,-100 285.88,-100 285.88,-68 388.88,-68 388.88,-100"/>
<text text-anchor="start" x="293.88" y="-86.5" font-family="Helvetica,sans-Serif" font-size="10.00">_fcmaescpp/include</text>
<text text-anchor="middle" x="337.38" y="-74.5" font-family="Helvetica,sans-Serif" font-size="10.00">/LBFGS.h</text>
</a>
</g>
</g>
<!-- Node2 -->
<g id="Node000002" class="node">
<title>Node2</title>
<g id="a_Node000002"><a xlink:title=" ">
<polygon fill="#e0e0e0" stroke="#999999" points="64.75,-26 0,-26 0,-6 64.75,-6 64.75,-26"/>
<text text-anchor="middle" x="32.38" y="-12.5" font-family="Helvetica,sans-Serif" font-size="10.00">Eigen/Core</text>
</a>
</g>
</g>
<!-- Node1&#45;&gt;Node2 -->
<g id="edge1_Node000001_Node000002" class="edge">
<title>Node1&#45;&gt;Node2</title>
<g id="a_edge1_Node000001_Node000002"><a xlink:title=" ">
<path fill="none" stroke="#63b8ff" d="M285.44,-75.31C232,-66.85 146.6,-51.78 74.38,-32 72.1,-31.38 69.77,-30.69 67.43,-29.96"/>
<polygon fill="#63b8ff" stroke="#63b8ff" points="68.64,-26.67 58.04,-26.84 66.42,-33.32 68.64,-26.67"/>
</a>
</g>
</g>
<!-- Node3 -->
<g id="Node000003" class="node">
<title>Node3</title>
<g id="a_Node000003"><a xlink:title=" ">
<polygon fill="#e0e0e0" stroke="#999999" points="181.62,-26 83.12,-26 83.12,-6 181.62,-6 181.62,-26"/>
<text text-anchor="middle" x="132.38" y="-12.5" font-family="Helvetica,sans-Serif" font-size="10.00">LBFGSpp/Param.h</text>
</a>
</g>
</g>
<!-- Node1&#45;&gt;Node3 -->
<g id="edge2_Node000001_Node000003" class="edge">
<title>Node1&#45;&gt;Node3</title>
<g id="a_edge2_Node000001_Node000003"><a xlink:title=" ">
<path fill="none" stroke="#63b8ff" d="M289.31,-67.53C253.8,-56.09 206.01,-40.71 172.53,-29.93"/>
<polygon fill="#63b8ff" stroke="#63b8ff" points="173.79,-26.66 163.2,-26.92 171.65,-33.32 173.79,-26.66"/>
</a>
</g>
</g>
<!-- Node4 -->
<g id="Node000004" class="node">
<title>Node4</title>
<g id="a_Node000004"><a xlink:title=" ">
<polygon fill="#e0e0e0" stroke="#999999" points="313.12,-26 199.62,-26 199.62,-6 313.12,-6 313.12,-26"/>
<text text-anchor="middle" x="256.38" y="-12.5" font-family="Helvetica,sans-Serif" font-size="10.00">LBFGSpp/BFGSMat.h</text>
</a>
</g>
</g>
<!-- Node1&#45;&gt;Node4 -->
<g id="edge3_Node000001_Node000004" class="edge">
<title>Node1&#45;&gt;Node4</title>
<g id="a_edge3_Node000001_Node000004"><a xlink:title=" ">
<path fill="none" stroke="#63b8ff" d="M318.59,-67.69C305.95,-57.4 289.31,-43.84 276.42,-33.33"/>
<polygon fill="#63b8ff" stroke="#63b8ff" points="278.95,-30.88 268.98,-27.27 274.52,-36.3 278.95,-30.88"/>
</a>
</g>
</g>
<!-- Node5 -->
<g id="Node000005" class="node">
<title>Node5</title>
<g id="a_Node000005"><a xlink:title=" ">
<polygon fill="#e0e0e0" stroke="#999999" points="507.25,-26 331.5,-26 331.5,-6 507.25,-6 507.25,-26"/>
<text text-anchor="middle" x="419.38" y="-12.5" font-family="Helvetica,sans-Serif" font-size="10.00">LBFGSpp/LineSearchBacktracking.h</text>
</a>
</g>
</g>
<!-- Node1&#45;&gt;Node5 -->
<g id="edge4_Node000001_Node000005" class="edge">
<title>Node1&#45;&gt;Node5</title>
<g id="a_edge4_Node000001_Node000005"><a xlink:title=" ">
<path fill="none" stroke="#63b8ff" d="M356.39,-67.69C369.19,-57.4 386.03,-43.84 399.08,-33.33"/>
<polygon fill="#63b8ff" stroke="#63b8ff" points="401.03,-36.26 406.62,-27.27 396.64,-30.81 401.03,-36.26"/>
</a>
</g>
</g>
<!-- Node6 -->
<g id="Node000006" class="node">
<title>Node6</title>
<g id="a_Node000006"><a xlink:title=" ">
<polygon fill="#e0e0e0" stroke="#999999" points="691,-26 525.75,-26 525.75,-6 691,-6 691,-26"/>
<text text-anchor="middle" x="608.38" y="-12.5" font-family="Helvetica,sans-Serif" font-size="10.00">LBFGSpp/LineSearchBracketing.h</text>
</a>
</g>
</g>
<!-- Node1&#45;&gt;Node6 -->
<g id="edge5_Node000001_Node000006" class="edge">
<title>Node1&#45;&gt;Node6</title>
<g id="a_edge5_Node000001_Node000006"><a xlink:title=" ">
<path fill="none" stroke="#63b8ff" d="M389.31,-70.35C438.11,-58.47 510.64,-40.8 558.7,-29.1"/>
<polygon fill="#63b8ff" stroke="#63b8ff" points="559.4,-32.53 568.29,-26.76 557.74,-25.73 559.4,-32.53"/>
</a>
</g>
</g>
<!-- Node7 -->
<g id="Node000007" class="node">
<title>Node7</title>
<g id="a_Node000007"><a xlink:title=" ">
<polygon fill="#e0e0e0" stroke="#999999" points="855.62,-32 709.12,-32 709.12,0 855.62,0 855.62,-32"/>
<text text-anchor="start" x="717.12" y="-18.5" font-family="Helvetica,sans-Serif" font-size="10.00">LBFGSpp/LineSearchNocedal</text>
<text text-anchor="middle" x="782.38" y="-6.5" font-family="Helvetica,sans-Serif" font-size="10.00">Wright.h</text>
</a>
</g>
</g>
<!-- Node1&#45;&gt;Node7 -->
<g id="edge6_Node000001_Node000007" class="edge">
<title>Node1&#45;&gt;Node7</title>
<g id="a_edge6_Node000001_Node000007"><a xlink:title=" ">
<path fill="none" stroke="#63b8ff" d="M389.17,-76.41C457.49,-67.56 581.73,-50.95 697.47,-32.43"/>
<polygon fill="#63b8ff" stroke="#63b8ff" points="697.83,-35.92 707.15,-30.88 696.72,-29.01 697.83,-35.92"/>
</a>
</g>
</g>
</g>
</svg>
