<?xml version="1.0" encoding="UTF-8" standalone="no"?>
<!DOCTYPE svg PUBLIC "-//W3C//DTD SVG 1.1//EN"
 "http://www.w3.org/Graphics/SVG/1.1/DTD/svg11.dtd">
<!-- Generated by graphviz version 12.2.1 (20241206.2353)
 -->
<!-- Title: _fcmaescpp/include/LBFGSB.h Pages: 1 -->
<svg width="921pt" height="96pt"
 viewBox="0.00 0.00 921.25 96.00" xmlns="http://www.w3.org/2000/svg" xmlns:xlink="http://www.w3.org/1999/xlink">
<g id="graph0" class="graph" transform="scale(1 1) rotate(0) translate(4 92)">
<title>_fcmaescpp/include/LBFGSB.h</title>
<!-- Node1 -->
<g id="Node000001" class="node">
<title>Node1</title>
<g id="a_Node000001"><a xlink:title=" ">
<polygon fill="#999999" stroke="#666666" points="383.88,-88 280.88,-88 280.88,-56 383.88,-56 383.88,-88"/>
<text text-anchor="start" x="288.88" y="-74.5" font-family="Helvetica,sans-Serif" font-size="10.00">_fcmaescpp/include</text>
<text text-anchor="middle" x="332.38" y="-62.5" font-family="Helvetica,sans-Serif" font-size="10.00">/LBFGSB.h</text>
</a>
</g>
</g>
<!-- Node2 -->
<g id="Node000002" class="node">
<title>Node2</title>
<g id="a_Node000002"><a xlink:title=" ">
<polygon fill="#e0e0e0" stroke="#999999" points="58.75,-20 0,-20 0,0 58.75,0 58.75,-20"/>
<text text-anchor="middle" x="29.38" y="-6.5" font-family="Helvetica,sans-Serif" font-size="10.00">stdexcept</text>
</a>
</g>
</g>
<!-- Node1&#45;&gt;Node2 -->
<g id="edge1_Node000001_Node000002" class="edge">
<title>Node1&#45;&gt;Node2</title>
<g id="a_edge1_Node000001_Node000002"><a xlink:title=" ">
<path fill="none" stroke="#63b8ff" d="M280.45,-61.68C229.33,-52.35 148.77,-37.26 70.28,-20.56"/>
<polygon fill="#63b8ff" stroke="#63b8ff" points="71.21,-17.18 60.7,-18.51 69.75,-24.03 71.21,-17.18"/>
</a>
</g>
</g>
<!-- Node3 -->
<g id="Node000003" class="node">
<title>Node3</title>
<g id="a_Node000003"><a xlink:title=" ">
<polygon fill="#e0e0e0" stroke="#999999" points="119.88,-20 76.88,-20 76.88,0 119.88,0 119.88,-20"/>
<text text-anchor="middle" x="98.38" y="-6.5" font-family="Helvetica,sans-Serif" font-size="10.00">vector</text>
</a>
</g>
</g>
<!-- Node1&#45;&gt;Node3 -->
<g id="edge2_Node000001_Node000003" class="edge">
<title>Node1&#45;&gt;Node3</title>
<g id="a_edge2_Node000001_Node000003"><a xlink:title=" ">
<path fill="none" stroke="#63b8ff" d="M280.51,-58.52C241.9,-49.11 187.64,-35.62 131.28,-20.44"/>
<polygon fill="#63b8ff" stroke="#63b8ff" points="132.39,-17.12 121.82,-17.89 130.56,-23.88 132.39,-17.12"/>
</a>
</g>
</g>
<!-- Node4 -->
<g id="Node000004" class="node">
<title>Node4</title>
<g id="a_Node000004"><a xlink:title=" ">
<polygon fill="#e0e0e0" stroke="#999999" points="202.75,-20 138,-20 138,0 202.75,0 202.75,-20"/>
<text text-anchor="middle" x="170.38" y="-6.5" font-family="Helvetica,sans-Serif" font-size="10.00">Eigen/Core</text>
</a>
</g>
</g>
<!-- Node1&#45;&gt;Node4 -->
<g id="edge3_Node000001_Node000004" class="edge">
<title>Node1&#45;&gt;Node4</title>
<g id="a_edge3_Node000001_Node000004"><a xlink:title=" ">
<path fill="none" stroke="#63b8ff" d="M290.66,-55.55C264.52,-45.87 231.19,-33.53 206.25,-24.29"/>
<polygon fill="#63b8ff" stroke="#63b8ff" points="207.79,-21.12 197.2,-20.93 205.36,-27.69 207.79,-21.12"/>
</a>
</g>
</g>
<!-- Node5 -->
<g id="Node000005" class="node">
<title>Node5</title>
<g id="a_Node000005"><a xlink:title=" ">
<polygon fill="#e0e0e0" stroke="#999999" points="319.62,-20 221.12,-20 221.12,0 319.62,0 319.62,-20"/>
<text text-anchor="middle" x="270.38" y="-6.5" font-family="Helvetica,sans-Serif" font-size="10.00">LBFGSpp/Param.h</text>
</a>
</g>
</g>
<!-- Node1&#45;&gt;Node5 -->
<g id="edge4_Node000001_Node000005" class="edge">
<title>Node1&#45;&gt;Node5</title>
<g id="a_edge4_Node000001_Node000005"><a xlink:title=" ">
<path fill="none" stroke="#63b8ff" d="M316.41,-55.55C307.8,-47.22 297.14,-36.91 288.26,-28.3"/>
<polygon fill="#63b8ff" stroke="#63b8ff" points="290.8,-25.9 281.18,-21.46 285.94,-30.93 290.8,-25.9"/>
</a>
</g>
</g>
<!-- Node6 -->
<g id="Node000006" class="node">
<title>Node6</title>
<g id="a_Node000006"><a xlink:title=" ">
<polygon fill="#e0e0e0" stroke="#999999" points="451.12,-20 337.62,-20 337.62,0 451.12,0 451.12,-20"/>
<text text-anchor="middle" x="394.38" y="-6.5" font-family="Helvetica,sans-Serif" font-size="10.00">LBFGSpp/BFGSMat.h</text>
</a>
</g>
</g>
<!-- Node1&#45;&gt;Node6 -->
<g id="edge5_Node000001_Node000006" class="edge">
<title>Node1&#45;&gt;Node6</title>
<g id="a_edge5_Node000001_Node000006"><a xlink:title=" ">
<path fill="none" stroke="#63b8ff" d="M348.34,-55.55C356.95,-47.22 367.61,-36.91 376.49,-28.3"/>
<polygon fill="#63b8ff" stroke="#63b8ff" points="378.81,-30.93 383.57,-21.46 373.95,-25.9 378.81,-30.93"/>
</a>
</g>
</g>
<!-- Node7 -->
<g id="Node000007" class="node">
<title>Node7</title>
<g id="a_Node000007"><a xlink:title=" ">
<polygon fill="#e0e0e0" stroke="#999999" points="571.88,-20 468.88,-20 468.88,0 571.88,0 571.88,-20"/>
<text text-anchor="middle" x="520.38" y="-6.5" font-family="Helvetica,sans-Serif" font-size="10.00">LBFGSpp/Cauchy.h</text>
</a>
</g>
</g>
<!-- Node1&#45;&gt;Node7 -->
<g id="edge6_Node000001_Node000007" class="edge">
<title>Node1&#45;&gt;Node7</title>
<g id="a_edge6_Node000001_Node000007"><a xlink:title=" ">
<path fill="none" stroke="#63b8ff" d="M380.79,-55.55C411.56,-45.73 450.94,-33.16 480.02,-23.88"/>
<polygon fill="#63b8ff" stroke="#63b8ff" points="480.72,-27.33 489.18,-20.96 478.59,-20.66 480.72,-27.33"/>
</a>
</g>
</g>
<!-- Node8 -->
<g id="Node000008" class="node">
<title>Node8</title>
<g id="a_Node000008"><a xlink:title=" ">
<polygon fill="#e0e0e0" stroke="#999999" points="719,-20 589.75,-20 589.75,0 719,0 719,-20"/>
<text text-anchor="middle" x="654.38" y="-6.5" font-family="Helvetica,sans-Serif" font-size="10.00">LBFGSpp/SubspaceMin.h</text>
</a>
</g>
</g>
<!-- Node1&#45;&gt;Node8 -->
<g id="edge7_Node000001_Node000008" class="edge">
<title>Node1&#45;&gt;Node8</title>
<g id="a_edge7_Node000001_Node000008"><a xlink:title=" ">
<path fill="none" stroke="#63b8ff" d="M384.11,-61.36C440.81,-50.79 531.75,-33.85 592.26,-22.57"/>
<polygon fill="#63b8ff" stroke="#63b8ff" points="592.89,-26.02 602.08,-20.74 591.61,-19.14 592.89,-26.02"/>
</a>
</g>
</g>
<!-- Node9 -->
<g id="Node000009" class="node">
<title>Node9</title>
<g id="a_Node000009"><a xlink:title=" ">
<polygon fill="#e0e0e0" stroke="#999999" points="913.25,-20 737.5,-20 737.5,0 913.25,0 913.25,-20"/>
<text text-anchor="middle" x="825.38" y="-6.5" font-family="Helvetica,sans-Serif" font-size="10.00">LBFGSpp/LineSearchMoreThuente.h</text>
</a>
</g>
</g>
<!-- Node1&#45;&gt;Node9 -->
<g id="edge8_Node000001_Node000009" class="edge">
<title>Node1&#45;&gt;Node9</title>
<g id="a_edge8_Node000001_Node000009"><a xlink:title=" ">
<path fill="none" stroke="#63b8ff" d="M384.2,-64.69C467.84,-54.51 633.57,-34.34 736.39,-21.83"/>
<polygon fill="#63b8ff" stroke="#63b8ff" points="736.67,-25.32 746.18,-20.64 735.83,-18.37 736.67,-25.32"/>
</a>
</g>
</g>
</g>
</svg>
