<?xml version="1.0" encoding="UTF-8" standalone="no"?>
<!DOCTYPE svg PUBLIC "-//W3C//DTD SVG 1.1//EN"
 "http://www.w3.org/Graphics/SVG/1.1/DTD/svg11.dtd">
<!-- Generated by graphviz version 12.2.1 (20241206.2353)
 -->
<!-- Title: _fcmaescpp/acmaesoptimizer.cpp Pages: 1 -->
<svg width="809pt" height="140pt"
 viewBox="0.00 0.00 809.25 140.00" xmlns="http://www.w3.org/2000/svg" xmlns:xlink="http://www.w3.org/1999/xlink">
<g id="graph0" class="graph" transform="scale(1 1) rotate(0) translate(4 136)">
<title>_fcmaescpp/acmaesoptimizer.cpp</title>
<!-- Node1 -->
<g id="Node000001" class="node">
<title>Node1</title>
<g id="a_Node000001"><a xlink:title=" ">
<polygon fill="#999999" stroke="#666666" points="403,-132 237.75,-132 237.75,-112 403,-112 403,-132"/>
<text text-anchor="middle" x="320.38" y="-118.5" font-family="Helvetica,sans-Serif" font-size="10.00">_fcmaescpp/acmaesoptimizer.cpp</text>
</a>
</g>
</g>
<!-- Node2 -->
<g id="Node000002" class="node">
<title>Node2</title>
<g id="a_Node000002"><a xlink:title=" ">
<polygon fill="#e0e0e0" stroke="#999999" points="64.75,-20 0,-20 0,0 64.75,0 64.75,-20"/>
<text text-anchor="middle" x="32.38" y="-6.5" font-family="Helvetica,sans-Serif" font-size="10.00">Eigen/Core</text>
</a>
</g>
</g>
<!-- Node1&#45;&gt;Node2 -->
<g id="edge1_Node000001_Node000002" class="edge">
<title>Node1&#45;&gt;Node2</title>
<g id="a_edge1_Node000001_Node000002"><a xlink:title=" ">
<path fill="none" stroke="#63b8ff" d="M282.92,-111.56C252.04,-103.36 207.3,-90.55 169.38,-76 130.32,-61.02 86.96,-39.59 59.69,-25.49"/>
<polygon fill="#63b8ff" stroke="#63b8ff" points="61.56,-22.52 51.07,-21 58.32,-28.72 61.56,-22.52"/>
</a>
</g>
</g>
<!-- Node3 -->
<g id="Node000003" class="node">
<title>Node3</title>
<g id="a_Node000003"><a xlink:title=" ">
<polygon fill="#e0e0e0" stroke="#999999" points="418.88,-76 321.88,-76 321.88,-56 418.88,-56 418.88,-76"/>
<text text-anchor="middle" x="370.38" y="-62.5" font-family="Helvetica,sans-Serif" font-size="10.00">Eigen/Eigenvalues</text>
</a>
</g>
</g>
<!-- Node1&#45;&gt;Node3 -->
<g id="edge2_Node000001_Node000003" class="edge">
<title>Node1&#45;&gt;Node3</title>
<g id="a_edge2_Node000001_Node000003"><a xlink:title=" ">
<path fill="none" stroke="#63b8ff" d="M329.08,-111.59C335.97,-104.16 345.77,-93.58 354.09,-84.58"/>
<polygon fill="#63b8ff" stroke="#63b8ff" points="356.51,-87.12 360.74,-77.41 351.37,-82.37 356.51,-87.12"/>
</a>
</g>
</g>
<!-- Node4 -->
<g id="Node000004" class="node">
<title>Node4</title>
<g id="a_Node000004"><a xlink:title=" ">
<polygon fill="#e0e0e0" stroke="#999999" points="136.12,-20 82.62,-20 82.62,0 136.12,0 136.12,-20"/>
<text text-anchor="middle" x="109.38" y="-6.5" font-family="Helvetica,sans-Serif" font-size="10.00">iostream</text>
</a>
</g>
</g>
<!-- Node1&#45;&gt;Node4 -->
<g id="edge3_Node000001_Node000004" class="edge">
<title>Node1&#45;&gt;Node4</title>
<g id="a_edge3_Node000001_Node000004"><a xlink:title=" ">
<path fill="none" stroke="#63b8ff" d="M291.52,-111.54C268.01,-103.38 234.26,-90.63 206.38,-76 178.86,-61.56 149.52,-41.11 130.4,-27.02"/>
<polygon fill="#63b8ff" stroke="#63b8ff" points="132.72,-24.39 122.62,-21.21 128.53,-30 132.72,-24.39"/>
</a>
</g>
</g>
<!-- Node5 -->
<g id="Node000005" class="node">
<title>Node5</title>
<g id="a_Node000005"><a xlink:title=" ">
<polygon fill="#e0e0e0" stroke="#999999" points="202.5,-20 154.25,-20 154.25,0 202.5,0 202.5,-20"/>
<text text-anchor="middle" x="178.38" y="-6.5" font-family="Helvetica,sans-Serif" font-size="10.00">random</text>
</a>
</g>
</g>
<!-- Node1&#45;&gt;Node5 -->
<g id="edge4_Node000001_Node000005" class="edge">
<title>Node1&#45;&gt;Node5</title>
<g id="a_edge4_Node000001_Node000005"><a xlink:title=" ">
<path fill="none" stroke="#63b8ff" d="M294.6,-111.62C275.61,-103.91 249.8,-91.71 230.38,-76 214.25,-62.97 199.87,-44.13 190.34,-30.09"/>
<polygon fill="#63b8ff" stroke="#63b8ff" points="193.28,-28.19 184.88,-21.73 187.42,-32.01 193.28,-28.19"/>
</a>
</g>
</g>
<!-- Node6 -->
<g id="Node000006" class="node">
<title>Node6</title>
<g id="a_Node000006"><a xlink:title=" ">
<polygon fill="#e0e0e0" stroke="#999999" points="479.88,-76 436.88,-76 436.88,-56 479.88,-56 479.88,-76"/>
<text text-anchor="middle" x="458.38" y="-62.5" font-family="Helvetica,sans-Serif" font-size="10.00">float.h</text>
</a>
</g>
</g>
<!-- Node1&#45;&gt;Node6 -->
<g id="edge5_Node000001_Node000006" class="edge">
<title>Node1&#45;&gt;Node6</title>
<g id="a_edge5_Node000001_Node000006"><a xlink:title=" ">
<path fill="none" stroke="#63b8ff" d="M344.41,-111.59C367.01,-102.75 401.02,-89.44 426,-79.67"/>
<polygon fill="#63b8ff" stroke="#63b8ff" points="426.99,-83.04 435.02,-76.14 424.43,-76.52 426.99,-83.04"/>
</a>
</g>
</g>
<!-- Node7 -->
<g id="Node000007" class="node">
<title>Node7</title>
<g id="a_Node000007"><a xlink:title=" ">
<polygon fill="#e0e0e0" stroke="#999999" points="546.5,-76 498.25,-76 498.25,-56 546.5,-56 546.5,-76"/>
<text text-anchor="middle" x="522.38" y="-62.5" font-family="Helvetica,sans-Serif" font-size="10.00">stdint.h</text>
</a>
</g>
</g>
<!-- Node1&#45;&gt;Node7 -->
<g id="edge6_Node000001_Node000007" class="edge">
<title>Node1&#45;&gt;Node7</title>
<g id="a_edge6_Node000001_Node000007"><a xlink:title=" ">
<path fill="none" stroke="#63b8ff" d="M356,-111.58C387.94,-103.12 436.37,-90.26 487.03,-76.62"/>
<polygon fill="#63b8ff" stroke="#63b8ff" points="487.66,-80.08 496.41,-74.09 485.84,-73.32 487.66,-80.08"/>
</a>
</g>
</g>
<!-- Node8 -->
<g id="Node000008" class="node">
<title>Node8</title>
<g id="a_Node000008"><a xlink:title=" ">
<polygon fill="#e0e0e0" stroke="#999999" points="604.38,-76 564.38,-76 564.38,-56 604.38,-56 604.38,-76"/>
<text text-anchor="middle" x="584.38" y="-62.5" font-family="Helvetica,sans-Serif" font-size="10.00">ctime</text>
</a>
</g>
</g>
<!-- Node1&#45;&gt;Node8 -->
<g id="edge7_Node000001_Node000008" class="edge">
<title>Node1&#45;&gt;Node8</title>
<g id="a_edge7_Node000001_Node000008"><a xlink:title=" ">
<path fill="none" stroke="#63b8ff" d="M379.69,-111.53C424.83,-103.9 488.69,-92.18 553.01,-76.37"/>
<polygon fill="#63b8ff" stroke="#63b8ff" points="553.85,-79.77 562.71,-73.95 552.16,-72.98 553.85,-79.77"/>
</a>
</g>
</g>
<!-- Node9 -->
<g id="Node000009" class="node">
<title>Node9</title>
<g id="a_Node000009"><a xlink:href="evaluator_8h.html" target="_top" xlink:title=" ">
<polygon fill="white" stroke="#666666" points="303.38,-76 239.38,-76 239.38,-56 303.38,-56 303.38,-76"/>
<text text-anchor="middle" x="271.38" y="-62.5" font-family="Helvetica,sans-Serif" font-size="10.00">evaluator.h</text>
</a>
</g>
</g>
<!-- Node1&#45;&gt;Node9 -->
<g id="edge8_Node000001_Node000009" class="edge">
<title>Node1&#45;&gt;Node9</title>
<g id="a_edge8_Node000001_Node000009"><a xlink:title=" ">
<path fill="none" stroke="#63b8ff" d="M311.84,-111.59C305.09,-104.16 295.49,-93.58 287.33,-84.58"/>
<polygon fill="#63b8ff" stroke="#63b8ff" points="290.14,-82.47 280.83,-77.42 284.96,-87.18 290.14,-82.47"/>
</a>
</g>
</g>
<!-- Node9&#45;&gt;Node2 -->
<g id="edge9_Node000009_Node000002" class="edge">
<title>Node9&#45;&gt;Node2</title>
<g id="a_edge9_Node000009_Node000002"><a xlink:title=" ">
<path fill="none" stroke="#63b8ff" d="M239.14,-57.72C197.12,-48.22 123.44,-31.58 76.32,-20.93"/>
<polygon fill="#63b8ff" stroke="#63b8ff" points="77.25,-17.55 66.72,-18.76 75.7,-24.38 77.25,-17.55"/>
</a>
</g>
</g>
<!-- Node9&#45;&gt;Node4 -->
<g id="edge10_Node000009_Node000004" class="edge">
<title>Node9&#45;&gt;Node4</title>
<g id="a_edge10_Node000009_Node000004"><a xlink:title=" ">
<path fill="none" stroke="#63b8ff" d="M243.16,-55.59C216.55,-46.72 176.49,-33.37 147.14,-23.59"/>
<polygon fill="#63b8ff" stroke="#63b8ff" points="148.49,-20.35 137.9,-20.51 146.28,-26.99 148.49,-20.35"/>
</a>
</g>
</g>
<!-- Node9&#45;&gt;Node5 -->
<g id="edge15_Node000009_Node000005" class="edge">
<title>Node9&#45;&gt;Node5</title>
<g id="a_edge15_Node000009_Node000005"><a xlink:title=" ">
<path fill="none" stroke="#63b8ff" d="M255.18,-55.59C241.13,-47.44 220.54,-35.48 204.22,-26"/>
<polygon fill="#63b8ff" stroke="#63b8ff" points="206.42,-23.23 196.01,-21.24 202.9,-29.29 206.42,-23.23"/>
</a>
</g>
</g>
<!-- Node10 -->
<g id="Node000010" class="node">
<title>Node10</title>
<g id="a_Node000010"><a xlink:title=" ">
<polygon fill="#e0e0e0" stroke="#999999" points="801.25,-20 745.5,-20 745.5,0 801.25,0 801.25,-20"/>
<text text-anchor="middle" x="773.38" y="-6.5" font-family="Helvetica,sans-Serif" font-size="10.00">algorithm</text>
</a>
</g>
</g>
<!-- Node9&#45;&gt;Node10 -->
<g id="edge11_Node000009_Node000010" class="edge">
<title>Node9&#45;&gt;Node10</title>
<g id="a_edge11_Node000009_Node000010"><a xlink:title=" ">
<path fill="none" stroke="#63b8ff" d="M303.86,-57.62C307.07,-57.01 310.28,-56.46 313.38,-56 496.35,-28.72 548.15,-49.54 733.92,-20.15"/>
<polygon fill="#63b8ff" stroke="#63b8ff" points="734.38,-23.62 743.69,-18.57 733.26,-16.71 734.38,-23.62"/>
</a>
</g>
</g>
<!-- Node11 -->
<g id="Node000011" class="node">
<title>Node11</title>
<g id="a_Node000011"><a xlink:title=" ">
<polygon fill="#e0e0e0" stroke="#999999" points="262.5,-20 220.25,-20 220.25,0 262.5,0 262.5,-20"/>
<text text-anchor="middle" x="241.38" y="-6.5" font-family="Helvetica,sans-Serif" font-size="10.00">queue</text>
</a>
</g>
</g>
<!-- Node9&#45;&gt;Node11 -->
<g id="edge12_Node000009_Node000011" class="edge">
<title>Node9&#45;&gt;Node11</title>
<g id="a_edge12_Node000009_Node000011"><a xlink:title=" ">
<path fill="none" stroke="#63b8ff" d="M266.15,-55.59C262.28,-48.63 256.87,-38.89 252.09,-30.29"/>
<polygon fill="#63b8ff" stroke="#63b8ff" points="255.19,-28.66 247.28,-21.62 249.07,-32.06 255.19,-28.66"/>
</a>
</g>
</g>
<!-- Node12 -->
<g id="Node000012" class="node">
<title>Node12</title>
<g id="a_Node000012"><a xlink:title=" ">
<polygon fill="#e0e0e0" stroke="#999999" points="323.88,-20 280.88,-20 280.88,0 323.88,0 323.88,-20"/>
<text text-anchor="middle" x="302.38" y="-6.5" font-family="Helvetica,sans-Serif" font-size="10.00">mutex</text>
</a>
</g>
</g>
<!-- Node9&#45;&gt;Node12 -->
<g id="edge13_Node000009_Node000012" class="edge">
<title>Node9&#45;&gt;Node12</title>
<g id="a_edge13_Node000009_Node000012"><a xlink:title=" ">
<path fill="none" stroke="#63b8ff" d="M276.77,-55.59C280.82,-48.55 286.49,-38.67 291.47,-30"/>
<polygon fill="#63b8ff" stroke="#63b8ff" points="294.34,-32.03 296.28,-21.61 288.27,-28.54 294.34,-32.03"/>
</a>
</g>
</g>
<!-- Node13 -->
<g id="Node000013" class="node">
<title>Node13</title>
<g id="a_Node000013"><a xlink:title=" ">
<polygon fill="#e0e0e0" stroke="#999999" points="384.88,-20 341.88,-20 341.88,0 384.88,0 384.88,-20"/>
<text text-anchor="middle" x="363.38" y="-6.5" font-family="Helvetica,sans-Serif" font-size="10.00">thread</text>
</a>
</g>
</g>
<!-- Node9&#45;&gt;Node13 -->
<g id="edge14_Node000009_Node000013" class="edge">
<title>Node9&#45;&gt;Node13</title>
<g id="a_edge14_Node000009_Node000013"><a xlink:title=" ">
<path fill="none" stroke="#63b8ff" d="M287.4,-55.59C301.17,-47.51 321.28,-35.71 337.35,-26.27"/>
<polygon fill="#63b8ff" stroke="#63b8ff" points="339.07,-29.33 345.92,-21.25 335.52,-23.29 339.07,-29.33"/>
</a>
</g>
</g>
<!-- Node14 -->
<g id="Node000014" class="node">
<title>Node14</title>
<g id="a_Node000014"><a xlink:title=" ">
<polygon fill="#e0e0e0" stroke="#999999" points="445.88,-20 402.88,-20 402.88,0 445.88,0 445.88,-20"/>
<text text-anchor="middle" x="424.38" y="-6.5" font-family="Helvetica,sans-Serif" font-size="10.00">vector</text>
</a>
</g>
</g>
<!-- Node9&#45;&gt;Node14 -->
<g id="edge16_Node000009_Node000014" class="edge">
<title>Node9&#45;&gt;Node14</title>
<g id="a_edge16_Node000009_Node000014"><a xlink:title=" ">
<path fill="none" stroke="#63b8ff" d="M298.03,-55.59C324.06,-46.4 363.74,-32.4 391.67,-22.54"/>
<polygon fill="#63b8ff" stroke="#63b8ff" points="392.79,-25.86 401.06,-19.23 390.46,-19.26 392.79,-25.86"/>
</a>
</g>
</g>
<!-- Node15 -->
<g id="Node000015" class="node">
<title>Node15</title>
<g id="a_Node000015"><a xlink:title=" ">
<polygon fill="#e0e0e0" stroke="#999999" points="509,-20 463.75,-20 463.75,0 509,0 509,-20"/>
<text text-anchor="middle" x="486.38" y="-6.5" font-family="Helvetica,sans-Serif" font-size="10.00">chrono</text>
</a>
</g>
</g>
<!-- Node9&#45;&gt;Node15 -->
<g id="edge17_Node000009_Node000015" class="edge">
<title>Node9&#45;&gt;Node15</title>
<g id="a_edge17_Node000009_Node000015"><a xlink:title=" ">
<path fill="none" stroke="#63b8ff" d="M303.72,-57.53C338.32,-49.44 395.07,-35.91 452.31,-20.74"/>
<polygon fill="#63b8ff" stroke="#63b8ff" points="453.16,-24.14 461.92,-18.18 451.36,-17.38 453.16,-24.14"/>
</a>
</g>
</g>
<!-- Node16 -->
<g id="Node000016" class="node">
<title>Node16</title>
<g id="a_Node000016"><a xlink:title=" ">
<polygon fill="#e0e0e0" stroke="#999999" points="621.38,-20 527.38,-20 527.38,0 621.38,0 621.38,-20"/>
<text text-anchor="middle" x="574.38" y="-6.5" font-family="Helvetica,sans-Serif" font-size="10.00">condition_variable</text>
</a>
</g>
</g>
<!-- Node9&#45;&gt;Node16 -->
<g id="edge18_Node000009_Node000016" class="edge">
<title>Node9&#45;&gt;Node16</title>
<g id="a_edge18_Node000009_Node000016"><a xlink:title=" ">
<path fill="none" stroke="#63b8ff" d="M303.45,-57.99C306.8,-57.3 310.15,-56.62 313.38,-56 351.17,-48.69 451.19,-31.69 515.86,-20.81"/>
<polygon fill="#63b8ff" stroke="#63b8ff" points="516.33,-24.28 525.61,-19.17 515.17,-17.37 516.33,-24.28"/>
</a>
</g>
</g>
<!-- Node17 -->
<g id="Node000017" class="node">
<title>Node17</title>
<g id="a_Node000017"><a xlink:title=" ">
<polygon fill="#e0e0e0" stroke="#999999" points="727.38,-20 639.38,-20 639.38,0 727.38,0 727.38,-20"/>
<text text-anchor="middle" x="683.38" y="-6.5" font-family="Helvetica,sans-Serif" font-size="10.00">pcg_random.hpp</text>
</a>
</g>
</g>
<!-- Node9&#45;&gt;Node17 -->
<g id="edge19_Node000009_Node000017" class="edge">
<title>Node9&#45;&gt;Node17</title>
<g id="a_edge19_Node000009_Node000017"><a xlink:title=" ">
<path fill="none" stroke="#63b8ff" d="M303.87,-57.71C307.08,-57.09 310.28,-56.51 313.38,-56 449.76,-33.7 488.05,-39.55 628.01,-20.26"/>
<polygon fill="#63b8ff" stroke="#63b8ff" points="628.24,-23.76 637.66,-18.91 627.27,-16.83 628.24,-23.76"/>
</a>
</g>
</g>
</g>
</svg>
