<?xml version="1.0" encoding="UTF-8" standalone="no"?>
<!DOCTYPE svg PUBLIC "-//W3C//DTD SVG 1.1//EN"
 "http://www.w3.org/Graphics/SVG/1.1/DTD/svg11.dtd">
<!-- Generated by graphviz version 12.2.1 (20241206.2353)
 -->
<!-- Title: acmaes::AcmaesOptimizer::tell_all Pages: 1 -->
<!--zoomable 162 -->

<svg id="main" version="1.1" xmlns="http://www.w3.org/2000/svg" xmlns:xlink="http://www.w3.org/1999/xlink" xml:space="preserve" onload="init(evt)">

<style type="text/css"><![CDATA[
.node, .edge {opacity: 0.7;}
.node.selected, .edge.selected {opacity: 1;}
.edge:hover path { stroke: red; }
.edge:hover polygon { stroke: red; fill: red; }
]]></style>

<defs>
  <circle id="rim" cx="0" cy="0" r="7"/>
  <circle id="rim2" cx="0" cy="0" r="3.5"/>
  <g id="zoomPlus">
    <use xlink:href="#rim" fill="#404040"><set attributeName="fill" to="#808080" begin="zoomplus.mouseover" end="zoomplus.mouseout"/></use>
    <path d="M-4,0h8M0,-4v8" fill="none" stroke="white" stroke-width="1.5" pointer-events="none"/>
  </g>
  <g id="zoomMin">
    <use xlink:href="#rim" fill="#404040"><set attributeName="fill" to="#808080" begin="zoomminus.mouseover" end="zoomminus.mouseout"/></use>
    <path d="M-4,0h8" fill="none" stroke="white" stroke-width="1.5" pointer-events="none"/>
  </g>
  <g id="arrowUp" transform="translate(30 24)">
    <use xlink:href="#rim"/>
    <path pointer-events="none" fill="none" stroke="white" stroke-width="1.5" d="M0,-3.0v7 M-2.5,-0.5L0,-3.0L2.5,-0.5"/>
  </g>
  <g id="arrowRight" transform="rotate(90) translate(36 -43)">
    <use xlink:href="#rim"/>
    <path pointer-events="none" fill="none" stroke="white" stroke-width="1.5" d="M0,-3.0v7 M-2.5,-0.5L0,-3.0L2.5,-0.5"/>
  </g>
  <g id="arrowDown" transform="rotate(180) translate(-30 -48)">
    <use xlink:href="#rim"/>
    <path pointer-events="none" fill="none" stroke="white" stroke-width="1.5" d="M0,-3.0v7 M-2.5,-0.5L0,-3.0L2.5,-0.5"/>
  </g>
  <g id="arrowLeft" transform="rotate(270) translate(-36 17)">
    <use xlink:href="#rim"/>
    <path pointer-events="none" fill="none" stroke="white" stroke-width="1.5" d="M0,-3.0v7 M-2.5,-0.5L0,-3.0L2.5,-0.5"/>
  </g>
  <g id="resetDef">
    <use xlink:href="#rim2" fill="#404040"><set attributeName="fill" to="#808080" begin="reset.mouseover" end="reset.mouseout"/></use>
  </g>
</defs>
<script type="application/ecmascript">
var viewWidth = 905;
var viewHeight = 162;
var sectionId = 'dynsection-10';
</script>
<script type="application/ecmascript" xlink:href="svg.min.js"/>
<svg id="graph" class="graph">
<g id="viewport">
<title>acmaes::AcmaesOptimizer::tell_all</title>
<!-- Node1 -->
<g id="Node000001" class="node">
<title>Node1</title>
<g id="a_Node000001"><a xlink:title=" ">
<polygon fill="#999999" stroke="#666666" points="134.5,-129 0,-129 0,-97 134.5,-97 134.5,-129"/>
<text text-anchor="start" x="8" y="-115.5" font-family="Helvetica,sans-Serif" font-size="10.00">acmaes::AcmaesOptimizer</text>
<text text-anchor="middle" x="67.25" y="-103.5" font-family="Helvetica,sans-Serif" font-size="10.00">::tell_all</text>
</a>
</g>
</g>
<!-- Node2 -->
<g id="Node000002" class="node">
<title>Node2</title>
<g id="a_Node000002"><a xlink:href="classacmaes_1_1_acmaes_optimizer.html#ac1703b5f2c650cf8da235ea475e17d6f" target="_top" xlink:title=" ">
<polygon fill="white" stroke="#666666" points="305,-129 170.5,-129 170.5,-97 305,-97 305,-129"/>
<text text-anchor="start" x="178.5" y="-115.5" font-family="Helvetica,sans-Serif" font-size="10.00">acmaes::AcmaesOptimizer</text>
<text text-anchor="middle" x="237.75" y="-103.5" font-family="Helvetica,sans-Serif" font-size="10.00">::tell</text>
</a>
</g>
</g>
<!-- Node1&#45;&gt;Node2 -->
<g id="edge1_Node000001_Node000002" class="edge">
<title>Node1&#45;&gt;Node2</title>
<g id="a_edge1_Node000001_Node000002"><a xlink:title=" ">
<path fill="none" stroke="#63b8ff" d="M134.85,-113C142.72,-113 150.82,-113 158.83,-113"/>
<polygon fill="#63b8ff" stroke="#63b8ff" points="158.57,-116.5 168.57,-113 158.57,-109.5 158.57,-116.5"/>
</a>
</g>
</g>
<!-- Node3 -->
<g id="Node000003" class="node">
<title>Node3</title>
<g id="a_Node000003"><a xlink:href="evaluator_8h.html#a231544ac51b3f9312c104a3b7a3c49a6" target="_top" xlink:title=" ">
<polygon fill="white" stroke="#666666" points="430.88,-145 385.62,-145 385.62,-125 430.88,-125 430.88,-145"/>
<text text-anchor="middle" x="408.25" y="-131.5" font-family="Helvetica,sans-Serif" font-size="10.00">normal</text>
</a>
</g>
</g>
<!-- Node2&#45;&gt;Node3 -->
<g id="edge2_Node000002_Node000003" class="edge">
<title>Node2&#45;&gt;Node3</title>
<g id="a_edge2_Node000002_Node000003"><a xlink:title=" ">
<path fill="none" stroke="#63b8ff" d="M305.35,-121.69C328.96,-124.78 354.51,-128.11 374.12,-130.68"/>
<polygon fill="#63b8ff" stroke="#63b8ff" points="373.63,-134.14 384,-131.96 374.53,-127.2 373.63,-134.14"/>
</a>
</g>
</g>
<!-- Node4 -->
<g id="Node000004" class="node">
<title>Node4</title>
<g id="a_Node000004"><a xlink:href="classacmaes_1_1_acmaes_optimizer.html#a36c0bd51d20f3c63e8cadf76421fc5d4" target="_top" xlink:title=" ">
<polygon fill="white" stroke="#666666" points="475.5,-107 341,-107 341,-75 475.5,-75 475.5,-107"/>
<text text-anchor="start" x="349" y="-93.5" font-family="Helvetica,sans-Serif" font-size="10.00">acmaes::AcmaesOptimizer</text>
<text text-anchor="middle" x="408.25" y="-81.5" font-family="Helvetica,sans-Serif" font-size="10.00">::updateCMA</text>
</a>
</g>
</g>
<!-- Node2&#45;&gt;Node4 -->
<g id="edge3_Node000002_Node000004" class="edge">
<title>Node2&#45;&gt;Node4</title>
<g id="a_edge3_Node000002_Node000004"><a xlink:title=" ">
<path fill="none" stroke="#63b8ff" d="M305.35,-104.31C313.22,-103.28 321.32,-102.22 329.33,-101.17"/>
<polygon fill="#63b8ff" stroke="#63b8ff" points="329.62,-104.67 339.09,-99.9 328.72,-97.72 329.62,-104.67"/>
</a>
</g>
</g>
<!-- Node5 -->
<g id="Node000005" class="node">
<title>Node5</title>
<g id="a_Node000005"><a xlink:href="evaluator_8h.html#a7689f88ea48c85c22d9b34208decd67c" target="_top" xlink:title=" ">
<polygon fill="white" stroke="#666666" points="756.5,-151 695.5,-151 695.5,-131 756.5,-131 756.5,-151"/>
<text text-anchor="middle" x="726" y="-137.5" font-family="Helvetica,sans-Serif" font-size="10.00">sort_index</text>
</a>
</g>
</g>
<!-- Node4&#45;&gt;Node5 -->
<g id="edge4_Node000004_Node000005" class="edge">
<title>Node4&#45;&gt;Node5</title>
<g id="a_edge4_Node000004_Node000005"><a xlink:title=" ">
<path fill="none" stroke="#63b8ff" d="M456.92,-107.36C463.28,-110.01 469.62,-112.91 475.5,-116 492.74,-125.06 492.91,-135.18 511.5,-141 569.17,-159.06 639.99,-154.12 683.81,-148.14"/>
<polygon fill="#63b8ff" stroke="#63b8ff" points="684.26,-151.61 693.65,-146.71 683.25,-144.69 684.26,-151.61"/>
</a>
</g>
</g>
<!-- Node7 -->
<g id="Node000007" class="node">
<title>Node7</title>
<g id="a_Node000007"><a xlink:href="classacmaes_1_1_acmaes_optimizer.html#a6e1292651cf19abf87f9ece1aa9c92d7" target="_top" xlink:title=" ">
<polygon fill="white" stroke="#666666" points="646,-132 511.5,-132 511.5,-100 646,-100 646,-132"/>
<text text-anchor="start" x="519.5" y="-118.5" font-family="Helvetica,sans-Serif" font-size="10.00">acmaes::AcmaesOptimizer</text>
<text text-anchor="middle" x="578.75" y="-106.5" font-family="Helvetica,sans-Serif" font-size="10.00">::updateBD</text>
</a>
</g>
</g>
<!-- Node4&#45;&gt;Node7 -->
<g id="edge6_Node000004_Node000007" class="edge">
<title>Node4&#45;&gt;Node7</title>
<g id="a_edge6_Node000004_Node000007"><a xlink:title=" ">
<path fill="none" stroke="#63b8ff" d="M475.85,-100.88C483.72,-102.05 491.82,-103.25 499.83,-104.44"/>
<polygon fill="#63b8ff" stroke="#63b8ff" points="499.18,-107.88 509.59,-105.89 500.21,-100.96 499.18,-107.88"/>
</a>
</g>
</g>
<!-- Node8 -->
<g id="Node000008" class="node">
<title>Node8</title>
<g id="a_Node000008"><a xlink:href="classacmaes_1_1_acmaes_optimizer.html#a911e67d9e8445b3a8be575f184341b8e" target="_top" xlink:title=" ">
<polygon fill="white" stroke="#666666" points="646,-82 511.5,-82 511.5,-50 646,-50 646,-82"/>
<text text-anchor="start" x="519.5" y="-68.5" font-family="Helvetica,sans-Serif" font-size="10.00">acmaes::AcmaesOptimizer</text>
<text text-anchor="middle" x="578.75" y="-56.5" font-family="Helvetica,sans-Serif" font-size="10.00">::updateCovariance</text>
</a>
</g>
</g>
<!-- Node4&#45;&gt;Node8 -->
<g id="edge7_Node000004_Node000008" class="edge">
<title>Node4&#45;&gt;Node8</title>
<g id="a_edge7_Node000004_Node000008"><a xlink:title=" ">
<path fill="none" stroke="#63b8ff" d="M475.85,-81.12C483.72,-79.95 491.82,-78.75 499.83,-77.56"/>
<polygon fill="#63b8ff" stroke="#63b8ff" points="500.21,-81.04 509.59,-76.11 499.18,-74.12 500.21,-81.04"/>
</a>
</g>
</g>
<!-- Node10 -->
<g id="Node000010" class="node">
<title>Node10</title>
<g id="a_Node000010"><a xlink:href="classacmaes_1_1_acmaes_optimizer.html#ae9f3415b9bcc43366193e7d4b0beda87" target="_top" xlink:title=" ">
<polygon fill="white" stroke="#666666" points="646,-32 511.5,-32 511.5,0 646,0 646,-32"/>
<text text-anchor="start" x="519.5" y="-18.5" font-family="Helvetica,sans-Serif" font-size="10.00">acmaes::AcmaesOptimizer</text>
<text text-anchor="middle" x="578.75" y="-6.5" font-family="Helvetica,sans-Serif" font-size="10.00">::updateEvolutionPaths</text>
</a>
</g>
</g>
<!-- Node4&#45;&gt;Node10 -->
<g id="edge11_Node000004_Node000010" class="edge">
<title>Node4&#45;&gt;Node10</title>
<g id="a_edge11_Node000004_Node000010"><a xlink:title=" ">
<path fill="none" stroke="#63b8ff" d="M440.67,-74.68C460.72,-64.51 487.37,-51.42 511.5,-41 514.89,-39.54 518.39,-38.07 521.93,-36.63"/>
<polygon fill="#63b8ff" stroke="#63b8ff" points="523.21,-39.89 531.21,-32.94 520.63,-33.38 523.21,-39.89"/>
</a>
</g>
</g>
<!-- Node6 -->
<g id="Node000006" class="node">
<title>Node6</title>
<g id="a_Node000006"><a xlink:href="evaluator_8h.html#a85426eb5cecc23caa06090d795034e5c" target="_top" xlink:title=" ">
<polygon fill="white" stroke="#666666" points="897,-151 806,-151 806,-131 897,-131 897,-151"/>
<text text-anchor="middle" x="851.5" y="-137.5" font-family="Helvetica,sans-Serif" font-size="10.00">compareIndexVal</text>
</a>
</g>
</g>
<!-- Node5&#45;&gt;Node6 -->
<g id="edge5_Node000005_Node000006" class="edge">
<title>Node5&#45;&gt;Node6</title>
<g id="a_edge5_Node000005_Node000006"><a xlink:title=" ">
<path fill="none" stroke="#63b8ff" d="M756.9,-141C768.27,-141 781.63,-141 794.64,-141"/>
<polygon fill="#63b8ff" stroke="#63b8ff" points="794.41,-144.5 804.41,-141 794.41,-137.5 794.41,-144.5"/>
</a>
</g>
</g>
<!-- Node8&#45;&gt;Node5 -->
<g id="edge10_Node000008_Node000005" class="edge">
<title>Node8&#45;&gt;Node5</title>
<g id="a_edge10_Node000008_Node000005"><a xlink:title=" ">
<path fill="none" stroke="#63b8ff" d="M626.95,-82.45C633.44,-85.11 639.95,-87.98 646,-91 665.42,-100.68 686.11,-113.89 701.44,-124.3"/>
<polygon fill="#63b8ff" stroke="#63b8ff" points="699.21,-127.01 709.43,-129.81 703.18,-121.25 699.21,-127.01"/>
</a>
</g>
</g>
<!-- Node9 -->
<g id="Node000009" class="node">
<title>Node9</title>
<g id="a_Node000009"><a xlink:href="namespaceacmaes.html#a8f3b844e07e4684f10852956288758de" target="_top" xlink:title=" ">
<polygon fill="white" stroke="#666666" points="770,-76 682,-76 682,-56 770,-56 770,-76"/>
<text text-anchor="middle" x="726" y="-62.5" font-family="Helvetica,sans-Serif" font-size="10.00">acmaes::inverse</text>
</a>
</g>
</g>
<!-- Node8&#45;&gt;Node9 -->
<g id="edge8_Node000008_Node000009" class="edge">
<title>Node8&#45;&gt;Node9</title>
<g id="a_edge8_Node000008_Node000009"><a xlink:title=" ">
<path fill="none" stroke="#63b8ff" d="M646.42,-66C654.35,-66 662.37,-66 670.1,-66"/>
<polygon fill="#63b8ff" stroke="#63b8ff" points="670.05,-69.5 680.05,-66 670.05,-62.5 670.05,-69.5"/>
</a>
</g>
</g>
<!-- Node9&#45;&gt;Node9 -->
<g id="edge9_Node000009_Node000009" class="edge">
<title>Node9&#45;&gt;Node9</title>
<g id="a_edge9_Node000009_Node000009"><a xlink:title=" ">
<path fill="none" stroke="#63b8ff" d="M706.06,-76.34C697.54,-84.98 704.18,-94 726,-94 737.93,-94 745.32,-91.3 748.18,-87.44"/>
<polygon fill="#63b8ff" stroke="#63b8ff" points="751.65,-86.93 746.24,-77.82 744.79,-88.32 751.65,-86.93"/>
</a>
</g>
</g>
</g>
</svg>

<g id="navigator" transform="translate(0 0)" fill="#404254">
  <rect fill="#f2f5e9" fill-opacity="0.5" stroke="#606060" stroke-width=".5" x="0" y="0" width="60" height="60"/>
  <use id="zoomplus" xlink:href="#zoomPlus" x="17" y="9" onmousedown="handleZoom(evt,'in')"/>
  <use id="zoomminus" xlink:href="#zoomMin" x="42" y="9" onmousedown="handleZoom(evt,'out')"/>
  <use id="reset" xlink:href="#resetDef" x="30" y="36" onmousedown="handleReset()"/>
   <use id="arrowup" xlink:href="#arrowUp" x="0" y="0" onmousedown="handlePan(0,-1)"/>
  <use id="arrowright" xlink:href="#arrowRight" x="0" y="0" onmousedown="handlePan(1,0)"/>
  <use id="arrowdown" xlink:href="#arrowDown" x="0" y="0" onmousedown="handlePan(0,1)"/>
  <use id="arrowleft" xlink:href="#arrowLeft" x="0" y="0" onmousedown="handlePan(-1,0)"/>
</g>
<svg viewBox="0 0 15 15" width="100%" height="30px" preserveAspectRatio="xMaxYMin meet">
 <g id="arrow_out" transform="scale(0.3 0.3)">
  <a xlink:href="classacmaes_1_1_acmaes_optimizer_ad73e4ffab0c5d511107d58491540de24_cgraph_org.svg" target="_base">
   <rect id="button" ry="5" rx="5" y="6" x="6" height="38" width="38"
        fill="#f2f5e9" fill-opacity="0.5" stroke="#606060" stroke-width="1.0"/>
   <path id="arrow"
     d="M 11.500037,31.436501 C 11.940474,20.09759 22.043105,11.32322 32.158766,21.979434 L 37.068811,17.246167 C 37.068811,17.246167 37.088388,32 37.088388,32 L 22.160133,31.978069 C 22.160133,31.978069 26.997745,27.140456 26.997745,27.140456 C 18.528582,18.264221 13.291696,25.230495 11.500037,31.436501 z"
     style="fill:#404040;"/>
  </a>
 </g>
</svg>

<style type='text/css'>
<![CDATA[
[data-mouse-over-selected='false'] { opacity: 0.7; }
[data-mouse-over-selected='true']  { opacity: 1.0; }
]]>
</style>
<script type="application/ecmascript"><![CDATA[
document.addEventListener('DOMContentLoaded', (event) => {
  highlightEdges();
  highlightAdjacentNodes();
});
]]></script>
</svg>
