<?xml version="1.0" encoding="UTF-8" standalone="no"?>
<!DOCTYPE svg PUBLIC "-//W3C//DTD SVG 1.1//EN"
 "http://www.w3.org/Graphics/SVG/1.1/DTD/svg11.dtd">
<!-- Generated by graphviz version 12.2.1 (20241206.2353)
 -->
<!-- Title: anpcpc.ANPCPC.fitness Pages: 1 -->
<svg width="406pt" height="28pt"
 viewBox="0.00 0.00 406.25 28.00" xmlns="http://www.w3.org/2000/svg" xmlns:xlink="http://www.w3.org/1999/xlink">
<g id="graph0" class="graph" transform="scale(1 1) rotate(0) translate(4 24)">
<title>anpcpc.ANPCPC.fitness</title>
<!-- Node1 -->
<g id="Node000001" class="node">
<title>Node1</title>
<g id="a_Node000001"><a xlink:title=" ">
<polygon fill="#999999" stroke="#666666" points="125.5,-20 0,-20 0,0 125.5,0 125.5,-20"/>
<text text-anchor="middle" x="62.75" y="-6.5" font-family="Helvetica,sans-Serif" font-size="10.00">anpcpc.ANPCPC.fitness</text>
</a>
</g>
</g>
<!-- Node2 -->
<g id="Node000002" class="node">
<title>Node2</title>
<g id="a_Node000002"><a xlink:href="namespaceanpcpc.html#a6f7639f06e2fed3d414229306a974296" target="_top" xlink:title=" ">
<polygon fill="white" stroke="#666666" points="246.5,-20 161.5,-20 161.5,0 246.5,0 246.5,-20"/>
<text text-anchor="middle" x="204" y="-6.5" font-family="Helvetica,sans-Serif" font-size="10.00">anpcpc.fitness_</text>
</a>
</g>
</g>
<!-- Node1&#45;&gt;Node2 -->
<g id="edge1_Node000001_Node000002" class="edge">
<title>Node1&#45;&gt;Node2</title>
<g id="a_edge1_Node000001_Node000002"><a xlink:title=" ">
<path fill="none" stroke="#63b8ff" d="M125.64,-10C133.74,-10 141.98,-10 149.92,-10"/>
<polygon fill="#63b8ff" stroke="#63b8ff" points="149.77,-13.5 159.77,-10 149.77,-6.5 149.77,-13.5"/>
</a>
</g>
</g>
<!-- Node3 -->
<g id="Node000003" class="node">
<title>Node3</title>
<g id="a_Node000003"><a xlink:href="namespaceanpcpc.html#a6d061093fd5f80bcbd737e82b3245a72" target="_top" xlink:title=" ">
<polygon fill="white" stroke="#666666" points="398.25,-20 282.5,-20 282.5,0 398.25,0 398.25,-20"/>
<text text-anchor="middle" x="340.38" y="-6.5" font-family="Helvetica,sans-Serif" font-size="10.00">anpcpc.calc_distance_</text>
</a>
</g>
</g>
<!-- Node2&#45;&gt;Node3 -->
<g id="edge2_Node000002_Node000003" class="edge">
<title>Node2&#45;&gt;Node3</title>
<g id="a_edge2_Node000002_Node000003"><a xlink:title=" ">
<path fill="none" stroke="#63b8ff" d="M246.78,-10C254.51,-10 262.77,-10 271.06,-10"/>
<polygon fill="#63b8ff" stroke="#63b8ff" points="270.8,-13.5 280.8,-10 270.8,-6.5 270.8,-13.5"/>
</a>
</g>
</g>
</g>
</svg>
