<?xml version="1.0" encoding="UTF-8" standalone="no"?>
<!DOCTYPE svg PUBLIC "-//W3C//DTD SVG 1.1//EN"
 "http://www.w3.org/Graphics/SVG/1.1/DTD/svg11.dtd">
<!-- Generated by graphviz version 12.2.1 (20241206.2353)
 -->
<!-- Title: differential_evolution::DeOptimizer::rnd01 Pages: 1 -->
<svg width="780pt" height="187pt"
 viewBox="0.00 0.00 779.50 187.00" xmlns="http://www.w3.org/2000/svg" xmlns:xlink="http://www.w3.org/1999/xlink">
<g id="graph0" class="graph" transform="scale(1 1) rotate(0) translate(4 183)">
<title>differential_evolution::DeOptimizer::rnd01</title>
<!-- Node1 -->
<g id="Node000001" class="node">
<title>Node1</title>
<g id="a_Node000001"><a xlink:title=" ">
<polygon fill="#999999" stroke="#666666" points="771.5,-113 664.75,-113 664.75,-81 771.5,-81 771.5,-113"/>
<text text-anchor="start" x="672.75" y="-99.5" font-family="Helvetica,sans-Serif" font-size="10.00">differential_evolution</text>
<text text-anchor="middle" x="718.12" y="-87.5" font-family="Helvetica,sans-Serif" font-size="10.00">::DeOptimizer::rnd01</text>
</a>
</g>
</g>
<!-- Node2 -->
<g id="Node000002" class="node">
<title>Node2</title>
<g id="a_Node000002"><a xlink:href="classdifferential__evolution_1_1_de_optimizer.html#a18f5c0a1c724443666e4827126716315" target="_top" xlink:title=" ">
<polygon fill="white" stroke="#666666" points="303.5,-179 171.25,-179 171.25,-147 303.5,-147 303.5,-179"/>
<text text-anchor="start" x="179.25" y="-165.5" font-family="Helvetica,sans-Serif" font-size="10.00">differential_evolution</text>
<text text-anchor="middle" x="237.38" y="-153.5" font-family="Helvetica,sans-Serif" font-size="10.00">::DeOptimizer::doOptimize</text>
</a>
</g>
</g>
<!-- Node1&#45;&gt;Node2 -->
<g id="edge1_Node000001_Node000002" class="edge">
<title>Node1&#45;&gt;Node2</title>
<g id="a_edge1_Node000001_Node000002"><a xlink:title=" ">
<path fill="none" stroke="#63b8ff" d="M682.06,-119.21C666.31,-128.23 647.16,-137.94 628.75,-144 519.19,-180.09 382.99,-176.62 303.85,-170.23"/>
<polygon fill="#63b8ff" stroke="#63b8ff" points="683.73,-122.29 690.57,-114.19 680.18,-116.26 683.73,-122.29"/>
</a>
</g>
</g>
<!-- Node3 -->
<g id="Node000003" class="node">
<title>Node3</title>
<g id="a_Node000003"><a xlink:href="classdifferential__evolution_1_1_de_optimizer.html#a9f8d2654bcad80c32d9358faa62cebd9" target="_top" xlink:title=" ">
<polygon fill="white" stroke="#666666" points="628.75,-135 516.75,-135 516.75,-103 628.75,-103 628.75,-135"/>
<text text-anchor="start" x="524.75" y="-121.5" font-family="Helvetica,sans-Serif" font-size="10.00">differential_evolution</text>
<text text-anchor="middle" x="572.75" y="-109.5" font-family="Helvetica,sans-Serif" font-size="10.00">::DeOptimizer::modify</text>
</a>
</g>
</g>
<!-- Node1&#45;&gt;Node3 -->
<g id="edge2_Node000001_Node000003" class="edge">
<title>Node1&#45;&gt;Node3</title>
<g id="a_edge2_Node000001_Node000003"><a xlink:title=" ">
<path fill="none" stroke="#63b8ff" d="M653.32,-106.79C645.28,-108.02 637.1,-109.28 629.21,-110.49"/>
<polygon fill="#63b8ff" stroke="#63b8ff" points="653.7,-110.27 663.06,-105.3 652.64,-103.35 653.7,-110.27"/>
</a>
</g>
</g>
<!-- Node5 -->
<g id="Node000005" class="node">
<title>Node5</title>
<g id="a_Node000005"><a xlink:href="classdifferential__evolution_1_1_de_optimizer.html#accf9be34ac5d30b9a2df15dba24f4dce" target="_top" xlink:title=" ">
<polygon fill="white" stroke="#666666" points="289.62,-113 185.12,-113 185.12,-81 289.62,-81 289.62,-113"/>
<text text-anchor="start" x="193.12" y="-99.5" font-family="Helvetica,sans-Serif" font-size="10.00">differential_evolution</text>
<text text-anchor="middle" x="237.38" y="-87.5" font-family="Helvetica,sans-Serif" font-size="10.00">::DeOptimizer::tell</text>
</a>
</g>
</g>
<!-- Node1&#45;&gt;Node5 -->
<g id="edge14_Node000001_Node000005" class="edge">
<title>Node1&#45;&gt;Node5</title>
<g id="a_edge14_Node000001_Node000005"><a xlink:title=" ">
<path fill="none" stroke="#63b8ff" d="M652.92,-94.56C644.79,-94.33 636.57,-94.13 628.75,-94 500.21,-91.82 468.04,-92.09 339.5,-94 323.43,-94.24 305.93,-94.69 290.07,-95.17"/>
<polygon fill="#63b8ff" stroke="#63b8ff" points="652.71,-98.06 662.81,-94.87 652.93,-91.06 652.71,-98.06"/>
</a>
</g>
</g>
<!-- Node8 -->
<g id="Node000008" class="node">
<title>Node8</title>
<g id="a_Node000008"><a xlink:href="classdifferential__evolution_1_1_de_optimizer.html#a8babf7e82f12af63653d0d26df11e8b0" target="_top" xlink:title=" ">
<polygon fill="white" stroke="#666666" points="464.25,-47 356,-47 356,-15 464.25,-15 464.25,-47"/>
<text text-anchor="start" x="364" y="-33.5" font-family="Helvetica,sans-Serif" font-size="10.00">differential_evolution</text>
<text text-anchor="middle" x="410.12" y="-21.5" font-family="Helvetica,sans-Serif" font-size="10.00">::DeOptimizer::nextX</text>
</a>
</g>
</g>
<!-- Node1&#45;&gt;Node8 -->
<g id="edge13_Node000001_Node000008" class="edge">
<title>Node1&#45;&gt;Node8</title>
<g id="a_edge13_Node000001_Node000008"><a xlink:title=" ">
<path fill="none" stroke="#63b8ff" d="M671.98,-76.08C658.33,-70.45 643.14,-64.86 628.75,-61 573.86,-46.29 509.14,-38.54 464.63,-34.63"/>
<polygon fill="#63b8ff" stroke="#63b8ff" points="670.59,-79.29 681.16,-79.98 673.33,-72.85 670.59,-79.29"/>
</a>
</g>
</g>
<!-- Node3&#45;&gt;Node2 -->
<g id="edge3_Node000003_Node000002" class="edge">
<title>Node3&#45;&gt;Node2</title>
<g id="a_edge3_Node000003_Node000002"><a xlink:title=" ">
<path fill="none" stroke="#63b8ff" d="M507.83,-138.19C498.8,-140.43 489.58,-142.45 480.75,-144 421.4,-154.38 352.88,-159.09 303.86,-161.23"/>
<polygon fill="#63b8ff" stroke="#63b8ff" points="508.45,-141.65 517.26,-135.76 506.7,-134.87 508.45,-141.65"/>
</a>
</g>
</g>
<!-- Node4 -->
<g id="Node000004" class="node">
<title>Node4</title>
<g id="a_Node000004"><a xlink:href="classdifferential__evolution_1_1_de_optimizer.html#aff18de19791b75f799d4aa5e9c60b5fa" target="_top" xlink:title=" ">
<polygon fill="white" stroke="#666666" points="480.75,-135 339.5,-135 339.5,-103 480.75,-103 480.75,-135"/>
<text text-anchor="start" x="347.5" y="-121.5" font-family="Helvetica,sans-Serif" font-size="10.00">differential_evolution</text>
<text text-anchor="middle" x="410.12" y="-109.5" font-family="Helvetica,sans-Serif" font-size="10.00">::DeOptimizer::next_improve</text>
</a>
</g>
</g>
<!-- Node3&#45;&gt;Node4 -->
<g id="edge4_Node000003_Node000004" class="edge">
<title>Node3&#45;&gt;Node4</title>
<g id="a_edge4_Node000003_Node000004"><a xlink:title=" ">
<path fill="none" stroke="#63b8ff" d="M505.01,-119C497.07,-119 488.95,-119 480.98,-119"/>
<polygon fill="#63b8ff" stroke="#63b8ff" points="504.96,-122.5 514.96,-119 504.96,-115.5 504.96,-122.5"/>
</a>
</g>
</g>
<!-- Node3&#45;&gt;Node8 -->
<g id="edge9_Node000003_Node000008" class="edge">
<title>Node3&#45;&gt;Node8</title>
<g id="a_edge9_Node000003_Node000008"><a xlink:title=" ">
<path fill="none" stroke="#63b8ff" d="M531.99,-97.22C503.86,-81.81 466.72,-61.46 441.07,-47.41"/>
<polygon fill="#63b8ff" stroke="#63b8ff" points="530.13,-100.19 540.59,-101.93 533.5,-94.05 530.13,-100.19"/>
</a>
</g>
</g>
<!-- Node4&#45;&gt;Node2 -->
<g id="edge5_Node000004_Node000002" class="edge">
<title>Node4&#45;&gt;Node2</title>
<g id="a_edge5_Node000004_Node000002"><a xlink:title=" ">
<path fill="none" stroke="#63b8ff" d="M334.48,-138.24C323.75,-141 312.79,-143.82 302.29,-146.53"/>
<polygon fill="#63b8ff" stroke="#63b8ff" points="335.27,-141.65 344.08,-135.76 333.52,-134.87 335.27,-141.65"/>
</a>
</g>
</g>
<!-- Node4&#45;&gt;Node5 -->
<g id="edge6_Node000004_Node000005" class="edge">
<title>Node4&#45;&gt;Node5</title>
<g id="a_edge6_Node000004_Node000005"><a xlink:title=" ">
<path fill="none" stroke="#63b8ff" d="M327.88,-108.53C314.96,-106.87 301.9,-105.19 289.91,-103.64"/>
<polygon fill="#63b8ff" stroke="#63b8ff" points="327.32,-111.99 337.68,-109.79 328.21,-105.05 327.32,-111.99"/>
</a>
</g>
</g>
<!-- Node6 -->
<g id="Node000006" class="node">
<title>Node6</title>
<g id="a_Node000006"><a xlink:href="classdifferential__evolution_1_1_de_optimizer.html#a0af3433f0f60f99f8a9fbf9f10f36360" target="_top" xlink:title=" ">
<polygon fill="white" stroke="#666666" points="135.25,-94 0,-94 0,-50 135.25,-50 135.25,-94"/>
<text text-anchor="start" x="8" y="-80.5" font-family="Helvetica,sans-Serif" font-size="10.00">differential_evolution</text>
<text text-anchor="start" x="8" y="-68.5" font-family="Helvetica,sans-Serif" font-size="10.00">::DeOptimizer::do_optimize</text>
<text text-anchor="middle" x="67.62" y="-56.5" font-family="Helvetica,sans-Serif" font-size="10.00">_delayed_update</text>
</a>
</g>
</g>
<!-- Node5&#45;&gt;Node6 -->
<g id="edge7_Node000005_Node000006" class="edge">
<title>Node5&#45;&gt;Node6</title>
<g id="a_edge7_Node000005_Node000006"><a xlink:title=" ">
<path fill="none" stroke="#63b8ff" d="M173.53,-87.63C161.15,-85.79 148.12,-83.85 135.61,-81.98"/>
<polygon fill="#63b8ff" stroke="#63b8ff" points="172.77,-91.06 183.18,-89.07 173.8,-84.14 172.77,-91.06"/>
</a>
</g>
</g>
<!-- Node7 -->
<g id="Node000007" class="node">
<title>Node7</title>
<g id="a_Node000007"><a xlink:href="classdifferential__evolution_1_1_de_optimizer.html#aa1d0f0d9ddbb192cb30b470d8c3c1af0" target="_top" xlink:title=" ">
<polygon fill="white" stroke="#666666" points="121,-144 14.25,-144 14.25,-112 121,-112 121,-144"/>
<text text-anchor="start" x="22.25" y="-130.5" font-family="Helvetica,sans-Serif" font-size="10.00">differential_evolution</text>
<text text-anchor="middle" x="67.62" y="-118.5" font-family="Helvetica,sans-Serif" font-size="10.00">::DeOptimizer::tellAll</text>
</a>
</g>
</g>
<!-- Node5&#45;&gt;Node7 -->
<g id="edge8_Node000005_Node000007" class="edge">
<title>Node5&#45;&gt;Node7</title>
<g id="a_edge8_Node000005_Node000007"><a xlink:title=" ">
<path fill="none" stroke="#63b8ff" d="M173.58,-108.6C156.37,-111.78 137.89,-115.2 121.31,-118.26"/>
<polygon fill="#63b8ff" stroke="#63b8ff" points="173.99,-112.09 183.19,-106.83 172.72,-105.2 173.99,-112.09"/>
</a>
</g>
</g>
<!-- Node9 -->
<g id="Node000009" class="node">
<title>Node9</title>
<g id="a_Node000009"><a xlink:href="classdifferential__evolution_1_1_de_optimizer.html#af7935d4c0d376a000470f2b943aadbd6" target="_top" xlink:title=" ">
<polygon fill="white" stroke="#666666" points="289.62,-47 185.12,-47 185.12,-15 289.62,-15 289.62,-47"/>
<text text-anchor="start" x="193.12" y="-33.5" font-family="Helvetica,sans-Serif" font-size="10.00">differential_evolution</text>
<text text-anchor="middle" x="237.38" y="-21.5" font-family="Helvetica,sans-Serif" font-size="10.00">::DeOptimizer::ask</text>
</a>
</g>
</g>
<!-- Node8&#45;&gt;Node9 -->
<g id="edge10_Node000008_Node000009" class="edge">
<title>Node8&#45;&gt;Node9</title>
<g id="a_edge10_Node000008_Node000009"><a xlink:title=" ">
<path fill="none" stroke="#63b8ff" d="M344.29,-31C326.33,-31 307.08,-31 289.99,-31"/>
<polygon fill="#63b8ff" stroke="#63b8ff" points="344.05,-34.5 354.05,-31 344.05,-27.5 344.05,-34.5"/>
</a>
</g>
</g>
<!-- Node9&#45;&gt;Node6 -->
<g id="edge12_Node000009_Node000006" class="edge">
<title>Node9&#45;&gt;Node6</title>
<g id="a_edge12_Node000009_Node000006"><a xlink:title=" ">
<path fill="none" stroke="#63b8ff" d="M173.53,-46.36C161.15,-49.39 148.12,-52.57 135.61,-55.63"/>
<polygon fill="#63b8ff" stroke="#63b8ff" points="174.32,-49.77 183.21,-44 172.66,-42.97 174.32,-49.77"/>
</a>
</g>
</g>
<!-- Node10 -->
<g id="Node000010" class="node">
<title>Node10</title>
<g id="a_Node000010"><a xlink:href="classdifferential__evolution_1_1_de_optimizer.html#a0dcd44cbcddd9e0dde1ccd2ea5fbf96d" target="_top" xlink:title=" ">
<polygon fill="white" stroke="#666666" points="122.5,-32 12.75,-32 12.75,0 122.5,0 122.5,-32"/>
<text text-anchor="start" x="20.75" y="-18.5" font-family="Helvetica,sans-Serif" font-size="10.00">differential_evolution</text>
<text text-anchor="middle" x="67.62" y="-6.5" font-family="Helvetica,sans-Serif" font-size="10.00">::DeOptimizer::askAll</text>
</a>
</g>
</g>
<!-- Node9&#45;&gt;Node10 -->
<g id="edge11_Node000009_Node000010" class="edge">
<title>Node9&#45;&gt;Node10</title>
<g id="a_edge11_Node000009_Node000010"><a xlink:title=" ">
<path fill="none" stroke="#63b8ff" d="M173.37,-25.37C156.72,-23.88 138.9,-22.28 122.77,-20.84"/>
<polygon fill="#63b8ff" stroke="#63b8ff" points="172.9,-28.84 183.17,-26.24 173.52,-21.87 172.9,-28.84"/>
</a>
</g>
</g>
</g>
</svg>
