<?xml version="1.0" encoding="UTF-8" standalone="no"?>
<!DOCTYPE svg PUBLIC "-//W3C//DTD SVG 1.1//EN"
 "http://www.w3.org/Graphics/SVG/1.1/DTD/svg11.dtd">
<!-- Generated by graphviz version 12.2.1 (20241206.2353)
 -->
<!-- Title: CBiteOpt::generateSol2 Pages: 1 -->
<!--zoomable 192 -->

<svg id="main" version="1.1" xmlns="http://www.w3.org/2000/svg" xmlns:xlink="http://www.w3.org/1999/xlink" xml:space="preserve" onload="init(evt)">

<style type="text/css"><![CDATA[
.node, .edge {opacity: 0.7;}
.node.selected, .edge.selected {opacity: 1;}
.edge:hover path { stroke: red; }
.edge:hover polygon { stroke: red; fill: red; }
]]></style>

<defs>
  <circle id="rim" cx="0" cy="0" r="7"/>
  <circle id="rim2" cx="0" cy="0" r="3.5"/>
  <g id="zoomPlus">
    <use xlink:href="#rim" fill="#404040"><set attributeName="fill" to="#808080" begin="zoomplus.mouseover" end="zoomplus.mouseout"/></use>
    <path d="M-4,0h8M0,-4v8" fill="none" stroke="white" stroke-width="1.5" pointer-events="none"/>
  </g>
  <g id="zoomMin">
    <use xlink:href="#rim" fill="#404040"><set attributeName="fill" to="#808080" begin="zoomminus.mouseover" end="zoomminus.mouseout"/></use>
    <path d="M-4,0h8" fill="none" stroke="white" stroke-width="1.5" pointer-events="none"/>
  </g>
  <g id="arrowUp" transform="translate(30 24)">
    <use xlink:href="#rim"/>
    <path pointer-events="none" fill="none" stroke="white" stroke-width="1.5" d="M0,-3.0v7 M-2.5,-0.5L0,-3.0L2.5,-0.5"/>
  </g>
  <g id="arrowRight" transform="rotate(90) translate(36 -43)">
    <use xlink:href="#rim"/>
    <path pointer-events="none" fill="none" stroke="white" stroke-width="1.5" d="M0,-3.0v7 M-2.5,-0.5L0,-3.0L2.5,-0.5"/>
  </g>
  <g id="arrowDown" transform="rotate(180) translate(-30 -48)">
    <use xlink:href="#rim"/>
    <path pointer-events="none" fill="none" stroke="white" stroke-width="1.5" d="M0,-3.0v7 M-2.5,-0.5L0,-3.0L2.5,-0.5"/>
  </g>
  <g id="arrowLeft" transform="rotate(270) translate(-36 17)">
    <use xlink:href="#rim"/>
    <path pointer-events="none" fill="none" stroke="white" stroke-width="1.5" d="M0,-3.0v7 M-2.5,-0.5L0,-3.0L2.5,-0.5"/>
  </g>
  <g id="resetDef">
    <use xlink:href="#rim2" fill="#404040"><set attributeName="fill" to="#808080" begin="reset.mouseover" end="reset.mouseout"/></use>
  </g>
</defs>
<script type="application/ecmascript">
var viewWidth = 576;
var viewHeight = 192;
var sectionId = 'dynsection-8';
</script>
<script type="application/ecmascript" xlink:href="svg.min.js"/>
<svg id="graph" class="graph">
<g id="viewport">
<title>CBiteOpt::generateSol2</title>
<!-- Node1 -->
<g id="Node000001" class="node">
<title>Node1</title>
<g id="a_Node000001"><a xlink:title=" ">
<polygon fill="#999999" stroke="#666666" points="119.5,-108 0,-108 0,-88 119.5,-88 119.5,-108"/>
<text text-anchor="middle" x="59.75" y="-94.5" font-family="Helvetica,sans-Serif" font-size="10.00">CBiteOpt::generateSol2</text>
</a>
</g>
</g>
<!-- Node2 -->
<g id="Node000002" class="node">
<title>Node2</title>
<g id="a_Node000002"><a xlink:href="class_c_bite_rnd.html#a4e9ad0a5c5e09149a60f849736d8d7ce" target="_top" xlink:title=" ">
<polygon fill="white" stroke="#666666" points="265.25,-184 175.75,-184 175.75,-164 265.25,-164 265.25,-184"/>
<text text-anchor="middle" x="220.5" y="-170.5" font-family="Helvetica,sans-Serif" font-size="10.00">CBiteRnd::getInt</text>
</a>
</g>
</g>
<!-- Node1&#45;&gt;Node2 -->
<g id="edge1_Node000001_Node000002" class="edge">
<title>Node1&#45;&gt;Node2</title>
<g id="a_edge1_Node000001_Node000002"><a xlink:title=" ">
<path fill="none" stroke="#63b8ff" d="M75.22,-108.3C93.28,-120.78 125.46,-141.76 155.5,-155 159.5,-156.76 163.72,-158.42 167.99,-159.96"/>
<polygon fill="#63b8ff" stroke="#63b8ff" points="166.63,-163.2 177.22,-163.08 168.86,-156.56 166.63,-163.2"/>
</a>
</g>
</g>
<!-- Node5 -->
<g id="Node000005" class="node">
<title>Node5</title>
<g id="a_Node000005"><a xlink:href="class_c_bite_opt.html#af25cdfb71a0ad9081148c31da58fe949" target="_top" xlink:title=" ">
<polygon fill="white" stroke="#666666" points="285.5,-146 155.5,-146 155.5,-126 285.5,-126 285.5,-146"/>
<text text-anchor="middle" x="220.5" y="-132.5" font-family="Helvetica,sans-Serif" font-size="10.00">CBiteOpt::getMinSolIndex</text>
</a>
</g>
</g>
<!-- Node1&#45;&gt;Node5 -->
<g id="edge4_Node000001_Node000005" class="edge">
<title>Node1&#45;&gt;Node5</title>
<g id="a_edge4_Node000001_Node000005"><a xlink:title=" ">
<path fill="none" stroke="#63b8ff" d="M104.55,-108.48C123.2,-112.95 145.16,-118.21 164.86,-122.92"/>
<polygon fill="#63b8ff" stroke="#63b8ff" points="163.83,-126.27 174.37,-125.2 165.46,-119.47 163.83,-126.27"/>
</a>
</g>
</g>
<!-- Node7 -->
<g id="Node000007" class="node">
<title>Node7</title>
<g id="a_Node000007"><a xlink:href="class_c_bite_opt_base.html#abf93d2e584756812ad210f86e4f84a69" target="_top" xlink:title=" ">
<polygon fill="white" stroke="#666666" points="430.5,-108 321.5,-108 321.5,-76 430.5,-76 430.5,-108"/>
<text text-anchor="start" x="329.5" y="-94.5" font-family="Helvetica,sans-Serif" font-size="10.00">CBiteOptBase&lt; int64</text>
<text text-anchor="middle" x="376" y="-82.5" font-family="Helvetica,sans-Serif" font-size="10.00">_t &gt;::select</text>
</a>
</g>
</g>
<!-- Node1&#45;&gt;Node7 -->
<g id="edge12_Node000001_Node000007" class="edge">
<title>Node1&#45;&gt;Node7</title>
<g id="a_edge12_Node000001_Node000007"><a xlink:title=" ">
<path fill="none" stroke="#63b8ff" d="M119.86,-96.87C174,-95.84 253.99,-94.31 309.94,-93.24"/>
<polygon fill="#63b8ff" stroke="#63b8ff" points="309.69,-96.75 319.63,-93.06 309.56,-89.75 309.69,-96.75"/>
</a>
</g>
</g>
<!-- Node8 -->
<g id="Node000008" class="node">
<title>Node8</title>
<g id="a_Node000008"><a xlink:href="class_c_bite_pop.html#aaa8e3f180accfedf21218cbed8ffbb79" target="_top" xlink:title=" ">
<polygon fill="white" stroke="#666666" points="273.12,-70 167.88,-70 167.88,-38 273.12,-38 273.12,-70"/>
<text text-anchor="start" x="175.88" y="-56.5" font-family="Helvetica,sans-Serif" font-size="10.00">CBitePop&lt; int64_t &gt;</text>
<text text-anchor="middle" x="220.5" y="-44.5" font-family="Helvetica,sans-Serif" font-size="10.00">::getParamsOrdered</text>
</a>
</g>
</g>
<!-- Node1&#45;&gt;Node8 -->
<g id="edge8_Node000001_Node000008" class="edge">
<title>Node1&#45;&gt;Node8</title>
<g id="a_edge8_Node000001_Node000008"><a xlink:title=" ">
<path fill="none" stroke="#63b8ff" d="M98.37,-87.57C115.7,-82.77 136.73,-76.94 156.38,-71.49"/>
<polygon fill="#63b8ff" stroke="#63b8ff" points="157.27,-74.88 165.98,-68.83 155.41,-68.13 157.27,-74.88"/>
</a>
</g>
</g>
<!-- Node9 -->
<g id="Node000009" class="node">
<title>Node9</title>
<g id="a_Node000009"><a xlink:href="class_c_bite_rnd.html#ab73d2c6a6e4c1f5da7441168f165529d" target="_top" xlink:title=" ">
<polygon fill="white" stroke="#666666" points="272.75,-20 168.25,-20 168.25,0 272.75,0 272.75,-20"/>
<text text-anchor="middle" x="220.5" y="-6.5" font-family="Helvetica,sans-Serif" font-size="10.00">CBiteRnd::getSqrInt</text>
</a>
</g>
</g>
<!-- Node1&#45;&gt;Node9 -->
<g id="edge9_Node000001_Node000009" class="edge">
<title>Node1&#45;&gt;Node9</title>
<g id="a_edge9_Node000001_Node000009"><a xlink:title=" ">
<path fill="none" stroke="#63b8ff" d="M72.16,-87.66C89.16,-72.75 122.66,-45.23 155.5,-29 158.93,-27.31 162.54,-25.73 166.22,-24.28"/>
<polygon fill="#63b8ff" stroke="#63b8ff" points="167.08,-27.69 175.3,-21 164.7,-21.1 167.08,-27.69"/>
</a>
</g>
</g>
<!-- Node3 -->
<g id="Node000003" class="node">
<title>Node3</title>
<g id="a_Node000003"><a xlink:href="class_c_bite_rnd.html#afdb77334884f1a612780def0dec0a326" target="_top" xlink:title=" ">
<polygon fill="white" stroke="#666666" points="415.12,-184 336.88,-184 336.88,-164 415.12,-164 415.12,-184"/>
<text text-anchor="middle" x="376" y="-170.5" font-family="Helvetica,sans-Serif" font-size="10.00">CBiteRnd::get</text>
</a>
</g>
</g>
<!-- Node2&#45;&gt;Node3 -->
<g id="edge2_Node000002_Node000003" class="edge">
<title>Node2&#45;&gt;Node3</title>
<g id="a_edge2_Node000002_Node000003"><a xlink:title=" ">
<path fill="none" stroke="#63b8ff" d="M265.49,-174C284.14,-174 305.96,-174 325.2,-174"/>
<polygon fill="#63b8ff" stroke="#63b8ff" points="324.97,-177.5 334.97,-174 324.97,-170.5 324.97,-177.5"/>
</a>
</g>
</g>
<!-- Node4 -->
<g id="Node000004" class="node">
<title>Node4</title>
<g id="a_Node000004"><a xlink:href="class_c_bite_rnd.html#ae1167f8ecac85f268ced4bc1d2fa953b" target="_top" xlink:title=" ">
<polygon fill="white" stroke="#666666" points="568,-146 466.5,-146 466.5,-126 568,-126 568,-146"/>
<text text-anchor="middle" x="517.25" y="-132.5" font-family="Helvetica,sans-Serif" font-size="10.00">CBiteRnd::advance</text>
</a>
</g>
</g>
<!-- Node3&#45;&gt;Node4 -->
<g id="edge3_Node000003_Node000004" class="edge">
<title>Node3&#45;&gt;Node4</title>
<g id="a_edge3_Node000003_Node000004"><a xlink:title=" ">
<path fill="none" stroke="#63b8ff" d="M415.42,-163.52C431.4,-159.15 450.15,-154.04 467.11,-149.41"/>
<polygon fill="#63b8ff" stroke="#63b8ff" points="467.77,-152.86 476.5,-146.85 465.93,-146.1 467.77,-152.86"/>
</a>
</g>
</g>
<!-- Node6 -->
<g id="Node000006" class="node">
<title>Node6</title>
<g id="a_Node000006"><a xlink:href="class_c_bite_rnd.html#aa4c960b792982f495cc19c04ad9c2705" target="_top" xlink:title=" ">
<polygon fill="white" stroke="#666666" points="424.88,-146 327.12,-146 327.12,-126 424.88,-126 424.88,-146"/>
<text text-anchor="middle" x="376" y="-132.5" font-family="Helvetica,sans-Serif" font-size="10.00">CBiteRnd::getPow</text>
</a>
</g>
</g>
<!-- Node5&#45;&gt;Node6 -->
<g id="edge5_Node000005_Node000006" class="edge">
<title>Node5&#45;&gt;Node6</title>
<g id="a_edge5_Node000005_Node000006"><a xlink:title=" ">
<path fill="none" stroke="#63b8ff" d="M285.71,-136C295.63,-136 305.84,-136 315.64,-136"/>
<polygon fill="#63b8ff" stroke="#63b8ff" points="315.42,-139.5 325.42,-136 315.42,-132.5 315.42,-139.5"/>
</a>
</g>
</g>
<!-- Node5&#45;&gt;Node7 -->
<g id="edge7_Node000005_Node000007" class="edge">
<title>Node5&#45;&gt;Node7</title>
<g id="a_edge7_Node000005_Node000007"><a xlink:title=" ">
<path fill="none" stroke="#63b8ff" d="M257.88,-125.57C273.52,-121.09 292.28,-115.71 310.16,-110.59"/>
<polygon fill="#63b8ff" stroke="#63b8ff" points="311.04,-113.97 319.69,-107.85 309.11,-107.25 311.04,-113.97"/>
</a>
</g>
</g>
<!-- Node6&#45;&gt;Node4 -->
<g id="edge6_Node000006_Node000004" class="edge">
<title>Node6&#45;&gt;Node4</title>
<g id="a_edge6_Node000006_Node000004"><a xlink:title=" ">
<path fill="none" stroke="#63b8ff" d="M425.31,-136C434.8,-136 444.87,-136 454.72,-136"/>
<polygon fill="#63b8ff" stroke="#63b8ff" points="454.62,-139.5 464.62,-136 454.62,-132.5 454.62,-139.5"/>
</a>
</g>
</g>
<!-- Node10 -->
<g id="Node000010" class="node">
<title>Node10</title>
<g id="a_Node000010"><a xlink:href="class_c_bite_rnd.html#aabbf1ffd535ca8fe31fda768f15ccd1b" target="_top" xlink:title=" ">
<polygon fill="white" stroke="#666666" points="422.62,-39 329.38,-39 329.38,-19 422.62,-19 422.62,-39"/>
<text text-anchor="middle" x="376" y="-25.5" font-family="Helvetica,sans-Serif" font-size="10.00">CBiteRnd::getSqr</text>
</a>
</g>
</g>
<!-- Node9&#45;&gt;Node10 -->
<g id="edge10_Node000009_Node000010" class="edge">
<title>Node9&#45;&gt;Node10</title>
<g id="a_edge10_Node000009_Node000010"><a xlink:title=" ">
<path fill="none" stroke="#63b8ff" d="M273.04,-16.38C287.48,-18.17 303.25,-20.12 317.99,-21.94"/>
<polygon fill="#63b8ff" stroke="#63b8ff" points="317.15,-25.37 327.51,-23.12 318.01,-18.42 317.15,-25.37"/>
</a>
</g>
</g>
<!-- Node10&#45;&gt;Node4 -->
<g id="edge11_Node000010_Node000004" class="edge">
<title>Node10&#45;&gt;Node4</title>
<g id="a_edge11_Node000010_Node000004"><a xlink:title=" ">
<path fill="none" stroke="#63b8ff" d="M392.16,-39.41C402.97,-46.92 417.78,-57.38 430.5,-67 453,-84.02 478.07,-104.36 495.26,-118.53"/>
<polygon fill="#63b8ff" stroke="#63b8ff" points="492.84,-121.06 502.77,-124.74 497.3,-115.67 492.84,-121.06"/>
</a>
</g>
</g>
</g>
</svg>

<g id="navigator" transform="translate(0 0)" fill="#404254">
  <rect fill="#f2f5e9" fill-opacity="0.5" stroke="#606060" stroke-width=".5" x="0" y="0" width="60" height="60"/>
  <use id="zoomplus" xlink:href="#zoomPlus" x="17" y="9" onmousedown="handleZoom(evt,'in')"/>
  <use id="zoomminus" xlink:href="#zoomMin" x="42" y="9" onmousedown="handleZoom(evt,'out')"/>
  <use id="reset" xlink:href="#resetDef" x="30" y="36" onmousedown="handleReset()"/>
   <use id="arrowup" xlink:href="#arrowUp" x="0" y="0" onmousedown="handlePan(0,-1)"/>
  <use id="arrowright" xlink:href="#arrowRight" x="0" y="0" onmousedown="handlePan(1,0)"/>
  <use id="arrowdown" xlink:href="#arrowDown" x="0" y="0" onmousedown="handlePan(0,1)"/>
  <use id="arrowleft" xlink:href="#arrowLeft" x="0" y="0" onmousedown="handlePan(-1,0)"/>
</g>
<svg viewBox="0 0 15 15" width="100%" height="30px" preserveAspectRatio="xMaxYMin meet">
 <g id="arrow_out" transform="scale(0.3 0.3)">
  <a xlink:href="class_c_bite_opt_ab6de0da3b279e77788efed7d3e05a0e2_cgraph_org.svg" target="_base">
   <rect id="button" ry="5" rx="5" y="6" x="6" height="38" width="38"
        fill="#f2f5e9" fill-opacity="0.5" stroke="#606060" stroke-width="1.0"/>
   <path id="arrow"
     d="M 11.500037,31.436501 C 11.940474,20.09759 22.043105,11.32322 32.158766,21.979434 L 37.068811,17.246167 C 37.068811,17.246167 37.088388,32 37.088388,32 L 22.160133,31.978069 C 22.160133,31.978069 26.997745,27.140456 26.997745,27.140456 C 18.528582,18.264221 13.291696,25.230495 11.500037,31.436501 z"
     style="fill:#404040;"/>
  </a>
 </g>
</svg>

<style type='text/css'>
<![CDATA[
[data-mouse-over-selected='false'] { opacity: 0.7; }
[data-mouse-over-selected='true']  { opacity: 1.0; }
]]>
</style>
<script type="application/ecmascript"><![CDATA[
document.addEventListener('DOMContentLoaded', (event) => {
  highlightEdges();
  highlightAdjacentNodes();
});
]]></script>
</svg>
