<?xml version="1.0" encoding="UTF-8" standalone="no"?>
<!DOCTYPE svg PUBLIC "-//W3C//DTD SVG 1.1//EN"
 "http://www.w3.org/Graphics/SVG/1.1/DTD/svg11.dtd">
<!-- Generated by graphviz version 12.2.1 (20241206.2353)
 -->
<!-- Title: examples.kepler.rvt.rvt.kepler Pages: 1 -->
<svg width="321pt" height="90pt"
 viewBox="0.00 0.00 321.25 90.00" xmlns="http://www.w3.org/2000/svg" xmlns:xlink="http://www.w3.org/1999/xlink">
<g id="graph0" class="graph" transform="scale(1 1) rotate(0) translate(4 86)">
<title>examples.kepler.rvt.rvt.kepler</title>
<!-- Node1 -->
<g id="Node000001" class="node">
<title>Node1</title>
<g id="a_Node000001"><a xlink:title=" ">
<polygon fill="#999999" stroke="#666666" points="313.25,-51 168.25,-51 168.25,-31 313.25,-31 313.25,-51"/>
<text text-anchor="middle" x="240.75" y="-37.5" font-family="Helvetica,sans-Serif" font-size="10.00">examples.kepler.rvt.rvt.kepler</text>
</a>
</g>
</g>
<!-- Node2 -->
<g id="Node000002" class="node">
<title>Node2</title>
<g id="a_Node000002"><a xlink:href="classexamples_1_1kepler_1_1rvt_1_1rvt.html#a74e74da30b1b1ea3677a80bd260d0f9b" target="_top" xlink:title=" ">
<polygon fill="white" stroke="#666666" points="125.5,-82 6.75,-82 6.75,-50 125.5,-50 125.5,-82"/>
<text text-anchor="start" x="14.75" y="-68.5" font-family="Helvetica,sans-Serif" font-size="10.00">examples.kepler.rvt.rvt.</text>
<text text-anchor="middle" x="66.12" y="-56.5" font-family="Helvetica,sans-Serif" font-size="10.00">__str__</text>
</a>
</g>
</g>
<!-- Node1&#45;&gt;Node2 -->
<g id="edge1_Node000001_Node000002" class="edge">
<title>Node1&#45;&gt;Node2</title>
<g id="a_edge1_Node000001_Node000002"><a xlink:title=" ">
<path fill="none" stroke="#63b8ff" d="M156.74,-53.02C146.27,-54.54 135.74,-56.06 125.76,-57.51"/>
<polygon fill="#63b8ff" stroke="#63b8ff" points="157.15,-56.5 166.54,-51.6 156.14,-49.57 157.15,-56.5"/>
</a>
</g>
</g>
<!-- Node3 -->
<g id="Node000003" class="node">
<title>Node3</title>
<g id="a_Node000003"><a xlink:href="classexamples_1_1kepler_1_1rvt_1_1rvt.html#a03c381c47ce14d3a7f549118694cb8ab" target="_top" xlink:title=" ">
<polygon fill="white" stroke="#666666" points="132.25,-32 0,-32 0,0 132.25,0 132.25,-32"/>
<text text-anchor="start" x="8" y="-18.5" font-family="Helvetica,sans-Serif" font-size="10.00">examples.kepler.rvt.rvt.get</text>
<text text-anchor="middle" x="66.12" y="-6.5" font-family="Helvetica,sans-Serif" font-size="10.00">_kepler</text>
</a>
</g>
</g>
<!-- Node1&#45;&gt;Node3 -->
<g id="edge2_Node000001_Node000003" class="edge">
<title>Node1&#45;&gt;Node3</title>
<g id="a_edge2_Node000001_Node000003"><a xlink:title=" ">
<path fill="none" stroke="#63b8ff" d="M156.65,-28.97C148.56,-27.79 140.42,-26.62 132.54,-25.47"/>
<polygon fill="#63b8ff" stroke="#63b8ff" points="156.14,-32.43 166.54,-30.4 157.15,-25.5 156.14,-32.43"/>
</a>
</g>
</g>
</g>
</svg>
