<?xml version="1.0" encoding="UTF-8" standalone="no"?>
<!DOCTYPE svg PUBLIC "-//W3C//DTD SVG 1.1//EN"
 "http://www.w3.org/Graphics/SVG/1.1/DTD/svg11.dtd">
<!-- Generated by graphviz version 12.2.1 (20241206.2353)
 -->
<!-- Title: fcmaes.optimizer.wrapper.__call__ Pages: 1 -->
<svg width="273pt" height="66pt"
 viewBox="0.00 0.00 272.50 66.00" xmlns="http://www.w3.org/2000/svg" xmlns:xlink="http://www.w3.org/1999/xlink">
<g id="graph0" class="graph" transform="scale(1 1) rotate(0) translate(4 62)">
<title>fcmaes.optimizer.wrapper.__call__</title>
<!-- Node1 -->
<g id="Node000001" class="node">
<title>Node1</title>
<g id="a_Node000001"><a xlink:title="Executes the callable object with the given input x, tracking its evaluations and logging improvement...">
<polygon fill="#999999" stroke="#666666" points="264.5,-45 133,-45 133,-13 264.5,-13 264.5,-45"/>
<text text-anchor="start" x="141" y="-31.5" font-family="Helvetica,sans-Serif" font-size="10.00">fcmaes.optimizer.wrapper.</text>
<text text-anchor="middle" x="198.75" y="-19.5" font-family="Helvetica,sans-Serif" font-size="10.00">__call__</text>
</a>
</g>
</g>
<!-- Node2 -->
<g id="Node000002" class="node">
<title>Node2</title>
<g id="a_Node000002"><a xlink:href="classhbv_1_1hbv.html#a89aea998d9546dc3465bf46fbee95689" target="_top" xlink:title=" ">
<polygon fill="white" stroke="#666666" points="97,-58 0,-58 0,-38 97,-38 97,-58"/>
<text text-anchor="middle" x="48.5" y="-44.5" font-family="Helvetica,sans-Serif" font-size="10.00">hbv.hbv.qd_fitness</text>
</a>
</g>
</g>
<!-- Node1&#45;&gt;Node2 -->
<g id="edge1_Node000001_Node000002" class="edge">
<title>Node1&#45;&gt;Node2</title>
<g id="a_edge1_Node000001_Node000002"><a xlink:title=" ">
<path fill="none" stroke="#63b8ff" d="M121.44,-38.78C113.15,-39.84 104.9,-40.9 97.09,-41.9"/>
<polygon fill="#63b8ff" stroke="#63b8ff" points="121.75,-42.27 131.22,-37.53 120.86,-35.33 121.75,-42.27"/>
</a>
</g>
</g>
<!-- Node3 -->
<g id="Node000003" class="node">
<title>Node3</title>
<g id="a_Node000003"><a xlink:href="classlrgv_1_1lrgv.html#a527b9b7a7927721b5320ab433bf75aea" target="_top" xlink:title=" ">
<polygon fill="white" stroke="#666666" points="97,-20 0,-20 0,0 97,0 97,-20"/>
<text text-anchor="middle" x="48.5" y="-6.5" font-family="Helvetica,sans-Serif" font-size="10.00">lrgv.lrgv.qd_fitness</text>
</a>
</g>
</g>
<!-- Node1&#45;&gt;Node3 -->
<g id="edge2_Node000001_Node000003" class="edge">
<title>Node1&#45;&gt;Node3</title>
<g id="a_edge2_Node000001_Node000003"><a xlink:title=" ">
<path fill="none" stroke="#63b8ff" d="M121.44,-19.22C113.15,-18.16 104.9,-17.1 97.09,-16.1"/>
<polygon fill="#63b8ff" stroke="#63b8ff" points="120.86,-22.67 131.22,-20.47 121.75,-15.73 120.86,-22.67"/>
</a>
</g>
</g>
</g>
</svg>
