<?xml version="1.0" encoding="UTF-8" standalone="no"?>
<!DOCTYPE svg PUBLIC "-//W3C//DTD SVG 1.1//EN"
 "http://www.w3.org/Graphics/SVG/1.1/DTD/svg11.dtd">
<!-- Generated by graphviz version 12.2.1 (20241206.2353)
 -->
<!-- Title: crmfnes::CrfmnesOptimizer::CrfmnesOptimizer Pages: 1 -->
<svg width="672pt" height="192pt"
 viewBox="0.00 0.00 672.00 192.00" xmlns="http://www.w3.org/2000/svg" xmlns:xlink="http://www.w3.org/1999/xlink">
<g id="graph0" class="graph" transform="scale(1 1) rotate(0) translate(4 188)">
<title>crmfnes::CrfmnesOptimizer::CrfmnesOptimizer</title>
<!-- Node1 -->
<g id="Node000001" class="node">
<title>Node1</title>
<g id="a_Node000001"><a xlink:title=" ">
<polygon fill="#999999" stroke="#666666" points="136.75,-102 0,-102 0,-70 136.75,-70 136.75,-102"/>
<text text-anchor="start" x="8" y="-88.5" font-family="Helvetica,sans-Serif" font-size="10.00">crmfnes::CrfmnesOptimizer</text>
<text text-anchor="middle" x="68.38" y="-76.5" font-family="Helvetica,sans-Serif" font-size="10.00">::CrfmnesOptimizer</text>
</a>
</g>
</g>
<!-- Node2 -->
<g id="Node000002" class="node">
<title>Node2</title>
<g id="a_Node000002"><a xlink:href="evaluator_8h.html#a493b3a74ec3481711548e4b506b009cd" target="_top" xlink:title=" ">
<polygon fill="white" stroke="#666666" points="267.88,-184 214.38,-184 214.38,-164 267.88,-164 267.88,-184"/>
<text text-anchor="middle" x="241.12" y="-170.5" font-family="Helvetica,sans-Serif" font-size="10.00">constant</text>
</a>
</g>
</g>
<!-- Node1&#45;&gt;Node2 -->
<g id="edge1_Node000001_Node000002" class="edge">
<title>Node1&#45;&gt;Node2</title>
<g id="a_edge1_Node000001_Node000002"><a xlink:title=" ">
<path fill="none" stroke="#63b8ff" d="M89.61,-102.32C109.66,-117.79 141.79,-140.73 172.75,-155 182.29,-159.4 193.08,-162.99 203.17,-165.82"/>
<polygon fill="#63b8ff" stroke="#63b8ff" points="202.15,-169.17 212.71,-168.32 203.92,-162.4 202.15,-169.17"/>
</a>
</g>
</g>
<!-- Node3 -->
<g id="Node000003" class="node">
<title>Node3</title>
<g id="a_Node000003"><a xlink:href="classcrmfnes_1_1_crfmnes_optimizer.html#af30c10c32f611845931c3a8dc034874f" target="_top" xlink:title=" ">
<polygon fill="white" stroke="#666666" points="309.5,-146 172.75,-146 172.75,-114 309.5,-114 309.5,-146"/>
<text text-anchor="start" x="180.75" y="-132.5" font-family="Helvetica,sans-Serif" font-size="10.00">crmfnes::CrfmnesOptimizer</text>
<text text-anchor="middle" x="241.12" y="-120.5" font-family="Helvetica,sans-Serif" font-size="10.00">::get_h_inv</text>
</a>
</g>
</g>
<!-- Node1&#45;&gt;Node3 -->
<g id="edge2_Node000001_Node000003" class="edge">
<title>Node1&#45;&gt;Node3</title>
<g id="a_edge2_Node000001_Node000003"><a xlink:title=" ">
<path fill="none" stroke="#63b8ff" d="M132.96,-102.38C143.44,-105.09 154.4,-107.91 165.13,-110.67"/>
<polygon fill="#63b8ff" stroke="#63b8ff" points="164.18,-114.05 174.74,-113.15 165.93,-107.27 164.18,-114.05"/>
</a>
</g>
</g>
<!-- Node7 -->
<g id="Node000007" class="node">
<title>Node7</title>
<g id="a_Node000007"><a xlink:href="evaluator_8h.html#a5b652df2286e1f0c4dae7d4dd841bb8f" target="_top" xlink:title=" ">
<polygon fill="white" stroke="#666666" points="272,-96 210.25,-96 210.25,-76 272,-76 272,-96"/>
<text text-anchor="middle" x="241.12" y="-82.5" font-family="Helvetica,sans-Serif" font-size="10.00">normalVec</text>
</a>
</g>
</g>
<!-- Node1&#45;&gt;Node7 -->
<g id="edge7_Node000001_Node000007" class="edge">
<title>Node1&#45;&gt;Node7</title>
<g id="a_edge7_Node000001_Node000007"><a xlink:title=" ">
<path fill="none" stroke="#63b8ff" d="M136.86,-86C157.76,-86 180.15,-86 198.73,-86"/>
<polygon fill="#63b8ff" stroke="#63b8ff" points="198.53,-89.5 208.53,-86 198.53,-82.5 198.53,-89.5"/>
</a>
</g>
</g>
<!-- Node8 -->
<g id="Node000008" class="node">
<title>Node8</title>
<g id="a_Node000008"><a xlink:href="namespacecrmfnes.html#a37f765d781ba1148662c876fc40498b8" target="_top" xlink:title=" ">
<polygon fill="white" stroke="#666666" points="290.75,-58 191.5,-58 191.5,-38 290.75,-38 290.75,-58"/>
<text text-anchor="middle" x="241.12" y="-44.5" font-family="Helvetica,sans-Serif" font-size="10.00">crmfnes::sequence</text>
</a>
</g>
</g>
<!-- Node1&#45;&gt;Node8 -->
<g id="edge8_Node000001_Node000008" class="edge">
<title>Node1&#45;&gt;Node8</title>
<g id="a_edge8_Node000001_Node000008"><a xlink:title=" ">
<path fill="none" stroke="#63b8ff" d="M136.86,-70.98C151.87,-67.64 167.64,-64.13 182.22,-60.89"/>
<polygon fill="#63b8ff" stroke="#63b8ff" points="182.63,-64.38 191.63,-58.79 181.11,-57.55 182.63,-64.38"/>
</a>
</g>
</g>
<!-- Node9 -->
<g id="Node000009" class="node">
<title>Node9</title>
<g id="a_Node000009"><a xlink:href="evaluator_8h.html#a909812174fa9829bc49f6e00edb00b90" target="_top" xlink:title=" ">
<polygon fill="white" stroke="#666666" points="261.12,-20 221.12,-20 221.12,0 261.12,0 261.12,-20"/>
<text text-anchor="middle" x="241.12" y="-6.5" font-family="Helvetica,sans-Serif" font-size="10.00">zeros</text>
</a>
</g>
</g>
<!-- Node1&#45;&gt;Node9 -->
<g id="edge9_Node000001_Node000009" class="edge">
<title>Node1&#45;&gt;Node9</title>
<g id="a_edge9_Node000001_Node000009"><a xlink:title=" ">
<path fill="none" stroke="#63b8ff" d="M95.32,-69.51C115.74,-57.07 145.26,-40.28 172.75,-29 184.56,-24.16 198.01,-20.09 209.78,-16.98"/>
<polygon fill="#63b8ff" stroke="#63b8ff" points="210.55,-20.39 219.39,-14.56 208.84,-13.6 210.55,-20.39"/>
</a>
</g>
</g>
<!-- Node4 -->
<g id="Node000004" class="node">
<title>Node4</title>
<g id="a_Node000004"><a xlink:href="classcrmfnes_1_1_crfmnes_optimizer.html#a8f9c2b6e89e25a5c3e0d50a8eb4011be" target="_top" xlink:title=" ">
<polygon fill="white" stroke="#666666" points="491.25,-162 345.5,-162 345.5,-142 491.25,-142 491.25,-162"/>
<text text-anchor="middle" x="418.38" y="-148.5" font-family="Helvetica,sans-Serif" font-size="10.00">crmfnes::CrfmnesOptimizer::f</text>
</a>
</g>
</g>
<!-- Node3&#45;&gt;Node4 -->
<g id="edge3_Node000003_Node000004" class="edge">
<title>Node3&#45;&gt;Node4</title>
<g id="a_edge3_Node000003_Node000004"><a xlink:title=" ">
<path fill="none" stroke="#63b8ff" d="M309.88,-138.51C317.74,-139.49 325.82,-140.51 333.85,-141.52"/>
<polygon fill="#63b8ff" stroke="#63b8ff" points="333.29,-144.97 343.65,-142.75 334.17,-138.03 333.29,-144.97"/>
</a>
</g>
</g>
<!-- Node6 -->
<g id="Node000006" class="node">
<title>Node6</title>
<g id="a_Node000006"><a xlink:href="classcrmfnes_1_1_crfmnes_optimizer.html#a7f306ac3a58b6ed9f29babc44fbe466b" target="_top" xlink:title=" ">
<polygon fill="white" stroke="#666666" points="486.75,-124 350,-124 350,-92 486.75,-92 486.75,-124"/>
<text text-anchor="start" x="358" y="-110.5" font-family="Helvetica,sans-Serif" font-size="10.00">crmfnes::CrfmnesOptimizer</text>
<text text-anchor="middle" x="418.38" y="-98.5" font-family="Helvetica,sans-Serif" font-size="10.00">::f_prime</text>
</a>
</g>
</g>
<!-- Node3&#45;&gt;Node6 -->
<g id="edge5_Node000003_Node000006" class="edge">
<title>Node3&#45;&gt;Node6</title>
<g id="a_edge5_Node000003_Node000006"><a xlink:title=" ">
<path fill="none" stroke="#63b8ff" d="M309.88,-121.49C319.13,-120.33 328.68,-119.13 338.11,-117.95"/>
<polygon fill="#63b8ff" stroke="#63b8ff" points="338.52,-121.43 348.01,-116.71 337.65,-114.48 338.52,-121.43"/>
</a>
</g>
</g>
<!-- Node5 -->
<g id="Node000005" class="node">
<title>Node5</title>
<g id="a_Node000005"><a xlink:href="classcrmfnes_1_1_crfmnes_optimizer.html#a1c0bc5770261a21ed819387c339b3c05" target="_top" xlink:title=" ">
<polygon fill="white" stroke="#666666" points="664,-146 527.25,-146 527.25,-114 664,-114 664,-146"/>
<text text-anchor="start" x="535.25" y="-132.5" font-family="Helvetica,sans-Serif" font-size="10.00">crmfnes::CrfmnesOptimizer</text>
<text text-anchor="middle" x="595.62" y="-120.5" font-family="Helvetica,sans-Serif" font-size="10.00">::cexp</text>
</a>
</g>
</g>
<!-- Node4&#45;&gt;Node5 -->
<g id="edge4_Node000004_Node000005" class="edge">
<title>Node4&#45;&gt;Node5</title>
<g id="a_edge4_Node000004_Node000005"><a xlink:title=" ">
<path fill="none" stroke="#63b8ff" d="M491.67,-142.92C499.61,-141.93 507.73,-140.91 515.76,-139.9"/>
<polygon fill="#63b8ff" stroke="#63b8ff" points="516.01,-143.4 525.5,-138.68 515.14,-136.45 516.01,-143.4"/>
</a>
</g>
</g>
<!-- Node6&#45;&gt;Node5 -->
<g id="edge6_Node000006_Node000005" class="edge">
<title>Node6&#45;&gt;Node5</title>
<g id="a_edge6_Node000006_Node000005"><a xlink:title=" ">
<path fill="none" stroke="#63b8ff" d="M487.13,-116.51C496.38,-117.67 505.93,-118.87 515.36,-120.05"/>
<polygon fill="#63b8ff" stroke="#63b8ff" points="514.9,-123.52 525.26,-121.29 515.77,-116.57 514.9,-123.52"/>
</a>
</g>
</g>
</g>
</svg>
