<?xml version="1.0" encoding="UTF-8" standalone="no"?>
<!DOCTYPE svg PUBLIC "-//W3C//DTD SVG 1.1//EN"
 "http://www.w3.org/Graphics/SVG/1.1/DTD/svg11.dtd">
<!-- Generated by graphviz version 12.2.1 (20241206.2353)
 -->
<!-- Title: fcmaes.journal.Study_start Pages: 1 -->
<svg width="108pt" height="172pt"
 viewBox="0.00 0.00 108.25 172.00" xmlns="http://www.w3.org/2000/svg" xmlns:xlink="http://www.w3.org/1999/xlink">

<svg id="main" version="1.1" xmlns="http://www.w3.org/2000/svg" xmlns:xlink="http://www.w3.org/1999/xlink" xml:space="preserve">

<style type="text/css"><![CDATA[
.node, .edge {opacity: 0.7;}
.node.selected, .edge.selected {opacity: 1;}
.edge:hover path { stroke: red; }
.edge:hover polygon { stroke: red; fill: red; }
]]></style>
<script type="application/ecmascript" xlink:href="svg.min.js"/>
<svg id="graph" class="graph">
<g id="graph0" class="graph" transform="scale(1 1) rotate(0) translate(4 168)">
<title>fcmaes.journal.Study_start</title>
<!-- Node1 -->
<g id="Node000001" class="node">
<title>Node1</title>
<g id="a_Node000001"><a xlink:title="Represents the initial message to start a study.">
<polygon fill="#999999" stroke="none" points="100.25,-64 0,-64 0,0 100.25,0 100.25,-64"/>
<text text-anchor="start" x="4" y="-50.5" font-family="Helvetica,sans-Serif" font-size="10.00">fcmaes.journal.Study</text>
<text text-anchor="start" x="37.75" y="-38.5" font-family="Helvetica,sans-Serif" font-size="10.00">_start</text>
<text text-anchor="start" x="9.38" y="-22.5" font-family="Helvetica,sans-Serif" font-size="10.00">+</text>
<text text-anchor="start" x="24.75" y="-22.5" font-family="Helvetica,sans-Serif" font-size="10.00">List directions</text>
<text text-anchor="start" x="48.62" y="-6.5" font-family="Helvetica,sans-Serif" font-size="10.00"> </text>
<polygon fill="#666666" stroke="#666666" points="0,-34 0,-34 100.25,-34 100.25,-34 0,-34"/>
<polygon fill="#666666" stroke="#666666" points="0,-18 0,-18 22.75,-18 22.75,-18 0,-18"/>
<polygon fill="#666666" stroke="#666666" points="22.75,-18 22.75,-18 100.25,-18 100.25,-18 22.75,-18"/>
<polygon fill="none" stroke="#666666" points="0,0 0,-64 100.25,-64 100.25,0 0,0"/>
</a>
</g>
</g>
<!-- Node2 -->
<g id="Node000002" class="node">
<title>Node2</title>
<g id="a_Node000002"><a xlink:href="classfcmaes_1_1journal_1_1_base__message.html" target="_top" xlink:title="Represents the base structure of a message.">
<polygon fill="white" stroke="none" points="98.75,-164 1.5,-164 1.5,-100 98.75,-100 98.75,-164"/>
<text text-anchor="start" x="5.5" y="-150.5" font-family="Helvetica,sans-Serif" font-size="10.00">fcmaes.journal.Base</text>
<text text-anchor="start" x="27.62" y="-138.5" font-family="Helvetica,sans-Serif" font-size="10.00">_message</text>
<text text-anchor="start" x="48.62" y="-122.5" font-family="Helvetica,sans-Serif" font-size="10.00"> </text>
<text text-anchor="start" x="48.62" y="-106.5" font-family="Helvetica,sans-Serif" font-size="10.00"> </text>
<polygon fill="#666666" stroke="#666666" points="1.5,-134 1.5,-134 98.75,-134 98.75,-134 1.5,-134"/>
<polygon fill="#666666" stroke="#666666" points="1.5,-118 1.5,-118 98.75,-118 98.75,-118 1.5,-118"/>
<polygon fill="none" stroke="#666666" points="1.5,-100 1.5,-164 98.75,-164 98.75,-100 1.5,-100"/>
</a>
</g>
</g>
<!-- Node2&#45;&gt;Node1 -->
<g id="edge1_Node000001_Node000002" class="edge">
<title>Node2&#45;&gt;Node1</title>
<g id="a_edge1_Node000001_Node000002"><a xlink:title=" ">
<path fill="none" stroke="#63b8ff" d="M50.12,-88.77C50.12,-80.44 50.12,-71.84 50.12,-63.97"/>
<polygon fill="none" stroke="#63b8ff" points="46.63,-88.75 50.13,-98.75 53.63,-88.75 46.63,-88.75"/>
</a>
</g>
</g>
</g>
</svg>
</svg>

<style type='text/css'>
<![CDATA[
[data-mouse-over-selected='false'] { opacity: 0.7; }
[data-mouse-over-selected='true']  { opacity: 1.0; }
]]>
</style>
<script type="application/ecmascript"><![CDATA[
document.addEventListener('DOMContentLoaded', (event) => {
  highlightEdges();
  highlightAdjacentNodes();
});
]]></script>
</svg>
