<?xml version="1.0" encoding="UTF-8" standalone="no"?>
<!DOCTYPE svg PUBLIC "-//W3C//DTD SVG 1.1//EN"
 "http://www.w3.org/Graphics/SVG/1.1/DTD/svg11.dtd">
<!-- Generated by graphviz version 12.2.1 (20241206.2353)
 -->
<!-- Title: dual_annealing::sizeexception Pages: 1 -->
<svg width="147pt" height="160pt"
 viewBox="0.00 0.00 146.50 160.00" xmlns="http://www.w3.org/2000/svg" xmlns:xlink="http://www.w3.org/1999/xlink">
<g id="graph0" class="graph" transform="scale(1 1) rotate(0) translate(4 156)">
<title>dual_annealing::sizeexception</title>
<!-- Node1 -->
<g id="Node000001" class="node">
<title>Node1</title>
<g id="a_Node000001"><a xlink:title=" ">
<polygon fill="#999999" stroke="none" points="138.5,-64 0,-64 0,0 138.5,0 138.5,-64"/>
<text text-anchor="start" x="4" y="-50.5" font-family="Helvetica,sans-Serif" font-size="10.00">dual_annealing::sizeexception</text>
<text text-anchor="start" x="67.75" y="-34.5" font-family="Helvetica,sans-Serif" font-size="10.00"> </text>
<text text-anchor="start" x="16.12" y="-18.5" font-family="Helvetica,sans-Serif" font-size="10.00">&#45;</text>
<text text-anchor="start" x="35.25" y="-18.5" font-family="Helvetica,sans-Serif" font-size="10.00">virtual const char</text>
<text text-anchor="start" x="35.25" y="-6.5" font-family="Helvetica,sans-Serif" font-size="10.00"> * what() const</text>
<polygon fill="#666666" stroke="#666666" points="0,-46 0,-46 138.5,-46 138.5,-46 0,-46"/>
<polygon fill="#666666" stroke="#666666" points="0,-30 0,-30 138.5,-30 138.5,-30 0,-30"/>
<polygon fill="none" stroke="#666666" points="0,0 0,-64 138.5,-64 138.5,0 0,0"/>
</a>
</g>
</g>
<!-- Node2 -->
<g id="Node000002" class="node">
<title>Node2</title>
<g id="a_Node000002"><a xlink:title=" ">
<polygon fill="white" stroke="none" points="94.25,-152 44.25,-152 44.25,-100 94.25,-100 94.25,-152"/>
<text text-anchor="start" x="48.25" y="-138.5" font-family="Helvetica,sans-Serif" font-size="10.00">exception</text>
<text text-anchor="start" x="67.75" y="-122.5" font-family="Helvetica,sans-Serif" font-size="10.00"> </text>
<text text-anchor="start" x="67.75" y="-106.5" font-family="Helvetica,sans-Serif" font-size="10.00"> </text>
<polygon fill="#666666" stroke="#666666" points="44.25,-134 44.25,-134 94.25,-134 94.25,-134 44.25,-134"/>
<polygon fill="#666666" stroke="#666666" points="44.25,-118 44.25,-118 94.25,-118 94.25,-118 44.25,-118"/>
<polygon fill="none" stroke="#666666" points="44.25,-100 44.25,-152 94.25,-152 94.25,-100 44.25,-100"/>
</a>
</g>
</g>
<!-- Node2&#45;&gt;Node1 -->
<g id="edge1_Node000001_Node000002" class="edge">
<title>Node2&#45;&gt;Node1</title>
<g id="a_edge1_Node000001_Node000002"><a xlink:title=" ">
<path fill="none" stroke="#63b8ff" d="M69.25,-89.06C69.25,-80.78 69.25,-72.04 69.25,-63.98"/>
<polygon fill="none" stroke="#63b8ff" points="65.75,-88.83 69.25,-98.83 72.75,-88.83 65.75,-88.83"/>
</a>
</g>
</g>
</g>
</svg>
