<?xml version="1.0" encoding="UTF-8" standalone="no"?>
<!DOCTYPE svg PUBLIC "-//W3C//DTD SVG 1.1//EN"
 "http://www.w3.org/Graphics/SVG/1.1/DTD/svg11.dtd">
<!-- Generated by graphviz version 12.2.1 (20241206.2353)
 -->
<!-- Title: LBFGSpp::LBFGSBSolver::minimize Pages: 1 -->
<svg width="307pt" height="190pt"
 viewBox="0.00 0.00 307.00 190.00" xmlns="http://www.w3.org/2000/svg" xmlns:xlink="http://www.w3.org/1999/xlink">

<svg id="main" version="1.1" xmlns="http://www.w3.org/2000/svg" xmlns:xlink="http://www.w3.org/1999/xlink" xml:space="preserve">

<style type="text/css"><![CDATA[
.node, .edge {opacity: 0.7;}
.node.selected, .edge.selected {opacity: 1;}
.edge:hover path { stroke: red; }
.edge:hover polygon { stroke: red; fill: red; }
]]></style>
<script type="application/ecmascript" xlink:href="svg.min.js"/>
<svg id="graph" class="graph">
<g id="graph0" class="graph" transform="scale(1 1) rotate(0) translate(4 186)">
<title>LBFGSpp::LBFGSBSolver::minimize</title>
<!-- Node1 -->
<g id="Node000001" class="node">
<title>Node1</title>
<g id="a_Node000001"><a xlink:title=" ">
<polygon fill="#999999" stroke="#666666" points="131.5,-107 0,-107 0,-75 131.5,-75 131.5,-107"/>
<text text-anchor="start" x="8" y="-93.5" font-family="Helvetica,sans-Serif" font-size="10.00">LBFGSpp::LBFGSBSolver</text>
<text text-anchor="middle" x="65.75" y="-81.5" font-family="Helvetica,sans-Serif" font-size="10.00">::minimize</text>
</a>
</g>
</g>
<!-- Node2 -->
<g id="Node000002" class="node">
<title>Node2</title>
<g id="a_Node000002"><a xlink:href="class_l_b_f_g_spp_1_1_l_b_f_g_s_b_solver.html#a88780c13f50eaaf437bcbbb54d7a7f3c" target="_top" xlink:title=" ">
<polygon fill="white" stroke="#666666" points="299,-182 167.5,-182 167.5,-150 299,-150 299,-182"/>
<text text-anchor="start" x="175.5" y="-168.5" font-family="Helvetica,sans-Serif" font-size="10.00">LBFGSpp::LBFGSBSolver</text>
<text text-anchor="middle" x="233.25" y="-156.5" font-family="Helvetica,sans-Serif" font-size="10.00">::force_bounds</text>
</a>
</g>
</g>
<!-- Node1&#45;&gt;Node2 -->
<g id="edge1_Node000001_Node000002" class="edge">
<title>Node1&#45;&gt;Node2</title>
<g id="a_edge1_Node000001_Node000002"><a xlink:title=" ">
<path fill="none" stroke="#63b8ff" d="M97.71,-107.29C117.46,-117.45 143.73,-130.54 167.5,-141 170.81,-142.46 174.23,-143.91 177.7,-145.35"/>
<polygon fill="#63b8ff" stroke="#63b8ff" points="176.16,-148.51 186.74,-149.03 178.79,-142.02 176.16,-148.51"/>
</a>
</g>
</g>
<!-- Node3 -->
<g id="Node000003" class="node">
<title>Node3</title>
<g id="a_Node000003"><a xlink:href="class_l_b_f_g_spp_1_1_l_b_f_g_s_b_solver.html#a788f97964a14b4b6db287f9e2646f2f6" target="_top" xlink:title=" ">
<polygon fill="white" stroke="#666666" points="299,-132 167.5,-132 167.5,-100 299,-100 299,-132"/>
<text text-anchor="start" x="175.5" y="-118.5" font-family="Helvetica,sans-Serif" font-size="10.00">LBFGSpp::LBFGSBSolver</text>
<text text-anchor="middle" x="233.25" y="-106.5" font-family="Helvetica,sans-Serif" font-size="10.00">::max_step_size</text>
</a>
</g>
</g>
<!-- Node1&#45;&gt;Node3 -->
<g id="edge2_Node000001_Node000003" class="edge">
<title>Node1&#45;&gt;Node3</title>
<g id="a_edge2_Node000001_Node000003"><a xlink:title=" ">
<path fill="none" stroke="#63b8ff" d="M131.68,-100.81C139.63,-102.01 147.79,-103.24 155.88,-104.46"/>
<polygon fill="#63b8ff" stroke="#63b8ff" points="155.32,-107.92 165.73,-105.95 156.37,-101 155.32,-107.92"/>
</a>
</g>
</g>
<!-- Node4 -->
<g id="Node000004" class="node">
<title>Node4</title>
<g id="a_Node000004"><a xlink:href="class_l_b_f_g_spp_1_1_l_b_f_g_s_b_solver.html#a57692ffc3df2f5152f8ef27dfb4f9cac" target="_top" xlink:title=" ">
<polygon fill="white" stroke="#666666" points="299,-82 167.5,-82 167.5,-50 299,-50 299,-82"/>
<text text-anchor="start" x="175.5" y="-68.5" font-family="Helvetica,sans-Serif" font-size="10.00">LBFGSpp::LBFGSBSolver</text>
<text text-anchor="middle" x="233.25" y="-56.5" font-family="Helvetica,sans-Serif" font-size="10.00">::proj_grad_norm</text>
</a>
</g>
</g>
<!-- Node1&#45;&gt;Node4 -->
<g id="edge3_Node000001_Node000004" class="edge">
<title>Node1&#45;&gt;Node4</title>
<g id="a_edge3_Node000001_Node000004"><a xlink:title=" ">
<path fill="none" stroke="#63b8ff" d="M131.68,-81.19C139.63,-79.99 147.79,-78.76 155.88,-77.54"/>
<polygon fill="#63b8ff" stroke="#63b8ff" points="156.37,-81 165.73,-76.05 155.32,-74.08 156.37,-81"/>
</a>
</g>
</g>
<!-- Node5 -->
<g id="Node000005" class="node">
<title>Node5</title>
<g id="a_Node000005"><a xlink:href="class_l_b_f_g_spp_1_1_l_b_f_g_s_b_solver.html#a2b265895288516adbacc3e25fabe2829" target="_top" xlink:title=" ">
<polygon fill="white" stroke="#666666" points="299,-32 167.5,-32 167.5,0 299,0 299,-32"/>
<text text-anchor="start" x="175.5" y="-18.5" font-family="Helvetica,sans-Serif" font-size="10.00">LBFGSpp::LBFGSBSolver</text>
<text text-anchor="middle" x="233.25" y="-6.5" font-family="Helvetica,sans-Serif" font-size="10.00">::reset</text>
</a>
</g>
</g>
<!-- Node1&#45;&gt;Node5 -->
<g id="edge4_Node000001_Node000005" class="edge">
<title>Node1&#45;&gt;Node5</title>
<g id="a_edge4_Node000001_Node000005"><a xlink:title=" ">
<path fill="none" stroke="#63b8ff" d="M97.71,-74.71C117.46,-64.55 143.73,-51.46 167.5,-41 170.81,-39.54 174.23,-38.09 177.7,-36.65"/>
<polygon fill="#63b8ff" stroke="#63b8ff" points="178.79,-39.98 186.74,-32.97 176.16,-33.49 178.79,-39.98"/>
</a>
</g>
</g>
</g>
</svg>
</svg>

<style type='text/css'>
<![CDATA[
[data-mouse-over-selected='false'] { opacity: 0.7; }
[data-mouse-over-selected='true']  { opacity: 1.0; }
]]>
</style>
<script type="application/ecmascript"><![CDATA[
document.addEventListener('DOMContentLoaded', (event) => {
  highlightEdges();
  highlightAdjacentNodes();
});
]]></script>
</svg>
