<?xml version="1.0" encoding="UTF-8" standalone="no"?>
<!DOCTYPE svg PUBLIC "-//W3C//DTD SVG 1.1//EN"
 "http://www.w3.org/Graphics/SVG/1.1/DTD/svg11.dtd">
<!-- Generated by graphviz version 12.2.1 (20241206.2353)
 -->
<!-- Title: examples.kepler.kepler.Kepler.mean2eccentric Pages: 1 -->
<svg width="565pt" height="78pt"
 viewBox="0.00 0.00 564.50 78.00" xmlns="http://www.w3.org/2000/svg" xmlns:xlink="http://www.w3.org/1999/xlink">
<g id="graph0" class="graph" transform="scale(1 1) rotate(0) translate(4 74)">
<title>examples.kepler.kepler.Kepler.mean2eccentric</title>
<!-- Node1 -->
<g id="Node000001" class="node">
<title>Node1</title>
<g id="a_Node000001"><a xlink:title=" ">
<polygon fill="#999999" stroke="#666666" points="219.25,-48 0,-48 0,-28 219.25,-28 219.25,-48"/>
<text text-anchor="middle" x="109.62" y="-34.5" font-family="Helvetica,sans-Serif" font-size="10.00">examples.kepler.kepler.Kepler.mean2eccentric</text>
</a>
</g>
</g>
<!-- Node2 -->
<g id="Node000002" class="node">
<title>Node2</title>
<g id="a_Node000002"><a xlink:href="namespaceexamples_1_1kepler_1_1kepler.html#a1e36aa5defd99e317d30a5db994a0576" target="_top" xlink:title=" ">
<polygon fill="white" stroke="#666666" points="374.75,-54 255.25,-54 255.25,-22 374.75,-22 374.75,-54"/>
<text text-anchor="start" x="263.25" y="-40.5" font-family="Helvetica,sans-Serif" font-size="10.00">examples.kepler.kepler.</text>
<text text-anchor="middle" x="315" y="-28.5" font-family="Helvetica,sans-Serif" font-size="10.00">_mean2eccentric</text>
</a>
</g>
</g>
<!-- Node1&#45;&gt;Node2 -->
<g id="edge1_Node000001_Node000002" class="edge">
<title>Node1&#45;&gt;Node2</title>
<g id="a_edge1_Node000001_Node000002"><a xlink:title=" ">
<path fill="none" stroke="#63b8ff" d="M219.46,-38C227.64,-38 235.77,-38 243.61,-38"/>
<polygon fill="#63b8ff" stroke="#63b8ff" points="243.38,-41.5 253.38,-38 243.38,-34.5 243.38,-41.5"/>
</a>
</g>
</g>
<!-- Node3 -->
<g id="Node000003" class="node">
<title>Node3</title>
<g id="a_Node000003"><a xlink:href="namespaceexamples_1_1kepler_1_1kepler.html#a2421a039709ffc114992322c5b944ba0" target="_top" xlink:title=" ">
<polygon fill="white" stroke="#666666" points="553.88,-70 413.38,-70 413.38,-50 553.88,-50 553.88,-70"/>
<text text-anchor="middle" x="483.62" y="-56.5" font-family="Helvetica,sans-Serif" font-size="10.00">examples.kepler.kepler.eps3</text>
</a>
</g>
</g>
<!-- Node2&#45;&gt;Node3 -->
<g id="edge2_Node000002_Node000003" class="edge">
<title>Node2&#45;&gt;Node3</title>
<g id="a_edge2_Node000002_Node000003"><a xlink:title=" ">
<path fill="none" stroke="#63b8ff" d="M375.21,-45.82C383.83,-46.96 392.82,-48.14 401.78,-49.33"/>
<polygon fill="#63b8ff" stroke="#63b8ff" points="401.2,-52.78 411.57,-50.62 402.11,-45.84 401.2,-52.78"/>
</a>
</g>
</g>
<!-- Node4 -->
<g id="Node000004" class="node">
<title>Node4</title>
<g id="a_Node000004"><a xlink:href="namespaceexamples_1_1kepler_1_1kepler.html#a1270aff9b2683cf09fd997af1c49791b" target="_top" xlink:title=" ">
<polygon fill="white" stroke="#666666" points="556.5,-32 410.75,-32 410.75,0 556.5,0 556.5,-32"/>
<text text-anchor="start" x="418.75" y="-18.5" font-family="Helvetica,sans-Serif" font-size="10.00">examples.kepler.kepler.kepler</text>
<text text-anchor="middle" x="483.62" y="-6.5" font-family="Helvetica,sans-Serif" font-size="10.00">Start3</text>
</a>
</g>
</g>
<!-- Node2&#45;&gt;Node4 -->
<g id="edge3_Node000002_Node000004" class="edge">
<title>Node2&#45;&gt;Node4</title>
<g id="a_edge3_Node000002_Node000004"><a xlink:title=" ">
<path fill="none" stroke="#63b8ff" d="M375.21,-30.18C382.97,-29.16 391.03,-28.09 399.1,-27.03"/>
<polygon fill="#63b8ff" stroke="#63b8ff" points="399.51,-30.5 408.97,-25.73 398.6,-23.56 399.51,-30.5"/>
</a>
</g>
</g>
</g>
</svg>
