<?xml version="1.0" encoding="UTF-8" standalone="no"?>
<!DOCTYPE svg PUBLIC "-//W3C//DTD SVG 1.1//EN"
 "http://www.w3.org/Graphics/SVG/1.1/DTD/svg11.dtd">
<!-- Generated by graphviz version 12.2.1 (20241206.2353)
 -->
<!-- Title: CBiteOpt::generateSol8 Pages: 1 -->
<!--zoomable 216 -->

<svg id="main" version="1.1" xmlns="http://www.w3.org/2000/svg" xmlns:xlink="http://www.w3.org/1999/xlink" xml:space="preserve" onload="init(evt)">

<style type="text/css"><![CDATA[
.node, .edge {opacity: 0.7;}
.node.selected, .edge.selected {opacity: 1;}
.edge:hover path { stroke: red; }
.edge:hover polygon { stroke: red; fill: red; }
]]></style>

<defs>
  <circle id="rim" cx="0" cy="0" r="7"/>
  <circle id="rim2" cx="0" cy="0" r="3.5"/>
  <g id="zoomPlus">
    <use xlink:href="#rim" fill="#404040"><set attributeName="fill" to="#808080" begin="zoomplus.mouseover" end="zoomplus.mouseout"/></use>
    <path d="M-4,0h8M0,-4v8" fill="none" stroke="white" stroke-width="1.5" pointer-events="none"/>
  </g>
  <g id="zoomMin">
    <use xlink:href="#rim" fill="#404040"><set attributeName="fill" to="#808080" begin="zoomminus.mouseover" end="zoomminus.mouseout"/></use>
    <path d="M-4,0h8" fill="none" stroke="white" stroke-width="1.5" pointer-events="none"/>
  </g>
  <g id="arrowUp" transform="translate(30 24)">
    <use xlink:href="#rim"/>
    <path pointer-events="none" fill="none" stroke="white" stroke-width="1.5" d="M0,-3.0v7 M-2.5,-0.5L0,-3.0L2.5,-0.5"/>
  </g>
  <g id="arrowRight" transform="rotate(90) translate(36 -43)">
    <use xlink:href="#rim"/>
    <path pointer-events="none" fill="none" stroke="white" stroke-width="1.5" d="M0,-3.0v7 M-2.5,-0.5L0,-3.0L2.5,-0.5"/>
  </g>
  <g id="arrowDown" transform="rotate(180) translate(-30 -48)">
    <use xlink:href="#rim"/>
    <path pointer-events="none" fill="none" stroke="white" stroke-width="1.5" d="M0,-3.0v7 M-2.5,-0.5L0,-3.0L2.5,-0.5"/>
  </g>
  <g id="arrowLeft" transform="rotate(270) translate(-36 17)">
    <use xlink:href="#rim"/>
    <path pointer-events="none" fill="none" stroke="white" stroke-width="1.5" d="M0,-3.0v7 M-2.5,-0.5L0,-3.0L2.5,-0.5"/>
  </g>
  <g id="resetDef">
    <use xlink:href="#rim2" fill="#404040"><set attributeName="fill" to="#808080" begin="reset.mouseover" end="reset.mouseout"/></use>
  </g>
</defs>
<script type="application/ecmascript">
var viewWidth = 550;
var viewHeight = 216;
var sectionId = 'dynsection-28';
</script>
<script type="application/ecmascript" xlink:href="svg.min.js"/>
<svg id="graph" class="graph">
<g id="viewport">
<title>CBiteOpt::generateSol8</title>
<!-- Node1 -->
<g id="Node000001" class="node">
<title>Node1</title>
<g id="a_Node000001"><a xlink:title=" ">
<polygon fill="#999999" stroke="#666666" points="119.5,-114 0,-114 0,-94 119.5,-94 119.5,-114"/>
<text text-anchor="middle" x="59.75" y="-100.5" font-family="Helvetica,sans-Serif" font-size="10.00">CBiteOpt::generateSol8</text>
</a>
</g>
</g>
<!-- Node2 -->
<g id="Node000002" class="node">
<title>Node2</title>
<g id="a_Node000002"><a xlink:href="class_c_bite_pop.html#a24130fea35014433f142e3b9ed0f8929" target="_top" xlink:title=" ">
<polygon fill="white" stroke="#666666" points="267.88,-208 162.62,-208 162.62,-176 267.88,-176 267.88,-208"/>
<text text-anchor="start" x="170.62" y="-194.5" font-family="Helvetica,sans-Serif" font-size="10.00">CBitePop&lt; int64_t &gt;</text>
<text text-anchor="middle" x="215.25" y="-182.5" font-family="Helvetica,sans-Serif" font-size="10.00">::copyParams</text>
</a>
</g>
</g>
<!-- Node1&#45;&gt;Node2 -->
<g id="edge1_Node000001_Node000002" class="edge">
<title>Node1&#45;&gt;Node2</title>
<g id="a_edge1_Node000001_Node000002"><a xlink:title=" ">
<path fill="none" stroke="#63b8ff" d="M74.69,-114.46C92.72,-127.71 125.42,-150.78 155.5,-167 157.85,-168.27 160.27,-169.51 162.74,-170.74"/>
<polygon fill="#63b8ff" stroke="#63b8ff" points="161.12,-173.84 171.65,-174.96 164.11,-167.51 161.12,-173.84"/>
</a>
</g>
</g>
<!-- Node3 -->
<g id="Node000003" class="node">
<title>Node3</title>
<g id="a_Node000003"><a xlink:href="class_c_bite_rnd.html#a3f6c22ff1f6f19de24f7c837530f31c4" target="_top" xlink:title=" ">
<polygon fill="white" stroke="#666666" points="275,-158 155.5,-158 155.5,-138 275,-138 275,-158"/>
<text text-anchor="middle" x="215.25" y="-144.5" font-family="Helvetica,sans-Serif" font-size="10.00">CBiteRnd::getGaussian</text>
</a>
</g>
</g>
<!-- Node1&#45;&gt;Node3 -->
<g id="edge2_Node000001_Node000003" class="edge">
<title>Node1&#45;&gt;Node3</title>
<g id="a_edge2_Node000001_Node000003"><a xlink:title=" ">
<path fill="none" stroke="#63b8ff" d="M97.13,-114.43C117.98,-120.41 144.4,-127.98 166.87,-134.42"/>
<polygon fill="#63b8ff" stroke="#63b8ff" points="165.84,-137.76 176.41,-137.15 167.76,-131.03 165.84,-137.76"/>
</a>
</g>
</g>
<!-- Node6 -->
<g id="Node000006" class="node">
<title>Node6</title>
<g id="a_Node000006"><a xlink:href="class_c_bite_pop.html#aaa8e3f180accfedf21218cbed8ffbb79" target="_top" xlink:title=" ">
<polygon fill="white" stroke="#666666" points="267.88,-120 162.62,-120 162.62,-88 267.88,-88 267.88,-120"/>
<text text-anchor="start" x="170.62" y="-106.5" font-family="Helvetica,sans-Serif" font-size="10.00">CBitePop&lt; int64_t &gt;</text>
<text text-anchor="middle" x="215.25" y="-94.5" font-family="Helvetica,sans-Serif" font-size="10.00">::getParamsOrdered</text>
</a>
</g>
</g>
<!-- Node1&#45;&gt;Node6 -->
<g id="edge5_Node000001_Node000006" class="edge">
<title>Node1&#45;&gt;Node6</title>
<g id="a_edge5_Node000001_Node000006"><a xlink:title=" ">
<path fill="none" stroke="#63b8ff" d="M119.66,-104C129.86,-104 140.5,-104 150.81,-104"/>
<polygon fill="#63b8ff" stroke="#63b8ff" points="150.76,-107.5 160.75,-104 150.75,-100.5 150.76,-107.5"/>
</a>
</g>
</g>
<!-- Node7 -->
<g id="Node000007" class="node">
<title>Node7</title>
<g id="a_Node000007"><a xlink:href="class_c_bite_rnd.html#ab73d2c6a6e4c1f5da7441168f165529d" target="_top" xlink:title=" ">
<polygon fill="white" stroke="#666666" points="267.5,-70 163,-70 163,-50 267.5,-50 267.5,-70"/>
<text text-anchor="middle" x="215.25" y="-56.5" font-family="Helvetica,sans-Serif" font-size="10.00">CBiteRnd::getSqrInt</text>
</a>
</g>
</g>
<!-- Node1&#45;&gt;Node7 -->
<g id="edge6_Node000001_Node000007" class="edge">
<title>Node1&#45;&gt;Node7</title>
<g id="a_edge6_Node000001_Node000007"><a xlink:title=" ">
<path fill="none" stroke="#63b8ff" d="M97.13,-93.57C117.98,-87.59 144.4,-80.02 166.87,-73.58"/>
<polygon fill="#63b8ff" stroke="#63b8ff" points="167.76,-76.97 176.41,-70.85 165.84,-70.24 167.76,-76.97"/>
</a>
</g>
</g>
<!-- Node9 -->
<g id="Node000009" class="node">
<title>Node9</title>
<g id="a_Node000009"><a xlink:href="class_c_bite_opt_base.html#abf93d2e584756812ad210f86e4f84a69" target="_top" xlink:title=" ">
<polygon fill="white" stroke="#666666" points="269.75,-32 160.75,-32 160.75,0 269.75,0 269.75,-32"/>
<text text-anchor="start" x="168.75" y="-18.5" font-family="Helvetica,sans-Serif" font-size="10.00">CBiteOptBase&lt; int64</text>
<text text-anchor="middle" x="215.25" y="-6.5" font-family="Helvetica,sans-Serif" font-size="10.00">_t &gt;::select</text>
</a>
</g>
</g>
<!-- Node1&#45;&gt;Node9 -->
<g id="edge9_Node000001_Node000009" class="edge">
<title>Node1&#45;&gt;Node9</title>
<g id="a_edge9_Node000001_Node000009"><a xlink:title=" ">
<path fill="none" stroke="#63b8ff" d="M74.69,-93.54C92.72,-80.29 125.42,-57.22 155.5,-41 157.85,-39.73 160.27,-38.49 162.74,-37.26"/>
<polygon fill="#63b8ff" stroke="#63b8ff" points="164.11,-40.49 171.65,-33.04 161.12,-34.16 164.11,-40.49"/>
</a>
</g>
</g>
<!-- Node4 -->
<g id="Node000004" class="node">
<title>Node4</title>
<g id="a_Node000004"><a xlink:href="class_c_bite_rnd.html#afdb77334884f1a612780def0dec0a326" target="_top" xlink:title=" ">
<polygon fill="white" stroke="#666666" points="396.75,-145 318.5,-145 318.5,-125 396.75,-125 396.75,-145"/>
<text text-anchor="middle" x="357.62" y="-131.5" font-family="Helvetica,sans-Serif" font-size="10.00">CBiteRnd::get</text>
</a>
</g>
</g>
<!-- Node3&#45;&gt;Node4 -->
<g id="edge3_Node000003_Node000004" class="edge">
<title>Node3&#45;&gt;Node4</title>
<g id="a_edge3_Node000003_Node000004"><a xlink:title=" ">
<path fill="none" stroke="#63b8ff" d="M275.37,-142.52C285.94,-141.55 296.84,-140.54 307.1,-139.59"/>
<polygon fill="#63b8ff" stroke="#63b8ff" points="307.21,-143.09 316.85,-138.68 306.57,-136.12 307.21,-143.09"/>
</a>
</g>
</g>
<!-- Node5 -->
<g id="Node000005" class="node">
<title>Node5</title>
<g id="a_Node000005"><a xlink:href="class_c_bite_rnd.html#ae1167f8ecac85f268ced4bc1d2fa953b" target="_top" xlink:title=" ">
<polygon fill="white" stroke="#666666" points="541.75,-114 440.25,-114 440.25,-94 541.75,-94 541.75,-114"/>
<text text-anchor="middle" x="491" y="-100.5" font-family="Helvetica,sans-Serif" font-size="10.00">CBiteRnd::advance</text>
</a>
</g>
</g>
<!-- Node4&#45;&gt;Node5 -->
<g id="edge4_Node000004_Node000005" class="edge">
<title>Node4&#45;&gt;Node5</title>
<g id="a_edge4_Node000004_Node000005"><a xlink:title=" ">
<path fill="none" stroke="#63b8ff" d="M396.98,-125.95C408.81,-123.16 422.08,-120.03 434.82,-117.02"/>
<polygon fill="#63b8ff" stroke="#63b8ff" points="435.41,-120.48 444.34,-114.77 433.81,-113.66 435.41,-120.48"/>
</a>
</g>
</g>
<!-- Node8 -->
<g id="Node000008" class="node">
<title>Node8</title>
<g id="a_Node000008"><a xlink:href="class_c_bite_rnd.html#aabbf1ffd535ca8fe31fda768f15ccd1b" target="_top" xlink:title=" ">
<polygon fill="white" stroke="#666666" points="404.25,-95 311,-95 311,-75 404.25,-75 404.25,-95"/>
<text text-anchor="middle" x="357.62" y="-81.5" font-family="Helvetica,sans-Serif" font-size="10.00">CBiteRnd::getSqr</text>
</a>
</g>
</g>
<!-- Node7&#45;&gt;Node8 -->
<g id="edge7_Node000007_Node000008" class="edge">
<title>Node7&#45;&gt;Node8</title>
<g id="a_edge7_Node000007_Node000008"><a xlink:title=" ">
<path fill="none" stroke="#63b8ff" d="M267.72,-69.17C278.07,-71.01 289,-72.96 299.52,-74.83"/>
<polygon fill="#63b8ff" stroke="#63b8ff" points="298.78,-78.25 309.24,-76.56 300.01,-71.36 298.78,-78.25"/>
</a>
</g>
</g>
<!-- Node8&#45;&gt;Node5 -->
<g id="edge8_Node000008_Node000005" class="edge">
<title>Node8&#45;&gt;Node5</title>
<g id="a_edge8_Node000008_Node000005"><a xlink:title=" ">
<path fill="none" stroke="#63b8ff" d="M404.57,-91.65C412.32,-92.77 420.47,-93.94 428.53,-95.11"/>
<polygon fill="#63b8ff" stroke="#63b8ff" points="427.93,-98.56 438.33,-96.53 428.93,-91.63 427.93,-98.56"/>
</a>
</g>
</g>
</g>
</svg>

<g id="navigator" transform="translate(0 0)" fill="#404254">
  <rect fill="#f2f5e9" fill-opacity="0.5" stroke="#606060" stroke-width=".5" x="0" y="0" width="60" height="60"/>
  <use id="zoomplus" xlink:href="#zoomPlus" x="17" y="9" onmousedown="handleZoom(evt,'in')"/>
  <use id="zoomminus" xlink:href="#zoomMin" x="42" y="9" onmousedown="handleZoom(evt,'out')"/>
  <use id="reset" xlink:href="#resetDef" x="30" y="36" onmousedown="handleReset()"/>
   <use id="arrowup" xlink:href="#arrowUp" x="0" y="0" onmousedown="handlePan(0,-1)"/>
  <use id="arrowright" xlink:href="#arrowRight" x="0" y="0" onmousedown="handlePan(1,0)"/>
  <use id="arrowdown" xlink:href="#arrowDown" x="0" y="0" onmousedown="handlePan(0,1)"/>
  <use id="arrowleft" xlink:href="#arrowLeft" x="0" y="0" onmousedown="handlePan(-1,0)"/>
</g>
<svg viewBox="0 0 15 15" width="100%" height="30px" preserveAspectRatio="xMaxYMin meet">
 <g id="arrow_out" transform="scale(0.3 0.3)">
  <a xlink:href="class_c_bite_opt_a332b03425de84b8ef8eb362af8e75e78_cgraph_org.svg" target="_base">
   <rect id="button" ry="5" rx="5" y="6" x="6" height="38" width="38"
        fill="#f2f5e9" fill-opacity="0.5" stroke="#606060" stroke-width="1.0"/>
   <path id="arrow"
     d="M 11.500037,31.436501 C 11.940474,20.09759 22.043105,11.32322 32.158766,21.979434 L 37.068811,17.246167 C 37.068811,17.246167 37.088388,32 37.088388,32 L 22.160133,31.978069 C 22.160133,31.978069 26.997745,27.140456 26.997745,27.140456 C 18.528582,18.264221 13.291696,25.230495 11.500037,31.436501 z"
     style="fill:#404040;"/>
  </a>
 </g>
</svg>

<style type='text/css'>
<![CDATA[
[data-mouse-over-selected='false'] { opacity: 0.7; }
[data-mouse-over-selected='true']  { opacity: 1.0; }
]]>
</style>
<script type="application/ecmascript"><![CDATA[
document.addEventListener('DOMContentLoaded', (event) => {
  highlightEdges();
  highlightAdjacentNodes();
});
]]></script>
</svg>
