<?xml version="1.0" encoding="UTF-8" standalone="no"?>
<!DOCTYPE svg PUBLIC "-//W3C//DTD SVG 1.1//EN"
 "http://www.w3.org/Graphics/SVG/1.1/DTD/svg11.dtd">
<!-- Generated by graphviz version 12.2.1 (20241206.2353)
 -->
<!-- Title: examples.solo_mgar_udp.solo_mgar_udp.fitness Pages: 1 -->
<svg width="490pt" height="307pt"
 viewBox="0.00 0.00 490.25 307.00" xmlns="http://www.w3.org/2000/svg" xmlns:xlink="http://www.w3.org/1999/xlink">

<svg id="main" version="1.1" xmlns="http://www.w3.org/2000/svg" xmlns:xlink="http://www.w3.org/1999/xlink" xml:space="preserve">

<style type="text/css"><![CDATA[
.node, .edge {opacity: 0.7;}
.node.selected, .edge.selected {opacity: 1;}
.edge:hover path { stroke: red; }
.edge:hover polygon { stroke: red; fill: red; }
]]></style>
<script type="application/ecmascript" xlink:href="svg.min.js"/>
<svg id="graph" class="graph">
<g id="graph0" class="graph" transform="scale(1 1) rotate(0) translate(4 303)">
<title>examples.solo_mgar_udp.solo_mgar_udp.fitness</title>
<!-- Node1 -->
<g id="Node000001" class="node">
<title>Node1</title>
<g id="a_Node000001"><a xlink:title=" ">
<polygon fill="#999999" stroke="#666666" points="138.25,-150 0,-150 0,-118 138.25,-118 138.25,-150"/>
<text text-anchor="start" x="8" y="-136.5" font-family="Helvetica,sans-Serif" font-size="10.00">examples.solo_mgar</text>
<text text-anchor="middle" x="69.12" y="-124.5" font-family="Helvetica,sans-Serif" font-size="10.00">_udp.solo_mgar_udp.fitness</text>
</a>
</g>
</g>
<!-- Node2 -->
<g id="Node000002" class="node">
<title>Node2</title>
<g id="a_Node000002"><a xlink:href="classexamples_1_1solo__mgar__udp_1_1solo__mgar__udp.html#a92828aaaf12b6addeb33a6249b7539b8" target="_top" xlink:title=" ">
<polygon fill="white" stroke="#666666" points="300.88,-280 191.88,-280 191.88,-236 300.88,-236 300.88,-280"/>
<text text-anchor="start" x="199.88" y="-266.5" font-family="Helvetica,sans-Serif" font-size="10.00">examples.solo_mgar</text>
<text text-anchor="start" x="199.88" y="-254.5" font-family="Helvetica,sans-Serif" font-size="10.00">_udp.solo_mgar_udp.</text>
<text text-anchor="middle" x="246.38" y="-242.5" font-family="Helvetica,sans-Serif" font-size="10.00">_compute_dvs</text>
</a>
</g>
</g>
<!-- Node1&#45;&gt;Node2 -->
<g id="edge1_Node000001_Node000002" class="edge">
<title>Node1&#45;&gt;Node2</title>
<g id="a_edge1_Node000001_Node000002"><a xlink:title=" ">
<path fill="none" stroke="#63b8ff" d="M85.06,-150.2C104.21,-170.25 139.15,-204.5 174.25,-227 176.63,-228.53 179.1,-230.01 181.63,-231.45"/>
<polygon fill="#63b8ff" stroke="#63b8ff" points="179.79,-234.44 190.26,-236.06 183.09,-228.26 179.79,-234.44"/>
</a>
</g>
</g>
<!-- Node5 -->
<g id="Node000005" class="node">
<title>Node5</title>
<g id="a_Node000005"><a xlink:href="classexamples_1_1benchmark__gtop__pygmo_1_1pygmo__udp.html#a41d3b087b32923f75cbe401f3f2419e3" target="_top" xlink:title=" ">
<polygon fill="white" stroke="#666666" points="318.5,-218 174.25,-218 174.25,-174 318.5,-174 318.5,-218"/>
<text text-anchor="start" x="182.25" y="-204.5" font-family="Helvetica,sans-Serif" font-size="10.00">examples.benchmark</text>
<text text-anchor="start" x="182.25" y="-192.5" font-family="Helvetica,sans-Serif" font-size="10.00">_gtop_pygmo.pygmo_udp.get</text>
<text text-anchor="middle" x="246.38" y="-180.5" font-family="Helvetica,sans-Serif" font-size="10.00">_bounds</text>
</a>
</g>
</g>
<!-- Node1&#45;&gt;Node5 -->
<g id="edge4_Node000001_Node000005" class="edge">
<title>Node1&#45;&gt;Node5</title>
<g id="a_edge4_Node000001_Node000005"><a xlink:title=" ">
<path fill="none" stroke="#63b8ff" d="M116.63,-150.45C133.33,-156.36 152.6,-163.18 171.07,-169.71"/>
<polygon fill="#63b8ff" stroke="#63b8ff" points="169.8,-172.98 180.4,-173.01 172.14,-166.38 169.8,-172.98"/>
</a>
</g>
</g>
<!-- Node6 -->
<g id="Node000006" class="node">
<title>Node6</title>
<g id="a_Node000006"><a xlink:href="classexamples_1_1interferometry__udp_1_1_interferometry.html#a2d43e438cc90a1c292c90925583652b7" target="_top" xlink:title=" ">
<polygon fill="white" stroke="#666666" points="306.88,-156 185.88,-156 185.88,-112 306.88,-112 306.88,-156"/>
<text text-anchor="start" x="193.88" y="-142.5" font-family="Helvetica,sans-Serif" font-size="10.00">examples.interferometry</text>
<text text-anchor="start" x="193.88" y="-130.5" font-family="Helvetica,sans-Serif" font-size="10.00">_udp.Interferometry.get</text>
<text text-anchor="middle" x="246.38" y="-118.5" font-family="Helvetica,sans-Serif" font-size="10.00">_bounds</text>
</a>
</g>
</g>
<!-- Node1&#45;&gt;Node6 -->
<g id="edge5_Node000001_Node000006" class="edge">
<title>Node1&#45;&gt;Node6</title>
<g id="a_edge5_Node000001_Node000006"><a xlink:title=" ">
<path fill="none" stroke="#63b8ff" d="M138.63,-134C150.23,-134 162.29,-134 173.95,-134"/>
<polygon fill="#63b8ff" stroke="#63b8ff" points="173.94,-137.5 183.94,-134 173.94,-130.5 173.94,-137.5"/>
</a>
</g>
</g>
<!-- Node7 -->
<g id="Node000007" class="node">
<title>Node7</title>
<g id="a_Node000007"><a xlink:href="classexamples_1_1solo__mgar__udp_1_1solo__mgar__udp.html#a2bee6165ff1ec7ab62b5abcaf671e68e" target="_top" xlink:title=" ">
<polygon fill="white" stroke="#666666" points="307.62,-94 185.12,-94 185.12,-50 307.62,-50 307.62,-94"/>
<text text-anchor="start" x="193.12" y="-80.5" font-family="Helvetica,sans-Serif" font-size="10.00">examples.solo_mgar</text>
<text text-anchor="start" x="193.12" y="-68.5" font-family="Helvetica,sans-Serif" font-size="10.00">_udp.solo_mgar_udp.get</text>
<text text-anchor="middle" x="246.38" y="-56.5" font-family="Helvetica,sans-Serif" font-size="10.00">_bounds</text>
</a>
</g>
</g>
<!-- Node1&#45;&gt;Node7 -->
<g id="edge6_Node000001_Node000007" class="edge">
<title>Node1&#45;&gt;Node7</title>
<g id="a_edge6_Node000001_Node000007"><a xlink:title=" ">
<path fill="none" stroke="#63b8ff" d="M116.63,-117.55C134.25,-111.31 154.75,-104.06 174.14,-97.2"/>
<polygon fill="#63b8ff" stroke="#63b8ff" points="175.08,-100.58 183.34,-93.95 172.75,-93.98 175.08,-100.58"/>
</a>
</g>
</g>
<!-- Node8 -->
<g id="Node000008" class="node">
<title>Node8</title>
<g id="a_Node000008"><a xlink:href="classquantumcomm_1_1constellation__udp.html#ae0a95b68653b5337476415c5f69fb960" target="_top" xlink:title="Get bounds for the decision variables.">
<polygon fill="white" stroke="#666666" points="315.5,-32 177.25,-32 177.25,0 315.5,0 315.5,-32"/>
<text text-anchor="start" x="185.25" y="-18.5" font-family="Helvetica,sans-Serif" font-size="10.00">quantumcomm.constellation</text>
<text text-anchor="middle" x="246.38" y="-6.5" font-family="Helvetica,sans-Serif" font-size="10.00">_udp.get_bounds</text>
</a>
</g>
</g>
<!-- Node1&#45;&gt;Node8 -->
<g id="edge7_Node000001_Node000008" class="edge">
<title>Node1&#45;&gt;Node8</title>
<g id="a_edge7_Node000001_Node000008"><a xlink:title=" ">
<path fill="none" stroke="#63b8ff" d="M84.48,-117.74C103.29,-97.3 138.15,-62.32 174.25,-41 176.53,-39.65 178.9,-38.36 181.32,-37.13"/>
<polygon fill="#63b8ff" stroke="#63b8ff" points="182.57,-40.4 190.16,-33 179.61,-34.06 182.57,-40.4"/>
</a>
</g>
</g>
<!-- Node3 -->
<g id="Node000003" class="node">
<title>Node3</title>
<g id="a_Node000003"><a xlink:href="namespaceexamples_1_1solo__mgar__udp.html#a6d928d9b61388ba3bc08749cb303c94e" target="_top" xlink:title=" ">
<polygon fill="white" stroke="#666666" points="471.38,-299 365.38,-299 365.38,-267 471.38,-267 471.38,-299"/>
<text text-anchor="start" x="373.38" y="-285.5" font-family="Helvetica,sans-Serif" font-size="10.00">examples.solo_mgar</text>
<text text-anchor="middle" x="418.38" y="-273.5" font-family="Helvetica,sans-Serif" font-size="10.00">_udp._dv_mga</text>
</a>
</g>
</g>
<!-- Node2&#45;&gt;Node3 -->
<g id="edge2_Node000002_Node000003" class="edge">
<title>Node2&#45;&gt;Node3</title>
<g id="a_edge2_Node000002_Node000003"><a xlink:title=" ">
<path fill="none" stroke="#63b8ff" d="M301.16,-265.91C317.92,-268.37 336.56,-271.12 353.91,-273.67"/>
<polygon fill="#63b8ff" stroke="#63b8ff" points="353.2,-277.1 363.6,-275.09 354.22,-270.17 353.2,-277.1"/>
</a>
</g>
</g>
<!-- Node4 -->
<g id="Node000004" class="node">
<title>Node4</title>
<g id="a_Node000004"><a xlink:href="namespaceexamples_1_1solo__mgar__udp.html#a2f01caf14c62d02e55dfc2245172590b" target="_top" xlink:title=" ">
<polygon fill="white" stroke="#666666" points="482.25,-249 354.5,-249 354.5,-217 482.25,-217 482.25,-249"/>
<text text-anchor="start" x="362.5" y="-235.5" font-family="Helvetica,sans-Serif" font-size="10.00">examples.solo_mgar</text>
<text text-anchor="middle" x="418.38" y="-223.5" font-family="Helvetica,sans-Serif" font-size="10.00">_udp.compute_resonance</text>
</a>
</g>
</g>
<!-- Node2&#45;&gt;Node4 -->
<g id="edge3_Node000002_Node000004" class="edge">
<title>Node2&#45;&gt;Node4</title>
<g id="a_edge3_Node000002_Node000004"><a xlink:title=" ">
<path fill="none" stroke="#63b8ff" d="M301.16,-250.09C314.44,-248.14 328.9,-246.01 342.97,-243.94"/>
<polygon fill="#63b8ff" stroke="#63b8ff" points="343.25,-247.44 352.64,-242.52 342.23,-240.51 343.25,-247.44"/>
</a>
</g>
</g>
</g>
</svg>
</svg>

<style type='text/css'>
<![CDATA[
[data-mouse-over-selected='false'] { opacity: 0.7; }
[data-mouse-over-selected='true']  { opacity: 1.0; }
]]>
</style>
<script type="application/ecmascript"><![CDATA[
document.addEventListener('DOMContentLoaded', (event) => {
  highlightEdges();
  highlightAdjacentNodes();
});
]]></script>
</svg>
