<?xml version="1.0" encoding="UTF-8" standalone="no"?>
<!DOCTYPE svg PUBLIC "-//W3C//DTD SVG 1.1//EN"
 "http://www.w3.org/Graphics/SVG/1.1/DTD/svg11.dtd">
<!-- Generated by graphviz version 12.2.1 (20241206.2353)
 -->
<!-- Title: Fitness::evaluations Pages: 1 -->
<svg width="264pt" height="294pt"
 viewBox="0.00 0.00 263.50 294.00" xmlns="http://www.w3.org/2000/svg" xmlns:xlink="http://www.w3.org/1999/xlink">
<g id="graph0" class="graph" transform="scale(1 1) rotate(0) translate(4 290)">
<title>Fitness::evaluations</title>
<!-- Node1 -->
<g id="Node000001" class="node">
<title>Node1</title>
<g id="a_Node000001"><a xlink:title=" ">
<polygon fill="#999999" stroke="#666666" points="255.5,-153 151.75,-153 151.75,-133 255.5,-133 255.5,-153"/>
<text text-anchor="middle" x="203.62" y="-139.5" font-family="Helvetica,sans-Serif" font-size="10.00">Fitness::evaluations</text>
</a>
</g>
</g>
<!-- Node2 -->
<g id="Node000002" class="node">
<title>Node2</title>
<g id="a_Node000002"><a xlink:href="biteoptimizer_8cpp.html#a3a44f6d1b82c40e137d534553af547b1" target="_top" xlink:title=" ">
<polygon fill="white" stroke="#666666" points="99.25,-286 16.5,-286 16.5,-266 99.25,-266 99.25,-286"/>
<text text-anchor="middle" x="57.88" y="-272.5" font-family="Helvetica,sans-Serif" font-size="10.00">optimizeBite_C</text>
</a>
</g>
</g>
<!-- Node1&#45;&gt;Node2 -->
<g id="edge1_Node000001_Node000002" class="edge">
<title>Node1&#45;&gt;Node2</title>
<g id="a_edge1_Node000001_Node000002"><a xlink:title=" ">
<path fill="none" stroke="#63b8ff" d="M192.06,-163.51C177.96,-188.96 150.65,-232.03 115.75,-257 110.84,-260.51 105.23,-263.41 99.5,-265.79"/>
<polygon fill="#63b8ff" stroke="#63b8ff" points="195.08,-165.29 196.72,-154.82 188.91,-161.98 195.08,-165.29"/>
</a>
</g>
</g>
<!-- Node3 -->
<g id="Node000003" class="node">
<title>Node3</title>
<g id="a_Node000003"><a xlink:href="crfmnes_8cpp.html#a9081791c22cd931e965641b985273b52" target="_top" xlink:title=" ">
<polygon fill="white" stroke="#666666" points="115.75,-248 0,-248 0,-228 115.75,-228 115.75,-248"/>
<text text-anchor="middle" x="57.88" y="-234.5" font-family="Helvetica,sans-Serif" font-size="10.00">optimizeCRFMNES_C</text>
</a>
</g>
</g>
<!-- Node1&#45;&gt;Node3 -->
<g id="edge2_Node000001_Node000003" class="edge">
<title>Node1&#45;&gt;Node3</title>
<g id="a_edge2_Node000001_Node000003"><a xlink:title=" ">
<path fill="none" stroke="#63b8ff" d="M185.84,-161.39C169.43,-178.41 142.99,-203.38 115.75,-219 109.97,-222.31 103.53,-225.16 97.11,-227.56"/>
<polygon fill="#63b8ff" stroke="#63b8ff" points="188.12,-164.08 192.43,-154.4 183.02,-159.28 188.12,-164.08"/>
</a>
</g>
</g>
<!-- Node4 -->
<g id="Node000004" class="node">
<title>Node4</title>
<g id="a_Node000004"><a xlink:href="deoptimizer_8cpp.html#aa394124712525387121d6045a579b805" target="_top" xlink:title=" ">
<polygon fill="white" stroke="#666666" points="97.75,-210 18,-210 18,-190 97.75,-190 97.75,-210"/>
<text text-anchor="middle" x="57.88" y="-196.5" font-family="Helvetica,sans-Serif" font-size="10.00">optimizeDE_C</text>
</a>
</g>
</g>
<!-- Node1&#45;&gt;Node4 -->
<g id="edge3_Node000001_Node000004" class="edge">
<title>Node1&#45;&gt;Node4</title>
<g id="a_edge3_Node000001_Node000004"><a xlink:title=" ">
<path fill="none" stroke="#63b8ff" d="M170.3,-157.97C154.07,-165.27 134.02,-173.97 115.75,-181 108.07,-183.95 99.72,-186.89 91.84,-189.55"/>
<polygon fill="#63b8ff" stroke="#63b8ff" points="171.32,-161.35 178.98,-154.03 168.42,-154.97 171.32,-161.35"/>
</a>
</g>
</g>
<!-- Node5 -->
<g id="Node000005" class="node">
<title>Node5</title>
<g id="a_Node000005"><a xlink:href="pgpe_8cpp.html#a83f6d1c91509d2c28e236afbea4bd172" target="_top" xlink:title=" ">
<polygon fill="white" stroke="#666666" points="104.5,-172 11.25,-172 11.25,-152 104.5,-152 104.5,-172"/>
<text text-anchor="middle" x="57.88" y="-158.5" font-family="Helvetica,sans-Serif" font-size="10.00">optimizePGPE_C</text>
</a>
</g>
</g>
<!-- Node1&#45;&gt;Node5 -->
<g id="edge4_Node000001_Node000005" class="edge">
<title>Node1&#45;&gt;Node5</title>
<g id="a_edge4_Node000001_Node000005"><a xlink:title=" ">
<path fill="none" stroke="#63b8ff" d="M140.2,-151.25C128.21,-152.84 115.87,-154.47 104.53,-155.97"/>
<polygon fill="#63b8ff" stroke="#63b8ff" points="140.58,-154.73 150.04,-149.95 139.67,-147.79 140.58,-154.73"/>
</a>
</g>
</g>
<!-- Node6 -->
<g id="Node000006" class="node">
<title>Node6</title>
<g id="a_Node000006"><a xlink:href="acmaesoptimizer_8cpp.html#abe96370a07bb4c8fff0bc6e13e105c29" target="_top" xlink:title=" ">
<polygon fill="white" stroke="#666666" points="98.88,-134 16.88,-134 16.88,-114 98.88,-114 98.88,-134"/>
<text text-anchor="middle" x="57.88" y="-120.5" font-family="Helvetica,sans-Serif" font-size="10.00">resultACMA_C</text>
</a>
</g>
</g>
<!-- Node1&#45;&gt;Node6 -->
<g id="edge5_Node000001_Node000006" class="edge">
<title>Node1&#45;&gt;Node6</title>
<g id="a_edge5_Node000001_Node000006"><a xlink:title=" ">
<path fill="none" stroke="#63b8ff" d="M140.42,-134.78C126.37,-132.92 111.81,-131 98.96,-129.3"/>
<polygon fill="#63b8ff" stroke="#63b8ff" points="139.67,-138.21 150.04,-136.05 140.58,-131.27 139.67,-138.21"/>
</a>
</g>
</g>
<!-- Node7 -->
<g id="Node000007" class="node">
<title>Node7</title>
<g id="a_Node000007"><a xlink:href="crfmnes_8cpp.html#aefaccee22121ee2d0f43d33fd5968c22" target="_top" xlink:title=" ">
<polygon fill="white" stroke="#666666" points="109.38,-96 6.38,-96 6.38,-76 109.38,-76 109.38,-96"/>
<text text-anchor="middle" x="57.88" y="-82.5" font-family="Helvetica,sans-Serif" font-size="10.00">resultCRFMNES_C</text>
</a>
</g>
</g>
<!-- Node1&#45;&gt;Node7 -->
<g id="edge6_Node000001_Node000007" class="edge">
<title>Node1&#45;&gt;Node7</title>
<g id="a_edge6_Node000001_Node000007"><a xlink:title=" ">
<path fill="none" stroke="#63b8ff" d="M170.3,-128.03C154.07,-120.73 134.02,-112.03 115.75,-105 108.07,-102.05 99.72,-99.11 91.84,-96.45"/>
<polygon fill="#63b8ff" stroke="#63b8ff" points="168.42,-131.03 178.98,-131.97 171.32,-124.65 168.42,-131.03"/>
</a>
</g>
</g>
<!-- Node8 -->
<g id="Node000008" class="node">
<title>Node8</title>
<g id="a_Node000008"><a xlink:href="deoptimizer_8cpp.html#a57cc84b1da95b58421bcd567fb01f67b" target="_top" xlink:title=" ">
<polygon fill="white" stroke="#666666" points="91.38,-58 24.38,-58 24.38,-38 91.38,-38 91.38,-58"/>
<text text-anchor="middle" x="57.88" y="-44.5" font-family="Helvetica,sans-Serif" font-size="10.00">resultDE_C</text>
</a>
</g>
</g>
<!-- Node1&#45;&gt;Node8 -->
<g id="edge7_Node000001_Node000008" class="edge">
<title>Node1&#45;&gt;Node8</title>
<g id="a_edge7_Node000001_Node000008"><a xlink:title=" ">
<path fill="none" stroke="#63b8ff" d="M185.84,-124.61C169.43,-107.59 142.99,-82.62 115.75,-67 108.34,-62.75 99.85,-59.28 91.72,-56.52"/>
<polygon fill="#63b8ff" stroke="#63b8ff" points="183.02,-126.72 192.43,-131.6 188.12,-121.92 183.02,-126.72"/>
</a>
</g>
</g>
<!-- Node9 -->
<g id="Node000009" class="node">
<title>Node9</title>
<g id="a_Node000009"><a xlink:href="pgpe_8cpp.html#abd7f5b28d4595d7f9102a532a9f8c367" target="_top" xlink:title=" ">
<polygon fill="white" stroke="#666666" points="98.12,-20 17.62,-20 17.62,0 98.12,0 98.12,-20"/>
<text text-anchor="middle" x="57.88" y="-6.5" font-family="Helvetica,sans-Serif" font-size="10.00">resultPGPE_C</text>
</a>
</g>
</g>
<!-- Node1&#45;&gt;Node9 -->
<g id="edge8_Node000001_Node000009" class="edge">
<title>Node1&#45;&gt;Node9</title>
<g id="a_edge8_Node000001_Node000009"><a xlink:title=" ">
<path fill="none" stroke="#63b8ff" d="M192.06,-122.49C177.96,-97.04 150.65,-53.97 115.75,-29 110.59,-25.3 104.65,-22.29 98.61,-19.85"/>
<polygon fill="#63b8ff" stroke="#63b8ff" points="188.91,-124.02 196.72,-131.18 195.08,-120.71 188.91,-124.02"/>
</a>
</g>
</g>
</g>
</svg>
