<?xml version="1.0" encoding="UTF-8" standalone="no"?>
<!DOCTYPE svg PUBLIC "-//W3C//DTD SVG 1.1//EN"
 "http://www.w3.org/Graphics/SVG/1.1/DTD/svg11.dtd">
<!-- Generated by graphviz version 12.2.1 (20241206.2353)
 -->
<!-- Title: fcmaes.testfun.RastriginMean.__init__ Pages: 1 -->
<svg width="481pt" height="66pt"
 viewBox="0.00 0.00 480.50 66.00" xmlns="http://www.w3.org/2000/svg" xmlns:xlink="http://www.w3.org/1999/xlink">
<g id="graph0" class="graph" transform="scale(1 1) rotate(0) translate(4 62)">
<title>fcmaes.testfun.RastriginMean.__init__</title>
<!-- Node1 -->
<g id="Node000001" class="node">
<title>Node1</title>
<g id="a_Node000001"><a xlink:title=" ">
<polygon fill="#999999" stroke="#666666" points="123.25,-45 0,-45 0,-13 123.25,-13 123.25,-45"/>
<text text-anchor="start" x="8" y="-31.5" font-family="Helvetica,sans-Serif" font-size="10.00">fcmaes.testfun.Rastrigin</text>
<text text-anchor="middle" x="61.62" y="-19.5" font-family="Helvetica,sans-Serif" font-size="10.00">Mean.__init__</text>
</a>
</g>
</g>
<!-- Node2 -->
<g id="Node000002" class="node">
<title>Node2</title>
<g id="a_Node000002"><a xlink:href="namespacefcmaes_1_1testfun.html#ad34b2d407175d3fa91535738b5193c88" target="_top" xlink:title="Computes the mean output of the Rastrigin function over n modifications of input x.">
<polygon fill="white" stroke="#666666" points="312.5,-39 159.25,-39 159.25,-19 312.5,-19 312.5,-39"/>
<text text-anchor="middle" x="235.88" y="-25.5" font-family="Helvetica,sans-Serif" font-size="10.00">fcmaes.testfun._rastrigin_mean</text>
</a>
</g>
</g>
<!-- Node1&#45;&gt;Node2 -->
<g id="edge1_Node000001_Node000002" class="edge">
<title>Node1&#45;&gt;Node2</title>
<g id="a_edge1_Node000001_Node000002"><a xlink:title=" ">
<path fill="none" stroke="#63b8ff" d="M123.35,-29C131.19,-29 139.33,-29 147.49,-29"/>
<polygon fill="#63b8ff" stroke="#63b8ff" points="147.49,-32.5 157.49,-29 147.49,-25.5 147.49,-32.5"/>
</a>
</g>
</g>
<!-- Node3 -->
<g id="Node000003" class="node">
<title>Node3</title>
<g id="a_Node000003"><a xlink:href="namespacefcmaes_1_1testfun.html#abe5db8aa47b5d50d2100075d9600ba6c" target="_top" xlink:title="Applies a random modification to an array.">
<polygon fill="white" stroke="#666666" points="469.88,-58 351.12,-58 351.12,-38 469.88,-38 469.88,-58"/>
<text text-anchor="middle" x="410.5" y="-44.5" font-family="Helvetica,sans-Serif" font-size="10.00">fcmaes.testfun._modify</text>
</a>
</g>
</g>
<!-- Node2&#45;&gt;Node3 -->
<g id="edge2_Node000002_Node000003" class="edge">
<title>Node2&#45;&gt;Node3</title>
<g id="a_edge2_Node000002_Node000003"><a xlink:title=" ">
<path fill="none" stroke="#63b8ff" d="M312.84,-37.36C321.65,-38.33 330.6,-39.32 339.32,-40.28"/>
<polygon fill="#63b8ff" stroke="#63b8ff" points="338.8,-43.74 349.12,-41.35 339.56,-36.78 338.8,-43.74"/>
</a>
</g>
</g>
<!-- Node4 -->
<g id="Node000004" class="node">
<title>Node4</title>
<g id="a_Node000004"><a xlink:href="namespacefcmaes_1_1testfun.html#aabd797a31cba75eb6dcd83bd586bf3e3" target="_top" xlink:title="Computes the Rastrigin function value for a given input vector.">
<polygon fill="white" stroke="#666666" points="472.5,-20 348.5,-20 348.5,0 472.5,0 472.5,-20"/>
<text text-anchor="middle" x="410.5" y="-6.5" font-family="Helvetica,sans-Serif" font-size="10.00">fcmaes.testfun._rastrigin</text>
</a>
</g>
</g>
<!-- Node2&#45;&gt;Node4 -->
<g id="edge3_Node000002_Node000004" class="edge">
<title>Node2&#45;&gt;Node4</title>
<g id="a_edge3_Node000002_Node000004"><a xlink:title=" ">
<path fill="none" stroke="#63b8ff" d="M312.84,-20.64C320.74,-19.77 328.76,-18.89 336.63,-18.02"/>
<polygon fill="#63b8ff" stroke="#63b8ff" points="336.95,-21.51 346.5,-16.93 336.18,-14.55 336.95,-21.51"/>
</a>
</g>
</g>
</g>
</svg>
