<?xml version="1.0" encoding="UTF-8" standalone="no"?>
<!DOCTYPE svg PUBLIC "-//W3C//DTD SVG 1.1//EN"
 "http://www.w3.org/Graphics/SVG/1.1/DTD/svg11.dtd">
<!-- Generated by graphviz version 12.2.1 (20241206.2353)
 -->
<!-- Title: examples.elitescass2.Cassini2_me.descriptors Pages: 1 -->
<svg width="338pt" height="66pt"
 viewBox="0.00 0.00 337.75 66.00" xmlns="http://www.w3.org/2000/svg" xmlns:xlink="http://www.w3.org/1999/xlink">
<g id="graph0" class="graph" transform="scale(1 1) rotate(0) translate(4 62)">
<title>examples.elitescass2.Cassini2_me.descriptors</title>
<!-- Node1 -->
<g id="Node000001" class="node">
<title>Node1</title>
<g id="a_Node000001"><a xlink:title=" ">
<polygon fill="#999999" stroke="#666666" points="151.75,-45 0,-45 0,-13 151.75,-13 151.75,-45"/>
<text text-anchor="start" x="8" y="-31.5" font-family="Helvetica,sans-Serif" font-size="10.00">examples.elitescass2.Cassini2</text>
<text text-anchor="middle" x="75.88" y="-19.5" font-family="Helvetica,sans-Serif" font-size="10.00">_me.descriptors</text>
</a>
</g>
</g>
<!-- Node2 -->
<g id="Node000002" class="node">
<title>Node2</title>
<g id="a_Node000002"><a xlink:href="namespaceexamples_1_1elitescass2.html#a069f5085f77c4946500c11941955469a" target="_top" xlink:title=" ">
<polygon fill="white" stroke="#666666" points="329.75,-58 187.75,-58 187.75,-38 329.75,-38 329.75,-58"/>
<text text-anchor="middle" x="258.75" y="-44.5" font-family="Helvetica,sans-Serif" font-size="10.00">examples.elitescass2.launch</text>
</a>
</g>
</g>
<!-- Node1&#45;&gt;Node2 -->
<g id="edge1_Node000001_Node000002" class="edge">
<title>Node1&#45;&gt;Node2</title>
<g id="a_edge1_Node000001_Node000002"><a xlink:title=" ">
<path fill="none" stroke="#63b8ff" d="M152.01,-36.89C159.99,-37.73 168.14,-38.59 176.19,-39.43"/>
<polygon fill="#63b8ff" stroke="#63b8ff" points="175.67,-42.9 185.98,-40.46 176.4,-35.94 175.67,-42.9"/>
</a>
</g>
</g>
<!-- Node3 -->
<g id="Node000003" class="node">
<title>Node3</title>
<g id="a_Node000003"><a xlink:href="namespaceexamples_1_1elitescass2.html#a8a12d69ae5d847736ef1e1cd7b56b00e" target="_top" xlink:title=" ">
<polygon fill="white" stroke="#666666" points="321.12,-20 196.38,-20 196.38,0 321.12,0 321.12,-20"/>
<text text-anchor="middle" x="258.75" y="-6.5" font-family="Helvetica,sans-Serif" font-size="10.00">examples.elitescass2.tof</text>
</a>
</g>
</g>
<!-- Node1&#45;&gt;Node3 -->
<g id="edge2_Node000001_Node000003" class="edge">
<title>Node1&#45;&gt;Node3</title>
<g id="a_edge2_Node000001_Node000003"><a xlink:title=" ">
<path fill="none" stroke="#63b8ff" d="M152.01,-21.11C162.89,-19.96 174.07,-18.79 184.9,-17.65"/>
<polygon fill="#63b8ff" stroke="#63b8ff" points="184.95,-21.17 194.53,-16.64 184.22,-14.2 184.95,-21.17"/>
</a>
</g>
</g>
</g>
</svg>
