<?xml version="1.0" encoding="UTF-8" standalone="no"?>
<!DOCTYPE svg PUBLIC "-//W3C//DTD SVG 1.1//EN"
 "http://www.w3.org/Graphics/SVG/1.1/DTD/svg11.dtd">
<!-- Generated by graphviz version 12.2.1 (20241206.2353)
 -->
<!-- Title: fcmaes.retry.Shared2d.view Pages: 1 -->
<svg width="320pt" height="66pt"
 viewBox="0.00 0.00 319.75 66.00" xmlns="http://www.w3.org/2000/svg" xmlns:xlink="http://www.w3.org/1999/xlink">
<g id="graph0" class="graph" transform="scale(1 1) rotate(0) translate(4 62)">
<title>fcmaes.retry.Shared2d.view</title>
<!-- Node1 -->
<g id="Node000001" class="node">
<title>Node1</title>
<g id="a_Node000001"><a xlink:title="Converts the binary data buffer to a NumPy array and reshapes it according to the specified rows and ...">
<polygon fill="#999999" stroke="#666666" points="311.75,-39 174.25,-39 174.25,-19 311.75,-19 311.75,-39"/>
<text text-anchor="middle" x="243" y="-25.5" font-family="Helvetica,sans-Serif" font-size="10.00">fcmaes.retry.Shared2d.view</text>
</a>
</g>
</g>
<!-- Node2 -->
<g id="Node000002" class="node">
<title>Node2</title>
<g id="a_Node000002"><a xlink:href="classfcmaes_1_1retry_1_1_shared2d.html#ad2452a4e2d5797f2fd2b7e86caea1843" target="_top" xlink:title="Sets the values of the object by copying the given array to its data view.">
<polygon fill="white" stroke="#666666" points="134.5,-58 3.75,-58 3.75,-38 134.5,-38 134.5,-58"/>
<text text-anchor="middle" x="69.12" y="-44.5" font-family="Helvetica,sans-Serif" font-size="10.00">fcmaes.retry.Shared2d.set</text>
</a>
</g>
</g>
<!-- Node1&#45;&gt;Node2 -->
<g id="edge1_Node000001_Node000002" class="edge">
<title>Node1&#45;&gt;Node2</title>
<g id="a_edge1_Node000001_Node000002"><a xlink:title=" ">
<path fill="none" stroke="#63b8ff" d="M162.73,-37.76C153.36,-38.8 143.89,-39.85 134.76,-40.85"/>
<polygon fill="#63b8ff" stroke="#63b8ff" points="163.01,-41.25 172.57,-36.68 162.24,-34.3 163.01,-41.25"/>
</a>
</g>
</g>
<!-- Node3 -->
<g id="Node000003" class="node">
<title>Node3</title>
<g id="a_Node000003"><a xlink:href="classfcmaes_1_1retry_1_1_shared2d.html#a8f215e97145f12a7b2dc9b322652e8e5" target="_top" xlink:title="Updates a specific row in the object&#39;s view with new data.">
<polygon fill="white" stroke="#666666" points="138.25,-20 0,-20 0,0 138.25,0 138.25,-20"/>
<text text-anchor="middle" x="69.12" y="-6.5" font-family="Helvetica,sans-Serif" font-size="10.00">fcmaes.retry.Shared2d.set_i</text>
</a>
</g>
</g>
<!-- Node1&#45;&gt;Node3 -->
<g id="edge2_Node000001_Node000003" class="edge">
<title>Node1&#45;&gt;Node3</title>
<g id="a_edge2_Node000001_Node000003"><a xlink:title=" ">
<path fill="none" stroke="#63b8ff" d="M162.78,-20.24C154.73,-19.35 146.61,-18.45 138.69,-17.58"/>
<polygon fill="#63b8ff" stroke="#63b8ff" points="162.24,-23.7 172.57,-21.32 163.01,-16.75 162.24,-23.7"/>
</a>
</g>
</g>
</g>
</svg>
