<?xml version="1.0" encoding="UTF-8" standalone="no"?>
<!DOCTYPE svg PUBLIC "-//W3C//DTD SVG 1.1//EN"
 "http://www.w3.org/Graphics/SVG/1.1/DTD/svg11.dtd">
<!-- Generated by graphviz version 12.2.1 (20241206.2353)
 -->
<!-- Title: CSpherOpt::init Pages: 1 -->
<svg width="244pt" height="90pt"
 viewBox="0.00 0.00 244.00 90.00" xmlns="http://www.w3.org/2000/svg" xmlns:xlink="http://www.w3.org/1999/xlink">
<g id="graph0" class="graph" transform="scale(1 1) rotate(0) translate(4 86)">
<title>CSpherOpt::init</title>
<!-- Node1 -->
<g id="Node000001" class="node">
<title>Node1</title>
<g id="a_Node000001"><a xlink:title=" ">
<polygon fill="#999999" stroke="#666666" points="83.5,-51 0,-51 0,-31 83.5,-31 83.5,-51"/>
<text text-anchor="middle" x="41.75" y="-37.5" font-family="Helvetica,sans-Serif" font-size="10.00">CSpherOpt::init</text>
</a>
</g>
</g>
<!-- Node2 -->
<g id="Node000002" class="node">
<title>Node2</title>
<g id="a_Node000002"><a xlink:href="class_c_bite_opt_base.html#a768362da5c773eea5a8649d44676eeed" target="_top" xlink:title=" ">
<polygon fill="white" stroke="#666666" points="236,-82 119.5,-82 119.5,-50 236,-50 236,-82"/>
<text text-anchor="start" x="127.5" y="-68.5" font-family="Helvetica,sans-Serif" font-size="10.00">CBiteOptBase&lt; double</text>
<text text-anchor="middle" x="177.75" y="-56.5" font-family="Helvetica,sans-Serif" font-size="10.00"> &gt;::initCommonVars</text>
</a>
</g>
</g>
<!-- Node1&#45;&gt;Node2 -->
<g id="edge1_Node000001_Node000002" class="edge">
<title>Node1&#45;&gt;Node2</title>
<g id="a_edge1_Node000001_Node000002"><a xlink:title=" ">
<path fill="none" stroke="#63b8ff" d="M83.68,-48.64C91.41,-50.08 99.68,-51.62 107.99,-53.17"/>
<polygon fill="#63b8ff" stroke="#63b8ff" points="107.34,-56.61 117.81,-55 108.62,-49.73 107.34,-56.61"/>
</a>
</g>
</g>
<!-- Node3 -->
<g id="Node000003" class="node">
<title>Node3</title>
<g id="a_Node000003"><a xlink:href="class_c_bite_pop.html#a3b7e8d2276455475bd761e29c8c72ac6" target="_top" xlink:title=" ">
<polygon fill="white" stroke="#666666" points="230,-32 125.5,-32 125.5,0 230,0 230,-32"/>
<text text-anchor="start" x="133.5" y="-18.5" font-family="Helvetica,sans-Serif" font-size="10.00">CBitePop&lt; double &gt;</text>
<text text-anchor="middle" x="177.75" y="-6.5" font-family="Helvetica,sans-Serif" font-size="10.00">::wrapParam</text>
</a>
</g>
</g>
<!-- Node1&#45;&gt;Node3 -->
<g id="edge2_Node000001_Node000003" class="edge">
<title>Node1&#45;&gt;Node3</title>
<g id="a_edge2_Node000001_Node000003"><a xlink:title=" ">
<path fill="none" stroke="#63b8ff" d="M83.68,-33.36C93.29,-31.57 103.75,-29.62 114.07,-27.69"/>
<polygon fill="#63b8ff" stroke="#63b8ff" points="114.49,-31.18 123.68,-25.9 113.2,-24.3 114.49,-31.18"/>
</a>
</g>
</g>
</g>
</svg>
