<?xml version="1.0" encoding="UTF-8" standalone="no"?>
<!DOCTYPE svg PUBLIC "-//W3C//DTD SVG 1.1//EN"
 "http://www.w3.org/Graphics/SVG/1.1/DTD/svg11.dtd">
<!-- Generated by graphviz version 12.2.1 (20241206.2353)
 -->
<!-- Title: fbcover.problem_fb.cost Pages: 1 -->
<svg width="274pt" height="104pt"
 viewBox="0.00 0.00 274.00 104.00" xmlns="http://www.w3.org/2000/svg" xmlns:xlink="http://www.w3.org/1999/xlink">
<g id="graph0" class="graph" transform="scale(1 1) rotate(0) translate(4 100)">
<title>fbcover.problem_fb.cost</title>
<!-- Node1 -->
<g id="Node000001" class="node">
<title>Node1</title>
<g id="a_Node000001"><a xlink:title=" ">
<polygon fill="#999999" stroke="#666666" points="121,-58 0,-58 0,-38 121,-38 121,-58"/>
<text text-anchor="middle" x="60.5" y="-44.5" font-family="Helvetica,sans-Serif" font-size="10.00">fbcover.problem_fb.cost</text>
</a>
</g>
</g>
<!-- Node2 -->
<g id="Node000002" class="node">
<title>Node2</title>
<g id="a_Node000002"><a xlink:href="namespacefbcover.html#a1d37d0da59730aab39af8760119dc8c8" target="_top" xlink:title=" ">
<polygon fill="white" stroke="#666666" points="261.12,-96 161.88,-96 161.88,-76 261.12,-76 261.12,-96"/>
<text text-anchor="middle" x="211.5" y="-82.5" font-family="Helvetica,sans-Serif" font-size="10.00">fbcover.fb_covered</text>
</a>
</g>
</g>
<!-- Node1&#45;&gt;Node2 -->
<g id="edge1_Node000001_Node000002" class="edge">
<title>Node1&#45;&gt;Node2</title>
<g id="a_edge1_Node000001_Node000002"><a xlink:title=" ">
<path fill="none" stroke="#63b8ff" d="M102.61,-58.48C119.87,-62.89 140.15,-68.06 158.44,-72.72"/>
<polygon fill="#63b8ff" stroke="#63b8ff" points="157.5,-76.1 168.06,-75.18 159.23,-69.31 157.5,-76.1"/>
</a>
</g>
</g>
<!-- Node3 -->
<g id="Node000003" class="node">
<title>Node3</title>
<g id="a_Node000003"><a xlink:href="namespacefbcover.html#aef0e4896abc75b367cfae486326fd280" target="_top" xlink:title=" ">
<polygon fill="white" stroke="#666666" points="250.25,-58 172.75,-58 172.75,-38 250.25,-38 250.25,-58"/>
<text text-anchor="middle" x="211.5" y="-44.5" font-family="Helvetica,sans-Serif" font-size="10.00">fbcover.nodes</text>
</a>
</g>
</g>
<!-- Node1&#45;&gt;Node3 -->
<g id="edge2_Node000001_Node000003" class="edge">
<title>Node1&#45;&gt;Node3</title>
<g id="a_edge2_Node000001_Node000003"><a xlink:title=" ">
<path fill="none" stroke="#63b8ff" d="M121.25,-48C134.51,-48 148.43,-48 161.22,-48"/>
<polygon fill="#63b8ff" stroke="#63b8ff" points="161.08,-51.5 171.08,-48 161.08,-44.5 161.08,-51.5"/>
</a>
</g>
</g>
<!-- Node4 -->
<g id="Node000004" class="node">
<title>Node4</title>
<g id="a_Node000004"><a xlink:href="namespacefbcover.html#a8588994a104cf05c867efc5ad768ada4" target="_top" xlink:title=" ">
<polygon fill="white" stroke="#666666" points="266,-20 157,-20 157,0 266,0 266,-20"/>
<text text-anchor="middle" x="211.5" y="-6.5" font-family="Helvetica,sans-Serif" font-size="10.00">fbcover.sum_weights</text>
</a>
</g>
</g>
<!-- Node1&#45;&gt;Node4 -->
<g id="edge3_Node000001_Node000004" class="edge">
<title>Node1&#45;&gt;Node4</title>
<g id="a_edge3_Node000001_Node000004"><a xlink:title=" ">
<path fill="none" stroke="#63b8ff" d="M102.61,-37.52C119.87,-33.11 140.15,-27.94 158.44,-23.28"/>
<polygon fill="#63b8ff" stroke="#63b8ff" points="159.23,-26.69 168.06,-20.82 157.5,-19.9 159.23,-26.69"/>
</a>
</g>
</g>
</g>
</svg>
