<?xml version="1.0" encoding="UTF-8" standalone="no"?>
<!DOCTYPE svg PUBLIC "-//W3C//DTD SVG 1.1//EN"
 "http://www.w3.org/Graphics/SVG/1.1/DTD/svg11.dtd">
<!-- Generated by graphviz version 12.2.1 (20241206.2353)
 -->
<!-- Title: CBiteOpt::generateSol1 Pages: 1 -->
<!--zoomable 427 -->

<svg id="main" version="1.1" xmlns="http://www.w3.org/2000/svg" xmlns:xlink="http://www.w3.org/1999/xlink" xml:space="preserve" onload="init(evt)">

<style type="text/css"><![CDATA[
.node, .edge {opacity: 0.7;}
.node.selected, .edge.selected {opacity: 1;}
.edge:hover path { stroke: red; }
.edge:hover polygon { stroke: red; fill: red; }
]]></style>

<defs>
  <circle id="rim" cx="0" cy="0" r="7"/>
  <circle id="rim2" cx="0" cy="0" r="3.5"/>
  <g id="zoomPlus">
    <use xlink:href="#rim" fill="#404040"><set attributeName="fill" to="#808080" begin="zoomplus.mouseover" end="zoomplus.mouseout"/></use>
    <path d="M-4,0h8M0,-4v8" fill="none" stroke="white" stroke-width="1.5" pointer-events="none"/>
  </g>
  <g id="zoomMin">
    <use xlink:href="#rim" fill="#404040"><set attributeName="fill" to="#808080" begin="zoomminus.mouseover" end="zoomminus.mouseout"/></use>
    <path d="M-4,0h8" fill="none" stroke="white" stroke-width="1.5" pointer-events="none"/>
  </g>
  <g id="arrowUp" transform="translate(30 24)">
    <use xlink:href="#rim"/>
    <path pointer-events="none" fill="none" stroke="white" stroke-width="1.5" d="M0,-3.0v7 M-2.5,-0.5L0,-3.0L2.5,-0.5"/>
  </g>
  <g id="arrowRight" transform="rotate(90) translate(36 -43)">
    <use xlink:href="#rim"/>
    <path pointer-events="none" fill="none" stroke="white" stroke-width="1.5" d="M0,-3.0v7 M-2.5,-0.5L0,-3.0L2.5,-0.5"/>
  </g>
  <g id="arrowDown" transform="rotate(180) translate(-30 -48)">
    <use xlink:href="#rim"/>
    <path pointer-events="none" fill="none" stroke="white" stroke-width="1.5" d="M0,-3.0v7 M-2.5,-0.5L0,-3.0L2.5,-0.5"/>
  </g>
  <g id="arrowLeft" transform="rotate(270) translate(-36 17)">
    <use xlink:href="#rim"/>
    <path pointer-events="none" fill="none" stroke="white" stroke-width="1.5" d="M0,-3.0v7 M-2.5,-0.5L0,-3.0L2.5,-0.5"/>
  </g>
  <g id="resetDef">
    <use xlink:href="#rim2" fill="#404040"><set attributeName="fill" to="#808080" begin="reset.mouseover" end="reset.mouseout"/></use>
  </g>
</defs>
<script type="application/ecmascript">
var viewWidth = 732;
var viewHeight = 427;
var sectionId = 'dynsection-4';
</script>
<script type="application/ecmascript" xlink:href="svg.min.js"/>
<svg id="graph" class="graph">
<g id="viewport">
<title>CBiteOpt::generateSol1</title>
<!-- Node1 -->
<g id="Node000001" class="node">
<title>Node1</title>
<g id="a_Node000001"><a xlink:title=" ">
<polygon fill="#999999" stroke="#666666" points="119.5,-203 0,-203 0,-183 119.5,-183 119.5,-203"/>
<text text-anchor="middle" x="59.75" y="-189.5" font-family="Helvetica,sans-Serif" font-size="10.00">CBiteOpt::generateSol1</text>
</a>
</g>
</g>
<!-- Node2 -->
<g id="Node000002" class="node">
<title>Node2</title>
<g id="a_Node000002"><a xlink:href="class_c_bite_pop.html#ad427518ed1d47fbe3c2222b3a11badb7" target="_top" xlink:title=" ">
<polygon fill="white" stroke="#666666" points="444.38,-371 339.12,-371 339.12,-339 444.38,-339 444.38,-371"/>
<text text-anchor="start" x="347.12" y="-357.5" font-family="Helvetica,sans-Serif" font-size="10.00">CBitePop&lt; int64_t &gt;</text>
<text text-anchor="middle" x="391.75" y="-345.5" font-family="Helvetica,sans-Serif" font-size="10.00">::CBitePop</text>
</a>
</g>
</g>
<!-- Node1&#45;&gt;Node2 -->
<g id="edge1_Node000001_Node000002" class="edge">
<title>Node1&#45;&gt;Node2</title>
<g id="a_edge1_Node000001_Node000002"><a xlink:title=" ">
<path fill="none" stroke="#63b8ff" d="M63.48,-203.18C71.73,-231.67 99.36,-312.26 155.5,-345 207.43,-375.28 277.32,-374.07 327.4,-367.56"/>
<polygon fill="#63b8ff" stroke="#63b8ff" points="327.82,-371.04 337.23,-366.17 326.84,-364.11 327.82,-371.04"/>
</a>
</g>
</g>
<!-- Node3 -->
<g id="Node000003" class="node">
<title>Node3</title>
<g id="a_Node000003"><a xlink:href="class_c_bite_pop.html#a24130fea35014433f142e3b9ed0f8929" target="_top" xlink:title=" ">
<polygon fill="white" stroke="#666666" points="281,-108 175.75,-108 175.75,-76 281,-76 281,-108"/>
<text text-anchor="start" x="183.75" y="-94.5" font-family="Helvetica,sans-Serif" font-size="10.00">CBitePop&lt; int64_t &gt;</text>
<text text-anchor="middle" x="228.38" y="-82.5" font-family="Helvetica,sans-Serif" font-size="10.00">::copyParams</text>
</a>
</g>
</g>
<!-- Node1&#45;&gt;Node3 -->
<g id="edge2_Node000001_Node000003" class="edge">
<title>Node1&#45;&gt;Node3</title>
<g id="a_edge2_Node000001_Node000003"><a xlink:title=" ">
<path fill="none" stroke="#63b8ff" d="M72.64,-182.55C89.96,-167.7 123.56,-140.26 155.5,-122 161.07,-118.82 167.03,-115.79 173.07,-112.96"/>
<polygon fill="#63b8ff" stroke="#63b8ff" points="174.15,-116.31 181.84,-109.02 171.28,-109.92 174.15,-116.31"/>
</a>
</g>
</g>
<!-- Node4 -->
<g id="Node000004" class="node">
<title>Node4</title>
<g id="a_Node000004"><a xlink:href="class_c_bite_rnd.html#afdb77334884f1a612780def0dec0a326" target="_top" xlink:title=" ">
<polygon fill="white" stroke="#666666" points="573.62,-317 495.38,-317 495.38,-297 573.62,-297 573.62,-317"/>
<text text-anchor="middle" x="534.5" y="-303.5" font-family="Helvetica,sans-Serif" font-size="10.00">CBiteRnd::get</text>
</a>
</g>
</g>
<!-- Node1&#45;&gt;Node4 -->
<g id="edge3_Node000001_Node000004" class="edge">
<title>Node1&#45;&gt;Node4</title>
<g id="a_edge3_Node000001_Node000004"><a xlink:title=" ">
<path fill="none" stroke="#63b8ff" d="M62.51,-203.07C68.64,-234.63 92.2,-331.97 155.5,-372 264.75,-441.1 324.74,-424.13 446.25,-380 475.81,-369.26 502.36,-343.64 518.2,-325.8"/>
<polygon fill="#63b8ff" stroke="#63b8ff" points="520.64,-328.33 524.48,-318.45 515.32,-323.78 520.64,-328.33"/>
</a>
</g>
</g>
<!-- Node6 -->
<g id="Node000006" class="node">
<title>Node6</title>
<g id="a_Node000006"><a xlink:href="class_c_bite_pop.html#a5aef425d751172e1fff38a455cb51d34" target="_top" xlink:title=" ">
<polygon fill="white" stroke="#666666" points="293.38,-58 163.38,-58 163.38,-38 293.38,-38 293.38,-58"/>
<text text-anchor="middle" x="228.38" y="-44.5" font-family="Helvetica,sans-Serif" font-size="10.00">CBitePop::getCurPopSize</text>
</a>
</g>
</g>
<!-- Node1&#45;&gt;Node6 -->
<g id="edge5_Node000001_Node000006" class="edge">
<title>Node1&#45;&gt;Node6</title>
<g id="a_edge5_Node000001_Node000006"><a xlink:title=" ">
<path fill="none" stroke="#63b8ff" d="M65.5,-182.67C77.15,-158.47 109.63,-97.86 155.5,-67 157.59,-65.6 159.78,-64.29 162.03,-63.09"/>
<polygon fill="#63b8ff" stroke="#63b8ff" points="163.29,-66.36 170.94,-59.03 160.39,-59.99 163.29,-66.36"/>
</a>
</g>
</g>
<!-- Node7 -->
<g id="Node000007" class="node">
<title>Node7</title>
<g id="a_Node000007"><a xlink:href="class_c_bite_rnd.html#a4e9ad0a5c5e09149a60f849736d8d7ce" target="_top" xlink:title=" ">
<polygon fill="white" stroke="#666666" points="436.5,-317 347,-317 347,-297 436.5,-297 436.5,-317"/>
<text text-anchor="middle" x="391.75" y="-303.5" font-family="Helvetica,sans-Serif" font-size="10.00">CBiteRnd::getInt</text>
</a>
</g>
</g>
<!-- Node1&#45;&gt;Node7 -->
<g id="edge6_Node000001_Node000007" class="edge">
<title>Node1&#45;&gt;Node7</title>
<g id="a_edge6_Node000001_Node000007"><a xlink:title=" ">
<path fill="none" stroke="#63b8ff" d="M73.05,-203.4C90.33,-217.48 123.3,-242.38 155.5,-256 214.29,-280.87 286.68,-294.22 335.51,-300.94"/>
<polygon fill="#63b8ff" stroke="#63b8ff" points="334.91,-304.39 345.28,-302.23 335.83,-297.45 334.91,-304.39"/>
</a>
</g>
</g>
<!-- Node8 -->
<g id="Node000008" class="node">
<title>Node8</title>
<g id="a_Node000008"><a xlink:href="class_c_bite_opt.html#af25cdfb71a0ad9081148c31da58fe949" target="_top" xlink:title=" ">
<polygon fill="white" stroke="#666666" points="293.38,-222 163.38,-222 163.38,-202 293.38,-202 293.38,-222"/>
<text text-anchor="middle" x="228.38" y="-208.5" font-family="Helvetica,sans-Serif" font-size="10.00">CBiteOpt::getMinSolIndex</text>
</a>
</g>
</g>
<!-- Node1&#45;&gt;Node8 -->
<g id="edge8_Node000001_Node000008" class="edge">
<title>Node1&#45;&gt;Node8</title>
<g id="a_edge8_Node000001_Node000008"><a xlink:title=" ">
<path fill="none" stroke="#63b8ff" d="M119.96,-199.75C130.2,-200.92 140.97,-202.15 151.57,-203.36"/>
<polygon fill="#63b8ff" stroke="#63b8ff" points="151.14,-206.83 161.47,-204.49 151.93,-199.87 151.14,-206.83"/>
</a>
</g>
</g>
<!-- Node10 -->
<g id="Node000010" class="node">
<title>Node10</title>
<g id="a_Node000010"><a xlink:href="class_c_bite_opt_base.html#abf93d2e584756812ad210f86e4f84a69" target="_top" xlink:title=" ">
<polygon fill="white" stroke="#666666" points="446.25,-272 337.25,-272 337.25,-240 446.25,-240 446.25,-272"/>
<text text-anchor="start" x="345.25" y="-258.5" font-family="Helvetica,sans-Serif" font-size="10.00">CBiteOptBase&lt; int64</text>
<text text-anchor="middle" x="391.75" y="-246.5" font-family="Helvetica,sans-Serif" font-size="10.00">_t &gt;::select</text>
</a>
</g>
</g>
<!-- Node1&#45;&gt;Node10 -->
<g id="edge19_Node000001_Node000010" class="edge">
<title>Node1&#45;&gt;Node10</title>
<g id="a_edge19_Node000001_Node000010"><a xlink:title=" ">
<path fill="none" stroke="#63b8ff" d="M81.64,-203.33C100.48,-212.16 129.18,-224.46 155.5,-231 211.84,-245 277.68,-251.17 325.36,-253.88"/>
<polygon fill="#63b8ff" stroke="#63b8ff" points="325.08,-257.37 335.25,-254.4 325.45,-250.38 325.08,-257.37"/>
</a>
</g>
</g>
<!-- Node11 -->
<g id="Node000011" class="node">
<title>Node11</title>
<g id="a_Node000011"><a xlink:href="class_c_bite_pop.html#aaa8e3f180accfedf21218cbed8ffbb79" target="_top" xlink:title=" ">
<polygon fill="white" stroke="#666666" points="301.25,-20 155.5,-20 155.5,0 301.25,0 301.25,-20"/>
<text text-anchor="middle" x="228.38" y="-6.5" font-family="Helvetica,sans-Serif" font-size="10.00">CBitePop::getParamsOrdered</text>
</a>
</g>
</g>
<!-- Node1&#45;&gt;Node11 -->
<g id="edge12_Node000001_Node000011" class="edge">
<title>Node1&#45;&gt;Node11</title>
<g id="a_edge12_Node000001_Node000011"><a xlink:title=" ">
<path fill="none" stroke="#63b8ff" d="M62.63,-182.67C69.49,-153.53 95.48,-73 146.43,-27.51"/>
<polygon fill="#63b8ff" stroke="#63b8ff" points="148.54,-30.3 154,-21.22 144.07,-24.92 148.54,-30.3"/>
</a>
</g>
</g>
<!-- Node1&#45;&gt;Node11 -->
<g id="edge13_Node000001_Node000011" class="edge">
<title>Node1&#45;&gt;Node11</title>
<g id="a_edge13_Node000001_Node000011"><a xlink:title=" ">
<path fill="none" stroke="#63b8ff" d="M65.02,-182.91C75.1,-154.8 103.51,-77.74 155.5,-38 164.73,-30.95 176.35,-26.5 187.55,-23.32"/>
<polygon fill="#63b8ff" stroke="#63b8ff" points="188.21,-26.76 197.03,-20.88 186.47,-19.98 188.21,-26.76"/>
</a>
</g>
</g>
<!-- Node12 -->
<g id="Node000012" class="node">
<title>Node12</title>
<g id="a_Node000012"><a xlink:href="class_c_bite_rnd.html#ab73d2c6a6e4c1f5da7441168f165529d" target="_top" xlink:title=" ">
<polygon fill="white" stroke="#666666" points="280.62,-184 176.12,-184 176.12,-164 280.62,-164 280.62,-184"/>
<text text-anchor="middle" x="228.38" y="-170.5" font-family="Helvetica,sans-Serif" font-size="10.00">CBiteRnd::getSqrInt</text>
</a>
</g>
</g>
<!-- Node1&#45;&gt;Node12 -->
<g id="edge14_Node000001_Node000012" class="edge">
<title>Node1&#45;&gt;Node12</title>
<g id="a_edge14_Node000001_Node000012"><a xlink:title=" ">
<path fill="none" stroke="#63b8ff" d="M119.96,-186.25C134.5,-184.59 150.11,-182.81 164.79,-181.14"/>
<polygon fill="#63b8ff" stroke="#63b8ff" points="164.77,-184.66 174.31,-180.05 163.98,-177.71 164.77,-184.66"/>
</a>
</g>
</g>
<!-- Node14 -->
<g id="Node000014" class="node">
<title>Node14</title>
<g id="a_Node000014"><a xlink:href="class_c_bite_rnd.html#a97eb8d3dce6693178a1f54cf4a076fd0" target="_top" xlink:title=" ">
<polygon fill="white" stroke="#666666" points="586.75,-146 482.25,-146 482.25,-126 586.75,-126 586.75,-146"/>
<text text-anchor="middle" x="534.5" y="-132.5" font-family="Helvetica,sans-Serif" font-size="10.00">CBiteRnd::getTPDF</text>
</a>
</g>
</g>
<!-- Node1&#45;&gt;Node14 -->
<g id="edge17_Node000001_Node000014" class="edge">
<title>Node1&#45;&gt;Node14</title>
<g id="a_edge17_Node000001_Node000014"><a xlink:title=" ">
<path fill="none" stroke="#63b8ff" d="M80.83,-182.67C99.59,-173.57 128.67,-160.88 155.5,-155 264.47,-131.11 395.17,-130.55 470.84,-132.88"/>
<polygon fill="#63b8ff" stroke="#63b8ff" points="470.42,-136.37 480.53,-133.21 470.66,-129.38 470.42,-136.37"/>
</a>
</g>
</g>
<!-- Node15 -->
<g id="Node000015" class="node">
<title>Node15</title>
<g id="a_Node000015"><a xlink:href="class_c_bite_opt.html#a344271b2490d03eaa0c8e1ab062d916d" target="_top" xlink:title=" ">
<polygon fill="white" stroke="#666666" points="288.88,-336 167.88,-336 167.88,-316 288.88,-316 288.88,-336"/>
<text text-anchor="middle" x="228.38" y="-322.5" font-family="Helvetica,sans-Serif" font-size="10.00">CBiteOpt::selectParPop</text>
</a>
</g>
</g>
<!-- Node1&#45;&gt;Node15 -->
<g id="edge20_Node000001_Node000015" class="edge">
<title>Node1&#45;&gt;Node15</title>
<g id="a_edge20_Node000001_Node000015"><a xlink:title=" ">
<path fill="none" stroke="#63b8ff" d="M66.98,-203.33C80.46,-224.81 114.42,-274.57 155.5,-302 160.97,-305.65 167.04,-308.79 173.27,-311.48"/>
<polygon fill="#63b8ff" stroke="#63b8ff" points="171.83,-314.68 182.42,-315.04 174.37,-308.15 171.83,-314.68"/>
</a>
</g>
</g>
<!-- Node5 -->
<g id="Node000005" class="node">
<title>Node5</title>
<g id="a_Node000005"><a xlink:href="class_c_bite_rnd.html#ae1167f8ecac85f268ced4bc1d2fa953b" target="_top" xlink:title=" ">
<polygon fill="white" stroke="#666666" points="724.25,-203 622.75,-203 622.75,-183 724.25,-183 724.25,-203"/>
<text text-anchor="middle" x="673.5" y="-189.5" font-family="Helvetica,sans-Serif" font-size="10.00">CBiteRnd::advance</text>
</a>
</g>
</g>
<!-- Node4&#45;&gt;Node5 -->
<g id="edge4_Node000004_Node000005" class="edge">
<title>Node4&#45;&gt;Node5</title>
<g id="a_edge4_Node000004_Node000005"><a xlink:title=" ">
<path fill="none" stroke="#63b8ff" d="M547.66,-296.88C571.06,-277.41 622.6,-234.52 651.61,-210.38"/>
<polygon fill="#63b8ff" stroke="#63b8ff" points="653.56,-213.31 659.01,-204.23 649.08,-207.93 653.56,-213.31"/>
</a>
</g>
</g>
<!-- Node7&#45;&gt;Node4 -->
<g id="edge7_Node000007_Node000004" class="edge">
<title>Node7&#45;&gt;Node4</title>
<g id="a_edge7_Node000007_Node000004"><a xlink:title=" ">
<path fill="none" stroke="#63b8ff" d="M436.9,-307C451.8,-307 468.54,-307 483.84,-307"/>
<polygon fill="#63b8ff" stroke="#63b8ff" points="483.69,-310.5 493.69,-307 483.69,-303.5 483.69,-310.5"/>
</a>
</g>
</g>
<!-- Node9 -->
<g id="Node000009" class="node">
<title>Node9</title>
<g id="a_Node000009"><a xlink:href="class_c_bite_rnd.html#aa4c960b792982f495cc19c04ad9c2705" target="_top" xlink:title=" ">
<polygon fill="white" stroke="#666666" points="583.38,-222 485.62,-222 485.62,-202 583.38,-202 583.38,-222"/>
<text text-anchor="middle" x="534.5" y="-208.5" font-family="Helvetica,sans-Serif" font-size="10.00">CBiteRnd::getPow</text>
</a>
</g>
</g>
<!-- Node8&#45;&gt;Node9 -->
<g id="edge9_Node000008_Node000009" class="edge">
<title>Node8&#45;&gt;Node9</title>
<g id="a_edge9_Node000008_Node000009"><a xlink:title=" ">
<path fill="none" stroke="#63b8ff" d="M293.87,-212C347.2,-212 422.33,-212 474.19,-212"/>
<polygon fill="#63b8ff" stroke="#63b8ff" points="474.02,-215.5 484.02,-212 474.02,-208.5 474.02,-215.5"/>
</a>
</g>
</g>
<!-- Node8&#45;&gt;Node10 -->
<g id="edge11_Node000008_Node000010" class="edge">
<title>Node8&#45;&gt;Node10</title>
<g id="a_edge11_Node000008_Node000010"><a xlink:title=" ">
<path fill="none" stroke="#63b8ff" d="M267.62,-222.43C285.08,-227.19 306.24,-232.96 326.06,-238.36"/>
<polygon fill="#63b8ff" stroke="#63b8ff" points="324.88,-241.67 335.45,-240.92 326.72,-234.91 324.88,-241.67"/>
</a>
</g>
</g>
<!-- Node9&#45;&gt;Node5 -->
<g id="edge10_Node000009_Node000005" class="edge">
<title>Node9&#45;&gt;Node5</title>
<g id="a_edge10_Node000009_Node000005"><a xlink:title=" ">
<path fill="none" stroke="#63b8ff" d="M583.8,-205.3C592.58,-204.08 601.84,-202.8 610.93,-201.54"/>
<polygon fill="#63b8ff" stroke="#63b8ff" points="611.39,-205.01 620.82,-200.17 610.43,-198.07 611.39,-205.01"/>
</a>
</g>
</g>
<!-- Node13 -->
<g id="Node000013" class="node">
<title>Node13</title>
<g id="a_Node000013"><a xlink:href="class_c_bite_rnd.html#aabbf1ffd535ca8fe31fda768f15ccd1b" target="_top" xlink:title=" ">
<polygon fill="white" stroke="#666666" points="581.12,-184 487.88,-184 487.88,-164 581.12,-164 581.12,-184"/>
<text text-anchor="middle" x="534.5" y="-170.5" font-family="Helvetica,sans-Serif" font-size="10.00">CBiteRnd::getSqr</text>
</a>
</g>
</g>
<!-- Node12&#45;&gt;Node13 -->
<g id="edge15_Node000012_Node000013" class="edge">
<title>Node12&#45;&gt;Node13</title>
<g id="a_edge15_Node000012_Node000013"><a xlink:title=" ">
<path fill="none" stroke="#63b8ff" d="M280.97,-174C335.19,-174 420.26,-174 476.45,-174"/>
<polygon fill="#63b8ff" stroke="#63b8ff" points="476.12,-177.5 486.12,-174 476.12,-170.5 476.12,-177.5"/>
</a>
</g>
</g>
<!-- Node13&#45;&gt;Node5 -->
<g id="edge16_Node000013_Node000005" class="edge">
<title>Node13&#45;&gt;Node5</title>
<g id="a_edge16_Node000013_Node000005"><a xlink:title=" ">
<path fill="none" stroke="#63b8ff" d="M581.5,-180.38C591.1,-181.71 601.37,-183.13 611.42,-184.53"/>
<polygon fill="#63b8ff" stroke="#63b8ff" points="610.74,-187.97 621.12,-185.87 611.7,-181.03 610.74,-187.97"/>
</a>
</g>
</g>
<!-- Node14&#45;&gt;Node5 -->
<g id="edge18_Node000014_Node000005" class="edge">
<title>Node14&#45;&gt;Node5</title>
<g id="a_edge18_Node000014_Node000005"><a xlink:title=" ">
<path fill="none" stroke="#63b8ff" d="M564.62,-146.44C571.88,-149.14 579.63,-152.11 586.75,-155 604.4,-162.17 623.83,-170.73 639.72,-177.9"/>
<polygon fill="#63b8ff" stroke="#63b8ff" points="638.17,-181.04 648.72,-181.99 641.06,-174.67 638.17,-181.04"/>
</a>
</g>
</g>
<!-- Node15&#45;&gt;Node2 -->
<g id="edge21_Node000015_Node000002" class="edge">
<title>Node15&#45;&gt;Node2</title>
<g id="a_edge21_Node000015_Node000002"><a xlink:title=" ">
<path fill="none" stroke="#63b8ff" d="M287.64,-336.47C300.55,-338.79 314.3,-341.26 327.41,-343.62"/>
<polygon fill="#63b8ff" stroke="#63b8ff" points="326.78,-347.06 337.24,-345.38 328.02,-340.17 326.78,-347.06"/>
</a>
</g>
</g>
<!-- Node15&#45;&gt;Node7 -->
<g id="edge22_Node000015_Node000007" class="edge">
<title>Node15&#45;&gt;Node7</title>
<g id="a_edge22_Node000015_Node000007"><a xlink:title=" ">
<path fill="none" stroke="#63b8ff" d="M289.01,-318.98C304.25,-317.18 320.56,-315.26 335.57,-313.5"/>
<polygon fill="#63b8ff" stroke="#63b8ff" points="335.72,-317 345.24,-312.36 334.9,-310.05 335.72,-317"/>
</a>
</g>
</g>
<!-- Node15&#45;&gt;Node10 -->
<g id="edge23_Node000015_Node000010" class="edge">
<title>Node15&#45;&gt;Node10</title>
<g id="a_edge23_Node000015_Node000010"><a xlink:title=" ">
<path fill="none" stroke="#63b8ff" d="M253.53,-315.52C276.95,-305.36 313.13,-289.67 342.46,-276.95"/>
<polygon fill="#63b8ff" stroke="#63b8ff" points="343.75,-280.2 351.53,-273.01 340.96,-273.78 343.75,-280.2"/>
</a>
</g>
</g>
</g>
</svg>

<g id="navigator" transform="translate(0 0)" fill="#404254">
  <rect fill="#f2f5e9" fill-opacity="0.5" stroke="#606060" stroke-width=".5" x="0" y="0" width="60" height="60"/>
  <use id="zoomplus" xlink:href="#zoomPlus" x="17" y="9" onmousedown="handleZoom(evt,'in')"/>
  <use id="zoomminus" xlink:href="#zoomMin" x="42" y="9" onmousedown="handleZoom(evt,'out')"/>
  <use id="reset" xlink:href="#resetDef" x="30" y="36" onmousedown="handleReset()"/>
   <use id="arrowup" xlink:href="#arrowUp" x="0" y="0" onmousedown="handlePan(0,-1)"/>
  <use id="arrowright" xlink:href="#arrowRight" x="0" y="0" onmousedown="handlePan(1,0)"/>
  <use id="arrowdown" xlink:href="#arrowDown" x="0" y="0" onmousedown="handlePan(0,1)"/>
  <use id="arrowleft" xlink:href="#arrowLeft" x="0" y="0" onmousedown="handlePan(-1,0)"/>
</g>
<svg viewBox="0 0 15 15" width="100%" height="30px" preserveAspectRatio="xMaxYMin meet">
 <g id="arrow_out" transform="scale(0.3 0.3)">
  <a xlink:href="class_c_bite_opt_aaf2f5bc8a214a95532426c9a9b38fdb8_cgraph_org.svg" target="_base">
   <rect id="button" ry="5" rx="5" y="6" x="6" height="38" width="38"
        fill="#f2f5e9" fill-opacity="0.5" stroke="#606060" stroke-width="1.0"/>
   <path id="arrow"
     d="M 11.500037,31.436501 C 11.940474,20.09759 22.043105,11.32322 32.158766,21.979434 L 37.068811,17.246167 C 37.068811,17.246167 37.088388,32 37.088388,32 L 22.160133,31.978069 C 22.160133,31.978069 26.997745,27.140456 26.997745,27.140456 C 18.528582,18.264221 13.291696,25.230495 11.500037,31.436501 z"
     style="fill:#404040;"/>
  </a>
 </g>
</svg>

<style type='text/css'>
<![CDATA[
[data-mouse-over-selected='false'] { opacity: 0.7; }
[data-mouse-over-selected='true']  { opacity: 1.0; }
]]>
</style>
<script type="application/ecmascript"><![CDATA[
document.addEventListener('DOMContentLoaded', (event) => {
  highlightEdges();
  highlightAdjacentNodes();
});
]]></script>
</svg>
