<?xml version="1.0" encoding="UTF-8" standalone="no"?>
<!DOCTYPE svg PUBLIC "-//W3C//DTD SVG 1.1//EN"
 "http://www.w3.org/Graphics/SVG/1.1/DTD/svg11.dtd">
<!-- Generated by graphviz version 12.2.1 (20241206.2353)
 -->
<!-- Title: crmfnes::CrfmnesOptimizer::get_h_inv Pages: 1 -->
<svg width="499pt" height="78pt"
 viewBox="0.00 0.00 499.25 78.00" xmlns="http://www.w3.org/2000/svg" xmlns:xlink="http://www.w3.org/1999/xlink">

<svg id="main" version="1.1" xmlns="http://www.w3.org/2000/svg" xmlns:xlink="http://www.w3.org/1999/xlink" xml:space="preserve">

<style type="text/css"><![CDATA[
.node, .edge {opacity: 0.7;}
.node.selected, .edge.selected {opacity: 1;}
.edge:hover path { stroke: red; }
.edge:hover polygon { stroke: red; fill: red; }
]]></style>
<script type="application/ecmascript" xlink:href="svg.min.js"/>
<svg id="graph" class="graph">
<g id="graph0" class="graph" transform="scale(1 1) rotate(0) translate(4 74)">
<title>crmfnes::CrfmnesOptimizer::get_h_inv</title>
<!-- Node1 -->
<g id="Node000001" class="node">
<title>Node1</title>
<g id="a_Node000001"><a xlink:title=" ">
<polygon fill="#999999" stroke="#666666" points="136.75,-54 0,-54 0,-22 136.75,-22 136.75,-54"/>
<text text-anchor="start" x="8" y="-40.5" font-family="Helvetica,sans-Serif" font-size="10.00">crmfnes::CrfmnesOptimizer</text>
<text text-anchor="middle" x="68.38" y="-28.5" font-family="Helvetica,sans-Serif" font-size="10.00">::get_h_inv</text>
</a>
</g>
</g>
<!-- Node2 -->
<g id="Node000002" class="node">
<title>Node2</title>
<g id="a_Node000002"><a xlink:href="classcrmfnes_1_1_crfmnes_optimizer.html#a8f9c2b6e89e25a5c3e0d50a8eb4011be" target="_top" xlink:title=" ">
<polygon fill="white" stroke="#666666" points="318.5,-70 172.75,-70 172.75,-50 318.5,-50 318.5,-70"/>
<text text-anchor="middle" x="245.62" y="-56.5" font-family="Helvetica,sans-Serif" font-size="10.00">crmfnes::CrfmnesOptimizer::f</text>
</a>
</g>
</g>
<!-- Node1&#45;&gt;Node2 -->
<g id="edge1_Node000001_Node000002" class="edge">
<title>Node1&#45;&gt;Node2</title>
<g id="a_edge1_Node000001_Node000002"><a xlink:title=" ">
<path fill="none" stroke="#63b8ff" d="M137.13,-46.51C144.99,-47.49 153.07,-48.51 161.1,-49.52"/>
<polygon fill="#63b8ff" stroke="#63b8ff" points="160.54,-52.97 170.9,-50.75 161.42,-46.03 160.54,-52.97"/>
</a>
</g>
</g>
<!-- Node4 -->
<g id="Node000004" class="node">
<title>Node4</title>
<g id="a_Node000004"><a xlink:href="classcrmfnes_1_1_crfmnes_optimizer.html#a7f306ac3a58b6ed9f29babc44fbe466b" target="_top" xlink:title=" ">
<polygon fill="white" stroke="#666666" points="314,-32 177.25,-32 177.25,0 314,0 314,-32"/>
<text text-anchor="start" x="185.25" y="-18.5" font-family="Helvetica,sans-Serif" font-size="10.00">crmfnes::CrfmnesOptimizer</text>
<text text-anchor="middle" x="245.62" y="-6.5" font-family="Helvetica,sans-Serif" font-size="10.00">::f_prime</text>
</a>
</g>
</g>
<!-- Node1&#45;&gt;Node4 -->
<g id="edge3_Node000001_Node000004" class="edge">
<title>Node1&#45;&gt;Node4</title>
<g id="a_edge3_Node000001_Node000004"><a xlink:title=" ">
<path fill="none" stroke="#63b8ff" d="M137.13,-29.49C146.38,-28.33 155.93,-27.13 165.36,-25.95"/>
<polygon fill="#63b8ff" stroke="#63b8ff" points="165.77,-29.43 175.26,-24.71 164.9,-22.48 165.77,-29.43"/>
</a>
</g>
</g>
<!-- Node3 -->
<g id="Node000003" class="node">
<title>Node3</title>
<g id="a_Node000003"><a xlink:href="classcrmfnes_1_1_crfmnes_optimizer.html#a1c0bc5770261a21ed819387c339b3c05" target="_top" xlink:title=" ">
<polygon fill="white" stroke="#666666" points="491.25,-54 354.5,-54 354.5,-22 491.25,-22 491.25,-54"/>
<text text-anchor="start" x="362.5" y="-40.5" font-family="Helvetica,sans-Serif" font-size="10.00">crmfnes::CrfmnesOptimizer</text>
<text text-anchor="middle" x="422.88" y="-28.5" font-family="Helvetica,sans-Serif" font-size="10.00">::cexp</text>
</a>
</g>
</g>
<!-- Node2&#45;&gt;Node3 -->
<g id="edge2_Node000002_Node000003" class="edge">
<title>Node2&#45;&gt;Node3</title>
<g id="a_edge2_Node000002_Node000003"><a xlink:title=" ">
<path fill="none" stroke="#63b8ff" d="M318.92,-50.92C326.86,-49.93 334.98,-48.91 343.01,-47.9"/>
<polygon fill="#63b8ff" stroke="#63b8ff" points="343.26,-51.4 352.75,-46.68 342.39,-44.45 343.26,-51.4"/>
</a>
</g>
</g>
<!-- Node4&#45;&gt;Node3 -->
<g id="edge4_Node000004_Node000003" class="edge">
<title>Node4&#45;&gt;Node3</title>
<g id="a_edge4_Node000004_Node000003"><a xlink:title=" ">
<path fill="none" stroke="#63b8ff" d="M314.38,-24.51C323.63,-25.67 333.18,-26.87 342.61,-28.05"/>
<polygon fill="#63b8ff" stroke="#63b8ff" points="342.15,-31.52 352.51,-29.29 343.02,-24.57 342.15,-31.52"/>
</a>
</g>
</g>
</g>
</svg>
</svg>

<style type='text/css'>
<![CDATA[
[data-mouse-over-selected='false'] { opacity: 0.7; }
[data-mouse-over-selected='true']  { opacity: 1.0; }
]]>
</style>
<script type="application/ecmascript"><![CDATA[
document.addEventListener('DOMContentLoaded', (event) => {
  highlightEdges();
  highlightAdjacentNodes();
});
]]></script>
</svg>
