<?xml version="1.0" encoding="UTF-8" standalone="no"?>
<!DOCTYPE svg PUBLIC "-//W3C//DTD SVG 1.1//EN"
 "http://www.w3.org/Graphics/SVG/1.1/DTD/svg11.dtd">
<!-- Generated by graphviz version 12.2.1 (20241206.2353)
 -->
<!-- Title: examples.crypto.fitness.__call__ Pages: 1 -->
<svg width="935pt" height="132pt"
 viewBox="0.00 0.00 935.00 132.00" xmlns="http://www.w3.org/2000/svg" xmlns:xlink="http://www.w3.org/1999/xlink">
<g id="graph0" class="graph" transform="scale(1 1) rotate(0) translate(4 128)">
<title>examples.crypto.fitness.__call__</title>
<!-- Node1 -->
<g id="Node000001" class="node">
<title>Node1</title>
<g id="a_Node000001"><a xlink:title=" ">
<polygon fill="#999999" stroke="#666666" points="123.25,-92 0,-92 0,-60 123.25,-60 123.25,-92"/>
<text text-anchor="start" x="8" y="-78.5" font-family="Helvetica,sans-Serif" font-size="10.00">examples.crypto.fitness.</text>
<text text-anchor="middle" x="61.62" y="-66.5" font-family="Helvetica,sans-Serif" font-size="10.00">__call__</text>
</a>
</g>
</g>
<!-- Node2 -->
<g id="Node000002" class="node">
<title>Node2</title>
<g id="a_Node000002"><a xlink:href="classexamples_1_1crypto_1_1fitness.html#a5a933388f6d0303f80251156e30e6b9b" target="_top" xlink:title=" ">
<polygon fill="white" stroke="#666666" points="296,-86 159.25,-86 159.25,-66 296,-66 296,-86"/>
<text text-anchor="middle" x="227.62" y="-72.5" font-family="Helvetica,sans-Serif" font-size="10.00">examples.crypto.fitness.fun</text>
</a>
</g>
</g>
<!-- Node1&#45;&gt;Node2 -->
<g id="edge1_Node000001_Node000002" class="edge">
<title>Node1&#45;&gt;Node2</title>
<g id="a_edge1_Node000001_Node000002"><a xlink:title=" ">
<path fill="none" stroke="#63b8ff" d="M123.69,-76C131.49,-76 139.56,-76 147.59,-76"/>
<polygon fill="#63b8ff" stroke="#63b8ff" points="147.38,-79.5 157.38,-76 147.38,-72.5 147.38,-79.5"/>
</a>
</g>
</g>
<!-- Node3 -->
<g id="Node000003" class="node">
<title>Node3</title>
<g id="a_Node000003"><a xlink:href="namespaceexamples_1_1crypto.html#a75d529296c6d83294ad1c37e55bd267f" target="_top" xlink:title=" ">
<polygon fill="white" stroke="#666666" points="459.75,-86 332,-86 332,-66 459.75,-66 459.75,-86"/>
<text text-anchor="middle" x="395.88" y="-72.5" font-family="Helvetica,sans-Serif" font-size="10.00">examples.crypto.simulate</text>
</a>
</g>
</g>
<!-- Node2&#45;&gt;Node3 -->
<g id="edge2_Node000002_Node000003" class="edge">
<title>Node2&#45;&gt;Node3</title>
<g id="a_edge2_Node000002_Node000003"><a xlink:title=" ">
<path fill="none" stroke="#63b8ff" d="M296.25,-76C304.19,-76 312.33,-76 320.36,-76"/>
<polygon fill="#63b8ff" stroke="#63b8ff" points="320.09,-79.5 330.09,-76 320.09,-72.5 320.09,-79.5"/>
</a>
</g>
</g>
<!-- Node4 -->
<g id="Node000004" class="node">
<title>Node4</title>
<g id="a_Node000004"><a xlink:href="namespaceexamples_1_1crypto.html#a38e3ca807ed30d1fa4d4a5cc478e1525" target="_top" xlink:title=" ">
<polygon fill="white" stroke="#666666" points="624.25,-124 495.75,-124 495.75,-104 624.25,-104 624.25,-124"/>
<text text-anchor="middle" x="560" y="-110.5" font-family="Helvetica,sans-Serif" font-size="10.00">examples.crypto.get_ema</text>
</a>
</g>
</g>
<!-- Node3&#45;&gt;Node4 -->
<g id="edge3_Node000003_Node000004" class="edge">
<title>Node3&#45;&gt;Node4</title>
<g id="a_edge3_Node000003_Node000004"><a xlink:title=" ">
<path fill="none" stroke="#63b8ff" d="M441.61,-86.48C460.74,-90.97 483.29,-96.25 503.48,-100.99"/>
<polygon fill="#63b8ff" stroke="#63b8ff" points="502.41,-104.33 512.94,-103.2 504,-97.51 502.41,-104.33"/>
</a>
</g>
</g>
<!-- Node5 -->
<g id="Node000005" class="node">
<title>Node5</title>
<g id="a_Node000005"><a xlink:href="namespaceexamples_1_1crypto.html#a8fe56bb9960bb347eee6e2c39ddbd90f" target="_top" xlink:title=" ">
<polygon fill="white" stroke="#666666" points="624.25,-86 495.75,-86 495.75,-66 624.25,-66 624.25,-86"/>
<text text-anchor="middle" x="560" y="-72.5" font-family="Helvetica,sans-Serif" font-size="10.00">examples.crypto.get_sma</text>
</a>
</g>
</g>
<!-- Node3&#45;&gt;Node5 -->
<g id="edge4_Node000003_Node000005" class="edge">
<title>Node3&#45;&gt;Node5</title>
<g id="a_edge4_Node000003_Node000005"><a xlink:title=" ">
<path fill="none" stroke="#63b8ff" d="M460.02,-76C467.94,-76 476.09,-76 484.17,-76"/>
<polygon fill="#63b8ff" stroke="#63b8ff" points="483.98,-79.5 493.98,-76 483.98,-72.5 483.98,-79.5"/>
</a>
</g>
</g>
<!-- Node6 -->
<g id="Node000006" class="node">
<title>Node6</title>
<g id="a_Node000006"><a xlink:href="namespaceexamples_1_1crypto.html#a61f6c93fa62a257ed271a0aa1210f604" target="_top" xlink:title=" ">
<polygon fill="white" stroke="#666666" points="623.12,-48 496.88,-48 496.88,-28 623.12,-28 623.12,-48"/>
<text text-anchor="middle" x="560" y="-34.5" font-family="Helvetica,sans-Serif" font-size="10.00">examples.crypto.strategy</text>
</a>
</g>
</g>
<!-- Node3&#45;&gt;Node6 -->
<g id="edge5_Node000003_Node000006" class="edge">
<title>Node3&#45;&gt;Node6</title>
<g id="a_edge5_Node000003_Node000006"><a xlink:title=" ">
<path fill="none" stroke="#63b8ff" d="M441.61,-65.52C460.74,-61.03 483.29,-55.75 503.48,-51.01"/>
<polygon fill="#63b8ff" stroke="#63b8ff" points="504,-54.49 512.94,-48.8 502.41,-47.67 504,-54.49"/>
</a>
</g>
</g>
<!-- Node7 -->
<g id="Node000007" class="node">
<title>Node7</title>
<g id="a_Node000007"><a xlink:href="namespaceexamples_1_1crypto.html#a54eb39bc81fed172b7d1d74dcec022c2" target="_top" xlink:title=" ">
<polygon fill="white" stroke="#666666" points="927,-67 805.25,-67 805.25,-47 927,-47 927,-67"/>
<text text-anchor="middle" x="866.12" y="-53.5" font-family="Helvetica,sans-Serif" font-size="10.00">examples.crypto.buy_all</text>
</a>
</g>
</g>
<!-- Node6&#45;&gt;Node7 -->
<g id="edge6_Node000006_Node000007" class="edge">
<title>Node6&#45;&gt;Node7</title>
<g id="a_edge6_Node000006_Node000007"><a xlink:title=" ">
<path fill="none" stroke="#63b8ff" d="M605.7,-48.42C622.68,-51.88 642.26,-55.29 660.25,-57 704.4,-61.19 754.15,-61.3 793.57,-60.31"/>
<polygon fill="#63b8ff" stroke="#63b8ff" points="793.51,-63.81 803.41,-60.03 793.31,-56.81 793.51,-63.81"/>
</a>
</g>
</g>
<!-- Node8 -->
<g id="Node000008" class="node">
<title>Node8</title>
<g id="a_Node000008"><a xlink:href="namespaceexamples_1_1crypto.html#a941dc0c737b40581bde98db6aef23525" target="_top" xlink:title=" ">
<polygon fill="white" stroke="#666666" points="769.25,-48 660.25,-48 660.25,-28 769.25,-28 769.25,-48"/>
<text text-anchor="middle" x="714.75" y="-34.5" font-family="Helvetica,sans-Serif" font-size="10.00">examples.crypto.hodl</text>
</a>
</g>
</g>
<!-- Node6&#45;&gt;Node8 -->
<g id="edge7_Node000006_Node000008" class="edge">
<title>Node6&#45;&gt;Node8</title>
<g id="a_edge7_Node000006_Node000008"><a xlink:title=" ">
<path fill="none" stroke="#63b8ff" d="M623.57,-38C631.75,-38 640.14,-38 648.36,-38"/>
<polygon fill="#63b8ff" stroke="#63b8ff" points="648.31,-41.5 658.31,-38 648.31,-34.5 648.31,-41.5"/>
</a>
</g>
</g>
<!-- Node9 -->
<g id="Node000009" class="node">
<title>Node9</title>
<g id="a_Node000009"><a xlink:href="namespaceexamples_1_1crypto.html#a8e16e3bee50df8bd1b44e55fe8950e10" target="_top" xlink:title=" ">
<polygon fill="white" stroke="#666666" points="926.62,-20 805.62,-20 805.62,0 926.62,0 926.62,-20"/>
<text text-anchor="middle" x="866.12" y="-6.5" font-family="Helvetica,sans-Serif" font-size="10.00">examples.crypto.sell_all</text>
</a>
</g>
</g>
<!-- Node6&#45;&gt;Node9 -->
<g id="edge10_Node000006_Node000009" class="edge">
<title>Node6&#45;&gt;Node9</title>
<g id="a_edge10_Node000006_Node000009"><a xlink:title=" ">
<path fill="none" stroke="#63b8ff" d="M608.24,-27.51C624.63,-24.25 643.17,-21 660.25,-19 704.5,-13.82 754.45,-11.55 793.95,-10.59"/>
<polygon fill="#63b8ff" stroke="#63b8ff" points="793.89,-14.09 803.81,-10.37 793.74,-7.09 793.89,-14.09"/>
</a>
</g>
</g>
<!-- Node8&#45;&gt;Node7 -->
<g id="edge8_Node000008_Node000007" class="edge">
<title>Node8&#45;&gt;Node7</title>
<g id="a_edge8_Node000008_Node000007"><a xlink:title=" ">
<path fill="none" stroke="#63b8ff" d="M769.68,-44.86C777.46,-45.85 785.57,-46.88 793.63,-47.91"/>
<polygon fill="#63b8ff" stroke="#63b8ff" points="793.08,-51.36 803.45,-49.15 793.97,-44.42 793.08,-51.36"/>
</a>
</g>
</g>
<!-- Node8&#45;&gt;Node9 -->
<g id="edge9_Node000008_Node000009" class="edge">
<title>Node8&#45;&gt;Node9</title>
<g id="a_edge9_Node000008_Node000009"><a xlink:title=" ">
<path fill="none" stroke="#63b8ff" d="M769.68,-27.89C778.93,-26.16 788.64,-24.34 798.18,-22.55"/>
<polygon fill="#63b8ff" stroke="#63b8ff" points="798.59,-26.03 807.78,-20.75 797.3,-19.15 798.59,-26.03"/>
</a>
</g>
</g>
</g>
</svg>
