<?xml version="1.0" encoding="UTF-8" standalone="no"?>
<!DOCTYPE svg PUBLIC "-//W3C//DTD SVG 1.1//EN"
 "http://www.w3.org/Graphics/SVG/1.1/DTD/svg11.dtd">
<!-- Generated by graphviz version 12.2.1 (20241206.2353)
 -->
<!-- Title: differential_evolution::DeOptimizer::doOptimize Pages: 1 -->
<svg width="713pt" height="281pt"
 viewBox="0.00 0.00 712.75 280.65" xmlns="http://www.w3.org/2000/svg" xmlns:xlink="http://www.w3.org/1999/xlink">
<g id="graph0" class="graph" transform="scale(1 1) rotate(0) translate(4 276.65)">
<title>differential_evolution::DeOptimizer::doOptimize</title>
<!-- Node1 -->
<g id="Node000001" class="node">
<title>Node1</title>
<g id="a_Node000001"><a xlink:title=" ">
<polygon fill="#999999" stroke="#666666" points="132.25,-176 0,-176 0,-144 132.25,-144 132.25,-176"/>
<text text-anchor="start" x="8" y="-162.5" font-family="Helvetica,sans-Serif" font-size="10.00">differential_evolution</text>
<text text-anchor="middle" x="66.12" y="-150.5" font-family="Helvetica,sans-Serif" font-size="10.00">::DeOptimizer::doOptimize</text>
</a>
</g>
</g>
<!-- Node2 -->
<g id="Node000002" class="node">
<title>Node2</title>
<g id="a_Node000002"><a xlink:href="classdifferential__evolution_1_1_de_optimizer.html#a9f8d2654bcad80c32d9358faa62cebd9" target="_top" xlink:title=" ">
<polygon fill="white" stroke="#666666" points="457.5,-235 345.5,-235 345.5,-203 457.5,-203 457.5,-235"/>
<text text-anchor="start" x="353.5" y="-221.5" font-family="Helvetica,sans-Serif" font-size="10.00">differential_evolution</text>
<text text-anchor="middle" x="401.5" y="-209.5" font-family="Helvetica,sans-Serif" font-size="10.00">::DeOptimizer::modify</text>
</a>
</g>
</g>
<!-- Node1&#45;&gt;Node2 -->
<g id="edge1_Node000001_Node000002" class="edge">
<title>Node1&#45;&gt;Node2</title>
<g id="a_edge1_Node000001_Node000002"><a xlink:title=" ">
<path fill="none" stroke="#63b8ff" d="M84.01,-176.35C102.81,-193.29 134.94,-218.72 168.25,-229 222.22,-245.66 286.6,-241.11 333.87,-233.57"/>
<polygon fill="#63b8ff" stroke="#63b8ff" points="334.43,-237.02 343.71,-231.91 333.26,-230.12 334.43,-237.02"/>
</a>
</g>
</g>
<!-- Node3 -->
<g id="Node000003" class="node">
<title>Node3</title>
<g id="a_Node000003"><a xlink:href="classdifferential__evolution_1_1_de_optimizer.html#a922dfb6a6903d18311a87e2fe553c78b" target="_top" xlink:title=" ">
<polygon fill="white" stroke="#666666" points="607.75,-250 501,-250 501,-218 607.75,-218 607.75,-250"/>
<text text-anchor="start" x="509" y="-236.5" font-family="Helvetica,sans-Serif" font-size="10.00">differential_evolution</text>
<text text-anchor="middle" x="554.38" y="-224.5" font-family="Helvetica,sans-Serif" font-size="10.00">::DeOptimizer::rnd01</text>
</a>
</g>
</g>
<!-- Node1&#45;&gt;Node3 -->
<g id="edge7_Node000001_Node000003" class="edge">
<title>Node1&#45;&gt;Node3</title>
<g id="a_edge7_Node000001_Node000003"><a xlink:title=" ">
<path fill="none" stroke="#63b8ff" d="M79.3,-176.38C96.38,-197.85 129.74,-234.47 168.25,-249 275.21,-289.36 410.93,-269.17 489.39,-251.27"/>
<polygon fill="#63b8ff" stroke="#63b8ff" points="490.13,-254.69 499.07,-249 488.53,-247.88 490.13,-254.69"/>
</a>
</g>
</g>
<!-- Node4 -->
<g id="Node000004" class="node">
<title>Node4</title>
<g id="a_Node000004"><a xlink:href="classdifferential__evolution_1_1_de_optimizer.html#a427ae953a5503dc4369da1bbb338fe67" target="_top" xlink:title=" ">
<polygon fill="white" stroke="#666666" points="615.25,-192 493.5,-192 493.5,-160 615.25,-160 615.25,-192"/>
<text text-anchor="start" x="501.5" y="-178.5" font-family="Helvetica,sans-Serif" font-size="10.00">differential_evolution</text>
<text text-anchor="middle" x="554.38" y="-166.5" font-family="Helvetica,sans-Serif" font-size="10.00">::DeOptimizer::sample_i</text>
</a>
</g>
</g>
<!-- Node1&#45;&gt;Node4 -->
<g id="edge11_Node000001_Node000004" class="edge">
<title>Node1&#45;&gt;Node4</title>
<g id="a_edge11_Node000001_Node000004"><a xlink:title=" ">
<path fill="none" stroke="#63b8ff" d="M132.7,-162.16C223.66,-165.15 387.51,-170.54 481.63,-173.64"/>
<polygon fill="#63b8ff" stroke="#63b8ff" points="481.41,-177.13 491.52,-173.96 481.64,-170.14 481.41,-177.13"/>
</a>
</g>
</g>
<!-- Node6 -->
<g id="Node000006" class="node">
<title>Node6</title>
<g id="a_Node000006"><a xlink:href="classdifferential__evolution_1_1_de_optimizer.html#aff18de19791b75f799d4aa5e9c60b5fa" target="_top" xlink:title=" ">
<polygon fill="white" stroke="#666666" points="309.5,-220 168.25,-220 168.25,-188 309.5,-188 309.5,-220"/>
<text text-anchor="start" x="176.25" y="-206.5" font-family="Helvetica,sans-Serif" font-size="10.00">differential_evolution</text>
<text text-anchor="middle" x="238.88" y="-194.5" font-family="Helvetica,sans-Serif" font-size="10.00">::DeOptimizer::next_improve</text>
</a>
</g>
</g>
<!-- Node1&#45;&gt;Node6 -->
<g id="edge5_Node000001_Node000006" class="edge">
<title>Node1&#45;&gt;Node6</title>
<g id="a_edge5_Node000001_Node000006"><a xlink:title=" ">
<path fill="none" stroke="#63b8ff" d="M130.71,-176.38C141.19,-179.09 152.15,-181.91 162.88,-184.67"/>
<polygon fill="#63b8ff" stroke="#63b8ff" points="161.93,-188.05 172.49,-187.15 163.68,-181.27 161.93,-188.05"/>
</a>
</g>
</g>
<!-- Node7 -->
<g id="Node000007" class="node">
<title>Node7</title>
<g id="a_Node000007"><a xlink:href="classdifferential__evolution_1_1_de_optimizer.html#ad1842fb1469f6b2e9f341afbe3b26d69" target="_top" xlink:title=" ">
<polygon fill="white" stroke="#666666" points="292.62,-132 185.12,-132 185.12,-100 292.62,-100 292.62,-132"/>
<text text-anchor="start" x="193.12" y="-118.5" font-family="Helvetica,sans-Serif" font-size="10.00">differential_evolution</text>
<text text-anchor="middle" x="238.88" y="-106.5" font-family="Helvetica,sans-Serif" font-size="10.00">::DeOptimizer::rndInt</text>
</a>
</g>
</g>
<!-- Node1&#45;&gt;Node7 -->
<g id="edge8_Node000001_Node000007" class="edge">
<title>Node1&#45;&gt;Node7</title>
<g id="a_edge8_Node000001_Node000007"><a xlink:title=" ">
<path fill="none" stroke="#63b8ff" d="M130.71,-143.62C144.77,-139.99 159.68,-136.15 173.77,-132.52"/>
<polygon fill="#63b8ff" stroke="#63b8ff" points="174.58,-135.92 183.39,-130.04 172.83,-129.15 174.58,-135.92"/>
</a>
</g>
</g>
<!-- Node8 -->
<g id="Node000008" class="node">
<title>Node8</title>
<g id="a_Node000008"><a xlink:href="classdifferential__evolution_1_1_de_optimizer.html#a750fb2ff0c0981be30414916d8c872bf" target="_top" xlink:title=" ">
<polygon fill="white" stroke="#666666" points="296,-82 181.75,-82 181.75,-50 296,-50 296,-82"/>
<text text-anchor="start" x="189.75" y="-68.5" font-family="Helvetica,sans-Serif" font-size="10.00">differential_evolution</text>
<text text-anchor="middle" x="238.88" y="-56.5" font-family="Helvetica,sans-Serif" font-size="10.00">::DeOptimizer::sample</text>
</a>
</g>
</g>
<!-- Node1&#45;&gt;Node8 -->
<g id="edge9_Node000001_Node000008" class="edge">
<title>Node1&#45;&gt;Node8</title>
<g id="a_edge9_Node000001_Node000008"><a xlink:title=" ">
<path fill="none" stroke="#63b8ff" d="M87.84,-143.54C107.62,-128.39 138.72,-106.07 168.25,-91 171.09,-89.55 174.04,-88.15 177.04,-86.79"/>
<polygon fill="#63b8ff" stroke="#63b8ff" points="178.17,-90.11 186.01,-82.99 175.44,-83.67 178.17,-90.11"/>
</a>
</g>
</g>
<!-- Node10 -->
<g id="Node000010" class="node">
<title>Node10</title>
<g id="a_Node000010"><a xlink:href="classdifferential__evolution_1_1_de_optimizer.html#ac2c05bd08ebf41841869016986381905" target="_top" xlink:title=" ">
<polygon fill="white" stroke="#666666" points="309.5,-32 168.25,-32 168.25,0 309.5,0 309.5,-32"/>
<text text-anchor="start" x="176.25" y="-18.5" font-family="Helvetica,sans-Serif" font-size="10.00">differential_evolution</text>
<text text-anchor="middle" x="238.88" y="-6.5" font-family="Helvetica,sans-Serif" font-size="10.00">::DeOptimizer::update_mean</text>
</a>
</g>
</g>
<!-- Node1&#45;&gt;Node10 -->
<g id="edge12_Node000001_Node000010" class="edge">
<title>Node1&#45;&gt;Node10</title>
<g id="a_edge12_Node000001_Node000010"><a xlink:title=" ">
<path fill="none" stroke="#63b8ff" d="M76.89,-143.79C92.94,-118.45 127.24,-69.4 168.25,-41 169.85,-39.89 171.5,-38.83 173.19,-37.81"/>
<polygon fill="#63b8ff" stroke="#63b8ff" points="174.77,-40.94 181.94,-33.13 171.47,-34.76 174.77,-40.94"/>
</a>
</g>
</g>
<!-- Node2&#45;&gt;Node3 -->
<g id="edge2_Node000002_Node000003" class="edge">
<title>Node2&#45;&gt;Node3</title>
<g id="a_edge2_Node000002_Node000003"><a xlink:title=" ">
<path fill="none" stroke="#63b8ff" d="M457.82,-224.5C468.08,-225.52 478.86,-226.59 489.35,-227.63"/>
<polygon fill="#63b8ff" stroke="#63b8ff" points="488.77,-231.09 499.06,-228.6 489.46,-224.13 488.77,-231.09"/>
</a>
</g>
</g>
<!-- Node2&#45;&gt;Node4 -->
<g id="edge3_Node000002_Node000004" class="edge">
<title>Node2&#45;&gt;Node4</title>
<g id="a_edge3_Node000002_Node000004"><a xlink:title=" ">
<path fill="none" stroke="#63b8ff" d="M457.82,-203.23C466.55,-200.74 475.67,-198.15 484.66,-195.58"/>
<polygon fill="#63b8ff" stroke="#63b8ff" points="485.41,-199.01 494.07,-192.9 483.49,-192.28 485.41,-199.01"/>
</a>
</g>
</g>
<!-- Node5 -->
<g id="Node000005" class="node">
<title>Node5</title>
<g id="a_Node000005"><a xlink:href="evaluator_8h.html#aa3d770d0f4bda035e2cc8c6f5c1b0aee" target="_top" xlink:title=" ">
<polygon fill="white" stroke="#666666" points="704.75,-186 651.25,-186 651.25,-166 704.75,-166 704.75,-186"/>
<text text-anchor="middle" x="678" y="-172.5" font-family="Helvetica,sans-Serif" font-size="10.00">normreal</text>
</a>
</g>
</g>
<!-- Node4&#45;&gt;Node5 -->
<g id="edge4_Node000004_Node000005" class="edge">
<title>Node4&#45;&gt;Node5</title>
<g id="a_edge4_Node000004_Node000005"><a xlink:title=" ">
<path fill="none" stroke="#63b8ff" d="M615.47,-176C623.64,-176 631.83,-176 639.44,-176"/>
<polygon fill="#63b8ff" stroke="#63b8ff" points="639.34,-179.5 649.34,-176 639.34,-172.5 639.34,-179.5"/>
</a>
</g>
</g>
<!-- Node6&#45;&gt;Node2 -->
<g id="edge6_Node000006_Node000002" class="edge">
<title>Node6&#45;&gt;Node2</title>
<g id="a_edge6_Node000006_Node000002"><a xlink:title=" ">
<path fill="none" stroke="#63b8ff" d="M309.86,-210.54C317.81,-211.28 325.9,-212.03 333.81,-212.77"/>
<polygon fill="#63b8ff" stroke="#63b8ff" points="333.44,-216.25 343.72,-213.7 334.09,-209.28 333.44,-216.25"/>
</a>
</g>
</g>
<!-- Node9 -->
<g id="Node000009" class="node">
<title>Node9</title>
<g id="a_Node000009"><a xlink:href="evaluator_8h.html#a5b652df2286e1f0c4dae7d4dd841bb8f" target="_top" xlink:title=" ">
<polygon fill="white" stroke="#666666" points="432.38,-76 370.62,-76 370.62,-56 432.38,-56 432.38,-76"/>
<text text-anchor="middle" x="401.5" y="-62.5" font-family="Helvetica,sans-Serif" font-size="10.00">normalVec</text>
</a>
</g>
</g>
<!-- Node8&#45;&gt;Node9 -->
<g id="edge10_Node000008_Node000009" class="edge">
<title>Node8&#45;&gt;Node9</title>
<g id="a_edge10_Node000008_Node000009"><a xlink:title=" ">
<path fill="none" stroke="#63b8ff" d="M296.05,-66C316.73,-66 339.76,-66 358.92,-66"/>
<polygon fill="#63b8ff" stroke="#63b8ff" points="358.79,-69.5 368.79,-66 358.79,-62.5 358.79,-69.5"/>
</a>
</g>
</g>
</g>
</svg>
