<?xml version="1.0" encoding="UTF-8" standalone="no"?>
<!DOCTYPE svg PUBLIC "-//W3C//DTD SVG 1.1//EN"
 "http://www.w3.org/Graphics/SVG/1.1/DTD/svg11.dtd">
<!-- Generated by graphviz version 12.2.1 (20241206.2353)
 -->
<!-- Title: mmkp.MMKP.deviation Pages: 1 -->
<svg width="267pt" height="66pt"
 viewBox="0.00 0.00 267.25 66.00" xmlns="http://www.w3.org/2000/svg" xmlns:xlink="http://www.w3.org/1999/xlink">
<g id="graph0" class="graph" transform="scale(1 1) rotate(0) translate(4 62)">
<title>mmkp.MMKP.deviation</title>
<!-- Node1 -->
<g id="Node000001" class="node">
<title>Node1</title>
<g id="a_Node000001"><a xlink:title=" ">
<polygon fill="#999999" stroke="#666666" points="259.25,-39 142.75,-39 142.75,-19 259.25,-19 259.25,-39"/>
<text text-anchor="middle" x="201" y="-25.5" font-family="Helvetica,sans-Serif" font-size="10.00">mmkp.MMKP.deviation</text>
</a>
</g>
</g>
<!-- Node2 -->
<g id="Node000002" class="node">
<title>Node2</title>
<g id="a_Node000002"><a xlink:href="classmmkp_1_1_m_m_k_p.html#a47221aa9a69b03bc277ca6bd3c3afd20" target="_top" xlink:title=" ">
<polygon fill="white" stroke="#666666" points="104.12,-58 2.62,-58 2.62,-38 104.12,-38 104.12,-58"/>
<text text-anchor="middle" x="53.38" y="-44.5" font-family="Helvetica,sans-Serif" font-size="10.00">mmkp.MMKP.dump</text>
</a>
</g>
</g>
<!-- Node1&#45;&gt;Node2 -->
<g id="edge1_Node000001_Node000002" class="edge">
<title>Node1&#45;&gt;Node2</title>
<g id="a_edge1_Node000001_Node000002"><a xlink:title=" ">
<path fill="none" stroke="#63b8ff" d="M131.13,-37.99C122.13,-39.16 113.05,-40.34 104.45,-41.47"/>
<polygon fill="#63b8ff" stroke="#63b8ff" points="131.48,-41.47 140.94,-36.71 130.58,-34.53 131.48,-41.47"/>
</a>
</g>
</g>
<!-- Node3 -->
<g id="Node000003" class="node">
<title>Node3</title>
<g id="a_Node000003"><a xlink:href="classmmkp_1_1_m_m_k_p.html#aeab8da83296dbb68b5c90753e6fe6ff1" target="_top" xlink:title=" ">
<polygon fill="white" stroke="#666666" points="106.75,-20 0,-20 0,0 106.75,0 106.75,-20"/>
<text text-anchor="middle" x="53.38" y="-6.5" font-family="Helvetica,sans-Serif" font-size="10.00">mmkp.MMKP.fitness</text>
</a>
</g>
</g>
<!-- Node1&#45;&gt;Node3 -->
<g id="edge2_Node000001_Node000003" class="edge">
<title>Node1&#45;&gt;Node3</title>
<g id="a_edge2_Node000001_Node000003"><a xlink:title=" ">
<path fill="none" stroke="#63b8ff" d="M131.29,-20.04C123.05,-18.96 114.74,-17.88 106.78,-16.84"/>
<polygon fill="#63b8ff" stroke="#63b8ff" points="130.58,-23.47 140.94,-21.29 131.48,-16.53 130.58,-23.47"/>
</a>
</g>
</g>
</g>
</svg>
