<?xml version="1.0" encoding="UTF-8" standalone="no"?>
<!DOCTYPE svg PUBLIC "-//W3C//DTD SVG 1.1//EN"
 "http://www.w3.org/Graphics/SVG/1.1/DTD/svg11.dtd">
<!-- Generated by graphviz version 12.2.1 (20241206.2353)
 -->
<!-- Title: examples.kepler.kepler.Kepler.getEccentricAnomaly2 Pages: 1 -->
<!--zoomable 78 -->

<svg id="main" version="1.1" xmlns="http://www.w3.org/2000/svg" xmlns:xlink="http://www.w3.org/1999/xlink" xml:space="preserve" onload="init(evt)">

<style type="text/css"><![CDATA[
.node, .edge {opacity: 0.7;}
.node.selected, .edge.selected {opacity: 1;}
.edge:hover path { stroke: red; }
.edge:hover polygon { stroke: red; fill: red; }
]]></style>

<defs>
  <circle id="rim" cx="0" cy="0" r="7"/>
  <circle id="rim2" cx="0" cy="0" r="3.5"/>
  <g id="zoomPlus">
    <use xlink:href="#rim" fill="#404040"><set attributeName="fill" to="#808080" begin="zoomplus.mouseover" end="zoomplus.mouseout"/></use>
    <path d="M-4,0h8M0,-4v8" fill="none" stroke="white" stroke-width="1.5" pointer-events="none"/>
  </g>
  <g id="zoomMin">
    <use xlink:href="#rim" fill="#404040"><set attributeName="fill" to="#808080" begin="zoomminus.mouseover" end="zoomminus.mouseout"/></use>
    <path d="M-4,0h8" fill="none" stroke="white" stroke-width="1.5" pointer-events="none"/>
  </g>
  <g id="arrowUp" transform="translate(30 24)">
    <use xlink:href="#rim"/>
    <path pointer-events="none" fill="none" stroke="white" stroke-width="1.5" d="M0,-3.0v7 M-2.5,-0.5L0,-3.0L2.5,-0.5"/>
  </g>
  <g id="arrowRight" transform="rotate(90) translate(36 -43)">
    <use xlink:href="#rim"/>
    <path pointer-events="none" fill="none" stroke="white" stroke-width="1.5" d="M0,-3.0v7 M-2.5,-0.5L0,-3.0L2.5,-0.5"/>
  </g>
  <g id="arrowDown" transform="rotate(180) translate(-30 -48)">
    <use xlink:href="#rim"/>
    <path pointer-events="none" fill="none" stroke="white" stroke-width="1.5" d="M0,-3.0v7 M-2.5,-0.5L0,-3.0L2.5,-0.5"/>
  </g>
  <g id="arrowLeft" transform="rotate(270) translate(-36 17)">
    <use xlink:href="#rim"/>
    <path pointer-events="none" fill="none" stroke="white" stroke-width="1.5" d="M0,-3.0v7 M-2.5,-0.5L0,-3.0L2.5,-0.5"/>
  </g>
  <g id="resetDef">
    <use xlink:href="#rim2" fill="#404040"><set attributeName="fill" to="#808080" begin="reset.mouseover" end="reset.mouseout"/></use>
  </g>
</defs>
<script type="application/ecmascript">
var viewWidth = 933;
var viewHeight = 78;
var sectionId = 'dynsection-5';
</script>
<script type="application/ecmascript" xlink:href="svg.min.js"/>
<svg id="graph" class="graph">
<g id="viewport">
<title>examples.kepler.kepler.Kepler.getEccentricAnomaly2</title>
<!-- Node1 -->
<g id="Node000001" class="node">
<title>Node1</title>
<g id="a_Node000001"><a xlink:title=" ">
<polygon fill="#999999" stroke="#666666" points="163.75,-54 0,-54 0,-22 163.75,-22 163.75,-54"/>
<text text-anchor="start" x="8" y="-40.5" font-family="Helvetica,sans-Serif" font-size="10.00">examples.kepler.kepler.Kepler.get</text>
<text text-anchor="middle" x="81.88" y="-28.5" font-family="Helvetica,sans-Serif" font-size="10.00">EccentricAnomaly2</text>
</a>
</g>
</g>
<!-- Node2 -->
<g id="Node000002" class="node">
<title>Node2</title>
<g id="a_Node000002"><a xlink:href="classexamples_1_1kepler_1_1kepler_1_1_kepler.html#a0789b3d8b3a7dfa103714ca48cd34c49" target="_top" xlink:title=" ">
<polygon fill="white" stroke="#666666" points="363.5,-54 199.75,-54 199.75,-22 363.5,-22 363.5,-54"/>
<text text-anchor="start" x="207.75" y="-40.5" font-family="Helvetica,sans-Serif" font-size="10.00">examples.kepler.kepler.Kepler.get</text>
<text text-anchor="middle" x="281.62" y="-28.5" font-family="Helvetica,sans-Serif" font-size="10.00">TrueAnomaly</text>
</a>
</g>
</g>
<!-- Node1&#45;&gt;Node2 -->
<g id="edge1_Node000001_Node000002" class="edge">
<title>Node1&#45;&gt;Node2</title>
<g id="a_edge1_Node000001_Node000002"><a xlink:title=" ">
<path fill="none" stroke="#63b8ff" d="M164.16,-38C172.06,-38 180.1,-38 188.09,-38"/>
<polygon fill="#63b8ff" stroke="#63b8ff" points="187.82,-41.5 197.82,-38 187.82,-34.5 187.82,-41.5"/>
</a>
</g>
</g>
<!-- Node3 -->
<g id="Node000003" class="node">
<title>Node3</title>
<g id="a_Node000003"><a xlink:href="classexamples_1_1kepler_1_1kepler_1_1_kepler.html#ace359228af6ab44df9562414d3be0b73" target="_top" xlink:title=" ">
<polygon fill="white" stroke="#666666" points="587.25,-48 399.5,-48 399.5,-28 587.25,-28 587.25,-48"/>
<text text-anchor="middle" x="493.38" y="-34.5" font-family="Helvetica,sans-Serif" font-size="10.00">examples.kepler.kepler.Kepler.mean2ta</text>
</a>
</g>
</g>
<!-- Node2&#45;&gt;Node3 -->
<g id="edge2_Node000002_Node000003" class="edge">
<title>Node2&#45;&gt;Node3</title>
<g id="a_edge2_Node000002_Node000003"><a xlink:title=" ">
<path fill="none" stroke="#63b8ff" d="M363.72,-38C371.63,-38 379.74,-38 387.84,-38"/>
<polygon fill="#63b8ff" stroke="#63b8ff" points="387.76,-41.5 397.76,-38 387.76,-34.5 387.76,-41.5"/>
</a>
</g>
</g>
<!-- Node4 -->
<g id="Node000004" class="node">
<title>Node4</title>
<g id="a_Node000004"><a xlink:href="namespaceexamples_1_1kepler_1_1kepler.html#a517d2a90d3773a272d1ee7d415799214" target="_top" xlink:title=" ">
<polygon fill="white" stroke="#666666" points="742.75,-54 623.25,-54 623.25,-22 742.75,-22 742.75,-54"/>
<text text-anchor="start" x="631.25" y="-40.5" font-family="Helvetica,sans-Serif" font-size="10.00">examples.kepler.kepler.</text>
<text text-anchor="middle" x="683" y="-28.5" font-family="Helvetica,sans-Serif" font-size="10.00">_mean2ta</text>
</a>
</g>
</g>
<!-- Node3&#45;&gt;Node4 -->
<g id="edge3_Node000003_Node000004" class="edge">
<title>Node3&#45;&gt;Node4</title>
<g id="a_edge3_Node000003_Node000004"><a xlink:title=" ">
<path fill="none" stroke="#63b8ff" d="M587.64,-38C595.67,-38 603.71,-38 611.52,-38"/>
<polygon fill="#63b8ff" stroke="#63b8ff" points="611.25,-41.5 621.25,-38 611.25,-34.5 611.25,-41.5"/>
</a>
</g>
</g>
<!-- Node5 -->
<g id="Node000005" class="node">
<title>Node5</title>
<g id="a_Node000005"><a xlink:href="namespaceexamples_1_1kepler_1_1kepler.html#a2421a039709ffc114992322c5b944ba0" target="_top" xlink:title=" ">
<polygon fill="white" stroke="#666666" points="921.88,-70 781.38,-70 781.38,-50 921.88,-50 921.88,-70"/>
<text text-anchor="middle" x="851.62" y="-56.5" font-family="Helvetica,sans-Serif" font-size="10.00">examples.kepler.kepler.eps3</text>
</a>
</g>
</g>
<!-- Node4&#45;&gt;Node5 -->
<g id="edge4_Node000004_Node000005" class="edge">
<title>Node4&#45;&gt;Node5</title>
<g id="a_edge4_Node000004_Node000005"><a xlink:title=" ">
<path fill="none" stroke="#63b8ff" d="M743.21,-45.82C751.83,-46.96 760.82,-48.14 769.78,-49.33"/>
<polygon fill="#63b8ff" stroke="#63b8ff" points="769.2,-52.78 779.57,-50.62 770.11,-45.84 769.2,-52.78"/>
</a>
</g>
</g>
<!-- Node6 -->
<g id="Node000006" class="node">
<title>Node6</title>
<g id="a_Node000006"><a xlink:href="namespaceexamples_1_1kepler_1_1kepler.html#a1270aff9b2683cf09fd997af1c49791b" target="_top" xlink:title=" ">
<polygon fill="white" stroke="#666666" points="924.5,-32 778.75,-32 778.75,0 924.5,0 924.5,-32"/>
<text text-anchor="start" x="786.75" y="-18.5" font-family="Helvetica,sans-Serif" font-size="10.00">examples.kepler.kepler.kepler</text>
<text text-anchor="middle" x="851.62" y="-6.5" font-family="Helvetica,sans-Serif" font-size="10.00">Start3</text>
</a>
</g>
</g>
<!-- Node4&#45;&gt;Node6 -->
<g id="edge5_Node000004_Node000006" class="edge">
<title>Node4&#45;&gt;Node6</title>
<g id="a_edge5_Node000004_Node000006"><a xlink:title=" ">
<path fill="none" stroke="#63b8ff" d="M743.21,-30.18C750.97,-29.16 759.03,-28.09 767.1,-27.03"/>
<polygon fill="#63b8ff" stroke="#63b8ff" points="767.51,-30.5 776.97,-25.73 766.6,-23.56 767.51,-30.5"/>
</a>
</g>
</g>
</g>
</svg>

<g id="navigator" transform="translate(0 0)" fill="#404254">
  <rect fill="#f2f5e9" fill-opacity="0.5" stroke="#606060" stroke-width=".5" x="0" y="0" width="60" height="60"/>
  <use id="zoomplus" xlink:href="#zoomPlus" x="17" y="9" onmousedown="handleZoom(evt,'in')"/>
  <use id="zoomminus" xlink:href="#zoomMin" x="42" y="9" onmousedown="handleZoom(evt,'out')"/>
  <use id="reset" xlink:href="#resetDef" x="30" y="36" onmousedown="handleReset()"/>
   <use id="arrowup" xlink:href="#arrowUp" x="0" y="0" onmousedown="handlePan(0,-1)"/>
  <use id="arrowright" xlink:href="#arrowRight" x="0" y="0" onmousedown="handlePan(1,0)"/>
  <use id="arrowdown" xlink:href="#arrowDown" x="0" y="0" onmousedown="handlePan(0,1)"/>
  <use id="arrowleft" xlink:href="#arrowLeft" x="0" y="0" onmousedown="handlePan(-1,0)"/>
</g>
<svg viewBox="0 0 15 15" width="100%" height="30px" preserveAspectRatio="xMaxYMin meet">
 <g id="arrow_out" transform="scale(0.3 0.3)">
  <a xlink:href="classexamples_1_1kepler_1_1kepler_1_1_kepler_aae84ef21298ce1f21ea13cd99d115732_cgraph_org.svg" target="_base">
   <rect id="button" ry="5" rx="5" y="6" x="6" height="38" width="38"
        fill="#f2f5e9" fill-opacity="0.5" stroke="#606060" stroke-width="1.0"/>
   <path id="arrow"
     d="M 11.500037,31.436501 C 11.940474,20.09759 22.043105,11.32322 32.158766,21.979434 L 37.068811,17.246167 C 37.068811,17.246167 37.088388,32 37.088388,32 L 22.160133,31.978069 C 22.160133,31.978069 26.997745,27.140456 26.997745,27.140456 C 18.528582,18.264221 13.291696,25.230495 11.500037,31.436501 z"
     style="fill:#404040;"/>
  </a>
 </g>
</svg>

<style type='text/css'>
<![CDATA[
[data-mouse-over-selected='false'] { opacity: 0.7; }
[data-mouse-over-selected='true']  { opacity: 1.0; }
]]>
</style>
<script type="application/ecmascript"><![CDATA[
document.addEventListener('DOMContentLoaded', (event) => {
  highlightEdges();
  highlightAdjacentNodes();
});
]]></script>
</svg>
