<?xml version="1.0" encoding="UTF-8" standalone="no"?>
<!DOCTYPE svg PUBLIC "-//W3C//DTD SVG 1.1//EN"
 "http://www.w3.org/Graphics/SVG/1.1/DTD/svg11.dtd">
<!-- Generated by graphviz version 12.2.1 (20241206.2353)
 -->
<!-- Title: CBiteSelBase Pages: 1 -->
<!--zoomable 697 -->

<svg id="main" version="1.1" xmlns="http://www.w3.org/2000/svg" xmlns:xlink="http://www.w3.org/1999/xlink" xml:space="preserve" onload="init(evt)">

<style type="text/css"><![CDATA[
.node, .edge {opacity: 0.7;}
.node.selected, .edge.selected {opacity: 1;}
.edge:hover path { stroke: red; }
.edge:hover polygon { stroke: red; fill: red; }
]]></style>

<defs>
  <circle id="rim" cx="0" cy="0" r="7"/>
  <circle id="rim2" cx="0" cy="0" r="3.5"/>
  <g id="zoomPlus">
    <use xlink:href="#rim" fill="#404040"><set attributeName="fill" to="#808080" begin="zoomplus.mouseover" end="zoomplus.mouseout"/></use>
    <path d="M-4,0h8M0,-4v8" fill="none" stroke="white" stroke-width="1.5" pointer-events="none"/>
  </g>
  <g id="zoomMin">
    <use xlink:href="#rim" fill="#404040"><set attributeName="fill" to="#808080" begin="zoomminus.mouseover" end="zoomminus.mouseout"/></use>
    <path d="M-4,0h8" fill="none" stroke="white" stroke-width="1.5" pointer-events="none"/>
  </g>
  <g id="arrowUp" transform="translate(30 24)">
    <use xlink:href="#rim"/>
    <path pointer-events="none" fill="none" stroke="white" stroke-width="1.5" d="M0,-3.0v7 M-2.5,-0.5L0,-3.0L2.5,-0.5"/>
  </g>
  <g id="arrowRight" transform="rotate(90) translate(36 -43)">
    <use xlink:href="#rim"/>
    <path pointer-events="none" fill="none" stroke="white" stroke-width="1.5" d="M0,-3.0v7 M-2.5,-0.5L0,-3.0L2.5,-0.5"/>
  </g>
  <g id="arrowDown" transform="rotate(180) translate(-30 -48)">
    <use xlink:href="#rim"/>
    <path pointer-events="none" fill="none" stroke="white" stroke-width="1.5" d="M0,-3.0v7 M-2.5,-0.5L0,-3.0L2.5,-0.5"/>
  </g>
  <g id="arrowLeft" transform="rotate(270) translate(-36 17)">
    <use xlink:href="#rim"/>
    <path pointer-events="none" fill="none" stroke="white" stroke-width="1.5" d="M0,-3.0v7 M-2.5,-0.5L0,-3.0L2.5,-0.5"/>
  </g>
  <g id="resetDef">
    <use xlink:href="#rim2" fill="#404040"><set attributeName="fill" to="#808080" begin="reset.mouseover" end="reset.mouseout"/></use>
  </g>
</defs>
<script type="application/ecmascript">
var viewWidth = 267;
var viewHeight = 697;
var sectionId = 'dynsection-0';
</script>
<script type="application/ecmascript" xlink:href="svg.min.js"/>
<svg id="graph" class="graph">
<g id="viewport">
<title>CBiteSelBase</title>
<!-- Node1 -->
<g id="Node000001" class="node">
<title>Node1</title>
<g id="a_Node000001"><a xlink:title=" ">
<polygon fill="#999999" stroke="none" points="154.88,-689 9.38,-689 9.38,-189 154.88,-189 154.88,-689"/>
<text text-anchor="start" x="51.38" y="-675.5" font-family="Helvetica,sans-Serif" font-size="10.00">CBiteSelBase</text>
<text text-anchor="start" x="13.75" y="-659.5" font-family="Helvetica,sans-Serif" font-size="10.00">#</text>
<text text-anchor="start" x="23.38" y="-659.5" font-family="Helvetica,sans-Serif" font-size="10.00">int Count</text>
<text text-anchor="start" x="13.75" y="-643.5" font-family="Helvetica,sans-Serif" font-size="10.00">#</text>
<text text-anchor="start" x="23.38" y="-643.5" font-family="Helvetica,sans-Serif" font-size="10.00">int SparseMul</text>
<text text-anchor="start" x="13.75" y="-627.5" font-family="Helvetica,sans-Serif" font-size="10.00">#</text>
<text text-anchor="start" x="23.38" y="-627.5" font-family="Helvetica,sans-Serif" font-size="10.00">int CountSp</text>
<text text-anchor="start" x="13.75" y="-611.5" font-family="Helvetica,sans-Serif" font-size="10.00">#</text>
<text text-anchor="start" x="23.38" y="-611.5" font-family="Helvetica,sans-Serif" font-size="10.00">int CountSp1</text>
<text text-anchor="start" x="13.75" y="-595.5" font-family="Helvetica,sans-Serif" font-size="10.00">#</text>
<text text-anchor="start" x="23.38" y="-595.5" font-family="Helvetica,sans-Serif" font-size="10.00">double AccumCoeff</text>
<text text-anchor="start" x="13.75" y="-579.5" font-family="Helvetica,sans-Serif" font-size="10.00">#</text>
<text text-anchor="start" x="23.38" y="-579.5" font-family="Helvetica,sans-Serif" font-size="10.00">double SlotAccums</text>
<text text-anchor="start" x="13.75" y="-563.5" font-family="Helvetica,sans-Serif" font-size="10.00">#</text>
<text text-anchor="start" x="23.38" y="-563.5" font-family="Helvetica,sans-Serif" font-size="10.00">int * Sels</text>
<text text-anchor="start" x="13.75" y="-547.5" font-family="Helvetica,sans-Serif" font-size="10.00">#</text>
<text text-anchor="start" x="23.38" y="-547.5" font-family="Helvetica,sans-Serif" font-size="10.00">int * SelBuf</text>
<text text-anchor="start" x="13.75" y="-531.5" font-family="Helvetica,sans-Serif" font-size="10.00">#</text>
<text text-anchor="start" x="23.38" y="-531.5" font-family="Helvetica,sans-Serif" font-size="10.00">int SelBufCapacity</text>
<text text-anchor="start" x="13.75" y="-515.5" font-family="Helvetica,sans-Serif" font-size="10.00">#</text>
<text text-anchor="start" x="23.38" y="-515.5" font-family="Helvetica,sans-Serif" font-size="10.00">int Sel</text>
<text text-anchor="start" x="13.75" y="-499.5" font-family="Helvetica,sans-Serif" font-size="10.00">#</text>
<text text-anchor="start" x="23.38" y="-499.5" font-family="Helvetica,sans-Serif" font-size="10.00">int Selp</text>
<text text-anchor="start" x="13.75" y="-483.5" font-family="Helvetica,sans-Serif" font-size="10.00">#</text>
<text text-anchor="start" x="23.38" y="-483.5" font-family="Helvetica,sans-Serif" font-size="10.00">int Slot</text>
<text text-anchor="start" x="13.75" y="-467.5" font-family="Helvetica,sans-Serif" font-size="10.00">#</text>
<text text-anchor="start" x="23.38" y="-467.5" font-family="Helvetica,sans-Serif" font-size="10.00">bool IsSelected</text>
<text text-anchor="start" x="13.75" y="-451.5" font-family="Helvetica,sans-Serif" font-size="10.00">#</text>
<text text-anchor="start" x="23.38" y="-451.5" font-family="Helvetica,sans-Serif" font-size="10.00">static const int SlotCount</text>
<text text-anchor="start" x="13.38" y="-435.5" font-family="Helvetica,sans-Serif" font-size="10.00">+</text>
<text text-anchor="start" x="23.38" y="-435.5" font-family="Helvetica,sans-Serif" font-size="10.00">CBiteSelBase(const</text>
<text text-anchor="start" x="23.38" y="-423.5" font-family="Helvetica,sans-Serif" font-size="10.00"> int aCount)</text>
<text text-anchor="start" x="13.38" y="-407.5" font-family="Helvetica,sans-Serif" font-size="10.00">+</text>
<text text-anchor="start" x="23.38" y="-407.5" font-family="Helvetica,sans-Serif" font-size="10.00">~CBiteSelBase()</text>
<text text-anchor="start" x="13.38" y="-391.5" font-family="Helvetica,sans-Serif" font-size="10.00">+</text>
<text text-anchor="start" x="23.38" y="-391.5" font-family="Helvetica,sans-Serif" font-size="10.00">void reset(CBiteRnd</text>
<text text-anchor="start" x="23.38" y="-379.5" font-family="Helvetica,sans-Serif" font-size="10.00"> &amp;rnd, const int ParamCount)</text>
<text text-anchor="start" x="13.38" y="-363.5" font-family="Helvetica,sans-Serif" font-size="10.00">+</text>
<text text-anchor="start" x="23.38" y="-363.5" font-family="Helvetica,sans-Serif" font-size="10.00">int getChoiceCount</text>
<text text-anchor="start" x="23.38" y="-351.5" font-family="Helvetica,sans-Serif" font-size="10.00">() const</text>
<text text-anchor="start" x="13.38" y="-335.5" font-family="Helvetica,sans-Serif" font-size="10.00">+</text>
<text text-anchor="start" x="23.38" y="-335.5" font-family="Helvetica,sans-Serif" font-size="10.00">void incr(CBiteRnd</text>
<text text-anchor="start" x="23.38" y="-323.5" font-family="Helvetica,sans-Serif" font-size="10.00"> &amp;rnd, const double</text>
<text text-anchor="start" x="23.38" y="-311.5" font-family="Helvetica,sans-Serif" font-size="10.00"> v=1.0)</text>
<text text-anchor="start" x="13.38" y="-295.5" font-family="Helvetica,sans-Serif" font-size="10.00">+</text>
<text text-anchor="start" x="23.38" y="-295.5" font-family="Helvetica,sans-Serif" font-size="10.00">void decr(CBiteRnd</text>
<text text-anchor="start" x="23.38" y="-283.5" font-family="Helvetica,sans-Serif" font-size="10.00"> &amp;rnd)</text>
<text text-anchor="start" x="13.38" y="-267.5" font-family="Helvetica,sans-Serif" font-size="10.00">+</text>
<text text-anchor="start" x="23.38" y="-267.5" font-family="Helvetica,sans-Serif" font-size="10.00">int select(CBiteRnd</text>
<text text-anchor="start" x="23.38" y="-255.5" font-family="Helvetica,sans-Serif" font-size="10.00"> &amp;rnd)</text>
<text text-anchor="start" x="13.38" y="-239.5" font-family="Helvetica,sans-Serif" font-size="10.00">+</text>
<text text-anchor="start" x="23.38" y="-239.5" font-family="Helvetica,sans-Serif" font-size="10.00">int getSel() const</text>
<text text-anchor="start" x="13.38" y="-223.5" font-family="Helvetica,sans-Serif" font-size="10.00">+</text>
<text text-anchor="start" x="23.38" y="-223.5" font-family="Helvetica,sans-Serif" font-size="10.00">void unsetIsSelected()</text>
<text text-anchor="start" x="13.38" y="-207.5" font-family="Helvetica,sans-Serif" font-size="10.00">+</text>
<text text-anchor="start" x="23.38" y="-207.5" font-family="Helvetica,sans-Serif" font-size="10.00">bool getIsSelected</text>
<text text-anchor="start" x="23.38" y="-195.5" font-family="Helvetica,sans-Serif" font-size="10.00">() const</text>
<polygon fill="#666666" stroke="#666666" points="9.38,-671 9.38,-671 154.88,-671 154.88,-671 9.38,-671"/>
<polygon fill="#666666" stroke="#666666" points="9.38,-447 9.38,-447 21.38,-447 21.38,-447 9.38,-447"/>
<polygon fill="#666666" stroke="#666666" points="21.38,-447 21.38,-447 154.88,-447 154.88,-447 21.38,-447"/>
<polygon fill="none" stroke="#666666" points="9.38,-189 9.38,-689 154.88,-689 154.88,-189 9.38,-189"/>
</a>
</g>
</g>
<!-- Node2 -->
<g id="Node000002" class="node">
<title>Node2</title>
<g id="a_Node000002"><a xlink:href="class_c_bite_sel.html" target="_top" xlink:title=" ">
<polygon fill="white" stroke="none" points="70.25,-52 0,-52 0,0 70.25,0 70.25,-52"/>
<text text-anchor="start" x="4" y="-38.5" font-family="Helvetica,sans-Serif" font-size="10.00">CBiteSel&lt; 4 &gt;</text>
<text text-anchor="start" x="33.62" y="-22.5" font-family="Helvetica,sans-Serif" font-size="10.00"> </text>
<text text-anchor="start" x="5.81" y="-6.5" font-family="Helvetica,sans-Serif" font-size="10.00">+</text>
<text text-anchor="start" x="17.62" y="-6.5" font-family="Helvetica,sans-Serif" font-size="10.00">CBiteSel()</text>
<polygon fill="#666666" stroke="#666666" points="0,-34 0,-34 70.25,-34 70.25,-34 0,-34"/>
<polygon fill="#666666" stroke="#666666" points="0,-18 0,-18 70.25,-18 70.25,-18 0,-18"/>
<polygon fill="none" stroke="#666666" points="0,0 0,-52 70.25,-52 70.25,0 0,0"/>
</a>
</g>
</g>
<!-- Node1&#45;&gt;Node2 -->
<g id="edge1_Node000001_Node000002" class="edge">
<title>Node1&#45;&gt;Node2</title>
<g id="a_edge1_Node000001_Node000002"><a xlink:title=" ">
<path fill="none" stroke="#63b8ff" d="M43.81,-177.71C43.58,-175.47 43.35,-173.23 43.12,-171 38.93,-129.27 36.8,-80.5 35.83,-51.77"/>
<polygon fill="none" stroke="#63b8ff" points="40.32,-177.94 44.86,-187.51 47.28,-177.2 40.32,-177.94"/>
</a>
</g>
</g>
<!-- Node3 -->
<g id="Node000003" class="node">
<title>Node3</title>
<g id="a_Node000003"><a xlink:href="class_c_bite_sel.html" target="_top" xlink:title=" ">
<polygon fill="white" stroke="none" points="259.25,-52 189,-52 189,0 259.25,0 259.25,-52"/>
<text text-anchor="start" x="193" y="-38.5" font-family="Helvetica,sans-Serif" font-size="10.00">CBiteSel&lt; 3 &gt;</text>
<text text-anchor="start" x="222.62" y="-22.5" font-family="Helvetica,sans-Serif" font-size="10.00"> </text>
<text text-anchor="start" x="194.81" y="-6.5" font-family="Helvetica,sans-Serif" font-size="10.00">+</text>
<text text-anchor="start" x="206.62" y="-6.5" font-family="Helvetica,sans-Serif" font-size="10.00">CBiteSel()</text>
<polygon fill="#666666" stroke="#666666" points="189,-34 189,-34 259.25,-34 259.25,-34 189,-34"/>
<polygon fill="#666666" stroke="#666666" points="189,-18 189,-18 259.25,-18 259.25,-18 189,-18"/>
<polygon fill="none" stroke="#666666" points="189,0 189,-52 259.25,-52 259.25,0 189,0"/>
</a>
</g>
</g>
<!-- Node1&#45;&gt;Node3 -->
<g id="edge2_Node000001_Node000003" class="edge">
<title>Node1&#45;&gt;Node3</title>
<g id="a_edge2_Node000001_Node000003"><a xlink:title=" ">
<path fill="none" stroke="#63b8ff" d="M158.9,-239.16C169.87,-209.99 180.9,-180.26 191.12,-152 202.32,-121.07 207.11,-113.9 215.12,-82 217.58,-72.24 219.52,-61.33 220.97,-51.82"/>
<polygon fill="none" stroke="#63b8ff" points="155.64,-237.87 155.39,-248.47 162.19,-240.34 155.64,-237.87"/>
</a>
</g>
</g>
<!-- Node4 -->
<g id="Node000004" class="node">
<title>Node4</title>
<g id="a_Node000004"><a xlink:href="class_c_bite_sel.html" target="_top" xlink:title=" ">
<polygon fill="white" stroke="none" points="166.25,-52 96,-52 96,0 166.25,0 166.25,-52"/>
<text text-anchor="start" x="100" y="-38.5" font-family="Helvetica,sans-Serif" font-size="10.00">CBiteSel&lt; 2 &gt;</text>
<text text-anchor="start" x="129.62" y="-22.5" font-family="Helvetica,sans-Serif" font-size="10.00"> </text>
<text text-anchor="start" x="101.81" y="-6.5" font-family="Helvetica,sans-Serif" font-size="10.00">+</text>
<text text-anchor="start" x="113.62" y="-6.5" font-family="Helvetica,sans-Serif" font-size="10.00">CBiteSel()</text>
<polygon fill="#666666" stroke="#666666" points="96,-34 96,-34 166.25,-34 166.25,-34 96,-34"/>
<polygon fill="#666666" stroke="#666666" points="96,-18 96,-18 166.25,-18 166.25,-18 96,-18"/>
<polygon fill="none" stroke="#666666" points="96,0 96,-52 166.25,-52 166.25,0 96,0"/>
</a>
</g>
</g>
<!-- Node1&#45;&gt;Node4 -->
<g id="edge3_Node000001_Node000004" class="edge">
<title>Node1&#45;&gt;Node4</title>
<g id="a_edge3_Node000001_Node000004"><a xlink:title=" ">
<path fill="none" stroke="#63b8ff" d="M46.59,-178.25C50.06,-140.63 58.67,-103.39 75.12,-70 79.79,-60.54 87.64,-52.59 96,-46.19"/>
<polygon fill="none" stroke="#63b8ff" points="43.12,-177.65 45.82,-187.89 50.1,-178.2 43.12,-177.65"/>
</a>
</g>
</g>
<!-- Node5 -->
<g id="Node000005" class="node">
<title>Node5</title>
<g id="a_Node000005"><a xlink:href="class_c_bite_sel.html" target="_top" xlink:title=" ">
<polygon fill="white" stroke="none" points="182.25,-152 88,-152 88,-100 182.25,-100 182.25,-152"/>
<text text-anchor="start" x="92" y="-138.5" font-family="Helvetica,sans-Serif" font-size="10.00">CBiteSel&lt; tCount &gt;</text>
<text text-anchor="start" x="133.62" y="-122.5" font-family="Helvetica,sans-Serif" font-size="10.00"> </text>
<text text-anchor="start" x="99.81" y="-106.5" font-family="Helvetica,sans-Serif" font-size="10.00">+</text>
<text text-anchor="start" x="117.62" y="-106.5" font-family="Helvetica,sans-Serif" font-size="10.00">CBiteSel()</text>
<polygon fill="#666666" stroke="#666666" points="88,-134 88,-134 182.25,-134 182.25,-134 88,-134"/>
<polygon fill="#666666" stroke="#666666" points="88,-118 88,-118 182.25,-118 182.25,-118 88,-118"/>
<polygon fill="none" stroke="#666666" points="88,-100 88,-152 182.25,-152 182.25,-100 88,-100"/>
</a>
</g>
</g>
<!-- Node1&#45;&gt;Node5 -->
<g id="edge4_Node000001_Node000005" class="edge">
<title>Node1&#45;&gt;Node5</title>
<g id="a_edge4_Node000001_Node000005"><a xlink:title=" ">
<path fill="none" stroke="#63b8ff" d="M126.42,-178.07C128.11,-168.19 129.61,-159.36 130.88,-151.93"/>
<polygon fill="none" stroke="#63b8ff" points="123.01,-177.25 124.78,-187.7 129.91,-178.43 123.01,-177.25"/>
</a>
</g>
</g>
<!-- Node5&#45;&gt;Node2 -->
<g id="edge5_Node000005_Node000002" class="edge">
<title>Node5&#45;&gt;Node2</title>
<g id="a_edge5_Node000005_Node000002"><a xlink:title=" ">
<path fill="none" stroke="orange" d="M101.57,-92.11C88.18,-78.99 73.02,-64.14 60.57,-51.94"/>
<polygon fill="orange" stroke="orange" points="98.96,-94.46 108.55,-98.96 103.86,-89.46 98.96,-94.46"/>
</a>
</g>
<text text-anchor="middle" x="104.24" y="-72.5" font-family="Helvetica,sans-Serif" font-size="10.00" fill="grey"> &lt; 4 &gt;</text>
</g>
<!-- Node5&#45;&gt;Node3 -->
<g id="edge6_Node000005_Node000003" class="edge">
<title>Node5&#45;&gt;Node3</title>
<g id="a_edge6_Node000005_Node000003"><a xlink:title=" ">
<path fill="none" stroke="orange" d="M165.33,-91.74C177.16,-78.71 190.5,-64.03 201.48,-51.94"/>
<polygon fill="orange" stroke="orange" points="162.96,-89.14 158.83,-98.9 168.15,-93.85 162.96,-89.14"/>
</a>
</g>
<text text-anchor="middle" x="198.08" y="-72.5" font-family="Helvetica,sans-Serif" font-size="10.00" fill="grey"> &lt; 3 &gt;</text>
</g>
<!-- Node5&#45;&gt;Node4 -->
<g id="edge7_Node000005_Node000004" class="edge">
<title>Node5&#45;&gt;Node4</title>
<g id="a_edge7_Node000005_Node000004"><a xlink:title=" ">
<path fill="none" stroke="orange" d="M133.64,-88.74C133.15,-76.49 132.6,-63.1 132.14,-51.94"/>
<polygon fill="orange" stroke="orange" points="130.14,-88.66 134.04,-98.5 137.13,-88.37 130.14,-88.66"/>
</a>
</g>
<text text-anchor="middle" x="146.49" y="-72.5" font-family="Helvetica,sans-Serif" font-size="10.00" fill="grey"> &lt; 2 &gt;</text>
</g>
</g>
</svg>

<g id="navigator" transform="translate(0 0)" fill="#404254">
  <rect fill="#f2f5e9" fill-opacity="0.5" stroke="#606060" stroke-width=".5" x="0" y="0" width="60" height="60"/>
  <use id="zoomplus" xlink:href="#zoomPlus" x="17" y="9" onmousedown="handleZoom(evt,'in')"/>
  <use id="zoomminus" xlink:href="#zoomMin" x="42" y="9" onmousedown="handleZoom(evt,'out')"/>
  <use id="reset" xlink:href="#resetDef" x="30" y="36" onmousedown="handleReset()"/>
   <use id="arrowup" xlink:href="#arrowUp" x="0" y="0" onmousedown="handlePan(0,-1)"/>
  <use id="arrowright" xlink:href="#arrowRight" x="0" y="0" onmousedown="handlePan(1,0)"/>
  <use id="arrowdown" xlink:href="#arrowDown" x="0" y="0" onmousedown="handlePan(0,1)"/>
  <use id="arrowleft" xlink:href="#arrowLeft" x="0" y="0" onmousedown="handlePan(-1,0)"/>
</g>
<svg viewBox="0 0 15 15" width="100%" height="30px" preserveAspectRatio="xMaxYMin meet">
 <g id="arrow_out" transform="scale(0.3 0.3)">
  <a xlink:href="class_c_bite_sel_base__inherit__graph_org.svg" target="_base">
   <rect id="button" ry="5" rx="5" y="6" x="6" height="38" width="38"
        fill="#f2f5e9" fill-opacity="0.5" stroke="#606060" stroke-width="1.0"/>
   <path id="arrow"
     d="M 11.500037,31.436501 C 11.940474,20.09759 22.043105,11.32322 32.158766,21.979434 L 37.068811,17.246167 C 37.068811,17.246167 37.088388,32 37.088388,32 L 22.160133,31.978069 C 22.160133,31.978069 26.997745,27.140456 26.997745,27.140456 C 18.528582,18.264221 13.291696,25.230495 11.500037,31.436501 z"
     style="fill:#404040;"/>
  </a>
 </g>
</svg>

<style type='text/css'>
<![CDATA[
[data-mouse-over-selected='false'] { opacity: 0.7; }
[data-mouse-over-selected='true']  { opacity: 1.0; }
]]>
</style>
<script type="application/ecmascript"><![CDATA[
document.addEventListener('DOMContentLoaded', (event) => {
  highlightEdges();
  highlightAdjacentNodes();
});
]]></script>
</svg>
