<?xml version="1.0" encoding="UTF-8" standalone="no"?>
<!DOCTYPE svg PUBLIC "-//W3C//DTD SVG 1.1//EN"
 "http://www.w3.org/Graphics/SVG/1.1/DTD/svg11.dtd">
<!-- Generated by graphviz version 12.2.1 (20241206.2353)
 -->
<!-- Title: examples.solo_mgar_udp.solo_mgar_udp.pretty Pages: 1 -->
<svg width="466pt" height="152pt"
 viewBox="0.00 0.00 466.25 152.00" xmlns="http://www.w3.org/2000/svg" xmlns:xlink="http://www.w3.org/1999/xlink">
<g id="graph0" class="graph" transform="scale(1 1) rotate(0) translate(4 148)">
<title>examples.solo_mgar_udp.solo_mgar_udp.pretty</title>
<!-- Node1 -->
<g id="Node000001" class="node">
<title>Node1</title>
<g id="a_Node000001"><a xlink:title=" ">
<polygon fill="#999999" stroke="#666666" points="133.75,-88 0,-88 0,-56 133.75,-56 133.75,-88"/>
<text text-anchor="start" x="8" y="-74.5" font-family="Helvetica,sans-Serif" font-size="10.00">examples.solo_mgar</text>
<text text-anchor="middle" x="66.88" y="-62.5" font-family="Helvetica,sans-Serif" font-size="10.00">_udp.solo_mgar_udp.pretty</text>
</a>
</g>
</g>
<!-- Node2 -->
<g id="Node000002" class="node">
<title>Node2</title>
<g id="a_Node000002"><a xlink:href="namespaceexamples_1_1solo__mgar__udp.html#aa993877cfdbc437a566d33cb4290ca03" target="_top" xlink:title=" ">
<polygon fill="white" stroke="#666666" points="285.12,-144 179.12,-144 179.12,-112 285.12,-112 285.12,-144"/>
<text text-anchor="start" x="187.12" y="-130.5" font-family="Helvetica,sans-Serif" font-size="10.00">examples.solo_mgar</text>
<text text-anchor="middle" x="232.12" y="-118.5" font-family="Helvetica,sans-Serif" font-size="10.00">_udp._angle</text>
</a>
</g>
</g>
<!-- Node1&#45;&gt;Node2 -->
<g id="edge1_Node000001_Node000002" class="edge">
<title>Node1&#45;&gt;Node2</title>
<g id="a_edge1_Node000001_Node000002"><a xlink:title=" ">
<path fill="none" stroke="#63b8ff" d="M115.97,-88.5C133.66,-94.57 153.9,-101.51 172.42,-107.86"/>
<polygon fill="#63b8ff" stroke="#63b8ff" points="171.06,-111.1 181.66,-111.03 173.33,-104.48 171.06,-111.1"/>
</a>
</g>
</g>
<!-- Node3 -->
<g id="Node000003" class="node">
<title>Node3</title>
<g id="a_Node000003"><a xlink:href="classexamples_1_1solo__mgar__udp_1_1solo__mgar__udp.html#a92828aaaf12b6addeb33a6249b7539b8" target="_top" xlink:title=" ">
<polygon fill="white" stroke="#666666" points="286.62,-94 177.62,-94 177.62,-50 286.62,-50 286.62,-94"/>
<text text-anchor="start" x="185.62" y="-80.5" font-family="Helvetica,sans-Serif" font-size="10.00">examples.solo_mgar</text>
<text text-anchor="start" x="185.62" y="-68.5" font-family="Helvetica,sans-Serif" font-size="10.00">_udp.solo_mgar_udp.</text>
<text text-anchor="middle" x="232.12" y="-56.5" font-family="Helvetica,sans-Serif" font-size="10.00">_compute_dvs</text>
</a>
</g>
</g>
<!-- Node1&#45;&gt;Node3 -->
<g id="edge2_Node000001_Node000003" class="edge">
<title>Node1&#45;&gt;Node3</title>
<g id="a_edge2_Node000001_Node000003"><a xlink:title=" ">
<path fill="none" stroke="#63b8ff" d="M133.8,-72C144.4,-72 155.36,-72 165.93,-72"/>
<polygon fill="#63b8ff" stroke="#63b8ff" points="165.71,-75.5 175.71,-72 165.71,-68.5 165.71,-75.5"/>
</a>
</g>
</g>
<!-- Node6 -->
<g id="Node000006" class="node">
<title>Node6</title>
<g id="a_Node000006"><a xlink:href="classexamples_1_1solo__mgar__udp_1_1solo__mgar__udp.html#afaf91bbef39f261bba9225fd537e1c64" target="_top" xlink:title=" ">
<polygon fill="white" stroke="#666666" points="294.5,-32 169.75,-32 169.75,0 294.5,0 294.5,-32"/>
<text text-anchor="start" x="177.75" y="-18.5" font-family="Helvetica,sans-Serif" font-size="10.00">examples.solo_mgar</text>
<text text-anchor="middle" x="232.12" y="-6.5" font-family="Helvetica,sans-Serif" font-size="10.00">_udp.solo_mgar_udp.eph</text>
</a>
</g>
</g>
<!-- Node1&#45;&gt;Node6 -->
<g id="edge5_Node000001_Node000006" class="edge">
<title>Node1&#45;&gt;Node6</title>
<g id="a_edge5_Node000001_Node000006"><a xlink:title=" ">
<path fill="none" stroke="#63b8ff" d="M115.97,-55.5C133.66,-49.43 153.9,-42.49 172.42,-36.14"/>
<polygon fill="#63b8ff" stroke="#63b8ff" points="173.33,-39.52 181.66,-32.97 171.06,-32.9 173.33,-39.52"/>
</a>
</g>
</g>
<!-- Node4 -->
<g id="Node000004" class="node">
<title>Node4</title>
<g id="a_Node000004"><a xlink:href="namespaceexamples_1_1solo__mgar__udp.html#a6d928d9b61388ba3bc08749cb303c94e" target="_top" xlink:title=" ">
<polygon fill="white" stroke="#666666" points="447.38,-113 341.38,-113 341.38,-81 447.38,-81 447.38,-113"/>
<text text-anchor="start" x="349.38" y="-99.5" font-family="Helvetica,sans-Serif" font-size="10.00">examples.solo_mgar</text>
<text text-anchor="middle" x="394.38" y="-87.5" font-family="Helvetica,sans-Serif" font-size="10.00">_udp._dv_mga</text>
</a>
</g>
</g>
<!-- Node3&#45;&gt;Node4 -->
<g id="edge3_Node000003_Node000004" class="edge">
<title>Node3&#45;&gt;Node4</title>
<g id="a_edge3_Node000003_Node000004"><a xlink:title=" ">
<path fill="none" stroke="#63b8ff" d="M286.93,-80.39C300.71,-82.54 315.65,-84.87 329.86,-87.09"/>
<polygon fill="#63b8ff" stroke="#63b8ff" points="329.15,-90.52 339.57,-88.61 330.23,-83.61 329.15,-90.52"/>
</a>
</g>
</g>
<!-- Node5 -->
<g id="Node000005" class="node">
<title>Node5</title>
<g id="a_Node000005"><a xlink:href="namespaceexamples_1_1solo__mgar__udp.html#a2f01caf14c62d02e55dfc2245172590b" target="_top" xlink:title=" ">
<polygon fill="white" stroke="#666666" points="458.25,-63 330.5,-63 330.5,-31 458.25,-31 458.25,-63"/>
<text text-anchor="start" x="338.5" y="-49.5" font-family="Helvetica,sans-Serif" font-size="10.00">examples.solo_mgar</text>
<text text-anchor="middle" x="394.38" y="-37.5" font-family="Helvetica,sans-Serif" font-size="10.00">_udp.compute_resonance</text>
</a>
</g>
</g>
<!-- Node3&#45;&gt;Node5 -->
<g id="edge4_Node000003_Node000005" class="edge">
<title>Node3&#45;&gt;Node5</title>
<g id="a_edge4_Node000003_Node000005"><a xlink:title=" ">
<path fill="none" stroke="#63b8ff" d="M286.93,-63.61C297.19,-62.01 308.09,-60.3 318.86,-58.62"/>
<polygon fill="#63b8ff" stroke="#63b8ff" points="319.17,-62.12 328.51,-57.12 318.09,-55.2 319.17,-62.12"/>
</a>
</g>
</g>
</g>
</svg>
