<?xml version="1.0" encoding="UTF-8" standalone="no"?>
<!DOCTYPE svg PUBLIC "-//W3C//DTD SVG 1.1//EN"
 "http://www.w3.org/Graphics/SVG/1.1/DTD/svg11.dtd">
<!-- Generated by graphviz version 12.2.1 (20241206.2353)
 -->
<!-- Title: examples.employee.problem.optimize Pages: 1 -->
<!--zoomable 386 -->

<svg id="main" version="1.1" xmlns="http://www.w3.org/2000/svg" xmlns:xlink="http://www.w3.org/1999/xlink" xml:space="preserve" onload="init(evt)">

<style type="text/css"><![CDATA[
.node, .edge {opacity: 0.7;}
.node.selected, .edge.selected {opacity: 1;}
.edge:hover path { stroke: red; }
.edge:hover polygon { stroke: red; fill: red; }
]]></style>

<defs>
  <circle id="rim" cx="0" cy="0" r="7"/>
  <circle id="rim2" cx="0" cy="0" r="3.5"/>
  <g id="zoomPlus">
    <use xlink:href="#rim" fill="#404040"><set attributeName="fill" to="#808080" begin="zoomplus.mouseover" end="zoomplus.mouseout"/></use>
    <path d="M-4,0h8M0,-4v8" fill="none" stroke="white" stroke-width="1.5" pointer-events="none"/>
  </g>
  <g id="zoomMin">
    <use xlink:href="#rim" fill="#404040"><set attributeName="fill" to="#808080" begin="zoomminus.mouseover" end="zoomminus.mouseout"/></use>
    <path d="M-4,0h8" fill="none" stroke="white" stroke-width="1.5" pointer-events="none"/>
  </g>
  <g id="arrowUp" transform="translate(30 24)">
    <use xlink:href="#rim"/>
    <path pointer-events="none" fill="none" stroke="white" stroke-width="1.5" d="M0,-3.0v7 M-2.5,-0.5L0,-3.0L2.5,-0.5"/>
  </g>
  <g id="arrowRight" transform="rotate(90) translate(36 -43)">
    <use xlink:href="#rim"/>
    <path pointer-events="none" fill="none" stroke="white" stroke-width="1.5" d="M0,-3.0v7 M-2.5,-0.5L0,-3.0L2.5,-0.5"/>
  </g>
  <g id="arrowDown" transform="rotate(180) translate(-30 -48)">
    <use xlink:href="#rim"/>
    <path pointer-events="none" fill="none" stroke="white" stroke-width="1.5" d="M0,-3.0v7 M-2.5,-0.5L0,-3.0L2.5,-0.5"/>
  </g>
  <g id="arrowLeft" transform="rotate(270) translate(-36 17)">
    <use xlink:href="#rim"/>
    <path pointer-events="none" fill="none" stroke="white" stroke-width="1.5" d="M0,-3.0v7 M-2.5,-0.5L0,-3.0L2.5,-0.5"/>
  </g>
  <g id="resetDef">
    <use xlink:href="#rim2" fill="#404040"><set attributeName="fill" to="#808080" begin="reset.mouseover" end="reset.mouseout"/></use>
  </g>
</defs>
<script type="application/ecmascript">
var viewWidth = 744;
var viewHeight = 386;
var sectionId = 'dynsection-5';
</script>
<script type="application/ecmascript" xlink:href="svg.min.js"/>
<svg id="graph" class="graph">
<g id="viewport">
<title>examples.employee.problem.optimize</title>
<!-- Node1 -->
<g id="Node000001" class="node">
<title>Node1</title>
<g id="a_Node000001"><a xlink:title=" ">
<polygon fill="#999999" stroke="#666666" points="180.25,-186 0,-186 0,-166 180.25,-166 180.25,-186"/>
<text text-anchor="middle" x="90.12" y="-172.5" font-family="Helvetica,sans-Serif" font-size="10.00">examples.employee.problem.optimize</text>
</a>
</g>
</g>
<!-- Node2 -->
<g id="Node000002" class="node">
<title>Node2</title>
<g id="a_Node000002"><a xlink:href="classanpcp_1_1_a_n_p_c_p.html#a36e56d4bbe8efd193c8f57419b2eeb87" target="_top" xlink:title=" ">
<polygon fill="white" stroke="#666666" points="367.62,-340 256.38,-340 256.38,-320 367.62,-320 367.62,-340"/>
<text text-anchor="middle" x="312" y="-326.5" font-family="Helvetica,sans-Serif" font-size="10.00">anpcp.ANPCP.fitness</text>
</a>
</g>
</g>
<!-- Node1&#45;&gt;Node2 -->
<g id="edge1_Node000001_Node000002" class="edge">
<title>Node1&#45;&gt;Node2</title>
<g id="a_edge1_Node000001_Node000002"><a xlink:title=" ">
<path fill="none" stroke="#63b8ff" d="M97.24,-186.13C113.24,-211.67 159.1,-278.98 216.25,-311 225.17,-316 235.22,-319.69 245.34,-322.42"/>
<polygon fill="#63b8ff" stroke="#63b8ff" points="244.31,-325.77 254.84,-324.67 245.92,-318.96 244.31,-325.77"/>
</a>
</g>
</g>
<!-- Node6 -->
<g id="Node000006" class="node">
<title>Node6</title>
<g id="a_Node000006"><a xlink:href="classanpcpc_1_1_a_n_p_c_p_c.html#a1a9e91f15724d47e3ca531214abb18db" target="_top" xlink:title=" ">
<polygon fill="white" stroke="#666666" points="374.75,-302 249.25,-302 249.25,-282 374.75,-282 374.75,-302"/>
<text text-anchor="middle" x="312" y="-288.5" font-family="Helvetica,sans-Serif" font-size="10.00">anpcpc.ANPCPC.fitness</text>
</a>
</g>
</g>
<!-- Node1&#45;&gt;Node6 -->
<g id="edge5_Node000001_Node000006" class="edge">
<title>Node1&#45;&gt;Node6</title>
<g id="a_edge5_Node000001_Node000006"><a xlink:title=" ">
<path fill="none" stroke="#63b8ff" d="M101.05,-186.41C120.9,-206.56 167.75,-250.84 216.25,-273 223.07,-276.12 230.39,-278.72 237.84,-280.9"/>
<polygon fill="#63b8ff" stroke="#63b8ff" points="236.76,-284.24 247.33,-283.42 238.56,-277.47 236.76,-284.24"/>
</a>
</g>
</g>
<!-- Node9 -->
<g id="Node000009" class="node">
<title>Node9</title>
<g id="a_Node000009"><a xlink:href="classexamples_1_1benchmark__gtop__pygmo_1_1pygmo__udp.html#a8b05705866c5de83931191324a4e1311" target="_top" xlink:title=" ">
<polygon fill="white" stroke="#666666" points="392,-264 232,-264 232,-232 392,-232 392,-264"/>
<text text-anchor="start" x="240" y="-250.5" font-family="Helvetica,sans-Serif" font-size="10.00">examples.benchmark</text>
<text text-anchor="middle" x="312" y="-238.5" font-family="Helvetica,sans-Serif" font-size="10.00">_gtop_pygmo.pygmo_udp.fitness</text>
</a>
</g>
</g>
<!-- Node1&#45;&gt;Node9 -->
<g id="edge8_Node000001_Node000009" class="edge">
<title>Node1&#45;&gt;Node9</title>
<g id="a_edge8_Node000001_Node000009"><a xlink:title=" ">
<path fill="none" stroke="#63b8ff" d="M116.74,-186.49C141.84,-196.57 181.32,-211.86 216.25,-223 222.02,-224.84 228.03,-226.65 234.08,-228.41"/>
<polygon fill="#63b8ff" stroke="#63b8ff" points="232.97,-231.73 243.54,-231.09 234.88,-225 232.97,-231.73"/>
</a>
</g>
</g>
<!-- Node10 -->
<g id="Node000010" class="node">
<title>Node10</title>
<g id="a_Node000010"><a xlink:href="classexamples_1_1elitescass2_1_1_cassini2__me.html#a44b48c8d4953332ba7cbc476dd162002" target="_top" xlink:title=" ">
<polygon fill="white" stroke="#666666" points="387.88,-214 236.12,-214 236.12,-182 387.88,-182 387.88,-214"/>
<text text-anchor="start" x="244.12" y="-200.5" font-family="Helvetica,sans-Serif" font-size="10.00">examples.elitescass2.Cassini2</text>
<text text-anchor="middle" x="312" y="-188.5" font-family="Helvetica,sans-Serif" font-size="10.00">_me.fitness</text>
</a>
</g>
</g>
<!-- Node1&#45;&gt;Node10 -->
<g id="edge9_Node000001_Node000010" class="edge">
<title>Node1&#45;&gt;Node10</title>
<g id="a_edge9_Node000001_Node000010"><a xlink:title=" ">
<path fill="none" stroke="#63b8ff" d="M180.56,-184.95C195,-186.39 209.94,-187.89 224.32,-189.33"/>
<polygon fill="#63b8ff" stroke="#63b8ff" points="223.91,-192.8 234.21,-190.32 224.61,-185.84 223.91,-192.8"/>
</a>
</g>
</g>
<!-- Node11 -->
<g id="Node000011" class="node">
<title>Node11</title>
<g id="a_Node000011"><a xlink:href="classexamples_1_1employee_1_1problem.html#a88fb1f528fee9cf2fe3979bda5bb43c5" target="_top" xlink:title=" ">
<polygon fill="white" stroke="#666666" points="398.38,-164 225.62,-164 225.62,-144 398.38,-144 398.38,-164"/>
<text text-anchor="middle" x="312" y="-150.5" font-family="Helvetica,sans-Serif" font-size="10.00">examples.employee.problem.fitness</text>
</a>
</g>
</g>
<!-- Node1&#45;&gt;Node11 -->
<g id="edge10_Node000001_Node000011" class="edge">
<title>Node1&#45;&gt;Node11</title>
<g id="a_edge10_Node000001_Node000011"><a xlink:title=" ">
<path fill="none" stroke="#63b8ff" d="M180.56,-167.05C191.5,-165.96 202.72,-164.83 213.77,-163.73"/>
<polygon fill="#63b8ff" stroke="#63b8ff" points="214.1,-167.21 223.7,-162.74 213.4,-160.25 214.1,-167.21"/>
</a>
</g>
</g>
<!-- Node13 -->
<g id="Node000013" class="node">
<title>Node13</title>
<g id="a_Node000013"><a xlink:href="classfcmaes_1_1optimizer_1_1single__objective.html#a0ee356aef80ee4ebd577c5f4654f2f30" target="_top" xlink:title="Calculates the fitness value for a given input vector X using the problem&#39;s fitness function.">
<polygon fill="white" stroke="#666666" points="371.75,-108 252.25,-108 252.25,-76 371.75,-76 371.75,-108"/>
<text text-anchor="start" x="260.25" y="-94.5" font-family="Helvetica,sans-Serif" font-size="10.00">fcmaes.optimizer.single</text>
<text text-anchor="middle" x="312" y="-82.5" font-family="Helvetica,sans-Serif" font-size="10.00">_objective.fitness</text>
</a>
</g>
</g>
<!-- Node1&#45;&gt;Node13 -->
<g id="edge12_Node000001_Node000013" class="edge">
<title>Node1&#45;&gt;Node13</title>
<g id="a_edge12_Node000001_Node000013"><a xlink:title=" ">
<path fill="none" stroke="#63b8ff" d="M118.53,-165.53C153.2,-152.29 213.68,-129.18 257.61,-112.4"/>
<polygon fill="#63b8ff" stroke="#63b8ff" points="258.6,-115.76 266.7,-108.93 256.11,-109.22 258.6,-115.76"/>
</a>
</g>
</g>
<!-- Node14 -->
<g id="Node000014" class="node">
<title>Node14</title>
<g id="a_Node000014"><a xlink:href="classexamples_1_1employee_1_1problem.html#a7e757b49faf9cee5a35c9ca99b3e28c3" target="_top" xlink:title=" ">
<polygon fill="white" stroke="#666666" points="407.75,-58 216.25,-58 216.25,-38 407.75,-38 407.75,-58"/>
<text text-anchor="middle" x="312" y="-44.5" font-family="Helvetica,sans-Serif" font-size="10.00">examples.employee.problem.fitness_mo</text>
</a>
</g>
</g>
<!-- Node1&#45;&gt;Node14 -->
<g id="edge14_Node000001_Node000014" class="edge">
<title>Node1&#45;&gt;Node14</title>
<g id="a_edge14_Node000001_Node000014"><a xlink:title=" ">
<path fill="none" stroke="#63b8ff" d="M99.6,-165.63C118.21,-143.62 165.07,-92.18 216.25,-67 220.01,-65.15 223.94,-63.48 227.96,-61.97"/>
<polygon fill="#63b8ff" stroke="#63b8ff" points="228.99,-65.32 237.37,-58.83 226.78,-58.68 228.99,-65.32"/>
</a>
</g>
</g>
<!-- Node15 -->
<g id="Node000015" class="node">
<title>Node15</title>
<g id="a_Node000015"><a xlink:href="classexamples_1_1employee_1_1problem.html#a7a2e3aedb09ebf076fb59d8505c76fe9" target="_top" xlink:title=" ">
<polygon fill="white" stroke="#666666" points="395.38,-20 228.62,-20 228.62,0 395.38,0 395.38,-20"/>
<text text-anchor="middle" x="312" y="-6.5" font-family="Helvetica,sans-Serif" font-size="10.00">examples.employee.problem.show</text>
</a>
</g>
</g>
<!-- Node1&#45;&gt;Node15 -->
<g id="edge16_Node000001_Node000015" class="edge">
<title>Node1&#45;&gt;Node15</title>
<g id="a_edge16_Node000001_Node000015"><a xlink:title=" ">
<path fill="none" stroke="#63b8ff" d="M96.55,-165.77C111.55,-138.58 156.45,-64.18 216.25,-29 218.87,-27.46 221.6,-26.04 224.4,-24.73"/>
<polygon fill="#63b8ff" stroke="#63b8ff" points="225.48,-28.07 233.42,-21.06 222.84,-21.59 225.48,-28.07"/>
</a>
</g>
</g>
<!-- Node3 -->
<g id="Node000003" class="node">
<title>Node3</title>
<g id="a_Node000003"><a xlink:href="namespaceanpcp.html#af7f3f87b0283565d269d0f86ddcc0a55" target="_top" xlink:title=" ">
<polygon fill="white" stroke="#666666" points="553.88,-378 474.12,-378 474.12,-358 553.88,-358 553.88,-378"/>
<text text-anchor="middle" x="514" y="-364.5" font-family="Helvetica,sans-Serif" font-size="10.00">anpcp.fitness_</text>
</a>
</g>
</g>
<!-- Node2&#45;&gt;Node3 -->
<g id="edge2_Node000002_Node000003" class="edge">
<title>Node2&#45;&gt;Node3</title>
<g id="a_edge2_Node000002_Node000003"><a xlink:title=" ">
<path fill="none" stroke="#63b8ff" d="M367.92,-340.43C397.52,-346.06 433.79,-352.95 462.67,-358.44"/>
<polygon fill="#63b8ff" stroke="#63b8ff" points="461.77,-361.83 472.25,-360.26 463.08,-354.95 461.77,-361.83"/>
</a>
</g>
</g>
<!-- Node4 -->
<g id="Node000004" class="node">
<title>Node4</title>
<g id="a_Node000004"><a xlink:href="namespaceanpcp.html#ad1c73ca9e8ad8f9a6b51cf5738b5ddf9" target="_top" xlink:title=" ">
<polygon fill="white" stroke="#666666" points="558.75,-340 469.25,-340 469.25,-320 558.75,-320 558.75,-340"/>
<text text-anchor="middle" x="514" y="-326.5" font-family="Helvetica,sans-Serif" font-size="10.00">anpcp.selection_</text>
</a>
</g>
</g>
<!-- Node2&#45;&gt;Node4 -->
<g id="edge3_Node000002_Node000004" class="edge">
<title>Node2&#45;&gt;Node4</title>
<g id="a_edge3_Node000002_Node000004"><a xlink:title=" ">
<path fill="none" stroke="#63b8ff" d="M367.92,-330C395.87,-330 429.76,-330 457.76,-330"/>
<polygon fill="#63b8ff" stroke="#63b8ff" points="457.45,-333.5 467.45,-330 457.45,-326.5 457.45,-333.5"/>
</a>
</g>
</g>
<!-- Node5 -->
<g id="Node000005" class="node">
<title>Node5</title>
<g id="a_Node000005"><a xlink:href="namespaceanpcp.html#a1633c5905b3d9dfa0816c7193e554322" target="_top" xlink:title=" ">
<polygon fill="white" stroke="#666666" points="723.62,-340 632.62,-340 632.62,-320 723.62,-320 723.62,-340"/>
<text text-anchor="middle" x="678.12" y="-326.5" font-family="Helvetica,sans-Serif" font-size="10.00">anpcp.next_free_</text>
</a>
</g>
</g>
<!-- Node4&#45;&gt;Node5 -->
<g id="edge4_Node000004_Node000005" class="edge">
<title>Node4&#45;&gt;Node5</title>
<g id="a_edge4_Node000004_Node000005"><a xlink:title=" ">
<path fill="none" stroke="#63b8ff" d="M558.87,-330C578.01,-330 600.68,-330 621.03,-330"/>
<polygon fill="#63b8ff" stroke="#63b8ff" points="620.86,-333.5 630.86,-330 620.86,-326.5 620.86,-333.5"/>
</a>
</g>
</g>
<!-- Node7 -->
<g id="Node000007" class="node">
<title>Node7</title>
<g id="a_Node000007"><a xlink:href="namespaceanpcpc.html#a6f7639f06e2fed3d414229306a974296" target="_top" xlink:title=" ">
<polygon fill="white" stroke="#666666" points="556.5,-302 471.5,-302 471.5,-282 556.5,-282 556.5,-302"/>
<text text-anchor="middle" x="514" y="-288.5" font-family="Helvetica,sans-Serif" font-size="10.00">anpcpc.fitness_</text>
</a>
</g>
</g>
<!-- Node6&#45;&gt;Node7 -->
<g id="edge6_Node000006_Node000007" class="edge">
<title>Node6&#45;&gt;Node7</title>
<g id="a_edge6_Node000006_Node000007"><a xlink:title=" ">
<path fill="none" stroke="#63b8ff" d="M375.18,-292C402.35,-292 433.89,-292 459.93,-292"/>
<polygon fill="#63b8ff" stroke="#63b8ff" points="459.59,-295.5 469.59,-292 459.59,-288.5 459.59,-295.5"/>
</a>
</g>
</g>
<!-- Node8 -->
<g id="Node000008" class="node">
<title>Node8</title>
<g id="a_Node000008"><a xlink:href="namespaceanpcpc.html#a6d061093fd5f80bcbd737e82b3245a72" target="_top" xlink:title=" ">
<polygon fill="white" stroke="#666666" points="736,-302 620.25,-302 620.25,-282 736,-282 736,-302"/>
<text text-anchor="middle" x="678.12" y="-288.5" font-family="Helvetica,sans-Serif" font-size="10.00">anpcpc.calc_distance_</text>
</a>
</g>
</g>
<!-- Node7&#45;&gt;Node8 -->
<g id="edge7_Node000007_Node000008" class="edge">
<title>Node7&#45;&gt;Node8</title>
<g id="a_edge7_Node000007_Node000008"><a xlink:title=" ">
<path fill="none" stroke="#63b8ff" d="M556.75,-292C572.53,-292 590.93,-292 608.52,-292"/>
<polygon fill="#63b8ff" stroke="#63b8ff" points="608.42,-295.5 618.42,-292 608.42,-288.5 608.42,-295.5"/>
</a>
</g>
</g>
<!-- Node12 -->
<g id="Node000012" class="node">
<title>Node12</title>
<g id="a_Node000012"><a xlink:href="namespaceexamples_1_1employee.html#aa8d6cedc8d0c67de9584d0c0118ad058" target="_top" xlink:title=" ">
<polygon fill="white" stroke="#666666" points="584.25,-111 443.75,-111 443.75,-91 584.25,-91 584.25,-111"/>
<text text-anchor="middle" x="514" y="-97.5" font-family="Helvetica,sans-Serif" font-size="10.00">examples.employee.fitness_</text>
</a>
</g>
</g>
<!-- Node11&#45;&gt;Node12 -->
<g id="edge11_Node000011_Node000012" class="edge">
<title>Node11&#45;&gt;Node12</title>
<g id="a_edge11_Node000011_Node000012"><a xlink:title=" ">
<path fill="none" stroke="#63b8ff" d="M370.61,-143.54C382.93,-141 395.82,-138.11 407.75,-135 429.6,-129.3 453.58,-121.66 473.12,-115.07"/>
<polygon fill="#63b8ff" stroke="#63b8ff" points="474.01,-118.47 482.34,-111.93 471.75,-111.84 474.01,-118.47"/>
</a>
</g>
</g>
<!-- Node13&#45;&gt;Node13 -->
<g id="edge13_Node000013_Node000013" class="edge">
<title>Node13&#45;&gt;Node13</title>
<g id="a_edge13_Node000013_Node000013"><a xlink:title=" ">
<path fill="none" stroke="#63b8ff" d="M275.94,-108.44C269.21,-117.58 281.23,-126 312,-126 329.31,-126 340.69,-123.34 346.13,-119.38"/>
<polygon fill="#63b8ff" stroke="#63b8ff" points="349.51,-120.39 347.8,-109.93 342.61,-119.17 349.51,-120.39"/>
</a>
</g>
</g>
<!-- Node14&#45;&gt;Node12 -->
<g id="edge15_Node000014_Node000012" class="edge">
<title>Node14&#45;&gt;Node12</title>
<g id="a_edge15_Node000014_Node000012"><a xlink:title=" ">
<path fill="none" stroke="#63b8ff" d="M370.61,-58.46C382.93,-61 395.82,-63.89 407.75,-67 429.6,-72.7 453.58,-80.34 473.12,-86.93"/>
<polygon fill="#63b8ff" stroke="#63b8ff" points="471.75,-90.16 482.34,-90.07 474.01,-83.53 471.75,-90.16"/>
</a>
</g>
</g>
</g>
</svg>

<g id="navigator" transform="translate(0 0)" fill="#404254">
  <rect fill="#f2f5e9" fill-opacity="0.5" stroke="#606060" stroke-width=".5" x="0" y="0" width="60" height="60"/>
  <use id="zoomplus" xlink:href="#zoomPlus" x="17" y="9" onmousedown="handleZoom(evt,'in')"/>
  <use id="zoomminus" xlink:href="#zoomMin" x="42" y="9" onmousedown="handleZoom(evt,'out')"/>
  <use id="reset" xlink:href="#resetDef" x="30" y="36" onmousedown="handleReset()"/>
   <use id="arrowup" xlink:href="#arrowUp" x="0" y="0" onmousedown="handlePan(0,-1)"/>
  <use id="arrowright" xlink:href="#arrowRight" x="0" y="0" onmousedown="handlePan(1,0)"/>
  <use id="arrowdown" xlink:href="#arrowDown" x="0" y="0" onmousedown="handlePan(0,1)"/>
  <use id="arrowleft" xlink:href="#arrowLeft" x="0" y="0" onmousedown="handlePan(-1,0)"/>
</g>
<svg viewBox="0 0 15 15" width="100%" height="30px" preserveAspectRatio="xMaxYMin meet">
 <g id="arrow_out" transform="scale(0.3 0.3)">
  <a xlink:href="classexamples_1_1employee_1_1problem_a96c79aee6dab29a25fd28b0b383f1916_cgraph_org.svg" target="_base">
   <rect id="button" ry="5" rx="5" y="6" x="6" height="38" width="38"
        fill="#f2f5e9" fill-opacity="0.5" stroke="#606060" stroke-width="1.0"/>
   <path id="arrow"
     d="M 11.500037,31.436501 C 11.940474,20.09759 22.043105,11.32322 32.158766,21.979434 L 37.068811,17.246167 C 37.068811,17.246167 37.088388,32 37.088388,32 L 22.160133,31.978069 C 22.160133,31.978069 26.997745,27.140456 26.997745,27.140456 C 18.528582,18.264221 13.291696,25.230495 11.500037,31.436501 z"
     style="fill:#404040;"/>
  </a>
 </g>
</svg>

<style type='text/css'>
<![CDATA[
[data-mouse-over-selected='false'] { opacity: 0.7; }
[data-mouse-over-selected='true']  { opacity: 1.0; }
]]>
</style>
<script type="application/ecmascript"><![CDATA[
document.addEventListener('DOMContentLoaded', (event) => {
  highlightEdges();
  highlightAdjacentNodes();
});
]]></script>
</svg>
