<?xml version="1.0" encoding="UTF-8" standalone="no"?>
<!DOCTYPE svg PUBLIC "-//W3C//DTD SVG 1.1//EN"
 "http://www.w3.org/Graphics/SVG/1.1/DTD/svg11.dtd">
<!-- Generated by graphviz version 12.2.1 (20241206.2353)
 -->
<!-- Title: mode_optimizer::MoDeOptimizer::modify Pages: 1 -->
<svg width="580pt" height="40pt"
 viewBox="0.00 0.00 579.50 40.00" xmlns="http://www.w3.org/2000/svg" xmlns:xlink="http://www.w3.org/1999/xlink">
<g id="graph0" class="graph" transform="scale(1 1) rotate(0) translate(4 36)">
<title>mode_optimizer::MoDeOptimizer::modify</title>
<!-- Node1 -->
<g id="Node000001" class="node">
<title>Node1</title>
<g id="a_Node000001"><a xlink:title=" ">
<polygon fill="#999999" stroke="#666666" points="571.5,-32 412.25,-32 412.25,0 571.5,0 571.5,-32"/>
<text text-anchor="start" x="420.25" y="-18.5" font-family="Helvetica,sans-Serif" font-size="10.00">mode_optimizer::MoDeOptimizer</text>
<text text-anchor="middle" x="491.88" y="-6.5" font-family="Helvetica,sans-Serif" font-size="10.00">::modify</text>
</a>
</g>
</g>
<!-- Node2 -->
<g id="Node000002" class="node">
<title>Node2</title>
<g id="a_Node000002"><a xlink:href="classmode__optimizer_1_1_mo_de_optimizer.html#ae0edab6fb47d84a669d402f893ff4b6f" target="_top" xlink:title=" ">
<polygon fill="white" stroke="#666666" points="376.25,-32 217,-32 217,0 376.25,0 376.25,-32"/>
<text text-anchor="start" x="225" y="-18.5" font-family="Helvetica,sans-Serif" font-size="10.00">mode_optimizer::MoDeOptimizer</text>
<text text-anchor="middle" x="296.62" y="-6.5" font-family="Helvetica,sans-Serif" font-size="10.00">::nextX</text>
</a>
</g>
</g>
<!-- Node1&#45;&gt;Node2 -->
<g id="edge1_Node000001_Node000002" class="edge">
<title>Node1&#45;&gt;Node2</title>
<g id="a_edge1_Node000001_Node000002"><a xlink:title=" ">
<path fill="none" stroke="#63b8ff" d="M400.67,-16C392.62,-16 384.51,-16 376.57,-16"/>
<polygon fill="#63b8ff" stroke="#63b8ff" points="400.48,-19.5 410.48,-16 400.48,-12.5 400.48,-19.5"/>
</a>
</g>
</g>
<!-- Node3 -->
<g id="Node000003" class="node">
<title>Node3</title>
<g id="a_Node000003"><a xlink:href="classmode__optimizer_1_1_mo_de_optimizer.html#a5abdc69324e8a71cfdebde3f5692e2ca" target="_top" xlink:title=" ">
<polygon fill="white" stroke="#666666" points="181,-26 0,-26 0,-6 181,-6 181,-26"/>
<text text-anchor="middle" x="90.5" y="-12.5" font-family="Helvetica,sans-Serif" font-size="10.00">mode_optimizer::MoDeOptimizer::ask</text>
</a>
</g>
</g>
<!-- Node2&#45;&gt;Node3 -->
<g id="edge2_Node000002_Node000003" class="edge">
<title>Node2&#45;&gt;Node3</title>
<g id="a_edge2_Node000002_Node000003"><a xlink:title=" ">
<path fill="none" stroke="#63b8ff" d="M205.22,-16C197.32,-16 189.32,-16 181.42,-16"/>
<polygon fill="#63b8ff" stroke="#63b8ff" points="205.19,-19.5 215.19,-16 205.19,-12.5 205.19,-19.5"/>
</a>
</g>
</g>
</g>
</svg>
