<?xml version="1.0" encoding="UTF-8" standalone="no"?>
<!DOCTYPE svg PUBLIC "-//W3C//DTD SVG 1.1//EN"
 "http://www.w3.org/Graphics/SVG/1.1/DTD/svg11.dtd">
<!-- Generated by graphviz version 12.2.1 (20241206.2353)
 -->
<!-- Title: fcmaes.de.DE.tell Pages: 1 -->
<svg width="308pt" height="266pt"
 viewBox="0.00 0.00 307.75 266.00" xmlns="http://www.w3.org/2000/svg" xmlns:xlink="http://www.w3.org/1999/xlink">
<g id="graph0" class="graph" transform="scale(1 1) rotate(0) translate(4 262)">
<title>fcmaes.de.DE.tell</title>
<!-- Node1 -->
<g id="Node000001" class="node">
<title>Node1</title>
<g id="a_Node000001"><a xlink:title="Tells the algorithm about the function evaluations (objective values) for the proposed solutions and ...">
<polygon fill="#999999" stroke="#666666" points="299.75,-148 205,-148 205,-128 299.75,-128 299.75,-148"/>
<text text-anchor="middle" x="252.38" y="-134.5" font-family="Helvetica,sans-Serif" font-size="10.00">fcmaes.de.DE.tell</text>
</a>
</g>
</g>
<!-- Node2 -->
<g id="Node000002" class="node">
<title>Node2</title>
<g id="a_Node000002"><a xlink:href="classfcmaes_1_1mode_1_1_m_o_d_e.html#a6f479d982825465b97c89e528351bf36" target="_top" xlink:title="Minimizes the given multi&#45;objective function in parallel, using a specified number of workers and an ...">
<polygon fill="white" stroke="#666666" points="169,-258 0,-258 0,-238 169,-238 169,-258"/>
<text text-anchor="middle" x="84.5" y="-244.5" font-family="Helvetica,sans-Serif" font-size="10.00">fcmaes.mode.MODE.minimize_par</text>
</a>
</g>
</g>
<!-- Node1&#45;&gt;Node2 -->
<g id="edge1_Node000001_Node000002" class="edge">
<title>Node1&#45;&gt;Node2</title>
<g id="a_edge1_Node000001_Node000002"><a xlink:title=" ">
<path fill="none" stroke="#63b8ff" d="M238.86,-157.88C224.56,-178.87 199.21,-211.32 169,-229 163.1,-232.45 156.62,-235.28 149.96,-237.59"/>
<polygon fill="#63b8ff" stroke="#63b8ff" points="241.72,-159.89 244.29,-149.61 235.88,-156.04 241.72,-159.89"/>
</a>
</g>
</g>
<!-- Node3 -->
<g id="Node000003" class="node">
<title>Node3</title>
<g id="a_Node000003"><a xlink:href="classfcmaes_1_1modecpp_1_1_m_o_d_e___c.html#a672b403a7e745d9e69532454f32d2b62" target="_top" xlink:title="Run a parallel multi&#45;objective optimization process.">
<polygon fill="white" stroke="#666666" points="146.5,-220 22.5,-220 22.5,-188 146.5,-188 146.5,-220"/>
<text text-anchor="start" x="30.5" y="-206.5" font-family="Helvetica,sans-Serif" font-size="10.00">fcmaes.modecpp.MODE</text>
<text text-anchor="middle" x="84.5" y="-194.5" font-family="Helvetica,sans-Serif" font-size="10.00">_C.minimize_par</text>
</a>
</g>
</g>
<!-- Node1&#45;&gt;Node3 -->
<g id="edge2_Node000001_Node000003" class="edge">
<title>Node1&#45;&gt;Node3</title>
<g id="a_edge2_Node000001_Node000003"><a xlink:title=" ">
<path fill="none" stroke="#63b8ff" d="M222.76,-153.75C207.16,-161.95 187.35,-171.75 169,-179 161.26,-182.06 152.99,-184.96 144.78,-187.62"/>
<polygon fill="#63b8ff" stroke="#63b8ff" points="224.31,-156.89 231.48,-149.1 221.01,-150.72 224.31,-156.89"/>
</a>
</g>
</g>
<!-- Node4 -->
<g id="Node000004" class="node">
<title>Node4</title>
<g id="a_Node000004"><a xlink:href="classfcmaes_1_1mode_1_1_m_o_d_e.html#a3b3a358c6fded3c638706495c88eff1a" target="_top" xlink:title="Minimizes a given function using a custom optimization approach until the maximum number of evaluatio...">
<polygon fill="white" stroke="#666666" points="169,-170 0,-170 0,-150 169,-150 169,-170"/>
<text text-anchor="middle" x="84.5" y="-156.5" font-family="Helvetica,sans-Serif" font-size="10.00">fcmaes.mode.MODE.minimize_ser</text>
</a>
</g>
</g>
<!-- Node1&#45;&gt;Node4 -->
<g id="edge3_Node000001_Node000004" class="edge">
<title>Node1&#45;&gt;Node4</title>
<g id="a_edge3_Node000001_Node000004"><a xlink:title=" ">
<path fill="none" stroke="#63b8ff" d="M193.53,-145.67C184.13,-146.92 174.26,-148.23 164.45,-149.53"/>
<polygon fill="#63b8ff" stroke="#63b8ff" points="193.77,-149.17 203.23,-144.39 192.85,-142.23 193.77,-149.17"/>
</a>
</g>
</g>
<!-- Node5 -->
<g id="Node000005" class="node">
<title>Node5</title>
<g id="a_Node000005"><a xlink:href="classfcmaes_1_1modecpp_1_1_m_o_d_e___c.html#aa4a7a3e4f9a3fc84dc37faf820025306" target="_top" xlink:title="Minimizes the given scalar function using a serial optimization method.">
<polygon fill="white" stroke="#666666" points="146.5,-132 22.5,-132 22.5,-100 146.5,-100 146.5,-132"/>
<text text-anchor="start" x="30.5" y="-118.5" font-family="Helvetica,sans-Serif" font-size="10.00">fcmaes.modecpp.MODE</text>
<text text-anchor="middle" x="84.5" y="-106.5" font-family="Helvetica,sans-Serif" font-size="10.00">_C.minimize_ser</text>
</a>
</g>
</g>
<!-- Node1&#45;&gt;Node5 -->
<g id="edge4_Node000001_Node000005" class="edge">
<title>Node1&#45;&gt;Node5</title>
<g id="a_edge4_Node000001_Node000005"><a xlink:title=" ">
<path fill="none" stroke="#63b8ff" d="M193.5,-130.32C178.45,-128.33 162.19,-126.17 146.97,-124.15"/>
<polygon fill="#63b8ff" stroke="#63b8ff" points="192.85,-133.77 203.23,-131.61 193.77,-126.83 192.85,-133.77"/>
</a>
</g>
</g>
<!-- Node6 -->
<g id="Node000006" class="node">
<title>Node6</title>
<g id="a_Node000006"><a xlink:href="classfcmaes_1_1mode_1_1_m_o_d_e.html#af1ac6ae50db24a626f6649175bfecf96" target="_top" xlink:title="Sets the initial guess values for an optimization or search algorithm.">
<polygon fill="white" stroke="#666666" points="146.88,-82 22.13,-82 22.13,-50 146.88,-50 146.88,-82"/>
<text text-anchor="start" x="30.12" y="-68.5" font-family="Helvetica,sans-Serif" font-size="10.00">fcmaes.mode.MODE.set</text>
<text text-anchor="middle" x="84.5" y="-56.5" font-family="Helvetica,sans-Serif" font-size="10.00">_guess</text>
</a>
</g>
</g>
<!-- Node1&#45;&gt;Node6 -->
<g id="edge5_Node000001_Node000006" class="edge">
<title>Node1&#45;&gt;Node6</title>
<g id="a_edge5_Node000001_Node000006"><a xlink:title=" ">
<path fill="none" stroke="#63b8ff" d="M225.91,-121.46C210.01,-111.65 188.86,-99.51 169,-91 161.77,-87.9 154.03,-85.03 146.28,-82.42"/>
<polygon fill="#63b8ff" stroke="#63b8ff" points="223.92,-124.34 234.25,-126.7 227.64,-118.41 223.92,-124.34"/>
</a>
</g>
</g>
<!-- Node7 -->
<g id="Node000007" class="node">
<title>Node7</title>
<g id="a_Node000007"><a xlink:href="classfcmaes_1_1modecpp_1_1_m_o_d_e___c.html#a3267cafa8c068a367179034c3f5a562d" target="_top" xlink:title="Set the initial guess values for optimization along with corresponding function evaluations.">
<polygon fill="white" stroke="#666666" points="146.5,-32 22.5,-32 22.5,0 146.5,0 146.5,-32"/>
<text text-anchor="start" x="30.5" y="-18.5" font-family="Helvetica,sans-Serif" font-size="10.00">fcmaes.modecpp.MODE</text>
<text text-anchor="middle" x="84.5" y="-6.5" font-family="Helvetica,sans-Serif" font-size="10.00">_C.set_guess</text>
</a>
</g>
</g>
<!-- Node1&#45;&gt;Node7 -->
<g id="edge6_Node000001_Node000007" class="edge">
<title>Node1&#45;&gt;Node7</title>
<g id="a_edge6_Node000001_Node000007"><a xlink:title=" ">
<path fill="none" stroke="#63b8ff" d="M239.34,-117.85C225.18,-95.83 199.67,-61.05 169,-41 162.16,-36.53 154.49,-32.83 146.64,-29.78"/>
<polygon fill="#63b8ff" stroke="#63b8ff" points="236.29,-119.58 244.55,-126.22 242.24,-115.88 236.29,-119.58"/>
</a>
</g>
</g>
</g>
</svg>
