<?xml version="1.0" encoding="UTF-8" standalone="no"?>
<!DOCTYPE svg PUBLIC "-//W3C//DTD SVG 1.1//EN"
 "http://www.w3.org/Graphics/SVG/1.1/DTD/svg11.dtd">
<!-- Generated by graphviz version 12.2.1 (20241206.2353)
 -->
<!-- Title: examples.subset.transaction_value Pages: 1 -->
<svg width="141pt" height="116pt"
 viewBox="0.00 0.00 141.25 116.00" xmlns="http://www.w3.org/2000/svg" xmlns:xlink="http://www.w3.org/1999/xlink">
<g id="graph0" class="graph" transform="scale(1 1) rotate(0) translate(4 112)">
<title>examples.subset.transaction_value</title>
<!-- Node1 -->
<g id="Node000001" class="node">
<title>Node1</title>
<g id="a_Node000001"><a xlink:title=" ">
<polygon fill="#999999" stroke="none" points="133.25,-108 0,-108 0,0 133.25,0 133.25,-108"/>
<text text-anchor="start" x="4" y="-94.5" font-family="Helvetica,sans-Serif" font-size="10.00">examples.subset.transaction</text>
<text text-anchor="start" x="52.38" y="-82.5" font-family="Helvetica,sans-Serif" font-size="10.00">_value</text>
<text text-anchor="start" x="4.12" y="-66.5" font-family="Helvetica,sans-Serif" font-size="10.00">+</text>
<text text-anchor="start" x="14.25" y="-66.5" font-family="Helvetica,sans-Serif" font-size="10.00">transactions</text>
<text text-anchor="start" x="4.12" y="-50.5" font-family="Helvetica,sans-Serif" font-size="10.00">+</text>
<text text-anchor="start" x="14.25" y="-50.5" font-family="Helvetica,sans-Serif" font-size="10.00">sum_payments</text>
<text text-anchor="start" x="4.12" y="-34.5" font-family="Helvetica,sans-Serif" font-size="10.00">+</text>
<text text-anchor="start" x="14.25" y="-34.5" font-family="Helvetica,sans-Serif" font-size="10.00">__init__(self, transactions,</text>
<text text-anchor="start" x="14.25" y="-22.5" font-family="Helvetica,sans-Serif" font-size="10.00"> payments)</text>
<text text-anchor="start" x="4.12" y="-6.5" font-family="Helvetica,sans-Serif" font-size="10.00">+</text>
<text text-anchor="start" x="14.25" y="-6.5" font-family="Helvetica,sans-Serif" font-size="10.00">__call__(self, selection)</text>
<polygon fill="#666666" stroke="#666666" points="0,-78 0,-78 133.25,-78 133.25,-78 0,-78"/>
<polygon fill="#666666" stroke="#666666" points="0,-46 0,-46 12.25,-46 12.25,-46 0,-46"/>
<polygon fill="#666666" stroke="#666666" points="12.25,-46 12.25,-46 133.25,-46 133.25,-46 12.25,-46"/>
<polygon fill="none" stroke="#666666" points="0,0 0,-108 133.25,-108 133.25,0 0,0"/>
</a>
</g>
</g>
</g>
</svg>
