<?xml version="1.0" encoding="UTF-8" standalone="no"?>
<!DOCTYPE svg PUBLIC "-//W3C//DTD SVG 1.1//EN"
 "http://www.w3.org/Graphics/SVG/1.1/DTD/svg11.dtd">
<!-- Generated by graphviz version 12.2.1 (20241206.2353)
 -->
<!-- Title: fcmaes.advretry.Store.save Pages: 1 -->
<!--zoomable 166 -->

<svg id="main" version="1.1" xmlns="http://www.w3.org/2000/svg" xmlns:xlink="http://www.w3.org/1999/xlink" xml:space="preserve" onload="init(evt)">

<style type="text/css"><![CDATA[
.node, .edge {opacity: 0.7;}
.node.selected, .edge.selected {opacity: 1;}
.edge:hover path { stroke: red; }
.edge:hover polygon { stroke: red; fill: red; }
]]></style>

<defs>
  <circle id="rim" cx="0" cy="0" r="7"/>
  <circle id="rim2" cx="0" cy="0" r="3.5"/>
  <g id="zoomPlus">
    <use xlink:href="#rim" fill="#404040"><set attributeName="fill" to="#808080" begin="zoomplus.mouseover" end="zoomplus.mouseout"/></use>
    <path d="M-4,0h8M0,-4v8" fill="none" stroke="white" stroke-width="1.5" pointer-events="none"/>
  </g>
  <g id="zoomMin">
    <use xlink:href="#rim" fill="#404040"><set attributeName="fill" to="#808080" begin="zoomminus.mouseover" end="zoomminus.mouseout"/></use>
    <path d="M-4,0h8" fill="none" stroke="white" stroke-width="1.5" pointer-events="none"/>
  </g>
  <g id="arrowUp" transform="translate(30 24)">
    <use xlink:href="#rim"/>
    <path pointer-events="none" fill="none" stroke="white" stroke-width="1.5" d="M0,-3.0v7 M-2.5,-0.5L0,-3.0L2.5,-0.5"/>
  </g>
  <g id="arrowRight" transform="rotate(90) translate(36 -43)">
    <use xlink:href="#rim"/>
    <path pointer-events="none" fill="none" stroke="white" stroke-width="1.5" d="M0,-3.0v7 M-2.5,-0.5L0,-3.0L2.5,-0.5"/>
  </g>
  <g id="arrowDown" transform="rotate(180) translate(-30 -48)">
    <use xlink:href="#rim"/>
    <path pointer-events="none" fill="none" stroke="white" stroke-width="1.5" d="M0,-3.0v7 M-2.5,-0.5L0,-3.0L2.5,-0.5"/>
  </g>
  <g id="arrowLeft" transform="rotate(270) translate(-36 17)">
    <use xlink:href="#rim"/>
    <path pointer-events="none" fill="none" stroke="white" stroke-width="1.5" d="M0,-3.0v7 M-2.5,-0.5L0,-3.0L2.5,-0.5"/>
  </g>
  <g id="resetDef">
    <use xlink:href="#rim2" fill="#404040"><set attributeName="fill" to="#808080" begin="reset.mouseover" end="reset.mouseout"/></use>
  </g>
</defs>
<script type="application/ecmascript">
var viewWidth = 688;
var viewHeight = 166;
var sectionId = 'dynsection-22';
</script>
<script type="application/ecmascript" xlink:href="svg.min.js"/>
<svg id="graph" class="graph">
<g id="viewport">
<title>fcmaes.advretry.Store.save</title>
<!-- Node1 -->
<g id="Node000001" class="node">
<title>Node1</title>
<g id="a_Node000001"><a xlink:title="Saves the current data of the instance to a compressed file using bz2 and cPickle modules.">
<polygon fill="#999999" stroke="#666666" points="136,-86 0,-86 0,-66 136,-66 136,-86"/>
<text text-anchor="middle" x="68" y="-72.5" font-family="Helvetica,sans-Serif" font-size="10.00">fcmaes.advretry.Store.save</text>
</a>
</g>
</g>
<!-- Node2 -->
<g id="Node000002" class="node">
<title>Node2</title>
<g id="a_Node000002"><a xlink:href="classfcmaes_1_1advretry_1_1_store.html#aabe26248085adae1ad80a9b17202e5b7" target="_top" xlink:title="Retrieves and aggregates data from various attributes and methods.">
<polygon fill="white" stroke="#666666" points="324.5,-86 172,-86 172,-66 324.5,-66 324.5,-86"/>
<text text-anchor="middle" x="248.25" y="-72.5" font-family="Helvetica,sans-Serif" font-size="10.00">fcmaes.advretry.Store.get_data</text>
</a>
</g>
</g>
<!-- Node1&#45;&gt;Node2 -->
<g id="edge1_Node000001_Node000002" class="edge">
<title>Node1&#45;&gt;Node2</title>
<g id="a_edge1_Node000001_Node000002"><a xlink:title=" ">
<path fill="none" stroke="#63b8ff" d="M136.39,-76C144.23,-76 152.31,-76 160.36,-76"/>
<polygon fill="#63b8ff" stroke="#63b8ff" points="160.19,-79.5 170.19,-76 160.19,-72.5 160.19,-79.5"/>
</a>
</g>
</g>
<!-- Node3 -->
<g id="Node000003" class="node">
<title>Node3</title>
<g id="a_Node000003"><a xlink:href="classfcmaes_1_1advretry_1_1_store.html#a95e2b65e516214df91625c67e4ebe558" target="_top" xlink:title="Returns a copy of the best solutions stored in the internal state.">
<polygon fill="white" stroke="#666666" points="496.88,-158 368.38,-158 368.38,-126 496.88,-126 496.88,-158"/>
<text text-anchor="start" x="376.38" y="-144.5" font-family="Helvetica,sans-Serif" font-size="10.00">fcmaes.advretry.Store.get</text>
<text text-anchor="middle" x="432.62" y="-132.5" font-family="Helvetica,sans-Serif" font-size="10.00">_x_best</text>
</a>
</g>
</g>
<!-- Node2&#45;&gt;Node3 -->
<g id="edge2_Node000002_Node000003" class="edge">
<title>Node2&#45;&gt;Node3</title>
<g id="a_edge2_Node000002_Node000003"><a xlink:title=" ">
<path fill="none" stroke="#63b8ff" d="M277.1,-86.39C299.57,-94.75 332.03,-106.75 360.5,-117 364.86,-118.57 369.38,-120.19 373.93,-121.8"/>
<polygon fill="#63b8ff" stroke="#63b8ff" points="372.51,-125.01 383.1,-125.05 374.85,-118.42 372.51,-125.01"/>
</a>
</g>
</g>
<!-- Node4 -->
<g id="Node000004" class="node">
<title>Node4</title>
<g id="a_Node000004"><a xlink:href="classfcmaes_1_1advretry_1_1_store.html#a2df2e37a5663c3e12c22c4b97f2549a2" target="_top" xlink:title="Builds and returns an array of x values stored in the object.">
<polygon fill="white" stroke="#666666" points="504.75,-108 360.5,-108 360.5,-88 504.75,-88 504.75,-108"/>
<text text-anchor="middle" x="432.62" y="-94.5" font-family="Helvetica,sans-Serif" font-size="10.00">fcmaes.advretry.Store.get_xs</text>
</a>
</g>
</g>
<!-- Node2&#45;&gt;Node4 -->
<g id="edge3_Node000002_Node000004" class="edge">
<title>Node2&#45;&gt;Node4</title>
<g id="a_edge3_Node000002_Node000004"><a xlink:title=" ">
<path fill="none" stroke="#63b8ff" d="M324.75,-85.11C332.74,-86.07 340.9,-87.06 348.96,-88.03"/>
<polygon fill="#63b8ff" stroke="#63b8ff" points="348.44,-91.49 358.78,-89.21 349.27,-84.54 348.44,-91.49"/>
</a>
</g>
</g>
<!-- Node6 -->
<g id="Node000006" class="node">
<title>Node6</title>
<g id="a_Node000006"><a xlink:href="classfcmaes_1_1advretry_1_1_store.html#a801f488c7741c549ab3212f5ce52803a" target="_top" xlink:title="Returns the best value of y stored in the best_y attribute.">
<polygon fill="white" stroke="#666666" points="496.88,-70 368.38,-70 368.38,-38 496.88,-38 496.88,-70"/>
<text text-anchor="start" x="376.38" y="-56.5" font-family="Helvetica,sans-Serif" font-size="10.00">fcmaes.advretry.Store.get</text>
<text text-anchor="middle" x="432.62" y="-44.5" font-family="Helvetica,sans-Serif" font-size="10.00">_y_best</text>
</a>
</g>
</g>
<!-- Node2&#45;&gt;Node6 -->
<g id="edge5_Node000002_Node000006" class="edge">
<title>Node2&#45;&gt;Node6</title>
<g id="a_edge5_Node000002_Node000006"><a xlink:title=" ">
<path fill="none" stroke="#63b8ff" d="M324.75,-66.89C335.32,-65.62 346.19,-64.31 356.76,-63.03"/>
<polygon fill="#63b8ff" stroke="#63b8ff" points="357.07,-66.52 366.58,-61.85 356.23,-59.57 357.07,-66.52"/>
</a>
</g>
</g>
<!-- Node7 -->
<g id="Node000007" class="node">
<title>Node7</title>
<g id="a_Node000007"><a xlink:href="classfcmaes_1_1advretry_1_1_store.html#a3cc073975313c4893de761cfc9771d77" target="_top" xlink:title="Gets the stored y&#45;values up to the specified count.">
<polygon fill="white" stroke="#666666" points="504.75,-20 360.5,-20 360.5,0 504.75,0 504.75,-20"/>
<text text-anchor="middle" x="432.62" y="-6.5" font-family="Helvetica,sans-Serif" font-size="10.00">fcmaes.advretry.Store.get_ys</text>
</a>
</g>
</g>
<!-- Node2&#45;&gt;Node7 -->
<g id="edge6_Node000002_Node000007" class="edge">
<title>Node2&#45;&gt;Node7</title>
<g id="a_edge6_Node000002_Node000007"><a xlink:title=" ">
<path fill="none" stroke="#63b8ff" d="M271.48,-65.53C293.69,-55.33 328.97,-39.81 360.5,-29 366.17,-27.06 372.14,-25.19 378.13,-23.43"/>
<polygon fill="#63b8ff" stroke="#63b8ff" points="378.71,-26.9 387.38,-20.81 376.8,-20.17 378.71,-26.9"/>
</a>
</g>
</g>
<!-- Node5 -->
<g id="Node000005" class="node">
<title>Node5</title>
<g id="a_Node000005"><a xlink:href="classfcmaes_1_1advretry_1_1_store.html#a97e407315b2e0c802b9d5b4414f3f91b" target="_top" xlink:title="Retrieves a segment of the xs array corresponding to the provided pid.">
<polygon fill="white" stroke="#666666" points="679.75,-108 540.75,-108 540.75,-88 679.75,-88 679.75,-108"/>
<text text-anchor="middle" x="610.25" y="-94.5" font-family="Helvetica,sans-Serif" font-size="10.00">fcmaes.advretry.Store.get_x</text>
</a>
</g>
</g>
<!-- Node4&#45;&gt;Node5 -->
<g id="edge4_Node000004_Node000005" class="edge">
<title>Node4&#45;&gt;Node5</title>
<g id="a_edge4_Node000004_Node000005"><a xlink:title=" ">
<path fill="none" stroke="#63b8ff" d="M505.06,-98C513,-98 521.12,-98 529.16,-98"/>
<polygon fill="#63b8ff" stroke="#63b8ff" points="528.92,-101.5 538.92,-98 528.92,-94.5 528.92,-101.5"/>
</a>
</g>
</g>
</g>
</svg>

<g id="navigator" transform="translate(0 0)" fill="#404254">
  <rect fill="#f2f5e9" fill-opacity="0.5" stroke="#606060" stroke-width=".5" x="0" y="0" width="60" height="60"/>
  <use id="zoomplus" xlink:href="#zoomPlus" x="17" y="9" onmousedown="handleZoom(evt,'in')"/>
  <use id="zoomminus" xlink:href="#zoomMin" x="42" y="9" onmousedown="handleZoom(evt,'out')"/>
  <use id="reset" xlink:href="#resetDef" x="30" y="36" onmousedown="handleReset()"/>
   <use id="arrowup" xlink:href="#arrowUp" x="0" y="0" onmousedown="handlePan(0,-1)"/>
  <use id="arrowright" xlink:href="#arrowRight" x="0" y="0" onmousedown="handlePan(1,0)"/>
  <use id="arrowdown" xlink:href="#arrowDown" x="0" y="0" onmousedown="handlePan(0,1)"/>
  <use id="arrowleft" xlink:href="#arrowLeft" x="0" y="0" onmousedown="handlePan(-1,0)"/>
</g>
<svg viewBox="0 0 15 15" width="100%" height="30px" preserveAspectRatio="xMaxYMin meet">
 <g id="arrow_out" transform="scale(0.3 0.3)">
  <a xlink:href="classfcmaes_1_1advretry_1_1_store_a19b9d6c0787fb06a2b00e595f487bf37_cgraph_org.svg" target="_base">
   <rect id="button" ry="5" rx="5" y="6" x="6" height="38" width="38"
        fill="#f2f5e9" fill-opacity="0.5" stroke="#606060" stroke-width="1.0"/>
   <path id="arrow"
     d="M 11.500037,31.436501 C 11.940474,20.09759 22.043105,11.32322 32.158766,21.979434 L 37.068811,17.246167 C 37.068811,17.246167 37.088388,32 37.088388,32 L 22.160133,31.978069 C 22.160133,31.978069 26.997745,27.140456 26.997745,27.140456 C 18.528582,18.264221 13.291696,25.230495 11.500037,31.436501 z"
     style="fill:#404040;"/>
  </a>
 </g>
</svg>

<style type='text/css'>
<![CDATA[
[data-mouse-over-selected='false'] { opacity: 0.7; }
[data-mouse-over-selected='true']  { opacity: 1.0; }
]]>
</style>
<script type="application/ecmascript"><![CDATA[
document.addEventListener('DOMContentLoaded', (event) => {
  highlightEdges();
  highlightAdjacentNodes();
});
]]></script>
</svg>
