<?xml version="1.0" encoding="UTF-8" standalone="no"?>
<!DOCTYPE svg PUBLIC "-//W3C//DTD SVG 1.1//EN"
 "http://www.w3.org/Graphics/SVG/1.1/DTD/svg11.dtd">
<!-- Generated by graphviz version 12.2.1 (20241206.2353)
 -->
<!-- Title: fcmaes.evaluator.parallel_mo.__call__ Pages: 1 -->
<svg width="434pt" height="40pt"
 viewBox="0.00 0.00 434.00 40.00" xmlns="http://www.w3.org/2000/svg" xmlns:xlink="http://www.w3.org/1999/xlink">
<g id="graph0" class="graph" transform="scale(1 1) rotate(0) translate(4 36)">
<title>fcmaes.evaluator.parallel_mo.__call__</title>
<!-- Node1 -->
<g id="Node000001" class="node">
<title>Node1</title>
<g id="a_Node000001"><a xlink:title="Evaluates a set of inputs using a specified evaluator in a parallelized manner, producing a multi&#45;obj...">
<polygon fill="#999999" stroke="#666666" points="124.75,-32 0,-32 0,0 124.75,0 124.75,-32"/>
<text text-anchor="start" x="8" y="-18.5" font-family="Helvetica,sans-Serif" font-size="10.00">fcmaes.evaluator.parallel</text>
<text text-anchor="middle" x="62.38" y="-6.5" font-family="Helvetica,sans-Serif" font-size="10.00">_mo.__call__</text>
</a>
</g>
</g>
<!-- Node2 -->
<g id="Node000002" class="node">
<title>Node2</title>
<g id="a_Node000002"><a xlink:href="namespacefcmaes_1_1evaluator.html#a7fd3b71184ba68c9fc886a0da91030a1" target="_top" xlink:title="Evaluates a population of solutions in parallel for a multi&#45;objective optimization problem.">
<polygon fill="white" stroke="#666666" points="272.75,-32 160.75,-32 160.75,0 272.75,0 272.75,-32"/>
<text text-anchor="start" x="168.75" y="-18.5" font-family="Helvetica,sans-Serif" font-size="10.00">fcmaes.evaluator.eval</text>
<text text-anchor="middle" x="216.75" y="-6.5" font-family="Helvetica,sans-Serif" font-size="10.00">_parallel_mo</text>
</a>
</g>
</g>
<!-- Node1&#45;&gt;Node2 -->
<g id="edge1_Node000001_Node000002" class="edge">
<title>Node1&#45;&gt;Node2</title>
<g id="a_edge1_Node000001_Node000002"><a xlink:title=" ">
<path fill="none" stroke="#63b8ff" d="M124.91,-16C132.88,-16 141.08,-16 149.13,-16"/>
<polygon fill="#63b8ff" stroke="#63b8ff" points="148.86,-19.5 158.86,-16 148.86,-12.5 148.86,-19.5"/>
</a>
</g>
</g>
<!-- Node3 -->
<g id="Node000003" class="node">
<title>Node3</title>
<g id="a_Node000003"><a xlink:href="namespacefcmaes_1_1evaluator.html#afe255aa77cf706556cd5740a6d9dc120" target="_top" xlink:title="Evaluates a segment of data in parallel by sending and receiving data through a pipe.">
<polygon fill="white" stroke="#666666" points="426,-32 308.75,-32 308.75,0 426,0 426,-32"/>
<text text-anchor="start" x="316.75" y="-18.5" font-family="Helvetica,sans-Serif" font-size="10.00">fcmaes.evaluator._eval</text>
<text text-anchor="middle" x="367.38" y="-6.5" font-family="Helvetica,sans-Serif" font-size="10.00">_parallel_segment</text>
</a>
</g>
</g>
<!-- Node2&#45;&gt;Node3 -->
<g id="edge2_Node000002_Node000003" class="edge">
<title>Node2&#45;&gt;Node3</title>
<g id="a_edge2_Node000002_Node000003"><a xlink:title=" ">
<path fill="none" stroke="#63b8ff" d="M273.09,-16C280.95,-16 289.1,-16 297.18,-16"/>
<polygon fill="#63b8ff" stroke="#63b8ff" points="296.99,-19.5 306.99,-16 296.99,-12.5 296.99,-19.5"/>
</a>
</g>
</g>
</g>
</svg>
