<?xml version="1.0" encoding="UTF-8" standalone="no"?>
<!DOCTYPE svg PUBLIC "-//W3C//DTD SVG 1.1//EN"
 "http://www.w3.org/Graphics/SVG/1.1/DTD/svg11.dtd">
<!-- Generated by graphviz version 12.2.1 (20241206.2353)
 -->
<!-- Title: CBiteRnd::getPowInt Pages: 1 -->
<svg width="638pt" height="123pt"
 viewBox="0.00 0.00 637.50 123.00" xmlns="http://www.w3.org/2000/svg" xmlns:xlink="http://www.w3.org/1999/xlink">
<g id="graph0" class="graph" transform="scale(1 1) rotate(0) translate(4 119)">
<title>CBiteRnd::getPowInt</title>
<!-- Node1 -->
<g id="Node000001" class="node">
<title>Node1</title>
<g id="a_Node000001"><a xlink:title=" ">
<polygon fill="#999999" stroke="#666666" points="629.5,-58 520.5,-58 520.5,-38 629.5,-38 629.5,-58"/>
<text text-anchor="middle" x="575" y="-44.5" font-family="Helvetica,sans-Serif" font-size="10.00">CBiteRnd::getPowInt</text>
</a>
</g>
</g>
<!-- Node2 -->
<g id="Node000002" class="node">
<title>Node2</title>
<g id="a_Node000002"><a xlink:href="class_c_bite_opt.html#a2363863090db7154792f78ec46abcf47" target="_top" xlink:title=" ">
<polygon fill="white" stroke="#666666" points="484.5,-96 359.75,-96 359.75,-76 484.5,-76 484.5,-96"/>
<text text-anchor="middle" x="422.12" y="-82.5" font-family="Helvetica,sans-Serif" font-size="10.00">CBiteOpt::generateSol2c</text>
</a>
</g>
</g>
<!-- Node1&#45;&gt;Node2 -->
<g id="edge1_Node000001_Node000002" class="edge">
<title>Node1&#45;&gt;Node2</title>
<g id="a_edge1_Node000001_Node000002"><a xlink:title=" ">
<path fill="none" stroke="#63b8ff" d="M521.4,-61.25C502.8,-65.93 482.16,-71.13 464.62,-75.55"/>
<polygon fill="#63b8ff" stroke="#63b8ff" points="522.06,-64.69 530.91,-58.85 520.35,-57.9 522.06,-64.69"/>
</a>
</g>
</g>
<!-- Node5 -->
<g id="Node000005" class="node">
<title>Node5</title>
<g id="a_Node000005"><a xlink:href="class_c_d_e_opt.html#a819e3692005dd630f7bc83d4444e23ee" target="_top" xlink:title=" ">
<polygon fill="white" stroke="#666666" points="470.25,-58 374,-58 374,-38 470.25,-38 470.25,-58"/>
<text text-anchor="middle" x="422.12" y="-44.5" font-family="Helvetica,sans-Serif" font-size="10.00">CDEOpt::optimize</text>
</a>
</g>
</g>
<!-- Node1&#45;&gt;Node5 -->
<g id="edge5_Node000001_Node000005" class="edge">
<title>Node1&#45;&gt;Node5</title>
<g id="a_edge5_Node000001_Node000005"><a xlink:title=" ">
<path fill="none" stroke="#63b8ff" d="M509.14,-48C496.18,-48 482.79,-48 470.55,-48"/>
<polygon fill="#63b8ff" stroke="#63b8ff" points="508.87,-51.5 518.87,-48 508.87,-44.5 508.87,-51.5"/>
</a>
</g>
</g>
<!-- Node6 -->
<g id="Node000006" class="node">
<title>Node6</title>
<g id="a_Node000006"><a xlink:href="class_c_bite_sel_base.html#a8057363e3d0feb4fc8e23957a8806245" target="_top" xlink:title=" ">
<polygon fill="white" stroke="#666666" points="477,-20 367.25,-20 367.25,0 477,0 477,-20"/>
<text text-anchor="middle" x="422.12" y="-6.5" font-family="Helvetica,sans-Serif" font-size="10.00">CBiteSelBase::select</text>
</a>
</g>
</g>
<!-- Node1&#45;&gt;Node6 -->
<g id="edge6_Node000001_Node000006" class="edge">
<title>Node1&#45;&gt;Node6</title>
<g id="a_edge6_Node000001_Node000006"><a xlink:title=" ">
<path fill="none" stroke="#63b8ff" d="M521.4,-34.75C502.8,-30.07 482.16,-24.87 464.62,-20.45"/>
<polygon fill="#63b8ff" stroke="#63b8ff" points="520.35,-38.1 530.91,-37.15 522.06,-31.31 520.35,-38.1"/>
</a>
</g>
</g>
<!-- Node3 -->
<g id="Node000003" class="node">
<title>Node3</title>
<g id="a_Node000003"><a xlink:href="class_c_bite_opt.html#a76fa9d8bf4abde13b69e06761acc82f5" target="_top" xlink:title=" ">
<polygon fill="white" stroke="#666666" points="323.75,-115 199,-115 199,-95 323.75,-95 323.75,-115"/>
<text text-anchor="middle" x="261.38" y="-101.5" font-family="Helvetica,sans-Serif" font-size="10.00">CBiteOpt::generateSol2d</text>
</a>
</g>
</g>
<!-- Node2&#45;&gt;Node3 -->
<g id="edge2_Node000002_Node000003" class="edge">
<title>Node2&#45;&gt;Node3</title>
<g id="a_edge2_Node000002_Node000003"><a xlink:title=" ">
<path fill="none" stroke="#63b8ff" d="M348.04,-94.75C340.02,-95.71 331.9,-96.68 324.04,-97.62"/>
<polygon fill="#63b8ff" stroke="#63b8ff" points="348.28,-98.24 357.79,-93.58 347.45,-91.29 348.28,-98.24"/>
</a>
</g>
</g>
<!-- Node4 -->
<g id="Node000004" class="node">
<title>Node4</title>
<g id="a_Node000004"><a xlink:href="class_c_bite_opt.html#a2f56a9d5d682c92e2da1234ed68d54ed" target="_top" xlink:title=" ">
<polygon fill="white" stroke="#666666" points="131.12,-96 31.88,-96 31.88,-76 131.12,-76 131.12,-96"/>
<text text-anchor="middle" x="81.5" y="-82.5" font-family="Helvetica,sans-Serif" font-size="10.00">CBiteOpt::optimize</text>
</a>
</g>
</g>
<!-- Node2&#45;&gt;Node4 -->
<g id="edge4_Node000002_Node000004" class="edge">
<title>Node2&#45;&gt;Node4</title>
<g id="a_edge4_Node000002_Node000004"><a xlink:title=" ">
<path fill="none" stroke="#63b8ff" d="M347.94,-86C282.44,-86 188.23,-86 131.44,-86"/>
<polygon fill="#63b8ff" stroke="#63b8ff" points="347.9,-89.5 357.9,-86 347.9,-82.5 347.9,-89.5"/>
</a>
</g>
</g>
<!-- Node3&#45;&gt;Node4 -->
<g id="edge3_Node000003_Node000004" class="edge">
<title>Node3&#45;&gt;Node4</title>
<g id="a_edge3_Node000003_Node000004"><a xlink:title=" ">
<path fill="none" stroke="#63b8ff" d="M187.41,-97.21C168.58,-95.2 148.77,-93.08 131.5,-91.23"/>
<polygon fill="#63b8ff" stroke="#63b8ff" points="186.84,-100.67 197.16,-98.25 187.59,-93.7 186.84,-100.67"/>
</a>
</g>
</g>
<!-- Node7 -->
<g id="Node000007" class="node">
<title>Node7</title>
<g id="a_Node000007"><a xlink:href="class_c_bite_sel_base.html#a608b89514f2f4430e4e0a6ff6660c7cf" target="_top" xlink:title=" ">
<polygon fill="white" stroke="#666666" points="314,-20 208.75,-20 208.75,0 314,0 314,-20"/>
<text text-anchor="middle" x="261.38" y="-6.5" font-family="Helvetica,sans-Serif" font-size="10.00">CBiteSelBase::reset</text>
</a>
</g>
</g>
<!-- Node6&#45;&gt;Node7 -->
<g id="edge7_Node000006_Node000007" class="edge">
<title>Node6&#45;&gt;Node7</title>
<g id="a_edge7_Node000006_Node000007"><a xlink:title=" ">
<path fill="none" stroke="#63b8ff" d="M355.59,-10C341.87,-10 327.59,-10 314.44,-10"/>
<polygon fill="#63b8ff" stroke="#63b8ff" points="355.42,-13.5 365.42,-10 355.42,-6.5 355.42,-13.5"/>
</a>
</g>
</g>
<!-- Node8 -->
<g id="Node000008" class="node">
<title>Node8</title>
<g id="a_Node000008"><a xlink:href="classexamples_1_1siemens_1_1_plant.html#a4570217ffc213f931499ca5ca147819c" target="_top" xlink:title=" ">
<polygon fill="white" stroke="#666666" points="163,-20 0,-20 0,0 163,0 163,-20"/>
<text text-anchor="middle" x="81.5" y="-6.5" font-family="Helvetica,sans-Serif" font-size="10.00">examples.siemens.Plant.simulate</text>
</a>
</g>
</g>
<!-- Node7&#45;&gt;Node8 -->
<g id="edge8_Node000007_Node000008" class="edge">
<title>Node7&#45;&gt;Node8</title>
<g id="a_edge8_Node000007_Node000008"><a xlink:title=" ">
<path fill="none" stroke="#63b8ff" d="M197.23,-10C186.24,-10 174.67,-10 163.28,-10"/>
<polygon fill="#63b8ff" stroke="#63b8ff" points="196.93,-13.5 206.93,-10 196.93,-6.5 196.93,-13.5"/>
</a>
</g>
</g>
</g>
</svg>
