<?xml version="1.0" encoding="UTF-8" standalone="no"?>
<!DOCTYPE svg PUBLIC "-//W3C//DTD SVG 1.1//EN"
 "http://www.w3.org/Graphics/SVG/1.1/DTD/svg11.dtd">
<!-- Generated by graphviz version 12.2.1 (20241206.2353)
 -->
<!-- Title: fcmaes.journal.Trial_start Pages: 1 -->
<svg width="105pt" height="172pt"
 viewBox="0.00 0.00 105.25 172.00" xmlns="http://www.w3.org/2000/svg" xmlns:xlink="http://www.w3.org/1999/xlink">

<svg id="main" version="1.1" xmlns="http://www.w3.org/2000/svg" xmlns:xlink="http://www.w3.org/1999/xlink" xml:space="preserve">

<style type="text/css"><![CDATA[
.node, .edge {opacity: 0.7;}
.node.selected, .edge.selected {opacity: 1;}
.edge:hover path { stroke: red; }
.edge:hover polygon { stroke: red; fill: red; }
]]></style>
<script type="application/ecmascript" xlink:href="svg.min.js"/>
<svg id="graph" class="graph">
<g id="graph0" class="graph" transform="scale(1 1) rotate(0) translate(4 168)">
<title>fcmaes.journal.Trial_start</title>
<!-- Node1 -->
<g id="Node000001" class="node">
<title>Node1</title>
<g id="a_Node000001"><a xlink:title="Represents the start of a trial within a specific study.">
<polygon fill="#999999" stroke="none" points="95.38,-64 1.88,-64 1.88,0 95.38,0 95.38,-64"/>
<text text-anchor="start" x="5.88" y="-50.5" font-family="Helvetica,sans-Serif" font-size="10.00">fcmaes.journal.Trial</text>
<text text-anchor="start" x="36.25" y="-38.5" font-family="Helvetica,sans-Serif" font-size="10.00">_start</text>
<text text-anchor="start" x="47.12" y="-22.5" font-family="Helvetica,sans-Serif" font-size="10.00"> </text>
<text text-anchor="start" x="47.12" y="-6.5" font-family="Helvetica,sans-Serif" font-size="10.00"> </text>
<polygon fill="#666666" stroke="#666666" points="1.88,-34 1.88,-34 95.38,-34 95.38,-34 1.88,-34"/>
<polygon fill="#666666" stroke="#666666" points="1.88,-18 1.88,-18 95.38,-18 95.38,-18 1.88,-18"/>
<polygon fill="none" stroke="#666666" points="1.88,0 1.88,-64 95.38,-64 95.38,0 1.88,0"/>
</a>
</g>
</g>
<!-- Node2 -->
<g id="Node000002" class="node">
<title>Node2</title>
<g id="a_Node000002"><a xlink:href="classfcmaes_1_1journal_1_1_base__message.html" target="_top" xlink:title="Represents the base structure of a message.">
<polygon fill="white" stroke="none" points="97.25,-164 0,-164 0,-100 97.25,-100 97.25,-164"/>
<text text-anchor="start" x="4" y="-150.5" font-family="Helvetica,sans-Serif" font-size="10.00">fcmaes.journal.Base</text>
<text text-anchor="start" x="26.12" y="-138.5" font-family="Helvetica,sans-Serif" font-size="10.00">_message</text>
<text text-anchor="start" x="47.12" y="-122.5" font-family="Helvetica,sans-Serif" font-size="10.00"> </text>
<text text-anchor="start" x="47.12" y="-106.5" font-family="Helvetica,sans-Serif" font-size="10.00"> </text>
<polygon fill="#666666" stroke="#666666" points="0,-134 0,-134 97.25,-134 97.25,-134 0,-134"/>
<polygon fill="#666666" stroke="#666666" points="0,-118 0,-118 97.25,-118 97.25,-118 0,-118"/>
<polygon fill="none" stroke="#666666" points="0,-100 0,-164 97.25,-164 97.25,-100 0,-100"/>
</a>
</g>
</g>
<!-- Node2&#45;&gt;Node1 -->
<g id="edge1_Node000001_Node000002" class="edge">
<title>Node2&#45;&gt;Node1</title>
<g id="a_edge1_Node000001_Node000002"><a xlink:title=" ">
<path fill="none" stroke="#63b8ff" d="M48.62,-88.77C48.62,-80.44 48.62,-71.84 48.62,-63.97"/>
<polygon fill="none" stroke="#63b8ff" points="45.13,-88.75 48.63,-98.75 52.13,-88.75 45.13,-88.75"/>
</a>
</g>
</g>
</g>
</svg>
</svg>

<style type='text/css'>
<![CDATA[
[data-mouse-over-selected='false'] { opacity: 0.7; }
[data-mouse-over-selected='true']  { opacity: 1.0; }
]]>
</style>
<script type="application/ecmascript"><![CDATA[
document.addEventListener('DOMContentLoaded', (event) => {
  highlightEdges();
  highlightAdjacentNodes();
});
]]></script>
</svg>
