<?xml version="1.0" encoding="UTF-8" standalone="no"?>
<!DOCTYPE svg PUBLIC "-//W3C//DTD SVG 1.1//EN"
 "http://www.w3.org/Graphics/SVG/1.1/DTD/svg11.dtd">
<!-- Generated by graphviz version 12.2.1 (20241206.2353)
 -->
<!-- Title: fcmaes.mapelites.Archive.info Pages: 1 -->
<!--zoomable 201 -->

<svg id="main" version="1.1" xmlns="http://www.w3.org/2000/svg" xmlns:xlink="http://www.w3.org/1999/xlink" xml:space="preserve" onload="init(evt)">

<style type="text/css"><![CDATA[
.node, .edge {opacity: 0.7;}
.node.selected, .edge.selected {opacity: 1;}
.edge:hover path { stroke: red; }
.edge:hover polygon { stroke: red; fill: red; }
]]></style>

<defs>
  <circle id="rim" cx="0" cy="0" r="7"/>
  <circle id="rim2" cx="0" cy="0" r="3.5"/>
  <g id="zoomPlus">
    <use xlink:href="#rim" fill="#404040"><set attributeName="fill" to="#808080" begin="zoomplus.mouseover" end="zoomplus.mouseout"/></use>
    <path d="M-4,0h8M0,-4v8" fill="none" stroke="white" stroke-width="1.5" pointer-events="none"/>
  </g>
  <g id="zoomMin">
    <use xlink:href="#rim" fill="#404040"><set attributeName="fill" to="#808080" begin="zoomminus.mouseover" end="zoomminus.mouseout"/></use>
    <path d="M-4,0h8" fill="none" stroke="white" stroke-width="1.5" pointer-events="none"/>
  </g>
  <g id="arrowUp" transform="translate(30 24)">
    <use xlink:href="#rim"/>
    <path pointer-events="none" fill="none" stroke="white" stroke-width="1.5" d="M0,-3.0v7 M-2.5,-0.5L0,-3.0L2.5,-0.5"/>
  </g>
  <g id="arrowRight" transform="rotate(90) translate(36 -43)">
    <use xlink:href="#rim"/>
    <path pointer-events="none" fill="none" stroke="white" stroke-width="1.5" d="M0,-3.0v7 M-2.5,-0.5L0,-3.0L2.5,-0.5"/>
  </g>
  <g id="arrowDown" transform="rotate(180) translate(-30 -48)">
    <use xlink:href="#rim"/>
    <path pointer-events="none" fill="none" stroke="white" stroke-width="1.5" d="M0,-3.0v7 M-2.5,-0.5L0,-3.0L2.5,-0.5"/>
  </g>
  <g id="arrowLeft" transform="rotate(270) translate(-36 17)">
    <use xlink:href="#rim"/>
    <path pointer-events="none" fill="none" stroke="white" stroke-width="1.5" d="M0,-3.0v7 M-2.5,-0.5L0,-3.0L2.5,-0.5"/>
  </g>
  <g id="resetDef">
    <use xlink:href="#rim2" fill="#404040"><set attributeName="fill" to="#808080" begin="reset.mouseover" end="reset.mouseout"/></use>
  </g>
</defs>
<script type="application/ecmascript">
var viewWidth = 535;
var viewHeight = 201;
var sectionId = 'dynsection-26';
</script>
<script type="application/ecmascript" xlink:href="svg.min.js"/>
<svg id="graph" class="graph">
<g id="viewport">
<title>fcmaes.mapelites.Archive.info</title>
<!-- Node1 -->
<g id="Node000001" class="node">
<title>Node1</title>
<g id="a_Node000001"><a xlink:title="Generates a formatted string containing key metrics.">
<polygon fill="#999999" stroke="#666666" points="148,-92.61 0,-92.61 0,-72.61 148,-72.61 148,-92.61"/>
<text text-anchor="middle" x="74" y="-79.11" font-family="Helvetica,sans-Serif" font-size="10.00">fcmaes.mapelites.Archive.info</text>
</a>
</g>
</g>
<!-- Node2 -->
<g id="Node000002" class="node">
<title>Node2</title>
<g id="a_Node000002"><a xlink:href="classfcmaes_1_1mapelites_1_1_archive.html#abfbc79753a308a9880da632d96b37d5c" target="_top" xlink:title="Retrieves a copy of the counts as a NumPy array.">
<polygon fill="white" stroke="#666666" points="329.75,-192.61 184,-192.61 184,-160.61 329.75,-160.61 329.75,-192.61"/>
<text text-anchor="start" x="192" y="-179.11" font-family="Helvetica,sans-Serif" font-size="10.00">fcmaes.mapelites.Archive.get</text>
<text text-anchor="middle" x="256.88" y="-167.11" font-family="Helvetica,sans-Serif" font-size="10.00">_counts</text>
</a>
</g>
</g>
<!-- Node1&#45;&gt;Node2 -->
<g id="edge1_Node000001_Node000002" class="edge">
<title>Node1&#45;&gt;Node2</title>
<g id="a_edge1_Node000001_Node000002"><a xlink:title=" ">
<path fill="none" stroke="#63b8ff" d="M89.19,-93.1C109.42,-107.7 148.1,-134.29 184,-151.61 187.05,-153.09 190.22,-154.52 193.44,-155.9"/>
<polygon fill="#63b8ff" stroke="#63b8ff" points="191.88,-159.04 202.46,-159.55 194.51,-152.55 191.88,-159.04"/>
</a>
</g>
</g>
<!-- Node3 -->
<g id="Node000003" class="node">
<title>Node3</title>
<g id="a_Node000003"><a xlink:href="classfcmaes_1_1mapelites_1_1_archive.html#a7d6497547e738f46792eed929c0eb09c" target="_top" xlink:title="Retrieves the current number of occupied spaces from the associated value.">
<polygon fill="white" stroke="#666666" points="329.75,-142.61 184,-142.61 184,-110.61 329.75,-110.61 329.75,-142.61"/>
<text text-anchor="start" x="192" y="-129.11" font-family="Helvetica,sans-Serif" font-size="10.00">fcmaes.mapelites.Archive.get</text>
<text text-anchor="middle" x="256.88" y="-117.11" font-family="Helvetica,sans-Serif" font-size="10.00">_occupied</text>
</a>
</g>
</g>
<!-- Node1&#45;&gt;Node3 -->
<g id="edge2_Node000001_Node000003" class="edge">
<title>Node1&#45;&gt;Node3</title>
<g id="a_edge2_Node000001_Node000003"><a xlink:title=" ">
<path fill="none" stroke="#63b8ff" d="M117.86,-93.04C135.58,-97.35 156.7,-102.49 177.03,-107.43"/>
<polygon fill="#63b8ff" stroke="#63b8ff" points="176.2,-110.83 186.75,-109.8 177.86,-104.03 176.2,-110.83"/>
</a>
</g>
</g>
<!-- Node4 -->
<g id="Node000004" class="node">
<title>Node4</title>
<g id="a_Node000004"><a xlink:href="classfcmaes_1_1mapelites_1_1_archive.html#a50c9e9bac3b339e4158614dad396bb18" target="_top" xlink:title="Calculates the QD (Quality&#45;Diversity) score based on the provided array of values.">
<polygon fill="white" stroke="#666666" points="329.75,-54.61 184,-54.61 184,-22.61 329.75,-22.61 329.75,-54.61"/>
<text text-anchor="start" x="192" y="-41.11" font-family="Helvetica,sans-Serif" font-size="10.00">fcmaes.mapelites.Archive.get</text>
<text text-anchor="middle" x="256.88" y="-29.11" font-family="Helvetica,sans-Serif" font-size="10.00">_qd_score</text>
</a>
</g>
</g>
<!-- Node1&#45;&gt;Node4 -->
<g id="edge3_Node000001_Node000004" class="edge">
<title>Node1&#45;&gt;Node4</title>
<g id="a_edge3_Node000001_Node000004"><a xlink:title=" ">
<path fill="none" stroke="#63b8ff" d="M117.86,-72.18C135.58,-67.87 156.7,-62.74 177.03,-57.79"/>
<polygon fill="#63b8ff" stroke="#63b8ff" points="177.86,-61.19 186.75,-55.43 176.2,-54.39 177.86,-61.19"/>
</a>
</g>
</g>
<!-- Node5 -->
<g id="Node000005" class="node">
<title>Node5</title>
<g id="a_Node000005"><a xlink:href="classfcmaes_1_1advretry_1_1_store.html#a3cc073975313c4893de761cfc9771d77" target="_top" xlink:title="Gets the stored y&#45;values up to the specified count.">
<polygon fill="white" stroke="#666666" points="518.62,-68.61 374.38,-68.61 374.38,-48.61 518.62,-48.61 518.62,-68.61"/>
<text text-anchor="middle" x="446.5" y="-55.11" font-family="Helvetica,sans-Serif" font-size="10.00">fcmaes.advretry.Store.get_ys</text>
</a>
</g>
</g>
<!-- Node1&#45;&gt;Node5 -->
<g id="edge6_Node000001_Node000005" class="edge">
<title>Node1&#45;&gt;Node5</title>
<g id="a_edge6_Node000001_Node000005"><a xlink:title=" ">
<path fill="none" stroke="#63b8ff" d="M148.2,-77.87C209.97,-73.87 298.37,-68.14 362.71,-63.98"/>
<polygon fill="#63b8ff" stroke="#63b8ff" points="362.76,-67.48 372.52,-63.34 362.31,-60.49 362.76,-67.48"/>
</a>
</g>
</g>
<!-- Node6 -->
<g id="Node000006" class="node">
<title>Node6</title>
<g id="a_Node000006"><a xlink:href="classfcmaes_1_1mapelites_1_1_archive.html#a91c9f1ac5485896833fc7b9859b85af1" target="_top" xlink:title="Returns a copy of the ys array.">
<polygon fill="white" stroke="#666666" points="527.25,-27.61 365.75,-27.61 365.75,-7.61 527.25,-7.61 527.25,-27.61"/>
<text text-anchor="middle" x="446.5" y="-14.11" font-family="Helvetica,sans-Serif" font-size="10.00">fcmaes.mapelites.Archive.get_ys</text>
</a>
</g>
</g>
<!-- Node1&#45;&gt;Node6 -->
<g id="edge7_Node000001_Node000006" class="edge">
<title>Node1&#45;&gt;Node6</title>
<g id="a_edge7_Node000001_Node000006"><a xlink:title=" ">
<path fill="none" stroke="#63b8ff" d="M86.32,-72.3C105,-56.05 144.21,-25.15 184,-13.61 247.21,4.71 322.67,1 376.24,-5.66"/>
<polygon fill="#63b8ff" stroke="#63b8ff" points="375.46,-9.09 385.83,-6.92 376.37,-2.15 375.46,-9.09"/>
</a>
</g>
</g>
<!-- Node4&#45;&gt;Node5 -->
<g id="edge4_Node000004_Node000005" class="edge">
<title>Node4&#45;&gt;Node5</title>
<g id="a_edge4_Node000004_Node000005"><a xlink:title=" ">
<path fill="none" stroke="#63b8ff" d="M330.15,-46.32C340.8,-47.45 351.84,-48.63 362.68,-49.78"/>
<polygon fill="#63b8ff" stroke="#63b8ff" points="362.06,-53.24 372.38,-50.82 362.81,-46.28 362.06,-53.24"/>
</a>
</g>
</g>
<!-- Node4&#45;&gt;Node6 -->
<g id="edge5_Node000004_Node000006" class="edge">
<title>Node4&#45;&gt;Node6</title>
<g id="a_edge5_Node000004_Node000006"><a xlink:title=" ">
<path fill="none" stroke="#63b8ff" d="M330.15,-30.52C338.01,-29.64 346.08,-28.74 354.13,-27.84"/>
<polygon fill="#63b8ff" stroke="#63b8ff" points="354.41,-31.33 363.96,-26.74 353.63,-24.37 354.41,-31.33"/>
</a>
</g>
</g>
</g>
</svg>

<g id="navigator" transform="translate(0 0)" fill="#404254">
  <rect fill="#f2f5e9" fill-opacity="0.5" stroke="#606060" stroke-width=".5" x="0" y="0" width="60" height="60"/>
  <use id="zoomplus" xlink:href="#zoomPlus" x="17" y="9" onmousedown="handleZoom(evt,'in')"/>
  <use id="zoomminus" xlink:href="#zoomMin" x="42" y="9" onmousedown="handleZoom(evt,'out')"/>
  <use id="reset" xlink:href="#resetDef" x="30" y="36" onmousedown="handleReset()"/>
   <use id="arrowup" xlink:href="#arrowUp" x="0" y="0" onmousedown="handlePan(0,-1)"/>
  <use id="arrowright" xlink:href="#arrowRight" x="0" y="0" onmousedown="handlePan(1,0)"/>
  <use id="arrowdown" xlink:href="#arrowDown" x="0" y="0" onmousedown="handlePan(0,1)"/>
  <use id="arrowleft" xlink:href="#arrowLeft" x="0" y="0" onmousedown="handlePan(-1,0)"/>
</g>
<svg viewBox="0 0 15 15" width="100%" height="30px" preserveAspectRatio="xMaxYMin meet">
 <g id="arrow_out" transform="scale(0.3 0.3)">
  <a xlink:href="classfcmaes_1_1mapelites_1_1_archive_a4299111d24891cea4a03c19f28360923_cgraph_org.svg" target="_base">
   <rect id="button" ry="5" rx="5" y="6" x="6" height="38" width="38"
        fill="#f2f5e9" fill-opacity="0.5" stroke="#606060" stroke-width="1.0"/>
   <path id="arrow"
     d="M 11.500037,31.436501 C 11.940474,20.09759 22.043105,11.32322 32.158766,21.979434 L 37.068811,17.246167 C 37.068811,17.246167 37.088388,32 37.088388,32 L 22.160133,31.978069 C 22.160133,31.978069 26.997745,27.140456 26.997745,27.140456 C 18.528582,18.264221 13.291696,25.230495 11.500037,31.436501 z"
     style="fill:#404040;"/>
  </a>
 </g>
</svg>

<style type='text/css'>
<![CDATA[
[data-mouse-over-selected='false'] { opacity: 0.7; }
[data-mouse-over-selected='true']  { opacity: 1.0; }
]]>
</style>
<script type="application/ecmascript"><![CDATA[
document.addEventListener('DOMContentLoaded', (event) => {
  highlightEdges();
  highlightAdjacentNodes();
});
]]></script>
</svg>
