<?xml version="1.0" encoding="UTF-8" standalone="no"?>
<!DOCTYPE svg PUBLIC "-//W3C//DTD SVG 1.1//EN"
 "http://www.w3.org/Graphics/SVG/1.1/DTD/svg11.dtd">
<!-- Generated by graphviz version 12.2.1 (20241206.2353)
 -->
<!-- Title: CBiteOptBase::initCommonVars Pages: 1 -->
<svg width="496pt" height="178pt"
 viewBox="0.00 0.00 495.50 178.00" xmlns="http://www.w3.org/2000/svg" xmlns:xlink="http://www.w3.org/1999/xlink">

<svg id="main" version="1.1" xmlns="http://www.w3.org/2000/svg" xmlns:xlink="http://www.w3.org/1999/xlink" xml:space="preserve">

<style type="text/css"><![CDATA[
.node, .edge {opacity: 0.7;}
.node.selected, .edge.selected {opacity: 1;}
.edge:hover path { stroke: red; }
.edge:hover polygon { stroke: red; fill: red; }
]]></style>
<script type="application/ecmascript" xlink:href="svg.min.js"/>
<svg id="graph" class="graph">
<g id="graph0" class="graph" transform="scale(1 1) rotate(0) translate(4 174)">
<title>CBiteOptBase::initCommonVars</title>
<!-- Node1 -->
<g id="Node000001" class="node">
<title>Node1</title>
<g id="a_Node000001"><a xlink:title=" ">
<polygon fill="#999999" stroke="#666666" points="157,-92 0,-92 0,-72 157,-72 157,-92"/>
<text text-anchor="middle" x="78.5" y="-78.5" font-family="Helvetica,sans-Serif" font-size="10.00">CBiteOptBase::initCommonVars</text>
</a>
</g>
</g>
<!-- Node2 -->
<g id="Node000002" class="node">
<title>Node2</title>
<g id="a_Node000002"><a xlink:href="class_c_bite_opt_interface.html#a9debe40625c2bc248a4ffd12a9197a4d" target="_top" xlink:title=" ">
<polygon fill="white" stroke="#666666" points="311.38,-170 210.62,-170 210.62,-138 311.38,-138 311.38,-170"/>
<text text-anchor="start" x="218.62" y="-156.5" font-family="Helvetica,sans-Serif" font-size="10.00">CBiteOptInterface::</text>
<text text-anchor="middle" x="261" y="-144.5" font-family="Helvetica,sans-Serif" font-size="10.00">getMaxValues</text>
</a>
</g>
</g>
<!-- Node1&#45;&gt;Node2 -->
<g id="edge1_Node000001_Node000002" class="edge">
<title>Node1&#45;&gt;Node2</title>
<g id="a_edge1_Node000001_Node000002"><a xlink:title=" ">
<path fill="none" stroke="#63b8ff" d="M103.75,-92.34C126.67,-102.03 162.04,-116.82 193,-129 196.81,-130.5 200.74,-132.02 204.71,-133.55"/>
<polygon fill="#63b8ff" stroke="#63b8ff" points="203.22,-136.72 213.81,-137.01 205.71,-130.18 203.22,-136.72"/>
</a>
</g>
</g>
<!-- Node3 -->
<g id="Node000003" class="node">
<title>Node3</title>
<g id="a_Node000003"><a xlink:href="class_c_bite_opt_interface.html#ae7f8adaf2fd8acb10ccf057592a6229d" target="_top" xlink:title=" ">
<polygon fill="white" stroke="#666666" points="311.38,-120 210.62,-120 210.62,-88 311.38,-88 311.38,-120"/>
<text text-anchor="start" x="218.62" y="-106.5" font-family="Helvetica,sans-Serif" font-size="10.00">CBiteOptInterface::</text>
<text text-anchor="middle" x="261" y="-94.5" font-family="Helvetica,sans-Serif" font-size="10.00">getMinValues</text>
</a>
</g>
</g>
<!-- Node1&#45;&gt;Node3 -->
<g id="edge2_Node000001_Node000003" class="edge">
<title>Node1&#45;&gt;Node3</title>
<g id="a_edge2_Node000001_Node000003"><a xlink:title=" ">
<path fill="none" stroke="#63b8ff" d="M157.36,-91.49C171.37,-93.2 185.79,-94.96 199.23,-96.59"/>
<polygon fill="#63b8ff" stroke="#63b8ff" points="198.41,-100.02 208.76,-97.75 199.26,-93.07 198.41,-100.02"/>
</a>
</g>
</g>
<!-- Node4 -->
<g id="Node000004" class="node">
<title>Node4</title>
<g id="a_Node000004"><a xlink:href="class_c_bite_pop.html#a767519aa2fcc2667dc135a131bc9fd85" target="_top" xlink:title=" ">
<polygon fill="white" stroke="#666666" points="329,-70 193,-70 193,-50 329,-50 329,-70"/>
<text text-anchor="middle" x="261" y="-56.5" font-family="Helvetica,sans-Serif" font-size="10.00">CBitePop::resetCurPopPos</text>
</a>
</g>
</g>
<!-- Node1&#45;&gt;Node4 -->
<g id="edge3_Node000001_Node000004" class="edge">
<title>Node1&#45;&gt;Node4</title>
<g id="a_edge3_Node000001_Node000004"><a xlink:title=" ">
<path fill="none" stroke="#63b8ff" d="M157.36,-72.51C165.33,-71.54 173.44,-70.55 181.43,-69.58"/>
<polygon fill="#63b8ff" stroke="#63b8ff" points="181.6,-73.08 191.1,-68.4 180.75,-66.13 181.6,-73.08"/>
</a>
</g>
</g>
<!-- Node6 -->
<g id="Node000006" class="node">
<title>Node6</title>
<g id="a_Node000006"><a xlink:href="class_c_bite_opt_base.html#ac2ee22488c24887a922a30dd15d898e6" target="_top" xlink:title=" ">
<polygon fill="white" stroke="#666666" points="325.62,-32 196.38,-32 196.38,0 325.62,0 325.62,-32"/>
<text text-anchor="start" x="204.38" y="-18.5" font-family="Helvetica,sans-Serif" font-size="10.00">CBiteOptBase::updateDiff</text>
<text text-anchor="middle" x="261" y="-6.5" font-family="Helvetica,sans-Serif" font-size="10.00">Values</text>
</a>
</g>
</g>
<!-- Node1&#45;&gt;Node6 -->
<g id="edge5_Node000001_Node000006" class="edge">
<title>Node1&#45;&gt;Node6</title>
<g id="a_edge5_Node000001_Node000006"><a xlink:title=" ">
<path fill="none" stroke="#63b8ff" d="M108.1,-71.54C133.91,-62.1 172.61,-47.95 204.48,-36.3"/>
<polygon fill="#63b8ff" stroke="#63b8ff" points="205.39,-39.69 213.58,-32.97 202.99,-33.12 205.39,-39.69"/>
</a>
</g>
</g>
<!-- Node5 -->
<g id="Node000005" class="node">
<title>Node5</title>
<g id="a_Node000005"><a xlink:href="class_c_bite_pop.html#ad4e3a3c5b7a25ad02ef0231bd3fe8388" target="_top" xlink:title=" ">
<polygon fill="white" stroke="#666666" points="487.5,-70 365,-70 365,-50 487.5,-50 487.5,-70"/>
<text text-anchor="middle" x="426.25" y="-56.5" font-family="Helvetica,sans-Serif" font-size="10.00">CBitePop::calcLP1Coeff</text>
</a>
</g>
</g>
<!-- Node4&#45;&gt;Node5 -->
<g id="edge4_Node000004_Node000005" class="edge">
<title>Node4&#45;&gt;Node5</title>
<g id="a_edge4_Node000004_Node000005"><a xlink:title=" ">
<path fill="none" stroke="#63b8ff" d="M329.34,-60C337.19,-60 345.22,-60 353.13,-60"/>
<polygon fill="#63b8ff" stroke="#63b8ff" points="353.08,-63.5 363.08,-60 353.08,-56.5 353.08,-63.5"/>
</a>
</g>
</g>
</g>
</svg>
</svg>

<style type='text/css'>
<![CDATA[
[data-mouse-over-selected='false'] { opacity: 0.7; }
[data-mouse-over-selected='true']  { opacity: 1.0; }
]]>
</style>
<script type="application/ecmascript"><![CDATA[
document.addEventListener('DOMContentLoaded', (event) => {
  highlightEdges();
  highlightAdjacentNodes();
});
]]></script>
</svg>
