<?xml version="1.0" encoding="UTF-8" standalone="no"?>
<!DOCTYPE svg PUBLIC "-//W3C//DTD SVG 1.1//EN"
 "http://www.w3.org/Graphics/SVG/1.1/DTD/svg11.dtd">
<!-- Generated by graphviz version 12.2.1 (20241206.2353)
 -->
<!-- Title: examples.scheduling.fitness.__call__ Pages: 1 -->
<svg width="1106pt" height="266pt"
 viewBox="0.00 0.00 1106.00 266.00" xmlns="http://www.w3.org/2000/svg" xmlns:xlink="http://www.w3.org/1999/xlink">
<g id="graph0" class="graph" transform="scale(1 1) rotate(0) translate(4 262)">
<title>examples.scheduling.fitness.__call__</title>
<!-- Node1 -->
<g id="Node000001" class="node">
<title>Node1</title>
<g id="a_Node000001"><a xlink:title=" ">
<polygon fill="#999999" stroke="#666666" points="142.75,-132 0,-132 0,-100 142.75,-100 142.75,-132"/>
<text text-anchor="start" x="8" y="-118.5" font-family="Helvetica,sans-Serif" font-size="10.00">examples.scheduling.fitness.</text>
<text text-anchor="middle" x="71.38" y="-106.5" font-family="Helvetica,sans-Serif" font-size="10.00">__call__</text>
</a>
</g>
</g>
<!-- Node2 -->
<g id="Node000002" class="node">
<title>Node2</title>
<g id="a_Node000002"><a xlink:href="namespaceexamples_1_1scheduling.html#ad2889b9007308a61135c1b5faeca5d11" target="_top" xlink:title=" ">
<polygon fill="white" stroke="#666666" points="336.12,-258 188.12,-258 188.12,-238 336.12,-238 336.12,-258"/>
<text text-anchor="middle" x="262.12" y="-244.5" font-family="Helvetica,sans-Serif" font-size="10.00">examples.scheduling.ast_num</text>
</a>
</g>
</g>
<!-- Node1&#45;&gt;Node2 -->
<g id="edge1_Node000001_Node000002" class="edge">
<title>Node1&#45;&gt;Node2</title>
<g id="a_edge1_Node000001_Node000002"><a xlink:title=" ">
<path fill="none" stroke="#63b8ff" d="M84.18,-132.48C102.01,-156.19 138.08,-199.72 178.75,-224 185.19,-227.85 192.29,-231.11 199.54,-233.87"/>
<polygon fill="#63b8ff" stroke="#63b8ff" points="198.18,-237.1 208.77,-237.07 200.47,-230.49 198.18,-237.1"/>
</a>
</g>
</g>
<!-- Node3 -->
<g id="Node000003" class="node">
<title>Node3</title>
<g id="a_Node000003"><a xlink:href="namespaceexamples_1_1scheduling.html#a65b621b377aebb2c8a0b9af590aa280d" target="_top" xlink:title=" ">
<polygon fill="white" stroke="#666666" points="726.25,-207 575.25,-207 575.25,-175 726.25,-175 726.25,-207"/>
<text text-anchor="start" x="583.25" y="-193.5" font-family="Helvetica,sans-Serif" font-size="10.00">examples.scheduling.trajectory</text>
<text text-anchor="middle" x="650.75" y="-181.5" font-family="Helvetica,sans-Serif" font-size="10.00">_selection</text>
</a>
</g>
</g>
<!-- Node1&#45;&gt;Node3 -->
<g id="edge17_Node000001_Node000003" class="edge">
<title>Node1&#45;&gt;Node3</title>
<g id="a_edge17_Node000001_Node000003"><a xlink:title=" ">
<path fill="none" stroke="#63b8ff" d="M94.69,-132.48C115.35,-146.75 147.5,-166.55 178.75,-176 308.37,-215.2 467.27,-209.98 563.41,-201.39"/>
<polygon fill="#63b8ff" stroke="#63b8ff" points="563.67,-204.88 573.31,-200.47 563.03,-197.91 563.67,-204.88"/>
</a>
</g>
</g>
<!-- Node6 -->
<g id="Node000006" class="node">
<title>Node6</title>
<g id="a_Node000006"><a xlink:href="namespaceexamples_1_1scheduling.html#afe388874c2fafb820cc0d1a456332d53" target="_top" xlink:title=" ">
<polygon fill="white" stroke="#666666" points="719.12,-78 582.38,-78 582.38,-46 719.12,-46 719.12,-78"/>
<text text-anchor="start" x="590.38" y="-64.5" font-family="Helvetica,sans-Serif" font-size="10.00">examples.scheduling.dyson</text>
<text text-anchor="middle" x="650.75" y="-52.5" font-family="Helvetica,sans-Serif" font-size="10.00">_stations</text>
</a>
</g>
</g>
<!-- Node1&#45;&gt;Node6 -->
<g id="edge5_Node000001_Node000006" class="edge">
<title>Node1&#45;&gt;Node6</title>
<g id="a_edge5_Node000001_Node000006"><a xlink:title=" ">
<path fill="none" stroke="#63b8ff" d="M112.39,-99.56C132.06,-92.14 156.31,-83.94 178.75,-79 313.96,-49.26 476.18,-51.4 570.65,-56.28"/>
<polygon fill="#63b8ff" stroke="#63b8ff" points="570.42,-59.77 580.6,-56.82 570.8,-52.78 570.42,-59.77"/>
</a>
</g>
</g>
<!-- Node7 -->
<g id="Node000007" class="node">
<title>Node7</title>
<g id="a_Node000007"><a xlink:href="classexamples_1_1scheduling_1_1fitness.html#a0dcc50199c64159aae9a5a89326d1cc6" target="_top" xlink:title=" ">
<polygon fill="white" stroke="#666666" points="345.5,-126 178.75,-126 178.75,-106 345.5,-106 345.5,-126"/>
<text text-anchor="middle" x="262.12" y="-112.5" font-family="Helvetica,sans-Serif" font-size="10.00">examples.scheduling.fitness.score</text>
</a>
</g>
</g>
<!-- Node1&#45;&gt;Node7 -->
<g id="edge6_Node000001_Node000007" class="edge">
<title>Node1&#45;&gt;Node7</title>
<g id="a_edge6_Node000001_Node000007"><a xlink:title=" ">
<path fill="none" stroke="#63b8ff" d="M143.2,-116C151.02,-116 159.07,-116 167.12,-116"/>
<polygon fill="#63b8ff" stroke="#63b8ff" points="166.95,-119.5 176.95,-116 166.95,-112.5 166.95,-119.5"/>
</a>
</g>
</g>
<!-- Node8 -->
<g id="Node000008" class="node">
<title>Node8</title>
<g id="a_Node000008"><a xlink:href="namespaceexamples_1_1scheduling.html#af71d892a26a7cf4e51f3d0c28dd3d93b" target="_top" xlink:title=" ">
<polygon fill="white" stroke="#666666" points="528.75,-88 392,-88 392,-68 528.75,-68 528.75,-88"/>
<text text-anchor="middle" x="460.38" y="-74.5" font-family="Helvetica,sans-Serif" font-size="10.00">examples.scheduling.select</text>
</a>
</g>
</g>
<!-- Node1&#45;&gt;Node8 -->
<g id="edge14_Node000001_Node000008" class="edge">
<title>Node1&#45;&gt;Node8</title>
<g id="a_edge14_Node000001_Node000008"><a xlink:title=" ">
<path fill="none" stroke="#63b8ff" d="M143.16,-102.25C155.01,-100.26 167.21,-98.42 178.75,-97 246.54,-88.68 324.02,-83.78 380.37,-81.04"/>
<polygon fill="#63b8ff" stroke="#63b8ff" points="380.37,-84.55 390.19,-80.58 380.04,-77.56 380.37,-84.55"/>
</a>
</g>
</g>
<!-- Node9 -->
<g id="Node000009" class="node">
<title>Node9</title>
<g id="a_Node000009"><a xlink:href="namespaceexamples_1_1scheduling.html#a5473acc487e865227b4f1d9ac06d8102" target="_top" xlink:title=" ">
<polygon fill="white" stroke="#666666" points="721.75,-20 579.75,-20 579.75,0 721.75,0 721.75,-20"/>
<text text-anchor="middle" x="650.75" y="-6.5" font-family="Helvetica,sans-Serif" font-size="10.00">examples.scheduling.timings</text>
</a>
</g>
</g>
<!-- Node1&#45;&gt;Node9 -->
<g id="edge16_Node000001_Node000009" class="edge">
<title>Node1&#45;&gt;Node9</title>
<g id="a_edge16_Node000001_Node000009"><a xlink:title=" ">
<path fill="none" stroke="#63b8ff" d="M93.41,-99.68C113.94,-84.72 146.69,-63.37 178.75,-53 310.32,-10.44 472.61,-5.27 568.26,-6.71"/>
<polygon fill="#63b8ff" stroke="#63b8ff" points="568.02,-10.2 578.08,-6.89 568.15,-3.21 568.02,-10.2"/>
</a>
</g>
</g>
<!-- Node10 -->
<g id="Node000010" class="node">
<title>Node10</title>
<g id="a_Node000010"><a xlink:href="namespaceexamples_1_1scheduling.html#aef8d4dd874790f032aa9f541c3c199a6" target="_top" xlink:title=" ">
<polygon fill="white" stroke="#666666" points="539.25,-182 381.5,-182 381.5,-162 539.25,-162 539.25,-182"/>
<text text-anchor="middle" x="460.38" y="-168.5" font-family="Helvetica,sans-Serif" font-size="10.00">examples.scheduling.select_dvs</text>
</a>
</g>
</g>
<!-- Node1&#45;&gt;Node10 -->
<g id="edge15_Node000001_Node000010" class="edge">
<title>Node1&#45;&gt;Node10</title>
<g id="a_edge15_Node000001_Node000010"><a xlink:title=" ">
<path fill="none" stroke="#63b8ff" d="M111.57,-132.45C131.36,-140.03 155.95,-148.35 178.75,-153 241.87,-165.87 314.45,-170.52 369.98,-172.01"/>
<polygon fill="#63b8ff" stroke="#63b8ff" points="369.61,-175.5 379.69,-172.24 369.78,-168.5 369.61,-175.5"/>
</a>
</g>
</g>
<!-- Node2&#45;&gt;Node3 -->
<g id="edge2_Node000002_Node000003" class="edge">
<title>Node2&#45;&gt;Node3</title>
<g id="a_edge2_Node000002_Node000003"><a xlink:title=" ">
<path fill="none" stroke="#63b8ff" d="M336.35,-245.69C392.33,-242.95 471.19,-236.98 539.25,-224 556.51,-220.71 574.93,-215.79 591.68,-210.76"/>
<polygon fill="#63b8ff" stroke="#63b8ff" points="592.44,-214.18 600.97,-207.89 590.38,-207.49 592.44,-214.18"/>
</a>
</g>
</g>
<!-- Node4 -->
<g id="Node000004" class="node">
<title>Node4</title>
<g id="a_Node000004"><a xlink:href="namespaceexamples_1_1scheduling.html#a9b78175a9bd193289a2db7a992840231" target="_top" xlink:title=" ">
<polygon fill="white" stroke="#666666" points="911,-201 762.25,-201 762.25,-181 911,-181 911,-201"/>
<text text-anchor="middle" x="836.62" y="-187.5" font-family="Helvetica,sans-Serif" font-size="10.00">examples.scheduling.disjoined</text>
</a>
</g>
</g>
<!-- Node3&#45;&gt;Node4 -->
<g id="edge3_Node000003_Node000004" class="edge">
<title>Node3&#45;&gt;Node4</title>
<g id="a_edge3_Node000003_Node000004"><a xlink:title=" ">
<path fill="none" stroke="#63b8ff" d="M726.54,-191C734.45,-191 742.53,-191 750.54,-191"/>
<polygon fill="#63b8ff" stroke="#63b8ff" points="750.28,-194.5 760.28,-191 750.28,-187.5 750.28,-194.5"/>
</a>
</g>
</g>
<!-- Node5 -->
<g id="Node000005" class="node">
<title>Node5</title>
<g id="a_Node000005"><a xlink:href="namespaceexamples_1_1scheduling.html#a171925bee0250e0755f9521ef6756bc7" target="_top" xlink:title=" ">
<polygon fill="white" stroke="#666666" points="1098,-201 947,-201 947,-181 1098,-181 1098,-201"/>
<text text-anchor="middle" x="1022.5" y="-187.5" font-family="Helvetica,sans-Serif" font-size="10.00">examples.scheduling.next_free</text>
</a>
</g>
</g>
<!-- Node4&#45;&gt;Node5 -->
<g id="edge4_Node000004_Node000005" class="edge">
<title>Node4&#45;&gt;Node5</title>
<g id="a_edge4_Node000004_Node000005"><a xlink:title=" ">
<path fill="none" stroke="#63b8ff" d="M911.35,-191C919.23,-191 927.3,-191 935.3,-191"/>
<polygon fill="#63b8ff" stroke="#63b8ff" points="935.04,-194.5 945.04,-191 935.04,-187.5 935.04,-194.5"/>
</a>
</g>
</g>
<!-- Node7&#45;&gt;Node7 -->
<g id="edge7_Node000007_Node000007" class="edge">
<title>Node7&#45;&gt;Node7</title>
<g id="a_edge7_Node000007_Node000007"><a xlink:title=" ">
<path fill="none" stroke="#63b8ff" d="M231.82,-126.34C218.86,-134.98 228.97,-144 262.12,-144 280.78,-144 292.13,-141.14 296.19,-137.11"/>
<polygon fill="#63b8ff" stroke="#63b8ff" points="299.53,-136.05 292.93,-127.77 292.92,-138.36 299.53,-136.05"/>
</a>
</g>
</g>
<!-- Node7&#45;&gt;Node8 -->
<g id="edge8_Node000007_Node000008" class="edge">
<title>Node7&#45;&gt;Node8</title>
<g id="a_edge8_Node000007_Node000008"><a xlink:title=" ">
<path fill="none" stroke="#63b8ff" d="M317.27,-105.52C341.08,-100.91 369.25,-95.45 394.2,-90.62"/>
<polygon fill="#63b8ff" stroke="#63b8ff" points="394.77,-94.08 403.92,-88.74 393.44,-87.2 394.77,-94.08"/>
</a>
</g>
</g>
<!-- Node7&#45;&gt;Node10 -->
<g id="edge12_Node000007_Node000010" class="edge">
<title>Node7&#45;&gt;Node10</title>
<g id="a_edge12_Node000007_Node000010"><a xlink:title=" ">
<path fill="none" stroke="#63b8ff" d="M299.58,-126.4C331.29,-135.45 377.44,-148.62 412,-158.48"/>
<polygon fill="#63b8ff" stroke="#63b8ff" points="410.75,-161.77 421.33,-161.14 412.67,-155.03 410.75,-161.77"/>
</a>
</g>
</g>
<!-- Node8&#45;&gt;Node3 -->
<g id="edge11_Node000008_Node000003" class="edge">
<title>Node8&#45;&gt;Node3</title>
<g id="a_edge11_Node000008_Node000003"><a xlink:title=" ">
<path fill="none" stroke="#63b8ff" d="M478.76,-88.43C509.07,-106.61 572.22,-144.49 612.71,-168.78"/>
<polygon fill="#63b8ff" stroke="#63b8ff" points="610.81,-171.72 621.19,-173.87 614.41,-165.72 610.81,-171.72"/>
</a>
</g>
</g>
<!-- Node8&#45;&gt;Node6 -->
<g id="edge9_Node000008_Node000006" class="edge">
<title>Node8&#45;&gt;Node6</title>
<g id="a_edge9_Node000008_Node000006"><a xlink:title=" ">
<path fill="none" stroke="#63b8ff" d="M529.12,-72.25C542.55,-71.11 556.76,-69.9 570.54,-68.73"/>
<polygon fill="#63b8ff" stroke="#63b8ff" points="570.8,-72.22 580.47,-67.88 570.21,-65.24 570.8,-72.22"/>
</a>
</g>
</g>
<!-- Node8&#45;&gt;Node9 -->
<g id="edge10_Node000008_Node000009" class="edge">
<title>Node8&#45;&gt;Node9</title>
<g id="a_edge10_Node000008_Node000009"><a xlink:title=" ">
<path fill="none" stroke="#63b8ff" d="M490.4,-67.52C522.48,-55.94 574.34,-37.22 610.14,-24.3"/>
<polygon fill="#63b8ff" stroke="#63b8ff" points="611.06,-27.69 619.27,-21 608.68,-21.11 611.06,-27.69"/>
</a>
</g>
</g>
<!-- Node10&#45;&gt;Node3 -->
<g id="edge13_Node000010_Node000003" class="edge">
<title>Node10&#45;&gt;Node3</title>
<g id="a_edge13_Node000010_Node000003"><a xlink:title=" ">
<path fill="none" stroke="#63b8ff" d="M539.63,-179.89C547.53,-180.69 555.58,-181.5 563.56,-182.31"/>
<polygon fill="#63b8ff" stroke="#63b8ff" points="562.96,-185.76 573.26,-183.28 563.66,-178.8 562.96,-185.76"/>
</a>
</g>
</g>
</g>
</svg>
