<?xml version="1.0" encoding="UTF-8" standalone="no"?>
<!DOCTYPE svg PUBLIC "-//W3C//DTD SVG 1.1//EN"
 "http://www.w3.org/Graphics/SVG/1.1/DTD/svg11.dtd">
<!-- Generated by graphviz version 12.2.1 (20241206.2353)
 -->
<!-- Title: fcmaes.mapelites.Archive.get_cs Pages: 1 -->
<svg width="359pt" height="66pt"
 viewBox="0.00 0.00 358.75 66.00" xmlns="http://www.w3.org/2000/svg" xmlns:xlink="http://www.w3.org/1999/xlink">
<g id="graph0" class="graph" transform="scale(1 1) rotate(0) translate(4 62)">
<title>fcmaes.mapelites.Archive.get_cs</title>
<!-- Node1 -->
<g id="Node000001" class="node">
<title>Node1</title>
<g id="a_Node000001"><a xlink:title="Generates an array of results produced by the get_c method for a range of indices.">
<polygon fill="#999999" stroke="#666666" points="350.75,-39 189.25,-39 189.25,-19 350.75,-19 350.75,-39"/>
<text text-anchor="middle" x="270" y="-25.5" font-family="Helvetica,sans-Serif" font-size="10.00">fcmaes.mapelites.Archive.get_cs</text>
</a>
</g>
</g>
<!-- Node2 -->
<g id="Node000002" class="node">
<title>Node2</title>
<g id="a_Node000002"><a xlink:href="classfcmaes_1_1mapelites_1_1_archive.html#a62da9c6f511c298d1ef06d6af7600196" target="_top" xlink:title="Loads data from a specified file into the current object, initializing or updating its properties and...">
<polygon fill="white" stroke="#666666" points="151.75,-58 1.5,-58 1.5,-38 151.75,-38 151.75,-58"/>
<text text-anchor="middle" x="76.62" y="-44.5" font-family="Helvetica,sans-Serif" font-size="10.00">fcmaes.mapelites.Archive.load</text>
</a>
</g>
</g>
<!-- Node1&#45;&gt;Node2 -->
<g id="edge1_Node000001_Node000002" class="edge">
<title>Node1&#45;&gt;Node2</title>
<g id="a_edge1_Node000001_Node000002"><a xlink:title=" ">
<path fill="none" stroke="#63b8ff" d="M177.73,-38.06C169.16,-38.91 160.55,-39.77 152.16,-40.6"/>
<polygon fill="#63b8ff" stroke="#63b8ff" points="177.84,-41.57 187.44,-37.1 177.15,-34.6 177.84,-41.57"/>
</a>
</g>
</g>
<!-- Node3 -->
<g id="Node000003" class="node">
<title>Node3</title>
<g id="a_Node000003"><a xlink:href="classfcmaes_1_1mapelites_1_1_archive.html#aedbfd9567b2d8da13a94da232465aa42" target="_top" xlink:title="Saves the processed data and corresponding metadata in a compressed NPZ format.">
<polygon fill="white" stroke="#666666" points="153.25,-20 0,-20 0,0 153.25,0 153.25,-20"/>
<text text-anchor="middle" x="76.62" y="-6.5" font-family="Helvetica,sans-Serif" font-size="10.00">fcmaes.mapelites.Archive.save</text>
</a>
</g>
</g>
<!-- Node1&#45;&gt;Node3 -->
<g id="edge2_Node000001_Node000003" class="edge">
<title>Node1&#45;&gt;Node3</title>
<g id="a_edge2_Node000001_Node000003"><a xlink:title=" ">
<path fill="none" stroke="#63b8ff" d="M177.65,-19.93C169.63,-19.13 161.56,-18.33 153.68,-17.55"/>
<polygon fill="#63b8ff" stroke="#63b8ff" points="177.15,-23.4 187.44,-20.9 177.84,-16.43 177.15,-23.4"/>
</a>
</g>
</g>
</g>
</svg>
