<?xml version="1.0" encoding="UTF-8" standalone="no"?>
<!DOCTYPE svg PUBLIC "-//W3C//DTD SVG 1.1//EN"
 "http://www.w3.org/Graphics/SVG/1.1/DTD/svg11.dtd">
<!-- Generated by graphviz version 12.2.1 (20241206.2353)
 -->
<!-- Title: CDEOpt::optimize Pages: 1 -->
<!--zoomable 542 -->

<svg id="main" version="1.1" xmlns="http://www.w3.org/2000/svg" xmlns:xlink="http://www.w3.org/1999/xlink" xml:space="preserve" onload="init(evt)">

<style type="text/css"><![CDATA[
.node, .edge {opacity: 0.7;}
.node.selected, .edge.selected {opacity: 1;}
.edge:hover path { stroke: red; }
.edge:hover polygon { stroke: red; fill: red; }
]]></style>

<defs>
  <circle id="rim" cx="0" cy="0" r="7"/>
  <circle id="rim2" cx="0" cy="0" r="3.5"/>
  <g id="zoomPlus">
    <use xlink:href="#rim" fill="#404040"><set attributeName="fill" to="#808080" begin="zoomplus.mouseover" end="zoomplus.mouseout"/></use>
    <path d="M-4,0h8M0,-4v8" fill="none" stroke="white" stroke-width="1.5" pointer-events="none"/>
  </g>
  <g id="zoomMin">
    <use xlink:href="#rim" fill="#404040"><set attributeName="fill" to="#808080" begin="zoomminus.mouseover" end="zoomminus.mouseout"/></use>
    <path d="M-4,0h8" fill="none" stroke="white" stroke-width="1.5" pointer-events="none"/>
  </g>
  <g id="arrowUp" transform="translate(30 24)">
    <use xlink:href="#rim"/>
    <path pointer-events="none" fill="none" stroke="white" stroke-width="1.5" d="M0,-3.0v7 M-2.5,-0.5L0,-3.0L2.5,-0.5"/>
  </g>
  <g id="arrowRight" transform="rotate(90) translate(36 -43)">
    <use xlink:href="#rim"/>
    <path pointer-events="none" fill="none" stroke="white" stroke-width="1.5" d="M0,-3.0v7 M-2.5,-0.5L0,-3.0L2.5,-0.5"/>
  </g>
  <g id="arrowDown" transform="rotate(180) translate(-30 -48)">
    <use xlink:href="#rim"/>
    <path pointer-events="none" fill="none" stroke="white" stroke-width="1.5" d="M0,-3.0v7 M-2.5,-0.5L0,-3.0L2.5,-0.5"/>
  </g>
  <g id="arrowLeft" transform="rotate(270) translate(-36 17)">
    <use xlink:href="#rim"/>
    <path pointer-events="none" fill="none" stroke="white" stroke-width="1.5" d="M0,-3.0v7 M-2.5,-0.5L0,-3.0L2.5,-0.5"/>
  </g>
  <g id="resetDef">
    <use xlink:href="#rim2" fill="#404040"><set attributeName="fill" to="#808080" begin="reset.mouseover" end="reset.mouseout"/></use>
  </g>
</defs>
<script type="application/ecmascript">
var viewWidth = 522;
var viewHeight = 542;
var sectionId = 'dynsection-3';
</script>
<script type="application/ecmascript" xlink:href="svg.min.js"/>
<svg id="graph" class="graph">
<g id="viewport">
<title>CDEOpt::optimize</title>
<!-- Node1 -->
<g id="Node000001" class="node">
<title>Node1</title>
<g id="a_Node000001"><a xlink:title=" ">
<polygon fill="#999999" stroke="#666666" points="96.25,-289 0,-289 0,-269 96.25,-269 96.25,-289"/>
<text text-anchor="middle" x="48.12" y="-275.5" font-family="Helvetica,sans-Serif" font-size="10.00">CDEOpt::optimize</text>
</a>
</g>
</g>
<!-- Node2 -->
<g id="Node000002" class="node">
<title>Node2</title>
<g id="a_Node000002"><a xlink:href="class_c_bite_pop.html#a57e751582761922bbabff1ddb7af277b" target="_top" xlink:title=" ">
<polygon fill="white" stroke="#666666" points="239.75,-534 134.5,-534 134.5,-502 239.75,-502 239.75,-534"/>
<text text-anchor="start" x="142.5" y="-520.5" font-family="Helvetica,sans-Serif" font-size="10.00">CBitePop&lt; int64_t &gt;</text>
<text text-anchor="middle" x="187.12" y="-508.5" font-family="Helvetica,sans-Serif" font-size="10.00">::copyValues</text>
</a>
</g>
</g>
<!-- Node1&#45;&gt;Node2 -->
<g id="edge1_Node000001_Node000002" class="edge">
<title>Node1&#45;&gt;Node2</title>
<g id="a_edge1_Node000001_Node000002"><a xlink:title=" ">
<path fill="none" stroke="#63b8ff" d="M50.73,-289.42C56.27,-322.32 77.37,-425.5 132.25,-488 134.4,-490.45 136.81,-492.74 139.37,-494.88"/>
<polygon fill="#63b8ff" stroke="#63b8ff" points="137.2,-497.63 147.35,-500.66 141.31,-491.96 137.2,-497.63"/>
</a>
</g>
</g>
<!-- Node3 -->
<g id="Node000003" class="node">
<title>Node3</title>
<g id="a_Node000003"><a xlink:href="class_c_bite_rnd.html#a6ccc0608cbc9080d9509a0e4c483adfe" target="_top" xlink:title=" ">
<polygon fill="white" stroke="#666666" points="372.38,-452 282.12,-452 282.12,-432 372.38,-432 372.38,-452"/>
<text text-anchor="middle" x="327.25" y="-438.5" font-family="Helvetica,sans-Serif" font-size="10.00">CBiteRnd::getBit</text>
</a>
</g>
</g>
<!-- Node1&#45;&gt;Node3 -->
<g id="edge2_Node000001_Node000003" class="edge">
<title>Node1&#45;&gt;Node3</title>
<g id="a_edge2_Node000001_Node000003"><a xlink:title=" ">
<path fill="none" stroke="#63b8ff" d="M50.28,-289.41C54.44,-321.12 71.74,-416.66 132.25,-455 180.31,-485.45 249.18,-470.17 290.62,-456.18"/>
<polygon fill="#63b8ff" stroke="#63b8ff" points="291.61,-459.54 299.87,-452.9 289.27,-452.94 291.61,-459.54"/>
</a>
</g>
</g>
<!-- Node5 -->
<g id="Node000005" class="node">
<title>Node5</title>
<g id="a_Node000005"><a xlink:href="class_c_bite_pop.html#a0053ae41c70babe967c5931f491ea865" target="_top" xlink:title=" ">
<polygon fill="white" stroke="#666666" points="239.75,-446 134.5,-446 134.5,-414 239.75,-414 239.75,-446"/>
<text text-anchor="start" x="142.5" y="-432.5" font-family="Helvetica,sans-Serif" font-size="10.00">CBitePop&lt; int64_t &gt;</text>
<text text-anchor="middle" x="187.12" y="-420.5" font-family="Helvetica,sans-Serif" font-size="10.00">::getCurParams</text>
</a>
</g>
</g>
<!-- Node1&#45;&gt;Node5 -->
<g id="edge4_Node000001_Node000005" class="edge">
<title>Node1&#45;&gt;Node5</title>
<g id="a_edge4_Node000001_Node000005"><a xlink:title=" ">
<path fill="none" stroke="#63b8ff" d="M53.46,-289.19C63.86,-312.55 92.34,-370.62 132.25,-405 133.17,-405.79 134.12,-406.56 135.09,-407.31"/>
<polygon fill="#63b8ff" stroke="#63b8ff" points="132.86,-410.03 143.12,-412.7 136.76,-404.22 132.86,-410.03"/>
</a>
</g>
</g>
<!-- Node6 -->
<g id="Node000006" class="node">
<title>Node6</title>
<g id="a_Node000006"><a xlink:href="class_c_bite_rnd.html#a4e9ad0a5c5e09149a60f849736d8d7ce" target="_top" xlink:title=" ">
<polygon fill="white" stroke="#666666" points="231.88,-396 142.38,-396 142.38,-376 231.88,-376 231.88,-396"/>
<text text-anchor="middle" x="187.12" y="-382.5" font-family="Helvetica,sans-Serif" font-size="10.00">CBiteRnd::getInt</text>
</a>
</g>
</g>
<!-- Node1&#45;&gt;Node6 -->
<g id="edge5_Node000001_Node000006" class="edge">
<title>Node1&#45;&gt;Node6</title>
<g id="a_edge5_Node000001_Node000006"><a xlink:title=" ">
<path fill="none" stroke="#63b8ff" d="M56.38,-289.48C69.51,-307.7 98.95,-345.35 132.25,-367 134.34,-368.36 136.55,-369.64 138.82,-370.84"/>
<polygon fill="#63b8ff" stroke="#63b8ff" points="137.16,-373.93 147.71,-374.94 140.1,-367.57 137.16,-373.93"/>
</a>
</g>
</g>
<!-- Node8 -->
<g id="Node000008" class="node">
<title>Node8</title>
<g id="a_Node000008"><a xlink:href="class_c_bite_pop.html#aaa8e3f180accfedf21218cbed8ffbb79" target="_top" xlink:title=" ">
<polygon fill="white" stroke="#666666" points="239.75,-358 134.5,-358 134.5,-326 239.75,-326 239.75,-358"/>
<text text-anchor="start" x="142.5" y="-344.5" font-family="Helvetica,sans-Serif" font-size="10.00">CBitePop&lt; int64_t &gt;</text>
<text text-anchor="middle" x="187.12" y="-332.5" font-family="Helvetica,sans-Serif" font-size="10.00">::getParamsOrdered</text>
</a>
</g>
</g>
<!-- Node1&#45;&gt;Node8 -->
<g id="edge8_Node000001_Node000008" class="edge">
<title>Node1&#45;&gt;Node8</title>
<g id="a_edge8_Node000001_Node000008"><a xlink:title=" ">
<path fill="none" stroke="#63b8ff" d="M71.75,-289.4C90.27,-297.92 117.07,-310.24 140.07,-320.82"/>
<polygon fill="#63b8ff" stroke="#63b8ff" points="138.41,-323.91 148.95,-324.91 141.33,-317.55 138.41,-323.91"/>
</a>
</g>
</g>
<!-- Node9 -->
<g id="Node000009" class="node">
<title>Node9</title>
<g id="a_Node000009"><a xlink:href="class_c_bite_rnd.html#adca97316ecce595b9175815493f7a3a2" target="_top" xlink:title=" ">
<polygon fill="white" stroke="#666666" points="241.62,-308 132.62,-308 132.62,-288 241.62,-288 241.62,-308"/>
<text text-anchor="middle" x="187.12" y="-294.5" font-family="Helvetica,sans-Serif" font-size="10.00">CBiteRnd::getPowInt</text>
</a>
</g>
</g>
<!-- Node1&#45;&gt;Node9 -->
<g id="edge9_Node000001_Node000009" class="edge">
<title>Node1&#45;&gt;Node9</title>
<g id="a_edge9_Node000001_Node000009"><a xlink:title=" ">
<path fill="none" stroke="#63b8ff" d="M96.66,-285.59C104.63,-286.7 113.02,-287.86 121.33,-289.01"/>
<polygon fill="#63b8ff" stroke="#63b8ff" points="120.69,-292.46 131.08,-290.37 121.66,-285.53 120.69,-292.46"/>
</a>
</g>
</g>
<!-- Node11 -->
<g id="Node000011" class="node">
<title>Node11</title>
<g id="a_Node000011"><a xlink:href="class_c_bite_rnd.html#a6e9234ff0489b0d3d38ef71be159b34d" target="_top" xlink:title=" ">
<polygon fill="white" stroke="#666666" points="376.5,-295 278,-295 278,-275 376.5,-275 376.5,-295"/>
<text text-anchor="middle" x="327.25" y="-281.5" font-family="Helvetica,sans-Serif" font-size="10.00">CBiteRnd::getRaw</text>
</a>
</g>
</g>
<!-- Node1&#45;&gt;Node11 -->
<g id="edge12_Node000001_Node000011" class="edge">
<title>Node1&#45;&gt;Node11</title>
<g id="a_edge12_Node000001_Node000011"><a xlink:title=" ">
<path fill="none" stroke="#63b8ff" d="M96.7,-278.06C135.75,-277.51 192.47,-277.24 242,-279 249.87,-279.28 258.14,-279.71 266.31,-280.21"/>
<polygon fill="#63b8ff" stroke="#63b8ff" points="266,-283.69 276.21,-280.85 266.46,-276.71 266,-283.69"/>
</a>
</g>
</g>
<!-- Node12 -->
<g id="Node000012" class="node">
<title>Node12</title>
<g id="a_Node000012"><a xlink:href="class_c_bite_opt_base.html#a7b849dbede3dc6be555a4197541fad51" target="_top" xlink:title=" ">
<polygon fill="white" stroke="#666666" points="241.62,-232 132.62,-232 132.62,-200 241.62,-200 241.62,-232"/>
<text text-anchor="start" x="140.62" y="-218.5" font-family="Helvetica,sans-Serif" font-size="10.00">CBiteOptBase&lt; int64</text>
<text text-anchor="middle" x="187.12" y="-206.5" font-family="Helvetica,sans-Serif" font-size="10.00">_t &gt;::getRealValue</text>
</a>
</g>
</g>
<!-- Node1&#45;&gt;Node12 -->
<g id="edge14_Node000001_Node000012" class="edge">
<title>Node1&#45;&gt;Node12</title>
<g id="a_edge14_Node000001_Node000012"><a xlink:title=" ">
<path fill="none" stroke="#63b8ff" d="M71.75,-268.6C90.27,-260.08 117.07,-247.76 140.07,-237.18"/>
<polygon fill="#63b8ff" stroke="#63b8ff" points="141.33,-240.45 148.95,-233.09 138.41,-234.09 141.33,-240.45"/>
</a>
</g>
</g>
<!-- Node13 -->
<g id="Node000013" class="node">
<title>Node13</title>
<g id="a_Node000013"><a xlink:href="class_c_bite_opt_interface.html#a45d7e2c9ea31b6f8bb23758a6879df9d" target="_top" xlink:title=" ">
<polygon fill="white" stroke="#666666" points="237.5,-182 136.75,-182 136.75,-150 237.5,-150 237.5,-182"/>
<text text-anchor="start" x="144.75" y="-168.5" font-family="Helvetica,sans-Serif" font-size="10.00">CBiteOptInterface::</text>
<text text-anchor="middle" x="187.12" y="-156.5" font-family="Helvetica,sans-Serif" font-size="10.00">optcost</text>
</a>
</g>
</g>
<!-- Node1&#45;&gt;Node13 -->
<g id="edge15_Node000001_Node000013" class="edge">
<title>Node1&#45;&gt;Node13</title>
<g id="a_edge15_Node000001_Node000013"><a xlink:title=" ">
<path fill="none" stroke="#63b8ff" d="M56.82,-268.56C70.39,-250.73 100.19,-214.09 132.25,-191 133.61,-190.02 135.01,-189.07 136.45,-188.13"/>
<polygon fill="#63b8ff" stroke="#63b8ff" points="138.14,-191.2 145,-183.12 134.6,-185.16 138.14,-191.2"/>
</a>
</g>
</g>
<!-- Node14 -->
<g id="Node000014" class="node">
<title>Node14</title>
<g id="a_Node000014"><a xlink:href="class_c_bite_opt_base.html#a9e49b98f5f6a2470d060282b2fd26a53" target="_top" xlink:title=" ">
<polygon fill="white" stroke="#666666" points="242,-132 132.25,-132 132.25,-100 242,-100 242,-132"/>
<text text-anchor="start" x="140.25" y="-118.5" font-family="Helvetica,sans-Serif" font-size="10.00">CBiteOptBase&lt; int64</text>
<text text-anchor="middle" x="187.12" y="-106.5" font-family="Helvetica,sans-Serif" font-size="10.00">_t &gt;::updateBestCost</text>
</a>
</g>
</g>
<!-- Node1&#45;&gt;Node14 -->
<g id="edge16_Node000001_Node000014" class="edge">
<title>Node1&#45;&gt;Node14</title>
<g id="a_edge16_Node000001_Node000014"><a xlink:title=" ">
<path fill="none" stroke="#63b8ff" d="M52.91,-268.58C62.49,-243.48 90,-178.93 132.25,-141 133.02,-140.31 133.82,-139.63 134.63,-138.97"/>
<polygon fill="#63b8ff" stroke="#63b8ff" points="136.52,-141.92 142.73,-133.34 132.52,-136.17 136.52,-141.92"/>
</a>
</g>
</g>
<!-- Node15 -->
<g id="Node000015" class="node">
<title>Node15</title>
<g id="a_Node000015"><a xlink:href="class_c_bite_pop.html#aad999ddc8a2ed72ffaee0db7732c9f76" target="_top" xlink:title=" ">
<polygon fill="white" stroke="#666666" points="239.75,-82 134.5,-82 134.5,-50 239.75,-50 239.75,-82"/>
<text text-anchor="start" x="142.5" y="-68.5" font-family="Helvetica,sans-Serif" font-size="10.00">CBitePop&lt; int64_t &gt;</text>
<text text-anchor="middle" x="187.12" y="-56.5" font-family="Helvetica,sans-Serif" font-size="10.00">::updatePop</text>
</a>
</g>
</g>
<!-- Node1&#45;&gt;Node15 -->
<g id="edge17_Node000001_Node000015" class="edge">
<title>Node1&#45;&gt;Node15</title>
<g id="a_edge17_Node000001_Node000015"><a xlink:title=" ">
<path fill="none" stroke="#63b8ff" d="M51.04,-268.6C57.23,-237.6 79.49,-144.73 132.25,-91 132.85,-90.39 133.46,-89.8 134.09,-89.22"/>
<polygon fill="#63b8ff" stroke="#63b8ff" points="136.01,-92.16 141.82,-83.3 131.75,-86.6 136.01,-92.16"/>
</a>
</g>
</g>
<!-- Node16 -->
<g id="Node000016" class="node">
<title>Node16</title>
<g id="a_Node000016"><a xlink:href="class_c_bite_pop.html#a3b7e8d2276455475bd761e29c8c72ac6" target="_top" xlink:title=" ">
<polygon fill="white" stroke="#666666" points="239.75,-32 134.5,-32 134.5,0 239.75,0 239.75,-32"/>
<text text-anchor="start" x="142.5" y="-18.5" font-family="Helvetica,sans-Serif" font-size="10.00">CBitePop&lt; int64_t &gt;</text>
<text text-anchor="middle" x="187.12" y="-6.5" font-family="Helvetica,sans-Serif" font-size="10.00">::wrapParam</text>
</a>
</g>
</g>
<!-- Node1&#45;&gt;Node16 -->
<g id="edge18_Node000001_Node000016" class="edge">
<title>Node1&#45;&gt;Node16</title>
<g id="a_edge18_Node000001_Node000016"><a xlink:title=" ">
<path fill="none" stroke="#63b8ff" d="M49.93,-268.52C53.24,-232.33 68.77,-111.06 132.25,-41 132.61,-40.6 132.98,-40.2 133.36,-39.81"/>
<polygon fill="#63b8ff" stroke="#63b8ff" points="135.59,-42.52 141.06,-33.44 131.12,-37.13 135.59,-42.52"/>
</a>
</g>
</g>
<!-- Node4 -->
<g id="Node000004" class="node">
<title>Node4</title>
<g id="a_Node000004"><a xlink:href="class_c_bite_rnd.html#ae1167f8ecac85f268ced4bc1d2fa953b" target="_top" xlink:title=" ">
<polygon fill="white" stroke="#666666" points="514,-352 412.5,-352 412.5,-332 514,-332 514,-352"/>
<text text-anchor="middle" x="463.25" y="-338.5" font-family="Helvetica,sans-Serif" font-size="10.00">CBiteRnd::advance</text>
</a>
</g>
</g>
<!-- Node3&#45;&gt;Node4 -->
<g id="edge3_Node000003_Node000004" class="edge">
<title>Node3&#45;&gt;Node4</title>
<g id="a_edge3_Node000003_Node000004"><a xlink:title=" ">
<path fill="none" stroke="#63b8ff" d="M342.09,-431.67C365.06,-414.53 411.29,-380.03 439.24,-359.18"/>
<polygon fill="#63b8ff" stroke="#63b8ff" points="441.15,-362.11 447.08,-353.32 436.97,-356.5 441.15,-362.11"/>
</a>
</g>
</g>
<!-- Node7 -->
<g id="Node000007" class="node">
<title>Node7</title>
<g id="a_Node000007"><a xlink:href="class_c_bite_rnd.html#afdb77334884f1a612780def0dec0a326" target="_top" xlink:title=" ">
<polygon fill="white" stroke="#666666" points="366.38,-383 288.12,-383 288.12,-363 366.38,-363 366.38,-383"/>
<text text-anchor="middle" x="327.25" y="-369.5" font-family="Helvetica,sans-Serif" font-size="10.00">CBiteRnd::get</text>
</a>
</g>
</g>
<!-- Node6&#45;&gt;Node7 -->
<g id="edge6_Node000006_Node000007" class="edge">
<title>Node6&#45;&gt;Node7</title>
<g id="a_edge6_Node000006_Node000007"><a xlink:title=" ">
<path fill="none" stroke="#63b8ff" d="M232.21,-381.85C246.29,-380.53 261.97,-379.05 276.43,-377.69"/>
<polygon fill="#63b8ff" stroke="#63b8ff" points="276.57,-381.19 286.2,-376.77 275.91,-374.22 276.57,-381.19"/>
</a>
</g>
</g>
<!-- Node7&#45;&gt;Node4 -->
<g id="edge7_Node000007_Node000004" class="edge">
<title>Node7&#45;&gt;Node4</title>
<g id="a_edge7_Node000007_Node000004"><a xlink:title=" ">
<path fill="none" stroke="#63b8ff" d="M366.65,-364.12C378.97,-361.27 392.89,-358.05 406.21,-354.96"/>
<polygon fill="#63b8ff" stroke="#63b8ff" points="406.79,-358.42 415.74,-352.76 405.21,-351.6 406.79,-358.42"/>
</a>
</g>
</g>
<!-- Node10 -->
<g id="Node000010" class="node">
<title>Node10</title>
<g id="a_Node000010"><a xlink:href="class_c_bite_rnd.html#aa4c960b792982f495cc19c04ad9c2705" target="_top" xlink:title=" ">
<polygon fill="white" stroke="#666666" points="376.12,-333 278.38,-333 278.38,-313 376.12,-313 376.12,-333"/>
<text text-anchor="middle" x="327.25" y="-319.5" font-family="Helvetica,sans-Serif" font-size="10.00">CBiteRnd::getPow</text>
</a>
</g>
</g>
<!-- Node9&#45;&gt;Node10 -->
<g id="edge10_Node000009_Node000010" class="edge">
<title>Node9&#45;&gt;Node10</title>
<g id="a_edge10_Node000009_Node000010"><a xlink:title=" ">
<path fill="none" stroke="#63b8ff" d="M241.92,-307.74C250.15,-309.23 258.68,-310.77 267.02,-312.28"/>
<polygon fill="#63b8ff" stroke="#63b8ff" points="266.27,-315.7 276.73,-314.04 267.52,-308.81 266.27,-315.7"/>
</a>
</g>
</g>
<!-- Node10&#45;&gt;Node4 -->
<g id="edge11_Node000010_Node000004" class="edge">
<title>Node10&#45;&gt;Node4</title>
<g id="a_edge11_Node000010_Node000004"><a xlink:title=" ">
<path fill="none" stroke="#63b8ff" d="M376.25,-329.81C384.3,-330.95 392.76,-332.15 401.09,-333.33"/>
<polygon fill="#63b8ff" stroke="#63b8ff" points="400.44,-336.77 410.83,-334.71 401.42,-329.84 400.44,-336.77"/>
</a>
</g>
</g>
<!-- Node11&#45;&gt;Node4 -->
<g id="edge13_Node000011_Node000004" class="edge">
<title>Node11&#45;&gt;Node4</title>
<g id="a_edge13_Node000011_Node000004"><a xlink:title=" ">
<path fill="none" stroke="#63b8ff" d="M355.38,-295.45C362.29,-298.18 369.69,-301.15 376.5,-304 393.95,-311.3 413.23,-319.8 429.08,-326.91"/>
<polygon fill="#63b8ff" stroke="#63b8ff" points="427.5,-330.04 438.05,-330.95 430.37,-323.66 427.5,-330.04"/>
</a>
</g>
</g>
</g>
</svg>

<g id="navigator" transform="translate(0 0)" fill="#404254">
  <rect fill="#f2f5e9" fill-opacity="0.5" stroke="#606060" stroke-width=".5" x="0" y="0" width="60" height="60"/>
  <use id="zoomplus" xlink:href="#zoomPlus" x="17" y="9" onmousedown="handleZoom(evt,'in')"/>
  <use id="zoomminus" xlink:href="#zoomMin" x="42" y="9" onmousedown="handleZoom(evt,'out')"/>
  <use id="reset" xlink:href="#resetDef" x="30" y="36" onmousedown="handleReset()"/>
   <use id="arrowup" xlink:href="#arrowUp" x="0" y="0" onmousedown="handlePan(0,-1)"/>
  <use id="arrowright" xlink:href="#arrowRight" x="0" y="0" onmousedown="handlePan(1,0)"/>
  <use id="arrowdown" xlink:href="#arrowDown" x="0" y="0" onmousedown="handlePan(0,1)"/>
  <use id="arrowleft" xlink:href="#arrowLeft" x="0" y="0" onmousedown="handlePan(-1,0)"/>
</g>
<svg viewBox="0 0 15 15" width="100%" height="30px" preserveAspectRatio="xMaxYMin meet">
 <g id="arrow_out" transform="scale(0.3 0.3)">
  <a xlink:href="class_c_d_e_opt_a819e3692005dd630f7bc83d4444e23ee_cgraph_org.svg" target="_base">
   <rect id="button" ry="5" rx="5" y="6" x="6" height="38" width="38"
        fill="#f2f5e9" fill-opacity="0.5" stroke="#606060" stroke-width="1.0"/>
   <path id="arrow"
     d="M 11.500037,31.436501 C 11.940474,20.09759 22.043105,11.32322 32.158766,21.979434 L 37.068811,17.246167 C 37.068811,17.246167 37.088388,32 37.088388,32 L 22.160133,31.978069 C 22.160133,31.978069 26.997745,27.140456 26.997745,27.140456 C 18.528582,18.264221 13.291696,25.230495 11.500037,31.436501 z"
     style="fill:#404040;"/>
  </a>
 </g>
</svg>

<style type='text/css'>
<![CDATA[
[data-mouse-over-selected='false'] { opacity: 0.7; }
[data-mouse-over-selected='true']  { opacity: 1.0; }
]]>
</style>
<script type="application/ecmascript"><![CDATA[
document.addEventListener('DOMContentLoaded', (event) => {
  highlightEdges();
  highlightAdjacentNodes();
});
]]></script>
</svg>
