<?xml version="1.0" encoding="UTF-8" standalone="no"?>
<!DOCTYPE svg PUBLIC "-//W3C//DTD SVG 1.1//EN"
 "http://www.w3.org/Graphics/SVG/1.1/DTD/svg11.dtd">
<!-- Generated by graphviz version 12.2.1 (20241206.2353)
 -->
<!-- Title: CBiteRnd::getInt Pages: 1 -->
<svg width="349pt" height="28pt"
 viewBox="0.00 0.00 349.25 28.00" xmlns="http://www.w3.org/2000/svg" xmlns:xlink="http://www.w3.org/1999/xlink">
<g id="graph0" class="graph" transform="scale(1 1) rotate(0) translate(4 24)">
<title>CBiteRnd::getInt</title>
<!-- Node1 -->
<g id="Node000001" class="node">
<title>Node1</title>
<g id="a_Node000001"><a xlink:title=" ">
<polygon fill="#999999" stroke="#666666" points="89.5,-20 0,-20 0,0 89.5,0 89.5,-20"/>
<text text-anchor="middle" x="44.75" y="-6.5" font-family="Helvetica,sans-Serif" font-size="10.00">CBiteRnd::getInt</text>
</a>
</g>
</g>
<!-- Node2 -->
<g id="Node000002" class="node">
<title>Node2</title>
<g id="a_Node000002"><a xlink:href="class_c_bite_rnd.html#afdb77334884f1a612780def0dec0a326" target="_top" xlink:title=" ">
<polygon fill="white" stroke="#666666" points="203.75,-20 125.5,-20 125.5,0 203.75,0 203.75,-20"/>
<text text-anchor="middle" x="164.62" y="-6.5" font-family="Helvetica,sans-Serif" font-size="10.00">CBiteRnd::get</text>
</a>
</g>
</g>
<!-- Node1&#45;&gt;Node2 -->
<g id="edge1_Node000001_Node000002" class="edge">
<title>Node1&#45;&gt;Node2</title>
<g id="a_edge1_Node000001_Node000002"><a xlink:title=" ">
<path fill="none" stroke="#63b8ff" d="M89.98,-10C97.79,-10 105.97,-10 113.92,-10"/>
<polygon fill="#63b8ff" stroke="#63b8ff" points="113.82,-13.5 123.82,-10 113.82,-6.5 113.82,-13.5"/>
</a>
</g>
</g>
<!-- Node3 -->
<g id="Node000003" class="node">
<title>Node3</title>
<g id="a_Node000003"><a xlink:href="class_c_bite_rnd.html#ae1167f8ecac85f268ced4bc1d2fa953b" target="_top" xlink:title=" ">
<polygon fill="white" stroke="#666666" points="341.25,-20 239.75,-20 239.75,0 341.25,0 341.25,-20"/>
<text text-anchor="middle" x="290.5" y="-6.5" font-family="Helvetica,sans-Serif" font-size="10.00">CBiteRnd::advance</text>
</a>
</g>
</g>
<!-- Node2&#45;&gt;Node3 -->
<g id="edge2_Node000002_Node000003" class="edge">
<title>Node2&#45;&gt;Node3</title>
<g id="a_edge2_Node000002_Node000003"><a xlink:title=" ">
<path fill="none" stroke="#63b8ff" d="M204.14,-10C211.77,-10 219.95,-10 228.12,-10"/>
<polygon fill="#63b8ff" stroke="#63b8ff" points="228.09,-13.5 238.09,-10 228.09,-6.5 228.09,-13.5"/>
</a>
</g>
</g>
</g>
</svg>
