<?xml version="1.0" encoding="UTF-8" standalone="no"?>
<!DOCTYPE svg PUBLIC "-//W3C//DTD SVG 1.1//EN"
 "http://www.w3.org/Graphics/SVG/1.1/DTD/svg11.dtd">
<!-- Generated by graphviz version 12.2.1 (20241206.2353)
 -->
<!-- Title: fcmaes.mapelites.Archive.random_xs_one Pages: 1 -->
<svg width="366pt" height="308pt"
 viewBox="0.00 0.00 366.25 308.00" xmlns="http://www.w3.org/2000/svg" xmlns:xlink="http://www.w3.org/1999/xlink">
<g id="graph0" class="graph" transform="scale(1 1) rotate(0) translate(4 304)">
<title>fcmaes.mapelites.Archive.random_xs_one</title>
<!-- Node1 -->
<g id="Node000001" class="node">
<title>Node1</title>
<g id="a_Node000001"><a xlink:title="Selects and retrieves random elements based on the given range and size.">
<polygon fill="#999999" stroke="#666666" points="164.5,-124 0,-124 0,-92 164.5,-92 164.5,-124"/>
<text text-anchor="start" x="8" y="-110.5" font-family="Helvetica,sans-Serif" font-size="10.00">fcmaes.mapelites.Archive.random</text>
<text text-anchor="middle" x="82.25" y="-98.5" font-family="Helvetica,sans-Serif" font-size="10.00">_xs_one</text>
</a>
</g>
</g>
<!-- Node2 -->
<g id="Node000002" class="node">
<title>Node2</title>
<g id="a_Node000002"><a xlink:href="classexamples_1_1kepler_1_1lambert_1_1lambert__problem__multirev.html#acb524881ce41e73025559fa7ffc00715" target="_top" xlink:title=" ">
<polygon fill="white" stroke="#666666" points="358.25,-282 200.5,-282 200.5,-250 358.25,-250 358.25,-282"/>
<text text-anchor="start" x="208.5" y="-268.5" font-family="Helvetica,sans-Serif" font-size="10.00">examples.kepler.lambert.lambert</text>
<text text-anchor="middle" x="279.38" y="-256.5" font-family="Helvetica,sans-Serif" font-size="10.00">_problem_multirev.get_x</text>
</a>
</g>
</g>
<!-- Node1&#45;&gt;Node2 -->
<g id="edge1_Node000001_Node000002" class="edge">
<title>Node1&#45;&gt;Node2</title>
<g id="a_edge1_Node000001_Node000002"><a xlink:title=" ">
<path fill="none" stroke="#63b8ff" d="M93.42,-124.46C111.54,-152.44 152.08,-209.31 200.5,-241 202.37,-242.22 204.31,-243.39 206.29,-244.51"/>
<polygon fill="#63b8ff" stroke="#63b8ff" points="204.7,-247.62 215.21,-248.97 207.83,-241.36 204.7,-247.62"/>
</a>
</g>
</g>
<!-- Node3 -->
<g id="Node000003" class="node">
<title>Node3</title>
<g id="a_Node000003"><a xlink:href="classexamples_1_1kepler_1_1lambert_1_1lambert__problem__multirev__ga.html#a0683a879c52988d0039d1867bdfdc56b" target="_top" xlink:title=" ">
<polygon fill="white" stroke="#666666" points="358.25,-214 200.5,-214 200.5,-182 358.25,-182 358.25,-214"/>
<text text-anchor="start" x="208.5" y="-200.5" font-family="Helvetica,sans-Serif" font-size="10.00">examples.kepler.lambert.lambert</text>
<text text-anchor="middle" x="279.38" y="-188.5" font-family="Helvetica,sans-Serif" font-size="10.00">_problem_multirev_ga.get_x</text>
</a>
</g>
</g>
<!-- Node1&#45;&gt;Node3 -->
<g id="edge3_Node000001_Node000003" class="edge">
<title>Node1&#45;&gt;Node3</title>
<g id="a_edge3_Node000001_Node000003"><a xlink:title=" ">
<path fill="none" stroke="#63b8ff" d="M109.05,-124.23C132.32,-138.4 167.82,-158.86 200.5,-173 204.24,-174.62 208.12,-176.19 212.06,-177.7"/>
<polygon fill="#63b8ff" stroke="#63b8ff" points="210.56,-180.88 221.16,-181.03 212.97,-174.31 210.56,-180.88"/>
</a>
</g>
</g>
<!-- Node4 -->
<g id="Node000004" class="node">
<title>Node4</title>
<g id="a_Node000004"><a xlink:href="classexamples_1_1kepler_1_1lambert_1_1lambert__problem__stochastic.html#ae1b904d6fedd51f7e642c4e3efe5d69a" target="_top" xlink:title=" ">
<polygon fill="white" stroke="#666666" points="358.25,-146 200.5,-146 200.5,-114 358.25,-114 358.25,-146"/>
<text text-anchor="start" x="208.5" y="-132.5" font-family="Helvetica,sans-Serif" font-size="10.00">examples.kepler.lambert.lambert</text>
<text text-anchor="middle" x="279.38" y="-120.5" font-family="Helvetica,sans-Serif" font-size="10.00">_problem_stochastic.get_x</text>
</a>
</g>
</g>
<!-- Node1&#45;&gt;Node4 -->
<g id="edge5_Node000001_Node000004" class="edge">
<title>Node1&#45;&gt;Node4</title>
<g id="a_edge5_Node000001_Node000004"><a xlink:title=" ">
<path fill="none" stroke="#63b8ff" d="M164.87,-117.2C172.82,-118.1 180.91,-119.01 188.94,-119.92"/>
<polygon fill="#63b8ff" stroke="#63b8ff" points="188.37,-123.37 198.7,-121.02 189.16,-116.42 188.37,-123.37"/>
</a>
</g>
</g>
<!-- Node5 -->
<g id="Node000005" class="node">
<title>Node5</title>
<g id="a_Node000005"><a xlink:href="classfcmaes_1_1advretry_1_1_store.html#a97e407315b2e0c802b9d5b4414f3f91b" target="_top" xlink:title="Retrieves a segment of the xs array corresponding to the provided pid.">
<polygon fill="white" stroke="#666666" points="348.88,-96 209.88,-96 209.88,-76 348.88,-76 348.88,-96"/>
<text text-anchor="middle" x="279.38" y="-82.5" font-family="Helvetica,sans-Serif" font-size="10.00">fcmaes.advretry.Store.get_x</text>
</a>
</g>
</g>
<!-- Node1&#45;&gt;Node5 -->
<g id="edge7_Node000001_Node000005" class="edge">
<title>Node1&#45;&gt;Node5</title>
<g id="a_edge7_Node000001_Node000005"><a xlink:title=" ">
<path fill="none" stroke="#63b8ff" d="M164.87,-98.8C175.88,-97.56 187.16,-96.28 198.14,-95.05"/>
<polygon fill="#63b8ff" stroke="#63b8ff" points="198.4,-98.54 207.95,-93.94 197.62,-91.58 198.4,-98.54"/>
</a>
</g>
</g>
<!-- Node6 -->
<g id="Node000006" class="node">
<title>Node6</title>
<g id="a_Node000006"><a xlink:href="classfcmaes_1_1advretry_1_1_store.html#a907617cde0def7276f1f609d7690335f" target="_top" xlink:title="Fetches a value for a given ID from a dictionary of float values.">
<polygon fill="white" stroke="#666666" points="348.88,-58 209.88,-58 209.88,-38 348.88,-38 348.88,-58"/>
<text text-anchor="middle" x="279.38" y="-44.5" font-family="Helvetica,sans-Serif" font-size="10.00">fcmaes.advretry.Store.get_y</text>
</a>
</g>
</g>
<!-- Node1&#45;&gt;Node6 -->
<g id="edge8_Node000001_Node000006" class="edge">
<title>Node1&#45;&gt;Node6</title>
<g id="a_edge8_Node000001_Node000006"><a xlink:title=" ">
<path fill="none" stroke="#63b8ff" d="M127.18,-91.5C149.06,-83.58 176,-74.25 200.5,-67 207.24,-65 214.36,-63.06 221.44,-61.21"/>
<polygon fill="#63b8ff" stroke="#63b8ff" points="222.17,-64.64 231,-58.79 220.45,-57.85 222.17,-64.64"/>
</a>
</g>
</g>
<!-- Node7 -->
<g id="Node000007" class="node">
<title>Node7</title>
<g id="a_Node000007"><a xlink:href="classfcmaes_1_1mapelites_1_1_archive.html#ac9390a3bfd798bdb09d79476ed6c6584" target="_top" xlink:title="Retrieves the y&#45;coordinate value at a given index from the list of y&#45;values.">
<polygon fill="white" stroke="#666666" points="357.5,-20 201.25,-20 201.25,0 357.5,0 357.5,-20"/>
<text text-anchor="middle" x="279.38" y="-6.5" font-family="Helvetica,sans-Serif" font-size="10.00">fcmaes.mapelites.Archive.get_y</text>
</a>
</g>
</g>
<!-- Node1&#45;&gt;Node7 -->
<g id="edge9_Node000001_Node000007" class="edge">
<title>Node1&#45;&gt;Node7</title>
<g id="a_edge9_Node000001_Node000007"><a xlink:title=" ">
<path fill="none" stroke="#63b8ff" d="M102.72,-91.68C125,-73.8 163.23,-45.47 200.5,-29 204.8,-27.1 209.31,-25.37 213.92,-23.8"/>
<polygon fill="#63b8ff" stroke="#63b8ff" points="214.81,-27.19 223.31,-20.87 212.73,-20.51 214.81,-27.19"/>
</a>
</g>
</g>
<!-- Node2&#45;&gt;Node2 -->
<g id="edge2_Node000002_Node000002" class="edge">
<title>Node2&#45;&gt;Node2</title>
<g id="a_edge2_Node000002_Node000002"><a xlink:title=" ">
<path fill="none" stroke="#63b8ff" d="M244.18,-282.44C237.61,-291.58 249.34,-300 279.38,-300 295.8,-300 306.75,-297.48 312.23,-293.71"/>
<polygon fill="#63b8ff" stroke="#63b8ff" points="315.65,-294.43 314.26,-283.92 308.8,-293 315.65,-294.43"/>
</a>
</g>
</g>
<!-- Node3&#45;&gt;Node3 -->
<g id="edge4_Node000003_Node000003" class="edge">
<title>Node3&#45;&gt;Node3</title>
<g id="a_edge4_Node000003_Node000003"><a xlink:title=" ">
<path fill="none" stroke="#63b8ff" d="M244.18,-214.44C237.61,-223.58 249.34,-232 279.38,-232 295.8,-232 306.75,-229.48 312.23,-225.71"/>
<polygon fill="#63b8ff" stroke="#63b8ff" points="315.65,-226.43 314.26,-215.92 308.8,-225 315.65,-226.43"/>
</a>
</g>
</g>
<!-- Node4&#45;&gt;Node4 -->
<g id="edge6_Node000004_Node000004" class="edge">
<title>Node4&#45;&gt;Node4</title>
<g id="a_edge6_Node000004_Node000004"><a xlink:title=" ">
<path fill="none" stroke="#63b8ff" d="M244.18,-146.44C237.61,-155.58 249.34,-164 279.38,-164 295.8,-164 306.75,-161.48 312.23,-157.71"/>
<polygon fill="#63b8ff" stroke="#63b8ff" points="315.65,-158.43 314.26,-147.92 308.8,-157 315.65,-158.43"/>
</a>
</g>
</g>
</g>
</svg>
