<?xml version="1.0" encoding="UTF-8" standalone="no"?>
<!DOCTYPE svg PUBLIC "-//W3C//DTD SVG 1.1//EN"
 "http://www.w3.org/Graphics/SVG/1.1/DTD/svg11.dtd">
<!-- Generated by graphviz version 12.2.1 (20241206.2353)
 -->
<!-- Title: fcmaes.cmaes.Cmaes.tell Pages: 1 -->
<svg width="344pt" height="304pt"
 viewBox="0.00 0.00 343.75 304.00" xmlns="http://www.w3.org/2000/svg" xmlns:xlink="http://www.w3.org/1999/xlink">

<svg id="main" version="1.1" xmlns="http://www.w3.org/2000/svg" xmlns:xlink="http://www.w3.org/1999/xlink" xml:space="preserve">

<style type="text/css"><![CDATA[
.node, .edge {opacity: 0.7;}
.node.selected, .edge.selected {opacity: 1;}
.edge:hover path { stroke: red; }
.edge:hover polygon { stroke: red; fill: red; }
]]></style>
<script type="application/ecmascript" xlink:href="svg.min.js"/>
<svg id="graph" class="graph">
<g id="graph0" class="graph" transform="scale(1 1) rotate(0) translate(4 300)">
<title>fcmaes.cmaes.Cmaes.tell</title>
<!-- Node1 -->
<g id="Node000001" class="node">
<title>Node1</title>
<g id="a_Node000001"><a xlink:title="Processes the input function values and updates the internal state of the CMA&#45;ES algorithm.">
<polygon fill="#999999" stroke="#666666" points="335.75,-170 205,-170 205,-150 335.75,-150 335.75,-170"/>
<text text-anchor="middle" x="270.38" y="-156.5" font-family="Helvetica,sans-Serif" font-size="10.00">fcmaes.cmaes.Cmaes.tell</text>
</a>
</g>
</g>
<!-- Node2 -->
<g id="Node000002" class="node">
<title>Node2</title>
<g id="a_Node000002"><a xlink:href="classfcmaes_1_1cmaes_1_1_cmaes.html#a974188898932b9c2ecacb33387c08fd8" target="_top" xlink:title="Performs an optimization process within a generation loop until termination conditions are met.">
<polygon fill="white" stroke="#666666" points="168.25,-296 0.75,-296 0.75,-276 168.25,-276 168.25,-296"/>
<text text-anchor="middle" x="84.5" y="-282.5" font-family="Helvetica,sans-Serif" font-size="10.00">fcmaes.cmaes.Cmaes.doOptimize</text>
</a>
</g>
</g>
<!-- Node1&#45;&gt;Node2 -->
<g id="edge1_Node000001_Node000002" class="edge">
<title>Node1&#45;&gt;Node2</title>
<g id="a_edge1_Node000001_Node000002"><a xlink:title=" ">
<path fill="none" stroke="#63b8ff" d="M256.43,-179.8C239.39,-204.22 207.09,-245.16 169,-267 162.94,-270.48 156.29,-273.31 149.47,-275.63"/>
<polygon fill="#63b8ff" stroke="#63b8ff" points="259.21,-181.95 261.93,-171.71 253.42,-178.02 259.21,-181.95"/>
</a>
</g>
</g>
<!-- Node3 -->
<g id="Node000003" class="node">
<title>Node3</title>
<g id="a_Node000003"><a xlink:href="classfcmaes_1_1mode_1_1_m_o_d_e.html#a6f479d982825465b97c89e528351bf36" target="_top" xlink:title="Minimizes the given multi&#45;objective function in parallel, using a specified number of workers and an ...">
<polygon fill="white" stroke="#666666" points="169,-258 0,-258 0,-238 169,-238 169,-258"/>
<text text-anchor="middle" x="84.5" y="-244.5" font-family="Helvetica,sans-Serif" font-size="10.00">fcmaes.mode.MODE.minimize_par</text>
</a>
</g>
</g>
<!-- Node1&#45;&gt;Node3 -->
<g id="edge2_Node000001_Node000003" class="edge">
<title>Node1&#45;&gt;Node3</title>
<g id="a_edge2_Node000001_Node000003"><a xlink:title=" ">
<path fill="none" stroke="#63b8ff" d="M248.79,-177.65C229.42,-193.37 198.99,-215.86 169,-229 161.24,-232.4 152.79,-235.23 144.35,-237.57"/>
<polygon fill="#63b8ff" stroke="#63b8ff" points="250.98,-180.39 256.44,-171.31 246.51,-175 250.98,-180.39"/>
</a>
</g>
</g>
<!-- Node4 -->
<g id="Node000004" class="node">
<title>Node4</title>
<g id="a_Node000004"><a xlink:href="classfcmaes_1_1modecpp_1_1_m_o_d_e___c.html#a672b403a7e745d9e69532454f32d2b62" target="_top" xlink:title="Run a parallel multi&#45;objective optimization process.">
<polygon fill="white" stroke="#666666" points="146.5,-220 22.5,-220 22.5,-188 146.5,-188 146.5,-220"/>
<text text-anchor="start" x="30.5" y="-206.5" font-family="Helvetica,sans-Serif" font-size="10.00">fcmaes.modecpp.MODE</text>
<text text-anchor="middle" x="84.5" y="-194.5" font-family="Helvetica,sans-Serif" font-size="10.00">_C.minimize_par</text>
</a>
</g>
</g>
<!-- Node1&#45;&gt;Node4 -->
<g id="edge3_Node000001_Node000004" class="edge">
<title>Node1&#45;&gt;Node4</title>
<g id="a_edge3_Node000001_Node000004"><a xlink:title=" ">
<path fill="none" stroke="#63b8ff" d="M214.64,-173.1C193.32,-178.2 168.77,-184.07 146.85,-189.32"/>
<polygon fill="#63b8ff" stroke="#63b8ff" points="215.42,-176.51 224.33,-170.78 213.79,-169.7 215.42,-176.51"/>
</a>
</g>
</g>
<!-- Node5 -->
<g id="Node000005" class="node">
<title>Node5</title>
<g id="a_Node000005"><a xlink:href="classfcmaes_1_1mode_1_1_m_o_d_e.html#a3b3a358c6fded3c638706495c88eff1a" target="_top" xlink:title="Minimizes a given function using a custom optimization approach until the maximum number of evaluatio...">
<polygon fill="white" stroke="#666666" points="169,-170 0,-170 0,-150 169,-150 169,-170"/>
<text text-anchor="middle" x="84.5" y="-156.5" font-family="Helvetica,sans-Serif" font-size="10.00">fcmaes.mode.MODE.minimize_ser</text>
</a>
</g>
</g>
<!-- Node1&#45;&gt;Node5 -->
<g id="edge4_Node000001_Node000005" class="edge">
<title>Node1&#45;&gt;Node5</title>
<g id="a_edge4_Node000001_Node000005"><a xlink:title=" ">
<path fill="none" stroke="#63b8ff" d="M193.18,-160C185.33,-160 177.32,-160 169.39,-160"/>
<polygon fill="#63b8ff" stroke="#63b8ff" points="193.03,-163.5 203.03,-160 193.03,-156.5 193.03,-163.5"/>
</a>
</g>
</g>
<!-- Node6 -->
<g id="Node000006" class="node">
<title>Node6</title>
<g id="a_Node000006"><a xlink:href="classfcmaes_1_1modecpp_1_1_m_o_d_e___c.html#aa4a7a3e4f9a3fc84dc37faf820025306" target="_top" xlink:title="Minimizes the given scalar function using a serial optimization method.">
<polygon fill="white" stroke="#666666" points="146.5,-132 22.5,-132 22.5,-100 146.5,-100 146.5,-132"/>
<text text-anchor="start" x="30.5" y="-118.5" font-family="Helvetica,sans-Serif" font-size="10.00">fcmaes.modecpp.MODE</text>
<text text-anchor="middle" x="84.5" y="-106.5" font-family="Helvetica,sans-Serif" font-size="10.00">_C.minimize_ser</text>
</a>
</g>
</g>
<!-- Node1&#45;&gt;Node6 -->
<g id="edge5_Node000001_Node000006" class="edge">
<title>Node1&#45;&gt;Node6</title>
<g id="a_edge5_Node000001_Node000006"><a xlink:title=" ">
<path fill="none" stroke="#63b8ff" d="M214.64,-146.9C193.32,-141.8 168.77,-135.93 146.85,-130.68"/>
<polygon fill="#63b8ff" stroke="#63b8ff" points="213.79,-150.3 224.33,-149.22 215.42,-143.49 213.79,-150.3"/>
</a>
</g>
</g>
<!-- Node7 -->
<g id="Node000007" class="node">
<title>Node7</title>
<g id="a_Node000007"><a xlink:href="classfcmaes_1_1mode_1_1_m_o_d_e.html#af1ac6ae50db24a626f6649175bfecf96" target="_top" xlink:title="Sets the initial guess values for an optimization or search algorithm.">
<polygon fill="white" stroke="#666666" points="146.88,-82 22.13,-82 22.13,-50 146.88,-50 146.88,-82"/>
<text text-anchor="start" x="30.12" y="-68.5" font-family="Helvetica,sans-Serif" font-size="10.00">fcmaes.mode.MODE.set</text>
<text text-anchor="middle" x="84.5" y="-56.5" font-family="Helvetica,sans-Serif" font-size="10.00">_guess</text>
</a>
</g>
</g>
<!-- Node1&#45;&gt;Node7 -->
<g id="edge6_Node000001_Node000007" class="edge">
<title>Node1&#45;&gt;Node7</title>
<g id="a_edge6_Node000001_Node000007"><a xlink:title=" ">
<path fill="none" stroke="#63b8ff" d="M248.25,-142.56C228.72,-127.17 198.37,-105.06 169,-91 162.04,-87.67 154.54,-84.67 146.99,-82.01"/>
<polygon fill="#63b8ff" stroke="#63b8ff" points="245.99,-145.24 255.98,-148.77 250.38,-139.78 245.99,-145.24"/>
</a>
</g>
</g>
<!-- Node8 -->
<g id="Node000008" class="node">
<title>Node8</title>
<g id="a_Node000008"><a xlink:href="classfcmaes_1_1modecpp_1_1_m_o_d_e___c.html#a3267cafa8c068a367179034c3f5a562d" target="_top" xlink:title="Set the initial guess values for optimization along with corresponding function evaluations.">
<polygon fill="white" stroke="#666666" points="146.5,-32 22.5,-32 22.5,0 146.5,0 146.5,-32"/>
<text text-anchor="start" x="30.5" y="-18.5" font-family="Helvetica,sans-Serif" font-size="10.00">fcmaes.modecpp.MODE</text>
<text text-anchor="middle" x="84.5" y="-6.5" font-family="Helvetica,sans-Serif" font-size="10.00">_C.set_guess</text>
</a>
</g>
</g>
<!-- Node1&#45;&gt;Node8 -->
<g id="edge7_Node000001_Node000008" class="edge">
<title>Node1&#45;&gt;Node8</title>
<g id="a_edge7_Node000001_Node000008"><a xlink:title=" ">
<path fill="none" stroke="#63b8ff" d="M257.69,-139.94C241.22,-113.44 208.73,-67.06 169,-41 162.17,-36.52 154.5,-32.82 146.66,-29.76"/>
<polygon fill="#63b8ff" stroke="#63b8ff" points="254.61,-141.62 262.77,-148.37 260.6,-138 254.61,-141.62"/>
</a>
</g>
</g>
</g>
</svg>
</svg>

<style type='text/css'>
<![CDATA[
[data-mouse-over-selected='false'] { opacity: 0.7; }
[data-mouse-over-selected='true']  { opacity: 1.0; }
]]>
</style>
<script type="application/ecmascript"><![CDATA[
document.addEventListener('DOMContentLoaded', (event) => {
  highlightEdges();
  highlightAdjacentNodes();
});
]]></script>
</svg>
