<?xml version="1.0" encoding="UTF-8" standalone="no"?>
<!DOCTYPE svg PUBLIC "-//W3C//DTD SVG 1.1//EN"
 "http://www.w3.org/Graphics/SVG/1.1/DTD/svg11.dtd">
<!-- Generated by graphviz version 12.2.1 (20241206.2353)
 -->
<!-- Title: acmaes::AcmaesOptimizer::tell Pages: 1 -->
<!--zoomable 162 -->

<svg id="main" version="1.1" xmlns="http://www.w3.org/2000/svg" xmlns:xlink="http://www.w3.org/1999/xlink" xml:space="preserve" onload="init(evt)">

<style type="text/css"><![CDATA[
.node, .edge {opacity: 0.7;}
.node.selected, .edge.selected {opacity: 1;}
.edge:hover path { stroke: red; }
.edge:hover polygon { stroke: red; fill: red; }
]]></style>

<defs>
  <circle id="rim" cx="0" cy="0" r="7"/>
  <circle id="rim2" cx="0" cy="0" r="3.5"/>
  <g id="zoomPlus">
    <use xlink:href="#rim" fill="#404040"><set attributeName="fill" to="#808080" begin="zoomplus.mouseover" end="zoomplus.mouseout"/></use>
    <path d="M-4,0h8M0,-4v8" fill="none" stroke="white" stroke-width="1.5" pointer-events="none"/>
  </g>
  <g id="zoomMin">
    <use xlink:href="#rim" fill="#404040"><set attributeName="fill" to="#808080" begin="zoomminus.mouseover" end="zoomminus.mouseout"/></use>
    <path d="M-4,0h8" fill="none" stroke="white" stroke-width="1.5" pointer-events="none"/>
  </g>
  <g id="arrowUp" transform="translate(30 24)">
    <use xlink:href="#rim"/>
    <path pointer-events="none" fill="none" stroke="white" stroke-width="1.5" d="M0,-3.0v7 M-2.5,-0.5L0,-3.0L2.5,-0.5"/>
  </g>
  <g id="arrowRight" transform="rotate(90) translate(36 -43)">
    <use xlink:href="#rim"/>
    <path pointer-events="none" fill="none" stroke="white" stroke-width="1.5" d="M0,-3.0v7 M-2.5,-0.5L0,-3.0L2.5,-0.5"/>
  </g>
  <g id="arrowDown" transform="rotate(180) translate(-30 -48)">
    <use xlink:href="#rim"/>
    <path pointer-events="none" fill="none" stroke="white" stroke-width="1.5" d="M0,-3.0v7 M-2.5,-0.5L0,-3.0L2.5,-0.5"/>
  </g>
  <g id="arrowLeft" transform="rotate(270) translate(-36 17)">
    <use xlink:href="#rim"/>
    <path pointer-events="none" fill="none" stroke="white" stroke-width="1.5" d="M0,-3.0v7 M-2.5,-0.5L0,-3.0L2.5,-0.5"/>
  </g>
  <g id="resetDef">
    <use xlink:href="#rim2" fill="#404040"><set attributeName="fill" to="#808080" begin="reset.mouseover" end="reset.mouseout"/></use>
  </g>
</defs>
<script type="application/ecmascript">
var viewWidth = 735;
var viewHeight = 162;
var sectionId = 'dynsection-8';
</script>
<script type="application/ecmascript" xlink:href="svg.min.js"/>
<svg id="graph" class="graph">
<g id="viewport">
<title>acmaes::AcmaesOptimizer::tell</title>
<!-- Node1 -->
<g id="Node000001" class="node">
<title>Node1</title>
<g id="a_Node000001"><a xlink:title=" ">
<polygon fill="#999999" stroke="#666666" points="134.5,-129 0,-129 0,-97 134.5,-97 134.5,-129"/>
<text text-anchor="start" x="8" y="-115.5" font-family="Helvetica,sans-Serif" font-size="10.00">acmaes::AcmaesOptimizer</text>
<text text-anchor="middle" x="67.25" y="-103.5" font-family="Helvetica,sans-Serif" font-size="10.00">::tell</text>
</a>
</g>
</g>
<!-- Node2 -->
<g id="Node000002" class="node">
<title>Node2</title>
<g id="a_Node000002"><a xlink:href="evaluator_8h.html#a231544ac51b3f9312c104a3b7a3c49a6" target="_top" xlink:title=" ">
<polygon fill="white" stroke="#666666" points="260.38,-145 215.12,-145 215.12,-125 260.38,-125 260.38,-145"/>
<text text-anchor="middle" x="237.75" y="-131.5" font-family="Helvetica,sans-Serif" font-size="10.00">normal</text>
</a>
</g>
</g>
<!-- Node1&#45;&gt;Node2 -->
<g id="edge1_Node000001_Node000002" class="edge">
<title>Node1&#45;&gt;Node2</title>
<g id="a_edge1_Node000001_Node000002"><a xlink:title=" ">
<path fill="none" stroke="#63b8ff" d="M134.85,-121.69C158.46,-124.78 184.01,-128.11 203.62,-130.68"/>
<polygon fill="#63b8ff" stroke="#63b8ff" points="203.13,-134.14 213.5,-131.96 204.03,-127.2 203.13,-134.14"/>
</a>
</g>
</g>
<!-- Node3 -->
<g id="Node000003" class="node">
<title>Node3</title>
<g id="a_Node000003"><a xlink:href="classacmaes_1_1_acmaes_optimizer.html#a36c0bd51d20f3c63e8cadf76421fc5d4" target="_top" xlink:title=" ">
<polygon fill="white" stroke="#666666" points="305,-107 170.5,-107 170.5,-75 305,-75 305,-107"/>
<text text-anchor="start" x="178.5" y="-93.5" font-family="Helvetica,sans-Serif" font-size="10.00">acmaes::AcmaesOptimizer</text>
<text text-anchor="middle" x="237.75" y="-81.5" font-family="Helvetica,sans-Serif" font-size="10.00">::updateCMA</text>
</a>
</g>
</g>
<!-- Node1&#45;&gt;Node3 -->
<g id="edge2_Node000001_Node000003" class="edge">
<title>Node1&#45;&gt;Node3</title>
<g id="a_edge2_Node000001_Node000003"><a xlink:title=" ">
<path fill="none" stroke="#63b8ff" d="M134.85,-104.31C142.72,-103.28 150.82,-102.22 158.83,-101.17"/>
<polygon fill="#63b8ff" stroke="#63b8ff" points="159.12,-104.67 168.59,-99.9 158.22,-97.72 159.12,-104.67"/>
</a>
</g>
</g>
<!-- Node4 -->
<g id="Node000004" class="node">
<title>Node4</title>
<g id="a_Node000004"><a xlink:href="evaluator_8h.html#a7689f88ea48c85c22d9b34208decd67c" target="_top" xlink:title=" ">
<polygon fill="white" stroke="#666666" points="586,-151 525,-151 525,-131 586,-131 586,-151"/>
<text text-anchor="middle" x="555.5" y="-137.5" font-family="Helvetica,sans-Serif" font-size="10.00">sort_index</text>
</a>
</g>
</g>
<!-- Node3&#45;&gt;Node4 -->
<g id="edge3_Node000003_Node000004" class="edge">
<title>Node3&#45;&gt;Node4</title>
<g id="a_edge3_Node000003_Node000004"><a xlink:title=" ">
<path fill="none" stroke="#63b8ff" d="M286.42,-107.36C292.78,-110.01 299.12,-112.91 305,-116 322.24,-125.06 322.41,-135.18 341,-141 398.67,-159.06 469.49,-154.12 513.31,-148.14"/>
<polygon fill="#63b8ff" stroke="#63b8ff" points="513.76,-151.61 523.15,-146.71 512.75,-144.69 513.76,-151.61"/>
</a>
</g>
</g>
<!-- Node6 -->
<g id="Node000006" class="node">
<title>Node6</title>
<g id="a_Node000006"><a xlink:href="classacmaes_1_1_acmaes_optimizer.html#a6e1292651cf19abf87f9ece1aa9c92d7" target="_top" xlink:title=" ">
<polygon fill="white" stroke="#666666" points="475.5,-132 341,-132 341,-100 475.5,-100 475.5,-132"/>
<text text-anchor="start" x="349" y="-118.5" font-family="Helvetica,sans-Serif" font-size="10.00">acmaes::AcmaesOptimizer</text>
<text text-anchor="middle" x="408.25" y="-106.5" font-family="Helvetica,sans-Serif" font-size="10.00">::updateBD</text>
</a>
</g>
</g>
<!-- Node3&#45;&gt;Node6 -->
<g id="edge5_Node000003_Node000006" class="edge">
<title>Node3&#45;&gt;Node6</title>
<g id="a_edge5_Node000003_Node000006"><a xlink:title=" ">
<path fill="none" stroke="#63b8ff" d="M305.35,-100.88C313.22,-102.05 321.32,-103.25 329.33,-104.44"/>
<polygon fill="#63b8ff" stroke="#63b8ff" points="328.68,-107.88 339.09,-105.89 329.71,-100.96 328.68,-107.88"/>
</a>
</g>
</g>
<!-- Node7 -->
<g id="Node000007" class="node">
<title>Node7</title>
<g id="a_Node000007"><a xlink:href="classacmaes_1_1_acmaes_optimizer.html#a911e67d9e8445b3a8be575f184341b8e" target="_top" xlink:title=" ">
<polygon fill="white" stroke="#666666" points="475.5,-82 341,-82 341,-50 475.5,-50 475.5,-82"/>
<text text-anchor="start" x="349" y="-68.5" font-family="Helvetica,sans-Serif" font-size="10.00">acmaes::AcmaesOptimizer</text>
<text text-anchor="middle" x="408.25" y="-56.5" font-family="Helvetica,sans-Serif" font-size="10.00">::updateCovariance</text>
</a>
</g>
</g>
<!-- Node3&#45;&gt;Node7 -->
<g id="edge6_Node000003_Node000007" class="edge">
<title>Node3&#45;&gt;Node7</title>
<g id="a_edge6_Node000003_Node000007"><a xlink:title=" ">
<path fill="none" stroke="#63b8ff" d="M305.35,-81.12C313.22,-79.95 321.32,-78.75 329.33,-77.56"/>
<polygon fill="#63b8ff" stroke="#63b8ff" points="329.71,-81.04 339.09,-76.11 328.68,-74.12 329.71,-81.04"/>
</a>
</g>
</g>
<!-- Node9 -->
<g id="Node000009" class="node">
<title>Node9</title>
<g id="a_Node000009"><a xlink:href="classacmaes_1_1_acmaes_optimizer.html#ae9f3415b9bcc43366193e7d4b0beda87" target="_top" xlink:title=" ">
<polygon fill="white" stroke="#666666" points="475.5,-32 341,-32 341,0 475.5,0 475.5,-32"/>
<text text-anchor="start" x="349" y="-18.5" font-family="Helvetica,sans-Serif" font-size="10.00">acmaes::AcmaesOptimizer</text>
<text text-anchor="middle" x="408.25" y="-6.5" font-family="Helvetica,sans-Serif" font-size="10.00">::updateEvolutionPaths</text>
</a>
</g>
</g>
<!-- Node3&#45;&gt;Node9 -->
<g id="edge10_Node000003_Node000009" class="edge">
<title>Node3&#45;&gt;Node9</title>
<g id="a_edge10_Node000003_Node000009"><a xlink:title=" ">
<path fill="none" stroke="#63b8ff" d="M270.17,-74.68C290.22,-64.51 316.87,-51.42 341,-41 344.39,-39.54 347.89,-38.07 351.43,-36.63"/>
<polygon fill="#63b8ff" stroke="#63b8ff" points="352.71,-39.89 360.71,-32.94 350.13,-33.38 352.71,-39.89"/>
</a>
</g>
</g>
<!-- Node5 -->
<g id="Node000005" class="node">
<title>Node5</title>
<g id="a_Node000005"><a xlink:href="evaluator_8h.html#a85426eb5cecc23caa06090d795034e5c" target="_top" xlink:title=" ">
<polygon fill="white" stroke="#666666" points="726.5,-151 635.5,-151 635.5,-131 726.5,-131 726.5,-151"/>
<text text-anchor="middle" x="681" y="-137.5" font-family="Helvetica,sans-Serif" font-size="10.00">compareIndexVal</text>
</a>
</g>
</g>
<!-- Node4&#45;&gt;Node5 -->
<g id="edge4_Node000004_Node000005" class="edge">
<title>Node4&#45;&gt;Node5</title>
<g id="a_edge4_Node000004_Node000005"><a xlink:title=" ">
<path fill="none" stroke="#63b8ff" d="M586.4,-141C597.77,-141 611.13,-141 624.14,-141"/>
<polygon fill="#63b8ff" stroke="#63b8ff" points="623.91,-144.5 633.91,-141 623.91,-137.5 623.91,-144.5"/>
</a>
</g>
</g>
<!-- Node7&#45;&gt;Node4 -->
<g id="edge9_Node000007_Node000004" class="edge">
<title>Node7&#45;&gt;Node4</title>
<g id="a_edge9_Node000007_Node000004"><a xlink:title=" ">
<path fill="none" stroke="#63b8ff" d="M456.45,-82.45C462.94,-85.11 469.45,-87.98 475.5,-91 494.92,-100.68 515.61,-113.89 530.94,-124.3"/>
<polygon fill="#63b8ff" stroke="#63b8ff" points="528.71,-127.01 538.93,-129.81 532.68,-121.25 528.71,-127.01"/>
</a>
</g>
</g>
<!-- Node8 -->
<g id="Node000008" class="node">
<title>Node8</title>
<g id="a_Node000008"><a xlink:href="namespaceacmaes.html#a8f3b844e07e4684f10852956288758de" target="_top" xlink:title=" ">
<polygon fill="white" stroke="#666666" points="599.5,-76 511.5,-76 511.5,-56 599.5,-56 599.5,-76"/>
<text text-anchor="middle" x="555.5" y="-62.5" font-family="Helvetica,sans-Serif" font-size="10.00">acmaes::inverse</text>
</a>
</g>
</g>
<!-- Node7&#45;&gt;Node8 -->
<g id="edge7_Node000007_Node000008" class="edge">
<title>Node7&#45;&gt;Node8</title>
<g id="a_edge7_Node000007_Node000008"><a xlink:title=" ">
<path fill="none" stroke="#63b8ff" d="M475.92,-66C483.85,-66 491.87,-66 499.6,-66"/>
<polygon fill="#63b8ff" stroke="#63b8ff" points="499.55,-69.5 509.55,-66 499.55,-62.5 499.55,-69.5"/>
</a>
</g>
</g>
<!-- Node8&#45;&gt;Node8 -->
<g id="edge8_Node000008_Node000008" class="edge">
<title>Node8&#45;&gt;Node8</title>
<g id="a_edge8_Node000008_Node000008"><a xlink:title=" ">
<path fill="none" stroke="#63b8ff" d="M535.56,-76.34C527.04,-84.98 533.68,-94 555.5,-94 567.43,-94 574.82,-91.3 577.68,-87.44"/>
<polygon fill="#63b8ff" stroke="#63b8ff" points="581.15,-86.93 575.74,-77.82 574.29,-88.32 581.15,-86.93"/>
</a>
</g>
</g>
</g>
</svg>

<g id="navigator" transform="translate(0 0)" fill="#404254">
  <rect fill="#f2f5e9" fill-opacity="0.5" stroke="#606060" stroke-width=".5" x="0" y="0" width="60" height="60"/>
  <use id="zoomplus" xlink:href="#zoomPlus" x="17" y="9" onmousedown="handleZoom(evt,'in')"/>
  <use id="zoomminus" xlink:href="#zoomMin" x="42" y="9" onmousedown="handleZoom(evt,'out')"/>
  <use id="reset" xlink:href="#resetDef" x="30" y="36" onmousedown="handleReset()"/>
   <use id="arrowup" xlink:href="#arrowUp" x="0" y="0" onmousedown="handlePan(0,-1)"/>
  <use id="arrowright" xlink:href="#arrowRight" x="0" y="0" onmousedown="handlePan(1,0)"/>
  <use id="arrowdown" xlink:href="#arrowDown" x="0" y="0" onmousedown="handlePan(0,1)"/>
  <use id="arrowleft" xlink:href="#arrowLeft" x="0" y="0" onmousedown="handlePan(-1,0)"/>
</g>
<svg viewBox="0 0 15 15" width="100%" height="30px" preserveAspectRatio="xMaxYMin meet">
 <g id="arrow_out" transform="scale(0.3 0.3)">
  <a xlink:href="classacmaes_1_1_acmaes_optimizer_ac1703b5f2c650cf8da235ea475e17d6f_cgraph_org.svg" target="_base">
   <rect id="button" ry="5" rx="5" y="6" x="6" height="38" width="38"
        fill="#f2f5e9" fill-opacity="0.5" stroke="#606060" stroke-width="1.0"/>
   <path id="arrow"
     d="M 11.500037,31.436501 C 11.940474,20.09759 22.043105,11.32322 32.158766,21.979434 L 37.068811,17.246167 C 37.068811,17.246167 37.088388,32 37.088388,32 L 22.160133,31.978069 C 22.160133,31.978069 26.997745,27.140456 26.997745,27.140456 C 18.528582,18.264221 13.291696,25.230495 11.500037,31.436501 z"
     style="fill:#404040;"/>
  </a>
 </g>
</svg>

<style type='text/css'>
<![CDATA[
[data-mouse-over-selected='false'] { opacity: 0.7; }
[data-mouse-over-selected='true']  { opacity: 1.0; }
]]>
</style>
<script type="application/ecmascript"><![CDATA[
document.addEventListener('DOMContentLoaded', (event) => {
  highlightEdges();
  highlightAdjacentNodes();
});
]]></script>
</svg>
