<?xml version="1.0" encoding="UTF-8" standalone="no"?>
<!DOCTYPE svg PUBLIC "-//W3C//DTD SVG 1.1//EN"
 "http://www.w3.org/Graphics/SVG/1.1/DTD/svg11.dtd">
<!-- Generated by graphviz version 12.2.1 (20241206.2353)
 -->
<!-- Title: fcmaes.advretry.Store.load Pages: 1 -->
<!--zoomable 161 -->

<svg id="main" version="1.1" xmlns="http://www.w3.org/2000/svg" xmlns:xlink="http://www.w3.org/1999/xlink" xml:space="preserve" onload="init(evt)">

<style type="text/css"><![CDATA[
.node, .edge {opacity: 0.7;}
.node.selected, .edge.selected {opacity: 1;}
.edge:hover path { stroke: red; }
.edge:hover polygon { stroke: red; fill: red; }
]]></style>

<defs>
  <circle id="rim" cx="0" cy="0" r="7"/>
  <circle id="rim2" cx="0" cy="0" r="3.5"/>
  <g id="zoomPlus">
    <use xlink:href="#rim" fill="#404040"><set attributeName="fill" to="#808080" begin="zoomplus.mouseover" end="zoomplus.mouseout"/></use>
    <path d="M-4,0h8M0,-4v8" fill="none" stroke="white" stroke-width="1.5" pointer-events="none"/>
  </g>
  <g id="zoomMin">
    <use xlink:href="#rim" fill="#404040"><set attributeName="fill" to="#808080" begin="zoomminus.mouseover" end="zoomminus.mouseout"/></use>
    <path d="M-4,0h8" fill="none" stroke="white" stroke-width="1.5" pointer-events="none"/>
  </g>
  <g id="arrowUp" transform="translate(30 24)">
    <use xlink:href="#rim"/>
    <path pointer-events="none" fill="none" stroke="white" stroke-width="1.5" d="M0,-3.0v7 M-2.5,-0.5L0,-3.0L2.5,-0.5"/>
  </g>
  <g id="arrowRight" transform="rotate(90) translate(36 -43)">
    <use xlink:href="#rim"/>
    <path pointer-events="none" fill="none" stroke="white" stroke-width="1.5" d="M0,-3.0v7 M-2.5,-0.5L0,-3.0L2.5,-0.5"/>
  </g>
  <g id="arrowDown" transform="rotate(180) translate(-30 -48)">
    <use xlink:href="#rim"/>
    <path pointer-events="none" fill="none" stroke="white" stroke-width="1.5" d="M0,-3.0v7 M-2.5,-0.5L0,-3.0L2.5,-0.5"/>
  </g>
  <g id="arrowLeft" transform="rotate(270) translate(-36 17)">
    <use xlink:href="#rim"/>
    <path pointer-events="none" fill="none" stroke="white" stroke-width="1.5" d="M0,-3.0v7 M-2.5,-0.5L0,-3.0L2.5,-0.5"/>
  </g>
  <g id="resetDef">
    <use xlink:href="#rim2" fill="#404040"><set attributeName="fill" to="#808080" begin="reset.mouseover" end="reset.mouseout"/></use>
  </g>
</defs>
<script type="application/ecmascript">
var viewWidth = 860;
var viewHeight = 161;
var sectionId = 'dynsection-19';
</script>
<script type="application/ecmascript" xlink:href="svg.min.js"/>
<svg id="graph" class="graph">
<g id="viewport">
<title>fcmaes.advretry.Store.load</title>
<!-- Node1 -->
<g id="Node000001" class="node">
<title>Node1</title>
<g id="a_Node000001"><a xlink:title="Loads and processes data from a compressed file.">
<polygon fill="#999999" stroke="#666666" points="133,-115 0,-115 0,-95 133,-95 133,-115"/>
<text text-anchor="middle" x="66.5" y="-101.5" font-family="Helvetica,sans-Serif" font-size="10.00">fcmaes.advretry.Store.load</text>
</a>
</g>
</g>
<!-- Node2 -->
<g id="Node000002" class="node">
<title>Node2</title>
<g id="a_Node000002"><a xlink:href="classfcmaes_1_1advretry_1_1_store.html#acff238ba31618eab7787f5204b5676f3" target="_top" xlink:title="Sets the data for an internal storage structure and processes it.">
<polygon fill="white" stroke="#666666" points="321.5,-115 169,-115 169,-95 321.5,-95 321.5,-115"/>
<text text-anchor="middle" x="245.25" y="-101.5" font-family="Helvetica,sans-Serif" font-size="10.00">fcmaes.advretry.Store.set_data</text>
</a>
</g>
</g>
<!-- Node1&#45;&gt;Node2 -->
<g id="edge1_Node000001_Node000002" class="edge">
<title>Node1&#45;&gt;Node2</title>
<g id="a_edge1_Node000001_Node000002"><a xlink:title=" ">
<path fill="none" stroke="#63b8ff" d="M133.32,-105C141.12,-105 149.18,-105 157.22,-105"/>
<polygon fill="#63b8ff" stroke="#63b8ff" points="157.04,-108.5 167.04,-105 157.04,-101.5 157.04,-108.5"/>
</a>
</g>
</g>
<!-- Node3 -->
<g id="Node000003" class="node">
<title>Node3</title>
<g id="a_Node000003"><a xlink:href="classfcmaes_1_1advretry_1_1_store.html#a0ae90f35f58deb629c18747fbf9b1cc9" target="_top" xlink:title="Replaces the y and x values at a specified index.">
<polygon fill="white" stroke="#666666" points="674.12,-134 527.62,-134 527.62,-114 674.12,-114 674.12,-134"/>
<text text-anchor="middle" x="600.88" y="-120.5" font-family="Helvetica,sans-Serif" font-size="10.00">fcmaes.advretry.Store.replace</text>
</a>
</g>
</g>
<!-- Node2&#45;&gt;Node3 -->
<g id="edge2_Node000002_Node000003" class="edge">
<title>Node2&#45;&gt;Node3</title>
<g id="a_edge2_Node000002_Node000003"><a xlink:title=" ">
<path fill="none" stroke="#63b8ff" d="M321.68,-109.05C378.75,-112.12 457.11,-116.33 516.13,-119.5"/>
<polygon fill="#63b8ff" stroke="#63b8ff" points="515.6,-122.98 525.77,-120.02 515.97,-115.99 515.6,-122.98"/>
</a>
</g>
</g>
<!-- Node6 -->
<g id="Node000006" class="node">
<title>Node6</title>
<g id="a_Node000006"><a xlink:href="classfcmaes_1_1advretry_1_1_store.html#aa5c9f7209b6bfb5bf079ad940a84eea4" target="_top" xlink:title="Sorts and updates stored data based on the given criteria.">
<polygon fill="white" stroke="#666666" points="489,-96 357.5,-96 357.5,-76 489,-76 489,-96"/>
<text text-anchor="middle" x="423.25" y="-82.5" font-family="Helvetica,sans-Serif" font-size="10.00">fcmaes.advretry.Store.sort</text>
</a>
</g>
</g>
<!-- Node2&#45;&gt;Node6 -->
<g id="edge5_Node000002_Node000006" class="edge">
<title>Node2&#45;&gt;Node6</title>
<g id="a_edge5_Node000002_Node000006"><a xlink:title=" ">
<path fill="none" stroke="#63b8ff" d="M321.91,-96.83C329.89,-95.97 338.01,-95.09 345.99,-94.23"/>
<polygon fill="#63b8ff" stroke="#63b8ff" points="346.1,-97.74 355.66,-93.19 345.34,-90.78 346.1,-97.74"/>
</a>
</g>
</g>
<!-- Node4 -->
<g id="Node000004" class="node">
<title>Node4</title>
<g id="a_Node000004"><a xlink:href="classfcmaes_1_1advretry_1_1_store.html#a732636cd5ab3c40b878ef2e0274b1d1b" target="_top" xlink:title="Sets a subset of the xs list for a specific process ID.">
<polygon fill="white" stroke="#666666" points="851.75,-153 712.75,-153 712.75,-133 851.75,-133 851.75,-153"/>
<text text-anchor="middle" x="782.25" y="-139.5" font-family="Helvetica,sans-Serif" font-size="10.00">fcmaes.advretry.Store.set_x</text>
</a>
</g>
</g>
<!-- Node3&#45;&gt;Node4 -->
<g id="edge3_Node000003_Node000004" class="edge">
<title>Node3&#45;&gt;Node4</title>
<g id="a_edge3_Node000003_Node000004"><a xlink:title=" ">
<path fill="none" stroke="#63b8ff" d="M674.58,-131.7C683.38,-132.63 692.42,-133.59 701.32,-134.53"/>
<polygon fill="#63b8ff" stroke="#63b8ff" points="700.69,-137.99 711,-135.56 701.43,-131.03 700.69,-137.99"/>
</a>
</g>
</g>
<!-- Node5 -->
<g id="Node000005" class="node">
<title>Node5</title>
<g id="a_Node000005"><a xlink:href="classfcmaes_1_1advretry_1_1_store.html#a12d96e54629b449293d2aabf5542ddc1" target="_top" xlink:title="Sets the value of y for a given pid within the &#39;ys&#39; mapping.">
<polygon fill="white" stroke="#666666" points="851.75,-115 712.75,-115 712.75,-95 851.75,-95 851.75,-115"/>
<text text-anchor="middle" x="782.25" y="-101.5" font-family="Helvetica,sans-Serif" font-size="10.00">fcmaes.advretry.Store.set_y</text>
</a>
</g>
</g>
<!-- Node3&#45;&gt;Node5 -->
<g id="edge4_Node000003_Node000005" class="edge">
<title>Node3&#45;&gt;Node5</title>
<g id="a_edge4_Node000003_Node000005"><a xlink:title=" ">
<path fill="none" stroke="#63b8ff" d="M674.58,-116.3C683.38,-115.37 692.42,-114.41 701.32,-113.47"/>
<polygon fill="#63b8ff" stroke="#63b8ff" points="701.43,-116.97 711,-112.44 700.69,-110.01 701.43,-116.97"/>
</a>
</g>
</g>
<!-- Node6&#45;&gt;Node3 -->
<g id="edge9_Node000006_Node000003" class="edge">
<title>Node6&#45;&gt;Node3</title>
<g id="a_edge9_Node000006_Node000003"><a xlink:title=" ">
<path fill="none" stroke="#63b8ff" d="M472.71,-96.48C493.63,-101.01 518.31,-106.35 540.34,-111.12"/>
<polygon fill="#63b8ff" stroke="#63b8ff" points="539.58,-114.54 550.1,-113.23 541.06,-107.69 539.58,-114.54"/>
</a>
</g>
</g>
<!-- Node7 -->
<g id="Node000007" class="node">
<title>Node7</title>
<g id="a_Node000007"><a xlink:href="classfcmaes_1_1advretry_1_1_store.html#a00ab052ea8b184b7344875122481b623" target="_top" xlink:title="Calculates the normalized distance between two points in a Euclidean space.">
<polygon fill="white" stroke="#666666" points="676.75,-96 525,-96 525,-76 676.75,-76 676.75,-96"/>
<text text-anchor="middle" x="600.88" y="-82.5" font-family="Helvetica,sans-Serif" font-size="10.00">fcmaes.advretry.Store.distance</text>
</a>
</g>
</g>
<!-- Node6&#45;&gt;Node7 -->
<g id="edge6_Node000006_Node000007" class="edge">
<title>Node6&#45;&gt;Node7</title>
<g id="a_edge6_Node000006_Node000007"><a xlink:title=" ">
<path fill="none" stroke="#63b8ff" d="M489.15,-86C496.98,-86 505.08,-86 513.17,-86"/>
<polygon fill="#63b8ff" stroke="#63b8ff" points="513.05,-89.5 523.05,-86 513.05,-82.5 513.05,-89.5"/>
</a>
</g>
</g>
<!-- Node8 -->
<g id="Node000008" class="node">
<title>Node8</title>
<g id="a_Node000008"><a xlink:href="classfcmaes_1_1advretry_1_1_store.html#a97e407315b2e0c802b9d5b4414f3f91b" target="_top" xlink:title="Retrieves a segment of the xs array corresponding to the provided pid.">
<polygon fill="white" stroke="#666666" points="670.38,-58 531.38,-58 531.38,-38 670.38,-38 670.38,-58"/>
<text text-anchor="middle" x="600.88" y="-44.5" font-family="Helvetica,sans-Serif" font-size="10.00">fcmaes.advretry.Store.get_x</text>
</a>
</g>
</g>
<!-- Node6&#45;&gt;Node8 -->
<g id="edge7_Node000006_Node000008" class="edge">
<title>Node6&#45;&gt;Node8</title>
<g id="a_edge7_Node000006_Node000008"><a xlink:title=" ">
<path fill="none" stroke="#63b8ff" d="M472.71,-75.52C493.63,-70.99 518.31,-65.65 540.34,-60.88"/>
<polygon fill="#63b8ff" stroke="#63b8ff" points="541.06,-64.31 550.1,-58.77 539.58,-57.46 541.06,-64.31"/>
</a>
</g>
</g>
<!-- Node9 -->
<g id="Node000009" class="node">
<title>Node9</title>
<g id="a_Node000009"><a xlink:href="classfcmaes_1_1advretry_1_1_store.html#a907617cde0def7276f1f609d7690335f" target="_top" xlink:title="Fetches a value for a given ID from a dictionary of float values.">
<polygon fill="white" stroke="#666666" points="670.38,-20 531.38,-20 531.38,0 670.38,0 670.38,-20"/>
<text text-anchor="middle" x="600.88" y="-6.5" font-family="Helvetica,sans-Serif" font-size="10.00">fcmaes.advretry.Store.get_y</text>
</a>
</g>
</g>
<!-- Node6&#45;&gt;Node9 -->
<g id="edge8_Node000006_Node000009" class="edge">
<title>Node6&#45;&gt;Node9</title>
<g id="a_edge8_Node000006_Node000009"><a xlink:title=" ">
<path fill="none" stroke="#63b8ff" d="M439.65,-75.55C458.87,-62.93 493.11,-41.8 525,-29 529.88,-27.04 535.02,-25.24 540.22,-23.59"/>
<polygon fill="#63b8ff" stroke="#63b8ff" points="540.89,-27.04 549.49,-20.84 538.91,-20.33 540.89,-27.04"/>
</a>
</g>
</g>
</g>
</svg>

<g id="navigator" transform="translate(0 0)" fill="#404254">
  <rect fill="#f2f5e9" fill-opacity="0.5" stroke="#606060" stroke-width=".5" x="0" y="0" width="60" height="60"/>
  <use id="zoomplus" xlink:href="#zoomPlus" x="17" y="9" onmousedown="handleZoom(evt,'in')"/>
  <use id="zoomminus" xlink:href="#zoomMin" x="42" y="9" onmousedown="handleZoom(evt,'out')"/>
  <use id="reset" xlink:href="#resetDef" x="30" y="36" onmousedown="handleReset()"/>
   <use id="arrowup" xlink:href="#arrowUp" x="0" y="0" onmousedown="handlePan(0,-1)"/>
  <use id="arrowright" xlink:href="#arrowRight" x="0" y="0" onmousedown="handlePan(1,0)"/>
  <use id="arrowdown" xlink:href="#arrowDown" x="0" y="0" onmousedown="handlePan(0,1)"/>
  <use id="arrowleft" xlink:href="#arrowLeft" x="0" y="0" onmousedown="handlePan(-1,0)"/>
</g>
<svg viewBox="0 0 15 15" width="100%" height="30px" preserveAspectRatio="xMaxYMin meet">
 <g id="arrow_out" transform="scale(0.3 0.3)">
  <a xlink:href="classfcmaes_1_1advretry_1_1_store_adc9b28c43aee9110aef2fad53f30a077_cgraph_org.svg" target="_base">
   <rect id="button" ry="5" rx="5" y="6" x="6" height="38" width="38"
        fill="#f2f5e9" fill-opacity="0.5" stroke="#606060" stroke-width="1.0"/>
   <path id="arrow"
     d="M 11.500037,31.436501 C 11.940474,20.09759 22.043105,11.32322 32.158766,21.979434 L 37.068811,17.246167 C 37.068811,17.246167 37.088388,32 37.088388,32 L 22.160133,31.978069 C 22.160133,31.978069 26.997745,27.140456 26.997745,27.140456 C 18.528582,18.264221 13.291696,25.230495 11.500037,31.436501 z"
     style="fill:#404040;"/>
  </a>
 </g>
</svg>

<style type='text/css'>
<![CDATA[
[data-mouse-over-selected='false'] { opacity: 0.7; }
[data-mouse-over-selected='true']  { opacity: 1.0; }
]]>
</style>
<script type="application/ecmascript"><![CDATA[
document.addEventListener('DOMContentLoaded', (event) => {
  highlightEdges();
  highlightAdjacentNodes();
});
]]></script>
</svg>
