<?xml version="1.0" encoding="UTF-8" standalone="no"?>
<!DOCTYPE svg PUBLIC "-//W3C//DTD SVG 1.1//EN"
 "http://www.w3.org/Graphics/SVG/1.1/DTD/svg11.dtd">
<!-- Generated by graphviz version 12.2.1 (20241206.2353)
 -->
<!-- Title: dual_annealing::nanexception Pages: 1 -->
<svg width="144pt" height="160pt"
 viewBox="0.00 0.00 144.25 160.00" xmlns="http://www.w3.org/2000/svg" xmlns:xlink="http://www.w3.org/1999/xlink">
<g id="graph0" class="graph" transform="scale(1 1) rotate(0) translate(4 156)">
<title>dual_annealing::nanexception</title>
<!-- Node1 -->
<g id="Node000001" class="node">
<title>Node1</title>
<g id="a_Node000001"><a xlink:title=" ">
<polygon fill="#999999" stroke="none" points="136.25,-64 0,-64 0,0 136.25,0 136.25,-64"/>
<text text-anchor="start" x="4" y="-50.5" font-family="Helvetica,sans-Serif" font-size="10.00">dual_annealing::nanexception</text>
<text text-anchor="start" x="66.62" y="-34.5" font-family="Helvetica,sans-Serif" font-size="10.00"> </text>
<text text-anchor="start" x="15.56" y="-18.5" font-family="Helvetica,sans-Serif" font-size="10.00">&#45;</text>
<text text-anchor="start" x="34.12" y="-18.5" font-family="Helvetica,sans-Serif" font-size="10.00">virtual const char</text>
<text text-anchor="start" x="34.12" y="-6.5" font-family="Helvetica,sans-Serif" font-size="10.00"> * what() const</text>
<polygon fill="#666666" stroke="#666666" points="0,-46 0,-46 136.25,-46 136.25,-46 0,-46"/>
<polygon fill="#666666" stroke="#666666" points="0,-30 0,-30 136.25,-30 136.25,-30 0,-30"/>
<polygon fill="none" stroke="#666666" points="0,0 0,-64 136.25,-64 136.25,0 0,0"/>
</a>
</g>
</g>
<!-- Node2 -->
<g id="Node000002" class="node">
<title>Node2</title>
<g id="a_Node000002"><a xlink:title=" ">
<polygon fill="white" stroke="none" points="93.12,-152 43.12,-152 43.12,-100 93.12,-100 93.12,-152"/>
<text text-anchor="start" x="47.12" y="-138.5" font-family="Helvetica,sans-Serif" font-size="10.00">exception</text>
<text text-anchor="start" x="66.62" y="-122.5" font-family="Helvetica,sans-Serif" font-size="10.00"> </text>
<text text-anchor="start" x="66.62" y="-106.5" font-family="Helvetica,sans-Serif" font-size="10.00"> </text>
<polygon fill="#666666" stroke="#666666" points="43.12,-134 43.12,-134 93.12,-134 93.12,-134 43.12,-134"/>
<polygon fill="#666666" stroke="#666666" points="43.12,-118 43.12,-118 93.12,-118 93.12,-118 43.12,-118"/>
<polygon fill="none" stroke="#666666" points="43.12,-100 43.12,-152 93.12,-152 93.12,-100 43.12,-100"/>
</a>
</g>
</g>
<!-- Node2&#45;&gt;Node1 -->
<g id="edge1_Node000001_Node000002" class="edge">
<title>Node2&#45;&gt;Node1</title>
<g id="a_edge1_Node000001_Node000002"><a xlink:title=" ">
<path fill="none" stroke="#63b8ff" d="M68.12,-89.06C68.12,-80.78 68.12,-72.04 68.12,-63.98"/>
<polygon fill="none" stroke="#63b8ff" points="64.63,-88.83 68.13,-98.83 71.63,-88.83 64.63,-88.83"/>
</a>
</g>
</g>
</g>
</svg>
