<?xml version="1.0" encoding="UTF-8" standalone="no"?>
<!DOCTYPE svg PUBLIC "-//W3C//DTD SVG 1.1//EN"
 "http://www.w3.org/Graphics/SVG/1.1/DTD/svg11.dtd">
<!-- Generated by graphviz version 12.2.1 (20241206.2353)
 -->
<!-- Title: fcmaes.mode.MODE._sample Pages: 1 -->
<svg width="240pt" height="66pt"
 viewBox="0.00 0.00 240.25 66.00" xmlns="http://www.w3.org/2000/svg" xmlns:xlink="http://www.w3.org/1999/xlink">
<g id="graph0" class="graph" transform="scale(1 1) rotate(0) translate(4 62)">
<title>fcmaes.mode.MODE._sample</title>
<!-- Node1 -->
<g id="Node000001" class="node">
<title>Node1</title>
<g id="a_Node000001"><a xlink:title="Generates a sampled value based on specific distribution boundaries.">
<polygon fill="#999999" stroke="#666666" points="148,-39 0,-39 0,-19 148,-19 148,-39"/>
<text text-anchor="middle" x="74" y="-25.5" font-family="Helvetica,sans-Serif" font-size="10.00">fcmaes.mode.MODE._sample</text>
</a>
</g>
</g>
<!-- Node2 -->
<g id="Node000002" class="node">
<title>Node2</title>
<g id="a_Node000002"><a xlink:href="evaluator_8h.html#a231544ac51b3f9312c104a3b7a3c49a6" target="_top" xlink:title=" ">
<polygon fill="white" stroke="#666666" points="230.75,-58 185.5,-58 185.5,-38 230.75,-38 230.75,-58"/>
<text text-anchor="middle" x="208.12" y="-44.5" font-family="Helvetica,sans-Serif" font-size="10.00">normal</text>
</a>
</g>
</g>
<!-- Node1&#45;&gt;Node2 -->
<g id="edge1_Node000001_Node000002" class="edge">
<title>Node1&#45;&gt;Node2</title>
<g id="a_edge1_Node000001_Node000002"><a xlink:title=" ">
<path fill="none" stroke="#63b8ff" d="M147.63,-39.44C156.82,-40.77 165.83,-42.06 173.96,-43.23"/>
<polygon fill="#63b8ff" stroke="#63b8ff" points="173.24,-46.66 183.64,-44.62 174.24,-39.73 173.24,-46.66"/>
</a>
</g>
</g>
<!-- Node3 -->
<g id="Node000003" class="node">
<title>Node3</title>
<g id="a_Node000003"><a xlink:href="evaluator_8h.html#ad408c1ac0c479863b2d1291c483c5593" target="_top" xlink:title=" ">
<polygon fill="white" stroke="#666666" points="232.25,-20 184,-20 184,0 232.25,0 232.25,-20"/>
<text text-anchor="middle" x="208.12" y="-6.5" font-family="Helvetica,sans-Serif" font-size="10.00">uniform</text>
</a>
</g>
</g>
<!-- Node1&#45;&gt;Node3 -->
<g id="edge2_Node000001_Node000003" class="edge">
<title>Node1&#45;&gt;Node3</title>
<g id="a_edge2_Node000001_Node000003"><a xlink:title=" ">
<path fill="none" stroke="#63b8ff" d="M147.63,-18.56C156.31,-17.31 164.84,-16.08 172.61,-14.96"/>
<polygon fill="#63b8ff" stroke="#63b8ff" points="172.84,-18.47 182.24,-13.58 171.84,-11.54 172.84,-18.47"/>
</a>
</g>
</g>
</g>
</svg>
