<?xml version="1.0" encoding="UTF-8" standalone="no"?>
<!DOCTYPE svg PUBLIC "-//W3C//DTD SVG 1.1//EN"
 "http://www.w3.org/Graphics/SVG/1.1/DTD/svg11.dtd">
<!-- Generated by graphviz version 12.2.1 (20241206.2353)
 -->
<!-- Title: CBiteOpt::generateSol5 Pages: 1 -->
<!--zoomable 324 -->

<svg id="main" version="1.1" xmlns="http://www.w3.org/2000/svg" xmlns:xlink="http://www.w3.org/1999/xlink" xml:space="preserve" onload="init(evt)">

<style type="text/css"><![CDATA[
.node, .edge {opacity: 0.7;}
.node.selected, .edge.selected {opacity: 1;}
.edge:hover path { stroke: red; }
.edge:hover polygon { stroke: red; fill: red; }
]]></style>

<defs>
  <circle id="rim" cx="0" cy="0" r="7"/>
  <circle id="rim2" cx="0" cy="0" r="3.5"/>
  <g id="zoomPlus">
    <use xlink:href="#rim" fill="#404040"><set attributeName="fill" to="#808080" begin="zoomplus.mouseover" end="zoomplus.mouseout"/></use>
    <path d="M-4,0h8M0,-4v8" fill="none" stroke="white" stroke-width="1.5" pointer-events="none"/>
  </g>
  <g id="zoomMin">
    <use xlink:href="#rim" fill="#404040"><set attributeName="fill" to="#808080" begin="zoomminus.mouseover" end="zoomminus.mouseout"/></use>
    <path d="M-4,0h8" fill="none" stroke="white" stroke-width="1.5" pointer-events="none"/>
  </g>
  <g id="arrowUp" transform="translate(30 24)">
    <use xlink:href="#rim"/>
    <path pointer-events="none" fill="none" stroke="white" stroke-width="1.5" d="M0,-3.0v7 M-2.5,-0.5L0,-3.0L2.5,-0.5"/>
  </g>
  <g id="arrowRight" transform="rotate(90) translate(36 -43)">
    <use xlink:href="#rim"/>
    <path pointer-events="none" fill="none" stroke="white" stroke-width="1.5" d="M0,-3.0v7 M-2.5,-0.5L0,-3.0L2.5,-0.5"/>
  </g>
  <g id="arrowDown" transform="rotate(180) translate(-30 -48)">
    <use xlink:href="#rim"/>
    <path pointer-events="none" fill="none" stroke="white" stroke-width="1.5" d="M0,-3.0v7 M-2.5,-0.5L0,-3.0L2.5,-0.5"/>
  </g>
  <g id="arrowLeft" transform="rotate(270) translate(-36 17)">
    <use xlink:href="#rim"/>
    <path pointer-events="none" fill="none" stroke="white" stroke-width="1.5" d="M0,-3.0v7 M-2.5,-0.5L0,-3.0L2.5,-0.5"/>
  </g>
  <g id="resetDef">
    <use xlink:href="#rim2" fill="#404040"><set attributeName="fill" to="#808080" begin="reset.mouseover" end="reset.mouseout"/></use>
  </g>
</defs>
<script type="application/ecmascript">
var viewWidth = 726;
var viewHeight = 324;
var sectionId = 'dynsection-20';
</script>
<script type="application/ecmascript" xlink:href="svg.min.js"/>
<svg id="graph" class="graph">
<g id="viewport">
<title>CBiteOpt::generateSol5</title>
<!-- Node1 -->
<g id="Node000001" class="node">
<title>Node1</title>
<g id="a_Node000001"><a xlink:title=" ">
<polygon fill="#999999" stroke="#666666" points="119.5,-172 0,-172 0,-152 119.5,-152 119.5,-172"/>
<text text-anchor="middle" x="59.75" y="-158.5" font-family="Helvetica,sans-Serif" font-size="10.00">CBiteOpt::generateSol5</text>
</a>
</g>
</g>
<!-- Node2 -->
<g id="Node000002" class="node">
<title>Node2</title>
<g id="a_Node000002"><a xlink:href="class_c_bite_pop.html#ad427518ed1d47fbe3c2222b3a11badb7" target="_top" xlink:title=" ">
<polygon fill="white" stroke="#666666" points="444.38,-310 339.12,-310 339.12,-278 444.38,-278 444.38,-310"/>
<text text-anchor="start" x="347.12" y="-296.5" font-family="Helvetica,sans-Serif" font-size="10.00">CBitePop&lt; int64_t &gt;</text>
<text text-anchor="middle" x="391.75" y="-284.5" font-family="Helvetica,sans-Serif" font-size="10.00">::CBitePop</text>
</a>
</g>
</g>
<!-- Node1&#45;&gt;Node2 -->
<g id="edge1_Node000001_Node000002" class="edge">
<title>Node1&#45;&gt;Node2</title>
<g id="a_edge1_Node000001_Node000002"><a xlink:title=" ">
<path fill="none" stroke="#63b8ff" d="M64.24,-172.18C73.87,-198.43 103.59,-268.24 155.5,-295 208.72,-322.43 278.12,-318.12 327.72,-309.42"/>
<polygon fill="#63b8ff" stroke="#63b8ff" points="328.26,-312.88 337.45,-307.6 326.98,-306 328.26,-312.88"/>
</a>
</g>
</g>
<!-- Node3 -->
<g id="Node000003" class="node">
<title>Node3</title>
<g id="a_Node000003"><a xlink:href="class_c_bite_rnd.html#a6ccc0608cbc9080d9509a0e4c483adfe" target="_top" xlink:title=" ">
<polygon fill="white" stroke="#666666" points="576.62,-210 486.38,-210 486.38,-190 576.62,-190 576.62,-210"/>
<text text-anchor="middle" x="531.5" y="-196.5" font-family="Helvetica,sans-Serif" font-size="10.00">CBiteRnd::getBit</text>
</a>
</g>
</g>
<!-- Node1&#45;&gt;Node3 -->
<g id="edge2_Node000001_Node000003" class="edge">
<title>Node1&#45;&gt;Node3</title>
<g id="a_edge2_Node000001_Node000003"><a xlink:title=" ">
<path fill="none" stroke="#63b8ff" d="M119.79,-171.49C131.6,-173.18 143.92,-174.78 155.5,-176 268.5,-187.94 401.33,-194.75 474.7,-197.87"/>
<polygon fill="#63b8ff" stroke="#63b8ff" points="474.3,-201.36 484.44,-198.28 474.59,-194.36 474.3,-201.36"/>
</a>
</g>
</g>
<!-- Node5 -->
<g id="Node000005" class="node">
<title>Node5</title>
<g id="a_Node000005"><a xlink:href="class_c_bite_pop.html#a5aef425d751172e1fff38a455cb51d34" target="_top" xlink:title=" ">
<polygon fill="white" stroke="#666666" points="293.38,-58 163.38,-58 163.38,-38 293.38,-38 293.38,-58"/>
<text text-anchor="middle" x="228.38" y="-44.5" font-family="Helvetica,sans-Serif" font-size="10.00">CBitePop::getCurPopSize</text>
</a>
</g>
</g>
<!-- Node1&#45;&gt;Node5 -->
<g id="edge4_Node000001_Node000005" class="edge">
<title>Node1&#45;&gt;Node5</title>
<g id="a_edge4_Node000001_Node000005"><a xlink:title=" ">
<path fill="none" stroke="#63b8ff" d="M68.06,-151.65C82.47,-132.04 116.54,-89.44 155.5,-67 158.28,-65.4 161.19,-63.93 164.2,-62.58"/>
<polygon fill="#63b8ff" stroke="#63b8ff" points="165.23,-65.94 173.24,-59.01 162.65,-59.43 165.23,-65.94"/>
</a>
</g>
</g>
<!-- Node6 -->
<g id="Node000006" class="node">
<title>Node6</title>
<g id="a_Node000006"><a xlink:href="class_c_bite_rnd.html#a4e9ad0a5c5e09149a60f849736d8d7ce" target="_top" xlink:title=" ">
<polygon fill="white" stroke="#666666" points="436.5,-172 347,-172 347,-152 436.5,-152 436.5,-172"/>
<text text-anchor="middle" x="391.75" y="-158.5" font-family="Helvetica,sans-Serif" font-size="10.00">CBiteRnd::getInt</text>
</a>
</g>
</g>
<!-- Node1&#45;&gt;Node6 -->
<g id="edge5_Node000001_Node000006" class="edge">
<title>Node1&#45;&gt;Node6</title>
<g id="a_edge5_Node000001_Node000006"><a xlink:title=" ">
<path fill="none" stroke="#63b8ff" d="M119.75,-162C180.75,-162 275.28,-162 335.05,-162"/>
<polygon fill="#63b8ff" stroke="#63b8ff" points="335,-165.5 345,-162 335,-158.5 335,-165.5"/>
</a>
</g>
</g>
<!-- Node8 -->
<g id="Node000008" class="node">
<title>Node8</title>
<g id="a_Node000008"><a xlink:href="class_c_bite_pop.html#aaa8e3f180accfedf21218cbed8ffbb79" target="_top" xlink:title=" ">
<polygon fill="white" stroke="#666666" points="301.25,-20 155.5,-20 155.5,0 301.25,0 301.25,-20"/>
<text text-anchor="middle" x="228.38" y="-6.5" font-family="Helvetica,sans-Serif" font-size="10.00">CBitePop::getParamsOrdered</text>
</a>
</g>
</g>
<!-- Node1&#45;&gt;Node8 -->
<g id="edge8_Node000001_Node000008" class="edge">
<title>Node1&#45;&gt;Node8</title>
<g id="a_edge8_Node000001_Node000008"><a xlink:title=" ">
<path fill="none" stroke="#63b8ff" d="M65,-151.84C76.01,-126.82 107.93,-61.9 155.5,-29 157.45,-27.65 159.49,-26.4 161.59,-25.24"/>
<polygon fill="#63b8ff" stroke="#63b8ff" points="162.92,-28.48 170.48,-21.06 159.95,-22.14 162.92,-28.48"/>
</a>
</g>
</g>
<!-- Node9 -->
<g id="Node000009" class="node">
<title>Node9</title>
<g id="a_Node000009"><a xlink:href="class_c_bite_rnd.html#a6e9234ff0489b0d3d38ef71be159b34d" target="_top" xlink:title=" ">
<polygon fill="white" stroke="#666666" points="580.75,-134 482.25,-134 482.25,-114 580.75,-114 580.75,-134"/>
<text text-anchor="middle" x="531.5" y="-120.5" font-family="Helvetica,sans-Serif" font-size="10.00">CBiteRnd::getRaw</text>
</a>
</g>
</g>
<!-- Node1&#45;&gt;Node9 -->
<g id="edge9_Node000001_Node000009" class="edge">
<title>Node1&#45;&gt;Node9</title>
<g id="a_edge9_Node000001_Node000009"><a xlink:title=" ">
<path fill="none" stroke="#63b8ff" d="M119.77,-157.23C209.71,-149.95 380.15,-136.16 470.61,-128.84"/>
<polygon fill="#63b8ff" stroke="#63b8ff" points="470.84,-132.34 480.52,-128.04 470.27,-125.36 470.84,-132.34"/>
</a>
</g>
</g>
<!-- Node10 -->
<g id="Node000010" class="node">
<title>Node10</title>
<g id="a_Node000010"><a xlink:href="class_c_bite_rnd.html#ab73d2c6a6e4c1f5da7441168f165529d" target="_top" xlink:title=" ">
<polygon fill="white" stroke="#666666" points="280.62,-96 176.12,-96 176.12,-76 280.62,-76 280.62,-96"/>
<text text-anchor="middle" x="228.38" y="-82.5" font-family="Helvetica,sans-Serif" font-size="10.00">CBiteRnd::getSqrInt</text>
</a>
</g>
</g>
<!-- Node1&#45;&gt;Node10 -->
<g id="edge11_Node000001_Node000010" class="edge">
<title>Node1&#45;&gt;Node10</title>
<g id="a_edge11_Node000001_Node000010"><a xlink:title=" ">
<path fill="none" stroke="#63b8ff" d="M77.4,-151.66C95.97,-140.42 127.13,-122.4 155.5,-110 163.64,-106.44 172.48,-103.09 181.09,-100.09"/>
<polygon fill="#63b8ff" stroke="#63b8ff" points="182.01,-103.47 190.37,-96.96 179.77,-96.84 182.01,-103.47"/>
</a>
</g>
</g>
<!-- Node12 -->
<g id="Node000012" class="node">
<title>Node12</title>
<g id="a_Node000012"><a xlink:href="class_c_bite_opt.html#ab98060db69130d7610818bddda8c7115" target="_top" xlink:title=" ">
<polygon fill="white" stroke="#666666" points="287.38,-286 169.38,-286 169.38,-266 287.38,-266 287.38,-286"/>
<text text-anchor="middle" x="228.38" y="-272.5" font-family="Helvetica,sans-Serif" font-size="10.00">CBiteOpt::selectAltPop</text>
</a>
</g>
</g>
<!-- Node1&#45;&gt;Node12 -->
<g id="edge14_Node000001_Node000012" class="edge">
<title>Node1&#45;&gt;Node12</title>
<g id="a_edge14_Node000001_Node000012"><a xlink:title=" ">
<path fill="none" stroke="#63b8ff" d="M68.06,-172.35C82.47,-191.96 116.54,-234.56 155.5,-257 158.28,-258.6 161.19,-260.07 164.2,-261.42"/>
<polygon fill="#63b8ff" stroke="#63b8ff" points="162.65,-264.57 173.24,-264.99 165.23,-258.06 162.65,-264.57"/>
</a>
</g>
</g>
<!-- Node14 -->
<g id="Node000014" class="node">
<title>Node14</title>
<g id="a_Node000014"><a xlink:href="class_c_bite_opt.html#a344271b2490d03eaa0c8e1ab062d916d" target="_top" xlink:title=" ">
<polygon fill="white" stroke="#666666" points="288.88,-248 167.88,-248 167.88,-228 288.88,-228 288.88,-248"/>
<text text-anchor="middle" x="228.38" y="-234.5" font-family="Helvetica,sans-Serif" font-size="10.00">CBiteOpt::selectParPop</text>
</a>
</g>
</g>
<!-- Node1&#45;&gt;Node14 -->
<g id="edge17_Node000001_Node000014" class="edge">
<title>Node1&#45;&gt;Node14</title>
<g id="a_edge17_Node000001_Node000014"><a xlink:title=" ">
<path fill="none" stroke="#63b8ff" d="M77.4,-172.34C95.97,-183.58 127.13,-201.6 155.5,-214 163.64,-217.56 172.48,-220.91 181.09,-223.91"/>
<polygon fill="#63b8ff" stroke="#63b8ff" points="179.77,-227.16 190.37,-227.04 182.01,-220.53 179.77,-227.16"/>
</a>
</g>
</g>
<!-- Node4 -->
<g id="Node000004" class="node">
<title>Node4</title>
<g id="a_Node000004"><a xlink:href="class_c_bite_rnd.html#ae1167f8ecac85f268ced4bc1d2fa953b" target="_top" xlink:title=" ">
<polygon fill="white" stroke="#666666" points="718.25,-153 616.75,-153 616.75,-133 718.25,-133 718.25,-153"/>
<text text-anchor="middle" x="667.5" y="-139.5" font-family="Helvetica,sans-Serif" font-size="10.00">CBiteRnd::advance</text>
</a>
</g>
</g>
<!-- Node3&#45;&gt;Node4 -->
<g id="edge3_Node000003_Node000004" class="edge">
<title>Node3&#45;&gt;Node4</title>
<g id="a_edge3_Node000003_Node000004"><a xlink:title=" ">
<path fill="none" stroke="#63b8ff" d="M559.63,-189.55C566.54,-186.82 573.94,-183.85 580.75,-181 598.2,-173.7 617.48,-165.2 633.33,-158.09"/>
<polygon fill="#63b8ff" stroke="#63b8ff" points="634.62,-161.34 642.3,-154.05 631.75,-154.96 634.62,-161.34"/>
</a>
</g>
</g>
<!-- Node7 -->
<g id="Node000007" class="node">
<title>Node7</title>
<g id="a_Node000007"><a xlink:href="class_c_bite_rnd.html#afdb77334884f1a612780def0dec0a326" target="_top" xlink:title=" ">
<polygon fill="white" stroke="#666666" points="570.62,-172 492.38,-172 492.38,-152 570.62,-152 570.62,-172"/>
<text text-anchor="middle" x="531.5" y="-158.5" font-family="Helvetica,sans-Serif" font-size="10.00">CBiteRnd::get</text>
</a>
</g>
</g>
<!-- Node6&#45;&gt;Node7 -->
<g id="edge6_Node000006_Node000007" class="edge">
<title>Node6&#45;&gt;Node7</title>
<g id="a_edge6_Node000006_Node000007"><a xlink:title=" ">
<path fill="none" stroke="#63b8ff" d="M436.71,-162C450.75,-162 466.39,-162 480.81,-162"/>
<polygon fill="#63b8ff" stroke="#63b8ff" points="480.55,-165.5 490.55,-162 480.55,-158.5 480.55,-165.5"/>
</a>
</g>
</g>
<!-- Node7&#45;&gt;Node4 -->
<g id="edge7_Node000007_Node000004" class="edge">
<title>Node7&#45;&gt;Node4</title>
<g id="a_edge7_Node000007_Node000004"><a xlink:title=" ">
<path fill="none" stroke="#63b8ff" d="M570.9,-156.56C581.68,-155.03 593.68,-153.32 605.44,-151.66"/>
<polygon fill="#63b8ff" stroke="#63b8ff" points="605.68,-155.16 615.09,-150.29 604.69,-148.23 605.68,-155.16"/>
</a>
</g>
</g>
<!-- Node9&#45;&gt;Node4 -->
<g id="edge10_Node000009_Node000004" class="edge">
<title>Node9&#45;&gt;Node4</title>
<g id="a_edge10_Node000009_Node000004"><a xlink:title=" ">
<path fill="none" stroke="#63b8ff" d="M580.88,-130.86C588.72,-131.97 596.94,-133.14 605.05,-134.29"/>
<polygon fill="#63b8ff" stroke="#63b8ff" points="604.5,-137.74 614.89,-135.68 605.48,-130.81 604.5,-137.74"/>
</a>
</g>
</g>
<!-- Node11 -->
<g id="Node000011" class="node">
<title>Node11</title>
<g id="a_Node000011"><a xlink:href="class_c_bite_rnd.html#aabbf1ffd535ca8fe31fda768f15ccd1b" target="_top" xlink:title=" ">
<polygon fill="white" stroke="#666666" points="578.12,-96 484.88,-96 484.88,-76 578.12,-76 578.12,-96"/>
<text text-anchor="middle" x="531.5" y="-82.5" font-family="Helvetica,sans-Serif" font-size="10.00">CBiteRnd::getSqr</text>
</a>
</g>
</g>
<!-- Node10&#45;&gt;Node11 -->
<g id="edge12_Node000010_Node000011" class="edge">
<title>Node10&#45;&gt;Node11</title>
<g id="a_edge12_Node000010_Node000011"><a xlink:title=" ">
<path fill="none" stroke="#63b8ff" d="M280.8,-86C334.27,-86 417.79,-86 473.31,-86"/>
<polygon fill="#63b8ff" stroke="#63b8ff" points="473.2,-89.5 483.2,-86 473.2,-82.5 473.2,-89.5"/>
</a>
</g>
</g>
<!-- Node11&#45;&gt;Node4 -->
<g id="edge13_Node000011_Node000004" class="edge">
<title>Node11&#45;&gt;Node4</title>
<g id="a_edge13_Node000011_Node000004"><a xlink:title=" ">
<path fill="none" stroke="#63b8ff" d="M559.63,-96.45C566.54,-99.18 573.94,-102.15 580.75,-105 598.2,-112.3 617.48,-120.8 633.33,-127.91"/>
<polygon fill="#63b8ff" stroke="#63b8ff" points="631.75,-131.04 642.3,-131.95 634.62,-124.66 631.75,-131.04"/>
</a>
</g>
</g>
<!-- Node12&#45;&gt;Node2 -->
<g id="edge15_Node000012_Node000002" class="edge">
<title>Node12&#45;&gt;Node2</title>
<g id="a_edge15_Node000012_Node000002"><a xlink:title=" ">
<path fill="none" stroke="#63b8ff" d="M287.64,-282.5C300.55,-283.94 314.3,-285.47 327.41,-286.94"/>
<polygon fill="#63b8ff" stroke="#63b8ff" points="326.9,-290.4 337.23,-288.03 327.68,-283.44 326.9,-290.4"/>
</a>
</g>
</g>
<!-- Node13 -->
<g id="Node000013" class="node">
<title>Node13</title>
<g id="a_Node000013"><a xlink:href="class_c_bite_opt_base.html#abf93d2e584756812ad210f86e4f84a69" target="_top" xlink:title=" ">
<polygon fill="white" stroke="#666666" points="446.25,-260 337.25,-260 337.25,-228 446.25,-228 446.25,-260"/>
<text text-anchor="start" x="345.25" y="-246.5" font-family="Helvetica,sans-Serif" font-size="10.00">CBiteOptBase&lt; int64</text>
<text text-anchor="middle" x="391.75" y="-234.5" font-family="Helvetica,sans-Serif" font-size="10.00">_t &gt;::select</text>
</a>
</g>
</g>
<!-- Node12&#45;&gt;Node13 -->
<g id="edge16_Node000012_Node000013" class="edge">
<title>Node12&#45;&gt;Node13</title>
<g id="a_edge16_Node000012_Node000013"><a xlink:title=" ">
<path fill="none" stroke="#63b8ff" d="M282.22,-265.52C296.21,-262.75 311.47,-259.72 326.01,-256.84"/>
<polygon fill="#63b8ff" stroke="#63b8ff" points="326.35,-260.34 335.48,-254.96 324.99,-253.47 326.35,-260.34"/>
</a>
</g>
</g>
<!-- Node14&#45;&gt;Node2 -->
<g id="edge18_Node000014_Node000002" class="edge">
<title>Node14&#45;&gt;Node2</title>
<g id="a_edge18_Node000014_Node000002"><a xlink:title=" ">
<path fill="none" stroke="#63b8ff" d="M272.6,-248.42C282.11,-251 292.08,-253.91 301.25,-257 315.2,-261.71 330.09,-267.52 343.63,-273.14"/>
<polygon fill="#63b8ff" stroke="#63b8ff" points="342.19,-276.33 352.76,-276.99 344.91,-269.88 342.19,-276.33"/>
</a>
</g>
</g>
<!-- Node14&#45;&gt;Node6 -->
<g id="edge19_Node000014_Node000006" class="edge">
<title>Node14&#45;&gt;Node6</title>
<g id="a_edge19_Node000014_Node000006"><a xlink:title=" ">
<path fill="none" stroke="#63b8ff" d="M251.48,-227.59C279.16,-214.55 326.82,-192.11 358.56,-177.16"/>
<polygon fill="#63b8ff" stroke="#63b8ff" points="359.73,-180.48 367.29,-173.05 356.75,-174.14 359.73,-180.48"/>
</a>
</g>
</g>
<!-- Node14&#45;&gt;Node13 -->
<g id="edge20_Node000014_Node000013" class="edge">
<title>Node14&#45;&gt;Node13</title>
<g id="a_edge20_Node000014_Node000013"><a xlink:title=" ">
<path fill="none" stroke="#63b8ff" d="M289.01,-240.22C300.91,-240.66 313.48,-241.13 325.56,-241.58"/>
<polygon fill="#63b8ff" stroke="#63b8ff" points="325.33,-245.07 335.45,-241.94 325.59,-238.07 325.33,-245.07"/>
</a>
</g>
</g>
</g>
</svg>

<g id="navigator" transform="translate(0 0)" fill="#404254">
  <rect fill="#f2f5e9" fill-opacity="0.5" stroke="#606060" stroke-width=".5" x="0" y="0" width="60" height="60"/>
  <use id="zoomplus" xlink:href="#zoomPlus" x="17" y="9" onmousedown="handleZoom(evt,'in')"/>
  <use id="zoomminus" xlink:href="#zoomMin" x="42" y="9" onmousedown="handleZoom(evt,'out')"/>
  <use id="reset" xlink:href="#resetDef" x="30" y="36" onmousedown="handleReset()"/>
   <use id="arrowup" xlink:href="#arrowUp" x="0" y="0" onmousedown="handlePan(0,-1)"/>
  <use id="arrowright" xlink:href="#arrowRight" x="0" y="0" onmousedown="handlePan(1,0)"/>
  <use id="arrowdown" xlink:href="#arrowDown" x="0" y="0" onmousedown="handlePan(0,1)"/>
  <use id="arrowleft" xlink:href="#arrowLeft" x="0" y="0" onmousedown="handlePan(-1,0)"/>
</g>
<svg viewBox="0 0 15 15" width="100%" height="30px" preserveAspectRatio="xMaxYMin meet">
 <g id="arrow_out" transform="scale(0.3 0.3)">
  <a xlink:href="class_c_bite_opt_a01e7f5a94a2ae837844f8c60ddf21db6_cgraph_org.svg" target="_base">
   <rect id="button" ry="5" rx="5" y="6" x="6" height="38" width="38"
        fill="#f2f5e9" fill-opacity="0.5" stroke="#606060" stroke-width="1.0"/>
   <path id="arrow"
     d="M 11.500037,31.436501 C 11.940474,20.09759 22.043105,11.32322 32.158766,21.979434 L 37.068811,17.246167 C 37.068811,17.246167 37.088388,32 37.088388,32 L 22.160133,31.978069 C 22.160133,31.978069 26.997745,27.140456 26.997745,27.140456 C 18.528582,18.264221 13.291696,25.230495 11.500037,31.436501 z"
     style="fill:#404040;"/>
  </a>
 </g>
</svg>

<style type='text/css'>
<![CDATA[
[data-mouse-over-selected='false'] { opacity: 0.7; }
[data-mouse-over-selected='true']  { opacity: 1.0; }
]]>
</style>
<script type="application/ecmascript"><![CDATA[
document.addEventListener('DOMContentLoaded', (event) => {
  highlightEdges();
  highlightAdjacentNodes();
});
]]></script>
</svg>
