<?xml version="1.0" encoding="UTF-8" standalone="no"?>
<!DOCTYPE svg PUBLIC "-//W3C//DTD SVG 1.1//EN"
 "http://www.w3.org/Graphics/SVG/1.1/DTD/svg11.dtd">
<!-- Generated by graphviz version 12.2.1 (20241206.2353)
 -->
<!-- Title: fcmaes.multiretry.multiretry.save Pages: 1 -->
<svg width="731pt" height="166pt"
 viewBox="0.00 0.00 731.25 166.00" xmlns="http://www.w3.org/2000/svg" xmlns:xlink="http://www.w3.org/1999/xlink">
<g id="graph0" class="graph" transform="scale(1 1) rotate(0) translate(4 162)">
<title>fcmaes.multiretry.multiretry.save</title>
<!-- Node1 -->
<g id="Node000001" class="node">
<title>Node1</title>
<g id="a_Node000001"><a xlink:title="Saves the data returned by the get_data method into a compressed bz2 file with the specified name.">
<polygon fill="#999999" stroke="#666666" points="157.75,-67 0,-67 0,-47 157.75,-47 157.75,-67"/>
<text text-anchor="middle" x="78.88" y="-53.5" font-family="Helvetica,sans-Serif" font-size="10.00">fcmaes.multiretry.multiretry.save</text>
</a>
</g>
</g>
<!-- Node2 -->
<g id="Node000002" class="node">
<title>Node2</title>
<g id="a_Node000002"><a xlink:href="classfcmaes_1_1advretry_1_1_store.html#aabe26248085adae1ad80a9b17202e5b7" target="_top" xlink:title="Retrieves and aggregates data from various attributes and methods.">
<polygon fill="white" stroke="#666666" points="357.12,-86 204.62,-86 204.62,-66 357.12,-66 357.12,-86"/>
<text text-anchor="middle" x="280.88" y="-72.5" font-family="Helvetica,sans-Serif" font-size="10.00">fcmaes.advretry.Store.get_data</text>
</a>
</g>
</g>
<!-- Node1&#45;&gt;Node2 -->
<g id="edge1_Node000001_Node000002" class="edge">
<title>Node1&#45;&gt;Node2</title>
<g id="a_edge1_Node000001_Node000002"><a xlink:title=" ">
<path fill="none" stroke="#63b8ff" d="M158.06,-64.43C169.6,-65.52 181.55,-66.66 193.25,-67.77"/>
<polygon fill="#63b8ff" stroke="#63b8ff" points="192.57,-71.22 202.86,-68.68 193.24,-64.25 192.57,-71.22"/>
</a>
</g>
</g>
<!-- Node8 -->
<g id="Node000008" class="node">
<title>Node8</title>
<g id="a_Node000008"><a xlink:href="classfcmaes_1_1multiretry_1_1multiretry.html#a9f823aeb9dfd28ddc6ce5e4789013405" target="_top" xlink:title="Fetches and aggregates data from all stats objects.">
<polygon fill="white" stroke="#666666" points="368,-48 193.75,-48 193.75,-28 368,-28 368,-48"/>
<text text-anchor="middle" x="280.88" y="-34.5" font-family="Helvetica,sans-Serif" font-size="10.00">fcmaes.multiretry.multiretry.get_data</text>
</a>
</g>
</g>
<!-- Node1&#45;&gt;Node8 -->
<g id="edge7_Node000001_Node000008" class="edge">
<title>Node1&#45;&gt;Node8</title>
<g id="a_edge7_Node000001_Node000008"><a xlink:title=" ">
<path fill="none" stroke="#63b8ff" d="M158.06,-49.57C165.95,-48.82 174.04,-48.05 182.1,-47.29"/>
<polygon fill="#63b8ff" stroke="#63b8ff" points="182.34,-50.78 191.96,-46.35 181.68,-43.81 182.34,-50.78"/>
</a>
</g>
</g>
<!-- Node3 -->
<g id="Node000003" class="node">
<title>Node3</title>
<g id="a_Node000003"><a xlink:href="classfcmaes_1_1advretry_1_1_store.html#a95e2b65e516214df91625c67e4ebe558" target="_top" xlink:title="Returns a copy of the best solutions stored in the internal state.">
<polygon fill="white" stroke="#666666" points="540.38,-158 411.88,-158 411.88,-126 540.38,-126 540.38,-158"/>
<text text-anchor="start" x="419.88" y="-144.5" font-family="Helvetica,sans-Serif" font-size="10.00">fcmaes.advretry.Store.get</text>
<text text-anchor="middle" x="476.12" y="-132.5" font-family="Helvetica,sans-Serif" font-size="10.00">_x_best</text>
</a>
</g>
</g>
<!-- Node2&#45;&gt;Node3 -->
<g id="edge2_Node000002_Node000003" class="edge">
<title>Node2&#45;&gt;Node3</title>
<g id="a_edge2_Node000002_Node000003"><a xlink:title=" ">
<path fill="none" stroke="#63b8ff" d="M312.5,-86.46C340.25,-95.94 381.92,-110.17 416.13,-121.85"/>
<polygon fill="#63b8ff" stroke="#63b8ff" points="414.92,-125.14 425.52,-125.06 417.19,-118.51 414.92,-125.14"/>
</a>
</g>
</g>
<!-- Node4 -->
<g id="Node000004" class="node">
<title>Node4</title>
<g id="a_Node000004"><a xlink:href="classfcmaes_1_1advretry_1_1_store.html#a2df2e37a5663c3e12c22c4b97f2549a2" target="_top" xlink:title="Builds and returns an array of x values stored in the object.">
<polygon fill="white" stroke="#666666" points="548.25,-108 404,-108 404,-88 548.25,-88 548.25,-108"/>
<text text-anchor="middle" x="476.12" y="-94.5" font-family="Helvetica,sans-Serif" font-size="10.00">fcmaes.advretry.Store.get_xs</text>
</a>
</g>
</g>
<!-- Node2&#45;&gt;Node4 -->
<g id="edge3_Node000002_Node000004" class="edge">
<title>Node2&#45;&gt;Node4</title>
<g id="a_edge3_Node000002_Node000004"><a xlink:title=" ">
<path fill="none" stroke="#63b8ff" d="M357.42,-84.6C368.97,-85.92 380.95,-87.28 392.64,-88.61"/>
<polygon fill="#63b8ff" stroke="#63b8ff" points="391.91,-92.05 402.24,-89.7 392.7,-85.09 391.91,-92.05"/>
</a>
</g>
</g>
<!-- Node6 -->
<g id="Node000006" class="node">
<title>Node6</title>
<g id="a_Node000006"><a xlink:href="classfcmaes_1_1advretry_1_1_store.html#a801f488c7741c549ab3212f5ce52803a" target="_top" xlink:title="Returns the best value of y stored in the best_y attribute.">
<polygon fill="white" stroke="#666666" points="540.38,-70 411.88,-70 411.88,-38 540.38,-38 540.38,-70"/>
<text text-anchor="start" x="419.88" y="-56.5" font-family="Helvetica,sans-Serif" font-size="10.00">fcmaes.advretry.Store.get</text>
<text text-anchor="middle" x="476.12" y="-44.5" font-family="Helvetica,sans-Serif" font-size="10.00">_y_best</text>
</a>
</g>
</g>
<!-- Node2&#45;&gt;Node6 -->
<g id="edge5_Node000002_Node000006" class="edge">
<title>Node2&#45;&gt;Node6</title>
<g id="a_edge5_Node000002_Node000006"><a xlink:title=" ">
<path fill="none" stroke="#63b8ff" d="M357.42,-67.4C371.54,-65.79 386.29,-64.11 400.38,-62.51"/>
<polygon fill="#63b8ff" stroke="#63b8ff" points="400.47,-66.02 410.01,-61.41 399.68,-59.07 400.47,-66.02"/>
</a>
</g>
</g>
<!-- Node7 -->
<g id="Node000007" class="node">
<title>Node7</title>
<g id="a_Node000007"><a xlink:href="classfcmaes_1_1advretry_1_1_store.html#a3cc073975313c4893de761cfc9771d77" target="_top" xlink:title="Gets the stored y&#45;values up to the specified count.">
<polygon fill="white" stroke="#666666" points="548.25,-20 404,-20 404,0 548.25,0 548.25,-20"/>
<text text-anchor="middle" x="476.12" y="-6.5" font-family="Helvetica,sans-Serif" font-size="10.00">fcmaes.advretry.Store.get_ys</text>
</a>
</g>
</g>
<!-- Node2&#45;&gt;Node7 -->
<g id="edge6_Node000002_Node000007" class="edge">
<title>Node2&#45;&gt;Node7</title>
<g id="a_edge6_Node000002_Node000007"><a xlink:title=" ">
<path fill="none" stroke="#63b8ff" d="M344.6,-65.61C352.66,-63.29 360.65,-60.45 368,-57 386.35,-48.38 385.85,-38.02 404,-29 407.48,-27.27 411.14,-25.68 414.89,-24.23"/>
<polygon fill="#63b8ff" stroke="#63b8ff" points="415.88,-27.59 424.16,-20.98 413.57,-20.98 415.88,-27.59"/>
</a>
</g>
</g>
<!-- Node5 -->
<g id="Node000005" class="node">
<title>Node5</title>
<g id="a_Node000005"><a xlink:href="classfcmaes_1_1advretry_1_1_store.html#a97e407315b2e0c802b9d5b4414f3f91b" target="_top" xlink:title="Retrieves a segment of the xs array corresponding to the provided pid.">
<polygon fill="white" stroke="#666666" points="723.25,-108 584.25,-108 584.25,-88 723.25,-88 723.25,-108"/>
<text text-anchor="middle" x="653.75" y="-94.5" font-family="Helvetica,sans-Serif" font-size="10.00">fcmaes.advretry.Store.get_x</text>
</a>
</g>
</g>
<!-- Node4&#45;&gt;Node5 -->
<g id="edge4_Node000004_Node000005" class="edge">
<title>Node4&#45;&gt;Node5</title>
<g id="a_edge4_Node000004_Node000005"><a xlink:title=" ">
<path fill="none" stroke="#63b8ff" d="M548.56,-98C556.5,-98 564.62,-98 572.66,-98"/>
<polygon fill="#63b8ff" stroke="#63b8ff" points="572.42,-101.5 582.42,-98 572.42,-94.5 572.42,-101.5"/>
</a>
</g>
</g>
</g>
</svg>
