<?xml version="1.0" encoding="UTF-8" standalone="no"?>
<!DOCTYPE svg PUBLIC "-//W3C//DTD SVG 1.1//EN"
 "http://www.w3.org/Graphics/SVG/1.1/DTD/svg11.dtd">
<!-- Generated by graphviz version 12.2.1 (20241206.2353)
 -->
<!-- Title: CBiteOptDeep::getBestParams Pages: 1 -->
<svg width="308pt" height="52pt"
 viewBox="0.00 0.00 307.75 52.00" xmlns="http://www.w3.org/2000/svg" xmlns:xlink="http://www.w3.org/1999/xlink">
<g id="graph0" class="graph" transform="scale(1 1) rotate(0) translate(4 48)">
<title>CBiteOptDeep::getBestParams</title>
<!-- Node1 -->
<g id="Node000001" class="node">
<title>Node1</title>
<g id="a_Node000001"><a xlink:title=" ">
<polygon fill="#999999" stroke="#666666" points="299.75,-26 146.5,-26 146.5,-6 299.75,-6 299.75,-26"/>
<text text-anchor="middle" x="223.12" y="-12.5" font-family="Helvetica,sans-Serif" font-size="10.00">CBiteOptDeep::getBestParams</text>
</a>
</g>
</g>
<!-- Node1&#45;&gt;Node1 -->
<g id="edge1_Node000001_Node000001" class="edge">
<title>Node1&#45;&gt;Node1</title>
<g id="a_edge1_Node000001_Node000001"><a xlink:title=" ">
<path fill="none" stroke="#63b8ff" d="M252.8,-37.44C248.97,-41.3 239.08,-44 223.12,-44 193.94,-44 185.05,-34.98 196.45,-26.34"/>
<polygon fill="#63b8ff" stroke="#63b8ff" points="256.18,-36.54 250.19,-27.8 249.42,-38.37 256.18,-36.54"/>
</a>
</g>
</g>
<!-- Node2 -->
<g id="Node000002" class="node">
<title>Node2</title>
<g id="a_Node000002"><a xlink:href="classbiteopt_1_1_bite_optimizer.html#a311b608ce3c0eea69d66615f22448279" target="_top" xlink:title=" ">
<polygon fill="white" stroke="#666666" points="110.5,-32 0,-32 0,0 110.5,0 110.5,-32"/>
<text text-anchor="start" x="8" y="-18.5" font-family="Helvetica,sans-Serif" font-size="10.00">biteopt::BiteOptimizer</text>
<text text-anchor="middle" x="55.25" y="-6.5" font-family="Helvetica,sans-Serif" font-size="10.00">::getBestX</text>
</a>
</g>
</g>
<!-- Node1&#45;&gt;Node2 -->
<g id="edge2_Node000001_Node000002" class="edge">
<title>Node1&#45;&gt;Node2</title>
<g id="a_edge2_Node000001_Node000002"><a xlink:title=" ">
<path fill="none" stroke="#63b8ff" d="M135.22,-16C126.98,-16 118.79,-16 110.98,-16"/>
<polygon fill="#63b8ff" stroke="#63b8ff" points="134.96,-19.5 144.96,-16 134.96,-12.5 134.96,-19.5"/>
</a>
</g>
</g>
</g>
</svg>
