<?xml version="1.0" encoding="UTF-8" standalone="no"?>
<!DOCTYPE svg PUBLIC "-//W3C//DTD SVG 1.1//EN"
 "http://www.w3.org/Graphics/SVG/1.1/DTD/svg11.dtd">
<!-- Generated by graphviz version 12.2.1 (20241206.2353)
 -->
<!-- Title: fcmaes.astro.Gtoc1 Pages: 1 -->
<svg width="102pt" height="92pt"
 viewBox="0.00 0.00 102.25 92.00" xmlns="http://www.w3.org/2000/svg" xmlns:xlink="http://www.w3.org/1999/xlink">

<svg id="main" version="1.1" xmlns="http://www.w3.org/2000/svg" xmlns:xlink="http://www.w3.org/1999/xlink" xml:space="preserve">

<style type="text/css"><![CDATA[
.node, .edge {opacity: 0.7;}
.node.selected, .edge.selected {opacity: 1;}
.edge:hover path { stroke: red; }
.edge:hover polygon { stroke: red; fill: red; }
]]></style>
<script type="application/ecmascript" xlink:href="svg.min.js"/>
<svg id="graph" class="graph">
<g id="graph0" class="graph" transform="scale(1 1) rotate(0) translate(4 88)">
<title>fcmaes.astro.Gtoc1</title>
<!-- Node1 -->
<g id="Node000001" class="node">
<title>Node1</title>
<g id="a_Node000001"><a xlink:title="Represents the GTOC1 class, which is a specialized subclass of Astrofun.">
<polygon fill="#999999" stroke="none" points="94.25,-84 0,-84 0,0 94.25,0 94.25,-84"/>
<text text-anchor="start" x="4" y="-70.5" font-family="Helvetica,sans-Serif" font-size="10.00">fcmaes.astro.Gtoc1</text>
<text text-anchor="start" x="8.81" y="-54.5" font-family="Helvetica,sans-Serif" font-size="10.00">+</text>
<text text-anchor="start" x="23.62" y="-54.5" font-family="Helvetica,sans-Serif" font-size="10.00">gfun</text>
<text text-anchor="start" x="8.81" y="-38.5" font-family="Helvetica,sans-Serif" font-size="10.00">+</text>
<text text-anchor="start" x="23.62" y="-38.5" font-family="Helvetica,sans-Serif" font-size="10.00">fun</text>
<text text-anchor="start" x="8.81" y="-22.5" font-family="Helvetica,sans-Serif" font-size="10.00">+</text>
<text text-anchor="start" x="23.62" y="-22.5" font-family="Helvetica,sans-Serif" font-size="10.00">__init__(self)</text>
<text text-anchor="start" x="8.81" y="-6.5" font-family="Helvetica,sans-Serif" font-size="10.00">+</text>
<text text-anchor="start" x="23.62" y="-6.5" font-family="Helvetica,sans-Serif" font-size="10.00">gtoc1(self, x)</text>
<polygon fill="#666666" stroke="#666666" points="0,-66 0,-66 94.25,-66 94.25,-66 0,-66"/>
<polygon fill="#666666" stroke="#666666" points="0,-34 0,-34 21.62,-34 21.62,-34 0,-34"/>
<polygon fill="#666666" stroke="#666666" points="21.62,-34 21.62,-34 94.25,-34 94.25,-34 21.62,-34"/>
<polygon fill="none" stroke="#666666" points="0,0 0,-84 94.25,-84 94.25,0 0,0"/>
</a>
</g>
</g>
</g>
</svg>
</svg>

<style type='text/css'>
<![CDATA[
[data-mouse-over-selected='false'] { opacity: 0.7; }
[data-mouse-over-selected='true']  { opacity: 1.0; }
]]>
</style>
<script type="application/ecmascript"><![CDATA[
document.addEventListener('DOMContentLoaded', (event) => {
  highlightEdges();
  highlightAdjacentNodes();
});
]]></script>
</svg>
