<?xml version="1.0" encoding="UTF-8" standalone="no"?>
<!DOCTYPE svg PUBLIC "-//W3C//DTD SVG 1.1//EN"
 "http://www.w3.org/Graphics/SVG/1.1/DTD/svg11.dtd">
<!-- Generated by graphviz version 12.2.1 (20241206.2353)
 -->
<!-- Title: CDEOpt::init Pages: 1 -->
<svg width="228pt" height="140pt"
 viewBox="0.00 0.00 227.50 140.00" xmlns="http://www.w3.org/2000/svg" xmlns:xlink="http://www.w3.org/1999/xlink">
<g id="graph0" class="graph" transform="scale(1 1) rotate(0) translate(4 136)">
<title>CDEOpt::init</title>
<!-- Node1 -->
<g id="Node000001" class="node">
<title>Node1</title>
<g id="a_Node000001"><a xlink:title=" ">
<polygon fill="#999999" stroke="#666666" points="72.25,-76 0,-76 0,-56 72.25,-56 72.25,-76"/>
<text text-anchor="middle" x="36.12" y="-62.5" font-family="Helvetica,sans-Serif" font-size="10.00">CDEOpt::init</text>
</a>
</g>
</g>
<!-- Node2 -->
<g id="Node000002" class="node">
<title>Node2</title>
<g id="a_Node000002"><a xlink:href="class_c_bite_pop.html#aecaac61269e65bda93cb2dc1a3a26091" target="_top" xlink:title=" ">
<polygon fill="white" stroke="#666666" points="216.5,-132 111.25,-132 111.25,-100 216.5,-100 216.5,-132"/>
<text text-anchor="start" x="119.25" y="-118.5" font-family="Helvetica,sans-Serif" font-size="10.00">CBitePop&lt; int64_t &gt;</text>
<text text-anchor="middle" x="163.88" y="-106.5" font-family="Helvetica,sans-Serif" font-size="10.00">::getGaussianInt</text>
</a>
</g>
</g>
<!-- Node1&#45;&gt;Node2 -->
<g id="edge1_Node000001_Node000002" class="edge">
<title>Node1&#45;&gt;Node2</title>
<g id="a_edge1_Node000001_Node000002"><a xlink:title=" ">
<path fill="none" stroke="#63b8ff" d="M63.49,-76.48C77.31,-81.98 94.74,-88.91 111.13,-95.42"/>
<polygon fill="#63b8ff" stroke="#63b8ff" points="109.7,-98.62 120.29,-99.07 112.29,-92.12 109.7,-98.62"/>
</a>
</g>
</g>
<!-- Node3 -->
<g id="Node000003" class="node">
<title>Node3</title>
<g id="a_Node000003"><a xlink:href="class_c_bite_opt_base.html#a768362da5c773eea5a8649d44676eeed" target="_top" xlink:title=" ">
<polygon fill="white" stroke="#666666" points="219.5,-82 108.25,-82 108.25,-50 219.5,-50 219.5,-82"/>
<text text-anchor="start" x="116.25" y="-68.5" font-family="Helvetica,sans-Serif" font-size="10.00">CBiteOptBase&lt; int64</text>
<text text-anchor="middle" x="163.88" y="-56.5" font-family="Helvetica,sans-Serif" font-size="10.00">_t &gt;::initCommonVars</text>
</a>
</g>
</g>
<!-- Node1&#45;&gt;Node3 -->
<g id="edge2_Node000001_Node000003" class="edge">
<title>Node1&#45;&gt;Node3</title>
<g id="a_edge2_Node000001_Node000003"><a xlink:title=" ">
<path fill="none" stroke="#63b8ff" d="M72.49,-66C80.08,-66 88.34,-66 96.67,-66"/>
<polygon fill="#63b8ff" stroke="#63b8ff" points="96.52,-69.5 106.52,-66 96.52,-62.5 96.52,-69.5"/>
</a>
</g>
</g>
<!-- Node4 -->
<g id="Node000004" class="node">
<title>Node4</title>
<g id="a_Node000004"><a xlink:href="class_c_bite_pop.html#a3b7e8d2276455475bd761e29c8c72ac6" target="_top" xlink:title=" ">
<polygon fill="white" stroke="#666666" points="216.5,-32 111.25,-32 111.25,0 216.5,0 216.5,-32"/>
<text text-anchor="start" x="119.25" y="-18.5" font-family="Helvetica,sans-Serif" font-size="10.00">CBitePop&lt; int64_t &gt;</text>
<text text-anchor="middle" x="163.88" y="-6.5" font-family="Helvetica,sans-Serif" font-size="10.00">::wrapParam</text>
</a>
</g>
</g>
<!-- Node1&#45;&gt;Node4 -->
<g id="edge3_Node000001_Node000004" class="edge">
<title>Node1&#45;&gt;Node4</title>
<g id="a_edge3_Node000001_Node000004"><a xlink:title=" ">
<path fill="none" stroke="#63b8ff" d="M63.49,-55.52C77.31,-50.02 94.74,-43.09 111.13,-36.58"/>
<polygon fill="#63b8ff" stroke="#63b8ff" points="112.29,-39.88 120.29,-32.93 109.7,-33.38 112.29,-39.88"/>
</a>
</g>
</g>
</g>
</svg>
