<?xml version="1.0" encoding="UTF-8" standalone="no"?>
<!DOCTYPE svg PUBLIC "-//W3C//DTD SVG 1.1//EN"
 "http://www.w3.org/Graphics/SVG/1.1/DTD/svg11.dtd">
<!-- Generated by graphviz version 12.2.1 (20241206.2353)
 -->
<!-- Title: fcmaes.mode.store.get_front Pages: 1 -->
<svg width="279pt" height="90pt"
 viewBox="0.00 0.00 279.25 90.00" xmlns="http://www.w3.org/2000/svg" xmlns:xlink="http://www.w3.org/1999/xlink">
<g id="graph0" class="graph" transform="scale(1 1) rotate(0) translate(4 86)">
<title>fcmaes.mode.store.get_front</title>
<!-- Node1 -->
<g id="Node000001" class="node">
<title>Node1</title>
<g id="a_Node000001"><a xlink:title="Retrieves the Pareto front from stored values of xs_view and ys_view.">
<polygon fill="#999999" stroke="#666666" points="271.25,-57 154.75,-57 154.75,-25 271.25,-25 271.25,-57"/>
<text text-anchor="start" x="162.75" y="-43.5" font-family="Helvetica,sans-Serif" font-size="10.00">fcmaes.mode.store.get</text>
<text text-anchor="middle" x="213" y="-31.5" font-family="Helvetica,sans-Serif" font-size="10.00">_front</text>
</a>
</g>
</g>
<!-- Node2 -->
<g id="Node000002" class="node">
<title>Node2</title>
<g id="a_Node000002"><a xlink:href="classfcmaes_1_1mode_1_1store.html#a215371084a0bff8b1368d27a91495fb5" target="_top" xlink:title="Adds a result to the storage, ensuring that the storage capacity is not exceeded.">
<polygon fill="white" stroke="#666666" points="118.75,-82 0,-82 0,-50 118.75,-50 118.75,-82"/>
<text text-anchor="start" x="8" y="-68.5" font-family="Helvetica,sans-Serif" font-size="10.00">fcmaes.mode.store.add</text>
<text text-anchor="middle" x="59.38" y="-56.5" font-family="Helvetica,sans-Serif" font-size="10.00">_result</text>
</a>
</g>
</g>
<!-- Node1&#45;&gt;Node2 -->
<g id="edge1_Node000001_Node000002" class="edge">
<title>Node1&#45;&gt;Node2</title>
<g id="a_edge1_Node000001_Node000002"><a xlink:title=" ">
<path fill="none" stroke="#63b8ff" d="M143.32,-52.32C135.21,-53.66 126.99,-55.02 119.04,-56.33"/>
<polygon fill="#63b8ff" stroke="#63b8ff" points="143.89,-55.78 153.18,-50.7 142.75,-48.87 143.89,-55.78"/>
</a>
</g>
</g>
<!-- Node3 -->
<g id="Node000003" class="node">
<title>Node3</title>
<g id="a_Node000003"><a xlink:href="classfcmaes_1_1mode_1_1store.html#aac282e295578d049a156da83056e25fe" target="_top" xlink:title="Adds the content of the provided xs and ys to the storage, while managing the storage capacity and en...">
<polygon fill="white" stroke="#666666" points="118.75,-32 0,-32 0,0 118.75,0 118.75,-32"/>
<text text-anchor="start" x="8" y="-18.5" font-family="Helvetica,sans-Serif" font-size="10.00">fcmaes.mode.store.add</text>
<text text-anchor="middle" x="59.38" y="-6.5" font-family="Helvetica,sans-Serif" font-size="10.00">_results</text>
</a>
</g>
</g>
<!-- Node1&#45;&gt;Node3 -->
<g id="edge2_Node000001_Node000003" class="edge">
<title>Node1&#45;&gt;Node3</title>
<g id="a_edge2_Node000001_Node000003"><a xlink:title=" ">
<path fill="none" stroke="#63b8ff" d="M143.32,-29.68C135.21,-28.34 126.99,-26.98 119.04,-25.67"/>
<polygon fill="#63b8ff" stroke="#63b8ff" points="142.75,-33.13 153.18,-31.3 143.89,-26.22 142.75,-33.13"/>
</a>
</g>
</g>
</g>
</svg>
