<?xml version="1.0" encoding="UTF-8" standalone="no"?>
<!DOCTYPE svg PUBLIC "-//W3C//DTD SVG 1.1//EN"
 "http://www.w3.org/Graphics/SVG/1.1/DTD/svg11.dtd">
<!-- Generated by graphviz version 12.2.1 (20241206.2353)
 -->
<!-- Title: CNMSeqOpt::findhi Pages: 1 -->
<svg width="412pt" height="66pt"
 viewBox="0.00 0.00 411.50 66.00" xmlns="http://www.w3.org/2000/svg" xmlns:xlink="http://www.w3.org/1999/xlink">
<g id="graph0" class="graph" transform="scale(1 1) rotate(0) translate(4 62)">
<title>CNMSeqOpt::findhi</title>
<!-- Node1 -->
<g id="Node000001" class="node">
<title>Node1</title>
<g id="a_Node000001"><a xlink:title=" ">
<polygon fill="#999999" stroke="#666666" points="403.5,-39 302,-39 302,-19 403.5,-19 403.5,-39"/>
<text text-anchor="middle" x="352.75" y="-25.5" font-family="Helvetica,sans-Serif" font-size="10.00">CNMSeqOpt::findhi</text>
</a>
</g>
</g>
<!-- Node2 -->
<g id="Node000002" class="node">
<title>Node2</title>
<g id="a_Node000002"><a xlink:href="class_c_n_m_seq_opt.html#abe5f0b09856d48eb312d0c3a8701fdcc" target="_top" xlink:title=" ">
<polygon fill="white" stroke="#666666" points="266,-58 151,-58 151,-38 266,-38 266,-58"/>
<text text-anchor="middle" x="208.5" y="-44.5" font-family="Helvetica,sans-Serif" font-size="10.00">CNMSeqOpt::calccent</text>
</a>
</g>
</g>
<!-- Node1&#45;&gt;Node2 -->
<g id="edge1_Node000001_Node000002" class="edge">
<title>Node1&#45;&gt;Node2</title>
<g id="a_edge1_Node000001_Node000002"><a xlink:title=" ">
<path fill="none" stroke="#63b8ff" d="M290.21,-37.22C282.33,-38.27 274.29,-39.35 266.48,-40.39"/>
<polygon fill="#63b8ff" stroke="#63b8ff" points="290.65,-40.69 300.1,-35.9 289.72,-33.75 290.65,-40.69"/>
</a>
</g>
</g>
<!-- Node4 -->
<g id="Node000004" class="node">
<title>Node4</title>
<g id="a_Node000004"><a xlink:href="class_c_n_m_seq_opt.html#a67aa8414c254cfb6a9b442450850987d" target="_top" xlink:title=" ">
<polygon fill="white" stroke="#666666" points="258.12,-20 158.88,-20 158.88,0 258.12,0 258.12,-20"/>
<text text-anchor="middle" x="208.5" y="-6.5" font-family="Helvetica,sans-Serif" font-size="10.00">CNMSeqOpt::copy</text>
</a>
</g>
</g>
<!-- Node1&#45;&gt;Node4 -->
<g id="edge3_Node000001_Node000004" class="edge">
<title>Node1&#45;&gt;Node4</title>
<g id="a_edge3_Node000001_Node000004"><a xlink:title=" ">
<path fill="none" stroke="#63b8ff" d="M290.51,-20.82C279.73,-19.38 268.63,-17.9 258.24,-16.51"/>
<polygon fill="#63b8ff" stroke="#63b8ff" points="289.72,-24.25 300.1,-22.1 290.65,-17.31 289.72,-24.25"/>
</a>
</g>
</g>
<!-- Node3 -->
<g id="Node000003" class="node">
<title>Node3</title>
<g id="a_Node000003"><a xlink:href="class_c_n_m_seq_opt.html#a7acf8fee1b87f954b19f8a4313e58b7d" target="_top" xlink:title=" ">
<polygon fill="white" stroke="#666666" points="115,-39 0,-39 0,-19 115,-19 115,-39"/>
<text text-anchor="middle" x="57.5" y="-25.5" font-family="Helvetica,sans-Serif" font-size="10.00">CNMSeqOpt::optimize</text>
</a>
</g>
</g>
<!-- Node2&#45;&gt;Node3 -->
<g id="edge2_Node000002_Node000003" class="edge">
<title>Node2&#45;&gt;Node3</title>
<g id="a_edge2_Node000002_Node000003"><a xlink:title=" ">
<path fill="none" stroke="#63b8ff" d="M139.37,-39.31C131.25,-38.28 123.03,-37.23 115.1,-36.22"/>
<polygon fill="#63b8ff" stroke="#63b8ff" points="138.88,-42.78 149.24,-40.57 139.77,-35.83 138.88,-42.78"/>
</a>
</g>
</g>
<!-- Node4&#45;&gt;Node3 -->
<g id="edge4_Node000004_Node000003" class="edge">
<title>Node4&#45;&gt;Node3</title>
<g id="a_edge4_Node000004_Node000003"><a xlink:title=" ">
<path fill="none" stroke="#63b8ff" d="M147.44,-17.66C136.88,-19.01 125.9,-20.4 115.43,-21.74"/>
<polygon fill="#63b8ff" stroke="#63b8ff" points="147.73,-21.15 157.21,-16.41 146.85,-14.21 147.73,-21.15"/>
</a>
</g>
</g>
</g>
</svg>
