<?xml version="1.0" encoding="UTF-8" standalone="no"?>
<!DOCTYPE svg PUBLIC "-//W3C//DTD SVG 1.1//EN"
 "http://www.w3.org/Graphics/SVG/1.1/DTD/svg11.dtd">
<!-- Generated by graphviz version 12.2.1 (20241206.2353)
 -->
<!-- Title: fcmaes.mapelites.Archive.load Pages: 1 -->
<!--zoomable 337 -->

<svg id="main" version="1.1" xmlns="http://www.w3.org/2000/svg" xmlns:xlink="http://www.w3.org/1999/xlink" xml:space="preserve" onload="init(evt)">

<style type="text/css"><![CDATA[
.node, .edge {opacity: 0.7;}
.node.selected, .edge.selected {opacity: 1;}
.edge:hover path { stroke: red; }
.edge:hover polygon { stroke: red; fill: red; }
]]></style>

<defs>
  <circle id="rim" cx="0" cy="0" r="7"/>
  <circle id="rim2" cx="0" cy="0" r="3.5"/>
  <g id="zoomPlus">
    <use xlink:href="#rim" fill="#404040"><set attributeName="fill" to="#808080" begin="zoomplus.mouseover" end="zoomplus.mouseout"/></use>
    <path d="M-4,0h8M0,-4v8" fill="none" stroke="white" stroke-width="1.5" pointer-events="none"/>
  </g>
  <g id="zoomMin">
    <use xlink:href="#rim" fill="#404040"><set attributeName="fill" to="#808080" begin="zoomminus.mouseover" end="zoomminus.mouseout"/></use>
    <path d="M-4,0h8" fill="none" stroke="white" stroke-width="1.5" pointer-events="none"/>
  </g>
  <g id="arrowUp" transform="translate(30 24)">
    <use xlink:href="#rim"/>
    <path pointer-events="none" fill="none" stroke="white" stroke-width="1.5" d="M0,-3.0v7 M-2.5,-0.5L0,-3.0L2.5,-0.5"/>
  </g>
  <g id="arrowRight" transform="rotate(90) translate(36 -43)">
    <use xlink:href="#rim"/>
    <path pointer-events="none" fill="none" stroke="white" stroke-width="1.5" d="M0,-3.0v7 M-2.5,-0.5L0,-3.0L2.5,-0.5"/>
  </g>
  <g id="arrowDown" transform="rotate(180) translate(-30 -48)">
    <use xlink:href="#rim"/>
    <path pointer-events="none" fill="none" stroke="white" stroke-width="1.5" d="M0,-3.0v7 M-2.5,-0.5L0,-3.0L2.5,-0.5"/>
  </g>
  <g id="arrowLeft" transform="rotate(270) translate(-36 17)">
    <use xlink:href="#rim"/>
    <path pointer-events="none" fill="none" stroke="white" stroke-width="1.5" d="M0,-3.0v7 M-2.5,-0.5L0,-3.0L2.5,-0.5"/>
  </g>
  <g id="resetDef">
    <use xlink:href="#rim2" fill="#404040"><set attributeName="fill" to="#808080" begin="reset.mouseover" end="reset.mouseout"/></use>
  </g>
</defs>
<script type="application/ecmascript">
var viewWidth = 548;
var viewHeight = 337;
var sectionId = 'dynsection-27';
</script>
<script type="application/ecmascript" xlink:href="svg.min.js"/>
<svg id="graph" class="graph">
<g id="viewport">
<title>fcmaes.mapelites.Archive.load</title>
<!-- Node1 -->
<g id="Node000001" class="node">
<title>Node1</title>
<g id="a_Node000001"><a xlink:title="Loads data from a specified file into the current object, initializing or updating its properties and...">
<polygon fill="#999999" stroke="#666666" points="150.25,-196 0,-196 0,-176 150.25,-176 150.25,-196"/>
<text text-anchor="middle" x="75.12" y="-182.5" font-family="Helvetica,sans-Serif" font-size="10.00">fcmaes.mapelites.Archive.load</text>
</a>
</g>
</g>
<!-- Node2 -->
<g id="Node000002" class="node">
<title>Node2</title>
<g id="a_Node000002"><a xlink:href="classfcmaes_1_1mapelites_1_1_archive.html#a57b4373d065065bf5d4dbc7cc312c092" target="_top" xlink:title="Generates a formatted string using name, capacity, dimension, and quality&#45;dimension values for a spec...">
<polygon fill="white" stroke="#666666" points="346.62,-329 187.38,-329 187.38,-309 346.62,-309 346.62,-329"/>
<text text-anchor="middle" x="267" y="-315.5" font-family="Helvetica,sans-Serif" font-size="10.00">fcmaes.mapelites.Archive.fname</text>
</a>
</g>
</g>
<!-- Node1&#45;&gt;Node2 -->
<g id="edge1_Node000001_Node000002" class="edge">
<title>Node1&#45;&gt;Node2</title>
<g id="a_edge1_Node000001_Node000002"><a xlink:title=" ">
<path fill="none" stroke="#63b8ff" d="M83,-196.4C98.52,-219.03 138.68,-272.87 186.25,-300 189.09,-301.62 192.06,-303.1 195.12,-304.46"/>
<polygon fill="#63b8ff" stroke="#63b8ff" points="193.78,-307.69 204.37,-308.05 196.32,-301.17 193.78,-307.69"/>
</a>
</g>
</g>
<!-- Node3 -->
<g id="Node000003" class="node">
<title>Node3</title>
<g id="a_Node000003"><a xlink:href="classfcmaes_1_1mapelites_1_1_archive.html#a9884e6696809729e69a167c91d245464" target="_top" xlink:title="Generates an array of results produced by the get_c method for a range of indices.">
<polygon fill="white" stroke="#666666" points="347.75,-291 186.25,-291 186.25,-271 347.75,-271 347.75,-291"/>
<text text-anchor="middle" x="267" y="-277.5" font-family="Helvetica,sans-Serif" font-size="10.00">fcmaes.mapelites.Archive.get_cs</text>
</a>
</g>
</g>
<!-- Node1&#45;&gt;Node3 -->
<g id="edge2_Node000001_Node000003" class="edge">
<title>Node1&#45;&gt;Node3</title>
<g id="a_edge2_Node000001_Node000003"><a xlink:title=" ">
<path fill="none" stroke="#63b8ff" d="M87.78,-196.26C106.96,-212.61 146.99,-244.52 186.25,-262 190.49,-263.89 194.95,-265.61 199.49,-267.16"/>
<polygon fill="#63b8ff" stroke="#63b8ff" points="198.18,-270.42 208.76,-270.06 200.26,-263.74 198.18,-270.42"/>
</a>
</g>
</g>
<!-- Node5 -->
<g id="Node000005" class="node">
<title>Node5</title>
<g id="a_Node000005"><a xlink:href="classfcmaes_1_1advretry_1_1_store.html#a3cc073975313c4893de761cfc9771d77" target="_top" xlink:title="Gets the stored y&#45;values up to the specified count.">
<polygon fill="white" stroke="#666666" points="339.12,-253 194.88,-253 194.88,-233 339.12,-233 339.12,-253"/>
<text text-anchor="middle" x="267" y="-239.5" font-family="Helvetica,sans-Serif" font-size="10.00">fcmaes.advretry.Store.get_ys</text>
</a>
</g>
</g>
<!-- Node1&#45;&gt;Node5 -->
<g id="edge4_Node000001_Node000005" class="edge">
<title>Node1&#45;&gt;Node5</title>
<g id="a_edge4_Node000001_Node000005"><a xlink:title=" ">
<path fill="none" stroke="#63b8ff" d="M103.94,-196.45C126.06,-204.55 157.9,-215.75 186.25,-224 193.07,-225.98 200.25,-227.91 207.41,-229.74"/>
<polygon fill="#63b8ff" stroke="#63b8ff" points="206.55,-233.13 217.1,-232.15 208.24,-226.34 206.55,-233.13"/>
</a>
</g>
</g>
<!-- Node6 -->
<g id="Node000006" class="node">
<title>Node6</title>
<g id="a_Node000006"><a xlink:href="classfcmaes_1_1mapelites_1_1_archive.html#a91c9f1ac5485896833fc7b9859b85af1" target="_top" xlink:title="Returns a copy of the ys array.">
<polygon fill="white" stroke="#666666" points="347.75,-215 186.25,-215 186.25,-195 347.75,-195 347.75,-215"/>
<text text-anchor="middle" x="267" y="-201.5" font-family="Helvetica,sans-Serif" font-size="10.00">fcmaes.mapelites.Archive.get_ys</text>
</a>
</g>
</g>
<!-- Node1&#45;&gt;Node6 -->
<g id="edge5_Node000001_Node000006" class="edge">
<title>Node1&#45;&gt;Node6</title>
<g id="a_edge5_Node000001_Node000006"><a xlink:title=" ">
<path fill="none" stroke="#63b8ff" d="M150.62,-193.45C158.46,-194.24 166.5,-195.04 174.5,-195.84"/>
<polygon fill="#63b8ff" stroke="#63b8ff" points="173.96,-199.31 184.26,-196.82 174.66,-192.34 173.96,-199.31"/>
</a>
</g>
</g>
<!-- Node7 -->
<g id="Node000007" class="node">
<title>Node7</title>
<g id="a_Node000007"><a xlink:href="classfcmaes_1_1mapelites_1_1_archive.html#a7b98c28bd774c39099d0e41b1c38459d" target="_top" xlink:title="Sets the values from the provided array&#45;like object to the internal structure by calling set_c method...">
<polygon fill="white" stroke="#666666" points="347.75,-177 186.25,-177 186.25,-157 347.75,-157 347.75,-177"/>
<text text-anchor="middle" x="267" y="-163.5" font-family="Helvetica,sans-Serif" font-size="10.00">fcmaes.mapelites.Archive.set_cs</text>
</a>
</g>
</g>
<!-- Node1&#45;&gt;Node7 -->
<g id="edge6_Node000001_Node000007" class="edge">
<title>Node1&#45;&gt;Node7</title>
<g id="a_edge6_Node000001_Node000007"><a xlink:title=" ">
<path fill="none" stroke="#63b8ff" d="M150.62,-178.55C158.46,-177.76 166.5,-176.96 174.5,-176.16"/>
<polygon fill="#63b8ff" stroke="#63b8ff" points="174.66,-179.66 184.26,-175.18 173.96,-172.69 174.66,-179.66"/>
</a>
</g>
</g>
<!-- Node9 -->
<g id="Node000009" class="node">
<title>Node9</title>
<g id="a_Node000009"><a xlink:href="namespacefcmaes_1_1mapelites.html#ace0194d76906adbf0c0dd3db084f177c" target="_top" xlink:title="Sets up a KDTree for the given archive using specified or default parameters.">
<polygon fill="white" stroke="#666666" points="321.88,-139 212.12,-139 212.12,-107 321.88,-107 321.88,-139"/>
<text text-anchor="start" x="220.12" y="-125.5" font-family="Helvetica,sans-Serif" font-size="10.00">fcmaes.mapelites.set</text>
<text text-anchor="middle" x="267" y="-113.5" font-family="Helvetica,sans-Serif" font-size="10.00">_KDTree</text>
</a>
</g>
</g>
<!-- Node1&#45;&gt;Node9 -->
<g id="edge8_Node000001_Node000009" class="edge">
<title>Node1&#45;&gt;Node9</title>
<g id="a_edge8_Node000001_Node000009"><a xlink:title=" ">
<path fill="none" stroke="#63b8ff" d="M105.5,-175.61C127.64,-167.84 158.78,-157.04 186.25,-148 191.32,-146.33 196.59,-144.62 201.88,-142.92"/>
<polygon fill="#63b8ff" stroke="#63b8ff" points="202.83,-146.3 211.3,-139.92 200.71,-139.63 202.83,-146.3"/>
</a>
</g>
</g>
<!-- Node11 -->
<g id="Node000011" class="node">
<title>Node11</title>
<g id="a_Node000011"><a xlink:href="classfcmaes_1_1mapelites_1_1_archive.html#a0e469ed5be63b9dd87ea220095b620b8" target="_top" xlink:title="Sets the statistics for the object.">
<polygon fill="white" stroke="#666666" points="339.88,-89 194.12,-89 194.12,-57 339.88,-57 339.88,-89"/>
<text text-anchor="start" x="202.12" y="-75.5" font-family="Helvetica,sans-Serif" font-size="10.00">fcmaes.mapelites.Archive.set</text>
<text text-anchor="middle" x="267" y="-63.5" font-family="Helvetica,sans-Serif" font-size="10.00">_stats</text>
</a>
</g>
</g>
<!-- Node1&#45;&gt;Node11 -->
<g id="edge10_Node000001_Node000011" class="edge">
<title>Node1&#45;&gt;Node11</title>
<g id="a_edge10_Node000001_Node000011"><a xlink:title=" ">
<path fill="none" stroke="#63b8ff" d="M86.42,-175.54C104.85,-157.34 145.42,-119.73 186.25,-98 189.07,-96.5 192,-95.07 194.99,-93.71"/>
<polygon fill="#63b8ff" stroke="#63b8ff" points="196.09,-97.05 203.97,-89.96 193.39,-90.59 196.09,-97.05"/>
</a>
</g>
</g>
<!-- Node12 -->
<g id="Node000012" class="node">
<title>Node12</title>
<g id="a_Node000012"><a xlink:href="classfcmaes_1_1mapelites_1_1_archive.html#a06c36a088a4f1f50b63e7d0cdf1dcc40" target="_top" xlink:title="Sets multiple y&#45;values for the object by iterating over the provided array&#45;like collection.">
<polygon fill="white" stroke="#666666" points="347.75,-39 186.25,-39 186.25,-19 347.75,-19 347.75,-39"/>
<text text-anchor="middle" x="267" y="-25.5" font-family="Helvetica,sans-Serif" font-size="10.00">fcmaes.mapelites.Archive.set_ys</text>
</a>
</g>
</g>
<!-- Node1&#45;&gt;Node12 -->
<g id="edge11_Node000001_Node000012" class="edge">
<title>Node1&#45;&gt;Node12</title>
<g id="a_edge11_Node000001_Node000012"><a xlink:title=" ">
<path fill="none" stroke="#63b8ff" d="M81.18,-175.76C94.49,-149.91 133.2,-81.67 186.25,-48 188.53,-46.55 190.91,-45.21 193.37,-43.98"/>
<polygon fill="#63b8ff" stroke="#63b8ff" points="194.63,-47.25 202.41,-40.05 191.84,-40.82 194.63,-47.25"/>
</a>
</g>
</g>
<!-- Node4 -->
<g id="Node000004" class="node">
<title>Node4</title>
<g id="a_Node000004"><a xlink:href="classfcmaes_1_1mapelites_1_1_archive.html#ad3c852a54d31d2126b5f233e7d2fd7bb" target="_top" xlink:title="Retrieves a slice of the cs list for the given index.">
<polygon fill="white" stroke="#666666" points="540,-291 383.75,-291 383.75,-271 540,-271 540,-291"/>
<text text-anchor="middle" x="461.88" y="-277.5" font-family="Helvetica,sans-Serif" font-size="10.00">fcmaes.mapelites.Archive.get_c</text>
</a>
</g>
</g>
<!-- Node3&#45;&gt;Node4 -->
<g id="edge3_Node000003_Node000004" class="edge">
<title>Node3&#45;&gt;Node4</title>
<g id="a_edge3_Node000003_Node000004"><a xlink:title=" ">
<path fill="none" stroke="#63b8ff" d="M348.12,-281C356.07,-281 364.17,-281 372.2,-281"/>
<polygon fill="#63b8ff" stroke="#63b8ff" points="371.97,-284.5 381.97,-281 371.97,-277.5 371.97,-284.5"/>
</a>
</g>
</g>
<!-- Node8 -->
<g id="Node000008" class="node">
<title>Node8</title>
<g id="a_Node000008"><a xlink:href="classfcmaes_1_1mapelites_1_1_archive.html#acb89d9fdd7c875d487477a461c3585f7" target="_top" xlink:title="Sets the values of a specific segment of the &#39;cs&#39; attribute.">
<polygon fill="white" stroke="#666666" points="540,-177 383.75,-177 383.75,-157 540,-157 540,-177"/>
<text text-anchor="middle" x="461.88" y="-163.5" font-family="Helvetica,sans-Serif" font-size="10.00">fcmaes.mapelites.Archive.set_c</text>
</a>
</g>
</g>
<!-- Node7&#45;&gt;Node8 -->
<g id="edge7_Node000007_Node000008" class="edge">
<title>Node7&#45;&gt;Node8</title>
<g id="a_edge7_Node000007_Node000008"><a xlink:title=" ">
<path fill="none" stroke="#63b8ff" d="M348.12,-167C356.07,-167 364.17,-167 372.2,-167"/>
<polygon fill="#63b8ff" stroke="#63b8ff" points="371.97,-170.5 381.97,-167 371.97,-163.5 371.97,-170.5"/>
</a>
</g>
</g>
<!-- Node10 -->
<g id="Node000010" class="node">
<title>Node10</title>
<g id="a_Node000010"><a xlink:href="namespacefcmaes_1_1mapelites.html#a1cd72ab87d7aa999a255ad854895d3aa" target="_top" xlink:title="Determines and returns the centers of niches in a defined space using k&#45;means clustering.">
<polygon fill="white" stroke="#666666" points="516.75,-139 407,-139 407,-107 516.75,-107 516.75,-139"/>
<text text-anchor="start" x="415" y="-125.5" font-family="Helvetica,sans-Serif" font-size="10.00">fcmaes.mapelites.get</text>
<text text-anchor="middle" x="461.88" y="-113.5" font-family="Helvetica,sans-Serif" font-size="10.00">_centers_</text>
</a>
</g>
</g>
<!-- Node9&#45;&gt;Node10 -->
<g id="edge9_Node000009_Node000010" class="edge">
<title>Node9&#45;&gt;Node10</title>
<g id="a_edge9_Node000009_Node000010"><a xlink:title=" ">
<path fill="none" stroke="#63b8ff" d="M322.24,-123C344.93,-123 371.51,-123 395.29,-123"/>
<polygon fill="#63b8ff" stroke="#63b8ff" points="395.2,-126.5 405.2,-123 395.19,-119.5 395.2,-126.5"/>
</a>
</g>
</g>
<!-- Node13 -->
<g id="Node000013" class="node">
<title>Node13</title>
<g id="a_Node000013"><a xlink:href="classfcmaes_1_1advretry_1_1_store.html#a12d96e54629b449293d2aabf5542ddc1" target="_top" xlink:title="Sets the value of y for a given pid within the &#39;ys&#39; mapping.">
<polygon fill="white" stroke="#666666" points="531.38,-58 392.38,-58 392.38,-38 531.38,-38 531.38,-58"/>
<text text-anchor="middle" x="461.88" y="-44.5" font-family="Helvetica,sans-Serif" font-size="10.00">fcmaes.advretry.Store.set_y</text>
</a>
</g>
</g>
<!-- Node12&#45;&gt;Node13 -->
<g id="edge12_Node000012_Node000013" class="edge">
<title>Node12&#45;&gt;Node13</title>
<g id="a_edge12_Node000012_Node000013"><a xlink:title=" ">
<path fill="none" stroke="#63b8ff" d="M348.12,-36.89C358.95,-37.96 370.07,-39.05 380.89,-40.12"/>
<polygon fill="#63b8ff" stroke="#63b8ff" points="380.25,-43.57 390.55,-41.07 380.94,-36.61 380.25,-43.57"/>
</a>
</g>
</g>
<!-- Node14 -->
<g id="Node000014" class="node">
<title>Node14</title>
<g id="a_Node000014"><a xlink:href="classfcmaes_1_1mapelites_1_1_archive.html#afc25798d5b07a1addd68fc50cec1f3e5" target="_top" xlink:title="Updates the ys attribute at the specified index with a new value.">
<polygon fill="white" stroke="#666666" points="540,-20 383.75,-20 383.75,0 540,0 540,-20"/>
<text text-anchor="middle" x="461.88" y="-6.5" font-family="Helvetica,sans-Serif" font-size="10.00">fcmaes.mapelites.Archive.set_y</text>
</a>
</g>
</g>
<!-- Node12&#45;&gt;Node14 -->
<g id="edge13_Node000012_Node000014" class="edge">
<title>Node12&#45;&gt;Node14</title>
<g id="a_edge13_Node000012_Node000014"><a xlink:title=" ">
<path fill="none" stroke="#63b8ff" d="M348.12,-21.11C356.07,-20.32 364.17,-19.53 372.2,-18.74"/>
<polygon fill="#63b8ff" stroke="#63b8ff" points="372.37,-22.24 381.98,-17.77 371.68,-15.27 372.37,-22.24"/>
</a>
</g>
</g>
</g>
</svg>

<g id="navigator" transform="translate(0 0)" fill="#404254">
  <rect fill="#f2f5e9" fill-opacity="0.5" stroke="#606060" stroke-width=".5" x="0" y="0" width="60" height="60"/>
  <use id="zoomplus" xlink:href="#zoomPlus" x="17" y="9" onmousedown="handleZoom(evt,'in')"/>
  <use id="zoomminus" xlink:href="#zoomMin" x="42" y="9" onmousedown="handleZoom(evt,'out')"/>
  <use id="reset" xlink:href="#resetDef" x="30" y="36" onmousedown="handleReset()"/>
   <use id="arrowup" xlink:href="#arrowUp" x="0" y="0" onmousedown="handlePan(0,-1)"/>
  <use id="arrowright" xlink:href="#arrowRight" x="0" y="0" onmousedown="handlePan(1,0)"/>
  <use id="arrowdown" xlink:href="#arrowDown" x="0" y="0" onmousedown="handlePan(0,1)"/>
  <use id="arrowleft" xlink:href="#arrowLeft" x="0" y="0" onmousedown="handlePan(-1,0)"/>
</g>
<svg viewBox="0 0 15 15" width="100%" height="30px" preserveAspectRatio="xMaxYMin meet">
 <g id="arrow_out" transform="scale(0.3 0.3)">
  <a xlink:href="classfcmaes_1_1mapelites_1_1_archive_a62da9c6f511c298d1ef06d6af7600196_cgraph_org.svg" target="_base">
   <rect id="button" ry="5" rx="5" y="6" x="6" height="38" width="38"
        fill="#f2f5e9" fill-opacity="0.5" stroke="#606060" stroke-width="1.0"/>
   <path id="arrow"
     d="M 11.500037,31.436501 C 11.940474,20.09759 22.043105,11.32322 32.158766,21.979434 L 37.068811,17.246167 C 37.068811,17.246167 37.088388,32 37.088388,32 L 22.160133,31.978069 C 22.160133,31.978069 26.997745,27.140456 26.997745,27.140456 C 18.528582,18.264221 13.291696,25.230495 11.500037,31.436501 z"
     style="fill:#404040;"/>
  </a>
 </g>
</svg>

<style type='text/css'>
<![CDATA[
[data-mouse-over-selected='false'] { opacity: 0.7; }
[data-mouse-over-selected='true']  { opacity: 1.0; }
]]>
</style>
<script type="application/ecmascript"><![CDATA[
document.addEventListener('DOMContentLoaded', (event) => {
  highlightEdges();
  highlightAdjacentNodes();
});
]]></script>
</svg>
