<?xml version="1.0" encoding="UTF-8" standalone="no"?>
<!DOCTYPE svg PUBLIC "-//W3C//DTD SVG 1.1//EN"
 "http://www.w3.org/Graphics/SVG/1.1/DTD/svg11.dtd">
<!-- Generated by graphviz version 12.2.1 (20241206.2353)
 -->
<!-- Title: dual_annealing::DARunner::search Pages: 1 -->
<svg width="418pt" height="40pt"
 viewBox="0.00 0.00 417.50 40.00" xmlns="http://www.w3.org/2000/svg" xmlns:xlink="http://www.w3.org/1999/xlink">
<g id="graph0" class="graph" transform="scale(1 1) rotate(0) translate(4 36)">
<title>dual_annealing::DARunner::search</title>
<!-- Node1 -->
<g id="Node000001" class="node">
<title>Node1</title>
<g id="a_Node000001"><a xlink:title=" ">
<polygon fill="#999999" stroke="#666666" points="409.5,-32 277.25,-32 277.25,0 409.5,0 409.5,-32"/>
<text text-anchor="start" x="285.25" y="-18.5" font-family="Helvetica,sans-Serif" font-size="10.00">dual_annealing::DARunner</text>
<text text-anchor="middle" x="343.38" y="-6.5" font-family="Helvetica,sans-Serif" font-size="10.00">::search</text>
</a>
</g>
</g>
<!-- Node2 -->
<g id="Node000002" class="node">
<title>Node2</title>
<g id="a_Node000002"><a xlink:href="namespacedual__annealing.html#a9d98349bcdfafe6b4659304b33f53b88" target="_top" xlink:title=" ">
<polygon fill="white" stroke="#666666" points="241.25,-26 115.75,-26 115.75,-6 241.25,-6 241.25,-26"/>
<text text-anchor="middle" x="178.5" y="-12.5" font-family="Helvetica,sans-Serif" font-size="10.00">dual_annealing::minimize</text>
</a>
</g>
</g>
<!-- Node1&#45;&gt;Node2 -->
<g id="edge1_Node000001_Node000002" class="edge">
<title>Node1&#45;&gt;Node2</title>
<g id="a_edge1_Node000001_Node000002"><a xlink:title=" ">
<path fill="none" stroke="#63b8ff" d="M265.73,-16C257.66,-16 249.53,-16 241.65,-16"/>
<polygon fill="#63b8ff" stroke="#63b8ff" points="265.55,-19.5 275.55,-16 265.55,-12.5 265.55,-19.5"/>
</a>
</g>
</g>
<!-- Node3 -->
<g id="Node000003" class="node">
<title>Node3</title>
<g id="a_Node000003"><a xlink:href="daoptimizer_8cpp.html#aa097a54ac07d35740d86c465d2477195" target="_top" xlink:title=" ">
<polygon fill="white" stroke="#666666" points="79.75,-26 0,-26 0,-6 79.75,-6 79.75,-26"/>
<text text-anchor="middle" x="39.88" y="-12.5" font-family="Helvetica,sans-Serif" font-size="10.00">optimizeDA_C</text>
</a>
</g>
</g>
<!-- Node2&#45;&gt;Node3 -->
<g id="edge2_Node000002_Node000003" class="edge">
<title>Node2&#45;&gt;Node3</title>
<g id="a_edge2_Node000002_Node000003"><a xlink:title=" ">
<path fill="none" stroke="#63b8ff" d="M104.17,-16C95.8,-16 87.54,-16 79.89,-16"/>
<polygon fill="#63b8ff" stroke="#63b8ff" points="104.07,-19.5 114.07,-16 104.07,-12.5 104.07,-19.5"/>
</a>
</g>
</g>
</g>
</svg>
