<?xml version="1.0" encoding="UTF-8" standalone="no"?>
<!DOCTYPE svg PUBLIC "-//W3C//DTD SVG 1.1//EN"
 "http://www.w3.org/Graphics/SVG/1.1/DTD/svg11.dtd">
<!-- Generated by graphviz version 12.2.1 (20241206.2353)
 -->
<!-- Title: examples.crypto.fitness.get_values Pages: 1 -->
<!--zoomable 132 -->

<svg id="main" version="1.1" xmlns="http://www.w3.org/2000/svg" xmlns:xlink="http://www.w3.org/1999/xlink" xml:space="preserve" onload="init(evt)">

<style type="text/css"><![CDATA[
.node, .edge {opacity: 0.7;}
.node.selected, .edge.selected {opacity: 1;}
.edge:hover path { stroke: red; }
.edge:hover polygon { stroke: red; fill: red; }
]]></style>

<defs>
  <circle id="rim" cx="0" cy="0" r="7"/>
  <circle id="rim2" cx="0" cy="0" r="3.5"/>
  <g id="zoomPlus">
    <use xlink:href="#rim" fill="#404040"><set attributeName="fill" to="#808080" begin="zoomplus.mouseover" end="zoomplus.mouseout"/></use>
    <path d="M-4,0h8M0,-4v8" fill="none" stroke="white" stroke-width="1.5" pointer-events="none"/>
  </g>
  <g id="zoomMin">
    <use xlink:href="#rim" fill="#404040"><set attributeName="fill" to="#808080" begin="zoomminus.mouseover" end="zoomminus.mouseout"/></use>
    <path d="M-4,0h8" fill="none" stroke="white" stroke-width="1.5" pointer-events="none"/>
  </g>
  <g id="arrowUp" transform="translate(30 24)">
    <use xlink:href="#rim"/>
    <path pointer-events="none" fill="none" stroke="white" stroke-width="1.5" d="M0,-3.0v7 M-2.5,-0.5L0,-3.0L2.5,-0.5"/>
  </g>
  <g id="arrowRight" transform="rotate(90) translate(36 -43)">
    <use xlink:href="#rim"/>
    <path pointer-events="none" fill="none" stroke="white" stroke-width="1.5" d="M0,-3.0v7 M-2.5,-0.5L0,-3.0L2.5,-0.5"/>
  </g>
  <g id="arrowDown" transform="rotate(180) translate(-30 -48)">
    <use xlink:href="#rim"/>
    <path pointer-events="none" fill="none" stroke="white" stroke-width="1.5" d="M0,-3.0v7 M-2.5,-0.5L0,-3.0L2.5,-0.5"/>
  </g>
  <g id="arrowLeft" transform="rotate(270) translate(-36 17)">
    <use xlink:href="#rim"/>
    <path pointer-events="none" fill="none" stroke="white" stroke-width="1.5" d="M0,-3.0v7 M-2.5,-0.5L0,-3.0L2.5,-0.5"/>
  </g>
  <g id="resetDef">
    <use xlink:href="#rim2" fill="#404040"><set attributeName="fill" to="#808080" begin="reset.mouseover" end="reset.mouseout"/></use>
  </g>
</defs>
<script type="application/ecmascript">
var viewWidth = 949;
var viewHeight = 132;
var sectionId = 'dynsection-7';
</script>
<script type="application/ecmascript" xlink:href="svg.min.js"/>
<svg id="graph" class="graph">
<g id="viewport">
<title>examples.crypto.fitness.get_values</title>
<!-- Node1 -->
<g id="Node000001" class="node">
<title>Node1</title>
<g id="a_Node000001"><a xlink:title=" ">
<polygon fill="#999999" stroke="#666666" points="136.75,-92 0,-92 0,-60 136.75,-60 136.75,-92"/>
<text text-anchor="start" x="8" y="-78.5" font-family="Helvetica,sans-Serif" font-size="10.00">examples.crypto.fitness.get</text>
<text text-anchor="middle" x="68.38" y="-66.5" font-family="Helvetica,sans-Serif" font-size="10.00">_values</text>
</a>
</g>
</g>
<!-- Node2 -->
<g id="Node000002" class="node">
<title>Node2</title>
<g id="a_Node000002"><a xlink:href="classexamples_1_1crypto_1_1fitness.html#a92e26f20d8494227c6ef3ff4cf6cae71" target="_top" xlink:title=" ">
<polygon fill="white" stroke="#666666" points="309.5,-92 172.75,-92 172.75,-60 309.5,-60 309.5,-92"/>
<text text-anchor="start" x="180.75" y="-78.5" font-family="Helvetica,sans-Serif" font-size="10.00">examples.crypto.fitness.get</text>
<text text-anchor="middle" x="241.12" y="-66.5" font-family="Helvetica,sans-Serif" font-size="10.00">_trades</text>
</a>
</g>
</g>
<!-- Node1&#45;&gt;Node2 -->
<g id="edge1_Node000001_Node000002" class="edge">
<title>Node1&#45;&gt;Node2</title>
<g id="a_edge1_Node000001_Node000002"><a xlink:title=" ">
<path fill="none" stroke="#63b8ff" d="M136.86,-76C144.78,-76 152.91,-76 160.98,-76"/>
<polygon fill="#63b8ff" stroke="#63b8ff" points="160.78,-79.5 170.78,-76 160.78,-72.5 160.78,-79.5"/>
</a>
</g>
</g>
<!-- Node3 -->
<g id="Node000003" class="node">
<title>Node3</title>
<g id="a_Node000003"><a xlink:href="namespaceexamples_1_1crypto.html#a75d529296c6d83294ad1c37e55bd267f" target="_top" xlink:title=" ">
<polygon fill="white" stroke="#666666" points="473.25,-86 345.5,-86 345.5,-66 473.25,-66 473.25,-86"/>
<text text-anchor="middle" x="409.38" y="-72.5" font-family="Helvetica,sans-Serif" font-size="10.00">examples.crypto.simulate</text>
</a>
</g>
</g>
<!-- Node2&#45;&gt;Node3 -->
<g id="edge2_Node000002_Node000003" class="edge">
<title>Node2&#45;&gt;Node3</title>
<g id="a_edge2_Node000002_Node000003"><a xlink:title=" ">
<path fill="none" stroke="#63b8ff" d="M309.75,-76C317.69,-76 325.83,-76 333.86,-76"/>
<polygon fill="#63b8ff" stroke="#63b8ff" points="333.59,-79.5 343.59,-76 333.59,-72.5 333.59,-79.5"/>
</a>
</g>
</g>
<!-- Node4 -->
<g id="Node000004" class="node">
<title>Node4</title>
<g id="a_Node000004"><a xlink:href="namespaceexamples_1_1crypto.html#a38e3ca807ed30d1fa4d4a5cc478e1525" target="_top" xlink:title=" ">
<polygon fill="white" stroke="#666666" points="637.75,-124 509.25,-124 509.25,-104 637.75,-104 637.75,-124"/>
<text text-anchor="middle" x="573.5" y="-110.5" font-family="Helvetica,sans-Serif" font-size="10.00">examples.crypto.get_ema</text>
</a>
</g>
</g>
<!-- Node3&#45;&gt;Node4 -->
<g id="edge3_Node000003_Node000004" class="edge">
<title>Node3&#45;&gt;Node4</title>
<g id="a_edge3_Node000003_Node000004"><a xlink:title=" ">
<path fill="none" stroke="#63b8ff" d="M455.11,-86.48C474.24,-90.97 496.79,-96.25 516.98,-100.99"/>
<polygon fill="#63b8ff" stroke="#63b8ff" points="515.91,-104.33 526.44,-103.2 517.5,-97.51 515.91,-104.33"/>
</a>
</g>
</g>
<!-- Node5 -->
<g id="Node000005" class="node">
<title>Node5</title>
<g id="a_Node000005"><a xlink:href="namespaceexamples_1_1crypto.html#a8fe56bb9960bb347eee6e2c39ddbd90f" target="_top" xlink:title=" ">
<polygon fill="white" stroke="#666666" points="637.75,-86 509.25,-86 509.25,-66 637.75,-66 637.75,-86"/>
<text text-anchor="middle" x="573.5" y="-72.5" font-family="Helvetica,sans-Serif" font-size="10.00">examples.crypto.get_sma</text>
</a>
</g>
</g>
<!-- Node3&#45;&gt;Node5 -->
<g id="edge4_Node000003_Node000005" class="edge">
<title>Node3&#45;&gt;Node5</title>
<g id="a_edge4_Node000003_Node000005"><a xlink:title=" ">
<path fill="none" stroke="#63b8ff" d="M473.52,-76C481.44,-76 489.59,-76 497.67,-76"/>
<polygon fill="#63b8ff" stroke="#63b8ff" points="497.48,-79.5 507.48,-76 497.48,-72.5 497.48,-79.5"/>
</a>
</g>
</g>
<!-- Node6 -->
<g id="Node000006" class="node">
<title>Node6</title>
<g id="a_Node000006"><a xlink:href="namespaceexamples_1_1crypto.html#a61f6c93fa62a257ed271a0aa1210f604" target="_top" xlink:title=" ">
<polygon fill="white" stroke="#666666" points="636.62,-48 510.38,-48 510.38,-28 636.62,-28 636.62,-48"/>
<text text-anchor="middle" x="573.5" y="-34.5" font-family="Helvetica,sans-Serif" font-size="10.00">examples.crypto.strategy</text>
</a>
</g>
</g>
<!-- Node3&#45;&gt;Node6 -->
<g id="edge5_Node000003_Node000006" class="edge">
<title>Node3&#45;&gt;Node6</title>
<g id="a_edge5_Node000003_Node000006"><a xlink:title=" ">
<path fill="none" stroke="#63b8ff" d="M455.11,-65.52C474.24,-61.03 496.79,-55.75 516.98,-51.01"/>
<polygon fill="#63b8ff" stroke="#63b8ff" points="517.5,-54.49 526.44,-48.8 515.91,-47.67 517.5,-54.49"/>
</a>
</g>
</g>
<!-- Node7 -->
<g id="Node000007" class="node">
<title>Node7</title>
<g id="a_Node000007"><a xlink:href="namespaceexamples_1_1crypto.html#a54eb39bc81fed172b7d1d74dcec022c2" target="_top" xlink:title=" ">
<polygon fill="white" stroke="#666666" points="940.5,-67 818.75,-67 818.75,-47 940.5,-47 940.5,-67"/>
<text text-anchor="middle" x="879.62" y="-53.5" font-family="Helvetica,sans-Serif" font-size="10.00">examples.crypto.buy_all</text>
</a>
</g>
</g>
<!-- Node6&#45;&gt;Node7 -->
<g id="edge6_Node000006_Node000007" class="edge">
<title>Node6&#45;&gt;Node7</title>
<g id="a_edge6_Node000006_Node000007"><a xlink:title=" ">
<path fill="none" stroke="#63b8ff" d="M619.2,-48.42C636.18,-51.88 655.76,-55.29 673.75,-57 717.9,-61.19 767.65,-61.3 807.07,-60.31"/>
<polygon fill="#63b8ff" stroke="#63b8ff" points="807.01,-63.81 816.91,-60.03 806.81,-56.81 807.01,-63.81"/>
</a>
</g>
</g>
<!-- Node8 -->
<g id="Node000008" class="node">
<title>Node8</title>
<g id="a_Node000008"><a xlink:href="namespaceexamples_1_1crypto.html#a941dc0c737b40581bde98db6aef23525" target="_top" xlink:title=" ">
<polygon fill="white" stroke="#666666" points="782.75,-48 673.75,-48 673.75,-28 782.75,-28 782.75,-48"/>
<text text-anchor="middle" x="728.25" y="-34.5" font-family="Helvetica,sans-Serif" font-size="10.00">examples.crypto.hodl</text>
</a>
</g>
</g>
<!-- Node6&#45;&gt;Node8 -->
<g id="edge7_Node000006_Node000008" class="edge">
<title>Node6&#45;&gt;Node8</title>
<g id="a_edge7_Node000006_Node000008"><a xlink:title=" ">
<path fill="none" stroke="#63b8ff" d="M637.07,-38C645.25,-38 653.64,-38 661.86,-38"/>
<polygon fill="#63b8ff" stroke="#63b8ff" points="661.81,-41.5 671.81,-38 661.81,-34.5 661.81,-41.5"/>
</a>
</g>
</g>
<!-- Node9 -->
<g id="Node000009" class="node">
<title>Node9</title>
<g id="a_Node000009"><a xlink:href="namespaceexamples_1_1crypto.html#a8e16e3bee50df8bd1b44e55fe8950e10" target="_top" xlink:title=" ">
<polygon fill="white" stroke="#666666" points="940.12,-20 819.12,-20 819.12,0 940.12,0 940.12,-20"/>
<text text-anchor="middle" x="879.62" y="-6.5" font-family="Helvetica,sans-Serif" font-size="10.00">examples.crypto.sell_all</text>
</a>
</g>
</g>
<!-- Node6&#45;&gt;Node9 -->
<g id="edge10_Node000006_Node000009" class="edge">
<title>Node6&#45;&gt;Node9</title>
<g id="a_edge10_Node000006_Node000009"><a xlink:title=" ">
<path fill="none" stroke="#63b8ff" d="M621.74,-27.51C638.13,-24.25 656.67,-21 673.75,-19 718,-13.82 767.95,-11.55 807.45,-10.59"/>
<polygon fill="#63b8ff" stroke="#63b8ff" points="807.39,-14.09 817.31,-10.37 807.24,-7.09 807.39,-14.09"/>
</a>
</g>
</g>
<!-- Node8&#45;&gt;Node7 -->
<g id="edge8_Node000008_Node000007" class="edge">
<title>Node8&#45;&gt;Node7</title>
<g id="a_edge8_Node000008_Node000007"><a xlink:title=" ">
<path fill="none" stroke="#63b8ff" d="M783.18,-44.86C790.96,-45.85 799.07,-46.88 807.13,-47.91"/>
<polygon fill="#63b8ff" stroke="#63b8ff" points="806.58,-51.36 816.95,-49.15 807.47,-44.42 806.58,-51.36"/>
</a>
</g>
</g>
<!-- Node8&#45;&gt;Node9 -->
<g id="edge9_Node000008_Node000009" class="edge">
<title>Node8&#45;&gt;Node9</title>
<g id="a_edge9_Node000008_Node000009"><a xlink:title=" ">
<path fill="none" stroke="#63b8ff" d="M783.18,-27.89C792.43,-26.16 802.14,-24.34 811.68,-22.55"/>
<polygon fill="#63b8ff" stroke="#63b8ff" points="812.09,-26.03 821.28,-20.75 810.8,-19.15 812.09,-26.03"/>
</a>
</g>
</g>
</g>
</svg>

<g id="navigator" transform="translate(0 0)" fill="#404254">
  <rect fill="#f2f5e9" fill-opacity="0.5" stroke="#606060" stroke-width=".5" x="0" y="0" width="60" height="60"/>
  <use id="zoomplus" xlink:href="#zoomPlus" x="17" y="9" onmousedown="handleZoom(evt,'in')"/>
  <use id="zoomminus" xlink:href="#zoomMin" x="42" y="9" onmousedown="handleZoom(evt,'out')"/>
  <use id="reset" xlink:href="#resetDef" x="30" y="36" onmousedown="handleReset()"/>
   <use id="arrowup" xlink:href="#arrowUp" x="0" y="0" onmousedown="handlePan(0,-1)"/>
  <use id="arrowright" xlink:href="#arrowRight" x="0" y="0" onmousedown="handlePan(1,0)"/>
  <use id="arrowdown" xlink:href="#arrowDown" x="0" y="0" onmousedown="handlePan(0,1)"/>
  <use id="arrowleft" xlink:href="#arrowLeft" x="0" y="0" onmousedown="handlePan(-1,0)"/>
</g>
<svg viewBox="0 0 15 15" width="100%" height="30px" preserveAspectRatio="xMaxYMin meet">
 <g id="arrow_out" transform="scale(0.3 0.3)">
  <a xlink:href="classexamples_1_1crypto_1_1fitness_a052fc5adc7b09eb7f0613dc254699a5d_cgraph_org.svg" target="_base">
   <rect id="button" ry="5" rx="5" y="6" x="6" height="38" width="38"
        fill="#f2f5e9" fill-opacity="0.5" stroke="#606060" stroke-width="1.0"/>
   <path id="arrow"
     d="M 11.500037,31.436501 C 11.940474,20.09759 22.043105,11.32322 32.158766,21.979434 L 37.068811,17.246167 C 37.068811,17.246167 37.088388,32 37.088388,32 L 22.160133,31.978069 C 22.160133,31.978069 26.997745,27.140456 26.997745,27.140456 C 18.528582,18.264221 13.291696,25.230495 11.500037,31.436501 z"
     style="fill:#404040;"/>
  </a>
 </g>
</svg>

<style type='text/css'>
<![CDATA[
[data-mouse-over-selected='false'] { opacity: 0.7; }
[data-mouse-over-selected='true']  { opacity: 1.0; }
]]>
</style>
<script type="application/ecmascript"><![CDATA[
document.addEventListener('DOMContentLoaded', (event) => {
  highlightEdges();
  highlightAdjacentNodes();
});
]]></script>
</svg>
