<?xml version="1.0" encoding="UTF-8" standalone="no"?>
<!DOCTYPE svg PUBLIC "-//W3C//DTD SVG 1.1//EN"
 "http://www.w3.org/Graphics/SVG/1.1/DTD/svg11.dtd">
<!-- Generated by graphviz version 12.2.1 (20241206.2353)
 -->
<!-- Title: fcmaes.cmaes.Cmaes.doOptimize Pages: 1 -->
<svg width="538pt" height="66pt"
 viewBox="0.00 0.00 537.50 66.00" xmlns="http://www.w3.org/2000/svg" xmlns:xlink="http://www.w3.org/1999/xlink">
<g id="graph0" class="graph" transform="scale(1 1) rotate(0) translate(4 62)">
<title>fcmaes.cmaes.Cmaes.doOptimize</title>
<!-- Node1 -->
<g id="Node000001" class="node">
<title>Node1</title>
<g id="a_Node000001"><a xlink:title="Performs an optimization process within a generation loop until termination conditions are met.">
<polygon fill="#999999" stroke="#666666" points="167.5,-39 0,-39 0,-19 167.5,-19 167.5,-39"/>
<text text-anchor="middle" x="83.75" y="-25.5" font-family="Helvetica,sans-Serif" font-size="10.00">fcmaes.cmaes.Cmaes.doOptimize</text>
</a>
</g>
</g>
<!-- Node2 -->
<g id="Node000002" class="node">
<title>Node2</title>
<g id="a_Node000002"><a xlink:href="classfcmaes_1_1cmaes_1_1_cmaes.html#a56c7e2c2ad921a3fc6263e5be6a873f8" target="_top" xlink:title="Generates a NumPy array by decoding elements in the current data structure.">
<polygon fill="white" stroke="#666666" points="337.25,-58 203.5,-58 203.5,-38 337.25,-38 337.25,-58"/>
<text text-anchor="middle" x="270.38" y="-44.5" font-family="Helvetica,sans-Serif" font-size="10.00">fcmaes.cmaes.Cmaes.ask</text>
</a>
</g>
</g>
<!-- Node1&#45;&gt;Node2 -->
<g id="edge1_Node000001_Node000002" class="edge">
<title>Node1&#45;&gt;Node2</title>
<g id="a_edge1_Node000001_Node000002"><a xlink:title=" ">
<path fill="none" stroke="#63b8ff" d="M167.88,-37.56C175.79,-38.37 183.79,-39.19 191.65,-40"/>
<polygon fill="#63b8ff" stroke="#63b8ff" points="191.21,-43.47 201.52,-41.02 191.93,-36.51 191.21,-43.47"/>
</a>
</g>
</g>
<!-- Node4 -->
<g id="Node000004" class="node">
<title>Node4</title>
<g id="a_Node000004"><a xlink:href="classfcmaes_1_1cmaes_1_1_cmaes.html#a398738e6fcf7fe101cce3257fb0d579d" target="_top" xlink:title="Processes the input function values and updates the internal state of the CMA&#45;ES algorithm.">
<polygon fill="white" stroke="#666666" points="335.75,-20 205,-20 205,0 335.75,0 335.75,-20"/>
<text text-anchor="middle" x="270.38" y="-6.5" font-family="Helvetica,sans-Serif" font-size="10.00">fcmaes.cmaes.Cmaes.tell</text>
</a>
</g>
</g>
<!-- Node1&#45;&gt;Node4 -->
<g id="edge3_Node000001_Node000004" class="edge">
<title>Node1&#45;&gt;Node4</title>
<g id="a_edge3_Node000001_Node000004"><a xlink:title=" ">
<path fill="none" stroke="#63b8ff" d="M167.88,-20.44C176.37,-19.57 184.96,-18.69 193.37,-17.82"/>
<polygon fill="#63b8ff" stroke="#63b8ff" points="193.59,-21.32 203.18,-16.81 192.88,-14.35 193.59,-21.32"/>
</a>
</g>
</g>
<!-- Node3 -->
<g id="Node000003" class="node">
<title>Node3</title>
<g id="a_Node000003"><a xlink:href="classfcmaes_1_1cmaes_1_1_cmaes.html#aff1c6aff205dfd66b677b1237f3566e7" target="_top" xlink:title="Generates a new population of candidate solutions for optimization.">
<polygon fill="white" stroke="#666666" points="529.5,-58 373.25,-58 373.25,-38 529.5,-38 529.5,-58"/>
<text text-anchor="middle" x="451.38" y="-44.5" font-family="Helvetica,sans-Serif" font-size="10.00">fcmaes.cmaes.Cmaes.newArgs</text>
</a>
</g>
</g>
<!-- Node2&#45;&gt;Node3 -->
<g id="edge2_Node000002_Node000003" class="edge">
<title>Node2&#45;&gt;Node3</title>
<g id="a_edge2_Node000002_Node000003"><a xlink:title=" ">
<path fill="none" stroke="#63b8ff" d="M337.52,-48C345.37,-48 353.48,-48 361.58,-48"/>
<polygon fill="#63b8ff" stroke="#63b8ff" points="361.49,-51.5 371.49,-48 361.49,-44.5 361.49,-51.5"/>
</a>
</g>
</g>
</g>
</svg>
