<?xml version="1.0" encoding="UTF-8" standalone="no"?>
<!DOCTYPE svg PUBLIC "-//W3C//DTD SVG 1.1//EN"
 "http://www.w3.org/Graphics/SVG/1.1/DTD/svg11.dtd">
<!-- Generated by graphviz version 12.2.1 (20241206.2353)
 -->
<!-- Title: fcmaes.de.DE.do_optimize_delayed_update Pages: 1 -->
<svg width="737pt" height="185pt"
 viewBox="0.00 0.00 736.50 185.00" xmlns="http://www.w3.org/2000/svg" xmlns:xlink="http://www.w3.org/1999/xlink">
<g id="graph0" class="graph" transform="scale(1 1) rotate(0) translate(4 181)">
<title>fcmaes.de.DE.do_optimize_delayed_update</title>
<!-- Node1 -->
<g id="Node000001" class="node">
<title>Node1</title>
<g id="a_Node000001"><a xlink:title="Performs a delayed update optimization process using multiple workers for parallel evaluation.">
<polygon fill="#999999" stroke="#666666" points="134.5,-126 0,-126 0,-94 134.5,-94 134.5,-126"/>
<text text-anchor="start" x="8" y="-112.5" font-family="Helvetica,sans-Serif" font-size="10.00">fcmaes.de.DE.do_optimize</text>
<text text-anchor="middle" x="67.25" y="-100.5" font-family="Helvetica,sans-Serif" font-size="10.00">_delayed_update</text>
</a>
</g>
</g>
<!-- Node2 -->
<g id="Node000002" class="node">
<title>Node2</title>
<g id="a_Node000002"><a xlink:href="classfcmaes_1_1cmaes_1_1_cmaes.html#ab89a6f59ef9aafbe855a9547c80669f5" target="_top" xlink:title="Generates a single decoded solution vector based on the current distribution.">
<polygon fill="white" stroke="#666666" points="325.25,-177 170.5,-177 170.5,-157 325.25,-157 325.25,-177"/>
<text text-anchor="middle" x="247.88" y="-163.5" font-family="Helvetica,sans-Serif" font-size="10.00">fcmaes.cmaes.Cmaes.ask_one</text>
</a>
</g>
</g>
<!-- Node1&#45;&gt;Node2 -->
<g id="edge1_Node000001_Node000002" class="edge">
<title>Node1&#45;&gt;Node2</title>
<g id="a_edge1_Node000001_Node000002"><a xlink:title=" ">
<path fill="none" stroke="#63b8ff" d="M109.18,-126.41C127.74,-133.53 150.05,-141.68 170.5,-148 177.01,-150.01 183.88,-151.96 190.73,-153.8"/>
<polygon fill="#63b8ff" stroke="#63b8ff" points="189.39,-157.06 199.95,-156.2 191.15,-150.29 189.39,-157.06"/>
</a>
</g>
</g>
<!-- Node3 -->
<g id="Node000003" class="node">
<title>Node3</title>
<g id="a_Node000003"><a xlink:href="classfcmaes_1_1de_1_1_d_e.html#a6e647b4dbacab60b482242c80b0a8582" target="_top" xlink:title="Generates the next candidate from the population queue or computes a new one.">
<polygon fill="white" stroke="#666666" points="307.25,-139 188.5,-139 188.5,-119 307.25,-119 307.25,-139"/>
<text text-anchor="middle" x="247.88" y="-125.5" font-family="Helvetica,sans-Serif" font-size="10.00">fcmaes.de.DE.ask_one</text>
</a>
</g>
</g>
<!-- Node1&#45;&gt;Node3 -->
<g id="edge2_Node000001_Node000003" class="edge">
<title>Node1&#45;&gt;Node3</title>
<g id="a_edge2_Node000001_Node000003"><a xlink:title=" ">
<path fill="none" stroke="#63b8ff" d="M134.76,-117.07C148.48,-118.53 162.96,-120.07 176.8,-121.55"/>
<polygon fill="#63b8ff" stroke="#63b8ff" points="176.42,-125.03 186.74,-122.6 177.16,-118.07 176.42,-125.03"/>
</a>
</g>
</g>
<!-- Node5 -->
<g id="Node000005" class="node">
<title>Node5</title>
<g id="a_Node000005"><a xlink:href="classfcmaes_1_1cmaes_1_1_cmaes.html#ac7cbecf8b29fb1048bd4cc7ec900692c" target="_top" xlink:title="Processes the given fitness value and solution vector, performs updates to internal data structures,...">
<polygon fill="white" stroke="#666666" points="323.75,-101 172,-101 172,-81 323.75,-81 323.75,-101"/>
<text text-anchor="middle" x="247.88" y="-87.5" font-family="Helvetica,sans-Serif" font-size="10.00">fcmaes.cmaes.Cmaes.tell_one</text>
</a>
</g>
</g>
<!-- Node1&#45;&gt;Node5 -->
<g id="edge4_Node000001_Node000005" class="edge">
<title>Node1&#45;&gt;Node5</title>
<g id="a_edge4_Node000001_Node000005"><a xlink:title=" ">
<path fill="none" stroke="#63b8ff" d="M134.76,-102.93C143.11,-102.04 151.74,-101.12 160.33,-100.21"/>
<polygon fill="#63b8ff" stroke="#63b8ff" points="160.51,-103.71 170.08,-99.17 159.77,-96.75 160.51,-103.71"/>
</a>
</g>
</g>
<!-- Node10 -->
<g id="Node000010" class="node">
<title>Node10</title>
<g id="a_Node000010"><a xlink:href="classfcmaes_1_1de_1_1_d_e.html#a882c7a58bf3f14c342d2a0e0700e31ef" target="_top" xlink:title="Process a single individual&#39;s evaluation update within a population&#45;based optimization algorithm.">
<polygon fill="white" stroke="#666666" points="305.75,-60 190,-60 190,-40 305.75,-40 305.75,-60"/>
<text text-anchor="middle" x="247.88" y="-46.5" font-family="Helvetica,sans-Serif" font-size="10.00">fcmaes.de.DE.tell_one</text>
</a>
</g>
</g>
<!-- Node1&#45;&gt;Node10 -->
<g id="edge9_Node000001_Node000010" class="edge">
<title>Node1&#45;&gt;Node10</title>
<g id="a_edge9_Node000001_Node000010"><a xlink:title=" ">
<path fill="none" stroke="#63b8ff" d="M110.28,-93.57C128.66,-86.59 150.53,-78.58 170.5,-72 179.26,-69.12 188.65,-66.24 197.74,-63.56"/>
<polygon fill="#63b8ff" stroke="#63b8ff" points="198.55,-66.97 207.18,-60.83 196.6,-60.25 198.55,-66.97"/>
</a>
</g>
</g>
<!-- Node4 -->
<g id="Node000004" class="node">
<title>Node4</title>
<g id="a_Node000004"><a xlink:href="classfcmaes_1_1de_1_1_d_e.html#af65d189c855a19bc82ea60b185482757" target="_top" xlink:title="Determines the next vector in an evolutionary computation process.">
<polygon fill="white" stroke="#666666" points="504.38,-139 387.88,-139 387.88,-119 504.38,-119 504.38,-139"/>
<text text-anchor="middle" x="446.12" y="-125.5" font-family="Helvetica,sans-Serif" font-size="10.00">fcmaes.de.DE._next_x</text>
</a>
</g>
</g>
<!-- Node3&#45;&gt;Node4 -->
<g id="edge3_Node000003_Node000004" class="edge">
<title>Node3&#45;&gt;Node4</title>
<g id="a_edge3_Node000003_Node000004"><a xlink:title=" ">
<path fill="none" stroke="#63b8ff" d="M307.49,-129C329.04,-129 353.63,-129 376.01,-129"/>
<polygon fill="#63b8ff" stroke="#63b8ff" points="375.97,-132.5 385.97,-129 375.97,-125.5 375.97,-132.5"/>
</a>
</g>
</g>
<!-- Node6 -->
<g id="Node000006" class="node">
<title>Node6</title>
<g id="a_Node000006"><a xlink:href="classfcmaes_1_1cmaes_1_1_cmaes.html#a7dada2c399890feafb59c01d1f424ee5" target="_top" xlink:title="Updates the evolutionary process using the Covariance Matrix Adaptation (CMA) strategy.">
<polygon fill="white" stroke="#666666" points="531,-101 361.25,-101 361.25,-81 531,-81 531,-101"/>
<text text-anchor="middle" x="446.12" y="-87.5" font-family="Helvetica,sans-Serif" font-size="10.00">fcmaes.cmaes.Cmaes.updateCMA</text>
</a>
</g>
</g>
<!-- Node5&#45;&gt;Node6 -->
<g id="edge5_Node000005_Node000006" class="edge">
<title>Node5&#45;&gt;Node6</title>
<g id="a_edge5_Node000005_Node000006"><a xlink:title=" ">
<path fill="none" stroke="#63b8ff" d="M324.19,-91C332.44,-91 340.91,-91 349.37,-91"/>
<polygon fill="#63b8ff" stroke="#63b8ff" points="349.34,-94.5 359.34,-91 349.34,-87.5 349.34,-94.5"/>
</a>
</g>
</g>
<!-- Node7 -->
<g id="Node000007" class="node">
<title>Node7</title>
<g id="a_Node000007"><a xlink:href="classfcmaes_1_1cmaes_1_1_cmaes.html#ae26e42639fa8cb28b64c1fe1bcd7109c" target="_top" xlink:title="Updates the internal state of the covariance matrix and its derived attributes, such as eigenvalues,...">
<polygon fill="white" stroke="#666666" points="728.5,-158 567,-158 567,-138 728.5,-138 728.5,-158"/>
<text text-anchor="middle" x="647.75" y="-144.5" font-family="Helvetica,sans-Serif" font-size="10.00">fcmaes.cmaes.Cmaes.updateBD</text>
</a>
</g>
</g>
<!-- Node6&#45;&gt;Node7 -->
<g id="edge6_Node000006_Node000007" class="edge">
<title>Node6&#45;&gt;Node7</title>
<g id="a_edge6_Node000006_Node000007"><a xlink:title=" ">
<path fill="none" stroke="#63b8ff" d="M502.77,-101.44C512.31,-103.84 522.04,-106.69 531,-110 547.97,-116.27 550.07,-122.63 567,-129 572.36,-131.02 578,-132.87 583.71,-134.55"/>
<polygon fill="#63b8ff" stroke="#63b8ff" points="582.67,-137.9 593.24,-137.2 584.54,-131.15 582.67,-137.9"/>
</a>
</g>
</g>
<!-- Node8 -->
<g id="Node000008" class="node">
<title>Node8</title>
<g id="a_Node000008"><a xlink:href="classfcmaes_1_1cmaes_1_1_cmaes.html#afd8b8665d87f14c53cd60da16c932336" target="_top" xlink:title="Updates the covariance matrix and returns the negative covariance scaling factor.">
<polygon fill="white" stroke="#666666" points="721.38,-120 574.12,-120 574.12,-88 721.38,-88 721.38,-120"/>
<text text-anchor="start" x="582.12" y="-106.5" font-family="Helvetica,sans-Serif" font-size="10.00">fcmaes.cmaes.Cmaes.update</text>
<text text-anchor="middle" x="647.75" y="-94.5" font-family="Helvetica,sans-Serif" font-size="10.00">Covariance</text>
</a>
</g>
</g>
<!-- Node6&#45;&gt;Node8 -->
<g id="edge7_Node000006_Node000008" class="edge">
<title>Node6&#45;&gt;Node8</title>
<g id="a_edge7_Node000006_Node000008"><a xlink:title=" ">
<path fill="none" stroke="#63b8ff" d="M531.49,-96.49C541.7,-97.16 552.13,-97.84 562.33,-98.5"/>
<polygon fill="#63b8ff" stroke="#63b8ff" points="562.02,-101.99 572.23,-99.15 562.48,-95 562.02,-101.99"/>
</a>
</g>
</g>
<!-- Node9 -->
<g id="Node000009" class="node">
<title>Node9</title>
<g id="a_Node000009"><a xlink:href="classfcmaes_1_1cmaes_1_1_cmaes.html#ae3fd3fbe79efd9509bb8462382d63bdd" target="_top" xlink:title="Updates the evolution paths required for generating new samples in the covariance matrix adaptation e...">
<polygon fill="white" stroke="#666666" points="721.38,-70 574.12,-70 574.12,-38 721.38,-38 721.38,-70"/>
<text text-anchor="start" x="582.12" y="-56.5" font-family="Helvetica,sans-Serif" font-size="10.00">fcmaes.cmaes.Cmaes.update</text>
<text text-anchor="middle" x="647.75" y="-44.5" font-family="Helvetica,sans-Serif" font-size="10.00">EvolutionPaths</text>
</a>
</g>
</g>
<!-- Node6&#45;&gt;Node9 -->
<g id="edge8_Node000006_Node000009" class="edge">
<title>Node6&#45;&gt;Node9</title>
<g id="a_edge8_Node000006_Node000009"><a xlink:title=" ">
<path fill="none" stroke="#63b8ff" d="M503.53,-80.55C521.83,-77.15 542.55,-73.31 562.43,-69.63"/>
<polygon fill="#63b8ff" stroke="#63b8ff" points="563,-73.08 572.2,-67.82 561.73,-66.2 563,-73.08"/>
</a>
</g>
</g>
<!-- Node11 -->
<g id="Node000011" class="node">
<title>Node11</title>
<g id="a_Node000011"><a xlink:href="classfcmaes_1_1de_1_1_d_e.html#a75e2c22d49dde6bd8f31572ef39152d7" target="_top" xlink:title="Compute the next feasible point to improve optimization.">
<polygon fill="white" stroke="#666666" points="499.12,-51 393.12,-51 393.12,-19 499.12,-19 499.12,-51"/>
<text text-anchor="start" x="401.12" y="-37.5" font-family="Helvetica,sans-Serif" font-size="10.00">fcmaes.de.DE._next</text>
<text text-anchor="middle" x="446.12" y="-25.5" font-family="Helvetica,sans-Serif" font-size="10.00">_improve</text>
</a>
</g>
</g>
<!-- Node10&#45;&gt;Node11 -->
<g id="edge10_Node000010_Node000011" class="edge">
<title>Node10&#45;&gt;Node11</title>
<g id="a_edge10_Node000010_Node000011"><a xlink:title=" ">
<path fill="none" stroke="#63b8ff" d="M306.17,-45.62C329.8,-43.81 357.28,-41.71 381.54,-39.86"/>
<polygon fill="#63b8ff" stroke="#63b8ff" points="381.58,-43.37 391.28,-39.12 381.05,-36.39 381.58,-43.37"/>
</a>
</g>
</g>
<!-- Node12 -->
<g id="Node000012" class="node">
<title>Node12</title>
<g id="a_Node000012"><a xlink:href="classfcmaes_1_1de_1_1_d_e.html#ac3453c9ebcc0897aedb6a53a8b93ffcd" target="_top" xlink:title="Checks the feasibility of a value with respect to specified bounds and adjusts it if necessary by cli...">
<polygon fill="white" stroke="#666666" points="708.25,-20 587.25,-20 587.25,0 708.25,0 708.25,-20"/>
<text text-anchor="middle" x="647.75" y="-6.5" font-family="Helvetica,sans-Serif" font-size="10.00">fcmaes.de.DE._feasible</text>
</a>
</g>
</g>
<!-- Node11&#45;&gt;Node12 -->
<g id="edge11_Node000011_Node000012" class="edge">
<title>Node11&#45;&gt;Node12</title>
<g id="a_edge11_Node000011_Node000012"><a xlink:title=" ">
<path fill="none" stroke="#63b8ff" d="M499.57,-28.43C522.81,-25.52 550.52,-22.05 575.58,-18.91"/>
<polygon fill="#63b8ff" stroke="#63b8ff" points="575.9,-22.4 585.39,-17.68 575.03,-15.45 575.9,-22.4"/>
</a>
</g>
</g>
</g>
</svg>
