<?xml version="1.0" encoding="UTF-8" standalone="no"?>
<!DOCTYPE svg PUBLIC "-//W3C//DTD SVG 1.1//EN"
 "http://www.w3.org/Graphics/SVG/1.1/DTD/svg11.dtd">
<!-- Generated by graphviz version 12.2.1 (20241206.2353)
 -->
<!-- Title: dual_annealing::LBFGSFunc Pages: 1 -->
<svg width="174pt" height="608pt"
 viewBox="0.00 0.00 173.75 608.00" xmlns="http://www.w3.org/2000/svg" xmlns:xlink="http://www.w3.org/1999/xlink">
<g id="graph0" class="graph" transform="scale(1 1) rotate(0) translate(4 604)">
<title>dual_annealing::LBFGSFunc</title>
<!-- Node1 -->
<g id="Node000001" class="node">
<title>Node1</title>
<g id="a_Node000001"><a xlink:title=" ">
<polygon fill="#999999" stroke="none" points="149.12,-92 16.62,-92 16.62,0 149.12,0 149.12,-92"/>
<text text-anchor="start" x="20.62" y="-78.5" font-family="Helvetica,sans-Serif" font-size="10.00">dual_annealing::LBFGSFunc</text>
<text text-anchor="start" x="25.81" y="-62.5" font-family="Helvetica,sans-Serif" font-size="10.00">&#45;</text>
<text text-anchor="start" x="38" y="-62.5" font-family="Helvetica,sans-Serif" font-size="10.00">int dim</text>
<text text-anchor="start" x="24.31" y="-46.5" font-family="Helvetica,sans-Serif" font-size="10.00">+</text>
<text text-anchor="start" x="38" y="-46.5" font-family="Helvetica,sans-Serif" font-size="10.00">LBFGSFunc(Fitness</text>
<text text-anchor="start" x="38" y="-34.5" font-family="Helvetica,sans-Serif" font-size="10.00"> *Fitness_, int dim_)</text>
<text text-anchor="start" x="24.31" y="-18.5" font-family="Helvetica,sans-Serif" font-size="10.00">+</text>
<text text-anchor="start" x="38" y="-18.5" font-family="Helvetica,sans-Serif" font-size="10.00">double operator()(const</text>
<text text-anchor="start" x="38" y="-6.5" font-family="Helvetica,sans-Serif" font-size="10.00"> vec &amp;x, vec &amp;grad)</text>
<polygon fill="#666666" stroke="#666666" points="16.62,-74 16.62,-74 149.12,-74 149.12,-74 16.62,-74"/>
<polygon fill="#666666" stroke="#666666" points="16.62,-58 16.62,-58 36,-58 36,-58 16.62,-58"/>
<polygon fill="#666666" stroke="#666666" points="36,-58 36,-58 149.12,-58 149.12,-58 36,-58"/>
<polygon fill="none" stroke="#666666" points="16.62,0 16.62,-92 149.12,-92 149.12,0 16.62,0"/>
</a>
</g>
</g>
<!-- Node2 -->
<g id="Node000002" class="node">
<title>Node2</title>
<g id="a_Node000002"><a xlink:href="classdual__annealing_1_1_fitness.html" target="_top" xlink:title=" ">
<polygon fill="white" stroke="none" points="165.75,-600 0,-600 0,-140 165.75,-140 165.75,-600"/>
<text text-anchor="start" x="31.5" y="-586.5" font-family="Helvetica,sans-Serif" font-size="10.00">dual_annealing::Fitness</text>
<text text-anchor="start" x="4" y="-570.5" font-family="Helvetica,sans-Serif" font-size="10.00">+</text>
<text text-anchor="start" x="14" y="-570.5" font-family="Helvetica,sans-Serif" font-size="10.00">vec lower</text>
<text text-anchor="start" x="4" y="-554.5" font-family="Helvetica,sans-Serif" font-size="10.00">+</text>
<text text-anchor="start" x="14" y="-554.5" font-family="Helvetica,sans-Serif" font-size="10.00">vec upper</text>
<text text-anchor="start" x="4" y="-538.5" font-family="Helvetica,sans-Serif" font-size="10.00">+</text>
<text text-anchor="start" x="14" y="-538.5" font-family="Helvetica,sans-Serif" font-size="10.00">const double LS_MAXITER</text>
<text text-anchor="start" x="14" y="-526.5" font-family="Helvetica,sans-Serif" font-size="10.00">_RATIO</text>
<text text-anchor="start" x="4" y="-510.5" font-family="Helvetica,sans-Serif" font-size="10.00">+</text>
<text text-anchor="start" x="14" y="-510.5" font-family="Helvetica,sans-Serif" font-size="10.00">const double LS_MAXITER_MIN</text>
<text text-anchor="start" x="4" y="-494.5" font-family="Helvetica,sans-Serif" font-size="10.00">+</text>
<text text-anchor="start" x="14" y="-494.5" font-family="Helvetica,sans-Serif" font-size="10.00">const double LS_MAXITER_MAX</text>
<text text-anchor="start" x="5.5" y="-478.5" font-family="Helvetica,sans-Serif" font-size="10.00">&#45;</text>
<text text-anchor="start" x="14" y="-478.5" font-family="Helvetica,sans-Serif" font-size="10.00">callback_type func</text>
<text text-anchor="start" x="5.5" y="-462.5" font-family="Helvetica,sans-Serif" font-size="10.00">&#45;</text>
<text text-anchor="start" x="14" y="-462.5" font-family="Helvetica,sans-Serif" font-size="10.00">long evaluationCounter</text>
<text text-anchor="start" x="5.5" y="-446.5" font-family="Helvetica,sans-Serif" font-size="10.00">&#45;</text>
<text text-anchor="start" x="14" y="-446.5" font-family="Helvetica,sans-Serif" font-size="10.00">long maxEvals</text>
<text text-anchor="start" x="5.5" y="-430.5" font-family="Helvetica,sans-Serif" font-size="10.00">&#45;</text>
<text text-anchor="start" x="14" y="-430.5" font-family="Helvetica,sans-Serif" font-size="10.00">vec scale</text>
<text text-anchor="start" x="5.5" y="-414.5" font-family="Helvetica,sans-Serif" font-size="10.00">&#45;</text>
<text text-anchor="start" x="14" y="-414.5" font-family="Helvetica,sans-Serif" font-size="10.00">double bestY</text>
<text text-anchor="start" x="5.5" y="-398.5" font-family="Helvetica,sans-Serif" font-size="10.00">&#45;</text>
<text text-anchor="start" x="14" y="-398.5" font-family="Helvetica,sans-Serif" font-size="10.00">vec bestX</text>
<text text-anchor="start" x="4" y="-382.5" font-family="Helvetica,sans-Serif" font-size="10.00">+</text>
<text text-anchor="start" x="14" y="-382.5" font-family="Helvetica,sans-Serif" font-size="10.00">Fitness(callback_type</text>
<text text-anchor="start" x="14" y="-370.5" font-family="Helvetica,sans-Serif" font-size="10.00"> pfunc, vec *lower_limit,</text>
<text text-anchor="start" x="14" y="-358.5" font-family="Helvetica,sans-Serif" font-size="10.00"> vec *upper_limit, long</text>
<text text-anchor="start" x="14" y="-346.5" font-family="Helvetica,sans-Serif" font-size="10.00"> maxEvals_)</text>
<text text-anchor="start" x="4" y="-330.5" font-family="Helvetica,sans-Serif" font-size="10.00">+</text>
<text text-anchor="start" x="14" y="-330.5" font-family="Helvetica,sans-Serif" font-size="10.00">vec getClosestFeasible</text>
<text text-anchor="start" x="14" y="-318.5" font-family="Helvetica,sans-Serif" font-size="10.00">(const vec &amp;X) const</text>
<text text-anchor="start" x="4" y="-302.5" font-family="Helvetica,sans-Serif" font-size="10.00">+</text>
<text text-anchor="start" x="14" y="-302.5" font-family="Helvetica,sans-Serif" font-size="10.00">double eval(const vec &amp;X)</text>
<text text-anchor="start" x="4" y="-286.5" font-family="Helvetica,sans-Serif" font-size="10.00">+</text>
<text text-anchor="start" x="14" y="-286.5" font-family="Helvetica,sans-Serif" font-size="10.00">double value(const</text>
<text text-anchor="start" x="14" y="-274.5" font-family="Helvetica,sans-Serif" font-size="10.00"> vec &amp;X)</text>
<text text-anchor="start" x="4" y="-258.5" font-family="Helvetica,sans-Serif" font-size="10.00">+</text>
<text text-anchor="start" x="14" y="-258.5" font-family="Helvetica,sans-Serif" font-size="10.00">double local_search</text>
<text text-anchor="start" x="14" y="-246.5" font-family="Helvetica,sans-Serif" font-size="10.00">(const vec &amp;x0, double</text>
<text text-anchor="start" x="14" y="-234.5" font-family="Helvetica,sans-Serif" font-size="10.00"> currval, vec &amp;res)</text>
<text text-anchor="start" x="4" y="-218.5" font-family="Helvetica,sans-Serif" font-size="10.00">+</text>
<text text-anchor="start" x="14" y="-218.5" font-family="Helvetica,sans-Serif" font-size="10.00">vec encode(const vec</text>
<text text-anchor="start" x="14" y="-206.5" font-family="Helvetica,sans-Serif" font-size="10.00"> &amp;X) const</text>
<text text-anchor="start" x="4" y="-190.5" font-family="Helvetica,sans-Serif" font-size="10.00">+</text>
<text text-anchor="start" x="14" y="-190.5" font-family="Helvetica,sans-Serif" font-size="10.00">vec decode(const vec</text>
<text text-anchor="start" x="14" y="-178.5" font-family="Helvetica,sans-Serif" font-size="10.00"> &amp;X) const</text>
<text text-anchor="start" x="4" y="-162.5" font-family="Helvetica,sans-Serif" font-size="10.00">+</text>
<text text-anchor="start" x="14" y="-162.5" font-family="Helvetica,sans-Serif" font-size="10.00">int getEvaluations()</text>
<text text-anchor="start" x="4" y="-146.5" font-family="Helvetica,sans-Serif" font-size="10.00">+</text>
<text text-anchor="start" x="14" y="-146.5" font-family="Helvetica,sans-Serif" font-size="10.00">bool maxEvalReached()</text>
<polygon fill="#666666" stroke="#666666" points="0,-582 0,-582 165.75,-582 165.75,-582 0,-582"/>
<polygon fill="#666666" stroke="#666666" points="0,-394 0,-394 12,-394 12,-394 0,-394"/>
<polygon fill="#666666" stroke="#666666" points="12,-394 12,-394 165.75,-394 165.75,-394 12,-394"/>
<polygon fill="none" stroke="#666666" points="0,-140 0,-600 165.75,-600 165.75,-140 0,-140"/>
</a>
</g>
</g>
<!-- Node2&#45;&gt;Node1 -->
<g id="edge1_Node000001_Node000002" class="edge">
<title>Node2&#45;&gt;Node1</title>
<g id="a_edge1_Node000001_Node000002"><a xlink:title=" ">
<path fill="none" stroke="#63b8ff" d="M82.88,-140.14C82.88,-127.46 82.88,-115.48 82.88,-104.59"/>
<polygon fill="none" stroke="#63b8ff" points="82.88,-104.77 78.88,-98.77 82.88,-92.77 86.88,-98.77 82.88,-104.77"/>
</a>
</g>
<text text-anchor="middle" x="95.25" y="-112.5" font-family="Helvetica,sans-Serif" font-size="10.00" fill="grey"> &#45;func</text>
</g>
</g>
</svg>
