<?xml version="1.0" encoding="UTF-8" standalone="no"?>
<!DOCTYPE svg PUBLIC "-//W3C//DTD SVG 1.1//EN"
 "http://www.w3.org/Graphics/SVG/1.1/DTD/svg11.dtd">
<!-- Generated by graphviz version 12.2.1 (20241206.2353)
 -->
<!-- Title: CBiteRnd::getPow Pages: 1 -->
<!--zoomable 329 -->

<svg id="main" version="1.1" xmlns="http://www.w3.org/2000/svg" xmlns:xlink="http://www.w3.org/1999/xlink" xml:space="preserve" onload="init(evt)">

<style type="text/css"><![CDATA[
.node, .edge {opacity: 0.7;}
.node.selected, .edge.selected {opacity: 1;}
.edge:hover path { stroke: red; }
.edge:hover polygon { stroke: red; fill: red; }
]]></style>

<defs>
  <circle id="rim" cx="0" cy="0" r="7"/>
  <circle id="rim2" cx="0" cy="0" r="3.5"/>
  <g id="zoomPlus">
    <use xlink:href="#rim" fill="#404040"><set attributeName="fill" to="#808080" begin="zoomplus.mouseover" end="zoomplus.mouseout"/></use>
    <path d="M-4,0h8M0,-4v8" fill="none" stroke="white" stroke-width="1.5" pointer-events="none"/>
  </g>
  <g id="zoomMin">
    <use xlink:href="#rim" fill="#404040"><set attributeName="fill" to="#808080" begin="zoomminus.mouseover" end="zoomminus.mouseout"/></use>
    <path d="M-4,0h8" fill="none" stroke="white" stroke-width="1.5" pointer-events="none"/>
  </g>
  <g id="arrowUp" transform="translate(30 24)">
    <use xlink:href="#rim"/>
    <path pointer-events="none" fill="none" stroke="white" stroke-width="1.5" d="M0,-3.0v7 M-2.5,-0.5L0,-3.0L2.5,-0.5"/>
  </g>
  <g id="arrowRight" transform="rotate(90) translate(36 -43)">
    <use xlink:href="#rim"/>
    <path pointer-events="none" fill="none" stroke="white" stroke-width="1.5" d="M0,-3.0v7 M-2.5,-0.5L0,-3.0L2.5,-0.5"/>
  </g>
  <g id="arrowDown" transform="rotate(180) translate(-30 -48)">
    <use xlink:href="#rim"/>
    <path pointer-events="none" fill="none" stroke="white" stroke-width="1.5" d="M0,-3.0v7 M-2.5,-0.5L0,-3.0L2.5,-0.5"/>
  </g>
  <g id="arrowLeft" transform="rotate(270) translate(-36 17)">
    <use xlink:href="#rim"/>
    <path pointer-events="none" fill="none" stroke="white" stroke-width="1.5" d="M0,-3.0v7 M-2.5,-0.5L0,-3.0L2.5,-0.5"/>
  </g>
  <g id="resetDef">
    <use xlink:href="#rim2" fill="#404040"><set attributeName="fill" to="#808080" begin="reset.mouseover" end="reset.mouseout"/></use>
  </g>
</defs>
<script type="application/ecmascript">
var viewWidth = 787;
var viewHeight = 329;
var sectionId = 'dynsection-16';
</script>
<script type="application/ecmascript" xlink:href="svg.min.js"/>
<svg id="graph" class="graph">
<g id="viewport">
<title>CBiteRnd::getPow</title>
<!-- Node1 -->
<g id="Node000001" class="node">
<title>Node1</title>
<g id="a_Node000001"><a xlink:title=" ">
<polygon fill="#999999" stroke="#666666" points="779,-248 681.25,-248 681.25,-228 779,-228 779,-248"/>
<text text-anchor="middle" x="730.12" y="-234.5" font-family="Helvetica,sans-Serif" font-size="10.00">CBiteRnd::getPow</text>
</a>
</g>
</g>
<!-- Node2 -->
<g id="Node000002" class="node">
<title>Node2</title>
<g id="a_Node000002"><a xlink:href="class_c_bite_opt.html#a001440627928387b57b5f266696ba330" target="_top" xlink:title=" ">
<polygon fill="white" stroke="#666666" points="645.25,-319 525.75,-319 525.75,-299 645.25,-299 645.25,-319"/>
<text text-anchor="middle" x="585.5" y="-305.5" font-family="Helvetica,sans-Serif" font-size="10.00">CBiteOpt::generateSol6</text>
</a>
</g>
</g>
<!-- Node1&#45;&gt;Node2 -->
<g id="edge1_Node000001_Node000002" class="edge">
<title>Node1&#45;&gt;Node2</title>
<g id="a_edge1_Node000001_Node000002"><a xlink:title=" ">
<path fill="none" stroke="#63b8ff" d="M702.23,-254.19C685.99,-263.67 664.74,-275.6 645.25,-285 635.23,-289.83 623.97,-294.59 614.01,-298.57"/>
<polygon fill="#63b8ff" stroke="#63b8ff" points="703.97,-257.22 710.8,-249.12 700.41,-251.19 703.97,-257.22"/>
</a>
</g>
</g>
<!-- Node4 -->
<g id="Node000004" class="node">
<title>Node4</title>
<g id="a_Node000004"><a xlink:href="class_c_bite_opt.html#a6766fe9d56bee1f623d297b2f9cf8500" target="_top" xlink:title=" ">
<polygon fill="white" stroke="#666666" points="645.25,-276 525.75,-276 525.75,-256 645.25,-256 645.25,-276"/>
<text text-anchor="middle" x="585.5" y="-262.5" font-family="Helvetica,sans-Serif" font-size="10.00">CBiteOpt::generateSol7</text>
</a>
</g>
</g>
<!-- Node1&#45;&gt;Node4 -->
<g id="edge3_Node000001_Node000004" class="edge">
<title>Node1&#45;&gt;Node4</title>
<g id="a_edge3_Node000001_Node000004"><a xlink:title=" ">
<path fill="none" stroke="#63b8ff" d="M669.74,-249.66C659.76,-251.62 649.45,-253.64 639.63,-255.57"/>
<polygon fill="#63b8ff" stroke="#63b8ff" points="670.22,-253.13 679.35,-247.77 668.87,-246.26 670.22,-253.13"/>
</a>
</g>
</g>
<!-- Node5 -->
<g id="Node000005" class="node">
<title>Node5</title>
<g id="a_Node000005"><a xlink:href="class_c_bite_opt.html#af25cdfb71a0ad9081148c31da58fe949" target="_top" xlink:title=" ">
<polygon fill="white" stroke="#666666" points="489.75,-210 359.75,-210 359.75,-190 489.75,-190 489.75,-210"/>
<text text-anchor="middle" x="424.75" y="-196.5" font-family="Helvetica,sans-Serif" font-size="10.00">CBiteOpt::getMinSolIndex</text>
</a>
</g>
</g>
<!-- Node1&#45;&gt;Node5 -->
<g id="edge5_Node000001_Node000005" class="edge">
<title>Node1&#45;&gt;Node5</title>
<g id="a_edge5_Node000001_Node000005"><a xlink:title=" ">
<path fill="none" stroke="#63b8ff" d="M669.73,-230.56C617.98,-224.08 543.11,-214.7 489.98,-208.05"/>
<polygon fill="#63b8ff" stroke="#63b8ff" points="669.2,-234.02 679.55,-231.79 670.07,-227.07 669.2,-234.02"/>
</a>
</g>
</g>
<!-- Node10 -->
<g id="Node000010" class="node">
<title>Node10</title>
<g id="a_Node000010"><a xlink:href="class_c_bite_rnd.html#adca97316ecce595b9175815493f7a3a2" target="_top" xlink:title=" ">
<polygon fill="white" stroke="#666666" points="640,-77 531,-77 531,-57 640,-57 640,-77"/>
<text text-anchor="middle" x="585.5" y="-63.5" font-family="Helvetica,sans-Serif" font-size="10.00">CBiteRnd::getPowInt</text>
</a>
</g>
</g>
<!-- Node1&#45;&gt;Node10 -->
<g id="edge14_Node000001_Node000010" class="edge">
<title>Node1&#45;&gt;Node10</title>
<g id="a_edge14_Node000001_Node000010"><a xlink:title=" ">
<path fill="none" stroke="#63b8ff" d="M713.2,-218.91C683.01,-182.72 618.39,-105.23 595.09,-77.3"/>
<polygon fill="#63b8ff" stroke="#63b8ff" points="710.36,-220.96 719.45,-226.4 715.73,-216.48 710.36,-220.96"/>
</a>
</g>
</g>
<!-- Node3 -->
<g id="Node000003" class="node">
<title>Node3</title>
<g id="a_Node000003"><a xlink:href="class_c_bite_opt.html#a2f56a9d5d682c92e2da1234ed68d54ed" target="_top" xlink:title=" ">
<polygon fill="white" stroke="#666666" points="131.12,-191 31.88,-191 31.88,-171 131.12,-171 131.12,-191"/>
<text text-anchor="middle" x="81.5" y="-177.5" font-family="Helvetica,sans-Serif" font-size="10.00">CBiteOpt::optimize</text>
</a>
</g>
</g>
<!-- Node2&#45;&gt;Node3 -->
<g id="edge2_Node000002_Node000003" class="edge">
<title>Node2&#45;&gt;Node3</title>
<g id="a_edge2_Node000002_Node000003"><a xlink:title=" ">
<path fill="none" stroke="#63b8ff" d="M513.99,-317.14C434.27,-323.43 302.17,-324.94 199,-282 150.31,-261.74 107.57,-212.85 90.45,-191.39"/>
<polygon fill="#63b8ff" stroke="#63b8ff" points="514.18,-320.64 523.85,-316.31 513.6,-313.66 514.18,-320.64"/>
</a>
</g>
</g>
<!-- Node4&#45;&gt;Node3 -->
<g id="edge4_Node000004_Node000003" class="edge">
<title>Node4&#45;&gt;Node3</title>
<g id="a_edge4_Node000004_Node000003"><a xlink:title=" ">
<path fill="none" stroke="#63b8ff" d="M514.2,-275.67C435.48,-283.94 305.04,-289.88 199,-257 155.64,-243.55 113.13,-208.87 93.61,-191.39"/>
<polygon fill="#63b8ff" stroke="#63b8ff" points="514.36,-279.18 523.92,-274.61 513.6,-272.22 514.36,-279.18"/>
</a>
</g>
</g>
<!-- Node6 -->
<g id="Node000006" class="node">
<title>Node6</title>
<g id="a_Node000006"><a xlink:href="class_c_bite_opt.html#aaf2f5bc8a214a95532426c9a9b38fdb8" target="_top" xlink:title=" ">
<polygon fill="white" stroke="#666666" points="321.12,-248 201.62,-248 201.62,-228 321.12,-228 321.12,-248"/>
<text text-anchor="middle" x="261.38" y="-234.5" font-family="Helvetica,sans-Serif" font-size="10.00">CBiteOpt::generateSol1</text>
</a>
</g>
</g>
<!-- Node5&#45;&gt;Node6 -->
<g id="edge6_Node000005_Node000006" class="edge">
<title>Node5&#45;&gt;Node6</title>
<g id="a_edge6_Node000005_Node000006"><a xlink:title=" ">
<path fill="none" stroke="#63b8ff" d="M368.05,-213.12C348.01,-217.83 325.7,-223.09 306.75,-227.55"/>
<polygon fill="#63b8ff" stroke="#63b8ff" points="368.82,-216.53 377.75,-210.83 367.22,-209.72 368.82,-216.53"/>
</a>
</g>
</g>
<!-- Node7 -->
<g id="Node000007" class="node">
<title>Node7</title>
<g id="a_Node000007"><a xlink:href="class_c_bite_opt.html#ab6de0da3b279e77788efed7d3e05a0e2" target="_top" xlink:title=" ">
<polygon fill="white" stroke="#666666" points="321.12,-210 201.62,-210 201.62,-190 321.12,-190 321.12,-210"/>
<text text-anchor="middle" x="261.38" y="-196.5" font-family="Helvetica,sans-Serif" font-size="10.00">CBiteOpt::generateSol2</text>
</a>
</g>
</g>
<!-- Node5&#45;&gt;Node7 -->
<g id="edge8_Node000005_Node000007" class="edge">
<title>Node5&#45;&gt;Node7</title>
<g id="a_edge8_Node000005_Node000007"><a xlink:title=" ">
<path fill="none" stroke="#63b8ff" d="M348.2,-200C339.21,-200 330.13,-200 321.42,-200"/>
<polygon fill="#63b8ff" stroke="#63b8ff" points="347.99,-203.5 357.99,-200 347.99,-196.5 347.99,-203.5"/>
</a>
</g>
</g>
<!-- Node8 -->
<g id="Node000008" class="node">
<title>Node8</title>
<g id="a_Node000008"><a xlink:href="class_c_bite_opt.html#abd6c435c82a97476332139663d9a1c82" target="_top" xlink:title=" ">
<polygon fill="white" stroke="#666666" points="323.75,-172 199,-172 199,-152 323.75,-152 323.75,-172"/>
<text text-anchor="middle" x="261.38" y="-158.5" font-family="Helvetica,sans-Serif" font-size="10.00">CBiteOpt::generateSol2b</text>
</a>
</g>
</g>
<!-- Node5&#45;&gt;Node8 -->
<g id="edge10_Node000005_Node000008" class="edge">
<title>Node5&#45;&gt;Node8</title>
<g id="a_edge10_Node000005_Node000008"><a xlink:title=" ">
<path fill="none" stroke="#63b8ff" d="M368.05,-186.88C348.01,-182.17 325.7,-176.91 306.75,-172.45"/>
<polygon fill="#63b8ff" stroke="#63b8ff" points="367.22,-190.28 377.75,-189.17 368.82,-183.47 367.22,-190.28"/>
</a>
</g>
</g>
<!-- Node9 -->
<g id="Node000009" class="node">
<title>Node9</title>
<g id="a_Node000009"><a xlink:href="class_c_bite_opt.html#a2babc6c08dad9718d349683242805bc0" target="_top" xlink:title=" ">
<polygon fill="white" stroke="#666666" points="321.12,-134 201.62,-134 201.62,-114 321.12,-114 321.12,-134"/>
<text text-anchor="middle" x="261.38" y="-120.5" font-family="Helvetica,sans-Serif" font-size="10.00">CBiteOpt::generateSol3</text>
</a>
</g>
</g>
<!-- Node5&#45;&gt;Node9 -->
<g id="edge12_Node000005_Node000009" class="edge">
<title>Node5&#45;&gt;Node9</title>
<g id="a_edge12_Node000005_Node000009"><a xlink:title=" ">
<path fill="none" stroke="#63b8ff" d="M398.55,-183.59C378.79,-171.23 350.29,-154.51 323.75,-143 316.48,-139.85 308.53,-136.98 300.82,-134.49"/>
<polygon fill="#63b8ff" stroke="#63b8ff" points="396.43,-186.39 406.75,-188.79 400.18,-180.48 396.43,-186.39"/>
</a>
</g>
</g>
<!-- Node6&#45;&gt;Node3 -->
<g id="edge7_Node000006_Node000003" class="edge">
<title>Node6&#45;&gt;Node3</title>
<g id="a_edge7_Node000006_Node000003"><a xlink:title=" ">
<path fill="none" stroke="#63b8ff" d="M215.63,-224.23C210.02,-222.48 204.38,-220.71 199,-219 170.21,-209.85 137.51,-199.16 114.1,-191.45"/>
<polygon fill="#63b8ff" stroke="#63b8ff" points="214.23,-227.46 224.81,-227.09 216.3,-220.78 214.23,-227.46"/>
</a>
</g>
</g>
<!-- Node7&#45;&gt;Node3 -->
<g id="edge9_Node000007_Node000003" class="edge">
<title>Node7&#45;&gt;Node3</title>
<g id="a_edge9_Node000007_Node000003"><a xlink:title=" ">
<path fill="none" stroke="#63b8ff" d="M189.8,-192.46C170.23,-190.37 149.43,-188.15 131.4,-186.22"/>
<polygon fill="#63b8ff" stroke="#63b8ff" points="189.33,-195.93 199.64,-193.51 190.07,-188.97 189.33,-195.93"/>
</a>
</g>
</g>
<!-- Node8&#45;&gt;Node3 -->
<g id="edge11_Node000008_Node000003" class="edge">
<title>Node8&#45;&gt;Node3</title>
<g id="a_edge11_Node000008_Node000003"><a xlink:title=" ">
<path fill="none" stroke="#63b8ff" d="M187.41,-169.79C168.58,-171.8 148.77,-173.92 131.5,-175.77"/>
<polygon fill="#63b8ff" stroke="#63b8ff" points="187.59,-173.3 197.16,-168.75 186.84,-166.33 187.59,-173.3"/>
</a>
</g>
</g>
<!-- Node9&#45;&gt;Node3 -->
<g id="edge13_Node000009_Node000003" class="edge">
<title>Node9&#45;&gt;Node3</title>
<g id="a_edge13_Node000009_Node000003"><a xlink:title=" ">
<path fill="none" stroke="#63b8ff" d="M215.63,-137.77C210.02,-139.52 204.38,-141.29 199,-143 170.21,-152.15 137.51,-162.84 114.1,-170.55"/>
<polygon fill="#63b8ff" stroke="#63b8ff" points="216.3,-141.22 224.81,-134.91 214.23,-134.54 216.3,-141.22"/>
</a>
</g>
</g>
<!-- Node11 -->
<g id="Node000011" class="node">
<title>Node11</title>
<g id="a_Node000011"><a xlink:href="class_c_bite_opt.html#a2363863090db7154792f78ec46abcf47" target="_top" xlink:title=" ">
<polygon fill="white" stroke="#666666" points="487.12,-96 362.38,-96 362.38,-76 487.12,-76 487.12,-96"/>
<text text-anchor="middle" x="424.75" y="-82.5" font-family="Helvetica,sans-Serif" font-size="10.00">CBiteOpt::generateSol2c</text>
</a>
</g>
</g>
<!-- Node10&#45;&gt;Node11 -->
<g id="edge15_Node000010_Node000011" class="edge">
<title>Node10&#45;&gt;Node11</title>
<g id="a_edge15_Node000010_Node000011"><a xlink:title=" ">
<path fill="none" stroke="#63b8ff" d="M519.43,-74.79C508.83,-76.06 497.89,-77.37 487.38,-78.62"/>
<polygon fill="#63b8ff" stroke="#63b8ff" points="519.74,-78.28 529.25,-73.61 518.91,-71.33 519.74,-78.28"/>
</a>
</g>
</g>
<!-- Node13 -->
<g id="Node000013" class="node">
<title>Node13</title>
<g id="a_Node000013"><a xlink:href="class_c_d_e_opt.html#a819e3692005dd630f7bc83d4444e23ee" target="_top" xlink:title=" ">
<polygon fill="white" stroke="#666666" points="472.88,-58 376.62,-58 376.62,-38 472.88,-38 472.88,-58"/>
<text text-anchor="middle" x="424.75" y="-44.5" font-family="Helvetica,sans-Serif" font-size="10.00">CDEOpt::optimize</text>
</a>
</g>
</g>
<!-- Node10&#45;&gt;Node13 -->
<g id="edge19_Node000010_Node000013" class="edge">
<title>Node10&#45;&gt;Node13</title>
<g id="a_edge19_Node000010_Node000013"><a xlink:title=" ">
<path fill="none" stroke="#63b8ff" d="M519.64,-59.24C504.14,-57.38 487.87,-55.44 473.32,-53.69"/>
<polygon fill="#63b8ff" stroke="#63b8ff" points="518.91,-62.67 529.25,-60.39 519.74,-55.72 518.91,-62.67"/>
</a>
</g>
</g>
<!-- Node14 -->
<g id="Node000014" class="node">
<title>Node14</title>
<g id="a_Node000014"><a xlink:href="class_c_bite_sel_base.html#a8057363e3d0feb4fc8e23957a8806245" target="_top" xlink:title=" ">
<polygon fill="white" stroke="#666666" points="479.62,-20 369.88,-20 369.88,0 479.62,0 479.62,-20"/>
<text text-anchor="middle" x="424.75" y="-6.5" font-family="Helvetica,sans-Serif" font-size="10.00">CBiteSelBase::select</text>
</a>
</g>
</g>
<!-- Node10&#45;&gt;Node14 -->
<g id="edge20_Node000010_Node000014" class="edge">
<title>Node10&#45;&gt;Node14</title>
<g id="a_edge20_Node000010_Node000014"><a xlink:title=" ">
<path fill="none" stroke="#63b8ff" d="M549.73,-52.16C531.94,-44.79 509.85,-36 489.75,-29 481.21,-26.03 471.94,-23.1 463.16,-20.47"/>
<polygon fill="#63b8ff" stroke="#63b8ff" points="548.22,-55.32 558.8,-55.94 550.92,-48.86 548.22,-55.32"/>
</a>
</g>
</g>
<!-- Node11&#45;&gt;Node3 -->
<g id="edge18_Node000011_Node000003" class="edge">
<title>Node11&#45;&gt;Node3</title>
<g id="a_edge18_Node000011_Node000003"><a xlink:title=" ">
<path fill="none" stroke="#63b8ff" d="M350.58,-83.23C305.71,-83.7 247.71,-88.25 199,-105 156.3,-119.68 113.82,-153.47 94.02,-170.61"/>
<polygon fill="#63b8ff" stroke="#63b8ff" points="350.49,-86.73 360.48,-83.2 350.47,-79.73 350.49,-86.73"/>
</a>
</g>
</g>
<!-- Node12 -->
<g id="Node000012" class="node">
<title>Node12</title>
<g id="a_Node000012"><a xlink:href="class_c_bite_opt.html#a76fa9d8bf4abde13b69e06761acc82f5" target="_top" xlink:title=" ">
<polygon fill="white" stroke="#666666" points="323.75,-58 199,-58 199,-38 323.75,-38 323.75,-58"/>
<text text-anchor="middle" x="261.38" y="-44.5" font-family="Helvetica,sans-Serif" font-size="10.00">CBiteOpt::generateSol2d</text>
</a>
</g>
</g>
<!-- Node11&#45;&gt;Node12 -->
<g id="edge16_Node000011_Node000012" class="edge">
<title>Node11&#45;&gt;Node12</title>
<g id="a_edge16_Node000011_Node000012"><a xlink:title=" ">
<path fill="none" stroke="#63b8ff" d="M368.05,-72.88C348.01,-68.17 325.7,-62.91 306.75,-58.45"/>
<polygon fill="#63b8ff" stroke="#63b8ff" points="367.22,-76.28 377.75,-75.17 368.82,-69.47 367.22,-76.28"/>
</a>
</g>
</g>
<!-- Node12&#45;&gt;Node3 -->
<g id="edge17_Node000012_Node000003" class="edge">
<title>Node12&#45;&gt;Node3</title>
<g id="a_edge17_Node000012_Node000003"><a xlink:title=" ">
<path fill="none" stroke="#63b8ff" d="M216.78,-62.65C210.62,-65.4 204.52,-68.52 199,-72 153.07,-100.95 109.18,-149.46 91.13,-170.61"/>
<polygon fill="#63b8ff" stroke="#63b8ff" points="217.8,-66.02 225.7,-58.96 215.12,-59.55 217.8,-66.02"/>
</a>
</g>
</g>
<!-- Node15 -->
<g id="Node000015" class="node">
<title>Node15</title>
<g id="a_Node000015"><a xlink:href="class_c_bite_sel_base.html#a608b89514f2f4430e4e0a6ff6660c7cf" target="_top" xlink:title=" ">
<polygon fill="white" stroke="#666666" points="314,-20 208.75,-20 208.75,0 314,0 314,-20"/>
<text text-anchor="middle" x="261.38" y="-6.5" font-family="Helvetica,sans-Serif" font-size="10.00">CBiteSelBase::reset</text>
</a>
</g>
</g>
<!-- Node14&#45;&gt;Node15 -->
<g id="edge21_Node000014_Node000015" class="edge">
<title>Node14&#45;&gt;Node15</title>
<g id="a_edge21_Node000014_Node000015"><a xlink:title=" ">
<path fill="none" stroke="#63b8ff" d="M358.48,-10C343.75,-10 328.32,-10 314.23,-10"/>
<polygon fill="#63b8ff" stroke="#63b8ff" points="358.05,-13.5 368.05,-10 358.05,-6.5 358.05,-13.5"/>
</a>
</g>
</g>
<!-- Node16 -->
<g id="Node000016" class="node">
<title>Node16</title>
<g id="a_Node000016"><a xlink:href="classexamples_1_1siemens_1_1_plant.html#a4570217ffc213f931499ca5ca147819c" target="_top" xlink:title=" ">
<polygon fill="white" stroke="#666666" points="163,-20 0,-20 0,0 163,0 163,-20"/>
<text text-anchor="middle" x="81.5" y="-6.5" font-family="Helvetica,sans-Serif" font-size="10.00">examples.siemens.Plant.simulate</text>
</a>
</g>
</g>
<!-- Node15&#45;&gt;Node16 -->
<g id="edge22_Node000015_Node000016" class="edge">
<title>Node15&#45;&gt;Node16</title>
<g id="a_edge22_Node000015_Node000016"><a xlink:title=" ">
<path fill="none" stroke="#63b8ff" d="M197.23,-10C186.24,-10 174.67,-10 163.28,-10"/>
<polygon fill="#63b8ff" stroke="#63b8ff" points="196.93,-13.5 206.93,-10 196.93,-6.5 196.93,-13.5"/>
</a>
</g>
</g>
</g>
</svg>

<g id="navigator" transform="translate(0 0)" fill="#404254">
  <rect fill="#f2f5e9" fill-opacity="0.5" stroke="#606060" stroke-width=".5" x="0" y="0" width="60" height="60"/>
  <use id="zoomplus" xlink:href="#zoomPlus" x="17" y="9" onmousedown="handleZoom(evt,'in')"/>
  <use id="zoomminus" xlink:href="#zoomMin" x="42" y="9" onmousedown="handleZoom(evt,'out')"/>
  <use id="reset" xlink:href="#resetDef" x="30" y="36" onmousedown="handleReset()"/>
   <use id="arrowup" xlink:href="#arrowUp" x="0" y="0" onmousedown="handlePan(0,-1)"/>
  <use id="arrowright" xlink:href="#arrowRight" x="0" y="0" onmousedown="handlePan(1,0)"/>
  <use id="arrowdown" xlink:href="#arrowDown" x="0" y="0" onmousedown="handlePan(0,1)"/>
  <use id="arrowleft" xlink:href="#arrowLeft" x="0" y="0" onmousedown="handlePan(-1,0)"/>
</g>
<svg viewBox="0 0 15 15" width="100%" height="30px" preserveAspectRatio="xMaxYMin meet">
 <g id="arrow_out" transform="scale(0.3 0.3)">
  <a xlink:href="class_c_bite_rnd_aa4c960b792982f495cc19c04ad9c2705_icgraph_org.svg" target="_base">
   <rect id="button" ry="5" rx="5" y="6" x="6" height="38" width="38"
        fill="#f2f5e9" fill-opacity="0.5" stroke="#606060" stroke-width="1.0"/>
   <path id="arrow"
     d="M 11.500037,31.436501 C 11.940474,20.09759 22.043105,11.32322 32.158766,21.979434 L 37.068811,17.246167 C 37.068811,17.246167 37.088388,32 37.088388,32 L 22.160133,31.978069 C 22.160133,31.978069 26.997745,27.140456 26.997745,27.140456 C 18.528582,18.264221 13.291696,25.230495 11.500037,31.436501 z"
     style="fill:#404040;"/>
  </a>
 </g>
</svg>

<style type='text/css'>
<![CDATA[
[data-mouse-over-selected='false'] { opacity: 0.7; }
[data-mouse-over-selected='true']  { opacity: 1.0; }
]]>
</style>
<script type="application/ecmascript"><![CDATA[
document.addEventListener('DOMContentLoaded', (event) => {
  highlightEdges();
  highlightAdjacentNodes();
});
]]></script>
</svg>
