<?xml version="1.0" encoding="UTF-8" standalone="no"?>
<!DOCTYPE svg PUBLIC "-//W3C//DTD SVG 1.1//EN"
 "http://www.w3.org/Graphics/SVG/1.1/DTD/svg11.dtd">
<!-- Generated by graphviz version 12.2.1 (20241206.2353)
 -->
<!-- Title: CBiteOpt::generateSol4 Pages: 1 -->
<!--zoomable 364 -->

<svg id="main" version="1.1" xmlns="http://www.w3.org/2000/svg" xmlns:xlink="http://www.w3.org/1999/xlink" xml:space="preserve" onload="init(evt)">

<style type="text/css"><![CDATA[
.node, .edge {opacity: 0.7;}
.node.selected, .edge.selected {opacity: 1;}
.edge:hover path { stroke: red; }
.edge:hover polygon { stroke: red; fill: red; }
]]></style>

<defs>
  <circle id="rim" cx="0" cy="0" r="7"/>
  <circle id="rim2" cx="0" cy="0" r="3.5"/>
  <g id="zoomPlus">
    <use xlink:href="#rim" fill="#404040"><set attributeName="fill" to="#808080" begin="zoomplus.mouseover" end="zoomplus.mouseout"/></use>
    <path d="M-4,0h8M0,-4v8" fill="none" stroke="white" stroke-width="1.5" pointer-events="none"/>
  </g>
  <g id="zoomMin">
    <use xlink:href="#rim" fill="#404040"><set attributeName="fill" to="#808080" begin="zoomminus.mouseover" end="zoomminus.mouseout"/></use>
    <path d="M-4,0h8" fill="none" stroke="white" stroke-width="1.5" pointer-events="none"/>
  </g>
  <g id="arrowUp" transform="translate(30 24)">
    <use xlink:href="#rim"/>
    <path pointer-events="none" fill="none" stroke="white" stroke-width="1.5" d="M0,-3.0v7 M-2.5,-0.5L0,-3.0L2.5,-0.5"/>
  </g>
  <g id="arrowRight" transform="rotate(90) translate(36 -43)">
    <use xlink:href="#rim"/>
    <path pointer-events="none" fill="none" stroke="white" stroke-width="1.5" d="M0,-3.0v7 M-2.5,-0.5L0,-3.0L2.5,-0.5"/>
  </g>
  <g id="arrowDown" transform="rotate(180) translate(-30 -48)">
    <use xlink:href="#rim"/>
    <path pointer-events="none" fill="none" stroke="white" stroke-width="1.5" d="M0,-3.0v7 M-2.5,-0.5L0,-3.0L2.5,-0.5"/>
  </g>
  <g id="arrowLeft" transform="rotate(270) translate(-36 17)">
    <use xlink:href="#rim"/>
    <path pointer-events="none" fill="none" stroke="white" stroke-width="1.5" d="M0,-3.0v7 M-2.5,-0.5L0,-3.0L2.5,-0.5"/>
  </g>
  <g id="resetDef">
    <use xlink:href="#rim2" fill="#404040"><set attributeName="fill" to="#808080" begin="reset.mouseover" end="reset.mouseout"/></use>
  </g>
</defs>
<script type="application/ecmascript">
var viewWidth = 696;
var viewHeight = 364;
var sectionId = 'dynsection-18';
</script>
<script type="application/ecmascript" xlink:href="svg.min.js"/>
<svg id="graph" class="graph">
<g id="viewport">
<title>CBiteOpt::generateSol4</title>
<!-- Node1 -->
<g id="Node000001" class="node">
<title>Node1</title>
<g id="a_Node000001"><a xlink:title=" ">
<polygon fill="#999999" stroke="#666666" points="119.5,-208 0,-208 0,-188 119.5,-188 119.5,-208"/>
<text text-anchor="middle" x="59.75" y="-194.5" font-family="Helvetica,sans-Serif" font-size="10.00">CBiteOpt::generateSol4</text>
</a>
</g>
</g>
<!-- Node2 -->
<g id="Node000002" class="node">
<title>Node2</title>
<g id="a_Node000002"><a xlink:href="class_c_bite_pop.html#ad427518ed1d47fbe3c2222b3a11badb7" target="_top" xlink:title=" ">
<polygon fill="white" stroke="#666666" points="419.62,-318 314.38,-318 314.38,-286 419.62,-286 419.62,-318"/>
<text text-anchor="start" x="322.38" y="-304.5" font-family="Helvetica,sans-Serif" font-size="10.00">CBitePop&lt; int64_t &gt;</text>
<text text-anchor="middle" x="367" y="-292.5" font-family="Helvetica,sans-Serif" font-size="10.00">::CBitePop</text>
</a>
</g>
</g>
<!-- Node1&#45;&gt;Node2 -->
<g id="edge1_Node000001_Node000002" class="edge">
<title>Node1&#45;&gt;Node2</title>
<g id="a_edge1_Node000001_Node000002"><a xlink:title=" ">
<path fill="none" stroke="#63b8ff" d="M64.24,-208.18C73.87,-234.43 103.59,-304.24 155.5,-331 207.91,-358.01 276.92,-339.99 321.38,-322.64"/>
<polygon fill="#63b8ff" stroke="#63b8ff" points="322.5,-325.96 330.45,-318.96 319.87,-319.48 322.5,-325.96"/>
</a>
</g>
</g>
<!-- Node3 -->
<g id="Node000003" class="node">
<title>Node3</title>
<g id="a_Node000003"><a xlink:href="class_c_bite_pop.html#a24130fea35014433f142e3b9ed0f8929" target="_top" xlink:title=" ">
<polygon fill="white" stroke="#666666" points="268.62,-132 163.38,-132 163.38,-100 268.62,-100 268.62,-132"/>
<text text-anchor="start" x="171.38" y="-118.5" font-family="Helvetica,sans-Serif" font-size="10.00">CBitePop&lt; int64_t &gt;</text>
<text text-anchor="middle" x="216" y="-106.5" font-family="Helvetica,sans-Serif" font-size="10.00">::copyParams</text>
</a>
</g>
</g>
<!-- Node1&#45;&gt;Node3 -->
<g id="edge2_Node000001_Node000003" class="edge">
<title>Node1&#45;&gt;Node3</title>
<g id="a_edge2_Node000001_Node000003"><a xlink:title=" ">
<path fill="none" stroke="#63b8ff" d="M76.45,-187.6C94.92,-175.58 126.74,-155.6 155.5,-141 158.04,-139.71 160.65,-138.44 163.31,-137.18"/>
<polygon fill="#63b8ff" stroke="#63b8ff" points="164.65,-140.41 172.3,-133.08 161.75,-134.04 164.65,-140.41"/>
</a>
</g>
</g>
<!-- Node4 -->
<g id="Node000004" class="node">
<title>Node4</title>
<g id="a_Node000004"><a xlink:href="class_c_bite_rnd.html#a6ccc0608cbc9080d9509a0e4c483adfe" target="_top" xlink:title=" ">
<polygon fill="white" stroke="#666666" points="549.25,-208 459,-208 459,-188 549.25,-188 549.25,-208"/>
<text text-anchor="middle" x="504.12" y="-194.5" font-family="Helvetica,sans-Serif" font-size="10.00">CBiteRnd::getBit</text>
</a>
</g>
</g>
<!-- Node1&#45;&gt;Node4 -->
<g id="edge3_Node000001_Node000004" class="edge">
<title>Node1&#45;&gt;Node4</title>
<g id="a_edge3_Node000001_Node000004"><a xlink:title=" ">
<path fill="none" stroke="#63b8ff" d="M119.95,-198C205.74,-198 363.48,-198 447.32,-198"/>
<polygon fill="#63b8ff" stroke="#63b8ff" points="447.13,-201.5 457.13,-198 447.13,-194.5 447.13,-201.5"/>
</a>
</g>
</g>
<!-- Node6 -->
<g id="Node000006" class="node">
<title>Node6</title>
<g id="a_Node000006"><a xlink:href="class_c_bite_pop.html#a5aef425d751172e1fff38a455cb51d34" target="_top" xlink:title=" ">
<polygon fill="white" stroke="#666666" points="268.62,-82 163.38,-82 163.38,-50 268.62,-50 268.62,-82"/>
<text text-anchor="start" x="171.38" y="-68.5" font-family="Helvetica,sans-Serif" font-size="10.00">CBitePop&lt; int64_t &gt;</text>
<text text-anchor="middle" x="216" y="-56.5" font-family="Helvetica,sans-Serif" font-size="10.00">::getCurPopSize</text>
</a>
</g>
</g>
<!-- Node1&#45;&gt;Node6 -->
<g id="edge5_Node000001_Node000006" class="edge">
<title>Node1&#45;&gt;Node6</title>
<g id="a_edge5_Node000001_Node000006"><a xlink:title=" ">
<path fill="none" stroke="#63b8ff" d="M67.41,-187.79C81.43,-167 115.97,-119.33 155.5,-91 156.87,-90.02 158.28,-89.07 159.72,-88.15"/>
<polygon fill="#63b8ff" stroke="#63b8ff" points="161.38,-91.23 168.33,-83.24 157.91,-85.15 161.38,-91.23"/>
</a>
</g>
</g>
<!-- Node7 -->
<g id="Node000007" class="node">
<title>Node7</title>
<g id="a_Node000007"><a xlink:href="class_c_bite_pop.html#aaa8e3f180accfedf21218cbed8ffbb79" target="_top" xlink:title=" ">
<polygon fill="white" stroke="#666666" points="268.62,-32 163.38,-32 163.38,0 268.62,0 268.62,-32"/>
<text text-anchor="start" x="171.38" y="-18.5" font-family="Helvetica,sans-Serif" font-size="10.00">CBitePop&lt; int64_t &gt;</text>
<text text-anchor="middle" x="216" y="-6.5" font-family="Helvetica,sans-Serif" font-size="10.00">::getParamsOrdered</text>
</a>
</g>
</g>
<!-- Node1&#45;&gt;Node7 -->
<g id="edge6_Node000001_Node000007" class="edge">
<title>Node1&#45;&gt;Node7</title>
<g id="a_edge6_Node000001_Node000007"><a xlink:title=" ">
<path fill="none" stroke="#63b8ff" d="M64.36,-187.68C74.46,-160.15 105.64,-84.1 155.5,-41 156.43,-40.19 157.39,-39.41 158.38,-38.65"/>
<polygon fill="#63b8ff" stroke="#63b8ff" points="160.16,-41.67 166.58,-33.24 156.31,-35.83 160.16,-41.67"/>
</a>
</g>
</g>
<!-- Node8 -->
<g id="Node000008" class="node">
<title>Node8</title>
<g id="a_Node000008"><a xlink:href="class_c_bite_rnd.html#ab73d2c6a6e4c1f5da7441168f165529d" target="_top" xlink:title=" ">
<polygon fill="white" stroke="#666666" points="268.25,-170 163.75,-170 163.75,-150 268.25,-150 268.25,-170"/>
<text text-anchor="middle" x="216" y="-156.5" font-family="Helvetica,sans-Serif" font-size="10.00">CBiteRnd::getSqrInt</text>
</a>
</g>
</g>
<!-- Node1&#45;&gt;Node8 -->
<g id="edge7_Node000001_Node000008" class="edge">
<title>Node1&#45;&gt;Node8</title>
<g id="a_edge7_Node000001_Node000008"><a xlink:title=" ">
<path fill="none" stroke="#63b8ff" d="M103.31,-187.52C121.35,-183.07 142.57,-177.84 161.64,-173.15"/>
<polygon fill="#63b8ff" stroke="#63b8ff" points="162.24,-176.6 171.11,-170.81 160.56,-169.81 162.24,-176.6"/>
</a>
</g>
</g>
<!-- Node10 -->
<g id="Node000010" class="node">
<title>Node10</title>
<g id="a_Node000010"><a xlink:href="class_c_bite_opt_base.html#abf93d2e584756812ad210f86e4f84a69" target="_top" xlink:title=" ">
<polygon fill="white" stroke="#666666" points="421.5,-268 312.5,-268 312.5,-236 421.5,-236 421.5,-268"/>
<text text-anchor="start" x="320.5" y="-254.5" font-family="Helvetica,sans-Serif" font-size="10.00">CBiteOptBase&lt; int64</text>
<text text-anchor="middle" x="367" y="-242.5" font-family="Helvetica,sans-Serif" font-size="10.00">_t &gt;::select</text>
</a>
</g>
</g>
<!-- Node1&#45;&gt;Node10 -->
<g id="edge10_Node000001_Node000010" class="edge">
<title>Node1&#45;&gt;Node10</title>
<g id="a_edge10_Node000001_Node000010"><a xlink:title=" ">
<path fill="none" stroke="#63b8ff" d="M119.97,-208.48C171.93,-217.67 247.35,-231.01 300.97,-240.5"/>
<polygon fill="#63b8ff" stroke="#63b8ff" points="300.12,-243.9 310.57,-242.19 301.34,-237.01 300.12,-243.9"/>
</a>
</g>
</g>
<!-- Node11 -->
<g id="Node000011" class="node">
<title>Node11</title>
<g id="a_Node000011"><a xlink:href="class_c_bite_opt.html#ab98060db69130d7610818bddda8c7115" target="_top" xlink:title=" ">
<polygon fill="white" stroke="#666666" points="275,-284 157,-284 157,-264 275,-264 275,-284"/>
<text text-anchor="middle" x="216" y="-270.5" font-family="Helvetica,sans-Serif" font-size="10.00">CBiteOpt::selectAltPop</text>
</a>
</g>
</g>
<!-- Node1&#45;&gt;Node11 -->
<g id="edge11_Node000001_Node000011" class="edge">
<title>Node1&#45;&gt;Node11</title>
<g id="a_edge11_Node000001_Node000011"><a xlink:title=" ">
<path fill="none" stroke="#63b8ff" d="M78.24,-208.41C97.01,-219.4 127.86,-236.9 155.5,-250 162.25,-253.2 169.55,-256.37 176.64,-259.31"/>
<polygon fill="#63b8ff" stroke="#63b8ff" points="175.17,-262.49 185.75,-262.99 177.79,-256 175.17,-262.49"/>
</a>
</g>
</g>
<!-- Node12 -->
<g id="Node000012" class="node">
<title>Node12</title>
<g id="a_Node000012"><a xlink:href="class_c_bite_opt.html#a344271b2490d03eaa0c8e1ab062d916d" target="_top" xlink:title=" ">
<polygon fill="white" stroke="#666666" points="276.5,-322 155.5,-322 155.5,-302 276.5,-302 276.5,-322"/>
<text text-anchor="middle" x="216" y="-308.5" font-family="Helvetica,sans-Serif" font-size="10.00">CBiteOpt::selectParPop</text>
</a>
</g>
</g>
<!-- Node1&#45;&gt;Node12 -->
<g id="edge14_Node000001_Node000012" class="edge">
<title>Node1&#45;&gt;Node12</title>
<g id="a_edge14_Node000001_Node000012"><a xlink:title=" ">
<path fill="none" stroke="#63b8ff" d="M68.4,-208.48C83.11,-227.91 117.32,-269.7 155.5,-293 157.93,-294.48 160.49,-295.86 163.12,-297.14"/>
<polygon fill="#63b8ff" stroke="#63b8ff" points="161.58,-300.29 172.15,-301.01 164.33,-293.85 161.58,-300.29"/>
</a>
</g>
</g>
<!-- Node5 -->
<g id="Node000005" class="node">
<title>Node5</title>
<g id="a_Node000005"><a xlink:href="class_c_bite_rnd.html#ae1167f8ecac85f268ced4bc1d2fa953b" target="_top" xlink:title=" ">
<polygon fill="white" stroke="#666666" points="688.25,-208 586.75,-208 586.75,-188 688.25,-188 688.25,-208"/>
<text text-anchor="middle" x="637.5" y="-194.5" font-family="Helvetica,sans-Serif" font-size="10.00">CBiteRnd::advance</text>
</a>
</g>
</g>
<!-- Node4&#45;&gt;Node5 -->
<g id="edge4_Node000004_Node000005" class="edge">
<title>Node4&#45;&gt;Node5</title>
<g id="a_edge4_Node000004_Node000005"><a xlink:title=" ">
<path fill="none" stroke="#63b8ff" d="M549.6,-198C557.88,-198 566.67,-198 575.35,-198"/>
<polygon fill="#63b8ff" stroke="#63b8ff" points="575.13,-201.5 585.13,-198 575.13,-194.5 575.13,-201.5"/>
</a>
</g>
</g>
<!-- Node9 -->
<g id="Node000009" class="node">
<title>Node9</title>
<g id="a_Node000009"><a xlink:href="class_c_bite_rnd.html#aabbf1ffd535ca8fe31fda768f15ccd1b" target="_top" xlink:title=" ">
<polygon fill="white" stroke="#666666" points="550.75,-170 457.5,-170 457.5,-150 550.75,-150 550.75,-170"/>
<text text-anchor="middle" x="504.12" y="-156.5" font-family="Helvetica,sans-Serif" font-size="10.00">CBiteRnd::getSqr</text>
</a>
</g>
</g>
<!-- Node8&#45;&gt;Node9 -->
<g id="edge8_Node000008_Node000009" class="edge">
<title>Node8&#45;&gt;Node9</title>
<g id="a_edge8_Node000008_Node000009"><a xlink:title=" ">
<path fill="none" stroke="#63b8ff" d="M268.48,-160C318.44,-160 394.11,-160 445.92,-160"/>
<polygon fill="#63b8ff" stroke="#63b8ff" points="445.74,-163.5 455.74,-160 445.74,-156.5 445.74,-163.5"/>
</a>
</g>
</g>
<!-- Node9&#45;&gt;Node5 -->
<g id="edge9_Node000009_Node000005" class="edge">
<title>Node9&#45;&gt;Node5</title>
<g id="a_edge9_Node000009_Node000005"><a xlink:title=" ">
<path fill="none" stroke="#63b8ff" d="M541.37,-170.48C556.31,-174.8 573.8,-179.86 589.68,-184.46"/>
<polygon fill="#63b8ff" stroke="#63b8ff" points="588.34,-187.71 598.92,-187.13 590.28,-180.99 588.34,-187.71"/>
</a>
</g>
</g>
<!-- Node11&#45;&gt;Node2 -->
<g id="edge12_Node000011_Node000002" class="edge">
<title>Node11&#45;&gt;Node2</title>
<g id="a_edge12_Node000011_Node000002"><a xlink:title=" ">
<path fill="none" stroke="#63b8ff" d="M272.48,-284.43C282.34,-286.28 292.68,-288.22 302.73,-290.11"/>
<polygon fill="#63b8ff" stroke="#63b8ff" points="301.96,-293.53 312.44,-291.93 303.26,-286.65 301.96,-293.53"/>
</a>
</g>
</g>
<!-- Node11&#45;&gt;Node10 -->
<g id="edge13_Node000011_Node000010" class="edge">
<title>Node11&#45;&gt;Node10</title>
<g id="a_edge13_Node000011_Node000010"><a xlink:title=" ">
<path fill="none" stroke="#63b8ff" d="M275.46,-265.37C283.76,-264.14 292.33,-262.88 300.75,-261.63"/>
<polygon fill="#63b8ff" stroke="#63b8ff" points="301.2,-265.11 310.58,-260.18 300.18,-258.18 301.2,-265.11"/>
</a>
</g>
</g>
<!-- Node12&#45;&gt;Node2 -->
<g id="edge15_Node000012_Node000002" class="edge">
<title>Node12&#45;&gt;Node2</title>
<g id="a_edge15_Node000012_Node000002"><a xlink:title=" ">
<path fill="none" stroke="#63b8ff" d="M276.75,-307.99C285.21,-307.42 293.93,-306.84 302.46,-306.26"/>
<polygon fill="#63b8ff" stroke="#63b8ff" points="302.67,-309.76 312.42,-305.6 302.2,-302.77 302.67,-309.76"/>
</a>
</g>
</g>
<!-- Node12&#45;&gt;Node10 -->
<g id="edge19_Node000012_Node000010" class="edge">
<title>Node12&#45;&gt;Node10</title>
<g id="a_edge19_Node000012_Node000010"><a xlink:title=" ">
<path fill="none" stroke="#63b8ff" d="M252.17,-301.54C260.23,-298.93 268.71,-296.01 276.5,-293 281.25,-291.16 300.99,-282.14 320.72,-273.03"/>
<polygon fill="#63b8ff" stroke="#63b8ff" points="321.98,-276.31 329.59,-268.93 319.04,-269.95 321.98,-276.31"/>
</a>
</g>
</g>
<!-- Node13 -->
<g id="Node000013" class="node">
<title>Node13</title>
<g id="a_Node000013"><a xlink:href="class_c_bite_rnd.html#a4e9ad0a5c5e09149a60f849736d8d7ce" target="_top" xlink:title=" ">
<polygon fill="white" stroke="#666666" points="411.75,-356 322.25,-356 322.25,-336 411.75,-336 411.75,-356"/>
<text text-anchor="middle" x="367" y="-342.5" font-family="Helvetica,sans-Serif" font-size="10.00">CBiteRnd::getInt</text>
</a>
</g>
</g>
<!-- Node12&#45;&gt;Node13 -->
<g id="edge16_Node000012_Node000013" class="edge">
<title>Node12&#45;&gt;Node13</title>
<g id="a_edge16_Node000012_Node000013"><a xlink:title=" ">
<path fill="none" stroke="#63b8ff" d="M262.92,-322.48C277.99,-325.92 294.9,-329.78 310.59,-333.36"/>
<polygon fill="#63b8ff" stroke="#63b8ff" points="309.76,-336.76 320.29,-335.57 311.32,-329.93 309.76,-336.76"/>
</a>
</g>
</g>
<!-- Node14 -->
<g id="Node000014" class="node">
<title>Node14</title>
<g id="a_Node000014"><a xlink:href="class_c_bite_rnd.html#afdb77334884f1a612780def0dec0a326" target="_top" xlink:title=" ">
<polygon fill="white" stroke="#666666" points="543.25,-301 465,-301 465,-281 543.25,-281 543.25,-301"/>
<text text-anchor="middle" x="504.12" y="-287.5" font-family="Helvetica,sans-Serif" font-size="10.00">CBiteRnd::get</text>
</a>
</g>
</g>
<!-- Node13&#45;&gt;Node14 -->
<g id="edge17_Node000013_Node000014" class="edge">
<title>Node13&#45;&gt;Node14</title>
<g id="a_edge17_Node000013_Node000014"><a xlink:title=" ">
<path fill="none" stroke="#63b8ff" d="M398.7,-335.54C406.2,-332.86 414.17,-329.91 421.5,-327 437.83,-320.51 455.72,-312.7 470.58,-306.02"/>
<polygon fill="#63b8ff" stroke="#63b8ff" points="471.75,-309.33 479.42,-302.01 468.86,-302.95 471.75,-309.33"/>
</a>
</g>
</g>
<!-- Node14&#45;&gt;Node5 -->
<g id="edge18_Node000014_Node000005" class="edge">
<title>Node14&#45;&gt;Node5</title>
<g id="a_edge18_Node000014_Node000005"><a xlink:title=" ">
<path fill="none" stroke="#63b8ff" d="M519.94,-280.51C542.53,-264.52 585.81,-233.88 612.8,-214.78"/>
<polygon fill="#63b8ff" stroke="#63b8ff" points="614.56,-217.82 620.7,-209.18 610.52,-212.1 614.56,-217.82"/>
</a>
</g>
</g>
</g>
</svg>

<g id="navigator" transform="translate(0 0)" fill="#404254">
  <rect fill="#f2f5e9" fill-opacity="0.5" stroke="#606060" stroke-width=".5" x="0" y="0" width="60" height="60"/>
  <use id="zoomplus" xlink:href="#zoomPlus" x="17" y="9" onmousedown="handleZoom(evt,'in')"/>
  <use id="zoomminus" xlink:href="#zoomMin" x="42" y="9" onmousedown="handleZoom(evt,'out')"/>
  <use id="reset" xlink:href="#resetDef" x="30" y="36" onmousedown="handleReset()"/>
   <use id="arrowup" xlink:href="#arrowUp" x="0" y="0" onmousedown="handlePan(0,-1)"/>
  <use id="arrowright" xlink:href="#arrowRight" x="0" y="0" onmousedown="handlePan(1,0)"/>
  <use id="arrowdown" xlink:href="#arrowDown" x="0" y="0" onmousedown="handlePan(0,1)"/>
  <use id="arrowleft" xlink:href="#arrowLeft" x="0" y="0" onmousedown="handlePan(-1,0)"/>
</g>
<svg viewBox="0 0 15 15" width="100%" height="30px" preserveAspectRatio="xMaxYMin meet">
 <g id="arrow_out" transform="scale(0.3 0.3)">
  <a xlink:href="class_c_bite_opt_ae48399aea9fc3c2e01b370b846d88c82_cgraph_org.svg" target="_base">
   <rect id="button" ry="5" rx="5" y="6" x="6" height="38" width="38"
        fill="#f2f5e9" fill-opacity="0.5" stroke="#606060" stroke-width="1.0"/>
   <path id="arrow"
     d="M 11.500037,31.436501 C 11.940474,20.09759 22.043105,11.32322 32.158766,21.979434 L 37.068811,17.246167 C 37.068811,17.246167 37.088388,32 37.088388,32 L 22.160133,31.978069 C 22.160133,31.978069 26.997745,27.140456 26.997745,27.140456 C 18.528582,18.264221 13.291696,25.230495 11.500037,31.436501 z"
     style="fill:#404040;"/>
  </a>
 </g>
</svg>

<style type='text/css'>
<![CDATA[
[data-mouse-over-selected='false'] { opacity: 0.7; }
[data-mouse-over-selected='true']  { opacity: 1.0; }
]]>
</style>
<script type="application/ecmascript"><![CDATA[
document.addEventListener('DOMContentLoaded', (event) => {
  highlightEdges();
  highlightAdjacentNodes();
});
]]></script>
</svg>
