<?xml version="1.0" encoding="UTF-8" standalone="no"?>
<!DOCTYPE svg PUBLIC "-//W3C//DTD SVG 1.1//EN"
 "http://www.w3.org/Graphics/SVG/1.1/DTD/svg11.dtd">
<!-- Generated by graphviz version 12.2.1 (20241206.2353)
 -->
<!-- Title: quantumcomm.constellation_udp.build_graph Pages: 1 -->
<svg width="492pt" height="128pt"
 viewBox="0.00 0.00 491.75 128.00" xmlns="http://www.w3.org/2000/svg" xmlns:xlink="http://www.w3.org/1999/xlink">
<g id="graph0" class="graph" transform="scale(1 1) rotate(0) translate(4 124)">
<title>quantumcomm.constellation_udp.build_graph</title>
<!-- Node1 -->
<g id="Node000001" class="node">
<title>Node1</title>
<g id="a_Node000001"><a xlink:title="Builds a networkx graph from the satellite positions.">
<polygon fill="#999999" stroke="#666666" points="138.25,-76 0,-76 0,-44 138.25,-44 138.25,-76"/>
<text text-anchor="start" x="8" y="-62.5" font-family="Helvetica,sans-Serif" font-size="10.00">quantumcomm.constellation</text>
<text text-anchor="middle" x="69.12" y="-50.5" font-family="Helvetica,sans-Serif" font-size="10.00">_udp.build_graph</text>
</a>
</g>
</g>
<!-- Node2 -->
<g id="Node000002" class="node">
<title>Node2</title>
<g id="a_Node000002"><a xlink:href="namespacequantumcomm.html#a0b9a5d09cf8b8062250d0631d392b9e4" target="_top" xlink:title=" ">
<polygon fill="white" stroke="#666666" points="316.25,-70 174.25,-70 174.25,-50 316.25,-50 316.25,-70"/>
<text text-anchor="middle" x="245.25" y="-56.5" font-family="Helvetica,sans-Serif" font-size="10.00">quantumcomm.get_adjmatrix</text>
</a>
</g>
</g>
<!-- Node1&#45;&gt;Node2 -->
<g id="edge1_Node000001_Node000002" class="edge">
<title>Node1&#45;&gt;Node2</title>
<g id="a_edge1_Node000001_Node000002"><a xlink:title=" ">
<path fill="none" stroke="#63b8ff" d="M138.44,-60C146.34,-60 154.46,-60 162.52,-60"/>
<polygon fill="#63b8ff" stroke="#63b8ff" points="162.32,-63.5 172.32,-60 162.32,-56.5 162.32,-63.5"/>
</a>
</g>
</g>
<!-- Node3 -->
<g id="Node000003" class="node">
<title>Node3</title>
<g id="a_Node000003"><a xlink:href="namespacequantumcomm.html#adeb3d6f34e9ce9bde81d145e0cb4b1c6" target="_top" xlink:title="Given two position vectors returns the distance of the line of sight to the origin.">
<polygon fill="white" stroke="#666666" points="474,-120 362,-120 362,-88 474,-88 474,-120"/>
<text text-anchor="start" x="370" y="-106.5" font-family="Helvetica,sans-Serif" font-size="10.00">quantumcomm.line_of</text>
<text text-anchor="middle" x="418" y="-94.5" font-family="Helvetica,sans-Serif" font-size="10.00">_sight</text>
</a>
</g>
</g>
<!-- Node2&#45;&gt;Node3 -->
<g id="edge2_Node000002_Node000003" class="edge">
<title>Node2&#45;&gt;Node3</title>
<g id="a_edge2_Node000002_Node000003"><a xlink:title=" ">
<path fill="none" stroke="#63b8ff" d="M286.72,-70.43C305.78,-75.34 329.02,-81.33 350.56,-86.88"/>
<polygon fill="#63b8ff" stroke="#63b8ff" points="349.62,-90.25 360.18,-89.36 351.37,-83.47 349.62,-90.25"/>
</a>
</g>
</g>
<!-- Node4 -->
<g id="Node000004" class="node">
<title>Node4</title>
<g id="a_Node000004"><a xlink:href="namespacequantumcomm.html#af0f5b86687bc9356f53b8e0fcd826c2d" target="_top" xlink:title="Computes the edge weight according to QKD probabilities.">
<polygon fill="white" stroke="#666666" points="483.75,-70 352.25,-70 352.25,-50 483.75,-50 483.75,-70"/>
<text text-anchor="middle" x="418" y="-56.5" font-family="Helvetica,sans-Serif" font-size="10.00">quantumcomm.qkd_metric</text>
</a>
</g>
</g>
<!-- Node2&#45;&gt;Node4 -->
<g id="edge3_Node000002_Node000004" class="edge">
<title>Node2&#45;&gt;Node4</title>
<g id="a_edge3_Node000002_Node000004"><a xlink:title=" ">
<path fill="none" stroke="#63b8ff" d="M316.69,-60C324.53,-60 332.54,-60 340.45,-60"/>
<polygon fill="#63b8ff" stroke="#63b8ff" points="340.42,-63.5 350.42,-60 340.42,-56.5 340.42,-63.5"/>
</a>
</g>
</g>
<!-- Node5 -->
<g id="Node000005" class="node">
<title>Node5</title>
<g id="a_Node000005"><a xlink:href="namespacequantumcomm.html#a32214ea35bfdc5ac32988510e98f5643" target="_top" xlink:title="Computes the cosine of the zenith angle (theta_z) of the LOS between source and destination node.">
<polygon fill="white" stroke="#666666" points="472.88,-32 363.12,-32 363.12,0 472.88,0 472.88,-32"/>
<text text-anchor="start" x="371.12" y="-18.5" font-family="Helvetica,sans-Serif" font-size="10.00">quantumcomm.zenith</text>
<text text-anchor="middle" x="418" y="-6.5" font-family="Helvetica,sans-Serif" font-size="10.00">_angle</text>
</a>
</g>
</g>
<!-- Node2&#45;&gt;Node5 -->
<g id="edge4_Node000002_Node000005" class="edge">
<title>Node2&#45;&gt;Node5</title>
<g id="a_edge4_Node000002_Node000005"><a xlink:title=" ">
<path fill="none" stroke="#63b8ff" d="M286.72,-49.57C306.2,-44.55 330.06,-38.4 352,-32.75"/>
<polygon fill="#63b8ff" stroke="#63b8ff" points="352.66,-36.2 361.47,-30.31 350.91,-29.42 352.66,-36.2"/>
</a>
</g>
</g>
</g>
</svg>
