<?xml version="1.0" encoding="UTF-8" standalone="no"?>
<!DOCTYPE svg PUBLIC "-//W3C//DTD SVG 1.1//EN"
 "http://www.w3.org/Graphics/SVG/1.1/DTD/svg11.dtd">
<!-- Generated by graphviz version 12.2.1 (20241206.2353)
 -->
<!-- Title: evaluator::evaluate Pages: 1 -->
<svg width="278pt" height="114pt"
 viewBox="0.00 0.00 277.75 114.00" xmlns="http://www.w3.org/2000/svg" xmlns:xlink="http://www.w3.org/1999/xlink">
<g id="graph0" class="graph" transform="scale(1 1) rotate(0) translate(4 110)">
<title>evaluator::evaluate</title>
<!-- Node1 -->
<g id="Node000001" class="node">
<title>Node1</title>
<g id="a_Node000001"><a xlink:title=" ">
<polygon fill="#999999" stroke="#666666" points="269.75,-63 171.25,-63 171.25,-43 269.75,-43 269.75,-63"/>
<text text-anchor="middle" x="220.5" y="-49.5" font-family="Helvetica,sans-Serif" font-size="10.00">evaluator::evaluate</text>
</a>
</g>
</g>
<!-- Node2 -->
<g id="Node000002" class="node">
<title>Node2</title>
<g id="a_Node000002"><a xlink:href="classacmaes_1_1_acmaes_optimizer.html#ab3af1e3acb2561d4b0be23b402b232a9" target="_top" xlink:title=" ">
<polygon fill="white" stroke="#666666" points="134.88,-106 0.38,-106 0.38,-62 134.88,-62 134.88,-106"/>
<text text-anchor="start" x="8.38" y="-92.5" font-family="Helvetica,sans-Serif" font-size="10.00">acmaes::AcmaesOptimizer</text>
<text text-anchor="start" x="8.38" y="-80.5" font-family="Helvetica,sans-Serif" font-size="10.00">::do_optimize_delayed</text>
<text text-anchor="middle" x="67.62" y="-68.5" font-family="Helvetica,sans-Serif" font-size="10.00">_update</text>
</a>
</g>
</g>
<!-- Node1&#45;&gt;Node2 -->
<g id="edge1_Node000001_Node000002" class="edge">
<title>Node1&#45;&gt;Node2</title>
<g id="a_edge1_Node000001_Node000002"><a xlink:title=" ">
<path fill="none" stroke="#63b8ff" d="M159.76,-65.28C151.71,-66.93 143.41,-68.63 135.25,-70.31"/>
<polygon fill="#63b8ff" stroke="#63b8ff" points="160.36,-68.72 169.45,-63.28 158.95,-61.87 160.36,-68.72"/>
</a>
</g>
</g>
<!-- Node3 -->
<g id="Node000003" class="node">
<title>Node3</title>
<g id="a_Node000003"><a xlink:href="classdifferential__evolution_1_1_de_optimizer.html#a0af3433f0f60f99f8a9fbf9f10f36360" target="_top" xlink:title=" ">
<polygon fill="white" stroke="#666666" points="135.25,-44 0,-44 0,0 135.25,0 135.25,-44"/>
<text text-anchor="start" x="8" y="-30.5" font-family="Helvetica,sans-Serif" font-size="10.00">differential_evolution</text>
<text text-anchor="start" x="8" y="-18.5" font-family="Helvetica,sans-Serif" font-size="10.00">::DeOptimizer::do_optimize</text>
<text text-anchor="middle" x="67.62" y="-6.5" font-family="Helvetica,sans-Serif" font-size="10.00">_delayed_update</text>
</a>
</g>
</g>
<!-- Node1&#45;&gt;Node3 -->
<g id="edge2_Node000001_Node000003" class="edge">
<title>Node1&#45;&gt;Node3</title>
<g id="a_edge2_Node000001_Node000003"><a xlink:title=" ">
<path fill="none" stroke="#63b8ff" d="M159.84,-40.74C151.86,-39.1 143.62,-37.41 135.52,-35.74"/>
<polygon fill="#63b8ff" stroke="#63b8ff" points="158.95,-44.13 169.45,-42.72 160.36,-37.28 158.95,-44.13"/>
</a>
</g>
</g>
</g>
</svg>
