<?xml version="1.0" encoding="UTF-8" standalone="no"?>
<!DOCTYPE svg PUBLIC "-//W3C//DTD SVG 1.1//EN"
 "http://www.w3.org/Graphics/SVG/1.1/DTD/svg11.dtd">
<!-- Generated by graphviz version 12.2.1 (20241206.2353)
 -->
<!-- Title: examples.kepler.lambert.lambert_problem_multirev_ga.get_x Pages: 1 -->
<svg width="517pt" height="84pt"
 viewBox="0.00 0.00 517.25 84.00" xmlns="http://www.w3.org/2000/svg" xmlns:xlink="http://www.w3.org/1999/xlink">
<g id="graph0" class="graph" transform="scale(1 1) rotate(0) translate(4 80)">
<title>examples.kepler.lambert.lambert_problem_multirev_ga.get_x</title>
<!-- Node1 -->
<g id="Node000001" class="node">
<title>Node1</title>
<g id="a_Node000001"><a xlink:title=" ">
<polygon fill="#999999" stroke="#666666" points="509.25,-54 351.5,-54 351.5,-22 509.25,-22 509.25,-54"/>
<text text-anchor="start" x="359.5" y="-40.5" font-family="Helvetica,sans-Serif" font-size="10.00">examples.kepler.lambert.lambert</text>
<text text-anchor="middle" x="430.38" y="-28.5" font-family="Helvetica,sans-Serif" font-size="10.00">_problem_multirev_ga.get_x</text>
</a>
</g>
</g>
<!-- Node1&#45;&gt;Node1 -->
<g id="edge3_Node000001_Node000001" class="edge">
<title>Node1&#45;&gt;Node1</title>
<g id="a_edge3_Node000001_Node000001"><a xlink:title=" ">
<path fill="none" stroke="#63b8ff" d="M463.23,-65.71C457.75,-69.48 446.8,-72 430.38,-72 400.34,-72 388.61,-63.58 395.18,-54.44"/>
<polygon fill="#63b8ff" stroke="#63b8ff" points="466.65,-66.43 465.26,-55.92 459.8,-65 466.65,-66.43"/>
</a>
</g>
</g>
<!-- Node2 -->
<g id="Node000002" class="node">
<title>Node2</title>
<g id="a_Node000002"><a xlink:href="classfcmaes_1_1mapelites_1_1_archive.html#a0bcd8007cc5cf709da8ccc42aa2c46eb" target="_top" xlink:title="Prints a sorted dump of data points up to the specified limit.">
<polygon fill="white" stroke="#666666" points="311.38,-70 155.12,-70 155.12,-50 311.38,-50 311.38,-70"/>
<text text-anchor="middle" x="233.25" y="-56.5" font-family="Helvetica,sans-Serif" font-size="10.00">fcmaes.mapelites.Archive.dump</text>
</a>
</g>
</g>
<!-- Node1&#45;&gt;Node2 -->
<g id="edge1_Node000001_Node000002" class="edge">
<title>Node1&#45;&gt;Node2</title>
<g id="a_edge1_Node000001_Node000002"><a xlink:title=" ">
<path fill="none" stroke="#63b8ff" d="M339.82,-48.1C330.49,-49.15 321.06,-50.21 311.87,-51.25"/>
<polygon fill="#63b8ff" stroke="#63b8ff" points="340.09,-51.59 349.63,-46.99 339.3,-44.63 340.09,-51.59"/>
</a>
</g>
</g>
<!-- Node4 -->
<g id="Node000004" class="node">
<title>Node4</title>
<g id="a_Node000004"><a xlink:href="classfcmaes_1_1mapelites_1_1_archive.html#a691e8315e1b9c8d92b67520216c72cdf" target="_top" xlink:title="Selects and retrieves random elements based on the given range and size.">
<polygon fill="white" stroke="#666666" points="315.5,-32 151,-32 151,0 315.5,0 315.5,-32"/>
<text text-anchor="start" x="159" y="-18.5" font-family="Helvetica,sans-Serif" font-size="10.00">fcmaes.mapelites.Archive.random</text>
<text text-anchor="middle" x="233.25" y="-6.5" font-family="Helvetica,sans-Serif" font-size="10.00">_xs_one</text>
</a>
</g>
</g>
<!-- Node1&#45;&gt;Node4 -->
<g id="edge4_Node000001_Node000004" class="edge">
<title>Node1&#45;&gt;Node4</title>
<g id="a_edge4_Node000001_Node000004"><a xlink:title=" ">
<path fill="none" stroke="#63b8ff" d="M339.83,-27.9C331.79,-27 323.67,-26.08 315.7,-25.18"/>
<polygon fill="#63b8ff" stroke="#63b8ff" points="339.3,-31.37 349.63,-29.01 340.09,-24.41 339.3,-31.37"/>
</a>
</g>
</g>
<!-- Node3 -->
<g id="Node000003" class="node">
<title>Node3</title>
<g id="a_Node000003"><a xlink:href="classfcmaes_1_1retry_1_1_store.html#aed35531d1489fd7b28d69dc3c9794508" target="_top" xlink:title="Adds a result to the data structure, updating statistical values and recording the given data point.">
<polygon fill="white" stroke="#666666" points="115,-76 0,-76 0,-44 115,-44 115,-76"/>
<text text-anchor="start" x="8" y="-62.5" font-family="Helvetica,sans-Serif" font-size="10.00">fcmaes.retry.Store.add</text>
<text text-anchor="middle" x="57.5" y="-50.5" font-family="Helvetica,sans-Serif" font-size="10.00">_result</text>
</a>
</g>
</g>
<!-- Node2&#45;&gt;Node3 -->
<g id="edge2_Node000002_Node000003" class="edge">
<title>Node2&#45;&gt;Node3</title>
<g id="a_edge2_Node000002_Node000003"><a xlink:title=" ">
<path fill="none" stroke="#63b8ff" d="M143.51,-60C133.9,-60 124.32,-60 115.24,-60"/>
<polygon fill="#63b8ff" stroke="#63b8ff" points="143.26,-63.5 153.26,-60 143.26,-56.5 143.26,-63.5"/>
</a>
</g>
</g>
</g>
</svg>
