<?xml version="1.0" encoding="UTF-8" standalone="no"?>
<!DOCTYPE svg PUBLIC "-//W3C//DTD SVG 1.1//EN"
 "http://www.w3.org/Graphics/SVG/1.1/DTD/svg11.dtd">
<!-- Generated by graphviz version 12.2.1 (20241206.2353)
 -->
<!-- Title: fbcover.problem_fb.fitness_so Pages: 1 -->
<svg width="457pt" height="142pt"
 viewBox="0.00 0.00 457.25 142.00" xmlns="http://www.w3.org/2000/svg" xmlns:xlink="http://www.w3.org/1999/xlink">

<svg id="main" version="1.1" xmlns="http://www.w3.org/2000/svg" xmlns:xlink="http://www.w3.org/1999/xlink" xml:space="preserve">

<style type="text/css"><![CDATA[
.node, .edge {opacity: 0.7;}
.node.selected, .edge.selected {opacity: 1;}
.edge:hover path { stroke: red; }
.edge:hover polygon { stroke: red; fill: red; }
]]></style>
<script type="application/ecmascript" xlink:href="svg.min.js"/>
<svg id="graph" class="graph">
<g id="graph0" class="graph" transform="scale(1 1) rotate(0) translate(4 138)">
<title>fbcover.problem_fb.fitness_so</title>
<!-- Node1 -->
<g id="Node000001" class="node">
<title>Node1</title>
<g id="a_Node000001"><a xlink:title=" ">
<polygon fill="#999999" stroke="#666666" points="147.25,-58 0,-58 0,-38 147.25,-38 147.25,-58"/>
<text text-anchor="middle" x="73.62" y="-44.5" font-family="Helvetica,sans-Serif" font-size="10.00">fbcover.problem_fb.fitness_so</text>
</a>
</g>
</g>
<!-- Node2 -->
<g id="Node000002" class="node">
<title>Node2</title>
<g id="a_Node000002"><a xlink:href="classfbcover_1_1problem__fb.html#afdb76f1a3d3d8545c2190561bd1905e4" target="_top" xlink:title=" ">
<polygon fill="white" stroke="#666666" points="304.25,-96 183.25,-96 183.25,-76 304.25,-76 304.25,-96"/>
<text text-anchor="middle" x="243.75" y="-82.5" font-family="Helvetica,sans-Serif" font-size="10.00">fbcover.problem_fb.cost</text>
</a>
</g>
</g>
<!-- Node1&#45;&gt;Node2 -->
<g id="edge1_Node000001_Node000002" class="edge">
<title>Node1&#45;&gt;Node2</title>
<g id="a_edge1_Node000001_Node000002"><a xlink:title=" ">
<path fill="none" stroke="#63b8ff" d="M121.01,-58.48C140.95,-62.99 164.45,-68.3 185.46,-73.05"/>
<polygon fill="#63b8ff" stroke="#63b8ff" points="184.51,-76.43 195.04,-75.22 186.06,-69.6 184.51,-76.43"/>
</a>
</g>
</g>
<!-- Node4 -->
<g id="Node000004" class="node">
<title>Node4</title>
<g id="a_Node000004"><a xlink:href="namespacefbcover.html#aef0e4896abc75b367cfae486326fd280" target="_top" xlink:title=" ">
<polygon fill="white" stroke="#666666" points="433.5,-58 356,-58 356,-38 433.5,-38 433.5,-58"/>
<text text-anchor="middle" x="394.75" y="-44.5" font-family="Helvetica,sans-Serif" font-size="10.00">fbcover.nodes</text>
</a>
</g>
</g>
<!-- Node1&#45;&gt;Node4 -->
<g id="edge5_Node000001_Node000004" class="edge">
<title>Node1&#45;&gt;Node4</title>
<g id="a_edge5_Node000001_Node000004"><a xlink:title=" ">
<path fill="none" stroke="#63b8ff" d="M147.44,-48C207.64,-48 291.51,-48 344.2,-48"/>
<polygon fill="#63b8ff" stroke="#63b8ff" points="344.08,-51.5 354.08,-48 344.08,-44.5 344.08,-51.5"/>
</a>
</g>
</g>
<!-- Node6 -->
<g id="Node000006" class="node">
<title>Node6</title>
<g id="a_Node000006"><a xlink:href="namespacefbcover.html#a6e0f66764bcc9b581187a2526b81dc3d" target="_top" xlink:title=" ">
<polygon fill="white" stroke="#666666" points="289.62,-20 197.88,-20 197.88,0 289.62,0 289.62,-20"/>
<text text-anchor="middle" x="243.75" y="-6.5" font-family="Helvetica,sans-Serif" font-size="10.00">fbcover.num_true</text>
</a>
</g>
</g>
<!-- Node1&#45;&gt;Node6 -->
<g id="edge6_Node000001_Node000006" class="edge">
<title>Node1&#45;&gt;Node6</title>
<g id="a_edge6_Node000001_Node000006"><a xlink:title=" ">
<path fill="none" stroke="#63b8ff" d="M121.01,-37.52C141.2,-32.95 165.04,-27.57 186.24,-22.77"/>
<polygon fill="#63b8ff" stroke="#63b8ff" points="186.93,-26.21 195.91,-20.59 185.39,-19.38 186.93,-26.21"/>
</a>
</g>
</g>
<!-- Node3 -->
<g id="Node000003" class="node">
<title>Node3</title>
<g id="a_Node000003"><a xlink:href="namespacefbcover.html#a1d37d0da59730aab39af8760119dc8c8" target="_top" xlink:title=" ">
<polygon fill="white" stroke="#666666" points="444.38,-134 345.12,-134 345.12,-114 444.38,-114 444.38,-134"/>
<text text-anchor="middle" x="394.75" y="-120.5" font-family="Helvetica,sans-Serif" font-size="10.00">fbcover.fb_covered</text>
</a>
</g>
</g>
<!-- Node2&#45;&gt;Node3 -->
<g id="edge2_Node000002_Node000003" class="edge">
<title>Node2&#45;&gt;Node3</title>
<g id="a_edge2_Node000002_Node000003"><a xlink:title=" ">
<path fill="none" stroke="#63b8ff" d="M285.86,-96.48C303.12,-100.89 323.4,-106.06 341.69,-110.72"/>
<polygon fill="#63b8ff" stroke="#63b8ff" points="340.75,-114.1 351.31,-113.18 342.48,-107.31 340.75,-114.1"/>
</a>
</g>
</g>
<!-- Node2&#45;&gt;Node4 -->
<g id="edge3_Node000002_Node000004" class="edge">
<title>Node2&#45;&gt;Node4</title>
<g id="a_edge3_Node000002_Node000004"><a xlink:title=" ">
<path fill="none" stroke="#63b8ff" d="M285.86,-75.52C303.99,-70.89 325.45,-65.42 344.44,-60.58"/>
<polygon fill="#63b8ff" stroke="#63b8ff" points="345.3,-63.97 354.12,-58.11 343.57,-57.19 345.3,-63.97"/>
</a>
</g>
</g>
<!-- Node5 -->
<g id="Node000005" class="node">
<title>Node5</title>
<g id="a_Node000005"><a xlink:href="namespacefbcover.html#a8588994a104cf05c867efc5ad768ada4" target="_top" xlink:title=" ">
<polygon fill="white" stroke="#666666" points="449.25,-96 340.25,-96 340.25,-76 449.25,-76 449.25,-96"/>
<text text-anchor="middle" x="394.75" y="-82.5" font-family="Helvetica,sans-Serif" font-size="10.00">fbcover.sum_weights</text>
</a>
</g>
</g>
<!-- Node2&#45;&gt;Node5 -->
<g id="edge4_Node000002_Node000005" class="edge">
<title>Node2&#45;&gt;Node5</title>
<g id="a_edge4_Node000002_Node000005"><a xlink:title=" ">
<path fill="none" stroke="#63b8ff" d="M304.5,-86C312.33,-86 320.39,-86 328.31,-86"/>
<polygon fill="#63b8ff" stroke="#63b8ff" points="328.26,-89.5 338.26,-86 328.26,-82.5 328.26,-89.5"/>
</a>
</g>
</g>
</g>
</svg>
</svg>

<style type='text/css'>
<![CDATA[
[data-mouse-over-selected='false'] { opacity: 0.7; }
[data-mouse-over-selected='true']  { opacity: 1.0; }
]]>
</style>
<script type="application/ecmascript"><![CDATA[
document.addEventListener('DOMContentLoaded', (event) => {
  highlightEdges();
  highlightAdjacentNodes();
});
]]></script>
</svg>
