<?xml version="1.0" encoding="UTF-8" standalone="no"?>
<!DOCTYPE svg PUBLIC "-//W3C//DTD SVG 1.1//EN"
 "http://www.w3.org/Graphics/SVG/1.1/DTD/svg11.dtd">
<!-- Generated by graphviz version 12.2.1 (20241206.2353)
 -->
<!-- Title: examples.solo_mgar_udp.solo_mgar_udp.plot Pages: 1 -->
<svg width="442pt" height="90pt"
 viewBox="0.00 0.00 441.50 90.00" xmlns="http://www.w3.org/2000/svg" xmlns:xlink="http://www.w3.org/1999/xlink">
<g id="graph0" class="graph" transform="scale(1 1) rotate(0) translate(4 86)">
<title>examples.solo_mgar_udp.solo_mgar_udp.plot</title>
<!-- Node1 -->
<g id="Node000001" class="node">
<title>Node1</title>
<g id="a_Node000001"><a xlink:title=" ">
<polygon fill="#999999" stroke="#666666" points="124.75,-57 0,-57 0,-25 124.75,-25 124.75,-57"/>
<text text-anchor="start" x="8" y="-43.5" font-family="Helvetica,sans-Serif" font-size="10.00">examples.solo_mgar</text>
<text text-anchor="middle" x="62.38" y="-31.5" font-family="Helvetica,sans-Serif" font-size="10.00">_udp.solo_mgar_udp.plot</text>
</a>
</g>
</g>
<!-- Node2 -->
<g id="Node000002" class="node">
<title>Node2</title>
<g id="a_Node000002"><a xlink:href="classexamples_1_1solo__mgar__udp_1_1solo__mgar__udp.html#a92828aaaf12b6addeb33a6249b7539b8" target="_top" xlink:title=" ">
<polygon fill="white" stroke="#666666" points="269.75,-63 160.75,-63 160.75,-19 269.75,-19 269.75,-63"/>
<text text-anchor="start" x="168.75" y="-49.5" font-family="Helvetica,sans-Serif" font-size="10.00">examples.solo_mgar</text>
<text text-anchor="start" x="168.75" y="-37.5" font-family="Helvetica,sans-Serif" font-size="10.00">_udp.solo_mgar_udp.</text>
<text text-anchor="middle" x="215.25" y="-25.5" font-family="Helvetica,sans-Serif" font-size="10.00">_compute_dvs</text>
</a>
</g>
</g>
<!-- Node1&#45;&gt;Node2 -->
<g id="edge1_Node000001_Node000002" class="edge">
<title>Node1&#45;&gt;Node2</title>
<g id="a_edge1_Node000001_Node000002"><a xlink:title=" ">
<path fill="none" stroke="#63b8ff" d="M125.18,-41C133.05,-41 141.13,-41 149.05,-41"/>
<polygon fill="#63b8ff" stroke="#63b8ff" points="149,-44.5 159,-41 149,-37.5 149,-44.5"/>
</a>
</g>
</g>
<!-- Node3 -->
<g id="Node000003" class="node">
<title>Node3</title>
<g id="a_Node000003"><a xlink:href="namespaceexamples_1_1solo__mgar__udp.html#a6d928d9b61388ba3bc08749cb303c94e" target="_top" xlink:title=" ">
<polygon fill="white" stroke="#666666" points="422.62,-82 316.62,-82 316.62,-50 422.62,-50 422.62,-82"/>
<text text-anchor="start" x="324.62" y="-68.5" font-family="Helvetica,sans-Serif" font-size="10.00">examples.solo_mgar</text>
<text text-anchor="middle" x="369.62" y="-56.5" font-family="Helvetica,sans-Serif" font-size="10.00">_udp._dv_mga</text>
</a>
</g>
</g>
<!-- Node2&#45;&gt;Node3 -->
<g id="edge2_Node000002_Node000003" class="edge">
<title>Node2&#45;&gt;Node3</title>
<g id="a_edge2_Node000002_Node000003"><a xlink:title=" ">
<path fill="none" stroke="#63b8ff" d="M269.97,-49.81C281.33,-51.68 293.43,-53.66 305.12,-55.58"/>
<polygon fill="#63b8ff" stroke="#63b8ff" points="304.23,-58.98 314.66,-57.15 305.36,-52.07 304.23,-58.98"/>
</a>
</g>
</g>
<!-- Node4 -->
<g id="Node000004" class="node">
<title>Node4</title>
<g id="a_Node000004"><a xlink:href="namespaceexamples_1_1solo__mgar__udp.html#a2f01caf14c62d02e55dfc2245172590b" target="_top" xlink:title=" ">
<polygon fill="white" stroke="#666666" points="433.5,-32 305.75,-32 305.75,0 433.5,0 433.5,-32"/>
<text text-anchor="start" x="313.75" y="-18.5" font-family="Helvetica,sans-Serif" font-size="10.00">examples.solo_mgar</text>
<text text-anchor="middle" x="369.62" y="-6.5" font-family="Helvetica,sans-Serif" font-size="10.00">_udp.compute_resonance</text>
</a>
</g>
</g>
<!-- Node2&#45;&gt;Node4 -->
<g id="edge3_Node000002_Node000004" class="edge">
<title>Node2&#45;&gt;Node4</title>
<g id="a_edge3_Node000002_Node000004"><a xlink:title=" ">
<path fill="none" stroke="#63b8ff" d="M269.97,-32.19C277.87,-30.89 286.11,-29.54 294.33,-28.19"/>
<polygon fill="#63b8ff" stroke="#63b8ff" points="294.69,-31.68 303.99,-26.6 293.55,-24.77 294.69,-31.68"/>
</a>
</g>
</g>
</g>
</svg>
