<?xml version="1.0" encoding="UTF-8" standalone="no"?>
<!DOCTYPE svg PUBLIC "-//W3C//DTD SVG 1.1//EN"
 "http://www.w3.org/Graphics/SVG/1.1/DTD/svg11.dtd">
<!-- Generated by graphviz version 12.2.1 (20241206.2353)
 -->
<!-- Title: CBiteOpt::generateSol2b Pages: 1 -->
<!--zoomable 252 -->

<svg id="main" version="1.1" xmlns="http://www.w3.org/2000/svg" xmlns:xlink="http://www.w3.org/1999/xlink" xml:space="preserve" onload="init(evt)">

<style type="text/css"><![CDATA[
.node, .edge {opacity: 0.7;}
.node.selected, .edge.selected {opacity: 1;}
.edge:hover path { stroke: red; }
.edge:hover polygon { stroke: red; fill: red; }
]]></style>

<defs>
  <circle id="rim" cx="0" cy="0" r="7"/>
  <circle id="rim2" cx="0" cy="0" r="3.5"/>
  <g id="zoomPlus">
    <use xlink:href="#rim" fill="#404040"><set attributeName="fill" to="#808080" begin="zoomplus.mouseover" end="zoomplus.mouseout"/></use>
    <path d="M-4,0h8M0,-4v8" fill="none" stroke="white" stroke-width="1.5" pointer-events="none"/>
  </g>
  <g id="zoomMin">
    <use xlink:href="#rim" fill="#404040"><set attributeName="fill" to="#808080" begin="zoomminus.mouseover" end="zoomminus.mouseout"/></use>
    <path d="M-4,0h8" fill="none" stroke="white" stroke-width="1.5" pointer-events="none"/>
  </g>
  <g id="arrowUp" transform="translate(30 24)">
    <use xlink:href="#rim"/>
    <path pointer-events="none" fill="none" stroke="white" stroke-width="1.5" d="M0,-3.0v7 M-2.5,-0.5L0,-3.0L2.5,-0.5"/>
  </g>
  <g id="arrowRight" transform="rotate(90) translate(36 -43)">
    <use xlink:href="#rim"/>
    <path pointer-events="none" fill="none" stroke="white" stroke-width="1.5" d="M0,-3.0v7 M-2.5,-0.5L0,-3.0L2.5,-0.5"/>
  </g>
  <g id="arrowDown" transform="rotate(180) translate(-30 -48)">
    <use xlink:href="#rim"/>
    <path pointer-events="none" fill="none" stroke="white" stroke-width="1.5" d="M0,-3.0v7 M-2.5,-0.5L0,-3.0L2.5,-0.5"/>
  </g>
  <g id="arrowLeft" transform="rotate(270) translate(-36 17)">
    <use xlink:href="#rim"/>
    <path pointer-events="none" fill="none" stroke="white" stroke-width="1.5" d="M0,-3.0v7 M-2.5,-0.5L0,-3.0L2.5,-0.5"/>
  </g>
  <g id="resetDef">
    <use xlink:href="#rim2" fill="#404040"><set attributeName="fill" to="#808080" begin="reset.mouseover" end="reset.mouseout"/></use>
  </g>
</defs>
<script type="application/ecmascript">
var viewWidth = 597;
var viewHeight = 252;
var sectionId = 'dynsection-10';
</script>
<script type="application/ecmascript" xlink:href="svg.min.js"/>
<svg id="graph" class="graph">
<g id="viewport">
<title>CBiteOpt::generateSol2b</title>
<!-- Node1 -->
<g id="Node000001" class="node">
<title>Node1</title>
<g id="a_Node000001"><a xlink:title=" ">
<polygon fill="#999999" stroke="#666666" points="124.75,-115 0,-115 0,-95 124.75,-95 124.75,-115"/>
<text text-anchor="middle" x="62.38" y="-101.5" font-family="Helvetica,sans-Serif" font-size="10.00">CBiteOpt::generateSol2b</text>
</a>
</g>
</g>
<!-- Node2 -->
<g id="Node000002" class="node">
<title>Node2</title>
<g id="a_Node000002"><a xlink:href="class_c_bite_pop.html#ad427518ed1d47fbe3c2222b3a11badb7" target="_top" xlink:title=" ">
<polygon fill="white" stroke="#666666" points="449.62,-244 344.38,-244 344.38,-212 449.62,-212 449.62,-244"/>
<text text-anchor="start" x="352.38" y="-230.5" font-family="Helvetica,sans-Serif" font-size="10.00">CBitePop&lt; int64_t &gt;</text>
<text text-anchor="middle" x="397" y="-218.5" font-family="Helvetica,sans-Serif" font-size="10.00">::CBitePop</text>
</a>
</g>
</g>
<!-- Node1&#45;&gt;Node2 -->
<g id="edge1_Node000001_Node000002" class="edge">
<title>Node1&#45;&gt;Node2</title>
<g id="a_edge1_Node000001_Node000002"><a xlink:title=" ">
<path fill="none" stroke="#63b8ff" d="M68.41,-115.37C80.49,-138.92 113.66,-196.19 160.75,-219 214.5,-245.03 283.53,-244.28 332.89,-238.84"/>
<polygon fill="#63b8ff" stroke="#63b8ff" points="333.04,-242.35 342.55,-237.67 332.2,-235.4 333.04,-242.35"/>
</a>
</g>
</g>
<!-- Node3 -->
<g id="Node000003" class="node">
<title>Node3</title>
<g id="a_Node000003"><a xlink:href="class_c_bite_rnd.html#a4e9ad0a5c5e09149a60f849736d8d7ce" target="_top" xlink:title=" ">
<polygon fill="white" stroke="#666666" points="278.38,-96 188.88,-96 188.88,-76 278.38,-76 278.38,-96"/>
<text text-anchor="middle" x="233.62" y="-82.5" font-family="Helvetica,sans-Serif" font-size="10.00">CBiteRnd::getInt</text>
</a>
</g>
</g>
<!-- Node1&#45;&gt;Node3 -->
<g id="edge2_Node000001_Node000003" class="edge">
<title>Node1&#45;&gt;Node3</title>
<g id="a_edge2_Node000001_Node000003"><a xlink:title=" ">
<path fill="none" stroke="#63b8ff" d="M124.96,-98.09C142.08,-96.16 160.57,-94.09 177.31,-92.21"/>
<polygon fill="#63b8ff" stroke="#63b8ff" points="177.53,-95.71 187.08,-91.11 176.75,-88.75 177.53,-95.71"/>
</a>
</g>
</g>
<!-- Node6 -->
<g id="Node000006" class="node">
<title>Node6</title>
<g id="a_Node000006"><a xlink:href="class_c_bite_opt.html#af25cdfb71a0ad9081148c31da58fe949" target="_top" xlink:title=" ">
<polygon fill="white" stroke="#666666" points="298.62,-134 168.62,-134 168.62,-114 298.62,-114 298.62,-134"/>
<text text-anchor="middle" x="233.62" y="-120.5" font-family="Helvetica,sans-Serif" font-size="10.00">CBiteOpt::getMinSolIndex</text>
</a>
</g>
</g>
<!-- Node1&#45;&gt;Node6 -->
<g id="edge5_Node000001_Node000006" class="edge">
<title>Node1&#45;&gt;Node6</title>
<g id="a_edge5_Node000001_Node000006"><a xlink:title=" ">
<path fill="none" stroke="#63b8ff" d="M124.96,-111.91C135.41,-113.09 146.37,-114.32 157.13,-115.52"/>
<polygon fill="#63b8ff" stroke="#63b8ff" points="156.41,-118.97 166.74,-116.6 157.19,-112.01 156.41,-118.97"/>
</a>
</g>
</g>
<!-- Node8 -->
<g id="Node000008" class="node">
<title>Node8</title>
<g id="a_Node000008"><a xlink:href="class_c_bite_opt_base.html#abf93d2e584756812ad210f86e4f84a69" target="_top" xlink:title=" ">
<polygon fill="white" stroke="#666666" points="451.5,-184 342.5,-184 342.5,-152 451.5,-152 451.5,-184"/>
<text text-anchor="start" x="350.5" y="-170.5" font-family="Helvetica,sans-Serif" font-size="10.00">CBiteOptBase&lt; int64</text>
<text text-anchor="middle" x="397" y="-158.5" font-family="Helvetica,sans-Serif" font-size="10.00">_t &gt;::select</text>
</a>
</g>
</g>
<!-- Node1&#45;&gt;Node8 -->
<g id="edge14_Node000001_Node000008" class="edge">
<title>Node1&#45;&gt;Node8</title>
<g id="a_edge14_Node000001_Node000008"><a xlink:title=" ">
<path fill="none" stroke="#63b8ff" d="M85.26,-115.49C104.65,-124.3 133.95,-136.47 160.75,-143 217.15,-156.74 282.99,-162.93 330.65,-165.72"/>
<polygon fill="#63b8ff" stroke="#63b8ff" points="330.36,-169.21 340.54,-166.26 330.74,-162.22 330.36,-169.21"/>
</a>
</g>
</g>
<!-- Node9 -->
<g id="Node000009" class="node">
<title>Node9</title>
<g id="a_Node000009"><a xlink:href="class_c_bite_pop.html#aaa8e3f180accfedf21218cbed8ffbb79" target="_top" xlink:title=" ">
<polygon fill="white" stroke="#666666" points="306.5,-20 160.75,-20 160.75,0 306.5,0 306.5,-20"/>
<text text-anchor="middle" x="233.62" y="-6.5" font-family="Helvetica,sans-Serif" font-size="10.00">CBitePop::getParamsOrdered</text>
</a>
</g>
</g>
<!-- Node1&#45;&gt;Node9 -->
<g id="edge9_Node000001_Node000009" class="edge">
<title>Node1&#45;&gt;Node9</title>
<g id="a_edge9_Node000001_Node000009"><a xlink:title=" ">
<path fill="none" stroke="#63b8ff" d="M69.15,-94.55C82.1,-77.48 115.08,-45.73 150.31,-25.58"/>
<polygon fill="#63b8ff" stroke="#63b8ff" points="151.8,-28.75 158.96,-20.94 148.49,-22.59 151.8,-28.75"/>
</a>
</g>
</g>
<!-- Node1&#45;&gt;Node9 -->
<g id="edge10_Node000001_Node000009" class="edge">
<title>Node1&#45;&gt;Node9</title>
<g id="a_edge10_Node000001_Node000009"><a xlink:title=" ">
<path fill="none" stroke="#63b8ff" d="M80.53,-94.75C98.9,-79.77 129.63,-53.44 160.75,-38 173.54,-31.66 188.69,-27.25 201.78,-23.56"/>
<polygon fill="#63b8ff" stroke="#63b8ff" points="202.52,-26.99 211.18,-20.89 200.61,-20.25 202.52,-26.99"/>
</a>
</g>
</g>
<!-- Node10 -->
<g id="Node000010" class="node">
<title>Node10</title>
<g id="a_Node000010"><a xlink:href="class_c_bite_rnd.html#ab73d2c6a6e4c1f5da7441168f165529d" target="_top" xlink:title=" ">
<polygon fill="white" stroke="#666666" points="285.88,-58 181.38,-58 181.38,-38 285.88,-38 285.88,-58"/>
<text text-anchor="middle" x="233.62" y="-44.5" font-family="Helvetica,sans-Serif" font-size="10.00">CBiteRnd::getSqrInt</text>
</a>
</g>
</g>
<!-- Node1&#45;&gt;Node10 -->
<g id="edge11_Node000001_Node000010" class="edge">
<title>Node1&#45;&gt;Node10</title>
<g id="a_edge11_Node000001_Node000010"><a xlink:title=" ">
<path fill="none" stroke="#63b8ff" d="M87.91,-94.53C107.43,-86.42 135.56,-75.21 160.75,-67 166.58,-65.1 172.72,-63.25 178.85,-61.5"/>
<polygon fill="#63b8ff" stroke="#63b8ff" points="179.66,-64.91 188.37,-58.86 177.79,-58.16 179.66,-64.91"/>
</a>
</g>
</g>
<!-- Node12 -->
<g id="Node000012" class="node">
<title>Node12</title>
<g id="a_Node000012"><a xlink:href="class_c_bite_opt.html#ab98060db69130d7610818bddda8c7115" target="_top" xlink:title=" ">
<polygon fill="white" stroke="#666666" points="292.62,-210 174.62,-210 174.62,-190 292.62,-190 292.62,-210"/>
<text text-anchor="middle" x="233.62" y="-196.5" font-family="Helvetica,sans-Serif" font-size="10.00">CBiteOpt::selectAltPop</text>
</a>
</g>
</g>
<!-- Node1&#45;&gt;Node12 -->
<g id="edge15_Node000001_Node000012" class="edge">
<title>Node1&#45;&gt;Node12</title>
<g id="a_edge15_Node000001_Node000012"><a xlink:title=" ">
<path fill="none" stroke="#63b8ff" d="M75.18,-115.49C92.74,-130.65 127.28,-158.74 160.75,-176 167.82,-179.65 175.57,-182.91 183.27,-185.77"/>
<polygon fill="#63b8ff" stroke="#63b8ff" points="182.03,-189.04 192.63,-189.04 184.34,-182.44 182.03,-189.04"/>
</a>
</g>
</g>
<!-- Node4 -->
<g id="Node000004" class="node">
<title>Node4</title>
<g id="a_Node000004"><a xlink:href="class_c_bite_rnd.html#afdb77334884f1a612780def0dec0a326" target="_top" xlink:title=" ">
<polygon fill="white" stroke="#666666" points="436.12,-96 357.88,-96 357.88,-76 436.12,-76 436.12,-96"/>
<text text-anchor="middle" x="397" y="-82.5" font-family="Helvetica,sans-Serif" font-size="10.00">CBiteRnd::get</text>
</a>
</g>
</g>
<!-- Node3&#45;&gt;Node4 -->
<g id="edge3_Node000003_Node000004" class="edge">
<title>Node3&#45;&gt;Node4</title>
<g id="a_edge3_Node000003_Node000004"><a xlink:title=" ">
<path fill="none" stroke="#63b8ff" d="M278.72,-86C299.6,-86 324.64,-86 346.2,-86"/>
<polygon fill="#63b8ff" stroke="#63b8ff" points="345.94,-89.5 355.94,-86 345.94,-82.5 345.94,-89.5"/>
</a>
</g>
</g>
<!-- Node5 -->
<g id="Node000005" class="node">
<title>Node5</title>
<g id="a_Node000005"><a xlink:href="class_c_bite_rnd.html#ae1167f8ecac85f268ced4bc1d2fa953b" target="_top" xlink:title=" ">
<polygon fill="white" stroke="#666666" points="589,-96 487.5,-96 487.5,-76 589,-76 589,-96"/>
<text text-anchor="middle" x="538.25" y="-82.5" font-family="Helvetica,sans-Serif" font-size="10.00">CBiteRnd::advance</text>
</a>
</g>
</g>
<!-- Node4&#45;&gt;Node5 -->
<g id="edge4_Node000004_Node000005" class="edge">
<title>Node4&#45;&gt;Node5</title>
<g id="a_edge4_Node000004_Node000005"><a xlink:title=" ">
<path fill="none" stroke="#63b8ff" d="M436.42,-86C448.68,-86 462.58,-86 476.04,-86"/>
<polygon fill="#63b8ff" stroke="#63b8ff" points="475.7,-89.5 485.7,-86 475.7,-82.5 475.7,-89.5"/>
</a>
</g>
</g>
<!-- Node7 -->
<g id="Node000007" class="node">
<title>Node7</title>
<g id="a_Node000007"><a xlink:href="class_c_bite_rnd.html#aa4c960b792982f495cc19c04ad9c2705" target="_top" xlink:title=" ">
<polygon fill="white" stroke="#666666" points="445.88,-134 348.12,-134 348.12,-114 445.88,-114 445.88,-134"/>
<text text-anchor="middle" x="397" y="-120.5" font-family="Helvetica,sans-Serif" font-size="10.00">CBiteRnd::getPow</text>
</a>
</g>
</g>
<!-- Node6&#45;&gt;Node7 -->
<g id="edge6_Node000006_Node000007" class="edge">
<title>Node6&#45;&gt;Node7</title>
<g id="a_edge6_Node000006_Node000007"><a xlink:title=" ">
<path fill="none" stroke="#63b8ff" d="M298.87,-124C311.26,-124 324.19,-124 336.42,-124"/>
<polygon fill="#63b8ff" stroke="#63b8ff" points="336.38,-127.5 346.38,-124 336.38,-120.5 336.38,-127.5"/>
</a>
</g>
</g>
<!-- Node6&#45;&gt;Node8 -->
<g id="edge8_Node000006_Node000008" class="edge">
<title>Node6&#45;&gt;Node8</title>
<g id="a_edge8_Node000006_Node000008"><a xlink:title=" ">
<path fill="none" stroke="#63b8ff" d="M272.87,-134.43C290.33,-139.19 311.49,-144.96 331.31,-150.36"/>
<polygon fill="#63b8ff" stroke="#63b8ff" points="330.13,-153.67 340.7,-152.92 331.97,-146.91 330.13,-153.67"/>
</a>
</g>
</g>
<!-- Node7&#45;&gt;Node5 -->
<g id="edge7_Node000007_Node000005" class="edge">
<title>Node7&#45;&gt;Node5</title>
<g id="a_edge7_Node000007_Node000005"><a xlink:title=" ">
<path fill="none" stroke="#63b8ff" d="M436.42,-113.52C452.4,-109.15 471.15,-104.04 488.11,-99.41"/>
<polygon fill="#63b8ff" stroke="#63b8ff" points="488.77,-102.86 497.5,-96.85 486.93,-96.1 488.77,-102.86"/>
</a>
</g>
</g>
<!-- Node11 -->
<g id="Node000011" class="node">
<title>Node11</title>
<g id="a_Node000011"><a xlink:href="class_c_bite_rnd.html#aabbf1ffd535ca8fe31fda768f15ccd1b" target="_top" xlink:title=" ">
<polygon fill="white" stroke="#666666" points="443.62,-58 350.38,-58 350.38,-38 443.62,-38 443.62,-58"/>
<text text-anchor="middle" x="397" y="-44.5" font-family="Helvetica,sans-Serif" font-size="10.00">CBiteRnd::getSqr</text>
</a>
</g>
</g>
<!-- Node10&#45;&gt;Node11 -->
<g id="edge12_Node000010_Node000011" class="edge">
<title>Node10&#45;&gt;Node11</title>
<g id="a_edge12_Node000010_Node000011"><a xlink:title=" ">
<path fill="none" stroke="#63b8ff" d="M286.13,-48C302.93,-48 321.68,-48 338.86,-48"/>
<polygon fill="#63b8ff" stroke="#63b8ff" points="338.38,-51.5 348.38,-48 338.38,-44.5 338.38,-51.5"/>
</a>
</g>
</g>
<!-- Node11&#45;&gt;Node5 -->
<g id="edge13_Node000011_Node000005" class="edge">
<title>Node11&#45;&gt;Node5</title>
<g id="a_edge13_Node000011_Node000005"><a xlink:title=" ">
<path fill="none" stroke="#63b8ff" d="M436.42,-58.48C452.4,-62.85 471.15,-67.96 488.11,-72.59"/>
<polygon fill="#63b8ff" stroke="#63b8ff" points="486.93,-75.9 497.5,-75.15 488.77,-69.14 486.93,-75.9"/>
</a>
</g>
</g>
<!-- Node12&#45;&gt;Node2 -->
<g id="edge16_Node000012_Node000002" class="edge">
<title>Node12&#45;&gt;Node2</title>
<g id="a_edge16_Node000012_Node000002"><a xlink:title=" ">
<path fill="none" stroke="#63b8ff" d="M292.89,-210.11C305.8,-212.35 319.55,-214.74 332.66,-217.01"/>
<polygon fill="#63b8ff" stroke="#63b8ff" points="332.04,-220.45 342.49,-218.72 333.24,-213.56 332.04,-220.45"/>
</a>
</g>
</g>
<!-- Node12&#45;&gt;Node8 -->
<g id="edge17_Node000012_Node000008" class="edge">
<title>Node12&#45;&gt;Node8</title>
<g id="a_edge17_Node000012_Node000008"><a xlink:title=" ">
<path fill="none" stroke="#63b8ff" d="M287.47,-189.52C301.46,-186.75 316.72,-183.72 331.26,-180.84"/>
<polygon fill="#63b8ff" stroke="#63b8ff" points="331.6,-184.34 340.73,-178.96 330.24,-177.47 331.6,-184.34"/>
</a>
</g>
</g>
</g>
</svg>

<g id="navigator" transform="translate(0 0)" fill="#404254">
  <rect fill="#f2f5e9" fill-opacity="0.5" stroke="#606060" stroke-width=".5" x="0" y="0" width="60" height="60"/>
  <use id="zoomplus" xlink:href="#zoomPlus" x="17" y="9" onmousedown="handleZoom(evt,'in')"/>
  <use id="zoomminus" xlink:href="#zoomMin" x="42" y="9" onmousedown="handleZoom(evt,'out')"/>
  <use id="reset" xlink:href="#resetDef" x="30" y="36" onmousedown="handleReset()"/>
   <use id="arrowup" xlink:href="#arrowUp" x="0" y="0" onmousedown="handlePan(0,-1)"/>
  <use id="arrowright" xlink:href="#arrowRight" x="0" y="0" onmousedown="handlePan(1,0)"/>
  <use id="arrowdown" xlink:href="#arrowDown" x="0" y="0" onmousedown="handlePan(0,1)"/>
  <use id="arrowleft" xlink:href="#arrowLeft" x="0" y="0" onmousedown="handlePan(-1,0)"/>
</g>
<svg viewBox="0 0 15 15" width="100%" height="30px" preserveAspectRatio="xMaxYMin meet">
 <g id="arrow_out" transform="scale(0.3 0.3)">
  <a xlink:href="class_c_bite_opt_abd6c435c82a97476332139663d9a1c82_cgraph_org.svg" target="_base">
   <rect id="button" ry="5" rx="5" y="6" x="6" height="38" width="38"
        fill="#f2f5e9" fill-opacity="0.5" stroke="#606060" stroke-width="1.0"/>
   <path id="arrow"
     d="M 11.500037,31.436501 C 11.940474,20.09759 22.043105,11.32322 32.158766,21.979434 L 37.068811,17.246167 C 37.068811,17.246167 37.088388,32 37.088388,32 L 22.160133,31.978069 C 22.160133,31.978069 26.997745,27.140456 26.997745,27.140456 C 18.528582,18.264221 13.291696,25.230495 11.500037,31.436501 z"
     style="fill:#404040;"/>
  </a>
 </g>
</svg>

<style type='text/css'>
<![CDATA[
[data-mouse-over-selected='false'] { opacity: 0.7; }
[data-mouse-over-selected='true']  { opacity: 1.0; }
]]>
</style>
<script type="application/ecmascript"><![CDATA[
document.addEventListener('DOMContentLoaded', (event) => {
  highlightEdges();
  highlightAdjacentNodes();
});
]]></script>
</svg>
