<?xml version="1.0" encoding="UTF-8" standalone="no"?>
<!DOCTYPE svg PUBLIC "-//W3C//DTD SVG 1.1//EN"
 "http://www.w3.org/Graphics/SVG/1.1/DTD/svg11.dtd">
<!-- Generated by graphviz version 12.2.1 (20241206.2353)
 -->
<!-- Title: CBiteRnd::getBit Pages: 1 -->
<svg width="555pt" height="332pt"
 viewBox="0.00 0.00 555.00 332.00" xmlns="http://www.w3.org/2000/svg" xmlns:xlink="http://www.w3.org/1999/xlink">
<g id="graph0" class="graph" transform="scale(1 1) rotate(0) translate(4 328)">
<title>CBiteRnd::getBit</title>
<!-- Node1 -->
<g id="Node000001" class="node">
<title>Node1</title>
<g id="a_Node000001"><a xlink:title=" ">
<polygon fill="#999999" stroke="#666666" points="547,-153 456.75,-153 456.75,-133 547,-133 547,-153"/>
<text text-anchor="middle" x="501.88" y="-139.5" font-family="Helvetica,sans-Serif" font-size="10.00">CBiteRnd::getBit</text>
</a>
</g>
</g>
<!-- Node2 -->
<g id="Node000002" class="node">
<title>Node2</title>
<g id="a_Node000002"><a xlink:href="class_c_bite_opt.html#a2363863090db7154792f78ec46abcf47" target="_top" xlink:title=" ">
<polygon fill="white" stroke="#666666" points="420.75,-286 296,-286 296,-266 420.75,-266 420.75,-286"/>
<text text-anchor="middle" x="358.38" y="-272.5" font-family="Helvetica,sans-Serif" font-size="10.00">CBiteOpt::generateSol2c</text>
</a>
</g>
</g>
<!-- Node1&#45;&gt;Node2 -->
<g id="edge1_Node000001_Node000002" class="edge">
<title>Node1&#45;&gt;Node2</title>
<g id="a_edge1_Node000001_Node000002"><a xlink:title=" ">
<path fill="none" stroke="#63b8ff" d="M490.56,-163.38C477.38,-187.56 452.43,-227.67 420.75,-252 413.4,-257.64 404.56,-262.12 395.9,-265.6"/>
<polygon fill="#63b8ff" stroke="#63b8ff" points="493.65,-165.03 495.21,-154.55 487.45,-161.77 493.65,-165.03"/>
</a>
</g>
</g>
<!-- Node5 -->
<g id="Node000005" class="node">
<title>Node5</title>
<g id="a_Node000005"><a xlink:href="class_c_bite_opt.html#ae48399aea9fc3c2e01b370b846d88c82" target="_top" xlink:title=" ">
<polygon fill="white" stroke="#666666" points="257.38,-248 137.88,-248 137.88,-228 257.38,-228 257.38,-248"/>
<text text-anchor="middle" x="197.62" y="-234.5" font-family="Helvetica,sans-Serif" font-size="10.00">CBiteOpt::generateSol4</text>
</a>
</g>
</g>
<!-- Node1&#45;&gt;Node5 -->
<g id="edge5_Node000001_Node000005" class="edge">
<title>Node1&#45;&gt;Node5</title>
<g id="a_edge5_Node000001_Node000005"><a xlink:title=" ">
<path fill="none" stroke="#63b8ff" d="M483.09,-160.79C467.88,-174.88 444.7,-193.84 420.75,-204 368.5,-226.17 303.89,-234.12 257.85,-236.86"/>
<polygon fill="#63b8ff" stroke="#63b8ff" points="485.17,-163.64 489.98,-154.2 480.33,-158.58 485.17,-163.64"/>
</a>
</g>
</g>
<!-- Node6 -->
<g id="Node000006" class="node">
<title>Node6</title>
<g id="a_Node000006"><a xlink:href="class_c_bite_opt.html#a01e7f5a94a2ae837844f8c60ddf21db6" target="_top" xlink:title=" ">
<polygon fill="white" stroke="#666666" points="257.38,-210 137.88,-210 137.88,-190 257.38,-190 257.38,-210"/>
<text text-anchor="middle" x="197.62" y="-196.5" font-family="Helvetica,sans-Serif" font-size="10.00">CBiteOpt::generateSol5</text>
</a>
</g>
</g>
<!-- Node1&#45;&gt;Node6 -->
<g id="edge7_Node000001_Node000006" class="edge">
<title>Node1&#45;&gt;Node6</title>
<g id="a_edge7_Node000001_Node000006"><a xlink:title=" ">
<path fill="none" stroke="#63b8ff" d="M474.04,-158.7C458.91,-166.78 439.35,-175.97 420.75,-181 366.76,-195.6 302.95,-199.77 257.61,-200.63"/>
<polygon fill="#63b8ff" stroke="#63b8ff" points="475.36,-161.97 482.43,-154.07 471.98,-155.84 475.36,-161.97"/>
</a>
</g>
</g>
<!-- Node7 -->
<g id="Node000007" class="node">
<title>Node7</title>
<g id="a_Node000007"><a xlink:href="class_c_bite_opt.html#aac1bd4dd832e20880872b94b07773946" target="_top" xlink:title=" ">
<polygon fill="white" stroke="#666666" points="420.75,-172 296,-172 296,-152 420.75,-152 420.75,-172"/>
<text text-anchor="middle" x="358.38" y="-158.5" font-family="Helvetica,sans-Serif" font-size="10.00">CBiteOpt::generateSol5b</text>
</a>
</g>
</g>
<!-- Node1&#45;&gt;Node7 -->
<g id="edge9_Node000001_Node000007" class="edge">
<title>Node1&#45;&gt;Node7</title>
<g id="a_edge9_Node000001_Node000007"><a xlink:title=" ">
<path fill="none" stroke="#63b8ff" d="M445.2,-150.48C437.33,-151.53 429.2,-152.62 421.23,-153.7"/>
<polygon fill="#63b8ff" stroke="#63b8ff" points="445.55,-153.96 454.99,-149.16 444.61,-147.02 445.55,-153.96"/>
</a>
</g>
</g>
<!-- Node8 -->
<g id="Node000008" class="node">
<title>Node8</title>
<g id="a_Node000008"><a xlink:href="class_c_bite_opt.html#a001440627928387b57b5f266696ba330" target="_top" xlink:title=" ">
<polygon fill="white" stroke="#666666" points="418.12,-134 298.62,-134 298.62,-114 418.12,-114 418.12,-134"/>
<text text-anchor="middle" x="358.38" y="-120.5" font-family="Helvetica,sans-Serif" font-size="10.00">CBiteOpt::generateSol6</text>
</a>
</g>
</g>
<!-- Node1&#45;&gt;Node8 -->
<g id="edge11_Node000001_Node000008" class="edge">
<title>Node1&#45;&gt;Node8</title>
<g id="a_edge11_Node000001_Node000008"><a xlink:title=" ">
<path fill="none" stroke="#63b8ff" d="M445.17,-135.52C436.38,-134.34 427.26,-133.12 418.39,-131.92"/>
<polygon fill="#63b8ff" stroke="#63b8ff" points="444.61,-138.98 454.99,-136.84 445.55,-132.04 444.61,-138.98"/>
</a>
</g>
</g>
<!-- Node9 -->
<g id="Node000009" class="node">
<title>Node9</title>
<g id="a_Node000009"><a xlink:href="class_c_bite_opt.html#a6766fe9d56bee1f623d297b2f9cf8500" target="_top" xlink:title=" ">
<polygon fill="white" stroke="#666666" points="257.38,-96 137.88,-96 137.88,-76 257.38,-76 257.38,-96"/>
<text text-anchor="middle" x="197.62" y="-82.5" font-family="Helvetica,sans-Serif" font-size="10.00">CBiteOpt::generateSol7</text>
</a>
</g>
</g>
<!-- Node1&#45;&gt;Node9 -->
<g id="edge13_Node000001_Node000009" class="edge">
<title>Node1&#45;&gt;Node9</title>
<g id="a_edge13_Node000001_Node000009"><a xlink:title=" ">
<path fill="none" stroke="#63b8ff" d="M474.04,-127.3C458.91,-119.22 439.35,-110.03 420.75,-105 366.76,-90.4 302.95,-86.23 257.61,-85.37"/>
<polygon fill="#63b8ff" stroke="#63b8ff" points="471.98,-130.16 482.43,-131.93 475.36,-124.03 471.98,-130.16"/>
</a>
</g>
</g>
<!-- Node10 -->
<g id="Node000010" class="node">
<title>Node10</title>
<g id="a_Node000010"><a xlink:href="class_c_bite_opt.html#adca09db7345122f1da38d8f5c1800d83" target="_top" xlink:title=" ">
<polygon fill="white" stroke="#666666" points="257.38,-58 137.88,-58 137.88,-38 257.38,-38 257.38,-58"/>
<text text-anchor="middle" x="197.62" y="-44.5" font-family="Helvetica,sans-Serif" font-size="10.00">CBiteOpt::generateSol9</text>
</a>
</g>
</g>
<!-- Node1&#45;&gt;Node10 -->
<g id="edge15_Node000001_Node000010" class="edge">
<title>Node1&#45;&gt;Node10</title>
<g id="a_edge15_Node000001_Node000010"><a xlink:title=" ">
<path fill="none" stroke="#63b8ff" d="M482.51,-125.07C467.25,-111.28 444.3,-92.95 420.75,-83 368.42,-60.91 303.82,-52.62 257.8,-49.58"/>
<polygon fill="#63b8ff" stroke="#63b8ff" points="479.74,-127.28 489.44,-131.54 484.51,-122.16 479.74,-127.28"/>
</a>
</g>
</g>
<!-- Node11 -->
<g id="Node000011" class="node">
<title>Node11</title>
<g id="a_Node000011"><a xlink:href="class_c_d_e_opt.html#a819e3692005dd630f7bc83d4444e23ee" target="_top" xlink:title=" ">
<polygon fill="white" stroke="#666666" points="406.5,-20 310.25,-20 310.25,0 406.5,0 406.5,-20"/>
<text text-anchor="middle" x="358.38" y="-6.5" font-family="Helvetica,sans-Serif" font-size="10.00">CDEOpt::optimize</text>
</a>
</g>
</g>
<!-- Node1&#45;&gt;Node11 -->
<g id="edge17_Node000001_Node000011" class="edge">
<title>Node1&#45;&gt;Node11</title>
<g id="a_edge17_Node000001_Node000011"><a xlink:title=" ">
<path fill="none" stroke="#63b8ff" d="M490.56,-122.62C477.38,-98.44 452.43,-58.33 420.75,-34 413.4,-28.36 404.56,-23.88 395.9,-20.4"/>
<polygon fill="#63b8ff" stroke="#63b8ff" points="487.45,-124.23 495.21,-131.45 493.65,-120.97 487.45,-124.23"/>
</a>
</g>
</g>
<!-- Node3 -->
<g id="Node000003" class="node">
<title>Node3</title>
<g id="a_Node000003"><a xlink:href="class_c_bite_opt.html#a76fa9d8bf4abde13b69e06761acc82f5" target="_top" xlink:title=" ">
<polygon fill="white" stroke="#666666" points="260,-324 135.25,-324 135.25,-304 260,-304 260,-324"/>
<text text-anchor="middle" x="197.62" y="-310.5" font-family="Helvetica,sans-Serif" font-size="10.00">CBiteOpt::generateSol2d</text>
</a>
</g>
</g>
<!-- Node2&#45;&gt;Node3 -->
<g id="edge2_Node000002_Node000003" class="edge">
<title>Node2&#45;&gt;Node3</title>
<g id="a_edge2_Node000002_Node000003"><a xlink:title=" ">
<path fill="none" stroke="#63b8ff" d="M302.58,-289.12C282.87,-293.83 260.92,-299.09 242.28,-303.55"/>
<polygon fill="#63b8ff" stroke="#63b8ff" points="303.19,-292.57 312.1,-286.84 301.56,-285.76 303.19,-292.57"/>
</a>
</g>
</g>
<!-- Node4 -->
<g id="Node000004" class="node">
<title>Node4</title>
<g id="a_Node000004"><a xlink:href="class_c_bite_opt.html#a2f56a9d5d682c92e2da1234ed68d54ed" target="_top" xlink:title=" ">
<polygon fill="white" stroke="#666666" points="99.25,-191 0,-191 0,-171 99.25,-171 99.25,-191"/>
<text text-anchor="middle" x="49.62" y="-177.5" font-family="Helvetica,sans-Serif" font-size="10.00">CBiteOpt::optimize</text>
</a>
</g>
</g>
<!-- Node2&#45;&gt;Node4 -->
<g id="edge4_Node000002_Node000004" class="edge">
<title>Node2&#45;&gt;Node4</title>
<g id="a_edge4_Node000002_Node000004"><a xlink:title=" ">
<path fill="none" stroke="#63b8ff" d="M284.53,-281.23C239.73,-281.71 182.14,-277.3 135.25,-257 101.36,-242.33 71.83,-208.54 58.37,-191.39"/>
<polygon fill="#63b8ff" stroke="#63b8ff" points="284.48,-284.73 294.4,-281.03 284.33,-277.73 284.48,-284.73"/>
</a>
</g>
</g>
<!-- Node3&#45;&gt;Node4 -->
<g id="edge3_Node000003_Node000004" class="edge">
<title>Node3&#45;&gt;Node4</title>
<g id="a_edge3_Node000003_Node000004"><a xlink:title=" ">
<path fill="none" stroke="#63b8ff" d="M150.25,-299.04C144.96,-296.42 139.83,-293.42 135.25,-290 97.44,-261.75 67.71,-212.43 56.01,-191.2"/>
<polygon fill="#63b8ff" stroke="#63b8ff" points="148.58,-302.12 159.14,-302.98 151.42,-295.72 148.58,-302.12"/>
</a>
</g>
</g>
<!-- Node5&#45;&gt;Node4 -->
<g id="edge6_Node000005_Node000004" class="edge">
<title>Node5&#45;&gt;Node4</title>
<g id="a_edge6_Node000005_Node000004"><a xlink:title=" ">
<path fill="none" stroke="#63b8ff" d="M149.68,-224.12C144.78,-222.47 139.9,-220.75 135.25,-219 113.25,-210.69 88.82,-199.5 71.89,-191.42"/>
<polygon fill="#63b8ff" stroke="#63b8ff" points="148.32,-227.35 158.91,-227.11 150.48,-220.69 148.32,-227.35"/>
</a>
</g>
</g>
<!-- Node6&#45;&gt;Node4 -->
<g id="edge8_Node000006_Node000004" class="edge">
<title>Node6&#45;&gt;Node4</title>
<g id="a_edge8_Node000006_Node000004"><a xlink:title=" ">
<path fill="none" stroke="#63b8ff" d="M126.27,-190.84C117.22,-189.67 108.12,-188.48 99.52,-187.36"/>
<polygon fill="#63b8ff" stroke="#63b8ff" points="125.79,-194.31 136.16,-192.13 126.7,-187.37 125.79,-194.31"/>
</a>
</g>
</g>
<!-- Node7&#45;&gt;Node4 -->
<g id="edge10_Node000007_Node000004" class="edge">
<title>Node7&#45;&gt;Node4</title>
<g id="a_edge10_Node000007_Node000004"><a xlink:title=" ">
<path fill="none" stroke="#63b8ff" d="M284.18,-166.53C227.1,-170.07 149.4,-174.88 99.62,-177.97"/>
<polygon fill="#63b8ff" stroke="#63b8ff" points="284.39,-170.03 294.16,-165.92 283.96,-163.04 284.39,-170.03"/>
</a>
</g>
</g>
<!-- Node8&#45;&gt;Node4 -->
<g id="edge12_Node000008_Node000004" class="edge">
<title>Node8&#45;&gt;Node4</title>
<g id="a_edge12_Node000008_Node000004"><a xlink:title=" ">
<path fill="none" stroke="#63b8ff" d="M287.29,-136.25C243.54,-143.99 186.06,-154.32 135.25,-164 123.62,-166.21 111.11,-168.68 99.37,-171.03"/>
<polygon fill="#63b8ff" stroke="#63b8ff" points="287.66,-139.74 296.9,-134.55 286.44,-132.85 287.66,-139.74"/>
</a>
</g>
</g>
<!-- Node9&#45;&gt;Node4 -->
<g id="edge14_Node000009_Node000004" class="edge">
<title>Node9&#45;&gt;Node4</title>
<g id="a_edge14_Node000009_Node000004"><a xlink:title=" ">
<path fill="none" stroke="#63b8ff" d="M153.61,-100.74C147.29,-103.5 140.99,-106.6 135.25,-110 105.56,-127.61 75.78,-155.56 60.72,-170.6"/>
<polygon fill="#63b8ff" stroke="#63b8ff" points="154.82,-104.03 162.76,-97.01 152.18,-97.55 154.82,-104.03"/>
</a>
</g>
</g>
<!-- Node10&#45;&gt;Node4 -->
<g id="edge16_Node000010_Node000004" class="edge">
<title>Node10&#45;&gt;Node4</title>
<g id="a_edge16_Node000010_Node000004"><a xlink:title=" ">
<path fill="none" stroke="#63b8ff" d="M140.92,-63.4C138.96,-64.52 137.06,-65.72 135.25,-67 95.22,-95.35 66.29,-148.51 55.39,-170.78"/>
<polygon fill="#63b8ff" stroke="#63b8ff" points="142.32,-66.62 149.79,-59.11 139.27,-60.32 142.32,-66.62"/>
</a>
</g>
</g>
</g>
</svg>
