<?xml version="1.0" encoding="UTF-8" standalone="no"?>
<!DOCTYPE svg PUBLIC "-//W3C//DTD SVG 1.1//EN"
 "http://www.w3.org/Graphics/SVG/1.1/DTD/svg11.dtd">
<!-- Generated by graphviz version 12.2.1 (20241206.2353)
 -->
<!-- Title: fcmaes.journal.Journal.param Pages: 1 -->
<svg width="527pt" height="28pt"
 viewBox="0.00 0.00 527.00 28.00" xmlns="http://www.w3.org/2000/svg" xmlns:xlink="http://www.w3.org/1999/xlink">
<g id="graph0" class="graph" transform="scale(1 1) rotate(0) translate(4 24)">
<title>fcmaes.journal.Journal.param</title>
<!-- Node1 -->
<g id="Node000001" class="node">
<title>Node1</title>
<g id="a_Node000001"><a xlink:title="Writes a parameter value to the associated file for a given trial and worker.">
<polygon fill="#999999" stroke="#666666" points="519,-20 374.75,-20 374.75,0 519,0 519,-20"/>
<text text-anchor="middle" x="446.88" y="-6.5" font-family="Helvetica,sans-Serif" font-size="10.00">fcmaes.journal.Journal.param</text>
</a>
</g>
</g>
<!-- Node2 -->
<g id="Node000002" class="node">
<title>Node2</title>
<g id="a_Node000002"><a xlink:href="classfcmaes_1_1journal_1_1_journal.html#a7f1df03b226966e2c112e449fe31747b" target="_top" xlink:title="Writes parameter values for a given trial and worker.">
<polygon fill="white" stroke="#666666" points="338.75,-20 190,-20 190,0 338.75,0 338.75,-20"/>
<text text-anchor="middle" x="264.38" y="-6.5" font-family="Helvetica,sans-Serif" font-size="10.00">fcmaes.journal.Journal.write_x</text>
</a>
</g>
</g>
<!-- Node1&#45;&gt;Node2 -->
<g id="edge1_Node000001_Node000002" class="edge">
<title>Node1&#45;&gt;Node2</title>
<g id="a_edge1_Node000001_Node000002"><a xlink:title=" ">
<path fill="none" stroke="#63b8ff" d="M363.01,-10C354.99,-10 346.88,-10 338.96,-10"/>
<polygon fill="#63b8ff" stroke="#63b8ff" points="362.76,-13.5 372.76,-10 362.76,-6.5 362.76,-13.5"/>
</a>
</g>
</g>
<!-- Node3 -->
<g id="Node000003" class="node">
<title>Node3</title>
<g id="a_Node000003"><a xlink:href="classfcmaes_1_1journal_1_1_journal.html#a745cc0929536fec00ae35f51264a1af1" target="_top" xlink:title="Writes a set of parameter values (xs) for different workers associated with a trial.">
<polygon fill="white" stroke="#666666" points="154,-20 0,-20 0,0 154,0 154,-20"/>
<text text-anchor="middle" x="77" y="-6.5" font-family="Helvetica,sans-Serif" font-size="10.00">fcmaes.journal.Journal.write_xs</text>
</a>
</g>
</g>
<!-- Node2&#45;&gt;Node3 -->
<g id="edge2_Node000002_Node000003" class="edge">
<title>Node2&#45;&gt;Node3</title>
<g id="a_edge2_Node000002_Node000003"><a xlink:title=" ">
<path fill="none" stroke="#63b8ff" d="M178.32,-10C170.3,-10 162.21,-10 154.28,-10"/>
<polygon fill="#63b8ff" stroke="#63b8ff" points="178.06,-13.5 188.06,-10 178.06,-6.5 178.06,-13.5"/>
</a>
</g>
</g>
</g>
</svg>
