<?xml version="1.0" encoding="UTF-8" standalone="no"?>
<!DOCTYPE svg PUBLIC "-//W3C//DTD SVG 1.1//EN"
 "http://www.w3.org/Graphics/SVG/1.1/DTD/svg11.dtd">
<!-- Generated by graphviz version 12.2.1 (20241206.2353)
 -->
<!-- Title: CBiteSelBase::reset Pages: 1 -->
<svg width="675pt" height="66pt"
 viewBox="0.00 0.00 675.25 66.00" xmlns="http://www.w3.org/2000/svg" xmlns:xlink="http://www.w3.org/1999/xlink">
<g id="graph0" class="graph" transform="scale(1 1) rotate(0) translate(4 62)">
<title>CBiteSelBase::reset</title>
<!-- Node1 -->
<g id="Node000001" class="node">
<title>Node1</title>
<g id="a_Node000001"><a xlink:title=" ">
<polygon fill="#999999" stroke="#666666" points="105.25,-39 0,-39 0,-19 105.25,-19 105.25,-39"/>
<text text-anchor="middle" x="52.62" y="-25.5" font-family="Helvetica,sans-Serif" font-size="10.00">CBiteSelBase::reset</text>
</a>
</g>
</g>
<!-- Node2 -->
<g id="Node000002" class="node">
<title>Node2</title>
<g id="a_Node000002"><a xlink:href="class_c_bite_rnd.html#a4e9ad0a5c5e09149a60f849736d8d7ce" target="_top" xlink:title=" ">
<polygon fill="white" stroke="#666666" points="240.88,-58 151.38,-58 151.38,-38 240.88,-38 240.88,-58"/>
<text text-anchor="middle" x="196.12" y="-44.5" font-family="Helvetica,sans-Serif" font-size="10.00">CBiteRnd::getInt</text>
</a>
</g>
</g>
<!-- Node1&#45;&gt;Node2 -->
<g id="edge1_Node000001_Node000002" class="edge">
<title>Node1&#45;&gt;Node2</title>
<g id="a_edge1_Node000001_Node000002"><a xlink:title=" ">
<path fill="none" stroke="#63b8ff" d="M105.51,-35.97C116.75,-37.48 128.68,-39.08 140.03,-40.6"/>
<polygon fill="#63b8ff" stroke="#63b8ff" points="139.28,-44.03 149.66,-41.89 140.21,-37.09 139.28,-44.03"/>
</a>
</g>
</g>
<!-- Node5 -->
<g id="Node000005" class="node">
<title>Node5</title>
<g id="a_Node000005"><a xlink:href="class_c_bite_sel_base.html#a8057363e3d0feb4fc8e23957a8806245" target="_top" xlink:title=" ">
<polygon fill="white" stroke="#666666" points="251,-20 141.25,-20 141.25,0 251,0 251,-20"/>
<text text-anchor="middle" x="196.12" y="-6.5" font-family="Helvetica,sans-Serif" font-size="10.00">CBiteSelBase::select</text>
</a>
</g>
</g>
<!-- Node1&#45;&gt;Node5 -->
<g id="edge4_Node000001_Node000005" class="edge">
<title>Node1&#45;&gt;Node5</title>
<g id="a_edge4_Node000001_Node000005"><a xlink:title=" ">
<path fill="none" stroke="#63b8ff" d="M105.51,-22.03C113.34,-20.98 121.5,-19.89 129.57,-18.8"/>
<polygon fill="#63b8ff" stroke="#63b8ff" points="129.92,-22.29 139.37,-17.49 128.99,-15.35 129.92,-22.29"/>
</a>
</g>
</g>
<!-- Node3 -->
<g id="Node000003" class="node">
<title>Node3</title>
<g id="a_Node000003"><a xlink:href="class_c_bite_rnd.html#afdb77334884f1a612780def0dec0a326" target="_top" xlink:title=" ">
<polygon fill="white" stroke="#666666" points="520,-58 441.75,-58 441.75,-38 520,-38 520,-58"/>
<text text-anchor="middle" x="480.88" y="-44.5" font-family="Helvetica,sans-Serif" font-size="10.00">CBiteRnd::get</text>
</a>
</g>
</g>
<!-- Node2&#45;&gt;Node3 -->
<g id="edge2_Node000002_Node000003" class="edge">
<title>Node2&#45;&gt;Node3</title>
<g id="a_edge2_Node000002_Node000003"><a xlink:title=" ">
<path fill="none" stroke="#63b8ff" d="M241.3,-48C292.53,-48 376.75,-48 430.2,-48"/>
<polygon fill="#63b8ff" stroke="#63b8ff" points="429.93,-51.5 439.93,-48 429.93,-44.5 429.93,-51.5"/>
</a>
</g>
</g>
<!-- Node4 -->
<g id="Node000004" class="node">
<title>Node4</title>
<g id="a_Node000004"><a xlink:href="class_c_bite_rnd.html#ae1167f8ecac85f268ced4bc1d2fa953b" target="_top" xlink:title=" ">
<polygon fill="white" stroke="#666666" points="667.25,-39 565.75,-39 565.75,-19 667.25,-19 667.25,-39"/>
<text text-anchor="middle" x="616.5" y="-25.5" font-family="Helvetica,sans-Serif" font-size="10.00">CBiteRnd::advance</text>
</a>
</g>
</g>
<!-- Node3&#45;&gt;Node4 -->
<g id="edge3_Node000003_Node000004" class="edge">
<title>Node3&#45;&gt;Node4</title>
<g id="a_edge3_Node000003_Node000004"><a xlink:title=" ">
<path fill="none" stroke="#63b8ff" d="M520.17,-42.56C530.92,-41.03 542.89,-39.32 554.61,-37.66"/>
<polygon fill="#63b8ff" stroke="#63b8ff" points="554.82,-41.16 564.23,-36.29 553.83,-34.23 554.82,-41.16"/>
</a>
</g>
</g>
<!-- Node6 -->
<g id="Node000006" class="node">
<title>Node6</title>
<g id="a_Node000006"><a xlink:href="class_c_bite_rnd.html#adca97316ecce595b9175815493f7a3a2" target="_top" xlink:title=" ">
<polygon fill="white" stroke="#666666" points="396,-20 287,-20 287,0 396,0 396,-20"/>
<text text-anchor="middle" x="341.5" y="-6.5" font-family="Helvetica,sans-Serif" font-size="10.00">CBiteRnd::getPowInt</text>
</a>
</g>
</g>
<!-- Node5&#45;&gt;Node6 -->
<g id="edge5_Node000005_Node000006" class="edge">
<title>Node5&#45;&gt;Node6</title>
<g id="a_edge5_Node000005_Node000006"><a xlink:title=" ">
<path fill="none" stroke="#63b8ff" d="M251.33,-10C259.2,-10 267.37,-10 275.42,-10"/>
<polygon fill="#63b8ff" stroke="#63b8ff" points="275.18,-13.5 285.18,-10 275.18,-6.5 275.18,-13.5"/>
</a>
</g>
</g>
<!-- Node7 -->
<g id="Node000007" class="node">
<title>Node7</title>
<g id="a_Node000007"><a xlink:href="class_c_bite_rnd.html#aa4c960b792982f495cc19c04ad9c2705" target="_top" xlink:title=" ">
<polygon fill="white" stroke="#666666" points="529.75,-20 432,-20 432,0 529.75,0 529.75,-20"/>
<text text-anchor="middle" x="480.88" y="-6.5" font-family="Helvetica,sans-Serif" font-size="10.00">CBiteRnd::getPow</text>
</a>
</g>
</g>
<!-- Node6&#45;&gt;Node7 -->
<g id="edge6_Node000006_Node000007" class="edge">
<title>Node6&#45;&gt;Node7</title>
<g id="a_edge6_Node000006_Node000007"><a xlink:title=" ">
<path fill="none" stroke="#63b8ff" d="M396.4,-10C404.37,-10 412.62,-10 420.69,-10"/>
<polygon fill="#63b8ff" stroke="#63b8ff" points="420.42,-13.5 430.42,-10 420.42,-6.5 420.42,-13.5"/>
</a>
</g>
</g>
<!-- Node7&#45;&gt;Node4 -->
<g id="edge7_Node000007_Node000004" class="edge">
<title>Node7&#45;&gt;Node4</title>
<g id="a_edge7_Node000007_Node000004"><a xlink:title=" ">
<path fill="none" stroke="#63b8ff" d="M530.12,-16.86C537.94,-17.97 546.14,-19.14 554.22,-20.29"/>
<polygon fill="#63b8ff" stroke="#63b8ff" points="553.64,-23.74 564.03,-21.68 554.62,-16.81 553.64,-23.74"/>
</a>
</g>
</g>
</g>
</svg>
