<?xml version="1.0" encoding="UTF-8" standalone="no"?>
<!DOCTYPE svg PUBLIC "-//W3C//DTD SVG 1.1//EN"
 "http://www.w3.org/Graphics/SVG/1.1/DTD/svg11.dtd">
<!-- Generated by graphviz version 12.2.1 (20241206.2353)
 -->
<!-- Title: fcmaes.advretry.Store.add_result Pages: 1 -->
<!--zoomable 275 -->

<svg id="main" version="1.1" xmlns="http://www.w3.org/2000/svg" xmlns:xlink="http://www.w3.org/1999/xlink" xml:space="preserve" onload="init(evt)">

<style type="text/css"><![CDATA[
.node, .edge {opacity: 0.7;}
.node.selected, .edge.selected {opacity: 1;}
.edge:hover path { stroke: red; }
.edge:hover polygon { stroke: red; fill: red; }
]]></style>

<defs>
  <circle id="rim" cx="0" cy="0" r="7"/>
  <circle id="rim2" cx="0" cy="0" r="3.5"/>
  <g id="zoomPlus">
    <use xlink:href="#rim" fill="#404040"><set attributeName="fill" to="#808080" begin="zoomplus.mouseover" end="zoomplus.mouseout"/></use>
    <path d="M-4,0h8M0,-4v8" fill="none" stroke="white" stroke-width="1.5" pointer-events="none"/>
  </g>
  <g id="zoomMin">
    <use xlink:href="#rim" fill="#404040"><set attributeName="fill" to="#808080" begin="zoomminus.mouseover" end="zoomminus.mouseout"/></use>
    <path d="M-4,0h8" fill="none" stroke="white" stroke-width="1.5" pointer-events="none"/>
  </g>
  <g id="arrowUp" transform="translate(30 24)">
    <use xlink:href="#rim"/>
    <path pointer-events="none" fill="none" stroke="white" stroke-width="1.5" d="M0,-3.0v7 M-2.5,-0.5L0,-3.0L2.5,-0.5"/>
  </g>
  <g id="arrowRight" transform="rotate(90) translate(36 -43)">
    <use xlink:href="#rim"/>
    <path pointer-events="none" fill="none" stroke="white" stroke-width="1.5" d="M0,-3.0v7 M-2.5,-0.5L0,-3.0L2.5,-0.5"/>
  </g>
  <g id="arrowDown" transform="rotate(180) translate(-30 -48)">
    <use xlink:href="#rim"/>
    <path pointer-events="none" fill="none" stroke="white" stroke-width="1.5" d="M0,-3.0v7 M-2.5,-0.5L0,-3.0L2.5,-0.5"/>
  </g>
  <g id="arrowLeft" transform="rotate(270) translate(-36 17)">
    <use xlink:href="#rim"/>
    <path pointer-events="none" fill="none" stroke="white" stroke-width="1.5" d="M0,-3.0v7 M-2.5,-0.5L0,-3.0L2.5,-0.5"/>
  </g>
  <g id="resetDef">
    <use xlink:href="#rim2" fill="#404040"><set attributeName="fill" to="#808080" begin="reset.mouseover" end="reset.mouseout"/></use>
  </g>
</defs>
<script type="application/ecmascript">
var viewWidth = 858;
var viewHeight = 275;
var sectionId = 'dynsection-1';
</script>
<script type="application/ecmascript" xlink:href="svg.min.js"/>
<svg id="graph" class="graph">
<g id="viewport">
<title>fcmaes.advretry.Store.add_result</title>
<!-- Node1 -->
<g id="Node000001" class="node">
<title>Node1</title>
<g id="a_Node000001"><a xlink:title="Adds a result to the current optimization process, updating the best result if necessary and storing ...">
<polygon fill="#999999" stroke="#666666" points="130.75,-155.67 0,-155.67 0,-123.67 130.75,-123.67 130.75,-155.67"/>
<text text-anchor="start" x="8" y="-142.17" font-family="Helvetica,sans-Serif" font-size="10.00">fcmaes.advretry.Store.add</text>
<text text-anchor="middle" x="65.38" y="-130.17" font-family="Helvetica,sans-Serif" font-size="10.00">_result</text>
</a>
</g>
</g>
<!-- Node2 -->
<g id="Node000002" class="node">
<title>Node2</title>
<g id="a_Node000002"><a xlink:href="classfcmaes_1_1advretry_1_1_store.html#a03953d817f7ad4b1c13818e1f133a6da" target="_top" xlink:title="Logs a summary of the execution metrics and current status.">
<polygon fill="white" stroke="#666666" points="305.75,-223.67 166.75,-223.67 166.75,-203.67 305.75,-203.67 305.75,-223.67"/>
<text text-anchor="middle" x="236.25" y="-210.17" font-family="Helvetica,sans-Serif" font-size="10.00">fcmaes.advretry.Store.dump</text>
</a>
</g>
</g>
<!-- Node1&#45;&gt;Node2 -->
<g id="edge1_Node000001_Node000002" class="edge">
<title>Node1&#45;&gt;Node2</title>
<g id="a_edge1_Node000001_Node000002"><a xlink:title=" ">
<path fill="none" stroke="#63b8ff" d="M103.85,-156.09C132.98,-168.85 173.03,-186.4 201.24,-198.76"/>
<polygon fill="#63b8ff" stroke="#63b8ff" points="199.47,-201.81 210.03,-202.61 202.28,-195.4 199.47,-201.81"/>
</a>
</g>
</g>
<!-- Node4 -->
<g id="Node000004" class="node">
<title>Node4</title>
<g id="a_Node000004"><a xlink:href="classfcmaes_1_1advretry_1_1_store.html#a0ae90f35f58deb629c18747fbf9b1cc9" target="_top" xlink:title="Replaces the y and x values at a specified index.">
<polygon fill="white" stroke="#666666" points="491.25,-128.67 344.75,-128.67 344.75,-108.67 491.25,-108.67 491.25,-128.67"/>
<text text-anchor="middle" x="418" y="-115.17" font-family="Helvetica,sans-Serif" font-size="10.00">fcmaes.advretry.Store.replace</text>
</a>
</g>
</g>
<!-- Node1&#45;&gt;Node4 -->
<g id="edge3_Node000001_Node000004" class="edge">
<title>Node1&#45;&gt;Node4</title>
<g id="a_edge3_Node000001_Node000004"><a xlink:title=" ">
<path fill="none" stroke="#63b8ff" d="M131.09,-135.79C188,-132.38 271.19,-127.4 333.18,-123.69"/>
<polygon fill="#63b8ff" stroke="#63b8ff" points="333.21,-127.19 342.98,-123.1 332.79,-120.2 333.21,-127.19"/>
</a>
</g>
</g>
<!-- Node7 -->
<g id="Node000007" class="node">
<title>Node7</title>
<g id="a_Node000007"><a xlink:href="classfcmaes_1_1advretry_1_1_store.html#a19b9d6c0787fb06a2b00e595f487bf37" target="_top" xlink:title="Saves the current data of the instance to a compressed file using bz2 and cPickle modules.">
<polygon fill="white" stroke="#666666" points="304.25,-170.67 168.25,-170.67 168.25,-150.67 304.25,-150.67 304.25,-170.67"/>
<text text-anchor="middle" x="236.25" y="-157.17" font-family="Helvetica,sans-Serif" font-size="10.00">fcmaes.advretry.Store.save</text>
</a>
</g>
</g>
<!-- Node1&#45;&gt;Node7 -->
<g id="edge6_Node000001_Node000007" class="edge">
<title>Node1&#45;&gt;Node7</title>
<g id="a_edge6_Node000001_Node000007"><a xlink:title=" ">
<path fill="none" stroke="#63b8ff" d="M131.18,-147.72C139.53,-148.76 148.14,-149.83 156.67,-150.89"/>
<polygon fill="#63b8ff" stroke="#63b8ff" points="155.96,-154.33 166.31,-152.09 156.82,-147.39 155.96,-154.33"/>
</a>
</g>
</g>
<!-- Node13 -->
<g id="Node000013" class="node">
<title>Node13</title>
<g id="a_Node000013"><a xlink:href="classfcmaes_1_1advretry_1_1_store.html#aa5c9f7209b6bfb5bf079ad940a84eea4" target="_top" xlink:title="Sorts and updates stored data based on the given criteria.">
<polygon fill="white" stroke="#666666" points="302,-90.67 170.5,-90.67 170.5,-70.67 302,-70.67 302,-90.67"/>
<text text-anchor="middle" x="236.25" y="-77.17" font-family="Helvetica,sans-Serif" font-size="10.00">fcmaes.advretry.Store.sort</text>
</a>
</g>
</g>
<!-- Node1&#45;&gt;Node13 -->
<g id="edge13_Node000001_Node000013" class="edge">
<title>Node1&#45;&gt;Node13</title>
<g id="a_edge13_Node000001_Node000013"><a xlink:title=" ">
<path fill="none" stroke="#63b8ff" d="M113.42,-123.23C138.89,-114.33 170.06,-103.44 194.49,-94.91"/>
<polygon fill="#63b8ff" stroke="#63b8ff" points="195.48,-98.27 203.77,-91.66 193.17,-91.66 195.48,-98.27"/>
</a>
</g>
</g>
<!-- Node3 -->
<g id="Node000003" class="node">
<title>Node3</title>
<g id="a_Node000003"><a xlink:href="classfcmaes_1_1advretry_1_1_store.html#a3cc073975313c4893de761cfc9771d77" target="_top" xlink:title="Gets the stored y&#45;values up to the specified count.">
<polygon fill="white" stroke="#666666" points="674.5,-266.67 530.25,-266.67 530.25,-246.67 674.5,-246.67 674.5,-266.67"/>
<text text-anchor="middle" x="602.38" y="-253.17" font-family="Helvetica,sans-Serif" font-size="10.00">fcmaes.advretry.Store.get_ys</text>
</a>
</g>
</g>
<!-- Node2&#45;&gt;Node3 -->
<g id="edge2_Node000002_Node000003" class="edge">
<title>Node2&#45;&gt;Node3</title>
<g id="a_edge2_Node000002_Node000003"><a xlink:title=" ">
<path fill="none" stroke="#63b8ff" d="M306.17,-221.8C366.56,-228.94 454.47,-239.32 518.65,-246.9"/>
<polygon fill="#63b8ff" stroke="#63b8ff" points="518.1,-250.36 528.44,-248.05 518.92,-243.4 518.1,-250.36"/>
</a>
</g>
</g>
<!-- Node5 -->
<g id="Node000005" class="node">
<title>Node5</title>
<g id="a_Node000005"><a xlink:href="classfcmaes_1_1advretry_1_1_store.html#a732636cd5ab3c40b878ef2e0274b1d1b" target="_top" xlink:title="Sets a subset of the xs list for a specific process ID.">
<polygon fill="white" stroke="#666666" points="671.88,-52.67 532.88,-52.67 532.88,-32.67 671.88,-32.67 671.88,-52.67"/>
<text text-anchor="middle" x="602.38" y="-39.17" font-family="Helvetica,sans-Serif" font-size="10.00">fcmaes.advretry.Store.set_x</text>
</a>
</g>
</g>
<!-- Node4&#45;&gt;Node5 -->
<g id="edge4_Node000004_Node000005" class="edge">
<title>Node4&#45;&gt;Node5</title>
<g id="a_edge4_Node000004_Node000005"><a xlink:title=" ">
<path fill="none" stroke="#63b8ff" d="M475.47,-108.17C482.02,-105.87 488.44,-103.07 494.25,-99.67 514.32,-87.91 510.26,-73.56 530.25,-61.67 532.84,-60.13 535.55,-58.71 538.35,-57.4"/>
<polygon fill="#63b8ff" stroke="#63b8ff" points="539.41,-60.75 547.34,-53.73 536.76,-54.27 539.41,-60.75"/>
</a>
</g>
</g>
<!-- Node6 -->
<g id="Node000006" class="node">
<title>Node6</title>
<g id="a_Node000006"><a xlink:href="classfcmaes_1_1advretry_1_1_store.html#a12d96e54629b449293d2aabf5542ddc1" target="_top" xlink:title="Sets the value of y for a given pid within the &#39;ys&#39; mapping.">
<polygon fill="white" stroke="#666666" points="671.88,-90.67 532.88,-90.67 532.88,-70.67 671.88,-70.67 671.88,-90.67"/>
<text text-anchor="middle" x="602.38" y="-77.17" font-family="Helvetica,sans-Serif" font-size="10.00">fcmaes.advretry.Store.set_y</text>
</a>
</g>
</g>
<!-- Node4&#45;&gt;Node6 -->
<g id="edge5_Node000004_Node000006" class="edge">
<title>Node4&#45;&gt;Node6</title>
<g id="a_edge5_Node000004_Node000006"><a xlink:title=" ">
<path fill="none" stroke="#63b8ff" d="M469.32,-108.18C491.24,-103.61 517.15,-98.22 540.18,-93.42"/>
<polygon fill="#63b8ff" stroke="#63b8ff" points="540.66,-96.89 549.74,-91.42 539.24,-90.04 540.66,-96.89"/>
</a>
</g>
</g>
<!-- Node8 -->
<g id="Node000008" class="node">
<title>Node8</title>
<g id="a_Node000008"><a xlink:href="classfcmaes_1_1advretry_1_1_store.html#aabe26248085adae1ad80a9b17202e5b7" target="_top" xlink:title="Retrieves and aggregates data from various attributes and methods.">
<polygon fill="white" stroke="#666666" points="494.25,-172.67 341.75,-172.67 341.75,-152.67 494.25,-152.67 494.25,-172.67"/>
<text text-anchor="middle" x="418" y="-159.17" font-family="Helvetica,sans-Serif" font-size="10.00">fcmaes.advretry.Store.get_data</text>
</a>
</g>
</g>
<!-- Node7&#45;&gt;Node8 -->
<g id="edge7_Node000007_Node000008" class="edge">
<title>Node7&#45;&gt;Node8</title>
<g id="a_edge7_Node000007_Node000008"><a xlink:title=" ">
<path fill="none" stroke="#63b8ff" d="M304.69,-161.42C312.91,-161.51 321.4,-161.6 329.85,-161.7"/>
<polygon fill="#63b8ff" stroke="#63b8ff" points="329.78,-165.19 339.82,-161.81 329.86,-158.2 329.78,-165.19"/>
</a>
</g>
</g>
<!-- Node8&#45;&gt;Node3 -->
<g id="edge12_Node000008_Node000003" class="edge">
<title>Node8&#45;&gt;Node3</title>
<g id="a_edge12_Node000008_Node000003"><a xlink:title=" ">
<path fill="none" stroke="#63b8ff" d="M434.06,-173.01C463.24,-193.03 525.08,-235.31 530.25,-237.67 534.26,-239.49 538.48,-241.17 542.77,-242.7"/>
<polygon fill="#63b8ff" stroke="#63b8ff" points="541.52,-245.98 552.11,-245.77 543.7,-239.32 541.52,-245.98"/>
</a>
</g>
</g>
<!-- Node9 -->
<g id="Node000009" class="node">
<title>Node9</title>
<g id="a_Node000009"><a xlink:href="classfcmaes_1_1advretry_1_1_store.html#a95e2b65e516214df91625c67e4ebe558" target="_top" xlink:title="Returns a copy of the best solutions stored in the internal state.">
<polygon fill="white" stroke="#666666" points="666.62,-178.67 538.12,-178.67 538.12,-146.67 666.62,-146.67 666.62,-178.67"/>
<text text-anchor="start" x="546.12" y="-165.17" font-family="Helvetica,sans-Serif" font-size="10.00">fcmaes.advretry.Store.get</text>
<text text-anchor="middle" x="602.38" y="-153.17" font-family="Helvetica,sans-Serif" font-size="10.00">_x_best</text>
</a>
</g>
</g>
<!-- Node8&#45;&gt;Node9 -->
<g id="edge8_Node000008_Node000009" class="edge">
<title>Node8&#45;&gt;Node9</title>
<g id="a_edge8_Node000008_Node000009"><a xlink:title=" ">
<path fill="none" stroke="#63b8ff" d="M494.5,-162.67C505.07,-162.67 515.94,-162.67 526.51,-162.67"/>
<polygon fill="#63b8ff" stroke="#63b8ff" points="526.32,-166.17 536.32,-162.67 526.32,-159.17 526.32,-166.17"/>
</a>
</g>
</g>
<!-- Node10 -->
<g id="Node000010" class="node">
<title>Node10</title>
<g id="a_Node000010"><a xlink:href="classfcmaes_1_1advretry_1_1_store.html#a2df2e37a5663c3e12c22c4b97f2549a2" target="_top" xlink:title="Builds and returns an array of x values stored in the object.">
<polygon fill="white" stroke="#666666" points="674.5,-128.67 530.25,-128.67 530.25,-108.67 674.5,-108.67 674.5,-128.67"/>
<text text-anchor="middle" x="602.38" y="-115.17" font-family="Helvetica,sans-Serif" font-size="10.00">fcmaes.advretry.Store.get_xs</text>
</a>
</g>
</g>
<!-- Node8&#45;&gt;Node10 -->
<g id="edge9_Node000008_Node000010" class="edge">
<title>Node8&#45;&gt;Node10</title>
<g id="a_edge9_Node000008_Node000010"><a xlink:title=" ">
<path fill="none" stroke="#63b8ff" d="M462.22,-152.24C487.68,-146.1 520.11,-138.27 547.26,-131.72"/>
<polygon fill="#63b8ff" stroke="#63b8ff" points="547.78,-135.2 556.68,-129.45 546.14,-128.39 547.78,-135.2"/>
</a>
</g>
</g>
<!-- Node12 -->
<g id="Node000012" class="node">
<title>Node12</title>
<g id="a_Node000012"><a xlink:href="classfcmaes_1_1advretry_1_1_store.html#a801f488c7741c549ab3212f5ce52803a" target="_top" xlink:title="Returns the best value of y stored in the best_y attribute.">
<polygon fill="white" stroke="#666666" points="666.62,-228.67 538.12,-228.67 538.12,-196.67 666.62,-196.67 666.62,-228.67"/>
<text text-anchor="start" x="546.12" y="-215.17" font-family="Helvetica,sans-Serif" font-size="10.00">fcmaes.advretry.Store.get</text>
<text text-anchor="middle" x="602.38" y="-203.17" font-family="Helvetica,sans-Serif" font-size="10.00">_y_best</text>
</a>
</g>
</g>
<!-- Node8&#45;&gt;Node12 -->
<g id="edge11_Node000008_Node000012" class="edge">
<title>Node8&#45;&gt;Node12</title>
<g id="a_edge11_Node000008_Node000012"><a xlink:title=" ">
<path fill="none" stroke="#63b8ff" d="M457.23,-173.15C478.43,-178.96 505.47,-186.37 530.4,-193.21"/>
<polygon fill="#63b8ff" stroke="#63b8ff" points="529.27,-196.53 539.84,-195.79 531.12,-189.77 529.27,-196.53"/>
</a>
</g>
</g>
<!-- Node11 -->
<g id="Node000011" class="node">
<title>Node11</title>
<g id="a_Node000011"><a xlink:href="classfcmaes_1_1advretry_1_1_store.html#a97e407315b2e0c802b9d5b4414f3f91b" target="_top" xlink:title="Retrieves a segment of the xs array corresponding to the provided pid.">
<polygon fill="white" stroke="#666666" points="849.5,-71.67 710.5,-71.67 710.5,-51.67 849.5,-51.67 849.5,-71.67"/>
<text text-anchor="middle" x="780" y="-58.17" font-family="Helvetica,sans-Serif" font-size="10.00">fcmaes.advretry.Store.get_x</text>
</a>
</g>
</g>
<!-- Node10&#45;&gt;Node11 -->
<g id="edge10_Node000010_Node000011" class="edge">
<title>Node10&#45;&gt;Node11</title>
<g id="a_edge10_Node000010_Node000011"><a xlink:title=" ">
<path fill="none" stroke="#63b8ff" d="M644.92,-108.22C654.67,-105.59 664.99,-102.66 674.5,-99.67 696.92,-92.61 721.66,-83.67 741.44,-76.23"/>
<polygon fill="#63b8ff" stroke="#63b8ff" points="742.63,-79.52 750.74,-72.7 740.15,-72.97 742.63,-79.52"/>
</a>
</g>
</g>
<!-- Node13&#45;&gt;Node4 -->
<g id="edge17_Node000013_Node000004" class="edge">
<title>Node13&#45;&gt;Node4</title>
<g id="a_edge17_Node000013_Node000004"><a xlink:title=" ">
<path fill="none" stroke="#63b8ff" d="M286.84,-91.15C308.36,-95.7 333.75,-101.07 356.37,-105.85"/>
<polygon fill="#63b8ff" stroke="#63b8ff" points="355.58,-109.26 366.09,-107.9 357.03,-102.41 355.58,-109.26"/>
</a>
</g>
</g>
<!-- Node13&#45;&gt;Node11 -->
<g id="edge15_Node000013_Node000011" class="edge">
<title>Node13&#45;&gt;Node11</title>
<g id="a_edge15_Node000013_Node000011"><a xlink:title=" ">
<path fill="none" stroke="#63b8ff" d="M250.84,-70.31C269.92,-56.49 306.31,-32.7 341.75,-23.67 485.05,12.88 528.85,1.99 674.5,-23.67 699.52,-28.07 726.44,-37.99 746.69,-46.59"/>
<polygon fill="#63b8ff" stroke="#63b8ff" points="745.25,-49.78 755.81,-50.59 748.05,-43.37 745.25,-49.78"/>
</a>
</g>
</g>
<!-- Node14 -->
<g id="Node000014" class="node">
<title>Node14</title>
<g id="a_Node000014"><a xlink:href="classfcmaes_1_1advretry_1_1_store.html#a00ab052ea8b184b7344875122481b623" target="_top" xlink:title="Calculates the normalized distance between two points in a Euclidean space.">
<polygon fill="white" stroke="#666666" points="493.88,-52.67 342.12,-52.67 342.12,-32.67 493.88,-32.67 493.88,-52.67"/>
<text text-anchor="middle" x="418" y="-39.17" font-family="Helvetica,sans-Serif" font-size="10.00">fcmaes.advretry.Store.distance</text>
</a>
</g>
</g>
<!-- Node13&#45;&gt;Node14 -->
<g id="edge14_Node000013_Node000014" class="edge">
<title>Node13&#45;&gt;Node14</title>
<g id="a_edge14_Node000013_Node000014"><a xlink:title=" ">
<path fill="none" stroke="#63b8ff" d="M286.84,-70.18C308.36,-65.63 333.75,-60.26 356.37,-55.48"/>
<polygon fill="#63b8ff" stroke="#63b8ff" points="357.03,-58.92 366.09,-53.43 355.58,-52.07 357.03,-58.92"/>
</a>
</g>
</g>
<!-- Node15 -->
<g id="Node000015" class="node">
<title>Node15</title>
<g id="a_Node000015"><a xlink:href="classfcmaes_1_1advretry_1_1_store.html#a907617cde0def7276f1f609d7690335f" target="_top" xlink:title="Fetches a value for a given ID from a dictionary of float values.">
<polygon fill="white" stroke="#666666" points="487.5,-90.67 348.5,-90.67 348.5,-70.67 487.5,-70.67 487.5,-90.67"/>
<text text-anchor="middle" x="418" y="-77.17" font-family="Helvetica,sans-Serif" font-size="10.00">fcmaes.advretry.Store.get_y</text>
</a>
</g>
</g>
<!-- Node13&#45;&gt;Node15 -->
<g id="edge16_Node000013_Node000015" class="edge">
<title>Node13&#45;&gt;Node15</title>
<g id="a_edge16_Node000013_Node000015"><a xlink:title=" ">
<path fill="none" stroke="#63b8ff" d="M302.4,-80.67C313.55,-80.67 325.25,-80.67 336.74,-80.67"/>
<polygon fill="#63b8ff" stroke="#63b8ff" points="336.62,-84.17 346.62,-80.67 336.62,-77.17 336.62,-84.17"/>
</a>
</g>
</g>
</g>
</svg>

<g id="navigator" transform="translate(0 0)" fill="#404254">
  <rect fill="#f2f5e9" fill-opacity="0.5" stroke="#606060" stroke-width=".5" x="0" y="0" width="60" height="60"/>
  <use id="zoomplus" xlink:href="#zoomPlus" x="17" y="9" onmousedown="handleZoom(evt,'in')"/>
  <use id="zoomminus" xlink:href="#zoomMin" x="42" y="9" onmousedown="handleZoom(evt,'out')"/>
  <use id="reset" xlink:href="#resetDef" x="30" y="36" onmousedown="handleReset()"/>
   <use id="arrowup" xlink:href="#arrowUp" x="0" y="0" onmousedown="handlePan(0,-1)"/>
  <use id="arrowright" xlink:href="#arrowRight" x="0" y="0" onmousedown="handlePan(1,0)"/>
  <use id="arrowdown" xlink:href="#arrowDown" x="0" y="0" onmousedown="handlePan(0,1)"/>
  <use id="arrowleft" xlink:href="#arrowLeft" x="0" y="0" onmousedown="handlePan(-1,0)"/>
</g>
<svg viewBox="0 0 15 15" width="100%" height="30px" preserveAspectRatio="xMaxYMin meet">
 <g id="arrow_out" transform="scale(0.3 0.3)">
  <a xlink:href="classfcmaes_1_1advretry_1_1_store_a7dfa5440d1d295083cef68ea37be60fe_cgraph_org.svg" target="_base">
   <rect id="button" ry="5" rx="5" y="6" x="6" height="38" width="38"
        fill="#f2f5e9" fill-opacity="0.5" stroke="#606060" stroke-width="1.0"/>
   <path id="arrow"
     d="M 11.500037,31.436501 C 11.940474,20.09759 22.043105,11.32322 32.158766,21.979434 L 37.068811,17.246167 C 37.068811,17.246167 37.088388,32 37.088388,32 L 22.160133,31.978069 C 22.160133,31.978069 26.997745,27.140456 26.997745,27.140456 C 18.528582,18.264221 13.291696,25.230495 11.500037,31.436501 z"
     style="fill:#404040;"/>
  </a>
 </g>
</svg>

<style type='text/css'>
<![CDATA[
[data-mouse-over-selected='false'] { opacity: 0.7; }
[data-mouse-over-selected='true']  { opacity: 1.0; }
]]>
</style>
<script type="application/ecmascript"><![CDATA[
document.addEventListener('DOMContentLoaded', (event) => {
  highlightEdges();
  highlightAdjacentNodes();
});
]]></script>
</svg>
