<?xml version="1.0" encoding="UTF-8" standalone="no"?>
<!DOCTYPE svg PUBLIC "-//W3C//DTD SVG 1.1//EN"
 "http://www.w3.org/Graphics/SVG/1.1/DTD/svg11.dtd">
<!-- Generated by graphviz version 12.2.1 (20241206.2353)
 -->
<!-- Title: CNMSeqOpt::init Pages: 1 -->
<svg width="506pt" height="166pt"
 viewBox="0.00 0.00 506.25 166.00" xmlns="http://www.w3.org/2000/svg" xmlns:xlink="http://www.w3.org/1999/xlink">
<g id="graph0" class="graph" transform="scale(1 1) rotate(0) translate(4 162)">
<title>CNMSeqOpt::init</title>
<!-- Node1 -->
<g id="Node000001" class="node">
<title>Node1</title>
<g id="a_Node000001"><a xlink:title=" ">
<polygon fill="#999999" stroke="#666666" points="91,-89 0,-89 0,-69 91,-69 91,-89"/>
<text text-anchor="middle" x="45.5" y="-75.5" font-family="Helvetica,sans-Serif" font-size="10.00">CNMSeqOpt::init</text>
</a>
</g>
</g>
<!-- Node2 -->
<g id="Node000002" class="node">
<title>Node2</title>
<g id="a_Node000002"><a xlink:href="class_c_bite_pop.html#a24130fea35014433f142e3b9ed0f8929" target="_top" xlink:title=" ">
<polygon fill="white" stroke="#666666" points="239,-158 134.5,-158 134.5,-126 239,-126 239,-158"/>
<text text-anchor="start" x="142.5" y="-144.5" font-family="Helvetica,sans-Serif" font-size="10.00">CBitePop&lt; double &gt;</text>
<text text-anchor="middle" x="186.75" y="-132.5" font-family="Helvetica,sans-Serif" font-size="10.00">::copyParams</text>
</a>
</g>
</g>
<!-- Node1&#45;&gt;Node2 -->
<g id="edge1_Node000001_Node000002" class="edge">
<title>Node1&#45;&gt;Node2</title>
<g id="a_edge1_Node000001_Node000002"><a xlink:title=" ">
<path fill="none" stroke="#63b8ff" d="M69.49,-89.4C88.32,-97.92 115.56,-110.24 138.94,-120.82"/>
<polygon fill="#63b8ff" stroke="#63b8ff" points="137.43,-123.98 147.99,-124.91 140.32,-117.6 137.43,-123.98"/>
</a>
</g>
</g>
<!-- Node3 -->
<g id="Node000003" class="node">
<title>Node3</title>
<g id="a_Node000003"><a xlink:href="class_c_bite_rnd.html#afdb77334884f1a612780def0dec0a326" target="_top" xlink:title=" ">
<polygon fill="white" stroke="#666666" points="360.75,-89 282.5,-89 282.5,-69 360.75,-69 360.75,-89"/>
<text text-anchor="middle" x="321.62" y="-75.5" font-family="Helvetica,sans-Serif" font-size="10.00">CBiteRnd::get</text>
</a>
</g>
</g>
<!-- Node1&#45;&gt;Node3 -->
<g id="edge2_Node000001_Node000003" class="edge">
<title>Node1&#45;&gt;Node3</title>
<g id="a_edge2_Node000001_Node000003"><a xlink:title=" ">
<path fill="none" stroke="#63b8ff" d="M91.46,-79C140.78,-79 219.71,-79 270.86,-79"/>
<polygon fill="#63b8ff" stroke="#63b8ff" points="270.77,-82.5 280.77,-79 270.77,-75.5 270.77,-82.5"/>
</a>
</g>
</g>
<!-- Node5 -->
<g id="Node000005" class="node">
<title>Node5</title>
<g id="a_Node000005"><a xlink:href="class_c_bite_rnd.html#a3f6c22ff1f6f19de24f7c837530f31c4" target="_top" xlink:title=" ">
<polygon fill="white" stroke="#666666" points="246.5,-70 127,-70 127,-50 246.5,-50 246.5,-70"/>
<text text-anchor="middle" x="186.75" y="-56.5" font-family="Helvetica,sans-Serif" font-size="10.00">CBiteRnd::getGaussian</text>
</a>
</g>
</g>
<!-- Node1&#45;&gt;Node5 -->
<g id="edge4_Node000001_Node000005" class="edge">
<title>Node1&#45;&gt;Node5</title>
<g id="a_edge4_Node000001_Node000005"><a xlink:title=" ">
<path fill="none" stroke="#63b8ff" d="M91.33,-72.88C99.03,-71.83 107.21,-70.72 115.39,-69.6"/>
<polygon fill="#63b8ff" stroke="#63b8ff" points="115.59,-73.11 125.02,-68.29 114.64,-66.17 115.59,-73.11"/>
</a>
</g>
</g>
<!-- Node6 -->
<g id="Node000006" class="node">
<title>Node6</title>
<g id="a_Node000006"><a xlink:href="class_c_bite_opt_base.html#a768362da5c773eea5a8649d44676eeed" target="_top" xlink:title=" ">
<polygon fill="white" stroke="#666666" points="245,-32 128.5,-32 128.5,0 245,0 245,-32"/>
<text text-anchor="start" x="136.5" y="-18.5" font-family="Helvetica,sans-Serif" font-size="10.00">CBiteOptBase&lt; double</text>
<text text-anchor="middle" x="186.75" y="-6.5" font-family="Helvetica,sans-Serif" font-size="10.00"> &gt;::initCommonVars</text>
</a>
</g>
</g>
<!-- Node1&#45;&gt;Node6 -->
<g id="edge6_Node000001_Node000006" class="edge">
<title>Node1&#45;&gt;Node6</title>
<g id="a_edge6_Node000001_Node000006"><a xlink:title=" ">
<path fill="none" stroke="#63b8ff" d="M67.92,-68.61C84.08,-60.84 106.84,-50.05 127,-41 129.94,-39.68 132.97,-38.34 136.03,-37"/>
<polygon fill="#63b8ff" stroke="#63b8ff" points="137.3,-40.26 145.08,-33.07 134.52,-33.84 137.3,-40.26"/>
</a>
</g>
</g>
<!-- Node4 -->
<g id="Node000004" class="node">
<title>Node4</title>
<g id="a_Node000004"><a xlink:href="class_c_bite_rnd.html#ae1167f8ecac85f268ced4bc1d2fa953b" target="_top" xlink:title=" ">
<polygon fill="white" stroke="#666666" points="498.25,-89 396.75,-89 396.75,-69 498.25,-69 498.25,-89"/>
<text text-anchor="middle" x="447.5" y="-75.5" font-family="Helvetica,sans-Serif" font-size="10.00">CBiteRnd::advance</text>
</a>
</g>
</g>
<!-- Node3&#45;&gt;Node4 -->
<g id="edge3_Node000003_Node000004" class="edge">
<title>Node3&#45;&gt;Node4</title>
<g id="a_edge3_Node000003_Node000004"><a xlink:title=" ">
<path fill="none" stroke="#63b8ff" d="M361.14,-79C368.77,-79 376.95,-79 385.12,-79"/>
<polygon fill="#63b8ff" stroke="#63b8ff" points="385.09,-82.5 395.09,-79 385.09,-75.5 385.09,-82.5"/>
</a>
</g>
</g>
<!-- Node5&#45;&gt;Node3 -->
<g id="edge5_Node000005_Node000003" class="edge">
<title>Node5&#45;&gt;Node3</title>
<g id="a_edge5_Node000005_Node000003"><a xlink:title=" ">
<path fill="none" stroke="#63b8ff" d="M246.8,-68.44C254.91,-69.6 263.16,-70.78 271.07,-71.91"/>
<polygon fill="#63b8ff" stroke="#63b8ff" points="270.46,-75.36 280.86,-73.31 271.45,-68.43 270.46,-75.36"/>
</a>
</g>
</g>
</g>
</svg>
