<?xml version="1.0" encoding="UTF-8" standalone="no"?>
<!DOCTYPE svg PUBLIC "-//W3C//DTD SVG 1.1//EN"
 "http://www.w3.org/Graphics/SVG/1.1/DTD/svg11.dtd">
<!-- Generated by graphviz version 12.2.1 (20241206.2353)
 -->
<!-- Title: CBiteOrt::eigen Pages: 1 -->
<svg width="335pt" height="85pt"
 viewBox="0.00 0.00 335.00 85.00" xmlns="http://www.w3.org/2000/svg" xmlns:xlink="http://www.w3.org/1999/xlink">

<svg id="main" version="1.1" xmlns="http://www.w3.org/2000/svg" xmlns:xlink="http://www.w3.org/1999/xlink" xml:space="preserve">

<style type="text/css"><![CDATA[
.node, .edge {opacity: 0.7;}
.node.selected, .edge.selected {opacity: 1;}
.edge:hover path { stroke: red; }
.edge:hover polygon { stroke: red; fill: red; }
]]></style>
<script type="application/ecmascript" xlink:href="svg.min.js"/>
<svg id="graph" class="graph">
<g id="graph0" class="graph" transform="scale(1 1) rotate(0) translate(4 81)">
<title>CBiteOrt::eigen</title>
<!-- Node1 -->
<g id="Node000001" class="node">
<title>Node1</title>
<g id="a_Node000001"><a xlink:title=" ">
<polygon fill="#999999" stroke="#666666" points="83.5,-39 0,-39 0,-19 83.5,-19 83.5,-39"/>
<text text-anchor="middle" x="41.75" y="-25.5" font-family="Helvetica,sans-Serif" font-size="10.00">CBiteOrt::eigen</text>
</a>
</g>
</g>
<!-- Node2 -->
<g id="Node000002" class="node">
<title>Node2</title>
<g id="a_Node000002"><a xlink:href="class_c_bite_ort.html#a33285821015e487d6c933ed1d6385144" target="_top" xlink:title=" ">
<polygon fill="white" stroke="#666666" points="198.5,-58 122.5,-58 122.5,-38 198.5,-38 198.5,-58"/>
<text text-anchor="middle" x="160.5" y="-44.5" font-family="Helvetica,sans-Serif" font-size="10.00">CBiteOrt::tql2</text>
</a>
</g>
</g>
<!-- Node1&#45;&gt;Node2 -->
<g id="edge1_Node000001_Node000002" class="edge">
<title>Node1&#45;&gt;Node2</title>
<g id="a_edge1_Node000001_Node000002"><a xlink:title=" ">
<path fill="none" stroke="#63b8ff" d="M83.91,-35.7C92.68,-37.13 102.02,-38.65 111.04,-40.11"/>
<polygon fill="#63b8ff" stroke="#63b8ff" points="110.29,-43.54 120.72,-41.69 111.41,-36.63 110.29,-43.54"/>
</a>
</g>
</g>
<!-- Node5 -->
<g id="Node000005" class="node">
<title>Node5</title>
<g id="a_Node000005"><a xlink:href="class_c_bite_ort.html#a5415d9c622dbc0b03f32c0f105a9169a" target="_top" xlink:title=" ">
<polygon fill="white" stroke="#666666" points="201.5,-20 119.5,-20 119.5,0 201.5,0 201.5,-20"/>
<text text-anchor="middle" x="160.5" y="-6.5" font-family="Helvetica,sans-Serif" font-size="10.00">CBiteOrt::tred2</text>
</a>
</g>
</g>
<!-- Node1&#45;&gt;Node5 -->
<g id="edge4_Node000001_Node000005" class="edge">
<title>Node1&#45;&gt;Node5</title>
<g id="a_edge4_Node000001_Node000005"><a xlink:title=" ">
<path fill="none" stroke="#63b8ff" d="M83.91,-22.3C91.68,-21.04 99.89,-19.7 107.92,-18.39"/>
<polygon fill="#63b8ff" stroke="#63b8ff" points="108.3,-21.88 117.61,-16.82 107.18,-14.97 108.3,-21.88"/>
</a>
</g>
</g>
<!-- Node3 -->
<g id="Node000003" class="node">
<title>Node3</title>
<g id="a_Node000003"><a xlink:href="class_c_bite_ort.html#a5196abda80a361c2d6f40a9a79773123" target="_top" xlink:title=" ">
<polygon fill="white" stroke="#666666" points="327,-77 237.5,-77 237.5,-57 327,-57 327,-77"/>
<text text-anchor="middle" x="282.25" y="-63.5" font-family="Helvetica,sans-Serif" font-size="10.00">CBiteOrt::hypot_</text>
</a>
</g>
</g>
<!-- Node2&#45;&gt;Node3 -->
<g id="edge2_Node000002_Node000003" class="edge">
<title>Node2&#45;&gt;Node3</title>
<g id="a_edge2_Node000002_Node000003"><a xlink:title=" ">
<path fill="none" stroke="#63b8ff" d="M198.73,-53.91C207.42,-55.29 216.86,-56.78 226.14,-58.26"/>
<polygon fill="#63b8ff" stroke="#63b8ff" points="225.4,-61.68 235.83,-59.79 226.5,-54.77 225.4,-61.68"/>
</a>
</g>
</g>
<!-- Node4 -->
<g id="Node000004" class="node">
<title>Node4</title>
<g id="a_Node000004"><a xlink:href="class_c_bite_ort.html#a1e68e963eb443af650525cd0d58ba57a" target="_top" xlink:title=" ">
<polygon fill="white" stroke="#666666" points="324.38,-39 240.12,-39 240.12,-19 324.38,-19 324.38,-39"/>
<text text-anchor="middle" x="282.25" y="-25.5" font-family="Helvetica,sans-Serif" font-size="10.00">CBiteOrt::max_</text>
</a>
</g>
</g>
<!-- Node2&#45;&gt;Node4 -->
<g id="edge3_Node000002_Node000004" class="edge">
<title>Node2&#45;&gt;Node4</title>
<g id="a_edge3_Node000002_Node000004"><a xlink:title=" ">
<path fill="none" stroke="#63b8ff" d="M198.73,-42.09C208.21,-40.59 218.58,-38.94 228.66,-37.34"/>
<polygon fill="#63b8ff" stroke="#63b8ff" points="229.05,-40.83 238.37,-35.8 227.95,-33.91 229.05,-40.83"/>
</a>
</g>
</g>
</g>
</svg>
</svg>

<style type='text/css'>
<![CDATA[
[data-mouse-over-selected='false'] { opacity: 0.7; }
[data-mouse-over-selected='true']  { opacity: 1.0; }
]]>
</style>
<script type="application/ecmascript"><![CDATA[
document.addEventListener('DOMContentLoaded', (event) => {
  highlightEdges();
  highlightAdjacentNodes();
});
]]></script>
</svg>
