<?xml version="1.0" encoding="UTF-8" standalone="no"?>
<!DOCTYPE svg PUBLIC "-//W3C//DTD SVG 1.1//EN"
 "http://www.w3.org/Graphics/SVG/1.1/DTD/svg11.dtd">
<!-- Generated by graphviz version 12.2.1 (20241206.2353)
 -->
<!-- Title: crmfnes::CrfmnesOptimizer::cexp Pages: 1 -->
<!--zoomable 166 -->

<svg id="main" version="1.1" xmlns="http://www.w3.org/2000/svg" xmlns:xlink="http://www.w3.org/1999/xlink" xml:space="preserve" onload="init(evt)">

<style type="text/css"><![CDATA[
.node, .edge {opacity: 0.7;}
.node.selected, .edge.selected {opacity: 1;}
.edge:hover path { stroke: red; }
.edge:hover polygon { stroke: red; fill: red; }
]]></style>

<defs>
  <circle id="rim" cx="0" cy="0" r="7"/>
  <circle id="rim2" cx="0" cy="0" r="3.5"/>
  <g id="zoomPlus">
    <use xlink:href="#rim" fill="#404040"><set attributeName="fill" to="#808080" begin="zoomplus.mouseover" end="zoomplus.mouseout"/></use>
    <path d="M-4,0h8M0,-4v8" fill="none" stroke="white" stroke-width="1.5" pointer-events="none"/>
  </g>
  <g id="zoomMin">
    <use xlink:href="#rim" fill="#404040"><set attributeName="fill" to="#808080" begin="zoomminus.mouseover" end="zoomminus.mouseout"/></use>
    <path d="M-4,0h8" fill="none" stroke="white" stroke-width="1.5" pointer-events="none"/>
  </g>
  <g id="arrowUp" transform="translate(30 24)">
    <use xlink:href="#rim"/>
    <path pointer-events="none" fill="none" stroke="white" stroke-width="1.5" d="M0,-3.0v7 M-2.5,-0.5L0,-3.0L2.5,-0.5"/>
  </g>
  <g id="arrowRight" transform="rotate(90) translate(36 -43)">
    <use xlink:href="#rim"/>
    <path pointer-events="none" fill="none" stroke="white" stroke-width="1.5" d="M0,-3.0v7 M-2.5,-0.5L0,-3.0L2.5,-0.5"/>
  </g>
  <g id="arrowDown" transform="rotate(180) translate(-30 -48)">
    <use xlink:href="#rim"/>
    <path pointer-events="none" fill="none" stroke="white" stroke-width="1.5" d="M0,-3.0v7 M-2.5,-0.5L0,-3.0L2.5,-0.5"/>
  </g>
  <g id="arrowLeft" transform="rotate(270) translate(-36 17)">
    <use xlink:href="#rim"/>
    <path pointer-events="none" fill="none" stroke="white" stroke-width="1.5" d="M0,-3.0v7 M-2.5,-0.5L0,-3.0L2.5,-0.5"/>
  </g>
  <g id="resetDef">
    <use xlink:href="#rim2" fill="#404040"><set attributeName="fill" to="#808080" begin="reset.mouseover" end="reset.mouseout"/></use>
  </g>
</defs>
<script type="application/ecmascript">
var viewWidth = 672;
var viewHeight = 166;
var sectionId = 'dynsection-6';
</script>
<script type="application/ecmascript" xlink:href="svg.min.js"/>
<svg id="graph" class="graph">
<g id="viewport">
<title>crmfnes::CrfmnesOptimizer::cexp</title>
<!-- Node1 -->
<g id="Node000001" class="node">
<title>Node1</title>
<g id="a_Node000001"><a xlink:title=" ">
<polygon fill="#999999" stroke="#666666" points="664,-98 527.25,-98 527.25,-66 664,-66 664,-98"/>
<text text-anchor="start" x="535.25" y="-84.5" font-family="Helvetica,sans-Serif" font-size="10.00">crmfnes::CrfmnesOptimizer</text>
<text text-anchor="middle" x="595.62" y="-72.5" font-family="Helvetica,sans-Serif" font-size="10.00">::cexp</text>
</a>
</g>
</g>
<!-- Node2 -->
<g id="Node000002" class="node">
<title>Node2</title>
<g id="a_Node000002"><a xlink:href="classcrmfnes_1_1_crfmnes_optimizer.html#a8f9c2b6e89e25a5c3e0d50a8eb4011be" target="_top" xlink:title=" ">
<polygon fill="white" stroke="#666666" points="491.25,-158 345.5,-158 345.5,-138 491.25,-138 491.25,-158"/>
<text text-anchor="middle" x="418.38" y="-144.5" font-family="Helvetica,sans-Serif" font-size="10.00">crmfnes::CrfmnesOptimizer::f</text>
</a>
</g>
</g>
<!-- Node1&#45;&gt;Node2 -->
<g id="edge1_Node000001_Node000002" class="edge">
<title>Node1&#45;&gt;Node2</title>
<g id="a_edge1_Node000001_Node000002"><a xlink:title=" ">
<path fill="none" stroke="#63b8ff" d="M551.79,-103.43C533.44,-112.1 511.58,-121.75 491.25,-129 482.5,-132.12 472.98,-134.99 463.83,-137.5"/>
<polygon fill="#63b8ff" stroke="#63b8ff" points="553.28,-106.6 560.79,-99.12 550.26,-100.29 553.28,-106.6"/>
</a>
</g>
</g>
<!-- Node5 -->
<g id="Node000005" class="node">
<title>Node5</title>
<g id="a_Node000005"><a xlink:href="classcrmfnes_1_1_crfmnes_optimizer.html#a7f306ac3a58b6ed9f29babc44fbe466b" target="_top" xlink:title=" ">
<polygon fill="white" stroke="#666666" points="486.75,-120 350,-120 350,-88 486.75,-88 486.75,-120"/>
<text text-anchor="start" x="358" y="-106.5" font-family="Helvetica,sans-Serif" font-size="10.00">crmfnes::CrfmnesOptimizer</text>
<text text-anchor="middle" x="418.38" y="-94.5" font-family="Helvetica,sans-Serif" font-size="10.00">::f_prime</text>
</a>
</g>
</g>
<!-- Node1&#45;&gt;Node5 -->
<g id="edge4_Node000001_Node000005" class="edge">
<title>Node1&#45;&gt;Node5</title>
<g id="a_edge4_Node000001_Node000005"><a xlink:title=" ">
<path fill="none" stroke="#63b8ff" d="M515.47,-91.94C506.04,-93.12 496.49,-94.32 487.24,-95.48"/>
<polygon fill="#63b8ff" stroke="#63b8ff" points="515.88,-95.41 525.37,-90.69 515.01,-88.47 515.88,-95.41"/>
</a>
</g>
</g>
<!-- Node6 -->
<g id="Node000006" class="node">
<title>Node6</title>
<g id="a_Node000006"><a xlink:href="classcrmfnes_1_1_crfmnes_optimizer.html#aae1806b3f5cca0f2f27363c38c83a836" target="_top" xlink:title=" ">
<polygon fill="white" stroke="#666666" points="309.5,-63 172.75,-63 172.75,-31 309.5,-31 309.5,-63"/>
<text text-anchor="start" x="180.75" y="-49.5" font-family="Helvetica,sans-Serif" font-size="10.00">crmfnes::CrfmnesOptimizer</text>
<text text-anchor="middle" x="241.12" y="-37.5" font-family="Helvetica,sans-Serif" font-size="10.00">::tell</text>
</a>
</g>
</g>
<!-- Node1&#45;&gt;Node6 -->
<g id="edge6_Node000001_Node000006" class="edge">
<title>Node1&#45;&gt;Node6</title>
<g id="a_edge6_Node000001_Node000006"><a xlink:title=" ">
<path fill="none" stroke="#63b8ff" d="M515.8,-74.17C453.88,-68.03 368.58,-59.56 309.74,-53.71"/>
<polygon fill="#63b8ff" stroke="#63b8ff" points="515.27,-77.64 525.57,-75.14 515.97,-70.67 515.27,-77.64"/>
</a>
</g>
</g>
<!-- Node8 -->
<g id="Node000008" class="node">
<title>Node8</title>
<g id="a_Node000008"><a xlink:href="classcrmfnes_1_1_crfmnes_optimizer.html#ad0e305a53657d5e357d198610c0c21e3" target="_top" xlink:title=" ">
<polygon fill="white" stroke="#666666" points="486.75,-32 350,-32 350,0 486.75,0 486.75,-32"/>
<text text-anchor="start" x="358" y="-18.5" font-family="Helvetica,sans-Serif" font-size="10.00">crmfnes::CrfmnesOptimizer</text>
<text text-anchor="middle" x="418.38" y="-6.5" font-family="Helvetica,sans-Serif" font-size="10.00">::w_dist_hat</text>
</a>
</g>
</g>
<!-- Node1&#45;&gt;Node8 -->
<g id="edge8_Node000001_Node000008" class="edge">
<title>Node1&#45;&gt;Node8</title>
<g id="a_edge8_Node000001_Node000008"><a xlink:title=" ">
<path fill="none" stroke="#63b8ff" d="M540.13,-61.48C515.27,-52.12 486.25,-41.19 462.89,-32.39"/>
<polygon fill="#63b8ff" stroke="#63b8ff" points="538.85,-64.73 549.44,-64.98 541.31,-58.18 538.85,-64.73"/>
</a>
</g>
</g>
<!-- Node3 -->
<g id="Node000003" class="node">
<title>Node3</title>
<g id="a_Node000003"><a xlink:href="classcrmfnes_1_1_crfmnes_optimizer.html#af30c10c32f611845931c3a8dc034874f" target="_top" xlink:title=" ">
<polygon fill="white" stroke="#666666" points="309.5,-132 172.75,-132 172.75,-100 309.5,-100 309.5,-132"/>
<text text-anchor="start" x="180.75" y="-118.5" font-family="Helvetica,sans-Serif" font-size="10.00">crmfnes::CrfmnesOptimizer</text>
<text text-anchor="middle" x="241.12" y="-106.5" font-family="Helvetica,sans-Serif" font-size="10.00">::get_h_inv</text>
</a>
</g>
</g>
<!-- Node2&#45;&gt;Node3 -->
<g id="edge2_Node000002_Node000003" class="edge">
<title>Node2&#45;&gt;Node3</title>
<g id="a_edge2_Node000002_Node000003"><a xlink:title=" ">
<path fill="none" stroke="#63b8ff" d="M348.86,-135.49C335.99,-133.14 322.54,-130.68 309.7,-128.34"/>
<polygon fill="#63b8ff" stroke="#63b8ff" points="348.04,-138.9 358.5,-137.25 349.29,-132.01 348.04,-138.9"/>
</a>
</g>
</g>
<!-- Node4 -->
<g id="Node000004" class="node">
<title>Node4</title>
<g id="a_Node000004"><a xlink:href="classcrmfnes_1_1_crfmnes_optimizer.html#a05253e344b7c87ba83627a8b15bf384b" target="_top" xlink:title=" ">
<polygon fill="white" stroke="#666666" points="136.75,-132 0,-132 0,-100 136.75,-100 136.75,-132"/>
<text text-anchor="start" x="8" y="-118.5" font-family="Helvetica,sans-Serif" font-size="10.00">crmfnes::CrfmnesOptimizer</text>
<text text-anchor="middle" x="68.38" y="-106.5" font-family="Helvetica,sans-Serif" font-size="10.00">::CrfmnesOptimizer</text>
</a>
</g>
</g>
<!-- Node3&#45;&gt;Node4 -->
<g id="edge3_Node000003_Node000004" class="edge">
<title>Node3&#45;&gt;Node4</title>
<g id="a_edge3_Node000003_Node000004"><a xlink:title=" ">
<path fill="none" stroke="#63b8ff" d="M161.33,-116C153.27,-116 145.13,-116 137.21,-116"/>
<polygon fill="#63b8ff" stroke="#63b8ff" points="161.13,-119.5 171.13,-116 161.13,-112.5 161.13,-119.5"/>
</a>
</g>
</g>
<!-- Node5&#45;&gt;Node3 -->
<g id="edge5_Node000005_Node000003" class="edge">
<title>Node5&#45;&gt;Node3</title>
<g id="a_edge5_Node000005_Node000003"><a xlink:title=" ">
<path fill="none" stroke="#63b8ff" d="M338.22,-109.42C328.79,-110.07 319.24,-110.72 309.99,-111.35"/>
<polygon fill="#63b8ff" stroke="#63b8ff" points="338.37,-112.92 348.11,-108.74 337.89,-105.93 338.37,-112.92"/>
</a>
</g>
</g>
<!-- Node7 -->
<g id="Node000007" class="node">
<title>Node7</title>
<g id="a_Node000007"><a xlink:href="classcrmfnes_1_1_crfmnes_optimizer.html#aa451fe19e5c4b4617099daf96ed4d171" target="_top" xlink:title=" ">
<polygon fill="white" stroke="#666666" points="136.75,-63 0,-63 0,-31 136.75,-31 136.75,-63"/>
<text text-anchor="start" x="8" y="-49.5" font-family="Helvetica,sans-Serif" font-size="10.00">crmfnes::CrfmnesOptimizer</text>
<text text-anchor="middle" x="68.38" y="-37.5" font-family="Helvetica,sans-Serif" font-size="10.00">::doOptimize</text>
</a>
</g>
</g>
<!-- Node6&#45;&gt;Node7 -->
<g id="edge7_Node000006_Node000007" class="edge">
<title>Node6&#45;&gt;Node7</title>
<g id="a_edge7_Node000006_Node000007"><a xlink:title=" ">
<path fill="none" stroke="#63b8ff" d="M161.33,-47C153.27,-47 145.13,-47 137.21,-47"/>
<polygon fill="#63b8ff" stroke="#63b8ff" points="161.13,-50.5 171.13,-47 161.13,-43.5 161.13,-50.5"/>
</a>
</g>
</g>
<!-- Node8&#45;&gt;Node6 -->
<g id="edge9_Node000008_Node000006" class="edge">
<title>Node8&#45;&gt;Node6</title>
<g id="a_edge9_Node000008_Node000006"><a xlink:title=" ">
<path fill="none" stroke="#63b8ff" d="M338.53,-29.95C329,-31.63 319.34,-33.34 309.99,-35"/>
<polygon fill="#63b8ff" stroke="#63b8ff" points="338.89,-33.44 348.13,-28.25 337.67,-26.54 338.89,-33.44"/>
</a>
</g>
</g>
</g>
</svg>

<g id="navigator" transform="translate(0 0)" fill="#404254">
  <rect fill="#f2f5e9" fill-opacity="0.5" stroke="#606060" stroke-width=".5" x="0" y="0" width="60" height="60"/>
  <use id="zoomplus" xlink:href="#zoomPlus" x="17" y="9" onmousedown="handleZoom(evt,'in')"/>
  <use id="zoomminus" xlink:href="#zoomMin" x="42" y="9" onmousedown="handleZoom(evt,'out')"/>
  <use id="reset" xlink:href="#resetDef" x="30" y="36" onmousedown="handleReset()"/>
   <use id="arrowup" xlink:href="#arrowUp" x="0" y="0" onmousedown="handlePan(0,-1)"/>
  <use id="arrowright" xlink:href="#arrowRight" x="0" y="0" onmousedown="handlePan(1,0)"/>
  <use id="arrowdown" xlink:href="#arrowDown" x="0" y="0" onmousedown="handlePan(0,1)"/>
  <use id="arrowleft" xlink:href="#arrowLeft" x="0" y="0" onmousedown="handlePan(-1,0)"/>
</g>
<svg viewBox="0 0 15 15" width="100%" height="30px" preserveAspectRatio="xMaxYMin meet">
 <g id="arrow_out" transform="scale(0.3 0.3)">
  <a xlink:href="classcrmfnes_1_1_crfmnes_optimizer_a1c0bc5770261a21ed819387c339b3c05_icgraph_org.svg" target="_base">
   <rect id="button" ry="5" rx="5" y="6" x="6" height="38" width="38"
        fill="#f2f5e9" fill-opacity="0.5" stroke="#606060" stroke-width="1.0"/>
   <path id="arrow"
     d="M 11.500037,31.436501 C 11.940474,20.09759 22.043105,11.32322 32.158766,21.979434 L 37.068811,17.246167 C 37.068811,17.246167 37.088388,32 37.088388,32 L 22.160133,31.978069 C 22.160133,31.978069 26.997745,27.140456 26.997745,27.140456 C 18.528582,18.264221 13.291696,25.230495 11.500037,31.436501 z"
     style="fill:#404040;"/>
  </a>
 </g>
</svg>

<style type='text/css'>
<![CDATA[
[data-mouse-over-selected='false'] { opacity: 0.7; }
[data-mouse-over-selected='true']  { opacity: 1.0; }
]]>
</style>
<script type="application/ecmascript"><![CDATA[
document.addEventListener('DOMContentLoaded', (event) => {
  highlightEdges();
  highlightAdjacentNodes();
});
]]></script>
</svg>
