<?xml version="1.0" encoding="UTF-8" standalone="no"?>
<!DOCTYPE svg PUBLIC "-//W3C//DTD SVG 1.1//EN"
 "http://www.w3.org/Graphics/SVG/1.1/DTD/svg11.dtd">
<!-- Generated by graphviz version 12.2.1 (20241206.2353)
 -->
<!-- Title: examples.repython.RE6_pymoo._evaluate Pages: 1 -->
<svg width="436pt" height="40pt"
 viewBox="0.00 0.00 435.50 40.00" xmlns="http://www.w3.org/2000/svg" xmlns:xlink="http://www.w3.org/1999/xlink">
<g id="graph0" class="graph" transform="scale(1 1) rotate(0) translate(4 36)">
<title>examples.repython.RE6_pymoo._evaluate</title>
<!-- Node1 -->
<g id="Node000001" class="node">
<title>Node1</title>
<g id="a_Node000001"><a xlink:title=" ">
<polygon fill="#999999" stroke="#666666" points="121,-32 0,-32 0,0 121,0 121,-32"/>
<text text-anchor="start" x="8" y="-18.5" font-family="Helvetica,sans-Serif" font-size="10.00">examples.repython.RE6</text>
<text text-anchor="middle" x="60.5" y="-6.5" font-family="Helvetica,sans-Serif" font-size="10.00">_pymoo._evaluate</text>
</a>
</g>
</g>
<!-- Node2 -->
<g id="Node000002" class="node">
<title>Node2</title>
<g id="a_Node000002"><a xlink:href="namespaceexamples_1_1repython.html#aac7cd61f81d591e151154ba29c9d4c7d" target="_top" xlink:title=" ">
<polygon fill="white" stroke="#666666" points="277.25,-26 157,-26 157,-6 277.25,-6 277.25,-26"/>
<text text-anchor="middle" x="217.12" y="-12.5" font-family="Helvetica,sans-Serif" font-size="10.00">examples.repython.re_6</text>
</a>
</g>
</g>
<!-- Node1&#45;&gt;Node2 -->
<g id="edge1_Node000001_Node000002" class="edge">
<title>Node1&#45;&gt;Node2</title>
<g id="a_edge1_Node000001_Node000002"><a xlink:title=" ">
<path fill="none" stroke="#63b8ff" d="M121.28,-16C129.05,-16 137.06,-16 144.99,-16"/>
<polygon fill="#63b8ff" stroke="#63b8ff" points="144.99,-19.5 154.99,-16 144.99,-12.5 144.99,-19.5"/>
</a>
</g>
</g>
<!-- Node3 -->
<g id="Node000003" class="node">
<title>Node3</title>
<g id="a_Node000003"><a xlink:href="namespaceexamples_1_1repython.html#a5e91499417ba4e5a4c5da965f07ac2b4" target="_top" xlink:title="Divide x1 / x2, return 0 where x2 == 0.">
<polygon fill="white" stroke="#666666" points="427.5,-26 313.25,-26 313.25,-6 427.5,-6 427.5,-26"/>
<text text-anchor="middle" x="370.38" y="-12.5" font-family="Helvetica,sans-Serif" font-size="10.00">examples.repython.div</text>
</a>
</g>
</g>
<!-- Node2&#45;&gt;Node3 -->
<g id="edge2_Node000002_Node000003" class="edge">
<title>Node2&#45;&gt;Node3</title>
<g id="a_edge2_Node000002_Node000003"><a xlink:title=" ">
<path fill="none" stroke="#63b8ff" d="M277.47,-16C285.46,-16 293.7,-16 301.82,-16"/>
<polygon fill="#63b8ff" stroke="#63b8ff" points="301.65,-19.5 311.65,-16 301.65,-12.5 301.65,-19.5"/>
</a>
</g>
</g>
</g>
</svg>
