<?xml version="1.0" encoding="UTF-8" standalone="no"?>
<!DOCTYPE svg PUBLIC "-//W3C//DTD SVG 1.1//EN"
 "http://www.w3.org/Graphics/SVG/1.1/DTD/svg11.dtd">
<!-- Generated by graphviz version 12.2.1 (20241206.2353)
 -->
<!-- Title: fcmaes.optimizer.Choice Pages: 1 -->
<svg width="220pt" height="344pt"
 viewBox="0.00 0.00 219.50 344.00" xmlns="http://www.w3.org/2000/svg" xmlns:xlink="http://www.w3.org/1999/xlink">

<svg id="main" version="1.1" xmlns="http://www.w3.org/2000/svg" xmlns:xlink="http://www.w3.org/1999/xlink" xml:space="preserve">

<style type="text/css"><![CDATA[
.node, .edge {opacity: 0.7;}
.node.selected, .edge.selected {opacity: 1;}
.edge:hover path { stroke: red; }
.edge:hover polygon { stroke: red; fill: red; }
]]></style>
<script type="application/ecmascript" xlink:href="svg.min.js"/>
<svg id="graph" class="graph">
<g id="graph0" class="graph" transform="scale(1 1) rotate(0) translate(4 340)">
<title>fcmaes.optimizer.Choice</title>
<!-- Node1 -->
<g id="Node000001" class="node">
<title>Node1</title>
<g id="a_Node000001"><a xlink:title="A class representing a choice&#45;based optimizer.">
<polygon fill="#999999" stroke="none" points="211.5,-152 0,-152 0,0 211.5,0 211.5,-152"/>
<text text-anchor="start" x="51.38" y="-138.5" font-family="Helvetica,sans-Serif" font-size="10.00">fcmaes.optimizer.Choice</text>
<text text-anchor="start" x="4" y="-122.5" font-family="Helvetica,sans-Serif" font-size="10.00">+</text>
<text text-anchor="start" x="14" y="-122.5" font-family="Helvetica,sans-Serif" font-size="10.00">optimizers</text>
<text text-anchor="start" x="4" y="-106.5" font-family="Helvetica,sans-Serif" font-size="10.00">+</text>
<text text-anchor="start" x="14" y="-106.5" font-family="Helvetica,sans-Serif" font-size="10.00">__init__(self, ArrayLike</text>
<text text-anchor="start" x="14" y="-94.5" font-family="Helvetica,sans-Serif" font-size="10.00"> optimizers)</text>
<text text-anchor="start" x="4" y="-78.5" font-family="Helvetica,sans-Serif" font-size="10.00">+</text>
<text text-anchor="start" x="14" y="-78.5" font-family="Helvetica,sans-Serif" font-size="10.00">Tuple[np.ndarray, float,</text>
<text text-anchor="start" x="14" y="-66.5" font-family="Helvetica,sans-Serif" font-size="10.00"> int] minimize(self, Callable</text>
<text text-anchor="start" x="14" y="-54.5" font-family="Helvetica,sans-Serif" font-size="10.00">[[ArrayLike], float] fun, Bounds</text>
<text text-anchor="start" x="14" y="-42.5" font-family="Helvetica,sans-Serif" font-size="10.00"> bounds, Optional[ArrayLike] guess</text>
<text text-anchor="start" x="14" y="-30.5" font-family="Helvetica,sans-Serif" font-size="10.00">=None, Optional[Union[float, ArrayLike,</text>
<text text-anchor="start" x="14" y="-18.5" font-family="Helvetica,sans-Serif" font-size="10.00"> Callable]] sdevs=None, Optional[Generator]</text>
<text text-anchor="start" x="14" y="-6.5" font-family="Helvetica,sans-Serif" font-size="10.00"> rg=Generator(PCG64DXSM()), store=None)</text>
<polygon fill="#666666" stroke="#666666" points="0,-134 0,-134 211.5,-134 211.5,-134 0,-134"/>
<polygon fill="#666666" stroke="#666666" points="0,-118 0,-118 12,-118 12,-118 0,-118"/>
<polygon fill="#666666" stroke="#666666" points="12,-118 12,-118 211.5,-118 211.5,-118 12,-118"/>
<polygon fill="none" stroke="#666666" points="0,0 0,-152 211.5,-152 211.5,0 0,0"/>
</a>
</g>
</g>
<!-- Node2 -->
<g id="Node000002" class="node">
<title>Node2</title>
<g id="a_Node000002"><a xlink:href="classfcmaes_1_1optimizer_1_1_optimizer.html" target="_top" xlink:title="Provides functionalities for optimization tasks.">
<polygon fill="white" stroke="none" points="178.88,-336 32.62,-336 32.62,-188 178.88,-188 178.88,-336"/>
<text text-anchor="start" x="45.75" y="-322.5" font-family="Helvetica,sans-Serif" font-size="10.00">fcmaes.optimizer.Optimizer</text>
<text text-anchor="start" x="36.62" y="-306.5" font-family="Helvetica,sans-Serif" font-size="10.00">+</text>
<text text-anchor="start" x="46.62" y="-306.5" font-family="Helvetica,sans-Serif" font-size="10.00">max_evaluations</text>
<text text-anchor="start" x="36.62" y="-290.5" font-family="Helvetica,sans-Serif" font-size="10.00">+</text>
<text text-anchor="start" x="46.62" y="-290.5" font-family="Helvetica,sans-Serif" font-size="10.00">name</text>
<text text-anchor="start" x="36.62" y="-274.5" font-family="Helvetica,sans-Serif" font-size="10.00">+</text>
<text text-anchor="start" x="46.62" y="-274.5" font-family="Helvetica,sans-Serif" font-size="10.00">__init__(self, Optional</text>
<text text-anchor="start" x="46.62" y="-262.5" font-family="Helvetica,sans-Serif" font-size="10.00">[int] max_evaluations=50000,</text>
<text text-anchor="start" x="46.62" y="-250.5" font-family="Helvetica,sans-Serif" font-size="10.00"> Optional[str] name=&#39;&#39;)</text>
<text text-anchor="start" x="36.62" y="-234.5" font-family="Helvetica,sans-Serif" font-size="10.00">+</text>
<text text-anchor="start" x="46.62" y="-234.5" font-family="Helvetica,sans-Serif" font-size="10.00">max_eval_num(self,</text>
<text text-anchor="start" x="46.62" y="-222.5" font-family="Helvetica,sans-Serif" font-size="10.00"> store=None)</text>
<text text-anchor="start" x="36.62" y="-206.5" font-family="Helvetica,sans-Serif" font-size="10.00">+</text>
<text text-anchor="start" x="46.62" y="-206.5" font-family="Helvetica,sans-Serif" font-size="10.00">get_count_runs(self,</text>
<text text-anchor="start" x="46.62" y="-194.5" font-family="Helvetica,sans-Serif" font-size="10.00"> store=None)</text>
<polygon fill="#666666" stroke="#666666" points="32.62,-318 32.62,-318 178.88,-318 178.88,-318 32.62,-318"/>
<polygon fill="#666666" stroke="#666666" points="32.62,-286 32.62,-286 44.62,-286 44.62,-286 32.62,-286"/>
<polygon fill="#666666" stroke="#666666" points="44.62,-286 44.62,-286 178.88,-286 178.88,-286 44.62,-286"/>
<polygon fill="none" stroke="#666666" points="32.62,-188 32.62,-336 178.88,-336 178.88,-188 32.62,-188"/>
</a>
</g>
</g>
<!-- Node2&#45;&gt;Node1 -->
<g id="edge1_Node000001_Node000002" class="edge">
<title>Node2&#45;&gt;Node1</title>
<g id="a_edge1_Node000001_Node000002"><a xlink:title=" ">
<path fill="none" stroke="#63b8ff" d="M105.75,-176.72C105.75,-168.37 105.75,-159.94 105.75,-151.71"/>
<polygon fill="none" stroke="#63b8ff" points="102.25,-176.5 105.75,-186.5 109.25,-176.5 102.25,-176.5"/>
</a>
</g>
</g>
</g>
</svg>
</svg>

<style type='text/css'>
<![CDATA[
[data-mouse-over-selected='false'] { opacity: 0.7; }
[data-mouse-over-selected='true']  { opacity: 1.0; }
]]>
</style>
<script type="application/ecmascript"><![CDATA[
document.addEventListener('DOMContentLoaded', (event) => {
  highlightEdges();
  highlightAdjacentNodes();
});
]]></script>
</svg>
