<?xml version="1.0" encoding="UTF-8" standalone="no"?>
<!DOCTYPE svg PUBLIC "-//W3C//DTD SVG 1.1//EN"
 "http://www.w3.org/Graphics/SVG/1.1/DTD/svg11.dtd">
<!-- Generated by graphviz version 12.2.1 (20241206.2353)
 -->
<!-- Title: examples.scheduling.fitness.qd_fun Pages: 1 -->
<!--zoomable 307 -->

<svg id="main" version="1.1" xmlns="http://www.w3.org/2000/svg" xmlns:xlink="http://www.w3.org/1999/xlink" xml:space="preserve" onload="init(evt)">

<style type="text/css"><![CDATA[
.node, .edge {opacity: 0.7;}
.node.selected, .edge.selected {opacity: 1;}
.edge:hover path { stroke: red; }
.edge:hover polygon { stroke: red; fill: red; }
]]></style>

<defs>
  <circle id="rim" cx="0" cy="0" r="7"/>
  <circle id="rim2" cx="0" cy="0" r="3.5"/>
  <g id="zoomPlus">
    <use xlink:href="#rim" fill="#404040"><set attributeName="fill" to="#808080" begin="zoomplus.mouseover" end="zoomplus.mouseout"/></use>
    <path d="M-4,0h8M0,-4v8" fill="none" stroke="white" stroke-width="1.5" pointer-events="none"/>
  </g>
  <g id="zoomMin">
    <use xlink:href="#rim" fill="#404040"><set attributeName="fill" to="#808080" begin="zoomminus.mouseover" end="zoomminus.mouseout"/></use>
    <path d="M-4,0h8" fill="none" stroke="white" stroke-width="1.5" pointer-events="none"/>
  </g>
  <g id="arrowUp" transform="translate(30 24)">
    <use xlink:href="#rim"/>
    <path pointer-events="none" fill="none" stroke="white" stroke-width="1.5" d="M0,-3.0v7 M-2.5,-0.5L0,-3.0L2.5,-0.5"/>
  </g>
  <g id="arrowRight" transform="rotate(90) translate(36 -43)">
    <use xlink:href="#rim"/>
    <path pointer-events="none" fill="none" stroke="white" stroke-width="1.5" d="M0,-3.0v7 M-2.5,-0.5L0,-3.0L2.5,-0.5"/>
  </g>
  <g id="arrowDown" transform="rotate(180) translate(-30 -48)">
    <use xlink:href="#rim"/>
    <path pointer-events="none" fill="none" stroke="white" stroke-width="1.5" d="M0,-3.0v7 M-2.5,-0.5L0,-3.0L2.5,-0.5"/>
  </g>
  <g id="arrowLeft" transform="rotate(270) translate(-36 17)">
    <use xlink:href="#rim"/>
    <path pointer-events="none" fill="none" stroke="white" stroke-width="1.5" d="M0,-3.0v7 M-2.5,-0.5L0,-3.0L2.5,-0.5"/>
  </g>
  <g id="resetDef">
    <use xlink:href="#rim2" fill="#404040"><set attributeName="fill" to="#808080" begin="reset.mouseover" end="reset.mouseout"/></use>
  </g>
</defs>
<script type="application/ecmascript">
var viewWidth = 1135;
var viewHeight = 307;
var sectionId = 'dynsection-3';
</script>
<script type="application/ecmascript" xlink:href="svg.min.js"/>
<svg id="graph" class="graph">
<g id="viewport">
<title>examples.scheduling.fitness.qd_fun</title>
<!-- Node1 -->
<g id="Node000001" class="node">
<title>Node1</title>
<g id="a_Node000001"><a xlink:title=" ">
<polygon fill="#999999" stroke="#666666" points="172,-153 0,-153 0,-133 172,-133 172,-153"/>
<text text-anchor="middle" x="86" y="-139.5" font-family="Helvetica,sans-Serif" font-size="10.00">examples.scheduling.fitness.qd_fun</text>
</a>
</g>
</g>
<!-- Node2 -->
<g id="Node000002" class="node">
<title>Node2</title>
<g id="a_Node000002"><a xlink:href="namespaceexamples_1_1scheduling.html#ad2889b9007308a61135c1b5faeca5d11" target="_top" xlink:title=" ">
<polygon fill="white" stroke="#666666" points="563.62,-266 415.62,-266 415.62,-246 563.62,-246 563.62,-266"/>
<text text-anchor="middle" x="489.62" y="-252.5" font-family="Helvetica,sans-Serif" font-size="10.00">examples.scheduling.ast_num</text>
</a>
</g>
</g>
<!-- Node1&#45;&gt;Node2 -->
<g id="edge1_Node000001_Node000002" class="edge">
<title>Node1&#45;&gt;Node2</title>
<g id="a_edge1_Node000001_Node000002"><a xlink:title=" ">
<path fill="none" stroke="#63b8ff" d="M98.66,-153.49C119.12,-171.22 163.54,-206.74 208,-223 271.04,-246.05 346.85,-253.89 403.78,-256.19"/>
<polygon fill="#63b8ff" stroke="#63b8ff" points="403.64,-259.69 413.76,-256.54 403.88,-252.69 403.64,-259.69"/>
</a>
</g>
</g>
<!-- Node3 -->
<g id="Node000003" class="node">
<title>Node3</title>
<g id="a_Node000003"><a xlink:href="namespaceexamples_1_1scheduling.html#a65b621b377aebb2c8a0b9af590aa280d" target="_top" xlink:title=" ">
<polygon fill="white" stroke="#666666" points="755.5,-253 604.5,-253 604.5,-221 755.5,-221 755.5,-253"/>
<text text-anchor="start" x="612.5" y="-239.5" font-family="Helvetica,sans-Serif" font-size="10.00">examples.scheduling.trajectory</text>
<text text-anchor="middle" x="680" y="-227.5" font-family="Helvetica,sans-Serif" font-size="10.00">_selection</text>
</a>
</g>
</g>
<!-- Node1&#45;&gt;Node3 -->
<g id="edge18_Node000001_Node000003" class="edge">
<title>Node1&#45;&gt;Node3</title>
<g id="a_edge18_Node000001_Node000003"><a xlink:title=" ">
<path fill="none" stroke="#63b8ff" d="M94.66,-153.48C111.94,-176.2 156.48,-229.81 208,-253 354.38,-318.89 410.18,-301.46 568.5,-275 589.42,-271.5 611.69,-264.52 630.71,-257.49"/>
<polygon fill="#63b8ff" stroke="#63b8ff" points="631.7,-260.86 639.79,-254.02 629.2,-254.32 631.7,-260.86"/>
</a>
</g>
</g>
<!-- Node6 -->
<g id="Node000006" class="node">
<title>Node6</title>
<g id="a_Node000006"><a xlink:href="namespaceexamples_1_1scheduling.html#afe388874c2fafb820cc0d1a456332d53" target="_top" xlink:title=" ">
<polygon fill="white" stroke="#666666" points="748.38,-124 611.62,-124 611.62,-92 748.38,-92 748.38,-124"/>
<text text-anchor="start" x="619.62" y="-110.5" font-family="Helvetica,sans-Serif" font-size="10.00">examples.scheduling.dyson</text>
<text text-anchor="middle" x="680" y="-98.5" font-family="Helvetica,sans-Serif" font-size="10.00">_stations</text>
</a>
</g>
</g>
<!-- Node1&#45;&gt;Node6 -->
<g id="edge5_Node000001_Node000006" class="edge">
<title>Node1&#45;&gt;Node6</title>
<g id="a_edge5_Node000001_Node000006"><a xlink:title=" ">
<path fill="none" stroke="#63b8ff" d="M158.6,-132.5C174.83,-130.24 192,-127.95 208,-126 297.93,-115.03 320.28,-109.67 410.75,-105 480.77,-101.38 498.4,-104.05 568.5,-105 578.65,-105.14 589.32,-105.35 599.86,-105.59"/>
<polygon fill="#63b8ff" stroke="#63b8ff" points="599.62,-109.09 609.71,-105.83 599.79,-102.09 599.62,-109.09"/>
</a>
</g>
</g>
<!-- Node7 -->
<g id="Node000007" class="node">
<title>Node7</title>
<g id="a_Node000007"><a xlink:href="classexamples_1_1scheduling_1_1fitness.html#a0dcc50199c64159aae9a5a89326d1cc6" target="_top" xlink:title=" ">
<polygon fill="white" stroke="#666666" points="374.75,-172 208,-172 208,-152 374.75,-152 374.75,-172"/>
<text text-anchor="middle" x="291.38" y="-158.5" font-family="Helvetica,sans-Serif" font-size="10.00">examples.scheduling.fitness.score</text>
</a>
</g>
</g>
<!-- Node1&#45;&gt;Node7 -->
<g id="edge6_Node000001_Node000007" class="edge">
<title>Node1&#45;&gt;Node7</title>
<g id="a_edge6_Node000001_Node000007"><a xlink:title=" ">
<path fill="none" stroke="#63b8ff" d="M172.37,-150.98C180.27,-151.71 188.31,-152.46 196.29,-153.21"/>
<polygon fill="#63b8ff" stroke="#63b8ff" points="195.72,-156.67 206,-154.12 196.37,-149.7 195.72,-156.67"/>
</a>
</g>
</g>
<!-- Node8 -->
<g id="Node000008" class="node">
<title>Node8</title>
<g id="a_Node000008"><a xlink:href="namespaceexamples_1_1scheduling.html#af71d892a26a7cf4e51f3d0c28dd3d93b" target="_top" xlink:title=" ">
<polygon fill="white" stroke="#666666" points="558,-134 421.25,-134 421.25,-114 558,-114 558,-134"/>
<text text-anchor="middle" x="489.62" y="-120.5" font-family="Helvetica,sans-Serif" font-size="10.00">examples.scheduling.select</text>
</a>
</g>
</g>
<!-- Node1&#45;&gt;Node8 -->
<g id="edge15_Node000001_Node000008" class="edge">
<title>Node1&#45;&gt;Node8</title>
<g id="a_edge15_Node000001_Node000008"><a xlink:title=" ">
<path fill="none" stroke="#63b8ff" d="M172.17,-138.97C242.41,-135.65 341.27,-130.97 409.72,-127.73"/>
<polygon fill="#63b8ff" stroke="#63b8ff" points="409.53,-131.25 419.35,-127.28 409.2,-124.25 409.53,-131.25"/>
</a>
</g>
</g>
<!-- Node9 -->
<g id="Node000009" class="node">
<title>Node9</title>
<g id="a_Node000009"><a xlink:href="namespaceexamples_1_1scheduling.html#a5473acc487e865227b4f1d9ac06d8102" target="_top" xlink:title=" ">
<polygon fill="white" stroke="#666666" points="751,-66 609,-66 609,-46 751,-46 751,-66"/>
<text text-anchor="middle" x="680" y="-52.5" font-family="Helvetica,sans-Serif" font-size="10.00">examples.scheduling.timings</text>
</a>
</g>
</g>
<!-- Node1&#45;&gt;Node9 -->
<g id="edge17_Node000001_Node000009" class="edge">
<title>Node1&#45;&gt;Node9</title>
<g id="a_edge17_Node000001_Node000009"><a xlink:title=" ">
<path fill="none" stroke="#63b8ff" d="M112.98,-132.56C137.17,-123.29 174.46,-110.13 208,-103 342.65,-74.39 502.75,-63.1 597.35,-58.71"/>
<polygon fill="#63b8ff" stroke="#63b8ff" points="597.49,-62.21 607.32,-58.26 597.17,-55.21 597.49,-62.21"/>
</a>
</g>
</g>
<!-- Node10 -->
<g id="Node000010" class="node">
<title>Node10</title>
<g id="a_Node000010"><a xlink:href="namespaceexamples_1_1scheduling.html#aef8d4dd874790f032aa9f541c3c199a6" target="_top" xlink:title=" ">
<polygon fill="white" stroke="#666666" points="568.5,-228 410.75,-228 410.75,-208 568.5,-208 568.5,-228"/>
<text text-anchor="middle" x="489.62" y="-214.5" font-family="Helvetica,sans-Serif" font-size="10.00">examples.scheduling.select_dvs</text>
</a>
</g>
</g>
<!-- Node1&#45;&gt;Node10 -->
<g id="edge16_Node000001_Node000010" class="edge">
<title>Node1&#45;&gt;Node10</title>
<g id="a_edge16_Node000001_Node000010"><a xlink:title=" ">
<path fill="none" stroke="#63b8ff" d="M104.28,-153.48C127.1,-166.73 168.98,-189.01 208,-199 270.51,-215 343.26,-219.54 399.02,-220.19"/>
<polygon fill="#63b8ff" stroke="#63b8ff" points="398.76,-223.69 408.79,-220.27 398.81,-216.69 398.76,-223.69"/>
</a>
</g>
</g>
<!-- Node11 -->
<g id="Node000011" class="node">
<title>Node11</title>
<g id="a_Node000011"><a xlink:href="namespaceexamples_1_1scheduling.html#abce02ddc9637c49f7152ef997c3db2eb" target="_top" xlink:title=" ">
<polygon fill="white" stroke="#666666" points="370.25,-20 212.5,-20 212.5,0 370.25,0 370.25,-20"/>
<text text-anchor="middle" x="291.38" y="-6.5" font-family="Helvetica,sans-Serif" font-size="10.00">examples.scheduling.score_vals</text>
</a>
</g>
</g>
<!-- Node1&#45;&gt;Node11 -->
<g id="edge14_Node000001_Node000011" class="edge">
<title>Node1&#45;&gt;Node11</title>
<g id="a_edge14_Node000001_Node000011"><a xlink:title=" ">
<path fill="none" stroke="#63b8ff" d="M95.57,-132.62C113.92,-111.04 159.35,-61.11 208,-34 214.9,-30.16 222.47,-26.87 230.15,-24.09"/>
<polygon fill="#63b8ff" stroke="#63b8ff" points="231.19,-27.43 239.57,-20.95 228.97,-20.79 231.19,-27.43"/>
</a>
</g>
</g>
<!-- Node2&#45;&gt;Node3 -->
<g id="edge2_Node000002_Node000003" class="edge">
<title>Node2&#45;&gt;Node3</title>
<g id="a_edge2_Node000002_Node000003"><a xlink:title=" ">
<path fill="none" stroke="#63b8ff" d="M564,-248.6C573.5,-247.64 583.3,-246.65 592.99,-245.68"/>
<polygon fill="#63b8ff" stroke="#63b8ff" points="593.17,-249.17 602.77,-244.69 592.47,-242.21 593.17,-249.17"/>
</a>
</g>
</g>
<!-- Node4 -->
<g id="Node000004" class="node">
<title>Node4</title>
<g id="a_Node000004"><a xlink:href="namespaceexamples_1_1scheduling.html#a9b78175a9bd193289a2db7a992840231" target="_top" xlink:title=" ">
<polygon fill="white" stroke="#666666" points="940.25,-247 791.5,-247 791.5,-227 940.25,-227 940.25,-247"/>
<text text-anchor="middle" x="865.88" y="-233.5" font-family="Helvetica,sans-Serif" font-size="10.00">examples.scheduling.disjoined</text>
</a>
</g>
</g>
<!-- Node3&#45;&gt;Node4 -->
<g id="edge3_Node000003_Node000004" class="edge">
<title>Node3&#45;&gt;Node4</title>
<g id="a_edge3_Node000003_Node000004"><a xlink:title=" ">
<path fill="none" stroke="#63b8ff" d="M755.79,-237C763.7,-237 771.78,-237 779.79,-237"/>
<polygon fill="#63b8ff" stroke="#63b8ff" points="779.53,-240.5 789.53,-237 779.53,-233.5 779.53,-240.5"/>
</a>
</g>
</g>
<!-- Node5 -->
<g id="Node000005" class="node">
<title>Node5</title>
<g id="a_Node000005"><a xlink:href="namespaceexamples_1_1scheduling.html#a171925bee0250e0755f9521ef6756bc7" target="_top" xlink:title=" ">
<polygon fill="white" stroke="#666666" points="1127.25,-247 976.25,-247 976.25,-227 1127.25,-227 1127.25,-247"/>
<text text-anchor="middle" x="1051.75" y="-233.5" font-family="Helvetica,sans-Serif" font-size="10.00">examples.scheduling.next_free</text>
</a>
</g>
</g>
<!-- Node4&#45;&gt;Node5 -->
<g id="edge4_Node000004_Node000005" class="edge">
<title>Node4&#45;&gt;Node5</title>
<g id="a_edge4_Node000004_Node000005"><a xlink:title=" ">
<path fill="none" stroke="#63b8ff" d="M940.6,-237C948.48,-237 956.55,-237 964.55,-237"/>
<polygon fill="#63b8ff" stroke="#63b8ff" points="964.29,-240.5 974.29,-237 964.29,-233.5 964.29,-240.5"/>
</a>
</g>
</g>
<!-- Node7&#45;&gt;Node7 -->
<g id="edge7_Node000007_Node000007" class="edge">
<title>Node7&#45;&gt;Node7</title>
<g id="a_edge7_Node000007_Node000007"><a xlink:title=" ">
<path fill="none" stroke="#63b8ff" d="M259.88,-172.34C246.41,-180.98 256.91,-190 291.38,-190 310.76,-190 322.56,-187.14 326.78,-183.11"/>
<polygon fill="#63b8ff" stroke="#63b8ff" points="330.09,-181.97 323.39,-173.76 323.51,-184.36 330.09,-181.97"/>
</a>
</g>
</g>
<!-- Node7&#45;&gt;Node8 -->
<g id="edge8_Node000007_Node000008" class="edge">
<title>Node7&#45;&gt;Node8</title>
<g id="a_edge8_Node000007_Node000008"><a xlink:title=" ">
<path fill="none" stroke="#63b8ff" d="M346.52,-151.52C370.33,-146.91 398.5,-141.45 423.45,-136.62"/>
<polygon fill="#63b8ff" stroke="#63b8ff" points="424.02,-140.08 433.17,-134.74 422.69,-133.2 424.02,-140.08"/>
</a>
</g>
</g>
<!-- Node7&#45;&gt;Node10 -->
<g id="edge12_Node000007_Node000010" class="edge">
<title>Node7&#45;&gt;Node10</title>
<g id="a_edge12_Node000007_Node000010"><a xlink:title=" ">
<path fill="none" stroke="#63b8ff" d="M328.83,-172.4C360.54,-181.45 406.69,-194.62 441.25,-204.48"/>
<polygon fill="#63b8ff" stroke="#63b8ff" points="440,-207.77 450.58,-207.14 441.92,-201.03 440,-207.77"/>
</a>
</g>
</g>
<!-- Node8&#45;&gt;Node3 -->
<g id="edge11_Node000008_Node000003" class="edge">
<title>Node8&#45;&gt;Node3</title>
<g id="a_edge11_Node000008_Node000003"><a xlink:title=" ">
<path fill="none" stroke="#63b8ff" d="M508.01,-134.43C538.32,-152.61 601.47,-190.49 641.96,-214.78"/>
<polygon fill="#63b8ff" stroke="#63b8ff" points="640.06,-217.72 650.44,-219.87 643.66,-211.72 640.06,-217.72"/>
</a>
</g>
</g>
<!-- Node8&#45;&gt;Node6 -->
<g id="edge9_Node000008_Node000006" class="edge">
<title>Node8&#45;&gt;Node6</title>
<g id="a_edge9_Node000008_Node000006"><a xlink:title=" ">
<path fill="none" stroke="#63b8ff" d="M558.37,-118.25C571.8,-117.11 586.01,-115.9 599.79,-114.73"/>
<polygon fill="#63b8ff" stroke="#63b8ff" points="600.05,-118.22 609.72,-113.88 599.46,-111.24 600.05,-118.22"/>
</a>
</g>
</g>
<!-- Node8&#45;&gt;Node9 -->
<g id="edge10_Node000008_Node000009" class="edge">
<title>Node8&#45;&gt;Node9</title>
<g id="a_edge10_Node000008_Node000009"><a xlink:title=" ">
<path fill="none" stroke="#63b8ff" d="M519.65,-113.52C551.73,-101.94 603.59,-83.22 639.39,-70.3"/>
<polygon fill="#63b8ff" stroke="#63b8ff" points="640.31,-73.69 648.52,-67 637.93,-67.11 640.31,-73.69"/>
</a>
</g>
</g>
<!-- Node10&#45;&gt;Node3 -->
<g id="edge13_Node000010_Node000003" class="edge">
<title>Node10&#45;&gt;Node3</title>
<g id="a_edge13_Node000010_Node000003"><a xlink:title=" ">
<path fill="none" stroke="#63b8ff" d="M568.88,-225.89C576.78,-226.69 584.83,-227.5 592.81,-228.31"/>
<polygon fill="#63b8ff" stroke="#63b8ff" points="592.21,-231.76 602.51,-229.28 592.91,-224.8 592.21,-231.76"/>
</a>
</g>
</g>
</g>
</svg>

<g id="navigator" transform="translate(0 0)" fill="#404254">
  <rect fill="#f2f5e9" fill-opacity="0.5" stroke="#606060" stroke-width=".5" x="0" y="0" width="60" height="60"/>
  <use id="zoomplus" xlink:href="#zoomPlus" x="17" y="9" onmousedown="handleZoom(evt,'in')"/>
  <use id="zoomminus" xlink:href="#zoomMin" x="42" y="9" onmousedown="handleZoom(evt,'out')"/>
  <use id="reset" xlink:href="#resetDef" x="30" y="36" onmousedown="handleReset()"/>
   <use id="arrowup" xlink:href="#arrowUp" x="0" y="0" onmousedown="handlePan(0,-1)"/>
  <use id="arrowright" xlink:href="#arrowRight" x="0" y="0" onmousedown="handlePan(1,0)"/>
  <use id="arrowdown" xlink:href="#arrowDown" x="0" y="0" onmousedown="handlePan(0,1)"/>
  <use id="arrowleft" xlink:href="#arrowLeft" x="0" y="0" onmousedown="handlePan(-1,0)"/>
</g>
<svg viewBox="0 0 15 15" width="100%" height="30px" preserveAspectRatio="xMaxYMin meet">
 <g id="arrow_out" transform="scale(0.3 0.3)">
  <a xlink:href="classexamples_1_1scheduling_1_1fitness_a713c154b74b96a06274438bae71e2419_cgraph_org.svg" target="_base">
   <rect id="button" ry="5" rx="5" y="6" x="6" height="38" width="38"
        fill="#f2f5e9" fill-opacity="0.5" stroke="#606060" stroke-width="1.0"/>
   <path id="arrow"
     d="M 11.500037,31.436501 C 11.940474,20.09759 22.043105,11.32322 32.158766,21.979434 L 37.068811,17.246167 C 37.068811,17.246167 37.088388,32 37.088388,32 L 22.160133,31.978069 C 22.160133,31.978069 26.997745,27.140456 26.997745,27.140456 C 18.528582,18.264221 13.291696,25.230495 11.500037,31.436501 z"
     style="fill:#404040;"/>
  </a>
 </g>
</svg>

<style type='text/css'>
<![CDATA[
[data-mouse-over-selected='false'] { opacity: 0.7; }
[data-mouse-over-selected='true']  { opacity: 1.0; }
]]>
</style>
<script type="application/ecmascript"><![CDATA[
document.addEventListener('DOMContentLoaded', (event) => {
  highlightEdges();
  highlightAdjacentNodes();
});
]]></script>
</svg>
