<?xml version="1.0" encoding="UTF-8" standalone="no"?>
<!DOCTYPE svg PUBLIC "-//W3C//DTD SVG 1.1//EN"
 "http://www.w3.org/Graphics/SVG/1.1/DTD/svg11.dtd">
<!-- Generated by graphviz version 12.2.1 (20241206.2353)
 -->
<!-- Title: examples.robot.PushReward Pages: 1 -->
<svg width="142pt" height="248pt"
 viewBox="0.00 0.00 142.00 248.00" xmlns="http://www.w3.org/2000/svg" xmlns:xlink="http://www.w3.org/1999/xlink">
<g id="graph0" class="graph" transform="scale(1 1) rotate(0) translate(4 244)">
<title>examples.robot.PushReward</title>
<!-- Node1 -->
<g id="Node000001" class="node">
<title>Node1</title>
<g id="a_Node000001"><a xlink:title=" ">
<polygon fill="#999999" stroke="none" points="134,-240 0,-240 0,0 134,0 134,-240"/>
<text text-anchor="start" x="4" y="-226.5" font-family="Helvetica,sans-Serif" font-size="10.00">examples.robot.PushReward</text>
<text text-anchor="start" x="12.38" y="-210.5" font-family="Helvetica,sans-Serif" font-size="10.00">+</text>
<text text-anchor="start" x="30.75" y="-210.5" font-family="Helvetica,sans-Serif" font-size="10.00">list xmin</text>
<text text-anchor="start" x="12.38" y="-194.5" font-family="Helvetica,sans-Serif" font-size="10.00">+</text>
<text text-anchor="start" x="30.75" y="-194.5" font-family="Helvetica,sans-Serif" font-size="10.00">list xmax</text>
<text text-anchor="start" x="12.38" y="-178.5" font-family="Helvetica,sans-Serif" font-size="10.00">+</text>
<text text-anchor="start" x="30.75" y="-178.5" font-family="Helvetica,sans-Serif" font-size="10.00">tuple sxy</text>
<text text-anchor="start" x="12.38" y="-162.5" font-family="Helvetica,sans-Serif" font-size="10.00">+</text>
<text text-anchor="start" x="30.75" y="-162.5" font-family="Helvetica,sans-Serif" font-size="10.00">tuple sxy2</text>
<text text-anchor="start" x="12.38" y="-146.5" font-family="Helvetica,sans-Serif" font-size="10.00">+</text>
<text text-anchor="start" x="30.75" y="-146.5" font-family="Helvetica,sans-Serif" font-size="10.00">list gxy</text>
<text text-anchor="start" x="12.38" y="-130.5" font-family="Helvetica,sans-Serif" font-size="10.00">+</text>
<text text-anchor="start" x="30.75" y="-130.5" font-family="Helvetica,sans-Serif" font-size="10.00">list gxy2</text>
<text text-anchor="start" x="12.38" y="-114.5" font-family="Helvetica,sans-Serif" font-size="10.00">+</text>
<text text-anchor="start" x="30.75" y="-114.5" font-family="Helvetica,sans-Serif" font-size="10.00">do_gui</text>
<text text-anchor="start" x="12.38" y="-98.5" font-family="Helvetica,sans-Serif" font-size="10.00">+</text>
<text text-anchor="start" x="30.75" y="-98.5" font-family="Helvetica,sans-Serif" font-size="10.00">f_max</text>
<text text-anchor="start" x="12.38" y="-82.5" font-family="Helvetica,sans-Serif" font-size="10.00">+</text>
<text text-anchor="start" x="30.75" y="-82.5" font-family="Helvetica,sans-Serif" font-size="10.00">dx</text>
<text text-anchor="start" x="12.38" y="-66.5" font-family="Helvetica,sans-Serif" font-size="10.00">+</text>
<text text-anchor="start" x="30.75" y="-66.5" font-family="Helvetica,sans-Serif" font-size="10.00">__init__(self, do</text>
<text text-anchor="start" x="30.75" y="-54.5" font-family="Helvetica,sans-Serif" font-size="10.00">_gui=False)</text>
<text text-anchor="start" x="12.38" y="-38.5" font-family="Helvetica,sans-Serif" font-size="10.00">+</text>
<text text-anchor="start" x="30.75" y="-38.5" font-family="Helvetica,sans-Serif" font-size="10.00">__call__(self, argv)</text>
<text text-anchor="start" x="13.88" y="-22.5" font-family="Helvetica,sans-Serif" font-size="10.00">&#45;</text>
<text text-anchor="start" x="30.75" y="-22.5" font-family="Helvetica,sans-Serif" font-size="10.00">f_max(self)</text>
<text text-anchor="start" x="13.88" y="-6.5" font-family="Helvetica,sans-Serif" font-size="10.00">&#45;</text>
<text text-anchor="start" x="30.75" y="-6.5" font-family="Helvetica,sans-Serif" font-size="10.00">dx(self)</text>
<polygon fill="#666666" stroke="#666666" points="0,-222 0,-222 134,-222 134,-222 0,-222"/>
<polygon fill="#666666" stroke="#666666" points="0,-78 0,-78 28.75,-78 28.75,-78 0,-78"/>
<polygon fill="#666666" stroke="#666666" points="28.75,-78 28.75,-78 134,-78 134,-78 28.75,-78"/>
<polygon fill="none" stroke="#666666" points="0,0 0,-240 134,-240 134,0 0,0"/>
</a>
</g>
</g>
</g>
</svg>
