<?xml version="1.0" encoding="UTF-8" standalone="no"?>
<!DOCTYPE svg PUBLIC "-//W3C//DTD SVG 1.1//EN"
 "http://www.w3.org/Graphics/SVG/1.1/DTD/svg11.dtd">
<!-- Generated by graphviz version 12.2.1 (20241206.2353)
 -->
<!-- Title: examples.subset_mo.transaction_value Pages: 1 -->
<svg width="160pt" height="116pt"
 viewBox="0.00 0.00 160.00 116.00" xmlns="http://www.w3.org/2000/svg" xmlns:xlink="http://www.w3.org/1999/xlink">
<g id="graph0" class="graph" transform="scale(1 1) rotate(0) translate(4 112)">
<title>examples.subset_mo.transaction_value</title>
<!-- Node1 -->
<g id="Node000001" class="node">
<title>Node1</title>
<g id="a_Node000001"><a xlink:title=" ">
<polygon fill="#999999" stroke="none" points="152,-108 0,-108 0,0 152,0 152,-108"/>
<text text-anchor="start" x="4" y="-94.5" font-family="Helvetica,sans-Serif" font-size="10.00">examples.subset_mo.transaction</text>
<text text-anchor="start" x="61.75" y="-82.5" font-family="Helvetica,sans-Serif" font-size="10.00">_value</text>
<text text-anchor="start" x="8.81" y="-66.5" font-family="Helvetica,sans-Serif" font-size="10.00">+</text>
<text text-anchor="start" x="23.62" y="-66.5" font-family="Helvetica,sans-Serif" font-size="10.00">transactions</text>
<text text-anchor="start" x="8.81" y="-50.5" font-family="Helvetica,sans-Serif" font-size="10.00">+</text>
<text text-anchor="start" x="23.62" y="-50.5" font-family="Helvetica,sans-Serif" font-size="10.00">sum_payments</text>
<text text-anchor="start" x="8.81" y="-34.5" font-family="Helvetica,sans-Serif" font-size="10.00">+</text>
<text text-anchor="start" x="23.62" y="-34.5" font-family="Helvetica,sans-Serif" font-size="10.00">__init__(self, transactions,</text>
<text text-anchor="start" x="23.62" y="-22.5" font-family="Helvetica,sans-Serif" font-size="10.00"> payments)</text>
<text text-anchor="start" x="8.81" y="-6.5" font-family="Helvetica,sans-Serif" font-size="10.00">+</text>
<text text-anchor="start" x="23.62" y="-6.5" font-family="Helvetica,sans-Serif" font-size="10.00">__call__(self, selection)</text>
<polygon fill="#666666" stroke="#666666" points="0,-78 0,-78 152,-78 152,-78 0,-78"/>
<polygon fill="#666666" stroke="#666666" points="0,-46 0,-46 21.62,-46 21.62,-46 0,-46"/>
<polygon fill="#666666" stroke="#666666" points="21.62,-46 21.62,-46 152,-46 152,-46 21.62,-46"/>
<polygon fill="none" stroke="#666666" points="0,0 0,-108 152,-108 152,0 0,0"/>
</a>
</g>
</g>
</g>
</svg>
