<?xml version="1.0" encoding="UTF-8" standalone="no"?>
<!DOCTYPE svg PUBLIC "-//W3C//DTD SVG 1.1//EN"
 "http://www.w3.org/Graphics/SVG/1.1/DTD/svg11.dtd">
<!-- Generated by graphviz version 12.2.1 (20241206.2353)
 -->
<!-- Title: fbcover.problem_fb.cost Pages: 1 -->
<svg width="312pt" height="66pt"
 viewBox="0.00 0.00 312.25 66.00" xmlns="http://www.w3.org/2000/svg" xmlns:xlink="http://www.w3.org/1999/xlink">
<g id="graph0" class="graph" transform="scale(1 1) rotate(0) translate(4 62)">
<title>fbcover.problem_fb.cost</title>
<!-- Node1 -->
<g id="Node000001" class="node">
<title>Node1</title>
<g id="a_Node000001"><a xlink:title=" ">
<polygon fill="#999999" stroke="#666666" points="304.25,-39 183.25,-39 183.25,-19 304.25,-19 304.25,-39"/>
<text text-anchor="middle" x="243.75" y="-25.5" font-family="Helvetica,sans-Serif" font-size="10.00">fbcover.problem_fb.cost</text>
</a>
</g>
</g>
<!-- Node2 -->
<g id="Node000002" class="node">
<title>Node2</title>
<g id="a_Node000002"><a xlink:href="classfbcover_1_1problem__fb.html#aaee0bd1064a102d1c0b08531a924bebc" target="_top" xlink:title=" ">
<polygon fill="white" stroke="#666666" points="139.38,-58 7.88,-58 7.88,-38 139.38,-38 139.38,-58"/>
<text text-anchor="middle" x="73.62" y="-44.5" font-family="Helvetica,sans-Serif" font-size="10.00">fbcover.problem_fb.fitness</text>
</a>
</g>
</g>
<!-- Node1&#45;&gt;Node2 -->
<g id="edge1_Node000001_Node000002" class="edge">
<title>Node1&#45;&gt;Node2</title>
<g id="a_edge1_Node000001_Node000002"><a xlink:title=" ">
<path fill="none" stroke="#63b8ff" d="M171.62,-37.04C161,-38.24 150.09,-39.47 139.6,-40.66"/>
<polygon fill="#63b8ff" stroke="#63b8ff" points="171.95,-40.52 181.5,-35.92 171.17,-33.57 171.95,-40.52"/>
</a>
</g>
</g>
<!-- Node3 -->
<g id="Node000003" class="node">
<title>Node3</title>
<g id="a_Node000003"><a xlink:href="classfbcover_1_1problem__fb.html#aafca7fa77a778148b4e8f81fc10f5607" target="_top" xlink:title=" ">
<polygon fill="white" stroke="#666666" points="147.25,-20 0,-20 0,0 147.25,0 147.25,-20"/>
<text text-anchor="middle" x="73.62" y="-6.5" font-family="Helvetica,sans-Serif" font-size="10.00">fbcover.problem_fb.fitness_so</text>
</a>
</g>
</g>
<!-- Node1&#45;&gt;Node3 -->
<g id="edge2_Node000001_Node000003" class="edge">
<title>Node1&#45;&gt;Node3</title>
<g id="a_edge2_Node000001_Node000003"><a xlink:title=" ">
<path fill="none" stroke="#63b8ff" d="M171.58,-20.96C163.69,-20.07 155.64,-19.16 147.72,-18.26"/>
<polygon fill="#63b8ff" stroke="#63b8ff" points="171.17,-24.43 181.5,-22.08 171.95,-17.48 171.17,-24.43"/>
</a>
</g>
</g>
</g>
</svg>
