<?xml version="1.0" encoding="UTF-8" standalone="no"?>
<!DOCTYPE svg PUBLIC "-//W3C//DTD SVG 1.1//EN"
 "http://www.w3.org/Graphics/SVG/1.1/DTD/svg11.dtd">
<!-- Generated by graphviz version 12.2.1 (20241206.2353)
 -->
<!-- Title: fcmaes.mapelites.Archive.dump Pages: 1 -->
<svg width="362pt" height="308pt"
 viewBox="0.00 0.00 361.75 308.00" xmlns="http://www.w3.org/2000/svg" xmlns:xlink="http://www.w3.org/1999/xlink">
<g id="graph0" class="graph" transform="scale(1 1) rotate(0) translate(4 304)">
<title>fcmaes.mapelites.Archive.dump</title>
<!-- Node1 -->
<g id="Node000001" class="node">
<title>Node1</title>
<g id="a_Node000001"><a xlink:title="Prints a sorted dump of data points up to the specified limit.">
<polygon fill="#999999" stroke="#666666" points="156.25,-118 0,-118 0,-98 156.25,-98 156.25,-118"/>
<text text-anchor="middle" x="78.12" y="-104.5" font-family="Helvetica,sans-Serif" font-size="10.00">fcmaes.mapelites.Archive.dump</text>
</a>
</g>
</g>
<!-- Node2 -->
<g id="Node000002" class="node">
<title>Node2</title>
<g id="a_Node000002"><a xlink:href="classexamples_1_1kepler_1_1lambert_1_1lambert__problem__multirev.html#acb524881ce41e73025559fa7ffc00715" target="_top" xlink:title=" ">
<polygon fill="white" stroke="#666666" points="351.88,-282 194.12,-282 194.12,-250 351.88,-250 351.88,-282"/>
<text text-anchor="start" x="202.12" y="-268.5" font-family="Helvetica,sans-Serif" font-size="10.00">examples.kepler.lambert.lambert</text>
<text text-anchor="middle" x="273" y="-256.5" font-family="Helvetica,sans-Serif" font-size="10.00">_problem_multirev.get_x</text>
</a>
</g>
</g>
<!-- Node1&#45;&gt;Node2 -->
<g id="edge1_Node000001_Node000002" class="edge">
<title>Node1&#45;&gt;Node2</title>
<g id="a_edge1_Node000001_Node000002"><a xlink:title=" ">
<path fill="none" stroke="#63b8ff" d="M85.07,-118.37C99.87,-143.3 140.94,-207.03 192.25,-241 194.11,-242.23 196.03,-243.41 198.01,-244.52"/>
<polygon fill="#63b8ff" stroke="#63b8ff" points="196.37,-247.62 206.88,-248.99 199.52,-241.37 196.37,-247.62"/>
</a>
</g>
</g>
<!-- Node3 -->
<g id="Node000003" class="node">
<title>Node3</title>
<g id="a_Node000003"><a xlink:href="classexamples_1_1kepler_1_1lambert_1_1lambert__problem__multirev__ga.html#a0683a879c52988d0039d1867bdfdc56b" target="_top" xlink:title=" ">
<polygon fill="white" stroke="#666666" points="351.88,-214 194.12,-214 194.12,-182 351.88,-182 351.88,-214"/>
<text text-anchor="start" x="202.12" y="-200.5" font-family="Helvetica,sans-Serif" font-size="10.00">examples.kepler.lambert.lambert</text>
<text text-anchor="middle" x="273" y="-188.5" font-family="Helvetica,sans-Serif" font-size="10.00">_problem_multirev_ga.get_x</text>
</a>
</g>
</g>
<!-- Node1&#45;&gt;Node3 -->
<g id="edge3_Node000001_Node000003" class="edge">
<title>Node1&#45;&gt;Node3</title>
<g id="a_edge3_Node000001_Node000003"><a xlink:title=" ">
<path fill="none" stroke="#63b8ff" d="M94.66,-118.39C115.96,-132.29 155.73,-157.01 192.25,-173 195.99,-174.64 199.88,-176.22 203.83,-177.73"/>
<polygon fill="#63b8ff" stroke="#63b8ff" points="202.36,-180.93 212.96,-181.07 204.76,-174.35 202.36,-180.93"/>
</a>
</g>
</g>
<!-- Node4 -->
<g id="Node000004" class="node">
<title>Node4</title>
<g id="a_Node000004"><a xlink:href="classexamples_1_1kepler_1_1lambert_1_1lambert__problem__stochastic.html#ae1b904d6fedd51f7e642c4e3efe5d69a" target="_top" xlink:title=" ">
<polygon fill="white" stroke="#666666" points="351.88,-146 194.12,-146 194.12,-114 351.88,-114 351.88,-146"/>
<text text-anchor="start" x="202.12" y="-132.5" font-family="Helvetica,sans-Serif" font-size="10.00">examples.kepler.lambert.lambert</text>
<text text-anchor="middle" x="273" y="-120.5" font-family="Helvetica,sans-Serif" font-size="10.00">_problem_stochastic.get_x</text>
</a>
</g>
</g>
<!-- Node1&#45;&gt;Node4 -->
<g id="edge5_Node000001_Node000004" class="edge">
<title>Node1&#45;&gt;Node4</title>
<g id="a_edge5_Node000001_Node000004"><a xlink:title=" ">
<path fill="none" stroke="#63b8ff" d="M156.74,-116.85C165.26,-117.82 173.98,-118.82 182.62,-119.8"/>
<polygon fill="#63b8ff" stroke="#63b8ff" points="182.08,-123.27 192.41,-120.92 182.87,-116.31 182.08,-123.27"/>
</a>
</g>
</g>
<!-- Node5 -->
<g id="Node000005" class="node">
<title>Node5</title>
<g id="a_Node000005"><a xlink:href="classfcmaes_1_1advretry_1_1_store.html#a97e407315b2e0c802b9d5b4414f3f91b" target="_top" xlink:title="Retrieves a segment of the xs array corresponding to the provided pid.">
<polygon fill="white" stroke="#666666" points="342.5,-96 203.5,-96 203.5,-76 342.5,-76 342.5,-96"/>
<text text-anchor="middle" x="273" y="-82.5" font-family="Helvetica,sans-Serif" font-size="10.00">fcmaes.advretry.Store.get_x</text>
</a>
</g>
</g>
<!-- Node1&#45;&gt;Node5 -->
<g id="edge7_Node000001_Node000005" class="edge">
<title>Node1&#45;&gt;Node5</title>
<g id="a_edge7_Node000001_Node000005"><a xlink:title=" ">
<path fill="none" stroke="#63b8ff" d="M156.74,-99.15C168.4,-97.82 180.44,-96.44 192.15,-95.11"/>
<polygon fill="#63b8ff" stroke="#63b8ff" points="192.21,-98.62 201.75,-94.01 191.41,-91.67 192.21,-98.62"/>
</a>
</g>
</g>
<!-- Node6 -->
<g id="Node000006" class="node">
<title>Node6</title>
<g id="a_Node000006"><a xlink:href="classfcmaes_1_1advretry_1_1_store.html#a3cc073975313c4893de761cfc9771d77" target="_top" xlink:title="Gets the stored y&#45;values up to the specified count.">
<polygon fill="white" stroke="#666666" points="345.12,-58 200.88,-58 200.88,-38 345.12,-38 345.12,-58"/>
<text text-anchor="middle" x="273" y="-44.5" font-family="Helvetica,sans-Serif" font-size="10.00">fcmaes.advretry.Store.get_ys</text>
</a>
</g>
</g>
<!-- Node1&#45;&gt;Node6 -->
<g id="edge8_Node000001_Node000006" class="edge">
<title>Node1&#45;&gt;Node6</title>
<g id="a_edge8_Node000001_Node000006"><a xlink:title=" ">
<path fill="none" stroke="#63b8ff" d="M105.35,-97.53C128.1,-88.68 162.03,-76.04 192.25,-67 198.96,-64.99 206.04,-63.05 213.1,-61.23"/>
<polygon fill="#63b8ff" stroke="#63b8ff" points="213.79,-64.67 222.64,-58.84 212.09,-57.88 213.79,-64.67"/>
</a>
</g>
</g>
<!-- Node7 -->
<g id="Node000007" class="node">
<title>Node7</title>
<g id="a_Node000007"><a xlink:href="classfcmaes_1_1mapelites_1_1_archive.html#a91c9f1ac5485896833fc7b9859b85af1" target="_top" xlink:title="Returns a copy of the ys array.">
<polygon fill="white" stroke="#666666" points="353.75,-20 192.25,-20 192.25,0 353.75,0 353.75,-20"/>
<text text-anchor="middle" x="273" y="-6.5" font-family="Helvetica,sans-Serif" font-size="10.00">fcmaes.mapelites.Archive.get_ys</text>
</a>
</g>
</g>
<!-- Node1&#45;&gt;Node7 -->
<g id="edge9_Node000001_Node000007" class="edge">
<title>Node1&#45;&gt;Node7</title>
<g id="a_edge9_Node000001_Node000007"><a xlink:title=" ">
<path fill="none" stroke="#63b8ff" d="M90.76,-97.6C110.3,-80.68 151.6,-47.24 192.25,-29 196.49,-27.1 200.94,-25.37 205.48,-23.81"/>
<polygon fill="#63b8ff" stroke="#63b8ff" points="206.25,-27.24 214.75,-20.9 204.16,-20.56 206.25,-27.24"/>
</a>
</g>
</g>
<!-- Node2&#45;&gt;Node2 -->
<g id="edge2_Node000002_Node000002" class="edge">
<title>Node2&#45;&gt;Node2</title>
<g id="a_edge2_Node000002_Node000002"><a xlink:title=" ">
<path fill="none" stroke="#63b8ff" d="M238.21,-282.44C231.72,-291.58 243.31,-300 273,-300 289.24,-300 300.06,-297.48 305.48,-293.71"/>
<polygon fill="#63b8ff" stroke="#63b8ff" points="308.9,-294.43 307.49,-283.93 302.04,-293.02 308.9,-294.43"/>
</a>
</g>
</g>
<!-- Node3&#45;&gt;Node3 -->
<g id="edge4_Node000003_Node000003" class="edge">
<title>Node3&#45;&gt;Node3</title>
<g id="a_edge4_Node000003_Node000003"><a xlink:title=" ">
<path fill="none" stroke="#63b8ff" d="M238.21,-214.44C231.72,-223.58 243.31,-232 273,-232 289.24,-232 300.06,-229.48 305.48,-225.71"/>
<polygon fill="#63b8ff" stroke="#63b8ff" points="308.9,-226.43 307.49,-215.93 302.04,-225.02 308.9,-226.43"/>
</a>
</g>
</g>
<!-- Node4&#45;&gt;Node4 -->
<g id="edge6_Node000004_Node000004" class="edge">
<title>Node4&#45;&gt;Node4</title>
<g id="a_edge6_Node000004_Node000004"><a xlink:title=" ">
<path fill="none" stroke="#63b8ff" d="M238.21,-146.44C231.72,-155.58 243.31,-164 273,-164 289.24,-164 300.06,-161.48 305.48,-157.71"/>
<polygon fill="#63b8ff" stroke="#63b8ff" points="308.9,-158.43 307.49,-147.93 302.04,-157.02 308.9,-158.43"/>
</a>
</g>
</g>
</g>
</svg>
