<?xml version="1.0" encoding="UTF-8" standalone="no"?>
<!DOCTYPE svg PUBLIC "-//W3C//DTD SVG 1.1//EN"
 "http://www.w3.org/Graphics/SVG/1.1/DTD/svg11.dtd">
<!-- Generated by graphviz version 12.2.1 (20241206.2353)
 -->
<!-- Title: differential_evolution::DeOptimizer::tell Pages: 1 -->
<svg width="284pt" height="102pt"
 viewBox="0.00 0.00 283.75 102.00" xmlns="http://www.w3.org/2000/svg" xmlns:xlink="http://www.w3.org/1999/xlink">
<g id="graph0" class="graph" transform="scale(1 1) rotate(0) translate(4 98)">
<title>differential_evolution::DeOptimizer::tell</title>
<!-- Node1 -->
<g id="Node000001" class="node">
<title>Node1</title>
<g id="a_Node000001"><a xlink:title=" ">
<polygon fill="#999999" stroke="#666666" points="275.75,-60 171.25,-60 171.25,-28 275.75,-28 275.75,-60"/>
<text text-anchor="start" x="179.25" y="-46.5" font-family="Helvetica,sans-Serif" font-size="10.00">differential_evolution</text>
<text text-anchor="middle" x="223.5" y="-34.5" font-family="Helvetica,sans-Serif" font-size="10.00">::DeOptimizer::tell</text>
</a>
</g>
</g>
<!-- Node2 -->
<g id="Node000002" class="node">
<title>Node2</title>
<g id="a_Node000002"><a xlink:href="classdifferential__evolution_1_1_de_optimizer.html#a0af3433f0f60f99f8a9fbf9f10f36360" target="_top" xlink:title=" ">
<polygon fill="white" stroke="#666666" points="135.25,-94 0,-94 0,-50 135.25,-50 135.25,-94"/>
<text text-anchor="start" x="8" y="-80.5" font-family="Helvetica,sans-Serif" font-size="10.00">differential_evolution</text>
<text text-anchor="start" x="8" y="-68.5" font-family="Helvetica,sans-Serif" font-size="10.00">::DeOptimizer::do_optimize</text>
<text text-anchor="middle" x="67.62" y="-56.5" font-family="Helvetica,sans-Serif" font-size="10.00">_delayed_update</text>
</a>
</g>
</g>
<!-- Node1&#45;&gt;Node2 -->
<g id="edge1_Node000001_Node000002" class="edge">
<title>Node1&#45;&gt;Node2</title>
<g id="a_edge1_Node000001_Node000002"><a xlink:title=" ">
<path fill="none" stroke="#63b8ff" d="M159.52,-55.46C151.68,-56.89 143.64,-58.35 135.73,-59.79"/>
<polygon fill="#63b8ff" stroke="#63b8ff" points="160.13,-58.91 169.34,-53.67 158.88,-52.02 160.13,-58.91"/>
</a>
</g>
</g>
<!-- Node3 -->
<g id="Node000003" class="node">
<title>Node3</title>
<g id="a_Node000003"><a xlink:href="classdifferential__evolution_1_1_de_optimizer.html#aa1d0f0d9ddbb192cb30b470d8c3c1af0" target="_top" xlink:title=" ">
<polygon fill="white" stroke="#666666" points="121,-32 14.25,-32 14.25,0 121,0 121,-32"/>
<text text-anchor="start" x="22.25" y="-18.5" font-family="Helvetica,sans-Serif" font-size="10.00">differential_evolution</text>
<text text-anchor="middle" x="67.62" y="-6.5" font-family="Helvetica,sans-Serif" font-size="10.00">::DeOptimizer::tellAll</text>
</a>
</g>
</g>
<!-- Node1&#45;&gt;Node3 -->
<g id="edge2_Node000001_Node000003" class="edge">
<title>Node1&#45;&gt;Node3</title>
<g id="a_edge2_Node000001_Node000003"><a xlink:title=" ">
<path fill="none" stroke="#63b8ff" d="M159.82,-32.59C147.09,-30.28 133.82,-27.86 121.47,-25.62"/>
<polygon fill="#63b8ff" stroke="#63b8ff" points="158.88,-35.98 169.34,-34.33 160.13,-29.09 158.88,-35.98"/>
</a>
</g>
</g>
</g>
</svg>
