<?xml version="1.0" encoding="UTF-8" standalone="no"?>
<!DOCTYPE svg PUBLIC "-//W3C//DTD SVG 1.1//EN"
 "http://www.w3.org/Graphics/SVG/1.1/DTD/svg11.dtd">
<!-- Generated by graphviz version 12.2.1 (20241206.2353)
 -->
<!-- Title: CBiteOptDeep::optimize Pages: 1 -->
<svg width="559pt" height="84pt"
 viewBox="0.00 0.00 558.75 84.00" xmlns="http://www.w3.org/2000/svg" xmlns:xlink="http://www.w3.org/1999/xlink">
<g id="graph0" class="graph" transform="scale(1 1) rotate(0) translate(4 80)">
<title>CBiteOptDeep::optimize</title>
<!-- Node1 -->
<g id="Node000001" class="node">
<title>Node1</title>
<g id="a_Node000001"><a xlink:title=" ">
<polygon fill="#999999" stroke="#666666" points="122.5,-39 0,-39 0,-19 122.5,-19 122.5,-39"/>
<text text-anchor="middle" x="61.25" y="-25.5" font-family="Helvetica,sans-Serif" font-size="10.00">CBiteOptDeep::optimize</text>
</a>
</g>
</g>
<!-- Node1&#45;&gt;Node1 -->
<g id="edge6_Node000001_Node000001" class="edge">
<title>Node1&#45;&gt;Node1</title>
<g id="a_edge6_Node000001_Node000001"><a xlink:title=" ">
<path fill="none" stroke="#63b8ff" d="M34.64,-39.34C23.26,-47.98 32.13,-57 61.25,-57 77.17,-57 87.04,-54.3 90.85,-50.44"/>
<polygon fill="#63b8ff" stroke="#63b8ff" points="94.24,-49.55 88.26,-40.8 87.48,-51.37 94.24,-49.55"/>
</a>
</g>
</g>
<!-- Node2 -->
<g id="Node000002" class="node">
<title>Node2</title>
<g id="a_Node000002"><a xlink:href="class_c_bite_opt_deep.html#a961516dc7772d327e64965fc3e07ce31" target="_top" xlink:title=" ">
<polygon fill="white" stroke="#666666" points="299,-58 158.5,-58 158.5,-38 299,-38 299,-58"/>
<text text-anchor="middle" x="228.75" y="-44.5" font-family="Helvetica,sans-Serif" font-size="10.00">CBiteOptDeep::getBestCost</text>
</a>
</g>
</g>
<!-- Node1&#45;&gt;Node2 -->
<g id="edge1_Node000001_Node000002" class="edge">
<title>Node1&#45;&gt;Node2</title>
<g id="a_edge1_Node000001_Node000002"><a xlink:title=" ">
<path fill="none" stroke="#63b8ff" d="M122.94,-35.97C130.71,-36.86 138.77,-37.78 146.8,-38.71"/>
<polygon fill="#63b8ff" stroke="#63b8ff" points="146.27,-42.17 156.61,-39.83 147.07,-35.21 146.27,-42.17"/>
</a>
</g>
</g>
<!-- Node3 -->
<g id="Node000003" class="node">
<title>Node3</title>
<g id="a_Node000003"><a xlink:href="class_c_bite_rnd.html#a4e9ad0a5c5e09149a60f849736d8d7ce" target="_top" xlink:title=" ">
<polygon fill="white" stroke="#666666" points="273.5,-20 184,-20 184,0 273.5,0 273.5,-20"/>
<text text-anchor="middle" x="228.75" y="-6.5" font-family="Helvetica,sans-Serif" font-size="10.00">CBiteRnd::getInt</text>
</a>
</g>
</g>
<!-- Node1&#45;&gt;Node3 -->
<g id="edge3_Node000001_Node000003" class="edge">
<title>Node1&#45;&gt;Node3</title>
<g id="a_edge3_Node000001_Node000003"><a xlink:title=" ">
<path fill="none" stroke="#63b8ff" d="M122.94,-22.03C139.12,-20.18 156.52,-18.18 172.4,-16.35"/>
<polygon fill="#63b8ff" stroke="#63b8ff" points="172.61,-19.85 182.15,-15.24 171.82,-12.9 172.61,-19.85"/>
</a>
</g>
</g>
<!-- Node2&#45;&gt;Node2 -->
<g id="edge2_Node000002_Node000002" class="edge">
<title>Node2&#45;&gt;Node2</title>
<g id="a_edge2_Node000002_Node000002"><a xlink:title=" ">
<path fill="none" stroke="#63b8ff" d="M205.65,-58.34C195.78,-66.98 203.48,-76 228.75,-76 242.57,-76 251.13,-73.3 254.44,-69.44"/>
<polygon fill="#63b8ff" stroke="#63b8ff" points="257.88,-68.75 252.19,-59.81 251.06,-70.35 257.88,-68.75"/>
</a>
</g>
</g>
<!-- Node4 -->
<g id="Node000004" class="node">
<title>Node4</title>
<g id="a_Node000004"><a xlink:href="class_c_bite_rnd.html#afdb77334884f1a612780def0dec0a326" target="_top" xlink:title=" ">
<polygon fill="white" stroke="#666666" points="413.25,-20 335,-20 335,0 413.25,0 413.25,-20"/>
<text text-anchor="middle" x="374.12" y="-6.5" font-family="Helvetica,sans-Serif" font-size="10.00">CBiteRnd::get</text>
</a>
</g>
</g>
<!-- Node3&#45;&gt;Node4 -->
<g id="edge4_Node000003_Node000004" class="edge">
<title>Node3&#45;&gt;Node4</title>
<g id="a_edge4_Node000003_Node000004"><a xlink:title=" ">
<path fill="none" stroke="#63b8ff" d="M273.94,-10C289.56,-10 307.24,-10 323.3,-10"/>
<polygon fill="#63b8ff" stroke="#63b8ff" points="323.15,-13.5 333.15,-10 323.15,-6.5 323.15,-13.5"/>
</a>
</g>
</g>
<!-- Node5 -->
<g id="Node000005" class="node">
<title>Node5</title>
<g id="a_Node000005"><a xlink:href="class_c_bite_rnd.html#ae1167f8ecac85f268ced4bc1d2fa953b" target="_top" xlink:title=" ">
<polygon fill="white" stroke="#666666" points="550.75,-20 449.25,-20 449.25,0 550.75,0 550.75,-20"/>
<text text-anchor="middle" x="500" y="-6.5" font-family="Helvetica,sans-Serif" font-size="10.00">CBiteRnd::advance</text>
</a>
</g>
</g>
<!-- Node4&#45;&gt;Node5 -->
<g id="edge5_Node000004_Node000005" class="edge">
<title>Node4&#45;&gt;Node5</title>
<g id="a_edge5_Node000004_Node000005"><a xlink:title=" ">
<path fill="none" stroke="#63b8ff" d="M413.64,-10C421.27,-10 429.45,-10 437.62,-10"/>
<polygon fill="#63b8ff" stroke="#63b8ff" points="437.59,-13.5 447.59,-10 437.59,-6.5 437.59,-13.5"/>
</a>
</g>
</g>
</g>
</svg>
