<?xml version="1.0" encoding="UTF-8" standalone="no"?>
<!DOCTYPE svg PUBLIC "-//W3C//DTD SVG 1.1//EN"
 "http://www.w3.org/Graphics/SVG/1.1/DTD/svg11.dtd">
<!-- Generated by graphviz version 12.2.1 (20241206.2353)
 -->
<!-- Title: fcmaes.optimizer.NLopt Pages: 1 -->
<svg width="252pt" height="392pt"
 viewBox="0.00 0.00 251.75 392.00" xmlns="http://www.w3.org/2000/svg" xmlns:xlink="http://www.w3.org/1999/xlink">

<svg id="main" version="1.1" xmlns="http://www.w3.org/2000/svg" xmlns:xlink="http://www.w3.org/1999/xlink" xml:space="preserve">

<style type="text/css"><![CDATA[
.node, .edge {opacity: 0.7;}
.node.selected, .edge.selected {opacity: 1;}
.edge:hover path { stroke: red; }
.edge:hover polygon { stroke: red; fill: red; }
]]></style>
<script type="application/ecmascript" xlink:href="svg.min.js"/>
<svg id="graph" class="graph">
<g id="graph0" class="graph" transform="scale(1 1) rotate(0) translate(4 388)">
<title>fcmaes.optimizer.NLopt</title>
<!-- Node1 -->
<g id="Node000001" class="node">
<title>Node1</title>
<g id="a_Node000001"><a xlink:title="Optimizer class utilizing NLopt algorithms for optimization tasks.">
<polygon fill="#999999" stroke="none" points="243.75,-200 0,-200 0,0 243.75,0 243.75,-200"/>
<text text-anchor="start" x="69.75" y="-186.5" font-family="Helvetica,sans-Serif" font-size="10.00">fcmaes.optimizer.NLopt</text>
<text text-anchor="start" x="4" y="-170.5" font-family="Helvetica,sans-Serif" font-size="10.00">+</text>
<text text-anchor="start" x="14" y="-170.5" font-family="Helvetica,sans-Serif" font-size="10.00">algo</text>
<text text-anchor="start" x="4" y="-154.5" font-family="Helvetica,sans-Serif" font-size="10.00">+</text>
<text text-anchor="start" x="14" y="-154.5" font-family="Helvetica,sans-Serif" font-size="10.00">fun</text>
<text text-anchor="start" x="4" y="-138.5" font-family="Helvetica,sans-Serif" font-size="10.00">+</text>
<text text-anchor="start" x="14" y="-138.5" font-family="Helvetica,sans-Serif" font-size="10.00">nlfunc</text>
<text text-anchor="start" x="4" y="-122.5" font-family="Helvetica,sans-Serif" font-size="10.00">+</text>
<text text-anchor="start" x="14" y="-122.5" font-family="Helvetica,sans-Serif" font-size="10.00">__init__(self, algo,</text>
<text text-anchor="start" x="14" y="-110.5" font-family="Helvetica,sans-Serif" font-size="10.00"> max_evaluations=50000,</text>
<text text-anchor="start" x="14" y="-98.5" font-family="Helvetica,sans-Serif" font-size="10.00"> store=None)</text>
<text text-anchor="start" x="4" y="-82.5" font-family="Helvetica,sans-Serif" font-size="10.00">+</text>
<text text-anchor="start" x="14" y="-82.5" font-family="Helvetica,sans-Serif" font-size="10.00">Tuple[np.ndarray, float,</text>
<text text-anchor="start" x="14" y="-70.5" font-family="Helvetica,sans-Serif" font-size="10.00"> int] minimize(self, Callable</text>
<text text-anchor="start" x="14" y="-58.5" font-family="Helvetica,sans-Serif" font-size="10.00">[[ArrayLike], float] fun, Optional</text>
<text text-anchor="start" x="14" y="-46.5" font-family="Helvetica,sans-Serif" font-size="10.00">[Bounds] bounds, Optional[ArrayLike]</text>
<text text-anchor="start" x="14" y="-34.5" font-family="Helvetica,sans-Serif" font-size="10.00"> guess=None, Optional[float] sdevs</text>
<text text-anchor="start" x="14" y="-22.5" font-family="Helvetica,sans-Serif" font-size="10.00">=None, rg=Generator(PCG64DXSM()), store=None)</text>
<text text-anchor="start" x="4" y="-6.5" font-family="Helvetica,sans-Serif" font-size="10.00">+</text>
<text text-anchor="start" x="14" y="-6.5" font-family="Helvetica,sans-Serif" font-size="10.00">nlfunc(self, x, _)</text>
<polygon fill="#666666" stroke="#666666" points="0,-182 0,-182 243.75,-182 243.75,-182 0,-182"/>
<polygon fill="#666666" stroke="#666666" points="0,-134 0,-134 12,-134 12,-134 0,-134"/>
<polygon fill="#666666" stroke="#666666" points="12,-134 12,-134 243.75,-134 243.75,-134 12,-134"/>
<polygon fill="none" stroke="#666666" points="0,0 0,-200 243.75,-200 243.75,0 0,0"/>
</a>
</g>
</g>
<!-- Node2 -->
<g id="Node000002" class="node">
<title>Node2</title>
<g id="a_Node000002"><a xlink:href="classfcmaes_1_1optimizer_1_1_optimizer.html" target="_top" xlink:title="Provides functionalities for optimization tasks.">
<polygon fill="white" stroke="none" points="195,-384 48.75,-384 48.75,-236 195,-236 195,-384"/>
<text text-anchor="start" x="61.88" y="-370.5" font-family="Helvetica,sans-Serif" font-size="10.00">fcmaes.optimizer.Optimizer</text>
<text text-anchor="start" x="52.75" y="-354.5" font-family="Helvetica,sans-Serif" font-size="10.00">+</text>
<text text-anchor="start" x="62.75" y="-354.5" font-family="Helvetica,sans-Serif" font-size="10.00">max_evaluations</text>
<text text-anchor="start" x="52.75" y="-338.5" font-family="Helvetica,sans-Serif" font-size="10.00">+</text>
<text text-anchor="start" x="62.75" y="-338.5" font-family="Helvetica,sans-Serif" font-size="10.00">name</text>
<text text-anchor="start" x="52.75" y="-322.5" font-family="Helvetica,sans-Serif" font-size="10.00">+</text>
<text text-anchor="start" x="62.75" y="-322.5" font-family="Helvetica,sans-Serif" font-size="10.00">__init__(self, Optional</text>
<text text-anchor="start" x="62.75" y="-310.5" font-family="Helvetica,sans-Serif" font-size="10.00">[int] max_evaluations=50000,</text>
<text text-anchor="start" x="62.75" y="-298.5" font-family="Helvetica,sans-Serif" font-size="10.00"> Optional[str] name=&#39;&#39;)</text>
<text text-anchor="start" x="52.75" y="-282.5" font-family="Helvetica,sans-Serif" font-size="10.00">+</text>
<text text-anchor="start" x="62.75" y="-282.5" font-family="Helvetica,sans-Serif" font-size="10.00">max_eval_num(self,</text>
<text text-anchor="start" x="62.75" y="-270.5" font-family="Helvetica,sans-Serif" font-size="10.00"> store=None)</text>
<text text-anchor="start" x="52.75" y="-254.5" font-family="Helvetica,sans-Serif" font-size="10.00">+</text>
<text text-anchor="start" x="62.75" y="-254.5" font-family="Helvetica,sans-Serif" font-size="10.00">get_count_runs(self,</text>
<text text-anchor="start" x="62.75" y="-242.5" font-family="Helvetica,sans-Serif" font-size="10.00"> store=None)</text>
<polygon fill="#666666" stroke="#666666" points="48.75,-366 48.75,-366 195,-366 195,-366 48.75,-366"/>
<polygon fill="#666666" stroke="#666666" points="48.75,-334 48.75,-334 60.75,-334 60.75,-334 48.75,-334"/>
<polygon fill="#666666" stroke="#666666" points="60.75,-334 60.75,-334 195,-334 195,-334 60.75,-334"/>
<polygon fill="none" stroke="#666666" points="48.75,-236 48.75,-384 195,-384 195,-236 48.75,-236"/>
</a>
</g>
</g>
<!-- Node2&#45;&gt;Node1 -->
<g id="edge1_Node000001_Node000002" class="edge">
<title>Node2&#45;&gt;Node1</title>
<g id="a_edge1_Node000001_Node000002"><a xlink:title=" ">
<path fill="none" stroke="#63b8ff" d="M121.88,-225.01C121.88,-216.66 121.88,-208.14 121.88,-199.67"/>
<polygon fill="none" stroke="#63b8ff" points="118.38,-224.74 121.88,-234.74 125.38,-224.74 118.38,-224.74"/>
</a>
</g>
</g>
</g>
</svg>
</svg>

<style type='text/css'>
<![CDATA[
[data-mouse-over-selected='false'] { opacity: 0.7; }
[data-mouse-over-selected='true']  { opacity: 1.0; }
]]>
</style>
<script type="application/ecmascript"><![CDATA[
document.addEventListener('DOMContentLoaded', (event) => {
  highlightEdges();
  highlightAdjacentNodes();
});
]]></script>
</svg>
