<?xml version="1.0" encoding="UTF-8" standalone="no"?>
<!DOCTYPE svg PUBLIC "-//W3C//DTD SVG 1.1//EN"
 "http://www.w3.org/Graphics/SVG/1.1/DTD/svg11.dtd">
<!-- Generated by graphviz version 12.2.1 (20241206.2353)
 -->
<!-- Title: examples.solo_mgar_udp.solo_mgar_udp.plot_distance_and_flybys Pages: 1 -->
<svg width="457pt" height="121pt"
 viewBox="0.00 0.00 457.25 121.00" xmlns="http://www.w3.org/2000/svg" xmlns:xlink="http://www.w3.org/1999/xlink">
<g id="graph0" class="graph" transform="scale(1 1) rotate(0) translate(4 117)">
<title>examples.solo_mgar_udp.solo_mgar_udp.plot_distance_and_flybys</title>
<!-- Node1 -->
<g id="Node000001" class="node">
<title>Node1</title>
<g id="a_Node000001"><a xlink:title=" ">
<polygon fill="#999999" stroke="#666666" points="124.75,-66 0,-66 0,-22 124.75,-22 124.75,-66"/>
<text text-anchor="start" x="8" y="-52.5" font-family="Helvetica,sans-Serif" font-size="10.00">examples.solo_mgar</text>
<text text-anchor="start" x="8" y="-40.5" font-family="Helvetica,sans-Serif" font-size="10.00">_udp.solo_mgar_udp.plot</text>
<text text-anchor="middle" x="62.38" y="-28.5" font-family="Helvetica,sans-Serif" font-size="10.00">_distance_and_flybys</text>
</a>
</g>
</g>
<!-- Node2 -->
<g id="Node000002" class="node">
<title>Node2</title>
<g id="a_Node000002"><a xlink:href="classexamples_1_1solo__mgar__udp_1_1solo__mgar__udp.html#a92828aaaf12b6addeb33a6249b7539b8" target="_top" xlink:title=" ">
<polygon fill="white" stroke="#666666" points="277.62,-94 168.62,-94 168.62,-50 277.62,-50 277.62,-94"/>
<text text-anchor="start" x="176.62" y="-80.5" font-family="Helvetica,sans-Serif" font-size="10.00">examples.solo_mgar</text>
<text text-anchor="start" x="176.62" y="-68.5" font-family="Helvetica,sans-Serif" font-size="10.00">_udp.solo_mgar_udp.</text>
<text text-anchor="middle" x="223.12" y="-56.5" font-family="Helvetica,sans-Serif" font-size="10.00">_compute_dvs</text>
</a>
</g>
</g>
<!-- Node1&#45;&gt;Node2 -->
<g id="edge1_Node000001_Node000002" class="edge">
<title>Node1&#45;&gt;Node2</title>
<g id="a_edge1_Node000001_Node000002"><a xlink:title=" ">
<path fill="none" stroke="#63b8ff" d="M125.21,-54.91C135.63,-56.74 146.47,-58.66 156.98,-60.51"/>
<polygon fill="#63b8ff" stroke="#63b8ff" points="156.25,-63.94 166.71,-62.23 157.47,-57.04 156.25,-63.94"/>
</a>
</g>
</g>
<!-- Node5 -->
<g id="Node000005" class="node">
<title>Node5</title>
<g id="a_Node000005"><a xlink:href="classexamples_1_1solo__mgar__udp_1_1solo__mgar__udp.html#afaf91bbef39f261bba9225fd537e1c64" target="_top" xlink:title=" ">
<polygon fill="white" stroke="#666666" points="285.5,-32 160.75,-32 160.75,0 285.5,0 285.5,-32"/>
<text text-anchor="start" x="168.75" y="-18.5" font-family="Helvetica,sans-Serif" font-size="10.00">examples.solo_mgar</text>
<text text-anchor="middle" x="223.12" y="-6.5" font-family="Helvetica,sans-Serif" font-size="10.00">_udp.solo_mgar_udp.eph</text>
</a>
</g>
</g>
<!-- Node1&#45;&gt;Node5 -->
<g id="edge4_Node000001_Node000005" class="edge">
<title>Node1&#45;&gt;Node5</title>
<g id="a_edge4_Node000001_Node000005"><a xlink:title=" ">
<path fill="none" stroke="#63b8ff" d="M125.21,-33.09C133.08,-31.71 141.19,-30.28 149.21,-28.86"/>
<polygon fill="#63b8ff" stroke="#63b8ff" points="149.73,-32.32 158.97,-27.14 148.52,-25.43 149.73,-32.32"/>
</a>
</g>
</g>
<!-- Node3 -->
<g id="Node000003" class="node">
<title>Node3</title>
<g id="a_Node000003"><a xlink:href="namespaceexamples_1_1solo__mgar__udp.html#a6d928d9b61388ba3bc08749cb303c94e" target="_top" xlink:title=" ">
<polygon fill="white" stroke="#666666" points="438.38,-113 332.38,-113 332.38,-81 438.38,-81 438.38,-113"/>
<text text-anchor="start" x="340.38" y="-99.5" font-family="Helvetica,sans-Serif" font-size="10.00">examples.solo_mgar</text>
<text text-anchor="middle" x="385.38" y="-87.5" font-family="Helvetica,sans-Serif" font-size="10.00">_udp._dv_mga</text>
</a>
</g>
</g>
<!-- Node2&#45;&gt;Node3 -->
<g id="edge2_Node000002_Node000003" class="edge">
<title>Node2&#45;&gt;Node3</title>
<g id="a_edge2_Node000002_Node000003"><a xlink:title=" ">
<path fill="none" stroke="#63b8ff" d="M277.93,-80.39C291.71,-82.54 306.65,-84.87 320.86,-87.09"/>
<polygon fill="#63b8ff" stroke="#63b8ff" points="320.15,-90.52 330.57,-88.61 321.23,-83.61 320.15,-90.52"/>
</a>
</g>
</g>
<!-- Node4 -->
<g id="Node000004" class="node">
<title>Node4</title>
<g id="a_Node000004"><a xlink:href="namespaceexamples_1_1solo__mgar__udp.html#a2f01caf14c62d02e55dfc2245172590b" target="_top" xlink:title=" ">
<polygon fill="white" stroke="#666666" points="449.25,-63 321.5,-63 321.5,-31 449.25,-31 449.25,-63"/>
<text text-anchor="start" x="329.5" y="-49.5" font-family="Helvetica,sans-Serif" font-size="10.00">examples.solo_mgar</text>
<text text-anchor="middle" x="385.38" y="-37.5" font-family="Helvetica,sans-Serif" font-size="10.00">_udp.compute_resonance</text>
</a>
</g>
</g>
<!-- Node2&#45;&gt;Node4 -->
<g id="edge3_Node000002_Node000004" class="edge">
<title>Node2&#45;&gt;Node4</title>
<g id="a_edge3_Node000002_Node000004"><a xlink:title=" ">
<path fill="none" stroke="#63b8ff" d="M277.93,-63.61C288.19,-62.01 299.09,-60.3 309.86,-58.62"/>
<polygon fill="#63b8ff" stroke="#63b8ff" points="310.17,-62.12 319.51,-57.12 309.09,-55.2 310.17,-62.12"/>
</a>
</g>
</g>
</g>
</svg>
