<?xml version="1.0" encoding="UTF-8" standalone="no"?>
<!DOCTYPE svg PUBLIC "-//W3C//DTD SVG 1.1//EN"
 "http://www.w3.org/Graphics/SVG/1.1/DTD/svg11.dtd">
<!-- Generated by graphviz version 12.2.1 (20241206.2353)
 -->
<!-- Title: quantumcomm.constellation_udp.fitness Pages: 1 -->
<!--zoomable 340 -->

<svg id="main" version="1.1" xmlns="http://www.w3.org/2000/svg" xmlns:xlink="http://www.w3.org/1999/xlink" xml:space="preserve" onload="init(evt)">

<style type="text/css"><![CDATA[
.node, .edge {opacity: 0.7;}
.node.selected, .edge.selected {opacity: 1;}
.edge:hover path { stroke: red; }
.edge:hover polygon { stroke: red; fill: red; }
]]></style>

<defs>
  <circle id="rim" cx="0" cy="0" r="7"/>
  <circle id="rim2" cx="0" cy="0" r="3.5"/>
  <g id="zoomPlus">
    <use xlink:href="#rim" fill="#404040"><set attributeName="fill" to="#808080" begin="zoomplus.mouseover" end="zoomplus.mouseout"/></use>
    <path d="M-4,0h8M0,-4v8" fill="none" stroke="white" stroke-width="1.5" pointer-events="none"/>
  </g>
  <g id="zoomMin">
    <use xlink:href="#rim" fill="#404040"><set attributeName="fill" to="#808080" begin="zoomminus.mouseover" end="zoomminus.mouseout"/></use>
    <path d="M-4,0h8" fill="none" stroke="white" stroke-width="1.5" pointer-events="none"/>
  </g>
  <g id="arrowUp" transform="translate(30 24)">
    <use xlink:href="#rim"/>
    <path pointer-events="none" fill="none" stroke="white" stroke-width="1.5" d="M0,-3.0v7 M-2.5,-0.5L0,-3.0L2.5,-0.5"/>
  </g>
  <g id="arrowRight" transform="rotate(90) translate(36 -43)">
    <use xlink:href="#rim"/>
    <path pointer-events="none" fill="none" stroke="white" stroke-width="1.5" d="M0,-3.0v7 M-2.5,-0.5L0,-3.0L2.5,-0.5"/>
  </g>
  <g id="arrowDown" transform="rotate(180) translate(-30 -48)">
    <use xlink:href="#rim"/>
    <path pointer-events="none" fill="none" stroke="white" stroke-width="1.5" d="M0,-3.0v7 M-2.5,-0.5L0,-3.0L2.5,-0.5"/>
  </g>
  <g id="arrowLeft" transform="rotate(270) translate(-36 17)">
    <use xlink:href="#rim"/>
    <path pointer-events="none" fill="none" stroke="white" stroke-width="1.5" d="M0,-3.0v7 M-2.5,-0.5L0,-3.0L2.5,-0.5"/>
  </g>
  <g id="resetDef">
    <use xlink:href="#rim2" fill="#404040"><set attributeName="fill" to="#808080" begin="reset.mouseover" end="reset.mouseout"/></use>
  </g>
</defs>
<script type="application/ecmascript">
var viewWidth = 667;
var viewHeight = 340;
var sectionId = 'dynsection-10';
</script>
<script type="application/ecmascript" xlink:href="svg.min.js"/>
<svg id="graph" class="graph">
<g id="viewport">
<title>quantumcomm.constellation_udp.fitness</title>
<!-- Node1 -->
<g id="Node000001" class="node">
<title>Node1</title>
<g id="a_Node000001"><a xlink:title="Evaluate the fitness of the decision variables.">
<polygon fill="#999999" stroke="#666666" points="138.25,-182 0,-182 0,-150 138.25,-150 138.25,-182"/>
<text text-anchor="start" x="8" y="-168.5" font-family="Helvetica,sans-Serif" font-size="10.00">quantumcomm.constellation</text>
<text text-anchor="middle" x="69.12" y="-156.5" font-family="Helvetica,sans-Serif" font-size="10.00">_udp.fitness</text>
</a>
</g>
</g>
<!-- Node2 -->
<g id="Node000002" class="node">
<title>Node2</title>
<g id="a_Node000002"><a xlink:href="classquantumcomm_1_1constellation__udp.html#a5827f9a431732de6732e1d7a4d0a5fe5" target="_top" xlink:title="Computes the average shortest path length between the source and destination partitions of nodes in t...">
<polygon fill="white" stroke="#666666" points="313.25,-332 174.25,-332 174.25,-300 313.25,-300 313.25,-332"/>
<text text-anchor="start" x="182.25" y="-318.5" font-family="Helvetica,sans-Serif" font-size="10.00">quantumcomm.constellation</text>
<text text-anchor="middle" x="243.75" y="-306.5" font-family="Helvetica,sans-Serif" font-size="10.00">_udp.average_shortest_path</text>
</a>
</g>
</g>
<!-- Node1&#45;&gt;Node2 -->
<g id="edge1_Node000001_Node000002" class="edge">
<title>Node1&#45;&gt;Node2</title>
<g id="a_edge1_Node000001_Node000002"><a xlink:title=" ">
<path fill="none" stroke="#63b8ff" d="M79.59,-182.15C95.79,-208.48 131.28,-260.77 174.25,-291 175.82,-292.1 177.44,-293.16 179.1,-294.18"/>
<polygon fill="#63b8ff" stroke="#63b8ff" points="177.21,-297.14 187.67,-298.83 180.55,-290.98 177.21,-297.14"/>
</a>
</g>
</g>
<!-- Node3 -->
<g id="Node000003" class="node">
<title>Node3</title>
<g id="a_Node000003"><a xlink:href="classquantumcomm_1_1constellation__udp.html#a06e2f7fe5888de4c38d08d4b1f290511" target="_top" xlink:title="Builds a networkx graph from the satellite positions.">
<polygon fill="white" stroke="#666666" points="312.88,-282 174.62,-282 174.62,-250 312.88,-250 312.88,-282"/>
<text text-anchor="start" x="182.62" y="-268.5" font-family="Helvetica,sans-Serif" font-size="10.00">quantumcomm.constellation</text>
<text text-anchor="middle" x="243.75" y="-256.5" font-family="Helvetica,sans-Serif" font-size="10.00">_udp.build_graph</text>
</a>
</g>
</g>
<!-- Node1&#45;&gt;Node3 -->
<g id="edge2_Node000001_Node000003" class="edge">
<title>Node1&#45;&gt;Node3</title>
<g id="a_edge2_Node000001_Node000003"><a xlink:title=" ">
<path fill="none" stroke="#63b8ff" d="M89.41,-182.38C109.54,-198.88 142.55,-224.21 174.25,-241 176.89,-242.4 179.62,-243.75 182.4,-245.05"/>
<polygon fill="#63b8ff" stroke="#63b8ff" points="180.71,-248.13 191.28,-248.94 183.52,-241.72 180.71,-248.13"/>
</a>
</g>
</g>
<!-- Node8 -->
<g id="Node000008" class="node">
<title>Node8</title>
<g id="a_Node000008"><a xlink:href="classquantumcomm_1_1constellation__udp.html#a46cbd774de9aefba3ee882c665072446" target="_top" xlink:title="Construct cumulative position of Walker satellites, motherships and rovers.">
<polygon fill="white" stroke="#666666" points="312.88,-232 174.62,-232 174.62,-200 312.88,-200 312.88,-232"/>
<text text-anchor="start" x="182.62" y="-218.5" font-family="Helvetica,sans-Serif" font-size="10.00">quantumcomm.constellation</text>
<text text-anchor="middle" x="243.75" y="-206.5" font-family="Helvetica,sans-Serif" font-size="10.00">_udp.construct_pos</text>
</a>
</g>
</g>
<!-- Node1&#45;&gt;Node8 -->
<g id="edge7_Node000001_Node000008" class="edge">
<title>Node1&#45;&gt;Node8</title>
<g id="a_edge7_Node000001_Node000008"><a xlink:title=" ">
<path fill="none" stroke="#63b8ff" d="M126.65,-182.37C142.07,-186.84 158.93,-191.72 174.91,-196.35"/>
<polygon fill="#63b8ff" stroke="#63b8ff" points="173.77,-199.66 184.35,-199.08 175.72,-192.94 173.77,-199.66"/>
</a>
</g>
</g>
<!-- Node9 -->
<g id="Node000009" class="node">
<title>Node9</title>
<g id="a_Node000009"><a xlink:href="namespacequantumcomm.html#ab6b2e04e125b00253e56eea291fb11a5" target="_top" xlink:title="Computes the position of the rovers at time t based on the initial latitude and longitude.">
<polygon fill="white" stroke="#666666" points="305.75,-182 181.75,-182 181.75,-150 305.75,-150 305.75,-182"/>
<text text-anchor="start" x="189.75" y="-168.5" font-family="Helvetica,sans-Serif" font-size="10.00">quantumcomm.construct</text>
<text text-anchor="middle" x="243.75" y="-156.5" font-family="Helvetica,sans-Serif" font-size="10.00">_rover_pos</text>
</a>
</g>
</g>
<!-- Node1&#45;&gt;Node9 -->
<g id="edge8_Node000001_Node000009" class="edge">
<title>Node1&#45;&gt;Node9</title>
<g id="a_edge8_Node000001_Node000009"><a xlink:title=" ">
<path fill="none" stroke="#63b8ff" d="M138.35,-166C148.8,-166 159.62,-166 170.16,-166"/>
<polygon fill="#63b8ff" stroke="#63b8ff" points="169.95,-169.5 179.95,-166 169.95,-162.5 169.95,-169.5"/>
</a>
</g>
</g>
<!-- Node10 -->
<g id="Node000010" class="node">
<title>Node10</title>
<g id="a_Node000010"><a xlink:href="classquantumcomm_1_1constellation__udp.html#a0488615446771fa666b9fa156ab6627e" target="_top" xlink:title="Generates two Walker constellations according to specifications.">
<polygon fill="white" stroke="#666666" points="312.88,-132 174.62,-132 174.62,-100 312.88,-100 312.88,-132"/>
<text text-anchor="start" x="182.62" y="-118.5" font-family="Helvetica,sans-Serif" font-size="10.00">quantumcomm.constellation</text>
<text text-anchor="middle" x="243.75" y="-106.5" font-family="Helvetica,sans-Serif" font-size="10.00">_udp.construct_walkers</text>
</a>
</g>
</g>
<!-- Node1&#45;&gt;Node10 -->
<g id="edge9_Node000001_Node000010" class="edge">
<title>Node1&#45;&gt;Node10</title>
<g id="a_edge9_Node000001_Node000010"><a xlink:title=" ">
<path fill="none" stroke="#63b8ff" d="M126.65,-149.63C142.07,-145.16 158.93,-140.28 174.91,-135.65"/>
<polygon fill="#63b8ff" stroke="#63b8ff" points="175.72,-139.06 184.35,-132.92 173.77,-132.34 175.72,-139.06"/>
</a>
</g>
</g>
<!-- Node12 -->
<g id="Node000012" class="node">
<title>Node12</title>
<g id="a_Node000012"><a xlink:href="classquantumcomm_1_1constellation__udp.html#a793f1ab728c23da59e9c59f30396cf73" target="_top" xlink:title="Evaluate the rover constraint (minimum distance between any two rovers)">
<polygon fill="white" stroke="#666666" points="312.88,-82 174.62,-82 174.62,-50 312.88,-50 312.88,-82"/>
<text text-anchor="start" x="182.62" y="-68.5" font-family="Helvetica,sans-Serif" font-size="10.00">quantumcomm.constellation</text>
<text text-anchor="middle" x="243.75" y="-56.5" font-family="Helvetica,sans-Serif" font-size="10.00">_udp.get_rover_constraint</text>
</a>
</g>
</g>
<!-- Node1&#45;&gt;Node12 -->
<g id="edge11_Node000001_Node000012" class="edge">
<title>Node1&#45;&gt;Node12</title>
<g id="a_edge11_Node000001_Node000012"><a xlink:title=" ">
<path fill="none" stroke="#63b8ff" d="M89.41,-149.62C109.54,-133.12 142.55,-107.79 174.25,-91 176.89,-89.6 179.62,-88.25 182.4,-86.95"/>
<polygon fill="#63b8ff" stroke="#63b8ff" points="183.52,-90.28 191.28,-83.06 180.71,-83.87 183.52,-90.28"/>
</a>
</g>
</g>
<!-- Node13 -->
<g id="Node000013" class="node">
<title>Node13</title>
<g id="a_Node000013"><a xlink:href="classquantumcomm_1_1constellation__udp.html#a228c4f828e7c8261bbeedd69d6d19573" target="_top" xlink:title="Evaluate the satellite constraint (minimum distance between any two satellites)">
<polygon fill="white" stroke="#666666" points="312.88,-32 174.62,-32 174.62,0 312.88,0 312.88,-32"/>
<text text-anchor="start" x="182.62" y="-18.5" font-family="Helvetica,sans-Serif" font-size="10.00">quantumcomm.constellation</text>
<text text-anchor="middle" x="243.75" y="-6.5" font-family="Helvetica,sans-Serif" font-size="10.00">_udp.get_sat_constraint</text>
</a>
</g>
</g>
<!-- Node1&#45;&gt;Node13 -->
<g id="edge12_Node000001_Node000013" class="edge">
<title>Node1&#45;&gt;Node13</title>
<g id="a_edge12_Node000001_Node000013"><a xlink:title=" ">
<path fill="none" stroke="#63b8ff" d="M79.59,-149.85C95.79,-123.52 131.28,-71.23 174.25,-41 175.82,-39.9 177.44,-38.84 179.1,-37.82"/>
<polygon fill="#63b8ff" stroke="#63b8ff" points="180.55,-41.02 187.67,-33.17 177.21,-34.86 180.55,-41.02"/>
</a>
</g>
</g>
<!-- Node4 -->
<g id="Node000004" class="node">
<title>Node4</title>
<g id="a_Node000004"><a xlink:href="namespacequantumcomm.html#a0b9a5d09cf8b8062250d0631d392b9e4" target="_top" xlink:title=" ">
<polygon fill="white" stroke="#666666" points="491.25,-276 349.25,-276 349.25,-256 491.25,-256 491.25,-276"/>
<text text-anchor="middle" x="420.25" y="-262.5" font-family="Helvetica,sans-Serif" font-size="10.00">quantumcomm.get_adjmatrix</text>
</a>
</g>
</g>
<!-- Node3&#45;&gt;Node4 -->
<g id="edge3_Node000003_Node000004" class="edge">
<title>Node3&#45;&gt;Node4</title>
<g id="a_edge3_Node000003_Node000004"><a xlink:title=" ">
<path fill="none" stroke="#63b8ff" d="M313.22,-266C321.2,-266 329.4,-266 337.54,-266"/>
<polygon fill="#63b8ff" stroke="#63b8ff" points="337.46,-269.5 347.46,-266 337.46,-262.5 337.46,-269.5"/>
</a>
</g>
</g>
<!-- Node5 -->
<g id="Node000005" class="node">
<title>Node5</title>
<g id="a_Node000005"><a xlink:href="namespacequantumcomm.html#adeb3d6f34e9ce9bde81d145e0cb4b1c6" target="_top" xlink:title="Given two position vectors returns the distance of the line of sight to the origin.">
<polygon fill="white" stroke="#666666" points="649,-326 537,-326 537,-294 649,-294 649,-326"/>
<text text-anchor="start" x="545" y="-312.5" font-family="Helvetica,sans-Serif" font-size="10.00">quantumcomm.line_of</text>
<text text-anchor="middle" x="593" y="-300.5" font-family="Helvetica,sans-Serif" font-size="10.00">_sight</text>
</a>
</g>
</g>
<!-- Node4&#45;&gt;Node5 -->
<g id="edge4_Node000004_Node000005" class="edge">
<title>Node4&#45;&gt;Node5</title>
<g id="a_edge4_Node000004_Node000005"><a xlink:title=" ">
<path fill="none" stroke="#63b8ff" d="M461.72,-276.43C480.78,-281.34 504.02,-287.33 525.56,-292.88"/>
<polygon fill="#63b8ff" stroke="#63b8ff" points="524.62,-296.25 535.18,-295.36 526.37,-289.47 524.62,-296.25"/>
</a>
</g>
</g>
<!-- Node6 -->
<g id="Node000006" class="node">
<title>Node6</title>
<g id="a_Node000006"><a xlink:href="namespacequantumcomm.html#af0f5b86687bc9356f53b8e0fcd826c2d" target="_top" xlink:title="Computes the edge weight according to QKD probabilities.">
<polygon fill="white" stroke="#666666" points="658.75,-276 527.25,-276 527.25,-256 658.75,-256 658.75,-276"/>
<text text-anchor="middle" x="593" y="-262.5" font-family="Helvetica,sans-Serif" font-size="10.00">quantumcomm.qkd_metric</text>
</a>
</g>
</g>
<!-- Node4&#45;&gt;Node6 -->
<g id="edge5_Node000004_Node000006" class="edge">
<title>Node4&#45;&gt;Node6</title>
<g id="a_edge5_Node000004_Node000006"><a xlink:title=" ">
<path fill="none" stroke="#63b8ff" d="M491.69,-266C499.53,-266 507.54,-266 515.45,-266"/>
<polygon fill="#63b8ff" stroke="#63b8ff" points="515.42,-269.5 525.42,-266 515.42,-262.5 515.42,-269.5"/>
</a>
</g>
</g>
<!-- Node7 -->
<g id="Node000007" class="node">
<title>Node7</title>
<g id="a_Node000007"><a xlink:href="namespacequantumcomm.html#a32214ea35bfdc5ac32988510e98f5643" target="_top" xlink:title="Computes the cosine of the zenith angle (theta_z) of the LOS between source and destination node.">
<polygon fill="white" stroke="#666666" points="647.88,-238 538.12,-238 538.12,-206 647.88,-206 647.88,-238"/>
<text text-anchor="start" x="546.12" y="-224.5" font-family="Helvetica,sans-Serif" font-size="10.00">quantumcomm.zenith</text>
<text text-anchor="middle" x="593" y="-212.5" font-family="Helvetica,sans-Serif" font-size="10.00">_angle</text>
</a>
</g>
</g>
<!-- Node4&#45;&gt;Node7 -->
<g id="edge6_Node000004_Node000007" class="edge">
<title>Node4&#45;&gt;Node7</title>
<g id="a_edge6_Node000004_Node000007"><a xlink:title=" ">
<path fill="none" stroke="#63b8ff" d="M461.72,-255.57C481.2,-250.55 505.06,-244.4 527,-238.75"/>
<polygon fill="#63b8ff" stroke="#63b8ff" points="527.66,-242.2 536.47,-236.31 525.91,-235.42 527.66,-242.2"/>
</a>
</g>
</g>
<!-- Node11 -->
<g id="Node000011" class="node">
<title>Node11</title>
<g id="a_Node000011"><a xlink:href="classquantumcomm_1_1constellation__udp.html#a7751ec7ef991c732aeffdb2ac59332e6" target="_top" xlink:title="Generates a Walker constallation as a SatrecArray.">
<polygon fill="white" stroke="#666666" points="489.38,-132 351.12,-132 351.12,-100 489.38,-100 489.38,-132"/>
<text text-anchor="start" x="359.12" y="-118.5" font-family="Helvetica,sans-Serif" font-size="10.00">quantumcomm.constellation</text>
<text text-anchor="middle" x="420.25" y="-106.5" font-family="Helvetica,sans-Serif" font-size="10.00">_udp.generate_walker</text>
</a>
</g>
</g>
<!-- Node10&#45;&gt;Node11 -->
<g id="edge10_Node000010_Node000011" class="edge">
<title>Node10&#45;&gt;Node11</title>
<g id="a_edge10_Node000010_Node000011"><a xlink:title=" ">
<path fill="none" stroke="#63b8ff" d="M313.22,-116C321.78,-116 330.6,-116 339.32,-116"/>
<polygon fill="#63b8ff" stroke="#63b8ff" points="339.18,-119.5 349.18,-116 339.18,-112.5 339.18,-119.5"/>
</a>
</g>
</g>
</g>
</svg>

<g id="navigator" transform="translate(0 0)" fill="#404254">
  <rect fill="#f2f5e9" fill-opacity="0.5" stroke="#606060" stroke-width=".5" x="0" y="0" width="60" height="60"/>
  <use id="zoomplus" xlink:href="#zoomPlus" x="17" y="9" onmousedown="handleZoom(evt,'in')"/>
  <use id="zoomminus" xlink:href="#zoomMin" x="42" y="9" onmousedown="handleZoom(evt,'out')"/>
  <use id="reset" xlink:href="#resetDef" x="30" y="36" onmousedown="handleReset()"/>
   <use id="arrowup" xlink:href="#arrowUp" x="0" y="0" onmousedown="handlePan(0,-1)"/>
  <use id="arrowright" xlink:href="#arrowRight" x="0" y="0" onmousedown="handlePan(1,0)"/>
  <use id="arrowdown" xlink:href="#arrowDown" x="0" y="0" onmousedown="handlePan(0,1)"/>
  <use id="arrowleft" xlink:href="#arrowLeft" x="0" y="0" onmousedown="handlePan(-1,0)"/>
</g>
<svg viewBox="0 0 15 15" width="100%" height="30px" preserveAspectRatio="xMaxYMin meet">
 <g id="arrow_out" transform="scale(0.3 0.3)">
  <a xlink:href="classquantumcomm_1_1constellation__udp_a13abd2e63f36cb79a4c08d96557d3d87_cgraph_org.svg" target="_base">
   <rect id="button" ry="5" rx="5" y="6" x="6" height="38" width="38"
        fill="#f2f5e9" fill-opacity="0.5" stroke="#606060" stroke-width="1.0"/>
   <path id="arrow"
     d="M 11.500037,31.436501 C 11.940474,20.09759 22.043105,11.32322 32.158766,21.979434 L 37.068811,17.246167 C 37.068811,17.246167 37.088388,32 37.088388,32 L 22.160133,31.978069 C 22.160133,31.978069 26.997745,27.140456 26.997745,27.140456 C 18.528582,18.264221 13.291696,25.230495 11.500037,31.436501 z"
     style="fill:#404040;"/>
  </a>
 </g>
</svg>

<style type='text/css'>
<![CDATA[
[data-mouse-over-selected='false'] { opacity: 0.7; }
[data-mouse-over-selected='true']  { opacity: 1.0; }
]]>
</style>
<script type="application/ecmascript"><![CDATA[
document.addEventListener('DOMContentLoaded', (event) => {
  highlightEdges();
  highlightAdjacentNodes();
});
]]></script>
</svg>
