<?xml version="1.0" encoding="UTF-8" standalone="no"?>
<!DOCTYPE svg PUBLIC "-//W3C//DTD SVG 1.1//EN"
 "http://www.w3.org/Graphics/SVG/1.1/DTD/svg11.dtd">
<!-- Generated by graphviz version 12.2.1 (20241206.2353)
 -->
<!-- Title: edgecover.problem.fitness Pages: 1 -->
<svg width="461pt" height="104pt"
 viewBox="0.00 0.00 461.00 104.00" xmlns="http://www.w3.org/2000/svg" xmlns:xlink="http://www.w3.org/1999/xlink">

<svg id="main" version="1.1" xmlns="http://www.w3.org/2000/svg" xmlns:xlink="http://www.w3.org/1999/xlink" xml:space="preserve">

<style type="text/css"><![CDATA[
.node, .edge {opacity: 0.7;}
.node.selected, .edge.selected {opacity: 1;}
.edge:hover path { stroke: red; }
.edge:hover polygon { stroke: red; fill: red; }
]]></style>
<script type="application/ecmascript" xlink:href="svg.min.js"/>
<svg id="graph" class="graph">
<g id="graph0" class="graph" transform="scale(1 1) rotate(0) translate(4 100)">
<title>edgecover.problem.fitness</title>
<!-- Node1 -->
<g id="Node000001" class="node">
<title>Node1</title>
<g id="a_Node000001"><a xlink:title=" ">
<polygon fill="#999999" stroke="#666666" points="130.75,-58 0,-58 0,-38 130.75,-38 130.75,-58"/>
<text text-anchor="middle" x="65.38" y="-44.5" font-family="Helvetica,sans-Serif" font-size="10.00">edgecover.problem.fitness</text>
</a>
</g>
</g>
<!-- Node2 -->
<g id="Node000002" class="node">
<title>Node2</title>
<g id="a_Node000002"><a xlink:href="namespaceedgecover.html#ac5b3a2a87224ba1241ca69d49adc5c3e" target="_top" xlink:title=" ">
<polygon fill="white" stroke="#666666" points="270.5,-96 180.25,-96 180.25,-76 270.5,-76 270.5,-96"/>
<text text-anchor="middle" x="225.38" y="-82.5" font-family="Helvetica,sans-Serif" font-size="10.00">edgecover.nodes</text>
</a>
</g>
</g>
<!-- Node1&#45;&gt;Node2 -->
<g id="edge1_Node000001_Node000002" class="edge">
<title>Node1&#45;&gt;Node2</title>
<g id="a_edge1_Node000001_Node000002"><a xlink:title=" ">
<path fill="none" stroke="#63b8ff" d="M109.97,-58.48C128.53,-62.95 150.39,-68.21 169.99,-72.92"/>
<polygon fill="#63b8ff" stroke="#63b8ff" points="168.91,-76.26 179.45,-75.2 170.55,-69.45 168.91,-76.26"/>
</a>
</g>
</g>
<!-- Node3 -->
<g id="Node000003" class="node">
<title>Node3</title>
<g id="a_Node000003"><a xlink:href="namespaceedgecover.html#ad20c66f5851e97419ed4bda2ef1aa333" target="_top" xlink:title=" ">
<polygon fill="white" stroke="#666666" points="284,-58 166.75,-58 166.75,-38 284,-38 284,-58"/>
<text text-anchor="middle" x="225.38" y="-44.5" font-family="Helvetica,sans-Serif" font-size="10.00">edgecover.not_covered</text>
</a>
</g>
</g>
<!-- Node1&#45;&gt;Node3 -->
<g id="edge2_Node000001_Node000003" class="edge">
<title>Node1&#45;&gt;Node3</title>
<g id="a_edge2_Node000001_Node000003"><a xlink:title=" ">
<path fill="none" stroke="#63b8ff" d="M131.1,-48C138.94,-48 146.98,-48 154.89,-48"/>
<polygon fill="#63b8ff" stroke="#63b8ff" points="154.83,-51.5 164.83,-48 154.83,-44.5 154.83,-51.5"/>
</a>
</g>
</g>
<!-- Node5 -->
<g id="Node000005" class="node">
<title>Node5</title>
<g id="a_Node000005"><a xlink:href="namespaceedgecover.html#a1b8b28cc53b6df88c1a30a41217fe0a2" target="_top" xlink:title=" ">
<polygon fill="white" stroke="#666666" points="277.62,-20 173.12,-20 173.12,0 277.62,0 277.62,-20"/>
<text text-anchor="middle" x="225.38" y="-6.5" font-family="Helvetica,sans-Serif" font-size="10.00">edgecover.num_true</text>
</a>
</g>
</g>
<!-- Node1&#45;&gt;Node5 -->
<g id="edge4_Node000001_Node000005" class="edge">
<title>Node1&#45;&gt;Node5</title>
<g id="a_edge4_Node000001_Node000005"><a xlink:title=" ">
<path fill="none" stroke="#63b8ff" d="M109.97,-37.52C128.53,-33.05 150.39,-27.79 169.99,-23.08"/>
<polygon fill="#63b8ff" stroke="#63b8ff" points="170.55,-26.55 179.45,-20.8 168.91,-19.74 170.55,-26.55"/>
</a>
</g>
</g>
<!-- Node4 -->
<g id="Node000004" class="node">
<title>Node4</title>
<g id="a_Node000004"><a xlink:href="namespaceedgecover.html#a9247b4fa16dbb502c6e5e1bd0c30ca12" target="_top" xlink:title=" ">
<polygon fill="white" stroke="#666666" points="453,-58 320,-58 320,-38 453,-38 453,-58"/>
<text text-anchor="middle" x="386.5" y="-44.5" font-family="Helvetica,sans-Serif" font-size="10.00">edgecover.numba_covered</text>
</a>
</g>
</g>
<!-- Node3&#45;&gt;Node4 -->
<g id="edge3_Node000003_Node000004" class="edge">
<title>Node3&#45;&gt;Node4</title>
<g id="a_edge3_Node000003_Node000004"><a xlink:title=" ">
<path fill="none" stroke="#63b8ff" d="M284.27,-48C292.06,-48 300.16,-48 308.22,-48"/>
<polygon fill="#63b8ff" stroke="#63b8ff" points="308.04,-51.5 318.04,-48 308.04,-44.5 308.04,-51.5"/>
</a>
</g>
</g>
</g>
</svg>
</svg>

<style type='text/css'>
<![CDATA[
[data-mouse-over-selected='false'] { opacity: 0.7; }
[data-mouse-over-selected='true']  { opacity: 1.0; }
]]>
</style>
<script type="application/ecmascript"><![CDATA[
document.addEventListener('DOMContentLoaded', (event) => {
  highlightEdges();
  highlightAdjacentNodes();
});
]]></script>
</svg>
