<?xml version="1.0" encoding="UTF-8" standalone="no"?>
<!DOCTYPE svg PUBLIC "-//W3C//DTD SVG 1.1//EN"
 "http://www.w3.org/Graphics/SVG/1.1/DTD/svg11.dtd">
<!-- Generated by graphviz version 12.2.1 (20241206.2353)
 -->
<!-- Title: fcmaes.advretry.Store.get_x Pages: 1 -->
<!--zoomable 280 -->

<svg id="main" version="1.1" xmlns="http://www.w3.org/2000/svg" xmlns:xlink="http://www.w3.org/1999/xlink" xml:space="preserve" onload="init(evt)">

<style type="text/css"><![CDATA[
.node, .edge {opacity: 0.7;}
.node.selected, .edge.selected {opacity: 1;}
.edge:hover path { stroke: red; }
.edge:hover polygon { stroke: red; fill: red; }
]]></style>

<defs>
  <circle id="rim" cx="0" cy="0" r="7"/>
  <circle id="rim2" cx="0" cy="0" r="3.5"/>
  <g id="zoomPlus">
    <use xlink:href="#rim" fill="#404040"><set attributeName="fill" to="#808080" begin="zoomplus.mouseover" end="zoomplus.mouseout"/></use>
    <path d="M-4,0h8M0,-4v8" fill="none" stroke="white" stroke-width="1.5" pointer-events="none"/>
  </g>
  <g id="zoomMin">
    <use xlink:href="#rim" fill="#404040"><set attributeName="fill" to="#808080" begin="zoomminus.mouseover" end="zoomminus.mouseout"/></use>
    <path d="M-4,0h8" fill="none" stroke="white" stroke-width="1.5" pointer-events="none"/>
  </g>
  <g id="arrowUp" transform="translate(30 24)">
    <use xlink:href="#rim"/>
    <path pointer-events="none" fill="none" stroke="white" stroke-width="1.5" d="M0,-3.0v7 M-2.5,-0.5L0,-3.0L2.5,-0.5"/>
  </g>
  <g id="arrowRight" transform="rotate(90) translate(36 -43)">
    <use xlink:href="#rim"/>
    <path pointer-events="none" fill="none" stroke="white" stroke-width="1.5" d="M0,-3.0v7 M-2.5,-0.5L0,-3.0L2.5,-0.5"/>
  </g>
  <g id="arrowDown" transform="rotate(180) translate(-30 -48)">
    <use xlink:href="#rim"/>
    <path pointer-events="none" fill="none" stroke="white" stroke-width="1.5" d="M0,-3.0v7 M-2.5,-0.5L0,-3.0L2.5,-0.5"/>
  </g>
  <g id="arrowLeft" transform="rotate(270) translate(-36 17)">
    <use xlink:href="#rim"/>
    <path pointer-events="none" fill="none" stroke="white" stroke-width="1.5" d="M0,-3.0v7 M-2.5,-0.5L0,-3.0L2.5,-0.5"/>
  </g>
  <g id="resetDef">
    <use xlink:href="#rim2" fill="#404040"><set attributeName="fill" to="#808080" begin="reset.mouseover" end="reset.mouseout"/></use>
  </g>
</defs>
<script type="application/ecmascript">
var viewWidth = 900;
var viewHeight = 280;
var sectionId = 'dynsection-11';
</script>
<script type="application/ecmascript" xlink:href="svg.min.js"/>
<svg id="graph" class="graph">
<g id="viewport">
<title>fcmaes.advretry.Store.get_x</title>
<!-- Node1 -->
<g id="Node000001" class="node">
<title>Node1</title>
<g id="a_Node000001"><a xlink:title="Retrieves a segment of the xs array corresponding to the provided pid.">
<polygon fill="#999999" stroke="#666666" points="892.25,-196 753.25,-196 753.25,-176 892.25,-176 892.25,-196"/>
<text text-anchor="middle" x="822.75" y="-182.5" font-family="Helvetica,sans-Serif" font-size="10.00">fcmaes.advretry.Store.get_x</text>
</a>
</g>
</g>
<!-- Node2 -->
<g id="Node000002" class="node">
<title>Node2</title>
<g id="a_Node000002"><a xlink:href="classfcmaes_1_1mapelites_1_1_archive.html#a0bcd8007cc5cf709da8ccc42aa2c46eb" target="_top" xlink:title="Prints a sorted dump of data points up to the specified limit.">
<polygon fill="white" stroke="#666666" points="516.75,-234 360.5,-234 360.5,-214 516.75,-214 516.75,-234"/>
<text text-anchor="middle" x="438.62" y="-220.5" font-family="Helvetica,sans-Serif" font-size="10.00">fcmaes.mapelites.Archive.dump</text>
</a>
</g>
</g>
<!-- Node1&#45;&gt;Node2 -->
<g id="edge1_Node000001_Node000002" class="edge">
<title>Node1&#45;&gt;Node2</title>
<g id="a_edge1_Node000001_Node000002"><a xlink:title=" ">
<path fill="none" stroke="#63b8ff" d="M759.68,-198.46C745.76,-200.93 731.04,-203.28 717.25,-205 649.89,-213.4 572.85,-218.3 517.04,-221.02"/>
<polygon fill="#63b8ff" stroke="#63b8ff" points="759.93,-201.97 769.14,-196.74 758.68,-195.09 759.93,-201.97"/>
</a>
</g>
</g>
<!-- Node4 -->
<g id="Node000004" class="node">
<title>Node4</title>
<g id="a_Node000004"><a xlink:href="classfcmaes_1_1advretry_1_1_store.html#a2df2e37a5663c3e12c22c4b97f2549a2" target="_top" xlink:title="Builds and returns an array of x values stored in the object.">
<polygon fill="white" stroke="#666666" points="707.12,-272 562.88,-272 562.88,-252 707.12,-252 707.12,-272"/>
<text text-anchor="middle" x="635" y="-258.5" font-family="Helvetica,sans-Serif" font-size="10.00">fcmaes.advretry.Store.get_xs</text>
</a>
</g>
</g>
<!-- Node1&#45;&gt;Node4 -->
<g id="edge3_Node000001_Node000004" class="edge">
<title>Node1&#45;&gt;Node4</title>
<g id="a_edge3_Node000001_Node000004"><a xlink:title=" ">
<path fill="none" stroke="#63b8ff" d="M793.31,-201.84C772.64,-212.94 743.75,-227.59 717.25,-238 704.25,-243.11 689.7,-247.73 676.56,-251.53"/>
<polygon fill="#63b8ff" stroke="#63b8ff" points="794.88,-204.98 801.99,-197.13 791.53,-198.83 794.88,-204.98"/>
</a>
</g>
</g>
<!-- Node9 -->
<g id="Node000009" class="node">
<title>Node9</title>
<g id="a_Node000009"><a xlink:href="classfcmaes_1_1advretry_1_1_store.html#ab543494f5cc2e6a7f877ca8cb0e35591" target="_top" xlink:title="Returns the limits and other related calculations used for determining bounds during operations like ...">
<polygon fill="white" stroke="#666666" points="704.12,-196 565.88,-196 565.88,-176 704.12,-176 704.12,-196"/>
<text text-anchor="middle" x="635" y="-182.5" font-family="Helvetica,sans-Serif" font-size="10.00">fcmaes.advretry.Store.limits</text>
</a>
</g>
</g>
<!-- Node1&#45;&gt;Node9 -->
<g id="edge8_Node000001_Node000009" class="edge">
<title>Node1&#45;&gt;Node9</title>
<g id="a_edge8_Node000001_Node000009"><a xlink:title=" ">
<path fill="none" stroke="#63b8ff" d="M741.6,-186C729.24,-186 716.56,-186 704.48,-186"/>
<polygon fill="#63b8ff" stroke="#63b8ff" points="741.33,-189.5 751.33,-186 741.33,-182.5 741.33,-189.5"/>
</a>
</g>
</g>
<!-- Node10 -->
<g id="Node000010" class="node">
<title>Node10</title>
<g id="a_Node000010"><a xlink:href="classfcmaes_1_1mapelites_1_1_archive.html#a691e8315e1b9c8d92b67520216c72cdf" target="_top" xlink:title="Selects and retrieves random elements based on the given range and size.">
<polygon fill="white" stroke="#666666" points="717.25,-158 552.75,-158 552.75,-126 717.25,-126 717.25,-158"/>
<text text-anchor="start" x="560.75" y="-144.5" font-family="Helvetica,sans-Serif" font-size="10.00">fcmaes.mapelites.Archive.random</text>
<text text-anchor="middle" x="635" y="-132.5" font-family="Helvetica,sans-Serif" font-size="10.00">_xs_one</text>
</a>
</g>
</g>
<!-- Node1&#45;&gt;Node10 -->
<g id="edge9_Node000001_Node000010" class="edge">
<title>Node1&#45;&gt;Node10</title>
<g id="a_edge9_Node000001_Node000010"><a xlink:title=" ">
<path fill="none" stroke="#63b8ff" d="M766.75,-172.97C747.54,-168.42 725.72,-163.25 705.48,-158.46"/>
<polygon fill="#63b8ff" stroke="#63b8ff" points="765.72,-176.32 776.26,-175.22 767.33,-169.51 765.72,-176.32"/>
</a>
</g>
</g>
<!-- Node11 -->
<g id="Node000011" class="node">
<title>Node11</title>
<g id="a_Node000011"><a xlink:href="classfcmaes_1_1advretry_1_1_store.html#aa5c9f7209b6bfb5bf079ad940a84eea4" target="_top" xlink:title="Sorts and updates stored data based on the given criteria.">
<polygon fill="white" stroke="#666666" points="700.75,-108 569.25,-108 569.25,-88 700.75,-88 700.75,-108"/>
<text text-anchor="middle" x="635" y="-94.5" font-family="Helvetica,sans-Serif" font-size="10.00">fcmaes.advretry.Store.sort</text>
</a>
</g>
</g>
<!-- Node1&#45;&gt;Node11 -->
<g id="edge10_Node000001_Node000011" class="edge">
<title>Node1&#45;&gt;Node11</title>
<g id="a_edge10_Node000001_Node000011"><a xlink:title=" ">
<path fill="none" stroke="#63b8ff" d="M800.45,-168.64C780.2,-152.97 748.31,-130.38 717.25,-117 709.4,-113.62 700.85,-110.79 692.35,-108.43"/>
<polygon fill="#63b8ff" stroke="#63b8ff" points="798.2,-171.32 808.22,-174.77 802.54,-165.83 798.2,-171.32"/>
</a>
</g>
</g>
<!-- Node3 -->
<g id="Node000003" class="node">
<title>Node3</title>
<g id="a_Node000003"><a xlink:href="classfcmaes_1_1retry_1_1_store.html#aed35531d1489fd7b28d69dc3c9794508" target="_top" xlink:title="Adds a result to the data structure, updating statistical values and recording the given data point.">
<polygon fill="white" stroke="#666666" points="303.12,-196 188.12,-196 188.12,-164 303.12,-164 303.12,-196"/>
<text text-anchor="start" x="196.12" y="-182.5" font-family="Helvetica,sans-Serif" font-size="10.00">fcmaes.retry.Store.add</text>
<text text-anchor="middle" x="245.62" y="-170.5" font-family="Helvetica,sans-Serif" font-size="10.00">_result</text>
</a>
</g>
</g>
<!-- Node2&#45;&gt;Node3 -->
<g id="edge2_Node000002_Node000003" class="edge">
<title>Node2&#45;&gt;Node3</title>
<g id="a_edge2_Node000002_Node000003"><a xlink:title=" ">
<path fill="none" stroke="#63b8ff" d="M381.41,-211.05C356.88,-205.4 328.16,-198.78 303.55,-193.11"/>
<polygon fill="#63b8ff" stroke="#63b8ff" points="380.36,-214.4 390.89,-213.23 381.93,-207.58 380.36,-214.4"/>
</a>
</g>
</g>
<!-- Node5 -->
<g id="Node000005" class="node">
<title>Node5</title>
<g id="a_Node000005"><a xlink:href="classfcmaes_1_1advretry_1_1_store.html#aabe26248085adae1ad80a9b17202e5b7" target="_top" xlink:title="Retrieves and aggregates data from various attributes and methods.">
<polygon fill="white" stroke="#666666" points="514.88,-272 362.38,-272 362.38,-252 514.88,-252 514.88,-272"/>
<text text-anchor="middle" x="438.62" y="-258.5" font-family="Helvetica,sans-Serif" font-size="10.00">fcmaes.advretry.Store.get_data</text>
</a>
</g>
</g>
<!-- Node4&#45;&gt;Node5 -->
<g id="edge4_Node000004_Node000005" class="edge">
<title>Node4&#45;&gt;Node5</title>
<g id="a_edge4_Node000004_Node000005"><a xlink:title=" ">
<path fill="none" stroke="#63b8ff" d="M551.14,-262C539.23,-262 527.03,-262 515.27,-262"/>
<polygon fill="#63b8ff" stroke="#63b8ff" points="550.94,-265.5 560.94,-262 550.94,-258.5 550.94,-265.5"/>
</a>
</g>
</g>
<!-- Node6 -->
<g id="Node000006" class="node">
<title>Node6</title>
<g id="a_Node000006"><a xlink:href="classfcmaes_1_1advretry_1_1_store.html#a19b9d6c0787fb06a2b00e595f487bf37" target="_top" xlink:title="Saves the current data of the instance to a compressed file using bz2 and cPickle modules.">
<polygon fill="white" stroke="#666666" points="313.62,-272 177.62,-272 177.62,-252 313.62,-252 313.62,-272"/>
<text text-anchor="middle" x="245.62" y="-258.5" font-family="Helvetica,sans-Serif" font-size="10.00">fcmaes.advretry.Store.save</text>
</a>
</g>
</g>
<!-- Node5&#45;&gt;Node6 -->
<g id="edge5_Node000005_Node000006" class="edge">
<title>Node5&#45;&gt;Node6</title>
<g id="a_edge5_Node000005_Node000006"><a xlink:title=" ">
<path fill="none" stroke="#63b8ff" d="M350.82,-262C338.4,-262 325.79,-262 313.83,-262"/>
<polygon fill="#63b8ff" stroke="#63b8ff" points="350.62,-265.5 360.62,-262 350.62,-258.5 350.62,-265.5"/>
</a>
</g>
</g>
<!-- Node8 -->
<g id="Node000008" class="node">
<title>Node8</title>
<g id="a_Node000008"><a xlink:href="classfcmaes_1_1multiretry_1_1multiretry.html#a68046c0b4cc7c281cec9dfa673ce58fb" target="_top" xlink:title="Saves the data returned by the get_data method into a compressed bz2 file with the specified name.">
<polygon fill="white" stroke="#666666" points="324.5,-234 166.75,-234 166.75,-214 324.5,-214 324.5,-234"/>
<text text-anchor="middle" x="245.62" y="-220.5" font-family="Helvetica,sans-Serif" font-size="10.00">fcmaes.multiretry.multiretry.save</text>
</a>
</g>
</g>
<!-- Node5&#45;&gt;Node8 -->
<g id="edge7_Node000005_Node000008" class="edge">
<title>Node5&#45;&gt;Node8</title>
<g id="a_edge7_Node000005_Node000008"><a xlink:title=" ">
<path fill="none" stroke="#63b8ff" d="M373.68,-249.28C349.46,-244.46 322.2,-239.04 299.15,-234.45"/>
<polygon fill="#63b8ff" stroke="#63b8ff" points="372.95,-252.7 383.44,-251.22 374.32,-245.84 372.95,-252.7"/>
</a>
</g>
</g>
<!-- Node7 -->
<g id="Node000007" class="node">
<title>Node7</title>
<g id="a_Node000007"><a xlink:href="classfcmaes_1_1advretry_1_1_store.html#a7dfa5440d1d295083cef68ea37be60fe" target="_top" xlink:title="Adds a result to the current optimization process, updating the best result if necessary and storing ...">
<polygon fill="white" stroke="#666666" points="130.75,-177 0,-177 0,-145 130.75,-145 130.75,-177"/>
<text text-anchor="start" x="8" y="-163.5" font-family="Helvetica,sans-Serif" font-size="10.00">fcmaes.advretry.Store.add</text>
<text text-anchor="middle" x="65.38" y="-151.5" font-family="Helvetica,sans-Serif" font-size="10.00">_result</text>
</a>
</g>
</g>
<!-- Node6&#45;&gt;Node7 -->
<g id="edge6_Node000006_Node000007" class="edge">
<title>Node6&#45;&gt;Node7</title>
<g id="a_edge6_Node000006_Node000007"><a xlink:title=" ">
<path fill="none" stroke="#63b8ff" d="M177.79,-247.82C173.99,-246.36 170.28,-244.76 166.75,-243 132.91,-226.14 100.26,-196.1 81.81,-177.43"/>
<polygon fill="#63b8ff" stroke="#63b8ff" points="176.63,-251.13 187.23,-251.07 178.91,-244.51 176.63,-251.13"/>
</a>
</g>
</g>
<!-- Node11&#45;&gt;Node3 -->
<g id="edge12_Node000011_Node000003" class="edge">
<title>Node11&#45;&gt;Node3</title>
<g id="a_edge12_Node000011_Node000003"><a xlink:title=" ">
<path fill="none" stroke="#63b8ff" d="M572,-110.72C516.54,-122.15 433.05,-139.48 360.5,-155 341.89,-158.98 321.6,-163.41 303.36,-167.42"/>
<polygon fill="#63b8ff" stroke="#63b8ff" points="572.48,-114.2 581.57,-108.75 571.07,-107.34 572.48,-114.2"/>
</a>
</g>
</g>
<!-- Node11&#45;&gt;Node7 -->
<g id="edge11_Node000011_Node000007" class="edge">
<title>Node11&#45;&gt;Node7</title>
<g id="a_edge11_Node000011_Node000007"><a xlink:title=" ">
<path fill="none" stroke="#63b8ff" d="M586.43,-84.69C499.93,-62.92 312.39,-27.07 166.75,-79 130.29,-92 97.52,-124.55 79.93,-144.51"/>
<polygon fill="#63b8ff" stroke="#63b8ff" points="585.43,-88.04 595.99,-87.15 587.18,-81.27 585.43,-88.04"/>
</a>
</g>
</g>
<!-- Node12 -->
<g id="Node000012" class="node">
<title>Node12</title>
<g id="a_Node000012"><a xlink:href="classfcmaes_1_1advretry_1_1_store.html#ac1a185da0fdff01550d275b4635f73df" target="_top" xlink:title="Compares the current count of runs against a specified limit and increments internal counters accordi...">
<polygon fill="white" stroke="#666666" points="502.88,-32 374.38,-32 374.38,0 502.88,0 502.88,-32"/>
<text text-anchor="start" x="382.38" y="-18.5" font-family="Helvetica,sans-Serif" font-size="10.00">fcmaes.advretry.Store.get</text>
<text text-anchor="middle" x="438.62" y="-6.5" font-family="Helvetica,sans-Serif" font-size="10.00">_runs_compare_incr</text>
</a>
</g>
</g>
<!-- Node11&#45;&gt;Node12 -->
<g id="edge13_Node000011_Node000012" class="edge">
<title>Node11&#45;&gt;Node12</title>
<g id="a_edge13_Node000011_Node000012"><a xlink:title=" ">
<path fill="none" stroke="#63b8ff" d="M600.82,-82.79C577.43,-72.19 545.33,-57.89 516.75,-46 505.87,-41.48 494.05,-36.77 483,-32.47"/>
<polygon fill="#63b8ff" stroke="#63b8ff" points="599.29,-85.94 609.84,-86.89 602.19,-79.57 599.29,-85.94"/>
</a>
</g>
</g>
<!-- Node13 -->
<g id="Node000013" class="node">
<title>Node13</title>
<g id="a_Node000013"><a xlink:href="classfcmaes_1_1retry_1_1_store.html#a440b834ab3066810ed77da1c5093fa49" target="_top" xlink:title="Increases the count of evaluations and performs sorting based on a condition.">
<polygon fill="white" stroke="#666666" points="496.12,-196 381.12,-196 381.12,-164 496.12,-164 496.12,-196"/>
<text text-anchor="start" x="389.12" y="-182.5" font-family="Helvetica,sans-Serif" font-size="10.00">fcmaes.retry.Store.incr</text>
<text text-anchor="middle" x="438.62" y="-170.5" font-family="Helvetica,sans-Serif" font-size="10.00">_count_evals</text>
</a>
</g>
</g>
<!-- Node11&#45;&gt;Node13 -->
<g id="edge14_Node000011_Node000013" class="edge">
<title>Node11&#45;&gt;Node13</title>
<g id="a_edge14_Node000011_Node000013"><a xlink:title=" ">
<path fill="none" stroke="#63b8ff" d="M562.95,-112.28C559.44,-113.71 556.02,-115.28 552.75,-117 533.56,-127.14 535.18,-138.54 516.75,-150 508.45,-155.16 499.12,-159.7 489.89,-163.57"/>
<polygon fill="#63b8ff" stroke="#63b8ff" points="564.06,-115.6 572.28,-108.91 561.69,-109.01 564.06,-115.6"/>
</a>
</g>
</g>
<!-- Node14 -->
<g id="Node000014" class="node">
<title>Node14</title>
<g id="a_Node000014"><a xlink:href="classfcmaes_1_1advretry_1_1_store.html#acff238ba31618eab7787f5204b5676f3" target="_top" xlink:title="Sets the data for an internal storage structure and processes it.">
<polygon fill="white" stroke="#666666" points="514.88,-108 362.38,-108 362.38,-88 514.88,-88 514.88,-108"/>
<text text-anchor="middle" x="438.62" y="-94.5" font-family="Helvetica,sans-Serif" font-size="10.00">fcmaes.advretry.Store.set_data</text>
</a>
</g>
</g>
<!-- Node11&#45;&gt;Node14 -->
<g id="edge16_Node000011_Node000014" class="edge">
<title>Node11&#45;&gt;Node14</title>
<g id="a_edge16_Node000011_Node000014"><a xlink:title=" ">
<path fill="none" stroke="#63b8ff" d="M557.52,-98C543.64,-98 529.17,-98 515.32,-98"/>
<polygon fill="#63b8ff" stroke="#63b8ff" points="557.49,-101.5 567.49,-98 557.49,-94.5 557.49,-101.5"/>
</a>
</g>
</g>
<!-- Node13&#45;&gt;Node3 -->
<g id="edge15_Node000013_Node000003" class="edge">
<title>Node13&#45;&gt;Node3</title>
<g id="a_edge15_Node000013_Node000003"><a xlink:title=" ">
<path fill="none" stroke="#63b8ff" d="M369.42,-180C347.84,-180 324.23,-180 303.53,-180"/>
<polygon fill="#63b8ff" stroke="#63b8ff" points="369.32,-183.5 379.32,-180 369.32,-176.5 369.32,-183.5"/>
</a>
</g>
</g>
<!-- Node15 -->
<g id="Node000015" class="node">
<title>Node15</title>
<g id="a_Node000015"><a xlink:href="classfcmaes_1_1advretry_1_1_store.html#adc9b28c43aee9110aef2fad53f30a077" target="_top" xlink:title="Loads and processes data from a compressed file.">
<polygon fill="white" stroke="#666666" points="312.12,-146 179.12,-146 179.12,-126 312.12,-126 312.12,-146"/>
<text text-anchor="middle" x="245.62" y="-132.5" font-family="Helvetica,sans-Serif" font-size="10.00">fcmaes.advretry.Store.load</text>
</a>
</g>
</g>
<!-- Node14&#45;&gt;Node15 -->
<g id="edge17_Node000014_Node000015" class="edge">
<title>Node14&#45;&gt;Node15</title>
<g id="a_edge17_Node000014_Node000015"><a xlink:title=" ">
<path fill="none" stroke="#63b8ff" d="M373.68,-110.72C349.46,-115.54 322.2,-120.96 299.15,-125.55"/>
<polygon fill="#63b8ff" stroke="#63b8ff" points="374.32,-114.16 383.44,-108.78 372.95,-107.3 374.32,-114.16"/>
</a>
</g>
</g>
<!-- Node16 -->
<g id="Node000016" class="node">
<title>Node16</title>
<g id="a_Node000016"><a xlink:href="classfcmaes_1_1multiretry_1_1multiretry.html#a34c47ed6cd26370e8c8d5227791921b8" target="_top" xlink:title="Loads data from a compressed pickle (.pbz2) file and sets it to the current instance.">
<polygon fill="white" stroke="#666666" points="323,-108 168.25,-108 168.25,-88 323,-88 323,-108"/>
<text text-anchor="middle" x="245.62" y="-94.5" font-family="Helvetica,sans-Serif" font-size="10.00">fcmaes.multiretry.multiretry.load</text>
</a>
</g>
</g>
<!-- Node14&#45;&gt;Node16 -->
<g id="edge18_Node000014_Node000016" class="edge">
<title>Node14&#45;&gt;Node16</title>
<g id="a_edge18_Node000014_Node000016"><a xlink:title=" ">
<path fill="none" stroke="#63b8ff" d="M350.7,-98C341.61,-98 332.41,-98 323.44,-98"/>
<polygon fill="#63b8ff" stroke="#63b8ff" points="350.62,-101.5 360.62,-98 350.62,-94.5 350.62,-101.5"/>
</a>
</g>
</g>
</g>
</svg>

<g id="navigator" transform="translate(0 0)" fill="#404254">
  <rect fill="#f2f5e9" fill-opacity="0.5" stroke="#606060" stroke-width=".5" x="0" y="0" width="60" height="60"/>
  <use id="zoomplus" xlink:href="#zoomPlus" x="17" y="9" onmousedown="handleZoom(evt,'in')"/>
  <use id="zoomminus" xlink:href="#zoomMin" x="42" y="9" onmousedown="handleZoom(evt,'out')"/>
  <use id="reset" xlink:href="#resetDef" x="30" y="36" onmousedown="handleReset()"/>
   <use id="arrowup" xlink:href="#arrowUp" x="0" y="0" onmousedown="handlePan(0,-1)"/>
  <use id="arrowright" xlink:href="#arrowRight" x="0" y="0" onmousedown="handlePan(1,0)"/>
  <use id="arrowdown" xlink:href="#arrowDown" x="0" y="0" onmousedown="handlePan(0,1)"/>
  <use id="arrowleft" xlink:href="#arrowLeft" x="0" y="0" onmousedown="handlePan(-1,0)"/>
</g>
<svg viewBox="0 0 15 15" width="100%" height="30px" preserveAspectRatio="xMaxYMin meet">
 <g id="arrow_out" transform="scale(0.3 0.3)">
  <a xlink:href="classfcmaes_1_1advretry_1_1_store_a97e407315b2e0c802b9d5b4414f3f91b_icgraph_org.svg" target="_base">
   <rect id="button" ry="5" rx="5" y="6" x="6" height="38" width="38"
        fill="#f2f5e9" fill-opacity="0.5" stroke="#606060" stroke-width="1.0"/>
   <path id="arrow"
     d="M 11.500037,31.436501 C 11.940474,20.09759 22.043105,11.32322 32.158766,21.979434 L 37.068811,17.246167 C 37.068811,17.246167 37.088388,32 37.088388,32 L 22.160133,31.978069 C 22.160133,31.978069 26.997745,27.140456 26.997745,27.140456 C 18.528582,18.264221 13.291696,25.230495 11.500037,31.436501 z"
     style="fill:#404040;"/>
  </a>
 </g>
</svg>

<style type='text/css'>
<![CDATA[
[data-mouse-over-selected='false'] { opacity: 0.7; }
[data-mouse-over-selected='true']  { opacity: 1.0; }
]]>
</style>
<script type="application/ecmascript"><![CDATA[
document.addEventListener('DOMContentLoaded', (event) => {
  highlightEdges();
  highlightAdjacentNodes();
});
]]></script>
</svg>
