<?xml version="1.0" encoding="UTF-8" standalone="no"?>
<!DOCTYPE svg PUBLIC "-//W3C//DTD SVG 1.1//EN"
 "http://www.w3.org/Graphics/SVG/1.1/DTD/svg11.dtd">
<!-- Generated by graphviz version 12.2.1 (20241206.2353)
 -->
<!-- Title: fcmaes.optimizer.Cma_python.minimize Pages: 1 -->
<svg width="317pt" height="140pt"
 viewBox="0.00 0.00 316.75 140.00" xmlns="http://www.w3.org/2000/svg" xmlns:xlink="http://www.w3.org/1999/xlink">
<g id="graph0" class="graph" transform="scale(1 1) rotate(0) translate(4 136)">
<title>fcmaes.optimizer.Cma_python.minimize</title>
<!-- Node1 -->
<g id="Node000001" class="node">
<title>Node1</title>
<g id="a_Node000001"><a xlink:title="Minimizes a provided objective function using the CMA&#45;ES optimization algorithm.">
<polygon fill="#999999" stroke="#666666" points="115,-82 0,-82 0,-50 115,-50 115,-82"/>
<text text-anchor="start" x="8" y="-68.5" font-family="Helvetica,sans-Serif" font-size="10.00">fcmaes.optimizer.Cma</text>
<text text-anchor="middle" x="57.5" y="-56.5" font-family="Helvetica,sans-Serif" font-size="10.00">_python.minimize</text>
</a>
</g>
</g>
<!-- Node2 -->
<g id="Node000002" class="node">
<title>Node2</title>
<g id="a_Node000002"><a xlink:href="classfcmaes_1_1advretry_1_1_store.html#a329ccb4c8a17a35fec30a506495dee61" target="_top" xlink:title="Retrieves the count of runs.">
<polygon fill="white" stroke="#666666" points="294.12,-132 165.62,-132 165.62,-100 294.12,-100 294.12,-132"/>
<text text-anchor="start" x="173.62" y="-118.5" font-family="Helvetica,sans-Serif" font-size="10.00">fcmaes.advretry.Store.get</text>
<text text-anchor="middle" x="229.88" y="-106.5" font-family="Helvetica,sans-Serif" font-size="10.00">_count_runs</text>
</a>
</g>
</g>
<!-- Node1&#45;&gt;Node2 -->
<g id="edge1_Node000001_Node000002" class="edge">
<title>Node1&#45;&gt;Node2</title>
<g id="a_edge1_Node000001_Node000002"><a xlink:title=" ">
<path fill="none" stroke="#63b8ff" d="M114.29,-82.37C129.51,-86.84 146.15,-91.72 161.92,-96.35"/>
<polygon fill="#63b8ff" stroke="#63b8ff" points="160.64,-99.62 171.22,-99.08 162.61,-92.91 160.64,-99.62"/>
</a>
</g>
</g>
<!-- Node3 -->
<g id="Node000003" class="node">
<title>Node3</title>
<g id="a_Node000003"><a xlink:href="classfcmaes_1_1optimizer_1_1_optimizer.html#acf09b9b314cc4faf25c9935e76ae1821" target="_top" xlink:title="Gets the count of runs from the provided store.">
<polygon fill="white" stroke="#666666" points="306.12,-82 153.62,-82 153.62,-50 306.12,-50 306.12,-82"/>
<text text-anchor="start" x="161.62" y="-68.5" font-family="Helvetica,sans-Serif" font-size="10.00">fcmaes.optimizer.Optimizer.get</text>
<text text-anchor="middle" x="229.88" y="-56.5" font-family="Helvetica,sans-Serif" font-size="10.00">_count_runs</text>
</a>
</g>
</g>
<!-- Node1&#45;&gt;Node3 -->
<g id="edge2_Node000001_Node000003" class="edge">
<title>Node1&#45;&gt;Node3</title>
<g id="a_edge2_Node000001_Node000003"><a xlink:title=" ">
<path fill="none" stroke="#63b8ff" d="M115.23,-66C123.81,-66 132.82,-66 141.86,-66"/>
<polygon fill="#63b8ff" stroke="#63b8ff" points="141.78,-69.5 151.78,-66 141.78,-62.5 141.78,-69.5"/>
</a>
</g>
</g>
<!-- Node4 -->
<g id="Node000004" class="node">
<title>Node4</title>
<g id="a_Node000004"><a xlink:href="classfcmaes_1_1optimizer_1_1_optimizer.html#adfc4b7f5b36503f186c68d521a9ede8a" target="_top" xlink:title="Evaluates and returns the maximum number of evaluations based on the provided store or the object&#39;s d...">
<polygon fill="white" stroke="#666666" points="308.75,-32 151,-32 151,0 308.75,0 308.75,-32"/>
<text text-anchor="start" x="159" y="-18.5" font-family="Helvetica,sans-Serif" font-size="10.00">fcmaes.optimizer.Optimizer.max</text>
<text text-anchor="middle" x="229.88" y="-6.5" font-family="Helvetica,sans-Serif" font-size="10.00">_eval_num</text>
</a>
</g>
</g>
<!-- Node1&#45;&gt;Node4 -->
<g id="edge3_Node000001_Node000004" class="edge">
<title>Node1&#45;&gt;Node4</title>
<g id="a_edge3_Node000001_Node000004"><a xlink:title=" ">
<path fill="none" stroke="#63b8ff" d="M114.29,-49.63C129.51,-45.16 146.15,-40.28 161.92,-35.65"/>
<polygon fill="#63b8ff" stroke="#63b8ff" points="162.61,-39.09 171.22,-32.92 160.64,-32.38 162.61,-39.09"/>
</a>
</g>
</g>
</g>
</svg>
