<?xml version="1.0" encoding="UTF-8" standalone="no"?>
<!DOCTYPE svg PUBLIC "-//W3C//DTD SVG 1.1//EN"
 "http://www.w3.org/Graphics/SVG/1.1/DTD/svg11.dtd">
<!-- Generated by graphviz version 12.2.1 (20241206.2353)
 -->
<!-- Title: CNMSeqOpt::optimize Pages: 1 -->
<svg width="427pt" height="278pt"
 viewBox="0.00 0.00 426.50 278.00" xmlns="http://www.w3.org/2000/svg" xmlns:xlink="http://www.w3.org/1999/xlink">

<svg id="main" version="1.1" xmlns="http://www.w3.org/2000/svg" xmlns:xlink="http://www.w3.org/1999/xlink" xml:space="preserve">

<style type="text/css"><![CDATA[
.node, .edge {opacity: 0.7;}
.node.selected, .edge.selected {opacity: 1;}
.edge:hover path { stroke: red; }
.edge:hover polygon { stroke: red; fill: red; }
]]></style>
<script type="application/ecmascript" xlink:href="svg.min.js"/>
<svg id="graph" class="graph">
<g id="graph0" class="graph" transform="scale(1 1) rotate(0) translate(4 274)">
<title>CNMSeqOpt::optimize</title>
<!-- Node1 -->
<g id="Node000001" class="node">
<title>Node1</title>
<g id="a_Node000001"><a xlink:title=" ">
<polygon fill="#999999" stroke="#666666" points="115,-220 0,-220 0,-200 115,-200 115,-220"/>
<text text-anchor="middle" x="57.5" y="-206.5" font-family="Helvetica,sans-Serif" font-size="10.00">CNMSeqOpt::optimize</text>
</a>
</g>
</g>
<!-- Node2 -->
<g id="Node000002" class="node">
<title>Node2</title>
<g id="a_Node000002"><a xlink:href="class_c_n_m_seq_opt.html#abe5f0b09856d48eb312d0c3a8701fdcc" target="_top" xlink:title=" ">
<polygon fill="white" stroke="#666666" points="266,-220 151,-220 151,-200 266,-200 266,-220"/>
<text text-anchor="middle" x="208.5" y="-206.5" font-family="Helvetica,sans-Serif" font-size="10.00">CNMSeqOpt::calccent</text>
</a>
</g>
</g>
<!-- Node1&#45;&gt;Node2 -->
<g id="edge1_Node000001_Node000002" class="edge">
<title>Node1&#45;&gt;Node2</title>
<g id="a_edge1_Node000001_Node000002"><a xlink:title=" ">
<path fill="none" stroke="#63b8ff" d="M115.26,-210C123.19,-210 131.42,-210 139.53,-210"/>
<polygon fill="#63b8ff" stroke="#63b8ff" points="139.39,-213.5 149.39,-210 139.39,-206.5 139.39,-213.5"/>
</a>
</g>
</g>
<!-- Node5 -->
<g id="Node000005" class="node">
<title>Node5</title>
<g id="a_Node000005"><a xlink:href="class_c_n_m_seq_opt.html#a67aa8414c254cfb6a9b442450850987d" target="_top" xlink:title=" ">
<polygon fill="white" stroke="#666666" points="258.12,-258 158.88,-258 158.88,-238 258.12,-238 258.12,-258"/>
<text text-anchor="middle" x="208.5" y="-244.5" font-family="Helvetica,sans-Serif" font-size="10.00">CNMSeqOpt::copy</text>
</a>
</g>
</g>
<!-- Node1&#45;&gt;Node5 -->
<g id="edge4_Node000001_Node000005" class="edge">
<title>Node1&#45;&gt;Node5</title>
<g id="a_edge4_Node000001_Node000005"><a xlink:title=" ">
<path fill="none" stroke="#63b8ff" d="M99.61,-220.48C116.87,-224.89 137.15,-230.06 155.44,-234.72"/>
<polygon fill="#63b8ff" stroke="#63b8ff" points="154.5,-238.1 165.06,-237.18 156.23,-231.31 154.5,-238.1"/>
</a>
</g>
</g>
<!-- Node6 -->
<g id="Node000006" class="node">
<title>Node6</title>
<g id="a_Node000006"><a xlink:href="class_c_n_m_seq_opt.html#a1ef451e7a70db607e096c343dac37bb1" target="_top" xlink:title=" ">
<polygon fill="white" stroke="#666666" points="256.62,-126 160.38,-126 160.38,-106 256.62,-106 256.62,-126"/>
<text text-anchor="middle" x="208.5" y="-112.5" font-family="Helvetica,sans-Serif" font-size="10.00">CNMSeqOpt::eval</text>
</a>
</g>
</g>
<!-- Node1&#45;&gt;Node6 -->
<g id="edge7_Node000001_Node000006" class="edge">
<title>Node1&#45;&gt;Node6</title>
<g id="a_edge7_Node000001_Node000006"><a xlink:title=" ">
<path fill="none" stroke="#63b8ff" d="M75.01,-199.58C100.75,-183.35 150.63,-151.88 181.31,-132.52"/>
<polygon fill="#63b8ff" stroke="#63b8ff" points="183.04,-135.57 189.63,-127.27 179.31,-129.65 183.04,-135.57"/>
</a>
</g>
</g>
<!-- Node3 -->
<g id="Node000003" class="node">
<title>Node3</title>
<g id="a_Node000003"><a xlink:href="class_c_bite_pop.html#a24130fea35014433f142e3b9ed0f8929" target="_top" xlink:title=" ">
<polygon fill="white" stroke="#666666" points="412.5,-270 308,-270 308,-238 412.5,-238 412.5,-270"/>
<text text-anchor="start" x="316" y="-256.5" font-family="Helvetica,sans-Serif" font-size="10.00">CBitePop&lt; double &gt;</text>
<text text-anchor="middle" x="360.25" y="-244.5" font-family="Helvetica,sans-Serif" font-size="10.00">::copyParams</text>
</a>
</g>
</g>
<!-- Node2&#45;&gt;Node3 -->
<g id="edge2_Node000002_Node000003" class="edge">
<title>Node2&#45;&gt;Node3</title>
<g id="a_edge2_Node000002_Node000003"><a xlink:title=" ">
<path fill="none" stroke="#63b8ff" d="M244.99,-220.43C260.46,-224.97 279.07,-230.44 296.73,-235.63"/>
<polygon fill="#63b8ff" stroke="#63b8ff" points="295.54,-238.93 306.12,-238.39 297.51,-232.21 295.54,-238.93"/>
</a>
</g>
</g>
<!-- Node4 -->
<g id="Node000004" class="node">
<title>Node4</title>
<g id="a_Node000004"><a xlink:href="class_c_n_m_seq_opt.html#a2b301caae34520d6495dabb8fcfd5c63" target="_top" xlink:title=" ">
<polygon fill="white" stroke="#666666" points="411,-220 309.5,-220 309.5,-200 411,-200 411,-220"/>
<text text-anchor="middle" x="360.25" y="-206.5" font-family="Helvetica,sans-Serif" font-size="10.00">CNMSeqOpt::findhi</text>
</a>
</g>
</g>
<!-- Node2&#45;&gt;Node4 -->
<g id="edge3_Node000002_Node000004" class="edge">
<title>Node2&#45;&gt;Node4</title>
<g id="a_edge3_Node000002_Node000004"><a xlink:title=" ">
<path fill="none" stroke="#63b8ff" d="M266.11,-210C276.58,-210 287.54,-210 298.13,-210"/>
<polygon fill="#63b8ff" stroke="#63b8ff" points="297.92,-213.5 307.92,-210 297.92,-206.5 297.92,-213.5"/>
</a>
</g>
</g>
<!-- Node5&#45;&gt;Node3 -->
<g id="edge5_Node000005_Node000003" class="edge">
<title>Node5&#45;&gt;Node3</title>
<g id="a_edge5_Node000005_Node000003"><a xlink:title=" ">
<path fill="none" stroke="#63b8ff" d="M258.53,-249.96C270.55,-250.45 283.58,-250.97 296.15,-251.47"/>
<polygon fill="#63b8ff" stroke="#63b8ff" points="295.89,-254.96 306.02,-251.87 296.17,-247.97 295.89,-254.96"/>
</a>
</g>
</g>
<!-- Node5&#45;&gt;Node4 -->
<g id="edge6_Node000005_Node000004" class="edge">
<title>Node5&#45;&gt;Node4</title>
<g id="a_edge6_Node000005_Node000004"><a xlink:title=" ">
<path fill="none" stroke="#63b8ff" d="M250.82,-237.52C268.17,-233.11 288.55,-227.94 306.93,-223.28"/>
<polygon fill="#63b8ff" stroke="#63b8ff" points="307.77,-226.67 316.6,-220.82 306.05,-219.89 307.77,-226.67"/>
</a>
</g>
</g>
<!-- Node7 -->
<g id="Node000007" class="node">
<title>Node7</title>
<g id="a_Node000007"><a xlink:href="class_c_bite_pop.html#a57e751582761922bbabff1ddb7af277b" target="_top" xlink:title=" ">
<polygon fill="white" stroke="#666666" points="412.5,-82 308,-82 308,-50 412.5,-50 412.5,-82"/>
<text text-anchor="start" x="316" y="-68.5" font-family="Helvetica,sans-Serif" font-size="10.00">CBitePop&lt; double &gt;</text>
<text text-anchor="middle" x="360.25" y="-56.5" font-family="Helvetica,sans-Serif" font-size="10.00">::copyValues</text>
</a>
</g>
</g>
<!-- Node6&#45;&gt;Node7 -->
<g id="edge8_Node000006_Node000007" class="edge">
<title>Node6&#45;&gt;Node7</title>
<g id="a_edge8_Node000006_Node000007"><a xlink:title=" ">
<path fill="none" stroke="#63b8ff" d="M240.89,-105.52C257.75,-99.89 279.12,-92.76 299.04,-86.1"/>
<polygon fill="#63b8ff" stroke="#63b8ff" points="300.11,-89.44 308.48,-82.95 297.89,-82.8 300.11,-89.44"/>
</a>
</g>
</g>
<!-- Node8 -->
<g id="Node000008" class="node">
<title>Node8</title>
<g id="a_Node000008"><a xlink:href="class_c_bite_opt_interface.html#a45d7e2c9ea31b6f8bb23758a6879df9d" target="_top" xlink:title=" ">
<polygon fill="white" stroke="#666666" points="410.62,-32 309.88,-32 309.88,0 410.62,0 410.62,-32"/>
<text text-anchor="start" x="317.88" y="-18.5" font-family="Helvetica,sans-Serif" font-size="10.00">CBiteOptInterface::</text>
<text text-anchor="middle" x="360.25" y="-6.5" font-family="Helvetica,sans-Serif" font-size="10.00">optcost</text>
</a>
</g>
</g>
<!-- Node6&#45;&gt;Node8 -->
<g id="edge9_Node000006_Node000008" class="edge">
<title>Node6&#45;&gt;Node8</title>
<g id="a_edge9_Node000006_Node000008"><a xlink:title=" ">
<path fill="none" stroke="#63b8ff" d="M220.16,-105.72C236.66,-90.21 269.85,-60.56 302,-41 303.88,-39.86 305.81,-38.74 307.79,-37.65"/>
<polygon fill="#63b8ff" stroke="#63b8ff" points="309.27,-40.82 316.57,-33.14 306.07,-34.6 309.27,-40.82"/>
</a>
</g>
</g>
<!-- Node9 -->
<g id="Node000009" class="node">
<title>Node9</title>
<g id="a_Node000009"><a xlink:href="class_c_bite_opt_base.html#a9e49b98f5f6a2470d060282b2fd26a53" target="_top" xlink:title=" ">
<polygon fill="white" stroke="#666666" points="418.5,-182 302,-182 302,-150 418.5,-150 418.5,-182"/>
<text text-anchor="start" x="310" y="-168.5" font-family="Helvetica,sans-Serif" font-size="10.00">CBiteOptBase&lt; double</text>
<text text-anchor="middle" x="360.25" y="-156.5" font-family="Helvetica,sans-Serif" font-size="10.00"> &gt;::updateBestCost</text>
</a>
</g>
</g>
<!-- Node6&#45;&gt;Node9 -->
<g id="edge10_Node000006_Node000009" class="edge">
<title>Node6&#45;&gt;Node9</title>
<g id="a_edge10_Node000006_Node000009"><a xlink:title=" ">
<path fill="none" stroke="#63b8ff" d="M240.89,-126.48C257.75,-132.11 279.12,-139.24 299.04,-145.9"/>
<polygon fill="#63b8ff" stroke="#63b8ff" points="297.89,-149.2 308.48,-149.05 300.11,-142.56 297.89,-149.2"/>
</a>
</g>
</g>
<!-- Node10 -->
<g id="Node000010" class="node">
<title>Node10</title>
<g id="a_Node000010"><a xlink:href="class_c_bite_opt_base.html#a634a498e8ebd71bbf87fd1df02f178e0" target="_top" xlink:title=" ">
<polygon fill="white" stroke="#666666" points="418.5,-132 302,-132 302,-100 418.5,-100 418.5,-132"/>
<text text-anchor="start" x="310" y="-118.5" font-family="Helvetica,sans-Serif" font-size="10.00">CBiteOptBase&lt; double</text>
<text text-anchor="middle" x="360.25" y="-106.5" font-family="Helvetica,sans-Serif" font-size="10.00"> &gt;::wrapParamReal</text>
</a>
</g>
</g>
<!-- Node6&#45;&gt;Node10 -->
<g id="edge11_Node000006_Node000010" class="edge">
<title>Node6&#45;&gt;Node10</title>
<g id="a_edge11_Node000006_Node000010"><a xlink:title=" ">
<path fill="none" stroke="#63b8ff" d="M256.88,-116C267.55,-116 279.08,-116 290.43,-116"/>
<polygon fill="#63b8ff" stroke="#63b8ff" points="290.16,-119.5 300.16,-116 290.16,-112.5 290.16,-119.5"/>
</a>
</g>
</g>
</g>
</svg>
</svg>

<style type='text/css'>
<![CDATA[
[data-mouse-over-selected='false'] { opacity: 0.7; }
[data-mouse-over-selected='true']  { opacity: 1.0; }
]]>
</style>
<script type="application/ecmascript"><![CDATA[
document.addEventListener('DOMContentLoaded', (event) => {
  highlightEdges();
  highlightAdjacentNodes();
});
]]></script>
</svg>
