<?xml version="1.0" encoding="UTF-8" standalone="no"?>
<!DOCTYPE svg PUBLIC "-//W3C//DTD SVG 1.1//EN"
 "http://www.w3.org/Graphics/SVG/1.1/DTD/svg11.dtd">
<!-- Generated by graphviz version 12.2.1 (20241206.2353)
 -->
<!-- Title: examples.repython.RE6_pymoo Pages: 1 -->
<svg width="127pt" height="188pt"
 viewBox="0.00 0.00 126.50 188.00" xmlns="http://www.w3.org/2000/svg" xmlns:xlink="http://www.w3.org/1999/xlink">

<svg id="main" version="1.1" xmlns="http://www.w3.org/2000/svg" xmlns:xlink="http://www.w3.org/1999/xlink" xml:space="preserve">

<style type="text/css"><![CDATA[
.node, .edge {opacity: 0.7;}
.node.selected, .edge.selected {opacity: 1;}
.edge:hover path { stroke: red; }
.edge:hover polygon { stroke: red; fill: red; }
]]></style>
<script type="application/ecmascript" xlink:href="svg.min.js"/>
<svg id="graph" class="graph">
<g id="graph0" class="graph" transform="scale(1 1) rotate(0) translate(4 184)">
<title>examples.repython.RE6_pymoo</title>
<!-- Node1 -->
<g id="Node000001" class="node">
<title>Node1</title>
<g id="a_Node000001"><a xlink:title=" ">
<polygon fill="#999999" stroke="none" points="118.5,-92 0,-92 0,0 118.5,0 118.5,-92"/>
<text text-anchor="start" x="6.75" y="-78.5" font-family="Helvetica,sans-Serif" font-size="10.00">examples.repython.RE6</text>
<text text-anchor="start" x="42" y="-66.5" font-family="Helvetica,sans-Serif" font-size="10.00">_pymoo</text>
<text text-anchor="start" x="57.75" y="-50.5" font-family="Helvetica,sans-Serif" font-size="10.00"> </text>
<text text-anchor="start" x="4" y="-34.5" font-family="Helvetica,sans-Serif" font-size="10.00">+</text>
<text text-anchor="start" x="14" y="-34.5" font-family="Helvetica,sans-Serif" font-size="10.00">__init__(self, **kwargs)</text>
<text text-anchor="start" x="4.38" y="-18.5" font-family="Helvetica,sans-Serif" font-size="10.00">#</text>
<text text-anchor="start" x="14" y="-18.5" font-family="Helvetica,sans-Serif" font-size="10.00">_evaluate(self, x,</text>
<text text-anchor="start" x="14" y="-6.5" font-family="Helvetica,sans-Serif" font-size="10.00"> out, *args, **kwargs)</text>
<polygon fill="#666666" stroke="#666666" points="0,-62 0,-62 118.5,-62 118.5,-62 0,-62"/>
<polygon fill="#666666" stroke="#666666" points="0,-46 0,-46 118.5,-46 118.5,-46 0,-46"/>
<polygon fill="none" stroke="#666666" points="0,0 0,-92 118.5,-92 118.5,0 0,0"/>
</a>
</g>
</g>
<!-- Node2 -->
<g id="Node000002" class="node">
<title>Node2</title>
<g id="a_Node000002"><a xlink:title=" ">
<polygon fill="white" stroke="none" points="109.38,-180 9.12,-180 9.12,-128 109.38,-128 109.38,-180"/>
<text text-anchor="start" x="13.12" y="-166.5" font-family="Helvetica,sans-Serif" font-size="10.00">ElementwiseProblem</text>
<text text-anchor="start" x="57.75" y="-150.5" font-family="Helvetica,sans-Serif" font-size="10.00"> </text>
<text text-anchor="start" x="57.75" y="-134.5" font-family="Helvetica,sans-Serif" font-size="10.00"> </text>
<polygon fill="#666666" stroke="#666666" points="9.12,-162 9.12,-162 109.38,-162 109.38,-162 9.12,-162"/>
<polygon fill="#666666" stroke="#666666" points="9.12,-146 9.12,-146 109.38,-146 109.38,-146 9.12,-146"/>
<polygon fill="none" stroke="#666666" points="9.12,-128 9.12,-180 109.38,-180 109.38,-128 9.12,-128"/>
</a>
</g>
</g>
<!-- Node2&#45;&gt;Node1 -->
<g id="edge1_Node000001_Node000002" class="edge">
<title>Node2&#45;&gt;Node1</title>
<g id="a_edge1_Node000001_Node000002"><a xlink:title=" ">
<path fill="none" stroke="#63b8ff" d="M59.25,-116.81C59.25,-108.71 59.25,-100.03 59.25,-91.64"/>
<polygon fill="none" stroke="#63b8ff" points="55.75,-116.63 59.25,-126.63 62.75,-116.63 55.75,-116.63"/>
</a>
</g>
</g>
</g>
</svg>
</svg>

<style type='text/css'>
<![CDATA[
[data-mouse-over-selected='false'] { opacity: 0.7; }
[data-mouse-over-selected='true']  { opacity: 1.0; }
]]>
</style>
<script type="application/ecmascript"><![CDATA[
document.addEventListener('DOMContentLoaded', (event) => {
  highlightEdges();
  highlightAdjacentNodes();
});
]]></script>
</svg>
