<?xml version="1.0" encoding="UTF-8" standalone="no"?>
<!DOCTYPE svg PUBLIC "-//W3C//DTD SVG 1.1//EN"
 "http://www.w3.org/Graphics/SVG/1.1/DTD/svg11.dtd">
<!-- Generated by graphviz version 12.2.1 (20241206.2353)
 -->
<!-- Title: mode_optimizer::MoDeOptimizer::pareto Pages: 1 -->
<!--zoomable 216 -->

<svg id="main" version="1.1" xmlns="http://www.w3.org/2000/svg" xmlns:xlink="http://www.w3.org/1999/xlink" xml:space="preserve" onload="init(evt)">

<style type="text/css"><![CDATA[
.node, .edge {opacity: 0.7;}
.node.selected, .edge.selected {opacity: 1;}
.edge:hover path { stroke: red; }
.edge:hover polygon { stroke: red; fill: red; }
]]></style>

<defs>
  <circle id="rim" cx="0" cy="0" r="7"/>
  <circle id="rim2" cx="0" cy="0" r="3.5"/>
  <g id="zoomPlus">
    <use xlink:href="#rim" fill="#404040"><set attributeName="fill" to="#808080" begin="zoomplus.mouseover" end="zoomplus.mouseout"/></use>
    <path d="M-4,0h8M0,-4v8" fill="none" stroke="white" stroke-width="1.5" pointer-events="none"/>
  </g>
  <g id="zoomMin">
    <use xlink:href="#rim" fill="#404040"><set attributeName="fill" to="#808080" begin="zoomminus.mouseover" end="zoomminus.mouseout"/></use>
    <path d="M-4,0h8" fill="none" stroke="white" stroke-width="1.5" pointer-events="none"/>
  </g>
  <g id="arrowUp" transform="translate(30 24)">
    <use xlink:href="#rim"/>
    <path pointer-events="none" fill="none" stroke="white" stroke-width="1.5" d="M0,-3.0v7 M-2.5,-0.5L0,-3.0L2.5,-0.5"/>
  </g>
  <g id="arrowRight" transform="rotate(90) translate(36 -43)">
    <use xlink:href="#rim"/>
    <path pointer-events="none" fill="none" stroke="white" stroke-width="1.5" d="M0,-3.0v7 M-2.5,-0.5L0,-3.0L2.5,-0.5"/>
  </g>
  <g id="arrowDown" transform="rotate(180) translate(-30 -48)">
    <use xlink:href="#rim"/>
    <path pointer-events="none" fill="none" stroke="white" stroke-width="1.5" d="M0,-3.0v7 M-2.5,-0.5L0,-3.0L2.5,-0.5"/>
  </g>
  <g id="arrowLeft" transform="rotate(270) translate(-36 17)">
    <use xlink:href="#rim"/>
    <path pointer-events="none" fill="none" stroke="white" stroke-width="1.5" d="M0,-3.0v7 M-2.5,-0.5L0,-3.0L2.5,-0.5"/>
  </g>
  <g id="resetDef">
    <use xlink:href="#rim2" fill="#404040"><set attributeName="fill" to="#808080" begin="reset.mouseover" end="reset.mouseout"/></use>
  </g>
</defs>
<script type="application/ecmascript">
var viewWidth = 685;
var viewHeight = 216;
var sectionId = 'dynsection-14';
</script>
<script type="application/ecmascript" xlink:href="svg.min.js"/>
<svg id="graph" class="graph">
<g id="viewport">
<title>mode_optimizer::MoDeOptimizer::pareto</title>
<!-- Node1 -->
<g id="Node000001" class="node">
<title>Node1</title>
<g id="a_Node000001"><a xlink:title=" ">
<polygon fill="#999999" stroke="#666666" points="159.25,-98 0,-98 0,-66 159.25,-66 159.25,-98"/>
<text text-anchor="start" x="8" y="-84.5" font-family="Helvetica,sans-Serif" font-size="10.00">mode_optimizer::MoDeOptimizer</text>
<text text-anchor="middle" x="79.62" y="-72.5" font-family="Helvetica,sans-Serif" font-size="10.00">::pareto</text>
</a>
</g>
</g>
<!-- Node2 -->
<g id="Node000002" class="node">
<title>Node2</title>
<g id="a_Node000002"><a xlink:href="classmode__optimizer_1_1_mo_de_optimizer.html#a1d4ce60e415e141efaef2728d9952933" target="_top" xlink:title=" ">
<polygon fill="white" stroke="#666666" points="354.5,-208 195.25,-208 195.25,-176 354.5,-176 354.5,-208"/>
<text text-anchor="start" x="203.25" y="-194.5" font-family="Helvetica,sans-Serif" font-size="10.00">mode_optimizer::MoDeOptimizer</text>
<text text-anchor="middle" x="274.88" y="-182.5" font-family="Helvetica,sans-Serif" font-size="10.00">::objranks</text>
</a>
</g>
</g>
<!-- Node1&#45;&gt;Node2 -->
<g id="edge1_Node000001_Node000002" class="edge">
<title>Node1&#45;&gt;Node2</title>
<g id="a_edge1_Node000001_Node000002"><a xlink:title=" ">
<path fill="none" stroke="#63b8ff" d="M100.77,-98.35C122.93,-115.78 160.08,-143.38 195.25,-162 201.44,-165.27 208.06,-168.37 214.74,-171.25"/>
<polygon fill="#63b8ff" stroke="#63b8ff" points="213.26,-174.42 223.83,-175 215.92,-167.95 213.26,-174.42"/>
</a>
</g>
</g>
<!-- Node3 -->
<g id="Node000003" class="node">
<title>Node3</title>
<g id="a_Node000003"><a xlink:href="evaluator_8h.html#a7689f88ea48c85c22d9b34208decd67c" target="_top" xlink:title=" ">
<polygon fill="white" stroke="#666666" points="500.62,-158 439.62,-158 439.62,-138 500.62,-138 500.62,-158"/>
<text text-anchor="middle" x="470.12" y="-144.5" font-family="Helvetica,sans-Serif" font-size="10.00">sort_index</text>
</a>
</g>
</g>
<!-- Node1&#45;&gt;Node3 -->
<g id="edge11_Node000001_Node000003" class="edge">
<title>Node1&#45;&gt;Node3</title>
<g id="a_edge11_Node000001_Node000003"><a xlink:title=" ">
<path fill="none" stroke="#63b8ff" d="M112.81,-98.45C135.29,-109.13 166.35,-122.26 195.25,-129 276.16,-147.88 373.87,-149.86 427.98,-149.2"/>
<polygon fill="#63b8ff" stroke="#63b8ff" points="428.03,-152.7 437.97,-149.03 427.92,-145.7 428.03,-152.7"/>
</a>
</g>
</g>
<!-- Node5 -->
<g id="Node000005" class="node">
<title>Node5</title>
<g id="a_Node000005"><a xlink:href="classmode__optimizer_1_1_mo_de_optimizer.html#a10363d0716952c74500da8ca679dc95b" target="_top" xlink:title=" ">
<polygon fill="white" stroke="#666666" points="354.5,-32 195.25,-32 195.25,0 354.5,0 354.5,-32"/>
<text text-anchor="start" x="203.25" y="-18.5" font-family="Helvetica,sans-Serif" font-size="10.00">mode_optimizer::MoDeOptimizer</text>
<text text-anchor="middle" x="274.88" y="-6.5" font-family="Helvetica,sans-Serif" font-size="10.00">::pareto_levels</text>
</a>
</g>
</g>
<!-- Node1&#45;&gt;Node5 -->
<g id="edge4_Node000001_Node000005" class="edge">
<title>Node1&#45;&gt;Node5</title>
<g id="a_edge4_Node000001_Node000005"><a xlink:title=" ">
<path fill="none" stroke="#63b8ff" d="M113.41,-65.59C136.04,-56.56 167.12,-45.47 195.91,-35.99"/>
<polygon fill="#63b8ff" stroke="#63b8ff" points="196.95,-39.33 205.37,-32.91 194.78,-32.68 196.95,-39.33"/>
</a>
</g>
</g>
<!-- Node7 -->
<g id="Node000007" class="node">
<title>Node7</title>
<g id="a_Node000007"><a xlink:href="evaluator_8h.html#a909812174fa9829bc49f6e00edb00b90" target="_top" xlink:title=" ">
<polygon fill="white" stroke="#666666" points="490.12,-70 450.12,-70 450.12,-50 490.12,-50 490.12,-70"/>
<text text-anchor="middle" x="470.12" y="-56.5" font-family="Helvetica,sans-Serif" font-size="10.00">zeros</text>
</a>
</g>
</g>
<!-- Node1&#45;&gt;Node7 -->
<g id="edge12_Node000001_Node000007" class="edge">
<title>Node1&#45;&gt;Node7</title>
<g id="a_edge12_Node000001_Node000007"><a xlink:title=" ">
<path fill="none" stroke="#63b8ff" d="M159.71,-77.52C245.85,-72.64 379.27,-65.09 438.73,-61.72"/>
<polygon fill="#63b8ff" stroke="#63b8ff" points="438.63,-65.23 448.42,-61.17 438.24,-58.24 438.63,-65.23"/>
</a>
</g>
</g>
<!-- Node8 -->
<g id="Node000008" class="node">
<title>Node8</title>
<g id="a_Node000008"><a xlink:href="classmode__optimizer_1_1_mo_de_optimizer.html#a7d415b38158a793f2a2d666e921d838b" target="_top" xlink:title=" ">
<polygon fill="white" stroke="#666666" points="354.5,-120 195.25,-120 195.25,-88 354.5,-88 354.5,-120"/>
<text text-anchor="start" x="203.25" y="-106.5" font-family="Helvetica,sans-Serif" font-size="10.00">mode_optimizer::MoDeOptimizer</text>
<text text-anchor="middle" x="274.88" y="-94.5" font-family="Helvetica,sans-Serif" font-size="10.00">::ranks</text>
</a>
</g>
</g>
<!-- Node1&#45;&gt;Node8 -->
<g id="edge8_Node000001_Node000008" class="edge">
<title>Node1&#45;&gt;Node8</title>
<g id="a_edge8_Node000001_Node000008"><a xlink:title=" ">
<path fill="none" stroke="#63b8ff" d="M159.51,-90.98C167.45,-91.88 175.56,-92.81 183.61,-93.72"/>
<polygon fill="#63b8ff" stroke="#63b8ff" points="183.1,-97.19 193.43,-94.84 183.89,-90.23 183.1,-97.19"/>
</a>
</g>
</g>
<!-- Node2&#45;&gt;Node3 -->
<g id="edge2_Node000002_Node000003" class="edge">
<title>Node2&#45;&gt;Node3</title>
<g id="a_edge2_Node000002_Node000003"><a xlink:title=" ">
<path fill="none" stroke="#63b8ff" d="M348.11,-175.55C375.07,-169.41 404.75,-162.66 427.96,-157.37"/>
<polygon fill="#63b8ff" stroke="#63b8ff" points="428.68,-160.8 437.66,-155.16 427.13,-153.97 428.68,-160.8"/>
</a>
</g>
</g>
<!-- Node4 -->
<g id="Node000004" class="node">
<title>Node4</title>
<g id="a_Node000004"><a xlink:href="evaluator_8h.html#a85426eb5cecc23caa06090d795034e5c" target="_top" xlink:title=" ">
<polygon fill="white" stroke="#666666" points="676.75,-158 585.75,-158 585.75,-138 676.75,-138 676.75,-158"/>
<text text-anchor="middle" x="631.25" y="-144.5" font-family="Helvetica,sans-Serif" font-size="10.00">compareIndexVal</text>
</a>
</g>
</g>
<!-- Node3&#45;&gt;Node4 -->
<g id="edge3_Node000003_Node000004" class="edge">
<title>Node3&#45;&gt;Node4</title>
<g id="a_edge3_Node000003_Node000004"><a xlink:title=" ">
<path fill="none" stroke="#63b8ff" d="M501.06,-148C521.57,-148 549.42,-148 574.01,-148"/>
<polygon fill="#63b8ff" stroke="#63b8ff" points="573.9,-151.5 583.9,-148 573.9,-144.5 573.9,-151.5"/>
</a>
</g>
</g>
<!-- Node5&#45;&gt;Node1 -->
<g id="edge6_Node000005_Node000001" class="edge">
<title>Node5&#45;&gt;Node1</title>
<g id="a_edge6_Node000005_Node000001"><a xlink:title=" ">
<path fill="none" stroke="#63b8ff" d="M241.1,-32.41C218.47,-41.44 187.37,-52.53 158.57,-62.02"/>
<polygon fill="#63b8ff" stroke="#63b8ff" points="157.54,-58.67 149.11,-65.09 159.7,-65.33 157.54,-58.67"/>
</a>
</g>
</g>
<!-- Node6 -->
<g id="Node000006" class="node">
<title>Node6</title>
<g id="a_Node000006"><a xlink:href="classmode__optimizer_1_1_mo_de_optimizer.html#af5f89faff00f2714a594e1d60cd2d6e3" target="_top" xlink:title=" ">
<polygon fill="white" stroke="#666666" points="549.75,-32 390.5,-32 390.5,0 549.75,0 549.75,-32"/>
<text text-anchor="start" x="398.5" y="-18.5" font-family="Helvetica,sans-Serif" font-size="10.00">mode_optimizer::MoDeOptimizer</text>
<text text-anchor="middle" x="470.12" y="-6.5" font-family="Helvetica,sans-Serif" font-size="10.00">::is_dominated</text>
</a>
</g>
</g>
<!-- Node5&#45;&gt;Node6 -->
<g id="edge5_Node000005_Node000006" class="edge">
<title>Node5&#45;&gt;Node6</title>
<g id="a_edge5_Node000005_Node000006"><a xlink:title=" ">
<path fill="none" stroke="#63b8ff" d="M354.76,-16C362.7,-16 370.81,-16 378.86,-16"/>
<polygon fill="#63b8ff" stroke="#63b8ff" points="378.67,-19.5 388.67,-16 378.67,-12.5 378.67,-19.5"/>
</a>
</g>
</g>
<!-- Node5&#45;&gt;Node7 -->
<g id="edge7_Node000005_Node000007" class="edge">
<title>Node5&#45;&gt;Node7</title>
<g id="a_edge7_Node000005_Node000007"><a xlink:title=" ">
<path fill="none" stroke="#63b8ff" d="M348.11,-32.45C379.43,-39.58 414.42,-47.54 438.68,-53.07"/>
<polygon fill="#63b8ff" stroke="#63b8ff" points="437.67,-56.43 448.19,-55.23 439.22,-49.6 437.67,-56.43"/>
</a>
</g>
</g>
<!-- Node8&#45;&gt;Node3 -->
<g id="edge9_Node000008_Node000003" class="edge">
<title>Node8&#45;&gt;Node3</title>
<g id="a_edge9_Node000008_Node000003"><a xlink:title=" ">
<path fill="none" stroke="#63b8ff" d="M348.11,-120.45C375.07,-126.59 404.75,-133.34 427.96,-138.63"/>
<polygon fill="#63b8ff" stroke="#63b8ff" points="427.13,-142.03 437.66,-140.84 428.68,-135.2 427.13,-142.03"/>
</a>
</g>
</g>
<!-- Node8&#45;&gt;Node7 -->
<g id="edge10_Node000008_Node000007" class="edge">
<title>Node8&#45;&gt;Node7</title>
<g id="a_edge10_Node000008_Node000007"><a xlink:title=" ">
<path fill="none" stroke="#63b8ff" d="M348.11,-87.55C379.43,-80.42 414.42,-72.46 438.68,-66.93"/>
<polygon fill="#63b8ff" stroke="#63b8ff" points="439.22,-70.4 448.19,-64.77 437.67,-63.57 439.22,-70.4"/>
</a>
</g>
</g>
</g>
</svg>

<g id="navigator" transform="translate(0 0)" fill="#404254">
  <rect fill="#f2f5e9" fill-opacity="0.5" stroke="#606060" stroke-width=".5" x="0" y="0" width="60" height="60"/>
  <use id="zoomplus" xlink:href="#zoomPlus" x="17" y="9" onmousedown="handleZoom(evt,'in')"/>
  <use id="zoomminus" xlink:href="#zoomMin" x="42" y="9" onmousedown="handleZoom(evt,'out')"/>
  <use id="reset" xlink:href="#resetDef" x="30" y="36" onmousedown="handleReset()"/>
   <use id="arrowup" xlink:href="#arrowUp" x="0" y="0" onmousedown="handlePan(0,-1)"/>
  <use id="arrowright" xlink:href="#arrowRight" x="0" y="0" onmousedown="handlePan(1,0)"/>
  <use id="arrowdown" xlink:href="#arrowDown" x="0" y="0" onmousedown="handlePan(0,1)"/>
  <use id="arrowleft" xlink:href="#arrowLeft" x="0" y="0" onmousedown="handlePan(-1,0)"/>
</g>
<svg viewBox="0 0 15 15" width="100%" height="30px" preserveAspectRatio="xMaxYMin meet">
 <g id="arrow_out" transform="scale(0.3 0.3)">
  <a xlink:href="classmode__optimizer_1_1_mo_de_optimizer_a3762607fa33f7bb558fd7aae9690fc37_cgraph_org.svg" target="_base">
   <rect id="button" ry="5" rx="5" y="6" x="6" height="38" width="38"
        fill="#f2f5e9" fill-opacity="0.5" stroke="#606060" stroke-width="1.0"/>
   <path id="arrow"
     d="M 11.500037,31.436501 C 11.940474,20.09759 22.043105,11.32322 32.158766,21.979434 L 37.068811,17.246167 C 37.068811,17.246167 37.088388,32 37.088388,32 L 22.160133,31.978069 C 22.160133,31.978069 26.997745,27.140456 26.997745,27.140456 C 18.528582,18.264221 13.291696,25.230495 11.500037,31.436501 z"
     style="fill:#404040;"/>
  </a>
 </g>
</svg>

<style type='text/css'>
<![CDATA[
[data-mouse-over-selected='false'] { opacity: 0.7; }
[data-mouse-over-selected='true']  { opacity: 1.0; }
]]>
</style>
<script type="application/ecmascript"><![CDATA[
document.addEventListener('DOMContentLoaded', (event) => {
  highlightEdges();
  highlightAdjacentNodes();
});
]]></script>
</svg>
