<?xml version="1.0" encoding="UTF-8" standalone="no"?>
<!DOCTYPE svg PUBLIC "-//W3C//DTD SVG 1.1//EN"
 "http://www.w3.org/Graphics/SVG/1.1/DTD/svg11.dtd">
<!-- Generated by graphviz version 12.2.1 (20241206.2353)
 -->
<!-- Title: fcmaes.mapelites.Archive.get_cs_decoded Pages: 1 -->
<svg width="364pt" height="66pt"
 viewBox="0.00 0.00 364.00 66.00" xmlns="http://www.w3.org/2000/svg" xmlns:xlink="http://www.w3.org/1999/xlink">
<g id="graph0" class="graph" transform="scale(1 1) rotate(0) translate(4 62)">
<title>fcmaes.mapelites.Archive.get_cs_decoded</title>
<!-- Node1 -->
<g id="Node000001" class="node">
<title>Node1</title>
<g id="a_Node000001"><a xlink:title="Returns decoded data using the decode_d method.">
<polygon fill="#999999" stroke="#666666" points="145.75,-45 0,-45 0,-13 145.75,-13 145.75,-45"/>
<text text-anchor="start" x="8" y="-31.5" font-family="Helvetica,sans-Serif" font-size="10.00">fcmaes.mapelites.Archive.get</text>
<text text-anchor="middle" x="72.88" y="-19.5" font-family="Helvetica,sans-Serif" font-size="10.00">_cs_decoded</text>
</a>
</g>
</g>
<!-- Node2 -->
<g id="Node000002" class="node">
<title>Node2</title>
<g id="a_Node000002"><a xlink:href="classfcmaes_1_1mapelites_1_1_archive.html#ae916520d6c7090a4aebb511b782f003c" target="_top" xlink:title="Decodes a given value d using the object&#39;s scaling factor and lower bound.">
<polygon fill="white" stroke="#666666" points="356,-58 181.75,-58 181.75,-38 356,-38 356,-58"/>
<text text-anchor="middle" x="268.88" y="-44.5" font-family="Helvetica,sans-Serif" font-size="10.00">fcmaes.mapelites.Archive.decode_d</text>
</a>
</g>
</g>
<!-- Node1&#45;&gt;Node2 -->
<g id="edge1_Node000001_Node000002" class="edge">
<title>Node1&#45;&gt;Node2</title>
<g id="a_edge1_Node000001_Node000002"><a xlink:title=" ">
<path fill="none" stroke="#63b8ff" d="M146.11,-36.07C153.95,-36.84 162.01,-37.63 170.09,-38.42"/>
<polygon fill="#63b8ff" stroke="#63b8ff" points="169.68,-41.9 179.98,-39.39 170.36,-34.93 169.68,-41.9"/>
</a>
</g>
</g>
<!-- Node3 -->
<g id="Node000003" class="node">
<title>Node3</title>
<g id="a_Node000003"><a xlink:href="classfcmaes_1_1mapelites_1_1_archive.html#ad3c852a54d31d2126b5f233e7d2fd7bb" target="_top" xlink:title="Retrieves a slice of the cs list for the given index.">
<polygon fill="white" stroke="#666666" points="347,-20 190.75,-20 190.75,0 347,0 347,-20"/>
<text text-anchor="middle" x="268.88" y="-6.5" font-family="Helvetica,sans-Serif" font-size="10.00">fcmaes.mapelites.Archive.get_c</text>
</a>
</g>
</g>
<!-- Node1&#45;&gt;Node3 -->
<g id="edge2_Node000001_Node000003" class="edge">
<title>Node1&#45;&gt;Node3</title>
<g id="a_edge2_Node000001_Node000003"><a xlink:title=" ">
<path fill="none" stroke="#63b8ff" d="M146.11,-21.93C156.83,-20.88 167.97,-19.78 178.98,-18.71"/>
<polygon fill="#63b8ff" stroke="#63b8ff" points="179.26,-22.2 188.87,-17.74 178.57,-15.23 179.26,-22.2"/>
</a>
</g>
</g>
</g>
</svg>
