<?xml version="1.0" encoding="UTF-8" standalone="no"?>
<!DOCTYPE svg PUBLIC "-//W3C//DTD SVG 1.1//EN"
 "http://www.w3.org/Graphics/SVG/1.1/DTD/svg11.dtd">
<!-- Generated by graphviz version 12.2.1 (20241206.2353)
 -->
<!-- Title: evaluator Pages: 1 -->
<!--zoomable 1076 -->

<svg id="main" version="1.1" xmlns="http://www.w3.org/2000/svg" xmlns:xlink="http://www.w3.org/1999/xlink" xml:space="preserve" onload="init(evt)">

<style type="text/css"><![CDATA[
.node, .edge {opacity: 0.7;}
.node.selected, .edge.selected {opacity: 1;}
.edge:hover path { stroke: red; }
.edge:hover polygon { stroke: red; fill: red; }
]]></style>

<defs>
  <circle id="rim" cx="0" cy="0" r="7"/>
  <circle id="rim2" cx="0" cy="0" r="3.5"/>
  <g id="zoomPlus">
    <use xlink:href="#rim" fill="#404040"><set attributeName="fill" to="#808080" begin="zoomplus.mouseover" end="zoomplus.mouseout"/></use>
    <path d="M-4,0h8M0,-4v8" fill="none" stroke="white" stroke-width="1.5" pointer-events="none"/>
  </g>
  <g id="zoomMin">
    <use xlink:href="#rim" fill="#404040"><set attributeName="fill" to="#808080" begin="zoomminus.mouseover" end="zoomminus.mouseout"/></use>
    <path d="M-4,0h8" fill="none" stroke="white" stroke-width="1.5" pointer-events="none"/>
  </g>
  <g id="arrowUp" transform="translate(30 24)">
    <use xlink:href="#rim"/>
    <path pointer-events="none" fill="none" stroke="white" stroke-width="1.5" d="M0,-3.0v7 M-2.5,-0.5L0,-3.0L2.5,-0.5"/>
  </g>
  <g id="arrowRight" transform="rotate(90) translate(36 -43)">
    <use xlink:href="#rim"/>
    <path pointer-events="none" fill="none" stroke="white" stroke-width="1.5" d="M0,-3.0v7 M-2.5,-0.5L0,-3.0L2.5,-0.5"/>
  </g>
  <g id="arrowDown" transform="rotate(180) translate(-30 -48)">
    <use xlink:href="#rim"/>
    <path pointer-events="none" fill="none" stroke="white" stroke-width="1.5" d="M0,-3.0v7 M-2.5,-0.5L0,-3.0L2.5,-0.5"/>
  </g>
  <g id="arrowLeft" transform="rotate(270) translate(-36 17)">
    <use xlink:href="#rim"/>
    <path pointer-events="none" fill="none" stroke="white" stroke-width="1.5" d="M0,-3.0v7 M-2.5,-0.5L0,-3.0L2.5,-0.5"/>
  </g>
  <g id="resetDef">
    <use xlink:href="#rim2" fill="#404040"><set attributeName="fill" to="#808080" begin="reset.mouseover" end="reset.mouseout"/></use>
  </g>
</defs>
<script type="application/ecmascript">
var viewWidth = 299;
var viewHeight = 1076;
var sectionId = 'dynsection-0';
</script>
<script type="application/ecmascript" xlink:href="svg.min.js"/>
<svg id="graph" class="graph">
<g id="viewport">
<title>evaluator</title>
<!-- Node1 -->
<g id="Node000001" class="node">
<title>Node1</title>
<g id="a_Node000001"><a xlink:title=" ">
<polygon fill="#999999" stroke="none" points="165,-244 32.25,-244 32.25,0 165,0 165,-244"/>
<text text-anchor="start" x="78.75" y="-230.5" font-family="Helvetica,sans-Serif" font-size="10.00">evaluator</text>
<text text-anchor="start" x="37.75" y="-214.5" font-family="Helvetica,sans-Serif" font-size="10.00">&#45;</text>
<text text-anchor="start" x="46.25" y="-214.5" font-family="Helvetica,sans-Serif" font-size="10.00">int _nobj</text>
<text text-anchor="start" x="37.75" y="-198.5" font-family="Helvetica,sans-Serif" font-size="10.00">&#45;</text>
<text text-anchor="start" x="46.25" y="-198.5" font-family="Helvetica,sans-Serif" font-size="10.00">int _workers</text>
<text text-anchor="start" x="37.75" y="-182.5" font-family="Helvetica,sans-Serif" font-size="10.00">&#45;</text>
<text text-anchor="start" x="46.25" y="-182.5" font-family="Helvetica,sans-Serif" font-size="10.00">bool _stop</text>
<text text-anchor="start" x="37.75" y="-166.5" font-family="Helvetica,sans-Serif" font-size="10.00">&#45;</text>
<text text-anchor="start" x="46.25" y="-166.5" font-family="Helvetica,sans-Serif" font-size="10.00">std::vector&lt; evaluator</text>
<text text-anchor="start" x="46.25" y="-154.5" font-family="Helvetica,sans-Serif" font-size="10.00">_job &gt; _jobs</text>
<text text-anchor="start" x="37.75" y="-138.5" font-family="Helvetica,sans-Serif" font-size="10.00">&#45;</text>
<text text-anchor="start" x="46.25" y="-138.5" font-family="Helvetica,sans-Serif" font-size="10.00">time_point&lt; Clock &gt; _t0</text>
<text text-anchor="start" x="36.25" y="-122.5" font-family="Helvetica,sans-Serif" font-size="10.00">+</text>
<text text-anchor="start" x="46.25" y="-122.5" font-family="Helvetica,sans-Serif" font-size="10.00">evaluator(Fitness</text>
<text text-anchor="start" x="46.25" y="-110.5" font-family="Helvetica,sans-Serif" font-size="10.00"> *fit, int nobj, int</text>
<text text-anchor="start" x="46.25" y="-98.5" font-family="Helvetica,sans-Serif" font-size="10.00"> workers)</text>
<text text-anchor="start" x="36.25" y="-82.5" font-family="Helvetica,sans-Serif" font-size="10.00">+</text>
<text text-anchor="start" x="46.25" y="-82.5" font-family="Helvetica,sans-Serif" font-size="10.00">~evaluator()</text>
<text text-anchor="start" x="36.25" y="-66.5" font-family="Helvetica,sans-Serif" font-size="10.00">+</text>
<text text-anchor="start" x="46.25" y="-66.5" font-family="Helvetica,sans-Serif" font-size="10.00">void evaluate(vec &amp;x,</text>
<text text-anchor="start" x="46.25" y="-54.5" font-family="Helvetica,sans-Serif" font-size="10.00"> int id)</text>
<text text-anchor="start" x="36.25" y="-38.5" font-family="Helvetica,sans-Serif" font-size="10.00">+</text>
<text text-anchor="start" x="46.25" y="-38.5" font-family="Helvetica,sans-Serif" font-size="10.00">vec_id * result()</text>
<text text-anchor="start" x="36.25" y="-22.5" font-family="Helvetica,sans-Serif" font-size="10.00">+</text>
<text text-anchor="start" x="46.25" y="-22.5" font-family="Helvetica,sans-Serif" font-size="10.00">void execute(int thread_id)</text>
<text text-anchor="start" x="36.25" y="-6.5" font-family="Helvetica,sans-Serif" font-size="10.00">+</text>
<text text-anchor="start" x="46.25" y="-6.5" font-family="Helvetica,sans-Serif" font-size="10.00">void join()</text>
<polygon fill="#666666" stroke="#666666" points="32.25,-226 32.25,-226 165,-226 165,-226 32.25,-226"/>
<polygon fill="#666666" stroke="#666666" points="32.25,-134 32.25,-134 44.25,-134 44.25,-134 32.25,-134"/>
<polygon fill="#666666" stroke="#666666" points="44.25,-134 44.25,-134 165,-134 165,-134 44.25,-134"/>
<polygon fill="none" stroke="#666666" points="32.25,0 32.25,-244 165,-244 165,0 32.25,0"/>
</a>
</g>
</g>
<!-- Node2 -->
<g id="Node000002" class="node">
<title>Node2</title>
<g id="a_Node000002"><a xlink:href="class_fitness.html" target="_top" xlink:title=" ">
<polygon fill="white" stroke="none" points="155.25,-820 0,-820 0,-304 155.25,-304 155.25,-820"/>
<text text-anchor="start" x="61.5" y="-806.5" font-family="Helvetica,sans-Serif" font-size="10.00">Fitness</text>
<text text-anchor="start" x="5.5" y="-790.5" font-family="Helvetica,sans-Serif" font-size="10.00">&#45;</text>
<text text-anchor="start" x="14" y="-790.5" font-family="Helvetica,sans-Serif" font-size="10.00">callback_type _func</text>
<text text-anchor="start" x="5.5" y="-774.5" font-family="Helvetica,sans-Serif" font-size="10.00">&#45;</text>
<text text-anchor="start" x="14" y="-774.5" font-family="Helvetica,sans-Serif" font-size="10.00">callback_parallel </text>
<text text-anchor="start" x="14" y="-762.5" font-family="Helvetica,sans-Serif" font-size="10.00">_func_par</text>
<text text-anchor="start" x="5.5" y="-746.5" font-family="Helvetica,sans-Serif" font-size="10.00">&#45;</text>
<text text-anchor="start" x="14" y="-746.5" font-family="Helvetica,sans-Serif" font-size="10.00">int _dim</text>
<text text-anchor="start" x="5.5" y="-730.5" font-family="Helvetica,sans-Serif" font-size="10.00">&#45;</text>
<text text-anchor="start" x="14" y="-730.5" font-family="Helvetica,sans-Serif" font-size="10.00">int _nobj</text>
<text text-anchor="start" x="5.5" y="-714.5" font-family="Helvetica,sans-Serif" font-size="10.00">&#45;</text>
<text text-anchor="start" x="14" y="-714.5" font-family="Helvetica,sans-Serif" font-size="10.00">vec _lower</text>
<text text-anchor="start" x="5.5" y="-698.5" font-family="Helvetica,sans-Serif" font-size="10.00">&#45;</text>
<text text-anchor="start" x="14" y="-698.5" font-family="Helvetica,sans-Serif" font-size="10.00">vec _upper</text>
<text text-anchor="start" x="5.5" y="-682.5" font-family="Helvetica,sans-Serif" font-size="10.00">&#45;</text>
<text text-anchor="start" x="14" y="-682.5" font-family="Helvetica,sans-Serif" font-size="10.00">vec _scale</text>
<text text-anchor="start" x="5.5" y="-666.5" font-family="Helvetica,sans-Serif" font-size="10.00">&#45;</text>
<text text-anchor="start" x="14" y="-666.5" font-family="Helvetica,sans-Serif" font-size="10.00">vec _typx</text>
<text text-anchor="start" x="5.5" y="-650.5" font-family="Helvetica,sans-Serif" font-size="10.00">&#45;</text>
<text text-anchor="start" x="14" y="-650.5" font-family="Helvetica,sans-Serif" font-size="10.00">bool _normalize</text>
<text text-anchor="start" x="5.5" y="-634.5" font-family="Helvetica,sans-Serif" font-size="10.00">&#45;</text>
<text text-anchor="start" x="14" y="-634.5" font-family="Helvetica,sans-Serif" font-size="10.00">bool _terminate</text>
<text text-anchor="start" x="5.5" y="-618.5" font-family="Helvetica,sans-Serif" font-size="10.00">&#45;</text>
<text text-anchor="start" x="14" y="-618.5" font-family="Helvetica,sans-Serif" font-size="10.00">long _evaluationCounter</text>
<text text-anchor="start" x="4" y="-602.5" font-family="Helvetica,sans-Serif" font-size="10.00">+</text>
<text text-anchor="start" x="14" y="-602.5" font-family="Helvetica,sans-Serif" font-size="10.00">Fitness(callback_type</text>
<text text-anchor="start" x="14" y="-590.5" font-family="Helvetica,sans-Serif" font-size="10.00"> func, callback_parallel</text>
<text text-anchor="start" x="14" y="-578.5" font-family="Helvetica,sans-Serif" font-size="10.00"> func_par_, int dim, int</text>
<text text-anchor="start" x="14" y="-566.5" font-family="Helvetica,sans-Serif" font-size="10.00"> nobj, const vec &amp;lower,</text>
<text text-anchor="start" x="14" y="-554.5" font-family="Helvetica,sans-Serif" font-size="10.00"> const vec &amp;upper)</text>
<text text-anchor="start" x="4" y="-538.5" font-family="Helvetica,sans-Serif" font-size="10.00">+</text>
<text text-anchor="start" x="14" y="-538.5" font-family="Helvetica,sans-Serif" font-size="10.00">bool terminate()</text>
<text text-anchor="start" x="4" y="-522.5" font-family="Helvetica,sans-Serif" font-size="10.00">+</text>
<text text-anchor="start" x="14" y="-522.5" font-family="Helvetica,sans-Serif" font-size="10.00">vec eval(const vec &amp;X)</text>
<text text-anchor="start" x="4" y="-506.5" font-family="Helvetica,sans-Serif" font-size="10.00">+</text>
<text text-anchor="start" x="14" y="-506.5" font-family="Helvetica,sans-Serif" font-size="10.00">vec eval(const double</text>
<text text-anchor="start" x="14" y="-494.5" font-family="Helvetica,sans-Serif" font-size="10.00"> *const p)</text>
<text text-anchor="start" x="4" y="-478.5" font-family="Helvetica,sans-Serif" font-size="10.00">+</text>
<text text-anchor="start" x="14" y="-478.5" font-family="Helvetica,sans-Serif" font-size="10.00">vec getClosestFeasible</text>
<text text-anchor="start" x="14" y="-466.5" font-family="Helvetica,sans-Serif" font-size="10.00">(const vec &amp;X) const</text>
<text text-anchor="start" x="4" y="-450.5" font-family="Helvetica,sans-Serif" font-size="10.00">+</text>
<text text-anchor="start" x="14" y="-450.5" font-family="Helvetica,sans-Serif" font-size="10.00">double getClosestFeasible</text>
<text text-anchor="start" x="14" y="-438.5" font-family="Helvetica,sans-Serif" font-size="10.00">_i(int i, double x_i)</text>
<text text-anchor="start" x="4" y="-422.5" font-family="Helvetica,sans-Serif" font-size="10.00">+</text>
<text text-anchor="start" x="14" y="-422.5" font-family="Helvetica,sans-Serif" font-size="10.00">vec getClosestFeasibleNormed</text>
<text text-anchor="start" x="14" y="-410.5" font-family="Helvetica,sans-Serif" font-size="10.00">(const vec &amp;X) const</text>
<text text-anchor="start" x="4" y="-394.5" font-family="Helvetica,sans-Serif" font-size="10.00">+</text>
<text text-anchor="start" x="14" y="-394.5" font-family="Helvetica,sans-Serif" font-size="10.00">void setClosestFeasible</text>
<text text-anchor="start" x="14" y="-382.5" font-family="Helvetica,sans-Serif" font-size="10.00">(mat &amp;X) const</text>
<text text-anchor="start" x="4" y="-366.5" font-family="Helvetica,sans-Serif" font-size="10.00">+</text>
<text text-anchor="start" x="14" y="-366.5" font-family="Helvetica,sans-Serif" font-size="10.00">vec norm(const vec</text>
<text text-anchor="start" x="14" y="-354.5" font-family="Helvetica,sans-Serif" font-size="10.00"> &amp;X) const</text>
<text text-anchor="start" x="4" y="-338.5" font-family="Helvetica,sans-Serif" font-size="10.00">+</text>
<text text-anchor="start" x="14" y="-338.5" font-family="Helvetica,sans-Serif" font-size="10.00">double norm_i(int i,</text>
<text text-anchor="start" x="14" y="-326.5" font-family="Helvetica,sans-Serif" font-size="10.00"> double x) const</text>
<text text-anchor="start" x="14" y="-310.5" font-family="Helvetica,sans-Serif" font-size="10.00">and 19 more...</text>
<polygon fill="#666666" stroke="#666666" points="0,-802 0,-802 155.25,-802 155.25,-802 0,-802"/>
<polygon fill="#666666" stroke="#666666" points="0,-614 0,-614 12,-614 12,-614 0,-614"/>
<polygon fill="#666666" stroke="#666666" points="12,-614 12,-614 155.25,-614 155.25,-614 12,-614"/>
<polygon fill="none" stroke="#666666" points="0,-304 0,-820 155.25,-820 155.25,-304 0,-304"/>
</a>
</g>
</g>
<!-- Node2&#45;&gt;Node1 -->
<g id="edge1_Node000001_Node000002" class="edge">
<title>Node2&#45;&gt;Node1</title>
<g id="a_edge1_Node000001_Node000002"><a xlink:title=" ">
<path fill="none" stroke="#63b8ff" d="M89.93,-304.31C90.72,-287.98 91.48,-271.93 92.22,-256.55"/>
<polygon fill="none" stroke="#63b8ff" points="92.22,-256.68 88.51,-250.49 92.79,-244.69 96.5,-250.88 92.22,-256.68"/>
</a>
</g>
<text text-anchor="middle" x="101.58" y="-270.5" font-family="Helvetica,sans-Serif" font-size="10.00" fill="grey"> &#45;_fit</text>
</g>
<!-- Node3 -->
<g id="Node000003" class="node">
<title>Node3</title>
<g id="a_Node000003"><a xlink:href="classblocking__queue.html" target="_top" xlink:title=" ">
<polygon fill="white" stroke="none" points="288.38,-680 172.88,-680 172.88,-444 288.38,-444 288.38,-680"/>
<text text-anchor="start" x="184.5" y="-666.5" font-family="Helvetica,sans-Serif" font-size="10.00">blocking_queue&lt; vec</text>
<text text-anchor="start" x="216.38" y="-654.5" font-family="Helvetica,sans-Serif" font-size="10.00">_id * &gt;</text>
<text text-anchor="start" x="178.38" y="-638.5" font-family="Helvetica,sans-Serif" font-size="10.00">&#45;</text>
<text text-anchor="start" x="186.88" y="-638.5" font-family="Helvetica,sans-Serif" font-size="10.00">size_t _capacity</text>
<text text-anchor="start" x="178.38" y="-622.5" font-family="Helvetica,sans-Serif" font-size="10.00">&#45;</text>
<text text-anchor="start" x="186.88" y="-622.5" font-family="Helvetica,sans-Serif" font-size="10.00">std::queue&lt; vec_id</text>
<text text-anchor="start" x="186.88" y="-610.5" font-family="Helvetica,sans-Serif" font-size="10.00"> * &gt; _queue</text>
<text text-anchor="start" x="178.38" y="-594.5" font-family="Helvetica,sans-Serif" font-size="10.00">&#45;</text>
<text text-anchor="start" x="186.88" y="-594.5" font-family="Helvetica,sans-Serif" font-size="10.00">std::mutex _mutex</text>
<text text-anchor="start" x="178.38" y="-578.5" font-family="Helvetica,sans-Serif" font-size="10.00">&#45;</text>
<text text-anchor="start" x="186.88" y="-578.5" font-family="Helvetica,sans-Serif" font-size="10.00">std::condition_variable</text>
<text text-anchor="start" x="186.88" y="-566.5" font-family="Helvetica,sans-Serif" font-size="10.00"> _not_full</text>
<text text-anchor="start" x="178.38" y="-550.5" font-family="Helvetica,sans-Serif" font-size="10.00">&#45;</text>
<text text-anchor="start" x="186.88" y="-550.5" font-family="Helvetica,sans-Serif" font-size="10.00">std::condition_variable</text>
<text text-anchor="start" x="186.88" y="-538.5" font-family="Helvetica,sans-Serif" font-size="10.00"> _not_empty</text>
<text text-anchor="start" x="176.88" y="-522.5" font-family="Helvetica,sans-Serif" font-size="10.00">+</text>
<text text-anchor="start" x="186.88" y="-522.5" font-family="Helvetica,sans-Serif" font-size="10.00">blocking_queue(size</text>
<text text-anchor="start" x="186.88" y="-510.5" font-family="Helvetica,sans-Serif" font-size="10.00">_t capacity)</text>
<text text-anchor="start" x="176.88" y="-494.5" font-family="Helvetica,sans-Serif" font-size="10.00">+</text>
<text text-anchor="start" x="186.88" y="-494.5" font-family="Helvetica,sans-Serif" font-size="10.00">size_t size()</text>
<text text-anchor="start" x="176.88" y="-478.5" font-family="Helvetica,sans-Serif" font-size="10.00">+</text>
<text text-anchor="start" x="186.88" y="-478.5" font-family="Helvetica,sans-Serif" font-size="10.00">void put(const vec</text>
<text text-anchor="start" x="186.88" y="-466.5" font-family="Helvetica,sans-Serif" font-size="10.00">_id *&amp;elem)</text>
<text text-anchor="start" x="176.88" y="-450.5" font-family="Helvetica,sans-Serif" font-size="10.00">+</text>
<text text-anchor="start" x="186.88" y="-450.5" font-family="Helvetica,sans-Serif" font-size="10.00">const vec_id *&amp; take()</text>
<polygon fill="#666666" stroke="#666666" points="172.88,-650 172.88,-650 288.38,-650 288.38,-650 172.88,-650"/>
<polygon fill="#666666" stroke="#666666" points="172.88,-534 172.88,-534 184.88,-534 184.88,-534 172.88,-534"/>
<polygon fill="#666666" stroke="#666666" points="184.88,-534 184.88,-534 288.38,-534 288.38,-534 184.88,-534"/>
<polygon fill="none" stroke="#666666" points="172.88,-444 172.88,-680 288.38,-680 288.38,-444 172.88,-444"/>
</a>
</g>
</g>
<!-- Node3&#45;&gt;Node1 -->
<g id="edge2_Node000001_Node000003" class="edge">
<title>Node3&#45;&gt;Node1</title>
<g id="a_edge2_Node000001_Node000003"><a xlink:title=" ">
<path fill="none" stroke="#63b8ff" d="M203.21,-444.22C192.16,-400.02 178.7,-349.43 164.62,-304 159.77,-288.34 154.36,-272.05 148.78,-255.93"/>
<polygon fill="none" stroke="#63b8ff" points="148.74,-255.83 142.99,-251.49 144.78,-244.51 150.54,-248.85 148.74,-255.83"/>
</a>
</g>
<text text-anchor="middle" x="181.15" y="-276.5" font-family="Helvetica,sans-Serif" font-size="10.00" fill="grey"> &#45;_evaled</text>
<text text-anchor="middle" x="181.15" y="-264.5" font-family="Helvetica,sans-Serif" font-size="10.00" fill="grey">&#45;_requests</text>
</g>
<!-- Node4 -->
<g id="Node000004" class="node">
<title>Node4</title>
<g id="a_Node000004"><a xlink:href="classblocking__queue.html" target="_top" xlink:title=" ">
<polygon fill="white" stroke="none" points="291.38,-1068 169.88,-1068 169.88,-868 291.38,-868 291.38,-1068"/>
<text text-anchor="start" x="185.25" y="-1054.5" font-family="Helvetica,sans-Serif" font-size="10.00">blocking_queue&lt; T &gt;</text>
<text text-anchor="start" x="175.38" y="-1038.5" font-family="Helvetica,sans-Serif" font-size="10.00">&#45;</text>
<text text-anchor="start" x="183.88" y="-1038.5" font-family="Helvetica,sans-Serif" font-size="10.00">size_t _capacity</text>
<text text-anchor="start" x="175.38" y="-1022.5" font-family="Helvetica,sans-Serif" font-size="10.00">&#45;</text>
<text text-anchor="start" x="183.88" y="-1022.5" font-family="Helvetica,sans-Serif" font-size="10.00">std::queue&lt; T &gt; _queue</text>
<text text-anchor="start" x="175.38" y="-1006.5" font-family="Helvetica,sans-Serif" font-size="10.00">&#45;</text>
<text text-anchor="start" x="183.88" y="-1006.5" font-family="Helvetica,sans-Serif" font-size="10.00">std::mutex _mutex</text>
<text text-anchor="start" x="175.38" y="-990.5" font-family="Helvetica,sans-Serif" font-size="10.00">&#45;</text>
<text text-anchor="start" x="183.88" y="-990.5" font-family="Helvetica,sans-Serif" font-size="10.00">std::condition_variable</text>
<text text-anchor="start" x="183.88" y="-978.5" font-family="Helvetica,sans-Serif" font-size="10.00"> _not_full</text>
<text text-anchor="start" x="175.38" y="-962.5" font-family="Helvetica,sans-Serif" font-size="10.00">&#45;</text>
<text text-anchor="start" x="183.88" y="-962.5" font-family="Helvetica,sans-Serif" font-size="10.00">std::condition_variable</text>
<text text-anchor="start" x="183.88" y="-950.5" font-family="Helvetica,sans-Serif" font-size="10.00"> _not_empty</text>
<text text-anchor="start" x="173.88" y="-934.5" font-family="Helvetica,sans-Serif" font-size="10.00">+</text>
<text text-anchor="start" x="183.88" y="-934.5" font-family="Helvetica,sans-Serif" font-size="10.00">blocking_queue(size</text>
<text text-anchor="start" x="183.88" y="-922.5" font-family="Helvetica,sans-Serif" font-size="10.00">_t capacity)</text>
<text text-anchor="start" x="173.88" y="-906.5" font-family="Helvetica,sans-Serif" font-size="10.00">+</text>
<text text-anchor="start" x="183.88" y="-906.5" font-family="Helvetica,sans-Serif" font-size="10.00">size_t size()</text>
<text text-anchor="start" x="173.88" y="-890.5" font-family="Helvetica,sans-Serif" font-size="10.00">+</text>
<text text-anchor="start" x="183.88" y="-890.5" font-family="Helvetica,sans-Serif" font-size="10.00">void put(const T &amp;elem)</text>
<text text-anchor="start" x="173.88" y="-874.5" font-family="Helvetica,sans-Serif" font-size="10.00">+</text>
<text text-anchor="start" x="183.88" y="-874.5" font-family="Helvetica,sans-Serif" font-size="10.00">const T &amp; take()</text>
<polygon fill="#666666" stroke="#666666" points="169.88,-1050 169.88,-1050 291.38,-1050 291.38,-1050 169.88,-1050"/>
<polygon fill="#666666" stroke="#666666" points="169.88,-946 169.88,-946 181.88,-946 181.88,-946 169.88,-946"/>
<polygon fill="#666666" stroke="#666666" points="181.88,-946 181.88,-946 291.38,-946 291.38,-946 181.88,-946"/>
<polygon fill="none" stroke="#666666" points="169.88,-868 169.88,-1068 291.38,-1068 291.38,-868 169.88,-868"/>
</a>
</g>
</g>
<!-- Node4&#45;&gt;Node3 -->
<g id="edge3_Node000003_Node000004" class="edge">
<title>Node4&#45;&gt;Node3</title>
<g id="a_edge3_Node000003_Node000004"><a xlink:title=" ">
<path fill="none" stroke="orange" d="M230.62,-856.99C230.62,-802.08 230.62,-735.64 230.62,-679.82"/>
<polygon fill="orange" stroke="orange" points="227.13,-856.66 230.63,-866.66 234.13,-856.66 227.13,-856.66"/>
</a>
</g>
<text text-anchor="middle" x="258.75" y="-840.5" font-family="Helvetica,sans-Serif" font-size="10.00" fill="grey"> &lt; vec_id * &gt;</text>
</g>
</g>
</svg>

<g id="navigator" transform="translate(0 0)" fill="#404254">
  <rect fill="#f2f5e9" fill-opacity="0.5" stroke="#606060" stroke-width=".5" x="0" y="0" width="60" height="60"/>
  <use id="zoomplus" xlink:href="#zoomPlus" x="17" y="9" onmousedown="handleZoom(evt,'in')"/>
  <use id="zoomminus" xlink:href="#zoomMin" x="42" y="9" onmousedown="handleZoom(evt,'out')"/>
  <use id="reset" xlink:href="#resetDef" x="30" y="36" onmousedown="handleReset()"/>
   <use id="arrowup" xlink:href="#arrowUp" x="0" y="0" onmousedown="handlePan(0,-1)"/>
  <use id="arrowright" xlink:href="#arrowRight" x="0" y="0" onmousedown="handlePan(1,0)"/>
  <use id="arrowdown" xlink:href="#arrowDown" x="0" y="0" onmousedown="handlePan(0,1)"/>
  <use id="arrowleft" xlink:href="#arrowLeft" x="0" y="0" onmousedown="handlePan(-1,0)"/>
</g>
<svg viewBox="0 0 15 15" width="100%" height="30px" preserveAspectRatio="xMaxYMin meet">
 <g id="arrow_out" transform="scale(0.3 0.3)">
  <a xlink:href="classevaluator__coll__graph_org.svg" target="_base">
   <rect id="button" ry="5" rx="5" y="6" x="6" height="38" width="38"
        fill="#f2f5e9" fill-opacity="0.5" stroke="#606060" stroke-width="1.0"/>
   <path id="arrow"
     d="M 11.500037,31.436501 C 11.940474,20.09759 22.043105,11.32322 32.158766,21.979434 L 37.068811,17.246167 C 37.068811,17.246167 37.088388,32 37.088388,32 L 22.160133,31.978069 C 22.160133,31.978069 26.997745,27.140456 26.997745,27.140456 C 18.528582,18.264221 13.291696,25.230495 11.500037,31.436501 z"
     style="fill:#404040;"/>
  </a>
 </g>
</svg>

<style type='text/css'>
<![CDATA[
[data-mouse-over-selected='false'] { opacity: 0.7; }
[data-mouse-over-selected='true']  { opacity: 1.0; }
]]>
</style>
<script type="application/ecmascript"><![CDATA[
document.addEventListener('DOMContentLoaded', (event) => {
  highlightEdges();
  highlightAdjacentNodes();
});
]]></script>
</svg>
