<?xml version="1.0" encoding="UTF-8" standalone="no"?>
<!DOCTYPE svg PUBLIC "-//W3C//DTD SVG 1.1//EN"
 "http://www.w3.org/Graphics/SVG/1.1/DTD/svg11.dtd">
<!-- Generated by graphviz version 12.2.1 (20241206.2353)
 -->
<!-- Title: Fitness::values Pages: 1 -->
<svg width="265pt" height="66pt"
 viewBox="0.00 0.00 265.00 66.00" xmlns="http://www.w3.org/2000/svg" xmlns:xlink="http://www.w3.org/1999/xlink">
<g id="graph0" class="graph" transform="scale(1 1) rotate(0) translate(4 62)">
<title>Fitness::values</title>
<!-- Node1 -->
<g id="Node000001" class="node">
<title>Node1</title>
<g id="a_Node000001"><a xlink:title=" ">
<polygon fill="#999999" stroke="#666666" points="82.75,-39 0,-39 0,-19 82.75,-19 82.75,-39"/>
<text text-anchor="middle" x="41.38" y="-25.5" font-family="Helvetica,sans-Serif" font-size="10.00">Fitness::values</text>
</a>
</g>
</g>
<!-- Node2 -->
<g id="Node000002" class="node">
<title>Node2</title>
<g id="a_Node000002"><a xlink:href="class_fitness.html#a7fdca1fda75e3976b91e1e9e0eb12057" target="_top" xlink:title=" ">
<polygon fill="white" stroke="#666666" points="230.75,-58 145,-58 145,-38 230.75,-38 230.75,-58"/>
<text text-anchor="middle" x="187.88" y="-44.5" font-family="Helvetica,sans-Serif" font-size="10.00">Fitness::decode</text>
</a>
</g>
</g>
<!-- Node1&#45;&gt;Node2 -->
<g id="edge1_Node000001_Node000002" class="edge">
<title>Node1&#45;&gt;Node2</title>
<g id="a_edge1_Node000001_Node000002"><a xlink:title=" ">
<path fill="none" stroke="#63b8ff" d="M83.01,-34.34C98.61,-36.39 116.66,-38.77 133.29,-40.95"/>
<polygon fill="#63b8ff" stroke="#63b8ff" points="132.66,-44.4 143.03,-42.24 133.57,-37.46 132.66,-44.4"/>
</a>
</g>
</g>
<!-- Node3 -->
<g id="Node000003" class="node">
<title>Node3</title>
<g id="a_Node000003"><a xlink:href="class_fitness.html#a2085e5ce1a0afa5949366f580d5ec5a4" target="_top" xlink:title=" ">
<polygon fill="white" stroke="#666666" points="257,-20 118.75,-20 118.75,0 257,0 257,-20"/>
<text text-anchor="middle" x="187.88" y="-6.5" font-family="Helvetica,sans-Serif" font-size="10.00">Fitness::getClosestFeasible</text>
</a>
</g>
</g>
<!-- Node1&#45;&gt;Node3 -->
<g id="edge2_Node000001_Node000003" class="edge">
<title>Node1&#45;&gt;Node3</title>
<g id="a_edge2_Node000001_Node000003"><a xlink:title=" ">
<path fill="none" stroke="#63b8ff" d="M83.01,-23.66C90.59,-22.66 98.74,-21.59 107.03,-20.5"/>
<polygon fill="#63b8ff" stroke="#63b8ff" points="107.41,-23.98 116.87,-19.2 106.5,-17.04 107.41,-23.98"/>
</a>
</g>
</g>
</g>
</svg>
