<?xml version="1.0" encoding="UTF-8" standalone="no"?>
<!DOCTYPE svg PUBLIC "-//W3C//DTD SVG 1.1//EN"
 "http://www.w3.org/Graphics/SVG/1.1/DTD/svg11.dtd">
<!-- Generated by graphviz version 12.2.1 (20241206.2353)
 -->
<!-- Title: dual_annealing::Fitness::local_search Pages: 1 -->
<!--zoomable 190 -->

<svg id="main" version="1.1" xmlns="http://www.w3.org/2000/svg" xmlns:xlink="http://www.w3.org/1999/xlink" xml:space="preserve" onload="init(evt)">

<style type="text/css"><![CDATA[
.node, .edge {opacity: 0.7;}
.node.selected, .edge.selected {opacity: 1;}
.edge:hover path { stroke: red; }
.edge:hover polygon { stroke: red; fill: red; }
]]></style>

<defs>
  <circle id="rim" cx="0" cy="0" r="7"/>
  <circle id="rim2" cx="0" cy="0" r="3.5"/>
  <g id="zoomPlus">
    <use xlink:href="#rim" fill="#404040"><set attributeName="fill" to="#808080" begin="zoomplus.mouseover" end="zoomplus.mouseout"/></use>
    <path d="M-4,0h8M0,-4v8" fill="none" stroke="white" stroke-width="1.5" pointer-events="none"/>
  </g>
  <g id="zoomMin">
    <use xlink:href="#rim" fill="#404040"><set attributeName="fill" to="#808080" begin="zoomminus.mouseover" end="zoomminus.mouseout"/></use>
    <path d="M-4,0h8" fill="none" stroke="white" stroke-width="1.5" pointer-events="none"/>
  </g>
  <g id="arrowUp" transform="translate(30 24)">
    <use xlink:href="#rim"/>
    <path pointer-events="none" fill="none" stroke="white" stroke-width="1.5" d="M0,-3.0v7 M-2.5,-0.5L0,-3.0L2.5,-0.5"/>
  </g>
  <g id="arrowRight" transform="rotate(90) translate(36 -43)">
    <use xlink:href="#rim"/>
    <path pointer-events="none" fill="none" stroke="white" stroke-width="1.5" d="M0,-3.0v7 M-2.5,-0.5L0,-3.0L2.5,-0.5"/>
  </g>
  <g id="arrowDown" transform="rotate(180) translate(-30 -48)">
    <use xlink:href="#rim"/>
    <path pointer-events="none" fill="none" stroke="white" stroke-width="1.5" d="M0,-3.0v7 M-2.5,-0.5L0,-3.0L2.5,-0.5"/>
  </g>
  <g id="arrowLeft" transform="rotate(270) translate(-36 17)">
    <use xlink:href="#rim"/>
    <path pointer-events="none" fill="none" stroke="white" stroke-width="1.5" d="M0,-3.0v7 M-2.5,-0.5L0,-3.0L2.5,-0.5"/>
  </g>
  <g id="resetDef">
    <use xlink:href="#rim2" fill="#404040"><set attributeName="fill" to="#808080" begin="reset.mouseover" end="reset.mouseout"/></use>
  </g>
</defs>
<script type="application/ecmascript">
var viewWidth = 632;
var viewHeight = 190;
var sectionId = 'dynsection-6';
</script>
<script type="application/ecmascript" xlink:href="svg.min.js"/>
<svg id="graph" class="graph">
<g id="viewport">
<title>dual_annealing::Fitness::local_search</title>
<!-- Node1 -->
<g id="Node000001" class="node">
<title>Node1</title>
<g id="a_Node000001"><a xlink:title=" ">
<polygon fill="#999999" stroke="#666666" points="118.75,-129 0,-129 0,-97 118.75,-97 118.75,-129"/>
<text text-anchor="start" x="8" y="-115.5" font-family="Helvetica,sans-Serif" font-size="10.00">dual_annealing::Fitness</text>
<text text-anchor="middle" x="59.38" y="-103.5" font-family="Helvetica,sans-Serif" font-size="10.00">::local_search</text>
</a>
</g>
</g>
<!-- Node2 -->
<g id="Node000002" class="node">
<title>Node2</title>
<g id="a_Node000002"><a xlink:href="classdual__annealing_1_1_fitness.html#a95a989c077c91a342b18f61125c2bea5" target="_top" xlink:title=" ">
<polygon fill="white" stroke="#666666" points="281.38,-151 162.62,-151 162.62,-119 281.38,-119 281.38,-151"/>
<text text-anchor="start" x="170.62" y="-137.5" font-family="Helvetica,sans-Serif" font-size="10.00">dual_annealing::Fitness</text>
<text text-anchor="middle" x="222" y="-125.5" font-family="Helvetica,sans-Serif" font-size="10.00">::getClosestFeasible</text>
</a>
</g>
</g>
<!-- Node1&#45;&gt;Node2 -->
<g id="edge1_Node000001_Node000002" class="edge">
<title>Node1&#45;&gt;Node2</title>
<g id="a_edge1_Node000001_Node000002"><a xlink:title=" ">
<path fill="none" stroke="#63b8ff" d="M118.82,-121C129.34,-122.45 140.4,-123.96 151.2,-125.44"/>
<polygon fill="#63b8ff" stroke="#63b8ff" points="150.45,-128.87 160.83,-126.76 151.4,-121.93 150.45,-128.87"/>
</a>
</g>
</g>
<!-- Node3 -->
<g id="Node000003" class="node">
<title>Node3</title>
<g id="a_Node000003"><a xlink:href="namespacedual__annealing.html#ac314c8e5c367afe5307f99a29a667f6b" target="_top" xlink:title=" ">
<polygon fill="white" stroke="#666666" points="289.25,-101 154.75,-101 154.75,-81 289.25,-81 289.25,-101"/>
<text text-anchor="middle" x="222" y="-87.5" font-family="Helvetica,sans-Serif" font-size="10.00">dual_annealing::minLBFGS</text>
</a>
</g>
</g>
<!-- Node1&#45;&gt;Node3 -->
<g id="edge2_Node000001_Node000003" class="edge">
<title>Node1&#45;&gt;Node3</title>
<g id="a_edge2_Node000001_Node000003"><a xlink:title=" ">
<path fill="none" stroke="#63b8ff" d="M118.82,-105C126.77,-103.91 135.04,-102.77 143.27,-101.65"/>
<polygon fill="#63b8ff" stroke="#63b8ff" points="143.5,-105.15 152.94,-100.32 142.55,-98.21 143.5,-105.15"/>
</a>
</g>
</g>
<!-- Node4 -->
<g id="Node000004" class="node">
<title>Node4</title>
<g id="a_Node000004"><a xlink:href="class_l_b_f_g_spp_1_1_l_b_f_g_s_b_solver.html#a420f4521286e2ac37a37f41b9f5767a9" target="_top" xlink:title=" ">
<polygon fill="white" stroke="#666666" points="456.75,-107 325.25,-107 325.25,-75 456.75,-75 456.75,-107"/>
<text text-anchor="start" x="333.25" y="-93.5" font-family="Helvetica,sans-Serif" font-size="10.00">LBFGSpp::LBFGSBSolver</text>
<text text-anchor="middle" x="391" y="-81.5" font-family="Helvetica,sans-Serif" font-size="10.00">::minimize</text>
</a>
</g>
</g>
<!-- Node3&#45;&gt;Node4 -->
<g id="edge3_Node000003_Node000004" class="edge">
<title>Node3&#45;&gt;Node4</title>
<g id="a_edge3_Node000003_Node000004"><a xlink:title=" ">
<path fill="none" stroke="#63b8ff" d="M289.48,-91C297.4,-91 305.52,-91 313.56,-91"/>
<polygon fill="#63b8ff" stroke="#63b8ff" points="313.32,-94.5 323.32,-91 313.32,-87.5 313.32,-94.5"/>
</a>
</g>
</g>
<!-- Node5 -->
<g id="Node000005" class="node">
<title>Node5</title>
<g id="a_Node000005"><a xlink:href="class_l_b_f_g_spp_1_1_l_b_f_g_s_b_solver.html#a88780c13f50eaaf437bcbbb54d7a7f3c" target="_top" xlink:title=" ">
<polygon fill="white" stroke="#666666" points="624.25,-182 492.75,-182 492.75,-150 624.25,-150 624.25,-182"/>
<text text-anchor="start" x="500.75" y="-168.5" font-family="Helvetica,sans-Serif" font-size="10.00">LBFGSpp::LBFGSBSolver</text>
<text text-anchor="middle" x="558.5" y="-156.5" font-family="Helvetica,sans-Serif" font-size="10.00">::force_bounds</text>
</a>
</g>
</g>
<!-- Node4&#45;&gt;Node5 -->
<g id="edge4_Node000004_Node000005" class="edge">
<title>Node4&#45;&gt;Node5</title>
<g id="a_edge4_Node000004_Node000005"><a xlink:title=" ">
<path fill="none" stroke="#63b8ff" d="M422.96,-107.29C442.71,-117.45 468.98,-130.54 492.75,-141 496.06,-142.46 499.48,-143.91 502.95,-145.35"/>
<polygon fill="#63b8ff" stroke="#63b8ff" points="501.41,-148.51 511.99,-149.03 504.04,-142.02 501.41,-148.51"/>
</a>
</g>
</g>
<!-- Node6 -->
<g id="Node000006" class="node">
<title>Node6</title>
<g id="a_Node000006"><a xlink:href="class_l_b_f_g_spp_1_1_l_b_f_g_s_b_solver.html#a788f97964a14b4b6db287f9e2646f2f6" target="_top" xlink:title=" ">
<polygon fill="white" stroke="#666666" points="624.25,-132 492.75,-132 492.75,-100 624.25,-100 624.25,-132"/>
<text text-anchor="start" x="500.75" y="-118.5" font-family="Helvetica,sans-Serif" font-size="10.00">LBFGSpp::LBFGSBSolver</text>
<text text-anchor="middle" x="558.5" y="-106.5" font-family="Helvetica,sans-Serif" font-size="10.00">::max_step_size</text>
</a>
</g>
</g>
<!-- Node4&#45;&gt;Node6 -->
<g id="edge5_Node000004_Node000006" class="edge">
<title>Node4&#45;&gt;Node6</title>
<g id="a_edge5_Node000004_Node000006"><a xlink:title=" ">
<path fill="none" stroke="#63b8ff" d="M456.93,-100.81C464.88,-102.01 473.04,-103.24 481.13,-104.46"/>
<polygon fill="#63b8ff" stroke="#63b8ff" points="480.57,-107.92 490.98,-105.95 481.62,-101 480.57,-107.92"/>
</a>
</g>
</g>
<!-- Node7 -->
<g id="Node000007" class="node">
<title>Node7</title>
<g id="a_Node000007"><a xlink:href="class_l_b_f_g_spp_1_1_l_b_f_g_s_b_solver.html#a57692ffc3df2f5152f8ef27dfb4f9cac" target="_top" xlink:title=" ">
<polygon fill="white" stroke="#666666" points="624.25,-82 492.75,-82 492.75,-50 624.25,-50 624.25,-82"/>
<text text-anchor="start" x="500.75" y="-68.5" font-family="Helvetica,sans-Serif" font-size="10.00">LBFGSpp::LBFGSBSolver</text>
<text text-anchor="middle" x="558.5" y="-56.5" font-family="Helvetica,sans-Serif" font-size="10.00">::proj_grad_norm</text>
</a>
</g>
</g>
<!-- Node4&#45;&gt;Node7 -->
<g id="edge6_Node000004_Node000007" class="edge">
<title>Node4&#45;&gt;Node7</title>
<g id="a_edge6_Node000004_Node000007"><a xlink:title=" ">
<path fill="none" stroke="#63b8ff" d="M456.93,-81.19C464.88,-79.99 473.04,-78.76 481.13,-77.54"/>
<polygon fill="#63b8ff" stroke="#63b8ff" points="481.62,-81 490.98,-76.05 480.57,-74.08 481.62,-81"/>
</a>
</g>
</g>
<!-- Node8 -->
<g id="Node000008" class="node">
<title>Node8</title>
<g id="a_Node000008"><a xlink:href="class_l_b_f_g_spp_1_1_l_b_f_g_s_b_solver.html#a2b265895288516adbacc3e25fabe2829" target="_top" xlink:title=" ">
<polygon fill="white" stroke="#666666" points="624.25,-32 492.75,-32 492.75,0 624.25,0 624.25,-32"/>
<text text-anchor="start" x="500.75" y="-18.5" font-family="Helvetica,sans-Serif" font-size="10.00">LBFGSpp::LBFGSBSolver</text>
<text text-anchor="middle" x="558.5" y="-6.5" font-family="Helvetica,sans-Serif" font-size="10.00">::reset</text>
</a>
</g>
</g>
<!-- Node4&#45;&gt;Node8 -->
<g id="edge7_Node000004_Node000008" class="edge">
<title>Node4&#45;&gt;Node8</title>
<g id="a_edge7_Node000004_Node000008"><a xlink:title=" ">
<path fill="none" stroke="#63b8ff" d="M422.96,-74.71C442.71,-64.55 468.98,-51.46 492.75,-41 496.06,-39.54 499.48,-38.09 502.95,-36.65"/>
<polygon fill="#63b8ff" stroke="#63b8ff" points="504.04,-39.98 511.99,-32.97 501.41,-33.49 504.04,-39.98"/>
</a>
</g>
</g>
</g>
</svg>

<g id="navigator" transform="translate(0 0)" fill="#404254">
  <rect fill="#f2f5e9" fill-opacity="0.5" stroke="#606060" stroke-width=".5" x="0" y="0" width="60" height="60"/>
  <use id="zoomplus" xlink:href="#zoomPlus" x="17" y="9" onmousedown="handleZoom(evt,'in')"/>
  <use id="zoomminus" xlink:href="#zoomMin" x="42" y="9" onmousedown="handleZoom(evt,'out')"/>
  <use id="reset" xlink:href="#resetDef" x="30" y="36" onmousedown="handleReset()"/>
   <use id="arrowup" xlink:href="#arrowUp" x="0" y="0" onmousedown="handlePan(0,-1)"/>
  <use id="arrowright" xlink:href="#arrowRight" x="0" y="0" onmousedown="handlePan(1,0)"/>
  <use id="arrowdown" xlink:href="#arrowDown" x="0" y="0" onmousedown="handlePan(0,1)"/>
  <use id="arrowleft" xlink:href="#arrowLeft" x="0" y="0" onmousedown="handlePan(-1,0)"/>
</g>
<svg viewBox="0 0 15 15" width="100%" height="30px" preserveAspectRatio="xMaxYMin meet">
 <g id="arrow_out" transform="scale(0.3 0.3)">
  <a xlink:href="classdual__annealing_1_1_fitness_a0e4b28444de4d6951dfb416e8e7a8710_cgraph_org.svg" target="_base">
   <rect id="button" ry="5" rx="5" y="6" x="6" height="38" width="38"
        fill="#f2f5e9" fill-opacity="0.5" stroke="#606060" stroke-width="1.0"/>
   <path id="arrow"
     d="M 11.500037,31.436501 C 11.940474,20.09759 22.043105,11.32322 32.158766,21.979434 L 37.068811,17.246167 C 37.068811,17.246167 37.088388,32 37.088388,32 L 22.160133,31.978069 C 22.160133,31.978069 26.997745,27.140456 26.997745,27.140456 C 18.528582,18.264221 13.291696,25.230495 11.500037,31.436501 z"
     style="fill:#404040;"/>
  </a>
 </g>
</svg>

<style type='text/css'>
<![CDATA[
[data-mouse-over-selected='false'] { opacity: 0.7; }
[data-mouse-over-selected='true']  { opacity: 1.0; }
]]>
</style>
<script type="application/ecmascript"><![CDATA[
document.addEventListener('DOMContentLoaded', (event) => {
  highlightEdges();
  highlightAdjacentNodes();
});
]]></script>
</svg>
