<?xml version="1.0" encoding="UTF-8" standalone="no"?>
<!DOCTYPE svg PUBLIC "-//W3C//DTD SVG 1.1//EN"
 "http://www.w3.org/Graphics/SVG/1.1/DTD/svg11.dtd">
<!-- Generated by graphviz version 12.2.1 (20241206.2353)
 -->
<!-- Title: CBiteRnd::init Pages: 1 -->
<svg width="229pt" height="104pt"
 viewBox="0.00 0.00 229.00 104.00" xmlns="http://www.w3.org/2000/svg" xmlns:xlink="http://www.w3.org/1999/xlink">
<g id="graph0" class="graph" transform="scale(1 1) rotate(0) translate(4 100)">
<title>CBiteRnd::init</title>
<!-- Node1 -->
<g id="Node000001" class="node">
<title>Node1</title>
<g id="a_Node000001"><a xlink:title=" ">
<polygon fill="#999999" stroke="#666666" points="221,-58 143.5,-58 143.5,-38 221,-38 221,-58"/>
<text text-anchor="middle" x="182.25" y="-44.5" font-family="Helvetica,sans-Serif" font-size="10.00">CBiteRnd::init</text>
</a>
</g>
</g>
<!-- Node2 -->
<g id="Node000002" class="node">
<title>Node2</title>
<g id="a_Node000002"><a xlink:href="biteopt_8h.html#a80c74350b3bde46bf211afee2d02ddd5" target="_top" xlink:title=" ">
<polygon fill="white" stroke="#666666" points="98.5,-96 9,-96 9,-76 98.5,-76 98.5,-96"/>
<text text-anchor="middle" x="53.75" y="-82.5" font-family="Helvetica,sans-Serif" font-size="10.00">biteopt_minimize</text>
</a>
</g>
</g>
<!-- Node1&#45;&gt;Node2 -->
<g id="edge1_Node000001_Node000002" class="edge">
<title>Node1&#45;&gt;Node2</title>
<g id="a_edge1_Node000001_Node000002"><a xlink:title=" ">
<path fill="none" stroke="#63b8ff" d="M135.61,-61.71C120.42,-66.27 103.77,-71.28 89.54,-75.55"/>
<polygon fill="#63b8ff" stroke="#63b8ff" points="136.33,-65.15 144.9,-58.92 134.31,-58.44 136.33,-65.15"/>
</a>
</g>
</g>
<!-- Node3 -->
<g id="Node000003" class="node">
<title>Node3</title>
<g id="a_Node000003"><a xlink:href="class_c_bite_rnd.html#a2776cd41c02588346bf91d928a5c8c87" target="_top" xlink:title=" ">
<polygon fill="white" stroke="#666666" points="107.5,-58 0,-58 0,-38 107.5,-38 107.5,-58"/>
<text text-anchor="middle" x="53.75" y="-44.5" font-family="Helvetica,sans-Serif" font-size="10.00">CBiteRnd::CBiteRnd</text>
</a>
</g>
</g>
<!-- Node1&#45;&gt;Node3 -->
<g id="edge2_Node000001_Node000003" class="edge">
<title>Node1&#45;&gt;Node3</title>
<g id="a_edge2_Node000001_Node000003"><a xlink:title=" ">
<path fill="none" stroke="#63b8ff" d="M131.92,-48C123.96,-48 115.69,-48 107.64,-48"/>
<polygon fill="#63b8ff" stroke="#63b8ff" points="131.78,-51.5 141.78,-48 131.78,-44.5 131.78,-51.5"/>
</a>
</g>
</g>
<!-- Node4 -->
<g id="Node000004" class="node">
<title>Node4</title>
<g id="a_Node000004"><a xlink:href="class_c_bite_rnd.html#a6cc79f28d1026941dffddd9590586ef6" target="_top" xlink:title=" ">
<polygon fill="white" stroke="#666666" points="107.5,-20 0,-20 0,0 107.5,0 107.5,-20"/>
<text text-anchor="middle" x="53.75" y="-6.5" font-family="Helvetica,sans-Serif" font-size="10.00">CBiteRnd::CBiteRnd</text>
</a>
</g>
</g>
<!-- Node1&#45;&gt;Node4 -->
<g id="edge3_Node000001_Node000004" class="edge">
<title>Node1&#45;&gt;Node4</title>
<g id="a_edge3_Node000001_Node000004"><a xlink:title=" ">
<path fill="none" stroke="#63b8ff" d="M135.61,-34.29C120.42,-29.73 103.77,-24.72 89.54,-20.45"/>
<polygon fill="#63b8ff" stroke="#63b8ff" points="134.31,-37.56 144.9,-37.08 136.33,-30.85 134.31,-37.56"/>
</a>
</g>
</g>
</g>
</svg>
