<?xml version="1.0" encoding="UTF-8" standalone="no"?>
<!DOCTYPE svg PUBLIC "-//W3C//DTD SVG 1.1//EN"
 "http://www.w3.org/Graphics/SVG/1.1/DTD/svg11.dtd">
<!-- Generated by graphviz version 12.2.1 (20241206.2353)
 -->
<!-- Title: fcmaes.retry.Store.add_result Pages: 1 -->
<!--zoomable 615 -->

<svg id="main" version="1.1" xmlns="http://www.w3.org/2000/svg" xmlns:xlink="http://www.w3.org/1999/xlink" xml:space="preserve" onload="init(evt)">

<style type="text/css"><![CDATA[
.node, .edge {opacity: 0.7;}
.node.selected, .edge.selected {opacity: 1;}
.edge:hover path { stroke: red; }
.edge:hover polygon { stroke: red; fill: red; }
]]></style>

<defs>
  <circle id="rim" cx="0" cy="0" r="7"/>
  <circle id="rim2" cx="0" cy="0" r="3.5"/>
  <g id="zoomPlus">
    <use xlink:href="#rim" fill="#404040"><set attributeName="fill" to="#808080" begin="zoomplus.mouseover" end="zoomplus.mouseout"/></use>
    <path d="M-4,0h8M0,-4v8" fill="none" stroke="white" stroke-width="1.5" pointer-events="none"/>
  </g>
  <g id="zoomMin">
    <use xlink:href="#rim" fill="#404040"><set attributeName="fill" to="#808080" begin="zoomminus.mouseover" end="zoomminus.mouseout"/></use>
    <path d="M-4,0h8" fill="none" stroke="white" stroke-width="1.5" pointer-events="none"/>
  </g>
  <g id="arrowUp" transform="translate(30 24)">
    <use xlink:href="#rim"/>
    <path pointer-events="none" fill="none" stroke="white" stroke-width="1.5" d="M0,-3.0v7 M-2.5,-0.5L0,-3.0L2.5,-0.5"/>
  </g>
  <g id="arrowRight" transform="rotate(90) translate(36 -43)">
    <use xlink:href="#rim"/>
    <path pointer-events="none" fill="none" stroke="white" stroke-width="1.5" d="M0,-3.0v7 M-2.5,-0.5L0,-3.0L2.5,-0.5"/>
  </g>
  <g id="arrowDown" transform="rotate(180) translate(-30 -48)">
    <use xlink:href="#rim"/>
    <path pointer-events="none" fill="none" stroke="white" stroke-width="1.5" d="M0,-3.0v7 M-2.5,-0.5L0,-3.0L2.5,-0.5"/>
  </g>
  <g id="arrowLeft" transform="rotate(270) translate(-36 17)">
    <use xlink:href="#rim"/>
    <path pointer-events="none" fill="none" stroke="white" stroke-width="1.5" d="M0,-3.0v7 M-2.5,-0.5L0,-3.0L2.5,-0.5"/>
  </g>
  <g id="resetDef">
    <use xlink:href="#rim2" fill="#404040"><set attributeName="fill" to="#808080" begin="reset.mouseover" end="reset.mouseout"/></use>
  </g>
</defs>
<script type="application/ecmascript">
var viewWidth = 880;
var viewHeight = 615;
var sectionId = 'dynsection-1';
</script>
<script type="application/ecmascript" xlink:href="svg.min.js"/>
<svg id="graph" class="graph">
<g id="viewport">
<title>fcmaes.retry.Store.add_result</title>
<!-- Node1 -->
<g id="Node000001" class="node">
<title>Node1</title>
<g id="a_Node000001"><a xlink:title="Adds a result to the data structure, updating statistical values and recording the given data point.">
<polygon fill="#999999" stroke="#666666" points="115,-211 0,-211 0,-179 115,-179 115,-211"/>
<text text-anchor="start" x="8" y="-197.5" font-family="Helvetica,sans-Serif" font-size="10.00">fcmaes.retry.Store.add</text>
<text text-anchor="middle" x="57.5" y="-185.5" font-family="Helvetica,sans-Serif" font-size="10.00">_result</text>
</a>
</g>
</g>
<!-- Node2 -->
<g id="Node000002" class="node">
<title>Node2</title>
<g id="a_Node000002"><a xlink:href="classfcmaes_1_1advretry_1_1_store.html#a03953d817f7ad4b1c13818e1f133a6da" target="_top" xlink:title="Logs a summary of the execution metrics and current status.">
<polygon fill="white" stroke="#666666" points="300.88,-345 161.88,-345 161.88,-325 300.88,-325 300.88,-345"/>
<text text-anchor="middle" x="231.38" y="-331.5" font-family="Helvetica,sans-Serif" font-size="10.00">fcmaes.advretry.Store.dump</text>
</a>
</g>
</g>
<!-- Node1&#45;&gt;Node2 -->
<g id="edge1_Node000001_Node000002" class="edge">
<title>Node1&#45;&gt;Node2</title>
<g id="a_edge1_Node000001_Node000002"><a xlink:title=" ">
<path fill="none" stroke="#63b8ff" d="M70.85,-211.36C87.36,-232.44 118.37,-269.29 151,-294 164.43,-304.17 180.76,-313.09 195.1,-319.99"/>
<polygon fill="#63b8ff" stroke="#63b8ff" points="193.21,-322.97 203.76,-324.01 196.16,-316.63 193.21,-322.97"/>
</a>
</g>
</g>
<!-- Node4 -->
<g id="Node000004" class="node">
<title>Node4</title>
<g id="a_Node000004"><a xlink:href="classfcmaes_1_1mapelites_1_1_archive.html#a0bcd8007cc5cf709da8ccc42aa2c46eb" target="_top" xlink:title="Prints a sorted dump of data points up to the specified limit.">
<polygon fill="white" stroke="#666666" points="309.5,-411 153.25,-411 153.25,-391 309.5,-391 309.5,-411"/>
<text text-anchor="middle" x="231.38" y="-397.5" font-family="Helvetica,sans-Serif" font-size="10.00">fcmaes.mapelites.Archive.dump</text>
</a>
</g>
</g>
<!-- Node1&#45;&gt;Node4 -->
<g id="edge3_Node000001_Node000004" class="edge">
<title>Node1&#45;&gt;Node4</title>
<g id="a_edge3_Node000001_Node000004"><a xlink:title=" ">
<path fill="none" stroke="#63b8ff" d="M64.66,-211.2C77.06,-242.09 107.59,-310.25 151,-354 163.83,-366.93 180.93,-377.65 195.97,-385.57"/>
<polygon fill="#63b8ff" stroke="#63b8ff" points="194.12,-388.56 204.63,-389.92 197.26,-382.3 194.12,-388.56"/>
</a>
</g>
</g>
<!-- Node10 -->
<g id="Node000010" class="node">
<title>Node10</title>
<g id="a_Node000010"><a xlink:href="classfcmaes_1_1multiretry_1_1multiretry.html#a7c6d566da882dd32bae574f6ed3fb38c" target="_top" xlink:title="Dumps the problem statistics for debugging purposes.">
<polygon fill="white" stroke="#666666" points="311.75,-285 151,-285 151,-265 311.75,-265 311.75,-285"/>
<text text-anchor="middle" x="231.38" y="-271.5" font-family="Helvetica,sans-Serif" font-size="10.00">fcmaes.multiretry.multiretry.dump</text>
</a>
</g>
</g>
<!-- Node1&#45;&gt;Node10 -->
<g id="edge13_Node000001_Node000010" class="edge">
<title>Node1&#45;&gt;Node10</title>
<g id="a_edge13_Node000001_Node000010"><a xlink:title=" ">
<path fill="none" stroke="#63b8ff" d="M82.4,-211.31C100.61,-223.2 126.61,-239.09 151,-250 160.2,-254.12 170.28,-257.85 180.07,-261.09"/>
<polygon fill="#63b8ff" stroke="#63b8ff" points="178.92,-264.4 189.51,-264.09 181.04,-257.73 178.92,-264.4"/>
</a>
</g>
</g>
<!-- Node12 -->
<g id="Node000012" class="node">
<title>Node12</title>
<g id="a_Node000012"><a xlink:href="classfcmaes_1_1retry_1_1_store.html#a0049736307028e256c038d8a8c1723d2" target="_top" xlink:title="Dumps debugging information if debugging is active.">
<polygon fill="white" stroke="#666666" points="293,-205 169.75,-205 169.75,-185 293,-185 293,-205"/>
<text text-anchor="middle" x="231.38" y="-191.5" font-family="Helvetica,sans-Serif" font-size="10.00">fcmaes.retry.Store.dump</text>
</a>
</g>
</g>
<!-- Node1&#45;&gt;Node12 -->
<g id="edge15_Node000001_Node000012" class="edge">
<title>Node1&#45;&gt;Node12</title>
<g id="a_edge15_Node000001_Node000012"><a xlink:title=" ">
<path fill="none" stroke="#63b8ff" d="M115.25,-195C128.99,-195 143.85,-195 158.19,-195"/>
<polygon fill="#63b8ff" stroke="#63b8ff" points="158.03,-198.5 168.03,-195 158.03,-191.5 158.03,-198.5"/>
</a>
</g>
</g>
<!-- Node13 -->
<g id="Node000013" class="node">
<title>Node13</title>
<g id="a_Node000013"><a xlink:href="classfcmaes_1_1retry_1_1_store.html#a26a39767ca9766302d42f84cd4dd25d6" target="_top" xlink:title="Calculates and returns the mean value along the Y&#45;axis.">
<polygon fill="white" stroke="#666666" points="484.88,-253 372.12,-253 372.12,-221 484.88,-221 484.88,-253"/>
<text text-anchor="start" x="380.12" y="-239.5" font-family="Helvetica,sans-Serif" font-size="10.00">fcmaes.retry.Store.get</text>
<text text-anchor="middle" x="428.5" y="-227.5" font-family="Helvetica,sans-Serif" font-size="10.00">_y_mean</text>
</a>
</g>
</g>
<!-- Node1&#45;&gt;Node13 -->
<g id="edge22_Node000001_Node000013" class="edge">
<title>Node1&#45;&gt;Node13</title>
<g id="a_edge22_Node000001_Node000013"><a xlink:title=" ">
<path fill="none" stroke="#63b8ff" d="M115.06,-207.73C126.89,-210.08 139.32,-212.32 151,-214 222.15,-224.23 304.3,-230.35 360.45,-233.67"/>
<polygon fill="#63b8ff" stroke="#63b8ff" points="359.98,-237.15 370.16,-234.23 360.38,-230.16 359.98,-237.15"/>
</a>
</g>
</g>
<!-- Node14 -->
<g id="Node000014" class="node">
<title>Node14</title>
<g id="a_Node000014"><a xlink:href="classfcmaes_1_1retry_1_1_store.html#a7ad3659c8d9d66fe34e6e13ec6d9eb69" target="_top" xlink:title="Calculates the standard deviation based on the collected statistics.">
<polygon fill="white" stroke="#666666" points="484.88,-127 372.12,-127 372.12,-95 484.88,-95 484.88,-127"/>
<text text-anchor="start" x="380.12" y="-113.5" font-family="Helvetica,sans-Serif" font-size="10.00">fcmaes.retry.Store.get</text>
<text text-anchor="middle" x="428.5" y="-101.5" font-family="Helvetica,sans-Serif" font-size="10.00">_y_standard_dev</text>
</a>
</g>
</g>
<!-- Node1&#45;&gt;Node14 -->
<g id="edge23_Node000001_Node000014" class="edge">
<title>Node1&#45;&gt;Node14</title>
<g id="a_edge23_Node000001_Node000014"><a xlink:title=" ">
<path fill="none" stroke="#63b8ff" d="M115.35,-182.06C181.55,-166.99 290.77,-142.13 360.89,-126.16"/>
<polygon fill="#63b8ff" stroke="#63b8ff" points="361.35,-129.65 370.32,-124.02 359.79,-122.82 361.35,-129.65"/>
</a>
</g>
</g>
<!-- Node17 -->
<g id="Node000017" class="node">
<title>Node17</title>
<g id="a_Node000017"><a xlink:href="classfcmaes_1_1retry_1_1_store.html#a440b834ab3066810ed77da1c5093fa49" target="_top" xlink:title="Increases the count of evaluations and performs sorting based on a condition.">
<polygon fill="white" stroke="#666666" points="288.88,-89 173.88,-89 173.88,-57 288.88,-57 288.88,-89"/>
<text text-anchor="start" x="181.88" y="-75.5" font-family="Helvetica,sans-Serif" font-size="10.00">fcmaes.retry.Store.incr</text>
<text text-anchor="middle" x="231.38" y="-63.5" font-family="Helvetica,sans-Serif" font-size="10.00">_count_evals</text>
</a>
</g>
</g>
<!-- Node1&#45;&gt;Node17 -->
<g id="edge24_Node000001_Node000017" class="edge">
<title>Node1&#45;&gt;Node17</title>
<g id="a_edge24_Node000001_Node000017"><a xlink:title=" ">
<path fill="none" stroke="#63b8ff" d="M71.26,-178.6C87.75,-158.37 118.24,-124.09 151,-103 156.11,-99.71 161.63,-96.7 167.31,-93.97"/>
<polygon fill="#63b8ff" stroke="#63b8ff" points="168.54,-97.25 176.24,-89.97 165.68,-90.86 168.54,-97.25"/>
</a>
</g>
</g>
<!-- Node18 -->
<g id="Node000018" class="node">
<title>Node18</title>
<g id="a_Node000018"><a xlink:href="classfcmaes_1_1advretry_1_1_store.html#aa5c9f7209b6bfb5bf079ad940a84eea4" target="_top" xlink:title="Sorts and updates stored data based on the given criteria.">
<polygon fill="white" stroke="#666666" points="494.25,-77 362.75,-77 362.75,-57 494.25,-57 494.25,-77"/>
<text text-anchor="middle" x="428.5" y="-63.5" font-family="Helvetica,sans-Serif" font-size="10.00">fcmaes.advretry.Store.sort</text>
</a>
</g>
</g>
<!-- Node1&#45;&gt;Node18 -->
<g id="edge33_Node000001_Node000018" class="edge">
<title>Node1&#45;&gt;Node18</title>
<g id="a_edge33_Node000001_Node000018"><a xlink:title=" ">
<path fill="none" stroke="#63b8ff" d="M78.57,-178.64C96.52,-164.79 124.09,-145.43 151,-134 218.39,-105.38 241.21,-117.6 311.75,-98 328,-93.48 331.53,-90.63 347.75,-86 354.75,-84 362.13,-82.05 369.47,-80.19"/>
<polygon fill="#63b8ff" stroke="#63b8ff" points="370.17,-83.63 379.04,-77.83 368.5,-76.83 370.17,-83.63"/>
</a>
</g>
</g>
<!-- Node24 -->
<g id="Node000024" class="node">
<title>Node24</title>
<g id="a_Node000024"><a xlink:href="classfcmaes_1_1retry_1_1_store.html#ac6ff35da8231cd4aedb488427841aa3b" target="_top" xlink:title="Sort entries to retain the best ones, thereby optimizing storage for new entries.">
<polygon fill="white" stroke="#666666" points="486.38,-39 370.62,-39 370.62,-19 486.38,-19 486.38,-39"/>
<text text-anchor="middle" x="428.5" y="-25.5" font-family="Helvetica,sans-Serif" font-size="10.00">fcmaes.retry.Store.sort</text>
</a>
</g>
</g>
<!-- Node1&#45;&gt;Node24 -->
<g id="edge34_Node000001_Node000024" class="edge">
<title>Node1&#45;&gt;Node24</title>
<g id="a_edge34_Node000001_Node000024"><a xlink:title=" ">
<path fill="none" stroke="#63b8ff" d="M63.31,-178.59C73.56,-146.96 100.79,-78.02 151,-48 213.95,-10.36 299.96,-10.81 359.26,-17.33"/>
<polygon fill="#63b8ff" stroke="#63b8ff" points="358.53,-20.77 368.87,-18.48 359.36,-13.82 358.53,-20.77"/>
</a>
</g>
</g>
<!-- Node3 -->
<g id="Node000003" class="node">
<title>Node3</title>
<g id="a_Node000003"><a xlink:href="classfcmaes_1_1advretry_1_1_store.html#a3cc073975313c4893de761cfc9771d77" target="_top" xlink:title="Gets the stored y&#45;values up to the specified count.">
<polygon fill="white" stroke="#666666" points="500.62,-367 356.38,-367 356.38,-347 500.62,-347 500.62,-367"/>
<text text-anchor="middle" x="428.5" y="-353.5" font-family="Helvetica,sans-Serif" font-size="10.00">fcmaes.advretry.Store.get_ys</text>
</a>
</g>
</g>
<!-- Node2&#45;&gt;Node3 -->
<g id="edge2_Node000002_Node000003" class="edge">
<title>Node2&#45;&gt;Node3</title>
<g id="a_edge2_Node000002_Node000003"><a xlink:title=" ">
<path fill="none" stroke="#63b8ff" d="M301.17,-342.76C315.33,-344.35 330.39,-346.05 344.98,-347.7"/>
<polygon fill="#63b8ff" stroke="#63b8ff" points="344.19,-351.13 354.52,-348.77 344.98,-344.17 344.19,-351.13"/>
</a>
</g>
</g>
<!-- Node4&#45;&gt;Node3 -->
<g id="edge11_Node000004_Node000003" class="edge">
<title>Node4&#45;&gt;Node3</title>
<g id="a_edge11_Node000004_Node000003"><a xlink:title=" ">
<path fill="none" stroke="#63b8ff" d="M278.62,-390.57C306.1,-384.38 341.17,-376.47 370.38,-369.88"/>
<polygon fill="#63b8ff" stroke="#63b8ff" points="370.79,-373.38 379.78,-367.76 369.25,-366.55 370.79,-373.38"/>
</a>
</g>
</g>
<!-- Node5 -->
<g id="Node000005" class="node">
<title>Node5</title>
<g id="a_Node000005"><a xlink:href="classexamples_1_1kepler_1_1lambert_1_1lambert__problem__multirev.html#acb524881ce41e73025559fa7ffc00715" target="_top" xlink:title=" ">
<polygon fill="white" stroke="#666666" points="507.38,-553 349.62,-553 349.62,-521 507.38,-521 507.38,-553"/>
<text text-anchor="start" x="357.62" y="-539.5" font-family="Helvetica,sans-Serif" font-size="10.00">examples.kepler.lambert.lambert</text>
<text text-anchor="middle" x="428.5" y="-527.5" font-family="Helvetica,sans-Serif" font-size="10.00">_problem_multirev.get_x</text>
</a>
</g>
</g>
<!-- Node4&#45;&gt;Node5 -->
<g id="edge4_Node000004_Node000005" class="edge">
<title>Node4&#45;&gt;Node5</title>
<g id="a_edge4_Node000004_Node000005"><a xlink:title=" ">
<path fill="none" stroke="#63b8ff" d="M240.17,-411.19C257.28,-432.89 300.4,-483.94 347.75,-512 350.07,-513.37 352.47,-514.68 354.93,-515.92"/>
<polygon fill="#63b8ff" stroke="#63b8ff" points="353.38,-519.06 363.93,-520.03 356.29,-512.69 353.38,-519.06"/>
</a>
</g>
</g>
<!-- Node6 -->
<g id="Node000006" class="node">
<title>Node6</title>
<g id="a_Node000006"><a xlink:href="classexamples_1_1kepler_1_1lambert_1_1lambert__problem__multirev__ga.html#a0683a879c52988d0039d1867bdfdc56b" target="_top" xlink:title=" ">
<polygon fill="white" stroke="#666666" points="507.38,-485 349.62,-485 349.62,-453 507.38,-453 507.38,-485"/>
<text text-anchor="start" x="357.62" y="-471.5" font-family="Helvetica,sans-Serif" font-size="10.00">examples.kepler.lambert.lambert</text>
<text text-anchor="middle" x="428.5" y="-459.5" font-family="Helvetica,sans-Serif" font-size="10.00">_problem_multirev_ga.get_x</text>
</a>
</g>
</g>
<!-- Node4&#45;&gt;Node6 -->
<g id="edge6_Node000004_Node000006" class="edge">
<title>Node4&#45;&gt;Node6</title>
<g id="a_edge6_Node000004_Node000006"><a xlink:title=" ">
<path fill="none" stroke="#63b8ff" d="M259.27,-411.48C282.56,-420.45 317.22,-433.53 347.75,-444 352.72,-445.7 357.88,-447.43 363.08,-449.13"/>
<polygon fill="#63b8ff" stroke="#63b8ff" points="361.72,-452.37 372.31,-452.11 363.87,-445.71 361.72,-452.37"/>
</a>
</g>
</g>
<!-- Node7 -->
<g id="Node000007" class="node">
<title>Node7</title>
<g id="a_Node000007"><a xlink:href="classexamples_1_1kepler_1_1lambert_1_1lambert__problem__stochastic.html#ae1b904d6fedd51f7e642c4e3efe5d69a" target="_top" xlink:title=" ">
<polygon fill="white" stroke="#666666" points="507.38,-417 349.62,-417 349.62,-385 507.38,-385 507.38,-417"/>
<text text-anchor="start" x="357.62" y="-403.5" font-family="Helvetica,sans-Serif" font-size="10.00">examples.kepler.lambert.lambert</text>
<text text-anchor="middle" x="428.5" y="-391.5" font-family="Helvetica,sans-Serif" font-size="10.00">_problem_stochastic.get_x</text>
</a>
</g>
</g>
<!-- Node4&#45;&gt;Node7 -->
<g id="edge8_Node000004_Node000007" class="edge">
<title>Node4&#45;&gt;Node7</title>
<g id="a_edge8_Node000004_Node000007"><a xlink:title=" ">
<path fill="none" stroke="#63b8ff" d="M309.77,-401C319,-401 328.48,-401 337.86,-401"/>
<polygon fill="#63b8ff" stroke="#63b8ff" points="337.72,-404.5 347.72,-401 337.72,-397.5 337.72,-404.5"/>
</a>
</g>
</g>
<!-- Node8 -->
<g id="Node000008" class="node">
<title>Node8</title>
<g id="a_Node000008"><a xlink:href="classfcmaes_1_1advretry_1_1_store.html#a97e407315b2e0c802b9d5b4414f3f91b" target="_top" xlink:title="Retrieves a segment of the xs array corresponding to the provided pid.">
<polygon fill="white" stroke="#666666" points="690.62,-381 551.62,-381 551.62,-361 690.62,-361 690.62,-381"/>
<text text-anchor="middle" x="621.12" y="-367.5" font-family="Helvetica,sans-Serif" font-size="10.00">fcmaes.advretry.Store.get_x</text>
</a>
</g>
</g>
<!-- Node4&#45;&gt;Node8 -->
<g id="edge10_Node000004_Node000008" class="edge">
<title>Node4&#45;&gt;Node8</title>
<g id="a_edge10_Node000004_Node000008"><a xlink:title=" ">
<path fill="none" stroke="#63b8ff" d="M235.19,-411.26C244.65,-443.42 278.61,-542.3 347.75,-580 410.77,-614.36 447.74,-617 509.25,-580 578.59,-538.29 606.87,-436.99 616.22,-392.53"/>
<polygon fill="#63b8ff" stroke="#63b8ff" points="619.63,-393.34 618.13,-382.85 612.76,-391.99 619.63,-393.34"/>
</a>
</g>
</g>
<!-- Node9 -->
<g id="Node000009" class="node">
<title>Node9</title>
<g id="a_Node000009"><a xlink:href="classfcmaes_1_1mapelites_1_1_archive.html#a91c9f1ac5485896833fc7b9859b85af1" target="_top" xlink:title="Returns a copy of the ys array.">
<polygon fill="white" stroke="#666666" points="509.25,-329 347.75,-329 347.75,-309 509.25,-309 509.25,-329"/>
<text text-anchor="middle" x="428.5" y="-315.5" font-family="Helvetica,sans-Serif" font-size="10.00">fcmaes.mapelites.Archive.get_ys</text>
</a>
</g>
</g>
<!-- Node4&#45;&gt;Node9 -->
<g id="edge12_Node000004_Node000009" class="edge">
<title>Node4&#45;&gt;Node9</title>
<g id="a_edge12_Node000004_Node000009"><a xlink:title=" ">
<path fill="none" stroke="#63b8ff" d="M248.15,-390.61C269.78,-376.78 310.26,-352.41 347.75,-338 353.01,-335.98 358.56,-334.13 364.17,-332.44"/>
<polygon fill="#63b8ff" stroke="#63b8ff" points="364.85,-335.89 373.53,-329.81 362.95,-329.15 364.85,-335.89"/>
</a>
</g>
</g>
<!-- Node5&#45;&gt;Node5 -->
<g id="edge5_Node000005_Node000005" class="edge">
<title>Node5&#45;&gt;Node5</title>
<g id="a_edge5_Node000005_Node000005"><a xlink:title=" ">
<path fill="none" stroke="#63b8ff" d="M394.11,-553.44C387.69,-562.58 399.15,-571 428.5,-571 444.55,-571 455.25,-568.48 460.6,-564.71"/>
<polygon fill="#63b8ff" stroke="#63b8ff" points="464.03,-565.42 462.59,-554.93 457.17,-564.03 464.03,-565.42"/>
</a>
</g>
</g>
<!-- Node6&#45;&gt;Node6 -->
<g id="edge7_Node000006_Node000006" class="edge">
<title>Node6&#45;&gt;Node6</title>
<g id="a_edge7_Node000006_Node000006"><a xlink:title=" ">
<path fill="none" stroke="#63b8ff" d="M394.11,-485.44C387.69,-494.58 399.15,-503 428.5,-503 444.55,-503 455.25,-500.48 460.6,-496.71"/>
<polygon fill="#63b8ff" stroke="#63b8ff" points="464.03,-497.42 462.59,-486.93 457.17,-496.03 464.03,-497.42"/>
</a>
</g>
</g>
<!-- Node7&#45;&gt;Node7 -->
<g id="edge9_Node000007_Node000007" class="edge">
<title>Node7&#45;&gt;Node7</title>
<g id="a_edge9_Node000007_Node000007"><a xlink:title=" ">
<path fill="none" stroke="#63b8ff" d="M394.11,-417.44C387.69,-426.58 399.15,-435 428.5,-435 444.55,-435 455.25,-432.48 460.6,-428.71"/>
<polygon fill="#63b8ff" stroke="#63b8ff" points="464.03,-429.42 462.59,-418.93 457.17,-428.03 464.03,-429.42"/>
</a>
</g>
</g>
<!-- Node11 -->
<g id="Node000011" class="node">
<title>Node11</title>
<g id="a_Node000011"><a xlink:href="classfcmaes_1_1multiretry_1_1multiretry.html#a498ccce18e874dc891d0060bc2a77b7f" target="_top" xlink:title="Calculates and returns the size of the problem statistics.">
<polygon fill="white" stroke="#666666" points="505.88,-291 351.12,-291 351.12,-271 505.88,-271 505.88,-291"/>
<text text-anchor="middle" x="428.5" y="-277.5" font-family="Helvetica,sans-Serif" font-size="10.00">fcmaes.multiretry.multiretry.size</text>
</a>
</g>
</g>
<!-- Node10&#45;&gt;Node11 -->
<g id="edge14_Node000010_Node000011" class="edge">
<title>Node10&#45;&gt;Node11</title>
<g id="a_edge14_Node000010_Node000011"><a xlink:title=" ">
<path fill="none" stroke="#63b8ff" d="M312.02,-277.45C320.99,-277.72 330.16,-278.01 339.23,-278.29"/>
<polygon fill="#63b8ff" stroke="#63b8ff" points="339.01,-281.78 349.12,-278.59 339.23,-274.78 339.01,-281.78"/>
</a>
</g>
</g>
<!-- Node12&#45;&gt;Node3 -->
<g id="edge18_Node000012_Node000003" class="edge">
<title>Node12&#45;&gt;Node3</title>
<g id="a_edge18_Node000012_Node000003"><a xlink:title=" ">
<path fill="none" stroke="#63b8ff" d="M250.92,-205.47C268.55,-216.21 294.81,-234.38 311.75,-256 336.3,-287.33 317.19,-312.5 347.75,-338 349.05,-339.08 350.4,-340.11 351.79,-341.07"/>
<polygon fill="#63b8ff" stroke="#63b8ff" points="349.81,-343.97 360.22,-345.92 353.29,-337.9 349.81,-343.97"/>
</a>
</g>
</g>
<!-- Node12&#45;&gt;Node9 -->
<g id="edge19_Node000012_Node000009" class="edge">
<title>Node12&#45;&gt;Node9</title>
<g id="a_edge19_Node000012_Node000009"><a xlink:title=" ">
<path fill="none" stroke="#63b8ff" d="M248.14,-205.49C264.8,-216.94 291.42,-236.28 311.75,-256 329.89,-273.59 326.34,-286.59 347.75,-300 350.18,-301.52 352.72,-302.92 355.33,-304.21"/>
<polygon fill="#63b8ff" stroke="#63b8ff" points="353.79,-307.35 364.36,-308.04 356.53,-300.91 353.79,-307.35"/>
</a>
</g>
</g>
<!-- Node12&#45;&gt;Node13 -->
<g id="edge16_Node000012_Node000013" class="edge">
<title>Node12&#45;&gt;Node13</title>
<g id="a_edge16_Node000012_Node000013"><a xlink:title=" ">
<path fill="none" stroke="#63b8ff" d="M281.11,-205.49C305.21,-210.68 334.67,-217.02 360.82,-222.65"/>
<polygon fill="#63b8ff" stroke="#63b8ff" points="359.81,-226.01 370.32,-224.69 361.28,-219.17 359.81,-226.01"/>
</a>
</g>
</g>
<!-- Node12&#45;&gt;Node14 -->
<g id="edge17_Node000012_Node000014" class="edge">
<title>Node12&#45;&gt;Node14</title>
<g id="a_edge17_Node000012_Node000014"><a xlink:title=" ">
<path fill="none" stroke="#63b8ff" d="M277.55,-184.63C289.14,-180.95 301.28,-176.15 311.75,-170 330.73,-158.86 328.76,-147.13 347.75,-136 352.02,-133.5 356.57,-131.22 361.24,-129.14"/>
<polygon fill="#63b8ff" stroke="#63b8ff" points="362.27,-132.51 370.22,-125.5 359.64,-126.02 362.27,-132.51"/>
</a>
</g>
</g>
<!-- Node15 -->
<g id="Node000015" class="node">
<title>Node15</title>
<g id="a_Node000015"><a xlink:href="classfcmaes_1_1mode_1_1store.html#ae794481869c1d681838a181c6f1976fe" target="_top" xlink:title="Returns a view of the ys attribute.">
<polygon fill="white" stroke="#666666" points="494.62,-165 362.38,-165 362.38,-145 494.62,-145 494.62,-165"/>
<text text-anchor="middle" x="428.5" y="-151.5" font-family="Helvetica,sans-Serif" font-size="10.00">fcmaes.mode.store.get_ys</text>
</a>
</g>
</g>
<!-- Node12&#45;&gt;Node15 -->
<g id="edge20_Node000012_Node000015" class="edge">
<title>Node12&#45;&gt;Node15</title>
<g id="a_edge20_Node000012_Node000015"><a xlink:title=" ">
<path fill="none" stroke="#63b8ff" d="M283.39,-184.54C308.48,-179.4 338.95,-173.15 365.39,-167.73"/>
<polygon fill="#63b8ff" stroke="#63b8ff" points="365.87,-171.21 374.96,-165.77 364.47,-164.35 365.87,-171.21"/>
</a>
</g>
</g>
<!-- Node16 -->
<g id="Node000016" class="node">
<title>Node16</title>
<g id="a_Node000016"><a xlink:href="classfcmaes_1_1retry_1_1_store.html#af199095a120a26f0a77d0a263785d4f3" target="_top" xlink:title="Gets the stored y&#45;values as a NumPy array.">
<polygon fill="white" stroke="#666666" points="492.75,-203 364.25,-203 364.25,-183 492.75,-183 492.75,-203"/>
<text text-anchor="middle" x="428.5" y="-189.5" font-family="Helvetica,sans-Serif" font-size="10.00">fcmaes.retry.Store.get_ys</text>
</a>
</g>
</g>
<!-- Node12&#45;&gt;Node16 -->
<g id="edge21_Node000012_Node000016" class="edge">
<title>Node12&#45;&gt;Node16</title>
<g id="a_edge21_Node000012_Node000016"><a xlink:title=" ">
<path fill="none" stroke="#63b8ff" d="M293.31,-194.38C312.1,-194.18 333.01,-193.97 352.62,-193.77"/>
<polygon fill="#63b8ff" stroke="#63b8ff" points="352.52,-197.27 362.48,-193.67 352.45,-190.27 352.52,-197.27"/>
</a>
</g>
</g>
<!-- Node17&#45;&gt;Node18 -->
<g id="edge25_Node000017_Node000018" class="edge">
<title>Node17&#45;&gt;Node18</title>
<g id="a_edge25_Node000017_Node000018"><a xlink:title=" ">
<path fill="none" stroke="#63b8ff" d="M289.34,-71.25C308.7,-70.65 330.66,-69.98 351.28,-69.34"/>
<polygon fill="#63b8ff" stroke="#63b8ff" points="351.17,-72.85 361.06,-69.04 350.96,-65.85 351.17,-72.85"/>
</a>
</g>
</g>
<!-- Node17&#45;&gt;Node24 -->
<g id="edge32_Node000017_Node000024" class="edge">
<title>Node17&#45;&gt;Node24</title>
<g id="a_edge32_Node000017_Node000024"><a xlink:title=" ">
<path fill="none" stroke="#63b8ff" d="M289.34,-60.16C314.72,-54.43 344.56,-47.7 370,-41.97"/>
<polygon fill="#63b8ff" stroke="#63b8ff" points="370.51,-45.44 379.5,-39.82 368.97,-38.61 370.51,-45.44"/>
</a>
</g>
</g>
<!-- Node18&#45;&gt;Node8 -->
<g id="edge27_Node000018_Node000008" class="edge">
<title>Node18&#45;&gt;Node8</title>
<g id="a_edge27_Node000018_Node000008"><a xlink:title=" ">
<path fill="none" stroke="#63b8ff" d="M494.46,-76.58C499.81,-79.07 504.85,-82.17 509.25,-86 590.78,-157.05 612.76,-295.48 618.34,-349.07"/>
<polygon fill="#63b8ff" stroke="#63b8ff" points="614.85,-349.38 619.27,-359.01 621.82,-348.73 614.85,-349.38"/>
</a>
</g>
</g>
<!-- Node19 -->
<g id="Node000019" class="node">
<title>Node19</title>
<g id="a_Node000019"><a xlink:href="classfcmaes_1_1advretry_1_1_store.html#a00ab052ea8b184b7344875122481b623" target="_top" xlink:title="Calculates the normalized distance between two points in a Euclidean space.">
<polygon fill="white" stroke="#666666" points="697,-115 545.25,-115 545.25,-95 697,-95 697,-115"/>
<text text-anchor="middle" x="621.12" y="-101.5" font-family="Helvetica,sans-Serif" font-size="10.00">fcmaes.advretry.Store.distance</text>
</a>
</g>
</g>
<!-- Node18&#45;&gt;Node19 -->
<g id="edge26_Node000018_Node000019" class="edge">
<title>Node18&#45;&gt;Node19</title>
<g id="a_edge26_Node000018_Node000019"><a xlink:title=" ">
<path fill="none" stroke="#63b8ff" d="M482.09,-77.48C505.12,-82.07 532.33,-87.5 556.49,-92.31"/>
<polygon fill="#63b8ff" stroke="#63b8ff" points="555.73,-95.73 566.22,-94.25 557.1,-88.87 555.73,-95.73"/>
</a>
</g>
</g>
<!-- Node20 -->
<g id="Node000020" class="node">
<title>Node20</title>
<g id="a_Node000020"><a xlink:href="classfcmaes_1_1advretry_1_1_store.html#a907617cde0def7276f1f609d7690335f" target="_top" xlink:title="Fetches a value for a given ID from a dictionary of float values.">
<polygon fill="white" stroke="#666666" points="690.62,-77 551.62,-77 551.62,-57 690.62,-57 690.62,-77"/>
<text text-anchor="middle" x="621.12" y="-63.5" font-family="Helvetica,sans-Serif" font-size="10.00">fcmaes.advretry.Store.get_y</text>
</a>
</g>
</g>
<!-- Node18&#45;&gt;Node20 -->
<g id="edge28_Node000018_Node000020" class="edge">
<title>Node18&#45;&gt;Node20</title>
<g id="a_edge28_Node000018_Node000020"><a xlink:title=" ">
<path fill="none" stroke="#63b8ff" d="M494.57,-67C509.18,-67 524.85,-67 539.99,-67"/>
<polygon fill="#63b8ff" stroke="#63b8ff" points="539.93,-70.5 549.93,-67 539.93,-63.5 539.93,-70.5"/>
</a>
</g>
</g>
<!-- Node21 -->
<g id="Node000021" class="node">
<title>Node21</title>
<g id="a_Node000021"><a xlink:href="classfcmaes_1_1advretry_1_1_store.html#a0ae90f35f58deb629c18747fbf9b1cc9" target="_top" xlink:title="Replaces the y and x values at a specified index.">
<polygon fill="white" stroke="#666666" points="694.38,-39 547.88,-39 547.88,-19 694.38,-19 694.38,-39"/>
<text text-anchor="middle" x="621.12" y="-25.5" font-family="Helvetica,sans-Serif" font-size="10.00">fcmaes.advretry.Store.replace</text>
</a>
</g>
</g>
<!-- Node18&#45;&gt;Node21 -->
<g id="edge29_Node000018_Node000021" class="edge">
<title>Node18&#45;&gt;Node21</title>
<g id="a_edge29_Node000018_Node000021"><a xlink:title=" ">
<path fill="none" stroke="#63b8ff" d="M482.09,-56.52C505.12,-51.93 532.33,-46.5 556.49,-41.69"/>
<polygon fill="#63b8ff" stroke="#63b8ff" points="557.1,-45.13 566.22,-39.75 555.73,-38.27 557.1,-45.13"/>
</a>
</g>
</g>
<!-- Node22 -->
<g id="Node000022" class="node">
<title>Node22</title>
<g id="a_Node000022"><a xlink:href="classfcmaes_1_1advretry_1_1_store.html#a732636cd5ab3c40b878ef2e0274b1d1b" target="_top" xlink:title="Sets a subset of the xs list for a specific process ID.">
<polygon fill="white" stroke="#666666" points="872,-58 733,-58 733,-38 872,-38 872,-58"/>
<text text-anchor="middle" x="802.5" y="-44.5" font-family="Helvetica,sans-Serif" font-size="10.00">fcmaes.advretry.Store.set_x</text>
</a>
</g>
</g>
<!-- Node21&#45;&gt;Node22 -->
<g id="edge30_Node000021_Node000022" class="edge">
<title>Node21&#45;&gt;Node22</title>
<g id="a_edge30_Node000021_Node000022"><a xlink:title=" ">
<path fill="none" stroke="#63b8ff" d="M694.83,-36.7C703.63,-37.63 712.67,-38.59 721.57,-39.53"/>
<polygon fill="#63b8ff" stroke="#63b8ff" points="720.94,-42.99 731.25,-40.56 721.68,-36.03 720.94,-42.99"/>
</a>
</g>
</g>
<!-- Node23 -->
<g id="Node000023" class="node">
<title>Node23</title>
<g id="a_Node000023"><a xlink:href="classfcmaes_1_1advretry_1_1_store.html#a12d96e54629b449293d2aabf5542ddc1" target="_top" xlink:title="Sets the value of y for a given pid within the &#39;ys&#39; mapping.">
<polygon fill="white" stroke="#666666" points="872,-20 733,-20 733,0 872,0 872,-20"/>
<text text-anchor="middle" x="802.5" y="-6.5" font-family="Helvetica,sans-Serif" font-size="10.00">fcmaes.advretry.Store.set_y</text>
</a>
</g>
</g>
<!-- Node21&#45;&gt;Node23 -->
<g id="edge31_Node000021_Node000023" class="edge">
<title>Node21&#45;&gt;Node23</title>
<g id="a_edge31_Node000021_Node000023"><a xlink:title=" ">
<path fill="none" stroke="#63b8ff" d="M694.83,-21.3C703.63,-20.37 712.67,-19.41 721.57,-18.47"/>
<polygon fill="#63b8ff" stroke="#63b8ff" points="721.68,-21.97 731.25,-17.44 720.94,-15.01 721.68,-21.97"/>
</a>
</g>
</g>
</g>
</svg>

<g id="navigator" transform="translate(0 0)" fill="#404254">
  <rect fill="#f2f5e9" fill-opacity="0.5" stroke="#606060" stroke-width=".5" x="0" y="0" width="60" height="60"/>
  <use id="zoomplus" xlink:href="#zoomPlus" x="17" y="9" onmousedown="handleZoom(evt,'in')"/>
  <use id="zoomminus" xlink:href="#zoomMin" x="42" y="9" onmousedown="handleZoom(evt,'out')"/>
  <use id="reset" xlink:href="#resetDef" x="30" y="36" onmousedown="handleReset()"/>
   <use id="arrowup" xlink:href="#arrowUp" x="0" y="0" onmousedown="handlePan(0,-1)"/>
  <use id="arrowright" xlink:href="#arrowRight" x="0" y="0" onmousedown="handlePan(1,0)"/>
  <use id="arrowdown" xlink:href="#arrowDown" x="0" y="0" onmousedown="handlePan(0,1)"/>
  <use id="arrowleft" xlink:href="#arrowLeft" x="0" y="0" onmousedown="handlePan(-1,0)"/>
</g>
<svg viewBox="0 0 15 15" width="100%" height="30px" preserveAspectRatio="xMaxYMin meet">
 <g id="arrow_out" transform="scale(0.3 0.3)">
  <a xlink:href="classfcmaes_1_1retry_1_1_store_aed35531d1489fd7b28d69dc3c9794508_cgraph_org.svg" target="_base">
   <rect id="button" ry="5" rx="5" y="6" x="6" height="38" width="38"
        fill="#f2f5e9" fill-opacity="0.5" stroke="#606060" stroke-width="1.0"/>
   <path id="arrow"
     d="M 11.500037,31.436501 C 11.940474,20.09759 22.043105,11.32322 32.158766,21.979434 L 37.068811,17.246167 C 37.068811,17.246167 37.088388,32 37.088388,32 L 22.160133,31.978069 C 22.160133,31.978069 26.997745,27.140456 26.997745,27.140456 C 18.528582,18.264221 13.291696,25.230495 11.500037,31.436501 z"
     style="fill:#404040;"/>
  </a>
 </g>
</svg>

<style type='text/css'>
<![CDATA[
[data-mouse-over-selected='false'] { opacity: 0.7; }
[data-mouse-over-selected='true']  { opacity: 1.0; }
]]>
</style>
<script type="application/ecmascript"><![CDATA[
document.addEventListener('DOMContentLoaded', (event) => {
  highlightEdges();
  highlightAdjacentNodes();
});
]]></script>
</svg>
