<?xml version="1.0" encoding="UTF-8" standalone="no"?>
<!DOCTYPE svg PUBLIC "-//W3C//DTD SVG 1.1//EN"
 "http://www.w3.org/Graphics/SVG/1.1/DTD/svg11.dtd">
<!-- Generated by graphviz version 12.2.1 (20241206.2353)
 -->
<!-- Title: examples.scheduling.fitness.fun Pages: 1 -->
<!--zoomable 308 -->

<svg id="main" version="1.1" xmlns="http://www.w3.org/2000/svg" xmlns:xlink="http://www.w3.org/1999/xlink" xml:space="preserve" onload="init(evt)">

<style type="text/css"><![CDATA[
.node, .edge {opacity: 0.7;}
.node.selected, .edge.selected {opacity: 1;}
.edge:hover path { stroke: red; }
.edge:hover polygon { stroke: red; fill: red; }
]]></style>

<defs>
  <circle id="rim" cx="0" cy="0" r="7"/>
  <circle id="rim2" cx="0" cy="0" r="3.5"/>
  <g id="zoomPlus">
    <use xlink:href="#rim" fill="#404040"><set attributeName="fill" to="#808080" begin="zoomplus.mouseover" end="zoomplus.mouseout"/></use>
    <path d="M-4,0h8M0,-4v8" fill="none" stroke="white" stroke-width="1.5" pointer-events="none"/>
  </g>
  <g id="zoomMin">
    <use xlink:href="#rim" fill="#404040"><set attributeName="fill" to="#808080" begin="zoomminus.mouseover" end="zoomminus.mouseout"/></use>
    <path d="M-4,0h8" fill="none" stroke="white" stroke-width="1.5" pointer-events="none"/>
  </g>
  <g id="arrowUp" transform="translate(30 24)">
    <use xlink:href="#rim"/>
    <path pointer-events="none" fill="none" stroke="white" stroke-width="1.5" d="M0,-3.0v7 M-2.5,-0.5L0,-3.0L2.5,-0.5"/>
  </g>
  <g id="arrowRight" transform="rotate(90) translate(36 -43)">
    <use xlink:href="#rim"/>
    <path pointer-events="none" fill="none" stroke="white" stroke-width="1.5" d="M0,-3.0v7 M-2.5,-0.5L0,-3.0L2.5,-0.5"/>
  </g>
  <g id="arrowDown" transform="rotate(180) translate(-30 -48)">
    <use xlink:href="#rim"/>
    <path pointer-events="none" fill="none" stroke="white" stroke-width="1.5" d="M0,-3.0v7 M-2.5,-0.5L0,-3.0L2.5,-0.5"/>
  </g>
  <g id="arrowLeft" transform="rotate(270) translate(-36 17)">
    <use xlink:href="#rim"/>
    <path pointer-events="none" fill="none" stroke="white" stroke-width="1.5" d="M0,-3.0v7 M-2.5,-0.5L0,-3.0L2.5,-0.5"/>
  </g>
  <g id="resetDef">
    <use xlink:href="#rim2" fill="#404040"><set attributeName="fill" to="#808080" begin="reset.mouseover" end="reset.mouseout"/></use>
  </g>
</defs>
<script type="application/ecmascript">
var viewWidth = 1120;
var viewHeight = 308;
var sectionId = 'dynsection-2';
</script>
<script type="application/ecmascript" xlink:href="svg.min.js"/>
<svg id="graph" class="graph">
<g id="viewport">
<title>examples.scheduling.fitness.fun</title>
<!-- Node1 -->
<g id="Node000001" class="node">
<title>Node1</title>
<g id="a_Node000001"><a xlink:title=" ">
<polygon fill="#999999" stroke="#666666" points="156.25,-153 0,-153 0,-133 156.25,-133 156.25,-153"/>
<text text-anchor="middle" x="78.12" y="-139.5" font-family="Helvetica,sans-Serif" font-size="10.00">examples.scheduling.fitness.fun</text>
</a>
</g>
</g>
<!-- Node2 -->
<g id="Node000002" class="node">
<title>Node2</title>
<g id="a_Node000002"><a xlink:href="namespaceexamples_1_1scheduling.html#ad2889b9007308a61135c1b5faeca5d11" target="_top" xlink:title=" ">
<polygon fill="white" stroke="#666666" points="547.88,-266 399.88,-266 399.88,-246 547.88,-246 547.88,-266"/>
<text text-anchor="middle" x="473.88" y="-252.5" font-family="Helvetica,sans-Serif" font-size="10.00">examples.scheduling.ast_num</text>
</a>
</g>
</g>
<!-- Node1&#45;&gt;Node2 -->
<g id="edge1_Node000001_Node000002" class="edge">
<title>Node1&#45;&gt;Node2</title>
<g id="a_edge1_Node000001_Node000002"><a xlink:title=" ">
<path fill="none" stroke="#63b8ff" d="M89.56,-153.37C108.29,-171.27 149.64,-207.6 192.25,-224 255.1,-248.19 331.29,-255.64 388.41,-257.34"/>
<polygon fill="#63b8ff" stroke="#63b8ff" points="387.97,-260.83 398.05,-257.57 388.14,-253.83 387.97,-260.83"/>
</a>
</g>
</g>
<!-- Node3 -->
<g id="Node000003" class="node">
<title>Node3</title>
<g id="a_Node000003"><a xlink:href="namespaceexamples_1_1scheduling.html#a65b621b377aebb2c8a0b9af590aa280d" target="_top" xlink:title=" ">
<polygon fill="white" stroke="#666666" points="739.75,-253 588.75,-253 588.75,-221 739.75,-221 739.75,-253"/>
<text text-anchor="start" x="596.75" y="-239.5" font-family="Helvetica,sans-Serif" font-size="10.00">examples.scheduling.trajectory</text>
<text text-anchor="middle" x="664.25" y="-227.5" font-family="Helvetica,sans-Serif" font-size="10.00">_selection</text>
</a>
</g>
</g>
<!-- Node1&#45;&gt;Node3 -->
<g id="edge18_Node000001_Node000003" class="edge">
<title>Node1&#45;&gt;Node3</title>
<g id="a_edge18_Node000001_Node000003"><a xlink:title=" ">
<path fill="none" stroke="#63b8ff" d="M85.85,-153.25C101.42,-176.01 142.45,-230.58 192.25,-254 337.49,-322.3 394.45,-301.46 552.75,-275 573.67,-271.5 595.94,-264.52 614.96,-257.49"/>
<polygon fill="#63b8ff" stroke="#63b8ff" points="615.95,-260.86 624.04,-254.02 613.45,-254.32 615.95,-260.86"/>
</a>
</g>
</g>
<!-- Node6 -->
<g id="Node000006" class="node">
<title>Node6</title>
<g id="a_Node000006"><a xlink:href="namespaceexamples_1_1scheduling.html#afe388874c2fafb820cc0d1a456332d53" target="_top" xlink:title=" ">
<polygon fill="white" stroke="#666666" points="732.62,-124 595.88,-124 595.88,-92 732.62,-92 732.62,-124"/>
<text text-anchor="start" x="603.88" y="-110.5" font-family="Helvetica,sans-Serif" font-size="10.00">examples.scheduling.dyson</text>
<text text-anchor="middle" x="664.25" y="-98.5" font-family="Helvetica,sans-Serif" font-size="10.00">_stations</text>
</a>
</g>
</g>
<!-- Node1&#45;&gt;Node6 -->
<g id="edge5_Node000001_Node000006" class="edge">
<title>Node1&#45;&gt;Node6</title>
<g id="a_edge5_Node000001_Node000006"><a xlink:title=" ">
<path fill="none" stroke="#63b8ff" d="M145.45,-132.51C160.8,-130.23 177.08,-127.92 192.25,-126 282.12,-114.6 304.53,-109.67 395,-105 465.02,-101.38 482.65,-104.05 552.75,-105 562.9,-105.14 573.57,-105.35 584.11,-105.59"/>
<polygon fill="#63b8ff" stroke="#63b8ff" points="583.87,-109.09 593.96,-105.83 584.04,-102.09 583.87,-109.09"/>
</a>
</g>
</g>
<!-- Node7 -->
<g id="Node000007" class="node">
<title>Node7</title>
<g id="a_Node000007"><a xlink:href="classexamples_1_1scheduling_1_1fitness.html#a0dcc50199c64159aae9a5a89326d1cc6" target="_top" xlink:title=" ">
<polygon fill="white" stroke="#666666" points="359,-172 192.25,-172 192.25,-152 359,-152 359,-172"/>
<text text-anchor="middle" x="275.62" y="-158.5" font-family="Helvetica,sans-Serif" font-size="10.00">examples.scheduling.fitness.score</text>
</a>
</g>
</g>
<!-- Node1&#45;&gt;Node7 -->
<g id="edge6_Node000001_Node000007" class="edge">
<title>Node1&#45;&gt;Node7</title>
<g id="a_edge6_Node000001_Node000007"><a xlink:title=" ">
<path fill="none" stroke="#63b8ff" d="M156.67,-150.54C164.57,-151.3 172.65,-152.09 180.7,-152.87"/>
<polygon fill="#63b8ff" stroke="#63b8ff" points="180.23,-156.34 190.52,-153.83 180.91,-149.38 180.23,-156.34"/>
</a>
</g>
</g>
<!-- Node8 -->
<g id="Node000008" class="node">
<title>Node8</title>
<g id="a_Node000008"><a xlink:href="namespaceexamples_1_1scheduling.html#af71d892a26a7cf4e51f3d0c28dd3d93b" target="_top" xlink:title=" ">
<polygon fill="white" stroke="#666666" points="542.25,-134 405.5,-134 405.5,-114 542.25,-114 542.25,-134"/>
<text text-anchor="middle" x="473.88" y="-120.5" font-family="Helvetica,sans-Serif" font-size="10.00">examples.scheduling.select</text>
</a>
</g>
</g>
<!-- Node1&#45;&gt;Node8 -->
<g id="edge15_Node000001_Node000008" class="edge">
<title>Node1&#45;&gt;Node8</title>
<g id="a_edge15_Node000001_Node000008"><a xlink:title=" ">
<path fill="none" stroke="#63b8ff" d="M156.45,-139.27C225.08,-135.96 324.91,-131.14 394,-127.81"/>
<polygon fill="#63b8ff" stroke="#63b8ff" points="393.92,-131.31 403.74,-127.34 393.58,-124.32 393.92,-131.31"/>
</a>
</g>
</g>
<!-- Node9 -->
<g id="Node000009" class="node">
<title>Node9</title>
<g id="a_Node000009"><a xlink:href="namespaceexamples_1_1scheduling.html#a5473acc487e865227b4f1d9ac06d8102" target="_top" xlink:title=" ">
<polygon fill="white" stroke="#666666" points="735.25,-66 593.25,-66 593.25,-46 735.25,-46 735.25,-66"/>
<text text-anchor="middle" x="664.25" y="-52.5" font-family="Helvetica,sans-Serif" font-size="10.00">examples.scheduling.timings</text>
</a>
</g>
</g>
<!-- Node1&#45;&gt;Node9 -->
<g id="edge17_Node000001_Node000009" class="edge">
<title>Node1&#45;&gt;Node9</title>
<g id="a_edge17_Node000001_Node000009"><a xlink:title=" ">
<path fill="none" stroke="#63b8ff" d="M103.34,-132.52C125.91,-123.22 160.74,-110.04 192.25,-103 326.6,-73 486.8,-62.14 581.49,-58.21"/>
<polygon fill="#63b8ff" stroke="#63b8ff" points="581.62,-61.71 591.48,-57.82 581.34,-54.72 581.62,-61.71"/>
</a>
</g>
</g>
<!-- Node10 -->
<g id="Node000010" class="node">
<title>Node10</title>
<g id="a_Node000010"><a xlink:href="namespaceexamples_1_1scheduling.html#aef8d4dd874790f032aa9f541c3c199a6" target="_top" xlink:title=" ">
<polygon fill="white" stroke="#666666" points="552.75,-228 395,-228 395,-208 552.75,-208 552.75,-228"/>
<text text-anchor="middle" x="473.88" y="-214.5" font-family="Helvetica,sans-Serif" font-size="10.00">examples.scheduling.select_dvs</text>
</a>
</g>
</g>
<!-- Node1&#45;&gt;Node10 -->
<g id="edge16_Node000001_Node000010" class="edge">
<title>Node1&#45;&gt;Node10</title>
<g id="a_edge16_Node000001_Node000010"><a xlink:title=" ">
<path fill="none" stroke="#63b8ff" d="M95.18,-153.5C116.41,-166.76 155.44,-189.06 192.25,-199 254.66,-215.85 327.56,-220.35 383.42,-220.77"/>
<polygon fill="#63b8ff" stroke="#63b8ff" points="383.19,-224.27 393.2,-220.8 383.21,-217.27 383.19,-224.27"/>
</a>
</g>
</g>
<!-- Node11 -->
<g id="Node000011" class="node">
<title>Node11</title>
<g id="a_Node000011"><a xlink:href="namespaceexamples_1_1scheduling.html#abce02ddc9637c49f7152ef997c3db2eb" target="_top" xlink:title=" ">
<polygon fill="white" stroke="#666666" points="354.5,-20 196.75,-20 196.75,0 354.5,0 354.5,-20"/>
<text text-anchor="middle" x="275.62" y="-6.5" font-family="Helvetica,sans-Serif" font-size="10.00">examples.scheduling.score_vals</text>
</a>
</g>
</g>
<!-- Node1&#45;&gt;Node11 -->
<g id="edge14_Node000001_Node000011" class="edge">
<title>Node1&#45;&gt;Node11</title>
<g id="a_edge14_Node000001_Node000011"><a xlink:title=" ">
<path fill="none" stroke="#63b8ff" d="M86.97,-132.59C103.83,-110.96 145.76,-60.94 192.25,-34 198.83,-30.19 206.06,-26.94 213.43,-24.18"/>
<polygon fill="#63b8ff" stroke="#63b8ff" points="214.48,-27.52 222.82,-20.98 212.22,-20.9 214.48,-27.52"/>
</a>
</g>
</g>
<!-- Node2&#45;&gt;Node3 -->
<g id="edge2_Node000002_Node000003" class="edge">
<title>Node2&#45;&gt;Node3</title>
<g id="a_edge2_Node000002_Node000003"><a xlink:title=" ">
<path fill="none" stroke="#63b8ff" d="M548.25,-248.6C557.75,-247.64 567.55,-246.65 577.24,-245.68"/>
<polygon fill="#63b8ff" stroke="#63b8ff" points="577.42,-249.17 587.02,-244.69 576.72,-242.21 577.42,-249.17"/>
</a>
</g>
</g>
<!-- Node4 -->
<g id="Node000004" class="node">
<title>Node4</title>
<g id="a_Node000004"><a xlink:href="namespaceexamples_1_1scheduling.html#a9b78175a9bd193289a2db7a992840231" target="_top" xlink:title=" ">
<polygon fill="white" stroke="#666666" points="924.5,-247 775.75,-247 775.75,-227 924.5,-227 924.5,-247"/>
<text text-anchor="middle" x="850.12" y="-233.5" font-family="Helvetica,sans-Serif" font-size="10.00">examples.scheduling.disjoined</text>
</a>
</g>
</g>
<!-- Node3&#45;&gt;Node4 -->
<g id="edge3_Node000003_Node000004" class="edge">
<title>Node3&#45;&gt;Node4</title>
<g id="a_edge3_Node000003_Node000004"><a xlink:title=" ">
<path fill="none" stroke="#63b8ff" d="M740.04,-237C747.95,-237 756.03,-237 764.04,-237"/>
<polygon fill="#63b8ff" stroke="#63b8ff" points="763.78,-240.5 773.78,-237 763.78,-233.5 763.78,-240.5"/>
</a>
</g>
</g>
<!-- Node5 -->
<g id="Node000005" class="node">
<title>Node5</title>
<g id="a_Node000005"><a xlink:href="namespaceexamples_1_1scheduling.html#a171925bee0250e0755f9521ef6756bc7" target="_top" xlink:title=" ">
<polygon fill="white" stroke="#666666" points="1111.5,-247 960.5,-247 960.5,-227 1111.5,-227 1111.5,-247"/>
<text text-anchor="middle" x="1036" y="-233.5" font-family="Helvetica,sans-Serif" font-size="10.00">examples.scheduling.next_free</text>
</a>
</g>
</g>
<!-- Node4&#45;&gt;Node5 -->
<g id="edge4_Node000004_Node000005" class="edge">
<title>Node4&#45;&gt;Node5</title>
<g id="a_edge4_Node000004_Node000005"><a xlink:title=" ">
<path fill="none" stroke="#63b8ff" d="M924.85,-237C932.73,-237 940.8,-237 948.8,-237"/>
<polygon fill="#63b8ff" stroke="#63b8ff" points="948.54,-240.5 958.54,-237 948.54,-233.5 948.54,-240.5"/>
</a>
</g>
</g>
<!-- Node7&#45;&gt;Node7 -->
<g id="edge7_Node000007_Node000007" class="edge">
<title>Node7&#45;&gt;Node7</title>
<g id="a_edge7_Node000007_Node000007"><a xlink:title=" ">
<path fill="none" stroke="#63b8ff" d="M244.24,-172.34C230.83,-180.98 241.29,-190 275.62,-190 294.94,-190 306.69,-187.14 310.9,-183.11"/>
<polygon fill="#63b8ff" stroke="#63b8ff" points="314.21,-181.98 307.52,-173.76 307.63,-184.36 314.21,-181.98"/>
</a>
</g>
</g>
<!-- Node7&#45;&gt;Node8 -->
<g id="edge8_Node000007_Node000008" class="edge">
<title>Node7&#45;&gt;Node8</title>
<g id="a_edge8_Node000007_Node000008"><a xlink:title=" ">
<path fill="none" stroke="#63b8ff" d="M330.77,-151.52C354.58,-146.91 382.75,-141.45 407.7,-136.62"/>
<polygon fill="#63b8ff" stroke="#63b8ff" points="408.27,-140.08 417.42,-134.74 406.94,-133.2 408.27,-140.08"/>
</a>
</g>
</g>
<!-- Node7&#45;&gt;Node10 -->
<g id="edge12_Node000007_Node000010" class="edge">
<title>Node7&#45;&gt;Node10</title>
<g id="a_edge12_Node000007_Node000010"><a xlink:title=" ">
<path fill="none" stroke="#63b8ff" d="M313.08,-172.4C344.79,-181.45 390.94,-194.62 425.5,-204.48"/>
<polygon fill="#63b8ff" stroke="#63b8ff" points="424.25,-207.77 434.83,-207.14 426.17,-201.03 424.25,-207.77"/>
</a>
</g>
</g>
<!-- Node8&#45;&gt;Node3 -->
<g id="edge11_Node000008_Node000003" class="edge">
<title>Node8&#45;&gt;Node3</title>
<g id="a_edge11_Node000008_Node000003"><a xlink:title=" ">
<path fill="none" stroke="#63b8ff" d="M492.26,-134.43C522.57,-152.61 585.72,-190.49 626.21,-214.78"/>
<polygon fill="#63b8ff" stroke="#63b8ff" points="624.31,-217.72 634.69,-219.87 627.91,-211.72 624.31,-217.72"/>
</a>
</g>
</g>
<!-- Node8&#45;&gt;Node6 -->
<g id="edge9_Node000008_Node000006" class="edge">
<title>Node8&#45;&gt;Node6</title>
<g id="a_edge9_Node000008_Node000006"><a xlink:title=" ">
<path fill="none" stroke="#63b8ff" d="M542.62,-118.25C556.05,-117.11 570.26,-115.9 584.04,-114.73"/>
<polygon fill="#63b8ff" stroke="#63b8ff" points="584.3,-118.22 593.97,-113.88 583.71,-111.24 584.3,-118.22"/>
</a>
</g>
</g>
<!-- Node8&#45;&gt;Node9 -->
<g id="edge10_Node000008_Node000009" class="edge">
<title>Node8&#45;&gt;Node9</title>
<g id="a_edge10_Node000008_Node000009"><a xlink:title=" ">
<path fill="none" stroke="#63b8ff" d="M503.9,-113.52C535.98,-101.94 587.84,-83.22 623.64,-70.3"/>
<polygon fill="#63b8ff" stroke="#63b8ff" points="624.56,-73.69 632.77,-67 622.18,-67.11 624.56,-73.69"/>
</a>
</g>
</g>
<!-- Node10&#45;&gt;Node3 -->
<g id="edge13_Node000010_Node000003" class="edge">
<title>Node10&#45;&gt;Node3</title>
<g id="a_edge13_Node000010_Node000003"><a xlink:title=" ">
<path fill="none" stroke="#63b8ff" d="M553.13,-225.89C561.03,-226.69 569.08,-227.5 577.06,-228.31"/>
<polygon fill="#63b8ff" stroke="#63b8ff" points="576.46,-231.76 586.76,-229.28 577.16,-224.8 576.46,-231.76"/>
</a>
</g>
</g>
</g>
</svg>

<g id="navigator" transform="translate(0 0)" fill="#404254">
  <rect fill="#f2f5e9" fill-opacity="0.5" stroke="#606060" stroke-width=".5" x="0" y="0" width="60" height="60"/>
  <use id="zoomplus" xlink:href="#zoomPlus" x="17" y="9" onmousedown="handleZoom(evt,'in')"/>
  <use id="zoomminus" xlink:href="#zoomMin" x="42" y="9" onmousedown="handleZoom(evt,'out')"/>
  <use id="reset" xlink:href="#resetDef" x="30" y="36" onmousedown="handleReset()"/>
   <use id="arrowup" xlink:href="#arrowUp" x="0" y="0" onmousedown="handlePan(0,-1)"/>
  <use id="arrowright" xlink:href="#arrowRight" x="0" y="0" onmousedown="handlePan(1,0)"/>
  <use id="arrowdown" xlink:href="#arrowDown" x="0" y="0" onmousedown="handlePan(0,1)"/>
  <use id="arrowleft" xlink:href="#arrowLeft" x="0" y="0" onmousedown="handlePan(-1,0)"/>
</g>
<svg viewBox="0 0 15 15" width="100%" height="30px" preserveAspectRatio="xMaxYMin meet">
 <g id="arrow_out" transform="scale(0.3 0.3)">
  <a xlink:href="classexamples_1_1scheduling_1_1fitness_a8d58e9d7e95ceb929858cdc06b0eda47_cgraph_org.svg" target="_base">
   <rect id="button" ry="5" rx="5" y="6" x="6" height="38" width="38"
        fill="#f2f5e9" fill-opacity="0.5" stroke="#606060" stroke-width="1.0"/>
   <path id="arrow"
     d="M 11.500037,31.436501 C 11.940474,20.09759 22.043105,11.32322 32.158766,21.979434 L 37.068811,17.246167 C 37.068811,17.246167 37.088388,32 37.088388,32 L 22.160133,31.978069 C 22.160133,31.978069 26.997745,27.140456 26.997745,27.140456 C 18.528582,18.264221 13.291696,25.230495 11.500037,31.436501 z"
     style="fill:#404040;"/>
  </a>
 </g>
</svg>

<style type='text/css'>
<![CDATA[
[data-mouse-over-selected='false'] { opacity: 0.7; }
[data-mouse-over-selected='true']  { opacity: 1.0; }
]]>
</style>
<script type="application/ecmascript"><![CDATA[
document.addEventListener('DOMContentLoaded', (event) => {
  highlightEdges();
  highlightAdjacentNodes();
});
]]></script>
</svg>
