<?xml version="1.0" encoding="UTF-8" standalone="no"?>
<!DOCTYPE svg PUBLIC "-//W3C//DTD SVG 1.1//EN"
 "http://www.w3.org/Graphics/SVG/1.1/DTD/svg11.dtd">
<!-- Generated by graphviz version 12.2.1 (20241206.2353)
 -->
<!-- Title: fcmaes.mapelites.Archive.get_ys Pages: 1 -->
<!--zoomable 280 -->

<svg id="main" version="1.1" xmlns="http://www.w3.org/2000/svg" xmlns:xlink="http://www.w3.org/1999/xlink" xml:space="preserve" onload="init(evt)">

<style type="text/css"><![CDATA[
.node, .edge {opacity: 0.7;}
.node.selected, .edge.selected {opacity: 1;}
.edge:hover path { stroke: red; }
.edge:hover polygon { stroke: red; fill: red; }
]]></style>

<defs>
  <circle id="rim" cx="0" cy="0" r="7"/>
  <circle id="rim2" cx="0" cy="0" r="3.5"/>
  <g id="zoomPlus">
    <use xlink:href="#rim" fill="#404040"><set attributeName="fill" to="#808080" begin="zoomplus.mouseover" end="zoomplus.mouseout"/></use>
    <path d="M-4,0h8M0,-4v8" fill="none" stroke="white" stroke-width="1.5" pointer-events="none"/>
  </g>
  <g id="zoomMin">
    <use xlink:href="#rim" fill="#404040"><set attributeName="fill" to="#808080" begin="zoomminus.mouseover" end="zoomminus.mouseout"/></use>
    <path d="M-4,0h8" fill="none" stroke="white" stroke-width="1.5" pointer-events="none"/>
  </g>
  <g id="arrowUp" transform="translate(30 24)">
    <use xlink:href="#rim"/>
    <path pointer-events="none" fill="none" stroke="white" stroke-width="1.5" d="M0,-3.0v7 M-2.5,-0.5L0,-3.0L2.5,-0.5"/>
  </g>
  <g id="arrowRight" transform="rotate(90) translate(36 -43)">
    <use xlink:href="#rim"/>
    <path pointer-events="none" fill="none" stroke="white" stroke-width="1.5" d="M0,-3.0v7 M-2.5,-0.5L0,-3.0L2.5,-0.5"/>
  </g>
  <g id="arrowDown" transform="rotate(180) translate(-30 -48)">
    <use xlink:href="#rim"/>
    <path pointer-events="none" fill="none" stroke="white" stroke-width="1.5" d="M0,-3.0v7 M-2.5,-0.5L0,-3.0L2.5,-0.5"/>
  </g>
  <g id="arrowLeft" transform="rotate(270) translate(-36 17)">
    <use xlink:href="#rim"/>
    <path pointer-events="none" fill="none" stroke="white" stroke-width="1.5" d="M0,-3.0v7 M-2.5,-0.5L0,-3.0L2.5,-0.5"/>
  </g>
  <g id="resetDef">
    <use xlink:href="#rim2" fill="#404040"><set attributeName="fill" to="#808080" begin="reset.mouseover" end="reset.mouseout"/></use>
  </g>
</defs>
<script type="application/ecmascript">
var viewWidth = 546;
var viewHeight = 280;
var sectionId = 'dynsection-24';
</script>
<script type="application/ecmascript" xlink:href="svg.min.js"/>
<svg id="graph" class="graph">
<g id="viewport">
<title>fcmaes.mapelites.Archive.get_ys</title>
<!-- Node1 -->
<g id="Node000001" class="node">
<title>Node1</title>
<g id="a_Node000001"><a xlink:title="Returns a copy of the ys array.">
<polygon fill="#999999" stroke="#666666" points="537.75,-140 376.25,-140 376.25,-120 537.75,-120 537.75,-140"/>
<text text-anchor="middle" x="457" y="-126.5" font-family="Helvetica,sans-Serif" font-size="10.00">fcmaes.mapelites.Archive.get_ys</text>
</a>
</g>
</g>
<!-- Node2 -->
<g id="Node000002" class="node">
<title>Node2</title>
<g id="a_Node000002"><a xlink:href="classfcmaes_1_1mapelites_1_1_archive.html#a0bcd8007cc5cf709da8ccc42aa2c46eb" target="_top" xlink:title="Prints a sorted dump of data points up to the specified limit.">
<polygon fill="white" stroke="#666666" points="340.25,-272 184,-272 184,-252 340.25,-252 340.25,-272"/>
<text text-anchor="middle" x="262.12" y="-258.5" font-family="Helvetica,sans-Serif" font-size="10.00">fcmaes.mapelites.Archive.dump</text>
</a>
</g>
</g>
<!-- Node1&#45;&gt;Node2 -->
<g id="edge1_Node000001_Node000002" class="edge">
<title>Node1&#45;&gt;Node2</title>
<g id="a_edge1_Node000001_Node000002"><a xlink:title=" ">
<path fill="none" stroke="#63b8ff" d="M441.7,-149.31C421.82,-174.74 383.37,-219.02 340.25,-243 334.1,-246.42 327.34,-249.23 320.46,-251.54"/>
<polygon fill="#63b8ff" stroke="#63b8ff" points="444.4,-151.55 447.69,-141.48 438.83,-147.3 444.4,-151.55"/>
</a>
</g>
</g>
<!-- Node4 -->
<g id="Node000004" class="node">
<title>Node4</title>
<g id="a_Node000004"><a xlink:href="classfcmaes_1_1retry_1_1_store.html#a0049736307028e256c038d8a8c1723d2" target="_top" xlink:title="Dumps debugging information if debugging is active.">
<polygon fill="white" stroke="#666666" points="323.75,-234 200.5,-234 200.5,-214 323.75,-214 323.75,-234"/>
<text text-anchor="middle" x="262.12" y="-220.5" font-family="Helvetica,sans-Serif" font-size="10.00">fcmaes.retry.Store.dump</text>
</a>
</g>
</g>
<!-- Node1&#45;&gt;Node4 -->
<g id="edge3_Node000001_Node000004" class="edge">
<title>Node1&#45;&gt;Node4</title>
<g id="a_edge3_Node000001_Node000004"><a xlink:title=" ">
<path fill="none" stroke="#63b8ff" d="M434.33,-147.22C411.97,-164.21 375.48,-189.76 340.25,-205 332.53,-208.34 324.11,-211.17 315.76,-213.54"/>
<polygon fill="#63b8ff" stroke="#63b8ff" points="436.31,-150.12 442.08,-141.24 432.03,-144.58 436.31,-150.12"/>
</a>
</g>
</g>
<!-- Node5 -->
<g id="Node000005" class="node">
<title>Node5</title>
<g id="a_Node000005"><a xlink:href="classfcmaes_1_1mapelites_1_1_archive.html#ad4060a6948b61fe981b124afc8c12ba4" target="_top" xlink:title="Retrieves the data points marked as &quot;occupied&quot;.">
<polygon fill="white" stroke="#666666" points="335,-196 189.25,-196 189.25,-164 335,-164 335,-196"/>
<text text-anchor="start" x="197.25" y="-182.5" font-family="Helvetica,sans-Serif" font-size="10.00">fcmaes.mapelites.Archive.get</text>
<text text-anchor="middle" x="262.12" y="-170.5" font-family="Helvetica,sans-Serif" font-size="10.00">_occupied_data</text>
</a>
</g>
</g>
<!-- Node1&#45;&gt;Node5 -->
<g id="edge5_Node000001_Node000005" class="edge">
<title>Node1&#45;&gt;Node5</title>
<g id="a_edge5_Node000001_Node000005"><a xlink:title=" ">
<path fill="none" stroke="#63b8ff" d="M404.59,-143.33C380.65,-149.53 351.94,-156.98 326.66,-163.53"/>
<polygon fill="#63b8ff" stroke="#63b8ff" points="405.3,-146.76 414.1,-140.86 403.54,-139.98 405.3,-146.76"/>
</a>
</g>
</g>
<!-- Node6 -->
<g id="Node000006" class="node">
<title>Node6</title>
<g id="a_Node000006"><a xlink:href="classfcmaes_1_1mapelites_1_1_archive.html#a50c9e9bac3b339e4158614dad396bb18" target="_top" xlink:title="Calculates the QD (Quality&#45;Diversity) score based on the provided array of values.">
<polygon fill="white" stroke="#666666" points="335,-146 189.25,-146 189.25,-114 335,-114 335,-146"/>
<text text-anchor="start" x="197.25" y="-132.5" font-family="Helvetica,sans-Serif" font-size="10.00">fcmaes.mapelites.Archive.get</text>
<text text-anchor="middle" x="262.12" y="-120.5" font-family="Helvetica,sans-Serif" font-size="10.00">_qd_score</text>
</a>
</g>
</g>
<!-- Node1&#45;&gt;Node6 -->
<g id="edge6_Node000001_Node000006" class="edge">
<title>Node1&#45;&gt;Node6</title>
<g id="a_edge6_Node000001_Node000006"><a xlink:title=" ">
<path fill="none" stroke="#63b8ff" d="M364.45,-130C354.66,-130 344.81,-130 335.29,-130"/>
<polygon fill="#63b8ff" stroke="#63b8ff" points="364.37,-133.5 374.37,-130 364.37,-126.5 364.37,-133.5"/>
</a>
</g>
</g>
<!-- Node7 -->
<g id="Node000007" class="node">
<title>Node7</title>
<g id="a_Node000007"><a xlink:href="classfcmaes_1_1mapelites_1_1_archive.html#a4299111d24891cea4a03c19f28360923" target="_top" xlink:title="Generates a formatted string containing key metrics.">
<polygon fill="white" stroke="#666666" points="148,-118 0,-118 0,-98 148,-98 148,-118"/>
<text text-anchor="middle" x="74" y="-104.5" font-family="Helvetica,sans-Serif" font-size="10.00">fcmaes.mapelites.Archive.info</text>
</a>
</g>
</g>
<!-- Node1&#45;&gt;Node7 -->
<g id="edge8_Node000001_Node000007" class="edge">
<title>Node1&#45;&gt;Node7</title>
<g id="a_edge8_Node000001_Node000007"><a xlink:title=" ">
<path fill="none" stroke="#63b8ff" d="M406.57,-116.9C386.19,-112.14 362.24,-107.35 340.25,-105 275.68,-98.11 201.77,-99.72 148.4,-102.55"/>
<polygon fill="#63b8ff" stroke="#63b8ff" points="405.47,-120.24 416.02,-119.18 407.11,-113.43 405.47,-120.24"/>
</a>
</g>
</g>
<!-- Node8 -->
<g id="Node000008" class="node">
<title>Node8</title>
<g id="a_Node000008"><a xlink:href="classfcmaes_1_1mapelites_1_1_archive.html#a62da9c6f511c298d1ef06d6af7600196" target="_top" xlink:title="Loads data from a specified file into the current object, initializing or updating its properties and...">
<polygon fill="white" stroke="#666666" points="337.25,-58 187,-58 187,-38 337.25,-38 337.25,-58"/>
<text text-anchor="middle" x="262.12" y="-44.5" font-family="Helvetica,sans-Serif" font-size="10.00">fcmaes.mapelites.Archive.load</text>
</a>
</g>
</g>
<!-- Node1&#45;&gt;Node8 -->
<g id="edge9_Node000001_Node000008" class="edge">
<title>Node1&#45;&gt;Node8</title>
<g id="a_edge9_Node000001_Node000008"><a xlink:title=" ">
<path fill="none" stroke="#63b8ff" d="M427.78,-114.23C404.71,-101.74 370.98,-84.39 340.25,-72 327.63,-66.92 313.51,-62.24 300.82,-58.39"/>
<polygon fill="#63b8ff" stroke="#63b8ff" points="425.81,-117.14 436.26,-118.87 429.17,-111 425.81,-117.14"/>
</a>
</g>
</g>
<!-- Node9 -->
<g id="Node000009" class="node">
<title>Node9</title>
<g id="a_Node000009"><a xlink:href="classfcmaes_1_1mapelites_1_1_archive.html#aedbfd9567b2d8da13a94da232465aa42" target="_top" xlink:title="Saves the processed data and corresponding metadata in a compressed NPZ format.">
<polygon fill="white" stroke="#666666" points="338.75,-20 185.5,-20 185.5,0 338.75,0 338.75,-20"/>
<text text-anchor="middle" x="262.12" y="-6.5" font-family="Helvetica,sans-Serif" font-size="10.00">fcmaes.mapelites.Archive.save</text>
</a>
</g>
</g>
<!-- Node1&#45;&gt;Node9 -->
<g id="edge10_Node000001_Node000009" class="edge">
<title>Node1&#45;&gt;Node9</title>
<g id="a_edge10_Node000001_Node000009"><a xlink:title=" ">
<path fill="none" stroke="#63b8ff" d="M439.71,-111.1C418.94,-88.21 380.8,-50.09 340.25,-29 333.64,-25.56 326.39,-22.73 319.06,-20.4"/>
<polygon fill="#63b8ff" stroke="#63b8ff" points="437.01,-113.33 446.27,-118.48 442.25,-108.68 437.01,-113.33"/>
</a>
</g>
</g>
<!-- Node3 -->
<g id="Node000003" class="node">
<title>Node3</title>
<g id="a_Node000003"><a xlink:href="classfcmaes_1_1retry_1_1_store.html#aed35531d1489fd7b28d69dc3c9794508" target="_top" xlink:title="Adds a result to the data structure, updating statistical values and recording the given data point.">
<polygon fill="white" stroke="#666666" points="131.5,-259 16.5,-259 16.5,-227 131.5,-227 131.5,-259"/>
<text text-anchor="start" x="24.5" y="-245.5" font-family="Helvetica,sans-Serif" font-size="10.00">fcmaes.retry.Store.add</text>
<text text-anchor="middle" x="74" y="-233.5" font-family="Helvetica,sans-Serif" font-size="10.00">_result</text>
</a>
</g>
</g>
<!-- Node2&#45;&gt;Node3 -->
<g id="edge2_Node000002_Node000003" class="edge">
<title>Node2&#45;&gt;Node3</title>
<g id="a_edge2_Node000002_Node000003"><a xlink:title=" ">
<path fill="none" stroke="#63b8ff" d="M172.48,-252.95C158.63,-251.54 144.64,-250.11 131.76,-248.79"/>
<polygon fill="#63b8ff" stroke="#63b8ff" points="171.73,-256.39 182.03,-253.93 172.44,-249.43 171.73,-256.39"/>
</a>
</g>
</g>
<!-- Node4&#45;&gt;Node3 -->
<g id="edge4_Node000004_Node000003" class="edge">
<title>Node4&#45;&gt;Node3</title>
<g id="a_edge4_Node000004_Node000003"><a xlink:title=" ">
<path fill="none" stroke="#63b8ff" d="M188.92,-231.37C170.04,-233.3 149.95,-235.35 131.98,-237.18"/>
<polygon fill="#63b8ff" stroke="#63b8ff" points="189.08,-234.87 198.67,-230.38 188.37,-227.91 189.08,-234.87"/>
</a>
</g>
</g>
<!-- Node6&#45;&gt;Node7 -->
<g id="edge7_Node000006_Node000007" class="edge">
<title>Node6&#45;&gt;Node7</title>
<g id="a_edge7_Node000006_Node000007"><a xlink:title=" ">
<path fill="none" stroke="#63b8ff" d="M177.57,-120.12C167.85,-118.97 157.99,-117.81 148.41,-116.68"/>
<polygon fill="#63b8ff" stroke="#63b8ff" points="177.05,-123.59 187.39,-121.29 177.87,-116.64 177.05,-123.59"/>
</a>
</g>
</g>
</g>
</svg>

<g id="navigator" transform="translate(0 0)" fill="#404254">
  <rect fill="#f2f5e9" fill-opacity="0.5" stroke="#606060" stroke-width=".5" x="0" y="0" width="60" height="60"/>
  <use id="zoomplus" xlink:href="#zoomPlus" x="17" y="9" onmousedown="handleZoom(evt,'in')"/>
  <use id="zoomminus" xlink:href="#zoomMin" x="42" y="9" onmousedown="handleZoom(evt,'out')"/>
  <use id="reset" xlink:href="#resetDef" x="30" y="36" onmousedown="handleReset()"/>
   <use id="arrowup" xlink:href="#arrowUp" x="0" y="0" onmousedown="handlePan(0,-1)"/>
  <use id="arrowright" xlink:href="#arrowRight" x="0" y="0" onmousedown="handlePan(1,0)"/>
  <use id="arrowdown" xlink:href="#arrowDown" x="0" y="0" onmousedown="handlePan(0,1)"/>
  <use id="arrowleft" xlink:href="#arrowLeft" x="0" y="0" onmousedown="handlePan(-1,0)"/>
</g>
<svg viewBox="0 0 15 15" width="100%" height="30px" preserveAspectRatio="xMaxYMin meet">
 <g id="arrow_out" transform="scale(0.3 0.3)">
  <a xlink:href="classfcmaes_1_1mapelites_1_1_archive_a91c9f1ac5485896833fc7b9859b85af1_icgraph_org.svg" target="_base">
   <rect id="button" ry="5" rx="5" y="6" x="6" height="38" width="38"
        fill="#f2f5e9" fill-opacity="0.5" stroke="#606060" stroke-width="1.0"/>
   <path id="arrow"
     d="M 11.500037,31.436501 C 11.940474,20.09759 22.043105,11.32322 32.158766,21.979434 L 37.068811,17.246167 C 37.068811,17.246167 37.088388,32 37.088388,32 L 22.160133,31.978069 C 22.160133,31.978069 26.997745,27.140456 26.997745,27.140456 C 18.528582,18.264221 13.291696,25.230495 11.500037,31.436501 z"
     style="fill:#404040;"/>
  </a>
 </g>
</svg>

<style type='text/css'>
<![CDATA[
[data-mouse-over-selected='false'] { opacity: 0.7; }
[data-mouse-over-selected='true']  { opacity: 1.0; }
]]>
</style>
<script type="application/ecmascript"><![CDATA[
document.addEventListener('DOMContentLoaded', (event) => {
  highlightEdges();
  highlightAdjacentNodes();
});
]]></script>
</svg>
