<?xml version="1.0" encoding="UTF-8" standalone="no"?>
<!DOCTYPE svg PUBLIC "-//W3C//DTD SVG 1.1//EN"
 "http://www.w3.org/Graphics/SVG/1.1/DTD/svg11.dtd">
<!-- Generated by graphviz version 12.2.1 (20241206.2353)
 -->
<!-- Title: differential_evolution::DeOptimizer::tellAll Pages: 1 -->
<!--zoomable 134 -->

<svg id="main" version="1.1" xmlns="http://www.w3.org/2000/svg" xmlns:xlink="http://www.w3.org/1999/xlink" xml:space="preserve" onload="init(evt)">

<style type="text/css"><![CDATA[
.node, .edge {opacity: 0.7;}
.node.selected, .edge.selected {opacity: 1;}
.edge:hover path { stroke: red; }
.edge:hover polygon { stroke: red; fill: red; }
]]></style>

<defs>
  <circle id="rim" cx="0" cy="0" r="7"/>
  <circle id="rim2" cx="0" cy="0" r="3.5"/>
  <g id="zoomPlus">
    <use xlink:href="#rim" fill="#404040"><set attributeName="fill" to="#808080" begin="zoomplus.mouseover" end="zoomplus.mouseout"/></use>
    <path d="M-4,0h8M0,-4v8" fill="none" stroke="white" stroke-width="1.5" pointer-events="none"/>
  </g>
  <g id="zoomMin">
    <use xlink:href="#rim" fill="#404040"><set attributeName="fill" to="#808080" begin="zoomminus.mouseover" end="zoomminus.mouseout"/></use>
    <path d="M-4,0h8" fill="none" stroke="white" stroke-width="1.5" pointer-events="none"/>
  </g>
  <g id="arrowUp" transform="translate(30 24)">
    <use xlink:href="#rim"/>
    <path pointer-events="none" fill="none" stroke="white" stroke-width="1.5" d="M0,-3.0v7 M-2.5,-0.5L0,-3.0L2.5,-0.5"/>
  </g>
  <g id="arrowRight" transform="rotate(90) translate(36 -43)">
    <use xlink:href="#rim"/>
    <path pointer-events="none" fill="none" stroke="white" stroke-width="1.5" d="M0,-3.0v7 M-2.5,-0.5L0,-3.0L2.5,-0.5"/>
  </g>
  <g id="arrowDown" transform="rotate(180) translate(-30 -48)">
    <use xlink:href="#rim"/>
    <path pointer-events="none" fill="none" stroke="white" stroke-width="1.5" d="M0,-3.0v7 M-2.5,-0.5L0,-3.0L2.5,-0.5"/>
  </g>
  <g id="arrowLeft" transform="rotate(270) translate(-36 17)">
    <use xlink:href="#rim"/>
    <path pointer-events="none" fill="none" stroke="white" stroke-width="1.5" d="M0,-3.0v7 M-2.5,-0.5L0,-3.0L2.5,-0.5"/>
  </g>
  <g id="resetDef">
    <use xlink:href="#rim2" fill="#404040"><set attributeName="fill" to="#808080" begin="reset.mouseover" end="reset.mouseout"/></use>
  </g>
</defs>
<script type="application/ecmascript">
var viewWidth = 828;
var viewHeight = 134;
var sectionId = 'dynsection-23';
</script>
<script type="application/ecmascript" xlink:href="svg.min.js"/>
<svg id="graph" class="graph">
<g id="viewport">
<title>differential_evolution::DeOptimizer::tellAll</title>
<!-- Node1 -->
<g id="Node000001" class="node">
<title>Node1</title>
<g id="a_Node000001"><a xlink:title=" ">
<polygon fill="#999999" stroke="#666666" points="106.75,-76 0,-76 0,-44 106.75,-44 106.75,-76"/>
<text text-anchor="start" x="8" y="-62.5" font-family="Helvetica,sans-Serif" font-size="10.00">differential_evolution</text>
<text text-anchor="middle" x="53.38" y="-50.5" font-family="Helvetica,sans-Serif" font-size="10.00">::DeOptimizer::tellAll</text>
</a>
</g>
</g>
<!-- Node2 -->
<g id="Node000002" class="node">
<title>Node2</title>
<g id="a_Node000002"><a xlink:href="classdifferential__evolution_1_1_de_optimizer.html#accf9be34ac5d30b9a2df15dba24f4dce" target="_top" xlink:title=" ">
<polygon fill="white" stroke="#666666" points="247.25,-76 142.75,-76 142.75,-44 247.25,-44 247.25,-76"/>
<text text-anchor="start" x="150.75" y="-62.5" font-family="Helvetica,sans-Serif" font-size="10.00">differential_evolution</text>
<text text-anchor="middle" x="195" y="-50.5" font-family="Helvetica,sans-Serif" font-size="10.00">::DeOptimizer::tell</text>
</a>
</g>
</g>
<!-- Node1&#45;&gt;Node2 -->
<g id="edge1_Node000001_Node000002" class="edge">
<title>Node1&#45;&gt;Node2</title>
<g id="a_edge1_Node000001_Node000002"><a xlink:title=" ">
<path fill="none" stroke="#63b8ff" d="M107.16,-60C115.03,-60 123.22,-60 131.27,-60"/>
<polygon fill="#63b8ff" stroke="#63b8ff" points="131.01,-63.5 141.01,-60 131.01,-56.5 131.01,-63.5"/>
</a>
</g>
</g>
<!-- Node3 -->
<g id="Node000003" class="node">
<title>Node3</title>
<g id="a_Node000003"><a xlink:href="classdifferential__evolution_1_1_de_optimizer.html#aff18de19791b75f799d4aa5e9c60b5fa" target="_top" xlink:title=" ">
<polygon fill="white" stroke="#666666" points="424.5,-120 283.25,-120 283.25,-88 424.5,-88 424.5,-120"/>
<text text-anchor="start" x="291.25" y="-106.5" font-family="Helvetica,sans-Serif" font-size="10.00">differential_evolution</text>
<text text-anchor="middle" x="353.88" y="-94.5" font-family="Helvetica,sans-Serif" font-size="10.00">::DeOptimizer::next_improve</text>
</a>
</g>
</g>
<!-- Node2&#45;&gt;Node3 -->
<g id="edge2_Node000002_Node000003" class="edge">
<title>Node2&#45;&gt;Node3</title>
<g id="a_edge2_Node000002_Node000003"><a xlink:title=" ">
<path fill="none" stroke="#63b8ff" d="M247.37,-74.41C258.86,-77.63 271.24,-81.1 283.33,-84.49"/>
<polygon fill="#63b8ff" stroke="#63b8ff" points="282.29,-87.84 292.86,-87.17 284.18,-81.1 282.29,-87.84"/>
</a>
</g>
</g>
<!-- Node5 -->
<g id="Node000005" class="node">
<title>Node5</title>
<g id="a_Node000005"><a xlink:href="classdifferential__evolution_1_1_de_optimizer.html#a922dfb6a6903d18311a87e2fe553c78b" target="_top" xlink:title=" ">
<polygon fill="white" stroke="#666666" points="722.75,-76 616,-76 616,-44 722.75,-44 722.75,-76"/>
<text text-anchor="start" x="624" y="-62.5" font-family="Helvetica,sans-Serif" font-size="10.00">differential_evolution</text>
<text text-anchor="middle" x="669.38" y="-50.5" font-family="Helvetica,sans-Serif" font-size="10.00">::DeOptimizer::rnd01</text>
</a>
</g>
</g>
<!-- Node2&#45;&gt;Node5 -->
<g id="edge7_Node000002_Node000005" class="edge">
<title>Node2&#45;&gt;Node5</title>
<g id="a_edge7_Node000002_Node000005"><a xlink:title=" ">
<path fill="none" stroke="#63b8ff" d="M247.45,-60C334.22,-60 509.42,-60 604.13,-60"/>
<polygon fill="#63b8ff" stroke="#63b8ff" points="604.03,-63.5 614.03,-60 604.03,-56.5 604.03,-63.5"/>
</a>
</g>
</g>
<!-- Node8 -->
<g id="Node000008" class="node">
<title>Node8</title>
<g id="a_Node000008"><a xlink:href="classdifferential__evolution_1_1_de_optimizer.html#a750fb2ff0c0981be30414916d8c872bf" target="_top" xlink:title=" ">
<polygon fill="white" stroke="#666666" points="411,-32 296.75,-32 296.75,0 411,0 411,-32"/>
<text text-anchor="start" x="304.75" y="-18.5" font-family="Helvetica,sans-Serif" font-size="10.00">differential_evolution</text>
<text text-anchor="middle" x="353.88" y="-6.5" font-family="Helvetica,sans-Serif" font-size="10.00">::DeOptimizer::sample</text>
</a>
</g>
</g>
<!-- Node2&#45;&gt;Node8 -->
<g id="edge8_Node000002_Node000008" class="edge">
<title>Node2&#45;&gt;Node8</title>
<g id="a_edge8_Node000002_Node000008"><a xlink:title=" ">
<path fill="none" stroke="#63b8ff" d="M247.37,-45.59C259.53,-42.18 272.68,-38.49 285.44,-34.91"/>
<polygon fill="#63b8ff" stroke="#63b8ff" points="286.38,-38.29 295.06,-32.22 284.49,-31.55 286.38,-38.29"/>
</a>
</g>
</g>
<!-- Node4 -->
<g id="Node000004" class="node">
<title>Node4</title>
<g id="a_Node000004"><a xlink:href="classdifferential__evolution_1_1_de_optimizer.html#a9f8d2654bcad80c32d9358faa62cebd9" target="_top" xlink:title=" ">
<polygon fill="white" stroke="#666666" points="572.5,-120 460.5,-120 460.5,-88 572.5,-88 572.5,-120"/>
<text text-anchor="start" x="468.5" y="-106.5" font-family="Helvetica,sans-Serif" font-size="10.00">differential_evolution</text>
<text text-anchor="middle" x="516.5" y="-94.5" font-family="Helvetica,sans-Serif" font-size="10.00">::DeOptimizer::modify</text>
</a>
</g>
</g>
<!-- Node3&#45;&gt;Node4 -->
<g id="edge3_Node000003_Node000004" class="edge">
<title>Node3&#45;&gt;Node4</title>
<g id="a_edge3_Node000003_Node000004"><a xlink:title=" ">
<path fill="none" stroke="#63b8ff" d="M424.86,-104C432.81,-104 440.9,-104 448.81,-104"/>
<polygon fill="#63b8ff" stroke="#63b8ff" points="448.72,-107.5 458.72,-104 448.72,-100.5 448.72,-107.5"/>
</a>
</g>
</g>
<!-- Node4&#45;&gt;Node5 -->
<g id="edge4_Node000004_Node000005" class="edge">
<title>Node4&#45;&gt;Node5</title>
<g id="a_edge4_Node000004_Node000005"><a xlink:title=" ">
<path fill="none" stroke="#63b8ff" d="M572.82,-87.87C583.19,-84.84 594.09,-81.66 604.68,-78.57"/>
<polygon fill="#63b8ff" stroke="#63b8ff" points="605.5,-81.98 614.12,-75.82 603.54,-75.26 605.5,-81.98"/>
</a>
</g>
</g>
<!-- Node6 -->
<g id="Node000006" class="node">
<title>Node6</title>
<g id="a_Node000006"><a xlink:href="classdifferential__evolution_1_1_de_optimizer.html#a427ae953a5503dc4369da1bbb338fe67" target="_top" xlink:title=" ">
<polygon fill="white" stroke="#666666" points="730.25,-126 608.5,-126 608.5,-94 730.25,-94 730.25,-126"/>
<text text-anchor="start" x="616.5" y="-112.5" font-family="Helvetica,sans-Serif" font-size="10.00">differential_evolution</text>
<text text-anchor="middle" x="669.38" y="-100.5" font-family="Helvetica,sans-Serif" font-size="10.00">::DeOptimizer::sample_i</text>
</a>
</g>
</g>
<!-- Node4&#45;&gt;Node6 -->
<g id="edge5_Node000004_Node000006" class="edge">
<title>Node4&#45;&gt;Node6</title>
<g id="a_edge5_Node000004_Node000006"><a xlink:title=" ">
<path fill="none" stroke="#63b8ff" d="M572.82,-106.2C580.65,-106.51 588.8,-106.84 596.88,-107.16"/>
<polygon fill="#63b8ff" stroke="#63b8ff" points="596.59,-110.65 606.72,-107.55 596.86,-103.65 596.59,-110.65"/>
</a>
</g>
</g>
<!-- Node7 -->
<g id="Node000007" class="node">
<title>Node7</title>
<g id="a_Node000007"><a xlink:href="evaluator_8h.html#aa3d770d0f4bda035e2cc8c6f5c1b0aee" target="_top" xlink:title=" ">
<polygon fill="white" stroke="#666666" points="819.75,-120 766.25,-120 766.25,-100 819.75,-100 819.75,-120"/>
<text text-anchor="middle" x="793" y="-106.5" font-family="Helvetica,sans-Serif" font-size="10.00">normreal</text>
</a>
</g>
</g>
<!-- Node6&#45;&gt;Node7 -->
<g id="edge6_Node000006_Node000007" class="edge">
<title>Node6&#45;&gt;Node7</title>
<g id="a_edge6_Node000006_Node000007"><a xlink:title=" ">
<path fill="none" stroke="#63b8ff" d="M730.47,-110C738.64,-110 746.83,-110 754.44,-110"/>
<polygon fill="#63b8ff" stroke="#63b8ff" points="754.34,-113.5 764.34,-110 754.34,-106.5 754.34,-113.5"/>
</a>
</g>
</g>
<!-- Node9 -->
<g id="Node000009" class="node">
<title>Node9</title>
<g id="a_Node000009"><a xlink:href="evaluator_8h.html#a5b652df2286e1f0c4dae7d4dd841bb8f" target="_top" xlink:title=" ">
<polygon fill="white" stroke="#666666" points="547.38,-26 485.62,-26 485.62,-6 547.38,-6 547.38,-26"/>
<text text-anchor="middle" x="516.5" y="-12.5" font-family="Helvetica,sans-Serif" font-size="10.00">normalVec</text>
</a>
</g>
</g>
<!-- Node8&#45;&gt;Node9 -->
<g id="edge9_Node000008_Node000009" class="edge">
<title>Node8&#45;&gt;Node9</title>
<g id="a_edge9_Node000008_Node000009"><a xlink:title=" ">
<path fill="none" stroke="#63b8ff" d="M411.05,-16C431.73,-16 454.76,-16 473.92,-16"/>
<polygon fill="#63b8ff" stroke="#63b8ff" points="473.79,-19.5 483.79,-16 473.79,-12.5 473.79,-19.5"/>
</a>
</g>
</g>
</g>
</svg>

<g id="navigator" transform="translate(0 0)" fill="#404254">
  <rect fill="#f2f5e9" fill-opacity="0.5" stroke="#606060" stroke-width=".5" x="0" y="0" width="60" height="60"/>
  <use id="zoomplus" xlink:href="#zoomPlus" x="17" y="9" onmousedown="handleZoom(evt,'in')"/>
  <use id="zoomminus" xlink:href="#zoomMin" x="42" y="9" onmousedown="handleZoom(evt,'out')"/>
  <use id="reset" xlink:href="#resetDef" x="30" y="36" onmousedown="handleReset()"/>
   <use id="arrowup" xlink:href="#arrowUp" x="0" y="0" onmousedown="handlePan(0,-1)"/>
  <use id="arrowright" xlink:href="#arrowRight" x="0" y="0" onmousedown="handlePan(1,0)"/>
  <use id="arrowdown" xlink:href="#arrowDown" x="0" y="0" onmousedown="handlePan(0,1)"/>
  <use id="arrowleft" xlink:href="#arrowLeft" x="0" y="0" onmousedown="handlePan(-1,0)"/>
</g>
<svg viewBox="0 0 15 15" width="100%" height="30px" preserveAspectRatio="xMaxYMin meet">
 <g id="arrow_out" transform="scale(0.3 0.3)">
  <a xlink:href="classdifferential__evolution_1_1_de_optimizer_aa1d0f0d9ddbb192cb30b470d8c3c1af0_cgraph_org.svg" target="_base">
   <rect id="button" ry="5" rx="5" y="6" x="6" height="38" width="38"
        fill="#f2f5e9" fill-opacity="0.5" stroke="#606060" stroke-width="1.0"/>
   <path id="arrow"
     d="M 11.500037,31.436501 C 11.940474,20.09759 22.043105,11.32322 32.158766,21.979434 L 37.068811,17.246167 C 37.068811,17.246167 37.088388,32 37.088388,32 L 22.160133,31.978069 C 22.160133,31.978069 26.997745,27.140456 26.997745,27.140456 C 18.528582,18.264221 13.291696,25.230495 11.500037,31.436501 z"
     style="fill:#404040;"/>
  </a>
 </g>
</svg>

<style type='text/css'>
<![CDATA[
[data-mouse-over-selected='false'] { opacity: 0.7; }
[data-mouse-over-selected='true']  { opacity: 1.0; }
]]>
</style>
<script type="application/ecmascript"><![CDATA[
document.addEventListener('DOMContentLoaded', (event) => {
  highlightEdges();
  highlightAdjacentNodes();
});
]]></script>
</svg>
