<?xml version="1.0" encoding="UTF-8" standalone="no"?>
<!DOCTYPE svg PUBLIC "-//W3C//DTD SVG 1.1//EN"
 "http://www.w3.org/Graphics/SVG/1.1/DTD/svg11.dtd">
<!-- Generated by graphviz version 12.2.1 (20241206.2353)
 -->
<!-- Title: CBiteOrt::update Pages: 1 -->
<svg width="507pt" height="356pt"
 viewBox="0.00 0.00 507.00 356.00" xmlns="http://www.w3.org/2000/svg" xmlns:xlink="http://www.w3.org/1999/xlink">
<g id="graph0" class="graph" transform="scale(1 1) rotate(0) translate(4 352)">
<title>CBiteOrt::update</title>
<!-- Node1 -->
<g id="Node000001" class="node">
<title>Node1</title>
<g id="a_Node000001"><a xlink:title=" ">
<polygon fill="#999999" stroke="#666666" points="89.5,-172 0,-172 0,-152 89.5,-152 89.5,-172"/>
<text text-anchor="middle" x="44.75" y="-158.5" font-family="Helvetica,sans-Serif" font-size="10.00">CBiteOrt::update</text>
</a>
</g>
</g>
<!-- Node2 -->
<g id="Node000002" class="node">
<title>Node2</title>
<g id="a_Node000002"><a xlink:href="class_c_bite_ort.html#a0d9cf0f06f8e894e9432fdc4486bc24b" target="_top" xlink:title=" ">
<polygon fill="white" stroke="#666666" points="240.12,-348 140.88,-348 140.88,-328 240.12,-328 240.12,-348"/>
<text text-anchor="middle" x="190.5" y="-334.5" font-family="Helvetica,sans-Serif" font-size="10.00">CBiteOrt::calcCent</text>
</a>
</g>
</g>
<!-- Node1&#45;&gt;Node2 -->
<g id="edge1_Node000001_Node000002" class="edge">
<title>Node1&#45;&gt;Node2</title>
<g id="a_edge1_Node000001_Node000002"><a xlink:title=" ">
<path fill="none" stroke="#63b8ff" d="M47.96,-172.2C54.53,-200.09 76.65,-278.29 125.5,-319 127.17,-320.39 128.94,-321.68 130.78,-322.88"/>
<polygon fill="#63b8ff" stroke="#63b8ff" points="128.72,-325.74 139.19,-327.38 132.03,-319.57 128.72,-325.74"/>
</a>
</g>
</g>
<!-- Node3 -->
<g id="Node000003" class="node">
<title>Node3</title>
<g id="a_Node000003"><a xlink:href="class_c_bite_pop.html#ad427518ed1d47fbe3c2222b3a11badb7" target="_top" xlink:title=" ">
<polygon fill="white" stroke="#666666" points="242.75,-310 138.25,-310 138.25,-278 242.75,-278 242.75,-310"/>
<text text-anchor="start" x="146.25" y="-296.5" font-family="Helvetica,sans-Serif" font-size="10.00">CBitePop&lt; double &gt;</text>
<text text-anchor="middle" x="190.5" y="-284.5" font-family="Helvetica,sans-Serif" font-size="10.00">::CBitePop</text>
</a>
</g>
</g>
<!-- Node1&#45;&gt;Node3 -->
<g id="edge2_Node000001_Node000003" class="edge">
<title>Node1&#45;&gt;Node3</title>
<g id="a_edge2_Node000001_Node000003"><a xlink:title=" ">
<path fill="none" stroke="#63b8ff" d="M50.89,-172.34C61.82,-193.37 89.39,-241.47 125.5,-269 126.8,-269.99 128.15,-270.95 129.54,-271.88"/>
<polygon fill="#63b8ff" stroke="#63b8ff" points="127.41,-274.69 137.8,-276.74 130.96,-268.66 127.41,-274.69"/>
</a>
</g>
</g>
<!-- Node4 -->
<g id="Node000004" class="node">
<title>Node4</title>
<g id="a_Node000004"><a xlink:href="class_c_bite_pop.html#a24130fea35014433f142e3b9ed0f8929" target="_top" xlink:title=" ">
<polygon fill="white" stroke="#666666" points="242.75,-260 138.25,-260 138.25,-228 242.75,-228 242.75,-260"/>
<text text-anchor="start" x="146.25" y="-246.5" font-family="Helvetica,sans-Serif" font-size="10.00">CBitePop&lt; double &gt;</text>
<text text-anchor="middle" x="190.5" y="-234.5" font-family="Helvetica,sans-Serif" font-size="10.00">::copyParams</text>
</a>
</g>
</g>
<!-- Node1&#45;&gt;Node4 -->
<g id="edge3_Node000001_Node000004" class="edge">
<title>Node1&#45;&gt;Node4</title>
<g id="a_edge3_Node000001_Node000004"><a xlink:title=" ">
<path fill="none" stroke="#63b8ff" d="M58.09,-172.31C73.24,-184.61 100.06,-205.22 125.5,-219 127.98,-220.34 130.54,-221.65 133.16,-222.92"/>
<polygon fill="#63b8ff" stroke="#63b8ff" points="131.49,-226 142.04,-226.97 134.4,-219.64 131.49,-226"/>
</a>
</g>
</g>
<!-- Node5 -->
<g id="Node000005" class="node">
<title>Node5</title>
<g id="a_Node000005"><a xlink:href="class_c_bite_ort.html#a51833c929e82998422cb7c0910378d62" target="_top" xlink:title=" ">
<polygon fill="white" stroke="#666666" points="230,-210 151,-210 151,-190 230,-190 230,-210"/>
<text text-anchor="middle" x="190.5" y="-196.5" font-family="Helvetica,sans-Serif" font-size="10.00">CBiteOrt::dotp</text>
</a>
</g>
</g>
<!-- Node1&#45;&gt;Node5 -->
<g id="edge4_Node000001_Node000005" class="edge">
<title>Node1&#45;&gt;Node5</title>
<g id="a_edge4_Node000001_Node000005"><a xlink:title=" ">
<path fill="none" stroke="#63b8ff" d="M85.41,-172.48C102.26,-176.94 122.09,-182.18 139.89,-186.89"/>
<polygon fill="#63b8ff" stroke="#63b8ff" points="138.94,-190.25 149.5,-189.43 140.72,-183.49 138.94,-190.25"/>
</a>
</g>
</g>
<!-- Node6 -->
<g id="Node000006" class="node">
<title>Node6</title>
<g id="a_Node000006"><a xlink:href="class_c_bite_ort.html#a77ae9fd22421595707c336bf14d3931a" target="_top" xlink:title=" ">
<polygon fill="white" stroke="#666666" points="232.25,-172 148.75,-172 148.75,-152 232.25,-152 232.25,-172"/>
<text text-anchor="middle" x="190.5" y="-158.5" font-family="Helvetica,sans-Serif" font-size="10.00">CBiteOrt::eigen</text>
</a>
</g>
</g>
<!-- Node1&#45;&gt;Node6 -->
<g id="edge5_Node000001_Node000006" class="edge">
<title>Node1&#45;&gt;Node6</title>
<g id="a_edge5_Node000001_Node000006"><a xlink:title=" ">
<path fill="none" stroke="#63b8ff" d="M89.66,-162C104.68,-162 121.62,-162 137.23,-162"/>
<polygon fill="#63b8ff" stroke="#63b8ff" points="136.8,-165.5 146.8,-162 136.8,-158.5 136.8,-165.5"/>
</a>
</g>
</g>
<!-- Node11 -->
<g id="Node000011" class="node">
<title>Node11</title>
<g id="a_Node000011"><a xlink:href="class_c_bite_pop.html#a5aef425d751172e1fff38a455cb51d34" target="_top" xlink:title=" ">
<polygon fill="white" stroke="#666666" points="255.5,-134 125.5,-134 125.5,-114 255.5,-114 255.5,-134"/>
<text text-anchor="middle" x="190.5" y="-120.5" font-family="Helvetica,sans-Serif" font-size="10.00">CBitePop::getCurPopSize</text>
</a>
</g>
</g>
<!-- Node1&#45;&gt;Node11 -->
<g id="edge10_Node000001_Node000011" class="edge">
<title>Node1&#45;&gt;Node11</title>
<g id="a_edge10_Node000001_Node000011"><a xlink:title=" ">
<path fill="none" stroke="#63b8ff" d="M85.41,-151.52C102.07,-147.11 121.63,-141.94 139.27,-137.28"/>
<polygon fill="#63b8ff" stroke="#63b8ff" points="139.73,-140.78 148.51,-134.84 137.94,-134.01 139.73,-140.78"/>
</a>
</g>
</g>
<!-- Node12 -->
<g id="Node000012" class="node">
<title>Node12</title>
<g id="a_Node000012"><a xlink:href="class_c_bite_pop.html#ac2a01e9eb6b884a0b318e4b914273acf" target="_top" xlink:title=" ">
<polygon fill="white" stroke="#666666" points="254.75,-96 126.25,-96 126.25,-76 254.75,-76 254.75,-96"/>
<text text-anchor="middle" x="190.5" y="-82.5" font-family="Helvetica,sans-Serif" font-size="10.00">CBitePop::getPopParams</text>
</a>
</g>
</g>
<!-- Node1&#45;&gt;Node12 -->
<g id="edge11_Node000001_Node000012" class="edge">
<title>Node1&#45;&gt;Node12</title>
<g id="a_edge11_Node000001_Node000012"><a xlink:title=" ">
<path fill="none" stroke="#63b8ff" d="M57.64,-151.55C72.55,-138.92 99.35,-117.78 125.5,-105 128.99,-103.29 132.66,-101.71 136.41,-100.24"/>
<polygon fill="#63b8ff" stroke="#63b8ff" points="137.43,-103.6 145.66,-96.93 135.07,-97.01 137.43,-103.6"/>
</a>
</g>
</g>
<!-- Node13 -->
<g id="Node000013" class="node">
<title>Node13</title>
<g id="a_Node000013"><a xlink:href="class_c_bite_ort.html#a4e3cc10dcabfd6b1eb1ebf586b2670b0" target="_top" xlink:title=" ">
<polygon fill="white" stroke="#666666" points="231.5,-58 149.5,-58 149.5,-38 231.5,-38 231.5,-58"/>
<text text-anchor="middle" x="190.5" y="-44.5" font-family="Helvetica,sans-Serif" font-size="10.00">CBiteOrt::ortnc</text>
</a>
</g>
</g>
<!-- Node1&#45;&gt;Node13 -->
<g id="edge12_Node000001_Node000013" class="edge">
<title>Node1&#45;&gt;Node13</title>
<g id="a_edge12_Node000001_Node000013"><a xlink:title=" ">
<path fill="none" stroke="#63b8ff" d="M51.55,-151.71C63.07,-132.21 90.75,-89.79 125.5,-67 129.65,-64.28 134.19,-61.94 138.89,-59.93"/>
<polygon fill="#63b8ff" stroke="#63b8ff" points="139.77,-63.34 147.91,-56.55 137.32,-56.78 139.77,-63.34"/>
</a>
</g>
</g>
<!-- Node14 -->
<g id="Node000014" class="node">
<title>Node14</title>
<g id="a_Node000014"><a xlink:href="class_c_bite_ort.html#a2470177aa3f85af2a5a3daf548b7166e" target="_top" xlink:title=" ">
<polygon fill="white" stroke="#666666" points="252.88,-20 128.12,-20 128.12,0 252.88,0 252.88,-20"/>
<text text-anchor="middle" x="190.5" y="-6.5" font-family="Helvetica,sans-Serif" font-size="10.00">CBiteOrt::updateWeights</text>
</a>
</g>
</g>
<!-- Node1&#45;&gt;Node14 -->
<g id="edge13_Node000001_Node000014" class="edge">
<title>Node1&#45;&gt;Node14</title>
<g id="a_edge13_Node000001_Node000014"><a xlink:title=" ">
<path fill="none" stroke="#63b8ff" d="M49.04,-151.57C57.47,-126.5 82.31,-62.49 125.5,-29 127.01,-27.83 128.59,-26.73 130.23,-25.7"/>
<polygon fill="#63b8ff" stroke="#63b8ff" points="131.56,-28.95 138.77,-21.2 128.29,-22.76 131.56,-28.95"/>
</a>
</g>
</g>
<!-- Node7 -->
<g id="Node000007" class="node">
<title>Node7</title>
<g id="a_Node000007"><a xlink:href="class_c_bite_ort.html#a33285821015e487d6c933ed1d6385144" target="_top" xlink:title=" ">
<polygon fill="white" stroke="#666666" points="370.5,-191 294.5,-191 294.5,-171 370.5,-171 370.5,-191"/>
<text text-anchor="middle" x="332.5" y="-177.5" font-family="Helvetica,sans-Serif" font-size="10.00">CBiteOrt::tql2</text>
</a>
</g>
</g>
<!-- Node6&#45;&gt;Node7 -->
<g id="edge6_Node000006_Node000007" class="edge">
<title>Node6&#45;&gt;Node7</title>
<g id="a_edge6_Node000006_Node000007"><a xlink:title=" ">
<path fill="none" stroke="#63b8ff" d="M232.75,-167.6C248.61,-169.75 266.85,-172.23 283.31,-174.46"/>
<polygon fill="#63b8ff" stroke="#63b8ff" points="282.48,-177.88 292.86,-175.76 283.42,-170.94 282.48,-177.88"/>
</a>
</g>
</g>
<!-- Node10 -->
<g id="Node000010" class="node">
<title>Node10</title>
<g id="a_Node000010"><a xlink:href="class_c_bite_ort.html#a5415d9c622dbc0b03f32c0f105a9169a" target="_top" xlink:title=" ">
<polygon fill="white" stroke="#666666" points="373.5,-153 291.5,-153 291.5,-133 373.5,-133 373.5,-153"/>
<text text-anchor="middle" x="332.5" y="-139.5" font-family="Helvetica,sans-Serif" font-size="10.00">CBiteOrt::tred2</text>
</a>
</g>
</g>
<!-- Node6&#45;&gt;Node10 -->
<g id="edge9_Node000006_Node000010" class="edge">
<title>Node6&#45;&gt;Node10</title>
<g id="a_edge9_Node000006_Node000010"><a xlink:title=" ">
<path fill="none" stroke="#63b8ff" d="M232.75,-156.4C247.55,-154.39 264.42,-152.1 279.98,-149.99"/>
<polygon fill="#63b8ff" stroke="#63b8ff" points="280.09,-153.51 289.53,-148.7 279.15,-146.57 280.09,-153.51"/>
</a>
</g>
</g>
<!-- Node8 -->
<g id="Node000008" class="node">
<title>Node8</title>
<g id="a_Node000008"><a xlink:href="class_c_bite_ort.html#a5196abda80a361c2d6f40a9a79773123" target="_top" xlink:title=" ">
<polygon fill="white" stroke="#666666" points="499,-210 409.5,-210 409.5,-190 499,-190 499,-210"/>
<text text-anchor="middle" x="454.25" y="-196.5" font-family="Helvetica,sans-Serif" font-size="10.00">CBiteOrt::hypot_</text>
</a>
</g>
</g>
<!-- Node7&#45;&gt;Node8 -->
<g id="edge7_Node000007_Node000008" class="edge">
<title>Node7&#45;&gt;Node8</title>
<g id="a_edge7_Node000007_Node000008"><a xlink:title=" ">
<path fill="none" stroke="#63b8ff" d="M370.73,-186.91C379.42,-188.29 388.86,-189.78 398.14,-191.26"/>
<polygon fill="#63b8ff" stroke="#63b8ff" points="397.4,-194.68 407.83,-192.79 398.5,-187.77 397.4,-194.68"/>
</a>
</g>
</g>
<!-- Node9 -->
<g id="Node000009" class="node">
<title>Node9</title>
<g id="a_Node000009"><a xlink:href="class_c_bite_ort.html#a1e68e963eb443af650525cd0d58ba57a" target="_top" xlink:title=" ">
<polygon fill="white" stroke="#666666" points="496.38,-172 412.12,-172 412.12,-152 496.38,-152 496.38,-172"/>
<text text-anchor="middle" x="454.25" y="-158.5" font-family="Helvetica,sans-Serif" font-size="10.00">CBiteOrt::max_</text>
</a>
</g>
</g>
<!-- Node7&#45;&gt;Node9 -->
<g id="edge8_Node000007_Node000009" class="edge">
<title>Node7&#45;&gt;Node9</title>
<g id="a_edge8_Node000007_Node000009"><a xlink:title=" ">
<path fill="none" stroke="#63b8ff" d="M370.73,-175.09C380.21,-173.59 390.58,-171.94 400.66,-170.34"/>
<polygon fill="#63b8ff" stroke="#63b8ff" points="401.05,-173.83 410.37,-168.8 399.95,-166.91 401.05,-173.83"/>
</a>
</g>
</g>
</g>
</svg>
