<?xml version="1.0" encoding="UTF-8" standalone="no"?>
<!DOCTYPE svg PUBLIC "-//W3C//DTD SVG 1.1//EN"
 "http://www.w3.org/Graphics/SVG/1.1/DTD/svg11.dtd">
<!-- Generated by graphviz version 12.2.1 (20241206.2353)
 -->
<!-- Title: fcmaes.journal.Journal.trial Pages: 1 -->
<svg width="434pt" height="40pt"
 viewBox="0.00 0.00 434.00 40.00" xmlns="http://www.w3.org/2000/svg" xmlns:xlink="http://www.w3.org/1999/xlink">
<g id="graph0" class="graph" transform="scale(1 1) rotate(0) translate(4 36)">
<title>fcmaes.journal.Journal.trial</title>
<!-- Node1 -->
<g id="Node000001" class="node">
<title>Node1</title>
<g id="a_Node000001"><a xlink:title="Initiates a trial session by logging the start of the trial and ensuring that the log data is immedia...">
<polygon fill="#999999" stroke="#666666" points="133,-26 0,-26 0,-6 133,-6 133,-26"/>
<text text-anchor="middle" x="66.5" y="-12.5" font-family="Helvetica,sans-Serif" font-size="10.00">fcmaes.journal.Journal.trial</text>
</a>
</g>
</g>
<!-- Node2 -->
<g id="Node000002" class="node">
<title>Node2</title>
<g id="a_Node000002"><a xlink:href="namespacefcmaes_1_1journal.html#a7fd5c2a880bb6da8e4e2e42790dc9430" target="_top" xlink:title="Starts a trial by recording the worker ID, study ID, and the current timestamp, and generates a JSON ...">
<polygon fill="white" stroke="#666666" points="267.5,-32 169,-32 169,0 267.5,0 267.5,-32"/>
<text text-anchor="start" x="177" y="-18.5" font-family="Helvetica,sans-Serif" font-size="10.00">fcmaes.journal.trial</text>
<text text-anchor="middle" x="218.25" y="-6.5" font-family="Helvetica,sans-Serif" font-size="10.00">_start</text>
</a>
</g>
</g>
<!-- Node1&#45;&gt;Node2 -->
<g id="edge1_Node000001_Node000002" class="edge">
<title>Node1&#45;&gt;Node2</title>
<g id="a_edge1_Node000001_Node000002"><a xlink:title=" ">
<path fill="none" stroke="#63b8ff" d="M133.18,-16C141.21,-16 149.38,-16 157.31,-16"/>
<polygon fill="#63b8ff" stroke="#63b8ff" points="157.21,-19.5 167.21,-16 157.21,-12.5 157.21,-19.5"/>
</a>
</g>
</g>
<!-- Node3 -->
<g id="Node000003" class="node">
<title>Node3</title>
<g id="a_Node000003"><a xlink:href="namespacefcmaes_1_1journal.html#ab2d4646b056641882ced63f7d0299978" target="_top" xlink:title="Converts a given message object to its JSON representation.">
<polygon fill="white" stroke="#666666" points="426,-32 303.5,-32 303.5,0 426,0 426,-32"/>
<text text-anchor="start" x="311.5" y="-18.5" font-family="Helvetica,sans-Serif" font-size="10.00">fcmaes.journal.message</text>
<text text-anchor="middle" x="364.75" y="-6.5" font-family="Helvetica,sans-Serif" font-size="10.00">_to_json</text>
</a>
</g>
</g>
<!-- Node2&#45;&gt;Node3 -->
<g id="edge2_Node000002_Node000003" class="edge">
<title>Node2&#45;&gt;Node3</title>
<g id="a_edge2_Node000002_Node000003"><a xlink:title=" ">
<path fill="none" stroke="#63b8ff" d="M267.77,-16C275.46,-16 283.55,-16 291.64,-16"/>
<polygon fill="#63b8ff" stroke="#63b8ff" points="291.53,-19.5 301.53,-16 291.53,-12.5 291.53,-19.5"/>
</a>
</g>
</g>
</g>
</svg>
