<?xml version="1.0" encoding="UTF-8" standalone="no"?>
<!DOCTYPE svg PUBLIC "-//W3C//DTD SVG 1.1//EN"
 "http://www.w3.org/Graphics/SVG/1.1/DTD/svg11.dtd">
<!-- Generated by graphviz version 12.2.1 (20241206.2353)
 -->
<!-- Title: examples.kepler.kepler.Kepler.mean2ta Pages: 1 -->
<svg width="533pt" height="78pt"
 viewBox="0.00 0.00 533.00 78.00" xmlns="http://www.w3.org/2000/svg" xmlns:xlink="http://www.w3.org/1999/xlink">
<g id="graph0" class="graph" transform="scale(1 1) rotate(0) translate(4 74)">
<title>examples.kepler.kepler.Kepler.mean2ta</title>
<!-- Node1 -->
<g id="Node000001" class="node">
<title>Node1</title>
<g id="a_Node000001"><a xlink:title=" ">
<polygon fill="#999999" stroke="#666666" points="187.75,-48 0,-48 0,-28 187.75,-28 187.75,-48"/>
<text text-anchor="middle" x="93.88" y="-34.5" font-family="Helvetica,sans-Serif" font-size="10.00">examples.kepler.kepler.Kepler.mean2ta</text>
</a>
</g>
</g>
<!-- Node2 -->
<g id="Node000002" class="node">
<title>Node2</title>
<g id="a_Node000002"><a xlink:href="namespaceexamples_1_1kepler_1_1kepler.html#a517d2a90d3773a272d1ee7d415799214" target="_top" xlink:title=" ">
<polygon fill="white" stroke="#666666" points="343.25,-54 223.75,-54 223.75,-22 343.25,-22 343.25,-54"/>
<text text-anchor="start" x="231.75" y="-40.5" font-family="Helvetica,sans-Serif" font-size="10.00">examples.kepler.kepler.</text>
<text text-anchor="middle" x="283.5" y="-28.5" font-family="Helvetica,sans-Serif" font-size="10.00">_mean2ta</text>
</a>
</g>
</g>
<!-- Node1&#45;&gt;Node2 -->
<g id="edge1_Node000001_Node000002" class="edge">
<title>Node1&#45;&gt;Node2</title>
<g id="a_edge1_Node000001_Node000002"><a xlink:title=" ">
<path fill="none" stroke="#63b8ff" d="M188.14,-38C196.17,-38 204.21,-38 212.02,-38"/>
<polygon fill="#63b8ff" stroke="#63b8ff" points="211.75,-41.5 221.75,-38 211.75,-34.5 211.75,-41.5"/>
</a>
</g>
</g>
<!-- Node3 -->
<g id="Node000003" class="node">
<title>Node3</title>
<g id="a_Node000003"><a xlink:href="namespaceexamples_1_1kepler_1_1kepler.html#a2421a039709ffc114992322c5b944ba0" target="_top" xlink:title=" ">
<polygon fill="white" stroke="#666666" points="522.38,-70 381.88,-70 381.88,-50 522.38,-50 522.38,-70"/>
<text text-anchor="middle" x="452.12" y="-56.5" font-family="Helvetica,sans-Serif" font-size="10.00">examples.kepler.kepler.eps3</text>
</a>
</g>
</g>
<!-- Node2&#45;&gt;Node3 -->
<g id="edge2_Node000002_Node000003" class="edge">
<title>Node2&#45;&gt;Node3</title>
<g id="a_edge2_Node000002_Node000003"><a xlink:title=" ">
<path fill="none" stroke="#63b8ff" d="M343.71,-45.82C352.33,-46.96 361.32,-48.14 370.28,-49.33"/>
<polygon fill="#63b8ff" stroke="#63b8ff" points="369.7,-52.78 380.07,-50.62 370.61,-45.84 369.7,-52.78"/>
</a>
</g>
</g>
<!-- Node4 -->
<g id="Node000004" class="node">
<title>Node4</title>
<g id="a_Node000004"><a xlink:href="namespaceexamples_1_1kepler_1_1kepler.html#a1270aff9b2683cf09fd997af1c49791b" target="_top" xlink:title=" ">
<polygon fill="white" stroke="#666666" points="525,-32 379.25,-32 379.25,0 525,0 525,-32"/>
<text text-anchor="start" x="387.25" y="-18.5" font-family="Helvetica,sans-Serif" font-size="10.00">examples.kepler.kepler.kepler</text>
<text text-anchor="middle" x="452.12" y="-6.5" font-family="Helvetica,sans-Serif" font-size="10.00">Start3</text>
</a>
</g>
</g>
<!-- Node2&#45;&gt;Node4 -->
<g id="edge3_Node000002_Node000004" class="edge">
<title>Node2&#45;&gt;Node4</title>
<g id="a_edge3_Node000002_Node000004"><a xlink:title=" ">
<path fill="none" stroke="#63b8ff" d="M343.71,-30.18C351.47,-29.16 359.53,-28.09 367.6,-27.03"/>
<polygon fill="#63b8ff" stroke="#63b8ff" points="368.01,-30.5 377.47,-25.73 367.1,-23.56 368.01,-30.5"/>
</a>
</g>
</g>
</g>
</svg>
