<?xml version="1.0" encoding="UTF-8" standalone="no"?>
<!DOCTYPE svg PUBLIC "-//W3C//DTD SVG 1.1//EN"
 "http://www.w3.org/Graphics/SVG/1.1/DTD/svg11.dtd">
<!-- Generated by graphviz version 12.2.1 (20241206.2353)
 -->
<!-- Title: biteopt::BiteOptimizer::BiteOptimizer Pages: 1 -->
<svg width="472pt" height="102pt"
 viewBox="0.00 0.00 471.50 102.00" xmlns="http://www.w3.org/2000/svg" xmlns:xlink="http://www.w3.org/1999/xlink">
<g id="graph0" class="graph" transform="scale(1 1) rotate(0) translate(4 98)">
<title>biteopt::BiteOptimizer::BiteOptimizer</title>
<!-- Node1 -->
<g id="Node000001" class="node">
<title>Node1</title>
<g id="a_Node000001"><a xlink:title=" ">
<polygon fill="#999999" stroke="#666666" points="110.5,-54 0,-54 0,-22 110.5,-22 110.5,-54"/>
<text text-anchor="start" x="8" y="-40.5" font-family="Helvetica,sans-Serif" font-size="10.00">biteopt::BiteOptimizer</text>
<text text-anchor="middle" x="55.25" y="-28.5" font-family="Helvetica,sans-Serif" font-size="10.00">::BiteOptimizer</text>
</a>
</g>
</g>
<!-- Node2 -->
<g id="Node000002" class="node">
<title>Node2</title>
<g id="a_Node000002"><a xlink:href="class_c_bite_opt_deep.html#abeb2e2aa0929e9fb6741ac7b0892a31b" target="_top" xlink:title=" ">
<polygon fill="white" stroke="#666666" points="264.88,-76 166.38,-76 166.38,-56 264.88,-56 264.88,-76"/>
<text text-anchor="middle" x="215.62" y="-62.5" font-family="Helvetica,sans-Serif" font-size="10.00">CBiteOptDeep::init</text>
</a>
</g>
</g>
<!-- Node1&#45;&gt;Node2 -->
<g id="edge1_Node000001_Node000002" class="edge">
<title>Node1&#45;&gt;Node2</title>
<g id="a_edge1_Node000001_Node000002"><a xlink:title=" ">
<path fill="none" stroke="#63b8ff" d="M110.75,-47.64C125.09,-50.17 140.62,-52.92 155.19,-55.49"/>
<polygon fill="#63b8ff" stroke="#63b8ff" points="154.17,-58.87 164.63,-57.16 155.39,-51.97 154.17,-58.87"/>
</a>
</g>
</g>
<!-- Node3 -->
<g id="Node000003" class="node">
<title>Node3</title>
<g id="a_Node000003"><a xlink:href="class_c_bite_opt_deep.html#a48ae954f715acc3433125af9b0abaa61" target="_top" xlink:title=" ">
<polygon fill="white" stroke="#666666" points="284.75,-20 146.5,-20 146.5,0 284.75,0 284.75,-20"/>
<text text-anchor="middle" x="215.62" y="-6.5" font-family="Helvetica,sans-Serif" font-size="10.00">CBiteOptDeep::updateDims</text>
</a>
</g>
</g>
<!-- Node1&#45;&gt;Node3 -->
<g id="edge3_Node000001_Node000003" class="edge">
<title>Node1&#45;&gt;Node3</title>
<g id="a_edge3_Node000001_Node000003"><a xlink:title=" ">
<path fill="none" stroke="#63b8ff" d="M110.75,-28.36C121.56,-26.45 133.04,-24.42 144.29,-22.44"/>
<polygon fill="#63b8ff" stroke="#63b8ff" points="144.69,-25.92 153.93,-20.73 143.47,-19.03 144.69,-25.92"/>
</a>
</g>
</g>
<!-- Node2&#45;&gt;Node2 -->
<g id="edge2_Node000002_Node000002" class="edge">
<title>Node2&#45;&gt;Node2</title>
<g id="a_edge2_Node000002_Node000002"><a xlink:title=" ">
<path fill="none" stroke="#63b8ff" d="M190.14,-76.34C179.25,-84.98 187.75,-94 215.62,-94 230.87,-94 240.32,-91.3 243.97,-87.44"/>
<polygon fill="#63b8ff" stroke="#63b8ff" points="247.37,-86.61 241.48,-77.8 240.59,-88.36 247.37,-86.61"/>
</a>
</g>
</g>
<!-- Node3&#45;&gt;Node3 -->
<g id="edge5_Node000003_Node000003" class="edge">
<title>Node3&#45;&gt;Node3</title>
<g id="a_edge5_Node000003_Node000003"><a xlink:title=" ">
<path fill="none" stroke="#63b8ff" d="M190.14,-20.34C179.25,-28.98 187.75,-38 215.62,-38 230.87,-38 240.32,-35.3 243.97,-31.44"/>
<polygon fill="#63b8ff" stroke="#63b8ff" points="247.37,-30.61 241.48,-21.8 240.59,-32.36 247.37,-30.61"/>
</a>
</g>
</g>
<!-- Node4 -->
<g id="Node000004" class="node">
<title>Node4</title>
<g id="a_Node000004"><a xlink:href="class_c_bite_opt_deep.html#a5aeb781988a714cc50107efa2521cc52" target="_top" xlink:title=" ">
<polygon fill="white" stroke="#666666" points="463.5,-20 320.75,-20 320.75,0 463.5,0 463.5,-20"/>
<text text-anchor="middle" x="392.12" y="-6.5" font-family="Helvetica,sans-Serif" font-size="10.00">CBiteOptDeep::deleteBuffers</text>
</a>
</g>
</g>
<!-- Node3&#45;&gt;Node4 -->
<g id="edge4_Node000003_Node000004" class="edge">
<title>Node3&#45;&gt;Node4</title>
<g id="a_edge4_Node000003_Node000004"><a xlink:title=" ">
<path fill="none" stroke="#63b8ff" d="M285.09,-10C292.94,-10 301.01,-10 309.02,-10"/>
<polygon fill="#63b8ff" stroke="#63b8ff" points="308.76,-13.5 318.76,-10 308.76,-6.5 308.76,-13.5"/>
</a>
</g>
</g>
</g>
</svg>
