<?xml version="1.0" encoding="UTF-8" standalone="no"?>
<!DOCTYPE svg PUBLIC "-//W3C//DTD SVG 1.1//EN"
 "http://www.w3.org/Graphics/SVG/1.1/DTD/svg11.dtd">
<!-- Generated by graphviz version 12.2.1 (20241206.2353)
 -->
<!-- Title: dual_annealing::Fitness::decode Pages: 1 -->
<svg width="657pt" height="78pt"
 viewBox="0.00 0.00 657.00 78.00" xmlns="http://www.w3.org/2000/svg" xmlns:xlink="http://www.w3.org/1999/xlink">
<g id="graph0" class="graph" transform="scale(1 1) rotate(0) translate(4 74)">
<title>dual_annealing::Fitness::decode</title>
<!-- Node1 -->
<g id="Node000001" class="node">
<title>Node1</title>
<g id="a_Node000001"><a xlink:title=" ">
<polygon fill="#999999" stroke="#666666" points="649,-54 530.25,-54 530.25,-22 649,-22 649,-54"/>
<text text-anchor="start" x="538.25" y="-40.5" font-family="Helvetica,sans-Serif" font-size="10.00">dual_annealing::Fitness</text>
<text text-anchor="middle" x="589.62" y="-28.5" font-family="Helvetica,sans-Serif" font-size="10.00">::decode</text>
</a>
</g>
</g>
<!-- Node2 -->
<g id="Node000002" class="node">
<title>Node2</title>
<g id="a_Node000002"><a xlink:href="daoptimizer_8cpp.html#aa097a54ac07d35740d86c465d2477195" target="_top" xlink:title=" ">
<polygon fill="white" stroke="#666666" points="474.75,-70 395,-70 395,-50 474.75,-50 474.75,-70"/>
<text text-anchor="middle" x="434.88" y="-56.5" font-family="Helvetica,sans-Serif" font-size="10.00">optimizeDA_C</text>
</a>
</g>
</g>
<!-- Node1&#45;&gt;Node2 -->
<g id="edge1_Node000001_Node000002" class="edge">
<title>Node1&#45;&gt;Node2</title>
<g id="a_edge1_Node000001_Node000002"><a xlink:title=" ">
<path fill="none" stroke="#63b8ff" d="M518.69,-48.07C503.75,-50.22 488.49,-52.42 475.2,-54.34"/>
<polygon fill="#63b8ff" stroke="#63b8ff" points="519.11,-51.55 528.51,-46.66 518.11,-44.62 519.11,-51.55"/>
</a>
</g>
</g>
<!-- Node3 -->
<g id="Node000003" class="node">
<title>Node3</title>
<g id="a_Node000003"><a xlink:href="classdual__annealing_1_1_fitness.html#a02a57480e20f23ac3d1b9eab91f408f7" target="_top" xlink:title=" ">
<polygon fill="white" stroke="#666666" points="494.25,-32 375.5,-32 375.5,0 494.25,0 494.25,-32"/>
<text text-anchor="start" x="383.5" y="-18.5" font-family="Helvetica,sans-Serif" font-size="10.00">dual_annealing::Fitness</text>
<text text-anchor="middle" x="434.88" y="-6.5" font-family="Helvetica,sans-Serif" font-size="10.00">::value</text>
</a>
</g>
</g>
<!-- Node1&#45;&gt;Node3 -->
<g id="edge2_Node000001_Node000003" class="edge">
<title>Node1&#45;&gt;Node3</title>
<g id="a_edge2_Node000001_Node000003"><a xlink:title=" ">
<path fill="none" stroke="#63b8ff" d="M518.71,-27.93C510.64,-26.77 502.48,-25.59 494.59,-24.46"/>
<polygon fill="#63b8ff" stroke="#63b8ff" points="518.11,-31.38 528.51,-29.34 519.11,-24.45 518.11,-31.38"/>
</a>
</g>
</g>
<!-- Node4 -->
<g id="Node000004" class="node">
<title>Node4</title>
<g id="a_Node000004"><a xlink:href="classdual__annealing_1_1_energy_state.html#a44539c22d2beaefdaf44bad69a84a570" target="_top" xlink:title=" ">
<polygon fill="white" stroke="#666666" points="339.5,-32 199,-32 199,0 339.5,0 339.5,-32"/>
<text text-anchor="start" x="207" y="-18.5" font-family="Helvetica,sans-Serif" font-size="10.00">dual_annealing::EnergyState</text>
<text text-anchor="middle" x="269.25" y="-6.5" font-family="Helvetica,sans-Serif" font-size="10.00">::reset</text>
</a>
</g>
</g>
<!-- Node3&#45;&gt;Node4 -->
<g id="edge3_Node000003_Node000004" class="edge">
<title>Node3&#45;&gt;Node4</title>
<g id="a_edge3_Node000003_Node000004"><a xlink:title=" ">
<path fill="none" stroke="#63b8ff" d="M363.8,-16C355.88,-16 347.81,-16 339.9,-16"/>
<polygon fill="#63b8ff" stroke="#63b8ff" points="363.75,-19.5 373.75,-16 363.75,-12.5 363.75,-19.5"/>
</a>
</g>
</g>
<!-- Node5 -->
<g id="Node000005" class="node">
<title>Node5</title>
<g id="a_Node000005"><a xlink:href="classexamples_1_1siemens_1_1_plant.html#a4570217ffc213f931499ca5ca147819c" target="_top" xlink:title=" ">
<polygon fill="white" stroke="#666666" points="163,-26 0,-26 0,-6 163,-6 163,-26"/>
<text text-anchor="middle" x="81.5" y="-12.5" font-family="Helvetica,sans-Serif" font-size="10.00">examples.siemens.Plant.simulate</text>
</a>
</g>
</g>
<!-- Node4&#45;&gt;Node5 -->
<g id="edge4_Node000004_Node000005" class="edge">
<title>Node4&#45;&gt;Node5</title>
<g id="a_edge4_Node000004_Node000005"><a xlink:title=" ">
<path fill="none" stroke="#63b8ff" d="M187.07,-16C179.15,-16 171.12,-16 163.21,-16"/>
<polygon fill="#63b8ff" stroke="#63b8ff" points="187.04,-19.5 197.04,-16 187.04,-12.5 187.04,-19.5"/>
</a>
</g>
</g>
</g>
</svg>
