<?xml version="1.0" encoding="UTF-8" standalone="no"?>
<!DOCTYPE svg PUBLIC "-//W3C//DTD SVG 1.1//EN"
 "http://www.w3.org/Graphics/SVG/1.1/DTD/svg11.dtd">
<!-- Generated by graphviz version 12.2.1 (20241206.2353)
 -->
<!-- Title: differential_evolution::DeOptimizer::askAll Pages: 1 -->
<!--zoomable 184 -->

<svg id="main" version="1.1" xmlns="http://www.w3.org/2000/svg" xmlns:xlink="http://www.w3.org/1999/xlink" xml:space="preserve" onload="init(evt)">

<style type="text/css"><![CDATA[
.node, .edge {opacity: 0.7;}
.node.selected, .edge.selected {opacity: 1;}
.edge:hover path { stroke: red; }
.edge:hover polygon { stroke: red; fill: red; }
]]></style>

<defs>
  <circle id="rim" cx="0" cy="0" r="7"/>
  <circle id="rim2" cx="0" cy="0" r="3.5"/>
  <g id="zoomPlus">
    <use xlink:href="#rim" fill="#404040"><set attributeName="fill" to="#808080" begin="zoomplus.mouseover" end="zoomplus.mouseout"/></use>
    <path d="M-4,0h8M0,-4v8" fill="none" stroke="white" stroke-width="1.5" pointer-events="none"/>
  </g>
  <g id="zoomMin">
    <use xlink:href="#rim" fill="#404040"><set attributeName="fill" to="#808080" begin="zoomminus.mouseover" end="zoomminus.mouseout"/></use>
    <path d="M-4,0h8" fill="none" stroke="white" stroke-width="1.5" pointer-events="none"/>
  </g>
  <g id="arrowUp" transform="translate(30 24)">
    <use xlink:href="#rim"/>
    <path pointer-events="none" fill="none" stroke="white" stroke-width="1.5" d="M0,-3.0v7 M-2.5,-0.5L0,-3.0L2.5,-0.5"/>
  </g>
  <g id="arrowRight" transform="rotate(90) translate(36 -43)">
    <use xlink:href="#rim"/>
    <path pointer-events="none" fill="none" stroke="white" stroke-width="1.5" d="M0,-3.0v7 M-2.5,-0.5L0,-3.0L2.5,-0.5"/>
  </g>
  <g id="arrowDown" transform="rotate(180) translate(-30 -48)">
    <use xlink:href="#rim"/>
    <path pointer-events="none" fill="none" stroke="white" stroke-width="1.5" d="M0,-3.0v7 M-2.5,-0.5L0,-3.0L2.5,-0.5"/>
  </g>
  <g id="arrowLeft" transform="rotate(270) translate(-36 17)">
    <use xlink:href="#rim"/>
    <path pointer-events="none" fill="none" stroke="white" stroke-width="1.5" d="M0,-3.0v7 M-2.5,-0.5L0,-3.0L2.5,-0.5"/>
  </g>
  <g id="resetDef">
    <use xlink:href="#rim2" fill="#404040"><set attributeName="fill" to="#808080" begin="reset.mouseover" end="reset.mouseout"/></use>
  </g>
</defs>
<script type="application/ecmascript">
var viewWidth = 827;
var viewHeight = 184;
var sectionId = 'dynsection-4';
</script>
<script type="application/ecmascript" xlink:href="svg.min.js"/>
<svg id="graph" class="graph">
<g id="viewport">
<title>differential_evolution::DeOptimizer::askAll</title>
<!-- Node1 -->
<g id="Node000001" class="node">
<title>Node1</title>
<g id="a_Node000001"><a xlink:title=" ">
<polygon fill="#999999" stroke="#666666" points="109.75,-107 0,-107 0,-75 109.75,-75 109.75,-107"/>
<text text-anchor="start" x="8" y="-93.5" font-family="Helvetica,sans-Serif" font-size="10.00">differential_evolution</text>
<text text-anchor="middle" x="54.88" y="-81.5" font-family="Helvetica,sans-Serif" font-size="10.00">::DeOptimizer::askAll</text>
</a>
</g>
</g>
<!-- Node2 -->
<g id="Node000002" class="node">
<title>Node2</title>
<g id="a_Node000002"><a xlink:href="classdifferential__evolution_1_1_de_optimizer.html#af7935d4c0d376a000470f2b943aadbd6" target="_top" xlink:title=" ">
<polygon fill="white" stroke="#666666" points="250.25,-107 145.75,-107 145.75,-75 250.25,-75 250.25,-107"/>
<text text-anchor="start" x="153.75" y="-93.5" font-family="Helvetica,sans-Serif" font-size="10.00">differential_evolution</text>
<text text-anchor="middle" x="198" y="-81.5" font-family="Helvetica,sans-Serif" font-size="10.00">::DeOptimizer::ask</text>
</a>
</g>
</g>
<!-- Node1&#45;&gt;Node2 -->
<g id="edge1_Node000001_Node000002" class="edge">
<title>Node1&#45;&gt;Node2</title>
<g id="a_edge1_Node000001_Node000002"><a xlink:title=" ">
<path fill="none" stroke="#63b8ff" d="M110.03,-91C117.96,-91 126.18,-91 134.25,-91"/>
<polygon fill="#63b8ff" stroke="#63b8ff" points="134.03,-94.5 144.03,-91 134.03,-87.5 134.03,-94.5"/>
</a>
</g>
</g>
<!-- Node3 -->
<g id="Node000003" class="node">
<title>Node3</title>
<g id="a_Node000003"><a xlink:href="classdifferential__evolution_1_1_de_optimizer.html#a8babf7e82f12af63653d0d26df11e8b0" target="_top" xlink:title=" ">
<polygon fill="white" stroke="#666666" points="394.5,-107 286.25,-107 286.25,-75 394.5,-75 394.5,-107"/>
<text text-anchor="start" x="294.25" y="-93.5" font-family="Helvetica,sans-Serif" font-size="10.00">differential_evolution</text>
<text text-anchor="middle" x="340.38" y="-81.5" font-family="Helvetica,sans-Serif" font-size="10.00">::DeOptimizer::nextX</text>
</a>
</g>
</g>
<!-- Node2&#45;&gt;Node3 -->
<g id="edge2_Node000002_Node000003" class="edge">
<title>Node2&#45;&gt;Node3</title>
<g id="a_edge2_Node000002_Node000003"><a xlink:title=" ">
<path fill="none" stroke="#63b8ff" d="M250.47,-91C258.34,-91 266.55,-91 274.67,-91"/>
<polygon fill="#63b8ff" stroke="#63b8ff" points="274.51,-94.5 284.51,-91 274.51,-87.5 274.51,-94.5"/>
</a>
</g>
</g>
<!-- Node4 -->
<g id="Node000004" class="node">
<title>Node4</title>
<g id="a_Node000004"><a xlink:href="classdifferential__evolution_1_1_de_optimizer.html#a9f8d2654bcad80c32d9358faa62cebd9" target="_top" xlink:title=" ">
<polygon fill="white" stroke="#666666" points="557.12,-132 445.12,-132 445.12,-100 557.12,-100 557.12,-132"/>
<text text-anchor="start" x="453.12" y="-118.5" font-family="Helvetica,sans-Serif" font-size="10.00">differential_evolution</text>
<text text-anchor="middle" x="501.12" y="-106.5" font-family="Helvetica,sans-Serif" font-size="10.00">::DeOptimizer::modify</text>
</a>
</g>
</g>
<!-- Node3&#45;&gt;Node4 -->
<g id="edge3_Node000003_Node000004" class="edge">
<title>Node3&#45;&gt;Node4</title>
<g id="a_edge3_Node000003_Node000004"><a xlink:title=" ">
<path fill="none" stroke="#63b8ff" d="M394.68,-99.39C407.15,-101.36 420.58,-103.47 433.55,-105.52"/>
<polygon fill="#63b8ff" stroke="#63b8ff" points="432.87,-108.95 443.3,-107.05 433.96,-102.04 432.87,-108.95"/>
</a>
</g>
</g>
<!-- Node5 -->
<g id="Node000005" class="node">
<title>Node5</title>
<g id="a_Node000005"><a xlink:href="classdifferential__evolution_1_1_de_optimizer.html#a922dfb6a6903d18311a87e2fe553c78b" target="_top" xlink:title=" ">
<polygon fill="white" stroke="#666666" points="722,-176 615.25,-176 615.25,-144 722,-144 722,-176"/>
<text text-anchor="start" x="623.25" y="-162.5" font-family="Helvetica,sans-Serif" font-size="10.00">differential_evolution</text>
<text text-anchor="middle" x="668.62" y="-150.5" font-family="Helvetica,sans-Serif" font-size="10.00">::DeOptimizer::rnd01</text>
</a>
</g>
</g>
<!-- Node3&#45;&gt;Node5 -->
<g id="edge7_Node000003_Node000005" class="edge">
<title>Node3&#45;&gt;Node5</title>
<g id="a_edge7_Node000003_Node000005"><a xlink:title=" ">
<path fill="none" stroke="#63b8ff" d="M363.95,-107.31C381.26,-118.87 406.23,-133.61 430.5,-141 487.38,-158.32 555.27,-162.17 603.8,-162.22"/>
<polygon fill="#63b8ff" stroke="#63b8ff" points="603.59,-165.72 613.57,-162.17 603.56,-158.72 603.59,-165.72"/>
</a>
</g>
</g>
<!-- Node8 -->
<g id="Node000008" class="node">
<title>Node8</title>
<g id="a_Node000008"><a xlink:href="classdifferential__evolution_1_1_de_optimizer.html#ad1842fb1469f6b2e9f341afbe3b26d69" target="_top" xlink:title=" ">
<polygon fill="white" stroke="#666666" points="554.88,-82 447.38,-82 447.38,-50 554.88,-50 554.88,-82"/>
<text text-anchor="start" x="455.38" y="-68.5" font-family="Helvetica,sans-Serif" font-size="10.00">differential_evolution</text>
<text text-anchor="middle" x="501.12" y="-56.5" font-family="Helvetica,sans-Serif" font-size="10.00">::DeOptimizer::rndInt</text>
</a>
</g>
</g>
<!-- Node3&#45;&gt;Node8 -->
<g id="edge8_Node000003_Node000008" class="edge">
<title>Node3&#45;&gt;Node8</title>
<g id="a_edge8_Node000003_Node000008"><a xlink:title=" ">
<path fill="none" stroke="#63b8ff" d="M394.68,-82.61C407.84,-80.53 422.07,-78.29 435.7,-76.15"/>
<polygon fill="#63b8ff" stroke="#63b8ff" points="436.13,-79.62 445.47,-74.61 435.04,-72.71 436.13,-79.62"/>
</a>
</g>
</g>
<!-- Node9 -->
<g id="Node000009" class="node">
<title>Node9</title>
<g id="a_Node000009"><a xlink:href="classdifferential__evolution_1_1_de_optimizer.html#ac2c05bd08ebf41841869016986381905" target="_top" xlink:title=" ">
<polygon fill="white" stroke="#666666" points="571.75,-32 430.5,-32 430.5,0 571.75,0 571.75,-32"/>
<text text-anchor="start" x="438.5" y="-18.5" font-family="Helvetica,sans-Serif" font-size="10.00">differential_evolution</text>
<text text-anchor="middle" x="501.12" y="-6.5" font-family="Helvetica,sans-Serif" font-size="10.00">::DeOptimizer::update_mean</text>
</a>
</g>
</g>
<!-- Node3&#45;&gt;Node9 -->
<g id="edge9_Node000003_Node000009" class="edge">
<title>Node3&#45;&gt;Node9</title>
<g id="a_edge9_Node000003_Node000009"><a xlink:title=" ">
<path fill="none" stroke="#63b8ff" d="M367.68,-74.71C385.12,-64.3 408.71,-50.94 430.5,-41 433.77,-39.51 437.16,-38.04 440.6,-36.62"/>
<polygon fill="#63b8ff" stroke="#63b8ff" points="441.62,-39.98 449.61,-33.03 439.03,-33.48 441.62,-39.98"/>
</a>
</g>
</g>
<!-- Node4&#45;&gt;Node5 -->
<g id="edge4_Node000004_Node000005" class="edge">
<title>Node4&#45;&gt;Node5</title>
<g id="a_edge4_Node000004_Node000005"><a xlink:title=" ">
<path fill="none" stroke="#63b8ff" d="M557.23,-130.65C572.22,-134.63 588.56,-138.98 603.98,-143.08"/>
<polygon fill="#63b8ff" stroke="#63b8ff" points="602.97,-146.43 613.54,-145.62 604.77,-139.67 602.97,-146.43"/>
</a>
</g>
</g>
<!-- Node6 -->
<g id="Node000006" class="node">
<title>Node6</title>
<g id="a_Node000006"><a xlink:href="classdifferential__evolution_1_1_de_optimizer.html#a427ae953a5503dc4369da1bbb338fe67" target="_top" xlink:title=" ">
<polygon fill="white" stroke="#666666" points="729.5,-126 607.75,-126 607.75,-94 729.5,-94 729.5,-126"/>
<text text-anchor="start" x="615.75" y="-112.5" font-family="Helvetica,sans-Serif" font-size="10.00">differential_evolution</text>
<text text-anchor="middle" x="668.62" y="-100.5" font-family="Helvetica,sans-Serif" font-size="10.00">::DeOptimizer::sample_i</text>
</a>
</g>
</g>
<!-- Node4&#45;&gt;Node6 -->
<g id="edge5_Node000004_Node000006" class="edge">
<title>Node4&#45;&gt;Node6</title>
<g id="a_edge5_Node000004_Node000006"><a xlink:title=" ">
<path fill="none" stroke="#63b8ff" d="M557.23,-114C569.67,-113.55 583.05,-113.07 596.05,-112.59"/>
<polygon fill="#63b8ff" stroke="#63b8ff" points="595.97,-116.1 605.83,-112.24 595.71,-109.1 595.97,-116.1"/>
</a>
</g>
</g>
<!-- Node7 -->
<g id="Node000007" class="node">
<title>Node7</title>
<g id="a_Node000007"><a xlink:href="evaluator_8h.html#aa3d770d0f4bda035e2cc8c6f5c1b0aee" target="_top" xlink:title=" ">
<polygon fill="white" stroke="#666666" points="819,-120 765.5,-120 765.5,-100 819,-100 819,-120"/>
<text text-anchor="middle" x="792.25" y="-106.5" font-family="Helvetica,sans-Serif" font-size="10.00">normreal</text>
</a>
</g>
</g>
<!-- Node6&#45;&gt;Node7 -->
<g id="edge6_Node000006_Node000007" class="edge">
<title>Node6&#45;&gt;Node7</title>
<g id="a_edge6_Node000006_Node000007"><a xlink:title=" ">
<path fill="none" stroke="#63b8ff" d="M729.72,-110C737.89,-110 746.08,-110 753.69,-110"/>
<polygon fill="#63b8ff" stroke="#63b8ff" points="753.59,-113.5 763.59,-110 753.59,-106.5 753.59,-113.5"/>
</a>
</g>
</g>
</g>
</svg>

<g id="navigator" transform="translate(0 0)" fill="#404254">
  <rect fill="#f2f5e9" fill-opacity="0.5" stroke="#606060" stroke-width=".5" x="0" y="0" width="60" height="60"/>
  <use id="zoomplus" xlink:href="#zoomPlus" x="17" y="9" onmousedown="handleZoom(evt,'in')"/>
  <use id="zoomminus" xlink:href="#zoomMin" x="42" y="9" onmousedown="handleZoom(evt,'out')"/>
  <use id="reset" xlink:href="#resetDef" x="30" y="36" onmousedown="handleReset()"/>
   <use id="arrowup" xlink:href="#arrowUp" x="0" y="0" onmousedown="handlePan(0,-1)"/>
  <use id="arrowright" xlink:href="#arrowRight" x="0" y="0" onmousedown="handlePan(1,0)"/>
  <use id="arrowdown" xlink:href="#arrowDown" x="0" y="0" onmousedown="handlePan(0,1)"/>
  <use id="arrowleft" xlink:href="#arrowLeft" x="0" y="0" onmousedown="handlePan(-1,0)"/>
</g>
<svg viewBox="0 0 15 15" width="100%" height="30px" preserveAspectRatio="xMaxYMin meet">
 <g id="arrow_out" transform="scale(0.3 0.3)">
  <a xlink:href="classdifferential__evolution_1_1_de_optimizer_a0dcd44cbcddd9e0dde1ccd2ea5fbf96d_cgraph_org.svg" target="_base">
   <rect id="button" ry="5" rx="5" y="6" x="6" height="38" width="38"
        fill="#f2f5e9" fill-opacity="0.5" stroke="#606060" stroke-width="1.0"/>
   <path id="arrow"
     d="M 11.500037,31.436501 C 11.940474,20.09759 22.043105,11.32322 32.158766,21.979434 L 37.068811,17.246167 C 37.068811,17.246167 37.088388,32 37.088388,32 L 22.160133,31.978069 C 22.160133,31.978069 26.997745,27.140456 26.997745,27.140456 C 18.528582,18.264221 13.291696,25.230495 11.500037,31.436501 z"
     style="fill:#404040;"/>
  </a>
 </g>
</svg>

<style type='text/css'>
<![CDATA[
[data-mouse-over-selected='false'] { opacity: 0.7; }
[data-mouse-over-selected='true']  { opacity: 1.0; }
]]>
</style>
<script type="application/ecmascript"><![CDATA[
document.addEventListener('DOMContentLoaded', (event) => {
  highlightEdges();
  highlightAdjacentNodes();
});
]]></script>
</svg>
