<?xml version="1.0" encoding="UTF-8" standalone="no"?>
<!DOCTYPE svg PUBLIC "-//W3C//DTD SVG 1.1//EN"
 "http://www.w3.org/Graphics/SVG/1.1/DTD/svg11.dtd">
<!-- Generated by graphviz version 12.2.1 (20241206.2353)
 -->
<!-- Title: Fitness::violations Pages: 1 -->
<svg width="225pt" height="66pt"
 viewBox="0.00 0.00 225.25 66.00" xmlns="http://www.w3.org/2000/svg" xmlns:xlink="http://www.w3.org/1999/xlink">
<g id="graph0" class="graph" transform="scale(1 1) rotate(0) translate(4 62)">
<title>Fitness::violations</title>
<!-- Node1 -->
<g id="Node000001" class="node">
<title>Node1</title>
<g id="a_Node000001"><a xlink:title=" ">
<polygon fill="#999999" stroke="#666666" points="95.5,-39 0,-39 0,-19 95.5,-19 95.5,-39"/>
<text text-anchor="middle" x="47.75" y="-25.5" font-family="Helvetica,sans-Serif" font-size="10.00">Fitness::violations</text>
</a>
</g>
</g>
<!-- Node1&#45;&gt;Node1 -->
<g id="edge2_Node000001_Node000001" class="edge">
<title>Node1&#45;&gt;Node1</title>
<g id="a_edge2_Node000001_Node000001"><a xlink:title=" ">
<path fill="none" stroke="#63b8ff" d="M27.63,-39.34C19.03,-47.98 25.74,-57 47.75,-57 59.79,-57 67.25,-54.3 70.13,-50.44"/>
<polygon fill="#63b8ff" stroke="#63b8ff" points="73.6,-49.92 68.17,-40.82 66.74,-51.32 73.6,-49.92"/>
</a>
</g>
</g>
<!-- Node2 -->
<g id="Node000002" class="node">
<title>Node2</title>
<g id="a_Node000002"><a xlink:href="class_fitness.html#a7fdca1fda75e3976b91e1e9e0eb12057" target="_top" xlink:title=" ">
<polygon fill="white" stroke="#666666" points="217.25,-58 131.5,-58 131.5,-38 217.25,-38 217.25,-58"/>
<text text-anchor="middle" x="174.38" y="-44.5" font-family="Helvetica,sans-Serif" font-size="10.00">Fitness::decode</text>
</a>
</g>
</g>
<!-- Node1&#45;&gt;Node2 -->
<g id="edge1_Node000001_Node000002" class="edge">
<title>Node1&#45;&gt;Node2</title>
<g id="a_edge1_Node000001_Node000002"><a xlink:title=" ">
<path fill="none" stroke="#63b8ff" d="M95.87,-36.18C103.74,-37.38 111.95,-38.64 119.97,-39.86"/>
<polygon fill="#63b8ff" stroke="#63b8ff" points="119.2,-43.28 129.61,-41.33 120.25,-36.36 119.2,-43.28"/>
</a>
</g>
</g>
<!-- Node3 -->
<g id="Node000003" class="node">
<title>Node3</title>
<g id="a_Node000003"><a xlink:href="evaluator_8h.html#a909812174fa9829bc49f6e00edb00b90" target="_top" xlink:title=" ">
<polygon fill="white" stroke="#666666" points="194.38,-20 154.38,-20 154.38,0 194.38,0 194.38,-20"/>
<text text-anchor="middle" x="174.38" y="-6.5" font-family="Helvetica,sans-Serif" font-size="10.00">zeros</text>
</a>
</g>
</g>
<!-- Node1&#45;&gt;Node3 -->
<g id="edge3_Node000001_Node000003" class="edge">
<title>Node1&#45;&gt;Node3</title>
<g id="a_edge3_Node000001_Node000003"><a xlink:title=" ">
<path fill="none" stroke="#63b8ff" d="M95.87,-21.82C111.59,-19.42 128.69,-16.81 142.82,-14.66"/>
<polygon fill="#63b8ff" stroke="#63b8ff" points="143.04,-18.17 152.39,-13.2 141.98,-11.25 143.04,-18.17"/>
</a>
</g>
</g>
</g>
</svg>
