<?xml version="1.0" encoding="UTF-8" standalone="no"?>
<!DOCTYPE svg PUBLIC "-//W3C//DTD SVG 1.1//EN"
 "http://www.w3.org/Graphics/SVG/1.1/DTD/svg11.dtd">
<!-- Generated by graphviz version 12.2.1 (20241206.2353)
 -->
<!-- Title: fcmaes.mode.MODE.set_guess Pages: 1 -->
<!--zoomable 298 -->

<svg id="main" version="1.1" xmlns="http://www.w3.org/2000/svg" xmlns:xlink="http://www.w3.org/1999/xlink" xml:space="preserve" onload="init(evt)">

<style type="text/css"><![CDATA[
.node, .edge {opacity: 0.7;}
.node.selected, .edge.selected {opacity: 1;}
.edge:hover path { stroke: red; }
.edge:hover polygon { stroke: red; fill: red; }
]]></style>

<defs>
  <circle id="rim" cx="0" cy="0" r="7"/>
  <circle id="rim2" cx="0" cy="0" r="3.5"/>
  <g id="zoomPlus">
    <use xlink:href="#rim" fill="#404040"><set attributeName="fill" to="#808080" begin="zoomplus.mouseover" end="zoomplus.mouseout"/></use>
    <path d="M-4,0h8M0,-4v8" fill="none" stroke="white" stroke-width="1.5" pointer-events="none"/>
  </g>
  <g id="zoomMin">
    <use xlink:href="#rim" fill="#404040"><set attributeName="fill" to="#808080" begin="zoomminus.mouseover" end="zoomminus.mouseout"/></use>
    <path d="M-4,0h8" fill="none" stroke="white" stroke-width="1.5" pointer-events="none"/>
  </g>
  <g id="arrowUp" transform="translate(30 24)">
    <use xlink:href="#rim"/>
    <path pointer-events="none" fill="none" stroke="white" stroke-width="1.5" d="M0,-3.0v7 M-2.5,-0.5L0,-3.0L2.5,-0.5"/>
  </g>
  <g id="arrowRight" transform="rotate(90) translate(36 -43)">
    <use xlink:href="#rim"/>
    <path pointer-events="none" fill="none" stroke="white" stroke-width="1.5" d="M0,-3.0v7 M-2.5,-0.5L0,-3.0L2.5,-0.5"/>
  </g>
  <g id="arrowDown" transform="rotate(180) translate(-30 -48)">
    <use xlink:href="#rim"/>
    <path pointer-events="none" fill="none" stroke="white" stroke-width="1.5" d="M0,-3.0v7 M-2.5,-0.5L0,-3.0L2.5,-0.5"/>
  </g>
  <g id="arrowLeft" transform="rotate(270) translate(-36 17)">
    <use xlink:href="#rim"/>
    <path pointer-events="none" fill="none" stroke="white" stroke-width="1.5" d="M0,-3.0v7 M-2.5,-0.5L0,-3.0L2.5,-0.5"/>
  </g>
  <g id="resetDef">
    <use xlink:href="#rim2" fill="#404040"><set attributeName="fill" to="#808080" begin="reset.mouseover" end="reset.mouseout"/></use>
  </g>
</defs>
<script type="application/ecmascript">
var viewWidth = 915;
var viewHeight = 298;
var sectionId = 'dynsection-10';
</script>
<script type="application/ecmascript" xlink:href="svg.min.js"/>
<svg id="graph" class="graph">
<g id="viewport">
<title>fcmaes.mode.MODE.set_guess</title>
<!-- Node1 -->
<g id="Node000001" class="node">
<title>Node1</title>
<g id="a_Node000001"><a xlink:title="Sets the initial guess values for an optimization or search algorithm.">
<polygon fill="#999999" stroke="#666666" points="124.75,-180 0,-180 0,-148 124.75,-148 124.75,-180"/>
<text text-anchor="start" x="8" y="-166.5" font-family="Helvetica,sans-Serif" font-size="10.00">fcmaes.mode.MODE.set</text>
<text text-anchor="middle" x="62.38" y="-154.5" font-family="Helvetica,sans-Serif" font-size="10.00">_guess</text>
</a>
</g>
</g>
<!-- Node2 -->
<g id="Node000002" class="node">
<title>Node2</title>
<g id="a_Node000002"><a xlink:href="classfcmaes_1_1cmaes_1_1_cmaes.html#a398738e6fcf7fe101cce3257fb0d579d" target="_top" xlink:title="Processes the input function values and updates the internal state of the CMA&#45;ES algorithm.">
<polygon fill="white" stroke="#666666" points="303.88,-290 173.12,-290 173.12,-270 303.88,-270 303.88,-290"/>
<text text-anchor="middle" x="238.5" y="-276.5" font-family="Helvetica,sans-Serif" font-size="10.00">fcmaes.cmaes.Cmaes.tell</text>
</a>
</g>
</g>
<!-- Node1&#45;&gt;Node2 -->
<g id="edge1_Node000001_Node000002" class="edge">
<title>Node1&#45;&gt;Node2</title>
<g id="a_edge1_Node000001_Node000002"><a xlink:title=" ">
<path fill="none" stroke="#63b8ff" d="M75.24,-180.46C91.86,-202.27 124.16,-240.39 160.75,-261 163.61,-262.61 166.6,-264.09 169.68,-265.44"/>
<polygon fill="#63b8ff" stroke="#63b8ff" points="168.41,-268.7 179,-269.03 170.92,-262.17 168.41,-268.7"/>
</a>
</g>
</g>
<!-- Node3 -->
<g id="Node000003" class="node">
<title>Node3</title>
<g id="a_Node000003"><a xlink:href="classfcmaes_1_1cmaescpp_1_1_a_c_m_a___c.html#a4677822852841d0e52baa48fa91cbcb8" target="_top" xlink:title="Provides functionality to handle processed arrays and manage operations using the given inputs.">
<polygon fill="white" stroke="#666666" points="302.75,-252 174.25,-252 174.25,-220 302.75,-220 302.75,-252"/>
<text text-anchor="start" x="182.25" y="-238.5" font-family="Helvetica,sans-Serif" font-size="10.00">fcmaes.cmaescpp.ACMA</text>
<text text-anchor="middle" x="238.5" y="-226.5" font-family="Helvetica,sans-Serif" font-size="10.00">_C.tell</text>
</a>
</g>
</g>
<!-- Node1&#45;&gt;Node3 -->
<g id="edge2_Node000001_Node000003" class="edge">
<title>Node1&#45;&gt;Node3</title>
<g id="a_edge2_Node000001_Node000003"><a xlink:title=" ">
<path fill="none" stroke="#63b8ff" d="M94.47,-180.33C113.35,-189.92 138.11,-201.9 160.75,-211 164.8,-212.63 169.01,-214.23 173.26,-215.79"/>
<polygon fill="#63b8ff" stroke="#63b8ff" points="171.88,-219.02 182.48,-219.06 174.23,-212.42 171.88,-219.02"/>
</a>
</g>
</g>
<!-- Node5 -->
<g id="Node000005" class="node">
<title>Node5</title>
<g id="a_Node000005"><a xlink:href="classfcmaes_1_1crfmnescpp_1_1_c_r_f_m_n_e_s___c.html#a30327c6b3f1ecc4add777f4a74e83533" target="_top" xlink:title="Provides functionality to send an array of numerical values to a specific C&#45;based function,...">
<polygon fill="white" stroke="#666666" points="316.25,-202 160.75,-202 160.75,-170 316.25,-170 316.25,-202"/>
<text text-anchor="start" x="168.75" y="-188.5" font-family="Helvetica,sans-Serif" font-size="10.00">fcmaes.crfmnescpp.CRFMNES</text>
<text text-anchor="middle" x="238.5" y="-176.5" font-family="Helvetica,sans-Serif" font-size="10.00">_C.tell</text>
</a>
</g>
</g>
<!-- Node1&#45;&gt;Node5 -->
<g id="edge4_Node000001_Node000005" class="edge">
<title>Node1&#45;&gt;Node5</title>
<g id="a_edge4_Node000001_Node000005"><a xlink:title=" ">
<path fill="none" stroke="#63b8ff" d="M124.76,-171.76C132.71,-172.76 140.96,-173.8 149.24,-174.85"/>
<polygon fill="#63b8ff" stroke="#63b8ff" points="148.63,-178.3 158.99,-176.08 149.51,-171.35 148.63,-178.3"/>
</a>
</g>
</g>
<!-- Node6 -->
<g id="Node000006" class="node">
<title>Node6</title>
<g id="a_Node000006"><a xlink:href="classfcmaes_1_1de_1_1_d_e.html#aa9de9d67ac999658a523d2ad8976954b" target="_top" xlink:title="Tells the algorithm about the function evaluations (objective values) for the proposed solutions and ...">
<polygon fill="white" stroke="#666666" points="285.88,-152 191.12,-152 191.12,-132 285.88,-132 285.88,-152"/>
<text text-anchor="middle" x="238.5" y="-138.5" font-family="Helvetica,sans-Serif" font-size="10.00">fcmaes.de.DE.tell</text>
</a>
</g>
</g>
<!-- Node1&#45;&gt;Node6 -->
<g id="edge5_Node000001_Node000006" class="edge">
<title>Node1&#45;&gt;Node6</title>
<g id="a_edge5_Node000001_Node000006"><a xlink:title=" ">
<path fill="none" stroke="#63b8ff" d="M124.76,-156.24C142.6,-153.99 162,-151.54 179.61,-149.31"/>
<polygon fill="#63b8ff" stroke="#63b8ff" points="179.91,-152.8 189.39,-148.08 179.03,-145.86 179.91,-152.8"/>
</a>
</g>
</g>
<!-- Node15 -->
<g id="Node000015" class="node">
<title>Node15</title>
<g id="a_Node000015"><a xlink:href="classfcmaes_1_1decpp_1_1_d_e___c.html#ad53cc4b5553a819096b47115e1f49b42" target="_top" xlink:title="Updates the object with input data and performs a specific operation using the provided numerical arr...">
<polygon fill="white" stroke="#666666" points="300.12,-114 176.88,-114 176.88,-94 300.12,-94 300.12,-114"/>
<text text-anchor="middle" x="238.5" y="-100.5" font-family="Helvetica,sans-Serif" font-size="10.00">fcmaes.decpp.DE_C.tell</text>
</a>
</g>
</g>
<!-- Node1&#45;&gt;Node15 -->
<g id="edge14_Node000001_Node000015" class="edge">
<title>Node1&#45;&gt;Node15</title>
<g id="a_edge14_Node000001_Node000015"><a xlink:title=" ">
<path fill="none" stroke="#63b8ff" d="M98.48,-147.66C116.78,-139.54 139.69,-129.99 160.75,-123 166.84,-120.98 173.27,-119.06 179.71,-117.28"/>
<polygon fill="#63b8ff" stroke="#63b8ff" points="180.27,-120.75 189.03,-114.79 178.47,-113.98 180.27,-120.75"/>
</a>
</g>
</g>
<!-- Node16 -->
<g id="Node000016" class="node">
<title>Node16</title>
<g id="a_Node000016"><a xlink:href="classfcmaes_1_1mode_1_1_m_o_d_e.html#a8b928c29cf646933a1821566ec18d73a" target="_top" xlink:title="Updates the internal population data with the given ys values, and optionally, with the corresponding...">
<polygon fill="white" stroke="#666666" points="300.5,-70 176.5,-70 176.5,-50 300.5,-50 300.5,-70"/>
<text text-anchor="middle" x="238.5" y="-56.5" font-family="Helvetica,sans-Serif" font-size="10.00">fcmaes.mode.MODE.tell</text>
</a>
</g>
</g>
<!-- Node1&#45;&gt;Node16 -->
<g id="edge15_Node000001_Node000016" class="edge">
<title>Node1&#45;&gt;Node16</title>
<g id="a_edge15_Node000001_Node000016"><a xlink:title=" ">
<path fill="none" stroke="#63b8ff" d="M79.58,-147.66C97.87,-130.02 129.2,-102.17 160.75,-85 168.45,-80.81 176.98,-77.17 185.46,-74.07"/>
<polygon fill="#63b8ff" stroke="#63b8ff" points="186.35,-77.46 194.68,-70.92 184.09,-70.84 186.35,-77.46"/>
</a>
</g>
</g>
<!-- Node4 -->
<g id="Node000004" class="node">
<title>Node4</title>
<g id="a_Node000004"><a xlink:href="classfcmaes_1_1cmaescpp_1_1_a_c_m_a___c.html#a344851d94557ce52f99da907ee61590d" target="_top" xlink:title="Passes flattened numpy arrays and interacts with an external C function using ctypes.">
<polygon fill="white" stroke="#666666" points="492.38,-252 363.88,-252 363.88,-220 492.38,-220 492.38,-252"/>
<text text-anchor="start" x="371.88" y="-238.5" font-family="Helvetica,sans-Serif" font-size="10.00">fcmaes.cmaescpp.ACMA</text>
<text text-anchor="middle" x="428.12" y="-226.5" font-family="Helvetica,sans-Serif" font-size="10.00">_C.tell_x_</text>
</a>
</g>
</g>
<!-- Node3&#45;&gt;Node4 -->
<g id="edge3_Node000003_Node000004" class="edge">
<title>Node3&#45;&gt;Node4</title>
<g id="a_edge3_Node000003_Node000004"><a xlink:title=" ">
<path fill="none" stroke="#63b8ff" d="M303.02,-236C318.91,-236 336.11,-236 352.49,-236"/>
<polygon fill="#63b8ff" stroke="#63b8ff" points="352.16,-239.5 362.16,-236 352.16,-232.5 352.16,-239.5"/>
</a>
</g>
</g>
<!-- Node7 -->
<g id="Node000007" class="node">
<title>Node7</title>
<g id="a_Node000007"><a xlink:href="classfcmaes_1_1cmaes_1_1_cmaes.html#ac7cbecf8b29fb1048bd4cc7ec900692c" target="_top" xlink:title="Processes the given fitness value and solution vector, performs updates to internal data structures,...">
<polygon fill="white" stroke="#666666" points="504,-197 352.25,-197 352.25,-177 504,-177 504,-197"/>
<text text-anchor="middle" x="428.12" y="-183.5" font-family="Helvetica,sans-Serif" font-size="10.00">fcmaes.cmaes.Cmaes.tell_one</text>
</a>
</g>
</g>
<!-- Node6&#45;&gt;Node7 -->
<g id="edge6_Node000006_Node000007" class="edge">
<title>Node6&#45;&gt;Node7</title>
<g id="a_edge6_Node000006_Node000007"><a xlink:title=" ">
<path fill="none" stroke="#63b8ff" d="M283.02,-152.44C309.68,-158.83 344.04,-167.07 372.52,-173.9"/>
<polygon fill="#63b8ff" stroke="#63b8ff" points="371.51,-177.26 382.05,-176.19 373.14,-170.45 371.51,-177.26"/>
</a>
</g>
</g>
<!-- Node12 -->
<g id="Node000012" class="node">
<title>Node12</title>
<g id="a_Node000012"><a xlink:href="classfcmaes_1_1de_1_1_d_e.html#a882c7a58bf3f14c342d2a0e0700e31ef" target="_top" xlink:title="Process a single individual&#39;s evaluation update within a population&#45;based optimization algorithm.">
<polygon fill="white" stroke="#666666" points="486,-152 370.25,-152 370.25,-132 486,-132 486,-152"/>
<text text-anchor="middle" x="428.12" y="-138.5" font-family="Helvetica,sans-Serif" font-size="10.00">fcmaes.de.DE.tell_one</text>
</a>
</g>
</g>
<!-- Node6&#45;&gt;Node12 -->
<g id="edge11_Node000006_Node000012" class="edge">
<title>Node6&#45;&gt;Node12</title>
<g id="a_edge11_Node000006_Node000012"><a xlink:title=" ">
<path fill="none" stroke="#63b8ff" d="M286.36,-142C308.19,-142 334.6,-142 358.61,-142"/>
<polygon fill="#63b8ff" stroke="#63b8ff" points="358.3,-145.5 368.3,-142 358.3,-138.5 358.3,-145.5"/>
</a>
</g>
</g>
<!-- Node8 -->
<g id="Node000008" class="node">
<title>Node8</title>
<g id="a_Node000008"><a xlink:href="classfcmaes_1_1cmaes_1_1_cmaes.html#a7dada2c399890feafb59c01d1f424ee5" target="_top" xlink:title="Updates the evolutionary process using the Covariance Matrix Adaptation (CMA) strategy.">
<polygon fill="white" stroke="#666666" points="709.75,-200 540,-200 540,-180 709.75,-180 709.75,-200"/>
<text text-anchor="middle" x="624.88" y="-186.5" font-family="Helvetica,sans-Serif" font-size="10.00">fcmaes.cmaes.Cmaes.updateCMA</text>
</a>
</g>
</g>
<!-- Node7&#45;&gt;Node8 -->
<g id="edge7_Node000007_Node000008" class="edge">
<title>Node7&#45;&gt;Node8</title>
<g id="a_edge7_Node000007_Node000008"><a xlink:title=" ">
<path fill="none" stroke="#63b8ff" d="M504.42,-188.16C512.28,-188.28 520.34,-188.41 528.38,-188.53"/>
<polygon fill="#63b8ff" stroke="#63b8ff" points="528.15,-192.03 538.2,-188.68 528.26,-185.03 528.15,-192.03"/>
</a>
</g>
</g>
<!-- Node9 -->
<g id="Node000009" class="node">
<title>Node9</title>
<g id="a_Node000009"><a xlink:href="classfcmaes_1_1cmaes_1_1_cmaes.html#ae26e42639fa8cb28b64c1fe1bcd7109c" target="_top" xlink:title="Updates the internal state of the covariance matrix and its derived attributes, such as eigenvalues,...">
<polygon fill="white" stroke="#666666" points="907.25,-287 745.75,-287 745.75,-267 907.25,-267 907.25,-287"/>
<text text-anchor="middle" x="826.5" y="-273.5" font-family="Helvetica,sans-Serif" font-size="10.00">fcmaes.cmaes.Cmaes.updateBD</text>
</a>
</g>
</g>
<!-- Node8&#45;&gt;Node9 -->
<g id="edge8_Node000008_Node000009" class="edge">
<title>Node8&#45;&gt;Node9</title>
<g id="a_edge8_Node000008_Node000009"><a xlink:title=" ">
<path fill="none" stroke="#63b8ff" d="M641.07,-200.5C663.17,-215.32 705.9,-242.32 745.75,-258 750.78,-259.98 756.08,-261.79 761.45,-263.44"/>
<polygon fill="#63b8ff" stroke="#63b8ff" points="760.48,-266.8 771.06,-266.18 762.4,-260.07 760.48,-266.8"/>
</a>
</g>
</g>
<!-- Node10 -->
<g id="Node000010" class="node">
<title>Node10</title>
<g id="a_Node000010"><a xlink:href="classfcmaes_1_1cmaes_1_1_cmaes.html#afd8b8665d87f14c53cd60da16c932336" target="_top" xlink:title="Updates the covariance matrix and returns the negative covariance scaling factor.">
<polygon fill="white" stroke="#666666" points="900.12,-249 752.88,-249 752.88,-217 900.12,-217 900.12,-249"/>
<text text-anchor="start" x="760.88" y="-235.5" font-family="Helvetica,sans-Serif" font-size="10.00">fcmaes.cmaes.Cmaes.update</text>
<text text-anchor="middle" x="826.5" y="-223.5" font-family="Helvetica,sans-Serif" font-size="10.00">Covariance</text>
</a>
</g>
</g>
<!-- Node8&#45;&gt;Node10 -->
<g id="edge9_Node000008_Node000010" class="edge">
<title>Node8&#45;&gt;Node10</title>
<g id="a_edge9_Node000008_Node000010"><a xlink:title=" ">
<path fill="none" stroke="#63b8ff" d="M674.45,-200.46C694.59,-204.8 718.54,-209.96 741.36,-214.88"/>
<polygon fill="#63b8ff" stroke="#63b8ff" points="740.47,-218.26 750.98,-216.95 741.94,-211.42 740.47,-218.26"/>
</a>
</g>
</g>
<!-- Node11 -->
<g id="Node000011" class="node">
<title>Node11</title>
<g id="a_Node000011"><a xlink:href="classfcmaes_1_1cmaes_1_1_cmaes.html#ae3fd3fbe79efd9509bb8462382d63bdd" target="_top" xlink:title="Updates the evolution paths required for generating new samples in the covariance matrix adaptation e...">
<polygon fill="white" stroke="#666666" points="900.12,-199 752.88,-199 752.88,-167 900.12,-167 900.12,-199"/>
<text text-anchor="start" x="760.88" y="-185.5" font-family="Helvetica,sans-Serif" font-size="10.00">fcmaes.cmaes.Cmaes.update</text>
<text text-anchor="middle" x="826.5" y="-173.5" font-family="Helvetica,sans-Serif" font-size="10.00">EvolutionPaths</text>
</a>
</g>
</g>
<!-- Node8&#45;&gt;Node11 -->
<g id="edge10_Node000008_Node000011" class="edge">
<title>Node8&#45;&gt;Node11</title>
<g id="a_edge10_Node000008_Node000011"><a xlink:title=" ">
<path fill="none" stroke="#63b8ff" d="M710.24,-187.04C720.45,-186.68 730.88,-186.32 741.08,-185.96"/>
<polygon fill="#63b8ff" stroke="#63b8ff" points="741.1,-189.46 750.98,-185.61 740.86,-182.47 741.1,-189.46"/>
</a>
</g>
</g>
<!-- Node13 -->
<g id="Node000013" class="node">
<title>Node13</title>
<g id="a_Node000013"><a xlink:href="classfcmaes_1_1de_1_1_d_e.html#a75e2c22d49dde6bd8f31572ef39152d7" target="_top" xlink:title="Compute the next feasible point to improve optimization.">
<polygon fill="white" stroke="#666666" points="677.88,-158 571.88,-158 571.88,-126 677.88,-126 677.88,-158"/>
<text text-anchor="start" x="579.88" y="-144.5" font-family="Helvetica,sans-Serif" font-size="10.00">fcmaes.de.DE._next</text>
<text text-anchor="middle" x="624.88" y="-132.5" font-family="Helvetica,sans-Serif" font-size="10.00">_improve</text>
</a>
</g>
</g>
<!-- Node12&#45;&gt;Node13 -->
<g id="edge12_Node000012_Node000013" class="edge">
<title>Node12&#45;&gt;Node13</title>
<g id="a_edge12_Node000012_Node000013"><a xlink:title=" ">
<path fill="none" stroke="#63b8ff" d="M486.24,-142C509.39,-142 536.22,-142 560.02,-142"/>
<polygon fill="#63b8ff" stroke="#63b8ff" points="559.91,-145.5 569.91,-142 559.91,-138.5 559.91,-145.5"/>
</a>
</g>
</g>
<!-- Node14 -->
<g id="Node000014" class="node">
<title>Node14</title>
<g id="a_Node000014"><a xlink:href="classfcmaes_1_1de_1_1_d_e.html#ac3453c9ebcc0897aedb6a53a8b93ffcd" target="_top" xlink:title="Checks the feasibility of a value with respect to specified bounds and adjusts it if necessary by cli...">
<polygon fill="white" stroke="#666666" points="887,-149 766,-149 766,-129 887,-129 887,-149"/>
<text text-anchor="middle" x="826.5" y="-135.5" font-family="Helvetica,sans-Serif" font-size="10.00">fcmaes.de.DE._feasible</text>
</a>
</g>
</g>
<!-- Node13&#45;&gt;Node14 -->
<g id="edge13_Node000013_Node000014" class="edge">
<title>Node13&#45;&gt;Node14</title>
<g id="a_edge13_Node000013_Node000014"><a xlink:title=" ">
<path fill="none" stroke="#63b8ff" d="M678.32,-141.21C701.56,-140.86 729.27,-140.45 754.33,-140.07"/>
<polygon fill="#63b8ff" stroke="#63b8ff" points="754.18,-143.57 764.13,-139.92 754.07,-136.57 754.18,-143.57"/>
</a>
</g>
</g>
<!-- Node17 -->
<g id="Node000017" class="node">
<title>Node17</title>
<g id="a_Node000017"><a xlink:href="classfcmaes_1_1mode_1_1_m_o_d_e.html#a29791dbcb2e070361529475630de2052" target="_top" xlink:title="Updates the population by performing non&#45;dominated sorting, crowding distance sorting,...">
<polygon fill="white" stroke="#666666" points="491.62,-73 364.62,-73 364.62,-41 491.62,-41 491.62,-73"/>
<text text-anchor="start" x="372.62" y="-59.5" font-family="Helvetica,sans-Serif" font-size="10.00">fcmaes.mode.MODE.pop</text>
<text text-anchor="middle" x="428.12" y="-47.5" font-family="Helvetica,sans-Serif" font-size="10.00">_update</text>
</a>
</g>
</g>
<!-- Node16&#45;&gt;Node17 -->
<g id="edge16_Node000016_Node000017" class="edge">
<title>Node16&#45;&gt;Node17</title>
<g id="a_edge16_Node000016_Node000017"><a xlink:title=" ">
<path fill="none" stroke="#63b8ff" d="M300.94,-59.02C317.59,-58.75 335.8,-58.46 353.08,-58.18"/>
<polygon fill="#63b8ff" stroke="#63b8ff" points="352.81,-61.69 362.75,-58.03 352.7,-54.69 352.81,-61.69"/>
</a>
</g>
</g>
<!-- Node18 -->
<g id="Node000018" class="node">
<title>Node18</title>
<g id="a_Node000018"><a xlink:href="namespacefcmaes_1_1mode.html#a0f27ab476c153a96dba3568003ab075a" target="_top" xlink:title="Calculates the crowding distance for the first objective in a multi&#45;objective optimization problem.">
<polygon fill="white" stroke="#666666" points="687.62,-108 562.12,-108 562.12,-88 687.62,-88 687.62,-108"/>
<text text-anchor="middle" x="624.88" y="-94.5" font-family="Helvetica,sans-Serif" font-size="10.00">fcmaes.mode.crowd_dist</text>
</a>
</g>
</g>
<!-- Node17&#45;&gt;Node18 -->
<g id="edge17_Node000017_Node000018" class="edge">
<title>Node17&#45;&gt;Node18</title>
<g id="a_edge17_Node000017_Node000018"><a xlink:title=" ">
<path fill="none" stroke="#63b8ff" d="M492.09,-70.25C514.81,-75.04 540.4,-80.43 562.94,-85.17"/>
<polygon fill="#63b8ff" stroke="#63b8ff" points="562.09,-88.57 572.6,-87.21 563.53,-81.72 562.09,-88.57"/>
</a>
</g>
</g>
<!-- Node19 -->
<g id="Node000019" class="node">
<title>Node19</title>
<g id="a_Node000019"><a xlink:href="namespacefcmaes_1_1mode.html#aee5b0cd4fba6d7edff0afe48a8bc636a" target="_top" xlink:title="Determines Pareto domination levels for a set of solutions considering objectives and constraint viol...">
<polygon fill="white" stroke="#666666" points="677.5,-70 572.25,-70 572.25,-38 677.5,-38 677.5,-70"/>
<text text-anchor="start" x="580.25" y="-56.5" font-family="Helvetica,sans-Serif" font-size="10.00">fcmaes.mode.pareto</text>
<text text-anchor="middle" x="624.88" y="-44.5" font-family="Helvetica,sans-Serif" font-size="10.00">_domination</text>
</a>
</g>
</g>
<!-- Node17&#45;&gt;Node19 -->
<g id="edge18_Node000017_Node000019" class="edge">
<title>Node17&#45;&gt;Node19</title>
<g id="a_edge18_Node000017_Node000019"><a xlink:title=" ">
<path fill="none" stroke="#63b8ff" d="M492.09,-56.03C514.04,-55.69 538.68,-55.31 560.65,-54.97"/>
<polygon fill="#63b8ff" stroke="#63b8ff" points="560.42,-58.48 570.36,-54.82 560.31,-51.48 560.42,-58.48"/>
</a>
</g>
</g>
<!-- Node23 -->
<g id="Node000023" class="node">
<title>Node23</title>
<g id="a_Node000023"><a xlink:href="namespacefcmaes_1_1mode.html#afba15234474d356adb0ed83aa94f73a6" target="_top" xlink:title="Applies genetic variation operations, including simulated binary crossover (SBX) and polynomial mutat...">
<polygon fill="white" stroke="#666666" points="682.38,-20 567.38,-20 567.38,0 682.38,0 682.38,-20"/>
<text text-anchor="middle" x="624.88" y="-6.5" font-family="Helvetica,sans-Serif" font-size="10.00">fcmaes.mode.variation</text>
</a>
</g>
</g>
<!-- Node17&#45;&gt;Node23 -->
<g id="edge22_Node000017_Node000023" class="edge">
<title>Node17&#45;&gt;Node23</title>
<g id="a_edge22_Node000017_Node000023"><a xlink:title=" ">
<path fill="none" stroke="#63b8ff" d="M492.09,-40.81C507.73,-36.87 524.46,-32.72 540,-29 548.28,-27.02 557.03,-24.98 565.63,-23"/>
<polygon fill="#63b8ff" stroke="#63b8ff" points="566.36,-26.42 575.33,-20.79 564.8,-19.6 566.36,-26.42"/>
</a>
</g>
</g>
<!-- Node20 -->
<g id="Node000020" class="node">
<title>Node20</title>
<g id="a_Node000020"><a xlink:href="namespacefcmaes_1_1mode.html#a64da91b9fe11c4db2c528851fe65f4e4" target="_top" xlink:title="Computes the rank of objects based on their sum of ranks across all columns.">
<polygon fill="white" stroke="#666666" points="884,-108 769,-108 769,-88 884,-88 884,-108"/>
<text text-anchor="middle" x="826.5" y="-94.5" font-family="Helvetica,sans-Serif" font-size="10.00">fcmaes.mode.objranks</text>
</a>
</g>
</g>
<!-- Node19&#45;&gt;Node20 -->
<g id="edge19_Node000019_Node000020" class="edge">
<title>Node19&#45;&gt;Node20</title>
<g id="a_edge19_Node000019_Node000020"><a xlink:title=" ">
<path fill="none" stroke="#63b8ff" d="M677.8,-65.45C705.14,-71.47 738.75,-78.88 767,-85.1"/>
<polygon fill="#63b8ff" stroke="#63b8ff" points="765.94,-88.46 776.46,-87.19 767.44,-81.62 765.94,-88.46"/>
</a>
</g>
</g>
<!-- Node21 -->
<g id="Node000021" class="node">
<title>Node21</title>
<g id="a_Node000021"><a xlink:href="namespacefcmaes_1_1mode.html#a2570992dd7d42219e4b1381adff7a710" target="_top" xlink:title="Determines the Pareto levels of a given set of points.">
<polygon fill="white" stroke="#666666" points="879.12,-70 773.88,-70 773.88,-38 879.12,-38 879.12,-70"/>
<text text-anchor="start" x="781.88" y="-56.5" font-family="Helvetica,sans-Serif" font-size="10.00">fcmaes.mode.pareto</text>
<text text-anchor="middle" x="826.5" y="-44.5" font-family="Helvetica,sans-Serif" font-size="10.00">_levels</text>
</a>
</g>
</g>
<!-- Node19&#45;&gt;Node21 -->
<g id="edge20_Node000019_Node000021" class="edge">
<title>Node19&#45;&gt;Node21</title>
<g id="a_edge20_Node000019_Node000021"><a xlink:title=" ">
<path fill="none" stroke="#63b8ff" d="M677.8,-54C703.58,-54 734.94,-54 762.12,-54"/>
<polygon fill="#63b8ff" stroke="#63b8ff" points="761.97,-57.5 771.97,-54 761.97,-50.5 761.97,-57.5"/>
</a>
</g>
</g>
<!-- Node22 -->
<g id="Node000022" class="node">
<title>Node22</title>
<g id="a_Node000022"><a xlink:href="namespacefcmaes_1_1mode.html#af072da864e0f91afc47942de9a8901a5" target="_top" xlink:title="Computes the ranks of constraint values, adjusted by their feasibility and scaled by the fraction of ...">
<polygon fill="white" stroke="#666666" points="877.62,-20 775.38,-20 775.38,0 877.62,0 877.62,-20"/>
<text text-anchor="middle" x="826.5" y="-6.5" font-family="Helvetica,sans-Serif" font-size="10.00">fcmaes.mode.ranks</text>
</a>
</g>
</g>
<!-- Node19&#45;&gt;Node22 -->
<g id="edge21_Node000019_Node000022" class="edge">
<title>Node19&#45;&gt;Node22</title>
<g id="a_edge21_Node000019_Node000022"><a xlink:title=" ">
<path fill="none" stroke="#63b8ff" d="M677.8,-42.55C705.14,-36.53 738.75,-29.12 767,-22.9"/>
<polygon fill="#63b8ff" stroke="#63b8ff" points="767.44,-26.38 776.46,-20.81 765.94,-19.54 767.44,-26.38"/>
</a>
</g>
</g>
</g>
</svg>

<g id="navigator" transform="translate(0 0)" fill="#404254">
  <rect fill="#f2f5e9" fill-opacity="0.5" stroke="#606060" stroke-width=".5" x="0" y="0" width="60" height="60"/>
  <use id="zoomplus" xlink:href="#zoomPlus" x="17" y="9" onmousedown="handleZoom(evt,'in')"/>
  <use id="zoomminus" xlink:href="#zoomMin" x="42" y="9" onmousedown="handleZoom(evt,'out')"/>
  <use id="reset" xlink:href="#resetDef" x="30" y="36" onmousedown="handleReset()"/>
   <use id="arrowup" xlink:href="#arrowUp" x="0" y="0" onmousedown="handlePan(0,-1)"/>
  <use id="arrowright" xlink:href="#arrowRight" x="0" y="0" onmousedown="handlePan(1,0)"/>
  <use id="arrowdown" xlink:href="#arrowDown" x="0" y="0" onmousedown="handlePan(0,1)"/>
  <use id="arrowleft" xlink:href="#arrowLeft" x="0" y="0" onmousedown="handlePan(-1,0)"/>
</g>
<svg viewBox="0 0 15 15" width="100%" height="30px" preserveAspectRatio="xMaxYMin meet">
 <g id="arrow_out" transform="scale(0.3 0.3)">
  <a xlink:href="classfcmaes_1_1mode_1_1_m_o_d_e_af1ac6ae50db24a626f6649175bfecf96_cgraph_org.svg" target="_base">
   <rect id="button" ry="5" rx="5" y="6" x="6" height="38" width="38"
        fill="#f2f5e9" fill-opacity="0.5" stroke="#606060" stroke-width="1.0"/>
   <path id="arrow"
     d="M 11.500037,31.436501 C 11.940474,20.09759 22.043105,11.32322 32.158766,21.979434 L 37.068811,17.246167 C 37.068811,17.246167 37.088388,32 37.088388,32 L 22.160133,31.978069 C 22.160133,31.978069 26.997745,27.140456 26.997745,27.140456 C 18.528582,18.264221 13.291696,25.230495 11.500037,31.436501 z"
     style="fill:#404040;"/>
  </a>
 </g>
</svg>

<style type='text/css'>
<![CDATA[
[data-mouse-over-selected='false'] { opacity: 0.7; }
[data-mouse-over-selected='true']  { opacity: 1.0; }
]]>
</style>
<script type="application/ecmascript"><![CDATA[
document.addEventListener('DOMContentLoaded', (event) => {
  highlightEdges();
  highlightAdjacentNodes();
});
]]></script>
</svg>
