<?xml version="1.0" encoding="UTF-8" standalone="no"?>
<!DOCTYPE svg PUBLIC "-//W3C//DTD SVG 1.1//EN"
 "http://www.w3.org/Graphics/SVG/1.1/DTD/svg11.dtd">
<!-- Generated by graphviz version 12.2.1 (20241206.2353)
 -->
<!-- Title: fcmaes.advretry.Store.get_ys Pages: 1 -->
<!--zoomable 356 -->

<svg id="main" version="1.1" xmlns="http://www.w3.org/2000/svg" xmlns:xlink="http://www.w3.org/1999/xlink" xml:space="preserve" onload="init(evt)">

<style type="text/css"><![CDATA[
.node, .edge {opacity: 0.7;}
.node.selected, .edge.selected {opacity: 1;}
.edge:hover path { stroke: red; }
.edge:hover polygon { stroke: red; fill: red; }
]]></style>

<defs>
  <circle id="rim" cx="0" cy="0" r="7"/>
  <circle id="rim2" cx="0" cy="0" r="3.5"/>
  <g id="zoomPlus">
    <use xlink:href="#rim" fill="#404040"><set attributeName="fill" to="#808080" begin="zoomplus.mouseover" end="zoomplus.mouseout"/></use>
    <path d="M-4,0h8M0,-4v8" fill="none" stroke="white" stroke-width="1.5" pointer-events="none"/>
  </g>
  <g id="zoomMin">
    <use xlink:href="#rim" fill="#404040"><set attributeName="fill" to="#808080" begin="zoomminus.mouseover" end="zoomminus.mouseout"/></use>
    <path d="M-4,0h8" fill="none" stroke="white" stroke-width="1.5" pointer-events="none"/>
  </g>
  <g id="arrowUp" transform="translate(30 24)">
    <use xlink:href="#rim"/>
    <path pointer-events="none" fill="none" stroke="white" stroke-width="1.5" d="M0,-3.0v7 M-2.5,-0.5L0,-3.0L2.5,-0.5"/>
  </g>
  <g id="arrowRight" transform="rotate(90) translate(36 -43)">
    <use xlink:href="#rim"/>
    <path pointer-events="none" fill="none" stroke="white" stroke-width="1.5" d="M0,-3.0v7 M-2.5,-0.5L0,-3.0L2.5,-0.5"/>
  </g>
  <g id="arrowDown" transform="rotate(180) translate(-30 -48)">
    <use xlink:href="#rim"/>
    <path pointer-events="none" fill="none" stroke="white" stroke-width="1.5" d="M0,-3.0v7 M-2.5,-0.5L0,-3.0L2.5,-0.5"/>
  </g>
  <g id="arrowLeft" transform="rotate(270) translate(-36 17)">
    <use xlink:href="#rim"/>
    <path pointer-events="none" fill="none" stroke="white" stroke-width="1.5" d="M0,-3.0v7 M-2.5,-0.5L0,-3.0L2.5,-0.5"/>
  </g>
  <g id="resetDef">
    <use xlink:href="#rim2" fill="#404040"><set attributeName="fill" to="#808080" begin="reset.mouseover" end="reset.mouseout"/></use>
  </g>
</defs>
<script type="application/ecmascript">
var viewWidth = 705;
var viewHeight = 356;
var sectionId = 'dynsection-17';
</script>
<script type="application/ecmascript" xlink:href="svg.min.js"/>
<svg id="graph" class="graph">
<g id="viewport">
<title>fcmaes.advretry.Store.get_ys</title>
<!-- Node1 -->
<g id="Node000001" class="node">
<title>Node1</title>
<g id="a_Node000001"><a xlink:title="Gets the stored y&#45;values up to the specified count.">
<polygon fill="#999999" stroke="#666666" points="697,-190 552.75,-190 552.75,-170 697,-170 697,-190"/>
<text text-anchor="middle" x="624.88" y="-176.5" font-family="Helvetica,sans-Serif" font-size="10.00">fcmaes.advretry.Store.get_ys</text>
</a>
</g>
</g>
<!-- Node2 -->
<g id="Node000002" class="node">
<title>Node2</title>
<g id="a_Node000002"><a xlink:href="classfcmaes_1_1advretry_1_1_store.html#a03953d817f7ad4b1c13818e1f133a6da" target="_top" xlink:title="Logs a summary of the execution metrics and current status.">
<polygon fill="white" stroke="#666666" points="508.12,-348 369.12,-348 369.12,-328 508.12,-328 508.12,-348"/>
<text text-anchor="middle" x="438.62" y="-334.5" font-family="Helvetica,sans-Serif" font-size="10.00">fcmaes.advretry.Store.dump</text>
</a>
</g>
</g>
<!-- Node1&#45;&gt;Node2 -->
<g id="edge1_Node000001_Node000002" class="edge">
<title>Node1&#45;&gt;Node2</title>
<g id="a_edge1_Node000001_Node000002"><a xlink:title=" ">
<path fill="none" stroke="#63b8ff" d="M613.99,-200.24C597.97,-230.87 563.34,-288.61 516.75,-319 511.44,-322.47 505.54,-325.3 499.45,-327.61"/>
<polygon fill="#63b8ff" stroke="#63b8ff" points="616.95,-202.14 618.36,-191.64 610.71,-198.97 616.95,-202.14"/>
</a>
</g>
</g>
<!-- Node5 -->
<g id="Node000005" class="node">
<title>Node5</title>
<g id="a_Node000005"><a xlink:href="classfcmaes_1_1mapelites_1_1_archive.html#a0bcd8007cc5cf709da8ccc42aa2c46eb" target="_top" xlink:title="Prints a sorted dump of data points up to the specified limit.">
<polygon fill="white" stroke="#666666" points="516.75,-310 360.5,-310 360.5,-290 516.75,-290 516.75,-310"/>
<text text-anchor="middle" x="438.62" y="-296.5" font-family="Helvetica,sans-Serif" font-size="10.00">fcmaes.mapelites.Archive.dump</text>
</a>
</g>
</g>
<!-- Node1&#45;&gt;Node5 -->
<g id="edge4_Node000001_Node000005" class="edge">
<title>Node1&#45;&gt;Node5</title>
<g id="a_edge4_Node000001_Node000005"><a xlink:title=" ">
<path fill="none" stroke="#63b8ff" d="M608.86,-199.25C589.88,-222.22 555.05,-260.14 516.75,-281 510.45,-284.43 503.53,-287.25 496.5,-289.57"/>
<polygon fill="#63b8ff" stroke="#63b8ff" points="611.48,-201.57 615.03,-191.59 606.03,-197.18 611.48,-201.57"/>
</a>
</g>
</g>
<!-- Node6 -->
<g id="Node000006" class="node">
<title>Node6</title>
<g id="a_Node000006"><a xlink:href="classfcmaes_1_1retry_1_1_store.html#a0049736307028e256c038d8a8c1723d2" target="_top" xlink:title="Dumps debugging information if debugging is active.">
<polygon fill="white" stroke="#666666" points="500.25,-272 377,-272 377,-252 500.25,-252 500.25,-272"/>
<text text-anchor="middle" x="438.62" y="-258.5" font-family="Helvetica,sans-Serif" font-size="10.00">fcmaes.retry.Store.dump</text>
</a>
</g>
</g>
<!-- Node1&#45;&gt;Node6 -->
<g id="edge6_Node000001_Node000006" class="edge">
<title>Node1&#45;&gt;Node6</title>
<g id="a_edge6_Node000001_Node000006"><a xlink:title=" ">
<path fill="none" stroke="#63b8ff" d="M599.93,-196.83C578.88,-210.94 546.98,-230.7 516.75,-243 508.58,-246.33 499.67,-249.18 490.91,-251.58"/>
<polygon fill="#63b8ff" stroke="#63b8ff" points="601.79,-199.8 608.08,-191.27 597.85,-194.01 601.79,-199.8"/>
</a>
</g>
</g>
<!-- Node7 -->
<g id="Node000007" class="node">
<title>Node7</title>
<g id="a_Node000007"><a xlink:href="classfcmaes_1_1advretry_1_1_store.html#aabe26248085adae1ad80a9b17202e5b7" target="_top" xlink:title="Retrieves and aggregates data from various attributes and methods.">
<polygon fill="white" stroke="#666666" points="514.88,-234 362.38,-234 362.38,-214 514.88,-214 514.88,-234"/>
<text text-anchor="middle" x="438.62" y="-220.5" font-family="Helvetica,sans-Serif" font-size="10.00">fcmaes.advretry.Store.get_data</text>
</a>
</g>
</g>
<!-- Node1&#45;&gt;Node7 -->
<g id="edge8_Node000001_Node000007" class="edge">
<title>Node1&#45;&gt;Node7</title>
<g id="a_edge8_Node000001_Node000007"><a xlink:title=" ">
<path fill="none" stroke="#63b8ff" d="M569.21,-193.05C541.78,-199.6 509.02,-207.43 483.3,-213.57"/>
<polygon fill="#63b8ff" stroke="#63b8ff" points="569.82,-196.51 578.74,-190.78 568.2,-189.7 569.82,-196.51"/>
</a>
</g>
</g>
<!-- Node10 -->
<g id="Node000010" class="node">
<title>Node10</title>
<g id="a_Node000010"><a xlink:href="classfcmaes_1_1mapelites_1_1_archive.html#ad4060a6948b61fe981b124afc8c12ba4" target="_top" xlink:title="Retrieves the data points marked as &quot;occupied&quot;.">
<polygon fill="white" stroke="#666666" points="511.5,-196 365.75,-196 365.75,-164 511.5,-164 511.5,-196"/>
<text text-anchor="start" x="373.75" y="-182.5" font-family="Helvetica,sans-Serif" font-size="10.00">fcmaes.mapelites.Archive.get</text>
<text text-anchor="middle" x="438.62" y="-170.5" font-family="Helvetica,sans-Serif" font-size="10.00">_occupied_data</text>
</a>
</g>
</g>
<!-- Node1&#45;&gt;Node10 -->
<g id="edge12_Node000001_Node000010" class="edge">
<title>Node1&#45;&gt;Node10</title>
<g id="a_edge12_Node000001_Node000010"><a xlink:title=" ">
<path fill="none" stroke="#63b8ff" d="M541.08,-180C531.38,-180 521.54,-180 512,-180"/>
<polygon fill="#63b8ff" stroke="#63b8ff" points="540.86,-183.5 550.86,-180 540.86,-176.5 540.86,-183.5"/>
</a>
</g>
</g>
<!-- Node11 -->
<g id="Node000011" class="node">
<title>Node11</title>
<g id="a_Node000011"><a xlink:href="classfcmaes_1_1mapelites_1_1_archive.html#a50c9e9bac3b339e4158614dad396bb18" target="_top" xlink:title="Calculates the QD (Quality&#45;Diversity) score based on the provided array of values.">
<polygon fill="white" stroke="#666666" points="511.5,-146 365.75,-146 365.75,-114 511.5,-114 511.5,-146"/>
<text text-anchor="start" x="373.75" y="-132.5" font-family="Helvetica,sans-Serif" font-size="10.00">fcmaes.mapelites.Archive.get</text>
<text text-anchor="middle" x="438.62" y="-120.5" font-family="Helvetica,sans-Serif" font-size="10.00">_qd_score</text>
</a>
</g>
</g>
<!-- Node1&#45;&gt;Node11 -->
<g id="edge13_Node000001_Node000011" class="edge">
<title>Node1&#45;&gt;Node11</title>
<g id="a_edge13_Node000001_Node000011"><a xlink:title=" ">
<path fill="none" stroke="#63b8ff" d="M574.14,-166.5C551.4,-160.33 524.25,-152.97 500.32,-146.47"/>
<polygon fill="#63b8ff" stroke="#63b8ff" points="573.22,-169.88 583.79,-169.12 575.06,-163.13 573.22,-169.88"/>
</a>
</g>
</g>
<!-- Node12 -->
<g id="Node000012" class="node">
<title>Node12</title>
<g id="a_Node000012"><a xlink:href="classfcmaes_1_1mapelites_1_1_archive.html#a4299111d24891cea4a03c19f28360923" target="_top" xlink:title="Generates a formatted string containing key metrics.">
<polygon fill="white" stroke="#666666" points="319.62,-118 171.62,-118 171.62,-98 319.62,-98 319.62,-118"/>
<text text-anchor="middle" x="245.62" y="-104.5" font-family="Helvetica,sans-Serif" font-size="10.00">fcmaes.mapelites.Archive.info</text>
</a>
</g>
</g>
<!-- Node1&#45;&gt;Node12 -->
<g id="edge15_Node000001_Node000012" class="edge">
<title>Node1&#45;&gt;Node12</title>
<g id="a_edge15_Node000001_Node000012"><a xlink:title=" ">
<path fill="none" stroke="#63b8ff" d="M605.72,-161.91C585.84,-143.5 552.05,-116.13 516.75,-105 445.18,-82.44 357.56,-89.25 301.9,-97.53"/>
<polygon fill="#63b8ff" stroke="#63b8ff" points="603.08,-164.24 612.74,-168.61 607.92,-159.17 603.08,-164.24"/>
</a>
</g>
</g>
<!-- Node13 -->
<g id="Node000013" class="node">
<title>Node13</title>
<g id="a_Node000013"><a xlink:href="classfcmaes_1_1mapelites_1_1_archive.html#a62da9c6f511c298d1ef06d6af7600196" target="_top" xlink:title="Loads data from a specified file into the current object, initializing or updating its properties and...">
<polygon fill="white" stroke="#666666" points="513.75,-58 363.5,-58 363.5,-38 513.75,-38 513.75,-58"/>
<text text-anchor="middle" x="438.62" y="-44.5" font-family="Helvetica,sans-Serif" font-size="10.00">fcmaes.mapelites.Archive.load</text>
</a>
</g>
</g>
<!-- Node1&#45;&gt;Node13 -->
<g id="edge16_Node000001_Node000013" class="edge">
<title>Node1&#45;&gt;Node13</title>
<g id="a_edge16_Node000001_Node000013"><a xlink:title=" ">
<path fill="none" stroke="#63b8ff" d="M609.76,-160.84C591.06,-136.76 555.84,-95.73 516.75,-72 507.4,-66.32 496.59,-61.88 486.07,-58.44"/>
<polygon fill="#63b8ff" stroke="#63b8ff" points="606.76,-162.68 615.6,-168.53 612.34,-158.45 606.76,-162.68"/>
</a>
</g>
</g>
<!-- Node14 -->
<g id="Node000014" class="node">
<title>Node14</title>
<g id="a_Node000014"><a xlink:href="classfcmaes_1_1mapelites_1_1_archive.html#aedbfd9567b2d8da13a94da232465aa42" target="_top" xlink:title="Saves the processed data and corresponding metadata in a compressed NPZ format.">
<polygon fill="white" stroke="#666666" points="515.25,-20 362,-20 362,0 515.25,0 515.25,-20"/>
<text text-anchor="middle" x="438.62" y="-6.5" font-family="Helvetica,sans-Serif" font-size="10.00">fcmaes.mapelites.Archive.save</text>
</a>
</g>
</g>
<!-- Node1&#45;&gt;Node14 -->
<g id="edge17_Node000001_Node000014" class="edge">
<title>Node1&#45;&gt;Node14</title>
<g id="a_edge17_Node000001_Node000014"><a xlink:title=" ">
<path fill="none" stroke="#63b8ff" d="M615.11,-159.41C600.02,-126.53 565.95,-62.49 516.75,-29 511.73,-25.59 506.16,-22.78 500.38,-20.48"/>
<polygon fill="#63b8ff" stroke="#63b8ff" points="611.78,-160.53 619.03,-168.25 618.18,-157.69 611.78,-160.53"/>
</a>
</g>
</g>
<!-- Node3 -->
<g id="Node000003" class="node">
<title>Node3</title>
<g id="a_Node000003"><a xlink:href="classfcmaes_1_1advretry_1_1_store.html#a7dfa5440d1d295083cef68ea37be60fe" target="_top" xlink:title="Adds a result to the current optimization process, updating the best result if necessary and storing ...">
<polygon fill="white" stroke="#666666" points="130.75,-313 0,-313 0,-281 130.75,-281 130.75,-313"/>
<text text-anchor="start" x="8" y="-299.5" font-family="Helvetica,sans-Serif" font-size="10.00">fcmaes.advretry.Store.add</text>
<text text-anchor="middle" x="65.38" y="-287.5" font-family="Helvetica,sans-Serif" font-size="10.00">_result</text>
</a>
</g>
</g>
<!-- Node2&#45;&gt;Node3 -->
<g id="edge2_Node000002_Node000003" class="edge">
<title>Node2&#45;&gt;Node3</title>
<g id="a_edge2_Node000002_Node000003"><a xlink:title=" ">
<path fill="none" stroke="#63b8ff" d="M357.53,-337.15C303.4,-335.63 230.44,-331.73 166.75,-322 152.99,-319.9 138.36,-316.78 124.66,-313.45"/>
<polygon fill="#63b8ff" stroke="#63b8ff" points="357.19,-340.64 367.28,-337.4 357.37,-333.65 357.19,-340.64"/>
</a>
</g>
</g>
<!-- Node4 -->
<g id="Node000004" class="node">
<title>Node4</title>
<g id="a_Node000004"><a xlink:href="classfcmaes_1_1retry_1_1_store.html#aed35531d1489fd7b28d69dc3c9794508" target="_top" xlink:title="Adds a result to the data structure, updating statistical values and recording the given data point.">
<polygon fill="white" stroke="#666666" points="303.12,-313 188.12,-313 188.12,-281 303.12,-281 303.12,-313"/>
<text text-anchor="start" x="196.12" y="-299.5" font-family="Helvetica,sans-Serif" font-size="10.00">fcmaes.retry.Store.add</text>
<text text-anchor="middle" x="245.62" y="-287.5" font-family="Helvetica,sans-Serif" font-size="10.00">_result</text>
</a>
</g>
</g>
<!-- Node2&#45;&gt;Node4 -->
<g id="edge3_Node000002_Node000004" class="edge">
<title>Node2&#45;&gt;Node4</title>
<g id="a_edge3_Node000002_Node000004"><a xlink:title=" ">
<path fill="none" stroke="#63b8ff" d="M377.92,-325.18C354.12,-320.07 326.86,-314.22 303.36,-309.18"/>
<polygon fill="#63b8ff" stroke="#63b8ff" points="376.94,-328.55 387.45,-327.23 378.41,-321.71 376.94,-328.55"/>
</a>
</g>
</g>
<!-- Node5&#45;&gt;Node4 -->
<g id="edge5_Node000005_Node000004" class="edge">
<title>Node5&#45;&gt;Node4</title>
<g id="a_edge5_Node000005_Node000004"><a xlink:title=" ">
<path fill="none" stroke="#63b8ff" d="M349.04,-298.61C333.6,-298.37 317.91,-298.12 303.61,-297.9"/>
<polygon fill="#63b8ff" stroke="#63b8ff" points="348.65,-302.1 358.7,-298.76 348.76,-295.1 348.65,-302.1"/>
</a>
</g>
</g>
<!-- Node6&#45;&gt;Node4 -->
<g id="edge7_Node000006_Node000004" class="edge">
<title>Node6&#45;&gt;Node4</title>
<g id="a_edge7_Node000006_Node000004"><a xlink:title=" ">
<path fill="none" stroke="#63b8ff" d="M369.47,-274.49C347.82,-278.46 324.13,-282.8 303.38,-286.6"/>
<polygon fill="#63b8ff" stroke="#63b8ff" points="369.88,-277.97 379.09,-272.73 368.62,-271.09 369.88,-277.97"/>
</a>
</g>
</g>
<!-- Node8 -->
<g id="Node000008" class="node">
<title>Node8</title>
<g id="a_Node000008"><a xlink:href="classfcmaes_1_1advretry_1_1_store.html#a19b9d6c0787fb06a2b00e595f487bf37" target="_top" xlink:title="Saves the current data of the instance to a compressed file using bz2 and cPickle modules.">
<polygon fill="white" stroke="#666666" points="313.62,-263 177.62,-263 177.62,-243 313.62,-243 313.62,-263"/>
<text text-anchor="middle" x="245.62" y="-249.5" font-family="Helvetica,sans-Serif" font-size="10.00">fcmaes.advretry.Store.save</text>
</a>
</g>
</g>
<!-- Node7&#45;&gt;Node8 -->
<g id="edge9_Node000007_Node000008" class="edge">
<title>Node7&#45;&gt;Node8</title>
<g id="a_edge9_Node000007_Node000008"><a xlink:title=" ">
<path fill="none" stroke="#63b8ff" d="M357.65,-236.14C343.09,-238.35 328.03,-240.64 313.88,-242.79"/>
<polygon fill="#63b8ff" stroke="#63b8ff" points="357.81,-239.66 367.17,-234.7 356.76,-232.74 357.81,-239.66"/>
</a>
</g>
</g>
<!-- Node9 -->
<g id="Node000009" class="node">
<title>Node9</title>
<g id="a_Node000009"><a xlink:href="classfcmaes_1_1multiretry_1_1multiretry.html#a68046c0b4cc7c281cec9dfa673ce58fb" target="_top" xlink:title="Saves the data returned by the get_data method into a compressed bz2 file with the specified name.">
<polygon fill="white" stroke="#666666" points="324.5,-225 166.75,-225 166.75,-205 324.5,-205 324.5,-225"/>
<text text-anchor="middle" x="245.62" y="-211.5" font-family="Helvetica,sans-Serif" font-size="10.00">fcmaes.multiretry.multiretry.save</text>
</a>
</g>
</g>
<!-- Node7&#45;&gt;Node9 -->
<g id="edge11_Node000007_Node000009" class="edge">
<title>Node7&#45;&gt;Node9</title>
<g id="a_edge11_Node000007_Node000009"><a xlink:title=" ">
<path fill="none" stroke="#63b8ff" d="M350.79,-219.91C342.09,-219.5 333.3,-219.08 324.7,-218.68"/>
<polygon fill="#63b8ff" stroke="#63b8ff" points="350.47,-223.4 360.62,-220.37 350.8,-216.4 350.47,-223.4"/>
</a>
</g>
</g>
<!-- Node8&#45;&gt;Node3 -->
<g id="edge10_Node000008_Node000003" class="edge">
<title>Node8&#45;&gt;Node3</title>
<g id="a_edge10_Node000008_Node000003"><a xlink:title=" ">
<path fill="none" stroke="#63b8ff" d="M190.61,-266.14C182.61,-268.1 174.46,-270.1 166.75,-272 155.24,-274.84 143,-277.87 131.16,-280.82"/>
<polygon fill="#63b8ff" stroke="#63b8ff" points="191.42,-269.55 200.3,-263.78 189.76,-262.75 191.42,-269.55"/>
</a>
</g>
</g>
<!-- Node11&#45;&gt;Node12 -->
<g id="edge14_Node000011_Node000012" class="edge">
<title>Node11&#45;&gt;Node12</title>
<g id="a_edge14_Node000011_Node000012"><a xlink:title=" ">
<path fill="none" stroke="#63b8ff" d="M354.12,-120.38C342.72,-119.07 331.09,-117.73 319.89,-116.44"/>
<polygon fill="#63b8ff" stroke="#63b8ff" points="353.58,-123.84 363.91,-121.51 354.38,-116.89 353.58,-123.84"/>
</a>
</g>
</g>
</g>
</svg>

<g id="navigator" transform="translate(0 0)" fill="#404254">
  <rect fill="#f2f5e9" fill-opacity="0.5" stroke="#606060" stroke-width=".5" x="0" y="0" width="60" height="60"/>
  <use id="zoomplus" xlink:href="#zoomPlus" x="17" y="9" onmousedown="handleZoom(evt,'in')"/>
  <use id="zoomminus" xlink:href="#zoomMin" x="42" y="9" onmousedown="handleZoom(evt,'out')"/>
  <use id="reset" xlink:href="#resetDef" x="30" y="36" onmousedown="handleReset()"/>
   <use id="arrowup" xlink:href="#arrowUp" x="0" y="0" onmousedown="handlePan(0,-1)"/>
  <use id="arrowright" xlink:href="#arrowRight" x="0" y="0" onmousedown="handlePan(1,0)"/>
  <use id="arrowdown" xlink:href="#arrowDown" x="0" y="0" onmousedown="handlePan(0,1)"/>
  <use id="arrowleft" xlink:href="#arrowLeft" x="0" y="0" onmousedown="handlePan(-1,0)"/>
</g>
<svg viewBox="0 0 15 15" width="100%" height="30px" preserveAspectRatio="xMaxYMin meet">
 <g id="arrow_out" transform="scale(0.3 0.3)">
  <a xlink:href="classfcmaes_1_1advretry_1_1_store_a3cc073975313c4893de761cfc9771d77_icgraph_org.svg" target="_base">
   <rect id="button" ry="5" rx="5" y="6" x="6" height="38" width="38"
        fill="#f2f5e9" fill-opacity="0.5" stroke="#606060" stroke-width="1.0"/>
   <path id="arrow"
     d="M 11.500037,31.436501 C 11.940474,20.09759 22.043105,11.32322 32.158766,21.979434 L 37.068811,17.246167 C 37.068811,17.246167 37.088388,32 37.088388,32 L 22.160133,31.978069 C 22.160133,31.978069 26.997745,27.140456 26.997745,27.140456 C 18.528582,18.264221 13.291696,25.230495 11.500037,31.436501 z"
     style="fill:#404040;"/>
  </a>
 </g>
</svg>

<style type='text/css'>
<![CDATA[
[data-mouse-over-selected='false'] { opacity: 0.7; }
[data-mouse-over-selected='true']  { opacity: 1.0; }
]]>
</style>
<script type="application/ecmascript"><![CDATA[
document.addEventListener('DOMContentLoaded', (event) => {
  highlightEdges();
  highlightAdjacentNodes();
});
]]></script>
</svg>
