<?xml version="1.0" encoding="UTF-8" standalone="no"?>
<!DOCTYPE svg PUBLIC "-//W3C//DTD SVG 1.1//EN"
 "http://www.w3.org/Graphics/SVG/1.1/DTD/svg11.dtd">
<!-- Generated by graphviz version 12.2.1 (20241206.2353)
 -->
<!-- Title: CBitePop::updatePop Pages: 1 -->
<svg width="273pt" height="104pt"
 viewBox="0.00 0.00 273.25 104.00" xmlns="http://www.w3.org/2000/svg" xmlns:xlink="http://www.w3.org/1999/xlink">
<g id="graph0" class="graph" transform="scale(1 1) rotate(0) translate(4 100)">
<title>CBitePop::updatePop</title>
<!-- Node1 -->
<g id="Node000001" class="node">
<title>Node1</title>
<g id="a_Node000001"><a xlink:title=" ">
<polygon fill="#999999" stroke="#666666" points="110.5,-58 0,-58 0,-38 110.5,-38 110.5,-58"/>
<text text-anchor="middle" x="55.25" y="-44.5" font-family="Helvetica,sans-Serif" font-size="10.00">CBitePop::updatePop</text>
</a>
</g>
</g>
<!-- Node2 -->
<g id="Node000002" class="node">
<title>Node2</title>
<g id="a_Node000002"><a xlink:href="class_c_bite_pop.html#a24130fea35014433f142e3b9ed0f8929" target="_top" xlink:title=" ">
<polygon fill="white" stroke="#666666" points="265.25,-96 146.5,-96 146.5,-76 265.25,-76 265.25,-96"/>
<text text-anchor="middle" x="205.88" y="-82.5" font-family="Helvetica,sans-Serif" font-size="10.00">CBitePop::copyParams</text>
</a>
</g>
</g>
<!-- Node1&#45;&gt;Node2 -->
<g id="edge1_Node000001_Node000002" class="edge">
<title>Node1&#45;&gt;Node2</title>
<g id="a_edge1_Node000001_Node000002"><a xlink:title=" ">
<path fill="none" stroke="#63b8ff" d="M97.26,-58.48C114.48,-62.89 134.7,-68.06 152.95,-72.72"/>
<polygon fill="#63b8ff" stroke="#63b8ff" points="151.98,-76.09 162.54,-75.18 153.72,-69.31 151.98,-76.09"/>
</a>
</g>
</g>
<!-- Node3 -->
<g id="Node000003" class="node">
<title>Node3</title>
<g id="a_Node000003"><a xlink:href="class_c_bite_pop.html#ad6cbe6cfbf9954dcb6f8a223a5e1f36b" target="_top" xlink:title=" ">
<polygon fill="white" stroke="#666666" points="258.5,-58 153.25,-58 153.25,-38 258.5,-38 258.5,-58"/>
<text text-anchor="middle" x="205.88" y="-44.5" font-family="Helvetica,sans-Serif" font-size="10.00">CBitePop::getObjPtr</text>
</a>
</g>
</g>
<!-- Node1&#45;&gt;Node3 -->
<g id="edge2_Node000001_Node000003" class="edge">
<title>Node1&#45;&gt;Node3</title>
<g id="a_edge2_Node000001_Node000003"><a xlink:title=" ">
<path fill="none" stroke="#63b8ff" d="M110.75,-48C120.74,-48 131.25,-48 141.47,-48"/>
<polygon fill="#63b8ff" stroke="#63b8ff" points="141.34,-51.5 151.34,-48 141.34,-44.5 141.34,-51.5"/>
</a>
</g>
</g>
<!-- Node4 -->
<g id="Node000004" class="node">
<title>Node4</title>
<g id="a_Node000004"><a xlink:href="class_c_bite_pop.html#aa4f3255c9607f72eff280f8c3c09143f" target="_top" xlink:title=" ">
<polygon fill="white" stroke="#666666" points="262.62,-20 149.12,-20 149.12,0 262.62,0 262.62,-20"/>
<text text-anchor="middle" x="205.88" y="-6.5" font-family="Helvetica,sans-Serif" font-size="10.00">CBitePop::getRankPtr</text>
</a>
</g>
</g>
<!-- Node1&#45;&gt;Node4 -->
<g id="edge3_Node000001_Node000004" class="edge">
<title>Node1&#45;&gt;Node4</title>
<g id="a_edge3_Node000001_Node000004"><a xlink:title=" ">
<path fill="none" stroke="#63b8ff" d="M97.26,-37.52C114.48,-33.11 134.7,-27.94 152.95,-23.28"/>
<polygon fill="#63b8ff" stroke="#63b8ff" points="153.72,-26.69 162.54,-20.82 151.98,-19.91 153.72,-26.69"/>
</a>
</g>
</g>
</g>
</svg>
