<?xml version="1.0" encoding="UTF-8" standalone="no"?>
<!DOCTYPE svg PUBLIC "-//W3C//DTD SVG 1.1//EN"
 "http://www.w3.org/Graphics/SVG/1.1/DTD/svg11.dtd">
<!-- Generated by graphviz version 12.2.1 (20241206.2353)
 -->
<!-- Title: initCRFMNES_C Pages: 1 -->
<svg width="248pt" height="104pt"
 viewBox="0.00 0.00 247.75 104.00" xmlns="http://www.w3.org/2000/svg" xmlns:xlink="http://www.w3.org/1999/xlink">

<svg id="main" version="1.1" xmlns="http://www.w3.org/2000/svg" xmlns:xlink="http://www.w3.org/1999/xlink" xml:space="preserve">

<style type="text/css"><![CDATA[
.node, .edge {opacity: 0.7;}
.node.selected, .edge.selected {opacity: 1;}
.edge:hover path { stroke: red; }
.edge:hover polygon { stroke: red; fill: red; }
]]></style>
<script type="application/ecmascript" xlink:href="svg.min.js"/>
<svg id="graph" class="graph">
<g id="graph0" class="graph" transform="scale(1 1) rotate(0) translate(4 100)">
<title>initCRFMNES_C</title>
<!-- Node1 -->
<g id="Node000001" class="node">
<title>Node1</title>
<g id="a_Node000001"><a xlink:title=" ">
<polygon fill="#999999" stroke="#666666" points="91.75,-58 0,-58 0,-38 91.75,-38 91.75,-58"/>
<text text-anchor="middle" x="45.88" y="-44.5" font-family="Helvetica,sans-Serif" font-size="10.00">initCRFMNES_C</text>
</a>
</g>
</g>
<!-- Node2 -->
<g id="Node000002" class="node">
<title>Node2</title>
<g id="a_Node000002"><a xlink:href="evaluator_8h.html#ad0943ebd623281f526e5aee2aa818895" target="_top" xlink:title=" ">
<polygon fill="white" stroke="#666666" points="222.88,-96 144.62,-96 144.62,-76 222.88,-76 222.88,-96"/>
<text text-anchor="middle" x="183.75" y="-82.5" font-family="Helvetica,sans-Serif" font-size="10.00">noop_callback</text>
</a>
</g>
</g>
<!-- Node1&#45;&gt;Node2 -->
<g id="edge1_Node000001_Node000002" class="edge">
<title>Node1&#45;&gt;Node2</title>
<g id="a_edge1_Node000001_Node000002"><a xlink:title=" ">
<path fill="none" stroke="#63b8ff" d="M84.36,-58.48C99.81,-62.8 117.9,-67.86 134.33,-72.46"/>
<polygon fill="#63b8ff" stroke="#63b8ff" points="133.35,-75.82 143.93,-75.14 135.24,-69.08 133.35,-75.82"/>
</a>
</g>
</g>
<!-- Node3 -->
<g id="Node000003" class="node">
<title>Node3</title>
<g id="a_Node000003"><a xlink:href="evaluator_8h.html#ac05c49788a31e5f7cb8efbe8ca3b548e" target="_top" xlink:title=" ">
<polygon fill="white" stroke="#666666" points="232.25,-58 135.25,-58 135.25,-38 232.25,-38 232.25,-58"/>
<text text-anchor="middle" x="183.75" y="-44.5" font-family="Helvetica,sans-Serif" font-size="10.00">noop_callback_par</text>
</a>
</g>
</g>
<!-- Node1&#45;&gt;Node3 -->
<g id="edge2_Node000001_Node000003" class="edge">
<title>Node1&#45;&gt;Node3</title>
<g id="a_edge2_Node000001_Node000003"><a xlink:title=" ">
<path fill="none" stroke="#63b8ff" d="M92.12,-48C102.21,-48 113.06,-48 123.61,-48"/>
<polygon fill="#63b8ff" stroke="#63b8ff" points="123.39,-51.5 133.39,-48 123.39,-44.5 123.39,-51.5"/>
</a>
</g>
</g>
<!-- Node4 -->
<g id="Node000004" class="node">
<title>Node4</title>
<g id="a_Node000004"><a xlink:href="class_fitness.html#a31beb7ecb5fa49ac03b43abe444ab9a6" target="_top" xlink:title=" ">
<polygon fill="white" stroke="#666666" points="239.75,-20 127.75,-20 127.75,0 239.75,0 239.75,-20"/>
<text text-anchor="middle" x="183.75" y="-6.5" font-family="Helvetica,sans-Serif" font-size="10.00">Fitness::setNormalize</text>
</a>
</g>
</g>
<!-- Node1&#45;&gt;Node4 -->
<g id="edge3_Node000001_Node000004" class="edge">
<title>Node1&#45;&gt;Node4</title>
<g id="a_edge3_Node000001_Node000004"><a xlink:title=" ">
<path fill="none" stroke="#63b8ff" d="M84.36,-37.52C99.81,-33.2 117.9,-28.14 134.33,-23.54"/>
<polygon fill="#63b8ff" stroke="#63b8ff" points="135.24,-26.92 143.93,-20.86 133.35,-20.18 135.24,-26.92"/>
</a>
</g>
</g>
</g>
</svg>
</svg>

<style type='text/css'>
<![CDATA[
[data-mouse-over-selected='false'] { opacity: 0.7; }
[data-mouse-over-selected='true']  { opacity: 1.0; }
]]>
</style>
<script type="application/ecmascript"><![CDATA[
document.addEventListener('DOMContentLoaded', (event) => {
  highlightEdges();
  highlightAdjacentNodes();
});
]]></script>
</svg>
