<?xml version="1.0" encoding="UTF-8" standalone="no"?>
<!DOCTYPE svg PUBLIC "-//W3C//DTD SVG 1.1//EN"
 "http://www.w3.org/Graphics/SVG/1.1/DTD/svg11.dtd">
<!-- Generated by graphviz version 12.2.1 (20241206.2353)
 -->
<!-- Title: optimizeDA_C Pages: 1 -->
<svg width="418pt" height="234pt"
 viewBox="0.00 0.00 417.50 234.00" xmlns="http://www.w3.org/2000/svg" xmlns:xlink="http://www.w3.org/1999/xlink">
<g id="graph0" class="graph" transform="scale(1 1) rotate(0) translate(4 230)">
<title>optimizeDA_C</title>
<!-- Node1 -->
<g id="Node000001" class="node">
<title>Node1</title>
<g id="a_Node000001"><a xlink:title=" ">
<polygon fill="#999999" stroke="#666666" points="79.75,-120 0,-120 0,-100 79.75,-100 79.75,-120"/>
<text text-anchor="middle" x="39.88" y="-106.5" font-family="Helvetica,sans-Serif" font-size="10.00">optimizeDA_C</text>
</a>
</g>
</g>
<!-- Node2 -->
<g id="Node000002" class="node">
<title>Node2</title>
<g id="a_Node000002"><a xlink:href="classdual__annealing_1_1_fitness.html#ad5755fabd06c8e86de566687f40c55e8" target="_top" xlink:title=" ">
<polygon fill="white" stroke="#666666" points="237.88,-226 119.12,-226 119.12,-194 237.88,-194 237.88,-226"/>
<text text-anchor="start" x="127.12" y="-212.5" font-family="Helvetica,sans-Serif" font-size="10.00">dual_annealing::Fitness</text>
<text text-anchor="middle" x="178.5" y="-200.5" font-family="Helvetica,sans-Serif" font-size="10.00">::decode</text>
</a>
</g>
</g>
<!-- Node1&#45;&gt;Node2 -->
<g id="edge1_Node000001_Node000002" class="edge">
<title>Node1&#45;&gt;Node2</title>
<g id="a_edge1_Node000001_Node000002"><a xlink:title=" ">
<path fill="none" stroke="#63b8ff" d="M48.82,-120.28C61.48,-136.06 87.69,-166.39 115.75,-185 117.52,-186.17 119.36,-187.31 121.24,-188.4"/>
<polygon fill="#63b8ff" stroke="#63b8ff" points="119.12,-191.24 129.6,-192.83 122.4,-185.06 119.12,-191.24"/>
</a>
</g>
</g>
<!-- Node3 -->
<g id="Node000003" class="node">
<title>Node3</title>
<g id="a_Node000003"><a xlink:href="classdual__annealing_1_1_fitness.html#a288c5b34db28ee5a3c0e0916f6936d27" target="_top" xlink:title=" ">
<polygon fill="white" stroke="#666666" points="237.88,-176 119.12,-176 119.12,-144 237.88,-144 237.88,-176"/>
<text text-anchor="start" x="127.12" y="-162.5" font-family="Helvetica,sans-Serif" font-size="10.00">dual_annealing::Fitness</text>
<text text-anchor="middle" x="178.5" y="-150.5" font-family="Helvetica,sans-Serif" font-size="10.00">::encode</text>
</a>
</g>
</g>
<!-- Node1&#45;&gt;Node3 -->
<g id="edge2_Node000001_Node000003" class="edge">
<title>Node1&#45;&gt;Node3</title>
<g id="a_edge2_Node000001_Node000003"><a xlink:title=" ">
<path fill="none" stroke="#63b8ff" d="M69.52,-120.48C84.69,-126.03 103.85,-133.05 121.81,-139.62"/>
<polygon fill="#63b8ff" stroke="#63b8ff" points="120.48,-142.86 131.07,-143.01 122.88,-136.29 120.48,-142.86"/>
</a>
</g>
</g>
<!-- Node4 -->
<g id="Node000004" class="node">
<title>Node4</title>
<g id="a_Node000004"><a xlink:href="classdual__annealing_1_1_fitness.html#a9abe3257d970e7fec842dedfeb409f37" target="_top" xlink:title=" ">
<polygon fill="white" stroke="#666666" points="237.88,-126 119.12,-126 119.12,-94 237.88,-94 237.88,-126"/>
<text text-anchor="start" x="127.12" y="-112.5" font-family="Helvetica,sans-Serif" font-size="10.00">dual_annealing::Fitness</text>
<text text-anchor="middle" x="178.5" y="-100.5" font-family="Helvetica,sans-Serif" font-size="10.00">::getEvaluations</text>
</a>
</g>
</g>
<!-- Node1&#45;&gt;Node4 -->
<g id="edge3_Node000001_Node000004" class="edge">
<title>Node1&#45;&gt;Node4</title>
<g id="a_edge3_Node000001_Node000004"><a xlink:title=" ">
<path fill="none" stroke="#63b8ff" d="M80.03,-110C88.6,-110 97.94,-110 107.31,-110"/>
<polygon fill="#63b8ff" stroke="#63b8ff" points="107.22,-113.5 117.22,-110 107.22,-106.5 107.22,-113.5"/>
</a>
</g>
</g>
<!-- Node5 -->
<g id="Node000005" class="node">
<title>Node5</title>
<g id="a_Node000005"><a xlink:href="namespacedual__annealing.html#a9d98349bcdfafe6b4659304b33f53b88" target="_top" xlink:title=" ">
<polygon fill="white" stroke="#666666" points="241.25,-76 115.75,-76 115.75,-56 241.25,-56 241.25,-76"/>
<text text-anchor="middle" x="178.5" y="-62.5" font-family="Helvetica,sans-Serif" font-size="10.00">dual_annealing::minimize</text>
</a>
</g>
</g>
<!-- Node1&#45;&gt;Node5 -->
<g id="edge4_Node000001_Node000005" class="edge">
<title>Node1&#45;&gt;Node5</title>
<g id="a_edge4_Node000001_Node000005"><a xlink:title=" ">
<path fill="none" stroke="#63b8ff" d="M71.42,-99.62C84.98,-95.06 101.13,-89.69 115.75,-85 121.15,-83.27 126.83,-81.48 132.46,-79.72"/>
<polygon fill="#63b8ff" stroke="#63b8ff" points="133.2,-83.16 141.71,-76.86 131.13,-76.47 133.2,-83.16"/>
</a>
</g>
</g>
<!-- Node9 -->
<g id="Node000009" class="node">
<title>Node9</title>
<g id="a_Node000009"><a xlink:href="namespacedual__annealing.html#a8be31e030bc6b64855a87450168499d1" target="_top" xlink:title=" ">
<polygon fill="white" stroke="#666666" points="233.75,-38 123.25,-38 123.25,-18 233.75,-18 233.75,-38"/>
<text text-anchor="middle" x="178.5" y="-24.5" font-family="Helvetica,sans-Serif" font-size="10.00">dual_annealing::zeros</text>
</a>
</g>
</g>
<!-- Node1&#45;&gt;Node9 -->
<g id="edge8_Node000001_Node000009" class="edge">
<title>Node1&#45;&gt;Node9</title>
<g id="a_edge8_Node000001_Node000009"><a xlink:title=" ">
<path fill="none" stroke="#63b8ff" d="M50.55,-99.58C63.95,-85.72 89.5,-61.31 115.75,-47 118.61,-45.44 121.62,-43.99 124.7,-42.64"/>
<polygon fill="#63b8ff" stroke="#63b8ff" points="125.94,-45.92 133.97,-39.01 123.38,-39.4 125.94,-45.92"/>
</a>
</g>
</g>
<!-- Node6 -->
<g id="Node000006" class="node">
<title>Node6</title>
<g id="a_Node000006"><a xlink:href="classdual__annealing_1_1_d_a_runner.html#ac923ec281c800062d6b3e1e4e778183f" target="_top" xlink:title=" ">
<polygon fill="white" stroke="#666666" points="409.5,-132 277.25,-132 277.25,-100 409.5,-100 409.5,-132"/>
<text text-anchor="start" x="285.25" y="-118.5" font-family="Helvetica,sans-Serif" font-size="10.00">dual_annealing::DARunner</text>
<text text-anchor="middle" x="343.38" y="-106.5" font-family="Helvetica,sans-Serif" font-size="10.00">::bestX</text>
</a>
</g>
</g>
<!-- Node5&#45;&gt;Node6 -->
<g id="edge5_Node000005_Node000006" class="edge">
<title>Node5&#45;&gt;Node6</title>
<g id="a_edge5_Node000005_Node000006"><a xlink:title=" ">
<path fill="none" stroke="#63b8ff" d="M213.64,-76.48C232.24,-82.19 255.86,-89.44 277.79,-96.17"/>
<polygon fill="#63b8ff" stroke="#63b8ff" points="276.69,-99.5 287.27,-99.08 278.74,-92.8 276.69,-99.5"/>
</a>
</g>
</g>
<!-- Node7 -->
<g id="Node000007" class="node">
<title>Node7</title>
<g id="a_Node000007"><a xlink:href="classdual__annealing_1_1_d_a_runner.html#a4b0f48a1d4ae3a336fa8fd7ac5412274" target="_top" xlink:title=" ">
<polygon fill="white" stroke="#666666" points="409.5,-82 277.25,-82 277.25,-50 409.5,-50 409.5,-82"/>
<text text-anchor="start" x="285.25" y="-68.5" font-family="Helvetica,sans-Serif" font-size="10.00">dual_annealing::DARunner</text>
<text text-anchor="middle" x="343.38" y="-56.5" font-family="Helvetica,sans-Serif" font-size="10.00">::bestY</text>
</a>
</g>
</g>
<!-- Node5&#45;&gt;Node7 -->
<g id="edge6_Node000005_Node000007" class="edge">
<title>Node5&#45;&gt;Node7</title>
<g id="a_edge6_Node000005_Node000007"><a xlink:title=" ">
<path fill="none" stroke="#63b8ff" d="M241.54,-66C249.42,-66 257.56,-66 265.64,-66"/>
<polygon fill="#63b8ff" stroke="#63b8ff" points="265.47,-69.5 275.47,-66 265.47,-62.5 265.47,-69.5"/>
</a>
</g>
</g>
<!-- Node8 -->
<g id="Node000008" class="node">
<title>Node8</title>
<g id="a_Node000008"><a xlink:href="classdual__annealing_1_1_d_a_runner.html#ae439a61ba872582e64f2fc32568cd669" target="_top" xlink:title=" ">
<polygon fill="white" stroke="#666666" points="409.5,-32 277.25,-32 277.25,0 409.5,0 409.5,-32"/>
<text text-anchor="start" x="285.25" y="-18.5" font-family="Helvetica,sans-Serif" font-size="10.00">dual_annealing::DARunner</text>
<text text-anchor="middle" x="343.38" y="-6.5" font-family="Helvetica,sans-Serif" font-size="10.00">::search</text>
</a>
</g>
</g>
<!-- Node5&#45;&gt;Node8 -->
<g id="edge7_Node000005_Node000008" class="edge">
<title>Node5&#45;&gt;Node8</title>
<g id="a_edge7_Node000005_Node000008"><a xlink:title=" ">
<path fill="none" stroke="#63b8ff" d="M213.64,-55.52C232.24,-49.81 255.86,-42.56 277.79,-35.83"/>
<polygon fill="#63b8ff" stroke="#63b8ff" points="278.74,-39.2 287.27,-32.92 276.69,-32.5 278.74,-39.2"/>
</a>
</g>
</g>
</g>
</svg>
