<?xml version="1.0" encoding="UTF-8" standalone="no"?>
<!DOCTYPE svg PUBLIC "-//W3C//DTD SVG 1.1//EN"
 "http://www.w3.org/Graphics/SVG/1.1/DTD/svg11.dtd">
<!-- Generated by graphviz version 12.2.1 (20241206.2353)
 -->
<!-- Title: _fcmaescpp/include/deopt.h Pages: 1 -->
<svg width="186pt" height="152pt"
 viewBox="0.00 0.00 186.25 152.00" xmlns="http://www.w3.org/2000/svg" xmlns:xlink="http://www.w3.org/1999/xlink">

<svg id="main" version="1.1" xmlns="http://www.w3.org/2000/svg" xmlns:xlink="http://www.w3.org/1999/xlink" xml:space="preserve">

<style type="text/css"><![CDATA[
.node, .edge {opacity: 0.7;}
.node.selected, .edge.selected {opacity: 1;}
.edge:hover path { stroke: red; }
.edge:hover polygon { stroke: red; fill: red; }
]]></style>
<script type="application/ecmascript" xlink:href="svg.min.js"/>
<svg id="graph" class="graph">
<g id="graph0" class="graph" transform="scale(1 1) rotate(0) translate(4 148)">
<title>_fcmaescpp/include/deopt.h</title>
<!-- Node1 -->
<g id="Node000001" class="node">
<title>Node1</title>
<g id="a_Node000001"><a xlink:title="The inclusion file for the CDEOpt class.">
<polygon fill="#999999" stroke="#666666" points="140.62,-144 37.62,-144 37.62,-112 140.62,-112 140.62,-144"/>
<text text-anchor="start" x="45.62" y="-130.5" font-family="Helvetica,sans-Serif" font-size="10.00">_fcmaescpp/include</text>
<text text-anchor="middle" x="89.12" y="-118.5" font-family="Helvetica,sans-Serif" font-size="10.00">/deopt.h</text>
</a>
</g>
</g>
<!-- Node2 -->
<g id="Node000002" class="node">
<title>Node2</title>
<g id="a_Node000002"><a xlink:href="biteaux_8h.html" target="_top" xlink:title="The inclusion file for the CBiteRnd, CBitePop, CBiteParPops, CBiteOptInterface, and CBiteOptBase clas...">
<polygon fill="white" stroke="#666666" points="117,-76 61.25,-76 61.25,-56 117,-56 117,-76"/>
<text text-anchor="middle" x="89.12" y="-62.5" font-family="Helvetica,sans-Serif" font-size="10.00">biteaux.h</text>
</a>
</g>
</g>
<!-- Node1&#45;&gt;Node2 -->
<g id="edge1_Node000001_Node000002" class="edge">
<title>Node1&#45;&gt;Node2</title>
<g id="a_edge1_Node000001_Node000002"><a xlink:title=" ">
<path fill="none" stroke="#63b8ff" d="M89.12,-111.55C89.12,-104.34 89.12,-95.66 89.12,-87.88"/>
<polygon fill="#63b8ff" stroke="#63b8ff" points="92.63,-87.92 89.13,-77.92 85.63,-87.92 92.63,-87.92"/>
</a>
</g>
</g>
<!-- Node3 -->
<g id="Node000003" class="node">
<title>Node3</title>
<g id="a_Node000003"><a xlink:title=" ">
<polygon fill="#e0e0e0" stroke="#999999" points="48.25,-20 0,-20 0,0 48.25,0 48.25,-20"/>
<text text-anchor="middle" x="24.12" y="-6.5" font-family="Helvetica,sans-Serif" font-size="10.00">stdint.h</text>
</a>
</g>
</g>
<!-- Node2&#45;&gt;Node3 -->
<g id="edge2_Node000002_Node000003" class="edge">
<title>Node2&#45;&gt;Node3</title>
<g id="a_edge2_Node000002_Node000003"><a xlink:title=" ">
<path fill="none" stroke="#63b8ff" d="M77.8,-55.59C68.48,-47.85 55.05,-36.69 43.95,-27.47"/>
<polygon fill="#63b8ff" stroke="#63b8ff" points="46.41,-24.96 36.48,-21.27 41.94,-30.35 46.41,-24.96"/>
</a>
</g>
</g>
<!-- Node4 -->
<g id="Node000004" class="node">
<title>Node4</title>
<g id="a_Node000004"><a xlink:title=" ">
<polygon fill="#e0e0e0" stroke="#999999" points="112.12,-20 66.12,-20 66.12,0 112.12,0 112.12,-20"/>
<text text-anchor="middle" x="89.12" y="-6.5" font-family="Helvetica,sans-Serif" font-size="10.00">math.h</text>
</a>
</g>
</g>
<!-- Node2&#45;&gt;Node4 -->
<g id="edge3_Node000002_Node000004" class="edge">
<title>Node2&#45;&gt;Node4</title>
<g id="a_edge3_Node000002_Node000004"><a xlink:title=" ">
<path fill="none" stroke="#63b8ff" d="M89.12,-55.59C89.12,-49.01 89.12,-39.96 89.12,-31.73"/>
<polygon fill="#63b8ff" stroke="#63b8ff" points="92.63,-31.81 89.13,-21.81 85.63,-31.81 92.63,-31.81"/>
</a>
</g>
</g>
<!-- Node5 -->
<g id="Node000005" class="node">
<title>Node5</title>
<g id="a_Node000005"><a xlink:title=" ">
<polygon fill="#e0e0e0" stroke="#999999" points="178.25,-20 130,-20 130,0 178.25,0 178.25,-20"/>
<text text-anchor="middle" x="154.12" y="-6.5" font-family="Helvetica,sans-Serif" font-size="10.00">string.h</text>
</a>
</g>
</g>
<!-- Node2&#45;&gt;Node5 -->
<g id="edge4_Node000002_Node000005" class="edge">
<title>Node2&#45;&gt;Node5</title>
<g id="a_edge4_Node000002_Node000005"><a xlink:title=" ">
<path fill="none" stroke="#63b8ff" d="M100.45,-55.59C109.77,-47.85 123.2,-36.69 134.3,-27.47"/>
<polygon fill="#63b8ff" stroke="#63b8ff" points="136.31,-30.35 141.77,-21.27 131.84,-24.96 136.31,-30.35"/>
</a>
</g>
</g>
</g>
</svg>
</svg>

<style type='text/css'>
<![CDATA[
[data-mouse-over-selected='false'] { opacity: 0.7; }
[data-mouse-over-selected='true']  { opacity: 1.0; }
]]>
</style>
<script type="application/ecmascript"><![CDATA[
document.addEventListener('DOMContentLoaded', (event) => {
  highlightEdges();
  highlightAdjacentNodes();
});
]]></script>
</svg>
