<?xml version="1.0" encoding="UTF-8" standalone="no"?>
<!DOCTYPE svg PUBLIC "-//W3C//DTD SVG 1.1//EN"
 "http://www.w3.org/Graphics/SVG/1.1/DTD/svg11.dtd">
<!-- Generated by graphviz version 12.2.1 (20241206.2353)
 -->
<!-- Title: _fcmaescpp/deoptimizer.cpp Pages: 1 -->
<!--zoomable 140 -->

<svg id="main" version="1.1" xmlns="http://www.w3.org/2000/svg" xmlns:xlink="http://www.w3.org/1999/xlink" xml:space="preserve" onload="init(evt)">

<style type="text/css"><![CDATA[
.node, .edge {opacity: 0.7;}
.node.selected, .edge.selected {opacity: 1;}
.edge:hover path { stroke: red; }
.edge:hover polygon { stroke: red; fill: red; }
]]></style>

<defs>
  <circle id="rim" cx="0" cy="0" r="7"/>
  <circle id="rim2" cx="0" cy="0" r="3.5"/>
  <g id="zoomPlus">
    <use xlink:href="#rim" fill="#404040"><set attributeName="fill" to="#808080" begin="zoomplus.mouseover" end="zoomplus.mouseout"/></use>
    <path d="M-4,0h8M0,-4v8" fill="none" stroke="white" stroke-width="1.5" pointer-events="none"/>
  </g>
  <g id="zoomMin">
    <use xlink:href="#rim" fill="#404040"><set attributeName="fill" to="#808080" begin="zoomminus.mouseover" end="zoomminus.mouseout"/></use>
    <path d="M-4,0h8" fill="none" stroke="white" stroke-width="1.5" pointer-events="none"/>
  </g>
  <g id="arrowUp" transform="translate(30 24)">
    <use xlink:href="#rim"/>
    <path pointer-events="none" fill="none" stroke="white" stroke-width="1.5" d="M0,-3.0v7 M-2.5,-0.5L0,-3.0L2.5,-0.5"/>
  </g>
  <g id="arrowRight" transform="rotate(90) translate(36 -43)">
    <use xlink:href="#rim"/>
    <path pointer-events="none" fill="none" stroke="white" stroke-width="1.5" d="M0,-3.0v7 M-2.5,-0.5L0,-3.0L2.5,-0.5"/>
  </g>
  <g id="arrowDown" transform="rotate(180) translate(-30 -48)">
    <use xlink:href="#rim"/>
    <path pointer-events="none" fill="none" stroke="white" stroke-width="1.5" d="M0,-3.0v7 M-2.5,-0.5L0,-3.0L2.5,-0.5"/>
  </g>
  <g id="arrowLeft" transform="rotate(270) translate(-36 17)">
    <use xlink:href="#rim"/>
    <path pointer-events="none" fill="none" stroke="white" stroke-width="1.5" d="M0,-3.0v7 M-2.5,-0.5L0,-3.0L2.5,-0.5"/>
  </g>
  <g id="resetDef">
    <use xlink:href="#rim2" fill="#404040"><set attributeName="fill" to="#808080" begin="reset.mouseover" end="reset.mouseout"/></use>
  </g>
</defs>
<script type="application/ecmascript">
var viewWidth = 808;
var viewHeight = 140;
var sectionId = 'dynsection-0';
</script>
<script type="application/ecmascript" xlink:href="svg.min.js"/>
<svg id="graph" class="graph">
<g id="viewport">
<title>_fcmaescpp/deoptimizer.cpp</title>
<!-- Node1 -->
<g id="Node000001" class="node">
<title>Node1</title>
<g id="a_Node000001"><a xlink:title=" ">
<polygon fill="#999999" stroke="#666666" points="372,-132 230.75,-132 230.75,-112 372,-112 372,-132"/>
<text text-anchor="middle" x="301.38" y="-118.5" font-family="Helvetica,sans-Serif" font-size="10.00">_fcmaescpp/deoptimizer.cpp</text>
</a>
</g>
</g>
<!-- Node2 -->
<g id="Node000002" class="node">
<title>Node2</title>
<g id="a_Node000002"><a xlink:title=" ">
<polygon fill="#e0e0e0" stroke="#999999" points="64.75,-20 0,-20 0,0 64.75,0 64.75,-20"/>
<text text-anchor="middle" x="32.38" y="-6.5" font-family="Helvetica,sans-Serif" font-size="10.00">Eigen/Core</text>
</a>
</g>
</g>
<!-- Node1&#45;&gt;Node2 -->
<g id="edge1_Node000001_Node000002" class="edge">
<title>Node1&#45;&gt;Node2</title>
<g id="a_edge1_Node000001_Node000002"><a xlink:title=" ">
<path fill="none" stroke="#63b8ff" d="M276.16,-111.61C252.4,-102.69 215.83,-88.77 184.38,-76 142.45,-58.98 94.52,-38.28 63.88,-24.88"/>
<polygon fill="#63b8ff" stroke="#63b8ff" points="65.37,-21.71 54.81,-20.9 62.56,-28.12 65.37,-21.71"/>
</a>
</g>
</g>
<!-- Node3 -->
<g id="Node000003" class="node">
<title>Node3</title>
<g id="a_Node000003"><a xlink:title=" ">
<polygon fill="#e0e0e0" stroke="#999999" points="136.12,-20 82.62,-20 82.62,0 136.12,0 136.12,-20"/>
<text text-anchor="middle" x="109.38" y="-6.5" font-family="Helvetica,sans-Serif" font-size="10.00">iostream</text>
</a>
</g>
</g>
<!-- Node1&#45;&gt;Node3 -->
<g id="edge2_Node000001_Node000003" class="edge">
<title>Node1&#45;&gt;Node3</title>
<g id="a_edge2_Node000001_Node000003"><a xlink:title=" ">
<path fill="none" stroke="#63b8ff" d="M285.01,-111.62C251.71,-92.54 175.84,-49.08 135.59,-26.02"/>
<polygon fill="#63b8ff" stroke="#63b8ff" points="137.43,-23.04 127.02,-21.11 133.95,-29.12 137.43,-23.04"/>
</a>
</g>
</g>
<!-- Node4 -->
<g id="Node000004" class="node">
<title>Node4</title>
<g id="a_Node000004"><a xlink:title=" ">
<polygon fill="#e0e0e0" stroke="#999999" points="394.88,-76 351.88,-76 351.88,-56 394.88,-56 394.88,-76"/>
<text text-anchor="middle" x="373.38" y="-62.5" font-family="Helvetica,sans-Serif" font-size="10.00">float.h</text>
</a>
</g>
</g>
<!-- Node1&#45;&gt;Node4 -->
<g id="edge3_Node000001_Node000004" class="edge">
<title>Node1&#45;&gt;Node4</title>
<g id="a_edge3_Node000001_Node000004"><a xlink:title=" ">
<path fill="none" stroke="#63b8ff" d="M313.92,-111.59C324.34,-103.77 339.42,-92.46 351.79,-83.19"/>
<polygon fill="#63b8ff" stroke="#63b8ff" points="353.87,-86.01 359.77,-77.21 349.67,-80.41 353.87,-86.01"/>
</a>
</g>
</g>
<!-- Node5 -->
<g id="Node000005" class="node">
<title>Node5</title>
<g id="a_Node000005"><a xlink:title=" ">
<polygon fill="#e0e0e0" stroke="#999999" points="461.5,-76 413.25,-76 413.25,-56 461.5,-56 461.5,-76"/>
<text text-anchor="middle" x="437.38" y="-62.5" font-family="Helvetica,sans-Serif" font-size="10.00">stdint.h</text>
</a>
</g>
</g>
<!-- Node1&#45;&gt;Node5 -->
<g id="edge4_Node000001_Node000005" class="edge">
<title>Node1&#45;&gt;Node5</title>
<g id="a_edge4_Node000001_Node000005"><a xlink:title=" ">
<path fill="none" stroke="#63b8ff" d="M325.06,-111.59C346.58,-103.05 378.58,-90.35 402.92,-80.68"/>
<polygon fill="#63b8ff" stroke="#63b8ff" points="404.09,-83.98 412.09,-77.04 401.51,-77.48 404.09,-83.98"/>
</a>
</g>
</g>
<!-- Node6 -->
<g id="Node000006" class="node">
<title>Node6</title>
<g id="a_Node000006"><a xlink:title=" ">
<polygon fill="#e0e0e0" stroke="#999999" points="519.38,-76 479.38,-76 479.38,-56 519.38,-56 519.38,-76"/>
<text text-anchor="middle" x="499.38" y="-62.5" font-family="Helvetica,sans-Serif" font-size="10.00">ctime</text>
</a>
</g>
</g>
<!-- Node1&#45;&gt;Node6 -->
<g id="edge5_Node000001_Node000006" class="edge">
<title>Node1&#45;&gt;Node6</title>
<g id="a_edge5_Node000001_Node000006"><a xlink:title=" ">
<path fill="none" stroke="#63b8ff" d="M338.75,-111.51C370.73,-103.29 418.24,-90.84 468.11,-76.57"/>
<polygon fill="#63b8ff" stroke="#63b8ff" points="469.03,-79.95 477.67,-73.82 467.09,-73.22 469.03,-79.95"/>
</a>
</g>
</g>
<!-- Node7 -->
<g id="Node000007" class="node">
<title>Node7</title>
<g id="a_Node000007"><a xlink:title=" ">
<polygon fill="#e0e0e0" stroke="#999999" points="202.5,-20 154.25,-20 154.25,0 202.5,0 202.5,-20"/>
<text text-anchor="middle" x="178.38" y="-6.5" font-family="Helvetica,sans-Serif" font-size="10.00">random</text>
</a>
</g>
</g>
<!-- Node1&#45;&gt;Node7 -->
<g id="edge6_Node000001_Node000007" class="edge">
<title>Node1&#45;&gt;Node7</title>
<g id="a_edge6_Node000001_Node000007"><a xlink:title=" ">
<path fill="none" stroke="#63b8ff" d="M290.29,-111.83C279.48,-102.84 262.64,-88.66 248.38,-76 230.47,-60.1 210.5,-41.46 196.48,-28.23"/>
<polygon fill="#63b8ff" stroke="#63b8ff" points="198.98,-25.77 189.32,-21.44 194.17,-30.86 198.98,-25.77"/>
</a>
</g>
</g>
<!-- Node8 -->
<g id="Node000008" class="node">
<title>Node8</title>
<g id="a_Node000008"><a xlink:title=" ">
<polygon fill="#e0e0e0" stroke="#999999" points="262.5,-20 220.25,-20 220.25,0 262.5,0 262.5,-20"/>
<text text-anchor="middle" x="241.38" y="-6.5" font-family="Helvetica,sans-Serif" font-size="10.00">queue</text>
</a>
</g>
</g>
<!-- Node1&#45;&gt;Node8 -->
<g id="edge7_Node000001_Node000008" class="edge">
<title>Node1&#45;&gt;Node8</title>
<g id="a_edge7_Node000001_Node000008"><a xlink:title=" ">
<path fill="none" stroke="#63b8ff" d="M290.47,-111.69C281.22,-103.25 268.24,-90.01 260.38,-76 252.61,-62.17 247.75,-44.87 244.9,-31.59"/>
<polygon fill="#63b8ff" stroke="#63b8ff" points="248.34,-30.99 243.02,-21.83 241.47,-32.31 248.34,-30.99"/>
</a>
</g>
</g>
<!-- Node9 -->
<g id="Node000009" class="node">
<title>Node9</title>
<g id="a_Node000009"><a xlink:title=" ">
<polygon fill="#e0e0e0" stroke="#999999" points="574.88,-76 537.88,-76 537.88,-56 574.88,-56 574.88,-76"/>
<text text-anchor="middle" x="556.38" y="-62.5" font-family="Helvetica,sans-Serif" font-size="10.00">tuple</text>
</a>
</g>
</g>
<!-- Node1&#45;&gt;Node9 -->
<g id="edge8_Node000001_Node000009" class="edge">
<title>Node1&#45;&gt;Node9</title>
<g id="a_edge8_Node000001_Node000009"><a xlink:title=" ">
<path fill="none" stroke="#63b8ff" d="M358.69,-111.52C402.32,-103.89 464,-92.17 526.61,-76.21"/>
<polygon fill="#63b8ff" stroke="#63b8ff" points="527.21,-79.67 536.02,-73.78 525.46,-72.89 527.21,-79.67"/>
</a>
</g>
</g>
<!-- Node10 -->
<g id="Node000010" class="node">
<title>Node10</title>
<g id="a_Node000010"><a xlink:href="evaluator_8h.html" target="_top" xlink:title=" ">
<polygon fill="white" stroke="#666666" points="333.38,-76 269.38,-76 269.38,-56 333.38,-56 333.38,-76"/>
<text text-anchor="middle" x="301.38" y="-62.5" font-family="Helvetica,sans-Serif" font-size="10.00">evaluator.h</text>
</a>
</g>
</g>
<!-- Node1&#45;&gt;Node10 -->
<g id="edge9_Node000001_Node000010" class="edge">
<title>Node1&#45;&gt;Node10</title>
<g id="a_edge9_Node000001_Node000010"><a xlink:title=" ">
<path fill="none" stroke="#63b8ff" d="M301.38,-111.59C301.38,-105.01 301.38,-95.96 301.38,-87.73"/>
<polygon fill="#63b8ff" stroke="#63b8ff" points="304.88,-87.81 301.38,-77.81 297.88,-87.81 304.88,-87.81"/>
</a>
</g>
</g>
<!-- Node10&#45;&gt;Node2 -->
<g id="edge10_Node000010_Node000002" class="edge">
<title>Node10&#45;&gt;Node2</title>
<g id="a_edge10_Node000010_Node000002"><a xlink:title=" ">
<path fill="none" stroke="#63b8ff" d="M269.24,-58.88C227.12,-50.81 150.69,-36 76.03,-20.52"/>
<polygon fill="#63b8ff" stroke="#63b8ff" points="77.02,-17.15 66.52,-18.54 75.59,-24.01 77.02,-17.15"/>
</a>
</g>
</g>
<!-- Node10&#45;&gt;Node3 -->
<g id="edge11_Node000010_Node000003" class="edge">
<title>Node10&#45;&gt;Node3</title>
<g id="a_edge11_Node000010_Node000003"><a xlink:title=" ">
<path fill="none" stroke="#63b8ff" d="M269.24,-55.96C235.62,-46.51 182.88,-31.67 147.26,-21.65"/>
<polygon fill="#63b8ff" stroke="#63b8ff" points="148.37,-18.33 137.8,-18.99 146.47,-25.07 148.37,-18.33"/>
</a>
</g>
</g>
<!-- Node10&#45;&gt;Node7 -->
<g id="edge16_Node000010_Node000007" class="edge">
<title>Node10&#45;&gt;Node7</title>
<g id="a_edge16_Node000010_Node000007"><a xlink:title=" ">
<path fill="none" stroke="#63b8ff" d="M279.95,-55.59C260.75,-47.17 232.33,-34.69 210.43,-25.07"/>
<polygon fill="#63b8ff" stroke="#63b8ff" points="211.92,-21.9 201.35,-21.09 209.1,-28.31 211.92,-21.9"/>
</a>
</g>
</g>
<!-- Node10&#45;&gt;Node8 -->
<g id="edge13_Node000010_Node000008" class="edge">
<title>Node10&#45;&gt;Node8</title>
<g id="a_edge13_Node000010_Node000008"><a xlink:title=" ">
<path fill="none" stroke="#63b8ff" d="M290.92,-55.59C282.41,-47.93 270.16,-36.91 259.98,-27.75"/>
<polygon fill="#63b8ff" stroke="#63b8ff" points="262.61,-25.4 252.83,-21.31 257.92,-30.6 262.61,-25.4"/>
</a>
</g>
</g>
<!-- Node11 -->
<g id="Node000011" class="node">
<title>Node11</title>
<g id="a_Node000011"><a xlink:title=" ">
<polygon fill="#e0e0e0" stroke="#999999" points="554.25,-20 498.5,-20 498.5,0 554.25,0 554.25,-20"/>
<text text-anchor="middle" x="526.38" y="-6.5" font-family="Helvetica,sans-Serif" font-size="10.00">algorithm</text>
</a>
</g>
</g>
<!-- Node10&#45;&gt;Node11 -->
<g id="edge12_Node000010_Node000011" class="edge">
<title>Node10&#45;&gt;Node11</title>
<g id="a_edge12_Node000010_Node000011"><a xlink:title=" ">
<path fill="none" stroke="#63b8ff" d="M333.65,-57.31C368.91,-48.9 427.36,-34.95 486.96,-20.58"/>
<polygon fill="#63b8ff" stroke="#63b8ff" points="487.72,-23.99 496.62,-18.24 486.08,-17.19 487.72,-23.99"/>
</a>
</g>
</g>
<!-- Node12 -->
<g id="Node000012" class="node">
<title>Node12</title>
<g id="a_Node000012"><a xlink:title=" ">
<polygon fill="#e0e0e0" stroke="#999999" points="614.88,-20 571.88,-20 571.88,0 614.88,0 614.88,-20"/>
<text text-anchor="middle" x="593.38" y="-6.5" font-family="Helvetica,sans-Serif" font-size="10.00">mutex</text>
</a>
</g>
</g>
<!-- Node10&#45;&gt;Node12 -->
<g id="edge14_Node000010_Node000012" class="edge">
<title>Node10&#45;&gt;Node12</title>
<g id="a_edge14_Node000010_Node000012"><a xlink:title=" ">
<path fill="none" stroke="#63b8ff" d="M333.45,-57.96C336.79,-57.27 340.15,-56.61 343.38,-56 437.21,-38.28 464.86,-41.97 560.46,-20.45"/>
<polygon fill="#63b8ff" stroke="#63b8ff" points="561.07,-23.9 570.03,-18.25 559.5,-17.08 561.07,-23.9"/>
</a>
</g>
</g>
<!-- Node13 -->
<g id="Node000013" class="node">
<title>Node13</title>
<g id="a_Node000013"><a xlink:title=" ">
<polygon fill="#e0e0e0" stroke="#999999" points="675.88,-20 632.88,-20 632.88,0 675.88,0 675.88,-20"/>
<text text-anchor="middle" x="654.38" y="-6.5" font-family="Helvetica,sans-Serif" font-size="10.00">thread</text>
</a>
</g>
</g>
<!-- Node10&#45;&gt;Node13 -->
<g id="edge15_Node000010_Node000013" class="edge">
<title>Node10&#45;&gt;Node13</title>
<g id="a_edge15_Node000010_Node000013"><a xlink:title=" ">
<path fill="none" stroke="#63b8ff" d="M333.43,-57.84C336.78,-57.18 340.14,-56.55 343.38,-56 463.97,-35.39 499.23,-45.56 621.6,-20.31"/>
<polygon fill="#63b8ff" stroke="#63b8ff" points="621.98,-23.8 631.05,-18.32 620.54,-16.95 621.98,-23.8"/>
</a>
</g>
</g>
<!-- Node14 -->
<g id="Node000014" class="node">
<title>Node14</title>
<g id="a_Node000014"><a xlink:title=" ">
<polygon fill="#e0e0e0" stroke="#999999" points="736.88,-20 693.88,-20 693.88,0 736.88,0 736.88,-20"/>
<text text-anchor="middle" x="715.38" y="-6.5" font-family="Helvetica,sans-Serif" font-size="10.00">vector</text>
</a>
</g>
</g>
<!-- Node10&#45;&gt;Node14 -->
<g id="edge17_Node000010_Node000014" class="edge">
<title>Node10&#45;&gt;Node14</title>
<g id="a_edge17_Node000010_Node000014"><a xlink:title=" ">
<path fill="none" stroke="#63b8ff" d="M333.87,-57.68C337.07,-57.07 340.28,-56.49 343.38,-56 490.77,-32.52 533.53,-49.26 682.62,-20.23"/>
<polygon fill="#63b8ff" stroke="#63b8ff" points="682.93,-23.74 692.05,-18.36 681.56,-16.88 682.93,-23.74"/>
</a>
</g>
</g>
<!-- Node15 -->
<g id="Node000015" class="node">
<title>Node15</title>
<g id="a_Node000015"><a xlink:title=" ">
<polygon fill="#e0e0e0" stroke="#999999" points="800,-20 754.75,-20 754.75,0 800,0 800,-20"/>
<text text-anchor="middle" x="777.38" y="-6.5" font-family="Helvetica,sans-Serif" font-size="10.00">chrono</text>
</a>
</g>
</g>
<!-- Node10&#45;&gt;Node15 -->
<g id="edge18_Node000010_Node000015" class="edge">
<title>Node10&#45;&gt;Node15</title>
<g id="a_edge18_Node000010_Node000015"><a xlink:title=" ">
<path fill="none" stroke="#63b8ff" d="M333.86,-57.63C337.07,-57.03 340.28,-56.47 343.38,-56 517.53,-29.66 567.6,-52.26 743.27,-20.27"/>
<polygon fill="#63b8ff" stroke="#63b8ff" points="743.79,-23.73 752.98,-18.46 742.51,-16.85 743.79,-23.73"/>
</a>
</g>
</g>
<!-- Node16 -->
<g id="Node000016" class="node">
<title>Node16</title>
<g id="a_Node000016"><a xlink:title=" ">
<polygon fill="#e0e0e0" stroke="#999999" points="374.38,-20 280.38,-20 280.38,0 374.38,0 374.38,-20"/>
<text text-anchor="middle" x="327.38" y="-6.5" font-family="Helvetica,sans-Serif" font-size="10.00">condition_variable</text>
</a>
</g>
</g>
<!-- Node10&#45;&gt;Node16 -->
<g id="edge19_Node000010_Node000016" class="edge">
<title>Node10&#45;&gt;Node16</title>
<g id="a_edge19_Node000010_Node000016"><a xlink:title=" ">
<path fill="none" stroke="#63b8ff" d="M305.9,-55.59C309.22,-48.7 313.84,-39.1 317.95,-30.57"/>
<polygon fill="#63b8ff" stroke="#63b8ff" points="321.06,-32.19 322.24,-21.66 314.75,-29.15 321.06,-32.19"/>
</a>
</g>
</g>
<!-- Node17 -->
<g id="Node000017" class="node">
<title>Node17</title>
<g id="a_Node000017"><a xlink:title=" ">
<polygon fill="#e0e0e0" stroke="#999999" points="480.38,-20 392.38,-20 392.38,0 480.38,0 480.38,-20"/>
<text text-anchor="middle" x="436.38" y="-6.5" font-family="Helvetica,sans-Serif" font-size="10.00">pcg_random.hpp</text>
</a>
</g>
</g>
<!-- Node10&#45;&gt;Node17 -->
<g id="edge20_Node000010_Node000017" class="edge">
<title>Node10&#45;&gt;Node17</title>
<g id="a_edge20_Node000010_Node000017"><a xlink:title=" ">
<path fill="none" stroke="#63b8ff" d="M324.89,-55.59C346.25,-47.05 378.01,-34.35 402.17,-24.68"/>
<polygon fill="#63b8ff" stroke="#63b8ff" points="403.29,-28.01 411.27,-21.04 400.69,-21.51 403.29,-28.01"/>
</a>
</g>
</g>
</g>
</svg>

<g id="navigator" transform="translate(0 0)" fill="#404254">
  <rect fill="#f2f5e9" fill-opacity="0.5" stroke="#606060" stroke-width=".5" x="0" y="0" width="60" height="60"/>
  <use id="zoomplus" xlink:href="#zoomPlus" x="17" y="9" onmousedown="handleZoom(evt,'in')"/>
  <use id="zoomminus" xlink:href="#zoomMin" x="42" y="9" onmousedown="handleZoom(evt,'out')"/>
  <use id="reset" xlink:href="#resetDef" x="30" y="36" onmousedown="handleReset()"/>
   <use id="arrowup" xlink:href="#arrowUp" x="0" y="0" onmousedown="handlePan(0,-1)"/>
  <use id="arrowright" xlink:href="#arrowRight" x="0" y="0" onmousedown="handlePan(1,0)"/>
  <use id="arrowdown" xlink:href="#arrowDown" x="0" y="0" onmousedown="handlePan(0,1)"/>
  <use id="arrowleft" xlink:href="#arrowLeft" x="0" y="0" onmousedown="handlePan(-1,0)"/>
</g>
<svg viewBox="0 0 15 15" width="100%" height="30px" preserveAspectRatio="xMaxYMin meet">
 <g id="arrow_out" transform="scale(0.3 0.3)">
  <a xlink:href="deoptimizer_8cpp__incl_org.svg" target="_base">
   <rect id="button" ry="5" rx="5" y="6" x="6" height="38" width="38"
        fill="#f2f5e9" fill-opacity="0.5" stroke="#606060" stroke-width="1.0"/>
   <path id="arrow"
     d="M 11.500037,31.436501 C 11.940474,20.09759 22.043105,11.32322 32.158766,21.979434 L 37.068811,17.246167 C 37.068811,17.246167 37.088388,32 37.088388,32 L 22.160133,31.978069 C 22.160133,31.978069 26.997745,27.140456 26.997745,27.140456 C 18.528582,18.264221 13.291696,25.230495 11.500037,31.436501 z"
     style="fill:#404040;"/>
  </a>
 </g>
</svg>

<style type='text/css'>
<![CDATA[
[data-mouse-over-selected='false'] { opacity: 0.7; }
[data-mouse-over-selected='true']  { opacity: 1.0; }
]]>
</style>
<script type="application/ecmascript"><![CDATA[
document.addEventListener('DOMContentLoaded', (event) => {
  highlightEdges();
  highlightAdjacentNodes();
});
]]></script>
</svg>
