<?xml version="1.0" encoding="UTF-8" standalone="no"?>
<!DOCTYPE svg PUBLIC "-//W3C//DTD SVG 1.1//EN"
 "http://www.w3.org/Graphics/SVG/1.1/DTD/svg11.dtd">
<!-- Generated by graphviz version 12.2.1 (20241206.2353)
 -->
<!-- Title: initDE_C Pages: 1 -->
<svg width="197pt" height="66pt"
 viewBox="0.00 0.00 196.75 66.00" xmlns="http://www.w3.org/2000/svg" xmlns:xlink="http://www.w3.org/1999/xlink">
<g id="graph0" class="graph" transform="scale(1 1) rotate(0) translate(4 62)">
<title>initDE_C</title>
<!-- Node1 -->
<g id="Node000001" class="node">
<title>Node1</title>
<g id="a_Node000001"><a xlink:title=" ">
<polygon fill="#999999" stroke="#666666" points="55.75,-39 0,-39 0,-19 55.75,-19 55.75,-39"/>
<text text-anchor="middle" x="27.88" y="-25.5" font-family="Helvetica,sans-Serif" font-size="10.00">initDE_C</text>
</a>
</g>
</g>
<!-- Node2 -->
<g id="Node000002" class="node">
<title>Node2</title>
<g id="a_Node000002"><a xlink:href="evaluator_8h.html#ad0943ebd623281f526e5aee2aa818895" target="_top" xlink:title=" ">
<polygon fill="white" stroke="#666666" points="179.38,-58 101.12,-58 101.12,-38 179.38,-38 179.38,-58"/>
<text text-anchor="middle" x="140.25" y="-44.5" font-family="Helvetica,sans-Serif" font-size="10.00">noop_callback</text>
</a>
</g>
</g>
<!-- Node1&#45;&gt;Node2 -->
<g id="edge1_Node000001_Node000002" class="edge">
<title>Node1&#45;&gt;Node2</title>
<g id="a_edge1_Node000001_Node000002"><a xlink:title=" ">
<path fill="none" stroke="#63b8ff" d="M56.16,-33.7C66.31,-35.44 78.17,-37.49 89.7,-39.47"/>
<polygon fill="#63b8ff" stroke="#63b8ff" points="89.1,-42.92 99.55,-41.17 90.29,-36.02 89.1,-42.92"/>
</a>
</g>
</g>
<!-- Node3 -->
<g id="Node000003" class="node">
<title>Node3</title>
<g id="a_Node000003"><a xlink:href="evaluator_8h.html#ac05c49788a31e5f7cb8efbe8ca3b548e" target="_top" xlink:title=" ">
<polygon fill="white" stroke="#666666" points="188.75,-20 91.75,-20 91.75,0 188.75,0 188.75,-20"/>
<text text-anchor="middle" x="140.25" y="-6.5" font-family="Helvetica,sans-Serif" font-size="10.00">noop_callback_par</text>
</a>
</g>
</g>
<!-- Node1&#45;&gt;Node3 -->
<g id="edge2_Node000001_Node000003" class="edge">
<title>Node1&#45;&gt;Node3</title>
<g id="a_edge2_Node000001_Node000003"><a xlink:title=" ">
<path fill="none" stroke="#63b8ff" d="M56.16,-24.3C63.62,-23.02 72,-21.58 80.49,-20.12"/>
<polygon fill="#63b8ff" stroke="#63b8ff" points="80.9,-23.6 90.16,-18.45 79.71,-16.7 80.9,-23.6"/>
</a>
</g>
</g>
</g>
</svg>
