<?xml version="1.0" encoding="UTF-8" standalone="no"?>
<!DOCTYPE svg PUBLIC "-//W3C//DTD SVG 1.1//EN"
 "http://www.w3.org/Graphics/SVG/1.1/DTD/svg11.dtd">
<!-- Generated by graphviz version 12.2.1 (20241206.2353)
 -->
<!-- Title: normalVec Pages: 1 -->
<!--zoomable 287 -->

<svg id="main" version="1.1" xmlns="http://www.w3.org/2000/svg" xmlns:xlink="http://www.w3.org/1999/xlink" xml:space="preserve" onload="init(evt)">

<style type="text/css"><![CDATA[
.node, .edge {opacity: 0.7;}
.node.selected, .edge.selected {opacity: 1;}
.edge:hover path { stroke: red; }
.edge:hover polygon { stroke: red; fill: red; }
]]></style>

<defs>
  <circle id="rim" cx="0" cy="0" r="7"/>
  <circle id="rim2" cx="0" cy="0" r="3.5"/>
  <g id="zoomPlus">
    <use xlink:href="#rim" fill="#404040"><set attributeName="fill" to="#808080" begin="zoomplus.mouseover" end="zoomplus.mouseout"/></use>
    <path d="M-4,0h8M0,-4v8" fill="none" stroke="white" stroke-width="1.5" pointer-events="none"/>
  </g>
  <g id="zoomMin">
    <use xlink:href="#rim" fill="#404040"><set attributeName="fill" to="#808080" begin="zoomminus.mouseover" end="zoomminus.mouseout"/></use>
    <path d="M-4,0h8" fill="none" stroke="white" stroke-width="1.5" pointer-events="none"/>
  </g>
  <g id="arrowUp" transform="translate(30 24)">
    <use xlink:href="#rim"/>
    <path pointer-events="none" fill="none" stroke="white" stroke-width="1.5" d="M0,-3.0v7 M-2.5,-0.5L0,-3.0L2.5,-0.5"/>
  </g>
  <g id="arrowRight" transform="rotate(90) translate(36 -43)">
    <use xlink:href="#rim"/>
    <path pointer-events="none" fill="none" stroke="white" stroke-width="1.5" d="M0,-3.0v7 M-2.5,-0.5L0,-3.0L2.5,-0.5"/>
  </g>
  <g id="arrowDown" transform="rotate(180) translate(-30 -48)">
    <use xlink:href="#rim"/>
    <path pointer-events="none" fill="none" stroke="white" stroke-width="1.5" d="M0,-3.0v7 M-2.5,-0.5L0,-3.0L2.5,-0.5"/>
  </g>
  <g id="arrowLeft" transform="rotate(270) translate(-36 17)">
    <use xlink:href="#rim"/>
    <path pointer-events="none" fill="none" stroke="white" stroke-width="1.5" d="M0,-3.0v7 M-2.5,-0.5L0,-3.0L2.5,-0.5"/>
  </g>
  <g id="resetDef">
    <use xlink:href="#rim2" fill="#404040"><set attributeName="fill" to="#808080" begin="reset.mouseover" end="reset.mouseout"/></use>
  </g>
</defs>
<script type="application/ecmascript">
var viewWidth = 606;
var viewHeight = 287;
var sectionId = 'dynsection-8';
</script>
<script type="application/ecmascript" xlink:href="svg.min.js"/>
<svg id="graph" class="graph">
<g id="viewport">
<title>normalVec</title>
<!-- Node1 -->
<g id="Node000001" class="node">
<title>Node1</title>
<g id="a_Node000001"><a xlink:title=" ">
<polygon fill="#999999" stroke="#666666" points="598,-201 536.25,-201 536.25,-181 598,-181 598,-201"/>
<text text-anchor="middle" x="567.12" y="-187.5" font-family="Helvetica,sans-Serif" font-size="10.00">normalVec</text>
</a>
</g>
</g>
<!-- Node2 -->
<g id="Node000002" class="node">
<title>Node2</title>
<g id="a_Node000002"><a xlink:href="classacmaes_1_1_acmaes_optimizer.html#a76117dfd997b8f098304f5d4f0fbf52e" target="_top" xlink:title=" ">
<polygon fill="white" stroke="#666666" points="500.25,-267 344,-267 344,-247 500.25,-247 500.25,-267"/>
<text text-anchor="middle" x="422.12" y="-253.5" font-family="Helvetica,sans-Serif" font-size="10.00">acmaes::AcmaesOptimizer::ask</text>
</a>
</g>
</g>
<!-- Node1&#45;&gt;Node2 -->
<g id="edge1_Node000001_Node000002" class="edge">
<title>Node1&#45;&gt;Node2</title>
<g id="a_edge1_Node000001_Node000002"><a xlink:title=" ">
<path fill="none" stroke="#63b8ff" d="M546.22,-208.25C533.75,-218.25 516.93,-230.34 500.25,-238 492.86,-241.4 484.77,-244.24 476.71,-246.6"/>
<polygon fill="#63b8ff" stroke="#63b8ff" points="548.19,-211.16 553.66,-202.09 543.73,-205.77 548.19,-211.16"/>
</a>
</g>
</g>
<!-- Node4 -->
<g id="Node000004" class="node">
<title>Node4</title>
<g id="a_Node000004"><a xlink:href="classcrmfnes_1_1_crfmnes_optimizer.html#a05253e344b7c87ba83627a8b15bf384b" target="_top" xlink:title=" ">
<polygon fill="white" stroke="#666666" points="490.5,-229 353.75,-229 353.75,-197 490.5,-197 490.5,-229"/>
<text text-anchor="start" x="361.75" y="-215.5" font-family="Helvetica,sans-Serif" font-size="10.00">crmfnes::CrfmnesOptimizer</text>
<text text-anchor="middle" x="422.12" y="-203.5" font-family="Helvetica,sans-Serif" font-size="10.00">::CrfmnesOptimizer</text>
</a>
</g>
</g>
<!-- Node1&#45;&gt;Node4 -->
<g id="edge3_Node000001_Node000004" class="edge">
<title>Node1&#45;&gt;Node4</title>
<g id="a_edge3_Node000001_Node000004"><a xlink:title=" ">
<path fill="none" stroke="#63b8ff" d="M524.74,-197.37C514.1,-199 502.37,-200.81 490.77,-202.59"/>
<polygon fill="#63b8ff" stroke="#63b8ff" points="524.95,-200.88 534.3,-195.9 523.89,-193.96 524.95,-200.88"/>
</a>
</g>
</g>
<!-- Node5 -->
<g id="Node000005" class="node">
<title>Node5</title>
<g id="a_Node000005"><a xlink:href="evaluator_8h.html#a26c726f0e49c18836df96a8489dc9147" target="_top" xlink:title=" ">
<polygon fill="white" stroke="#666666" points="453,-179 391.25,-179 391.25,-159 453,-159 453,-179"/>
<text text-anchor="middle" x="422.12" y="-165.5" font-family="Helvetica,sans-Serif" font-size="10.00">normalVec</text>
</a>
</g>
</g>
<!-- Node1&#45;&gt;Node5 -->
<g id="edge4_Node000001_Node000005" class="edge">
<title>Node1&#45;&gt;Node5</title>
<g id="a_edge4_Node000001_Node000005"><a xlink:title=" ">
<path fill="none" stroke="#63b8ff" d="M524.42,-184.58C501.69,-181.09 474.06,-176.84 453.41,-173.66"/>
<polygon fill="#63b8ff" stroke="#63b8ff" points="523.89,-188.04 534.3,-186.1 524.95,-181.12 523.89,-188.04"/>
</a>
</g>
</g>
<!-- Node6 -->
<g id="Node000006" class="node">
<title>Node6</title>
<g id="a_Node000006"><a xlink:href="classdifferential__evolution_1_1_de_optimizer.html#a750fb2ff0c0981be30414916d8c872bf" target="_top" xlink:title=" ">
<polygon fill="white" stroke="#666666" points="479.25,-141 365,-141 365,-109 479.25,-109 479.25,-141"/>
<text text-anchor="start" x="373" y="-127.5" font-family="Helvetica,sans-Serif" font-size="10.00">differential_evolution</text>
<text text-anchor="middle" x="422.12" y="-115.5" font-family="Helvetica,sans-Serif" font-size="10.00">::DeOptimizer::sample</text>
</a>
</g>
</g>
<!-- Node1&#45;&gt;Node6 -->
<g id="edge5_Node000001_Node000006" class="edge">
<title>Node1&#45;&gt;Node6</title>
<g id="a_edge5_Node000001_Node000006"><a xlink:title=" ">
<path fill="none" stroke="#63b8ff" d="M542.37,-174.25C530.18,-166.17 514.85,-156.79 500.25,-150 493.61,-146.91 486.49,-144.05 479.35,-141.45"/>
<polygon fill="#63b8ff" stroke="#63b8ff" points="540.3,-177.08 550.54,-179.8 544.23,-171.29 540.3,-177.08"/>
</a>
</g>
</g>
<!-- Node3 -->
<g id="Node000003" class="node">
<title>Node3</title>
<g id="a_Node000003"><a xlink:href="classacmaes_1_1_acmaes_optimizer.html#ab3af1e3acb2561d4b0be23b402b232a9" target="_top" xlink:title=" ">
<polygon fill="white" stroke="#666666" points="308,-279 173.5,-279 173.5,-235 308,-235 308,-279"/>
<text text-anchor="start" x="181.5" y="-265.5" font-family="Helvetica,sans-Serif" font-size="10.00">acmaes::AcmaesOptimizer</text>
<text text-anchor="start" x="181.5" y="-253.5" font-family="Helvetica,sans-Serif" font-size="10.00">::do_optimize_delayed</text>
<text text-anchor="middle" x="240.75" y="-241.5" font-family="Helvetica,sans-Serif" font-size="10.00">_update</text>
</a>
</g>
</g>
<!-- Node2&#45;&gt;Node3 -->
<g id="edge2_Node000002_Node000003" class="edge">
<title>Node2&#45;&gt;Node3</title>
<g id="a_edge2_Node000002_Node000003"><a xlink:title=" ">
<path fill="none" stroke="#63b8ff" d="M332.39,-257C324.33,-257 316.26,-257 308.45,-257"/>
<polygon fill="#63b8ff" stroke="#63b8ff" points="332.24,-260.5 342.24,-257 332.24,-253.5 332.24,-260.5"/>
</a>
</g>
</g>
<!-- Node7 -->
<g id="Node000007" class="node">
<title>Node7</title>
<g id="a_Node000007"><a xlink:href="classdifferential__evolution_1_1_de_optimizer.html#a18f5c0a1c724443666e4827126716315" target="_top" xlink:title=" ">
<polygon fill="white" stroke="#666666" points="306.88,-191 174.62,-191 174.62,-159 306.88,-159 306.88,-191"/>
<text text-anchor="start" x="182.62" y="-177.5" font-family="Helvetica,sans-Serif" font-size="10.00">differential_evolution</text>
<text text-anchor="middle" x="240.75" y="-165.5" font-family="Helvetica,sans-Serif" font-size="10.00">::DeOptimizer::doOptimize</text>
</a>
</g>
</g>
<!-- Node6&#45;&gt;Node7 -->
<g id="edge6_Node000006_Node000007" class="edge">
<title>Node6&#45;&gt;Node7</title>
<g id="a_edge6_Node000006_Node000007"><a xlink:title=" ">
<path fill="none" stroke="#63b8ff" d="M354.16,-143.67C336.68,-148.54 317.96,-153.76 300.91,-158.51"/>
<polygon fill="#63b8ff" stroke="#63b8ff" points="354.71,-147.15 363.4,-141.09 352.83,-140.4 354.71,-147.15"/>
</a>
</g>
</g>
<!-- Node8 -->
<g id="Node000008" class="node">
<title>Node8</title>
<g id="a_Node000008"><a xlink:href="classdifferential__evolution_1_1_de_optimizer.html#a4a4034e862bdd75aead3dd069ec36583" target="_top" xlink:title=" ">
<polygon fill="white" stroke="#666666" points="293,-141 188.5,-141 188.5,-109 293,-109 293,-141"/>
<text text-anchor="start" x="196.5" y="-127.5" font-family="Helvetica,sans-Serif" font-size="10.00">differential_evolution</text>
<text text-anchor="middle" x="240.75" y="-115.5" font-family="Helvetica,sans-Serif" font-size="10.00">::DeOptimizer::init</text>
</a>
</g>
</g>
<!-- Node6&#45;&gt;Node8 -->
<g id="edge7_Node000006_Node000008" class="edge">
<title>Node6&#45;&gt;Node8</title>
<g id="a_edge7_Node000006_Node000008"><a xlink:title=" ">
<path fill="none" stroke="#63b8ff" d="M353.62,-125C333.62,-125 312.05,-125 293.24,-125"/>
<polygon fill="#63b8ff" stroke="#63b8ff" points="353.35,-128.5 363.35,-125 353.35,-121.5 353.35,-128.5"/>
</a>
</g>
</g>
<!-- Node10 -->
<g id="Node000010" class="node">
<title>Node10</title>
<g id="a_Node000010"><a xlink:href="classdifferential__evolution_1_1_de_optimizer.html#accf9be34ac5d30b9a2df15dba24f4dce" target="_top" xlink:title=" ">
<polygon fill="white" stroke="#666666" points="293,-88 188.5,-88 188.5,-56 293,-56 293,-88"/>
<text text-anchor="start" x="196.5" y="-74.5" font-family="Helvetica,sans-Serif" font-size="10.00">differential_evolution</text>
<text text-anchor="middle" x="240.75" y="-62.5" font-family="Helvetica,sans-Serif" font-size="10.00">::DeOptimizer::tell</text>
</a>
</g>
</g>
<!-- Node6&#45;&gt;Node10 -->
<g id="edge9_Node000006_Node000010" class="edge">
<title>Node6&#45;&gt;Node10</title>
<g id="a_edge9_Node000006_Node000010"><a xlink:title=" ">
<path fill="none" stroke="#63b8ff" d="M354.33,-105.26C334.12,-99.29 312.25,-92.83 293.21,-87.21"/>
<polygon fill="#63b8ff" stroke="#63b8ff" points="353.32,-108.61 363.9,-108.09 355.3,-101.9 353.32,-108.61"/>
</a>
</g>
</g>
<!-- Node9 -->
<g id="Node000009" class="node">
<title>Node9</title>
<g id="a_Node000009"><a xlink:href="classdifferential__evolution_1_1_de_optimizer.html#a88f53bfd99efb252ac0e6d53b1457edf" target="_top" xlink:title=" ">
<polygon fill="white" stroke="#666666" points="137.5,-144 0,-144 0,-112 137.5,-112 137.5,-144"/>
<text text-anchor="start" x="8" y="-130.5" font-family="Helvetica,sans-Serif" font-size="10.00">differential_evolution</text>
<text text-anchor="middle" x="68.75" y="-118.5" font-family="Helvetica,sans-Serif" font-size="10.00">::DeOptimizer::DeOptimizer</text>
</a>
</g>
</g>
<!-- Node8&#45;&gt;Node9 -->
<g id="edge8_Node000008_Node000009" class="edge">
<title>Node8&#45;&gt;Node9</title>
<g id="a_edge8_Node000008_Node000009"><a xlink:title=" ">
<path fill="none" stroke="#63b8ff" d="M176.88,-126.11C164.21,-126.33 150.84,-126.57 138,-126.8"/>
<polygon fill="#63b8ff" stroke="#63b8ff" points="176.83,-129.61 186.77,-125.93 176.71,-122.61 176.83,-129.61"/>
</a>
</g>
</g>
<!-- Node11 -->
<g id="Node000011" class="node">
<title>Node11</title>
<g id="a_Node000011"><a xlink:href="classdifferential__evolution_1_1_de_optimizer.html#a0af3433f0f60f99f8a9fbf9f10f36360" target="_top" xlink:title=" ">
<polygon fill="white" stroke="#666666" points="136.38,-94 1.12,-94 1.12,-50 136.38,-50 136.38,-94"/>
<text text-anchor="start" x="9.12" y="-80.5" font-family="Helvetica,sans-Serif" font-size="10.00">differential_evolution</text>
<text text-anchor="start" x="9.12" y="-68.5" font-family="Helvetica,sans-Serif" font-size="10.00">::DeOptimizer::do_optimize</text>
<text text-anchor="middle" x="68.75" y="-56.5" font-family="Helvetica,sans-Serif" font-size="10.00">_delayed_update</text>
</a>
</g>
</g>
<!-- Node10&#45;&gt;Node11 -->
<g id="edge10_Node000010_Node000011" class="edge">
<title>Node10&#45;&gt;Node11</title>
<g id="a_edge10_Node000010_Node000011"><a xlink:title=" ">
<path fill="none" stroke="#63b8ff" d="M176.99,-72C163.88,-72 150.01,-72 136.76,-72"/>
<polygon fill="#63b8ff" stroke="#63b8ff" points="176.77,-75.5 186.77,-72 176.77,-68.5 176.77,-75.5"/>
</a>
</g>
</g>
<!-- Node12 -->
<g id="Node000012" class="node">
<title>Node12</title>
<g id="a_Node000012"><a xlink:href="classdifferential__evolution_1_1_de_optimizer.html#aa1d0f0d9ddbb192cb30b470d8c3c1af0" target="_top" xlink:title=" ">
<polygon fill="white" stroke="#666666" points="122.12,-32 15.38,-32 15.38,0 122.12,0 122.12,-32"/>
<text text-anchor="start" x="23.38" y="-18.5" font-family="Helvetica,sans-Serif" font-size="10.00">differential_evolution</text>
<text text-anchor="middle" x="68.75" y="-6.5" font-family="Helvetica,sans-Serif" font-size="10.00">::DeOptimizer::tellAll</text>
</a>
</g>
</g>
<!-- Node10&#45;&gt;Node12 -->
<g id="edge11_Node000010_Node000012" class="edge">
<title>Node10&#45;&gt;Node12</title>
<g id="a_edge11_Node000010_Node000012"><a xlink:title=" ">
<path fill="none" stroke="#63b8ff" d="M178.82,-51.93C159.45,-45.55 138.27,-38.57 119.77,-32.48"/>
<polygon fill="#63b8ff" stroke="#63b8ff" points="177.63,-55.22 188.23,-55.03 179.82,-48.57 177.63,-55.22"/>
</a>
</g>
</g>
</g>
</svg>

<g id="navigator" transform="translate(0 0)" fill="#404254">
  <rect fill="#f2f5e9" fill-opacity="0.5" stroke="#606060" stroke-width=".5" x="0" y="0" width="60" height="60"/>
  <use id="zoomplus" xlink:href="#zoomPlus" x="17" y="9" onmousedown="handleZoom(evt,'in')"/>
  <use id="zoomminus" xlink:href="#zoomMin" x="42" y="9" onmousedown="handleZoom(evt,'out')"/>
  <use id="reset" xlink:href="#resetDef" x="30" y="36" onmousedown="handleReset()"/>
   <use id="arrowup" xlink:href="#arrowUp" x="0" y="0" onmousedown="handlePan(0,-1)"/>
  <use id="arrowright" xlink:href="#arrowRight" x="0" y="0" onmousedown="handlePan(1,0)"/>
  <use id="arrowdown" xlink:href="#arrowDown" x="0" y="0" onmousedown="handlePan(0,1)"/>
  <use id="arrowleft" xlink:href="#arrowLeft" x="0" y="0" onmousedown="handlePan(-1,0)"/>
</g>
<svg viewBox="0 0 15 15" width="100%" height="30px" preserveAspectRatio="xMaxYMin meet">
 <g id="arrow_out" transform="scale(0.3 0.3)">
  <a xlink:href="evaluator_8h_a5b652df2286e1f0c4dae7d4dd841bb8f_icgraph_org.svg" target="_base">
   <rect id="button" ry="5" rx="5" y="6" x="6" height="38" width="38"
        fill="#f2f5e9" fill-opacity="0.5" stroke="#606060" stroke-width="1.0"/>
   <path id="arrow"
     d="M 11.500037,31.436501 C 11.940474,20.09759 22.043105,11.32322 32.158766,21.979434 L 37.068811,17.246167 C 37.068811,17.246167 37.088388,32 37.088388,32 L 22.160133,31.978069 C 22.160133,31.978069 26.997745,27.140456 26.997745,27.140456 C 18.528582,18.264221 13.291696,25.230495 11.500037,31.436501 z"
     style="fill:#404040;"/>
  </a>
 </g>
</svg>

<style type='text/css'>
<![CDATA[
[data-mouse-over-selected='false'] { opacity: 0.7; }
[data-mouse-over-selected='true']  { opacity: 1.0; }
]]>
</style>
<script type="application/ecmascript"><![CDATA[
document.addEventListener('DOMContentLoaded', (event) => {
  highlightEdges();
  highlightAdjacentNodes();
});
]]></script>
</svg>
