<?xml version="1.0" encoding="UTF-8" standalone="no"?>
<!DOCTYPE svg PUBLIC "-//W3C//DTD SVG 1.1//EN"
 "http://www.w3.org/Graphics/SVG/1.1/DTD/svg11.dtd">
<!-- Generated by graphviz version 12.2.1 (20241206.2353)
 -->
<!-- Title: normreal Pages: 1 -->
<svg width="884pt" height="171pt"
 viewBox="0.00 0.00 884.00 171.00" xmlns="http://www.w3.org/2000/svg" xmlns:xlink="http://www.w3.org/1999/xlink">
<g id="graph0" class="graph" transform="scale(1 1) rotate(0) translate(4 167)">
<title>normreal</title>
<!-- Node1 -->
<g id="Node000001" class="node">
<title>Node1</title>
<g id="a_Node000001"><a xlink:title=" ">
<polygon fill="#999999" stroke="#666666" points="876,-148 822.5,-148 822.5,-128 876,-128 876,-148"/>
<text text-anchor="middle" x="849.25" y="-134.5" font-family="Helvetica,sans-Serif" font-size="10.00">normreal</text>
</a>
</g>
</g>
<!-- Node2 -->
<g id="Node000002" class="node">
<title>Node2</title>
<g id="a_Node000002"><a xlink:href="classdifferential__evolution_1_1_de_optimizer.html#a427ae953a5503dc4369da1bbb338fe67" target="_top" xlink:title=" ">
<polygon fill="white" stroke="#666666" points="786.5,-154 664.75,-154 664.75,-122 786.5,-122 786.5,-154"/>
<text text-anchor="start" x="672.75" y="-140.5" font-family="Helvetica,sans-Serif" font-size="10.00">differential_evolution</text>
<text text-anchor="middle" x="725.62" y="-128.5" font-family="Helvetica,sans-Serif" font-size="10.00">::DeOptimizer::sample_i</text>
</a>
</g>
</g>
<!-- Node1&#45;&gt;Node2 -->
<g id="edge1_Node000001_Node000002" class="edge">
<title>Node1&#45;&gt;Node2</title>
<g id="a_edge1_Node000001_Node000002"><a xlink:title=" ">
<path fill="none" stroke="#63b8ff" d="M810.71,-138C803.08,-138 794.86,-138 786.66,-138"/>
<polygon fill="#63b8ff" stroke="#63b8ff" points="810.64,-141.5 820.64,-138 810.64,-134.5 810.64,-141.5"/>
</a>
</g>
</g>
<!-- Node3 -->
<g id="Node000003" class="node">
<title>Node3</title>
<g id="a_Node000003"><a xlink:href="classdifferential__evolution_1_1_de_optimizer.html#a18f5c0a1c724443666e4827126716315" target="_top" xlink:title=" ">
<polygon fill="white" stroke="#666666" points="303.5,-163 171.25,-163 171.25,-131 303.5,-131 303.5,-163"/>
<text text-anchor="start" x="179.25" y="-149.5" font-family="Helvetica,sans-Serif" font-size="10.00">differential_evolution</text>
<text text-anchor="middle" x="237.38" y="-137.5" font-family="Helvetica,sans-Serif" font-size="10.00">::DeOptimizer::doOptimize</text>
</a>
</g>
</g>
<!-- Node2&#45;&gt;Node3 -->
<g id="edge2_Node000002_Node000003" class="edge">
<title>Node2&#45;&gt;Node3</title>
<g id="a_edge2_Node000002_Node000003"><a xlink:title=" ">
<path fill="none" stroke="#63b8ff" d="M652.85,-140.28C644.72,-140.53 636.56,-140.77 628.75,-141 562.98,-142.92 546.54,-143.84 480.75,-145 420.9,-146.06 352.73,-146.56 303.96,-146.79"/>
<polygon fill="#63b8ff" stroke="#63b8ff" points="652.88,-143.78 662.76,-139.97 652.66,-136.78 652.88,-143.78"/>
</a>
</g>
</g>
<!-- Node4 -->
<g id="Node000004" class="node">
<title>Node4</title>
<g id="a_Node000004"><a xlink:href="classdifferential__evolution_1_1_de_optimizer.html#a9f8d2654bcad80c32d9358faa62cebd9" target="_top" xlink:title=" ">
<polygon fill="white" stroke="#666666" points="628.75,-132 516.75,-132 516.75,-100 628.75,-100 628.75,-132"/>
<text text-anchor="start" x="524.75" y="-118.5" font-family="Helvetica,sans-Serif" font-size="10.00">differential_evolution</text>
<text text-anchor="middle" x="572.75" y="-106.5" font-family="Helvetica,sans-Serif" font-size="10.00">::DeOptimizer::modify</text>
</a>
</g>
</g>
<!-- Node2&#45;&gt;Node4 -->
<g id="edge3_Node000002_Node000004" class="edge">
<title>Node2&#45;&gt;Node4</title>
<g id="a_edge3_Node000002_Node000004"><a xlink:title=" ">
<path fill="none" stroke="#63b8ff" d="M653.23,-127.59C645.16,-126.41 637.02,-125.23 629.2,-124.09"/>
<polygon fill="#63b8ff" stroke="#63b8ff" points="652.66,-131.04 663.06,-129.02 653.67,-124.12 652.66,-131.04"/>
</a>
</g>
</g>
<!-- Node4&#45;&gt;Node3 -->
<g id="edge4_Node000004_Node000003" class="edge">
<title>Node4&#45;&gt;Node3</title>
<g id="a_edge4_Node000004_Node000003"><a xlink:title=" ">
<path fill="none" stroke="#63b8ff" d="M505,-122.21C446.53,-127.64 362.07,-135.5 303.96,-140.9"/>
<polygon fill="#63b8ff" stroke="#63b8ff" points="505.19,-125.7 514.82,-121.29 504.54,-118.73 505.19,-125.7"/>
</a>
</g>
</g>
<!-- Node5 -->
<g id="Node000005" class="node">
<title>Node5</title>
<g id="a_Node000005"><a xlink:href="classdifferential__evolution_1_1_de_optimizer.html#aff18de19791b75f799d4aa5e9c60b5fa" target="_top" xlink:title=" ">
<polygon fill="white" stroke="#666666" points="480.75,-113 339.5,-113 339.5,-81 480.75,-81 480.75,-113"/>
<text text-anchor="start" x="347.5" y="-99.5" font-family="Helvetica,sans-Serif" font-size="10.00">differential_evolution</text>
<text text-anchor="middle" x="410.12" y="-87.5" font-family="Helvetica,sans-Serif" font-size="10.00">::DeOptimizer::next_improve</text>
</a>
</g>
</g>
<!-- Node4&#45;&gt;Node5 -->
<g id="edge5_Node000004_Node000005" class="edge">
<title>Node4&#45;&gt;Node5</title>
<g id="a_edge5_Node000004_Node000005"><a xlink:title=" ">
<path fill="none" stroke="#63b8ff" d="M505.29,-108.14C497.26,-107.19 489.05,-106.22 480.98,-105.26"/>
<polygon fill="#63b8ff" stroke="#63b8ff" points="504.63,-111.58 514.97,-109.28 505.45,-104.63 504.63,-111.58"/>
</a>
</g>
</g>
<!-- Node9 -->
<g id="Node000009" class="node">
<title>Node9</title>
<g id="a_Node000009"><a xlink:href="classdifferential__evolution_1_1_de_optimizer.html#a8babf7e82f12af63653d0d26df11e8b0" target="_top" xlink:title=" ">
<polygon fill="white" stroke="#666666" points="464.25,-63 356,-63 356,-31 464.25,-31 464.25,-63"/>
<text text-anchor="start" x="364" y="-49.5" font-family="Helvetica,sans-Serif" font-size="10.00">differential_evolution</text>
<text text-anchor="middle" x="410.12" y="-37.5" font-family="Helvetica,sans-Serif" font-size="10.00">::DeOptimizer::nextX</text>
</a>
</g>
</g>
<!-- Node4&#45;&gt;Node9 -->
<g id="edge10_Node000004_Node000009" class="edge">
<title>Node4&#45;&gt;Node9</title>
<g id="a_edge10_Node000004_Node000009"><a xlink:title=" ">
<path fill="none" stroke="#63b8ff" d="M529.93,-94.63C514.62,-87.12 497.05,-78.85 480.75,-72 473.76,-69.07 466.3,-66.16 458.95,-63.42"/>
<polygon fill="#63b8ff" stroke="#63b8ff" points="528.25,-97.71 538.76,-99.02 531.36,-91.44 528.25,-97.71"/>
</a>
</g>
</g>
<!-- Node5&#45;&gt;Node3 -->
<g id="edge6_Node000005_Node000003" class="edge">
<title>Node5&#45;&gt;Node3</title>
<g id="a_edge6_Node000005_Node000003"><a xlink:title=" ">
<path fill="none" stroke="#63b8ff" d="M342.46,-116.52C326.67,-121.15 309.98,-126.03 294.7,-130.51"/>
<polygon fill="#63b8ff" stroke="#63b8ff" points="343.15,-119.97 351.76,-113.8 341.18,-113.25 343.15,-119.97"/>
</a>
</g>
</g>
<!-- Node6 -->
<g id="Node000006" class="node">
<title>Node6</title>
<g id="a_Node000006"><a xlink:href="classdifferential__evolution_1_1_de_optimizer.html#accf9be34ac5d30b9a2df15dba24f4dce" target="_top" xlink:title=" ">
<polygon fill="white" stroke="#666666" points="289.62,-113 185.12,-113 185.12,-81 289.62,-81 289.62,-113"/>
<text text-anchor="start" x="193.12" y="-99.5" font-family="Helvetica,sans-Serif" font-size="10.00">differential_evolution</text>
<text text-anchor="middle" x="237.38" y="-87.5" font-family="Helvetica,sans-Serif" font-size="10.00">::DeOptimizer::tell</text>
</a>
</g>
</g>
<!-- Node5&#45;&gt;Node6 -->
<g id="edge7_Node000005_Node000006" class="edge">
<title>Node5&#45;&gt;Node6</title>
<g id="a_edge7_Node000005_Node000006"><a xlink:title=" ">
<path fill="none" stroke="#63b8ff" d="M327.88,-97C314.96,-97 301.9,-97 289.91,-97"/>
<polygon fill="#63b8ff" stroke="#63b8ff" points="327.67,-100.5 337.67,-97 327.67,-93.5 327.67,-100.5"/>
</a>
</g>
</g>
<!-- Node7 -->
<g id="Node000007" class="node">
<title>Node7</title>
<g id="a_Node000007"><a xlink:href="classdifferential__evolution_1_1_de_optimizer.html#a0af3433f0f60f99f8a9fbf9f10f36360" target="_top" xlink:title=" ">
<polygon fill="white" stroke="#666666" points="135.25,-94 0,-94 0,-50 135.25,-50 135.25,-94"/>
<text text-anchor="start" x="8" y="-80.5" font-family="Helvetica,sans-Serif" font-size="10.00">differential_evolution</text>
<text text-anchor="start" x="8" y="-68.5" font-family="Helvetica,sans-Serif" font-size="10.00">::DeOptimizer::do_optimize</text>
<text text-anchor="middle" x="67.62" y="-56.5" font-family="Helvetica,sans-Serif" font-size="10.00">_delayed_update</text>
</a>
</g>
</g>
<!-- Node6&#45;&gt;Node7 -->
<g id="edge8_Node000006_Node000007" class="edge">
<title>Node6&#45;&gt;Node7</title>
<g id="a_edge8_Node000006_Node000007"><a xlink:title=" ">
<path fill="none" stroke="#63b8ff" d="M173.53,-87.63C161.15,-85.79 148.12,-83.85 135.61,-81.98"/>
<polygon fill="#63b8ff" stroke="#63b8ff" points="172.77,-91.06 183.18,-89.07 173.8,-84.14 172.77,-91.06"/>
</a>
</g>
</g>
<!-- Node8 -->
<g id="Node000008" class="node">
<title>Node8</title>
<g id="a_Node000008"><a xlink:href="classdifferential__evolution_1_1_de_optimizer.html#aa1d0f0d9ddbb192cb30b470d8c3c1af0" target="_top" xlink:title=" ">
<polygon fill="white" stroke="#666666" points="121,-144 14.25,-144 14.25,-112 121,-112 121,-144"/>
<text text-anchor="start" x="22.25" y="-130.5" font-family="Helvetica,sans-Serif" font-size="10.00">differential_evolution</text>
<text text-anchor="middle" x="67.62" y="-118.5" font-family="Helvetica,sans-Serif" font-size="10.00">::DeOptimizer::tellAll</text>
</a>
</g>
</g>
<!-- Node6&#45;&gt;Node8 -->
<g id="edge9_Node000006_Node000008" class="edge">
<title>Node6&#45;&gt;Node8</title>
<g id="a_edge9_Node000006_Node000008"><a xlink:title=" ">
<path fill="none" stroke="#63b8ff" d="M173.58,-108.6C156.37,-111.78 137.89,-115.2 121.31,-118.26"/>
<polygon fill="#63b8ff" stroke="#63b8ff" points="173.99,-112.09 183.19,-106.83 172.72,-105.2 173.99,-112.09"/>
</a>
</g>
</g>
<!-- Node10 -->
<g id="Node000010" class="node">
<title>Node10</title>
<g id="a_Node000010"><a xlink:href="classdifferential__evolution_1_1_de_optimizer.html#af7935d4c0d376a000470f2b943aadbd6" target="_top" xlink:title=" ">
<polygon fill="white" stroke="#666666" points="289.62,-63 185.12,-63 185.12,-31 289.62,-31 289.62,-63"/>
<text text-anchor="start" x="193.12" y="-49.5" font-family="Helvetica,sans-Serif" font-size="10.00">differential_evolution</text>
<text text-anchor="middle" x="237.38" y="-37.5" font-family="Helvetica,sans-Serif" font-size="10.00">::DeOptimizer::ask</text>
</a>
</g>
</g>
<!-- Node9&#45;&gt;Node10 -->
<g id="edge11_Node000009_Node000010" class="edge">
<title>Node9&#45;&gt;Node10</title>
<g id="a_edge11_Node000009_Node000010"><a xlink:title=" ">
<path fill="none" stroke="#63b8ff" d="M344.29,-47C326.33,-47 307.08,-47 289.99,-47"/>
<polygon fill="#63b8ff" stroke="#63b8ff" points="344.05,-50.5 354.05,-47 344.05,-43.5 344.05,-50.5"/>
</a>
</g>
</g>
<!-- Node10&#45;&gt;Node7 -->
<g id="edge13_Node000010_Node000007" class="edge">
<title>Node10&#45;&gt;Node7</title>
<g id="a_edge13_Node000010_Node000007"><a xlink:title=" ">
<path fill="none" stroke="#63b8ff" d="M173.53,-56.37C161.15,-58.21 148.12,-60.15 135.61,-62.02"/>
<polygon fill="#63b8ff" stroke="#63b8ff" points="173.8,-59.86 183.18,-54.93 172.77,-52.94 173.8,-59.86"/>
</a>
</g>
</g>
<!-- Node11 -->
<g id="Node000011" class="node">
<title>Node11</title>
<g id="a_Node000011"><a xlink:href="classdifferential__evolution_1_1_de_optimizer.html#a0dcd44cbcddd9e0dde1ccd2ea5fbf96d" target="_top" xlink:title=" ">
<polygon fill="white" stroke="#666666" points="122.5,-32 12.75,-32 12.75,0 122.5,0 122.5,-32"/>
<text text-anchor="start" x="20.75" y="-18.5" font-family="Helvetica,sans-Serif" font-size="10.00">differential_evolution</text>
<text text-anchor="middle" x="67.62" y="-6.5" font-family="Helvetica,sans-Serif" font-size="10.00">::DeOptimizer::askAll</text>
</a>
</g>
</g>
<!-- Node10&#45;&gt;Node11 -->
<g id="edge12_Node000010_Node000011" class="edge">
<title>Node10&#45;&gt;Node11</title>
<g id="a_edge12_Node000010_Node000011"><a xlink:title=" ">
<path fill="none" stroke="#63b8ff" d="M173.37,-35.36C156.72,-32.28 138.9,-28.99 122.77,-26.01"/>
<polygon fill="#63b8ff" stroke="#63b8ff" points="172.72,-38.8 183.19,-37.17 173.99,-31.91 172.72,-38.8"/>
</a>
</g>
</g>
</g>
</svg>
