<?xml version="1.0" encoding="UTF-8" standalone="no"?>
<!DOCTYPE svg PUBLIC "-//W3C//DTD SVG 1.1//EN"
 "http://www.w3.org/Graphics/SVG/1.1/DTD/svg11.dtd">
<!-- Generated by graphviz version 12.2.1 (20241206.2353)
 -->
<!-- Title: _fcmaescpp/include/evaluator.h Pages: 1 -->
<!--zoomable 96 -->

<svg id="main" version="1.1" xmlns="http://www.w3.org/2000/svg" xmlns:xlink="http://www.w3.org/1999/xlink" xml:space="preserve" onload="init(evt)">

<style type="text/css"><![CDATA[
.node, .edge {opacity: 0.7;}
.node.selected, .edge.selected {opacity: 1;}
.edge:hover path { stroke: red; }
.edge:hover polygon { stroke: red; fill: red; }
]]></style>

<defs>
  <circle id="rim" cx="0" cy="0" r="7"/>
  <circle id="rim2" cx="0" cy="0" r="3.5"/>
  <g id="zoomPlus">
    <use xlink:href="#rim" fill="#404040"><set attributeName="fill" to="#808080" begin="zoomplus.mouseover" end="zoomplus.mouseout"/></use>
    <path d="M-4,0h8M0,-4v8" fill="none" stroke="white" stroke-width="1.5" pointer-events="none"/>
  </g>
  <g id="zoomMin">
    <use xlink:href="#rim" fill="#404040"><set attributeName="fill" to="#808080" begin="zoomminus.mouseover" end="zoomminus.mouseout"/></use>
    <path d="M-4,0h8" fill="none" stroke="white" stroke-width="1.5" pointer-events="none"/>
  </g>
  <g id="arrowUp" transform="translate(30 24)">
    <use xlink:href="#rim"/>
    <path pointer-events="none" fill="none" stroke="white" stroke-width="1.5" d="M0,-3.0v7 M-2.5,-0.5L0,-3.0L2.5,-0.5"/>
  </g>
  <g id="arrowRight" transform="rotate(90) translate(36 -43)">
    <use xlink:href="#rim"/>
    <path pointer-events="none" fill="none" stroke="white" stroke-width="1.5" d="M0,-3.0v7 M-2.5,-0.5L0,-3.0L2.5,-0.5"/>
  </g>
  <g id="arrowDown" transform="rotate(180) translate(-30 -48)">
    <use xlink:href="#rim"/>
    <path pointer-events="none" fill="none" stroke="white" stroke-width="1.5" d="M0,-3.0v7 M-2.5,-0.5L0,-3.0L2.5,-0.5"/>
  </g>
  <g id="arrowLeft" transform="rotate(270) translate(-36 17)">
    <use xlink:href="#rim"/>
    <path pointer-events="none" fill="none" stroke="white" stroke-width="1.5" d="M0,-3.0v7 M-2.5,-0.5L0,-3.0L2.5,-0.5"/>
  </g>
  <g id="resetDef">
    <use xlink:href="#rim2" fill="#404040"><set attributeName="fill" to="#808080" begin="reset.mouseover" end="reset.mouseout"/></use>
  </g>
</defs>
<script type="application/ecmascript">
var viewWidth = 944;
var viewHeight = 96;
var sectionId = 'dynsection-1';
</script>
<script type="application/ecmascript" xlink:href="svg.min.js"/>
<svg id="graph" class="graph">
<g id="viewport">
<title>_fcmaescpp/include/evaluator.h</title>
<!-- Node1 -->
<g id="Node000001" class="node">
<title>Node1</title>
<g id="a_Node000001"><a xlink:title=" ">
<polygon fill="#999999" stroke="#666666" points="538.12,-88 435.12,-88 435.12,-56 538.12,-56 538.12,-88"/>
<text text-anchor="start" x="443.12" y="-74.5" font-family="Helvetica,sans-Serif" font-size="10.00">_fcmaescpp/include</text>
<text text-anchor="middle" x="486.62" y="-62.5" font-family="Helvetica,sans-Serif" font-size="10.00">/evaluator.h</text>
</a>
</g>
</g>
<!-- Node2 -->
<g id="Node000002" class="node">
<title>Node2</title>
<g id="a_Node000002"><a xlink:href="acmaesoptimizer_8cpp.html" target="_top" xlink:title=" ">
<polygon fill="white" stroke="#666666" points="165.25,-20 0,-20 0,0 165.25,0 165.25,-20"/>
<text text-anchor="middle" x="82.62" y="-6.5" font-family="Helvetica,sans-Serif" font-size="10.00">_fcmaescpp/acmaesoptimizer.cpp</text>
</a>
</g>
</g>
<!-- Node1&#45;&gt;Node2 -->
<g id="edge1_Node000001_Node000002" class="edge">
<title>Node1&#45;&gt;Node2</title>
<g id="a_edge1_Node000001_Node000002"><a xlink:title=" ">
<path fill="none" stroke="#63b8ff" d="M423.41,-61.61C347.86,-50.39 222.18,-31.73 146.39,-20.47"/>
<polygon fill="#63b8ff" stroke="#63b8ff" points="422.73,-65.05 433.14,-63.06 423.76,-58.13 422.73,-65.05"/>
</a>
</g>
</g>
<!-- Node3 -->
<g id="Node000003" class="node">
<title>Node3</title>
<g id="a_Node000003"><a xlink:href="biteoptimizer_8cpp.html" target="_top" xlink:title=" ">
<polygon fill="white" stroke="#666666" points="329.88,-20 183.38,-20 183.38,0 329.88,0 329.88,-20"/>
<text text-anchor="middle" x="256.62" y="-6.5" font-family="Helvetica,sans-Serif" font-size="10.00">_fcmaescpp/biteoptimizer.cpp</text>
</a>
</g>
</g>
<!-- Node1&#45;&gt;Node3 -->
<g id="edge2_Node000001_Node000003" class="edge">
<title>Node1&#45;&gt;Node3</title>
<g id="a_edge2_Node000001_Node000003"><a xlink:title=" ">
<path fill="none" stroke="#63b8ff" d="M423.77,-54.6C381.77,-43.65 328.01,-29.62 292.96,-20.48"/>
<polygon fill="#63b8ff" stroke="#63b8ff" points="422.7,-57.94 433.26,-57.08 424.46,-51.17 422.7,-57.94"/>
</a>
</g>
</g>
<!-- Node4 -->
<g id="Node000004" class="node">
<title>Node4</title>
<g id="a_Node000004"><a xlink:href="crfmnes_8cpp.html" target="_top" xlink:title=" ">
<polygon fill="white" stroke="#666666" points="473.75,-20 347.5,-20 347.5,0 473.75,0 473.75,-20"/>
<text text-anchor="middle" x="410.62" y="-6.5" font-family="Helvetica,sans-Serif" font-size="10.00">_fcmaescpp/crfmnes.cpp</text>
</a>
</g>
</g>
<!-- Node1&#45;&gt;Node4 -->
<g id="edge3_Node000001_Node000004" class="edge">
<title>Node1&#45;&gt;Node4</title>
<g id="a_edge3_Node000001_Node000004"><a xlink:title=" ">
<path fill="none" stroke="#63b8ff" d="M458.02,-48.42C445.73,-38.71 432.04,-27.9 422.54,-20.41"/>
<polygon fill="#63b8ff" stroke="#63b8ff" points="455.85,-51.16 465.87,-54.61 460.19,-45.67 455.85,-51.16"/>
</a>
</g>
</g>
<!-- Node5 -->
<g id="Node000005" class="node">
<title>Node5</title>
<g id="a_Node000005"><a xlink:href="deoptimizer_8cpp.html" target="_top" xlink:title=" ">
<polygon fill="white" stroke="#666666" points="633.25,-20 492,-20 492,0 633.25,0 633.25,-20"/>
<text text-anchor="middle" x="562.62" y="-6.5" font-family="Helvetica,sans-Serif" font-size="10.00">_fcmaescpp/deoptimizer.cpp</text>
</a>
</g>
</g>
<!-- Node1&#45;&gt;Node5 -->
<g id="edge4_Node000001_Node000005" class="edge">
<title>Node1&#45;&gt;Node5</title>
<g id="a_edge4_Node000001_Node000005"><a xlink:title=" ">
<path fill="none" stroke="#63b8ff" d="M515.23,-48.42C527.52,-38.71 541.21,-27.9 550.71,-20.41"/>
<polygon fill="#63b8ff" stroke="#63b8ff" points="513.06,-45.67 507.38,-54.61 517.4,-51.16 513.06,-45.67"/>
</a>
</g>
</g>
<!-- Node6 -->
<g id="Node000006" class="node">
<title>Node6</title>
<g id="a_Node000006"><a xlink:href="modeoptimizer_8cpp.html" target="_top" xlink:title=" ">
<polygon fill="white" stroke="#666666" points="806,-20 651.25,-20 651.25,0 806,0 806,-20"/>
<text text-anchor="middle" x="728.62" y="-6.5" font-family="Helvetica,sans-Serif" font-size="10.00">_fcmaescpp/modeoptimizer.cpp</text>
</a>
</g>
</g>
<!-- Node1&#45;&gt;Node6 -->
<g id="edge5_Node000001_Node000006" class="edge">
<title>Node1&#45;&gt;Node6</title>
<g id="a_edge5_Node000001_Node000006"><a xlink:title=" ">
<path fill="none" stroke="#63b8ff" d="M549.59,-55.39C594.31,-44.3 652.89,-29.78 690.65,-20.42"/>
<polygon fill="#63b8ff" stroke="#63b8ff" points="548.87,-51.96 540.01,-57.76 550.56,-58.75 548.87,-51.96"/>
</a>
</g>
</g>
<!-- Node7 -->
<g id="Node000007" class="node">
<title>Node7</title>
<g id="a_Node000007"><a xlink:href="pgpe_8cpp.html" target="_top" xlink:title=" ">
<polygon fill="white" stroke="#666666" points="935.62,-20 823.62,-20 823.62,0 935.62,0 935.62,-20"/>
<text text-anchor="middle" x="879.62" y="-6.5" font-family="Helvetica,sans-Serif" font-size="10.00">_fcmaescpp/pgpe.cpp</text>
</a>
</g>
</g>
<!-- Node1&#45;&gt;Node7 -->
<g id="edge6_Node000001_Node000007" class="edge">
<title>Node1&#45;&gt;Node7</title>
<g id="a_edge6_Node000001_Node000007"><a xlink:title=" ">
<path fill="none" stroke="#63b8ff" d="M549.64,-61.38C625.22,-49.84 750.78,-30.67 823.28,-19.6"/>
<polygon fill="#63b8ff" stroke="#63b8ff" points="549.26,-57.9 539.9,-62.87 550.32,-64.82 549.26,-57.9"/>
</a>
</g>
</g>
</g>
</svg>

<g id="navigator" transform="translate(0 0)" fill="#404254">
  <rect fill="#f2f5e9" fill-opacity="0.5" stroke="#606060" stroke-width=".5" x="0" y="0" width="60" height="60"/>
  <use id="zoomplus" xlink:href="#zoomPlus" x="17" y="9" onmousedown="handleZoom(evt,'in')"/>
  <use id="zoomminus" xlink:href="#zoomMin" x="42" y="9" onmousedown="handleZoom(evt,'out')"/>
  <use id="reset" xlink:href="#resetDef" x="30" y="36" onmousedown="handleReset()"/>
   <use id="arrowup" xlink:href="#arrowUp" x="0" y="0" onmousedown="handlePan(0,-1)"/>
  <use id="arrowright" xlink:href="#arrowRight" x="0" y="0" onmousedown="handlePan(1,0)"/>
  <use id="arrowdown" xlink:href="#arrowDown" x="0" y="0" onmousedown="handlePan(0,1)"/>
  <use id="arrowleft" xlink:href="#arrowLeft" x="0" y="0" onmousedown="handlePan(-1,0)"/>
</g>
<svg viewBox="0 0 15 15" width="100%" height="30px" preserveAspectRatio="xMaxYMin meet">
 <g id="arrow_out" transform="scale(0.3 0.3)">
  <a xlink:href="evaluator_8h__dep__incl_org.svg" target="_base">
   <rect id="button" ry="5" rx="5" y="6" x="6" height="38" width="38"
        fill="#f2f5e9" fill-opacity="0.5" stroke="#606060" stroke-width="1.0"/>
   <path id="arrow"
     d="M 11.500037,31.436501 C 11.940474,20.09759 22.043105,11.32322 32.158766,21.979434 L 37.068811,17.246167 C 37.068811,17.246167 37.088388,32 37.088388,32 L 22.160133,31.978069 C 22.160133,31.978069 26.997745,27.140456 26.997745,27.140456 C 18.528582,18.264221 13.291696,25.230495 11.500037,31.436501 z"
     style="fill:#404040;"/>
  </a>
 </g>
</svg>

<style type='text/css'>
<![CDATA[
[data-mouse-over-selected='false'] { opacity: 0.7; }
[data-mouse-over-selected='true']  { opacity: 1.0; }
]]>
</style>
<script type="application/ecmascript"><![CDATA[
document.addEventListener('DOMContentLoaded', (event) => {
  highlightEdges();
  highlightAdjacentNodes();
});
]]></script>
</svg>
