<?xml version="1.0" encoding="UTF-8" standalone="no"?>
<!DOCTYPE svg PUBLIC "-//W3C//DTD SVG 1.1//EN"
 "http://www.w3.org/Graphics/SVG/1.1/DTD/svg11.dtd">
<!-- Generated by graphviz version 12.2.1 (20241206.2353)
 -->
<!-- Title: Graphical Class Hierarchy Pages: 1 -->
<svg width="768pt" height="271pt"
 viewBox="0.00 0.00 768.25 271.00" xmlns="http://www.w3.org/2000/svg" xmlns:xlink="http://www.w3.org/1999/xlink">
<g id="graph0" class="graph" transform="scale(1 1) rotate(0) translate(4 267)">
<title>Graphical Class Hierarchy</title>
<!-- Node0 -->
<g id="Node000000" class="node">
<title>Node0</title>
<g id="a_Node000000"><a xlink:href="class_c_bite_opt_interface.html" target="_top" xlink:title=" ">
<polygon fill="white" stroke="#666666" points="251.38,-149 156.62,-149 156.62,-129 251.38,-129 251.38,-149"/>
<text text-anchor="middle" x="204" y="-135.5" font-family="Helvetica,sans-Serif" font-size="10.00">CBiteOptInterface</text>
</a>
</g>
</g>
<!-- Node1 -->
<g id="Node000001" class="node">
<title>Node1</title>
<g id="a_Node000001"><a xlink:href="class_c_bite_opt_base.html" target="_top" xlink:title=" ">
<polygon fill="white" stroke="#666666" points="429,-225 302.75,-225 302.75,-205 429,-205 429,-225"/>
<text text-anchor="middle" x="365.88" y="-211.5" font-family="Helvetica,sans-Serif" font-size="10.00">CBiteOptBase&lt; int64_t &gt;</text>
</a>
</g>
</g>
<!-- Node0&#45;&gt;Node1 -->
<g id="edge1_Node000000_Node000001" class="edge">
<title>Node0&#45;&gt;Node1</title>
<g id="a_edge1_Node000000_Node000001"><a xlink:title=" ">
<path fill="none" stroke="#63b8ff" d="M254.3,-153.05C258.56,-154.6 262.76,-156.25 266.75,-158 297.43,-171.42 330.64,-192.15 349.48,-204.57"/>
<polygon fill="#63b8ff" stroke="#63b8ff" points="255.73,-149.84 245.14,-149.92 253.46,-156.46 255.73,-149.84"/>
</a>
</g>
</g>
<!-- Node7 -->
<g id="Node000007" class="node">
<title>Node7</title>
<g id="a_Node000007"><a xlink:href="class_c_bite_opt_base.html" target="_top" xlink:title=" ">
<polygon fill="white" stroke="#666666" points="428.62,-111 303.12,-111 303.12,-91 428.62,-91 428.62,-111"/>
<text text-anchor="middle" x="365.88" y="-97.5" font-family="Helvetica,sans-Serif" font-size="10.00">CBiteOptBase&lt; double &gt;</text>
</a>
</g>
</g>
<!-- Node0&#45;&gt;Node7 -->
<g id="edge5_Node000000_Node000007" class="edge">
<title>Node0&#45;&gt;Node7</title>
<g id="a_edge5_Node000000_Node000007"><a xlink:title=" ">
<path fill="none" stroke="#63b8ff" d="M260.18,-125.88C280.03,-121.17 302.14,-115.91 320.91,-111.45"/>
<polygon fill="#63b8ff" stroke="#63b8ff" points="259.5,-122.45 250.58,-128.17 261.12,-129.26 259.5,-122.45"/>
</a>
</g>
</g>
<!-- Node16 -->
<g id="Node000016" class="node">
<title>Node16</title>
<g id="a_Node000016"><a xlink:href="class_c_bite_opt_base.html" target="_top" xlink:title=" ">
<polygon fill="white" stroke="#666666" points="426.38,-73 305.38,-73 305.38,-53 426.38,-53 426.38,-73"/>
<text text-anchor="middle" x="365.88" y="-59.5" font-family="Helvetica,sans-Serif" font-size="10.00">CBiteOptBase&lt; ptype &gt;</text>
</a>
</g>
</g>
<!-- Node0&#45;&gt;Node16 -->
<g id="edge11_Node000000_Node000016" class="edge">
<title>Node0&#45;&gt;Node16</title>
<g id="a_edge11_Node000000_Node000016"><a xlink:title=" ">
<path fill="none" stroke="#63b8ff" d="M259.57,-123.97C262.05,-122.75 264.46,-121.42 266.75,-120 286.52,-107.73 282.97,-94.25 302.75,-82 308.22,-78.61 314.33,-75.79 320.53,-73.46"/>
<polygon fill="#63b8ff" stroke="#63b8ff" points="258.26,-120.73 250.47,-127.92 261.04,-127.15 258.26,-120.73"/>
</a>
</g>
</g>
<!-- Node19 -->
<g id="Node000019" class="node">
<title>Node19</title>
<g id="a_Node000019"><a xlink:href="class_c_bite_opt_deep.html" target="_top" xlink:title=" ">
<polygon fill="white" stroke="#666666" points="405.75,-149 326,-149 326,-129 405.75,-129 405.75,-149"/>
<text text-anchor="middle" x="365.88" y="-135.5" font-family="Helvetica,sans-Serif" font-size="10.00">CBiteOptDeep</text>
</a>
</g>
</g>
<!-- Node0&#45;&gt;Node19 -->
<g id="edge12_Node000000_Node000019" class="edge">
<title>Node0&#45;&gt;Node19</title>
<g id="a_edge12_Node000000_Node000019"><a xlink:title=" ">
<path fill="none" stroke="#63b8ff" d="M262.99,-139C283.84,-139 306.84,-139 325.71,-139"/>
<polygon fill="#63b8ff" stroke="#63b8ff" points="263.19,-135.5 253.19,-139 263.19,-142.5 263.19,-135.5"/>
</a>
</g>
</g>
<!-- Node2 -->
<g id="Node000002" class="node">
<title>Node2</title>
<g id="a_Node000002"><a xlink:href="class_c_bite_opt.html" target="_top" xlink:title=" ">
<polygon fill="white" stroke="#666666" points="548.5,-225 492,-225 492,-205 548.5,-205 548.5,-225"/>
<text text-anchor="middle" x="520.25" y="-211.5" font-family="Helvetica,sans-Serif" font-size="10.00">CBiteOpt</text>
</a>
</g>
</g>
<!-- Node1&#45;&gt;Node2 -->
<g id="edge2_Node000001_Node000002" class="edge">
<title>Node1&#45;&gt;Node2</title>
<g id="a_edge2_Node000001_Node000002"><a xlink:title=" ">
<path fill="none" stroke="#63b8ff" d="M440.58,-215C458.81,-215 477.22,-215 491.65,-215"/>
<polygon fill="#63b8ff" stroke="#63b8ff" points="440.8,-211.5 430.8,-215 440.8,-218.5 440.8,-211.5"/>
</a>
</g>
</g>
<!-- Node4 -->
<g id="Node000004" class="node">
<title>Node4</title>
<g id="a_Node000004"><a xlink:href="class_c_d_e_opt.html" target="_top" xlink:title=" ">
<polygon fill="white" stroke="#666666" points="547,-263 493.5,-263 493.5,-243 547,-243 547,-263"/>
<text text-anchor="middle" x="520.25" y="-249.5" font-family="Helvetica,sans-Serif" font-size="10.00">CDEOpt</text>
</a>
</g>
</g>
<!-- Node1&#45;&gt;Node4 -->
<g id="edge4_Node000001_Node000004" class="edge">
<title>Node1&#45;&gt;Node4</title>
<g id="a_edge4_Node000001_Node000004"><a xlink:title=" ">
<path fill="none" stroke="#63b8ff" d="M419.99,-228.25C444.75,-234.42 473.09,-241.49 493.13,-246.49"/>
<polygon fill="#63b8ff" stroke="#63b8ff" points="420.93,-224.87 410.38,-225.85 419.24,-231.67 420.93,-224.87"/>
</a>
</g>
</g>
<!-- Node3 -->
<g id="Node000003" class="node">
<title>Node3</title>
<g id="a_Node000003"><a xlink:href="class_c_bite_opt_deep_1_1_c_bite_opt_wrap.html" target="_top" xlink:title=" ">
<polygon fill="white" stroke="#666666" points="760.25,-225 611.5,-225 611.5,-205 760.25,-205 760.25,-225"/>
<text text-anchor="middle" x="685.88" y="-211.5" font-family="Helvetica,sans-Serif" font-size="10.00">CBiteOptDeep::CBiteOptWrap</text>
</a>
</g>
</g>
<!-- Node2&#45;&gt;Node3 -->
<g id="edge3_Node000002_Node000003" class="edge">
<title>Node2&#45;&gt;Node3</title>
<g id="a_edge3_Node000002_Node000003"><a xlink:title=" ">
<path fill="none" stroke="#63b8ff" d="M559.79,-215C575.17,-215 593.42,-215 611.15,-215"/>
<polygon fill="#63b8ff" stroke="#63b8ff" points="560.15,-211.5 550.15,-215 560.15,-218.5 560.15,-211.5"/>
</a>
</g>
</g>
<!-- Node8 -->
<g id="Node000008" class="node">
<title>Node8</title>
<g id="a_Node000008"><a xlink:href="class_c_n_m_seq_opt.html" target="_top" xlink:title=" ">
<polygon fill="white" stroke="#666666" points="556.38,-29 484.12,-29 484.12,-9 556.38,-9 556.38,-29"/>
<text text-anchor="middle" x="520.25" y="-15.5" font-family="Helvetica,sans-Serif" font-size="10.00">CNMSeqOpt</text>
</a>
</g>
</g>
<!-- Node7&#45;&gt;Node8 -->
<g id="edge6_Node000007_Node000008" class="edge">
<title>Node7&#45;&gt;Node8</title>
<g id="a_edge6_Node000007_Node000008"><a xlink:title=" ">
<path fill="none" stroke="#63b8ff" d="M421.78,-85.99C424.27,-84.76 426.69,-83.43 429,-82 448.78,-69.75 446.09,-57.56 465,-44 473.01,-38.26 482.54,-33.34 491.37,-29.41"/>
<polygon fill="#63b8ff" stroke="#63b8ff" points="420.41,-82.77 412.61,-89.94 423.18,-89.2 420.41,-82.77"/>
</a>
</g>
</g>
<!-- Node10 -->
<g id="Node000010" class="node">
<title>Node10</title>
<g id="a_Node000010"><a xlink:href="class_c_s_m_a_e_s_opt.html" target="_top" xlink:title=" ">
<polygon fill="white" stroke="#666666" points="557.5,-111 483,-111 483,-91 557.5,-91 557.5,-111"/>
<text text-anchor="middle" x="520.25" y="-97.5" font-family="Helvetica,sans-Serif" font-size="10.00">CSMAESOpt</text>
</a>
</g>
</g>
<!-- Node7&#45;&gt;Node10 -->
<g id="edge8_Node000007_Node000010" class="edge">
<title>Node7&#45;&gt;Node10</title>
<g id="a_edge8_Node000007_Node000010"><a xlink:title=" ">
<path fill="none" stroke="#63b8ff" d="M440.1,-101C454.9,-101 469.85,-101 482.7,-101"/>
<polygon fill="#63b8ff" stroke="#63b8ff" points="440.37,-97.5 430.37,-101 440.37,-104.5 440.37,-97.5"/>
</a>
</g>
</g>
<!-- Node11 -->
<g id="Node000011" class="node">
<title>Node11</title>
<g id="a_Node000011"><a xlink:href="class_c_spher_opt.html" target="_top" xlink:title=" ">
<polygon fill="white" stroke="#666666" points="552.62,-73 487.88,-73 487.88,-53 552.62,-53 552.62,-73"/>
<text text-anchor="middle" x="520.25" y="-59.5" font-family="Helvetica,sans-Serif" font-size="10.00">CSpherOpt</text>
</a>
</g>
</g>
<!-- Node7&#45;&gt;Node11 -->
<g id="edge9_Node000007_Node000011" class="edge">
<title>Node7&#45;&gt;Node11</title>
<g id="a_edge9_Node000007_Node000011"><a xlink:title=" ">
<path fill="none" stroke="#63b8ff" d="M420.03,-87.74C442.53,-82.13 468,-75.78 487.5,-70.92"/>
<polygon fill="#63b8ff" stroke="#63b8ff" points="419.24,-84.33 410.38,-90.15 420.93,-91.13 419.24,-84.33"/>
</a>
</g>
</g>
<!-- Node9 -->
<g id="Node000009" class="node">
<title>Node9</title>
<g id="a_Node000009"><a xlink:href="class_c_bite_opt_1_1_c_par_opt.html" target="_top" xlink:title=" ">
<polygon fill="white" stroke="#666666" points="739.25,-32 632.5,-32 632.5,0 739.25,0 739.25,-32"/>
<text text-anchor="start" x="640.5" y="-18.5" font-family="Helvetica,sans-Serif" font-size="10.00">CBiteOpt::CParOpt&lt;</text>
<text text-anchor="middle" x="685.88" y="-6.5" font-family="Helvetica,sans-Serif" font-size="10.00"> CNMSeqOpt &gt;</text>
</a>
</g>
</g>
<!-- Node8&#45;&gt;Node9 -->
<g id="edge7_Node000008_Node000009" class="edge">
<title>Node8&#45;&gt;Node9</title>
<g id="a_edge7_Node000008_Node000009"><a xlink:title=" ">
<path fill="none" stroke="#63b8ff" d="M568.07,-18.14C588.04,-17.78 611.44,-17.35 632.03,-16.97"/>
<polygon fill="#63b8ff" stroke="#63b8ff" points="568.2,-14.64 558.27,-18.32 568.33,-21.64 568.2,-14.64"/>
</a>
</g>
</g>
<!-- Node12 -->
<g id="Node000012" class="node">
<title>Node12</title>
<g id="a_Node000012"><a xlink:href="class_c_bite_opt_1_1_c_par_opt.html" target="_top" xlink:title=" ">
<polygon fill="white" stroke="#666666" points="739.25,-82 632.5,-82 632.5,-50 739.25,-50 739.25,-82"/>
<text text-anchor="start" x="640.5" y="-68.5" font-family="Helvetica,sans-Serif" font-size="10.00">CBiteOpt::CParOpt&lt;</text>
<text text-anchor="middle" x="685.88" y="-56.5" font-family="Helvetica,sans-Serif" font-size="10.00"> CSpherOpt &gt;</text>
</a>
</g>
</g>
<!-- Node11&#45;&gt;Node12 -->
<g id="edge10_Node000011_Node000012" class="edge">
<title>Node11&#45;&gt;Node12</title>
<g id="a_edge10_Node000011_Node000012"><a xlink:title=" ">
<path fill="none" stroke="#63b8ff" d="M564.18,-63.79C585,-64.17 610.2,-64.63 632.17,-65.03"/>
<polygon fill="#63b8ff" stroke="#63b8ff" points="564.37,-60.29 554.31,-63.61 564.25,-67.29 564.37,-60.29"/>
</a>
</g>
</g>
<!-- Node20 -->
<g id="Node000020" class="node">
<title>Node20</title>
<g id="a_Node000020"><a xlink:href="class_c_bite_opt_minimize.html" target="_top" xlink:title=" ">
<polygon fill="white" stroke="#666666" points="568,-187 472.5,-187 472.5,-167 568,-167 568,-187"/>
<text text-anchor="middle" x="520.25" y="-173.5" font-family="Helvetica,sans-Serif" font-size="10.00">CBiteOptMinimize</text>
</a>
</g>
</g>
<!-- Node19&#45;&gt;Node20 -->
<g id="edge13_Node000019_Node000020" class="edge">
<title>Node19&#45;&gt;Node20</title>
<g id="a_edge13_Node000019_Node000020"><a xlink:title=" ">
<path fill="none" stroke="#63b8ff" d="M417.22,-151.56C436.65,-156.4 458.64,-161.88 477.2,-166.51"/>
<polygon fill="#63b8ff" stroke="#63b8ff" points="418.13,-148.18 407.58,-149.15 416.44,-154.97 418.13,-148.18"/>
</a>
</g>
</g>
<!-- Node21 -->
<g id="Node000021" class="node">
<title>Node21</title>
<g id="a_Node000021"><a xlink:href="classbiteopt_1_1_bite_optimizer.html" target="_top" xlink:title=" ">
<polygon fill="white" stroke="#666666" points="575.5,-149 465,-149 465,-129 575.5,-129 575.5,-149"/>
<text text-anchor="middle" x="520.25" y="-135.5" font-family="Helvetica,sans-Serif" font-size="10.00">biteopt::BiteOptimizer</text>
</a>
</g>
</g>
<!-- Node19&#45;&gt;Node21 -->
<g id="edge14_Node000019_Node000021" class="edge">
<title>Node19&#45;&gt;Node21</title>
<g id="a_edge14_Node000019_Node000021"><a xlink:title=" ">
<path fill="none" stroke="#63b8ff" d="M417.36,-139C432.52,-139 449.22,-139 464.64,-139"/>
<polygon fill="#63b8ff" stroke="#63b8ff" points="417.63,-135.5 407.63,-139 417.63,-142.5 417.63,-135.5"/>
</a>
</g>
</g>
<!-- Node18 -->
<g id="Node000018" class="node">
<title>Node18</title>
<g id="a_Node000018"><a xlink:href="class_c_bite_pop.html" target="_top" xlink:title=" ">
<polygon fill="white" stroke="#666666" points="102.62,-73 2.62,-73 2.62,-53 102.62,-53 102.62,-73"/>
<text text-anchor="middle" x="52.62" y="-59.5" font-family="Helvetica,sans-Serif" font-size="10.00">CBitePop&lt; ptype &gt;</text>
</a>
</g>
</g>
<!-- Node17 -->
<g id="Node000017" class="node">
<title>Node17</title>
<g id="a_Node000017"><a xlink:href="class_c_bite_par_pops.html" target="_top" xlink:title=" ">
<polygon fill="white" stroke="#666666" points="264.12,-73 143.88,-73 143.88,-53 264.12,-53 264.12,-73"/>
<text text-anchor="middle" x="204" y="-59.5" font-family="Helvetica,sans-Serif" font-size="10.00">CBiteParPops&lt; ptype &gt;</text>
</a>
</g>
</g>
<!-- Node18&#45;&gt;Node17 -->
<g id="edge15_Node000018_Node000017" class="edge">
<title>Node18&#45;&gt;Node17</title>
<g id="a_edge15_Node000018_Node000017"><a xlink:title=" ">
<path fill="none" stroke="#63b8ff" d="M114.16,-63C123.87,-63 133.91,-63 143.59,-63"/>
<polygon fill="#63b8ff" stroke="#63b8ff" points="114.46,-59.5 104.46,-63 114.46,-66.5 114.46,-59.5"/>
</a>
</g>
</g>
<!-- Node17&#45;&gt;Node16 -->
<g id="edge16_Node000017_Node000016" class="edge">
<title>Node17&#45;&gt;Node16</title>
<g id="a_edge16_Node000017_Node000016"><a xlink:title=" ">
<path fill="none" stroke="darkgreen" d="M275.85,-63C285.59,-63 295.51,-63 305.03,-63"/>
<polygon fill="darkgreen" stroke="darkgreen" points="276.05,-59.5 266.05,-63 276.05,-66.5 276.05,-59.5"/>
</a>
</g>
</g>
<!-- Node14 -->
<g id="Node000014" class="node">
<title>Node14</title>
<g id="a_Node000014"><a xlink:href="class_c_bite_pop.html" target="_top" xlink:title=" ">
<polygon fill="white" stroke="#666666" points="104.88,-149 0.38,-149 0.38,-129 104.88,-129 104.88,-149"/>
<text text-anchor="middle" x="52.62" y="-135.5" font-family="Helvetica,sans-Serif" font-size="10.00">CBitePop&lt; double &gt;</text>
</a>
</g>
</g>
<!-- Node13 -->
<g id="Node000013" class="node">
<title>Node13</title>
<g id="a_Node000013"><a xlink:href="class_c_bite_par_pops.html" target="_top" xlink:title=" ">
<polygon fill="white" stroke="#666666" points="266.38,-111 141.62,-111 141.62,-91 266.38,-91 266.38,-111"/>
<text text-anchor="middle" x="204" y="-97.5" font-family="Helvetica,sans-Serif" font-size="10.00">CBiteParPops&lt; double &gt;</text>
</a>
</g>
</g>
<!-- Node14&#45;&gt;Node13 -->
<g id="edge17_Node000014_Node000013" class="edge">
<title>Node14&#45;&gt;Node13</title>
<g id="a_edge17_Node000014_Node000013"><a xlink:title=" ">
<path fill="none" stroke="#63b8ff" d="M105.96,-125.69C124.3,-121.02 144.63,-115.85 161.92,-111.45"/>
<polygon fill="#63b8ff" stroke="#63b8ff" points="105.13,-122.29 96.3,-128.14 106.86,-129.07 105.13,-122.29"/>
</a>
</g>
</g>
<!-- Node15 -->
<g id="Node000015" class="node">
<title>Node15</title>
<g id="a_Node000015"><a xlink:href="class_c_bite_ort.html" target="_top" xlink:title=" ">
<polygon fill="white" stroke="#666666" points="231.12,-187 176.88,-187 176.88,-167 231.12,-167 231.12,-187"/>
<text text-anchor="middle" x="204" y="-173.5" font-family="Helvetica,sans-Serif" font-size="10.00">CBiteOrt</text>
</a>
</g>
</g>
<!-- Node14&#45;&gt;Node15 -->
<g id="edge19_Node000014_Node000015" class="edge">
<title>Node14&#45;&gt;Node15</title>
<g id="a_edge19_Node000014_Node000015"><a xlink:title=" ">
<path fill="none" stroke="#63b8ff" d="M105.88,-152.29C129.73,-158.36 156.96,-165.29 176.5,-170.26"/>
<polygon fill="#63b8ff" stroke="#63b8ff" points="106.86,-148.93 96.3,-149.86 105.13,-155.71 106.86,-148.93"/>
</a>
</g>
</g>
<!-- Node13&#45;&gt;Node7 -->
<g id="edge18_Node000013_Node000007" class="edge">
<title>Node13&#45;&gt;Node7</title>
<g id="a_edge18_Node000013_Node000007"><a xlink:title=" ">
<path fill="none" stroke="darkgreen" d="M278.26,-101C286.43,-101 294.69,-101 302.7,-101"/>
<polygon fill="darkgreen" stroke="darkgreen" points="278.33,-97.5 268.33,-101 278.33,-104.5 278.33,-97.5"/>
</a>
</g>
</g>
<!-- Node6 -->
<g id="Node000006" class="node">
<title>Node6</title>
<g id="a_Node000006"><a xlink:href="class_c_bite_pop.html" target="_top" xlink:title=" ">
<polygon fill="white" stroke="#666666" points="105.25,-225 0,-225 0,-205 105.25,-205 105.25,-225"/>
<text text-anchor="middle" x="52.62" y="-211.5" font-family="Helvetica,sans-Serif" font-size="10.00">CBitePop&lt; int64_t &gt;</text>
</a>
</g>
</g>
<!-- Node5 -->
<g id="Node000005" class="node">
<title>Node5</title>
<g id="a_Node000005"><a xlink:href="class_c_bite_par_pops.html" target="_top" xlink:title=" ">
<polygon fill="white" stroke="#666666" points="266.75,-225 141.25,-225 141.25,-205 266.75,-205 266.75,-225"/>
<text text-anchor="middle" x="204" y="-211.5" font-family="Helvetica,sans-Serif" font-size="10.00">CBiteParPops&lt; int64_t &gt;</text>
</a>
</g>
</g>
<!-- Node6&#45;&gt;Node5 -->
<g id="edge20_Node000006_Node000005" class="edge">
<title>Node6&#45;&gt;Node5</title>
<g id="a_edge20_Node000006_Node000005"><a xlink:title=" ">
<path fill="none" stroke="#63b8ff" d="M116.94,-215C124.9,-215 133.04,-215 140.98,-215"/>
<polygon fill="#63b8ff" stroke="#63b8ff" points="116.96,-211.5 106.96,-215 116.96,-218.5 116.96,-211.5"/>
</a>
</g>
</g>
<!-- Node5&#45;&gt;Node1 -->
<g id="edge21_Node000005_Node000001" class="edge">
<title>Node5&#45;&gt;Node1</title>
<g id="a_edge21_Node000005_Node000001"><a xlink:title=" ">
<path fill="none" stroke="darkgreen" d="M278.17,-215C286.28,-215 294.48,-215 302.44,-215"/>
<polygon fill="darkgreen" stroke="darkgreen" points="278.33,-211.5 268.33,-215 278.33,-218.5 278.33,-211.5"/>
</a>
</g>
</g>
</g>
</svg>
