<?xml version="1.0" encoding="UTF-8" standalone="no"?>
<!DOCTYPE svg PUBLIC "-//W3C//DTD SVG 1.1//EN"
 "http://www.w3.org/Graphics/SVG/1.1/DTD/svg11.dtd">
<!-- Generated by graphviz version 12.2.1 (20241206.2353)
 -->
<!-- Title: Graphical Class Hierarchy Pages: 1 -->
<svg width="341pt" height="1136pt"
 viewBox="0.00 0.00 340.75 1136.00" xmlns="http://www.w3.org/2000/svg" xmlns:xlink="http://www.w3.org/1999/xlink">
<g id="graph0" class="graph" transform="scale(1 1) rotate(0) translate(4 1132)">
<title>Graphical Class Hierarchy</title>
<!-- Node0 -->
<g id="Node000000" class="node">
<title>Node0</title>
<g id="a_Node000000"><a xlink:href="classfcmaes_1_1optimizer_1_1_optimizer.html" target="_top" xlink:title="Provides functionalities for optimization tasks.">
<polygon fill="white" stroke="#666666" points="136,-574 0,-574 0,-554 136,-554 136,-574"/>
<text text-anchor="middle" x="68" y="-560.5" font-family="Helvetica,sans-Serif" font-size="10.00">fcmaes.optimizer.Optimizer</text>
</a>
</g>
</g>
<!-- Node1 -->
<g id="Node000001" class="node">
<title>Node1</title>
<g id="a_Node000001"><a xlink:href="classexamples_1_1benchmark__gtop__pygmo_1_1_cma__pyg.html" target="_top" xlink:title="CMA_ES pagmo implementation.">
<polygon fill="white" stroke="#666666" points="312.12,-1128 192.62,-1128 192.62,-1096 312.12,-1096 312.12,-1128"/>
<text text-anchor="start" x="200.62" y="-1114.5" font-family="Helvetica,sans-Serif" font-size="10.00">examples.benchmark</text>
<text text-anchor="middle" x="252.38" y="-1102.5" font-family="Helvetica,sans-Serif" font-size="10.00">_gtop_pygmo.Cma_pyg</text>
</a>
</g>
</g>
<!-- Node0&#45;&gt;Node1 -->
<g id="edge37_Node000000_Node000001" class="edge">
<title>Node0&#45;&gt;Node1</title>
<g id="a_edge37_Node000000_Node000001"><a xlink:title=" ">
<path fill="none" stroke="#63b8ff" d="M70.38,-585.65C76.44,-674.57 103.62,-1010.6 172,-1087 177.59,-1093.24 184.72,-1097.94 192.41,-1101.47"/>
<polygon fill="#63b8ff" stroke="#63b8ff" points="73.88,-585.64 69.73,-575.9 66.9,-586.11 73.88,-585.64"/>
</a>
</g>
</g>
<!-- Node2 -->
<g id="Node000002" class="node">
<title>Node2</title>
<g id="a_Node000002"><a xlink:href="classexamples_1_1benchmark__gtop__pygmo_1_1_de__pyg.html" target="_top" xlink:title="Differential Evolution pagmo implementation.">
<polygon fill="white" stroke="#666666" points="308,-1078 196.75,-1078 196.75,-1046 308,-1046 308,-1078"/>
<text text-anchor="start" x="204.75" y="-1064.5" font-family="Helvetica,sans-Serif" font-size="10.00">examples.benchmark</text>
<text text-anchor="middle" x="252.38" y="-1052.5" font-family="Helvetica,sans-Serif" font-size="10.00">_gtop_pygmo.De_pyg</text>
</a>
</g>
</g>
<!-- Node0&#45;&gt;Node2 -->
<g id="edge38_Node000000_Node000002" class="edge">
<title>Node0&#45;&gt;Node2</title>
<g id="a_edge38_Node000000_Node000002"><a xlink:title=" ">
<path fill="none" stroke="#63b8ff" d="M70.84,-585.41C78.41,-668.56 109.67,-968.74 172,-1037 178.62,-1044.25 187.33,-1049.42 196.54,-1053.09"/>
<polygon fill="#63b8ff" stroke="#63b8ff" points="74.35,-585.35 69.98,-575.7 67.38,-585.97 74.35,-585.35"/>
</a>
</g>
</g>
<!-- Node3 -->
<g id="Node000003" class="node">
<title>Node3</title>
<g id="a_Node000003"><a xlink:href="classexamples_1_1maxcut_1_1fcmaes___s_p_s_a.html" target="_top" xlink:title=" ">
<polygon fill="white" stroke="#666666" points="332.75,-1028 172,-1028 172,-1008 332.75,-1008 332.75,-1028"/>
<text text-anchor="middle" x="252.38" y="-1014.5" font-family="Helvetica,sans-Serif" font-size="10.00">examples.maxcut.fcmaes_SPSA</text>
</a>
</g>
</g>
<!-- Node0&#45;&gt;Node3 -->
<g id="edge39_Node000000_Node000003" class="edge">
<title>Node0&#45;&gt;Node3</title>
<g id="a_edge39_Node000000_Node000003"><a xlink:title=" ">
<path fill="none" stroke="#63b8ff" d="M71.15,-585.57C79.47,-664.91 112.16,-939.02 172,-999 175.4,-1002.41 179.3,-1005.25 183.5,-1007.61"/>
<polygon fill="#63b8ff" stroke="#63b8ff" points="74.64,-585.3 70.14,-575.71 67.67,-586.01 74.64,-585.3"/>
</a>
</g>
</g>
<!-- Node4 -->
<g id="Node000004" class="node">
<title>Node4</title>
<g id="a_Node000004"><a xlink:href="classfcmaes_1_1optimizer_1_1_basin__hopping.html" target="_top" xlink:title="Optimization class implementing the basin hopping algorithm from SciPy.">
<polygon fill="white" stroke="#666666" points="311.75,-990 193,-990 193,-958 311.75,-958 311.75,-990"/>
<text text-anchor="start" x="201" y="-976.5" font-family="Helvetica,sans-Serif" font-size="10.00">fcmaes.optimizer.Basin</text>
<text text-anchor="middle" x="252.38" y="-964.5" font-family="Helvetica,sans-Serif" font-size="10.00">_hopping</text>
</a>
</g>
</g>
<!-- Node0&#45;&gt;Node4 -->
<g id="edge40_Node000000_Node000004" class="edge">
<title>Node0&#45;&gt;Node4</title>
<g id="a_edge40_Node000000_Node000004"><a xlink:title=" ">
<path fill="none" stroke="#63b8ff" d="M72.04,-585.76C82.68,-659.01 120.43,-895.13 172,-949 177.79,-955.05 185.04,-959.65 192.78,-963.13"/>
<polygon fill="#63b8ff" stroke="#63b8ff" points="75.51,-585.3 70.63,-575.9 68.58,-586.29 75.51,-585.3"/>
</a>
</g>
</g>
<!-- Node5 -->
<g id="Node000005" class="node">
<title>Node5</title>
<g id="a_Node000005"><a xlink:href="classfcmaes_1_1optimizer_1_1_bite__cpp.html" target="_top" xlink:title=" ">
<polygon fill="white" stroke="#666666" points="318.5,-940 186.25,-940 186.25,-920 318.5,-920 318.5,-940"/>
<text text-anchor="middle" x="252.38" y="-926.5" font-family="Helvetica,sans-Serif" font-size="10.00">fcmaes.optimizer.Bite_cpp</text>
</a>
</g>
</g>
<!-- Node0&#45;&gt;Node5 -->
<g id="edge41_Node000000_Node000005" class="edge">
<title>Node0&#45;&gt;Node5</title>
<g id="a_edge41_Node000000_Node000005"><a xlink:title=" ">
<path fill="none" stroke="#63b8ff" d="M68.5,-585.55C68.34,-646.33 76.62,-820.6 172,-911 176.11,-914.9 180.88,-918.04 185.99,-920.57"/>
<polygon fill="#63b8ff" stroke="#63b8ff" points="72,-585.93 68.62,-575.88 65,-585.84 72,-585.93"/>
</a>
</g>
</g>
<!-- Node6 -->
<g id="Node000006" class="node">
<title>Node6</title>
<g id="a_Node000006"><a xlink:href="classfcmaes_1_1optimizer_1_1_choice.html" target="_top" xlink:title="A class representing a choice&#45;based optimizer.">
<polygon fill="white" stroke="#666666" points="314.75,-902 190,-902 190,-882 314.75,-882 314.75,-902"/>
<text text-anchor="middle" x="252.38" y="-888.5" font-family="Helvetica,sans-Serif" font-size="10.00">fcmaes.optimizer.Choice</text>
</a>
</g>
</g>
<!-- Node0&#45;&gt;Node6 -->
<g id="edge42_Node000000_Node000006" class="edge">
<title>Node0&#45;&gt;Node6</title>
<g id="a_edge42_Node000000_Node000006"><a xlink:title=" ">
<path fill="none" stroke="#63b8ff" d="M69.43,-585.78C71.77,-642.23 86.15,-794.3 172,-873 177.12,-877.69 183.18,-881.28 189.65,-884.02"/>
<polygon fill="#63b8ff" stroke="#63b8ff" points="72.93,-585.81 69.12,-575.93 65.93,-586.03 72.93,-585.81"/>
</a>
</g>
</g>
<!-- Node7 -->
<g id="Node000007" class="node">
<title>Node7</title>
<g id="a_Node000007"><a xlink:href="classfcmaes_1_1optimizer_1_1_cma__ask__tell.html" target="_top" xlink:title="CMA&#45;ES Ask&#45;Tell based optimizer.">
<polygon fill="white" stroke="#666666" points="309.88,-864 194.88,-864 194.88,-832 309.88,-832 309.88,-864"/>
<text text-anchor="start" x="202.88" y="-850.5" font-family="Helvetica,sans-Serif" font-size="10.00">fcmaes.optimizer.Cma</text>
<text text-anchor="middle" x="252.38" y="-838.5" font-family="Helvetica,sans-Serif" font-size="10.00">_ask_tell</text>
</a>
</g>
</g>
<!-- Node0&#45;&gt;Node7 -->
<g id="edge43_Node000000_Node000007" class="edge">
<title>Node0&#45;&gt;Node7</title>
<g id="a_edge43_Node000000_Node000007"><a xlink:title=" ">
<path fill="none" stroke="#63b8ff" d="M71.35,-585.56C77.89,-634.88 100.75,-756.79 172,-823 178.46,-829 186.34,-833.56 194.61,-837.02"/>
<polygon fill="#63b8ff" stroke="#63b8ff" points="74.86,-585.42 70.18,-575.91 67.91,-586.26 74.86,-585.42"/>
</a>
</g>
</g>
<!-- Node8 -->
<g id="Node000008" class="node">
<title>Node8</title>
<g id="a_Node000008"><a xlink:href="classfcmaes_1_1optimizer_1_1_cma__awm.html" target="_top" xlink:title=" ">
<polygon fill="white" stroke="#666666" points="323,-814 181.75,-814 181.75,-794 323,-794 323,-814"/>
<text text-anchor="middle" x="252.38" y="-800.5" font-family="Helvetica,sans-Serif" font-size="10.00">fcmaes.optimizer.Cma_awm</text>
</a>
</g>
</g>
<!-- Node0&#45;&gt;Node8 -->
<g id="edge44_Node000000_Node000008" class="edge">
<title>Node0&#45;&gt;Node8</title>
<g id="a_edge44_Node000000_Node000008"><a xlink:title=" ">
<path fill="none" stroke="#63b8ff" d="M72.6,-585.39C81.23,-629.8 107.41,-732.25 172,-785 176.17,-788.41 180.85,-791.22 185.8,-793.54"/>
<polygon fill="#63b8ff" stroke="#63b8ff" points="76.08,-584.96 70.84,-575.75 69.19,-586.22 76.08,-584.96"/>
</a>
</g>
</g>
<!-- Node9 -->
<g id="Node000009" class="node">
<title>Node9</title>
<g id="a_Node000009"><a xlink:href="classfcmaes_1_1optimizer_1_1_cma__cpp.html" target="_top" xlink:title="This class implements the CMA&#45;ES optimization algorithm with customization options.">
<polygon fill="white" stroke="#666666" points="320.38,-776 184.38,-776 184.38,-756 320.38,-756 320.38,-776"/>
<text text-anchor="middle" x="252.38" y="-762.5" font-family="Helvetica,sans-Serif" font-size="10.00">fcmaes.optimizer.Cma_cpp</text>
</a>
</g>
</g>
<!-- Node0&#45;&gt;Node9 -->
<g id="edge45_Node000000_Node000009" class="edge">
<title>Node0&#45;&gt;Node9</title>
<g id="a_edge45_Node000000_Node000009"><a xlink:title=" ">
<path fill="none" stroke="#63b8ff" d="M74.75,-585.11C86.35,-623.58 116.33,-704.98 172,-747 176.52,-750.41 181.57,-753.23 186.87,-755.54"/>
<polygon fill="#63b8ff" stroke="#63b8ff" points="78.16,-584.33 72.03,-575.69 71.44,-586.27 78.16,-584.33"/>
</a>
</g>
</g>
<!-- Node10 -->
<g id="Node000010" class="node">
<title>Node10</title>
<g id="a_Node000010"><a xlink:href="classfcmaes_1_1optimizer_1_1_cma__lw.html" target="_top" xlink:title="CMA&#45;ES lightweight optimizer implementation.">
<polygon fill="white" stroke="#666666" points="317.38,-738 187.38,-738 187.38,-718 317.38,-718 317.38,-738"/>
<text text-anchor="middle" x="252.38" y="-724.5" font-family="Helvetica,sans-Serif" font-size="10.00">fcmaes.optimizer.Cma_lw</text>
</a>
</g>
</g>
<!-- Node0&#45;&gt;Node10 -->
<g id="edge46_Node000000_Node000010" class="edge">
<title>Node0&#45;&gt;Node10</title>
<g id="a_edge46_Node000000_Node000010"><a xlink:title=" ">
<path fill="none" stroke="#63b8ff" d="M77.81,-584.69C92.49,-616.56 125.05,-677.29 172,-709 177.05,-712.41 182.64,-715.21 188.45,-717.51"/>
<polygon fill="#63b8ff" stroke="#63b8ff" points="81.1,-583.46 73.84,-575.74 74.7,-586.3 81.1,-583.46"/>
</a>
</g>
</g>
<!-- Node11 -->
<g id="Node000011" class="node">
<title>Node11</title>
<g id="a_Node000011"><a xlink:href="classfcmaes_1_1optimizer_1_1_cma__orig.html" target="_top" xlink:title=" ">
<polygon fill="white" stroke="#666666" points="320.38,-700 184.38,-700 184.38,-680 320.38,-680 320.38,-700"/>
<text text-anchor="middle" x="252.38" y="-686.5" font-family="Helvetica,sans-Serif" font-size="10.00">fcmaes.optimizer.Cma_orig</text>
</a>
</g>
</g>
<!-- Node0&#45;&gt;Node11 -->
<g id="edge47_Node000000_Node000011" class="edge">
<title>Node0&#45;&gt;Node11</title>
<g id="a_edge47_Node000000_Node000011"><a xlink:title=" ">
<path fill="none" stroke="#63b8ff" d="M82.44,-583.73C100.1,-608.07 133.42,-648.93 172,-671 178.03,-674.45 184.65,-677.27 191.43,-679.59"/>
<polygon fill="#63b8ff" stroke="#63b8ff" points="85.36,-581.8 76.74,-575.65 79.65,-585.84 85.36,-581.8"/>
</a>
</g>
</g>
<!-- Node12 -->
<g id="Node000012" class="node">
<title>Node12</title>
<g id="a_Node000012"><a xlink:href="classfcmaes_1_1optimizer_1_1_cma__python.html" target="_top" xlink:title="Cma_python optimizer class.">
<polygon fill="white" stroke="#666666" points="309.88,-662 194.88,-662 194.88,-630 309.88,-630 309.88,-662"/>
<text text-anchor="start" x="202.88" y="-648.5" font-family="Helvetica,sans-Serif" font-size="10.00">fcmaes.optimizer.Cma</text>
<text text-anchor="middle" x="252.38" y="-636.5" font-family="Helvetica,sans-Serif" font-size="10.00">_python</text>
</a>
</g>
</g>
<!-- Node0&#45;&gt;Node12 -->
<g id="edge48_Node000000_Node000012" class="edge">
<title>Node0&#45;&gt;Node12</title>
<g id="a_edge48_Node000000_Node000012"><a xlink:title=" ">
<path fill="none" stroke="#63b8ff" d="M95.04,-580.33C115.43,-592.64 144.81,-609.33 172,-621 179.17,-624.08 186.85,-626.97 194.5,-629.61"/>
<polygon fill="#63b8ff" stroke="#63b8ff" points="96.9,-577.36 86.54,-575.13 93.25,-583.33 96.9,-577.36"/>
</a>
</g>
</g>
<!-- Node13 -->
<g id="Node000013" class="node">
<title>Node13</title>
<g id="a_Node000013"><a xlink:href="classfcmaes_1_1optimizer_1_1_cma__sep.html" target="_top" xlink:title=" ">
<polygon fill="white" stroke="#666666" points="320.38,-612 184.38,-612 184.38,-592 320.38,-592 320.38,-612"/>
<text text-anchor="middle" x="252.38" y="-598.5" font-family="Helvetica,sans-Serif" font-size="10.00">fcmaes.optimizer.Cma_sep</text>
</a>
</g>
</g>
<!-- Node0&#45;&gt;Node13 -->
<g id="edge49_Node000000_Node000013" class="edge">
<title>Node0&#45;&gt;Node13</title>
<g id="a_edge49_Node000000_Node000013"><a xlink:title=" ">
<path fill="none" stroke="#63b8ff" d="M130.37,-576.79C153.42,-581.59 179.31,-586.99 201.22,-591.55"/>
<polygon fill="#63b8ff" stroke="#63b8ff" points="131.3,-573.41 120.8,-574.79 129.88,-580.26 131.3,-573.41"/>
</a>
</g>
</g>
<!-- Node14 -->
<g id="Node000014" class="node">
<title>Node14</title>
<g id="a_Node000014"><a xlink:href="classfcmaes_1_1optimizer_1_1_crfmnes.html" target="_top" xlink:title="Implements the CR&#45;FM&#45;NES (Covariance Matrix Adaptation Evolution Strategy with Full Matrix) optimizat...">
<polygon fill="white" stroke="#666666" points="318.12,-574 186.62,-574 186.62,-554 318.12,-554 318.12,-574"/>
<text text-anchor="middle" x="252.38" y="-560.5" font-family="Helvetica,sans-Serif" font-size="10.00">fcmaes.optimizer.Crfmnes</text>
</a>
</g>
</g>
<!-- Node0&#45;&gt;Node14 -->
<g id="edge50_Node000000_Node000014" class="edge">
<title>Node0&#45;&gt;Node14</title>
<g id="a_edge50_Node000000_Node000014"><a xlink:title=" ">
<path fill="none" stroke="#63b8ff" d="M147.64,-564C160.56,-564 173.84,-564 186.38,-564"/>
<polygon fill="#63b8ff" stroke="#63b8ff" points="147.91,-560.5 137.91,-564 147.91,-567.5 147.91,-560.5"/>
</a>
</g>
</g>
<!-- Node15 -->
<g id="Node000015" class="node">
<title>Node15</title>
<g id="a_Node000015"><a xlink:href="classfcmaes_1_1optimizer_1_1_crfmnes__cpp.html" target="_top" xlink:title=" ">
<polygon fill="white" stroke="#666666" points="328.62,-536 176.12,-536 176.12,-516 328.62,-516 328.62,-536"/>
<text text-anchor="middle" x="252.38" y="-522.5" font-family="Helvetica,sans-Serif" font-size="10.00">fcmaes.optimizer.Crfmnes_cpp</text>
</a>
</g>
</g>
<!-- Node0&#45;&gt;Node15 -->
<g id="edge51_Node000000_Node000015" class="edge">
<title>Node0&#45;&gt;Node15</title>
<g id="a_edge51_Node000000_Node000015"><a xlink:title=" ">
<path fill="none" stroke="#63b8ff" d="M130.37,-551.21C153.42,-546.41 179.31,-541.01 201.22,-536.45"/>
<polygon fill="#63b8ff" stroke="#63b8ff" points="129.88,-547.74 120.8,-553.21 131.3,-554.59 129.88,-547.74"/>
</a>
</g>
</g>
<!-- Node16 -->
<g id="Node000016" class="node">
<title>Node16</title>
<g id="a_Node000016"><a xlink:href="classfcmaes_1_1optimizer_1_1_da__cpp.html" target="_top" xlink:title="Represents the Da_cpp optimization algorithm, a variant of the Optimizer class.">
<polygon fill="white" stroke="#666666" points="316.25,-498 188.5,-498 188.5,-478 316.25,-478 316.25,-498"/>
<text text-anchor="middle" x="252.38" y="-484.5" font-family="Helvetica,sans-Serif" font-size="10.00">fcmaes.optimizer.Da_cpp</text>
</a>
</g>
</g>
<!-- Node0&#45;&gt;Node16 -->
<g id="edge52_Node000000_Node000016" class="edge">
<title>Node0&#45;&gt;Node16</title>
<g id="a_edge52_Node000000_Node000016"><a xlink:title=" ">
<path fill="none" stroke="#63b8ff" d="M94.46,-547.35C114.75,-534.73 144.26,-517.77 172,-507 180.45,-503.72 189.64,-500.89 198.67,-498.49"/>
<polygon fill="#63b8ff" stroke="#63b8ff" points="92.6,-544.39 86.03,-552.69 96.35,-550.3 92.6,-544.39"/>
</a>
</g>
</g>
<!-- Node17 -->
<g id="Node000017" class="node">
<title>Node17</title>
<g id="a_Node000017"><a xlink:href="classfcmaes_1_1optimizer_1_1_de__ask__tell.html" target="_top" xlink:title="Differential Evolution optimizer for numerical optimization tasks.">
<polygon fill="white" stroke="#666666" points="305.75,-460 199,-460 199,-428 305.75,-428 305.75,-460"/>
<text text-anchor="start" x="207" y="-446.5" font-family="Helvetica,sans-Serif" font-size="10.00">fcmaes.optimizer.De</text>
<text text-anchor="middle" x="252.38" y="-434.5" font-family="Helvetica,sans-Serif" font-size="10.00">_ask_tell</text>
</a>
</g>
</g>
<!-- Node0&#45;&gt;Node17 -->
<g id="edge53_Node000000_Node000017" class="edge">
<title>Node0&#45;&gt;Node17</title>
<g id="a_edge53_Node000000_Node000017"><a xlink:title=" ">
<path fill="none" stroke="#63b8ff" d="M84.86,-545.02C103.63,-523.69 136.79,-489.39 172,-469 180.25,-464.22 189.52,-460.24 198.74,-456.97"/>
<polygon fill="#63b8ff" stroke="#63b8ff" points="82.38,-542.54 78.5,-552.4 87.68,-547.11 82.38,-542.54"/>
</a>
</g>
</g>
<!-- Node18 -->
<g id="Node000018" class="node">
<title>Node18</title>
<g id="a_Node000018"><a xlink:href="classfcmaes_1_1optimizer_1_1_de__cpp.html" target="_top" xlink:title="Differential Evolution optimizer using C++ backend.">
<polygon fill="white" stroke="#666666" points="316.25,-410 188.5,-410 188.5,-390 316.25,-390 316.25,-410"/>
<text text-anchor="middle" x="252.38" y="-396.5" font-family="Helvetica,sans-Serif" font-size="10.00">fcmaes.optimizer.De_cpp</text>
</a>
</g>
</g>
<!-- Node0&#45;&gt;Node18 -->
<g id="edge54_Node000000_Node000018" class="edge">
<title>Node0&#45;&gt;Node18</title>
<g id="a_edge54_Node000000_Node000018"><a xlink:title=" ">
<path fill="none" stroke="#63b8ff" d="M77.81,-543.31C92.49,-511.44 125.05,-450.71 172,-419 177.05,-415.59 182.64,-412.79 188.45,-410.49"/>
<polygon fill="#63b8ff" stroke="#63b8ff" points="74.7,-541.7 73.84,-552.26 81.1,-544.54 74.7,-541.7"/>
</a>
</g>
</g>
<!-- Node19 -->
<g id="Node000019" class="node">
<title>Node19</title>
<g id="a_Node000019"><a xlink:href="classfcmaes_1_1optimizer_1_1_de__python.html" target="_top" xlink:title="Differential Evolution (DE) optimizer implemented in Python.">
<polygon fill="white" stroke="#666666" points="305.75,-372 199,-372 199,-340 305.75,-340 305.75,-372"/>
<text text-anchor="start" x="207" y="-358.5" font-family="Helvetica,sans-Serif" font-size="10.00">fcmaes.optimizer.De</text>
<text text-anchor="middle" x="252.38" y="-346.5" font-family="Helvetica,sans-Serif" font-size="10.00">_python</text>
</a>
</g>
</g>
<!-- Node0&#45;&gt;Node19 -->
<g id="edge55_Node000000_Node000019" class="edge">
<title>Node0&#45;&gt;Node19</title>
<g id="a_edge55_Node000000_Node000019"><a xlink:title=" ">
<path fill="none" stroke="#63b8ff" d="M75.21,-542.72C87.4,-504.64 118.1,-424.73 172,-381 179.74,-374.72 189.08,-370.01 198.58,-366.48"/>
<polygon fill="#63b8ff" stroke="#63b8ff" points="71.93,-541.48 72.34,-552.07 78.62,-543.54 71.93,-541.48"/>
</a>
</g>
</g>
<!-- Node20 -->
<g id="Node000020" class="node">
<title>Node20</title>
<g id="a_Node000020"><a xlink:href="classfcmaes_1_1optimizer_1_1_differential__evolution.html" target="_top" xlink:title="A class for performing optimization using the Differential Evolution algorithm.">
<polygon fill="white" stroke="#666666" points="322.62,-322 182.12,-322 182.12,-290 322.62,-290 322.62,-322"/>
<text text-anchor="start" x="190.12" y="-308.5" font-family="Helvetica,sans-Serif" font-size="10.00">fcmaes.optimizer.Differential</text>
<text text-anchor="middle" x="252.38" y="-296.5" font-family="Helvetica,sans-Serif" font-size="10.00">_evolution</text>
</a>
</g>
</g>
<!-- Node0&#45;&gt;Node20 -->
<g id="edge56_Node000000_Node000020" class="edge">
<title>Node0&#45;&gt;Node20</title>
<g id="a_edge56_Node000000_Node000020"><a xlink:title=" ">
<path fill="none" stroke="#63b8ff" d="M72.37,-542.77C80.72,-497.22 106.62,-389.49 172,-331 175.66,-327.72 179.75,-324.88 184.09,-322.41"/>
<polygon fill="#63b8ff" stroke="#63b8ff" points="68.96,-541.94 70.72,-552.39 75.86,-543.13 68.96,-541.94"/>
</a>
</g>
</g>
<!-- Node21 -->
<g id="Node000021" class="node">
<title>Node21</title>
<g id="a_Node000021"><a xlink:href="classfcmaes_1_1optimizer_1_1_dual__annealing.html" target="_top" xlink:title="Dual annealing optimization algorithm implementation.">
<polygon fill="white" stroke="#666666" points="309.5,-272 195.25,-272 195.25,-240 309.5,-240 309.5,-272"/>
<text text-anchor="start" x="203.25" y="-258.5" font-family="Helvetica,sans-Serif" font-size="10.00">fcmaes.optimizer.Dual</text>
<text text-anchor="middle" x="252.38" y="-246.5" font-family="Helvetica,sans-Serif" font-size="10.00">_annealing</text>
</a>
</g>
</g>
<!-- Node0&#45;&gt;Node21 -->
<g id="edge57_Node000000_Node000021" class="edge">
<title>Node0&#45;&gt;Node21</title>
<g id="a_edge57_Node000000_Node000021"><a xlink:title=" ">
<path fill="none" stroke="#63b8ff" d="M70.54,-542.26C75.44,-489.66 95.23,-354.47 172,-281 178.47,-274.81 186.46,-270.15 194.86,-266.64"/>
<polygon fill="#63b8ff" stroke="#63b8ff" points="67.07,-541.74 69.73,-551.99 74.05,-542.32 67.07,-541.74"/>
</a>
</g>
</g>
<!-- Node22 -->
<g id="Node000022" class="node">
<title>Node22</title>
<g id="a_Node000022"><a xlink:href="classfcmaes_1_1optimizer_1_1_minimize.html" target="_top" xlink:title="Optimization utilizing the scipy minimize function.">
<polygon fill="white" stroke="#666666" points="318.88,-222 185.88,-222 185.88,-202 318.88,-202 318.88,-222"/>
<text text-anchor="middle" x="252.38" y="-208.5" font-family="Helvetica,sans-Serif" font-size="10.00">fcmaes.optimizer.Minimize</text>
</a>
</g>
</g>
<!-- Node0&#45;&gt;Node22 -->
<g id="edge58_Node000000_Node000022" class="edge">
<title>Node0&#45;&gt;Node22</title>
<g id="a_edge58_Node000000_Node000022"><a xlink:title=" ">
<path fill="none" stroke="#63b8ff" d="M68.82,-542.54C69.54,-483.46 80.05,-317.16 172,-231 176.03,-227.22 180.68,-224.15 185.66,-221.67"/>
<polygon fill="#63b8ff" stroke="#63b8ff" points="65.32,-542.21 68.79,-552.22 72.32,-542.23 65.32,-542.21"/>
</a>
</g>
</g>
<!-- Node23 -->
<g id="Node000023" class="node">
<title>Node23</title>
<g id="a_Node000023"><a xlink:href="classfcmaes_1_1optimizer_1_1_n_lopt.html" target="_top" xlink:title="Optimizer class utilizing NLopt algorithms for optimization tasks.">
<polygon fill="white" stroke="#666666" points="312.5,-184 192.25,-184 192.25,-164 312.5,-164 312.5,-184"/>
<text text-anchor="middle" x="252.38" y="-170.5" font-family="Helvetica,sans-Serif" font-size="10.00">fcmaes.optimizer.NLopt</text>
</a>
</g>
</g>
<!-- Node0&#45;&gt;Node23 -->
<g id="edge59_Node000000_Node000023" class="edge">
<title>Node0&#45;&gt;Node23</title>
<g id="a_edge59_Node000000_Node000023"><a xlink:title=" ">
<path fill="none" stroke="#63b8ff" d="M72.09,-542.42C82.76,-470.84 120.26,-242.91 172,-193 177.61,-187.59 184.47,-183.63 191.79,-180.74"/>
<polygon fill="#63b8ff" stroke="#63b8ff" points="68.66,-541.66 70.68,-552.06 75.59,-542.67 68.66,-541.66"/>
</a>
</g>
</g>
<!-- Node24 -->
<g id="Node000024" class="node">
<title>Node24</title>
<g id="a_Node000024"><a xlink:href="classfcmaes_1_1optimizer_1_1_pgpe__cpp.html" target="_top" xlink:title=" ">
<polygon fill="white" stroke="#666666" points="321.12,-146 183.62,-146 183.62,-126 321.12,-126 321.12,-146"/>
<text text-anchor="middle" x="252.38" y="-132.5" font-family="Helvetica,sans-Serif" font-size="10.00">fcmaes.optimizer.Pgpe_cpp</text>
</a>
</g>
</g>
<!-- Node0&#45;&gt;Node24 -->
<g id="edge60_Node000000_Node000024" class="edge">
<title>Node0&#45;&gt;Node24</title>
<g id="a_edge60_Node000000_Node000024"><a xlink:title=" ">
<path fill="none" stroke="#63b8ff" d="M71.52,-542.25C80.79,-465.77 115.51,-210.83 172,-155 175.43,-151.61 179.34,-148.79 183.56,-146.44"/>
<polygon fill="#63b8ff" stroke="#63b8ff" points="68.04,-541.81 70.34,-552.16 74.99,-542.64 68.04,-541.81"/>
</a>
</g>
</g>
<!-- Node25 -->
<g id="Node000025" class="node">
<title>Node25</title>
<g id="a_Node000025"><a xlink:href="classfcmaes_1_1optimizer_1_1_sequence.html" target="_top" xlink:title="A class for sequentially combining multiple optimizers.">
<polygon fill="white" stroke="#666666" points="321.12,-108 183.62,-108 183.62,-88 321.12,-88 321.12,-108"/>
<text text-anchor="middle" x="252.38" y="-94.5" font-family="Helvetica,sans-Serif" font-size="10.00">fcmaes.optimizer.Sequence</text>
</a>
</g>
</g>
<!-- Node0&#45;&gt;Node25 -->
<g id="edge61_Node000000_Node000025" class="edge">
<title>Node0&#45;&gt;Node25</title>
<g id="a_edge61_Node000000_Node000025"><a xlink:title=" ">
<path fill="none" stroke="#63b8ff" d="M71.03,-542.09C79,-460.91 110.72,-178.8 172,-117 175.39,-113.58 179.28,-110.73 183.48,-108.37"/>
<polygon fill="#63b8ff" stroke="#63b8ff" points="67.55,-541.72 70.08,-552.01 74.52,-542.39 67.55,-541.72"/>
</a>
</g>
</g>
<!-- Node26 -->
<g id="Node000026" class="node">
<title>Node26</title>
<g id="a_Node000026"><a xlink:href="classfcmaes_1_1optimizer_1_1_shgo.html" target="_top" xlink:title="Shgo optimizer for mathematical function minimization.">
<polygon fill="white" stroke="#666666" points="310.62,-70 194.12,-70 194.12,-50 310.62,-50 310.62,-70"/>
<text text-anchor="middle" x="252.38" y="-56.5" font-family="Helvetica,sans-Serif" font-size="10.00">fcmaes.optimizer.Shgo</text>
</a>
</g>
</g>
<!-- Node0&#45;&gt;Node26 -->
<g id="edge62_Node000000_Node000026" class="edge">
<title>Node0&#45;&gt;Node26</title>
<g id="a_edge62_Node000000_Node000026"><a xlink:title=" ">
<path fill="none" stroke="#63b8ff" d="M70.58,-542.46C77.23,-457.51 105.78,-146.95 172,-79 178.03,-72.81 185.7,-68.49 193.87,-65.5"/>
<polygon fill="#63b8ff" stroke="#63b8ff" points="67.09,-542.15 69.82,-552.39 74.07,-542.68 67.09,-542.15"/>
</a>
</g>
</g>
<!-- Node27 -->
<g id="Node000027" class="node">
<title>Node27</title>
<g id="a_Node000027"><a xlink:href="classfcmaes_1_1optimizer_1_1random__search.html" target="_top" xlink:title="A class for performing optimization using a random search strategy.">
<polygon fill="white" stroke="#666666" points="315.5,-32 189.25,-32 189.25,0 315.5,0 315.5,-32"/>
<text text-anchor="start" x="197.25" y="-18.5" font-family="Helvetica,sans-Serif" font-size="10.00">fcmaes.optimizer.random</text>
<text text-anchor="middle" x="252.38" y="-6.5" font-family="Helvetica,sans-Serif" font-size="10.00">_search</text>
</a>
</g>
</g>
<!-- Node0&#45;&gt;Node27 -->
<g id="edge63_Node000000_Node000027" class="edge">
<title>Node0&#45;&gt;Node27</title>
<g id="a_edge63_Node000000_Node000027"><a xlink:title=" ">
<path fill="none" stroke="#63b8ff" d="M70.38,-542.35C76.44,-453.43 103.62,-117.4 172,-41 176.72,-35.72 182.54,-31.55 188.87,-28.26"/>
<polygon fill="#63b8ff" stroke="#63b8ff" points="66.9,-541.89 69.73,-552.1 73.88,-542.36 66.9,-541.89"/>
</a>
</g>
</g>
</g>
</svg>
