<?xml version="1.0" encoding="UTF-8" standalone="no"?>
<!DOCTYPE svg PUBLIC "-//W3C//DTD SVG 1.1//EN"
 "http://www.w3.org/Graphics/SVG/1.1/DTD/svg11.dtd">
<!-- Generated by graphviz version 12.2.1 (20241206.2353)
 -->
<!-- Title: Graphical Class Hierarchy Pages: 1 -->
<svg width="273pt" height="190pt"
 viewBox="0.00 0.00 273.25 190.00" xmlns="http://www.w3.org/2000/svg" xmlns:xlink="http://www.w3.org/1999/xlink">
<g id="graph0" class="graph" transform="scale(1 1) rotate(0) translate(4 186)">
<title>Graphical Class Hierarchy</title>
<!-- Node0 -->
<g id="Node000000" class="node">
<title>Node0</title>
<g id="a_Node000000"><a xlink:title=" ">
<polygon fill="#e0e0e0" stroke="#999999" points="108.25,-101 0,-101 0,-81 108.25,-81 108.25,-101"/>
<text text-anchor="middle" x="54.12" y="-87.5" font-family="Helvetica,sans-Serif" font-size="10.00">ElementwiseProblem</text>
</a>
</g>
</g>
<!-- Node1 -->
<g id="Node000001" class="node">
<title>Node1</title>
<g id="a_Node000001"><a xlink:href="classexamples_1_1repython_1_1_r_e1__pymoo.html" target="_top" xlink:title=" ">
<polygon fill="white" stroke="#666666" points="265.25,-182 144.25,-182 144.25,-150 265.25,-150 265.25,-182"/>
<text text-anchor="start" x="152.25" y="-168.5" font-family="Helvetica,sans-Serif" font-size="10.00">examples.repython.RE1</text>
<text text-anchor="middle" x="204.75" y="-156.5" font-family="Helvetica,sans-Serif" font-size="10.00">_pymoo</text>
</a>
</g>
</g>
<!-- Node0&#45;&gt;Node1 -->
<g id="edge26_Node000000_Node000001" class="edge">
<title>Node0&#45;&gt;Node1</title>
<g id="a_edge26_Node000000_Node000001"><a xlink:title=" ">
<path fill="none" stroke="#63b8ff" d="M81.77,-107C99.27,-117.24 122.8,-130.52 144.25,-141 150.19,-143.9 156.55,-146.79 162.83,-149.53"/>
<polygon fill="#63b8ff" stroke="#63b8ff" points="83.93,-104.21 73.54,-102.13 80.37,-110.23 83.93,-104.21"/>
</a>
</g>
</g>
<!-- Node2 -->
<g id="Node000002" class="node">
<title>Node2</title>
<g id="a_Node000002"><a xlink:href="classexamples_1_1repython_1_1_r_e4__pymoo.html" target="_top" xlink:title=" ">
<polygon fill="white" stroke="#666666" points="265.25,-132 144.25,-132 144.25,-100 265.25,-100 265.25,-132"/>
<text text-anchor="start" x="152.25" y="-118.5" font-family="Helvetica,sans-Serif" font-size="10.00">examples.repython.RE4</text>
<text text-anchor="middle" x="204.75" y="-106.5" font-family="Helvetica,sans-Serif" font-size="10.00">_pymoo</text>
</a>
</g>
</g>
<!-- Node0&#45;&gt;Node2 -->
<g id="edge27_Node000000_Node000002" class="edge">
<title>Node0&#45;&gt;Node2</title>
<g id="a_edge27_Node000000_Node000002"><a xlink:title=" ">
<path fill="none" stroke="#63b8ff" d="M119.59,-101.84C127.64,-103.2 135.84,-104.58 143.82,-105.92"/>
<polygon fill="#63b8ff" stroke="#63b8ff" points="120.3,-98.41 109.85,-100.21 119.14,-105.32 120.3,-98.41"/>
</a>
</g>
</g>
<!-- Node3 -->
<g id="Node000003" class="node">
<title>Node3</title>
<g id="a_Node000003"><a xlink:href="classexamples_1_1repython_1_1_r_e5__pymoo.html" target="_top" xlink:title=" ">
<polygon fill="white" stroke="#666666" points="265.25,-82 144.25,-82 144.25,-50 265.25,-50 265.25,-82"/>
<text text-anchor="start" x="152.25" y="-68.5" font-family="Helvetica,sans-Serif" font-size="10.00">examples.repython.RE5</text>
<text text-anchor="middle" x="204.75" y="-56.5" font-family="Helvetica,sans-Serif" font-size="10.00">_pymoo</text>
</a>
</g>
</g>
<!-- Node0&#45;&gt;Node3 -->
<g id="edge28_Node000000_Node000003" class="edge">
<title>Node0&#45;&gt;Node3</title>
<g id="a_edge28_Node000000_Node000003"><a xlink:title=" ">
<path fill="none" stroke="#63b8ff" d="M119.59,-80.16C127.64,-78.8 135.84,-77.42 143.82,-76.08"/>
<polygon fill="#63b8ff" stroke="#63b8ff" points="119.14,-76.68 109.85,-81.79 120.3,-83.59 119.14,-76.68"/>
</a>
</g>
</g>
<!-- Node4 -->
<g id="Node000004" class="node">
<title>Node4</title>
<g id="a_Node000004"><a xlink:href="classexamples_1_1repython_1_1_r_e6__pymoo.html" target="_top" xlink:title=" ">
<polygon fill="white" stroke="#666666" points="265.25,-32 144.25,-32 144.25,0 265.25,0 265.25,-32"/>
<text text-anchor="start" x="152.25" y="-18.5" font-family="Helvetica,sans-Serif" font-size="10.00">examples.repython.RE6</text>
<text text-anchor="middle" x="204.75" y="-6.5" font-family="Helvetica,sans-Serif" font-size="10.00">_pymoo</text>
</a>
</g>
</g>
<!-- Node0&#45;&gt;Node4 -->
<g id="edge29_Node000000_Node000004" class="edge">
<title>Node0&#45;&gt;Node4</title>
<g id="a_edge29_Node000000_Node000004"><a xlink:title=" ">
<path fill="none" stroke="#63b8ff" d="M81.77,-75C99.27,-64.76 122.8,-51.48 144.25,-41 150.19,-38.1 156.55,-35.21 162.83,-32.47"/>
<polygon fill="#63b8ff" stroke="#63b8ff" points="80.37,-71.77 73.54,-79.87 83.93,-77.79 80.37,-71.77"/>
</a>
</g>
</g>
</g>
</svg>
