<?xml version="1.0" encoding="UTF-8" standalone="no"?>
<!DOCTYPE svg PUBLIC "-//W3C//DTD SVG 1.1//EN"
 "http://www.w3.org/Graphics/SVG/1.1/DTD/svg11.dtd">
<!-- Generated by graphviz version 12.2.1 (20241206.2353)
 -->
<!-- Title: Graphical Class Hierarchy Pages: 1 -->
<svg width="249pt" height="66pt"
 viewBox="0.00 0.00 248.50 66.00" xmlns="http://www.w3.org/2000/svg" xmlns:xlink="http://www.w3.org/1999/xlink">
<g id="graph0" class="graph" transform="scale(1 1) rotate(0) translate(4 62)">
<title>Graphical Class Hierarchy</title>
<!-- Node0 -->
<g id="Node000000" class="node">
<title>Node0</title>
<g id="a_Node000000"><a xlink:title=" ">
<polygon fill="#e0e0e0" stroke="#999999" points="58,-39 0,-39 0,-19 58,-19 58,-39"/>
<text text-anchor="middle" x="29" y="-25.5" font-family="Helvetica,sans-Serif" font-size="10.00">exception</text>
</a>
</g>
</g>
<!-- Node1 -->
<g id="Node000001" class="node">
<title>Node1</title>
<g id="a_Node000001"><a xlink:href="classdual__annealing_1_1nanexception.html" target="_top" xlink:title=" ">
<polygon fill="white" stroke="#666666" points="239.38,-58 95.12,-58 95.12,-38 239.38,-38 239.38,-58"/>
<text text-anchor="middle" x="167.25" y="-44.5" font-family="Helvetica,sans-Serif" font-size="10.00">dual_annealing::nanexception</text>
</a>
</g>
</g>
<!-- Node0&#45;&gt;Node1 -->
<g id="edge31_Node000000_Node000001" class="edge">
<title>Node0&#45;&gt;Node1</title>
<g id="a_edge31_Node000000_Node000001"><a xlink:title=" ">
<path fill="none" stroke="#63b8ff" d="M69.41,-34.5C77.41,-35.61 86.05,-36.82 94.76,-38.03"/>
<polygon fill="#63b8ff" stroke="#63b8ff" points="70.12,-31.06 59.73,-33.15 69.15,-37.99 70.12,-31.06"/>
</a>
</g>
</g>
<!-- Node2 -->
<g id="Node000002" class="node">
<title>Node2</title>
<g id="a_Node000002"><a xlink:href="classdual__annealing_1_1sizeexception.html" target="_top" xlink:title=" ">
<polygon fill="white" stroke="#666666" points="240.5,-20 94,-20 94,0 240.5,0 240.5,-20"/>
<text text-anchor="middle" x="167.25" y="-6.5" font-family="Helvetica,sans-Serif" font-size="10.00">dual_annealing::sizeexception</text>
</a>
</g>
</g>
<!-- Node0&#45;&gt;Node2 -->
<g id="edge32_Node000000_Node000002" class="edge">
<title>Node0&#45;&gt;Node2</title>
<g id="a_edge32_Node000000_Node000002"><a xlink:title=" ">
<path fill="none" stroke="#63b8ff" d="M69.62,-23.48C77.21,-22.42 85.38,-21.28 93.63,-20.13"/>
<polygon fill="#63b8ff" stroke="#63b8ff" points="69.15,-20.01 59.73,-24.85 70.12,-26.94 69.15,-20.01"/>
</a>
</g>
</g>
</g>
</svg>
