<?xml version="1.0" encoding="UTF-8" standalone="no"?>
<!DOCTYPE svg PUBLIC "-//W3C//DTD SVG 1.1//EN"
 "http://www.w3.org/Graphics/SVG/1.1/DTD/svg11.dtd">
<!-- Generated by graphviz version 12.2.1 (20241206.2353)
 -->
<!-- Title: examples.spring.test_minimize_SLSQP Pages: 1 -->
<svg width="775pt" height="135pt"
 viewBox="0.00 0.00 775.00 135.17" xmlns="http://www.w3.org/2000/svg" xmlns:xlink="http://www.w3.org/1999/xlink">
<g id="graph0" class="graph" transform="scale(1 1) rotate(0) translate(4 131.17)">
<title>examples.spring.test_minimize_SLSQP</title>
<!-- Node1 -->
<g id="Node000001" class="node">
<title>Node1</title>
<g id="a_Node000001"><a xlink:title=" ">
<polygon fill="#999999" stroke="#666666" points="106.75,-73.17 0,-73.17 0,-41.17 106.75,-41.17 106.75,-73.17"/>
<text text-anchor="start" x="8" y="-59.67" font-family="Helvetica,sans-Serif" font-size="10.00">examples.spring.test</text>
<text text-anchor="middle" x="53.38" y="-47.67" font-family="Helvetica,sans-Serif" font-size="10.00">_minimize_SLSQP</text>
</a>
</g>
</g>
<!-- Node2 -->
<g id="Node000002" class="node">
<title>Node2</title>
<g id="a_Node000002"><a xlink:href="namespaceexamples_1_1spring.html#a5548a6c0d57e91af650b43407f2f1c60" target="_top" xlink:title=" ">
<polygon fill="white" stroke="#666666" points="251.75,-73.17 142.75,-73.17 142.75,-41.17 251.75,-41.17 251.75,-73.17"/>
<text text-anchor="start" x="150.75" y="-59.67" font-family="Helvetica,sans-Serif" font-size="10.00">examples.spring.print</text>
<text text-anchor="middle" x="197.25" y="-47.67" font-family="Helvetica,sans-Serif" font-size="10.00">_result</text>
</a>
</g>
</g>
<!-- Node1&#45;&gt;Node2 -->
<g id="edge1_Node000001_Node000002" class="edge">
<title>Node1&#45;&gt;Node2</title>
<g id="a_edge1_Node000001_Node000002"><a xlink:title=" ">
<path fill="none" stroke="#63b8ff" d="M107.2,-57.17C115.02,-57.17 123.15,-57.17 131.19,-57.17"/>
<polygon fill="#63b8ff" stroke="#63b8ff" points="130.92,-60.67 140.92,-57.17 130.92,-53.67 130.92,-60.67"/>
</a>
</g>
</g>
<!-- Node3 -->
<g id="Node000003" class="node">
<title>Node3</title>
<g id="a_Node000003"><a xlink:href="namespaceexamples_1_1spring.html#ab4b7a17b6f29a47a16b6e750c9f44b6a" target="_top" xlink:title=" ">
<polygon fill="white" stroke="#666666" points="417,-127.17 287.75,-127.17 287.75,-107.17 417,-107.17 417,-127.17"/>
<text text-anchor="middle" x="352.38" y="-113.67" font-family="Helvetica,sans-Serif" font-size="10.00">examples.spring._feasible</text>
</a>
</g>
</g>
<!-- Node2&#45;&gt;Node3 -->
<g id="edge2_Node000002_Node000003" class="edge">
<title>Node2&#45;&gt;Node3</title>
<g id="a_edge2_Node000002_Node000003"><a xlink:title=" ">
<path fill="none" stroke="#63b8ff" d="M238.72,-73.66C254.05,-79.85 271.68,-86.9 287.75,-93.17 295.86,-96.33 304.57,-99.66 312.87,-102.8"/>
<polygon fill="#63b8ff" stroke="#63b8ff" points="311.44,-106 322.03,-106.25 313.91,-99.45 311.44,-106"/>
</a>
</g>
</g>
<!-- Node4 -->
<g id="Node000004" class="node">
<title>Node4</title>
<g id="a_Node000004"><a xlink:href="namespaceexamples_1_1spring.html#ad819bd367024b1a2ff5dcdcf9baf0f26" target="_top" xlink:title=" ">
<polygon fill="white" stroke="#666666" points="574.75,-65.17 453,-65.17 453,-45.17 574.75,-45.17 574.75,-65.17"/>
<text text-anchor="middle" x="513.88" y="-51.67" font-family="Helvetica,sans-Serif" font-size="10.00">examples.spring.penalty</text>
</a>
</g>
</g>
<!-- Node2&#45;&gt;Node4 -->
<g id="edge3_Node000002_Node000004" class="edge">
<title>Node2&#45;&gt;Node4</title>
<g id="a_edge3_Node000002_Node000004"><a xlink:title=" ">
<path fill="none" stroke="#63b8ff" d="M252.2,-59.27C263.92,-59.64 276.25,-59.97 287.75,-60.17 345.19,-61.13 359.58,-61.66 417,-60.17 424.81,-59.96 432.98,-59.67 441.11,-59.32"/>
<polygon fill="#63b8ff" stroke="#63b8ff" points="441.2,-62.82 451.03,-58.86 440.88,-55.83 441.2,-62.82"/>
</a>
</g>
</g>
<!-- Node6 -->
<g id="Node000006" class="node">
<title>Node6</title>
<g id="a_Node000006"><a xlink:href="namespaceexamples_1_1spring.html#a44581395454773e536a02fcb79378602" target="_top" xlink:title=" ">
<polygon fill="white" stroke="#666666" points="573.25,-24.17 454.5,-24.17 454.5,-4.17 573.25,-4.17 573.25,-24.17"/>
<text text-anchor="middle" x="513.88" y="-10.67" font-family="Helvetica,sans-Serif" font-size="10.00">examples.spring.weight</text>
</a>
</g>
</g>
<!-- Node2&#45;&gt;Node6 -->
<g id="edge5_Node000002_Node000006" class="edge">
<title>Node2&#45;&gt;Node6</title>
<g id="a_edge5_Node000002_Node000006"><a xlink:title=" ">
<path fill="none" stroke="#63b8ff" d="M221.66,-40.82C239.01,-29.75 263.72,-16.09 287.75,-10.17 338.55,2.36 397.77,0.69 442.72,-3.75"/>
<polygon fill="#63b8ff" stroke="#63b8ff" points="442.3,-7.22 452.61,-4.8 443.04,-0.26 442.3,-7.22"/>
</a>
</g>
</g>
<!-- Node7 -->
<g id="Node000007" class="node">
<title>Node7</title>
<g id="a_Node000007"><a xlink:href="namespaceexamples_1_1spring.html#a39b97ec21efea793b97726fa1bdc4d0b" target="_top" xlink:title=" ">
<polygon fill="white" stroke="#666666" points="411.75,-51.17 293,-51.17 293,-19.17 411.75,-19.17 411.75,-51.17"/>
<text text-anchor="start" x="301" y="-37.67" font-family="Helvetica,sans-Serif" font-size="10.00">examples.spring.weight</text>
<text text-anchor="middle" x="352.38" y="-25.67" font-family="Helvetica,sans-Serif" font-size="10.00">_penalty</text>
</a>
</g>
</g>
<!-- Node2&#45;&gt;Node7 -->
<g id="edge6_Node000002_Node000007" class="edge">
<title>Node2&#45;&gt;Node7</title>
<g id="a_edge6_Node000002_Node000007"><a xlink:title=" ">
<path fill="none" stroke="#63b8ff" d="M252.24,-49.41C261.64,-48.06 271.55,-46.64 281.31,-45.23"/>
<polygon fill="#63b8ff" stroke="#63b8ff" points="281.77,-48.7 291.17,-43.82 280.78,-41.77 281.77,-48.7"/>
</a>
</g>
</g>
<!-- Node5 -->
<g id="Node000005" class="node">
<title>Node5</title>
<g id="a_Node000005"><a xlink:href="namespaceexamples_1_1spring.html#a682c6c4156dd71a76e42d83aa869de29" target="_top" xlink:title=" ">
<polygon fill="white" stroke="#666666" points="767,-65.17 610.75,-65.17 610.75,-45.17 767,-45.17 767,-65.17"/>
<text text-anchor="middle" x="688.88" y="-51.67" font-family="Helvetica,sans-Serif" font-size="10.00">examples.spring.constraint_ineq</text>
</a>
</g>
</g>
<!-- Node4&#45;&gt;Node5 -->
<g id="edge4_Node000004_Node000005" class="edge">
<title>Node4&#45;&gt;Node5</title>
<g id="a_edge4_Node000004_Node000005"><a xlink:title=" ">
<path fill="none" stroke="#63b8ff" d="M574.9,-55.17C582.66,-55.17 590.73,-55.17 598.84,-55.17"/>
<polygon fill="#63b8ff" stroke="#63b8ff" points="598.77,-58.67 608.77,-55.17 598.77,-51.67 598.77,-58.67"/>
</a>
</g>
</g>
<!-- Node7&#45;&gt;Node4 -->
<g id="edge7_Node000007_Node000004" class="edge">
<title>Node7&#45;&gt;Node4</title>
<g id="a_edge7_Node000007_Node000004"><a xlink:title=" ">
<path fill="none" stroke="#63b8ff" d="M411.86,-42.5C421.38,-43.7 431.34,-44.94 441.14,-46.17"/>
<polygon fill="#63b8ff" stroke="#63b8ff" points="440.66,-49.64 451.02,-47.41 441.53,-42.69 440.66,-49.64"/>
</a>
</g>
</g>
<!-- Node7&#45;&gt;Node6 -->
<g id="edge8_Node000007_Node000006" class="edge">
<title>Node7&#45;&gt;Node6</title>
<g id="a_edge8_Node000007_Node000006"><a xlink:title=" ">
<path fill="none" stroke="#63b8ff" d="M411.86,-27.47C421.98,-26.13 432.59,-24.74 442.98,-23.37"/>
<polygon fill="#63b8ff" stroke="#63b8ff" points="443.17,-26.88 452.63,-22.1 442.26,-19.94 443.17,-26.88"/>
</a>
</g>
</g>
</g>
</svg>
