<?xml version="1.0" encoding="UTF-8" standalone="no"?>
<!DOCTYPE svg PUBLIC "-//W3C//DTD SVG 1.1//EN"
 "http://www.w3.org/Graphics/SVG/1.1/DTD/svg11.dtd">
<!-- Generated by graphviz version 12.2.1 (20241206.2353)
 -->
<!-- Title: examples.damp.plot3d Pages: 1 -->
<svg width="439pt" height="40pt"
 viewBox="0.00 0.00 438.50 40.00" xmlns="http://www.w3.org/2000/svg" xmlns:xlink="http://www.w3.org/1999/xlink">
<g id="graph0" class="graph" transform="scale(1 1) rotate(0) translate(4 36)">
<title>examples.damp.plot3d</title>
<!-- Node1 -->
<g id="Node000001" class="node">
<title>Node1</title>
<g id="a_Node000001"><a xlink:title=" ">
<polygon fill="#999999" stroke="#666666" points="430.5,-26 316.25,-26 316.25,-6 430.5,-6 430.5,-26"/>
<text text-anchor="middle" x="373.38" y="-12.5" font-family="Helvetica,sans-Serif" font-size="10.00">examples.damp.plot3d</text>
</a>
</g>
</g>
<!-- Node2 -->
<g id="Node000002" class="node">
<title>Node2</title>
<g id="a_Node000002"><a xlink:href="namespaceexamples_1_1damp.html#a56eb880b40f4b83f6f114f81b6427c0e" target="_top" xlink:title=" ">
<polygon fill="white" stroke="#666666" points="280.25,-32 176.5,-32 176.5,0 280.25,0 280.25,-32"/>
<text text-anchor="start" x="184.5" y="-18.5" font-family="Helvetica,sans-Serif" font-size="10.00">examples.damp.plot</text>
<text text-anchor="middle" x="228.38" y="-6.5" font-family="Helvetica,sans-Serif" font-size="10.00">_archive</text>
</a>
</g>
</g>
<!-- Node1&#45;&gt;Node2 -->
<g id="edge1_Node000001_Node000002" class="edge">
<title>Node1&#45;&gt;Node2</title>
<g id="a_edge1_Node000001_Node000002"><a xlink:title=" ">
<path fill="none" stroke="#63b8ff" d="M304.48,-16C296.37,-16 288.19,-16 280.38,-16"/>
<polygon fill="#63b8ff" stroke="#63b8ff" points="304.34,-19.5 314.34,-16 304.34,-12.5 304.34,-19.5"/>
</a>
</g>
</g>
<!-- Node3 -->
<g id="Node000003" class="node">
<title>Node3</title>
<g id="a_Node000003"><a xlink:href="namespaceexamples_1_1damp.html#a7c1340c7c027e4ca57ce802c60670acc" target="_top" xlink:title=" ">
<polygon fill="white" stroke="#666666" points="140.5,-26 0,-26 0,-6 140.5,-6 140.5,-26"/>
<text text-anchor="middle" x="70.25" y="-12.5" font-family="Helvetica,sans-Serif" font-size="10.00">examples.damp.optimize_qd</text>
</a>
</g>
</g>
<!-- Node2&#45;&gt;Node3 -->
<g id="edge2_Node000002_Node000003" class="edge">
<title>Node2&#45;&gt;Node3</title>
<g id="a_edge2_Node000002_Node000003"><a xlink:title=" ">
<path fill="none" stroke="#63b8ff" d="M164.9,-16C157.01,-16 148.91,-16 140.92,-16"/>
<polygon fill="#63b8ff" stroke="#63b8ff" points="164.74,-19.5 174.74,-16 164.74,-12.5 164.74,-19.5"/>
</a>
</g>
</g>
</g>
</svg>
