<?xml version="1.0" encoding="UTF-8" standalone="no"?>
<!DOCTYPE svg PUBLIC "-//W3C//DTD SVG 1.1//EN"
 "http://www.w3.org/Graphics/SVG/1.1/DTD/svg11.dtd">
<!-- Generated by graphviz version 12.2.1 (20241206.2353)
 -->
<!-- Title: examples.rover.create_large_domain Pages: 1 -->
<svg width="264pt" height="52pt"
 viewBox="0.00 0.00 263.50 52.00" xmlns="http://www.w3.org/2000/svg" xmlns:xlink="http://www.w3.org/1999/xlink">
<g id="graph0" class="graph" transform="scale(1 1) rotate(0) translate(4 48)">
<title>examples.rover.create_large_domain</title>
<!-- Node1 -->
<g id="Node000001" class="node">
<title>Node1</title>
<g id="a_Node000001"><a xlink:title=" ">
<polygon fill="#999999" stroke="#666666" points="255.5,-32 142.75,-32 142.75,0 255.5,0 255.5,-32"/>
<text text-anchor="start" x="150.75" y="-18.5" font-family="Helvetica,sans-Serif" font-size="10.00">examples.rover.create</text>
<text text-anchor="middle" x="199.12" y="-6.5" font-family="Helvetica,sans-Serif" font-size="10.00">_large_domain</text>
</a>
</g>
</g>
<!-- Node2 -->
<g id="Node000002" class="node">
<title>Node2</title>
<g id="a_Node000002"><a xlink:href="namespaceexamples_1_1rover.html#a478b95bc30ea81b5ac1b26729cd9cf9f" target="_top" xlink:title=" ">
<polygon fill="white" stroke="#666666" points="106.75,-26 0,-26 0,-6 106.75,-6 106.75,-26"/>
<text text-anchor="middle" x="53.38" y="-12.5" font-family="Helvetica,sans-Serif" font-size="10.00">examples.rover.main</text>
</a>
</g>
</g>
<!-- Node1&#45;&gt;Node2 -->
<g id="edge1_Node000001_Node000002" class="edge">
<title>Node1&#45;&gt;Node2</title>
<g id="a_edge1_Node000001_Node000002"><a xlink:title=" ">
<path fill="none" stroke="#63b8ff" d="M131.17,-16C123.05,-16 114.85,-16 106.97,-16"/>
<polygon fill="#63b8ff" stroke="#63b8ff" points="131.03,-19.5 141.03,-16 131.03,-12.5 131.03,-19.5"/>
</a>
</g>
</g>
<!-- Node2&#45;&gt;Node2 -->
<g id="edge2_Node000002_Node000002" class="edge">
<title>Node2&#45;&gt;Node2</title>
<g id="a_edge2_Node000002_Node000002"><a xlink:title=" ">
<path fill="none" stroke="#63b8ff" d="M79.14,-37.44C75.82,-41.3 67.23,-44 53.38,-44 28.04,-44 20.32,-34.98 30.22,-26.34"/>
<polygon fill="#63b8ff" stroke="#63b8ff" points="82.57,-36.75 76.88,-27.81 75.75,-38.35 82.57,-36.75"/>
</a>
</g>
</g>
</g>
</svg>
