<?xml version="1.0" encoding="UTF-8" standalone="no"?>
<!DOCTYPE svg PUBLIC "-//W3C//DTD SVG 1.1//EN"
 "http://www.w3.org/Graphics/SVG/1.1/DTD/svg11.dtd">
<!-- Generated by graphviz version 12.2.1 (20241206.2353)
 -->
<!-- Title: examples.tdesign.show_results Pages: 1 -->
<!--zoomable 162 -->

<svg id="main" version="1.1" xmlns="http://www.w3.org/2000/svg" xmlns:xlink="http://www.w3.org/1999/xlink" xml:space="preserve" onload="init(evt)">

<style type="text/css"><![CDATA[
.node, .edge {opacity: 0.7;}
.node.selected, .edge.selected {opacity: 1;}
.edge:hover path { stroke: red; }
.edge:hover polygon { stroke: red; fill: red; }
]]></style>

<defs>
  <circle id="rim" cx="0" cy="0" r="7"/>
  <circle id="rim2" cx="0" cy="0" r="3.5"/>
  <g id="zoomPlus">
    <use xlink:href="#rim" fill="#404040"><set attributeName="fill" to="#808080" begin="zoomplus.mouseover" end="zoomplus.mouseout"/></use>
    <path d="M-4,0h8M0,-4v8" fill="none" stroke="white" stroke-width="1.5" pointer-events="none"/>
  </g>
  <g id="zoomMin">
    <use xlink:href="#rim" fill="#404040"><set attributeName="fill" to="#808080" begin="zoomminus.mouseover" end="zoomminus.mouseout"/></use>
    <path d="M-4,0h8" fill="none" stroke="white" stroke-width="1.5" pointer-events="none"/>
  </g>
  <g id="arrowUp" transform="translate(30 24)">
    <use xlink:href="#rim"/>
    <path pointer-events="none" fill="none" stroke="white" stroke-width="1.5" d="M0,-3.0v7 M-2.5,-0.5L0,-3.0L2.5,-0.5"/>
  </g>
  <g id="arrowRight" transform="rotate(90) translate(36 -43)">
    <use xlink:href="#rim"/>
    <path pointer-events="none" fill="none" stroke="white" stroke-width="1.5" d="M0,-3.0v7 M-2.5,-0.5L0,-3.0L2.5,-0.5"/>
  </g>
  <g id="arrowDown" transform="rotate(180) translate(-30 -48)">
    <use xlink:href="#rim"/>
    <path pointer-events="none" fill="none" stroke="white" stroke-width="1.5" d="M0,-3.0v7 M-2.5,-0.5L0,-3.0L2.5,-0.5"/>
  </g>
  <g id="arrowLeft" transform="rotate(270) translate(-36 17)">
    <use xlink:href="#rim"/>
    <path pointer-events="none" fill="none" stroke="white" stroke-width="1.5" d="M0,-3.0v7 M-2.5,-0.5L0,-3.0L2.5,-0.5"/>
  </g>
  <g id="resetDef">
    <use xlink:href="#rim2" fill="#404040"><set attributeName="fill" to="#808080" begin="reset.mouseover" end="reset.mouseout"/></use>
  </g>
</defs>
<script type="application/ecmascript">
var viewWidth = 820;
var viewHeight = 162;
var sectionId = 'dynsection-5';
</script>
<script type="application/ecmascript" xlink:href="svg.min.js"/>
<svg id="graph" class="graph">
<g id="viewport">
<title>examples.tdesign.show_results</title>
<!-- Node1 -->
<g id="Node000001" class="node">
<title>Node1</title>
<g id="a_Node000001"><a xlink:title=" ">
<polygon fill="#999999" stroke="#666666" points="118.75,-95 0,-95 0,-63 118.75,-63 118.75,-95"/>
<text text-anchor="start" x="8" y="-81.5" font-family="Helvetica,sans-Serif" font-size="10.00">examples.tdesign.show</text>
<text text-anchor="middle" x="59.38" y="-69.5" font-family="Helvetica,sans-Serif" font-size="10.00">_results</text>
</a>
</g>
</g>
<!-- Node2 -->
<g id="Node000002" class="node">
<title>Node2</title>
<g id="a_Node000002"><a xlink:href="namespaceexamples_1_1tdesign.html#ae536e1afa6d09f1d3d8354727738b2df" target="_top" xlink:title="Visualize points on the unit sphere.">
<polygon fill="white" stroke="#666666" points="288.5,-120 154.75,-120 154.75,-88 288.5,-88 288.5,-120"/>
<text text-anchor="start" x="162.75" y="-106.5" font-family="Helvetica,sans-Serif" font-size="10.00">examples.tdesign.visualize</text>
<text text-anchor="middle" x="221.62" y="-94.5" font-family="Helvetica,sans-Serif" font-size="10.00">_points</text>
</a>
</g>
</g>
<!-- Node1&#45;&gt;Node2 -->
<g id="edge1_Node000001_Node000002" class="edge">
<title>Node1&#45;&gt;Node2</title>
<g id="a_edge1_Node000001_Node000002"><a xlink:title=" ">
<path fill="none" stroke="#63b8ff" d="M119.14,-88.17C126.91,-89.38 134.97,-90.64 143,-91.89"/>
<polygon fill="#63b8ff" stroke="#63b8ff" points="142.37,-95.33 152.79,-93.42 143.45,-88.42 142.37,-95.33"/>
</a>
</g>
</g>
<!-- Node9 -->
<g id="Node000009" class="node">
<title>Node9</title>
<g id="a_Node000009"><a xlink:href="namespaceexamples_1_1tdesign.html#a0c0d6d6a3a2a1742e8c5ecd7b244da24" target="_top" xlink:title=" ">
<polygon fill="white" stroke="#666666" points="272,-70 171.25,-70 171.25,-38 272,-38 272,-70"/>
<text text-anchor="start" x="179.25" y="-56.5" font-family="Helvetica,sans-Serif" font-size="10.00">examples.tdesign.x</text>
<text text-anchor="middle" x="221.62" y="-44.5" font-family="Helvetica,sans-Serif" font-size="10.00">_to_points</text>
</a>
</g>
</g>
<!-- Node1&#45;&gt;Node9 -->
<g id="edge10_Node000001_Node000009" class="edge">
<title>Node1&#45;&gt;Node9</title>
<g id="a_edge10_Node000001_Node000009"><a xlink:title=" ">
<path fill="none" stroke="#63b8ff" d="M119.14,-69.83C132.4,-67.76 146.5,-65.56 159.84,-63.48"/>
<polygon fill="#63b8ff" stroke="#63b8ff" points="159.99,-67 169.33,-62 158.91,-60.08 159.99,-67"/>
</a>
</g>
</g>
<!-- Node3 -->
<g id="Node000003" class="node">
<title>Node3</title>
<g id="a_Node000003"><a xlink:href="namespaceexamples_1_1tdesign.html#a6ca70e19dba68def099810c806a5b842" target="_top" xlink:title=" ">
<polygon fill="white" stroke="#666666" points="812,-154 674.5,-154 674.5,-122 812,-122 812,-154"/>
<text text-anchor="start" x="682.5" y="-140.5" font-family="Helvetica,sans-Serif" font-size="10.00">examples.tdesign.normalize</text>
<text text-anchor="middle" x="743.25" y="-128.5" font-family="Helvetica,sans-Serif" font-size="10.00">_weights_to_average_one</text>
</a>
</g>
</g>
<!-- Node2&#45;&gt;Node3 -->
<g id="edge2_Node000002_Node000003" class="edge">
<title>Node2&#45;&gt;Node3</title>
<g id="a_edge2_Node000002_Node000003"><a xlink:title=" ">
<path fill="none" stroke="#63b8ff" d="M280.12,-120.44C294.5,-123.9 309.97,-127.08 324.5,-129 441.56,-144.43 578.65,-143.88 662.97,-141.43"/>
<polygon fill="#63b8ff" stroke="#63b8ff" points="662.85,-144.94 672.74,-141.13 662.64,-137.94 662.85,-144.94"/>
</a>
</g>
</g>
<!-- Node4 -->
<g id="Node000004" class="node">
<title>Node4</title>
<g id="a_Node000004"><a xlink:href="namespaceexamples_1_1tdesign.html#a55246a7f644c9b7a7ed3d05dbc4b9845" target="_top" xlink:title=" ">
<polygon fill="white" stroke="#666666" points="461.25,-120 326.75,-120 326.75,-88 461.25,-88 461.25,-120"/>
<text text-anchor="start" x="334.75" y="-106.5" font-family="Helvetica,sans-Serif" font-size="10.00">examples.tdesign.spherical</text>
<text text-anchor="middle" x="394" y="-94.5" font-family="Helvetica,sans-Serif" font-size="10.00">_to_cartesian</text>
</a>
</g>
</g>
<!-- Node2&#45;&gt;Node4 -->
<g id="edge3_Node000002_Node000004" class="edge">
<title>Node2&#45;&gt;Node4</title>
<g id="a_edge3_Node000002_Node000004"><a xlink:title=" ">
<path fill="none" stroke="#63b8ff" d="M288.98,-104C297.49,-104 306.27,-104 314.94,-104"/>
<polygon fill="#63b8ff" stroke="#63b8ff" points="314.75,-107.5 324.75,-104 314.75,-100.5 314.75,-107.5"/>
</a>
</g>
</g>
<!-- Node5 -->
<g id="Node000005" class="node">
<title>Node5</title>
<g id="a_Node000005"><a xlink:href="namespaceexamples_1_1tdesign.html#a1cb307dfea95e59f67161218e5a0ef8e" target="_top" xlink:title="Compute a symmetry measure for a set of points.">
<polygon fill="white" stroke="#666666" points="463.5,-70 324.5,-70 324.5,-50 463.5,-50 463.5,-70"/>
<text text-anchor="middle" x="394" y="-56.5" font-family="Helvetica,sans-Serif" font-size="10.00">examples.tdesign.symmetry</text>
</a>
</g>
</g>
<!-- Node2&#45;&gt;Node5 -->
<g id="edge4_Node000002_Node000005" class="edge">
<title>Node2&#45;&gt;Node5</title>
<g id="a_edge4_Node000002_Node000005"><a xlink:title=" ">
<path fill="none" stroke="#63b8ff" d="M286.07,-87.62C304.3,-82.91 323.97,-77.83 341.4,-73.33"/>
<polygon fill="#63b8ff" stroke="#63b8ff" points="342.22,-76.73 351.03,-70.84 340.47,-69.95 342.22,-76.73"/>
</a>
</g>
</g>
<!-- Node6 -->
<g id="Node000006" class="node">
<title>Node6</title>
<g id="a_Node000006"><a xlink:href="namespaceexamples_1_1tdesign.html#a532ed878becc725e89bc283de0ba5352" target="_top" xlink:title="Compute fully normalized real spherical harmonics up to degree l_max using scipy.special....">
<polygon fill="white" stroke="#666666" points="798.88,-95 687.62,-95 687.62,-63 798.88,-63 798.88,-95"/>
<text text-anchor="start" x="695.62" y="-81.5" font-family="Helvetica,sans-Serif" font-size="10.00">examples.tdesign.real</text>
<text text-anchor="middle" x="743.25" y="-69.5" font-family="Helvetica,sans-Serif" font-size="10.00">_spherical_harmonics</text>
</a>
</g>
</g>
<!-- Node5&#45;&gt;Node6 -->
<g id="edge5_Node000005_Node000006" class="edge">
<title>Node5&#45;&gt;Node6</title>
<g id="a_edge5_Node000005_Node000006"><a xlink:title=" ">
<path fill="none" stroke="#63b8ff" d="M463.61,-63.75C525.16,-67.12 614.93,-72.03 675.81,-75.36"/>
<polygon fill="#63b8ff" stroke="#63b8ff" points="675.52,-78.85 685.69,-75.91 675.9,-71.86 675.52,-78.85"/>
</a>
</g>
</g>
<!-- Node7 -->
<g id="Node000007" class="node">
<title>Node7</title>
<g id="a_Node000007"><a xlink:href="namespaceexamples_1_1tdesign.html#a704d0d6079500012779ad8cbd2c50d27" target="_top" xlink:title="For each degree l from 0 to l_max, compute the sum over m of the square of the (pointwise) sums of th...">
<polygon fill="white" stroke="#666666" points="638.5,-32 499.5,-32 499.5,0 638.5,0 638.5,-32"/>
<text text-anchor="start" x="507.5" y="-18.5" font-family="Helvetica,sans-Serif" font-size="10.00">examples.tdesign.symmetry</text>
<text text-anchor="middle" x="569" y="-6.5" font-family="Helvetica,sans-Serif" font-size="10.00">_error</text>
</a>
</g>
</g>
<!-- Node5&#45;&gt;Node7 -->
<g id="edge6_Node000005_Node000007" class="edge">
<title>Node5&#45;&gt;Node7</title>
<g id="a_edge6_Node000005_Node000007"><a xlink:title=" ">
<path fill="none" stroke="#63b8ff" d="M436,-49.57C452.87,-45.28 472.96,-40.17 492.32,-35.25"/>
<polygon fill="#63b8ff" stroke="#63b8ff" points="492.99,-38.69 501.82,-32.83 491.27,-31.9 492.99,-38.69"/>
</a>
</g>
</g>
<!-- Node8 -->
<g id="Node000008" class="node">
<title>Node8</title>
<g id="a_Node000008"><a xlink:href="namespaceexamples_1_1tdesign.html#aaf9d7a51f34d459c87a877b260d6b27d" target="_top" xlink:title=" ">
<polygon fill="white" stroke="#666666" points="636.25,-120 501.75,-120 501.75,-88 636.25,-88 636.25,-120"/>
<text text-anchor="start" x="509.75" y="-106.5" font-family="Helvetica,sans-Serif" font-size="10.00">examples.tdesign.weighted</text>
<text text-anchor="middle" x="569" y="-94.5" font-family="Helvetica,sans-Serif" font-size="10.00">_spherical_harmonics</text>
</a>
</g>
</g>
<!-- Node5&#45;&gt;Node8 -->
<g id="edge7_Node000005_Node000008" class="edge">
<title>Node5&#45;&gt;Node8</title>
<g id="a_edge7_Node000005_Node000008"><a xlink:title=" ">
<path fill="none" stroke="#63b8ff" d="M436,-70.43C452.87,-74.72 472.96,-79.83 492.32,-84.75"/>
<polygon fill="#63b8ff" stroke="#63b8ff" points="491.27,-88.1 501.82,-87.17 492.99,-81.31 491.27,-88.1"/>
</a>
</g>
</g>
<!-- Node8&#45;&gt;Node3 -->
<g id="edge8_Node000008_Node000003" class="edge">
<title>Node8&#45;&gt;Node3</title>
<g id="a_edge8_Node000008_Node000003"><a xlink:title=" ">
<path fill="none" stroke="#63b8ff" d="M636.6,-117.15C645.25,-118.85 654.18,-120.62 663.01,-122.36"/>
<polygon fill="#63b8ff" stroke="#63b8ff" points="662.15,-125.76 672.64,-124.26 663.51,-118.89 662.15,-125.76"/>
</a>
</g>
</g>
<!-- Node8&#45;&gt;Node6 -->
<g id="edge9_Node000008_Node000006" class="edge">
<title>Node8&#45;&gt;Node6</title>
<g id="a_edge9_Node000008_Node000006"><a xlink:title=" ">
<path fill="none" stroke="#63b8ff" d="M636.6,-94.33C649.56,-92.45 663.14,-90.48 676.09,-88.6"/>
<polygon fill="#63b8ff" stroke="#63b8ff" points="676.38,-92.1 685.77,-87.2 675.37,-85.17 676.38,-92.1"/>
</a>
</g>
</g>
</g>
</svg>

<g id="navigator" transform="translate(0 0)" fill="#404254">
  <rect fill="#f2f5e9" fill-opacity="0.5" stroke="#606060" stroke-width=".5" x="0" y="0" width="60" height="60"/>
  <use id="zoomplus" xlink:href="#zoomPlus" x="17" y="9" onmousedown="handleZoom(evt,'in')"/>
  <use id="zoomminus" xlink:href="#zoomMin" x="42" y="9" onmousedown="handleZoom(evt,'out')"/>
  <use id="reset" xlink:href="#resetDef" x="30" y="36" onmousedown="handleReset()"/>
   <use id="arrowup" xlink:href="#arrowUp" x="0" y="0" onmousedown="handlePan(0,-1)"/>
  <use id="arrowright" xlink:href="#arrowRight" x="0" y="0" onmousedown="handlePan(1,0)"/>
  <use id="arrowdown" xlink:href="#arrowDown" x="0" y="0" onmousedown="handlePan(0,1)"/>
  <use id="arrowleft" xlink:href="#arrowLeft" x="0" y="0" onmousedown="handlePan(-1,0)"/>
</g>
<svg viewBox="0 0 15 15" width="100%" height="30px" preserveAspectRatio="xMaxYMin meet">
 <g id="arrow_out" transform="scale(0.3 0.3)">
  <a xlink:href="namespaceexamples_1_1tdesign_afed335728de9256c19b963026d24a9c4_cgraph_org.svg" target="_base">
   <rect id="button" ry="5" rx="5" y="6" x="6" height="38" width="38"
        fill="#f2f5e9" fill-opacity="0.5" stroke="#606060" stroke-width="1.0"/>
   <path id="arrow"
     d="M 11.500037,31.436501 C 11.940474,20.09759 22.043105,11.32322 32.158766,21.979434 L 37.068811,17.246167 C 37.068811,17.246167 37.088388,32 37.088388,32 L 22.160133,31.978069 C 22.160133,31.978069 26.997745,27.140456 26.997745,27.140456 C 18.528582,18.264221 13.291696,25.230495 11.500037,31.436501 z"
     style="fill:#404040;"/>
  </a>
 </g>
</svg>

<style type='text/css'>
<![CDATA[
[data-mouse-over-selected='false'] { opacity: 0.7; }
[data-mouse-over-selected='true']  { opacity: 1.0; }
]]>
</style>
<script type="application/ecmascript"><![CDATA[
document.addEventListener('DOMContentLoaded', (event) => {
  highlightEdges();
  highlightAdjacentNodes();
});
]]></script>
</svg>
