<?xml version="1.0" encoding="UTF-8" standalone="no"?>
<!DOCTYPE svg PUBLIC "-//W3C//DTD SVG 1.1//EN"
 "http://www.w3.org/Graphics/SVG/1.1/DTD/svg11.dtd">
<!-- Generated by graphviz version 12.2.1 (20241206.2353)
 -->
<!-- Title: quantumcomm.construct_rover_pos Pages: 1 -->
<svg width="481pt" height="90pt"
 viewBox="0.00 0.00 480.50 90.00" xmlns="http://www.w3.org/2000/svg" xmlns:xlink="http://www.w3.org/1999/xlink">
<g id="graph0" class="graph" transform="scale(1 1) rotate(0) translate(4 86)">
<title>quantumcomm.construct_rover_pos</title>
<!-- Node1 -->
<g id="Node000001" class="node">
<title>Node1</title>
<g id="a_Node000001"><a xlink:title="Computes the position of the rovers at time t based on the initial latitude and longitude.">
<polygon fill="#999999" stroke="#666666" points="472.5,-57 348.5,-57 348.5,-25 472.5,-25 472.5,-57"/>
<text text-anchor="start" x="356.5" y="-43.5" font-family="Helvetica,sans-Serif" font-size="10.00">quantumcomm.construct</text>
<text text-anchor="middle" x="410.5" y="-31.5" font-family="Helvetica,sans-Serif" font-size="10.00">_rover_pos</text>
</a>
</g>
</g>
<!-- Node2 -->
<g id="Node000002" class="node">
<title>Node2</title>
<g id="a_Node000002"><a xlink:href="classquantumcomm_1_1constellation__udp.html#a13abd2e63f36cb79a4c08d96557d3d87" target="_top" xlink:title="Evaluate the fitness of the decision variables.">
<polygon fill="white" stroke="#666666" points="312.5,-82 174.25,-82 174.25,-50 312.5,-50 312.5,-82"/>
<text text-anchor="start" x="182.25" y="-68.5" font-family="Helvetica,sans-Serif" font-size="10.00">quantumcomm.constellation</text>
<text text-anchor="middle" x="243.38" y="-56.5" font-family="Helvetica,sans-Serif" font-size="10.00">_udp.fitness</text>
</a>
</g>
</g>
<!-- Node1&#45;&gt;Node2 -->
<g id="edge1_Node000001_Node000002" class="edge">
<title>Node1&#45;&gt;Node2</title>
<g id="a_edge1_Node000001_Node000002"><a xlink:title=" ">
<path fill="none" stroke="#63b8ff" d="M336.85,-52C328.88,-53.21 320.78,-54.43 312.85,-55.63"/>
<polygon fill="#63b8ff" stroke="#63b8ff" points="337.15,-55.49 346.52,-50.54 336.11,-48.57 337.15,-55.49"/>
</a>
</g>
</g>
<!-- Node4 -->
<g id="Node000004" class="node">
<title>Node4</title>
<g id="a_Node000004"><a xlink:href="classquantumcomm_1_1constellation__udp.html#ae7806f788f8f22a8be936a007a8a3deb" target="_top" xlink:title="Plot the full constellations with solution path and optional orbits.">
<polygon fill="white" stroke="#666666" points="312.5,-32 174.25,-32 174.25,0 312.5,0 312.5,-32"/>
<text text-anchor="start" x="182.25" y="-18.5" font-family="Helvetica,sans-Serif" font-size="10.00">quantumcomm.constellation</text>
<text text-anchor="middle" x="243.38" y="-6.5" font-family="Helvetica,sans-Serif" font-size="10.00">_udp.plot</text>
</a>
</g>
</g>
<!-- Node1&#45;&gt;Node4 -->
<g id="edge3_Node000001_Node000004" class="edge">
<title>Node1&#45;&gt;Node4</title>
<g id="a_edge3_Node000001_Node000004"><a xlink:title=" ">
<path fill="none" stroke="#63b8ff" d="M336.85,-30C328.88,-28.79 320.78,-27.57 312.85,-26.37"/>
<polygon fill="#63b8ff" stroke="#63b8ff" points="336.11,-33.43 346.52,-31.46 337.15,-26.51 336.11,-33.43"/>
</a>
</g>
</g>
<!-- Node3 -->
<g id="Node000003" class="node">
<title>Node3</title>
<g id="a_Node000003"><a xlink:href="classquantumcomm_1_1constellation__udp.html#a8c60ffafb21bc14b969a3f3f4079d24d" target="_top" xlink:title="A verbose evaluation of the fitness functions.">
<polygon fill="white" stroke="#666666" points="138.25,-82 0,-82 0,-50 138.25,-50 138.25,-82"/>
<text text-anchor="start" x="8" y="-68.5" font-family="Helvetica,sans-Serif" font-size="10.00">quantumcomm.constellation</text>
<text text-anchor="middle" x="69.12" y="-56.5" font-family="Helvetica,sans-Serif" font-size="10.00">_udp.pretty</text>
</a>
</g>
</g>
<!-- Node2&#45;&gt;Node3 -->
<g id="edge2_Node000002_Node000003" class="edge">
<title>Node2&#45;&gt;Node3</title>
<g id="a_edge2_Node000002_Node000003"><a xlink:title=" ">
<path fill="none" stroke="#63b8ff" d="M162.33,-66C154.45,-66 146.5,-66 138.74,-66"/>
<polygon fill="#63b8ff" stroke="#63b8ff" points="162.29,-69.5 172.29,-66 162.29,-62.5 162.29,-69.5"/>
</a>
</g>
</g>
</g>
</svg>
