<?xml version="1.0" encoding="UTF-8" standalone="no"?>
<!DOCTYPE svg PUBLIC "-//W3C//DTD SVG 1.1//EN"
 "http://www.w3.org/Graphics/SVG/1.1/DTD/svg11.dtd">
<!-- Generated by graphviz version 12.2.1 (20241206.2353)
 -->
<!-- Title: fbcover.nodes Pages: 1 -->
<svg width="426pt" height="104pt"
 viewBox="0.00 0.00 425.75 104.00" xmlns="http://www.w3.org/2000/svg" xmlns:xlink="http://www.w3.org/1999/xlink">
<g id="graph0" class="graph" transform="scale(1 1) rotate(0) translate(4 100)">
<title>fbcover.nodes</title>
<!-- Node1 -->
<g id="Node000001" class="node">
<title>Node1</title>
<g id="a_Node000001"><a xlink:title=" ">
<polygon fill="#999999" stroke="#666666" points="417.75,-58 340.25,-58 340.25,-38 417.75,-38 417.75,-58"/>
<text text-anchor="middle" x="379" y="-44.5" font-family="Helvetica,sans-Serif" font-size="10.00">fbcover.nodes</text>
</a>
</g>
</g>
<!-- Node2 -->
<g id="Node000002" class="node">
<title>Node2</title>
<g id="a_Node000002"><a xlink:href="classfbcover_1_1problem__fb.html#afdb76f1a3d3d8545c2190561bd1905e4" target="_top" xlink:title=" ">
<polygon fill="white" stroke="#666666" points="304.25,-96 183.25,-96 183.25,-76 304.25,-76 304.25,-96"/>
<text text-anchor="middle" x="243.75" y="-82.5" font-family="Helvetica,sans-Serif" font-size="10.00">fbcover.problem_fb.cost</text>
</a>
</g>
</g>
<!-- Node1&#45;&gt;Node2 -->
<g id="edge1_Node000001_Node000002" class="edge">
<title>Node1&#45;&gt;Node2</title>
<g id="a_edge1_Node000001_Node000002"><a xlink:title=" ">
<path fill="none" stroke="#63b8ff" d="M330.39,-61.58C314.27,-66.18 296.53,-71.23 281.39,-75.55"/>
<polygon fill="#63b8ff" stroke="#63b8ff" points="331.12,-65.01 339.78,-58.9 329.2,-58.28 331.12,-65.01"/>
</a>
</g>
</g>
<!-- Node4 -->
<g id="Node000004" class="node">
<title>Node4</title>
<g id="a_Node000004"><a xlink:href="classfbcover_1_1problem__fb.html#aafca7fa77a778148b4e8f81fc10f5607" target="_top" xlink:title=" ">
<polygon fill="white" stroke="#666666" points="147.25,-58 0,-58 0,-38 147.25,-38 147.25,-58"/>
<text text-anchor="middle" x="73.62" y="-44.5" font-family="Helvetica,sans-Serif" font-size="10.00">fbcover.problem_fb.fitness_so</text>
</a>
</g>
</g>
<!-- Node1&#45;&gt;Node4 -->
<g id="edge4_Node000001_Node000004" class="edge">
<title>Node1&#45;&gt;Node4</title>
<g id="a_edge4_Node000001_Node000004"><a xlink:title=" ">
<path fill="none" stroke="#63b8ff" d="M328.62,-48C279.53,-48 203.68,-48 147.64,-48"/>
<polygon fill="#63b8ff" stroke="#63b8ff" points="328.37,-51.5 338.37,-48 328.37,-44.5 328.37,-51.5"/>
</a>
</g>
</g>
<!-- Node5 -->
<g id="Node000005" class="node">
<title>Node5</title>
<g id="a_Node000005"><a xlink:href="namespacefbcover.html#ac30f20ffc7b04c1a995b554b5b960d5c" target="_top" xlink:title=" ">
<polygon fill="white" stroke="#666666" points="284,-20 203.5,-20 203.5,0 284,0 284,-20"/>
<text text-anchor="middle" x="243.75" y="-6.5" font-family="Helvetica,sans-Serif" font-size="10.00">fbcover.opt_so</text>
</a>
</g>
</g>
<!-- Node1&#45;&gt;Node5 -->
<g id="edge5_Node000001_Node000005" class="edge">
<title>Node1&#45;&gt;Node5</title>
<g id="a_edge5_Node000001_Node000005"><a xlink:title=" ">
<path fill="none" stroke="#63b8ff" d="M330.39,-34.42C314.27,-29.82 296.53,-24.77 281.39,-20.45"/>
<polygon fill="#63b8ff" stroke="#63b8ff" points="329.2,-37.72 339.78,-37.1 331.12,-30.99 329.2,-37.72"/>
</a>
</g>
</g>
<!-- Node3 -->
<g id="Node000003" class="node">
<title>Node3</title>
<g id="a_Node000003"><a xlink:href="classfbcover_1_1problem__fb.html#aaee0bd1064a102d1c0b08531a924bebc" target="_top" xlink:title=" ">
<polygon fill="white" stroke="#666666" points="139.38,-96 7.88,-96 7.88,-76 139.38,-76 139.38,-96"/>
<text text-anchor="middle" x="73.62" y="-82.5" font-family="Helvetica,sans-Serif" font-size="10.00">fbcover.problem_fb.fitness</text>
</a>
</g>
</g>
<!-- Node2&#45;&gt;Node3 -->
<g id="edge2_Node000002_Node000003" class="edge">
<title>Node2&#45;&gt;Node3</title>
<g id="a_edge2_Node000002_Node000003"><a xlink:title=" ">
<path fill="none" stroke="#63b8ff" d="M171.62,-86C161,-86 150.09,-86 139.6,-86"/>
<polygon fill="#63b8ff" stroke="#63b8ff" points="171.49,-89.5 181.49,-86 171.49,-82.5 171.49,-89.5"/>
</a>
</g>
</g>
<!-- Node2&#45;&gt;Node4 -->
<g id="edge3_Node000002_Node000004" class="edge">
<title>Node2&#45;&gt;Node4</title>
<g id="a_edge3_Node000002_Node000004"><a xlink:title=" ">
<path fill="none" stroke="#63b8ff" d="M185.3,-73.02C164.28,-68.26 140.78,-62.95 120.86,-58.45"/>
<polygon fill="#63b8ff" stroke="#63b8ff" points="184.36,-76.39 194.89,-75.18 185.91,-69.56 184.36,-76.39"/>
</a>
</g>
</g>
</g>
</svg>
