<?xml version="1.0" encoding="UTF-8" standalone="no"?>
<!DOCTYPE svg PUBLIC "-//W3C//DTD SVG 1.1//EN"
 "http://www.w3.org/Graphics/SVG/1.1/DTD/svg11.dtd">
<!-- Generated by graphviz version 12.2.1 (20241206.2353)
 -->
<!-- Title: examples.tdesign.visualize_points Pages: 1 -->
<!--zoomable 162 -->

<svg id="main" version="1.1" xmlns="http://www.w3.org/2000/svg" xmlns:xlink="http://www.w3.org/1999/xlink" xml:space="preserve" onload="init(evt)">

<style type="text/css"><![CDATA[
.node, .edge {opacity: 0.7;}
.node.selected, .edge.selected {opacity: 1;}
.edge:hover path { stroke: red; }
.edge:hover polygon { stroke: red; fill: red; }
]]></style>

<defs>
  <circle id="rim" cx="0" cy="0" r="7"/>
  <circle id="rim2" cx="0" cy="0" r="3.5"/>
  <g id="zoomPlus">
    <use xlink:href="#rim" fill="#404040"><set attributeName="fill" to="#808080" begin="zoomplus.mouseover" end="zoomplus.mouseout"/></use>
    <path d="M-4,0h8M0,-4v8" fill="none" stroke="white" stroke-width="1.5" pointer-events="none"/>
  </g>
  <g id="zoomMin">
    <use xlink:href="#rim" fill="#404040"><set attributeName="fill" to="#808080" begin="zoomminus.mouseover" end="zoomminus.mouseout"/></use>
    <path d="M-4,0h8" fill="none" stroke="white" stroke-width="1.5" pointer-events="none"/>
  </g>
  <g id="arrowUp" transform="translate(30 24)">
    <use xlink:href="#rim"/>
    <path pointer-events="none" fill="none" stroke="white" stroke-width="1.5" d="M0,-3.0v7 M-2.5,-0.5L0,-3.0L2.5,-0.5"/>
  </g>
  <g id="arrowRight" transform="rotate(90) translate(36 -43)">
    <use xlink:href="#rim"/>
    <path pointer-events="none" fill="none" stroke="white" stroke-width="1.5" d="M0,-3.0v7 M-2.5,-0.5L0,-3.0L2.5,-0.5"/>
  </g>
  <g id="arrowDown" transform="rotate(180) translate(-30 -48)">
    <use xlink:href="#rim"/>
    <path pointer-events="none" fill="none" stroke="white" stroke-width="1.5" d="M0,-3.0v7 M-2.5,-0.5L0,-3.0L2.5,-0.5"/>
  </g>
  <g id="arrowLeft" transform="rotate(270) translate(-36 17)">
    <use xlink:href="#rim"/>
    <path pointer-events="none" fill="none" stroke="white" stroke-width="1.5" d="M0,-3.0v7 M-2.5,-0.5L0,-3.0L2.5,-0.5"/>
  </g>
  <g id="resetDef">
    <use xlink:href="#rim2" fill="#404040"><set attributeName="fill" to="#808080" begin="reset.mouseover" end="reset.mouseout"/></use>
  </g>
</defs>
<script type="application/ecmascript">
var viewWidth = 665;
var viewHeight = 162;
var sectionId = 'dynsection-12';
</script>
<script type="application/ecmascript" xlink:href="svg.min.js"/>
<svg id="graph" class="graph">
<g id="viewport">
<title>examples.tdesign.visualize_points</title>
<!-- Node1 -->
<g id="Node000001" class="node">
<title>Node1</title>
<g id="a_Node000001"><a xlink:title="Visualize points on the unit sphere.">
<polygon fill="#999999" stroke="#666666" points="133.75,-120 0,-120 0,-88 133.75,-88 133.75,-120"/>
<text text-anchor="start" x="8" y="-106.5" font-family="Helvetica,sans-Serif" font-size="10.00">examples.tdesign.visualize</text>
<text text-anchor="middle" x="66.88" y="-94.5" font-family="Helvetica,sans-Serif" font-size="10.00">_points</text>
</a>
</g>
</g>
<!-- Node2 -->
<g id="Node000002" class="node">
<title>Node2</title>
<g id="a_Node000002"><a xlink:href="namespaceexamples_1_1tdesign.html#a6ca70e19dba68def099810c806a5b842" target="_top" xlink:title=" ">
<polygon fill="white" stroke="#666666" points="657.25,-154 519.75,-154 519.75,-122 657.25,-122 657.25,-154"/>
<text text-anchor="start" x="527.75" y="-140.5" font-family="Helvetica,sans-Serif" font-size="10.00">examples.tdesign.normalize</text>
<text text-anchor="middle" x="588.5" y="-128.5" font-family="Helvetica,sans-Serif" font-size="10.00">_weights_to_average_one</text>
</a>
</g>
</g>
<!-- Node1&#45;&gt;Node2 -->
<g id="edge1_Node000001_Node000002" class="edge">
<title>Node1&#45;&gt;Node2</title>
<g id="a_edge1_Node000001_Node000002"><a xlink:title=" ">
<path fill="none" stroke="#63b8ff" d="M125.37,-120.44C139.75,-123.9 155.22,-127.08 169.75,-129 286.81,-144.43 423.9,-143.88 508.22,-141.43"/>
<polygon fill="#63b8ff" stroke="#63b8ff" points="508.1,-144.94 517.99,-141.13 507.89,-137.94 508.1,-144.94"/>
</a>
</g>
</g>
<!-- Node3 -->
<g id="Node000003" class="node">
<title>Node3</title>
<g id="a_Node000003"><a xlink:href="namespaceexamples_1_1tdesign.html#a55246a7f644c9b7a7ed3d05dbc4b9845" target="_top" xlink:title=" ">
<polygon fill="white" stroke="#666666" points="306.5,-120 172,-120 172,-88 306.5,-88 306.5,-120"/>
<text text-anchor="start" x="180" y="-106.5" font-family="Helvetica,sans-Serif" font-size="10.00">examples.tdesign.spherical</text>
<text text-anchor="middle" x="239.25" y="-94.5" font-family="Helvetica,sans-Serif" font-size="10.00">_to_cartesian</text>
</a>
</g>
</g>
<!-- Node1&#45;&gt;Node3 -->
<g id="edge2_Node000001_Node000003" class="edge">
<title>Node1&#45;&gt;Node3</title>
<g id="a_edge2_Node000001_Node000003"><a xlink:title=" ">
<path fill="none" stroke="#63b8ff" d="M134.23,-104C142.74,-104 151.52,-104 160.19,-104"/>
<polygon fill="#63b8ff" stroke="#63b8ff" points="160,-107.5 170,-104 160,-100.5 160,-107.5"/>
</a>
</g>
</g>
<!-- Node4 -->
<g id="Node000004" class="node">
<title>Node4</title>
<g id="a_Node000004"><a xlink:href="namespaceexamples_1_1tdesign.html#a1cb307dfea95e59f67161218e5a0ef8e" target="_top" xlink:title="Compute a symmetry measure for a set of points.">
<polygon fill="white" stroke="#666666" points="308.75,-70 169.75,-70 169.75,-50 308.75,-50 308.75,-70"/>
<text text-anchor="middle" x="239.25" y="-56.5" font-family="Helvetica,sans-Serif" font-size="10.00">examples.tdesign.symmetry</text>
</a>
</g>
</g>
<!-- Node1&#45;&gt;Node4 -->
<g id="edge3_Node000001_Node000004" class="edge">
<title>Node1&#45;&gt;Node4</title>
<g id="a_edge3_Node000001_Node000004"><a xlink:title=" ">
<path fill="none" stroke="#63b8ff" d="M131.32,-87.62C149.55,-82.91 169.22,-77.83 186.65,-73.33"/>
<polygon fill="#63b8ff" stroke="#63b8ff" points="187.47,-76.73 196.28,-70.84 185.72,-69.95 187.47,-76.73"/>
</a>
</g>
</g>
<!-- Node5 -->
<g id="Node000005" class="node">
<title>Node5</title>
<g id="a_Node000005"><a xlink:href="namespaceexamples_1_1tdesign.html#a532ed878becc725e89bc283de0ba5352" target="_top" xlink:title="Compute fully normalized real spherical harmonics up to degree l_max using scipy.special....">
<polygon fill="white" stroke="#666666" points="644.12,-95 532.88,-95 532.88,-63 644.12,-63 644.12,-95"/>
<text text-anchor="start" x="540.88" y="-81.5" font-family="Helvetica,sans-Serif" font-size="10.00">examples.tdesign.real</text>
<text text-anchor="middle" x="588.5" y="-69.5" font-family="Helvetica,sans-Serif" font-size="10.00">_spherical_harmonics</text>
</a>
</g>
</g>
<!-- Node4&#45;&gt;Node5 -->
<g id="edge4_Node000004_Node000005" class="edge">
<title>Node4&#45;&gt;Node5</title>
<g id="a_edge4_Node000004_Node000005"><a xlink:title=" ">
<path fill="none" stroke="#63b8ff" d="M308.86,-63.75C370.41,-67.12 460.18,-72.03 521.06,-75.36"/>
<polygon fill="#63b8ff" stroke="#63b8ff" points="520.77,-78.85 530.94,-75.91 521.15,-71.86 520.77,-78.85"/>
</a>
</g>
</g>
<!-- Node6 -->
<g id="Node000006" class="node">
<title>Node6</title>
<g id="a_Node000006"><a xlink:href="namespaceexamples_1_1tdesign.html#a704d0d6079500012779ad8cbd2c50d27" target="_top" xlink:title="For each degree l from 0 to l_max, compute the sum over m of the square of the (pointwise) sums of th...">
<polygon fill="white" stroke="#666666" points="483.75,-32 344.75,-32 344.75,0 483.75,0 483.75,-32"/>
<text text-anchor="start" x="352.75" y="-18.5" font-family="Helvetica,sans-Serif" font-size="10.00">examples.tdesign.symmetry</text>
<text text-anchor="middle" x="414.25" y="-6.5" font-family="Helvetica,sans-Serif" font-size="10.00">_error</text>
</a>
</g>
</g>
<!-- Node4&#45;&gt;Node6 -->
<g id="edge5_Node000004_Node000006" class="edge">
<title>Node4&#45;&gt;Node6</title>
<g id="a_edge5_Node000004_Node000006"><a xlink:title=" ">
<path fill="none" stroke="#63b8ff" d="M281.25,-49.57C298.12,-45.28 318.21,-40.17 337.57,-35.25"/>
<polygon fill="#63b8ff" stroke="#63b8ff" points="338.24,-38.69 347.07,-32.83 336.52,-31.9 338.24,-38.69"/>
</a>
</g>
</g>
<!-- Node7 -->
<g id="Node000007" class="node">
<title>Node7</title>
<g id="a_Node000007"><a xlink:href="namespaceexamples_1_1tdesign.html#aaf9d7a51f34d459c87a877b260d6b27d" target="_top" xlink:title=" ">
<polygon fill="white" stroke="#666666" points="481.5,-120 347,-120 347,-88 481.5,-88 481.5,-120"/>
<text text-anchor="start" x="355" y="-106.5" font-family="Helvetica,sans-Serif" font-size="10.00">examples.tdesign.weighted</text>
<text text-anchor="middle" x="414.25" y="-94.5" font-family="Helvetica,sans-Serif" font-size="10.00">_spherical_harmonics</text>
</a>
</g>
</g>
<!-- Node4&#45;&gt;Node7 -->
<g id="edge6_Node000004_Node000007" class="edge">
<title>Node4&#45;&gt;Node7</title>
<g id="a_edge6_Node000004_Node000007"><a xlink:title=" ">
<path fill="none" stroke="#63b8ff" d="M281.25,-70.43C298.12,-74.72 318.21,-79.83 337.57,-84.75"/>
<polygon fill="#63b8ff" stroke="#63b8ff" points="336.52,-88.1 347.07,-87.17 338.24,-81.31 336.52,-88.1"/>
</a>
</g>
</g>
<!-- Node7&#45;&gt;Node2 -->
<g id="edge7_Node000007_Node000002" class="edge">
<title>Node7&#45;&gt;Node2</title>
<g id="a_edge7_Node000007_Node000002"><a xlink:title=" ">
<path fill="none" stroke="#63b8ff" d="M481.85,-117.15C490.5,-118.85 499.43,-120.62 508.26,-122.36"/>
<polygon fill="#63b8ff" stroke="#63b8ff" points="507.4,-125.76 517.89,-124.26 508.76,-118.89 507.4,-125.76"/>
</a>
</g>
</g>
<!-- Node7&#45;&gt;Node5 -->
<g id="edge8_Node000007_Node000005" class="edge">
<title>Node7&#45;&gt;Node5</title>
<g id="a_edge8_Node000007_Node000005"><a xlink:title=" ">
<path fill="none" stroke="#63b8ff" d="M481.85,-94.33C494.81,-92.45 508.39,-90.48 521.34,-88.6"/>
<polygon fill="#63b8ff" stroke="#63b8ff" points="521.63,-92.1 531.02,-87.2 520.62,-85.17 521.63,-92.1"/>
</a>
</g>
</g>
</g>
</svg>

<g id="navigator" transform="translate(0 0)" fill="#404254">
  <rect fill="#f2f5e9" fill-opacity="0.5" stroke="#606060" stroke-width=".5" x="0" y="0" width="60" height="60"/>
  <use id="zoomplus" xlink:href="#zoomPlus" x="17" y="9" onmousedown="handleZoom(evt,'in')"/>
  <use id="zoomminus" xlink:href="#zoomMin" x="42" y="9" onmousedown="handleZoom(evt,'out')"/>
  <use id="reset" xlink:href="#resetDef" x="30" y="36" onmousedown="handleReset()"/>
   <use id="arrowup" xlink:href="#arrowUp" x="0" y="0" onmousedown="handlePan(0,-1)"/>
  <use id="arrowright" xlink:href="#arrowRight" x="0" y="0" onmousedown="handlePan(1,0)"/>
  <use id="arrowdown" xlink:href="#arrowDown" x="0" y="0" onmousedown="handlePan(0,1)"/>
  <use id="arrowleft" xlink:href="#arrowLeft" x="0" y="0" onmousedown="handlePan(-1,0)"/>
</g>
<svg viewBox="0 0 15 15" width="100%" height="30px" preserveAspectRatio="xMaxYMin meet">
 <g id="arrow_out" transform="scale(0.3 0.3)">
  <a xlink:href="namespaceexamples_1_1tdesign_ae536e1afa6d09f1d3d8354727738b2df_cgraph_org.svg" target="_base">
   <rect id="button" ry="5" rx="5" y="6" x="6" height="38" width="38"
        fill="#f2f5e9" fill-opacity="0.5" stroke="#606060" stroke-width="1.0"/>
   <path id="arrow"
     d="M 11.500037,31.436501 C 11.940474,20.09759 22.043105,11.32322 32.158766,21.979434 L 37.068811,17.246167 C 37.068811,17.246167 37.088388,32 37.088388,32 L 22.160133,31.978069 C 22.160133,31.978069 26.997745,27.140456 26.997745,27.140456 C 18.528582,18.264221 13.291696,25.230495 11.500037,31.436501 z"
     style="fill:#404040;"/>
  </a>
 </g>
</svg>

<style type='text/css'>
<![CDATA[
[data-mouse-over-selected='false'] { opacity: 0.7; }
[data-mouse-over-selected='true']  { opacity: 1.0; }
]]>
</style>
<script type="application/ecmascript"><![CDATA[
document.addEventListener('DOMContentLoaded', (event) => {
  highlightEdges();
  highlightAdjacentNodes();
});
]]></script>
</svg>
