<?xml version="1.0" encoding="UTF-8" standalone="no"?>
<!DOCTYPE svg PUBLIC "-//W3C//DTD SVG 1.1//EN"
 "http://www.w3.org/Graphics/SVG/1.1/DTD/svg11.dtd">
<!-- Generated by graphviz version 12.2.1 (20241206.2353)
 -->
<!-- Title: examples.yahpo.opt_xgboost Pages: 1 -->
<!--zoomable 172 -->

<svg id="main" version="1.1" xmlns="http://www.w3.org/2000/svg" xmlns:xlink="http://www.w3.org/1999/xlink" xml:space="preserve" onload="init(evt)">

<style type="text/css"><![CDATA[
.node, .edge {opacity: 0.7;}
.node.selected, .edge.selected {opacity: 1;}
.edge:hover path { stroke: red; }
.edge:hover polygon { stroke: red; fill: red; }
]]></style>

<defs>
  <circle id="rim" cx="0" cy="0" r="7"/>
  <circle id="rim2" cx="0" cy="0" r="3.5"/>
  <g id="zoomPlus">
    <use xlink:href="#rim" fill="#404040"><set attributeName="fill" to="#808080" begin="zoomplus.mouseover" end="zoomplus.mouseout"/></use>
    <path d="M-4,0h8M0,-4v8" fill="none" stroke="white" stroke-width="1.5" pointer-events="none"/>
  </g>
  <g id="zoomMin">
    <use xlink:href="#rim" fill="#404040"><set attributeName="fill" to="#808080" begin="zoomminus.mouseover" end="zoomminus.mouseout"/></use>
    <path d="M-4,0h8" fill="none" stroke="white" stroke-width="1.5" pointer-events="none"/>
  </g>
  <g id="arrowUp" transform="translate(30 24)">
    <use xlink:href="#rim"/>
    <path pointer-events="none" fill="none" stroke="white" stroke-width="1.5" d="M0,-3.0v7 M-2.5,-0.5L0,-3.0L2.5,-0.5"/>
  </g>
  <g id="arrowRight" transform="rotate(90) translate(36 -43)">
    <use xlink:href="#rim"/>
    <path pointer-events="none" fill="none" stroke="white" stroke-width="1.5" d="M0,-3.0v7 M-2.5,-0.5L0,-3.0L2.5,-0.5"/>
  </g>
  <g id="arrowDown" transform="rotate(180) translate(-30 -48)">
    <use xlink:href="#rim"/>
    <path pointer-events="none" fill="none" stroke="white" stroke-width="1.5" d="M0,-3.0v7 M-2.5,-0.5L0,-3.0L2.5,-0.5"/>
  </g>
  <g id="arrowLeft" transform="rotate(270) translate(-36 17)">
    <use xlink:href="#rim"/>
    <path pointer-events="none" fill="none" stroke="white" stroke-width="1.5" d="M0,-3.0v7 M-2.5,-0.5L0,-3.0L2.5,-0.5"/>
  </g>
  <g id="resetDef">
    <use xlink:href="#rim2" fill="#404040"><set attributeName="fill" to="#808080" begin="reset.mouseover" end="reset.mouseout"/></use>
  </g>
</defs>
<script type="application/ecmascript">
var viewWidth = 729;
var viewHeight = 172;
var sectionId = 'dynsection-8';
</script>
<script type="application/ecmascript" xlink:href="svg.min.js"/>
<svg id="graph" class="graph">
<g id="viewport">
<title>examples.yahpo.opt_xgboost</title>
<!-- Node1 -->
<g id="Node000001" class="node">
<title>Node1</title>
<g id="a_Node000001"><a xlink:title=" ">
<polygon fill="#999999" stroke="#666666" points="103.75,-95 0,-95 0,-63 103.75,-63 103.75,-95"/>
<text text-anchor="start" x="8" y="-81.5" font-family="Helvetica,sans-Serif" font-size="10.00">examples.yahpo.opt</text>
<text text-anchor="middle" x="51.88" y="-69.5" font-family="Helvetica,sans-Serif" font-size="10.00">_xgboost</text>
</a>
</g>
</g>
<!-- Node2 -->
<g id="Node000002" class="node">
<title>Node2</title>
<g id="a_Node000002"><a xlink:href="namespaceexamples_1_1yahpo.html#ae80be8ace972b91258cc5d78d421d250" target="_top" xlink:title=" ">
<polygon fill="white" stroke="#666666" points="561.25,-164 434.25,-164 434.25,-132 561.25,-132 561.25,-164"/>
<text text-anchor="start" x="442.25" y="-150.5" font-family="Helvetica,sans-Serif" font-size="10.00">examples.yahpo.evaluate</text>
<text text-anchor="middle" x="497.75" y="-138.5" font-family="Helvetica,sans-Serif" font-size="10.00">_xgboost_</text>
</a>
</g>
</g>
<!-- Node1&#45;&gt;Node2 -->
<g id="edge1_Node000001_Node000002" class="edge">
<title>Node1&#45;&gt;Node2</title>
<g id="a_edge1_Node000001_Node000002"><a xlink:title=" ">
<path fill="none" stroke="#63b8ff" d="M103.86,-90.16C115.65,-92.73 128.14,-95.46 139.75,-98 202.86,-111.79 217.89,-119.25 281.75,-129 328.31,-136.11 380.97,-140.82 422.52,-143.77"/>
<polygon fill="#63b8ff" stroke="#63b8ff" points="422.21,-147.26 432.43,-144.45 422.69,-140.27 422.21,-147.26"/>
</a>
</g>
</g>
<!-- Node4 -->
<g id="Node000004" class="node">
<title>Node4</title>
<g id="a_Node000004"><a xlink:href="namespaceexamples_1_1yahpo.html#a00ed0fa5c4577f6841d751aa5de9beb4" target="_top" xlink:title=" ">
<polygon fill="white" stroke="#666666" points="245.75,-89 139.75,-89 139.75,-69 245.75,-69 245.75,-89"/>
<text text-anchor="middle" x="192.75" y="-75.5" font-family="Helvetica,sans-Serif" font-size="10.00">examples.yahpo.plot</text>
</a>
</g>
</g>
<!-- Node1&#45;&gt;Node4 -->
<g id="edge3_Node000001_Node000004" class="edge">
<title>Node1&#45;&gt;Node4</title>
<g id="a_edge3_Node000001_Node000004"><a xlink:title=" ">
<path fill="none" stroke="#63b8ff" d="M104.19,-72.46C111.88,-72.28 119.88,-72.21 127.78,-72.27"/>
<polygon fill="#63b8ff" stroke="#63b8ff" points="127.69,-75.77 137.74,-72.41 127.79,-68.77 127.69,-75.77"/>
</a>
</g>
</g>
<!-- Node3 -->
<g id="Node000003" class="node">
<title>Node3</title>
<g id="a_Node000003"><a xlink:href="namespaceexamples_1_1yahpo.html#a15c68f9f26552d8ed5597f36e8ddbb0e" target="_top" xlink:title=" ">
<polygon fill="white" stroke="#666666" points="720.5,-133 597.25,-133 597.25,-113 720.5,-113 720.5,-133"/>
<text text-anchor="middle" x="658.88" y="-119.5" font-family="Helvetica,sans-Serif" font-size="10.00">examples.yahpo.retrafo_</text>
</a>
</g>
</g>
<!-- Node2&#45;&gt;Node3 -->
<g id="edge2_Node000002_Node000003" class="edge">
<title>Node2&#45;&gt;Node3</title>
<g id="a_edge2_Node000002_Node000003"><a xlink:title=" ">
<path fill="none" stroke="#63b8ff" d="M561.64,-138.12C569.55,-136.88 577.69,-135.6 585.74,-134.33"/>
<polygon fill="#63b8ff" stroke="#63b8ff" points="586.17,-137.81 595.5,-132.8 585.08,-130.89 586.17,-137.81"/>
</a>
</g>
</g>
<!-- Node4&#45;&gt;Node1 -->
<g id="edge11_Node000004_Node000001" class="edge">
<title>Node4&#45;&gt;Node1</title>
<g id="a_edge11_Node000004_Node000001"><a xlink:title=" ">
<path fill="none" stroke="#63b8ff" d="M139.25,-85.57C131.54,-85.74 123.52,-85.79 115.63,-85.72"/>
<polygon fill="#63b8ff" stroke="#63b8ff" points="115.76,-82.22 105.71,-85.57 115.65,-89.22 115.76,-82.22"/>
</a>
</g>
</g>
<!-- Node5 -->
<g id="Node000005" class="node">
<title>Node5</title>
<g id="a_Node000005"><a xlink:href="namespaceexamples_1_1yahpo.html#aca8ebb42199ed8663e4d2fb1704bb11d" target="_top" xlink:title=" ">
<polygon fill="white" stroke="#666666" points="391.88,-120 288.12,-120 288.12,-88 391.88,-88 391.88,-120"/>
<text text-anchor="start" x="296.12" y="-106.5" font-family="Helvetica,sans-Serif" font-size="10.00">examples.yahpo.opt</text>
<text text-anchor="middle" x="340" y="-94.5" font-family="Helvetica,sans-Serif" font-size="10.00">_ranger_hardware</text>
</a>
</g>
</g>
<!-- Node4&#45;&gt;Node5 -->
<g id="edge4_Node000004_Node000005" class="edge">
<title>Node4&#45;&gt;Node5</title>
<g id="a_edge4_Node000004_Node000005"><a xlink:title=" ">
<path fill="none" stroke="#63b8ff" d="M246.19,-81.51C256.21,-83 266.8,-84.76 277.09,-86.66"/>
<polygon fill="#63b8ff" stroke="#63b8ff" points="276.13,-90.04 286.61,-88.48 277.45,-83.16 276.13,-90.04"/>
</a>
</g>
</g>
<!-- Node7 -->
<g id="Node000007" class="node">
<title>Node7</title>
<g id="a_Node000007"><a xlink:href="namespaceexamples_1_1yahpo.html#a657da003ad951471dc74d132dda50c01" target="_top" xlink:title=" ">
<polygon fill="white" stroke="#666666" points="397.12,-70 282.88,-70 282.88,-38 397.12,-38 397.12,-70"/>
<text text-anchor="start" x="290.88" y="-56.5" font-family="Helvetica,sans-Serif" font-size="10.00">examples.yahpo.opt</text>
<text text-anchor="middle" x="340" y="-44.5" font-family="Helvetica,sans-Serif" font-size="10.00">_ranger_interpretability</text>
</a>
</g>
</g>
<!-- Node4&#45;&gt;Node7 -->
<g id="edge8_Node000004_Node000007" class="edge">
<title>Node4&#45;&gt;Node7</title>
<g id="a_edge8_Node000004_Node000007"><a xlink:title=" ">
<path fill="none" stroke="#63b8ff" d="M222.45,-68.56C236.49,-65.22 254.03,-61.79 271.22,-58.93"/>
<polygon fill="#63b8ff" stroke="#63b8ff" points="271.6,-62.41 280.92,-57.38 270.49,-55.5 271.6,-62.41"/>
</a>
</g>
</g>
<!-- Node8 -->
<g id="Node000008" class="node">
<title>Node8</title>
<g id="a_Node000008"><a xlink:href="namespaceexamples_1_1yahpo.html#abed4facab8c6aaf0a992c93f39b25297" target="_top" xlink:title=" ">
<polygon fill="white" stroke="#666666" points="398.25,-20 281.75,-20 281.75,0 398.25,0 398.25,-20"/>
<text text-anchor="middle" x="340" y="-6.5" font-family="Helvetica,sans-Serif" font-size="10.00">examples.yahpo.plot3d</text>
</a>
</g>
</g>
<!-- Node4&#45;&gt;Node8 -->
<g id="edge12_Node000004_Node000008" class="edge">
<title>Node4&#45;&gt;Node8</title>
<g id="a_edge12_Node000004_Node000008"><a xlink:title=" ">
<path fill="none" stroke="#63b8ff" d="M209.79,-68.61C227.06,-57.73 255.58,-40.64 281.75,-29 285.35,-27.4 289.13,-25.86 292.96,-24.39"/>
<polygon fill="#63b8ff" stroke="#63b8ff" points="294.13,-27.69 302.35,-21 291.75,-21.11 294.13,-27.69"/>
</a>
</g>
</g>
<!-- Node5&#45;&gt;Node4 -->
<g id="edge7_Node000005_Node000004" class="edge">
<title>Node5&#45;&gt;Node4</title>
<g id="a_edge7_Node000005_Node000004"><a xlink:title=" ">
<path fill="none" stroke="#63b8ff" d="M287.72,-101.66C269.92,-99.05 250.23,-95.53 233.5,-91.94"/>
<polygon fill="#63b8ff" stroke="#63b8ff" points="234.45,-88.56 223.92,-89.78 232.91,-95.39 234.45,-88.56"/>
</a>
</g>
</g>
<!-- Node6 -->
<g id="Node000006" class="node">
<title>Node6</title>
<g id="a_Node000006"><a xlink:href="namespaceexamples_1_1yahpo.html#aafb5885cf1e9c035878faf3bee87ccb0" target="_top" xlink:title=" ">
<polygon fill="white" stroke="#666666" points="561.25,-114 434.25,-114 434.25,-82 561.25,-82 561.25,-114"/>
<text text-anchor="start" x="442.25" y="-100.5" font-family="Helvetica,sans-Serif" font-size="10.00">examples.yahpo.evaluate</text>
<text text-anchor="middle" x="497.75" y="-88.5" font-family="Helvetica,sans-Serif" font-size="10.00">_ranger_</text>
</a>
</g>
</g>
<!-- Node5&#45;&gt;Node6 -->
<g id="edge5_Node000005_Node000006" class="edge">
<title>Node5&#45;&gt;Node6</title>
<g id="a_edge5_Node000005_Node000006"><a xlink:title=" ">
<path fill="none" stroke="#63b8ff" d="M392,-102.04C401.84,-101.66 412.33,-101.25 422.72,-100.85"/>
<polygon fill="#63b8ff" stroke="#63b8ff" points="422.57,-104.36 432.42,-100.48 422.3,-97.37 422.57,-104.36"/>
</a>
</g>
</g>
<!-- Node6&#45;&gt;Node3 -->
<g id="edge6_Node000006_Node000003" class="edge">
<title>Node6&#45;&gt;Node3</title>
<g id="a_edge6_Node000006_Node000003"><a xlink:title=" ">
<path fill="none" stroke="#63b8ff" d="M561.64,-107.88C569.55,-109.12 577.69,-110.4 585.74,-111.67"/>
<polygon fill="#63b8ff" stroke="#63b8ff" points="585.08,-115.11 595.5,-113.2 586.17,-108.19 585.08,-115.11"/>
</a>
</g>
</g>
<!-- Node7&#45;&gt;Node4 -->
<g id="edge10_Node000007_Node000004" class="edge">
<title>Node7&#45;&gt;Node4</title>
<g id="a_edge10_Node000007_Node000004"><a xlink:title=" ">
<path fill="none" stroke="#63b8ff" d="M282.71,-70.28C274.45,-71.86 265.89,-73.37 257.5,-74.73"/>
<polygon fill="#63b8ff" stroke="#63b8ff" points="257.03,-71.26 247.68,-76.26 258.1,-78.18 257.03,-71.26"/>
</a>
</g>
</g>
<!-- Node7&#45;&gt;Node6 -->
<g id="edge9_Node000007_Node000006" class="edge">
<title>Node7&#45;&gt;Node6</title>
<g id="a_edge9_Node000007_Node000006"><a xlink:title=" ">
<path fill="none" stroke="#63b8ff" d="M397.23,-69.89C407.08,-72.67 417.44,-75.59 427.6,-78.46"/>
<polygon fill="#63b8ff" stroke="#63b8ff" points="426.47,-81.78 437.05,-81.13 428.38,-75.05 426.47,-81.78"/>
</a>
</g>
</g>
</g>
</svg>

<g id="navigator" transform="translate(0 0)" fill="#404254">
  <rect fill="#f2f5e9" fill-opacity="0.5" stroke="#606060" stroke-width=".5" x="0" y="0" width="60" height="60"/>
  <use id="zoomplus" xlink:href="#zoomPlus" x="17" y="9" onmousedown="handleZoom(evt,'in')"/>
  <use id="zoomminus" xlink:href="#zoomMin" x="42" y="9" onmousedown="handleZoom(evt,'out')"/>
  <use id="reset" xlink:href="#resetDef" x="30" y="36" onmousedown="handleReset()"/>
   <use id="arrowup" xlink:href="#arrowUp" x="0" y="0" onmousedown="handlePan(0,-1)"/>
  <use id="arrowright" xlink:href="#arrowRight" x="0" y="0" onmousedown="handlePan(1,0)"/>
  <use id="arrowdown" xlink:href="#arrowDown" x="0" y="0" onmousedown="handlePan(0,1)"/>
  <use id="arrowleft" xlink:href="#arrowLeft" x="0" y="0" onmousedown="handlePan(-1,0)"/>
</g>
<svg viewBox="0 0 15 15" width="100%" height="30px" preserveAspectRatio="xMaxYMin meet">
 <g id="arrow_out" transform="scale(0.3 0.3)">
  <a xlink:href="namespaceexamples_1_1yahpo_aa0f008c277a52f11bb7ae3430c49384c_cgraph_org.svg" target="_base">
   <rect id="button" ry="5" rx="5" y="6" x="6" height="38" width="38"
        fill="#f2f5e9" fill-opacity="0.5" stroke="#606060" stroke-width="1.0"/>
   <path id="arrow"
     d="M 11.500037,31.436501 C 11.940474,20.09759 22.043105,11.32322 32.158766,21.979434 L 37.068811,17.246167 C 37.068811,17.246167 37.088388,32 37.088388,32 L 22.160133,31.978069 C 22.160133,31.978069 26.997745,27.140456 26.997745,27.140456 C 18.528582,18.264221 13.291696,25.230495 11.500037,31.436501 z"
     style="fill:#404040;"/>
  </a>
 </g>
</svg>

<style type='text/css'>
<![CDATA[
[data-mouse-over-selected='false'] { opacity: 0.7; }
[data-mouse-over-selected='true']  { opacity: 1.0; }
]]>
</style>
<script type="application/ecmascript"><![CDATA[
document.addEventListener('DOMContentLoaded', (event) => {
  highlightEdges();
  highlightAdjacentNodes();
});
]]></script>
</svg>
