<?xml version="1.0" encoding="UTF-8" standalone="no"?>
<!DOCTYPE svg PUBLIC "-//W3C//DTD SVG 1.1//EN"
 "http://www.w3.org/Graphics/SVG/1.1/DTD/svg11.dtd">
<!-- Generated by graphviz version 12.2.1 (20241206.2353)
 -->
<!-- Title: examples.prophet_opt.convert_x Pages: 1 -->
<!--zoomable 146 -->

<svg id="main" version="1.1" xmlns="http://www.w3.org/2000/svg" xmlns:xlink="http://www.w3.org/1999/xlink" xml:space="preserve" onload="init(evt)">

<style type="text/css"><![CDATA[
.node, .edge {opacity: 0.7;}
.node.selected, .edge.selected {opacity: 1;}
.edge:hover path { stroke: red; }
.edge:hover polygon { stroke: red; fill: red; }
]]></style>

<defs>
  <circle id="rim" cx="0" cy="0" r="7"/>
  <circle id="rim2" cx="0" cy="0" r="3.5"/>
  <g id="zoomPlus">
    <use xlink:href="#rim" fill="#404040"><set attributeName="fill" to="#808080" begin="zoomplus.mouseover" end="zoomplus.mouseout"/></use>
    <path d="M-4,0h8M0,-4v8" fill="none" stroke="white" stroke-width="1.5" pointer-events="none"/>
  </g>
  <g id="zoomMin">
    <use xlink:href="#rim" fill="#404040"><set attributeName="fill" to="#808080" begin="zoomminus.mouseover" end="zoomminus.mouseout"/></use>
    <path d="M-4,0h8" fill="none" stroke="white" stroke-width="1.5" pointer-events="none"/>
  </g>
  <g id="arrowUp" transform="translate(30 24)">
    <use xlink:href="#rim"/>
    <path pointer-events="none" fill="none" stroke="white" stroke-width="1.5" d="M0,-3.0v7 M-2.5,-0.5L0,-3.0L2.5,-0.5"/>
  </g>
  <g id="arrowRight" transform="rotate(90) translate(36 -43)">
    <use xlink:href="#rim"/>
    <path pointer-events="none" fill="none" stroke="white" stroke-width="1.5" d="M0,-3.0v7 M-2.5,-0.5L0,-3.0L2.5,-0.5"/>
  </g>
  <g id="arrowDown" transform="rotate(180) translate(-30 -48)">
    <use xlink:href="#rim"/>
    <path pointer-events="none" fill="none" stroke="white" stroke-width="1.5" d="M0,-3.0v7 M-2.5,-0.5L0,-3.0L2.5,-0.5"/>
  </g>
  <g id="arrowLeft" transform="rotate(270) translate(-36 17)">
    <use xlink:href="#rim"/>
    <path pointer-events="none" fill="none" stroke="white" stroke-width="1.5" d="M0,-3.0v7 M-2.5,-0.5L0,-3.0L2.5,-0.5"/>
  </g>
  <g id="resetDef">
    <use xlink:href="#rim2" fill="#404040"><set attributeName="fill" to="#808080" begin="reset.mouseover" end="reset.mouseout"/></use>
  </g>
</defs>
<script type="application/ecmascript">
var viewWidth = 553;
var viewHeight = 146;
var sectionId = 'dynsection-6';
</script>
<script type="application/ecmascript" xlink:href="svg.min.js"/>
<svg id="graph" class="graph">
<g id="viewport">
<title>examples.prophet_opt.convert_x</title>
<!-- Node1 -->
<g id="Node000001" class="node">
<title>Node1</title>
<g id="a_Node000001"><a xlink:title=" ">
<polygon fill="#999999" stroke="#666666" points="544.5,-60 386.75,-60 386.75,-40 544.5,-40 544.5,-60"/>
<text text-anchor="middle" x="465.62" y="-46.5" font-family="Helvetica,sans-Serif" font-size="10.00">examples.prophet_opt.convert_x</text>
</a>
</g>
</g>
<!-- Node2 -->
<g id="Node000002" class="node">
<title>Node2</title>
<g id="a_Node000002"><a xlink:href="namespaceexamples_1_1prophet__opt.html#a18a248c54de45c4841f27809e3a642b1" target="_top" xlink:title=" ">
<polygon fill="white" stroke="#666666" points="342.88,-94 214.38,-94 214.38,-62 342.88,-62 342.88,-94"/>
<text text-anchor="start" x="222.38" y="-80.5" font-family="Helvetica,sans-Serif" font-size="10.00">examples.prophet_opt.btc</text>
<text text-anchor="middle" x="278.62" y="-68.5" font-family="Helvetica,sans-Serif" font-size="10.00">_show_x</text>
</a>
</g>
</g>
<!-- Node1&#45;&gt;Node2 -->
<g id="edge1_Node000001_Node000002" class="edge">
<title>Node1&#45;&gt;Node2</title>
<g id="a_edge1_Node000001_Node000002"><a xlink:title=" ">
<path fill="none" stroke="#63b8ff" d="M384.5,-62.13C370.69,-64.22 356.5,-66.37 343.19,-68.38"/>
<polygon fill="#63b8ff" stroke="#63b8ff" points="384.61,-65.65 393.98,-60.69 383.57,-58.73 384.61,-65.65"/>
</a>
</g>
</g>
<!-- Node6 -->
<g id="Node000006" class="node">
<title>Node6</title>
<g id="a_Node000006"><a xlink:href="namespaceexamples_1_1prophet__opt.html#ab552129c694447ce6fc44ad3f49825e9" target="_top" xlink:title=" ">
<polygon fill="white" stroke="#666666" points="350.75,-38 206.5,-38 206.5,-18 350.75,-18 350.75,-38"/>
<text text-anchor="middle" x="278.62" y="-24.5" font-family="Helvetica,sans-Serif" font-size="10.00">examples.prophet_opt.fitness</text>
</a>
</g>
</g>
<!-- Node1&#45;&gt;Node6 -->
<g id="edge6_Node000001_Node000006" class="edge">
<title>Node1&#45;&gt;Node6</title>
<g id="a_edge6_Node000001_Node000006"><a xlink:title=" ">
<path fill="none" stroke="#63b8ff" d="M375.09,-39.35C367.03,-38.39 358.94,-37.43 351.07,-36.5"/>
<polygon fill="#63b8ff" stroke="#63b8ff" points="374.59,-42.82 384.93,-40.52 375.42,-35.87 374.59,-42.82"/>
</a>
</g>
</g>
<!-- Node3 -->
<g id="Node000003" class="node">
<title>Node3</title>
<g id="a_Node000003"><a xlink:href="namespaceexamples_1_1prophet__opt.html#a89edb34f6787ecf7671d592512524b7f" target="_top" xlink:title=" ">
<polygon fill="white" stroke="#666666" points="170.5,-138 0,-138 0,-118 170.5,-118 170.5,-138"/>
<text text-anchor="middle" x="85.25" y="-124.5" font-family="Helvetica,sans-Serif" font-size="10.00">examples.prophet_opt.optimize_btc</text>
</a>
</g>
</g>
<!-- Node2&#45;&gt;Node3 -->
<g id="edge2_Node000002_Node000003" class="edge">
<title>Node2&#45;&gt;Node3</title>
<g id="a_edge2_Node000002_Node000003"><a xlink:title=" ">
<path fill="none" stroke="#63b8ff" d="M212.19,-97.61C198.46,-101.53 184.04,-105.52 170.5,-109 159.03,-111.95 146.61,-114.89 134.93,-117.54"/>
<polygon fill="#63b8ff" stroke="#63b8ff" points="212.93,-101.04 221.57,-94.9 210.99,-94.31 212.93,-101.04"/>
</a>
</g>
</g>
<!-- Node4 -->
<g id="Node000004" class="node">
<title>Node4</title>
<g id="a_Node000004"><a xlink:href="namespaceexamples_1_1prophet__opt.html#a6036ff4e616cbf09671db7d938061190" target="_top" xlink:title=" ">
<polygon fill="white" stroke="#666666" points="161.12,-100 9.38,-100 9.38,-68 161.12,-68 161.12,-100"/>
<text text-anchor="start" x="17.38" y="-86.5" font-family="Helvetica,sans-Serif" font-size="10.00">examples.prophet_opt.optimize</text>
<text text-anchor="middle" x="85.25" y="-74.5" font-family="Helvetica,sans-Serif" font-size="10.00">_btc_ask_tell</text>
</a>
</g>
</g>
<!-- Node2&#45;&gt;Node4 -->
<g id="edge3_Node000002_Node000004" class="edge">
<title>Node2&#45;&gt;Node4</title>
<g id="a_edge3_Node000002_Node000004"><a xlink:title=" ">
<path fill="none" stroke="#63b8ff" d="M202.65,-80.35C189.06,-80.78 174.89,-81.22 161.31,-81.65"/>
<polygon fill="#63b8ff" stroke="#63b8ff" points="202.5,-83.86 212.39,-80.05 202.28,-76.86 202.5,-83.86"/>
</a>
</g>
</g>
<!-- Node5 -->
<g id="Node000005" class="node">
<title>Node5</title>
<g id="a_Node000005"><a xlink:href="namespaceexamples_1_1prophet__opt.html#ae9fc3dd94248f2146ad53fcf139d55fb" target="_top" xlink:title=" ">
<polygon fill="white" stroke="#666666" points="154.38,-32 16.12,-32 16.12,0 154.38,0 154.38,-32"/>
<text text-anchor="start" x="24.12" y="-18.5" font-family="Helvetica,sans-Serif" font-size="10.00">examples.prophet_opt.show</text>
<text text-anchor="middle" x="85.25" y="-6.5" font-family="Helvetica,sans-Serif" font-size="10.00">_good_result</text>
</a>
</g>
</g>
<!-- Node2&#45;&gt;Node5 -->
<g id="edge4_Node000002_Node000005" class="edge">
<title>Node2&#45;&gt;Node5</title>
<g id="a_edge4_Node000002_Node000005"><a xlink:title=" ">
<path fill="none" stroke="#63b8ff" d="M216.14,-58.08C190.57,-49.8 161.24,-40.3 136.94,-32.42"/>
<polygon fill="#63b8ff" stroke="#63b8ff" points="214.81,-61.33 225.4,-61.08 216.97,-54.67 214.81,-61.33"/>
</a>
</g>
</g>
<!-- Node5&#45;&gt;Node5 -->
<g id="edge5_Node000005_Node000005" class="edge">
<title>Node5&#45;&gt;Node5</title>
<g id="a_edge5_Node000005_Node000005"><a xlink:title=" ">
<path fill="none" stroke="#63b8ff" d="M117.48,-43.71C112.1,-47.48 101.36,-50 85.25,-50 55.79,-50 44.28,-41.58 50.73,-32.44"/>
<polygon fill="#63b8ff" stroke="#63b8ff" points="120.9,-44.42 119.47,-33.93 114.04,-43.02 120.9,-44.42"/>
</a>
</g>
</g>
<!-- Node6&#45;&gt;Node5 -->
<g id="edge7_Node000006_Node000005" class="edge">
<title>Node6&#45;&gt;Node5</title>
<g id="a_edge7_Node000006_Node000005"><a xlink:title=" ">
<path fill="none" stroke="#63b8ff" d="M194.96,-22.82C181.57,-21.98 167.84,-21.12 154.84,-20.3"/>
<polygon fill="#63b8ff" stroke="#63b8ff" points="194.38,-26.29 204.58,-23.42 194.82,-19.3 194.38,-26.29"/>
</a>
</g>
</g>
</g>
</svg>

<g id="navigator" transform="translate(0 0)" fill="#404254">
  <rect fill="#f2f5e9" fill-opacity="0.5" stroke="#606060" stroke-width=".5" x="0" y="0" width="60" height="60"/>
  <use id="zoomplus" xlink:href="#zoomPlus" x="17" y="9" onmousedown="handleZoom(evt,'in')"/>
  <use id="zoomminus" xlink:href="#zoomMin" x="42" y="9" onmousedown="handleZoom(evt,'out')"/>
  <use id="reset" xlink:href="#resetDef" x="30" y="36" onmousedown="handleReset()"/>
   <use id="arrowup" xlink:href="#arrowUp" x="0" y="0" onmousedown="handlePan(0,-1)"/>
  <use id="arrowright" xlink:href="#arrowRight" x="0" y="0" onmousedown="handlePan(1,0)"/>
  <use id="arrowdown" xlink:href="#arrowDown" x="0" y="0" onmousedown="handlePan(0,1)"/>
  <use id="arrowleft" xlink:href="#arrowLeft" x="0" y="0" onmousedown="handlePan(-1,0)"/>
</g>
<svg viewBox="0 0 15 15" width="100%" height="30px" preserveAspectRatio="xMaxYMin meet">
 <g id="arrow_out" transform="scale(0.3 0.3)">
  <a xlink:href="namespaceexamples_1_1prophet__opt_a6de43eaac1a61a76257187d2827f2ece_icgraph_org.svg" target="_base">
   <rect id="button" ry="5" rx="5" y="6" x="6" height="38" width="38"
        fill="#f2f5e9" fill-opacity="0.5" stroke="#606060" stroke-width="1.0"/>
   <path id="arrow"
     d="M 11.500037,31.436501 C 11.940474,20.09759 22.043105,11.32322 32.158766,21.979434 L 37.068811,17.246167 C 37.068811,17.246167 37.088388,32 37.088388,32 L 22.160133,31.978069 C 22.160133,31.978069 26.997745,27.140456 26.997745,27.140456 C 18.528582,18.264221 13.291696,25.230495 11.500037,31.436501 z"
     style="fill:#404040;"/>
  </a>
 </g>
</svg>

<style type='text/css'>
<![CDATA[
[data-mouse-over-selected='false'] { opacity: 0.7; }
[data-mouse-over-selected='true']  { opacity: 1.0; }
]]>
</style>
<script type="application/ecmascript"><![CDATA[
document.addEventListener('DOMContentLoaded', (event) => {
  highlightEdges();
  highlightAdjacentNodes();
});
]]></script>
</svg>
