<?xml version="1.0" encoding="UTF-8" standalone="no"?>
<!DOCTYPE svg PUBLIC "-//W3C//DTD SVG 1.1//EN"
 "http://www.w3.org/Graphics/SVG/1.1/DTD/svg11.dtd">
<!-- Generated by graphviz version 12.2.1 (20241206.2353)
 -->
<!-- Title: fcmaes.moretry.plot Pages: 1 -->
<svg width="293pt" height="66pt"
 viewBox="0.00 0.00 292.75 66.00" xmlns="http://www.w3.org/2000/svg" xmlns:xlink="http://www.w3.org/1999/xlink">
<g id="graph0" class="graph" transform="scale(1 1) rotate(0) translate(4 62)">
<title>fcmaes.moretry.plot</title>
<!-- Node1 -->
<g id="Node000001" class="node">
<title>Node1</title>
<g id="a_Node000001"><a xlink:title="Plots the feasible solution space and Pareto front for a given set of data points.">
<polygon fill="#999999" stroke="#666666" points="284.75,-39 182.5,-39 182.5,-19 284.75,-19 284.75,-39"/>
<text text-anchor="middle" x="233.62" y="-25.5" font-family="Helvetica,sans-Serif" font-size="10.00">fcmaes.moretry.plot</text>
</a>
</g>
</g>
<!-- Node2 -->
<g id="Node000002" class="node">
<title>Node2</title>
<g id="a_Node000002"><a xlink:href="namespacefcmaes_1_1moretry.html#a2015c92ea717d0ce4849a00282a56d96" target="_top" xlink:title="Executes a retry loop strategy for multi&#45;objective optimization.">
<polygon fill="white" stroke="#666666" points="140.5,-58 6,-58 6,-38 140.5,-38 140.5,-58"/>
<text text-anchor="middle" x="73.25" y="-44.5" font-family="Helvetica,sans-Serif" font-size="10.00">fcmaes.moretry._retry_loop</text>
</a>
</g>
</g>
<!-- Node1&#45;&gt;Node2 -->
<g id="edge1_Node000001_Node000002" class="edge">
<title>Node1&#45;&gt;Node2</title>
<g id="a_edge1_Node000001_Node000002"><a xlink:title=" ">
<path fill="none" stroke="#63b8ff" d="M170.75,-36.42C160.93,-37.6 150.73,-38.83 140.8,-40.02"/>
<polygon fill="#63b8ff" stroke="#63b8ff" points="171.06,-39.91 180.58,-35.24 170.23,-32.96 171.06,-39.91"/>
</a>
</g>
</g>
<!-- Node3 -->
<g id="Node000003" class="node">
<title>Node3</title>
<g id="a_Node000003"><a xlink:href="namespacefcmaes_1_1moretry.html#a9afe8f9041254063275650e3dc56b77e" target="_top" xlink:title="Minimizes a given function using a specified optimizer and plots the results.">
<polygon fill="white" stroke="#666666" points="146.5,-20 0,-20 0,0 146.5,0 146.5,-20"/>
<text text-anchor="middle" x="73.25" y="-6.5" font-family="Helvetica,sans-Serif" font-size="10.00">fcmaes.moretry.minimize_plot</text>
</a>
</g>
</g>
<!-- Node1&#45;&gt;Node3 -->
<g id="edge2_Node000001_Node000003" class="edge">
<title>Node1&#45;&gt;Node3</title>
<g id="a_edge2_Node000001_Node000003"><a xlink:title=" ">
<path fill="none" stroke="#63b8ff" d="M170.78,-21.58C162.93,-20.64 154.83,-19.67 146.83,-18.71"/>
<polygon fill="#63b8ff" stroke="#63b8ff" points="170.23,-25.04 180.58,-22.76 171.06,-18.09 170.23,-25.04"/>
</a>
</g>
</g>
</g>
</svg>
