<?xml version="1.0" encoding="UTF-8" standalone="no"?>
<!DOCTYPE svg PUBLIC "-//W3C//DTD SVG 1.1//EN"
 "http://www.w3.org/Graphics/SVG/1.1/DTD/svg11.dtd">
<!-- Generated by graphviz version 12.2.1 (20241206.2353)
 -->
<!-- Title: examples.gear_train.print_result Pages: 1 -->
<svg width="293pt" height="108pt"
 viewBox="0.00 0.00 292.75 108.00" xmlns="http://www.w3.org/2000/svg" xmlns:xlink="http://www.w3.org/1999/xlink">
<g id="graph0" class="graph" transform="scale(1 1) rotate(0) translate(4 104)">
<title>examples.gear_train.print_result</title>
<!-- Node1 -->
<g id="Node000001" class="node">
<title>Node1</title>
<g id="a_Node000001"><a xlink:title=" ">
<polygon fill="#999999" stroke="#666666" points="284.75,-66 159.25,-66 159.25,-34 284.75,-34 284.75,-66"/>
<text text-anchor="start" x="167.25" y="-52.5" font-family="Helvetica,sans-Serif" font-size="10.00">examples.gear_train.print</text>
<text text-anchor="middle" x="222" y="-40.5" font-family="Helvetica,sans-Serif" font-size="10.00">_result</text>
</a>
</g>
</g>
<!-- Node2 -->
<g id="Node000002" class="node">
<title>Node2</title>
<g id="a_Node000002"><a xlink:href="namespaceexamples_1_1gear__train.html#a6942c7e5c634c2d56ccc8e6991db3725" target="_top" xlink:title=" ">
<polygon fill="white" stroke="#666666" points="123.25,-100 0,-100 0,-68 123.25,-68 123.25,-100"/>
<text text-anchor="start" x="8" y="-86.5" font-family="Helvetica,sans-Serif" font-size="10.00">examples.gear_train.test</text>
<text text-anchor="middle" x="61.62" y="-74.5" font-family="Helvetica,sans-Serif" font-size="10.00">_optimizer</text>
</a>
</g>
</g>
<!-- Node1&#45;&gt;Node2 -->
<g id="edge1_Node000001_Node000002" class="edge">
<title>Node1&#45;&gt;Node2</title>
<g id="a_edge1_Node000001_Node000002"><a xlink:title=" ">
<path fill="none" stroke="#63b8ff" d="M147.86,-65.7C139.72,-67.45 131.51,-69.21 123.55,-70.92"/>
<polygon fill="#63b8ff" stroke="#63b8ff" points="148.34,-69.18 157.38,-63.66 146.87,-62.33 148.34,-69.18"/>
</a>
</g>
</g>
<!-- Node3 -->
<g id="Node000003" class="node">
<title>Node3</title>
<g id="a_Node000003"><a xlink:href="namespaceexamples_1_1gear__train.html#aedfd50e048f3a8af3a3782a7e4b76fb1" target="_top" xlink:title=" ">
<polygon fill="white" stroke="#666666" points="123.25,-32 0,-32 0,0 123.25,0 123.25,-32"/>
<text text-anchor="start" x="8" y="-18.5" font-family="Helvetica,sans-Serif" font-size="10.00">examples.gear_train.test</text>
<text text-anchor="middle" x="61.62" y="-6.5" font-family="Helvetica,sans-Serif" font-size="10.00">_optimizer_adv</text>
</a>
</g>
</g>
<!-- Node1&#45;&gt;Node3 -->
<g id="edge2_Node000001_Node000003" class="edge">
<title>Node1&#45;&gt;Node3</title>
<g id="a_edge2_Node000001_Node000003"><a xlink:title=" ">
<path fill="none" stroke="#63b8ff" d="M147.86,-34.3C139.72,-32.55 131.51,-30.79 123.55,-29.08"/>
<polygon fill="#63b8ff" stroke="#63b8ff" points="146.87,-37.67 157.38,-36.34 148.34,-30.82 146.87,-37.67"/>
</a>
</g>
</g>
<!-- Node3&#45;&gt;Node3 -->
<g id="edge3_Node000003_Node000003" class="edge">
<title>Node3&#45;&gt;Node3</title>
<g id="a_edge3_Node000003_Node000003"><a xlink:title=" ">
<path fill="none" stroke="#63b8ff" d="M88.35,-43.71C83.89,-47.48 74.99,-50 61.62,-50 37.19,-50 27.65,-41.58 32.99,-32.44"/>
<polygon fill="#63b8ff" stroke="#63b8ff" points="91.79,-44.38 90,-33.94 84.88,-43.21 91.79,-44.38"/>
</a>
</g>
</g>
</g>
</svg>
