<?xml version="1.0" encoding="UTF-8" standalone="no"?>
<!DOCTYPE svg PUBLIC "-//W3C//DTD SVG 1.1//EN"
 "http://www.w3.org/Graphics/SVG/1.1/DTD/svg11.dtd">
<!-- Generated by graphviz version 12.2.1 (20241206.2353)
 -->
<!-- Title: examples.scheduling.ast_num Pages: 1 -->
<svg width="715pt" height="40pt"
 viewBox="0.00 0.00 714.75 40.00" xmlns="http://www.w3.org/2000/svg" xmlns:xlink="http://www.w3.org/1999/xlink">
<g id="graph0" class="graph" transform="scale(1 1) rotate(0) translate(4 36)">
<title>examples.scheduling.ast_num</title>
<!-- Node1 -->
<g id="Node000001" class="node">
<title>Node1</title>
<g id="a_Node000001"><a xlink:title=" ">
<polygon fill="#999999" stroke="#666666" points="148,-26 0,-26 0,-6 148,-6 148,-26"/>
<text text-anchor="middle" x="74" y="-12.5" font-family="Helvetica,sans-Serif" font-size="10.00">examples.scheduling.ast_num</text>
</a>
</g>
</g>
<!-- Node2 -->
<g id="Node000002" class="node">
<title>Node2</title>
<g id="a_Node000002"><a xlink:href="namespaceexamples_1_1scheduling.html#a65b621b377aebb2c8a0b9af590aa280d" target="_top" xlink:title=" ">
<polygon fill="white" stroke="#666666" points="335,-32 184,-32 184,0 335,0 335,-32"/>
<text text-anchor="start" x="192" y="-18.5" font-family="Helvetica,sans-Serif" font-size="10.00">examples.scheduling.trajectory</text>
<text text-anchor="middle" x="259.5" y="-6.5" font-family="Helvetica,sans-Serif" font-size="10.00">_selection</text>
</a>
</g>
</g>
<!-- Node1&#45;&gt;Node2 -->
<g id="edge1_Node000001_Node000002" class="edge">
<title>Node1&#45;&gt;Node2</title>
<g id="a_edge1_Node000001_Node000002"><a xlink:title=" ">
<path fill="none" stroke="#63b8ff" d="M148.32,-16C156.19,-16 164.25,-16 172.25,-16"/>
<polygon fill="#63b8ff" stroke="#63b8ff" points="171.99,-19.5 181.99,-16 171.99,-12.5 171.99,-19.5"/>
</a>
</g>
</g>
<!-- Node3 -->
<g id="Node000003" class="node">
<title>Node3</title>
<g id="a_Node000003"><a xlink:href="namespaceexamples_1_1scheduling.html#a9b78175a9bd193289a2db7a992840231" target="_top" xlink:title=" ">
<polygon fill="white" stroke="#666666" points="519.75,-26 371,-26 371,-6 519.75,-6 519.75,-26"/>
<text text-anchor="middle" x="445.38" y="-12.5" font-family="Helvetica,sans-Serif" font-size="10.00">examples.scheduling.disjoined</text>
</a>
</g>
</g>
<!-- Node2&#45;&gt;Node3 -->
<g id="edge2_Node000002_Node000003" class="edge">
<title>Node2&#45;&gt;Node3</title>
<g id="a_edge2_Node000002_Node000003"><a xlink:title=" ">
<path fill="none" stroke="#63b8ff" d="M335.29,-16C343.2,-16 351.28,-16 359.29,-16"/>
<polygon fill="#63b8ff" stroke="#63b8ff" points="359.03,-19.5 369.03,-16 359.03,-12.5 359.03,-19.5"/>
</a>
</g>
</g>
<!-- Node4 -->
<g id="Node000004" class="node">
<title>Node4</title>
<g id="a_Node000004"><a xlink:href="namespaceexamples_1_1scheduling.html#a171925bee0250e0755f9521ef6756bc7" target="_top" xlink:title=" ">
<polygon fill="white" stroke="#666666" points="706.75,-26 555.75,-26 555.75,-6 706.75,-6 706.75,-26"/>
<text text-anchor="middle" x="631.25" y="-12.5" font-family="Helvetica,sans-Serif" font-size="10.00">examples.scheduling.next_free</text>
</a>
</g>
</g>
<!-- Node3&#45;&gt;Node4 -->
<g id="edge3_Node000003_Node000004" class="edge">
<title>Node3&#45;&gt;Node4</title>
<g id="a_edge3_Node000003_Node000004"><a xlink:title=" ">
<path fill="none" stroke="#63b8ff" d="M520.1,-16C527.98,-16 536.05,-16 544.05,-16"/>
<polygon fill="#63b8ff" stroke="#63b8ff" points="543.79,-19.5 553.79,-16 543.79,-12.5 543.79,-19.5"/>
</a>
</g>
</g>
</g>
</svg>
