<?xml version="1.0" encoding="UTF-8" standalone="no"?>
<!DOCTYPE svg PUBLIC "-//W3C//DTD SVG 1.1//EN"
 "http://www.w3.org/Graphics/SVG/1.1/DTD/svg11.dtd">
<!-- Generated by graphviz version 12.2.1 (20241206.2353)
 -->
<!-- Title: fcmaes.retry.minimize_plot Pages: 1 -->
<svg width="396pt" height="46pt"
 viewBox="0.00 0.00 395.75 46.00" xmlns="http://www.w3.org/2000/svg" xmlns:xlink="http://www.w3.org/1999/xlink">
<g id="graph0" class="graph" transform="scale(1 1) rotate(0) translate(4 42)">
<title>fcmaes.retry.minimize_plot</title>
<!-- Node1 -->
<g id="Node000001" class="node">
<title>Node1</title>
<g id="a_Node000001"><a xlink:title="Minimizes an optimization problem and plots the improvement process while storing results.">
<polygon fill="#999999" stroke="#666666" points="133,-20 0,-20 0,0 133,0 133,-20"/>
<text text-anchor="middle" x="66.5" y="-6.5" font-family="Helvetica,sans-Serif" font-size="10.00">fcmaes.retry.minimize_plot</text>
</a>
</g>
</g>
<!-- Node2 -->
<g id="Node000002" class="node">
<title>Node2</title>
<g id="a_Node000002"><a xlink:href="namespacefcmaes_1_1retry.html#a52b831afcdd723de9f72a3430e75afe8" target="_top" xlink:title="Plots a given front using either 2D or 3D visualization, with options for interpolation and customiza...">
<polygon fill="white" stroke="#666666" points="257.75,-20 169,-20 169,0 257.75,0 257.75,-20"/>
<text text-anchor="middle" x="213.38" y="-6.5" font-family="Helvetica,sans-Serif" font-size="10.00">fcmaes.retry.plot</text>
</a>
</g>
</g>
<!-- Node1&#45;&gt;Node2 -->
<g id="edge1_Node000001_Node000002" class="edge">
<title>Node1&#45;&gt;Node2</title>
<g id="a_edge1_Node000001_Node000002"><a xlink:title=" ">
<path fill="none" stroke="#63b8ff" d="M133.16,-10C141.2,-10 149.36,-10 157.24,-10"/>
<polygon fill="#63b8ff" stroke="#63b8ff" points="157,-13.5 167,-10 157,-6.5 157,-13.5"/>
</a>
</g>
</g>
<!-- Node2&#45;&gt;Node2 -->
<g id="edge2_Node000002_Node000002" class="edge">
<title>Node2&#45;&gt;Node2</title>
<g id="a_edge2_Node000002_Node000002"><a xlink:title=" ">
<path fill="none" stroke="#63b8ff" d="M193.14,-20.34C184.49,-28.98 191.23,-38 213.38,-38 225.48,-38 232.99,-35.3 235.89,-31.44"/>
<polygon fill="#63b8ff" stroke="#63b8ff" points="239.35,-30.92 233.92,-21.82 232.5,-32.32 239.35,-30.92"/>
</a>
</g>
</g>
<!-- Node3 -->
<g id="Node000003" class="node">
<title>Node3</title>
<g id="a_Node000003"><a xlink:href="namespacefcmaes_1_1retry.html#a754240fc233254e554ddcc58503d84a3" target="_top" xlink:title="Creates and saves a 3D scatter plot from given data.">
<polygon fill="white" stroke="#666666" points="387.75,-20 293.75,-20 293.75,0 387.75,0 387.75,-20"/>
<text text-anchor="middle" x="340.75" y="-6.5" font-family="Helvetica,sans-Serif" font-size="10.00">fcmaes.retry.plot3</text>
</a>
</g>
</g>
<!-- Node2&#45;&gt;Node3 -->
<g id="edge3_Node000002_Node000003" class="edge">
<title>Node2&#45;&gt;Node3</title>
<g id="a_edge3_Node000002_Node000003"><a xlink:title=" ">
<path fill="none" stroke="#63b8ff" d="M258.23,-10C266,-10 274.2,-10 282.29,-10"/>
<polygon fill="#63b8ff" stroke="#63b8ff" points="282.07,-13.5 292.07,-10 282.07,-6.5 282.07,-13.5"/>
</a>
</g>
</g>
</g>
</svg>
