<?xml version="1.0" encoding="UTF-8" standalone="no"?>
<!DOCTYPE svg PUBLIC "-//W3C//DTD SVG 1.1//EN"
 "http://www.w3.org/Graphics/SVG/1.1/DTD/svg11.dtd">
<!-- Generated by graphviz version 12.2.1 (20241206.2353)
 -->
<!-- Title: examples.prophet_opt.show_good_result Pages: 1 -->
<!--zoomable 135 -->

<svg id="main" version="1.1" xmlns="http://www.w3.org/2000/svg" xmlns:xlink="http://www.w3.org/1999/xlink" xml:space="preserve" onload="init(evt)">

<style type="text/css"><![CDATA[
.node, .edge {opacity: 0.7;}
.node.selected, .edge.selected {opacity: 1;}
.edge:hover path { stroke: red; }
.edge:hover polygon { stroke: red; fill: red; }
]]></style>

<defs>
  <circle id="rim" cx="0" cy="0" r="7"/>
  <circle id="rim2" cx="0" cy="0" r="3.5"/>
  <g id="zoomPlus">
    <use xlink:href="#rim" fill="#404040"><set attributeName="fill" to="#808080" begin="zoomplus.mouseover" end="zoomplus.mouseout"/></use>
    <path d="M-4,0h8M0,-4v8" fill="none" stroke="white" stroke-width="1.5" pointer-events="none"/>
  </g>
  <g id="zoomMin">
    <use xlink:href="#rim" fill="#404040"><set attributeName="fill" to="#808080" begin="zoomminus.mouseover" end="zoomminus.mouseout"/></use>
    <path d="M-4,0h8" fill="none" stroke="white" stroke-width="1.5" pointer-events="none"/>
  </g>
  <g id="arrowUp" transform="translate(30 24)">
    <use xlink:href="#rim"/>
    <path pointer-events="none" fill="none" stroke="white" stroke-width="1.5" d="M0,-3.0v7 M-2.5,-0.5L0,-3.0L2.5,-0.5"/>
  </g>
  <g id="arrowRight" transform="rotate(90) translate(36 -43)">
    <use xlink:href="#rim"/>
    <path pointer-events="none" fill="none" stroke="white" stroke-width="1.5" d="M0,-3.0v7 M-2.5,-0.5L0,-3.0L2.5,-0.5"/>
  </g>
  <g id="arrowDown" transform="rotate(180) translate(-30 -48)">
    <use xlink:href="#rim"/>
    <path pointer-events="none" fill="none" stroke="white" stroke-width="1.5" d="M0,-3.0v7 M-2.5,-0.5L0,-3.0L2.5,-0.5"/>
  </g>
  <g id="arrowLeft" transform="rotate(270) translate(-36 17)">
    <use xlink:href="#rim"/>
    <path pointer-events="none" fill="none" stroke="white" stroke-width="1.5" d="M0,-3.0v7 M-2.5,-0.5L0,-3.0L2.5,-0.5"/>
  </g>
  <g id="resetDef">
    <use xlink:href="#rim2" fill="#404040"><set attributeName="fill" to="#808080" begin="reset.mouseover" end="reset.mouseout"/></use>
  </g>
</defs>
<script type="application/ecmascript">
var viewWidth = 713;
var viewHeight = 135;
var sectionId = 'dynsection-13';
</script>
<script type="application/ecmascript" xlink:href="svg.min.js"/>
<svg id="graph" class="graph">
<g id="viewport">
<title>examples.prophet_opt.show_good_result</title>
<!-- Node1 -->
<g id="Node000001" class="node">
<title>Node1</title>
<g id="a_Node000001"><a xlink:title=" ">
<polygon fill="#999999" stroke="#666666" points="138.25,-64 0,-64 0,-32 138.25,-32 138.25,-64"/>
<text text-anchor="start" x="8" y="-50.5" font-family="Helvetica,sans-Serif" font-size="10.00">examples.prophet_opt.show</text>
<text text-anchor="middle" x="69.12" y="-38.5" font-family="Helvetica,sans-Serif" font-size="10.00">_good_result</text>
</a>
</g>
</g>
<!-- Node1&#45;&gt;Node1 -->
<g id="edge10_Node000001_Node000001" class="edge">
<title>Node1&#45;&gt;Node1</title>
<g id="a_edge10_Node000001_Node000001"><a xlink:title=" ">
<path fill="none" stroke="#63b8ff" d="M36.34,-64.44C30.22,-73.58 41.15,-82 69.12,-82 84.42,-82 94.62,-79.48 99.73,-75.71"/>
<polygon fill="#63b8ff" stroke="#63b8ff" points="103.15,-76.41 101.62,-65.93 96.28,-75.08 103.15,-76.41"/>
</a>
</g>
</g>
<!-- Node2 -->
<g id="Node000002" class="node">
<title>Node2</title>
<g id="a_Node000002"><a xlink:href="namespaceexamples_1_1prophet__opt.html#a18a248c54de45c4841f27809e3a642b1" target="_top" xlink:title=" ">
<polygon fill="white" stroke="#666666" points="317,-108 188.5,-108 188.5,-76 317,-76 317,-108"/>
<text text-anchor="start" x="196.5" y="-94.5" font-family="Helvetica,sans-Serif" font-size="10.00">examples.prophet_opt.btc</text>
<text text-anchor="middle" x="252.75" y="-82.5" font-family="Helvetica,sans-Serif" font-size="10.00">_show_x</text>
</a>
</g>
</g>
<!-- Node1&#45;&gt;Node2 -->
<g id="edge1_Node000001_Node000002" class="edge">
<title>Node1&#45;&gt;Node2</title>
<g id="a_edge1_Node000001_Node000002"><a xlink:title=" ">
<path fill="none" stroke="#63b8ff" d="M138.01,-64.45C150.84,-67.55 164.33,-70.82 177.35,-73.98"/>
<polygon fill="#63b8ff" stroke="#63b8ff" points="176.14,-77.28 186.68,-76.24 177.78,-70.48 176.14,-77.28"/>
</a>
</g>
</g>
<!-- Node7 -->
<g id="Node000007" class="node">
<title>Node7</title>
<g id="a_Node000007"><a xlink:href="namespaceexamples_1_1prophet__opt.html#ab552129c694447ce6fc44ad3f49825e9" target="_top" xlink:title=" ">
<polygon fill="white" stroke="#666666" points="324.88,-58 180.62,-58 180.62,-38 324.88,-38 324.88,-58"/>
<text text-anchor="middle" x="252.75" y="-44.5" font-family="Helvetica,sans-Serif" font-size="10.00">examples.prophet_opt.fitness</text>
</a>
</g>
</g>
<!-- Node1&#45;&gt;Node7 -->
<g id="edge6_Node000001_Node000007" class="edge">
<title>Node1&#45;&gt;Node7</title>
<g id="a_edge6_Node000001_Node000007"><a xlink:title=" ">
<path fill="none" stroke="#63b8ff" d="M138.53,-48C148.47,-48 158.79,-48 168.97,-48"/>
<polygon fill="#63b8ff" stroke="#63b8ff" points="168.86,-51.5 178.86,-48 168.86,-44.5 168.86,-51.5"/>
</a>
</g>
</g>
<!-- Node8 -->
<g id="Node000008" class="node">
<title>Node8</title>
<g id="a_Node000008"><a xlink:href="namespaceexamples_1_1prophet__opt.html#a7549217e0180b68ae1bd365ca7287fe4" target="_top" xlink:title=" ">
<polygon fill="white" stroke="#666666" points="331.25,-20 174.25,-20 174.25,0 331.25,0 331.25,-20"/>
<text text-anchor="middle" x="252.75" y="-6.5" font-family="Helvetica,sans-Serif" font-size="10.00">examples.prophet_opt.load_data</text>
</a>
</g>
</g>
<!-- Node1&#45;&gt;Node8 -->
<g id="edge9_Node000001_Node000008" class="edge">
<title>Node1&#45;&gt;Node8</title>
<g id="a_edge9_Node000001_Node000008"><a xlink:title=" ">
<path fill="none" stroke="#63b8ff" d="M138.53,-33.69C155.77,-30.08 174.16,-26.23 191,-22.71"/>
<polygon fill="#63b8ff" stroke="#63b8ff" points="191.25,-26.23 200.33,-20.76 189.82,-19.38 191.25,-26.23"/>
</a>
</g>
</g>
<!-- Node3 -->
<g id="Node000003" class="node">
<title>Node3</title>
<g id="a_Node000003"><a xlink:href="namespaceexamples_1_1prophet__opt.html#ae4e0f5b1e89fcbb3c76d779137998d54" target="_top" xlink:title=" ">
<polygon fill="white" stroke="#666666" points="510.38,-127 381.88,-127 381.88,-95 510.38,-95 510.38,-127"/>
<text text-anchor="start" x="389.88" y="-113.5" font-family="Helvetica,sans-Serif" font-size="10.00">examples.prophet_opt.btc</text>
<text text-anchor="middle" x="446.12" y="-101.5" font-family="Helvetica,sans-Serif" font-size="10.00">_show_params</text>
</a>
</g>
</g>
<!-- Node2&#45;&gt;Node3 -->
<g id="edge2_Node000002_Node000003" class="edge">
<title>Node2&#45;&gt;Node3</title>
<g id="a_edge2_Node000002_Node000003"><a xlink:title=" ">
<path fill="none" stroke="#63b8ff" d="M317.48,-98.33C334.42,-100.01 352.88,-101.84 370.36,-103.58"/>
<polygon fill="#63b8ff" stroke="#63b8ff" points="369.88,-107.05 380.17,-104.55 370.57,-100.08 369.88,-107.05"/>
</a>
</g>
</g>
<!-- Node6 -->
<g id="Node000006" class="node">
<title>Node6</title>
<g id="a_Node000006"><a xlink:href="namespaceexamples_1_1prophet__opt.html#a6de43eaac1a61a76257187d2827f2ece" target="_top" xlink:title=" ">
<polygon fill="white" stroke="#666666" points="525,-77 367.25,-77 367.25,-57 525,-57 525,-77"/>
<text text-anchor="middle" x="446.12" y="-63.5" font-family="Helvetica,sans-Serif" font-size="10.00">examples.prophet_opt.convert_x</text>
</a>
</g>
</g>
<!-- Node2&#45;&gt;Node6 -->
<g id="edge5_Node000002_Node000006" class="edge">
<title>Node2&#45;&gt;Node6</title>
<g id="a_edge5_Node000002_Node000006"><a xlink:title=" ">
<path fill="none" stroke="#63b8ff" d="M317.48,-83.68C329.75,-82.07 342.82,-80.36 355.74,-78.68"/>
<polygon fill="#63b8ff" stroke="#63b8ff" points="356.07,-82.16 365.53,-77.4 355.16,-75.22 356.07,-82.16"/>
</a>
</g>
</g>
<!-- Node4 -->
<g id="Node000004" class="node">
<title>Node4</title>
<g id="a_Node000004"><a xlink:href="namespaceexamples_1_1prophet__opt.html#aaef1882f68b34d7af026e8781098c1d5" target="_top" xlink:title=" ">
<polygon fill="white" stroke="#666666" points="697.38,-64 568.88,-64 568.88,-32 697.38,-32 697.38,-64"/>
<text text-anchor="start" x="576.88" y="-50.5" font-family="Helvetica,sans-Serif" font-size="10.00">examples.prophet_opt.btc</text>
<text text-anchor="middle" x="633.12" y="-38.5" font-family="Helvetica,sans-Serif" font-size="10.00">_eval_params</text>
</a>
</g>
</g>
<!-- Node3&#45;&gt;Node4 -->
<g id="edge3_Node000003_Node000004" class="edge">
<title>Node3&#45;&gt;Node4</title>
<g id="a_edge3_Node000003_Node000004"><a xlink:title=" ">
<path fill="none" stroke="#63b8ff" d="M499.14,-94.54C507.79,-91.74 516.66,-88.82 525,-86 541.64,-80.38 559.66,-74.07 576.08,-68.24"/>
<polygon fill="#63b8ff" stroke="#63b8ff" points="576.95,-71.65 585.19,-64.99 574.6,-65.05 576.95,-71.65"/>
</a>
</g>
</g>
<!-- Node5 -->
<g id="Node000005" class="node">
<title>Node5</title>
<g id="a_Node000005"><a xlink:href="namespaceexamples_1_1prophet__opt.html#a8a4ce6e419eeaa24cd84dcbd0930f019" target="_top" xlink:title=" ">
<polygon fill="white" stroke="#666666" points="705.25,-121 561,-121 561,-101 705.25,-101 705.25,-121"/>
<text text-anchor="middle" x="633.12" y="-107.5" font-family="Helvetica,sans-Serif" font-size="10.00">examples.prophet_opt.plot_df</text>
</a>
</g>
</g>
<!-- Node3&#45;&gt;Node5 -->
<g id="edge4_Node000003_Node000005" class="edge">
<title>Node3&#45;&gt;Node5</title>
<g id="a_edge4_Node000003_Node000005"><a xlink:title=" ">
<path fill="none" stroke="#63b8ff" d="M510.79,-111C523.24,-111 536.46,-111 549.43,-111"/>
<polygon fill="#63b8ff" stroke="#63b8ff" points="549.21,-114.5 559.21,-111 549.21,-107.5 549.21,-114.5"/>
</a>
</g>
</g>
<!-- Node7&#45;&gt;Node4 -->
<g id="edge7_Node000007_Node000004" class="edge">
<title>Node7&#45;&gt;Node4</title>
<g id="a_edge7_Node000007_Node000004"><a xlink:title=" ">
<path fill="none" stroke="#63b8ff" d="M325.36,-48C391.69,-48 489.97,-48 557.3,-48"/>
<polygon fill="#63b8ff" stroke="#63b8ff" points="557.15,-51.5 567.15,-48 557.15,-44.5 557.15,-51.5"/>
</a>
</g>
</g>
<!-- Node7&#45;&gt;Node6 -->
<g id="edge8_Node000007_Node000006" class="edge">
<title>Node7&#45;&gt;Node6</title>
<g id="a_edge8_Node000007_Node000006"><a xlink:title=" ">
<path fill="none" stroke="#63b8ff" d="M325.28,-55.1C335.16,-56.08 345.4,-57.1 355.55,-58.11"/>
<polygon fill="#63b8ff" stroke="#63b8ff" points="355.14,-61.58 365.43,-59.09 355.83,-54.62 355.14,-61.58"/>
</a>
</g>
</g>
</g>
</svg>

<g id="navigator" transform="translate(0 0)" fill="#404254">
  <rect fill="#f2f5e9" fill-opacity="0.5" stroke="#606060" stroke-width=".5" x="0" y="0" width="60" height="60"/>
  <use id="zoomplus" xlink:href="#zoomPlus" x="17" y="9" onmousedown="handleZoom(evt,'in')"/>
  <use id="zoomminus" xlink:href="#zoomMin" x="42" y="9" onmousedown="handleZoom(evt,'out')"/>
  <use id="reset" xlink:href="#resetDef" x="30" y="36" onmousedown="handleReset()"/>
   <use id="arrowup" xlink:href="#arrowUp" x="0" y="0" onmousedown="handlePan(0,-1)"/>
  <use id="arrowright" xlink:href="#arrowRight" x="0" y="0" onmousedown="handlePan(1,0)"/>
  <use id="arrowdown" xlink:href="#arrowDown" x="0" y="0" onmousedown="handlePan(0,1)"/>
  <use id="arrowleft" xlink:href="#arrowLeft" x="0" y="0" onmousedown="handlePan(-1,0)"/>
</g>
<svg viewBox="0 0 15 15" width="100%" height="30px" preserveAspectRatio="xMaxYMin meet">
 <g id="arrow_out" transform="scale(0.3 0.3)">
  <a xlink:href="namespaceexamples_1_1prophet__opt_ae9fc3dd94248f2146ad53fcf139d55fb_cgraph_org.svg" target="_base">
   <rect id="button" ry="5" rx="5" y="6" x="6" height="38" width="38"
        fill="#f2f5e9" fill-opacity="0.5" stroke="#606060" stroke-width="1.0"/>
   <path id="arrow"
     d="M 11.500037,31.436501 C 11.940474,20.09759 22.043105,11.32322 32.158766,21.979434 L 37.068811,17.246167 C 37.068811,17.246167 37.088388,32 37.088388,32 L 22.160133,31.978069 C 22.160133,31.978069 26.997745,27.140456 26.997745,27.140456 C 18.528582,18.264221 13.291696,25.230495 11.500037,31.436501 z"
     style="fill:#404040;"/>
  </a>
 </g>
</svg>

<style type='text/css'>
<![CDATA[
[data-mouse-over-selected='false'] { opacity: 0.7; }
[data-mouse-over-selected='true']  { opacity: 1.0; }
]]>
</style>
<script type="application/ecmascript"><![CDATA[
document.addEventListener('DOMContentLoaded', (event) => {
  highlightEdges();
  highlightAdjacentNodes();
});
]]></script>
</svg>
