<?xml version="1.0" encoding="UTF-8" standalone="no"?>
<!DOCTYPE svg PUBLIC "-//W3C//DTD SVG 1.1//EN"
 "http://www.w3.org/Graphics/SVG/1.1/DTD/svg11.dtd">
<!-- Generated by graphviz version 12.2.1 (20241206.2353)
 -->
<!-- Title: examples.yahpo.opt_xgboost Pages: 1 -->
<svg width="404pt" height="90pt"
 viewBox="0.00 0.00 404.00 90.00" xmlns="http://www.w3.org/2000/svg" xmlns:xlink="http://www.w3.org/1999/xlink">

<svg id="main" version="1.1" xmlns="http://www.w3.org/2000/svg" xmlns:xlink="http://www.w3.org/1999/xlink" xml:space="preserve">

<style type="text/css"><![CDATA[
.node, .edge {opacity: 0.7;}
.node.selected, .edge.selected {opacity: 1;}
.edge:hover path { stroke: red; }
.edge:hover polygon { stroke: red; fill: red; }
]]></style>
<script type="application/ecmascript" xlink:href="svg.min.js"/>
<svg id="graph" class="graph">
<g id="graph0" class="graph" transform="scale(1 1) rotate(0) translate(4 86)">
<title>examples.yahpo.opt_xgboost</title>
<!-- Node1 -->
<g id="Node000001" class="node">
<title>Node1</title>
<g id="a_Node000001"><a xlink:title=" ">
<polygon fill="#999999" stroke="#666666" points="396,-57 292.25,-57 292.25,-25 396,-25 396,-57"/>
<text text-anchor="start" x="300.25" y="-43.5" font-family="Helvetica,sans-Serif" font-size="10.00">examples.yahpo.opt</text>
<text text-anchor="middle" x="344.12" y="-31.5" font-family="Helvetica,sans-Serif" font-size="10.00">_xgboost</text>
</a>
</g>
</g>
<!-- Node2 -->
<g id="Node000002" class="node">
<title>Node2</title>
<g id="a_Node000002"><a xlink:href="namespaceexamples_1_1yahpo.html#a00ed0fa5c4577f6841d751aa5de9beb4" target="_top" xlink:title=" ">
<polygon fill="white" stroke="#666666" points="256.25,-51 150.25,-51 150.25,-31 256.25,-31 256.25,-51"/>
<text text-anchor="middle" x="203.25" y="-37.5" font-family="Helvetica,sans-Serif" font-size="10.00">examples.yahpo.plot</text>
</a>
</g>
</g>
<!-- Node1&#45;&gt;Node2 -->
<g id="edge1_Node000001_Node000002" class="edge">
<title>Node1&#45;&gt;Node2</title>
<g id="a_edge1_Node000001_Node000002"><a xlink:title=" ">
<path fill="none" stroke="#63b8ff" d="M280.37,-34.28C272.48,-34.21 264.46,-34.26 256.75,-34.43"/>
<polygon fill="#63b8ff" stroke="#63b8ff" points="280.24,-37.78 290.29,-34.43 280.35,-30.78 280.24,-37.78"/>
</a>
</g>
</g>
<!-- Node2&#45;&gt;Node1 -->
<g id="edge6_Node000002_Node000001" class="edge">
<title>Node2&#45;&gt;Node1</title>
<g id="a_edge6_Node000002_Node000001"><a xlink:title=" ">
<path fill="none" stroke="#63b8ff" d="M268.22,-47.73C276.12,-47.79 284.12,-47.72 291.81,-47.54"/>
<polygon fill="#63b8ff" stroke="#63b8ff" points="268.31,-44.23 258.26,-47.59 268.21,-51.23 268.31,-44.23"/>
</a>
</g>
</g>
<!-- Node3 -->
<g id="Node000003" class="node">
<title>Node3</title>
<g id="a_Node000003"><a xlink:href="namespaceexamples_1_1yahpo.html#aca8ebb42199ed8663e4d2fb1704bb11d" target="_top" xlink:title=" ">
<polygon fill="white" stroke="#666666" points="109,-82 5.25,-82 5.25,-50 109,-50 109,-82"/>
<text text-anchor="start" x="13.25" y="-68.5" font-family="Helvetica,sans-Serif" font-size="10.00">examples.yahpo.opt</text>
<text text-anchor="middle" x="57.13" y="-56.5" font-family="Helvetica,sans-Serif" font-size="10.00">_ranger_hardware</text>
</a>
</g>
</g>
<!-- Node2&#45;&gt;Node3 -->
<g id="edge2_Node000002_Node000003" class="edge">
<title>Node2&#45;&gt;Node3</title>
<g id="a_edge2_Node000002_Node000003"><a xlink:title=" ">
<path fill="none" stroke="#63b8ff" d="M138.49,-45.35C128.73,-46.95 118.76,-48.75 109.32,-50.63"/>
<polygon fill="#63b8ff" stroke="#63b8ff" points="138.98,-48.82 148.31,-43.81 137.89,-41.9 138.98,-48.82"/>
</a>
</g>
</g>
<!-- Node4 -->
<g id="Node000004" class="node">
<title>Node4</title>
<g id="a_Node000004"><a xlink:href="namespaceexamples_1_1yahpo.html#a657da003ad951471dc74d132dda50c01" target="_top" xlink:title=" ">
<polygon fill="white" stroke="#666666" points="114.25,-32 0,-32 0,0 114.25,0 114.25,-32"/>
<text text-anchor="start" x="8" y="-18.5" font-family="Helvetica,sans-Serif" font-size="10.00">examples.yahpo.opt</text>
<text text-anchor="middle" x="57.13" y="-6.5" font-family="Helvetica,sans-Serif" font-size="10.00">_ranger_interpretability</text>
</a>
</g>
</g>
<!-- Node2&#45;&gt;Node4 -->
<g id="edge4_Node000002_Node000004" class="edge">
<title>Node2&#45;&gt;Node4</title>
<g id="a_edge4_Node000002_Node000004"><a xlink:title=" ">
<path fill="none" stroke="#63b8ff" d="M162.9,-28.09C148,-24.86 130.73,-21.69 114.57,-19.18"/>
<polygon fill="#63b8ff" stroke="#63b8ff" points="161.77,-31.42 172.3,-30.22 163.32,-24.59 161.77,-31.42"/>
</a>
</g>
</g>
<!-- Node3&#45;&gt;Node2 -->
<g id="edge3_Node000003_Node000002" class="edge">
<title>Node3&#45;&gt;Node2</title>
<g id="a_edge3_Node000003_Node000002"><a xlink:title=" ">
<path fill="none" stroke="#63b8ff" d="M120.67,-61.85C139.19,-58.84 158.56,-55.08 173.78,-51.44"/>
<polygon fill="#63b8ff" stroke="#63b8ff" points="120.13,-58.39 110.79,-63.38 121.21,-65.31 120.13,-58.39"/>
</a>
</g>
</g>
<!-- Node4&#45;&gt;Node2 -->
<g id="edge5_Node000004_Node000002" class="edge">
<title>Node4&#45;&gt;Node2</title>
<g id="a_edge5_Node000004_Node000002"><a xlink:title=" ">
<path fill="none" stroke="#63b8ff" d="M125.92,-34.5C133.94,-35.93 142.04,-37.26 149.81,-38.43"/>
<polygon fill="#63b8ff" stroke="#63b8ff" points="126.62,-31.07 116.15,-32.69 125.34,-37.95 126.62,-31.07"/>
</a>
</g>
</g>
</g>
</svg>
</svg>

<style type='text/css'>
<![CDATA[
[data-mouse-over-selected='false'] { opacity: 0.7; }
[data-mouse-over-selected='true']  { opacity: 1.0; }
]]>
</style>
<script type="application/ecmascript"><![CDATA[
document.addEventListener('DOMContentLoaded', (event) => {
  highlightEdges();
  highlightAdjacentNodes();
});
]]></script>
</svg>
