<?xml version="1.0" encoding="UTF-8" standalone="no"?>
<!DOCTYPE svg PUBLIC "-//W3C//DTD SVG 1.1//EN"
 "http://www.w3.org/Graphics/SVG/1.1/DTD/svg11.dtd">
<!-- Generated by graphviz version 12.2.1 (20241206.2353)
 -->
<!-- Title: examples.yahpo.plot Pages: 1 -->
<!--zoomable 178 -->

<svg id="main" version="1.1" xmlns="http://www.w3.org/2000/svg" xmlns:xlink="http://www.w3.org/1999/xlink" xml:space="preserve" onload="init(evt)">

<style type="text/css"><![CDATA[
.node, .edge {opacity: 0.7;}
.node.selected, .edge.selected {opacity: 1;}
.edge:hover path { stroke: red; }
.edge:hover polygon { stroke: red; fill: red; }
]]></style>

<defs>
  <circle id="rim" cx="0" cy="0" r="7"/>
  <circle id="rim2" cx="0" cy="0" r="3.5"/>
  <g id="zoomPlus">
    <use xlink:href="#rim" fill="#404040"><set attributeName="fill" to="#808080" begin="zoomplus.mouseover" end="zoomplus.mouseout"/></use>
    <path d="M-4,0h8M0,-4v8" fill="none" stroke="white" stroke-width="1.5" pointer-events="none"/>
  </g>
  <g id="zoomMin">
    <use xlink:href="#rim" fill="#404040"><set attributeName="fill" to="#808080" begin="zoomminus.mouseover" end="zoomminus.mouseout"/></use>
    <path d="M-4,0h8" fill="none" stroke="white" stroke-width="1.5" pointer-events="none"/>
  </g>
  <g id="arrowUp" transform="translate(30 24)">
    <use xlink:href="#rim"/>
    <path pointer-events="none" fill="none" stroke="white" stroke-width="1.5" d="M0,-3.0v7 M-2.5,-0.5L0,-3.0L2.5,-0.5"/>
  </g>
  <g id="arrowRight" transform="rotate(90) translate(36 -43)">
    <use xlink:href="#rim"/>
    <path pointer-events="none" fill="none" stroke="white" stroke-width="1.5" d="M0,-3.0v7 M-2.5,-0.5L0,-3.0L2.5,-0.5"/>
  </g>
  <g id="arrowDown" transform="rotate(180) translate(-30 -48)">
    <use xlink:href="#rim"/>
    <path pointer-events="none" fill="none" stroke="white" stroke-width="1.5" d="M0,-3.0v7 M-2.5,-0.5L0,-3.0L2.5,-0.5"/>
  </g>
  <g id="arrowLeft" transform="rotate(270) translate(-36 17)">
    <use xlink:href="#rim"/>
    <path pointer-events="none" fill="none" stroke="white" stroke-width="1.5" d="M0,-3.0v7 M-2.5,-0.5L0,-3.0L2.5,-0.5"/>
  </g>
  <g id="resetDef">
    <use xlink:href="#rim2" fill="#404040"><set attributeName="fill" to="#808080" begin="reset.mouseover" end="reset.mouseout"/></use>
  </g>
</defs>
<script type="application/ecmascript">
var viewWidth = 589;
var viewHeight = 178;
var sectionId = 'dynsection-10';
</script>
<script type="application/ecmascript" xlink:href="svg.min.js"/>
<svg id="graph" class="graph">
<g id="viewport">
<title>examples.yahpo.plot</title>
<!-- Node1 -->
<g id="Node000001" class="node">
<title>Node1</title>
<g id="a_Node000001"><a xlink:title=" ">
<polygon fill="#999999" stroke="#666666" points="106,-114 0,-114 0,-94 106,-94 106,-114"/>
<text text-anchor="middle" x="53" y="-100.5" font-family="Helvetica,sans-Serif" font-size="10.00">examples.yahpo.plot</text>
</a>
</g>
</g>
<!-- Node2 -->
<g id="Node000002" class="node">
<title>Node2</title>
<g id="a_Node000002"><a xlink:href="namespaceexamples_1_1yahpo.html#aca8ebb42199ed8663e4d2fb1704bb11d" target="_top" xlink:title=" ">
<polygon fill="white" stroke="#666666" points="252.12,-170 148.38,-170 148.38,-138 252.12,-138 252.12,-170"/>
<text text-anchor="start" x="156.38" y="-156.5" font-family="Helvetica,sans-Serif" font-size="10.00">examples.yahpo.opt</text>
<text text-anchor="middle" x="200.25" y="-144.5" font-family="Helvetica,sans-Serif" font-size="10.00">_ranger_hardware</text>
</a>
</g>
</g>
<!-- Node1&#45;&gt;Node2 -->
<g id="edge1_Node000001_Node000002" class="edge">
<title>Node1&#45;&gt;Node2</title>
<g id="a_edge1_Node000001_Node000002"><a xlink:title=" ">
<path fill="none" stroke="#63b8ff" d="M102.77,-114.37C120.65,-120.01 140.7,-127 157.88,-133.6"/>
<polygon fill="#63b8ff" stroke="#63b8ff" points="156.15,-136.68 166.74,-137.09 158.72,-130.17 156.15,-136.68"/>
</a>
</g>
</g>
<!-- Node5 -->
<g id="Node000005" class="node">
<title>Node5</title>
<g id="a_Node000005"><a xlink:href="namespaceexamples_1_1yahpo.html#a657da003ad951471dc74d132dda50c01" target="_top" xlink:title=" ">
<polygon fill="white" stroke="#666666" points="257.38,-120 143.12,-120 143.12,-88 257.38,-88 257.38,-120"/>
<text text-anchor="start" x="151.12" y="-106.5" font-family="Helvetica,sans-Serif" font-size="10.00">examples.yahpo.opt</text>
<text text-anchor="middle" x="200.25" y="-94.5" font-family="Helvetica,sans-Serif" font-size="10.00">_ranger_interpretability</text>
</a>
</g>
</g>
<!-- Node1&#45;&gt;Node5 -->
<g id="edge5_Node000001_Node000005" class="edge">
<title>Node1&#45;&gt;Node5</title>
<g id="a_edge5_Node000001_Node000005"><a xlink:title=" ">
<path fill="none" stroke="#63b8ff" d="M106.44,-97.49C114.6,-97.29 123.12,-97.22 131.56,-97.26"/>
<polygon fill="#63b8ff" stroke="#63b8ff" points="131.41,-100.76 141.45,-97.39 131.49,-93.76 131.41,-100.76"/>
</a>
</g>
</g>
<!-- Node6 -->
<g id="Node000006" class="node">
<title>Node6</title>
<g id="a_Node000006"><a xlink:href="namespaceexamples_1_1yahpo.html#aa0f008c277a52f11bb7ae3430c49384c" target="_top" xlink:title=" ">
<polygon fill="white" stroke="#666666" points="252.12,-70 148.38,-70 148.38,-38 252.12,-38 252.12,-70"/>
<text text-anchor="start" x="156.38" y="-56.5" font-family="Helvetica,sans-Serif" font-size="10.00">examples.yahpo.opt</text>
<text text-anchor="middle" x="200.25" y="-44.5" font-family="Helvetica,sans-Serif" font-size="10.00">_xgboost</text>
</a>
</g>
</g>
<!-- Node1&#45;&gt;Node6 -->
<g id="edge8_Node000001_Node000006" class="edge">
<title>Node1&#45;&gt;Node6</title>
<g id="a_edge8_Node000001_Node000006"><a xlink:title=" ">
<path fill="none" stroke="#63b8ff" d="M71.23,-93.51C87.59,-86.17 113.18,-76.65 137.19,-68.68"/>
<polygon fill="#63b8ff" stroke="#63b8ff" points="138.21,-72.03 146.63,-65.6 136.04,-65.37 138.21,-72.03"/>
</a>
</g>
</g>
<!-- Node8 -->
<g id="Node000008" class="node">
<title>Node8</title>
<g id="a_Node000008"><a xlink:href="namespaceexamples_1_1yahpo.html#abed4facab8c6aaf0a992c93f39b25297" target="_top" xlink:title=" ">
<polygon fill="white" stroke="#666666" points="258.5,-20 142,-20 142,0 258.5,0 258.5,-20"/>
<text text-anchor="middle" x="200.25" y="-6.5" font-family="Helvetica,sans-Serif" font-size="10.00">examples.yahpo.plot3d</text>
</a>
</g>
</g>
<!-- Node1&#45;&gt;Node8 -->
<g id="edge12_Node000001_Node000008" class="edge">
<title>Node1&#45;&gt;Node8</title>
<g id="a_edge12_Node000001_Node000008"><a xlink:title=" ">
<path fill="none" stroke="#63b8ff" d="M63.58,-93.58C78.78,-77.61 110,-47.03 142,-29 144.65,-27.51 147.43,-26.11 150.28,-24.81"/>
<polygon fill="#63b8ff" stroke="#63b8ff" points="151.48,-28.1 159.4,-21.05 148.82,-21.62 151.48,-28.1"/>
</a>
</g>
</g>
<!-- Node2&#45;&gt;Node1 -->
<g id="edge4_Node000002_Node000001" class="edge">
<title>Node2&#45;&gt;Node1</title>
<g id="a_edge4_Node000002_Node000001"><a xlink:title=" ">
<path fill="none" stroke="#63b8ff" d="M148.07,-142.86C125.74,-135.75 100.43,-126.69 81.7,-118.97"/>
<polygon fill="#63b8ff" stroke="#63b8ff" points="83.19,-115.81 72.62,-115.08 80.44,-122.24 83.19,-115.81"/>
</a>
</g>
</g>
<!-- Node3 -->
<g id="Node000003" class="node">
<title>Node3</title>
<g id="a_Node000003"><a xlink:href="namespaceexamples_1_1yahpo.html#aafb5885cf1e9c035878faf3bee87ccb0" target="_top" xlink:title=" ">
<polygon fill="white" stroke="#666666" points="421.5,-120 294.5,-120 294.5,-88 421.5,-88 421.5,-120"/>
<text text-anchor="start" x="302.5" y="-106.5" font-family="Helvetica,sans-Serif" font-size="10.00">examples.yahpo.evaluate</text>
<text text-anchor="middle" x="358" y="-94.5" font-family="Helvetica,sans-Serif" font-size="10.00">_ranger_</text>
</a>
</g>
</g>
<!-- Node2&#45;&gt;Node3 -->
<g id="edge2_Node000002_Node000003" class="edge">
<title>Node2&#45;&gt;Node3</title>
<g id="a_edge2_Node000002_Node000003"><a xlink:title=" ">
<path fill="none" stroke="#63b8ff" d="M252.25,-137.63C265.89,-133.25 280.79,-128.46 294.96,-123.92"/>
<polygon fill="#63b8ff" stroke="#63b8ff" points="295.73,-127.35 304.18,-120.96 293.59,-120.68 295.73,-127.35"/>
</a>
</g>
</g>
<!-- Node4 -->
<g id="Node000004" class="node">
<title>Node4</title>
<g id="a_Node000004"><a xlink:href="namespaceexamples_1_1yahpo.html#a15c68f9f26552d8ed5597f36e8ddbb0e" target="_top" xlink:title=" ">
<polygon fill="white" stroke="#666666" points="580.75,-89 457.5,-89 457.5,-69 580.75,-69 580.75,-89"/>
<text text-anchor="middle" x="519.12" y="-75.5" font-family="Helvetica,sans-Serif" font-size="10.00">examples.yahpo.retrafo_</text>
</a>
</g>
</g>
<!-- Node3&#45;&gt;Node4 -->
<g id="edge3_Node000003_Node000004" class="edge">
<title>Node3&#45;&gt;Node4</title>
<g id="a_edge3_Node000003_Node000004"><a xlink:title=" ">
<path fill="none" stroke="#63b8ff" d="M421.89,-94.12C429.8,-92.88 437.94,-91.6 445.99,-90.33"/>
<polygon fill="#63b8ff" stroke="#63b8ff" points="446.42,-93.81 455.75,-88.8 445.33,-86.89 446.42,-93.81"/>
</a>
</g>
</g>
<!-- Node5&#45;&gt;Node1 -->
<g id="edge7_Node000005_Node000001" class="edge">
<title>Node5&#45;&gt;Node1</title>
<g id="a_edge7_Node000005_Node000001"><a xlink:title=" ">
<path fill="none" stroke="#63b8ff" d="M142.96,-110.6C134.7,-110.75 126.14,-110.79 117.75,-110.7"/>
<polygon fill="#63b8ff" stroke="#63b8ff" points="118.01,-107.21 107.95,-110.54 117.89,-114.21 118.01,-107.21"/>
</a>
</g>
</g>
<!-- Node5&#45;&gt;Node3 -->
<g id="edge6_Node000005_Node000003" class="edge">
<title>Node5&#45;&gt;Node3</title>
<g id="a_edge6_Node000005_Node000003"><a xlink:title=" ">
<path fill="none" stroke="#63b8ff" d="M257.48,-104C265.78,-104 274.44,-104 283.03,-104"/>
<polygon fill="#63b8ff" stroke="#63b8ff" points="282.74,-107.5 292.74,-104 282.74,-100.5 282.74,-107.5"/>
</a>
</g>
</g>
<!-- Node6&#45;&gt;Node1 -->
<g id="edge11_Node000006_Node000001" class="edge">
<title>Node6&#45;&gt;Node1</title>
<g id="a_edge11_Node000006_Node000001"><a xlink:title=" ">
<path fill="none" stroke="#63b8ff" d="M168.15,-70.36C152.24,-76.78 132.33,-83.97 113.61,-90.13"/>
<polygon fill="#63b8ff" stroke="#63b8ff" points="112.65,-86.76 104.21,-93.16 114.8,-93.43 112.65,-86.76"/>
</a>
</g>
</g>
<!-- Node7 -->
<g id="Node000007" class="node">
<title>Node7</title>
<g id="a_Node000007"><a xlink:href="namespaceexamples_1_1yahpo.html#ae80be8ace972b91258cc5d78d421d250" target="_top" xlink:title=" ">
<polygon fill="white" stroke="#666666" points="421.5,-70 294.5,-70 294.5,-38 421.5,-38 421.5,-70"/>
<text text-anchor="start" x="302.5" y="-56.5" font-family="Helvetica,sans-Serif" font-size="10.00">examples.yahpo.evaluate</text>
<text text-anchor="middle" x="358" y="-44.5" font-family="Helvetica,sans-Serif" font-size="10.00">_xgboost_</text>
</a>
</g>
</g>
<!-- Node6&#45;&gt;Node7 -->
<g id="edge9_Node000006_Node000007" class="edge">
<title>Node6&#45;&gt;Node7</title>
<g id="a_edge9_Node000006_Node000007"><a xlink:title=" ">
<path fill="none" stroke="#63b8ff" d="M252.25,-54C262.09,-54 272.58,-54 282.97,-54"/>
<polygon fill="#63b8ff" stroke="#63b8ff" points="282.67,-57.5 292.67,-54 282.67,-50.5 282.67,-57.5"/>
</a>
</g>
</g>
<!-- Node7&#45;&gt;Node4 -->
<g id="edge10_Node000007_Node000004" class="edge">
<title>Node7&#45;&gt;Node4</title>
<g id="a_edge10_Node000007_Node000004"><a xlink:title=" ">
<path fill="none" stroke="#63b8ff" d="M421.89,-63.88C429.8,-65.12 437.94,-66.4 445.99,-67.67"/>
<polygon fill="#63b8ff" stroke="#63b8ff" points="445.33,-71.11 455.75,-69.2 446.42,-64.19 445.33,-71.11"/>
</a>
</g>
</g>
</g>
</svg>

<g id="navigator" transform="translate(0 0)" fill="#404254">
  <rect fill="#f2f5e9" fill-opacity="0.5" stroke="#606060" stroke-width=".5" x="0" y="0" width="60" height="60"/>
  <use id="zoomplus" xlink:href="#zoomPlus" x="17" y="9" onmousedown="handleZoom(evt,'in')"/>
  <use id="zoomminus" xlink:href="#zoomMin" x="42" y="9" onmousedown="handleZoom(evt,'out')"/>
  <use id="reset" xlink:href="#resetDef" x="30" y="36" onmousedown="handleReset()"/>
   <use id="arrowup" xlink:href="#arrowUp" x="0" y="0" onmousedown="handlePan(0,-1)"/>
  <use id="arrowright" xlink:href="#arrowRight" x="0" y="0" onmousedown="handlePan(1,0)"/>
  <use id="arrowdown" xlink:href="#arrowDown" x="0" y="0" onmousedown="handlePan(0,1)"/>
  <use id="arrowleft" xlink:href="#arrowLeft" x="0" y="0" onmousedown="handlePan(-1,0)"/>
</g>
<svg viewBox="0 0 15 15" width="100%" height="30px" preserveAspectRatio="xMaxYMin meet">
 <g id="arrow_out" transform="scale(0.3 0.3)">
  <a xlink:href="namespaceexamples_1_1yahpo_a00ed0fa5c4577f6841d751aa5de9beb4_cgraph_org.svg" target="_base">
   <rect id="button" ry="5" rx="5" y="6" x="6" height="38" width="38"
        fill="#f2f5e9" fill-opacity="0.5" stroke="#606060" stroke-width="1.0"/>
   <path id="arrow"
     d="M 11.500037,31.436501 C 11.940474,20.09759 22.043105,11.32322 32.158766,21.979434 L 37.068811,17.246167 C 37.068811,17.246167 37.088388,32 37.088388,32 L 22.160133,31.978069 C 22.160133,31.978069 26.997745,27.140456 26.997745,27.140456 C 18.528582,18.264221 13.291696,25.230495 11.500037,31.436501 z"
     style="fill:#404040;"/>
  </a>
 </g>
</svg>

<style type='text/css'>
<![CDATA[
[data-mouse-over-selected='false'] { opacity: 0.7; }
[data-mouse-over-selected='true']  { opacity: 1.0; }
]]>
</style>
<script type="application/ecmascript"><![CDATA[
document.addEventListener('DOMContentLoaded', (event) => {
  highlightEdges();
  highlightAdjacentNodes();
});
]]></script>
</svg>
