<?xml version="1.0" encoding="UTF-8" standalone="no"?>
<!DOCTYPE svg PUBLIC "-//W3C//DTD SVG 1.1//EN"
 "http://www.w3.org/Graphics/SVG/1.1/DTD/svg11.dtd">
<!-- Generated by graphviz version 12.2.1 (20241206.2353)
 -->
<!-- Title: examples.kepler.kepler._mean2eccentric Pages: 1 -->
<svg width="820pt" height="178pt"
 viewBox="0.00 0.00 819.75 178.00" xmlns="http://www.w3.org/2000/svg" xmlns:xlink="http://www.w3.org/1999/xlink">
<g id="graph0" class="graph" transform="scale(1 1) rotate(0) translate(4 174)">
<title>examples.kepler.kepler._mean2eccentric</title>
<!-- Node1 -->
<g id="Node000001" class="node">
<title>Node1</title>
<g id="a_Node000001"><a xlink:title=" ">
<polygon fill="#999999" stroke="#666666" points="811.75,-98 692.25,-98 692.25,-66 811.75,-66 811.75,-98"/>
<text text-anchor="start" x="700.25" y="-84.5" font-family="Helvetica,sans-Serif" font-size="10.00">examples.kepler.kepler.</text>
<text text-anchor="middle" x="752" y="-72.5" font-family="Helvetica,sans-Serif" font-size="10.00">_mean2eccentric</text>
</a>
</g>
</g>
<!-- Node2 -->
<g id="Node000002" class="node">
<title>Node2</title>
<g id="a_Node000002"><a xlink:href="namespaceexamples_1_1kepler_1_1kepler.html#a1f0348588f88a7cbbef1b87d189a8673" target="_top" xlink:title=" ">
<polygon fill="white" stroke="#666666" points="626.25,-170 467,-170 467,-138 626.25,-138 626.25,-170"/>
<text text-anchor="start" x="475" y="-156.5" font-family="Helvetica,sans-Serif" font-size="10.00">examples.kepler.kepler.eccentric</text>
<text text-anchor="middle" x="546.62" y="-144.5" font-family="Helvetica,sans-Serif" font-size="10.00">_anomaly</text>
</a>
</g>
</g>
<!-- Node1&#45;&gt;Node2 -->
<g id="edge1_Node000001_Node000002" class="edge">
<title>Node1&#45;&gt;Node2</title>
<g id="a_edge1_Node000001_Node000002"><a xlink:title=" ">
<path fill="none" stroke="#63b8ff" d="M712.32,-103.76C695.49,-112.54 675.29,-122.19 656.25,-129 646.77,-132.39 636.67,-135.43 626.57,-138.13"/>
<polygon fill="#63b8ff" stroke="#63b8ff" points="713.81,-106.93 720.99,-99.14 710.52,-100.75 713.81,-106.93"/>
</a>
</g>
</g>
<!-- Node3 -->
<g id="Node000003" class="node">
<title>Node3</title>
<g id="a_Node000003"><a xlink:href="namespaceexamples_1_1kepler_1_1kepler.html#acd2ed415248c15d823c283bd3e067fb0" target="_top" xlink:title=" ">
<polygon fill="white" stroke="#666666" points="613.12,-120 480.12,-120 480.12,-88 613.12,-88 613.12,-120"/>
<text text-anchor="start" x="488.12" y="-106.5" font-family="Helvetica,sans-Serif" font-size="10.00">examples.kepler.kepler.get</text>
<text text-anchor="middle" x="546.62" y="-94.5" font-family="Helvetica,sans-Serif" font-size="10.00">_kepler</text>
</a>
</g>
</g>
<!-- Node1&#45;&gt;Node3 -->
<g id="edge2_Node000001_Node000003" class="edge">
<title>Node1&#45;&gt;Node3</title>
<g id="a_edge2_Node000001_Node000003"><a xlink:title=" ">
<path fill="none" stroke="#63b8ff" d="M680.69,-89.61C658.83,-91.97 634.82,-94.57 613.29,-96.9"/>
<polygon fill="#63b8ff" stroke="#63b8ff" points="680.83,-93.11 690.4,-88.56 680.08,-86.15 680.83,-93.11"/>
</a>
</g>
</g>
<!-- Node4 -->
<g id="Node000004" class="node">
<title>Node4</title>
<g id="a_Node000004"><a xlink:href="classexamples_1_1kepler_1_1kepler_1_1_kepler.html#a30c2309d5290666bb3aaa6e85b2dc5f7" target="_top" xlink:title=" ">
<polygon fill="white" stroke="#666666" points="656.25,-70 437,-70 437,-50 656.25,-50 656.25,-70"/>
<text text-anchor="middle" x="546.62" y="-56.5" font-family="Helvetica,sans-Serif" font-size="10.00">examples.kepler.kepler.Kepler.mean2eccentric</text>
</a>
</g>
</g>
<!-- Node1&#45;&gt;Node4 -->
<g id="edge3_Node000001_Node000004" class="edge">
<title>Node1&#45;&gt;Node4</title>
<g id="a_edge3_Node000001_Node000004"><a xlink:title=" ">
<path fill="none" stroke="#63b8ff" d="M680.48,-74.37C668.83,-73.11 656.57,-71.79 644.41,-70.47"/>
<polygon fill="#63b8ff" stroke="#63b8ff" points="680.08,-77.85 690.4,-75.44 680.83,-70.89 680.08,-77.85"/>
</a>
</g>
</g>
<!-- Node7 -->
<g id="Node000007" class="node">
<title>Node7</title>
<g id="a_Node000007"><a xlink:href="classexamples_1_1kepler_1_1kepler_1_1_kepler.html#a4fbe50a434e7f2312059e3477ba13ca7" target="_top" xlink:title=" ">
<polygon fill="white" stroke="#666666" points="643.12,-32 450.12,-32 450.12,0 643.12,0 643.12,-32"/>
<text text-anchor="start" x="458.12" y="-18.5" font-family="Helvetica,sans-Serif" font-size="10.00">examples.kepler.kepler.Kepler.propagate</text>
<text text-anchor="middle" x="546.62" y="-6.5" font-family="Helvetica,sans-Serif" font-size="10.00">_kepler</text>
</a>
</g>
</g>
<!-- Node1&#45;&gt;Node7 -->
<g id="edge6_Node000001_Node000007" class="edge">
<title>Node1&#45;&gt;Node7</title>
<g id="a_edge6_Node000001_Node000007"><a xlink:title=" ">
<path fill="none" stroke="#63b8ff" d="M706.88,-60.93C691.14,-53.94 673.13,-46.54 656.25,-41 646.87,-37.92 636.92,-35.08 627,-32.5"/>
<polygon fill="#63b8ff" stroke="#63b8ff" points="705.44,-64.11 715.99,-65.04 708.32,-57.74 705.44,-64.11"/>
</a>
</g>
</g>
<!-- Node5 -->
<g id="Node000005" class="node">
<title>Node5</title>
<g id="a_Node000005"><a xlink:href="classexamples_1_1kepler_1_1kepler_1_1_kepler.html#a8e781852385072982573e3d584e6e7bd" target="_top" xlink:title=" ">
<polygon fill="white" stroke="#666666" points="389,-76 225.25,-76 225.25,-44 389,-44 389,-76"/>
<text text-anchor="start" x="233.25" y="-62.5" font-family="Helvetica,sans-Serif" font-size="10.00">examples.kepler.kepler.Kepler.get</text>
<text text-anchor="middle" x="307.12" y="-50.5" font-family="Helvetica,sans-Serif" font-size="10.00">EccentricAnomaly</text>
</a>
</g>
</g>
<!-- Node4&#45;&gt;Node5 -->
<g id="edge4_Node000004_Node000005" class="edge">
<title>Node4&#45;&gt;Node5</title>
<g id="a_edge4_Node000004_Node000005"><a xlink:title=" ">
<path fill="none" stroke="#63b8ff" d="M425.44,-60C413.26,-60 401.11,-60 389.49,-60"/>
<polygon fill="#63b8ff" stroke="#63b8ff" points="425.09,-63.5 435.09,-60 425.09,-56.5 425.09,-63.5"/>
</a>
</g>
</g>
<!-- Node6 -->
<g id="Node000006" class="node">
<title>Node6</title>
<g id="a_Node000006"><a xlink:href="classexamples_1_1kepler_1_1kepler_1_1_kepler.html#aebb73077f8510f43f7dc943d1b4f16be" target="_top" xlink:title=" ">
<polygon fill="white" stroke="#666666" points="177.25,-70 0,-70 0,-50 177.25,-50 177.25,-70"/>
<text text-anchor="middle" x="88.62" y="-56.5" font-family="Helvetica,sans-Serif" font-size="10.00">examples.kepler.kepler.Kepler.setM0</text>
</a>
</g>
</g>
<!-- Node5&#45;&gt;Node6 -->
<g id="edge5_Node000005_Node000006" class="edge">
<title>Node5&#45;&gt;Node6</title>
<g id="a_edge5_Node000005_Node000006"><a xlink:title=" ">
<path fill="none" stroke="#63b8ff" d="M213.53,-60C201.57,-60 189.35,-60 177.48,-60"/>
<polygon fill="#63b8ff" stroke="#63b8ff" points="213.38,-63.5 223.38,-60 213.38,-56.5 213.38,-63.5"/>
</a>
</g>
</g>
<!-- Node8 -->
<g id="Node000008" class="node">
<title>Node8</title>
<g id="a_Node000008"><a xlink:href="classexamples_1_1kepler_1_1kepler_1_1_kepler.html#acd6a5c8bf0fcffed8257e59351144296" target="_top" xlink:title=" ">
<polygon fill="white" stroke="#666666" points="401,-26 213.25,-26 213.25,-6 401,-6 401,-26"/>
<text text-anchor="middle" x="307.12" y="-12.5" font-family="Helvetica,sans-Serif" font-size="10.00">examples.kepler.kepler.Kepler.set_time</text>
</a>
</g>
</g>
<!-- Node7&#45;&gt;Node8 -->
<g id="edge7_Node000007_Node000008" class="edge">
<title>Node7&#45;&gt;Node8</title>
<g id="a_edge7_Node000007_Node000008"><a xlink:title=" ">
<path fill="none" stroke="#63b8ff" d="M438.41,-16C426.03,-16 413.48,-16 401.31,-16"/>
<polygon fill="#63b8ff" stroke="#63b8ff" points="438.2,-19.5 448.2,-16 438.2,-12.5 438.2,-19.5"/>
</a>
</g>
</g>
</g>
</svg>
