<?xml version="1.0" encoding="UTF-8" standalone="no"?>
<!DOCTYPE svg PUBLIC "-//W3C//DTD SVG 1.1//EN"
 "http://www.w3.org/Graphics/SVG/1.1/DTD/svg11.dtd">
<!-- Generated by graphviz version 12.2.1 (20241206.2353)
 -->
<!-- Title: examples.vessel.test_minimize_SLSQP Pages: 1 -->
<!--zoomable 144 -->

<svg id="main" version="1.1" xmlns="http://www.w3.org/2000/svg" xmlns:xlink="http://www.w3.org/1999/xlink" xml:space="preserve" onload="init(evt)">

<style type="text/css"><![CDATA[
.node, .edge {opacity: 0.7;}
.node.selected, .edge.selected {opacity: 1;}
.edge:hover path { stroke: red; }
.edge:hover polygon { stroke: red; fill: red; }
]]></style>

<defs>
  <circle id="rim" cx="0" cy="0" r="7"/>
  <circle id="rim2" cx="0" cy="0" r="3.5"/>
  <g id="zoomPlus">
    <use xlink:href="#rim" fill="#404040"><set attributeName="fill" to="#808080" begin="zoomplus.mouseover" end="zoomplus.mouseout"/></use>
    <path d="M-4,0h8M0,-4v8" fill="none" stroke="white" stroke-width="1.5" pointer-events="none"/>
  </g>
  <g id="zoomMin">
    <use xlink:href="#rim" fill="#404040"><set attributeName="fill" to="#808080" begin="zoomminus.mouseover" end="zoomminus.mouseout"/></use>
    <path d="M-4,0h8" fill="none" stroke="white" stroke-width="1.5" pointer-events="none"/>
  </g>
  <g id="arrowUp" transform="translate(30 24)">
    <use xlink:href="#rim"/>
    <path pointer-events="none" fill="none" stroke="white" stroke-width="1.5" d="M0,-3.0v7 M-2.5,-0.5L0,-3.0L2.5,-0.5"/>
  </g>
  <g id="arrowRight" transform="rotate(90) translate(36 -43)">
    <use xlink:href="#rim"/>
    <path pointer-events="none" fill="none" stroke="white" stroke-width="1.5" d="M0,-3.0v7 M-2.5,-0.5L0,-3.0L2.5,-0.5"/>
  </g>
  <g id="arrowDown" transform="rotate(180) translate(-30 -48)">
    <use xlink:href="#rim"/>
    <path pointer-events="none" fill="none" stroke="white" stroke-width="1.5" d="M0,-3.0v7 M-2.5,-0.5L0,-3.0L2.5,-0.5"/>
  </g>
  <g id="arrowLeft" transform="rotate(270) translate(-36 17)">
    <use xlink:href="#rim"/>
    <path pointer-events="none" fill="none" stroke="white" stroke-width="1.5" d="M0,-3.0v7 M-2.5,-0.5L0,-3.0L2.5,-0.5"/>
  </g>
  <g id="resetDef">
    <use xlink:href="#rim2" fill="#404040"><set attributeName="fill" to="#808080" begin="reset.mouseover" end="reset.mouseout"/></use>
  </g>
</defs>
<script type="application/ecmascript">
var viewWidth = 976;
var viewHeight = 144;
var sectionId = 'dynsection-16';
</script>
<script type="application/ecmascript" xlink:href="svg.min.js"/>
<svg id="graph" class="graph">
<g id="viewport">
<title>examples.vessel.test_minimize_SLSQP</title>
<!-- Node1 -->
<g id="Node000001" class="node">
<title>Node1</title>
<g id="a_Node000001"><a xlink:title=" ">
<polygon fill="#999999" stroke="#666666" points="109,-86 0,-86 0,-54 109,-54 109,-86"/>
<text text-anchor="start" x="8" y="-72.5" font-family="Helvetica,sans-Serif" font-size="10.00">examples.vessel.test</text>
<text text-anchor="middle" x="54.5" y="-60.5" font-family="Helvetica,sans-Serif" font-size="10.00">_minimize_SLSQP</text>
</a>
</g>
</g>
<!-- Node2 -->
<g id="Node000002" class="node">
<title>Node2</title>
<g id="a_Node000002"><a xlink:href="namespaceexamples_1_1vessel.html#aa3edc89d9a8061a39a6985e4a588ec96" target="_top" xlink:title=" ">
<polygon fill="white" stroke="#666666" points="256.25,-86 145,-86 145,-54 256.25,-54 256.25,-86"/>
<text text-anchor="start" x="153" y="-72.5" font-family="Helvetica,sans-Serif" font-size="10.00">examples.vessel.print</text>
<text text-anchor="middle" x="200.62" y="-60.5" font-family="Helvetica,sans-Serif" font-size="10.00">_result</text>
</a>
</g>
</g>
<!-- Node1&#45;&gt;Node2 -->
<g id="edge1_Node000001_Node000002" class="edge">
<title>Node1&#45;&gt;Node2</title>
<g id="a_edge1_Node000001_Node000002"><a xlink:title=" ">
<path fill="none" stroke="#63b8ff" d="M109.17,-70C117.11,-70 125.37,-70 133.53,-70"/>
<polygon fill="#63b8ff" stroke="#63b8ff" points="133.44,-73.5 143.44,-70 133.44,-66.5 133.44,-73.5"/>
</a>
</g>
</g>
<!-- Node3 -->
<g id="Node000003" class="node">
<title>Node3</title>
<g id="a_Node000003"><a xlink:href="namespaceexamples_1_1vessel.html#aa26c59f34fa12f86c197263f10fd1dca" target="_top" xlink:title=" ">
<polygon fill="white" stroke="#666666" points="791.75,-122 660.25,-122 660.25,-102 791.75,-102 791.75,-122"/>
<text text-anchor="middle" x="726" y="-108.5" font-family="Helvetica,sans-Serif" font-size="10.00">examples.vessel._feasible</text>
</a>
</g>
</g>
<!-- Node2&#45;&gt;Node3 -->
<g id="edge2_Node000002_Node000003" class="edge">
<title>Node2&#45;&gt;Node3</title>
<g id="a_edge2_Node000002_Node000003"><a xlink:title=" ">
<path fill="none" stroke="#63b8ff" d="M225.36,-86.35C242.95,-97.42 267.97,-111.08 292.25,-117 414.68,-146.86 562.44,-135.45 649.78,-124.03"/>
<polygon fill="#63b8ff" stroke="#63b8ff" points="650.23,-127.5 659.68,-122.69 649.3,-120.56 650.23,-127.5"/>
</a>
</g>
</g>
<!-- Node5 -->
<g id="Node000005" class="node">
<title>Node5</title>
<g id="a_Node000005"><a xlink:href="namespaceexamples_1_1vessel.html#a95a5805807fc62c2224ce037be72bee4" target="_top" xlink:title=" ">
<polygon fill="white" stroke="#666666" points="421.5,-108 292.25,-108 292.25,-76 421.5,-76 421.5,-108"/>
<text text-anchor="start" x="300.25" y="-94.5" font-family="Helvetica,sans-Serif" font-size="10.00">examples.vessel.feasable</text>
<text text-anchor="middle" x="356.88" y="-82.5" font-family="Helvetica,sans-Serif" font-size="10.00">_cost_penalty</text>
</a>
</g>
</g>
<!-- Node2&#45;&gt;Node5 -->
<g id="edge4_Node000002_Node000005" class="edge">
<title>Node2&#45;&gt;Node5</title>
<g id="a_edge4_Node000002_Node000005"><a xlink:title=" ">
<path fill="none" stroke="#63b8ff" d="M256.44,-77.82C264.21,-78.93 272.31,-80.08 280.39,-81.23"/>
<polygon fill="#63b8ff" stroke="#63b8ff" points="279.86,-84.69 290.25,-82.64 280.85,-77.76 279.86,-84.69"/>
</a>
</g>
</g>
<!-- Node7 -->
<g id="Node000007" class="node">
<title>Node7</title>
<g id="a_Node000007"><a xlink:href="namespaceexamples_1_1vessel.html#adda1cdd4b5189fb2a4b564572cdf0dcc" target="_top" xlink:title=" ">
<polygon fill="white" stroke="#666666" points="786.5,-81 665.5,-81 665.5,-61 786.5,-61 786.5,-81"/>
<text text-anchor="middle" x="726" y="-67.5" font-family="Helvetica,sans-Serif" font-size="10.00">examples.vessel.weight</text>
</a>
</g>
</g>
<!-- Node2&#45;&gt;Node7 -->
<g id="edge11_Node000002_Node000007" class="edge">
<title>Node2&#45;&gt;Node7</title>
<g id="a_edge11_Node000002_Node000007"><a xlink:title=" ">
<path fill="none" stroke="#63b8ff" d="M256.73,-67.88C268.45,-67.52 280.76,-67.19 292.25,-67 419.55,-64.89 567.94,-67.33 653.72,-69.22"/>
<polygon fill="#63b8ff" stroke="#63b8ff" points="653.55,-72.71 663.63,-69.44 653.71,-65.71 653.55,-72.71"/>
</a>
</g>
</g>
<!-- Node8 -->
<g id="Node000008" class="node">
<title>Node8</title>
<g id="a_Node000008"><a xlink:href="namespaceexamples_1_1vessel.html#a8adc06d6d9db18a2bfac93d6483c23af" target="_top" xlink:title=" ">
<polygon fill="white" stroke="#666666" points="596.12,-20 472.12,-20 472.12,0 596.12,0 596.12,-20"/>
<text text-anchor="middle" x="534.12" y="-6.5" font-family="Helvetica,sans-Serif" font-size="10.00">examples.vessel.penalty</text>
</a>
</g>
</g>
<!-- Node2&#45;&gt;Node8 -->
<g id="edge10_Node000002_Node000008" class="edge">
<title>Node2&#45;&gt;Node8</title>
<g id="a_edge10_Node000002_Node000008"><a xlink:title=" ">
<path fill="none" stroke="#63b8ff" d="M236.17,-53.64C252.77,-46.47 273.17,-38.64 292.25,-34 347.73,-20.5 412.16,-14.57 460.42,-11.98"/>
<polygon fill="#63b8ff" stroke="#63b8ff" points="460.38,-15.48 470.19,-11.49 460.03,-8.49 460.38,-15.48"/>
</a>
</g>
</g>
<!-- Node4 -->
<g id="Node000004" class="node">
<title>Node4</title>
<g id="a_Node000004"><a xlink:href="namespaceexamples_1_1vessel.html#a9b9b7d9b525b0e32dec4a679dd25fb79" target="_top" xlink:title=" ">
<polygon fill="white" stroke="#666666" points="968.25,-122 841.25,-122 841.25,-102 968.25,-102 968.25,-122"/>
<text text-anchor="middle" x="904.75" y="-108.5" font-family="Helvetica,sans-Serif" font-size="10.00">examples.vessel.discrete</text>
</a>
</g>
</g>
<!-- Node3&#45;&gt;Node4 -->
<g id="edge3_Node000003_Node000004" class="edge">
<title>Node3&#45;&gt;Node4</title>
<g id="a_edge3_Node000003_Node000004"><a xlink:title=" ">
<path fill="none" stroke="#63b8ff" d="M792.06,-112C804.27,-112 817.12,-112 829.58,-112"/>
<polygon fill="#63b8ff" stroke="#63b8ff" points="829.37,-115.5 839.37,-112 829.37,-108.5 829.37,-115.5"/>
</a>
</g>
</g>
<!-- Node6 -->
<g id="Node000006" class="node">
<title>Node6</title>
<g id="a_Node000006"><a xlink:href="namespaceexamples_1_1vessel.html#a68aa194637f52a545cb4d8e1f552f3f8" target="_top" xlink:title=" ">
<polygon fill="white" stroke="#666666" points="610.75,-102 457.5,-102 457.5,-82 610.75,-82 610.75,-102"/>
<text text-anchor="middle" x="534.12" y="-88.5" font-family="Helvetica,sans-Serif" font-size="10.00">examples.vessel.feasable_cost</text>
</a>
</g>
</g>
<!-- Node5&#45;&gt;Node6 -->
<g id="edge5_Node000005_Node000006" class="edge">
<title>Node5&#45;&gt;Node6</title>
<g id="a_edge5_Node000005_Node000006"><a xlink:title=" ">
<path fill="none" stroke="#63b8ff" d="M421.64,-92C429.49,-92 437.62,-92 445.74,-92"/>
<polygon fill="#63b8ff" stroke="#63b8ff" points="445.68,-95.5 455.68,-92 445.68,-88.5 445.68,-95.5"/>
</a>
</g>
</g>
<!-- Node5&#45;&gt;Node8 -->
<g id="edge8_Node000005_Node000008" class="edge">
<title>Node5&#45;&gt;Node8</title>
<g id="a_edge8_Node000005_Node000008"><a xlink:title=" ">
<path fill="none" stroke="#63b8ff" d="M392.92,-75.6C424.37,-60.89 470.16,-39.46 500.77,-25.14"/>
<polygon fill="#63b8ff" stroke="#63b8ff" points="501.96,-28.45 509.54,-21.04 499,-22.11 501.96,-28.45"/>
</a>
</g>
</g>
<!-- Node6&#45;&gt;Node3 -->
<g id="edge6_Node000006_Node000003" class="edge">
<title>Node6&#45;&gt;Node3</title>
<g id="a_edge6_Node000006_Node000003"><a xlink:title=" ">
<path fill="none" stroke="#63b8ff" d="M610.99,-99.99C623.4,-101.3 636.27,-102.65 648.7,-103.96"/>
<polygon fill="#63b8ff" stroke="#63b8ff" points="648.15,-107.42 658.46,-104.99 648.88,-100.46 648.15,-107.42"/>
</a>
</g>
</g>
<!-- Node6&#45;&gt;Node7 -->
<g id="edge7_Node000006_Node000007" class="edge">
<title>Node6&#45;&gt;Node7</title>
<g id="a_edge7_Node000006_Node000007"><a xlink:title=" ">
<path fill="none" stroke="#63b8ff" d="M610.99,-83.61C625.17,-82.04 639.94,-80.41 653.97,-78.86"/>
<polygon fill="#63b8ff" stroke="#63b8ff" points="653.98,-82.38 663.54,-77.8 653.21,-75.42 653.98,-82.38"/>
</a>
</g>
</g>
<!-- Node9 -->
<g id="Node000009" class="node">
<title>Node9</title>
<g id="a_Node000009"><a xlink:href="namespaceexamples_1_1vessel.html#acf59dad747a84939ba5b8e0da39d030b" target="_top" xlink:title=" ">
<polygon fill="white" stroke="#666666" points="805.25,-20 646.75,-20 646.75,0 805.25,0 805.25,-20"/>
<text text-anchor="middle" x="726" y="-6.5" font-family="Helvetica,sans-Serif" font-size="10.00">examples.vessel.constraint_ineq</text>
</a>
</g>
</g>
<!-- Node8&#45;&gt;Node9 -->
<g id="edge9_Node000008_Node000009" class="edge">
<title>Node8&#45;&gt;Node9</title>
<g id="a_edge9_Node000008_Node000009"><a xlink:title=" ">
<path fill="none" stroke="#63b8ff" d="M596.51,-10C608.83,-10 622.01,-10 635.07,-10"/>
<polygon fill="#63b8ff" stroke="#63b8ff" points="634.97,-13.5 644.97,-10 634.97,-6.5 634.97,-13.5"/>
</a>
</g>
</g>
</g>
</svg>

<g id="navigator" transform="translate(0 0)" fill="#404254">
  <rect fill="#f2f5e9" fill-opacity="0.5" stroke="#606060" stroke-width=".5" x="0" y="0" width="60" height="60"/>
  <use id="zoomplus" xlink:href="#zoomPlus" x="17" y="9" onmousedown="handleZoom(evt,'in')"/>
  <use id="zoomminus" xlink:href="#zoomMin" x="42" y="9" onmousedown="handleZoom(evt,'out')"/>
  <use id="reset" xlink:href="#resetDef" x="30" y="36" onmousedown="handleReset()"/>
   <use id="arrowup" xlink:href="#arrowUp" x="0" y="0" onmousedown="handlePan(0,-1)"/>
  <use id="arrowright" xlink:href="#arrowRight" x="0" y="0" onmousedown="handlePan(1,0)"/>
  <use id="arrowdown" xlink:href="#arrowDown" x="0" y="0" onmousedown="handlePan(0,1)"/>
  <use id="arrowleft" xlink:href="#arrowLeft" x="0" y="0" onmousedown="handlePan(-1,0)"/>
</g>
<svg viewBox="0 0 15 15" width="100%" height="30px" preserveAspectRatio="xMaxYMin meet">
 <g id="arrow_out" transform="scale(0.3 0.3)">
  <a xlink:href="namespaceexamples_1_1vessel_a876eb8e7aeeebb524d51f11ef3ecc488_cgraph_org.svg" target="_base">
   <rect id="button" ry="5" rx="5" y="6" x="6" height="38" width="38"
        fill="#f2f5e9" fill-opacity="0.5" stroke="#606060" stroke-width="1.0"/>
   <path id="arrow"
     d="M 11.500037,31.436501 C 11.940474,20.09759 22.043105,11.32322 32.158766,21.979434 L 37.068811,17.246167 C 37.068811,17.246167 37.088388,32 37.088388,32 L 22.160133,31.978069 C 22.160133,31.978069 26.997745,27.140456 26.997745,27.140456 C 18.528582,18.264221 13.291696,25.230495 11.500037,31.436501 z"
     style="fill:#404040;"/>
  </a>
 </g>
</svg>

<style type='text/css'>
<![CDATA[
[data-mouse-over-selected='false'] { opacity: 0.7; }
[data-mouse-over-selected='true']  { opacity: 1.0; }
]]>
</style>
<script type="application/ecmascript"><![CDATA[
document.addEventListener('DOMContentLoaded', (event) => {
  highlightEdges();
  highlightAdjacentNodes();
});
]]></script>
</svg>
