<?xml version="1.0" encoding="UTF-8" standalone="no"?>
<!DOCTYPE svg PUBLIC "-//W3C//DTD SVG 1.1//EN"
 "http://www.w3.org/Graphics/SVG/1.1/DTD/svg11.dtd">
<!-- Generated by graphviz version 12.2.1 (20241206.2353)
 -->
<!-- Title: fcmaes.retry.plot Pages: 1 -->
<svg width="266pt" height="46pt"
 viewBox="0.00 0.00 265.75 46.00" xmlns="http://www.w3.org/2000/svg" xmlns:xlink="http://www.w3.org/1999/xlink">
<g id="graph0" class="graph" transform="scale(1 1) rotate(0) translate(4 42)">
<title>fcmaes.retry.plot</title>
<!-- Node1 -->
<g id="Node000001" class="node">
<title>Node1</title>
<g id="a_Node000001"><a xlink:title="Plots a given front using either 2D or 3D visualization, with options for interpolation and customiza...">
<polygon fill="#999999" stroke="#666666" points="257.75,-20 169,-20 169,0 257.75,0 257.75,-20"/>
<text text-anchor="middle" x="213.38" y="-6.5" font-family="Helvetica,sans-Serif" font-size="10.00">fcmaes.retry.plot</text>
</a>
</g>
</g>
<!-- Node1&#45;&gt;Node1 -->
<g id="edge2_Node000001_Node000001" class="edge">
<title>Node1&#45;&gt;Node1</title>
<g id="a_edge2_Node000001_Node000001"><a xlink:title=" ">
<path fill="none" stroke="#63b8ff" d="M239.33,-31.44C235.99,-35.3 227.34,-38 213.38,-38 187.84,-38 180.07,-28.98 190.04,-20.34"/>
<polygon fill="#63b8ff" stroke="#63b8ff" points="242.76,-30.74 237.06,-21.81 235.95,-32.35 242.76,-30.74"/>
</a>
</g>
</g>
<!-- Node2 -->
<g id="Node000002" class="node">
<title>Node2</title>
<g id="a_Node000002"><a xlink:href="namespacefcmaes_1_1retry.html#aa3fad9513845a768be702efc7bdd594a" target="_top" xlink:title="Minimizes an optimization problem and plots the improvement process while storing results.">
<polygon fill="white" stroke="#666666" points="133,-20 0,-20 0,0 133,0 133,-20"/>
<text text-anchor="middle" x="66.5" y="-6.5" font-family="Helvetica,sans-Serif" font-size="10.00">fcmaes.retry.minimize_plot</text>
</a>
</g>
</g>
<!-- Node1&#45;&gt;Node2 -->
<g id="edge1_Node000001_Node000002" class="edge">
<title>Node1&#45;&gt;Node2</title>
<g id="a_edge1_Node000001_Node000002"><a xlink:title=" ">
<path fill="none" stroke="#63b8ff" d="M157.04,-10C149.31,-10 141.3,-10 133.4,-10"/>
<polygon fill="#63b8ff" stroke="#63b8ff" points="157,-13.5 167,-10 157,-6.5 157,-13.5"/>
</a>
</g>
</g>
</g>
</svg>
