<?xml version="1.0" encoding="UTF-8" standalone="no"?>
<!DOCTYPE svg PUBLIC "-//W3C//DTD SVG 1.1//EN"
 "http://www.w3.org/Graphics/SVG/1.1/DTD/svg11.dtd">
<!-- Generated by graphviz version 12.2.1 (20241206.2353)
 -->
<!-- Title: fcmaes.mapelites.run_map_elites_ Pages: 1 -->
<svg width="478pt" height="104pt"
 viewBox="0.00 0.00 477.50 104.00" xmlns="http://www.w3.org/2000/svg" xmlns:xlink="http://www.w3.org/1999/xlink">
<g id="graph0" class="graph" transform="scale(1 1) rotate(0) translate(4 100)">
<title>fcmaes.mapelites.run_map_elites_</title>
<!-- Node1 -->
<g id="Node000001" class="node">
<title>Node1</title>
<g id="a_Node000001"><a xlink:title="Runs the MAP&#45;Elites algorithm with optional SBX (Simulated Binary Crossover) or iso+line variation,...">
<polygon fill="#999999" stroke="#666666" points="109.75,-64 0,-64 0,-32 109.75,-32 109.75,-64"/>
<text text-anchor="start" x="8" y="-50.5" font-family="Helvetica,sans-Serif" font-size="10.00">fcmaes.mapelites.run</text>
<text text-anchor="middle" x="54.88" y="-38.5" font-family="Helvetica,sans-Serif" font-size="10.00">_map_elites_</text>
</a>
</g>
</g>
<!-- Node2 -->
<g id="Node000002" class="node">
<title>Node2</title>
<g id="a_Node000002"><a xlink:href="namespacefcmaes_1_1mapelites.html#aa557fd895bcaf40f495273ef16953c11" target="_top" xlink:title="Generates isotropic deviation data within specified bounds.">
<polygon fill="white" stroke="#666666" points="291.88,-96 161.88,-96 161.88,-76 291.88,-76 291.88,-96"/>
<text text-anchor="middle" x="226.88" y="-82.5" font-family="Helvetica,sans-Serif" font-size="10.00">fcmaes.mapelites.iso_dd_</text>
</a>
</g>
</g>
<!-- Node1&#45;&gt;Node2 -->
<g id="edge1_Node000001_Node000002" class="edge">
<title>Node1&#45;&gt;Node2</title>
<g id="a_edge1_Node000001_Node000002"><a xlink:title=" ">
<path fill="none" stroke="#63b8ff" d="M110.13,-60.13C128.57,-64.25 149.23,-68.87 167.94,-73.05"/>
<polygon fill="#63b8ff" stroke="#63b8ff" points="167,-76.43 177.52,-75.19 168.52,-69.59 167,-76.43"/>
</a>
</g>
</g>
<!-- Node3 -->
<g id="Node000003" class="node">
<title>Node3</title>
<g id="a_Node000003"><a xlink:href="namespacefcmaes_1_1mapelites.html#addca945e57b8fc097ca552903b98187f" target="_top" xlink:title="Optimizes a solution using the Covariance Matrix Adaptation Evolution Strategy (CMA&#45;ES).">
<polygon fill="white" stroke="#666666" points="308,-58 145.75,-58 145.75,-38 308,-38 308,-58"/>
<text text-anchor="middle" x="226.88" y="-44.5" font-family="Helvetica,sans-Serif" font-size="10.00">fcmaes.mapelites.optimize_cma_</text>
</a>
</g>
</g>
<!-- Node1&#45;&gt;Node3 -->
<g id="edge2_Node000001_Node000003" class="edge">
<title>Node1&#45;&gt;Node3</title>
<g id="a_edge2_Node000001_Node000003"><a xlink:title=" ">
<path fill="none" stroke="#63b8ff" d="M110.13,-48C117.88,-48 126.02,-48 134.25,-48"/>
<polygon fill="#63b8ff" stroke="#63b8ff" points="133.98,-51.5 143.98,-48 133.98,-44.5 133.98,-51.5"/>
</a>
</g>
</g>
<!-- Node5 -->
<g id="Node000005" class="node">
<title>Node5</title>
<g id="a_Node000005"><a xlink:href="namespacefcmaes_1_1mapelites.html#a5f70b23800f6a77b08d918f5aa0f9b3d" target="_top" xlink:title=" ">
<polygon fill="white" stroke="#666666" points="296,-20 157.75,-20 157.75,0 296,0 296,-20"/>
<text text-anchor="middle" x="226.88" y="-6.5" font-family="Helvetica,sans-Serif" font-size="10.00">fcmaes.mapelites.variation_</text>
</a>
</g>
</g>
<!-- Node1&#45;&gt;Node5 -->
<g id="edge4_Node000001_Node000005" class="edge">
<title>Node1&#45;&gt;Node5</title>
<g id="a_edge4_Node000001_Node000005"><a xlink:title=" ">
<path fill="none" stroke="#63b8ff" d="M110.13,-35.87C128.57,-31.75 149.23,-27.13 167.94,-22.95"/>
<polygon fill="#63b8ff" stroke="#63b8ff" points="168.52,-26.41 177.52,-20.81 167,-19.57 168.52,-26.41"/>
</a>
</g>
</g>
<!-- Node4 -->
<g id="Node000004" class="node">
<title>Node4</title>
<g id="a_Node000004"><a xlink:href="namespacefcmaes_1_1mapelites.html#a86f7f0503dc82b70b87a882b49a95f23" target="_top" xlink:title="Evaluates a population, updates the archive with new solutions, and determines rankings.">
<polygon fill="white" stroke="#666666" points="469.5,-64 344,-64 344,-32 469.5,-32 469.5,-64"/>
<text text-anchor="start" x="352" y="-50.5" font-family="Helvetica,sans-Serif" font-size="10.00">fcmaes.mapelites.update</text>
<text text-anchor="middle" x="406.75" y="-38.5" font-family="Helvetica,sans-Serif" font-size="10.00">_archive</text>
</a>
</g>
</g>
<!-- Node3&#45;&gt;Node4 -->
<g id="edge3_Node000003_Node000004" class="edge">
<title>Node3&#45;&gt;Node4</title>
<g id="a_edge3_Node000003_Node000004"><a xlink:title=" ">
<path fill="none" stroke="#63b8ff" d="M308.49,-48C316.39,-48 324.38,-48 332.21,-48"/>
<polygon fill="#63b8ff" stroke="#63b8ff" points="332.02,-51.5 342.02,-48 332.02,-44.5 332.02,-51.5"/>
</a>
</g>
</g>
</g>
</svg>
