<?xml version="1.0" encoding="UTF-8" standalone="no"?>
<!DOCTYPE svg PUBLIC "-//W3C//DTD SVG 1.1//EN"
 "http://www.w3.org/Graphics/SVG/1.1/DTD/svg11.dtd">
<!-- Generated by graphviz version 12.2.1 (20241206.2353)
 -->
<!-- Title: examples.spring.weight Pages: 1 -->
<svg width="569pt" height="62pt"
 viewBox="0.00 0.00 569.25 62.00" xmlns="http://www.w3.org/2000/svg" xmlns:xlink="http://www.w3.org/1999/xlink">
<g id="graph0" class="graph" transform="scale(1 1) rotate(0) translate(4 58)">
<title>examples.spring.weight</title>
<!-- Node1 -->
<g id="Node000001" class="node">
<title>Node1</title>
<g id="a_Node000001"><a xlink:title=" ">
<polygon fill="#999999" stroke="#666666" points="561.25,-48 442.5,-48 442.5,-28 561.25,-28 561.25,-48"/>
<text text-anchor="middle" x="501.88" y="-34.5" font-family="Helvetica,sans-Serif" font-size="10.00">examples.spring.weight</text>
</a>
</g>
</g>
<!-- Node2 -->
<g id="Node000002" class="node">
<title>Node2</title>
<g id="a_Node000002"><a xlink:href="namespaceexamples_1_1spring.html#a5548a6c0d57e91af650b43407f2f1c60" target="_top" xlink:title=" ">
<polygon fill="white" stroke="#666666" points="251.75,-54 142.75,-54 142.75,-22 251.75,-22 251.75,-54"/>
<text text-anchor="start" x="150.75" y="-40.5" font-family="Helvetica,sans-Serif" font-size="10.00">examples.spring.print</text>
<text text-anchor="middle" x="197.25" y="-28.5" font-family="Helvetica,sans-Serif" font-size="10.00">_result</text>
</a>
</g>
</g>
<!-- Node1&#45;&gt;Node2 -->
<g id="edge1_Node000001_Node000002" class="edge">
<title>Node1&#45;&gt;Node2</title>
<g id="a_edge1_Node000001_Node000002"><a xlink:title=" ">
<path fill="none" stroke="#63b8ff" d="M430.75,-40.48C422.57,-40.69 414.35,-40.88 406.5,-41 353.73,-41.84 340.52,-41.88 287.75,-41 276.25,-40.81 263.92,-40.48 252.2,-40.1"/>
<polygon fill="#63b8ff" stroke="#63b8ff" points="430.82,-43.98 440.72,-40.2 430.62,-36.98 430.82,-43.98"/>
</a>
</g>
</g>
<!-- Node4 -->
<g id="Node000004" class="node">
<title>Node4</title>
<g id="a_Node000004"><a xlink:href="namespaceexamples_1_1spring.html#a39b97ec21efea793b97726fa1bdc4d0b" target="_top" xlink:title=" ">
<polygon fill="white" stroke="#666666" points="406.5,-32 287.75,-32 287.75,0 406.5,0 406.5,-32"/>
<text text-anchor="start" x="295.75" y="-18.5" font-family="Helvetica,sans-Serif" font-size="10.00">examples.spring.weight</text>
<text text-anchor="middle" x="347.12" y="-6.5" font-family="Helvetica,sans-Serif" font-size="10.00">_penalty</text>
</a>
</g>
</g>
<!-- Node1&#45;&gt;Node4 -->
<g id="edge3_Node000001_Node000004" class="edge">
<title>Node1&#45;&gt;Node4</title>
<g id="a_edge3_Node000001_Node000004"><a xlink:title=" ">
<path fill="none" stroke="#63b8ff" d="M430.96,-27.93C422.89,-26.77 414.73,-25.59 406.84,-24.46"/>
<polygon fill="#63b8ff" stroke="#63b8ff" points="430.36,-31.38 440.76,-29.34 431.36,-24.45 430.36,-31.38"/>
</a>
</g>
</g>
<!-- Node3 -->
<g id="Node000003" class="node">
<title>Node3</title>
<g id="a_Node000003"><a xlink:href="namespaceexamples_1_1spring.html#a4f4f0af3100172a2bbc0cb83f41b898b" target="_top" xlink:title=" ">
<polygon fill="white" stroke="#666666" points="106.75,-54 0,-54 0,-22 106.75,-22 106.75,-54"/>
<text text-anchor="start" x="8" y="-40.5" font-family="Helvetica,sans-Serif" font-size="10.00">examples.spring.test</text>
<text text-anchor="middle" x="53.38" y="-28.5" font-family="Helvetica,sans-Serif" font-size="10.00">_minimize_SLSQP</text>
</a>
</g>
</g>
<!-- Node2&#45;&gt;Node3 -->
<g id="edge2_Node000002_Node000003" class="edge">
<title>Node2&#45;&gt;Node3</title>
<g id="a_edge2_Node000002_Node000003"><a xlink:title=" ">
<path fill="none" stroke="#63b8ff" d="M131.29,-38C123.21,-38 115.02,-38 107.15,-38"/>
<polygon fill="#63b8ff" stroke="#63b8ff" points="131.1,-41.5 141.1,-38 131.1,-34.5 131.1,-41.5"/>
</a>
</g>
</g>
<!-- Node4&#45;&gt;Node2 -->
<g id="edge4_Node000004_Node000002" class="edge">
<title>Node4&#45;&gt;Node2</title>
<g id="a_edge4_Node000004_Node000002"><a xlink:title=" ">
<path fill="none" stroke="#63b8ff" d="M275.99,-26.43C267.97,-27.63 259.88,-28.83 252.12,-29.99"/>
<polygon fill="#63b8ff" stroke="#63b8ff" points="276.38,-29.91 285.76,-24.98 275.35,-22.99 276.38,-29.91"/>
</a>
</g>
</g>
</g>
</svg>
