<?xml version="1.0" encoding="UTF-8" standalone="no"?>
<!DOCTYPE svg PUBLIC "-//W3C//DTD SVG 1.1//EN"
 "http://www.w3.org/Graphics/SVG/1.1/DTD/svg11.dtd">
<!-- Generated by graphviz version 12.2.1 (20241206.2353)
 -->
<!-- Title: examples.elitescass2.plot Pages: 1 -->
<svg width="478pt" height="40pt"
 viewBox="0.00 0.00 478.25 40.00" xmlns="http://www.w3.org/2000/svg" xmlns:xlink="http://www.w3.org/1999/xlink">
<g id="graph0" class="graph" transform="scale(1 1) rotate(0) translate(4 36)">
<title>examples.elitescass2.plot</title>
<!-- Node1 -->
<g id="Node000001" class="node">
<title>Node1</title>
<g id="a_Node000001"><a xlink:title=" ">
<polygon fill="#999999" stroke="#666666" points="129.25,-26 0,-26 0,-6 129.25,-6 129.25,-26"/>
<text text-anchor="middle" x="64.62" y="-12.5" font-family="Helvetica,sans-Serif" font-size="10.00">examples.elitescass2.plot</text>
</a>
</g>
</g>
<!-- Node2 -->
<g id="Node000002" class="node">
<title>Node2</title>
<g id="a_Node000002"><a xlink:href="namespaceexamples_1_1elitescass2.html#a30538a53214b86ebd4dde6f1ce3fe044" target="_top" xlink:title=" ">
<polygon fill="white" stroke="#666666" points="294.5,-32 165.25,-32 165.25,0 294.5,0 294.5,-32"/>
<text text-anchor="start" x="173.25" y="-18.5" font-family="Helvetica,sans-Serif" font-size="10.00">examples.elitescass2.plot</text>
<text text-anchor="middle" x="229.88" y="-6.5" font-family="Helvetica,sans-Serif" font-size="10.00">_archive</text>
</a>
</g>
</g>
<!-- Node1&#45;&gt;Node2 -->
<g id="edge1_Node000001_Node000002" class="edge">
<title>Node1&#45;&gt;Node2</title>
<g id="a_edge1_Node000001_Node000002"><a xlink:title=" ">
<path fill="none" stroke="#63b8ff" d="M129.68,-16C137.57,-16 145.69,-16 153.73,-16"/>
<polygon fill="#63b8ff" stroke="#63b8ff" points="153.49,-19.5 163.49,-16 153.49,-12.5 153.49,-19.5"/>
</a>
</g>
</g>
<!-- Node3 -->
<g id="Node000003" class="node">
<title>Node3</title>
<g id="a_Node000003"><a xlink:href="namespaceexamples_1_1elitescass2.html#ab94c74c431f8fff119e0db2a1ba6aec5" target="_top" xlink:title=" ">
<polygon fill="white" stroke="#666666" points="470.25,-26 330.5,-26 330.5,-6 470.25,-6 470.25,-26"/>
<text text-anchor="middle" x="400.38" y="-12.5" font-family="Helvetica,sans-Serif" font-size="10.00">examples.elitescass2.plot3d</text>
</a>
</g>
</g>
<!-- Node2&#45;&gt;Node3 -->
<g id="edge2_Node000002_Node000003" class="edge">
<title>Node2&#45;&gt;Node3</title>
<g id="a_edge2_Node000002_Node000003"><a xlink:title=" ">
<path fill="none" stroke="#63b8ff" d="M294.58,-16C302.5,-16 310.67,-16 318.8,-16"/>
<polygon fill="#63b8ff" stroke="#63b8ff" points="318.72,-19.5 328.72,-16 318.72,-12.5 318.72,-19.5"/>
</a>
</g>
</g>
</g>
</svg>
