<?xml version="1.0" encoding="UTF-8" standalone="no"?>
<!DOCTYPE svg PUBLIC "-//W3C//DTD SVG 1.1//EN"
 "http://www.w3.org/Graphics/SVG/1.1/DTD/svg11.dtd">
<!-- Generated by graphviz version 12.2.1 (20241206.2353)
 -->
<!-- Title: examples.tdesign.normalize_weights_to_average_one Pages: 1 -->
<svg width="829pt" height="90pt"
 viewBox="0.00 0.00 829.00 90.00" xmlns="http://www.w3.org/2000/svg" xmlns:xlink="http://www.w3.org/1999/xlink">
<g id="graph0" class="graph" transform="scale(1 1) rotate(0) translate(4 86)">
<title>examples.tdesign.normalize_weights_to_average_one</title>
<!-- Node1 -->
<g id="Node000001" class="node">
<title>Node1</title>
<g id="a_Node000001"><a xlink:title=" ">
<polygon fill="#999999" stroke="#666666" points="821,-60 683.5,-60 683.5,-28 821,-28 821,-60"/>
<text text-anchor="start" x="691.5" y="-46.5" font-family="Helvetica,sans-Serif" font-size="10.00">examples.tdesign.normalize</text>
<text text-anchor="middle" x="752.25" y="-34.5" font-family="Helvetica,sans-Serif" font-size="10.00">_weights_to_average_one</text>
</a>
</g>
</g>
<!-- Node2 -->
<g id="Node000002" class="node">
<title>Node2</title>
<g id="a_Node000002"><a xlink:href="namespaceexamples_1_1tdesign.html#ae536e1afa6d09f1d3d8354727738b2df" target="_top" xlink:title="Visualize points on the unit sphere.">
<polygon fill="white" stroke="#666666" points="302,-82 168.25,-82 168.25,-50 302,-50 302,-82"/>
<text text-anchor="start" x="176.25" y="-68.5" font-family="Helvetica,sans-Serif" font-size="10.00">examples.tdesign.visualize</text>
<text text-anchor="middle" x="235.12" y="-56.5" font-family="Helvetica,sans-Serif" font-size="10.00">_points</text>
</a>
</g>
</g>
<!-- Node1&#45;&gt;Node2 -->
<g id="edge1_Node000001_Node000002" class="edge">
<title>Node1&#45;&gt;Node2</title>
<g id="a_edge1_Node000001_Node000002"><a xlink:title=" ">
<path fill="none" stroke="#63b8ff" d="M671.72,-47.4C570.37,-51.72 397.01,-59.13 302.44,-63.17"/>
<polygon fill="#63b8ff" stroke="#63b8ff" points="671.76,-50.9 681.6,-46.97 671.46,-43.9 671.76,-50.9"/>
</a>
</g>
</g>
<!-- Node5 -->
<g id="Node000005" class="node">
<title>Node5</title>
<g id="a_Node000005"><a xlink:href="namespaceexamples_1_1tdesign.html#aaf9d7a51f34d459c87a877b260d6b27d" target="_top" xlink:title=" ">
<polygon fill="white" stroke="#666666" points="647.5,-38 513,-38 513,-6 647.5,-6 647.5,-38"/>
<text text-anchor="start" x="521" y="-24.5" font-family="Helvetica,sans-Serif" font-size="10.00">examples.tdesign.weighted</text>
<text text-anchor="middle" x="580.25" y="-12.5" font-family="Helvetica,sans-Serif" font-size="10.00">_spherical_harmonics</text>
</a>
</g>
</g>
<!-- Node1&#45;&gt;Node5 -->
<g id="edge4_Node000001_Node000005" class="edge">
<title>Node1&#45;&gt;Node5</title>
<g id="a_edge4_Node000001_Node000005"><a xlink:title=" ">
<path fill="none" stroke="#63b8ff" d="M671.79,-33.72C663.76,-32.68 655.65,-31.63 647.77,-30.61"/>
<polygon fill="#63b8ff" stroke="#63b8ff" points="671.22,-37.17 681.58,-34.98 672.11,-30.23 671.22,-37.17"/>
</a>
</g>
</g>
<!-- Node3 -->
<g id="Node000003" class="node">
<title>Node3</title>
<g id="a_Node000003"><a xlink:href="namespaceexamples_1_1tdesign.html#a2045c59f87224672cc3e092a27f3af23" target="_top" xlink:title=" ">
<polygon fill="white" stroke="#666666" points="132.25,-32 0,-32 0,0 132.25,0 132.25,-32"/>
<text text-anchor="start" x="8" y="-18.5" font-family="Helvetica,sans-Serif" font-size="10.00">examples.tdesign.optimize</text>
<text text-anchor="middle" x="66.12" y="-6.5" font-family="Helvetica,sans-Serif" font-size="10.00">_weighted</text>
</a>
</g>
</g>
<!-- Node2&#45;&gt;Node3 -->
<g id="edge2_Node000002_Node000003" class="edge">
<title>Node2&#45;&gt;Node3</title>
<g id="a_edge2_Node000002_Node000003"><a xlink:title=" ">
<path fill="none" stroke="#63b8ff" d="M168.47,-46.34C153.16,-41.76 137.01,-36.92 122.22,-32.49"/>
<polygon fill="#63b8ff" stroke="#63b8ff" points="167.41,-49.68 177.99,-49.19 169.42,-42.97 167.41,-49.68"/>
</a>
</g>
</g>
<!-- Node4 -->
<g id="Node000004" class="node">
<title>Node4</title>
<g id="a_Node000004"><a xlink:href="namespaceexamples_1_1tdesign.html#afed335728de9256c19b963026d24a9c4" target="_top" xlink:title=" ">
<polygon fill="white" stroke="#666666" points="125.5,-82 6.75,-82 6.75,-50 125.5,-50 125.5,-82"/>
<text text-anchor="start" x="14.75" y="-68.5" font-family="Helvetica,sans-Serif" font-size="10.00">examples.tdesign.show</text>
<text text-anchor="middle" x="66.12" y="-56.5" font-family="Helvetica,sans-Serif" font-size="10.00">_results</text>
</a>
</g>
</g>
<!-- Node2&#45;&gt;Node4 -->
<g id="edge3_Node000002_Node000004" class="edge">
<title>Node2&#45;&gt;Node4</title>
<g id="a_edge3_Node000002_Node000004"><a xlink:title=" ">
<path fill="none" stroke="#63b8ff" d="M156.89,-66C146.47,-66 135.91,-66 125.88,-66"/>
<polygon fill="#63b8ff" stroke="#63b8ff" points="156.61,-69.5 166.61,-66 156.61,-62.5 156.61,-69.5"/>
</a>
</g>
</g>
<!-- Node6 -->
<g id="Node000006" class="node">
<title>Node6</title>
<g id="a_Node000006"><a xlink:href="namespaceexamples_1_1tdesign.html#a1cb307dfea95e59f67161218e5a0ef8e" target="_top" xlink:title="Compute a symmetry measure for a set of points.">
<polygon fill="white" stroke="#666666" points="477,-32 338,-32 338,-12 477,-12 477,-32"/>
<text text-anchor="middle" x="407.5" y="-18.5" font-family="Helvetica,sans-Serif" font-size="10.00">examples.tdesign.symmetry</text>
</a>
</g>
</g>
<!-- Node5&#45;&gt;Node6 -->
<g id="edge5_Node000005_Node000006" class="edge">
<title>Node5&#45;&gt;Node6</title>
<g id="a_edge5_Node000005_Node000006"><a xlink:title=" ">
<path fill="none" stroke="#63b8ff" d="M501.47,-22C493.42,-22 485.29,-22 477.36,-22"/>
<polygon fill="#63b8ff" stroke="#63b8ff" points="501.23,-25.5 511.23,-22 501.23,-18.5 501.23,-25.5"/>
</a>
</g>
</g>
<!-- Node6&#45;&gt;Node2 -->
<g id="edge8_Node000006_Node000002" class="edge">
<title>Node6&#45;&gt;Node2</title>
<g id="a_edge8_Node000006_Node000002"><a xlink:title=" ">
<path fill="none" stroke="#63b8ff" d="M355.06,-35.28C337.68,-39.77 318.07,-44.84 299.86,-49.54"/>
<polygon fill="#63b8ff" stroke="#63b8ff" points="355.85,-38.7 364.66,-32.81 354.1,-31.92 355.85,-38.7"/>
</a>
</g>
</g>
<!-- Node7 -->
<g id="Node000007" class="node">
<title>Node7</title>
<g id="a_Node000007"><a xlink:href="namespaceexamples_1_1tdesign.html#a8357e675a25643e47dc42c4957e28147" target="_top" xlink:title=" ">
<polygon fill="white" stroke="#666666" points="284.38,-32 185.88,-32 185.88,0 284.38,0 284.38,-32"/>
<text text-anchor="start" x="193.88" y="-18.5" font-family="Helvetica,sans-Serif" font-size="10.00">examples.tdesign.t</text>
<text text-anchor="middle" x="235.12" y="-6.5" font-family="Helvetica,sans-Serif" font-size="10.00">_design_error</text>
</a>
</g>
</g>
<!-- Node6&#45;&gt;Node7 -->
<g id="edge6_Node000006_Node000007" class="edge">
<title>Node6&#45;&gt;Node7</title>
<g id="a_edge6_Node000006_Node000007"><a xlink:title=" ">
<path fill="none" stroke="#63b8ff" d="M326.37,-19.18C312.17,-18.68 297.77,-18.17 284.78,-17.71"/>
<polygon fill="#63b8ff" stroke="#63b8ff" points="326.06,-22.67 336.18,-19.52 326.31,-15.67 326.06,-22.67"/>
</a>
</g>
</g>
<!-- Node7&#45;&gt;Node3 -->
<g id="edge7_Node000007_Node000003" class="edge">
<title>Node7&#45;&gt;Node3</title>
<g id="a_edge7_Node000007_Node000003"><a xlink:title=" ">
<path fill="none" stroke="#63b8ff" d="M174.66,-16C161.07,-16 146.55,-16 132.72,-16"/>
<polygon fill="#63b8ff" stroke="#63b8ff" points="174.31,-19.5 184.31,-16 174.31,-12.5 174.31,-19.5"/>
</a>
</g>
</g>
</g>
</svg>
