<?xml version="1.0" encoding="UTF-8" standalone="no"?>
<!DOCTYPE svg PUBLIC "-//W3C//DTD SVG 1.1//EN"
 "http://www.w3.org/Graphics/SVG/1.1/DTD/svg11.dtd">
<!-- Generated by graphviz version 12.2.1 (20241206.2353)
 -->
<!-- Title: examples.yahpo.opt_ranger_interpretability Pages: 1 -->
<!--zoomable 141 -->

<svg id="main" version="1.1" xmlns="http://www.w3.org/2000/svg" xmlns:xlink="http://www.w3.org/1999/xlink" xml:space="preserve" onload="init(evt)">

<style type="text/css"><![CDATA[
.node, .edge {opacity: 0.7;}
.node.selected, .edge.selected {opacity: 1;}
.edge:hover path { stroke: red; }
.edge:hover polygon { stroke: red; fill: red; }
]]></style>

<defs>
  <circle id="rim" cx="0" cy="0" r="7"/>
  <circle id="rim2" cx="0" cy="0" r="3.5"/>
  <g id="zoomPlus">
    <use xlink:href="#rim" fill="#404040"><set attributeName="fill" to="#808080" begin="zoomplus.mouseover" end="zoomplus.mouseout"/></use>
    <path d="M-4,0h8M0,-4v8" fill="none" stroke="white" stroke-width="1.5" pointer-events="none"/>
  </g>
  <g id="zoomMin">
    <use xlink:href="#rim" fill="#404040"><set attributeName="fill" to="#808080" begin="zoomminus.mouseover" end="zoomminus.mouseout"/></use>
    <path d="M-4,0h8" fill="none" stroke="white" stroke-width="1.5" pointer-events="none"/>
  </g>
  <g id="arrowUp" transform="translate(30 24)">
    <use xlink:href="#rim"/>
    <path pointer-events="none" fill="none" stroke="white" stroke-width="1.5" d="M0,-3.0v7 M-2.5,-0.5L0,-3.0L2.5,-0.5"/>
  </g>
  <g id="arrowRight" transform="rotate(90) translate(36 -43)">
    <use xlink:href="#rim"/>
    <path pointer-events="none" fill="none" stroke="white" stroke-width="1.5" d="M0,-3.0v7 M-2.5,-0.5L0,-3.0L2.5,-0.5"/>
  </g>
  <g id="arrowDown" transform="rotate(180) translate(-30 -48)">
    <use xlink:href="#rim"/>
    <path pointer-events="none" fill="none" stroke="white" stroke-width="1.5" d="M0,-3.0v7 M-2.5,-0.5L0,-3.0L2.5,-0.5"/>
  </g>
  <g id="arrowLeft" transform="rotate(270) translate(-36 17)">
    <use xlink:href="#rim"/>
    <path pointer-events="none" fill="none" stroke="white" stroke-width="1.5" d="M0,-3.0v7 M-2.5,-0.5L0,-3.0L2.5,-0.5"/>
  </g>
  <g id="resetDef">
    <use xlink:href="#rim2" fill="#404040"><set attributeName="fill" to="#808080" begin="reset.mouseover" end="reset.mouseout"/></use>
  </g>
</defs>
<script type="application/ecmascript">
var viewWidth = 739;
var viewHeight = 141;
var sectionId = 'dynsection-6';
</script>
<script type="application/ecmascript" xlink:href="svg.min.js"/>
<svg id="graph" class="graph">
<g id="viewport">
<title>examples.yahpo.opt_ranger_interpretability</title>
<!-- Node1 -->
<g id="Node000001" class="node">
<title>Node1</title>
<g id="a_Node000001"><a xlink:title=" ">
<polygon fill="#999999" stroke="#666666" points="114.25,-95 0,-95 0,-63 114.25,-63 114.25,-95"/>
<text text-anchor="start" x="8" y="-81.5" font-family="Helvetica,sans-Serif" font-size="10.00">examples.yahpo.opt</text>
<text text-anchor="middle" x="57.12" y="-69.5" font-family="Helvetica,sans-Serif" font-size="10.00">_ranger_interpretability</text>
</a>
</g>
</g>
<!-- Node2 -->
<g id="Node000002" class="node">
<title>Node2</title>
<g id="a_Node000002"><a xlink:href="namespaceexamples_1_1yahpo.html#aafb5885cf1e9c035878faf3bee87ccb0" target="_top" xlink:title=" ">
<polygon fill="white" stroke="#666666" points="571.75,-120 444.75,-120 444.75,-88 571.75,-88 571.75,-120"/>
<text text-anchor="start" x="452.75" y="-106.5" font-family="Helvetica,sans-Serif" font-size="10.00">examples.yahpo.evaluate</text>
<text text-anchor="middle" x="508.25" y="-94.5" font-family="Helvetica,sans-Serif" font-size="10.00">_ranger_</text>
</a>
</g>
</g>
<!-- Node1&#45;&gt;Node2 -->
<g id="edge1_Node000001_Node000002" class="edge">
<title>Node1&#45;&gt;Node2</title>
<g id="a_edge1_Node000001_Node000002"><a xlink:title=" ">
<path fill="none" stroke="#63b8ff" d="M111.21,-95.43C179.83,-114.64 303.04,-142.21 408.75,-129 419.4,-127.67 430.56,-125.56 441.38,-123.11"/>
<polygon fill="#63b8ff" stroke="#63b8ff" points="442.1,-126.54 451.02,-120.81 440.48,-119.73 442.1,-126.54"/>
</a>
</g>
</g>
<!-- Node4 -->
<g id="Node000004" class="node">
<title>Node4</title>
<g id="a_Node000004"><a xlink:href="namespaceexamples_1_1yahpo.html#a00ed0fa5c4577f6841d751aa5de9beb4" target="_top" xlink:title=" ">
<polygon fill="white" stroke="#666666" points="256.25,-89 150.25,-89 150.25,-69 256.25,-69 256.25,-89"/>
<text text-anchor="middle" x="203.25" y="-75.5" font-family="Helvetica,sans-Serif" font-size="10.00">examples.yahpo.plot</text>
</a>
</g>
</g>
<!-- Node1&#45;&gt;Node4 -->
<g id="edge3_Node000001_Node000004" class="edge">
<title>Node1&#45;&gt;Node4</title>
<g id="a_edge3_Node000001_Node000004"><a xlink:title=" ">
<path fill="none" stroke="#63b8ff" d="M114.67,-72.39C122.61,-72.24 130.8,-72.21 138.85,-72.29"/>
<polygon fill="#63b8ff" stroke="#63b8ff" points="138.52,-75.79 148.58,-72.46 138.64,-68.79 138.52,-75.79"/>
</a>
</g>
</g>
<!-- Node3 -->
<g id="Node000003" class="node">
<title>Node3</title>
<g id="a_Node000003"><a xlink:href="namespaceexamples_1_1yahpo.html#a15c68f9f26552d8ed5597f36e8ddbb0e" target="_top" xlink:title=" ">
<polygon fill="white" stroke="#666666" points="731,-89 607.75,-89 607.75,-69 731,-69 731,-89"/>
<text text-anchor="middle" x="669.38" y="-75.5" font-family="Helvetica,sans-Serif" font-size="10.00">examples.yahpo.retrafo_</text>
</a>
</g>
</g>
<!-- Node2&#45;&gt;Node3 -->
<g id="edge2_Node000002_Node000003" class="edge">
<title>Node2&#45;&gt;Node3</title>
<g id="a_edge2_Node000002_Node000003"><a xlink:title=" ">
<path fill="none" stroke="#63b8ff" d="M572.14,-94.12C580.05,-92.88 588.19,-91.6 596.24,-90.33"/>
<polygon fill="#63b8ff" stroke="#63b8ff" points="596.67,-93.81 606,-88.8 595.58,-86.89 596.67,-93.81"/>
</a>
</g>
</g>
<!-- Node4&#45;&gt;Node1 -->
<g id="edge7_Node000004_Node000001" class="edge">
<title>Node4&#45;&gt;Node1</title>
<g id="a_edge7_Node000004_Node000001"><a xlink:title=" ">
<path fill="none" stroke="#63b8ff" d="M150.09,-85.52C142.27,-85.7 134.11,-85.78 126.02,-85.74"/>
<polygon fill="#63b8ff" stroke="#63b8ff" points="126.23,-82.24 116.19,-85.63 126.15,-89.24 126.23,-82.24"/>
</a>
</g>
</g>
<!-- Node5 -->
<g id="Node000005" class="node">
<title>Node5</title>
<g id="a_Node000005"><a xlink:href="namespaceexamples_1_1yahpo.html#aca8ebb42199ed8663e4d2fb1704bb11d" target="_top" xlink:title=" ">
<polygon fill="white" stroke="#666666" points="402.38,-120 298.62,-120 298.62,-88 402.38,-88 402.38,-120"/>
<text text-anchor="start" x="306.62" y="-106.5" font-family="Helvetica,sans-Serif" font-size="10.00">examples.yahpo.opt</text>
<text text-anchor="middle" x="350.5" y="-94.5" font-family="Helvetica,sans-Serif" font-size="10.00">_ranger_hardware</text>
</a>
</g>
</g>
<!-- Node4&#45;&gt;Node5 -->
<g id="edge4_Node000004_Node000005" class="edge">
<title>Node4&#45;&gt;Node5</title>
<g id="a_edge4_Node000004_Node000005"><a xlink:title=" ">
<path fill="none" stroke="#63b8ff" d="M256.69,-81.51C266.71,-83 277.3,-84.76 287.59,-86.66"/>
<polygon fill="#63b8ff" stroke="#63b8ff" points="286.63,-90.04 297.11,-88.48 287.95,-83.16 286.63,-90.04"/>
</a>
</g>
</g>
<!-- Node6 -->
<g id="Node000006" class="node">
<title>Node6</title>
<g id="a_Node000006"><a xlink:href="namespaceexamples_1_1yahpo.html#aa0f008c277a52f11bb7ae3430c49384c" target="_top" xlink:title=" ">
<polygon fill="white" stroke="#666666" points="402.38,-70 298.62,-70 298.62,-38 402.38,-38 402.38,-70"/>
<text text-anchor="start" x="306.62" y="-56.5" font-family="Helvetica,sans-Serif" font-size="10.00">examples.yahpo.opt</text>
<text text-anchor="middle" x="350.5" y="-44.5" font-family="Helvetica,sans-Serif" font-size="10.00">_xgboost</text>
</a>
</g>
</g>
<!-- Node4&#45;&gt;Node6 -->
<g id="edge8_Node000004_Node000006" class="edge">
<title>Node4&#45;&gt;Node6</title>
<g id="a_edge8_Node000004_Node000006"><a xlink:title=" ">
<path fill="none" stroke="#63b8ff" d="M232.95,-68.56C248.42,-64.88 268.17,-61.09 286.98,-58.07"/>
<polygon fill="#63b8ff" stroke="#63b8ff" points="287.38,-61.55 296.73,-56.57 286.31,-54.63 287.38,-61.55"/>
</a>
</g>
</g>
<!-- Node8 -->
<g id="Node000008" class="node">
<title>Node8</title>
<g id="a_Node000008"><a xlink:href="namespaceexamples_1_1yahpo.html#abed4facab8c6aaf0a992c93f39b25297" target="_top" xlink:title=" ">
<polygon fill="white" stroke="#666666" points="408.75,-20 292.25,-20 292.25,0 408.75,0 408.75,-20"/>
<text text-anchor="middle" x="350.5" y="-6.5" font-family="Helvetica,sans-Serif" font-size="10.00">examples.yahpo.plot3d</text>
</a>
</g>
</g>
<!-- Node4&#45;&gt;Node8 -->
<g id="edge12_Node000004_Node000008" class="edge">
<title>Node4&#45;&gt;Node8</title>
<g id="a_edge12_Node000004_Node000008"><a xlink:title=" ">
<path fill="none" stroke="#63b8ff" d="M220.29,-68.61C237.56,-57.73 266.08,-40.64 292.25,-29 295.85,-27.4 299.63,-25.86 303.46,-24.39"/>
<polygon fill="#63b8ff" stroke="#63b8ff" points="304.63,-27.69 312.85,-21 302.25,-21.11 304.63,-27.69"/>
</a>
</g>
</g>
<!-- Node5&#45;&gt;Node2 -->
<g id="edge5_Node000005_Node000002" class="edge">
<title>Node5&#45;&gt;Node2</title>
<g id="a_edge5_Node000005_Node000002"><a xlink:title=" ">
<path fill="none" stroke="#63b8ff" d="M402.5,-104C412.34,-104 422.83,-104 433.22,-104"/>
<polygon fill="#63b8ff" stroke="#63b8ff" points="432.92,-107.5 442.92,-104 432.92,-100.5 432.92,-107.5"/>
</a>
</g>
</g>
<!-- Node5&#45;&gt;Node4 -->
<g id="edge6_Node000005_Node000004" class="edge">
<title>Node5&#45;&gt;Node4</title>
<g id="a_edge6_Node000005_Node000004"><a xlink:title=" ">
<path fill="none" stroke="#63b8ff" d="M298.22,-101.66C280.42,-99.05 260.73,-95.53 244,-91.94"/>
<polygon fill="#63b8ff" stroke="#63b8ff" points="244.95,-88.56 234.42,-89.78 243.41,-95.39 244.95,-88.56"/>
</a>
</g>
</g>
<!-- Node6&#45;&gt;Node4 -->
<g id="edge11_Node000006_Node000004" class="edge">
<title>Node6&#45;&gt;Node4</title>
<g id="a_edge11_Node000006_Node000004"><a xlink:title=" ">
<path fill="none" stroke="#63b8ff" d="M298.6,-69.24C288.63,-71.21 278.06,-73.11 267.75,-74.77"/>
<polygon fill="#63b8ff" stroke="#63b8ff" points="267.53,-71.27 258.18,-76.26 268.6,-78.18 267.53,-71.27"/>
</a>
</g>
</g>
<!-- Node7 -->
<g id="Node000007" class="node">
<title>Node7</title>
<g id="a_Node000007"><a xlink:href="namespaceexamples_1_1yahpo.html#ae80be8ace972b91258cc5d78d421d250" target="_top" xlink:title=" ">
<polygon fill="white" stroke="#666666" points="571.75,-70 444.75,-70 444.75,-38 571.75,-38 571.75,-70"/>
<text text-anchor="start" x="452.75" y="-56.5" font-family="Helvetica,sans-Serif" font-size="10.00">examples.yahpo.evaluate</text>
<text text-anchor="middle" x="508.25" y="-44.5" font-family="Helvetica,sans-Serif" font-size="10.00">_xgboost_</text>
</a>
</g>
</g>
<!-- Node6&#45;&gt;Node7 -->
<g id="edge9_Node000006_Node000007" class="edge">
<title>Node6&#45;&gt;Node7</title>
<g id="a_edge9_Node000006_Node000007"><a xlink:title=" ">
<path fill="none" stroke="#63b8ff" d="M402.5,-54C412.34,-54 422.83,-54 433.22,-54"/>
<polygon fill="#63b8ff" stroke="#63b8ff" points="432.92,-57.5 442.92,-54 432.92,-50.5 432.92,-57.5"/>
</a>
</g>
</g>
<!-- Node7&#45;&gt;Node3 -->
<g id="edge10_Node000007_Node000003" class="edge">
<title>Node7&#45;&gt;Node3</title>
<g id="a_edge10_Node000007_Node000003"><a xlink:title=" ">
<path fill="none" stroke="#63b8ff" d="M572.14,-63.88C580.05,-65.12 588.19,-66.4 596.24,-67.67"/>
<polygon fill="#63b8ff" stroke="#63b8ff" points="595.58,-71.11 606,-69.2 596.67,-64.19 595.58,-71.11"/>
</a>
</g>
</g>
</g>
</svg>

<g id="navigator" transform="translate(0 0)" fill="#404254">
  <rect fill="#f2f5e9" fill-opacity="0.5" stroke="#606060" stroke-width=".5" x="0" y="0" width="60" height="60"/>
  <use id="zoomplus" xlink:href="#zoomPlus" x="17" y="9" onmousedown="handleZoom(evt,'in')"/>
  <use id="zoomminus" xlink:href="#zoomMin" x="42" y="9" onmousedown="handleZoom(evt,'out')"/>
  <use id="reset" xlink:href="#resetDef" x="30" y="36" onmousedown="handleReset()"/>
   <use id="arrowup" xlink:href="#arrowUp" x="0" y="0" onmousedown="handlePan(0,-1)"/>
  <use id="arrowright" xlink:href="#arrowRight" x="0" y="0" onmousedown="handlePan(1,0)"/>
  <use id="arrowdown" xlink:href="#arrowDown" x="0" y="0" onmousedown="handlePan(0,1)"/>
  <use id="arrowleft" xlink:href="#arrowLeft" x="0" y="0" onmousedown="handlePan(-1,0)"/>
</g>
<svg viewBox="0 0 15 15" width="100%" height="30px" preserveAspectRatio="xMaxYMin meet">
 <g id="arrow_out" transform="scale(0.3 0.3)">
  <a xlink:href="namespaceexamples_1_1yahpo_a657da003ad951471dc74d132dda50c01_cgraph_org.svg" target="_base">
   <rect id="button" ry="5" rx="5" y="6" x="6" height="38" width="38"
        fill="#f2f5e9" fill-opacity="0.5" stroke="#606060" stroke-width="1.0"/>
   <path id="arrow"
     d="M 11.500037,31.436501 C 11.940474,20.09759 22.043105,11.32322 32.158766,21.979434 L 37.068811,17.246167 C 37.068811,17.246167 37.088388,32 37.088388,32 L 22.160133,31.978069 C 22.160133,31.978069 26.997745,27.140456 26.997745,27.140456 C 18.528582,18.264221 13.291696,25.230495 11.500037,31.436501 z"
     style="fill:#404040;"/>
  </a>
 </g>
</svg>

<style type='text/css'>
<![CDATA[
[data-mouse-over-selected='false'] { opacity: 0.7; }
[data-mouse-over-selected='true']  { opacity: 1.0; }
]]>
</style>
<script type="application/ecmascript"><![CDATA[
document.addEventListener('DOMContentLoaded', (event) => {
  highlightEdges();
  highlightAdjacentNodes();
});
]]></script>
</svg>
