<?xml version="1.0" encoding="UTF-8" standalone="no"?>
<!DOCTYPE svg PUBLIC "-//W3C//DTD SVG 1.1//EN"
 "http://www.w3.org/Graphics/SVG/1.1/DTD/svg11.dtd">
<!-- Generated by graphviz version 12.2.1 (20241206.2353)
 -->
<!-- Title: examples.crypto.sell_all Pages: 1 -->
<!--zoomable 266 -->

<svg id="main" version="1.1" xmlns="http://www.w3.org/2000/svg" xmlns:xlink="http://www.w3.org/1999/xlink" xml:space="preserve" onload="init(evt)">

<style type="text/css"><![CDATA[
.node, .edge {opacity: 0.7;}
.node.selected, .edge.selected {opacity: 1;}
.edge:hover path { stroke: red; }
.edge:hover polygon { stroke: red; fill: red; }
]]></style>

<defs>
  <circle id="rim" cx="0" cy="0" r="7"/>
  <circle id="rim2" cx="0" cy="0" r="3.5"/>
  <g id="zoomPlus">
    <use xlink:href="#rim" fill="#404040"><set attributeName="fill" to="#808080" begin="zoomplus.mouseover" end="zoomplus.mouseout"/></use>
    <path d="M-4,0h8M0,-4v8" fill="none" stroke="white" stroke-width="1.5" pointer-events="none"/>
  </g>
  <g id="zoomMin">
    <use xlink:href="#rim" fill="#404040"><set attributeName="fill" to="#808080" begin="zoomminus.mouseover" end="zoomminus.mouseout"/></use>
    <path d="M-4,0h8" fill="none" stroke="white" stroke-width="1.5" pointer-events="none"/>
  </g>
  <g id="arrowUp" transform="translate(30 24)">
    <use xlink:href="#rim"/>
    <path pointer-events="none" fill="none" stroke="white" stroke-width="1.5" d="M0,-3.0v7 M-2.5,-0.5L0,-3.0L2.5,-0.5"/>
  </g>
  <g id="arrowRight" transform="rotate(90) translate(36 -43)">
    <use xlink:href="#rim"/>
    <path pointer-events="none" fill="none" stroke="white" stroke-width="1.5" d="M0,-3.0v7 M-2.5,-0.5L0,-3.0L2.5,-0.5"/>
  </g>
  <g id="arrowDown" transform="rotate(180) translate(-30 -48)">
    <use xlink:href="#rim"/>
    <path pointer-events="none" fill="none" stroke="white" stroke-width="1.5" d="M0,-3.0v7 M-2.5,-0.5L0,-3.0L2.5,-0.5"/>
  </g>
  <g id="arrowLeft" transform="rotate(270) translate(-36 17)">
    <use xlink:href="#rim"/>
    <path pointer-events="none" fill="none" stroke="white" stroke-width="1.5" d="M0,-3.0v7 M-2.5,-0.5L0,-3.0L2.5,-0.5"/>
  </g>
  <g id="resetDef">
    <use xlink:href="#rim2" fill="#404040"><set attributeName="fill" to="#808080" begin="reset.mouseover" end="reset.mouseout"/></use>
  </g>
</defs>
<script type="application/ecmascript">
var viewWidth = 1134;
var viewHeight = 266;
var sectionId = 'dynsection-5';
</script>
<script type="application/ecmascript" xlink:href="svg.min.js"/>
<svg id="graph" class="graph">
<g id="viewport">
<title>examples.crypto.sell_all</title>
<!-- Node1 -->
<g id="Node000001" class="node">
<title>Node1</title>
<g id="a_Node000001"><a xlink:title=" ">
<polygon fill="#999999" stroke="#666666" points="1126,-98 1005,-98 1005,-78 1126,-78 1126,-98"/>
<text text-anchor="middle" x="1065.5" y="-84.5" font-family="Helvetica,sans-Serif" font-size="10.00">examples.crypto.sell_all</text>
</a>
</g>
</g>
<!-- Node2 -->
<g id="Node000002" class="node">
<title>Node2</title>
<g id="a_Node000002"><a xlink:href="namespaceexamples_1_1crypto.html#a941dc0c737b40581bde98db6aef23525" target="_top" xlink:title=" ">
<polygon fill="white" stroke="#666666" points="969,-79 860,-79 860,-59 969,-59 969,-79"/>
<text text-anchor="middle" x="914.5" y="-65.5" font-family="Helvetica,sans-Serif" font-size="10.00">examples.crypto.hodl</text>
</a>
</g>
</g>
<!-- Node1&#45;&gt;Node2 -->
<g id="edge1_Node000001_Node000002" class="edge">
<title>Node1&#45;&gt;Node2</title>
<g id="a_edge1_Node000001_Node000002"><a xlink:title=" ">
<path fill="none" stroke="#63b8ff" d="M993.44,-78.94C985.38,-77.91 977.26,-76.88 969.48,-75.88"/>
<polygon fill="#63b8ff" stroke="#63b8ff" points="992.89,-82.4 1003.25,-80.19 993.78,-75.45 992.89,-82.4"/>
</a>
</g>
</g>
<!-- Node3 -->
<g id="Node000003" class="node">
<title>Node3</title>
<g id="a_Node000003"><a xlink:href="namespaceexamples_1_1crypto.html#a61f6c93fa62a257ed271a0aa1210f604" target="_top" xlink:title=" ">
<polygon fill="white" stroke="#666666" points="824,-98 697.75,-98 697.75,-78 824,-78 824,-98"/>
<text text-anchor="middle" x="760.88" y="-84.5" font-family="Helvetica,sans-Serif" font-size="10.00">examples.crypto.strategy</text>
</a>
</g>
</g>
<!-- Node1&#45;&gt;Node3 -->
<g id="edge18_Node000001_Node000003" class="edge">
<title>Node1&#45;&gt;Node3</title>
<g id="a_edge18_Node000001_Node000003"><a xlink:title=" ">
<path fill="none" stroke="#63b8ff" d="M993.39,-88C942.13,-88 873.58,-88 824.4,-88"/>
<polygon fill="#63b8ff" stroke="#63b8ff" points="993.2,-91.5 1003.2,-88 993.2,-84.5 993.2,-91.5"/>
</a>
</g>
</g>
<!-- Node2&#45;&gt;Node3 -->
<g id="edge2_Node000002_Node000003" class="edge">
<title>Node2&#45;&gt;Node3</title>
<g id="a_edge2_Node000002_Node000003"><a xlink:title=" ">
<path fill="none" stroke="#63b8ff" d="M848.19,-77.18C840.3,-78.17 832.24,-79.18 824.38,-80.17"/>
<polygon fill="#63b8ff" stroke="#63b8ff" points="848.63,-80.66 858.11,-75.94 847.76,-73.71 848.63,-80.66"/>
</a>
</g>
</g>
<!-- Node4 -->
<g id="Node000004" class="node">
<title>Node4</title>
<g id="a_Node000004"><a xlink:href="namespaceexamples_1_1crypto.html#a75d529296c6d83294ad1c37e55bd267f" target="_top" xlink:title=" ">
<polygon fill="white" stroke="#666666" points="661.75,-98 534,-98 534,-78 661.75,-78 661.75,-98"/>
<text text-anchor="middle" x="597.88" y="-84.5" font-family="Helvetica,sans-Serif" font-size="10.00">examples.crypto.simulate</text>
</a>
</g>
</g>
<!-- Node3&#45;&gt;Node4 -->
<g id="edge3_Node000003_Node000004" class="edge">
<title>Node3&#45;&gt;Node4</title>
<g id="a_edge3_Node000003_Node000004"><a xlink:title=" ">
<path fill="none" stroke="#63b8ff" d="M686.27,-88C678.17,-88 669.98,-88 662.02,-88"/>
<polygon fill="#63b8ff" stroke="#63b8ff" points="686.11,-91.5 696.11,-88 686.11,-84.5 686.11,-91.5"/>
</a>
</g>
</g>
<!-- Node5 -->
<g id="Node000005" class="node">
<title>Node5</title>
<g id="a_Node000005"><a xlink:href="classexamples_1_1crypto_1_1fitness.html#a5a933388f6d0303f80251156e30e6b9b" target="_top" xlink:title=" ">
<polygon fill="white" stroke="#666666" points="498,-148 361.25,-148 361.25,-128 498,-128 498,-148"/>
<text text-anchor="middle" x="429.62" y="-134.5" font-family="Helvetica,sans-Serif" font-size="10.00">examples.crypto.fitness.fun</text>
</a>
</g>
</g>
<!-- Node4&#45;&gt;Node5 -->
<g id="edge4_Node000004_Node000005" class="edge">
<title>Node4&#45;&gt;Node5</title>
<g id="a_edge4_Node000004_Node000005"><a xlink:title=" ">
<path fill="none" stroke="#63b8ff" d="M551.25,-101.72C524.17,-109.87 490.36,-120.04 465.43,-127.53"/>
<polygon fill="#63b8ff" stroke="#63b8ff" points="552.01,-105.15 560.57,-98.92 549.99,-98.45 552.01,-105.15"/>
</a>
</g>
</g>
<!-- Node13 -->
<g id="Node000013" class="node">
<title>Node13</title>
<g id="a_Node000013"><a xlink:href="classexamples_1_1crypto_1_1fitness.html#a92e26f20d8494227c6ef3ff4cf6cae71" target="_top" xlink:title=" ">
<polygon fill="white" stroke="#666666" points="498,-82 361.25,-82 361.25,-50 498,-50 498,-82"/>
<text text-anchor="start" x="369.25" y="-68.5" font-family="Helvetica,sans-Serif" font-size="10.00">examples.crypto.fitness.get</text>
<text text-anchor="middle" x="429.62" y="-56.5" font-family="Helvetica,sans-Serif" font-size="10.00">_trades</text>
</a>
</g>
</g>
<!-- Node4&#45;&gt;Node13 -->
<g id="edge15_Node000004_Node000013" class="edge">
<title>Node4&#45;&gt;Node13</title>
<g id="a_edge15_Node000004_Node000013"><a xlink:title=" ">
<path fill="none" stroke="#63b8ff" d="M522.39,-78.14C514.43,-77.09 506.36,-76.02 498.48,-74.98"/>
<polygon fill="#63b8ff" stroke="#63b8ff" points="521.68,-81.58 532.05,-79.42 522.59,-74.64 521.68,-81.58"/>
</a>
</g>
</g>
<!-- Node6 -->
<g id="Node000006" class="node">
<title>Node6</title>
<g id="a_Node000006"><a xlink:href="classexamples_1_1crypto_1_1fitness.html#ac24e8f7966063c3bc0cc215a561cbadb" target="_top" xlink:title=" ">
<polygon fill="white" stroke="#666666" points="311.75,-132 188.5,-132 188.5,-100 311.75,-100 311.75,-132"/>
<text text-anchor="start" x="196.5" y="-118.5" font-family="Helvetica,sans-Serif" font-size="10.00">examples.crypto.fitness.</text>
<text text-anchor="middle" x="250.12" y="-106.5" font-family="Helvetica,sans-Serif" font-size="10.00">__call__</text>
</a>
</g>
</g>
<!-- Node5&#45;&gt;Node6 -->
<g id="edge5_Node000005_Node000006" class="edge">
<title>Node5&#45;&gt;Node6</title>
<g id="a_edge5_Node000005_Node000006"><a xlink:title=" ">
<path fill="none" stroke="#63b8ff" d="M349.34,-128.17C336.8,-126.62 324.01,-125.03 311.98,-123.54"/>
<polygon fill="#63b8ff" stroke="#63b8ff" points="348.9,-131.65 359.26,-129.4 349.76,-124.7 348.9,-131.65"/>
</a>
</g>
</g>
<!-- Node9 -->
<g id="Node000009" class="node">
<title>Node9</title>
<g id="a_Node000009"><a xlink:href="classexamples_1_1harvesting_1_1fitness.html#add29e0fd221efd5ffa3ce2f0933b633f" target="_top" xlink:title=" ">
<polygon fill="white" stroke="#666666" points="320.75,-82 179.5,-82 179.5,-50 320.75,-50 320.75,-82"/>
<text text-anchor="start" x="187.5" y="-68.5" font-family="Helvetica,sans-Serif" font-size="10.00">examples.harvesting.fitness.</text>
<text text-anchor="middle" x="250.12" y="-56.5" font-family="Helvetica,sans-Serif" font-size="10.00">__call__</text>
</a>
</g>
</g>
<!-- Node5&#45;&gt;Node9 -->
<g id="edge8_Node000005_Node000009" class="edge">
<title>Node5&#45;&gt;Node9</title>
<g id="a_edge8_Node000005_Node000009"><a xlink:title=" ">
<path fill="none" stroke="#63b8ff" d="M397.28,-122.75C376.97,-113.11 349.81,-100.7 325.25,-91 317.8,-88.06 309.84,-85.14 302.01,-82.4"/>
<polygon fill="#63b8ff" stroke="#63b8ff" points="395.62,-125.83 406.15,-126.99 398.64,-119.51 395.62,-125.83"/>
</a>
</g>
</g>
<!-- Node10 -->
<g id="Node000010" class="node">
<title>Node10</title>
<g id="a_Node000010"><a xlink:href="classexamples_1_1jobshop_1_1fitness.html#a65088d25d52805209f6dfec80ed1aa9f" target="_top" xlink:title=" ">
<polygon fill="white" stroke="#666666" points="315.12,-258 185.12,-258 185.12,-226 315.12,-226 315.12,-258"/>
<text text-anchor="start" x="193.12" y="-244.5" font-family="Helvetica,sans-Serif" font-size="10.00">examples.jobshop.fitness.</text>
<text text-anchor="middle" x="250.12" y="-232.5" font-family="Helvetica,sans-Serif" font-size="10.00">__call__</text>
</a>
</g>
</g>
<!-- Node5&#45;&gt;Node10 -->
<g id="edge11_Node000005_Node000010" class="edge">
<title>Node5&#45;&gt;Node10</title>
<g id="a_edge11_Node000005_Node000010"><a xlink:title=" ">
<path fill="none" stroke="#63b8ff" d="M409.27,-155.93C389.44,-173.51 357.1,-200.06 325.25,-217 319.37,-220.13 313.03,-222.97 306.62,-225.53"/>
<polygon fill="#63b8ff" stroke="#63b8ff" points="411.49,-158.64 416.57,-149.34 406.8,-153.44 411.49,-158.64"/>
</a>
</g>
</g>
<!-- Node11 -->
<g id="Node000011" class="node">
<title>Node11</title>
<g id="a_Node000011"><a xlink:href="classexamples_1_1crypto_1_1fitness.html#a1209aafc30c6a32427e2707c0bcadd22" target="_top" xlink:title=" ">
<polygon fill="white" stroke="#666666" points="325.25,-208 175,-208 175,-188 325.25,-188 325.25,-208"/>
<text text-anchor="middle" x="250.12" y="-194.5" font-family="Helvetica,sans-Serif" font-size="10.00">examples.crypto.fitness.mofun</text>
</a>
</g>
</g>
<!-- Node5&#45;&gt;Node11 -->
<g id="edge13_Node000005_Node000011" class="edge">
<title>Node5&#45;&gt;Node11</title>
<g id="a_edge13_Node000005_Node000011"><a xlink:title=" ">
<path fill="none" stroke="#63b8ff" d="M394.29,-152.89C374.36,-161.21 348.64,-171.4 325.25,-179 315.77,-182.08 305.49,-184.99 295.68,-187.56"/>
<polygon fill="#63b8ff" stroke="#63b8ff" points="395.47,-156.19 403.32,-149.07 392.74,-149.74 395.47,-156.19"/>
</a>
</g>
</g>
<!-- Node12 -->
<g id="Node000012" class="node">
<title>Node12</title>
<g id="a_Node000012"><a xlink:href="classexamples_1_1crypto_1_1fitness.html#a3ba688bf0d5b34a2cc6268a2248dfaa0" target="_top" xlink:title=" ">
<polygon fill="white" stroke="#666666" points="323.75,-170 176.5,-170 176.5,-150 323.75,-150 323.75,-170"/>
<text text-anchor="middle" x="250.12" y="-156.5" font-family="Helvetica,sans-Serif" font-size="10.00">examples.crypto.fitness.ndfun</text>
</a>
</g>
</g>
<!-- Node5&#45;&gt;Node12 -->
<g id="edge14_Node000005_Node000012" class="edge">
<title>Node5&#45;&gt;Node12</title>
<g id="a_edge14_Node000005_Node000012"><a xlink:title=" ">
<path fill="none" stroke="#63b8ff" d="M349.34,-147.83C340.9,-148.87 332.34,-149.93 323.97,-150.97"/>
<polygon fill="#63b8ff" stroke="#63b8ff" points="349.76,-151.3 359.26,-146.6 348.9,-144.35 349.76,-151.3"/>
</a>
</g>
</g>
<!-- Node7 -->
<g id="Node000007" class="node">
<title>Node7</title>
<g id="a_Node000007"><a xlink:href="classhbv_1_1hbv.html#a89aea998d9546dc3465bf46fbee95689" target="_top" xlink:title=" ">
<polygon fill="white" stroke="#666666" points="118,-82 21,-82 21,-62 118,-62 118,-82"/>
<text text-anchor="middle" x="69.5" y="-68.5" font-family="Helvetica,sans-Serif" font-size="10.00">hbv.hbv.qd_fitness</text>
</a>
</g>
</g>
<!-- Node6&#45;&gt;Node7 -->
<g id="edge6_Node000006_Node000007" class="edge">
<title>Node6&#45;&gt;Node7</title>
<g id="a_edge6_Node000006_Node000007"><a xlink:title=" ">
<path fill="none" stroke="#63b8ff" d="M177.24,-98.29C155.41,-92.92 132.14,-87.18 112.91,-82.45"/>
<polygon fill="#63b8ff" stroke="#63b8ff" points="176.14,-101.63 186.68,-100.62 177.81,-94.83 176.14,-101.63"/>
</a>
</g>
</g>
<!-- Node8 -->
<g id="Node000008" class="node">
<title>Node8</title>
<g id="a_Node000008"><a xlink:href="classlrgv_1_1lrgv.html#a527b9b7a7927721b5320ab433bf75aea" target="_top" xlink:title=" ">
<polygon fill="white" stroke="#666666" points="118,-126 21,-126 21,-106 118,-106 118,-126"/>
<text text-anchor="middle" x="69.5" y="-112.5" font-family="Helvetica,sans-Serif" font-size="10.00">lrgv.lrgv.qd_fitness</text>
</a>
</g>
</g>
<!-- Node6&#45;&gt;Node8 -->
<g id="edge7_Node000006_Node000008" class="edge">
<title>Node6&#45;&gt;Node8</title>
<g id="a_edge7_Node000006_Node000008"><a xlink:title=" ">
<path fill="none" stroke="#63b8ff" d="M176.72,-116C157.02,-116 136.19,-116 118.24,-116"/>
<polygon fill="#63b8ff" stroke="#63b8ff" points="176.64,-119.5 186.64,-116 176.64,-112.5 176.64,-119.5"/>
</a>
</g>
</g>
<!-- Node9&#45;&gt;Node7 -->
<g id="edge9_Node000009_Node000007" class="edge">
<title>Node9&#45;&gt;Node7</title>
<g id="a_edge9_Node000009_Node000007"><a xlink:title=" ">
<path fill="none" stroke="#63b8ff" d="M167.97,-68.73C151,-69.3 133.64,-69.88 118.35,-70.39"/>
<polygon fill="#63b8ff" stroke="#63b8ff" points="167.65,-72.24 177.53,-68.4 167.42,-65.24 167.65,-72.24"/>
</a>
</g>
</g>
<!-- Node9&#45;&gt;Node8 -->
<g id="edge10_Node000009_Node000008" class="edge">
<title>Node9&#45;&gt;Node8</title>
<g id="a_edge10_Node000009_Node000008"><a xlink:title=" ">
<path fill="none" stroke="#63b8ff" d="M179.57,-85.47C155.1,-92.32 128.55,-99.75 107.77,-105.57"/>
<polygon fill="#63b8ff" stroke="#63b8ff" points="180.49,-88.85 189.18,-82.78 178.61,-82.11 180.49,-88.85"/>
</a>
</g>
</g>
<!-- Node10&#45;&gt;Node8 -->
<g id="edge12_Node000010_Node000008" class="edge">
<title>Node10&#45;&gt;Node8</title>
<g id="a_edge12_Node000010_Node000008"><a xlink:title=" ">
<path fill="none" stroke="#63b8ff" d="M181.57,-220.7C179.32,-219.53 177.12,-218.29 175,-217 133.19,-191.55 94.74,-146.67 78.56,-126.42"/>
<polygon fill="#63b8ff" stroke="#63b8ff" points="179.8,-223.74 190.34,-224.87 182.81,-217.42 179.8,-223.74"/>
</a>
</g>
</g>
<!-- Node14 -->
<g id="Node000014" class="node">
<title>Node14</title>
<g id="a_Node000014"><a xlink:href="classexamples_1_1crypto_1_1fitness.html#a052fc5adc7b09eb7f0613dc254699a5d" target="_top" xlink:title=" ">
<polygon fill="white" stroke="#666666" points="318.5,-32 181.75,-32 181.75,0 318.5,0 318.5,-32"/>
<text text-anchor="start" x="189.75" y="-18.5" font-family="Helvetica,sans-Serif" font-size="10.00">examples.crypto.fitness.get</text>
<text text-anchor="middle" x="250.12" y="-6.5" font-family="Helvetica,sans-Serif" font-size="10.00">_values</text>
</a>
</g>
</g>
<!-- Node13&#45;&gt;Node14 -->
<g id="edge16_Node000013_Node000014" class="edge">
<title>Node13&#45;&gt;Node14</title>
<g id="a_edge16_Node000013_Node000014"><a xlink:title=" ">
<path fill="none" stroke="#63b8ff" d="M359.79,-46.61C343.24,-41.95 325.71,-37.01 309.68,-32.49"/>
<polygon fill="#63b8ff" stroke="#63b8ff" points="358.47,-49.88 369.05,-49.22 360.37,-43.14 358.47,-49.88"/>
</a>
</g>
</g>
<!-- Node15 -->
<g id="Node000015" class="node">
<title>Node15</title>
<g id="a_Node000015"><a xlink:href="classexamples_1_1crypto_1_1fitness.html#af74be6f5f7cb7648d11cc9852fb1ea05" target="_top" xlink:title=" ">
<polygon fill="white" stroke="#666666" points="139,-26 0,-26 0,-6 139,-6 139,-26"/>
<text text-anchor="middle" x="69.5" y="-12.5" font-family="Helvetica,sans-Serif" font-size="10.00">examples.crypto.fitness.plot</text>
</a>
</g>
</g>
<!-- Node14&#45;&gt;Node15 -->
<g id="edge17_Node000014_Node000015" class="edge">
<title>Node14&#45;&gt;Node15</title>
<g id="a_edge17_Node000014_Node000015"><a xlink:title=" ">
<path fill="none" stroke="#63b8ff" d="M169.95,-16C159.78,-16 149.42,-16 139.42,-16"/>
<polygon fill="#63b8ff" stroke="#63b8ff" points="169.83,-19.5 179.83,-16 169.83,-12.5 169.83,-19.5"/>
</a>
</g>
</g>
</g>
</svg>

<g id="navigator" transform="translate(0 0)" fill="#404254">
  <rect fill="#f2f5e9" fill-opacity="0.5" stroke="#606060" stroke-width=".5" x="0" y="0" width="60" height="60"/>
  <use id="zoomplus" xlink:href="#zoomPlus" x="17" y="9" onmousedown="handleZoom(evt,'in')"/>
  <use id="zoomminus" xlink:href="#zoomMin" x="42" y="9" onmousedown="handleZoom(evt,'out')"/>
  <use id="reset" xlink:href="#resetDef" x="30" y="36" onmousedown="handleReset()"/>
   <use id="arrowup" xlink:href="#arrowUp" x="0" y="0" onmousedown="handlePan(0,-1)"/>
  <use id="arrowright" xlink:href="#arrowRight" x="0" y="0" onmousedown="handlePan(1,0)"/>
  <use id="arrowdown" xlink:href="#arrowDown" x="0" y="0" onmousedown="handlePan(0,1)"/>
  <use id="arrowleft" xlink:href="#arrowLeft" x="0" y="0" onmousedown="handlePan(-1,0)"/>
</g>
<svg viewBox="0 0 15 15" width="100%" height="30px" preserveAspectRatio="xMaxYMin meet">
 <g id="arrow_out" transform="scale(0.3 0.3)">
  <a xlink:href="namespaceexamples_1_1crypto_a8e16e3bee50df8bd1b44e55fe8950e10_icgraph_org.svg" target="_base">
   <rect id="button" ry="5" rx="5" y="6" x="6" height="38" width="38"
        fill="#f2f5e9" fill-opacity="0.5" stroke="#606060" stroke-width="1.0"/>
   <path id="arrow"
     d="M 11.500037,31.436501 C 11.940474,20.09759 22.043105,11.32322 32.158766,21.979434 L 37.068811,17.246167 C 37.068811,17.246167 37.088388,32 37.088388,32 L 22.160133,31.978069 C 22.160133,31.978069 26.997745,27.140456 26.997745,27.140456 C 18.528582,18.264221 13.291696,25.230495 11.500037,31.436501 z"
     style="fill:#404040;"/>
  </a>
 </g>
</svg>

<style type='text/css'>
<![CDATA[
[data-mouse-over-selected='false'] { opacity: 0.7; }
[data-mouse-over-selected='true']  { opacity: 1.0; }
]]>
</style>
<script type="application/ecmascript"><![CDATA[
document.addEventListener('DOMContentLoaded', (event) => {
  highlightEdges();
  highlightAdjacentNodes();
});
]]></script>
</svg>
