<?xml version="1.0" encoding="UTF-8" standalone="no"?>
<!DOCTYPE svg PUBLIC "-//W3C//DTD SVG 1.1//EN"
 "http://www.w3.org/Graphics/SVG/1.1/DTD/svg11.dtd">
<!-- Generated by graphviz version 12.2.1 (20241206.2353)
 -->
<!-- Title: examples.prophet_opt.btc_show_x Pages: 1 -->
<svg width="343pt" height="146pt"
 viewBox="0.00 0.00 343.00 146.00" xmlns="http://www.w3.org/2000/svg" xmlns:xlink="http://www.w3.org/1999/xlink">
<g id="graph0" class="graph" transform="scale(1 1) rotate(0) translate(4 142)">
<title>examples.prophet_opt.btc_show_x</title>
<!-- Node1 -->
<g id="Node000001" class="node">
<title>Node1</title>
<g id="a_Node000001"><a xlink:title=" ">
<polygon fill="#999999" stroke="#666666" points="335,-100 206.5,-100 206.5,-68 335,-68 335,-100"/>
<text text-anchor="start" x="214.5" y="-86.5" font-family="Helvetica,sans-Serif" font-size="10.00">examples.prophet_opt.btc</text>
<text text-anchor="middle" x="270.75" y="-74.5" font-family="Helvetica,sans-Serif" font-size="10.00">_show_x</text>
</a>
</g>
</g>
<!-- Node2 -->
<g id="Node000002" class="node">
<title>Node2</title>
<g id="a_Node000002"><a xlink:href="namespaceexamples_1_1prophet__opt.html#a89edb34f6787ecf7671d592512524b7f" target="_top" xlink:title=" ">
<polygon fill="white" stroke="#666666" points="170.5,-138 0,-138 0,-118 170.5,-118 170.5,-138"/>
<text text-anchor="middle" x="85.25" y="-124.5" font-family="Helvetica,sans-Serif" font-size="10.00">examples.prophet_opt.optimize_btc</text>
</a>
</g>
</g>
<!-- Node1&#45;&gt;Node2 -->
<g id="edge1_Node000001_Node000002" class="edge">
<title>Node1&#45;&gt;Node2</title>
<g id="a_edge1_Node000001_Node000002"><a xlink:title=" ">
<path fill="none" stroke="#63b8ff" d="M194.86,-103.08C186.65,-105.1 178.4,-107.11 170.5,-109 158.54,-111.85 145.6,-114.83 133.53,-117.56"/>
<polygon fill="#63b8ff" stroke="#63b8ff" points="195.68,-106.48 204.54,-100.67 193.99,-99.69 195.68,-106.48"/>
</a>
</g>
</g>
<!-- Node3 -->
<g id="Node000003" class="node">
<title>Node3</title>
<g id="a_Node000003"><a xlink:href="namespaceexamples_1_1prophet__opt.html#a6036ff4e616cbf09671db7d938061190" target="_top" xlink:title=" ">
<polygon fill="white" stroke="#666666" points="161.12,-100 9.38,-100 9.38,-68 161.12,-68 161.12,-100"/>
<text text-anchor="start" x="17.38" y="-86.5" font-family="Helvetica,sans-Serif" font-size="10.00">examples.prophet_opt.optimize</text>
<text text-anchor="middle" x="85.25" y="-74.5" font-family="Helvetica,sans-Serif" font-size="10.00">_btc_ask_tell</text>
</a>
</g>
</g>
<!-- Node1&#45;&gt;Node3 -->
<g id="edge2_Node000001_Node000003" class="edge">
<title>Node1&#45;&gt;Node3</title>
<g id="a_edge2_Node000001_Node000003"><a xlink:title=" ">
<path fill="none" stroke="#63b8ff" d="M194.78,-84C183.79,-84 172.47,-84 161.47,-84"/>
<polygon fill="#63b8ff" stroke="#63b8ff" points="194.57,-87.5 204.57,-84 194.57,-80.5 194.57,-87.5"/>
</a>
</g>
</g>
<!-- Node4 -->
<g id="Node000004" class="node">
<title>Node4</title>
<g id="a_Node000004"><a xlink:href="namespaceexamples_1_1prophet__opt.html#ae9fc3dd94248f2146ad53fcf139d55fb" target="_top" xlink:title=" ">
<polygon fill="white" stroke="#666666" points="154.38,-32 16.12,-32 16.12,0 154.38,0 154.38,-32"/>
<text text-anchor="start" x="24.12" y="-18.5" font-family="Helvetica,sans-Serif" font-size="10.00">examples.prophet_opt.show</text>
<text text-anchor="middle" x="85.25" y="-6.5" font-family="Helvetica,sans-Serif" font-size="10.00">_good_result</text>
</a>
</g>
</g>
<!-- Node1&#45;&gt;Node4 -->
<g id="edge3_Node000001_Node000004" class="edge">
<title>Node1&#45;&gt;Node4</title>
<g id="a_edge3_Node000001_Node000004"><a xlink:title=" ">
<path fill="none" stroke="#63b8ff" d="M214.54,-63.54C187.68,-53.59 155.83,-41.78 130.58,-32.43"/>
<polygon fill="#63b8ff" stroke="#63b8ff" points="213.32,-66.82 223.91,-67.01 215.75,-60.26 213.32,-66.82"/>
</a>
</g>
</g>
<!-- Node4&#45;&gt;Node4 -->
<g id="edge4_Node000004_Node000004" class="edge">
<title>Node4&#45;&gt;Node4</title>
<g id="a_edge4_Node000004_Node000004"><a xlink:title=" ">
<path fill="none" stroke="#63b8ff" d="M116.16,-43.71C111.01,-47.48 100.7,-50 85.25,-50 56.99,-50 45.95,-41.58 52.13,-32.44"/>
<polygon fill="#63b8ff" stroke="#63b8ff" points="119.59,-44.41 118.08,-33.93 112.72,-43.07 119.59,-44.41"/>
</a>
</g>
</g>
</g>
</svg>
