<?xml version="1.0" encoding="UTF-8" standalone="no"?>
<!DOCTYPE svg PUBLIC "-//W3C//DTD SVG 1.1//EN"
 "http://www.w3.org/Graphics/SVG/1.1/DTD/svg11.dtd">
<!-- Generated by graphviz version 12.2.1 (20241206.2353)
 -->
<!-- Title: predict.r Pages: 1 -->
<!--zoomable 140 -->

<svg id="main" version="1.1" xmlns="http://www.w3.org/2000/svg" xmlns:xlink="http://www.w3.org/1999/xlink" xml:space="preserve" onload="init(evt)">

<style type="text/css"><![CDATA[
.node, .edge {opacity: 0.7;}
.node.selected, .edge.selected {opacity: 1;}
.edge:hover path { stroke: red; }
.edge:hover polygon { stroke: red; fill: red; }
]]></style>

<defs>
  <circle id="rim" cx="0" cy="0" r="7"/>
  <circle id="rim2" cx="0" cy="0" r="3.5"/>
  <g id="zoomPlus">
    <use xlink:href="#rim" fill="#404040"><set attributeName="fill" to="#808080" begin="zoomplus.mouseover" end="zoomplus.mouseout"/></use>
    <path d="M-4,0h8M0,-4v8" fill="none" stroke="white" stroke-width="1.5" pointer-events="none"/>
  </g>
  <g id="zoomMin">
    <use xlink:href="#rim" fill="#404040"><set attributeName="fill" to="#808080" begin="zoomminus.mouseover" end="zoomminus.mouseout"/></use>
    <path d="M-4,0h8" fill="none" stroke="white" stroke-width="1.5" pointer-events="none"/>
  </g>
  <g id="arrowUp" transform="translate(30 24)">
    <use xlink:href="#rim"/>
    <path pointer-events="none" fill="none" stroke="white" stroke-width="1.5" d="M0,-3.0v7 M-2.5,-0.5L0,-3.0L2.5,-0.5"/>
  </g>
  <g id="arrowRight" transform="rotate(90) translate(36 -43)">
    <use xlink:href="#rim"/>
    <path pointer-events="none" fill="none" stroke="white" stroke-width="1.5" d="M0,-3.0v7 M-2.5,-0.5L0,-3.0L2.5,-0.5"/>
  </g>
  <g id="arrowDown" transform="rotate(180) translate(-30 -48)">
    <use xlink:href="#rim"/>
    <path pointer-events="none" fill="none" stroke="white" stroke-width="1.5" d="M0,-3.0v7 M-2.5,-0.5L0,-3.0L2.5,-0.5"/>
  </g>
  <g id="arrowLeft" transform="rotate(270) translate(-36 17)">
    <use xlink:href="#rim"/>
    <path pointer-events="none" fill="none" stroke="white" stroke-width="1.5" d="M0,-3.0v7 M-2.5,-0.5L0,-3.0L2.5,-0.5"/>
  </g>
  <g id="resetDef">
    <use xlink:href="#rim2" fill="#404040"><set attributeName="fill" to="#808080" begin="reset.mouseover" end="reset.mouseout"/></use>
  </g>
</defs>
<script type="application/ecmascript">
var viewWidth = 538;
var viewHeight = 140;
var sectionId = 'dynsection-9';
</script>
<script type="application/ecmascript" xlink:href="svg.min.js"/>
<svg id="graph" class="graph">
<g id="viewport">
<title>predict.r</title>
<!-- Node1 -->
<g id="Node000001" class="node">
<title>Node1</title>
<g id="a_Node000001"><a xlink:title=" ">
<polygon fill="#999999" stroke="#666666" points="530,-76 478.75,-76 478.75,-56 530,-56 530,-76"/>
<text text-anchor="middle" x="504.38" y="-62.5" font-family="Helvetica,sans-Serif" font-size="10.00">predict.r</text>
</a>
</g>
</g>
<!-- Node2 -->
<g id="Node000002" class="node">
<title>Node2</title>
<g id="a_Node000002"><a xlink:href="namespacepredict.html#ae74d61a5e7d5bd7326999923fe2a4f05" target="_top" xlink:title=" ">
<polygon fill="white" stroke="#666666" points="353.25,-132 260,-132 260,-100 353.25,-100 353.25,-132"/>
<text text-anchor="start" x="268" y="-118.5" font-family="Helvetica,sans-Serif" font-size="10.00">predict.find_harris</text>
<text text-anchor="middle" x="306.62" y="-106.5" font-family="Helvetica,sans-Serif" font-size="10.00">_estimate_eps</text>
</a>
</g>
</g>
<!-- Node1&#45;&gt;Node2 -->
<g id="edge1_Node000001_Node000002" class="edge">
<title>Node1&#45;&gt;Node2</title>
<g id="a_edge1_Node000001_Node000002"><a xlink:title=" ">
<path fill="none" stroke="#63b8ff" d="M481.6,-83.17C470.59,-90.91 456.63,-99.33 442.75,-104 414.06,-113.64 380.13,-116.63 353.44,-117.21"/>
<polygon fill="#63b8ff" stroke="#63b8ff" points="483.61,-86.04 489.59,-77.29 479.46,-80.4 483.61,-86.04"/>
</a>
</g>
</g>
<!-- Node4 -->
<g id="Node000004" class="node">
<title>Node4</title>
<g id="a_Node000004"><a xlink:href="namespacepredict.html#ad077eccae37490e4ed56b294cbd4befd" target="_top" xlink:title=" ">
<polygon fill="white" stroke="#666666" points="352.12,-82 261.12,-82 261.12,-50 352.12,-50 352.12,-82"/>
<text text-anchor="start" x="269.12" y="-68.5" font-family="Helvetica,sans-Serif" font-size="10.00">predict.find_other</text>
<text text-anchor="middle" x="306.62" y="-56.5" font-family="Helvetica,sans-Serif" font-size="10.00">_model</text>
</a>
</g>
</g>
<!-- Node1&#45;&gt;Node4 -->
<g id="edge4_Node000001_Node000004" class="edge">
<title>Node1&#45;&gt;Node4</title>
<g id="a_edge4_Node000001_Node000004"><a xlink:title=" ">
<path fill="none" stroke="#63b8ff" d="M467.39,-66C434.97,-66 387.19,-66 352.33,-66"/>
<polygon fill="#63b8ff" stroke="#63b8ff" points="467.07,-69.5 477.07,-66 467.07,-62.5 467.07,-69.5"/>
</a>
</g>
</g>
<!-- Node6 -->
<g id="Node000006" class="node">
<title>Node6</title>
<g id="a_Node000006"><a xlink:href="namespacepredict.html#af5ad07c8bb3af886e070227f63a64f49" target="_top" xlink:title=" ">
<polygon fill="white" stroke="#666666" points="352.12,-32 261.12,-32 261.12,0 352.12,0 352.12,-32"/>
<text text-anchor="start" x="269.12" y="-18.5" font-family="Helvetica,sans-Serif" font-size="10.00">predict.find_other</text>
<text text-anchor="middle" x="306.62" y="-6.5" font-family="Helvetica,sans-Serif" font-size="10.00">_model_eps</text>
</a>
</g>
</g>
<!-- Node1&#45;&gt;Node6 -->
<g id="edge7_Node000001_Node000006" class="edge">
<title>Node1&#45;&gt;Node6</title>
<g id="a_edge7_Node000001_Node000006"><a xlink:title=" ">
<path fill="none" stroke="#63b8ff" d="M467.81,-56.92C435.39,-48.63 387.34,-36.36 352.33,-27.42"/>
<polygon fill="#63b8ff" stroke="#63b8ff" points="466.56,-60.21 477.12,-59.29 468.29,-53.43 466.56,-60.21"/>
</a>
</g>
</g>
<!-- Node8 -->
<g id="Node000008" class="node">
<title>Node8</title>
<g id="a_Node000008"><a xlink:href="namespacepredict.html#aabf7895b0c2014fbaf861964feb49186" target="_top" xlink:title=" ">
<polygon fill="white" stroke="#666666" points="442.75,-95 389.25,-95 389.25,-75 442.75,-75 442.75,-95"/>
<text text-anchor="middle" x="416" y="-81.5" font-family="Helvetica,sans-Serif" font-size="10.00">predict.rl</text>
</a>
</g>
</g>
<!-- Node1&#45;&gt;Node8 -->
<g id="edge10_Node000001_Node000008" class="edge">
<title>Node1&#45;&gt;Node8</title>
<g id="a_edge10_Node000001_Node000008"><a xlink:title=" ">
<path fill="none" stroke="#63b8ff" d="M467.29,-73.94C459.18,-75.72 450.74,-77.58 443.13,-79.25"/>
<polygon fill="#63b8ff" stroke="#63b8ff" points="467.9,-77.39 476.91,-71.82 466.4,-70.55 467.9,-77.39"/>
</a>
</g>
</g>
<!-- Node3 -->
<g id="Node000003" class="node">
<title>Node3</title>
<g id="a_Node000003"><a xlink:href="namespacepredict.html#a3a578b72e4180dffe78dd9382cb34426" target="_top" xlink:title=" ">
<polygon fill="white" stroke="#666666" points="94,-82 0,-82 0,-50 94,-50 94,-82"/>
<text text-anchor="start" x="8" y="-68.5" font-family="Helvetica,sans-Serif" font-size="10.00">predict.test_harris</text>
<text text-anchor="middle" x="47" y="-56.5" font-family="Helvetica,sans-Serif" font-size="10.00">_estimate_eps</text>
</a>
</g>
</g>
<!-- Node2&#45;&gt;Node3 -->
<g id="edge2_Node000002_Node000003" class="edge">
<title>Node2&#45;&gt;Node3</title>
<g id="a_edge2_Node000002_Node000003"><a xlink:title=" ">
<path fill="none" stroke="#63b8ff" d="M248.49,-110.13C213.95,-106.02 169.17,-99.7 130,-91 118.23,-88.38 105.7,-84.92 94.07,-81.41"/>
<polygon fill="#63b8ff" stroke="#63b8ff" points="247.95,-113.59 258.29,-111.27 248.76,-106.64 247.95,-113.59"/>
</a>
</g>
</g>
<!-- Node3&#45;&gt;Node3 -->
<g id="edge3_Node000003_Node000003" class="edge">
<title>Node3&#45;&gt;Node3</title>
<g id="a_edge3_Node000003_Node000003"><a xlink:title=" ">
<path fill="none" stroke="#63b8ff" d="M68.66,-93.71C65.05,-97.48 57.83,-100 47,-100 27.2,-100 19.46,-91.58 23.79,-82.44"/>
<polygon fill="#63b8ff" stroke="#63b8ff" points="72.11,-94.33 70,-83.94 65.18,-93.37 72.11,-94.33"/>
</a>
</g>
</g>
<!-- Node5 -->
<g id="Node000005" class="node">
<title>Node5</title>
<g id="a_Node000005"><a xlink:href="namespacepredict.html#ad246ba8a830fe9fd72e974cf6daeaff8" target="_top" xlink:title=" ">
<polygon fill="white" stroke="#666666" points="224,-82 130,-82 130,-50 224,-50 224,-82"/>
<text text-anchor="start" x="138" y="-68.5" font-family="Helvetica,sans-Serif" font-size="10.00">predict.test_harris</text>
<text text-anchor="middle" x="177" y="-56.5" font-family="Helvetica,sans-Serif" font-size="10.00">_prediciton</text>
</a>
</g>
</g>
<!-- Node4&#45;&gt;Node5 -->
<g id="edge5_Node000004_Node000005" class="edge">
<title>Node4&#45;&gt;Node5</title>
<g id="a_edge5_Node000004_Node000005"><a xlink:title=" ">
<path fill="none" stroke="#63b8ff" d="M249.38,-66C241,-66 232.45,-66 224.32,-66"/>
<polygon fill="#63b8ff" stroke="#63b8ff" points="249.12,-69.5 259.12,-66 249.12,-62.5 249.12,-69.5"/>
</a>
</g>
</g>
<!-- Node5&#45;&gt;Node3 -->
<g id="edge6_Node000005_Node000003" class="edge">
<title>Node5&#45;&gt;Node3</title>
<g id="a_edge6_Node000005_Node000003"><a xlink:title=" ">
<path fill="none" stroke="#63b8ff" d="M118.44,-66C110.3,-66 102.03,-66 94.14,-66"/>
<polygon fill="#63b8ff" stroke="#63b8ff" points="118.28,-69.5 128.28,-66 118.28,-62.5 118.28,-69.5"/>
</a>
</g>
</g>
<!-- Node7 -->
<g id="Node000007" class="node">
<title>Node7</title>
<g id="a_Node000007"><a xlink:href="namespacepredict.html#ad721282821c568630118f56abb709e48" target="_top" xlink:title=" ">
<polygon fill="white" stroke="#666666" points="224,-32 130,-32 130,0 224,0 224,-32"/>
<text text-anchor="start" x="138" y="-18.5" font-family="Helvetica,sans-Serif" font-size="10.00">predict.test_harris</text>
<text text-anchor="middle" x="177" y="-6.5" font-family="Helvetica,sans-Serif" font-size="10.00">_prediciton_eps</text>
</a>
</g>
</g>
<!-- Node6&#45;&gt;Node7 -->
<g id="edge8_Node000006_Node000007" class="edge">
<title>Node6&#45;&gt;Node7</title>
<g id="a_edge8_Node000006_Node000007"><a xlink:title=" ">
<path fill="none" stroke="#63b8ff" d="M249.38,-16C241,-16 232.45,-16 224.32,-16"/>
<polygon fill="#63b8ff" stroke="#63b8ff" points="249.12,-19.5 259.12,-16 249.12,-12.5 249.12,-19.5"/>
</a>
</g>
</g>
<!-- Node7&#45;&gt;Node3 -->
<g id="edge9_Node000007_Node000003" class="edge">
<title>Node7&#45;&gt;Node3</title>
<g id="a_edge9_Node000007_Node000003"><a xlink:title=" ">
<path fill="none" stroke="#63b8ff" d="M123.57,-36.48C112.39,-40.85 100.73,-45.4 90.01,-49.59"/>
<polygon fill="#63b8ff" stroke="#63b8ff" points="124.64,-39.82 132.68,-32.92 122.09,-33.3 124.64,-39.82"/>
</a>
</g>
</g>
<!-- Node8&#45;&gt;Node2 -->
<g id="edge11_Node000008_Node000002" class="edge">
<title>Node8&#45;&gt;Node2</title>
<g id="a_edge11_Node000008_Node000002"><a xlink:title=" ">
<path fill="none" stroke="#63b8ff" d="M378.21,-95.62C370.26,-97.92 361.76,-100.37 353.5,-102.75"/>
<polygon fill="#63b8ff" stroke="#63b8ff" points="378.92,-99.06 387.55,-92.92 376.97,-92.34 378.92,-99.06"/>
</a>
</g>
</g>
<!-- Node8&#45;&gt;Node4 -->
<g id="edge12_Node000008_Node000004" class="edge">
<title>Node8&#45;&gt;Node4</title>
<g id="a_edge12_Node000008_Node000004"><a xlink:title=" ">
<path fill="none" stroke="#63b8ff" d="M377.82,-78.42C369.57,-76.96 360.75,-75.4 352.23,-73.89"/>
<polygon fill="#63b8ff" stroke="#63b8ff" points="377.06,-81.84 387.52,-80.14 378.28,-74.95 377.06,-81.84"/>
</a>
</g>
</g>
<!-- Node8&#45;&gt;Node6 -->
<g id="edge13_Node000008_Node000006" class="edge">
<title>Node8&#45;&gt;Node6</title>
<g id="a_edge13_Node000008_Node000006"><a xlink:title=" ">
<path fill="none" stroke="#63b8ff" d="M392.65,-68.11C381.11,-59.64 366.67,-49.42 353.25,-41 348.66,-38.12 343.71,-35.22 338.83,-32.46"/>
<polygon fill="#63b8ff" stroke="#63b8ff" points="390.25,-70.69 400.37,-73.84 394.42,-65.07 390.25,-70.69"/>
</a>
</g>
</g>
</g>
</svg>

<g id="navigator" transform="translate(0 0)" fill="#404254">
  <rect fill="#f2f5e9" fill-opacity="0.5" stroke="#606060" stroke-width=".5" x="0" y="0" width="60" height="60"/>
  <use id="zoomplus" xlink:href="#zoomPlus" x="17" y="9" onmousedown="handleZoom(evt,'in')"/>
  <use id="zoomminus" xlink:href="#zoomMin" x="42" y="9" onmousedown="handleZoom(evt,'out')"/>
  <use id="reset" xlink:href="#resetDef" x="30" y="36" onmousedown="handleReset()"/>
   <use id="arrowup" xlink:href="#arrowUp" x="0" y="0" onmousedown="handlePan(0,-1)"/>
  <use id="arrowright" xlink:href="#arrowRight" x="0" y="0" onmousedown="handlePan(1,0)"/>
  <use id="arrowdown" xlink:href="#arrowDown" x="0" y="0" onmousedown="handlePan(0,1)"/>
  <use id="arrowleft" xlink:href="#arrowLeft" x="0" y="0" onmousedown="handlePan(-1,0)"/>
</g>
<svg viewBox="0 0 15 15" width="100%" height="30px" preserveAspectRatio="xMaxYMin meet">
 <g id="arrow_out" transform="scale(0.3 0.3)">
  <a xlink:href="namespacepredict_a9eb8a7f2d97c2232ac5e77fa90d9df04_icgraph_org.svg" target="_base">
   <rect id="button" ry="5" rx="5" y="6" x="6" height="38" width="38"
        fill="#f2f5e9" fill-opacity="0.5" stroke="#606060" stroke-width="1.0"/>
   <path id="arrow"
     d="M 11.500037,31.436501 C 11.940474,20.09759 22.043105,11.32322 32.158766,21.979434 L 37.068811,17.246167 C 37.068811,17.246167 37.088388,32 37.088388,32 L 22.160133,31.978069 C 22.160133,31.978069 26.997745,27.140456 26.997745,27.140456 C 18.528582,18.264221 13.291696,25.230495 11.500037,31.436501 z"
     style="fill:#404040;"/>
  </a>
 </g>
</svg>

<style type='text/css'>
<![CDATA[
[data-mouse-over-selected='false'] { opacity: 0.7; }
[data-mouse-over-selected='true']  { opacity: 1.0; }
]]>
</style>
<script type="application/ecmascript"><![CDATA[
document.addEventListener('DOMContentLoaded', (event) => {
  highlightEdges();
  highlightAdjacentNodes();
});
]]></script>
</svg>
