<?xml version="1.0" encoding="UTF-8" standalone="no"?>
<!DOCTYPE svg PUBLIC "-//W3C//DTD SVG 1.1//EN"
 "http://www.w3.org/Graphics/SVG/1.1/DTD/svg11.dtd">
<!-- Generated by graphviz version 12.2.1 (20241206.2353)
 -->
<!-- Title: examples.scheduling.score_vals Pages: 1 -->
<svg width="374pt" height="66pt"
 viewBox="0.00 0.00 373.75 66.00" xmlns="http://www.w3.org/2000/svg" xmlns:xlink="http://www.w3.org/1999/xlink">
<g id="graph0" class="graph" transform="scale(1 1) rotate(0) translate(4 62)">
<title>examples.scheduling.score_vals</title>
<!-- Node1 -->
<g id="Node000001" class="node">
<title>Node1</title>
<g id="a_Node000001"><a xlink:title=" ">
<polygon fill="#999999" stroke="#666666" points="365.75,-39 208,-39 208,-19 365.75,-19 365.75,-39"/>
<text text-anchor="middle" x="286.88" y="-25.5" font-family="Helvetica,sans-Serif" font-size="10.00">examples.scheduling.score_vals</text>
</a>
</g>
</g>
<!-- Node2 -->
<g id="Node000002" class="node">
<title>Node2</title>
<g id="a_Node000002"><a xlink:href="classexamples_1_1scheduling_1_1fitness.html#a8d58e9d7e95ceb929858cdc06b0eda47" target="_top" xlink:title=" ">
<polygon fill="white" stroke="#666666" points="164.12,-58 7.88,-58 7.88,-38 164.12,-38 164.12,-58"/>
<text text-anchor="middle" x="86" y="-44.5" font-family="Helvetica,sans-Serif" font-size="10.00">examples.scheduling.fitness.fun</text>
</a>
</g>
</g>
<!-- Node1&#45;&gt;Node2 -->
<g id="edge1_Node000001_Node000002" class="edge">
<title>Node1&#45;&gt;Node2</title>
<g id="a_edge1_Node000001_Node000002"><a xlink:title=" ">
<path fill="none" stroke="#63b8ff" d="M196.2,-37.57C185.65,-38.58 174.95,-39.6 164.59,-40.59"/>
<polygon fill="#63b8ff" stroke="#63b8ff" points="196.43,-41.06 206.05,-36.63 195.77,-34.09 196.43,-41.06"/>
</a>
</g>
</g>
<!-- Node3 -->
<g id="Node000003" class="node">
<title>Node3</title>
<g id="a_Node000003"><a xlink:href="classexamples_1_1scheduling_1_1fitness.html#a713c154b74b96a06274438bae71e2419" target="_top" xlink:title=" ">
<polygon fill="white" stroke="#666666" points="172,-20 0,-20 0,0 172,0 172,-20"/>
<text text-anchor="middle" x="86" y="-6.5" font-family="Helvetica,sans-Serif" font-size="10.00">examples.scheduling.fitness.qd_fun</text>
</a>
</g>
</g>
<!-- Node1&#45;&gt;Node3 -->
<g id="edge2_Node000001_Node000003" class="edge">
<title>Node1&#45;&gt;Node3</title>
<g id="a_edge2_Node000001_Node000003"><a xlink:title=" ">
<path fill="none" stroke="#63b8ff" d="M196.11,-20.42C188.24,-19.67 180.29,-18.91 172.46,-18.16"/>
<polygon fill="#63b8ff" stroke="#63b8ff" points="195.77,-23.91 206.05,-21.37 196.43,-16.94 195.77,-23.91"/>
</a>
</g>
</g>
</g>
</svg>
