<?xml version="1.0" encoding="UTF-8" standalone="no"?>
<!DOCTYPE svg PUBLIC "-//W3C//DTD SVG 1.1//EN"
 "http://www.w3.org/Graphics/SVG/1.1/DTD/svg11.dtd">
<!-- Generated by graphviz version 12.2.1 (20241206.2353)
 -->
<!-- Title: fcmaes.mode.crowd_dist Pages: 1 -->
<!--zoomable 266 -->

<svg id="main" version="1.1" xmlns="http://www.w3.org/2000/svg" xmlns:xlink="http://www.w3.org/1999/xlink" xml:space="preserve" onload="init(evt)">

<style type="text/css"><![CDATA[
.node, .edge {opacity: 0.7;}
.node.selected, .edge.selected {opacity: 1;}
.edge:hover path { stroke: red; }
.edge:hover polygon { stroke: red; fill: red; }
]]></style>

<defs>
  <circle id="rim" cx="0" cy="0" r="7"/>
  <circle id="rim2" cx="0" cy="0" r="3.5"/>
  <g id="zoomPlus">
    <use xlink:href="#rim" fill="#404040"><set attributeName="fill" to="#808080" begin="zoomplus.mouseover" end="zoomplus.mouseout"/></use>
    <path d="M-4,0h8M0,-4v8" fill="none" stroke="white" stroke-width="1.5" pointer-events="none"/>
  </g>
  <g id="zoomMin">
    <use xlink:href="#rim" fill="#404040"><set attributeName="fill" to="#808080" begin="zoomminus.mouseover" end="zoomminus.mouseout"/></use>
    <path d="M-4,0h8" fill="none" stroke="white" stroke-width="1.5" pointer-events="none"/>
  </g>
  <g id="arrowUp" transform="translate(30 24)">
    <use xlink:href="#rim"/>
    <path pointer-events="none" fill="none" stroke="white" stroke-width="1.5" d="M0,-3.0v7 M-2.5,-0.5L0,-3.0L2.5,-0.5"/>
  </g>
  <g id="arrowRight" transform="rotate(90) translate(36 -43)">
    <use xlink:href="#rim"/>
    <path pointer-events="none" fill="none" stroke="white" stroke-width="1.5" d="M0,-3.0v7 M-2.5,-0.5L0,-3.0L2.5,-0.5"/>
  </g>
  <g id="arrowDown" transform="rotate(180) translate(-30 -48)">
    <use xlink:href="#rim"/>
    <path pointer-events="none" fill="none" stroke="white" stroke-width="1.5" d="M0,-3.0v7 M-2.5,-0.5L0,-3.0L2.5,-0.5"/>
  </g>
  <g id="arrowLeft" transform="rotate(270) translate(-36 17)">
    <use xlink:href="#rim"/>
    <path pointer-events="none" fill="none" stroke="white" stroke-width="1.5" d="M0,-3.0v7 M-2.5,-0.5L0,-3.0L2.5,-0.5"/>
  </g>
  <g id="resetDef">
    <use xlink:href="#rim2" fill="#404040"><set attributeName="fill" to="#808080" begin="reset.mouseover" end="reset.mouseout"/></use>
  </g>
</defs>
<script type="application/ecmascript">
var viewWidth = 662;
var viewHeight = 266;
var sectionId = 'dynsection-0';
</script>
<script type="application/ecmascript" xlink:href="svg.min.js"/>
<svg id="graph" class="graph">
<g id="viewport">
<title>fcmaes.mode.crowd_dist</title>
<!-- Node1 -->
<g id="Node000001" class="node">
<title>Node1</title>
<g id="a_Node000001"><a xlink:title="Calculates the crowding distance for the first objective in a multi&#45;objective optimization problem.">
<polygon fill="#999999" stroke="#666666" points="653.5,-170 528,-170 528,-150 653.5,-150 653.5,-170"/>
<text text-anchor="middle" x="590.75" y="-156.5" font-family="Helvetica,sans-Serif" font-size="10.00">fcmaes.mode.crowd_dist</text>
</a>
</g>
</g>
<!-- Node2 -->
<g id="Node000002" class="node">
<title>Node2</title>
<g id="a_Node000002"><a xlink:href="namespacefcmaes_1_1mode.html#a4648393e4988cb88b634bc6969891383" target="_top" xlink:title="Sorts solutions based on Pareto dominance and crowding distance.">
<polygon fill="white" stroke="#666666" points="492,-192 365,-192 365,-172 492,-172 492,-192"/>
<text text-anchor="middle" x="428.5" y="-178.5" font-family="Helvetica,sans-Serif" font-size="10.00">fcmaes.mode.pareto_sort</text>
</a>
</g>
</g>
<!-- Node1&#45;&gt;Node2 -->
<g id="edge1_Node000001_Node000002" class="edge">
<title>Node1&#45;&gt;Node2</title>
<g id="a_edge1_Node000001_Node000002"><a xlink:title=" ">
<path fill="none" stroke="#63b8ff" d="M516.49,-170.06C508.43,-171.16 500.27,-172.28 492.35,-173.37"/>
<polygon fill="#63b8ff" stroke="#63b8ff" points="516.86,-173.54 526.29,-168.71 515.91,-166.6 516.86,-173.54"/>
</a>
</g>
</g>
<!-- Node3 -->
<g id="Node000003" class="node">
<title>Node3</title>
<g id="a_Node000003"><a xlink:href="classfcmaes_1_1mode_1_1_m_o_d_e.html#a29791dbcb2e070361529475630de2052" target="_top" xlink:title="Updates the population by performing non&#45;dominated sorting, crowding distance sorting,...">
<polygon fill="white" stroke="#666666" points="492,-154 365,-154 365,-122 492,-122 492,-154"/>
<text text-anchor="start" x="373" y="-140.5" font-family="Helvetica,sans-Serif" font-size="10.00">fcmaes.mode.MODE.pop</text>
<text text-anchor="middle" x="428.5" y="-128.5" font-family="Helvetica,sans-Serif" font-size="10.00">_update</text>
</a>
</g>
</g>
<!-- Node1&#45;&gt;Node3 -->
<g id="edge2_Node000001_Node000003" class="edge">
<title>Node1&#45;&gt;Node3</title>
<g id="a_edge2_Node000001_Node000003"><a xlink:title=" ">
<path fill="none" stroke="#63b8ff" d="M516.49,-149.94C508.43,-148.84 500.27,-147.72 492.35,-146.63"/>
<polygon fill="#63b8ff" stroke="#63b8ff" points="515.91,-153.4 526.29,-151.29 516.86,-146.46 515.91,-153.4"/>
</a>
</g>
</g>
<!-- Node4 -->
<g id="Node000004" class="node">
<title>Node4</title>
<g id="a_Node000004"><a xlink:href="classfcmaes_1_1mode_1_1_m_o_d_e.html#a8b928c29cf646933a1821566ec18d73a" target="_top" xlink:title="Updates the internal population data with the given ys values, and optionally, with the corresponding...">
<polygon fill="white" stroke="#666666" points="329,-148 205,-148 205,-128 329,-128 329,-148"/>
<text text-anchor="middle" x="267" y="-134.5" font-family="Helvetica,sans-Serif" font-size="10.00">fcmaes.mode.MODE.tell</text>
</a>
</g>
</g>
<!-- Node3&#45;&gt;Node4 -->
<g id="edge3_Node000003_Node000004" class="edge">
<title>Node3&#45;&gt;Node4</title>
<g id="a_edge3_Node000003_Node000004"><a xlink:title=" ">
<path fill="none" stroke="#63b8ff" d="M353.56,-138C345.46,-138 337.28,-138 329.35,-138"/>
<polygon fill="#63b8ff" stroke="#63b8ff" points="353.41,-141.5 363.41,-138 353.41,-134.5 353.41,-141.5"/>
</a>
</g>
</g>
<!-- Node5 -->
<g id="Node000005" class="node">
<title>Node5</title>
<g id="a_Node000005"><a xlink:href="classfcmaes_1_1mode_1_1_m_o_d_e.html#a6f479d982825465b97c89e528351bf36" target="_top" xlink:title="Minimizes the given multi&#45;objective function in parallel, using a specified number of workers and an ...">
<polygon fill="white" stroke="#666666" points="169,-258 0,-258 0,-238 169,-238 169,-258"/>
<text text-anchor="middle" x="84.5" y="-244.5" font-family="Helvetica,sans-Serif" font-size="10.00">fcmaes.mode.MODE.minimize_par</text>
</a>
</g>
</g>
<!-- Node4&#45;&gt;Node5 -->
<g id="edge4_Node000004_Node000005" class="edge">
<title>Node4&#45;&gt;Node5</title>
<g id="a_edge4_Node000004_Node000005"><a xlink:title=" ">
<path fill="none" stroke="#63b8ff" d="M250.93,-157.26C233.49,-178.19 202.79,-211.03 169,-229 162.57,-232.42 155.54,-235.23 148.38,-237.53"/>
<polygon fill="#63b8ff" stroke="#63b8ff" points="253.65,-159.46 257.23,-149.49 248.21,-155.05 253.65,-159.46"/>
</a>
</g>
</g>
<!-- Node6 -->
<g id="Node000006" class="node">
<title>Node6</title>
<g id="a_Node000006"><a xlink:href="classfcmaes_1_1modecpp_1_1_m_o_d_e___c.html#a672b403a7e745d9e69532454f32d2b62" target="_top" xlink:title="Run a parallel multi&#45;objective optimization process.">
<polygon fill="white" stroke="#666666" points="146.5,-220 22.5,-220 22.5,-188 146.5,-188 146.5,-220"/>
<text text-anchor="start" x="30.5" y="-206.5" font-family="Helvetica,sans-Serif" font-size="10.00">fcmaes.modecpp.MODE</text>
<text text-anchor="middle" x="84.5" y="-194.5" font-family="Helvetica,sans-Serif" font-size="10.00">_C.minimize_par</text>
</a>
</g>
</g>
<!-- Node4&#45;&gt;Node6 -->
<g id="edge5_Node000004_Node000006" class="edge">
<title>Node4&#45;&gt;Node6</title>
<g id="a_edge5_Node000004_Node000006"><a xlink:title=" ">
<path fill="none" stroke="#63b8ff" d="M232.86,-153.07C214.28,-161.24 190.57,-171.24 169,-179 160.74,-181.97 151.94,-184.88 143.26,-187.6"/>
<polygon fill="#63b8ff" stroke="#63b8ff" points="234.05,-156.37 241.77,-149.11 231.21,-149.97 234.05,-156.37"/>
</a>
</g>
</g>
<!-- Node7 -->
<g id="Node000007" class="node">
<title>Node7</title>
<g id="a_Node000007"><a xlink:href="classfcmaes_1_1mode_1_1_m_o_d_e.html#a3b3a358c6fded3c638706495c88eff1a" target="_top" xlink:title="Minimizes a given function using a custom optimization approach until the maximum number of evaluatio...">
<polygon fill="white" stroke="#666666" points="169,-170 0,-170 0,-150 169,-150 169,-170"/>
<text text-anchor="middle" x="84.5" y="-156.5" font-family="Helvetica,sans-Serif" font-size="10.00">fcmaes.mode.MODE.minimize_ser</text>
</a>
</g>
</g>
<!-- Node4&#45;&gt;Node7 -->
<g id="edge6_Node000004_Node000007" class="edge">
<title>Node4&#45;&gt;Node7</title>
<g id="a_edge6_Node000004_Node000007"><a xlink:title=" ">
<path fill="none" stroke="#63b8ff" d="M193.28,-146.86C185.42,-147.82 177.37,-148.8 169.39,-149.77"/>
<polygon fill="#63b8ff" stroke="#63b8ff" points="193.63,-150.35 203.14,-145.66 192.79,-143.4 193.63,-150.35"/>
</a>
</g>
</g>
<!-- Node8 -->
<g id="Node000008" class="node">
<title>Node8</title>
<g id="a_Node000008"><a xlink:href="classfcmaes_1_1modecpp_1_1_m_o_d_e___c.html#aa4a7a3e4f9a3fc84dc37faf820025306" target="_top" xlink:title="Minimizes the given scalar function using a serial optimization method.">
<polygon fill="white" stroke="#666666" points="146.5,-132 22.5,-132 22.5,-100 146.5,-100 146.5,-132"/>
<text text-anchor="start" x="30.5" y="-118.5" font-family="Helvetica,sans-Serif" font-size="10.00">fcmaes.modecpp.MODE</text>
<text text-anchor="middle" x="84.5" y="-106.5" font-family="Helvetica,sans-Serif" font-size="10.00">_C.minimize_ser</text>
</a>
</g>
</g>
<!-- Node4&#45;&gt;Node8 -->
<g id="edge7_Node000004_Node000008" class="edge">
<title>Node4&#45;&gt;Node8</title>
<g id="a_edge7_Node000004_Node000008"><a xlink:title=" ">
<path fill="none" stroke="#63b8ff" d="M193.56,-129.17C178.13,-127.29 161.97,-125.32 147,-123.5"/>
<polygon fill="#63b8ff" stroke="#63b8ff" points="192.79,-132.6 203.14,-130.34 193.63,-125.65 192.79,-132.6"/>
</a>
</g>
</g>
<!-- Node9 -->
<g id="Node000009" class="node">
<title>Node9</title>
<g id="a_Node000009"><a xlink:href="classfcmaes_1_1mode_1_1_m_o_d_e.html#af1ac6ae50db24a626f6649175bfecf96" target="_top" xlink:title="Sets the initial guess values for an optimization or search algorithm.">
<polygon fill="white" stroke="#666666" points="146.88,-82 22.13,-82 22.13,-50 146.88,-50 146.88,-82"/>
<text text-anchor="start" x="30.12" y="-68.5" font-family="Helvetica,sans-Serif" font-size="10.00">fcmaes.mode.MODE.set</text>
<text text-anchor="middle" x="84.5" y="-56.5" font-family="Helvetica,sans-Serif" font-size="10.00">_guess</text>
</a>
</g>
</g>
<!-- Node4&#45;&gt;Node9 -->
<g id="edge8_Node000004_Node000009" class="edge">
<title>Node4&#45;&gt;Node9</title>
<g id="a_edge8_Node000004_Node000009"><a xlink:title=" ">
<path fill="none" stroke="#63b8ff" d="M236.63,-122.24C217.67,-112.46 192.29,-100.06 169,-91 161.24,-87.98 152.97,-85.11 144.75,-82.45"/>
<polygon fill="#63b8ff" stroke="#63b8ff" points="234.89,-125.28 245.38,-126.82 238.14,-119.08 234.89,-125.28"/>
</a>
</g>
</g>
<!-- Node10 -->
<g id="Node000010" class="node">
<title>Node10</title>
<g id="a_Node000010"><a xlink:href="classfcmaes_1_1modecpp_1_1_m_o_d_e___c.html#a3267cafa8c068a367179034c3f5a562d" target="_top" xlink:title="Set the initial guess values for optimization along with corresponding function evaluations.">
<polygon fill="white" stroke="#666666" points="146.5,-32 22.5,-32 22.5,0 146.5,0 146.5,-32"/>
<text text-anchor="start" x="30.5" y="-18.5" font-family="Helvetica,sans-Serif" font-size="10.00">fcmaes.modecpp.MODE</text>
<text text-anchor="middle" x="84.5" y="-6.5" font-family="Helvetica,sans-Serif" font-size="10.00">_C.set_guess</text>
</a>
</g>
</g>
<!-- Node4&#45;&gt;Node10 -->
<g id="edge9_Node000004_Node000010" class="edge">
<title>Node4&#45;&gt;Node10</title>
<g id="a_edge9_Node000004_Node000010"><a xlink:title=" ">
<path fill="none" stroke="#63b8ff" d="M251.48,-118.52C234.16,-96.61 203.23,-61.43 169,-41 162.11,-36.89 154.5,-33.41 146.75,-30.47"/>
<polygon fill="#63b8ff" stroke="#63b8ff" points="248.64,-120.57 257.51,-126.35 254.18,-116.29 248.64,-120.57"/>
</a>
</g>
</g>
</g>
</svg>

<g id="navigator" transform="translate(0 0)" fill="#404254">
  <rect fill="#f2f5e9" fill-opacity="0.5" stroke="#606060" stroke-width=".5" x="0" y="0" width="60" height="60"/>
  <use id="zoomplus" xlink:href="#zoomPlus" x="17" y="9" onmousedown="handleZoom(evt,'in')"/>
  <use id="zoomminus" xlink:href="#zoomMin" x="42" y="9" onmousedown="handleZoom(evt,'out')"/>
  <use id="reset" xlink:href="#resetDef" x="30" y="36" onmousedown="handleReset()"/>
   <use id="arrowup" xlink:href="#arrowUp" x="0" y="0" onmousedown="handlePan(0,-1)"/>
  <use id="arrowright" xlink:href="#arrowRight" x="0" y="0" onmousedown="handlePan(1,0)"/>
  <use id="arrowdown" xlink:href="#arrowDown" x="0" y="0" onmousedown="handlePan(0,1)"/>
  <use id="arrowleft" xlink:href="#arrowLeft" x="0" y="0" onmousedown="handlePan(-1,0)"/>
</g>
<svg viewBox="0 0 15 15" width="100%" height="30px" preserveAspectRatio="xMaxYMin meet">
 <g id="arrow_out" transform="scale(0.3 0.3)">
  <a xlink:href="namespacefcmaes_1_1mode_a0f27ab476c153a96dba3568003ab075a_icgraph_org.svg" target="_base">
   <rect id="button" ry="5" rx="5" y="6" x="6" height="38" width="38"
        fill="#f2f5e9" fill-opacity="0.5" stroke="#606060" stroke-width="1.0"/>
   <path id="arrow"
     d="M 11.500037,31.436501 C 11.940474,20.09759 22.043105,11.32322 32.158766,21.979434 L 37.068811,17.246167 C 37.068811,17.246167 37.088388,32 37.088388,32 L 22.160133,31.978069 C 22.160133,31.978069 26.997745,27.140456 26.997745,27.140456 C 18.528582,18.264221 13.291696,25.230495 11.500037,31.436501 z"
     style="fill:#404040;"/>
  </a>
 </g>
</svg>

<style type='text/css'>
<![CDATA[
[data-mouse-over-selected='false'] { opacity: 0.7; }
[data-mouse-over-selected='true']  { opacity: 1.0; }
]]>
</style>
<script type="application/ecmascript"><![CDATA[
document.addEventListener('DOMContentLoaded', (event) => {
  highlightEdges();
  highlightAdjacentNodes();
});
]]></script>
</svg>
