<?xml version="1.0" encoding="UTF-8" standalone="no"?>
<!DOCTYPE svg PUBLIC "-//W3C//DTD SVG 1.1//EN"
 "http://www.w3.org/Graphics/SVG/1.1/DTD/svg11.dtd">
<!-- Generated by graphviz version 12.2.1 (20241206.2353)
 -->
<!-- Title: examples.spring.print_result Pages: 1 -->
<!--zoomable 135 -->

<svg id="main" version="1.1" xmlns="http://www.w3.org/2000/svg" xmlns:xlink="http://www.w3.org/1999/xlink" xml:space="preserve" onload="init(evt)">

<style type="text/css"><![CDATA[
.node, .edge {opacity: 0.7;}
.node.selected, .edge.selected {opacity: 1;}
.edge:hover path { stroke: red; }
.edge:hover polygon { stroke: red; fill: red; }
]]></style>

<defs>
  <circle id="rim" cx="0" cy="0" r="7"/>
  <circle id="rim2" cx="0" cy="0" r="3.5"/>
  <g id="zoomPlus">
    <use xlink:href="#rim" fill="#404040"><set attributeName="fill" to="#808080" begin="zoomplus.mouseover" end="zoomplus.mouseout"/></use>
    <path d="M-4,0h8M0,-4v8" fill="none" stroke="white" stroke-width="1.5" pointer-events="none"/>
  </g>
  <g id="zoomMin">
    <use xlink:href="#rim" fill="#404040"><set attributeName="fill" to="#808080" begin="zoomminus.mouseover" end="zoomminus.mouseout"/></use>
    <path d="M-4,0h8" fill="none" stroke="white" stroke-width="1.5" pointer-events="none"/>
  </g>
  <g id="arrowUp" transform="translate(30 24)">
    <use xlink:href="#rim"/>
    <path pointer-events="none" fill="none" stroke="white" stroke-width="1.5" d="M0,-3.0v7 M-2.5,-0.5L0,-3.0L2.5,-0.5"/>
  </g>
  <g id="arrowRight" transform="rotate(90) translate(36 -43)">
    <use xlink:href="#rim"/>
    <path pointer-events="none" fill="none" stroke="white" stroke-width="1.5" d="M0,-3.0v7 M-2.5,-0.5L0,-3.0L2.5,-0.5"/>
  </g>
  <g id="arrowDown" transform="rotate(180) translate(-30 -48)">
    <use xlink:href="#rim"/>
    <path pointer-events="none" fill="none" stroke="white" stroke-width="1.5" d="M0,-3.0v7 M-2.5,-0.5L0,-3.0L2.5,-0.5"/>
  </g>
  <g id="arrowLeft" transform="rotate(270) translate(-36 17)">
    <use xlink:href="#rim"/>
    <path pointer-events="none" fill="none" stroke="white" stroke-width="1.5" d="M0,-3.0v7 M-2.5,-0.5L0,-3.0L2.5,-0.5"/>
  </g>
  <g id="resetDef">
    <use xlink:href="#rim2" fill="#404040"><set attributeName="fill" to="#808080" begin="reset.mouseover" end="reset.mouseout"/></use>
  </g>
</defs>
<script type="application/ecmascript">
var viewWidth = 632;
var viewHeight = 135;
var sectionId = 'dynsection-4';
</script>
<script type="application/ecmascript" xlink:href="svg.min.js"/>
<svg id="graph" class="graph">
<g id="viewport">
<title>examples.spring.print_result</title>
<!-- Node1 -->
<g id="Node000001" class="node">
<title>Node1</title>
<g id="a_Node000001"><a xlink:title=" ">
<polygon fill="#999999" stroke="#666666" points="109,-73.17 0,-73.17 0,-41.17 109,-41.17 109,-73.17"/>
<text text-anchor="start" x="8" y="-59.67" font-family="Helvetica,sans-Serif" font-size="10.00">examples.spring.print</text>
<text text-anchor="middle" x="54.5" y="-47.67" font-family="Helvetica,sans-Serif" font-size="10.00">_result</text>
</a>
</g>
</g>
<!-- Node2 -->
<g id="Node000002" class="node">
<title>Node2</title>
<g id="a_Node000002"><a xlink:href="namespaceexamples_1_1spring.html#ab4b7a17b6f29a47a16b6e750c9f44b6a" target="_top" xlink:title=" ">
<polygon fill="white" stroke="#666666" points="274.25,-127.17 145,-127.17 145,-107.17 274.25,-107.17 274.25,-127.17"/>
<text text-anchor="middle" x="209.62" y="-113.67" font-family="Helvetica,sans-Serif" font-size="10.00">examples.spring._feasible</text>
</a>
</g>
</g>
<!-- Node1&#45;&gt;Node2 -->
<g id="edge1_Node000001_Node000002" class="edge">
<title>Node1&#45;&gt;Node2</title>
<g id="a_edge1_Node000001_Node000002"><a xlink:title=" ">
<path fill="none" stroke="#63b8ff" d="M95.97,-73.66C111.3,-79.85 128.93,-86.9 145,-93.17 153.11,-96.33 161.82,-99.66 170.12,-102.8"/>
<polygon fill="#63b8ff" stroke="#63b8ff" points="168.69,-106 179.28,-106.25 171.16,-99.45 168.69,-106"/>
</a>
</g>
</g>
<!-- Node3 -->
<g id="Node000003" class="node">
<title>Node3</title>
<g id="a_Node000003"><a xlink:href="namespaceexamples_1_1spring.html#ad819bd367024b1a2ff5dcdcf9baf0f26" target="_top" xlink:title=" ">
<polygon fill="white" stroke="#666666" points="432,-65.17 310.25,-65.17 310.25,-45.17 432,-45.17 432,-65.17"/>
<text text-anchor="middle" x="371.12" y="-51.67" font-family="Helvetica,sans-Serif" font-size="10.00">examples.spring.penalty</text>
</a>
</g>
</g>
<!-- Node1&#45;&gt;Node3 -->
<g id="edge2_Node000001_Node000003" class="edge">
<title>Node1&#45;&gt;Node3</title>
<g id="a_edge2_Node000001_Node000003"><a xlink:title=" ">
<path fill="none" stroke="#63b8ff" d="M109.45,-59.27C121.17,-59.64 133.5,-59.97 145,-60.17 202.44,-61.13 216.83,-61.66 274.25,-60.17 282.06,-59.96 290.23,-59.67 298.36,-59.32"/>
<polygon fill="#63b8ff" stroke="#63b8ff" points="298.45,-62.82 308.28,-58.86 298.13,-55.83 298.45,-62.82"/>
</a>
</g>
</g>
<!-- Node5 -->
<g id="Node000005" class="node">
<title>Node5</title>
<g id="a_Node000005"><a xlink:href="namespaceexamples_1_1spring.html#a44581395454773e536a02fcb79378602" target="_top" xlink:title=" ">
<polygon fill="white" stroke="#666666" points="430.5,-24.17 311.75,-24.17 311.75,-4.17 430.5,-4.17 430.5,-24.17"/>
<text text-anchor="middle" x="371.12" y="-10.67" font-family="Helvetica,sans-Serif" font-size="10.00">examples.spring.weight</text>
</a>
</g>
</g>
<!-- Node1&#45;&gt;Node5 -->
<g id="edge4_Node000001_Node000005" class="edge">
<title>Node1&#45;&gt;Node5</title>
<g id="a_edge4_Node000001_Node000005"><a xlink:title=" ">
<path fill="none" stroke="#63b8ff" d="M78.91,-40.82C96.26,-29.75 120.97,-16.09 145,-10.17 195.8,2.36 255.02,0.69 299.97,-3.75"/>
<polygon fill="#63b8ff" stroke="#63b8ff" points="299.55,-7.22 309.86,-4.8 300.29,-0.26 299.55,-7.22"/>
</a>
</g>
</g>
<!-- Node6 -->
<g id="Node000006" class="node">
<title>Node6</title>
<g id="a_Node000006"><a xlink:href="namespaceexamples_1_1spring.html#a39b97ec21efea793b97726fa1bdc4d0b" target="_top" xlink:title=" ">
<polygon fill="white" stroke="#666666" points="269,-51.17 150.25,-51.17 150.25,-19.17 269,-19.17 269,-51.17"/>
<text text-anchor="start" x="158.25" y="-37.67" font-family="Helvetica,sans-Serif" font-size="10.00">examples.spring.weight</text>
<text text-anchor="middle" x="209.62" y="-25.67" font-family="Helvetica,sans-Serif" font-size="10.00">_penalty</text>
</a>
</g>
</g>
<!-- Node1&#45;&gt;Node6 -->
<g id="edge5_Node000001_Node000006" class="edge">
<title>Node1&#45;&gt;Node6</title>
<g id="a_edge5_Node000001_Node000006"><a xlink:title=" ">
<path fill="none" stroke="#63b8ff" d="M109.49,-49.41C118.89,-48.06 128.8,-46.64 138.56,-45.23"/>
<polygon fill="#63b8ff" stroke="#63b8ff" points="139.02,-48.7 148.42,-43.82 138.03,-41.77 139.02,-48.7"/>
</a>
</g>
</g>
<!-- Node4 -->
<g id="Node000004" class="node">
<title>Node4</title>
<g id="a_Node000004"><a xlink:href="namespaceexamples_1_1spring.html#a682c6c4156dd71a76e42d83aa869de29" target="_top" xlink:title=" ">
<polygon fill="white" stroke="#666666" points="624.25,-65.17 468,-65.17 468,-45.17 624.25,-45.17 624.25,-65.17"/>
<text text-anchor="middle" x="546.12" y="-51.67" font-family="Helvetica,sans-Serif" font-size="10.00">examples.spring.constraint_ineq</text>
</a>
</g>
</g>
<!-- Node3&#45;&gt;Node4 -->
<g id="edge3_Node000003_Node000004" class="edge">
<title>Node3&#45;&gt;Node4</title>
<g id="a_edge3_Node000003_Node000004"><a xlink:title=" ">
<path fill="none" stroke="#63b8ff" d="M432.15,-55.17C439.91,-55.17 447.98,-55.17 456.09,-55.17"/>
<polygon fill="#63b8ff" stroke="#63b8ff" points="456.02,-58.67 466.02,-55.17 456.02,-51.67 456.02,-58.67"/>
</a>
</g>
</g>
<!-- Node6&#45;&gt;Node3 -->
<g id="edge6_Node000006_Node000003" class="edge">
<title>Node6&#45;&gt;Node3</title>
<g id="a_edge6_Node000006_Node000003"><a xlink:title=" ">
<path fill="none" stroke="#63b8ff" d="M269.11,-42.5C278.63,-43.7 288.59,-44.94 298.39,-46.17"/>
<polygon fill="#63b8ff" stroke="#63b8ff" points="297.91,-49.64 308.27,-47.41 298.78,-42.69 297.91,-49.64"/>
</a>
</g>
</g>
<!-- Node6&#45;&gt;Node5 -->
<g id="edge7_Node000006_Node000005" class="edge">
<title>Node6&#45;&gt;Node5</title>
<g id="a_edge7_Node000006_Node000005"><a xlink:title=" ">
<path fill="none" stroke="#63b8ff" d="M269.11,-27.47C279.23,-26.13 289.84,-24.74 300.23,-23.37"/>
<polygon fill="#63b8ff" stroke="#63b8ff" points="300.42,-26.88 309.88,-22.1 299.51,-19.94 300.42,-26.88"/>
</a>
</g>
</g>
</g>
</svg>

<g id="navigator" transform="translate(0 0)" fill="#404254">
  <rect fill="#f2f5e9" fill-opacity="0.5" stroke="#606060" stroke-width=".5" x="0" y="0" width="60" height="60"/>
  <use id="zoomplus" xlink:href="#zoomPlus" x="17" y="9" onmousedown="handleZoom(evt,'in')"/>
  <use id="zoomminus" xlink:href="#zoomMin" x="42" y="9" onmousedown="handleZoom(evt,'out')"/>
  <use id="reset" xlink:href="#resetDef" x="30" y="36" onmousedown="handleReset()"/>
   <use id="arrowup" xlink:href="#arrowUp" x="0" y="0" onmousedown="handlePan(0,-1)"/>
  <use id="arrowright" xlink:href="#arrowRight" x="0" y="0" onmousedown="handlePan(1,0)"/>
  <use id="arrowdown" xlink:href="#arrowDown" x="0" y="0" onmousedown="handlePan(0,1)"/>
  <use id="arrowleft" xlink:href="#arrowLeft" x="0" y="0" onmousedown="handlePan(-1,0)"/>
</g>
<svg viewBox="0 0 15 15" width="100%" height="30px" preserveAspectRatio="xMaxYMin meet">
 <g id="arrow_out" transform="scale(0.3 0.3)">
  <a xlink:href="namespaceexamples_1_1spring_a5548a6c0d57e91af650b43407f2f1c60_cgraph_org.svg" target="_base">
   <rect id="button" ry="5" rx="5" y="6" x="6" height="38" width="38"
        fill="#f2f5e9" fill-opacity="0.5" stroke="#606060" stroke-width="1.0"/>
   <path id="arrow"
     d="M 11.500037,31.436501 C 11.940474,20.09759 22.043105,11.32322 32.158766,21.979434 L 37.068811,17.246167 C 37.068811,17.246167 37.088388,32 37.088388,32 L 22.160133,31.978069 C 22.160133,31.978069 26.997745,27.140456 26.997745,27.140456 C 18.528582,18.264221 13.291696,25.230495 11.500037,31.436501 z"
     style="fill:#404040;"/>
  </a>
 </g>
</svg>

<style type='text/css'>
<![CDATA[
[data-mouse-over-selected='false'] { opacity: 0.7; }
[data-mouse-over-selected='true']  { opacity: 1.0; }
]]>
</style>
<script type="application/ecmascript"><![CDATA[
document.addEventListener('DOMContentLoaded', (event) => {
  highlightEdges();
  highlightAdjacentNodes();
});
]]></script>
</svg>
