<?xml version="1.0" encoding="UTF-8" standalone="no"?>
<!DOCTYPE svg PUBLIC "-//W3C//DTD SVG 1.1//EN"
 "http://www.w3.org/Graphics/SVG/1.1/DTD/svg11.dtd">
<!-- Generated by graphviz version 12.2.1 (20241206.2353)
 -->
<!-- Title: examples.tdesign.visualize_points Pages: 1 -->
<svg width="665pt" height="162pt"
 viewBox="0.00 0.00 665.25 162.00" xmlns="http://www.w3.org/2000/svg" xmlns:xlink="http://www.w3.org/1999/xlink">
<g id="graph0" class="graph" transform="scale(1 1) rotate(0) translate(4 158)">
<title>examples.tdesign.visualize_points</title>
<!-- Node1 -->
<g id="Node000001" class="node">
<title>Node1</title>
<g id="a_Node000001"><a xlink:title="Visualize points on the unit sphere.">
<polygon fill="#999999" stroke="#666666" points="133.75,-120 0,-120 0,-88 133.75,-88 133.75,-120"/>
<text text-anchor="start" x="8" y="-106.5" font-family="Helvetica,sans-Serif" font-size="10.00">examples.tdesign.visualize</text>
<text text-anchor="middle" x="66.88" y="-94.5" font-family="Helvetica,sans-Serif" font-size="10.00">_points</text>
</a>
</g>
</g>
<!-- Node2 -->
<g id="Node000002" class="node">
<title>Node2</title>
<g id="a_Node000002"><a xlink:href="namespaceexamples_1_1tdesign.html#a6ca70e19dba68def099810c806a5b842" target="_top" xlink:title=" ">
<polygon fill="white" stroke="#666666" points="657.25,-154 519.75,-154 519.75,-122 657.25,-122 657.25,-154"/>
<text text-anchor="start" x="527.75" y="-140.5" font-family="Helvetica,sans-Serif" font-size="10.00">examples.tdesign.normalize</text>
<text text-anchor="middle" x="588.5" y="-128.5" font-family="Helvetica,sans-Serif" font-size="10.00">_weights_to_average_one</text>
</a>
</g>
</g>
<!-- Node1&#45;&gt;Node2 -->
<g id="edge1_Node000001_Node000002" class="edge">
<title>Node1&#45;&gt;Node2</title>
<g id="a_edge1_Node000001_Node000002"><a xlink:title=" ">
<path fill="none" stroke="#63b8ff" d="M125.37,-120.44C139.75,-123.9 155.22,-127.08 169.75,-129 286.81,-144.43 423.9,-143.88 508.22,-141.43"/>
<polygon fill="#63b8ff" stroke="#63b8ff" points="508.1,-144.94 517.99,-141.13 507.89,-137.94 508.1,-144.94"/>
</a>
</g>
</g>
<!-- Node3 -->
<g id="Node000003" class="node">
<title>Node3</title>
<g id="a_Node000003"><a xlink:href="namespaceexamples_1_1tdesign.html#a55246a7f644c9b7a7ed3d05dbc4b9845" target="_top" xlink:title=" ">
<polygon fill="white" stroke="#666666" points="306.5,-120 172,-120 172,-88 306.5,-88 306.5,-120"/>
<text text-anchor="start" x="180" y="-106.5" font-family="Helvetica,sans-Serif" font-size="10.00">examples.tdesign.spherical</text>
<text text-anchor="middle" x="239.25" y="-94.5" font-family="Helvetica,sans-Serif" font-size="10.00">_to_cartesian</text>
</a>
</g>
</g>
<!-- Node1&#45;&gt;Node3 -->
<g id="edge2_Node000001_Node000003" class="edge">
<title>Node1&#45;&gt;Node3</title>
<g id="a_edge2_Node000001_Node000003"><a xlink:title=" ">
<path fill="none" stroke="#63b8ff" d="M134.23,-104C142.74,-104 151.52,-104 160.19,-104"/>
<polygon fill="#63b8ff" stroke="#63b8ff" points="160,-107.5 170,-104 160,-100.5 160,-107.5"/>
</a>
</g>
</g>
<!-- Node4 -->
<g id="Node000004" class="node">
<title>Node4</title>
<g id="a_Node000004"><a xlink:href="namespaceexamples_1_1tdesign.html#a1cb307dfea95e59f67161218e5a0ef8e" target="_top" xlink:title="Compute a symmetry measure for a set of points.">
<polygon fill="white" stroke="#666666" points="308.75,-70 169.75,-70 169.75,-50 308.75,-50 308.75,-70"/>
<text text-anchor="middle" x="239.25" y="-56.5" font-family="Helvetica,sans-Serif" font-size="10.00">examples.tdesign.symmetry</text>
</a>
</g>
</g>
<!-- Node1&#45;&gt;Node4 -->
<g id="edge3_Node000001_Node000004" class="edge">
<title>Node1&#45;&gt;Node4</title>
<g id="a_edge3_Node000001_Node000004"><a xlink:title=" ">
<path fill="none" stroke="#63b8ff" d="M131.32,-87.62C149.55,-82.91 169.22,-77.83 186.65,-73.33"/>
<polygon fill="#63b8ff" stroke="#63b8ff" points="187.47,-76.73 196.28,-70.84 185.72,-69.95 187.47,-76.73"/>
</a>
</g>
</g>
<!-- Node5 -->
<g id="Node000005" class="node">
<title>Node5</title>
<g id="a_Node000005"><a xlink:href="namespaceexamples_1_1tdesign.html#a532ed878becc725e89bc283de0ba5352" target="_top" xlink:title="Compute fully normalized real spherical harmonics up to degree l_max using scipy.special....">
<polygon fill="white" stroke="#666666" points="644.12,-95 532.88,-95 532.88,-63 644.12,-63 644.12,-95"/>
<text text-anchor="start" x="540.88" y="-81.5" font-family="Helvetica,sans-Serif" font-size="10.00">examples.tdesign.real</text>
<text text-anchor="middle" x="588.5" y="-69.5" font-family="Helvetica,sans-Serif" font-size="10.00">_spherical_harmonics</text>
</a>
</g>
</g>
<!-- Node4&#45;&gt;Node5 -->
<g id="edge4_Node000004_Node000005" class="edge">
<title>Node4&#45;&gt;Node5</title>
<g id="a_edge4_Node000004_Node000005"><a xlink:title=" ">
<path fill="none" stroke="#63b8ff" d="M308.86,-63.75C370.41,-67.12 460.18,-72.03 521.06,-75.36"/>
<polygon fill="#63b8ff" stroke="#63b8ff" points="520.77,-78.85 530.94,-75.91 521.15,-71.86 520.77,-78.85"/>
</a>
</g>
</g>
<!-- Node6 -->
<g id="Node000006" class="node">
<title>Node6</title>
<g id="a_Node000006"><a xlink:href="namespaceexamples_1_1tdesign.html#a704d0d6079500012779ad8cbd2c50d27" target="_top" xlink:title="For each degree l from 0 to l_max, compute the sum over m of the square of the (pointwise) sums of th...">
<polygon fill="white" stroke="#666666" points="483.75,-32 344.75,-32 344.75,0 483.75,0 483.75,-32"/>
<text text-anchor="start" x="352.75" y="-18.5" font-family="Helvetica,sans-Serif" font-size="10.00">examples.tdesign.symmetry</text>
<text text-anchor="middle" x="414.25" y="-6.5" font-family="Helvetica,sans-Serif" font-size="10.00">_error</text>
</a>
</g>
</g>
<!-- Node4&#45;&gt;Node6 -->
<g id="edge5_Node000004_Node000006" class="edge">
<title>Node4&#45;&gt;Node6</title>
<g id="a_edge5_Node000004_Node000006"><a xlink:title=" ">
<path fill="none" stroke="#63b8ff" d="M281.25,-49.57C298.12,-45.28 318.21,-40.17 337.57,-35.25"/>
<polygon fill="#63b8ff" stroke="#63b8ff" points="338.24,-38.69 347.07,-32.83 336.52,-31.9 338.24,-38.69"/>
</a>
</g>
</g>
<!-- Node7 -->
<g id="Node000007" class="node">
<title>Node7</title>
<g id="a_Node000007"><a xlink:href="namespaceexamples_1_1tdesign.html#aaf9d7a51f34d459c87a877b260d6b27d" target="_top" xlink:title=" ">
<polygon fill="white" stroke="#666666" points="481.5,-120 347,-120 347,-88 481.5,-88 481.5,-120"/>
<text text-anchor="start" x="355" y="-106.5" font-family="Helvetica,sans-Serif" font-size="10.00">examples.tdesign.weighted</text>
<text text-anchor="middle" x="414.25" y="-94.5" font-family="Helvetica,sans-Serif" font-size="10.00">_spherical_harmonics</text>
</a>
</g>
</g>
<!-- Node4&#45;&gt;Node7 -->
<g id="edge6_Node000004_Node000007" class="edge">
<title>Node4&#45;&gt;Node7</title>
<g id="a_edge6_Node000004_Node000007"><a xlink:title=" ">
<path fill="none" stroke="#63b8ff" d="M281.25,-70.43C298.12,-74.72 318.21,-79.83 337.57,-84.75"/>
<polygon fill="#63b8ff" stroke="#63b8ff" points="336.52,-88.1 347.07,-87.17 338.24,-81.31 336.52,-88.1"/>
</a>
</g>
</g>
<!-- Node7&#45;&gt;Node2 -->
<g id="edge7_Node000007_Node000002" class="edge">
<title>Node7&#45;&gt;Node2</title>
<g id="a_edge7_Node000007_Node000002"><a xlink:title=" ">
<path fill="none" stroke="#63b8ff" d="M481.85,-117.15C490.5,-118.85 499.43,-120.62 508.26,-122.36"/>
<polygon fill="#63b8ff" stroke="#63b8ff" points="507.4,-125.76 517.89,-124.26 508.76,-118.89 507.4,-125.76"/>
</a>
</g>
</g>
<!-- Node7&#45;&gt;Node5 -->
<g id="edge8_Node000007_Node000005" class="edge">
<title>Node7&#45;&gt;Node5</title>
<g id="a_edge8_Node000007_Node000005"><a xlink:title=" ">
<path fill="none" stroke="#63b8ff" d="M481.85,-94.33C494.81,-92.45 508.39,-90.48 521.34,-88.6"/>
<polygon fill="#63b8ff" stroke="#63b8ff" points="521.63,-92.1 531.02,-87.2 520.62,-85.17 521.63,-92.1"/>
</a>
</g>
</g>
</g>
</svg>
