<?xml version="1.0" encoding="UTF-8" standalone="no"?>
<!DOCTYPE svg PUBLIC "-//W3C//DTD SVG 1.1//EN"
 "http://www.w3.org/Graphics/SVG/1.1/DTD/svg11.dtd">
<!-- Generated by graphviz version 12.2.1 (20241206.2353)
 -->
<!-- Title: examples.kepler.kepler._mean2eccentric Pages: 1 -->
<!--zoomable 178 -->

<svg id="main" version="1.1" xmlns="http://www.w3.org/2000/svg" xmlns:xlink="http://www.w3.org/1999/xlink" xml:space="preserve" onload="init(evt)">

<style type="text/css"><![CDATA[
.node, .edge {opacity: 0.7;}
.node.selected, .edge.selected {opacity: 1;}
.edge:hover path { stroke: red; }
.edge:hover polygon { stroke: red; fill: red; }
]]></style>

<defs>
  <circle id="rim" cx="0" cy="0" r="7"/>
  <circle id="rim2" cx="0" cy="0" r="3.5"/>
  <g id="zoomPlus">
    <use xlink:href="#rim" fill="#404040"><set attributeName="fill" to="#808080" begin="zoomplus.mouseover" end="zoomplus.mouseout"/></use>
    <path d="M-4,0h8M0,-4v8" fill="none" stroke="white" stroke-width="1.5" pointer-events="none"/>
  </g>
  <g id="zoomMin">
    <use xlink:href="#rim" fill="#404040"><set attributeName="fill" to="#808080" begin="zoomminus.mouseover" end="zoomminus.mouseout"/></use>
    <path d="M-4,0h8" fill="none" stroke="white" stroke-width="1.5" pointer-events="none"/>
  </g>
  <g id="arrowUp" transform="translate(30 24)">
    <use xlink:href="#rim"/>
    <path pointer-events="none" fill="none" stroke="white" stroke-width="1.5" d="M0,-3.0v7 M-2.5,-0.5L0,-3.0L2.5,-0.5"/>
  </g>
  <g id="arrowRight" transform="rotate(90) translate(36 -43)">
    <use xlink:href="#rim"/>
    <path pointer-events="none" fill="none" stroke="white" stroke-width="1.5" d="M0,-3.0v7 M-2.5,-0.5L0,-3.0L2.5,-0.5"/>
  </g>
  <g id="arrowDown" transform="rotate(180) translate(-30 -48)">
    <use xlink:href="#rim"/>
    <path pointer-events="none" fill="none" stroke="white" stroke-width="1.5" d="M0,-3.0v7 M-2.5,-0.5L0,-3.0L2.5,-0.5"/>
  </g>
  <g id="arrowLeft" transform="rotate(270) translate(-36 17)">
    <use xlink:href="#rim"/>
    <path pointer-events="none" fill="none" stroke="white" stroke-width="1.5" d="M0,-3.0v7 M-2.5,-0.5L0,-3.0L2.5,-0.5"/>
  </g>
  <g id="resetDef">
    <use xlink:href="#rim2" fill="#404040"><set attributeName="fill" to="#808080" begin="reset.mouseover" end="reset.mouseout"/></use>
  </g>
</defs>
<script type="application/ecmascript">
var viewWidth = 820;
var viewHeight = 178;
var sectionId = 'dynsection-1';
</script>
<script type="application/ecmascript" xlink:href="svg.min.js"/>
<svg id="graph" class="graph">
<g id="viewport">
<title>examples.kepler.kepler._mean2eccentric</title>
<!-- Node1 -->
<g id="Node000001" class="node">
<title>Node1</title>
<g id="a_Node000001"><a xlink:title=" ">
<polygon fill="#999999" stroke="#666666" points="811.75,-98 692.25,-98 692.25,-66 811.75,-66 811.75,-98"/>
<text text-anchor="start" x="700.25" y="-84.5" font-family="Helvetica,sans-Serif" font-size="10.00">examples.kepler.kepler.</text>
<text text-anchor="middle" x="752" y="-72.5" font-family="Helvetica,sans-Serif" font-size="10.00">_mean2eccentric</text>
</a>
</g>
</g>
<!-- Node2 -->
<g id="Node000002" class="node">
<title>Node2</title>
<g id="a_Node000002"><a xlink:href="namespaceexamples_1_1kepler_1_1kepler.html#a1f0348588f88a7cbbef1b87d189a8673" target="_top" xlink:title=" ">
<polygon fill="white" stroke="#666666" points="626.25,-170 467,-170 467,-138 626.25,-138 626.25,-170"/>
<text text-anchor="start" x="475" y="-156.5" font-family="Helvetica,sans-Serif" font-size="10.00">examples.kepler.kepler.eccentric</text>
<text text-anchor="middle" x="546.62" y="-144.5" font-family="Helvetica,sans-Serif" font-size="10.00">_anomaly</text>
</a>
</g>
</g>
<!-- Node1&#45;&gt;Node2 -->
<g id="edge1_Node000001_Node000002" class="edge">
<title>Node1&#45;&gt;Node2</title>
<g id="a_edge1_Node000001_Node000002"><a xlink:title=" ">
<path fill="none" stroke="#63b8ff" d="M712.32,-103.76C695.49,-112.54 675.29,-122.19 656.25,-129 646.77,-132.39 636.67,-135.43 626.57,-138.13"/>
<polygon fill="#63b8ff" stroke="#63b8ff" points="713.81,-106.93 720.99,-99.14 710.52,-100.75 713.81,-106.93"/>
</a>
</g>
</g>
<!-- Node3 -->
<g id="Node000003" class="node">
<title>Node3</title>
<g id="a_Node000003"><a xlink:href="namespaceexamples_1_1kepler_1_1kepler.html#acd2ed415248c15d823c283bd3e067fb0" target="_top" xlink:title=" ">
<polygon fill="white" stroke="#666666" points="613.12,-120 480.12,-120 480.12,-88 613.12,-88 613.12,-120"/>
<text text-anchor="start" x="488.12" y="-106.5" font-family="Helvetica,sans-Serif" font-size="10.00">examples.kepler.kepler.get</text>
<text text-anchor="middle" x="546.62" y="-94.5" font-family="Helvetica,sans-Serif" font-size="10.00">_kepler</text>
</a>
</g>
</g>
<!-- Node1&#45;&gt;Node3 -->
<g id="edge2_Node000001_Node000003" class="edge">
<title>Node1&#45;&gt;Node3</title>
<g id="a_edge2_Node000001_Node000003"><a xlink:title=" ">
<path fill="none" stroke="#63b8ff" d="M680.69,-89.61C658.83,-91.97 634.82,-94.57 613.29,-96.9"/>
<polygon fill="#63b8ff" stroke="#63b8ff" points="680.83,-93.11 690.4,-88.56 680.08,-86.15 680.83,-93.11"/>
</a>
</g>
</g>
<!-- Node4 -->
<g id="Node000004" class="node">
<title>Node4</title>
<g id="a_Node000004"><a xlink:href="classexamples_1_1kepler_1_1kepler_1_1_kepler.html#a30c2309d5290666bb3aaa6e85b2dc5f7" target="_top" xlink:title=" ">
<polygon fill="white" stroke="#666666" points="656.25,-70 437,-70 437,-50 656.25,-50 656.25,-70"/>
<text text-anchor="middle" x="546.62" y="-56.5" font-family="Helvetica,sans-Serif" font-size="10.00">examples.kepler.kepler.Kepler.mean2eccentric</text>
</a>
</g>
</g>
<!-- Node1&#45;&gt;Node4 -->
<g id="edge3_Node000001_Node000004" class="edge">
<title>Node1&#45;&gt;Node4</title>
<g id="a_edge3_Node000001_Node000004"><a xlink:title=" ">
<path fill="none" stroke="#63b8ff" d="M680.48,-74.37C668.83,-73.11 656.57,-71.79 644.41,-70.47"/>
<polygon fill="#63b8ff" stroke="#63b8ff" points="680.08,-77.85 690.4,-75.44 680.83,-70.89 680.08,-77.85"/>
</a>
</g>
</g>
<!-- Node7 -->
<g id="Node000007" class="node">
<title>Node7</title>
<g id="a_Node000007"><a xlink:href="classexamples_1_1kepler_1_1kepler_1_1_kepler.html#a4fbe50a434e7f2312059e3477ba13ca7" target="_top" xlink:title=" ">
<polygon fill="white" stroke="#666666" points="643.12,-32 450.12,-32 450.12,0 643.12,0 643.12,-32"/>
<text text-anchor="start" x="458.12" y="-18.5" font-family="Helvetica,sans-Serif" font-size="10.00">examples.kepler.kepler.Kepler.propagate</text>
<text text-anchor="middle" x="546.62" y="-6.5" font-family="Helvetica,sans-Serif" font-size="10.00">_kepler</text>
</a>
</g>
</g>
<!-- Node1&#45;&gt;Node7 -->
<g id="edge6_Node000001_Node000007" class="edge">
<title>Node1&#45;&gt;Node7</title>
<g id="a_edge6_Node000001_Node000007"><a xlink:title=" ">
<path fill="none" stroke="#63b8ff" d="M706.88,-60.93C691.14,-53.94 673.13,-46.54 656.25,-41 646.87,-37.92 636.92,-35.08 627,-32.5"/>
<polygon fill="#63b8ff" stroke="#63b8ff" points="705.44,-64.11 715.99,-65.04 708.32,-57.74 705.44,-64.11"/>
</a>
</g>
</g>
<!-- Node5 -->
<g id="Node000005" class="node">
<title>Node5</title>
<g id="a_Node000005"><a xlink:href="classexamples_1_1kepler_1_1kepler_1_1_kepler.html#a8e781852385072982573e3d584e6e7bd" target="_top" xlink:title=" ">
<polygon fill="white" stroke="#666666" points="389,-76 225.25,-76 225.25,-44 389,-44 389,-76"/>
<text text-anchor="start" x="233.25" y="-62.5" font-family="Helvetica,sans-Serif" font-size="10.00">examples.kepler.kepler.Kepler.get</text>
<text text-anchor="middle" x="307.12" y="-50.5" font-family="Helvetica,sans-Serif" font-size="10.00">EccentricAnomaly</text>
</a>
</g>
</g>
<!-- Node4&#45;&gt;Node5 -->
<g id="edge4_Node000004_Node000005" class="edge">
<title>Node4&#45;&gt;Node5</title>
<g id="a_edge4_Node000004_Node000005"><a xlink:title=" ">
<path fill="none" stroke="#63b8ff" d="M425.44,-60C413.26,-60 401.11,-60 389.49,-60"/>
<polygon fill="#63b8ff" stroke="#63b8ff" points="425.09,-63.5 435.09,-60 425.09,-56.5 425.09,-63.5"/>
</a>
</g>
</g>
<!-- Node6 -->
<g id="Node000006" class="node">
<title>Node6</title>
<g id="a_Node000006"><a xlink:href="classexamples_1_1kepler_1_1kepler_1_1_kepler.html#aebb73077f8510f43f7dc943d1b4f16be" target="_top" xlink:title=" ">
<polygon fill="white" stroke="#666666" points="177.25,-70 0,-70 0,-50 177.25,-50 177.25,-70"/>
<text text-anchor="middle" x="88.62" y="-56.5" font-family="Helvetica,sans-Serif" font-size="10.00">examples.kepler.kepler.Kepler.setM0</text>
</a>
</g>
</g>
<!-- Node5&#45;&gt;Node6 -->
<g id="edge5_Node000005_Node000006" class="edge">
<title>Node5&#45;&gt;Node6</title>
<g id="a_edge5_Node000005_Node000006"><a xlink:title=" ">
<path fill="none" stroke="#63b8ff" d="M213.53,-60C201.57,-60 189.35,-60 177.48,-60"/>
<polygon fill="#63b8ff" stroke="#63b8ff" points="213.38,-63.5 223.38,-60 213.38,-56.5 213.38,-63.5"/>
</a>
</g>
</g>
<!-- Node8 -->
<g id="Node000008" class="node">
<title>Node8</title>
<g id="a_Node000008"><a xlink:href="classexamples_1_1kepler_1_1kepler_1_1_kepler.html#acd6a5c8bf0fcffed8257e59351144296" target="_top" xlink:title=" ">
<polygon fill="white" stroke="#666666" points="401,-26 213.25,-26 213.25,-6 401,-6 401,-26"/>
<text text-anchor="middle" x="307.12" y="-12.5" font-family="Helvetica,sans-Serif" font-size="10.00">examples.kepler.kepler.Kepler.set_time</text>
</a>
</g>
</g>
<!-- Node7&#45;&gt;Node8 -->
<g id="edge7_Node000007_Node000008" class="edge">
<title>Node7&#45;&gt;Node8</title>
<g id="a_edge7_Node000007_Node000008"><a xlink:title=" ">
<path fill="none" stroke="#63b8ff" d="M438.41,-16C426.03,-16 413.48,-16 401.31,-16"/>
<polygon fill="#63b8ff" stroke="#63b8ff" points="438.2,-19.5 448.2,-16 438.2,-12.5 438.2,-19.5"/>
</a>
</g>
</g>
</g>
</svg>

<g id="navigator" transform="translate(0 0)" fill="#404254">
  <rect fill="#f2f5e9" fill-opacity="0.5" stroke="#606060" stroke-width=".5" x="0" y="0" width="60" height="60"/>
  <use id="zoomplus" xlink:href="#zoomPlus" x="17" y="9" onmousedown="handleZoom(evt,'in')"/>
  <use id="zoomminus" xlink:href="#zoomMin" x="42" y="9" onmousedown="handleZoom(evt,'out')"/>
  <use id="reset" xlink:href="#resetDef" x="30" y="36" onmousedown="handleReset()"/>
   <use id="arrowup" xlink:href="#arrowUp" x="0" y="0" onmousedown="handlePan(0,-1)"/>
  <use id="arrowright" xlink:href="#arrowRight" x="0" y="0" onmousedown="handlePan(1,0)"/>
  <use id="arrowdown" xlink:href="#arrowDown" x="0" y="0" onmousedown="handlePan(0,1)"/>
  <use id="arrowleft" xlink:href="#arrowLeft" x="0" y="0" onmousedown="handlePan(-1,0)"/>
</g>
<svg viewBox="0 0 15 15" width="100%" height="30px" preserveAspectRatio="xMaxYMin meet">
 <g id="arrow_out" transform="scale(0.3 0.3)">
  <a xlink:href="namespaceexamples_1_1kepler_1_1kepler_a1e36aa5defd99e317d30a5db994a0576_icgraph_org.svg" target="_base">
   <rect id="button" ry="5" rx="5" y="6" x="6" height="38" width="38"
        fill="#f2f5e9" fill-opacity="0.5" stroke="#606060" stroke-width="1.0"/>
   <path id="arrow"
     d="M 11.500037,31.436501 C 11.940474,20.09759 22.043105,11.32322 32.158766,21.979434 L 37.068811,17.246167 C 37.068811,17.246167 37.088388,32 37.088388,32 L 22.160133,31.978069 C 22.160133,31.978069 26.997745,27.140456 26.997745,27.140456 C 18.528582,18.264221 13.291696,25.230495 11.500037,31.436501 z"
     style="fill:#404040;"/>
  </a>
 </g>
</svg>

<style type='text/css'>
<![CDATA[
[data-mouse-over-selected='false'] { opacity: 0.7; }
[data-mouse-over-selected='true']  { opacity: 1.0; }
]]>
</style>
<script type="application/ecmascript"><![CDATA[
document.addEventListener('DOMContentLoaded', (event) => {
  highlightEdges();
  highlightAdjacentNodes();
});
]]></script>
</svg>
