<?xml version="1.0" encoding="UTF-8" standalone="no"?>
<!DOCTYPE svg PUBLIC "-//W3C//DTD SVG 1.1//EN"
 "http://www.w3.org/Graphics/SVG/1.1/DTD/svg11.dtd">
<!-- Generated by graphviz version 12.2.1 (20241206.2353)
 -->
<!-- Title: predict.find_other_model Pages: 1 -->
<svg width="359pt" height="58pt"
 viewBox="0.00 0.00 359.00 58.00" xmlns="http://www.w3.org/2000/svg" xmlns:xlink="http://www.w3.org/1999/xlink">
<g id="graph0" class="graph" transform="scale(1 1) rotate(0) translate(4 54)">
<title>predict.find_other_model</title>
<!-- Node1 -->
<g id="Node000001" class="node">
<title>Node1</title>
<g id="a_Node000001"><a xlink:title=" ">
<polygon fill="#999999" stroke="#666666" points="351,-32 260,-32 260,0 351,0 351,-32"/>
<text text-anchor="start" x="268" y="-18.5" font-family="Helvetica,sans-Serif" font-size="10.00">predict.find_other</text>
<text text-anchor="middle" x="305.5" y="-6.5" font-family="Helvetica,sans-Serif" font-size="10.00">_model</text>
</a>
</g>
</g>
<!-- Node2 -->
<g id="Node000002" class="node">
<title>Node2</title>
<g id="a_Node000002"><a xlink:href="namespacepredict.html#ad246ba8a830fe9fd72e974cf6daeaff8" target="_top" xlink:title=" ">
<polygon fill="white" stroke="#666666" points="224,-32 130,-32 130,0 224,0 224,-32"/>
<text text-anchor="start" x="138" y="-18.5" font-family="Helvetica,sans-Serif" font-size="10.00">predict.test_harris</text>
<text text-anchor="middle" x="177" y="-6.5" font-family="Helvetica,sans-Serif" font-size="10.00">_prediciton</text>
</a>
</g>
</g>
<!-- Node1&#45;&gt;Node2 -->
<g id="edge1_Node000001_Node000002" class="edge">
<title>Node1&#45;&gt;Node2</title>
<g id="a_edge1_Node000001_Node000002"><a xlink:title=" ">
<path fill="none" stroke="#63b8ff" d="M248.27,-16C240.19,-16 231.95,-16 224.09,-16"/>
<polygon fill="#63b8ff" stroke="#63b8ff" points="248.03,-19.5 258.03,-16 248.03,-12.5 248.03,-19.5"/>
</a>
</g>
</g>
<!-- Node3 -->
<g id="Node000003" class="node">
<title>Node3</title>
<g id="a_Node000003"><a xlink:href="namespacepredict.html#a3a578b72e4180dffe78dd9382cb34426" target="_top" xlink:title=" ">
<polygon fill="white" stroke="#666666" points="94,-32 0,-32 0,0 94,0 94,-32"/>
<text text-anchor="start" x="8" y="-18.5" font-family="Helvetica,sans-Serif" font-size="10.00">predict.test_harris</text>
<text text-anchor="middle" x="47" y="-6.5" font-family="Helvetica,sans-Serif" font-size="10.00">_estimate_eps</text>
</a>
</g>
</g>
<!-- Node2&#45;&gt;Node3 -->
<g id="edge2_Node000002_Node000003" class="edge">
<title>Node2&#45;&gt;Node3</title>
<g id="a_edge2_Node000002_Node000003"><a xlink:title=" ">
<path fill="none" stroke="#63b8ff" d="M118.44,-16C110.3,-16 102.03,-16 94.14,-16"/>
<polygon fill="#63b8ff" stroke="#63b8ff" points="118.28,-19.5 128.28,-16 118.28,-12.5 118.28,-19.5"/>
</a>
</g>
</g>
<!-- Node3&#45;&gt;Node3 -->
<g id="edge3_Node000003_Node000003" class="edge">
<title>Node3&#45;&gt;Node3</title>
<g id="a_edge3_Node000003_Node000003"><a xlink:title=" ">
<path fill="none" stroke="#63b8ff" d="M68.66,-43.71C65.05,-47.48 57.83,-50 47,-50 27.2,-50 19.46,-41.58 23.79,-32.44"/>
<polygon fill="#63b8ff" stroke="#63b8ff" points="72.11,-44.33 70,-33.94 65.18,-43.37 72.11,-44.33"/>
</a>
</g>
</g>
</g>
</svg>
