<?xml version="1.0" encoding="UTF-8" standalone="no"?>
<!DOCTYPE svg PUBLIC "-//W3C//DTD SVG 1.1//EN"
 "http://www.w3.org/Graphics/SVG/1.1/DTD/svg11.dtd">
<!-- Generated by graphviz version 12.2.1 (20241206.2353)
 -->
<!-- Title: examples.scheduling.select Pages: 1 -->
<svg width="556pt" height="140pt"
 viewBox="0.00 0.00 555.50 140.00" xmlns="http://www.w3.org/2000/svg" xmlns:xlink="http://www.w3.org/1999/xlink">
<g id="graph0" class="graph" transform="scale(1 1) rotate(0) translate(4 136)">
<title>examples.scheduling.select</title>
<!-- Node1 -->
<g id="Node000001" class="node">
<title>Node1</title>
<g id="a_Node000001"><a xlink:title=" ">
<polygon fill="#999999" stroke="#666666" points="547.5,-67 410.75,-67 410.75,-47 547.5,-47 547.5,-67"/>
<text text-anchor="middle" x="479.12" y="-53.5" font-family="Helvetica,sans-Serif" font-size="10.00">examples.scheduling.select</text>
</a>
</g>
</g>
<!-- Node2 -->
<g id="Node000002" class="node">
<title>Node2</title>
<g id="a_Node000002"><a xlink:href="classexamples_1_1scheduling_1_1fitness.html#a4eff7a725e23a7148b932307532f6542" target="_top" xlink:title=" ">
<polygon fill="white" stroke="#666666" points="157.38,-132 14.62,-132 14.62,-100 157.38,-100 157.38,-132"/>
<text text-anchor="start" x="22.62" y="-118.5" font-family="Helvetica,sans-Serif" font-size="10.00">examples.scheduling.fitness.</text>
<text text-anchor="middle" x="86" y="-106.5" font-family="Helvetica,sans-Serif" font-size="10.00">__call__</text>
</a>
</g>
</g>
<!-- Node1&#45;&gt;Node2 -->
<g id="edge1_Node000001_Node000002" class="edge">
<title>Node1&#45;&gt;Node2</title>
<g id="a_edge1_Node000001_Node000002"><a xlink:title=" ">
<path fill="none" stroke="#63b8ff" d="M455.1,-73.75C435.01,-87.28 404.5,-105.29 374.75,-113 302.57,-131.7 216.75,-129.61 157.72,-124.62"/>
<polygon fill="#63b8ff" stroke="#63b8ff" points="456.87,-76.79 463.09,-68.21 452.88,-71.03 456.87,-76.79"/>
</a>
</g>
</g>
<!-- Node3 -->
<g id="Node000003" class="node">
<title>Node3</title>
<g id="a_Node000003"><a xlink:href="classexamples_1_1scheduling_1_1fitness.html#a8d58e9d7e95ceb929858cdc06b0eda47" target="_top" xlink:title=" ">
<polygon fill="white" stroke="#666666" points="164.12,-67 7.88,-67 7.88,-47 164.12,-47 164.12,-67"/>
<text text-anchor="middle" x="86" y="-53.5" font-family="Helvetica,sans-Serif" font-size="10.00">examples.scheduling.fitness.fun</text>
</a>
</g>
</g>
<!-- Node1&#45;&gt;Node3 -->
<g id="edge2_Node000001_Node000003" class="edge">
<title>Node1&#45;&gt;Node3</title>
<g id="a_edge2_Node000001_Node000003"><a xlink:title=" ">
<path fill="none" stroke="#63b8ff" d="M399.32,-57C330.96,-57 232.58,-57 164.59,-57"/>
<polygon fill="#63b8ff" stroke="#63b8ff" points="398.93,-60.5 408.93,-57 398.93,-53.5 398.93,-60.5"/>
</a>
</g>
</g>
<!-- Node4 -->
<g id="Node000004" class="node">
<title>Node4</title>
<g id="a_Node000004"><a xlink:href="classexamples_1_1scheduling_1_1fitness.html#a713c154b74b96a06274438bae71e2419" target="_top" xlink:title=" ">
<polygon fill="white" stroke="#666666" points="172,-20 0,-20 0,0 172,0 172,-20"/>
<text text-anchor="middle" x="86" y="-6.5" font-family="Helvetica,sans-Serif" font-size="10.00">examples.scheduling.fitness.qd_fun</text>
</a>
</g>
</g>
<!-- Node1&#45;&gt;Node4 -->
<g id="edge3_Node000001_Node000004" class="edge">
<title>Node1&#45;&gt;Node4</title>
<g id="a_edge3_Node000001_Node000004"><a xlink:title=" ">
<path fill="none" stroke="#63b8ff" d="M399.31,-47.53C333.49,-39.62 239.84,-28.37 172.28,-20.25"/>
<polygon fill="#63b8ff" stroke="#63b8ff" points="398.59,-50.97 408.94,-48.69 399.43,-44.02 398.59,-50.97"/>
</a>
</g>
</g>
<!-- Node5 -->
<g id="Node000005" class="node">
<title>Node5</title>
<g id="a_Node000005"><a xlink:href="classexamples_1_1scheduling_1_1fitness.html#a0dcc50199c64159aae9a5a89326d1cc6" target="_top" xlink:title=" ">
<polygon fill="white" stroke="#666666" points="374.75,-86 208,-86 208,-66 374.75,-66 374.75,-86"/>
<text text-anchor="middle" x="291.38" y="-72.5" font-family="Helvetica,sans-Serif" font-size="10.00">examples.scheduling.fitness.score</text>
</a>
</g>
</g>
<!-- Node1&#45;&gt;Node5 -->
<g id="edge4_Node000001_Node000005" class="edge">
<title>Node1&#45;&gt;Node5</title>
<g id="a_edge4_Node000001_Node000005"><a xlink:title=" ">
<path fill="none" stroke="#63b8ff" d="M398.91,-65.1C391.06,-65.91 383.08,-66.72 375.21,-67.53"/>
<polygon fill="#63b8ff" stroke="#63b8ff" points="399.18,-68.59 408.77,-64.09 398.47,-61.63 399.18,-68.59"/>
</a>
</g>
</g>
<!-- Node5&#45;&gt;Node2 -->
<g id="edge5_Node000005_Node000002" class="edge">
<title>Node5&#45;&gt;Node2</title>
<g id="a_edge5_Node000005_Node000002"><a xlink:title=" ">
<path fill="none" stroke="#63b8ff" d="M226.12,-88.64C204.4,-92.91 180.04,-97.7 157.85,-102.07"/>
<polygon fill="#63b8ff" stroke="#63b8ff" points="226.58,-92.11 235.72,-86.75 225.23,-85.25 226.58,-92.11"/>
</a>
</g>
</g>
<!-- Node5&#45;&gt;Node3 -->
<g id="edge6_Node000005_Node000003" class="edge">
<title>Node5&#45;&gt;Node3</title>
<g id="a_edge6_Node000005_Node000003"><a xlink:title=" ">
<path fill="none" stroke="#63b8ff" d="M196.51,-67.23C185.76,-66.23 174.9,-65.21 164.39,-64.23"/>
<polygon fill="#63b8ff" stroke="#63b8ff" points="195.87,-70.69 206.15,-68.13 196.52,-63.72 195.87,-70.69"/>
</a>
</g>
</g>
<!-- Node5&#45;&gt;Node4 -->
<g id="edge7_Node000005_Node000004" class="edge">
<title>Node5&#45;&gt;Node4</title>
<g id="a_edge7_Node000005_Node000004"><a xlink:title=" ">
<path fill="none" stroke="#63b8ff" d="M247.32,-62.03C208.95,-49.58 153.67,-31.64 119.07,-20.41"/>
<polygon fill="#63b8ff" stroke="#63b8ff" points="246.12,-65.32 256.71,-65.07 248.28,-58.66 246.12,-65.32"/>
</a>
</g>
</g>
<!-- Node5&#45;&gt;Node5 -->
<g id="edge8_Node000005_Node000005" class="edge">
<title>Node5&#45;&gt;Node5</title>
<g id="a_edge8_Node000005_Node000005"><a xlink:title=" ">
<path fill="none" stroke="#63b8ff" d="M324.91,-97.11C320.91,-101.14 309.73,-104 291.38,-104 258.74,-104 248.79,-94.98 261.54,-86.34"/>
<polygon fill="#63b8ff" stroke="#63b8ff" points="328.26,-96.09 321.7,-87.77 321.64,-98.36 328.26,-96.09"/>
</a>
</g>
</g>
</g>
</svg>
