<?xml version="1.0" encoding="UTF-8" standalone="no"?>
<!DOCTYPE svg PUBLIC "-//W3C//DTD SVG 1.1//EN"
 "http://www.w3.org/Graphics/SVG/1.1/DTD/svg11.dtd">
<!-- Generated by graphviz version 12.2.1 (20241206.2353)
 -->
<!-- Title: examples.harvesting.optall Pages: 1 -->
<svg width="487pt" height="40pt"
 viewBox="0.00 0.00 486.50 40.00" xmlns="http://www.w3.org/2000/svg" xmlns:xlink="http://www.w3.org/1999/xlink">
<g id="graph0" class="graph" transform="scale(1 1) rotate(0) translate(4 36)">
<title>examples.harvesting.optall</title>
<!-- Node1 -->
<g id="Node000001" class="node">
<title>Node1</title>
<g id="a_Node000001"><a xlink:title=" ">
<polygon fill="#999999" stroke="#666666" points="132.25,-26 0,-26 0,-6 132.25,-6 132.25,-26"/>
<text text-anchor="middle" x="66.12" y="-12.5" font-family="Helvetica,sans-Serif" font-size="10.00">examples.harvesting.optall</text>
</a>
</g>
</g>
<!-- Node2 -->
<g id="Node000002" class="node">
<title>Node2</title>
<g id="a_Node000002"><a xlink:href="namespaceexamples_1_1harvesting.html#a12ed3a155bf3c4c55dcfa7935b5d5b90" target="_top" xlink:title=" ">
<polygon fill="white" stroke="#666666" points="314,-26 168.25,-26 168.25,-6 314,-6 314,-26"/>
<text text-anchor="middle" x="241.12" y="-12.5" font-family="Helvetica,sans-Serif" font-size="10.00">examples.harvesting.optimize</text>
</a>
</g>
</g>
<!-- Node1&#45;&gt;Node2 -->
<g id="edge1_Node000001_Node000002" class="edge">
<title>Node1&#45;&gt;Node2</title>
<g id="a_edge1_Node000001_Node000002"><a xlink:title=" ">
<path fill="none" stroke="#63b8ff" d="M132.53,-16C140.4,-16 148.52,-16 156.6,-16"/>
<polygon fill="#63b8ff" stroke="#63b8ff" points="156.46,-19.5 166.46,-16 156.46,-12.5 156.46,-19.5"/>
</a>
</g>
</g>
<!-- Node3 -->
<g id="Node000003" class="node">
<title>Node3</title>
<g id="a_Node000003"><a xlink:href="namespaceexamples_1_1harvesting.html#abe8c6e1997927ab3f18d66329f8e3ff9" target="_top" xlink:title=" ">
<polygon fill="white" stroke="#666666" points="478.5,-32 350,-32 350,0 478.5,0 478.5,-32"/>
<text text-anchor="start" x="358" y="-18.5" font-family="Helvetica,sans-Serif" font-size="10.00">examples.harvesting.retry</text>
<text text-anchor="middle" x="414.25" y="-6.5" font-family="Helvetica,sans-Serif" font-size="10.00">_modecpp</text>
</a>
</g>
</g>
<!-- Node2&#45;&gt;Node3 -->
<g id="edge2_Node000002_Node000003" class="edge">
<title>Node2&#45;&gt;Node3</title>
<g id="a_edge2_Node000002_Node000003"><a xlink:title=" ">
<path fill="none" stroke="#63b8ff" d="M314.2,-16C322.21,-16 330.38,-16 338.42,-16"/>
<polygon fill="#63b8ff" stroke="#63b8ff" points="338.16,-19.5 348.16,-16 338.16,-12.5 338.16,-19.5"/>
</a>
</g>
</g>
</g>
</svg>
