<?xml version="1.0" encoding="UTF-8" standalone="no"?>
<!DOCTYPE svg PUBLIC "-//W3C//DTD SVG 1.1//EN"
 "http://www.w3.org/Graphics/SVG/1.1/DTD/svg11.dtd">
<!-- Generated by graphviz version 12.2.1 (20241206.2353)
 -->
<!-- Title: examples.tdesign.optimize_weighted Pages: 1 -->
<!--zoomable 240 -->

<svg id="main" version="1.1" xmlns="http://www.w3.org/2000/svg" xmlns:xlink="http://www.w3.org/1999/xlink" xml:space="preserve" onload="init(evt)">

<style type="text/css"><![CDATA[
.node, .edge {opacity: 0.7;}
.node.selected, .edge.selected {opacity: 1;}
.edge:hover path { stroke: red; }
.edge:hover polygon { stroke: red; fill: red; }
]]></style>

<defs>
  <circle id="rim" cx="0" cy="0" r="7"/>
  <circle id="rim2" cx="0" cy="0" r="3.5"/>
  <g id="zoomPlus">
    <use xlink:href="#rim" fill="#404040"><set attributeName="fill" to="#808080" begin="zoomplus.mouseover" end="zoomplus.mouseout"/></use>
    <path d="M-4,0h8M0,-4v8" fill="none" stroke="white" stroke-width="1.5" pointer-events="none"/>
  </g>
  <g id="zoomMin">
    <use xlink:href="#rim" fill="#404040"><set attributeName="fill" to="#808080" begin="zoomminus.mouseover" end="zoomminus.mouseout"/></use>
    <path d="M-4,0h8" fill="none" stroke="white" stroke-width="1.5" pointer-events="none"/>
  </g>
  <g id="arrowUp" transform="translate(30 24)">
    <use xlink:href="#rim"/>
    <path pointer-events="none" fill="none" stroke="white" stroke-width="1.5" d="M0,-3.0v7 M-2.5,-0.5L0,-3.0L2.5,-0.5"/>
  </g>
  <g id="arrowRight" transform="rotate(90) translate(36 -43)">
    <use xlink:href="#rim"/>
    <path pointer-events="none" fill="none" stroke="white" stroke-width="1.5" d="M0,-3.0v7 M-2.5,-0.5L0,-3.0L2.5,-0.5"/>
  </g>
  <g id="arrowDown" transform="rotate(180) translate(-30 -48)">
    <use xlink:href="#rim"/>
    <path pointer-events="none" fill="none" stroke="white" stroke-width="1.5" d="M0,-3.0v7 M-2.5,-0.5L0,-3.0L2.5,-0.5"/>
  </g>
  <g id="arrowLeft" transform="rotate(270) translate(-36 17)">
    <use xlink:href="#rim"/>
    <path pointer-events="none" fill="none" stroke="white" stroke-width="1.5" d="M0,-3.0v7 M-2.5,-0.5L0,-3.0L2.5,-0.5"/>
  </g>
  <g id="resetDef">
    <use xlink:href="#rim2" fill="#404040"><set attributeName="fill" to="#808080" begin="reset.mouseover" end="reset.mouseout"/></use>
  </g>
</defs>
<script type="application/ecmascript">
var viewWidth = 835;
var viewHeight = 240;
var sectionId = 'dynsection-3';
</script>
<script type="application/ecmascript" xlink:href="svg.min.js"/>
<svg id="graph" class="graph">
<g id="viewport">
<title>examples.tdesign.optimize_weighted</title>
<!-- Node1 -->
<g id="Node000001" class="node">
<title>Node1</title>
<g id="a_Node000001"><a xlink:title=" ">
<polygon fill="#999999" stroke="#666666" points="132.25,-132 0,-132 0,-100 132.25,-100 132.25,-132"/>
<text text-anchor="start" x="8" y="-118.5" font-family="Helvetica,sans-Serif" font-size="10.00">examples.tdesign.optimize</text>
<text text-anchor="middle" x="66.12" y="-106.5" font-family="Helvetica,sans-Serif" font-size="10.00">_weighted</text>
</a>
</g>
</g>
<!-- Node2 -->
<g id="Node000002" class="node">
<title>Node2</title>
<g id="a_Node000002"><a xlink:href="namespaceexamples_1_1tdesign.html#a43d97e938ee2c3ec0a2d6436fbb3b844" target="_top" xlink:title=" ">
<polygon fill="white" stroke="#666666" points="303.5,-232 168.25,-232 168.25,-200 303.5,-200 303.5,-232"/>
<text text-anchor="start" x="176.25" y="-218.5" font-family="Helvetica,sans-Serif" font-size="10.00">examples.tdesign.cartesian</text>
<text text-anchor="middle" x="235.88" y="-206.5" font-family="Helvetica,sans-Serif" font-size="10.00">_to_spherical</text>
</a>
</g>
</g>
<!-- Node1&#45;&gt;Node2 -->
<g id="edge1_Node000001_Node000002" class="edge">
<title>Node1&#45;&gt;Node2</title>
<g id="a_edge1_Node000001_Node000002"><a xlink:title=" ">
<path fill="none" stroke="#63b8ff" d="M85.8,-132.37C105.31,-148.85 137.34,-174.17 168.25,-191 170.72,-192.34 173.27,-193.65 175.88,-194.9"/>
<polygon fill="#63b8ff" stroke="#63b8ff" points="174.19,-197.98 184.75,-198.9 177.07,-191.6 174.19,-197.98"/>
</a>
</g>
</g>
<!-- Node3 -->
<g id="Node000003" class="node">
<title>Node3</title>
<g id="a_Node000003"><a xlink:href="namespaceexamples_1_1tdesign.html#a12b99ff43b5f26ff93cf1e70d10bd3e2" target="_top" xlink:title=" ">
<polygon fill="white" stroke="#666666" points="303.12,-182 168.62,-182 168.62,-150 303.12,-150 303.12,-182"/>
<text text-anchor="start" x="176.62" y="-168.5" font-family="Helvetica,sans-Serif" font-size="10.00">examples.tdesign.fibonacci</text>
<text text-anchor="middle" x="235.88" y="-156.5" font-family="Helvetica,sans-Serif" font-size="10.00">_sphere</text>
</a>
</g>
</g>
<!-- Node1&#45;&gt;Node3 -->
<g id="edge2_Node000001_Node000003" class="edge">
<title>Node1&#45;&gt;Node3</title>
<g id="a_edge2_Node000001_Node000003"><a xlink:title=" ">
<path fill="none" stroke="#63b8ff" d="M122.05,-132.37C136.89,-136.8 153.11,-141.63 168.5,-146.22"/>
<polygon fill="#63b8ff" stroke="#63b8ff" points="167.5,-149.57 178.09,-149.07 169.5,-142.86 167.5,-149.57"/>
</a>
</g>
</g>
<!-- Node4 -->
<g id="Node000004" class="node">
<title>Node4</title>
<g id="a_Node000004"><a xlink:href="namespaceexamples_1_1tdesign.html#a8357e675a25643e47dc42c4957e28147" target="_top" xlink:title=" ">
<polygon fill="white" stroke="#666666" points="285.12,-132 186.62,-132 186.62,-100 285.12,-100 285.12,-132"/>
<text text-anchor="start" x="194.62" y="-118.5" font-family="Helvetica,sans-Serif" font-size="10.00">examples.tdesign.t</text>
<text text-anchor="middle" x="235.88" y="-106.5" font-family="Helvetica,sans-Serif" font-size="10.00">_design_error</text>
</a>
</g>
</g>
<!-- Node1&#45;&gt;Node4 -->
<g id="edge3_Node000001_Node000004" class="edge">
<title>Node1&#45;&gt;Node4</title>
<g id="a_edge3_Node000001_Node000004"><a xlink:title=" ">
<path fill="none" stroke="#63b8ff" d="M132.46,-116C146.48,-116 161.22,-116 175.01,-116"/>
<polygon fill="#63b8ff" stroke="#63b8ff" points="174.83,-119.5 184.83,-116 174.83,-112.5 174.83,-119.5"/>
</a>
</g>
</g>
<!-- Node10 -->
<g id="Node000010" class="node">
<title>Node10</title>
<g id="a_Node000010"><a xlink:href="namespaceexamples_1_1tdesign.html#ae536e1afa6d09f1d3d8354727738b2df" target="_top" xlink:title="Visualize points on the unit sphere.">
<polygon fill="white" stroke="#666666" points="302.75,-82 169,-82 169,-50 302.75,-50 302.75,-82"/>
<text text-anchor="start" x="177" y="-68.5" font-family="Helvetica,sans-Serif" font-size="10.00">examples.tdesign.visualize</text>
<text text-anchor="middle" x="235.88" y="-56.5" font-family="Helvetica,sans-Serif" font-size="10.00">_points</text>
</a>
</g>
</g>
<!-- Node1&#45;&gt;Node10 -->
<g id="edge10_Node000001_Node000010" class="edge">
<title>Node1&#45;&gt;Node10</title>
<g id="a_edge10_Node000001_Node000010"><a xlink:title=" ">
<path fill="none" stroke="#63b8ff" d="M122.05,-99.63C136.89,-95.2 153.11,-90.37 168.5,-85.78"/>
<polygon fill="#63b8ff" stroke="#63b8ff" points="169.5,-89.14 178.09,-82.93 167.5,-82.43 169.5,-89.14"/>
</a>
</g>
</g>
<!-- Node12 -->
<g id="Node000012" class="node">
<title>Node12</title>
<g id="a_Node000012"><a xlink:href="namespaceexamples_1_1tdesign.html#a0c0d6d6a3a2a1742e8c5ecd7b244da24" target="_top" xlink:title=" ">
<polygon fill="white" stroke="#666666" points="286.25,-32 185.5,-32 185.5,0 286.25,0 286.25,-32"/>
<text text-anchor="start" x="193.5" y="-18.5" font-family="Helvetica,sans-Serif" font-size="10.00">examples.tdesign.x</text>
<text text-anchor="middle" x="235.88" y="-6.5" font-family="Helvetica,sans-Serif" font-size="10.00">_to_points</text>
</a>
</g>
</g>
<!-- Node1&#45;&gt;Node12 -->
<g id="edge14_Node000001_Node000012" class="edge">
<title>Node1&#45;&gt;Node12</title>
<g id="a_edge14_Node000001_Node000012"><a xlink:title=" ">
<path fill="none" stroke="#63b8ff" d="M85.8,-99.63C105.31,-83.15 137.34,-57.83 168.25,-41 170.72,-39.66 173.27,-38.35 175.88,-37.1"/>
<polygon fill="#63b8ff" stroke="#63b8ff" points="177.07,-40.4 184.75,-33.1 174.19,-34.02 177.07,-40.4"/>
</a>
</g>
</g>
<!-- Node5 -->
<g id="Node000005" class="node">
<title>Node5</title>
<g id="a_Node000005"><a xlink:href="namespaceexamples_1_1tdesign.html#a1cb307dfea95e59f67161218e5a0ef8e" target="_top" xlink:title="Compute a symmetry measure for a set of points.">
<polygon fill="white" stroke="#666666" points="478.5,-126 339.5,-126 339.5,-106 478.5,-106 478.5,-126"/>
<text text-anchor="middle" x="409" y="-112.5" font-family="Helvetica,sans-Serif" font-size="10.00">examples.tdesign.symmetry</text>
</a>
</g>
</g>
<!-- Node4&#45;&gt;Node5 -->
<g id="edge4_Node000004_Node000005" class="edge">
<title>Node4&#45;&gt;Node5</title>
<g id="a_edge4_Node000004_Node000005"><a xlink:title=" ">
<path fill="none" stroke="#63b8ff" d="M285.45,-116C298.63,-116 313.26,-116 327.68,-116"/>
<polygon fill="#63b8ff" stroke="#63b8ff" points="327.67,-119.5 337.67,-116 327.67,-112.5 327.67,-119.5"/>
</a>
</g>
</g>
<!-- Node6 -->
<g id="Node000006" class="node">
<title>Node6</title>
<g id="a_Node000006"><a xlink:href="namespaceexamples_1_1tdesign.html#a532ed878becc725e89bc283de0ba5352" target="_top" xlink:title="Compute fully normalized real spherical harmonics up to degree l_max using scipy.special....">
<polygon fill="white" stroke="#666666" points="813.88,-187 702.62,-187 702.62,-155 813.88,-155 813.88,-187"/>
<text text-anchor="start" x="710.62" y="-173.5" font-family="Helvetica,sans-Serif" font-size="10.00">examples.tdesign.real</text>
<text text-anchor="middle" x="758.25" y="-161.5" font-family="Helvetica,sans-Serif" font-size="10.00">_spherical_harmonics</text>
</a>
</g>
</g>
<!-- Node5&#45;&gt;Node6 -->
<g id="edge5_Node000005_Node000006" class="edge">
<title>Node5&#45;&gt;Node6</title>
<g id="a_edge5_Node000005_Node000006"><a xlink:title=" ">
<path fill="none" stroke="#63b8ff" d="M420.77,-126.31C438.56,-142.55 475.98,-173.43 514.5,-185 572.45,-202.41 641.61,-195.93 691.25,-186.86"/>
<polygon fill="#63b8ff" stroke="#63b8ff" points="691.84,-190.31 701,-184.99 690.52,-183.44 691.84,-190.31"/>
</a>
</g>
</g>
<!-- Node7 -->
<g id="Node000007" class="node">
<title>Node7</title>
<g id="a_Node000007"><a xlink:href="namespaceexamples_1_1tdesign.html#a704d0d6079500012779ad8cbd2c50d27" target="_top" xlink:title="For each degree l from 0 to l_max, compute the sum over m of the square of the (pointwise) sums of th...">
<polygon fill="white" stroke="#666666" points="653.5,-176 514.5,-176 514.5,-144 653.5,-144 653.5,-176"/>
<text text-anchor="start" x="522.5" y="-162.5" font-family="Helvetica,sans-Serif" font-size="10.00">examples.tdesign.symmetry</text>
<text text-anchor="middle" x="584" y="-150.5" font-family="Helvetica,sans-Serif" font-size="10.00">_error</text>
</a>
</g>
</g>
<!-- Node5&#45;&gt;Node7 -->
<g id="edge6_Node000005_Node000007" class="edge">
<title>Node5&#45;&gt;Node7</title>
<g id="a_edge6_Node000005_Node000007"><a xlink:title=" ">
<path fill="none" stroke="#63b8ff" d="M451,-126.43C467.87,-130.72 487.96,-135.83 507.32,-140.75"/>
<polygon fill="#63b8ff" stroke="#63b8ff" points="506.27,-144.1 516.82,-143.17 507.99,-137.31 506.27,-144.1"/>
</a>
</g>
</g>
<!-- Node8 -->
<g id="Node000008" class="node">
<title>Node8</title>
<g id="a_Node000008"><a xlink:href="namespaceexamples_1_1tdesign.html#aaf9d7a51f34d459c87a877b260d6b27d" target="_top" xlink:title=" ">
<polygon fill="white" stroke="#666666" points="651.25,-126 516.75,-126 516.75,-94 651.25,-94 651.25,-126"/>
<text text-anchor="start" x="524.75" y="-112.5" font-family="Helvetica,sans-Serif" font-size="10.00">examples.tdesign.weighted</text>
<text text-anchor="middle" x="584" y="-100.5" font-family="Helvetica,sans-Serif" font-size="10.00">_spherical_harmonics</text>
</a>
</g>
</g>
<!-- Node5&#45;&gt;Node8 -->
<g id="edge7_Node000005_Node000008" class="edge">
<title>Node5&#45;&gt;Node8</title>
<g id="a_edge7_Node000005_Node000008"><a xlink:title=" ">
<path fill="none" stroke="#63b8ff" d="M478.87,-113.61C487.45,-113.31 496.28,-113.01 504.99,-112.71"/>
<polygon fill="#63b8ff" stroke="#63b8ff" points="504.95,-116.21 514.83,-112.36 504.71,-109.21 504.95,-116.21"/>
</a>
</g>
</g>
<!-- Node8&#45;&gt;Node6 -->
<g id="edge9_Node000008_Node000006" class="edge">
<title>Node8&#45;&gt;Node6</title>
<g id="a_edge9_Node000008_Node000006"><a xlink:title=" ">
<path fill="none" stroke="#63b8ff" d="M631.16,-126.35C652.31,-133.84 677.6,-142.79 699.95,-150.71"/>
<polygon fill="#63b8ff" stroke="#63b8ff" points="698.64,-153.96 709.24,-154 700.98,-147.36 698.64,-153.96"/>
</a>
</g>
</g>
<!-- Node9 -->
<g id="Node000009" class="node">
<title>Node9</title>
<g id="a_Node000009"><a xlink:href="namespaceexamples_1_1tdesign.html#a6ca70e19dba68def099810c806a5b842" target="_top" xlink:title=" ">
<polygon fill="white" stroke="#666666" points="827,-104 689.5,-104 689.5,-72 827,-72 827,-104"/>
<text text-anchor="start" x="697.5" y="-90.5" font-family="Helvetica,sans-Serif" font-size="10.00">examples.tdesign.normalize</text>
<text text-anchor="middle" x="758.25" y="-78.5" font-family="Helvetica,sans-Serif" font-size="10.00">_weights_to_average_one</text>
</a>
</g>
</g>
<!-- Node8&#45;&gt;Node9 -->
<g id="edge8_Node000008_Node000009" class="edge">
<title>Node8&#45;&gt;Node9</title>
<g id="a_edge8_Node000008_Node000009"><a xlink:title=" ">
<path fill="none" stroke="#63b8ff" d="M651.6,-101.49C660.15,-100.4 668.98,-99.27 677.72,-98.16"/>
<polygon fill="#63b8ff" stroke="#63b8ff" points="678.15,-101.63 687.62,-96.89 677.26,-94.69 678.15,-101.63"/>
</a>
</g>
</g>
<!-- Node10&#45;&gt;Node5 -->
<g id="edge13_Node000010_Node000005" class="edge">
<title>Node10&#45;&gt;Node5</title>
<g id="a_edge13_Node000010_Node000005"><a xlink:title=" ">
<path fill="none" stroke="#63b8ff" d="M292.91,-82.37C315.05,-88.84 340.2,-96.19 361.33,-102.36"/>
<polygon fill="#63b8ff" stroke="#63b8ff" points="360.26,-105.7 370.84,-105.14 362.23,-98.98 360.26,-105.7"/>
</a>
</g>
</g>
<!-- Node10&#45;&gt;Node9 -->
<g id="edge11_Node000010_Node000009" class="edge">
<title>Node10&#45;&gt;Node9</title>
<g id="a_edge11_Node000010_Node000009"><a xlink:title=" ">
<path fill="none" stroke="#63b8ff" d="M303.04,-68.8C398.69,-72.84 575.32,-80.31 677.86,-84.64"/>
<polygon fill="#63b8ff" stroke="#63b8ff" points="677.42,-88.13 687.56,-85.05 677.72,-81.13 677.42,-88.13"/>
</a>
</g>
</g>
<!-- Node11 -->
<g id="Node000011" class="node">
<title>Node11</title>
<g id="a_Node000011"><a xlink:href="namespaceexamples_1_1tdesign.html#a55246a7f644c9b7a7ed3d05dbc4b9845" target="_top" xlink:title=" ">
<polygon fill="white" stroke="#666666" points="476.25,-38 341.75,-38 341.75,-6 476.25,-6 476.25,-38"/>
<text text-anchor="start" x="349.75" y="-24.5" font-family="Helvetica,sans-Serif" font-size="10.00">examples.tdesign.spherical</text>
<text text-anchor="middle" x="409" y="-12.5" font-family="Helvetica,sans-Serif" font-size="10.00">_to_cartesian</text>
</a>
</g>
</g>
<!-- Node10&#45;&gt;Node11 -->
<g id="edge12_Node000010_Node000011" class="edge">
<title>Node10&#45;&gt;Node11</title>
<g id="a_edge12_Node000010_Node000011"><a xlink:title=" ">
<path fill="none" stroke="#63b8ff" d="M300.6,-49.62C311.1,-46.91 322.08,-44.09 332.84,-41.33"/>
<polygon fill="#63b8ff" stroke="#63b8ff" points="333.66,-44.73 342.48,-38.85 331.92,-37.95 333.66,-44.73"/>
</a>
</g>
</g>
</g>
</svg>

<g id="navigator" transform="translate(0 0)" fill="#404254">
  <rect fill="#f2f5e9" fill-opacity="0.5" stroke="#606060" stroke-width=".5" x="0" y="0" width="60" height="60"/>
  <use id="zoomplus" xlink:href="#zoomPlus" x="17" y="9" onmousedown="handleZoom(evt,'in')"/>
  <use id="zoomminus" xlink:href="#zoomMin" x="42" y="9" onmousedown="handleZoom(evt,'out')"/>
  <use id="reset" xlink:href="#resetDef" x="30" y="36" onmousedown="handleReset()"/>
   <use id="arrowup" xlink:href="#arrowUp" x="0" y="0" onmousedown="handlePan(0,-1)"/>
  <use id="arrowright" xlink:href="#arrowRight" x="0" y="0" onmousedown="handlePan(1,0)"/>
  <use id="arrowdown" xlink:href="#arrowDown" x="0" y="0" onmousedown="handlePan(0,1)"/>
  <use id="arrowleft" xlink:href="#arrowLeft" x="0" y="0" onmousedown="handlePan(-1,0)"/>
</g>
<svg viewBox="0 0 15 15" width="100%" height="30px" preserveAspectRatio="xMaxYMin meet">
 <g id="arrow_out" transform="scale(0.3 0.3)">
  <a xlink:href="namespaceexamples_1_1tdesign_a2045c59f87224672cc3e092a27f3af23_cgraph_org.svg" target="_base">
   <rect id="button" ry="5" rx="5" y="6" x="6" height="38" width="38"
        fill="#f2f5e9" fill-opacity="0.5" stroke="#606060" stroke-width="1.0"/>
   <path id="arrow"
     d="M 11.500037,31.436501 C 11.940474,20.09759 22.043105,11.32322 32.158766,21.979434 L 37.068811,17.246167 C 37.068811,17.246167 37.088388,32 37.088388,32 L 22.160133,31.978069 C 22.160133,31.978069 26.997745,27.140456 26.997745,27.140456 C 18.528582,18.264221 13.291696,25.230495 11.500037,31.436501 z"
     style="fill:#404040;"/>
  </a>
 </g>
</svg>

<style type='text/css'>
<![CDATA[
[data-mouse-over-selected='false'] { opacity: 0.7; }
[data-mouse-over-selected='true']  { opacity: 1.0; }
]]>
</style>
<script type="application/ecmascript"><![CDATA[
document.addEventListener('DOMContentLoaded', (event) => {
  highlightEdges();
  highlightAdjacentNodes();
});
]]></script>
</svg>
