<?xml version="1.0" encoding="UTF-8" standalone="no"?>
<!DOCTYPE svg PUBLIC "-//W3C//DTD SVG 1.1//EN"
 "http://www.w3.org/Graphics/SVG/1.1/DTD/svg11.dtd">
<!-- Generated by graphviz version 12.2.1 (20241206.2353)
 -->
<!-- Title: fcmaes.evaluator._eval_parallel_segment Pages: 1 -->
<!--zoomable 90 -->

<svg id="main" version="1.1" xmlns="http://www.w3.org/2000/svg" xmlns:xlink="http://www.w3.org/1999/xlink" xml:space="preserve" onload="init(evt)">

<style type="text/css"><![CDATA[
.node, .edge {opacity: 0.7;}
.node.selected, .edge.selected {opacity: 1;}
.edge:hover path { stroke: red; }
.edge:hover polygon { stroke: red; fill: red; }
]]></style>

<defs>
  <circle id="rim" cx="0" cy="0" r="7"/>
  <circle id="rim2" cx="0" cy="0" r="3.5"/>
  <g id="zoomPlus">
    <use xlink:href="#rim" fill="#404040"><set attributeName="fill" to="#808080" begin="zoomplus.mouseover" end="zoomplus.mouseout"/></use>
    <path d="M-4,0h8M0,-4v8" fill="none" stroke="white" stroke-width="1.5" pointer-events="none"/>
  </g>
  <g id="zoomMin">
    <use xlink:href="#rim" fill="#404040"><set attributeName="fill" to="#808080" begin="zoomminus.mouseover" end="zoomminus.mouseout"/></use>
    <path d="M-4,0h8" fill="none" stroke="white" stroke-width="1.5" pointer-events="none"/>
  </g>
  <g id="arrowUp" transform="translate(30 24)">
    <use xlink:href="#rim"/>
    <path pointer-events="none" fill="none" stroke="white" stroke-width="1.5" d="M0,-3.0v7 M-2.5,-0.5L0,-3.0L2.5,-0.5"/>
  </g>
  <g id="arrowRight" transform="rotate(90) translate(36 -43)">
    <use xlink:href="#rim"/>
    <path pointer-events="none" fill="none" stroke="white" stroke-width="1.5" d="M0,-3.0v7 M-2.5,-0.5L0,-3.0L2.5,-0.5"/>
  </g>
  <g id="arrowDown" transform="rotate(180) translate(-30 -48)">
    <use xlink:href="#rim"/>
    <path pointer-events="none" fill="none" stroke="white" stroke-width="1.5" d="M0,-3.0v7 M-2.5,-0.5L0,-3.0L2.5,-0.5"/>
  </g>
  <g id="arrowLeft" transform="rotate(270) translate(-36 17)">
    <use xlink:href="#rim"/>
    <path pointer-events="none" fill="none" stroke="white" stroke-width="1.5" d="M0,-3.0v7 M-2.5,-0.5L0,-3.0L2.5,-0.5"/>
  </g>
  <g id="resetDef">
    <use xlink:href="#rim2" fill="#404040"><set attributeName="fill" to="#808080" begin="reset.mouseover" end="reset.mouseout"/></use>
  </g>
</defs>
<script type="application/ecmascript">
var viewWidth = 570;
var viewHeight = 90;
var sectionId = 'dynsection-0';
</script>
<script type="application/ecmascript" xlink:href="svg.min.js"/>
<svg id="graph" class="graph">
<g id="viewport">
<title>fcmaes.evaluator._eval_parallel_segment</title>
<!-- Node1 -->
<g id="Node000001" class="node">
<title>Node1</title>
<g id="a_Node000001"><a xlink:title="Evaluates a segment of data in parallel by sending and receiving data through a pipe.">
<polygon fill="#999999" stroke="#666666" points="562,-57 444.75,-57 444.75,-25 562,-25 562,-57"/>
<text text-anchor="start" x="452.75" y="-43.5" font-family="Helvetica,sans-Serif" font-size="10.00">fcmaes.evaluator._eval</text>
<text text-anchor="middle" x="503.38" y="-31.5" font-family="Helvetica,sans-Serif" font-size="10.00">_parallel_segment</text>
</a>
</g>
</g>
<!-- Node2 -->
<g id="Node000002" class="node">
<title>Node2</title>
<g id="a_Node000002"><a xlink:href="namespacefcmaes_1_1evaluator.html#a3f1de81bb9ebb3f1026990d51627f5e3" target="_top" xlink:title="Evaluates a set of inputs in parallel using a provided evaluator function.">
<polygon fill="white" stroke="#666666" points="408.75,-82 296.75,-82 296.75,-50 408.75,-50 408.75,-82"/>
<text text-anchor="start" x="304.75" y="-68.5" font-family="Helvetica,sans-Serif" font-size="10.00">fcmaes.evaluator.eval</text>
<text text-anchor="middle" x="352.75" y="-56.5" font-family="Helvetica,sans-Serif" font-size="10.00">_parallel</text>
</a>
</g>
</g>
<!-- Node1&#45;&gt;Node2 -->
<g id="edge1_Node000001_Node000002" class="edge">
<title>Node1&#45;&gt;Node2</title>
<g id="a_edge1_Node000001_Node000002"><a xlink:title=" ">
<path fill="none" stroke="#63b8ff" d="M433.35,-52.61C425.12,-53.99 416.8,-55.39 408.8,-56.74"/>
<polygon fill="#63b8ff" stroke="#63b8ff" points="433.71,-56.1 442.99,-50.99 432.55,-49.2 433.71,-56.1"/>
</a>
</g>
</g>
<!-- Node6 -->
<g id="Node000006" class="node">
<title>Node6</title>
<g id="a_Node000006"><a xlink:href="namespacefcmaes_1_1evaluator.html#a7fd3b71184ba68c9fc886a0da91030a1" target="_top" xlink:title="Evaluates a population of solutions in parallel for a multi&#45;objective optimization problem.">
<polygon fill="white" stroke="#666666" points="408.75,-32 296.75,-32 296.75,0 408.75,0 408.75,-32"/>
<text text-anchor="start" x="304.75" y="-18.5" font-family="Helvetica,sans-Serif" font-size="10.00">fcmaes.evaluator.eval</text>
<text text-anchor="middle" x="352.75" y="-6.5" font-family="Helvetica,sans-Serif" font-size="10.00">_parallel_mo</text>
</a>
</g>
</g>
<!-- Node1&#45;&gt;Node6 -->
<g id="edge5_Node000001_Node000006" class="edge">
<title>Node1&#45;&gt;Node6</title>
<g id="a_edge5_Node000001_Node000006"><a xlink:title=" ">
<path fill="none" stroke="#63b8ff" d="M433.35,-29.39C425.12,-28.01 416.8,-26.61 408.8,-25.26"/>
<polygon fill="#63b8ff" stroke="#63b8ff" points="432.55,-32.8 442.99,-31.01 433.71,-25.9 432.55,-32.8"/>
</a>
</g>
</g>
<!-- Node3 -->
<g id="Node000003" class="node">
<title>Node3</title>
<g id="a_Node000003"><a xlink:href="classfcmaes_1_1evaluator_1_1parallel.html#a63cfd5289e05dc71f2b53e24e268350f" target="_top" xlink:title="Evaluates the input using the provided evaluator function in parallel and returns the result.">
<polygon fill="white" stroke="#666666" points="260.75,-82 133,-82 133,-50 260.75,-50 260.75,-82"/>
<text text-anchor="start" x="141" y="-68.5" font-family="Helvetica,sans-Serif" font-size="10.00">fcmaes.evaluator.parallel.</text>
<text text-anchor="middle" x="196.88" y="-56.5" font-family="Helvetica,sans-Serif" font-size="10.00">__call__</text>
</a>
</g>
</g>
<!-- Node2&#45;&gt;Node3 -->
<g id="edge2_Node000002_Node000003" class="edge">
<title>Node2&#45;&gt;Node3</title>
<g id="a_edge2_Node000002_Node000003"><a xlink:title=" ">
<path fill="none" stroke="#63b8ff" d="M285.15,-66C277.22,-66 269.14,-66 261.25,-66"/>
<polygon fill="#63b8ff" stroke="#63b8ff" points="285.12,-69.5 295.12,-66 285.12,-62.5 285.12,-69.5"/>
</a>
</g>
</g>
<!-- Node4 -->
<g id="Node000004" class="node">
<title>Node4</title>
<g id="a_Node000004"><a xlink:href="classhbv_1_1hbv.html#a89aea998d9546dc3465bf46fbee95689" target="_top" xlink:title=" ">
<polygon fill="white" stroke="#666666" points="97,-73 0,-73 0,-53 97,-53 97,-73"/>
<text text-anchor="middle" x="48.5" y="-59.5" font-family="Helvetica,sans-Serif" font-size="10.00">hbv.hbv.qd_fitness</text>
</a>
</g>
</g>
<!-- Node3&#45;&gt;Node4 -->
<g id="edge3_Node000003_Node000004" class="edge">
<title>Node3&#45;&gt;Node4</title>
<g id="a_edge3_Node000003_Node000004"><a xlink:title=" ">
<path fill="none" stroke="#63b8ff" d="M121.17,-64.47C113.13,-64.3 105.11,-64.14 97.5,-63.98"/>
<polygon fill="#63b8ff" stroke="#63b8ff" points="120.94,-67.96 131.01,-64.67 121.08,-60.97 120.94,-67.96"/>
</a>
</g>
</g>
<!-- Node5 -->
<g id="Node000005" class="node">
<title>Node5</title>
<g id="a_Node000005"><a xlink:href="classlrgv_1_1lrgv.html#a527b9b7a7927721b5320ab433bf75aea" target="_top" xlink:title=" ">
<polygon fill="white" stroke="#666666" points="97,-32 0,-32 0,-12 97,-12 97,-32"/>
<text text-anchor="middle" x="48.5" y="-18.5" font-family="Helvetica,sans-Serif" font-size="10.00">lrgv.lrgv.qd_fitness</text>
</a>
</g>
</g>
<!-- Node3&#45;&gt;Node5 -->
<g id="edge4_Node000003_Node000005" class="edge">
<title>Node3&#45;&gt;Node5</title>
<g id="a_edge4_Node000003_Node000005"><a xlink:title=" ">
<path fill="none" stroke="#63b8ff" d="M130.42,-46.33C114.44,-41.52 97.97,-36.57 84.08,-32.4"/>
<polygon fill="#63b8ff" stroke="#63b8ff" points="129.34,-49.65 139.92,-49.18 131.35,-42.95 129.34,-49.65"/>
</a>
</g>
</g>
<!-- Node7 -->
<g id="Node000007" class="node">
<title>Node7</title>
<g id="a_Node000007"><a xlink:href="classfcmaes_1_1evaluator_1_1parallel__mo.html#a2e2dfb664e0d8c322934abcba87e59a4" target="_top" xlink:title="Evaluates a set of inputs using a specified evaluator in a parallelized manner, producing a multi&#45;obj...">
<polygon fill="white" stroke="#666666" points="259.25,-32 134.5,-32 134.5,0 259.25,0 259.25,-32"/>
<text text-anchor="start" x="142.5" y="-18.5" font-family="Helvetica,sans-Serif" font-size="10.00">fcmaes.evaluator.parallel</text>
<text text-anchor="middle" x="196.88" y="-6.5" font-family="Helvetica,sans-Serif" font-size="10.00">_mo.__call__</text>
</a>
</g>
</g>
<!-- Node6&#45;&gt;Node7 -->
<g id="edge6_Node000006_Node000007" class="edge">
<title>Node6&#45;&gt;Node7</title>
<g id="a_edge6_Node000006_Node000007"><a xlink:title=" ">
<path fill="none" stroke="#63b8ff" d="M285.21,-16C276.72,-16 268.07,-16 259.66,-16"/>
<polygon fill="#63b8ff" stroke="#63b8ff" points="285.12,-19.5 295.12,-16 285.12,-12.5 285.12,-19.5"/>
</a>
</g>
</g>
<!-- Node7&#45;&gt;Node4 -->
<g id="edge7_Node000007_Node000004" class="edge">
<title>Node7&#45;&gt;Node4</title>
<g id="a_edge7_Node000007_Node000004"><a xlink:title=" ">
<path fill="none" stroke="#63b8ff" d="M133.78,-35.94C116.01,-41.64 97.36,-47.63 82.13,-52.52"/>
<polygon fill="#63b8ff" stroke="#63b8ff" points="134.79,-39.29 143.24,-32.9 132.65,-32.63 134.79,-39.29"/>
</a>
</g>
</g>
<!-- Node7&#45;&gt;Node5 -->
<g id="edge8_Node000007_Node000005" class="edge">
<title>Node7&#45;&gt;Node5</title>
<g id="a_edge8_Node000007_Node000005"><a xlink:title=" ">
<path fill="none" stroke="#63b8ff" d="M122.86,-18.99C114.18,-19.35 105.49,-19.7 97.29,-20.04"/>
<polygon fill="#63b8ff" stroke="#63b8ff" points="122.86,-22.5 132.71,-18.59 122.58,-15.5 122.86,-22.5"/>
</a>
</g>
</g>
</g>
</svg>

<g id="navigator" transform="translate(0 0)" fill="#404254">
  <rect fill="#f2f5e9" fill-opacity="0.5" stroke="#606060" stroke-width=".5" x="0" y="0" width="60" height="60"/>
  <use id="zoomplus" xlink:href="#zoomPlus" x="17" y="9" onmousedown="handleZoom(evt,'in')"/>
  <use id="zoomminus" xlink:href="#zoomMin" x="42" y="9" onmousedown="handleZoom(evt,'out')"/>
  <use id="reset" xlink:href="#resetDef" x="30" y="36" onmousedown="handleReset()"/>
   <use id="arrowup" xlink:href="#arrowUp" x="0" y="0" onmousedown="handlePan(0,-1)"/>
  <use id="arrowright" xlink:href="#arrowRight" x="0" y="0" onmousedown="handlePan(1,0)"/>
  <use id="arrowdown" xlink:href="#arrowDown" x="0" y="0" onmousedown="handlePan(0,1)"/>
  <use id="arrowleft" xlink:href="#arrowLeft" x="0" y="0" onmousedown="handlePan(-1,0)"/>
</g>
<svg viewBox="0 0 15 15" width="100%" height="30px" preserveAspectRatio="xMaxYMin meet">
 <g id="arrow_out" transform="scale(0.3 0.3)">
  <a xlink:href="namespacefcmaes_1_1evaluator_afe255aa77cf706556cd5740a6d9dc120_icgraph_org.svg" target="_base">
   <rect id="button" ry="5" rx="5" y="6" x="6" height="38" width="38"
        fill="#f2f5e9" fill-opacity="0.5" stroke="#606060" stroke-width="1.0"/>
   <path id="arrow"
     d="M 11.500037,31.436501 C 11.940474,20.09759 22.043105,11.32322 32.158766,21.979434 L 37.068811,17.246167 C 37.068811,17.246167 37.088388,32 37.088388,32 L 22.160133,31.978069 C 22.160133,31.978069 26.997745,27.140456 26.997745,27.140456 C 18.528582,18.264221 13.291696,25.230495 11.500037,31.436501 z"
     style="fill:#404040;"/>
  </a>
 </g>
</svg>

<style type='text/css'>
<![CDATA[
[data-mouse-over-selected='false'] { opacity: 0.7; }
[data-mouse-over-selected='true']  { opacity: 1.0; }
]]>
</style>
<script type="application/ecmascript"><![CDATA[
document.addEventListener('DOMContentLoaded', (event) => {
  highlightEdges();
  highlightAdjacentNodes();
});
]]></script>
</svg>
