<?xml version="1.0" encoding="UTF-8" standalone="no"?>
<!DOCTYPE svg PUBLIC "-//W3C//DTD SVG 1.1//EN"
 "http://www.w3.org/Graphics/SVG/1.1/DTD/svg11.dtd">
<!-- Generated by graphviz version 12.2.1 (20241206.2353)
 -->
<!-- Title: quantumcomm.qkd_metric Pages: 1 -->
<svg width="840pt" height="90pt"
 viewBox="0.00 0.00 840.25 90.00" xmlns="http://www.w3.org/2000/svg" xmlns:xlink="http://www.w3.org/1999/xlink">
<g id="graph0" class="graph" transform="scale(1 1) rotate(0) translate(4 86)">
<title>quantumcomm.qkd_metric</title>
<!-- Node1 -->
<g id="Node000001" class="node">
<title>Node1</title>
<g id="a_Node000001"><a xlink:title="Computes the edge weight according to QKD probabilities.">
<polygon fill="#999999" stroke="#666666" points="832.25,-51 700.75,-51 700.75,-31 832.25,-31 832.25,-51"/>
<text text-anchor="middle" x="766.5" y="-37.5" font-family="Helvetica,sans-Serif" font-size="10.00">quantumcomm.qkd_metric</text>
</a>
</g>
</g>
<!-- Node2 -->
<g id="Node000002" class="node">
<title>Node2</title>
<g id="a_Node000002"><a xlink:href="namespacequantumcomm.html#a0b9a5d09cf8b8062250d0631d392b9e4" target="_top" xlink:title=" ">
<polygon fill="white" stroke="#666666" points="664.75,-51 522.75,-51 522.75,-31 664.75,-31 664.75,-51"/>
<text text-anchor="middle" x="593.75" y="-37.5" font-family="Helvetica,sans-Serif" font-size="10.00">quantumcomm.get_adjmatrix</text>
</a>
</g>
</g>
<!-- Node1&#45;&gt;Node2 -->
<g id="edge1_Node000001_Node000002" class="edge">
<title>Node1&#45;&gt;Node2</title>
<g id="a_edge1_Node000001_Node000002"><a xlink:title=" ">
<path fill="none" stroke="#63b8ff" d="M689.19,-41C681.14,-41 672.99,-41 665.01,-41"/>
<polygon fill="#63b8ff" stroke="#63b8ff" points="688.95,-44.5 698.95,-41 688.95,-37.5 688.95,-44.5"/>
</a>
</g>
</g>
<!-- Node3 -->
<g id="Node000003" class="node">
<title>Node3</title>
<g id="a_Node000003"><a xlink:href="classquantumcomm_1_1constellation__udp.html#a06e2f7fe5888de4c38d08d4b1f290511" target="_top" xlink:title="Builds a networkx graph from the satellite positions.">
<polygon fill="white" stroke="#666666" points="486.75,-57 348.5,-57 348.5,-25 486.75,-25 486.75,-57"/>
<text text-anchor="start" x="356.5" y="-43.5" font-family="Helvetica,sans-Serif" font-size="10.00">quantumcomm.constellation</text>
<text text-anchor="middle" x="417.62" y="-31.5" font-family="Helvetica,sans-Serif" font-size="10.00">_udp.build_graph</text>
</a>
</g>
</g>
<!-- Node2&#45;&gt;Node3 -->
<g id="edge2_Node000002_Node000003" class="edge">
<title>Node2&#45;&gt;Node3</title>
<g id="a_edge2_Node000002_Node000003"><a xlink:title=" ">
<path fill="none" stroke="#63b8ff" d="M511.17,-41C503.16,-41 495.09,-41 487.23,-41"/>
<polygon fill="#63b8ff" stroke="#63b8ff" points="510.92,-44.5 520.92,-41 510.92,-37.5 510.92,-44.5"/>
</a>
</g>
</g>
<!-- Node4 -->
<g id="Node000004" class="node">
<title>Node4</title>
<g id="a_Node000004"><a xlink:href="classquantumcomm_1_1constellation__udp.html#a13abd2e63f36cb79a4c08d96557d3d87" target="_top" xlink:title="Evaluate the fitness of the decision variables.">
<polygon fill="white" stroke="#666666" points="312.5,-82 174.25,-82 174.25,-50 312.5,-50 312.5,-82"/>
<text text-anchor="start" x="182.25" y="-68.5" font-family="Helvetica,sans-Serif" font-size="10.00">quantumcomm.constellation</text>
<text text-anchor="middle" x="243.38" y="-56.5" font-family="Helvetica,sans-Serif" font-size="10.00">_udp.fitness</text>
</a>
</g>
</g>
<!-- Node3&#45;&gt;Node4 -->
<g id="edge3_Node000003_Node000004" class="edge">
<title>Node3&#45;&gt;Node4</title>
<g id="a_edge3_Node000003_Node000004"><a xlink:title=" ">
<path fill="none" stroke="#63b8ff" d="M336.86,-52.58C328.88,-53.73 320.84,-54.9 312.99,-56.04"/>
<polygon fill="#63b8ff" stroke="#63b8ff" points="337.16,-56.07 346.55,-51.17 336.16,-49.14 337.16,-56.07"/>
</a>
</g>
</g>
<!-- Node6 -->
<g id="Node000006" class="node">
<title>Node6</title>
<g id="a_Node000006"><a xlink:href="classquantumcomm_1_1constellation__udp.html#ae7806f788f8f22a8be936a007a8a3deb" target="_top" xlink:title="Plot the full constellations with solution path and optional orbits.">
<polygon fill="white" stroke="#666666" points="312.5,-32 174.25,-32 174.25,0 312.5,0 312.5,-32"/>
<text text-anchor="start" x="182.25" y="-18.5" font-family="Helvetica,sans-Serif" font-size="10.00">quantumcomm.constellation</text>
<text text-anchor="middle" x="243.38" y="-6.5" font-family="Helvetica,sans-Serif" font-size="10.00">_udp.plot</text>
</a>
</g>
</g>
<!-- Node3&#45;&gt;Node6 -->
<g id="edge5_Node000003_Node000006" class="edge">
<title>Node3&#45;&gt;Node6</title>
<g id="a_edge5_Node000003_Node000006"><a xlink:title=" ">
<path fill="none" stroke="#63b8ff" d="M336.86,-29.42C328.88,-28.27 320.84,-27.1 312.99,-25.96"/>
<polygon fill="#63b8ff" stroke="#63b8ff" points="336.16,-32.86 346.55,-30.83 337.16,-25.93 336.16,-32.86"/>
</a>
</g>
</g>
<!-- Node5 -->
<g id="Node000005" class="node">
<title>Node5</title>
<g id="a_Node000005"><a xlink:href="classquantumcomm_1_1constellation__udp.html#a8c60ffafb21bc14b969a3f3f4079d24d" target="_top" xlink:title="A verbose evaluation of the fitness functions.">
<polygon fill="white" stroke="#666666" points="138.25,-82 0,-82 0,-50 138.25,-50 138.25,-82"/>
<text text-anchor="start" x="8" y="-68.5" font-family="Helvetica,sans-Serif" font-size="10.00">quantumcomm.constellation</text>
<text text-anchor="middle" x="69.12" y="-56.5" font-family="Helvetica,sans-Serif" font-size="10.00">_udp.pretty</text>
</a>
</g>
</g>
<!-- Node4&#45;&gt;Node5 -->
<g id="edge4_Node000004_Node000005" class="edge">
<title>Node4&#45;&gt;Node5</title>
<g id="a_edge4_Node000004_Node000005"><a xlink:title=" ">
<path fill="none" stroke="#63b8ff" d="M162.33,-66C154.45,-66 146.5,-66 138.74,-66"/>
<polygon fill="#63b8ff" stroke="#63b8ff" points="162.29,-69.5 172.29,-66 162.29,-62.5 162.29,-69.5"/>
</a>
</g>
</g>
</g>
</svg>
