<?xml version="1.0" encoding="UTF-8" standalone="no"?>
<!DOCTYPE svg PUBLIC "-//W3C//DTD SVG 1.1//EN"
 "http://www.w3.org/Graphics/SVG/1.1/DTD/svg11.dtd">
<!-- Generated by graphviz version 12.2.1 (20241206.2353)
 -->
<!-- Title: edgecover.num_true Pages: 1 -->
<svg width="279pt" height="66pt"
 viewBox="0.00 0.00 279.25 66.00" xmlns="http://www.w3.org/2000/svg" xmlns:xlink="http://www.w3.org/1999/xlink">
<g id="graph0" class="graph" transform="scale(1 1) rotate(0) translate(4 62)">
<title>edgecover.num_true</title>
<!-- Node1 -->
<g id="Node000001" class="node">
<title>Node1</title>
<g id="a_Node000001"><a xlink:title=" ">
<polygon fill="#999999" stroke="#666666" points="271.25,-39 166.75,-39 166.75,-19 271.25,-19 271.25,-39"/>
<text text-anchor="middle" x="219" y="-25.5" font-family="Helvetica,sans-Serif" font-size="10.00">edgecover.num_true</text>
</a>
</g>
</g>
<!-- Node2 -->
<g id="Node000002" class="node">
<title>Node2</title>
<g id="a_Node000002"><a xlink:href="classedgecover_1_1problem.html#a8ad14faff9c46c2d1da7ddf258b015b2" target="_top" xlink:title=" ">
<polygon fill="white" stroke="#666666" points="130.75,-58 0,-58 0,-38 130.75,-38 130.75,-58"/>
<text text-anchor="middle" x="65.38" y="-44.5" font-family="Helvetica,sans-Serif" font-size="10.00">edgecover.problem.fitness</text>
</a>
</g>
</g>
<!-- Node1&#45;&gt;Node2 -->
<g id="edge1_Node000001_Node000002" class="edge">
<title>Node1&#45;&gt;Node2</title>
<g id="a_edge1_Node000001_Node000002"><a xlink:title=" ">
<path fill="none" stroke="#63b8ff" d="M155.47,-36.84C147.43,-37.84 139.18,-38.88 131.1,-39.89"/>
<polygon fill="#63b8ff" stroke="#63b8ff" points="155.68,-40.34 165.16,-35.62 154.81,-33.39 155.68,-40.34"/>
</a>
</g>
</g>
<!-- Node3 -->
<g id="Node000003" class="node">
<title>Node3</title>
<g id="a_Node000003"><a xlink:href="namespaceedgecover.html#a182ff9dbc428e26929d7fa0413315027" target="_top" xlink:title=" ">
<polygon fill="white" stroke="#666666" points="118.38,-20 12.38,-20 12.38,0 118.38,0 118.38,-20"/>
<text text-anchor="middle" x="65.38" y="-6.5" font-family="Helvetica,sans-Serif" font-size="10.00">edgecover.solve_opt</text>
</a>
</g>
</g>
<!-- Node1&#45;&gt;Node3 -->
<g id="edge2_Node000001_Node000003" class="edge">
<title>Node1&#45;&gt;Node3</title>
<g id="a_edge2_Node000001_Node000003"><a xlink:title=" ">
<path fill="none" stroke="#63b8ff" d="M155.58,-21.18C143.32,-19.64 130.58,-18.05 118.69,-16.56"/>
<polygon fill="#63b8ff" stroke="#63b8ff" points="154.81,-24.61 165.16,-22.38 155.68,-17.66 154.81,-24.61"/>
</a>
</g>
</g>
</g>
</svg>
