<?xml version="1.0" encoding="UTF-8" standalone="no"?>
<!DOCTYPE svg PUBLIC "-//W3C//DTD SVG 1.1//EN"
 "http://www.w3.org/Graphics/SVG/1.1/DTD/svg11.dtd">
<!-- Generated by graphviz version 12.2.1 (20241206.2353)
 -->
<!-- Title: edgecover.run_solve Pages: 1 -->
<svg width="433pt" height="66pt"
 viewBox="0.00 0.00 433.25 66.00" xmlns="http://www.w3.org/2000/svg" xmlns:xlink="http://www.w3.org/1999/xlink">
<g id="graph0" class="graph" transform="scale(1 1) rotate(0) translate(4 62)">
<title>edgecover.run_solve</title>
<!-- Node1 -->
<g id="Node000001" class="node">
<title>Node1</title>
<g id="a_Node000001"><a xlink:title=" ">
<polygon fill="#999999" stroke="#666666" points="106,-39 0,-39 0,-19 106,-19 106,-39"/>
<text text-anchor="middle" x="53" y="-25.5" font-family="Helvetica,sans-Serif" font-size="10.00">edgecover.run_solve</text>
</a>
</g>
</g>
<!-- Node2 -->
<g id="Node000002" class="node">
<title>Node2</title>
<g id="a_Node000002"><a xlink:href="namespaceedgecover.html#ab2c2a9dd447db5ff8c3125389066708f" target="_top" xlink:title=" ">
<polygon fill="white" stroke="#666666" points="263.75,-39 142,-39 142,-19 263.75,-19 263.75,-39"/>
<text text-anchor="middle" x="202.88" y="-25.5" font-family="Helvetica,sans-Serif" font-size="10.00">edgecover.solve_greedy</text>
</a>
</g>
</g>
<!-- Node1&#45;&gt;Node2 -->
<g id="edge1_Node000001_Node000002" class="edge">
<title>Node1&#45;&gt;Node2</title>
<g id="a_edge1_Node000001_Node000002"><a xlink:title=" ">
<path fill="none" stroke="#63b8ff" d="M106.14,-29C113.93,-29 122.09,-29 130.21,-29"/>
<polygon fill="#63b8ff" stroke="#63b8ff" points="130.11,-32.5 140.11,-29 130.11,-25.5 130.11,-32.5"/>
</a>
</g>
</g>
<!-- Node3 -->
<g id="Node000003" class="node">
<title>Node3</title>
<g id="a_Node000003"><a xlink:href="namespaceedgecover.html#a010150d32280d804796dadb5edda4711" target="_top" xlink:title=" ">
<polygon fill="white" stroke="#666666" points="425.25,-58 299.75,-58 299.75,-38 425.25,-38 425.25,-58"/>
<text text-anchor="middle" x="362.5" y="-44.5" font-family="Helvetica,sans-Serif" font-size="10.00">edgecover.initial_solution</text>
</a>
</g>
</g>
<!-- Node2&#45;&gt;Node3 -->
<g id="edge2_Node000002_Node000003" class="edge">
<title>Node2&#45;&gt;Node3</title>
<g id="a_edge2_Node000002_Node000003"><a xlink:title=" ">
<path fill="none" stroke="#63b8ff" d="M263.92,-36.24C271.78,-37.19 279.91,-38.17 287.97,-39.14"/>
<polygon fill="#63b8ff" stroke="#63b8ff" points="287.42,-42.6 297.77,-40.32 288.26,-35.65 287.42,-42.6"/>
</a>
</g>
</g>
<!-- Node4 -->
<g id="Node000004" class="node">
<title>Node4</title>
<g id="a_Node000004"><a xlink:href="namespaceedgecover.html#a73da3a94d91f82f192729ac189e39276" target="_top" xlink:title=" ">
<polygon fill="white" stroke="#666666" points="423.75,-20 301.25,-20 301.25,0 423.75,0 423.75,-20"/>
<text text-anchor="middle" x="362.5" y="-6.5" font-family="Helvetica,sans-Serif" font-size="10.00">edgecover.remove_node</text>
</a>
</g>
</g>
<!-- Node2&#45;&gt;Node4 -->
<g id="edge3_Node000002_Node000004" class="edge">
<title>Node2&#45;&gt;Node4</title>
<g id="a_edge3_Node000002_Node000004"><a xlink:title=" ">
<path fill="none" stroke="#63b8ff" d="M263.92,-21.76C272.32,-20.75 281.04,-19.7 289.64,-18.66"/>
<polygon fill="#63b8ff" stroke="#63b8ff" points="289.83,-22.16 299.34,-17.49 288.99,-15.21 289.83,-22.16"/>
</a>
</g>
</g>
</g>
</svg>
