<?xml version="1.0" encoding="UTF-8" standalone="no"?>
<!DOCTYPE svg PUBLIC "-//W3C//DTD SVG 1.1//EN"
 "http://www.w3.org/Graphics/SVG/1.1/DTD/svg11.dtd">
<!-- Generated by graphviz version 12.2.1 (20241206.2353)
 -->
<!-- Title: examples.employee.fitness_ Pages: 1 -->
<svg width="611pt" height="116pt"
 viewBox="0.00 0.00 611.00 116.00" xmlns="http://www.w3.org/2000/svg" xmlns:xlink="http://www.w3.org/1999/xlink">
<g id="graph0" class="graph" transform="scale(1 1) rotate(0) translate(4 112)">
<title>examples.employee.fitness_</title>
<!-- Node1 -->
<g id="Node000001" class="node">
<title>Node1</title>
<g id="a_Node000001"><a xlink:title=" ">
<polygon fill="#999999" stroke="#666666" points="603,-58 462.5,-58 462.5,-38 603,-38 603,-58"/>
<text text-anchor="middle" x="532.75" y="-44.5" font-family="Helvetica,sans-Serif" font-size="10.00">examples.employee.fitness_</text>
</a>
</g>
</g>
<!-- Node2 -->
<g id="Node000002" class="node">
<title>Node2</title>
<g id="a_Node000002"><a xlink:href="classexamples_1_1employee_1_1problem.html#a88fb1f528fee9cf2fe3979bda5bb43c5" target="_top" xlink:title=" ">
<polygon fill="white" stroke="#666666" points="417.12,-77 244.38,-77 244.38,-57 417.12,-57 417.12,-77"/>
<text text-anchor="middle" x="330.75" y="-63.5" font-family="Helvetica,sans-Serif" font-size="10.00">examples.employee.problem.fitness</text>
</a>
</g>
</g>
<!-- Node1&#45;&gt;Node2 -->
<g id="edge1_Node000001_Node000002" class="edge">
<title>Node1&#45;&gt;Node2</title>
<g id="a_edge1_Node000001_Node000002"><a xlink:title=" ">
<path fill="none" stroke="#63b8ff" d="M450.76,-55.69C439.76,-56.74 428.44,-57.81 417.37,-58.87"/>
<polygon fill="#63b8ff" stroke="#63b8ff" points="450.95,-59.19 460.57,-54.76 450.29,-52.22 450.95,-59.19"/>
</a>
</g>
</g>
<!-- Node5 -->
<g id="Node000005" class="node">
<title>Node5</title>
<g id="a_Node000005"><a xlink:href="classexamples_1_1employee_1_1problem.html#a7e757b49faf9cee5a35c9ca99b3e28c3" target="_top" xlink:title=" ">
<polygon fill="white" stroke="#666666" points="426.5,-39 235,-39 235,-19 426.5,-19 426.5,-39"/>
<text text-anchor="middle" x="330.75" y="-25.5" font-family="Helvetica,sans-Serif" font-size="10.00">examples.employee.problem.fitness_mo</text>
</a>
</g>
</g>
<!-- Node1&#45;&gt;Node5 -->
<g id="edge4_Node000001_Node000005" class="edge">
<title>Node1&#45;&gt;Node5</title>
<g id="a_edge4_Node000001_Node000005"><a xlink:title=" ">
<path fill="none" stroke="#63b8ff" d="M450.71,-40.3C442.85,-39.55 434.83,-38.79 426.86,-38.04"/>
<polygon fill="#63b8ff" stroke="#63b8ff" points="450.29,-43.78 460.57,-41.24 450.95,-36.81 450.29,-43.78"/>
</a>
</g>
</g>
<!-- Node3 -->
<g id="Node000003" class="node">
<title>Node3</title>
<g id="a_Node000003"><a xlink:href="classexamples_1_1employee_1_1problem.html#a96c79aee6dab29a25fd28b0b383f1916" target="_top" xlink:title=" ">
<polygon fill="white" stroke="#666666" points="189.62,-58 9.38,-58 9.38,-38 189.62,-38 189.62,-58"/>
<text text-anchor="middle" x="99.5" y="-44.5" font-family="Helvetica,sans-Serif" font-size="10.00">examples.employee.problem.optimize</text>
</a>
</g>
</g>
<!-- Node2&#45;&gt;Node3 -->
<g id="edge2_Node000002_Node000003" class="edge">
<title>Node2&#45;&gt;Node3</title>
<g id="a_edge2_Node000002_Node000003"><a xlink:title=" ">
<path fill="none" stroke="#63b8ff" d="M232.76,-58.96C218.55,-57.78 203.97,-56.58 189.92,-55.41"/>
<polygon fill="#63b8ff" stroke="#63b8ff" points="232.3,-62.44 242.55,-59.77 232.87,-55.46 232.3,-62.44"/>
</a>
</g>
</g>
<!-- Node4 -->
<g id="Node000004" class="node">
<title>Node4</title>
<g id="a_Node000004"><a xlink:href="classquantumcomm_1_1constellation__udp.html#a8c60ffafb21bc14b969a3f3f4079d24d" target="_top" xlink:title="A verbose evaluation of the fitness functions.">
<polygon fill="white" stroke="#666666" points="168.62,-108 30.38,-108 30.38,-76 168.62,-76 168.62,-108"/>
<text text-anchor="start" x="38.38" y="-94.5" font-family="Helvetica,sans-Serif" font-size="10.00">quantumcomm.constellation</text>
<text text-anchor="middle" x="99.5" y="-82.5" font-family="Helvetica,sans-Serif" font-size="10.00">_udp.pretty</text>
</a>
</g>
</g>
<!-- Node2&#45;&gt;Node4 -->
<g id="edge3_Node000002_Node000004" class="edge">
<title>Node2&#45;&gt;Node4</title>
<g id="a_edge3_Node000002_Node000004"><a xlink:title=" ">
<path fill="none" stroke="#63b8ff" d="M232.9,-77.56C211.39,-79.91 189.02,-82.35 168.93,-84.54"/>
<polygon fill="#63b8ff" stroke="#63b8ff" points="232.99,-81.07 242.56,-76.51 232.23,-74.11 232.99,-81.07"/>
</a>
</g>
</g>
<!-- Node5&#45;&gt;Node3 -->
<g id="edge5_Node000005_Node000003" class="edge">
<title>Node5&#45;&gt;Node3</title>
<g id="a_edge5_Node000005_Node000003"><a xlink:title=" ">
<path fill="none" stroke="#63b8ff" d="M223.38,-37.82C212.19,-38.74 200.9,-39.68 189.92,-40.59"/>
<polygon fill="#63b8ff" stroke="#63b8ff" points="223.33,-41.33 233.01,-37.02 222.76,-34.36 223.33,-41.33"/>
</a>
</g>
</g>
<!-- Node6 -->
<g id="Node000006" class="node">
<title>Node6</title>
<g id="a_Node000006"><a xlink:href="classexamples_1_1employee_1_1problem.html#a451356183bd266ec5feb44a1b9cf92ef" target="_top" xlink:title=" ">
<polygon fill="white" stroke="#666666" points="199,-20 0,-20 0,0 199,0 199,-20"/>
<text text-anchor="middle" x="99.5" y="-6.5" font-family="Helvetica,sans-Serif" font-size="10.00">examples.employee.problem.optimize_mo</text>
</a>
</g>
</g>
<!-- Node5&#45;&gt;Node6 -->
<g id="edge6_Node000005_Node000006" class="edge">
<title>Node5&#45;&gt;Node6</title>
<g id="a_edge6_Node000005_Node000006"><a xlink:title=" ">
<path fill="none" stroke="#63b8ff" d="M223.22,-20.17C215.19,-19.51 207.11,-18.84 199.13,-18.17"/>
<polygon fill="#63b8ff" stroke="#63b8ff" points="222.76,-23.64 233.01,-20.98 223.33,-16.67 222.76,-23.64"/>
</a>
</g>
</g>
</g>
</svg>
