<?xml version="1.0" encoding="UTF-8" standalone="no"?>
<!DOCTYPE svg PUBLIC "-//W3C//DTD SVG 1.1//EN"
 "http://www.w3.org/Graphics/SVG/1.1/DTD/svg11.dtd">
<!-- Generated by graphviz version 12.2.1 (20241206.2353)
 -->
<!-- Title: examples.solo_mgar_udp._dv_mga Pages: 1 -->
<svg width="433pt" height="264pt"
 viewBox="0.00 0.00 433.25 264.00" xmlns="http://www.w3.org/2000/svg" xmlns:xlink="http://www.w3.org/1999/xlink">

<svg id="main" version="1.1" xmlns="http://www.w3.org/2000/svg" xmlns:xlink="http://www.w3.org/1999/xlink" xml:space="preserve">

<style type="text/css"><![CDATA[
.node, .edge {opacity: 0.7;}
.node.selected, .edge.selected {opacity: 1;}
.edge:hover path { stroke: red; }
.edge:hover polygon { stroke: red; fill: red; }
]]></style>
<script type="application/ecmascript" xlink:href="svg.min.js"/>
<svg id="graph" class="graph">
<g id="graph0" class="graph" transform="scale(1 1) rotate(0) translate(4 260)">
<title>examples.solo_mgar_udp._dv_mga</title>
<!-- Node1 -->
<g id="Node000001" class="node">
<title>Node1</title>
<g id="a_Node000001"><a xlink:title=" ">
<polygon fill="#999999" stroke="#666666" points="425.25,-144 319.25,-144 319.25,-112 425.25,-112 425.25,-144"/>
<text text-anchor="start" x="327.25" y="-130.5" font-family="Helvetica,sans-Serif" font-size="10.00">examples.solo_mgar</text>
<text text-anchor="middle" x="372.25" y="-118.5" font-family="Helvetica,sans-Serif" font-size="10.00">_udp._dv_mga</text>
</a>
</g>
</g>
<!-- Node2 -->
<g id="Node000002" class="node">
<title>Node2</title>
<g id="a_Node000002"><a xlink:href="classexamples_1_1solo__mgar__udp_1_1solo__mgar__udp.html#a92828aaaf12b6addeb33a6249b7539b8" target="_top" xlink:title=" ">
<polygon fill="white" stroke="#666666" points="283.25,-150 174.25,-150 174.25,-106 283.25,-106 283.25,-150"/>
<text text-anchor="start" x="182.25" y="-136.5" font-family="Helvetica,sans-Serif" font-size="10.00">examples.solo_mgar</text>
<text text-anchor="start" x="182.25" y="-124.5" font-family="Helvetica,sans-Serif" font-size="10.00">_udp.solo_mgar_udp.</text>
<text text-anchor="middle" x="228.75" y="-112.5" font-family="Helvetica,sans-Serif" font-size="10.00">_compute_dvs</text>
</a>
</g>
</g>
<!-- Node1&#45;&gt;Node2 -->
<g id="edge1_Node000001_Node000002" class="edge">
<title>Node1&#45;&gt;Node2</title>
<g id="a_edge1_Node000001_Node000002"><a xlink:title=" ">
<path fill="none" stroke="#63b8ff" d="M307.47,-128C299.54,-128 291.48,-128 283.72,-128"/>
<polygon fill="#63b8ff" stroke="#63b8ff" points="307.45,-131.5 317.45,-128 307.45,-124.5 307.45,-131.5"/>
</a>
</g>
</g>
<!-- Node3 -->
<g id="Node000003" class="node">
<title>Node3</title>
<g id="a_Node000003"><a xlink:href="classexamples_1_1solo__mgar__udp_1_1solo__mgar__udp.html#aa38ea487a578acabc4f2f9e78458e406" target="_top" xlink:title=" ">
<polygon fill="white" stroke="#666666" points="138.25,-256 0,-256 0,-224 138.25,-224 138.25,-256"/>
<text text-anchor="start" x="8" y="-242.5" font-family="Helvetica,sans-Serif" font-size="10.00">examples.solo_mgar</text>
<text text-anchor="middle" x="69.12" y="-230.5" font-family="Helvetica,sans-Serif" font-size="10.00">_udp.solo_mgar_udp.fitness</text>
</a>
</g>
</g>
<!-- Node2&#45;&gt;Node3 -->
<g id="edge2_Node000002_Node000003" class="edge">
<title>Node2&#45;&gt;Node3</title>
<g id="a_edge2_Node000002_Node000003"><a xlink:title=" ">
<path fill="none" stroke="#63b8ff" d="M201.94,-158.96C185.32,-177.29 162.37,-199.83 138.25,-215 133.24,-218.15 127.77,-220.99 122.18,-223.52"/>
<polygon fill="#63b8ff" stroke="#63b8ff" points="204.56,-161.28 208.57,-151.48 199.32,-156.64 204.56,-161.28"/>
</a>
</g>
</g>
<!-- Node4 -->
<g id="Node000004" class="node">
<title>Node4</title>
<g id="a_Node000004"><a xlink:href="classexamples_1_1solo__mgar__udp_1_1solo__mgar__udp.html#ae1850a6f7c51a4fca0d647d5d3638542" target="_top" xlink:title=" ">
<polygon fill="white" stroke="#666666" points="130.38,-206 7.88,-206 7.88,-162 130.38,-162 130.38,-206"/>
<text text-anchor="start" x="15.88" y="-192.5" font-family="Helvetica,sans-Serif" font-size="10.00">examples.solo_mgar</text>
<text text-anchor="start" x="15.88" y="-180.5" font-family="Helvetica,sans-Serif" font-size="10.00">_udp.solo_mgar_udp.mo</text>
<text text-anchor="middle" x="69.12" y="-168.5" font-family="Helvetica,sans-Serif" font-size="10.00">_fitness</text>
</a>
</g>
</g>
<!-- Node2&#45;&gt;Node4 -->
<g id="edge3_Node000002_Node000004" class="edge">
<title>Node2&#45;&gt;Node4</title>
<g id="a_edge3_Node000002_Node000004"><a xlink:title=" ">
<path fill="none" stroke="#63b8ff" d="M163.32,-150.89C152.55,-154.72 141.4,-158.68 130.73,-162.47"/>
<polygon fill="#63b8ff" stroke="#63b8ff" points="164.27,-154.27 172.52,-147.62 161.92,-147.67 164.27,-154.27"/>
</a>
</g>
</g>
<!-- Node5 -->
<g id="Node000005" class="node">
<title>Node5</title>
<g id="a_Node000005"><a xlink:href="classexamples_1_1solo__mgar__udp_1_1solo__mgar__udp.html#a3dac1a1a04ca664e4805c1d1f373fc72" target="_top" xlink:title=" ">
<polygon fill="white" stroke="#666666" points="131.5,-144 6.75,-144 6.75,-112 131.5,-112 131.5,-144"/>
<text text-anchor="start" x="14.75" y="-130.5" font-family="Helvetica,sans-Serif" font-size="10.00">examples.solo_mgar</text>
<text text-anchor="middle" x="69.12" y="-118.5" font-family="Helvetica,sans-Serif" font-size="10.00">_udp.solo_mgar_udp.plot</text>
</a>
</g>
</g>
<!-- Node2&#45;&gt;Node5 -->
<g id="edge4_Node000002_Node000005" class="edge">
<title>Node2&#45;&gt;Node5</title>
<g id="a_edge4_Node000002_Node000005"><a xlink:title=" ">
<path fill="none" stroke="#63b8ff" d="M162.62,-128C152.43,-128 141.93,-128 131.82,-128"/>
<polygon fill="#63b8ff" stroke="#63b8ff" points="162.43,-131.5 172.43,-128 162.43,-124.5 162.43,-131.5"/>
</a>
</g>
</g>
<!-- Node6 -->
<g id="Node000006" class="node">
<title>Node6</title>
<g id="a_Node000006"><a xlink:href="classexamples_1_1solo__mgar__udp_1_1solo__mgar__udp.html#aba1e8ae9f93e4d570147f475185e809a" target="_top" xlink:title=" ">
<polygon fill="white" stroke="#666666" points="131.5,-94 6.75,-94 6.75,-50 131.5,-50 131.5,-94"/>
<text text-anchor="start" x="14.75" y="-80.5" font-family="Helvetica,sans-Serif" font-size="10.00">examples.solo_mgar</text>
<text text-anchor="start" x="14.75" y="-68.5" font-family="Helvetica,sans-Serif" font-size="10.00">_udp.solo_mgar_udp.plot</text>
<text text-anchor="middle" x="69.12" y="-56.5" font-family="Helvetica,sans-Serif" font-size="10.00">_distance_and_flybys</text>
</a>
</g>
</g>
<!-- Node2&#45;&gt;Node6 -->
<g id="edge5_Node000002_Node000006" class="edge">
<title>Node2&#45;&gt;Node6</title>
<g id="a_edge5_Node000002_Node000006"><a xlink:title=" ">
<path fill="none" stroke="#63b8ff" d="M163.27,-105.09C152.88,-101.4 142.15,-97.59 131.82,-93.92"/>
<polygon fill="#63b8ff" stroke="#63b8ff" points="161.92,-108.33 172.52,-108.38 164.27,-101.73 161.92,-108.33"/>
</a>
</g>
</g>
<!-- Node7 -->
<g id="Node000007" class="node">
<title>Node7</title>
<g id="a_Node000007"><a xlink:href="classexamples_1_1solo__mgar__udp_1_1solo__mgar__udp.html#a5e609bd39357f14e70695debc374e38f" target="_top" xlink:title=" ">
<polygon fill="white" stroke="#666666" points="136,-32 2.25,-32 2.25,0 136,0 136,-32"/>
<text text-anchor="start" x="10.25" y="-18.5" font-family="Helvetica,sans-Serif" font-size="10.00">examples.solo_mgar</text>
<text text-anchor="middle" x="69.12" y="-6.5" font-family="Helvetica,sans-Serif" font-size="10.00">_udp.solo_mgar_udp.pretty</text>
</a>
</g>
</g>
<!-- Node2&#45;&gt;Node7 -->
<g id="edge6_Node000002_Node000007" class="edge">
<title>Node2&#45;&gt;Node7</title>
<g id="a_edge6_Node000002_Node000007"><a xlink:title=" ">
<path fill="none" stroke="#63b8ff" d="M201.94,-97.04C185.32,-78.71 162.37,-56.17 138.25,-41 133.24,-37.85 127.77,-35.01 122.18,-32.48"/>
<polygon fill="#63b8ff" stroke="#63b8ff" points="199.32,-99.36 208.57,-104.52 204.56,-94.72 199.32,-99.36"/>
</a>
</g>
</g>
</g>
</svg>
</svg>

<style type='text/css'>
<![CDATA[
[data-mouse-over-selected='false'] { opacity: 0.7; }
[data-mouse-over-selected='true']  { opacity: 1.0; }
]]>
</style>
<script type="application/ecmascript"><![CDATA[
document.addEventListener('DOMContentLoaded', (event) => {
  highlightEdges();
  highlightAdjacentNodes();
});
]]></script>
</svg>
