<?xml version="1.0" encoding="UTF-8" standalone="no"?>
<!DOCTYPE svg PUBLIC "-//W3C//DTD SVG 1.1//EN"
 "http://www.w3.org/Graphics/SVG/1.1/DTD/svg11.dtd">
<!-- Generated by graphviz version 12.2.1 (20241206.2353)
 -->
<!-- Title: examples.crypto.simulate Pages: 1 -->
<!--zoomable 132 -->

<svg id="main" version="1.1" xmlns="http://www.w3.org/2000/svg" xmlns:xlink="http://www.w3.org/1999/xlink" xml:space="preserve" onload="init(evt)">

<style type="text/css"><![CDATA[
.node, .edge {opacity: 0.7;}
.node.selected, .edge.selected {opacity: 1;}
.edge:hover path { stroke: red; }
.edge:hover polygon { stroke: red; fill: red; }
]]></style>

<defs>
  <circle id="rim" cx="0" cy="0" r="7"/>
  <circle id="rim2" cx="0" cy="0" r="3.5"/>
  <g id="zoomPlus">
    <use xlink:href="#rim" fill="#404040"><set attributeName="fill" to="#808080" begin="zoomplus.mouseover" end="zoomplus.mouseout"/></use>
    <path d="M-4,0h8M0,-4v8" fill="none" stroke="white" stroke-width="1.5" pointer-events="none"/>
  </g>
  <g id="zoomMin">
    <use xlink:href="#rim" fill="#404040"><set attributeName="fill" to="#808080" begin="zoomminus.mouseover" end="zoomminus.mouseout"/></use>
    <path d="M-4,0h8" fill="none" stroke="white" stroke-width="1.5" pointer-events="none"/>
  </g>
  <g id="arrowUp" transform="translate(30 24)">
    <use xlink:href="#rim"/>
    <path pointer-events="none" fill="none" stroke="white" stroke-width="1.5" d="M0,-3.0v7 M-2.5,-0.5L0,-3.0L2.5,-0.5"/>
  </g>
  <g id="arrowRight" transform="rotate(90) translate(36 -43)">
    <use xlink:href="#rim"/>
    <path pointer-events="none" fill="none" stroke="white" stroke-width="1.5" d="M0,-3.0v7 M-2.5,-0.5L0,-3.0L2.5,-0.5"/>
  </g>
  <g id="arrowDown" transform="rotate(180) translate(-30 -48)">
    <use xlink:href="#rim"/>
    <path pointer-events="none" fill="none" stroke="white" stroke-width="1.5" d="M0,-3.0v7 M-2.5,-0.5L0,-3.0L2.5,-0.5"/>
  </g>
  <g id="arrowLeft" transform="rotate(270) translate(-36 17)">
    <use xlink:href="#rim"/>
    <path pointer-events="none" fill="none" stroke="white" stroke-width="1.5" d="M0,-3.0v7 M-2.5,-0.5L0,-3.0L2.5,-0.5"/>
  </g>
  <g id="resetDef">
    <use xlink:href="#rim2" fill="#404040"><set attributeName="fill" to="#808080" begin="reset.mouseover" end="reset.mouseout"/></use>
  </g>
</defs>
<script type="application/ecmascript">
var viewWidth = 603;
var viewHeight = 132;
var sectionId = 'dynsection-6';
</script>
<script type="application/ecmascript" xlink:href="svg.min.js"/>
<svg id="graph" class="graph">
<g id="viewport">
<title>examples.crypto.simulate</title>
<!-- Node1 -->
<g id="Node000001" class="node">
<title>Node1</title>
<g id="a_Node000001"><a xlink:title=" ">
<polygon fill="#999999" stroke="#666666" points="127.75,-86 0,-86 0,-66 127.75,-66 127.75,-86"/>
<text text-anchor="middle" x="63.88" y="-72.5" font-family="Helvetica,sans-Serif" font-size="10.00">examples.crypto.simulate</text>
</a>
</g>
</g>
<!-- Node2 -->
<g id="Node000002" class="node">
<title>Node2</title>
<g id="a_Node000002"><a xlink:href="namespaceexamples_1_1crypto.html#a38e3ca807ed30d1fa4d4a5cc478e1525" target="_top" xlink:title=" ">
<polygon fill="white" stroke="#666666" points="292.25,-124 163.75,-124 163.75,-104 292.25,-104 292.25,-124"/>
<text text-anchor="middle" x="228" y="-110.5" font-family="Helvetica,sans-Serif" font-size="10.00">examples.crypto.get_ema</text>
</a>
</g>
</g>
<!-- Node1&#45;&gt;Node2 -->
<g id="edge1_Node000001_Node000002" class="edge">
<title>Node1&#45;&gt;Node2</title>
<g id="a_edge1_Node000001_Node000002"><a xlink:title=" ">
<path fill="none" stroke="#63b8ff" d="M109.61,-86.48C128.74,-90.97 151.29,-96.25 171.48,-100.99"/>
<polygon fill="#63b8ff" stroke="#63b8ff" points="170.41,-104.33 180.94,-103.2 172,-97.51 170.41,-104.33"/>
</a>
</g>
</g>
<!-- Node3 -->
<g id="Node000003" class="node">
<title>Node3</title>
<g id="a_Node000003"><a xlink:href="namespaceexamples_1_1crypto.html#a8fe56bb9960bb347eee6e2c39ddbd90f" target="_top" xlink:title=" ">
<polygon fill="white" stroke="#666666" points="292.25,-86 163.75,-86 163.75,-66 292.25,-66 292.25,-86"/>
<text text-anchor="middle" x="228" y="-72.5" font-family="Helvetica,sans-Serif" font-size="10.00">examples.crypto.get_sma</text>
</a>
</g>
</g>
<!-- Node1&#45;&gt;Node3 -->
<g id="edge2_Node000001_Node000003" class="edge">
<title>Node1&#45;&gt;Node3</title>
<g id="a_edge2_Node000001_Node000003"><a xlink:title=" ">
<path fill="none" stroke="#63b8ff" d="M128.02,-76C135.94,-76 144.09,-76 152.17,-76"/>
<polygon fill="#63b8ff" stroke="#63b8ff" points="151.98,-79.5 161.98,-76 151.98,-72.5 151.98,-79.5"/>
</a>
</g>
</g>
<!-- Node4 -->
<g id="Node000004" class="node">
<title>Node4</title>
<g id="a_Node000004"><a xlink:href="namespaceexamples_1_1crypto.html#a61f6c93fa62a257ed271a0aa1210f604" target="_top" xlink:title=" ">
<polygon fill="white" stroke="#666666" points="291.12,-48 164.88,-48 164.88,-28 291.12,-28 291.12,-48"/>
<text text-anchor="middle" x="228" y="-34.5" font-family="Helvetica,sans-Serif" font-size="10.00">examples.crypto.strategy</text>
</a>
</g>
</g>
<!-- Node1&#45;&gt;Node4 -->
<g id="edge3_Node000001_Node000004" class="edge">
<title>Node1&#45;&gt;Node4</title>
<g id="a_edge3_Node000001_Node000004"><a xlink:title=" ">
<path fill="none" stroke="#63b8ff" d="M109.61,-65.52C128.74,-61.03 151.29,-55.75 171.48,-51.01"/>
<polygon fill="#63b8ff" stroke="#63b8ff" points="172,-54.49 180.94,-48.8 170.41,-47.67 172,-54.49"/>
</a>
</g>
</g>
<!-- Node5 -->
<g id="Node000005" class="node">
<title>Node5</title>
<g id="a_Node000005"><a xlink:href="namespaceexamples_1_1crypto.html#a54eb39bc81fed172b7d1d74dcec022c2" target="_top" xlink:title=" ">
<polygon fill="white" stroke="#666666" points="595,-67 473.25,-67 473.25,-47 595,-47 595,-67"/>
<text text-anchor="middle" x="534.12" y="-53.5" font-family="Helvetica,sans-Serif" font-size="10.00">examples.crypto.buy_all</text>
</a>
</g>
</g>
<!-- Node4&#45;&gt;Node5 -->
<g id="edge4_Node000004_Node000005" class="edge">
<title>Node4&#45;&gt;Node5</title>
<g id="a_edge4_Node000004_Node000005"><a xlink:title=" ">
<path fill="none" stroke="#63b8ff" d="M273.7,-48.42C290.68,-51.88 310.26,-55.29 328.25,-57 372.4,-61.19 422.15,-61.3 461.57,-60.31"/>
<polygon fill="#63b8ff" stroke="#63b8ff" points="461.51,-63.81 471.41,-60.03 461.31,-56.81 461.51,-63.81"/>
</a>
</g>
</g>
<!-- Node6 -->
<g id="Node000006" class="node">
<title>Node6</title>
<g id="a_Node000006"><a xlink:href="namespaceexamples_1_1crypto.html#a941dc0c737b40581bde98db6aef23525" target="_top" xlink:title=" ">
<polygon fill="white" stroke="#666666" points="437.25,-48 328.25,-48 328.25,-28 437.25,-28 437.25,-48"/>
<text text-anchor="middle" x="382.75" y="-34.5" font-family="Helvetica,sans-Serif" font-size="10.00">examples.crypto.hodl</text>
</a>
</g>
</g>
<!-- Node4&#45;&gt;Node6 -->
<g id="edge5_Node000004_Node000006" class="edge">
<title>Node4&#45;&gt;Node6</title>
<g id="a_edge5_Node000004_Node000006"><a xlink:title=" ">
<path fill="none" stroke="#63b8ff" d="M291.57,-38C299.75,-38 308.14,-38 316.36,-38"/>
<polygon fill="#63b8ff" stroke="#63b8ff" points="316.31,-41.5 326.31,-38 316.31,-34.5 316.31,-41.5"/>
</a>
</g>
</g>
<!-- Node7 -->
<g id="Node000007" class="node">
<title>Node7</title>
<g id="a_Node000007"><a xlink:href="namespaceexamples_1_1crypto.html#a8e16e3bee50df8bd1b44e55fe8950e10" target="_top" xlink:title=" ">
<polygon fill="white" stroke="#666666" points="594.62,-20 473.62,-20 473.62,0 594.62,0 594.62,-20"/>
<text text-anchor="middle" x="534.12" y="-6.5" font-family="Helvetica,sans-Serif" font-size="10.00">examples.crypto.sell_all</text>
</a>
</g>
</g>
<!-- Node4&#45;&gt;Node7 -->
<g id="edge8_Node000004_Node000007" class="edge">
<title>Node4&#45;&gt;Node7</title>
<g id="a_edge8_Node000004_Node000007"><a xlink:title=" ">
<path fill="none" stroke="#63b8ff" d="M276.24,-27.51C292.63,-24.25 311.17,-21 328.25,-19 372.5,-13.82 422.45,-11.55 461.95,-10.59"/>
<polygon fill="#63b8ff" stroke="#63b8ff" points="461.89,-14.09 471.81,-10.37 461.74,-7.09 461.89,-14.09"/>
</a>
</g>
</g>
<!-- Node6&#45;&gt;Node5 -->
<g id="edge6_Node000006_Node000005" class="edge">
<title>Node6&#45;&gt;Node5</title>
<g id="a_edge6_Node000006_Node000005"><a xlink:title=" ">
<path fill="none" stroke="#63b8ff" d="M437.68,-44.86C445.46,-45.85 453.57,-46.88 461.63,-47.91"/>
<polygon fill="#63b8ff" stroke="#63b8ff" points="461.08,-51.36 471.45,-49.15 461.97,-44.42 461.08,-51.36"/>
</a>
</g>
</g>
<!-- Node6&#45;&gt;Node7 -->
<g id="edge7_Node000006_Node000007" class="edge">
<title>Node6&#45;&gt;Node7</title>
<g id="a_edge7_Node000006_Node000007"><a xlink:title=" ">
<path fill="none" stroke="#63b8ff" d="M437.68,-27.89C446.93,-26.16 456.64,-24.34 466.18,-22.55"/>
<polygon fill="#63b8ff" stroke="#63b8ff" points="466.59,-26.03 475.78,-20.75 465.3,-19.15 466.59,-26.03"/>
</a>
</g>
</g>
</g>
</svg>

<g id="navigator" transform="translate(0 0)" fill="#404254">
  <rect fill="#f2f5e9" fill-opacity="0.5" stroke="#606060" stroke-width=".5" x="0" y="0" width="60" height="60"/>
  <use id="zoomplus" xlink:href="#zoomPlus" x="17" y="9" onmousedown="handleZoom(evt,'in')"/>
  <use id="zoomminus" xlink:href="#zoomMin" x="42" y="9" onmousedown="handleZoom(evt,'out')"/>
  <use id="reset" xlink:href="#resetDef" x="30" y="36" onmousedown="handleReset()"/>
   <use id="arrowup" xlink:href="#arrowUp" x="0" y="0" onmousedown="handlePan(0,-1)"/>
  <use id="arrowright" xlink:href="#arrowRight" x="0" y="0" onmousedown="handlePan(1,0)"/>
  <use id="arrowdown" xlink:href="#arrowDown" x="0" y="0" onmousedown="handlePan(0,1)"/>
  <use id="arrowleft" xlink:href="#arrowLeft" x="0" y="0" onmousedown="handlePan(-1,0)"/>
</g>
<svg viewBox="0 0 15 15" width="100%" height="30px" preserveAspectRatio="xMaxYMin meet">
 <g id="arrow_out" transform="scale(0.3 0.3)">
  <a xlink:href="namespaceexamples_1_1crypto_a75d529296c6d83294ad1c37e55bd267f_cgraph_org.svg" target="_base">
   <rect id="button" ry="5" rx="5" y="6" x="6" height="38" width="38"
        fill="#f2f5e9" fill-opacity="0.5" stroke="#606060" stroke-width="1.0"/>
   <path id="arrow"
     d="M 11.500037,31.436501 C 11.940474,20.09759 22.043105,11.32322 32.158766,21.979434 L 37.068811,17.246167 C 37.068811,17.246167 37.088388,32 37.088388,32 L 22.160133,31.978069 C 22.160133,31.978069 26.997745,27.140456 26.997745,27.140456 C 18.528582,18.264221 13.291696,25.230495 11.500037,31.436501 z"
     style="fill:#404040;"/>
  </a>
 </g>
</svg>

<style type='text/css'>
<![CDATA[
[data-mouse-over-selected='false'] { opacity: 0.7; }
[data-mouse-over-selected='true']  { opacity: 1.0; }
]]>
</style>
<script type="application/ecmascript"><![CDATA[
document.addEventListener('DOMContentLoaded', (event) => {
  highlightEdges();
  highlightAdjacentNodes();
});
]]></script>
</svg>
