<?xml version="1.0" encoding="UTF-8" standalone="no"?>
<!DOCTYPE svg PUBLIC "-//W3C//DTD SVG 1.1//EN"
 "http://www.w3.org/Graphics/SVG/1.1/DTD/svg11.dtd">
<!-- Generated by graphviz version 12.2.1 (20241206.2353)
 -->
<!-- Title: examples.tdesign.real_spherical_harmonics Pages: 1 -->
<svg width="803pt" height="90pt"
 viewBox="0.00 0.00 802.75 90.00" xmlns="http://www.w3.org/2000/svg" xmlns:xlink="http://www.w3.org/1999/xlink">
<g id="graph0" class="graph" transform="scale(1 1) rotate(0) translate(4 86)">
<title>examples.tdesign.real_spherical_harmonics</title>
<!-- Node1 -->
<g id="Node000001" class="node">
<title>Node1</title>
<g id="a_Node000001"><a xlink:title="Compute fully normalized real spherical harmonics up to degree l_max using scipy.special....">
<polygon fill="#999999" stroke="#666666" points="794.75,-57 683.5,-57 683.5,-25 794.75,-25 794.75,-57"/>
<text text-anchor="start" x="691.5" y="-43.5" font-family="Helvetica,sans-Serif" font-size="10.00">examples.tdesign.real</text>
<text text-anchor="middle" x="739.12" y="-31.5" font-family="Helvetica,sans-Serif" font-size="10.00">_spherical_harmonics</text>
</a>
</g>
</g>
<!-- Node2 -->
<g id="Node000002" class="node">
<title>Node2</title>
<g id="a_Node000002"><a xlink:href="namespaceexamples_1_1tdesign.html#a1cb307dfea95e59f67161218e5a0ef8e" target="_top" xlink:title="Compute a symmetry measure for a set of points.">
<polygon fill="white" stroke="#666666" points="477,-51 338,-51 338,-31 477,-31 477,-51"/>
<text text-anchor="middle" x="407.5" y="-37.5" font-family="Helvetica,sans-Serif" font-size="10.00">examples.tdesign.symmetry</text>
</a>
</g>
</g>
<!-- Node1&#45;&gt;Node2 -->
<g id="edge1_Node000001_Node000002" class="edge">
<title>Node1&#45;&gt;Node2</title>
<g id="a_edge1_Node000001_Node000002"><a xlink:title=" ">
<path fill="none" stroke="#63b8ff" d="M671.62,-43.45C663.5,-43.68 655.31,-43.87 647.5,-44 587.73,-44.99 572.77,-44.86 513,-44 501.48,-43.83 489.24,-43.57 477.35,-43.26"/>
<polygon fill="#63b8ff" stroke="#63b8ff" points="671.61,-46.96 681.51,-43.16 671.41,-39.96 671.61,-46.96"/>
</a>
</g>
</g>
<!-- Node7 -->
<g id="Node000007" class="node">
<title>Node7</title>
<g id="a_Node000007"><a xlink:href="namespaceexamples_1_1tdesign.html#aaf9d7a51f34d459c87a877b260d6b27d" target="_top" xlink:title=" ">
<polygon fill="white" stroke="#666666" points="647.5,-35 513,-35 513,-3 647.5,-3 647.5,-35"/>
<text text-anchor="start" x="521" y="-21.5" font-family="Helvetica,sans-Serif" font-size="10.00">examples.tdesign.weighted</text>
<text text-anchor="middle" x="580.25" y="-9.5" font-family="Helvetica,sans-Serif" font-size="10.00">_spherical_harmonics</text>
</a>
</g>
</g>
<!-- Node1&#45;&gt;Node7 -->
<g id="edge7_Node000001_Node000007" class="edge">
<title>Node1&#45;&gt;Node7</title>
<g id="a_edge7_Node000001_Node000007"><a xlink:title=" ">
<path fill="none" stroke="#63b8ff" d="M672.12,-31.74C664.13,-30.62 655.96,-29.48 647.96,-28.36"/>
<polygon fill="#63b8ff" stroke="#63b8ff" points="671.37,-35.17 681.76,-33.1 672.34,-28.24 671.37,-35.17"/>
</a>
</g>
</g>
<!-- Node3 -->
<g id="Node000003" class="node">
<title>Node3</title>
<g id="a_Node000003"><a xlink:href="namespaceexamples_1_1tdesign.html#a8357e675a25643e47dc42c4957e28147" target="_top" xlink:title=" ">
<polygon fill="white" stroke="#666666" points="284.38,-82 185.88,-82 185.88,-50 284.38,-50 284.38,-82"/>
<text text-anchor="start" x="193.88" y="-68.5" font-family="Helvetica,sans-Serif" font-size="10.00">examples.tdesign.t</text>
<text text-anchor="middle" x="235.12" y="-56.5" font-family="Helvetica,sans-Serif" font-size="10.00">_design_error</text>
</a>
</g>
</g>
<!-- Node2&#45;&gt;Node3 -->
<g id="edge2_Node000002_Node000003" class="edge">
<title>Node2&#45;&gt;Node3</title>
<g id="a_edge2_Node000002_Node000003"><a xlink:title=" ">
<path fill="none" stroke="#63b8ff" d="M326.37,-52.76C312.17,-54.84 297.77,-56.95 284.78,-58.86"/>
<polygon fill="#63b8ff" stroke="#63b8ff" points="326.81,-56.23 336.2,-51.32 325.79,-49.31 326.81,-56.23"/>
</a>
</g>
</g>
<!-- Node5 -->
<g id="Node000005" class="node">
<title>Node5</title>
<g id="a_Node000005"><a xlink:href="namespaceexamples_1_1tdesign.html#ae536e1afa6d09f1d3d8354727738b2df" target="_top" xlink:title="Visualize points on the unit sphere.">
<polygon fill="white" stroke="#666666" points="302,-32 168.25,-32 168.25,0 302,0 302,-32"/>
<text text-anchor="start" x="176.25" y="-18.5" font-family="Helvetica,sans-Serif" font-size="10.00">examples.tdesign.visualize</text>
<text text-anchor="middle" x="235.12" y="-6.5" font-family="Helvetica,sans-Serif" font-size="10.00">_points</text>
</a>
</g>
</g>
<!-- Node2&#45;&gt;Node5 -->
<g id="edge4_Node000002_Node000005" class="edge">
<title>Node2&#45;&gt;Node5</title>
<g id="a_edge4_Node000002_Node000005"><a xlink:title=" ">
<path fill="none" stroke="#63b8ff" d="M326.41,-29.25C318.38,-28.07 310.29,-26.88 302.43,-25.73"/>
<polygon fill="#63b8ff" stroke="#63b8ff" points="325.79,-32.69 336.2,-30.68 326.81,-25.77 325.79,-32.69"/>
</a>
</g>
</g>
<!-- Node4 -->
<g id="Node000004" class="node">
<title>Node4</title>
<g id="a_Node000004"><a xlink:href="namespaceexamples_1_1tdesign.html#a2045c59f87224672cc3e092a27f3af23" target="_top" xlink:title=" ">
<polygon fill="white" stroke="#666666" points="132.25,-82 0,-82 0,-50 132.25,-50 132.25,-82"/>
<text text-anchor="start" x="8" y="-68.5" font-family="Helvetica,sans-Serif" font-size="10.00">examples.tdesign.optimize</text>
<text text-anchor="middle" x="66.12" y="-56.5" font-family="Helvetica,sans-Serif" font-size="10.00">_weighted</text>
</a>
</g>
</g>
<!-- Node3&#45;&gt;Node4 -->
<g id="edge3_Node000003_Node000004" class="edge">
<title>Node3&#45;&gt;Node4</title>
<g id="a_edge3_Node000003_Node000004"><a xlink:title=" ">
<path fill="none" stroke="#63b8ff" d="M174.66,-66C161.07,-66 146.55,-66 132.72,-66"/>
<polygon fill="#63b8ff" stroke="#63b8ff" points="174.31,-69.5 184.31,-66 174.31,-62.5 174.31,-69.5"/>
</a>
</g>
</g>
<!-- Node5&#45;&gt;Node4 -->
<g id="edge5_Node000005_Node000004" class="edge">
<title>Node5&#45;&gt;Node4</title>
<g id="a_edge5_Node000005_Node000004"><a xlink:title=" ">
<path fill="none" stroke="#63b8ff" d="M168.47,-35.66C153.16,-40.24 137.01,-45.08 122.22,-49.51"/>
<polygon fill="#63b8ff" stroke="#63b8ff" points="169.42,-39.03 177.99,-32.81 167.41,-32.32 169.42,-39.03"/>
</a>
</g>
</g>
<!-- Node6 -->
<g id="Node000006" class="node">
<title>Node6</title>
<g id="a_Node000006"><a xlink:href="namespaceexamples_1_1tdesign.html#afed335728de9256c19b963026d24a9c4" target="_top" xlink:title=" ">
<polygon fill="white" stroke="#666666" points="125.5,-32 6.75,-32 6.75,0 125.5,0 125.5,-32"/>
<text text-anchor="start" x="14.75" y="-18.5" font-family="Helvetica,sans-Serif" font-size="10.00">examples.tdesign.show</text>
<text text-anchor="middle" x="66.12" y="-6.5" font-family="Helvetica,sans-Serif" font-size="10.00">_results</text>
</a>
</g>
</g>
<!-- Node5&#45;&gt;Node6 -->
<g id="edge6_Node000005_Node000006" class="edge">
<title>Node5&#45;&gt;Node6</title>
<g id="a_edge6_Node000005_Node000006"><a xlink:title=" ">
<path fill="none" stroke="#63b8ff" d="M156.89,-16C146.47,-16 135.91,-16 125.88,-16"/>
<polygon fill="#63b8ff" stroke="#63b8ff" points="156.61,-19.5 166.61,-16 156.61,-12.5 156.61,-19.5"/>
</a>
</g>
</g>
<!-- Node7&#45;&gt;Node2 -->
<g id="edge8_Node000007_Node000002" class="edge">
<title>Node7&#45;&gt;Node2</title>
<g id="a_edge8_Node000007_Node000002"><a xlink:title=" ">
<path fill="none" stroke="#63b8ff" d="M501.47,-29.02C493.42,-30.06 485.29,-31.11 477.36,-32.13"/>
<polygon fill="#63b8ff" stroke="#63b8ff" points="501.77,-32.51 511.24,-27.76 500.88,-25.57 501.77,-32.51"/>
</a>
</g>
</g>
</g>
</svg>
