<?xml version="1.0" encoding="UTF-8" standalone="no"?>
<!DOCTYPE svg PUBLIC "-//W3C//DTD SVG 1.1//EN"
 "http://www.w3.org/Graphics/SVG/1.1/DTD/svg11.dtd">
<!-- Generated by graphviz version 12.2.1 (20241206.2353)
 -->
<!-- Title: examples.scheduling.select Pages: 1 -->
<svg width="704pt" height="128pt"
 viewBox="0.00 0.00 703.50 128.00" xmlns="http://www.w3.org/2000/svg" xmlns:xlink="http://www.w3.org/1999/xlink">
<g id="graph0" class="graph" transform="scale(1 1) rotate(0) translate(4 124)">
<title>examples.scheduling.select</title>
<!-- Node1 -->
<g id="Node000001" class="node">
<title>Node1</title>
<g id="a_Node000001"><a xlink:title=" ">
<polygon fill="#999999" stroke="#666666" points="136.75,-70 0,-70 0,-50 136.75,-50 136.75,-70"/>
<text text-anchor="middle" x="68.38" y="-56.5" font-family="Helvetica,sans-Serif" font-size="10.00">examples.scheduling.select</text>
</a>
</g>
</g>
<!-- Node2 -->
<g id="Node000002" class="node">
<title>Node2</title>
<g id="a_Node000002"><a xlink:href="namespaceexamples_1_1scheduling.html#afe388874c2fafb820cc0d1a456332d53" target="_top" xlink:title=" ">
<polygon fill="white" stroke="#666666" points="316.62,-120 179.88,-120 179.88,-88 316.62,-88 316.62,-120"/>
<text text-anchor="start" x="187.88" y="-106.5" font-family="Helvetica,sans-Serif" font-size="10.00">examples.scheduling.dyson</text>
<text text-anchor="middle" x="248.25" y="-94.5" font-family="Helvetica,sans-Serif" font-size="10.00">_stations</text>
</a>
</g>
</g>
<!-- Node1&#45;&gt;Node2 -->
<g id="edge1_Node000001_Node000002" class="edge">
<title>Node1&#45;&gt;Node2</title>
<g id="a_edge1_Node000001_Node000002"><a xlink:title=" ">
<path fill="none" stroke="#63b8ff" d="M111.53,-70.43C128.95,-74.74 149.72,-79.88 169.71,-84.82"/>
<polygon fill="#63b8ff" stroke="#63b8ff" points="168.7,-88.17 179.24,-87.18 170.38,-81.38 168.7,-88.17"/>
</a>
</g>
</g>
<!-- Node3 -->
<g id="Node000003" class="node">
<title>Node3</title>
<g id="a_Node000003"><a xlink:href="namespaceexamples_1_1scheduling.html#a5473acc487e865227b4f1d9ac06d8102" target="_top" xlink:title=" ">
<polygon fill="white" stroke="#666666" points="319.25,-70 177.25,-70 177.25,-50 319.25,-50 319.25,-70"/>
<text text-anchor="middle" x="248.25" y="-56.5" font-family="Helvetica,sans-Serif" font-size="10.00">examples.scheduling.timings</text>
</a>
</g>
</g>
<!-- Node1&#45;&gt;Node3 -->
<g id="edge2_Node000001_Node000003" class="edge">
<title>Node1&#45;&gt;Node3</title>
<g id="a_edge2_Node000001_Node000003"><a xlink:title=" ">
<path fill="none" stroke="#63b8ff" d="M137.13,-60C146.41,-60 156.02,-60 165.52,-60"/>
<polygon fill="#63b8ff" stroke="#63b8ff" points="165.51,-63.5 175.51,-60 165.51,-56.5 165.51,-63.5"/>
</a>
</g>
</g>
<!-- Node4 -->
<g id="Node000004" class="node">
<title>Node4</title>
<g id="a_Node000004"><a xlink:href="namespaceexamples_1_1scheduling.html#a65b621b377aebb2c8a0b9af590aa280d" target="_top" xlink:title=" ">
<polygon fill="white" stroke="#666666" points="323.75,-32 172.75,-32 172.75,0 323.75,0 323.75,-32"/>
<text text-anchor="start" x="180.75" y="-18.5" font-family="Helvetica,sans-Serif" font-size="10.00">examples.scheduling.trajectory</text>
<text text-anchor="middle" x="248.25" y="-6.5" font-family="Helvetica,sans-Serif" font-size="10.00">_selection</text>
</a>
</g>
</g>
<!-- Node1&#45;&gt;Node4 -->
<g id="edge3_Node000001_Node000004" class="edge">
<title>Node1&#45;&gt;Node4</title>
<g id="a_edge3_Node000001_Node000004"><a xlink:title=" ">
<path fill="none" stroke="#63b8ff" d="M111.53,-49.57C128.95,-45.26 149.72,-40.12 169.71,-35.18"/>
<polygon fill="#63b8ff" stroke="#63b8ff" points="170.38,-38.62 179.24,-32.82 168.7,-31.83 170.38,-38.62"/>
</a>
</g>
</g>
<!-- Node5 -->
<g id="Node000005" class="node">
<title>Node5</title>
<g id="a_Node000005"><a xlink:href="namespaceexamples_1_1scheduling.html#a9b78175a9bd193289a2db7a992840231" target="_top" xlink:title=" ">
<polygon fill="white" stroke="#666666" points="508.5,-26 359.75,-26 359.75,-6 508.5,-6 508.5,-26"/>
<text text-anchor="middle" x="434.12" y="-12.5" font-family="Helvetica,sans-Serif" font-size="10.00">examples.scheduling.disjoined</text>
</a>
</g>
</g>
<!-- Node4&#45;&gt;Node5 -->
<g id="edge4_Node000004_Node000005" class="edge">
<title>Node4&#45;&gt;Node5</title>
<g id="a_edge4_Node000004_Node000005"><a xlink:title=" ">
<path fill="none" stroke="#63b8ff" d="M324.04,-16C331.95,-16 340.03,-16 348.04,-16"/>
<polygon fill="#63b8ff" stroke="#63b8ff" points="347.78,-19.5 357.78,-16 347.78,-12.5 347.78,-19.5"/>
</a>
</g>
</g>
<!-- Node6 -->
<g id="Node000006" class="node">
<title>Node6</title>
<g id="a_Node000006"><a xlink:href="namespaceexamples_1_1scheduling.html#a171925bee0250e0755f9521ef6756bc7" target="_top" xlink:title=" ">
<polygon fill="white" stroke="#666666" points="695.5,-26 544.5,-26 544.5,-6 695.5,-6 695.5,-26"/>
<text text-anchor="middle" x="620" y="-12.5" font-family="Helvetica,sans-Serif" font-size="10.00">examples.scheduling.next_free</text>
</a>
</g>
</g>
<!-- Node5&#45;&gt;Node6 -->
<g id="edge5_Node000005_Node000006" class="edge">
<title>Node5&#45;&gt;Node6</title>
<g id="a_edge5_Node000005_Node000006"><a xlink:title=" ">
<path fill="none" stroke="#63b8ff" d="M508.85,-16C516.73,-16 524.8,-16 532.8,-16"/>
<polygon fill="#63b8ff" stroke="#63b8ff" points="532.54,-19.5 542.54,-16 532.54,-12.5 532.54,-19.5"/>
</a>
</g>
</g>
</g>
</svg>
