<?xml version="1.0" encoding="UTF-8" standalone="no"?>
<!DOCTYPE svg PUBLIC "-//W3C//DTD SVG 1.1//EN"
 "http://www.w3.org/Graphics/SVG/1.1/DTD/svg11.dtd">
<!-- Generated by graphviz version 12.2.1 (20241206.2353)
 -->
<!-- Title: fcmaes.journal.message_to_json Pages: 1 -->
<!--zoomable 298 -->

<svg id="main" version="1.1" xmlns="http://www.w3.org/2000/svg" xmlns:xlink="http://www.w3.org/1999/xlink" xml:space="preserve" onload="init(evt)">

<style type="text/css"><![CDATA[
.node, .edge {opacity: 0.7;}
.node.selected, .edge.selected {opacity: 1;}
.edge:hover path { stroke: red; }
.edge:hover polygon { stroke: red; fill: red; }
]]></style>

<defs>
  <circle id="rim" cx="0" cy="0" r="7"/>
  <circle id="rim2" cx="0" cy="0" r="3.5"/>
  <g id="zoomPlus">
    <use xlink:href="#rim" fill="#404040"><set attributeName="fill" to="#808080" begin="zoomplus.mouseover" end="zoomplus.mouseout"/></use>
    <path d="M-4,0h8M0,-4v8" fill="none" stroke="white" stroke-width="1.5" pointer-events="none"/>
  </g>
  <g id="zoomMin">
    <use xlink:href="#rim" fill="#404040"><set attributeName="fill" to="#808080" begin="zoomminus.mouseover" end="zoomminus.mouseout"/></use>
    <path d="M-4,0h8" fill="none" stroke="white" stroke-width="1.5" pointer-events="none"/>
  </g>
  <g id="arrowUp" transform="translate(30 24)">
    <use xlink:href="#rim"/>
    <path pointer-events="none" fill="none" stroke="white" stroke-width="1.5" d="M0,-3.0v7 M-2.5,-0.5L0,-3.0L2.5,-0.5"/>
  </g>
  <g id="arrowRight" transform="rotate(90) translate(36 -43)">
    <use xlink:href="#rim"/>
    <path pointer-events="none" fill="none" stroke="white" stroke-width="1.5" d="M0,-3.0v7 M-2.5,-0.5L0,-3.0L2.5,-0.5"/>
  </g>
  <g id="arrowDown" transform="rotate(180) translate(-30 -48)">
    <use xlink:href="#rim"/>
    <path pointer-events="none" fill="none" stroke="white" stroke-width="1.5" d="M0,-3.0v7 M-2.5,-0.5L0,-3.0L2.5,-0.5"/>
  </g>
  <g id="arrowLeft" transform="rotate(270) translate(-36 17)">
    <use xlink:href="#rim"/>
    <path pointer-events="none" fill="none" stroke="white" stroke-width="1.5" d="M0,-3.0v7 M-2.5,-0.5L0,-3.0L2.5,-0.5"/>
  </g>
  <g id="resetDef">
    <use xlink:href="#rim2" fill="#404040"><set attributeName="fill" to="#808080" begin="reset.mouseover" end="reset.mouseout"/></use>
  </g>
</defs>
<script type="application/ecmascript">
var viewWidth = 834;
var viewHeight = 298;
var sectionId = 'dynsection-1';
</script>
<script type="application/ecmascript" xlink:href="svg.min.js"/>
<svg id="graph" class="graph">
<g id="viewport">
<title>fcmaes.journal.message_to_json</title>
<!-- Node1 -->
<g id="Node000001" class="node">
<title>Node1</title>
<g id="a_Node000001"><a xlink:title="Converts a given message object to its JSON representation.">
<polygon fill="#999999" stroke="#666666" points="825.5,-192 703,-192 703,-160 825.5,-160 825.5,-192"/>
<text text-anchor="start" x="711" y="-178.5" font-family="Helvetica,sans-Serif" font-size="10.00">fcmaes.journal.message</text>
<text text-anchor="middle" x="764.25" y="-166.5" font-family="Helvetica,sans-Serif" font-size="10.00">_to_json</text>
</a>
</g>
</g>
<!-- Node2 -->
<g id="Node000002" class="node">
<title>Node2</title>
<g id="a_Node000002"><a xlink:href="namespacefcmaes_1_1journal.html#a10dd7671556c1ec184e8402909fead3e" target="_top" xlink:title="Creates and returns a JSON representation of a study start message.">
<polygon fill="white" stroke="#666666" points="667,-281 560.25,-281 560.25,-249 667,-249 667,-281"/>
<text text-anchor="start" x="568.25" y="-267.5" font-family="Helvetica,sans-Serif" font-size="10.00">fcmaes.journal.study</text>
<text text-anchor="middle" x="613.62" y="-255.5" font-family="Helvetica,sans-Serif" font-size="10.00">_start</text>
</a>
</g>
</g>
<!-- Node1&#45;&gt;Node2 -->
<g id="edge1_Node000001_Node000002" class="edge">
<title>Node1&#45;&gt;Node2</title>
<g id="a_edge1_Node000001_Node000002"><a xlink:title=" ">
<path fill="none" stroke="#63b8ff" d="M726.41,-198.06C700.25,-213.73 665.69,-234.42 641.96,-248.63"/>
<polygon fill="#63b8ff" stroke="#63b8ff" points="727.91,-201.24 734.69,-193.1 724.31,-195.24 727.91,-201.24"/>
</a>
</g>
</g>
<!-- Node4 -->
<g id="Node000004" class="node">
<title>Node4</title>
<g id="a_Node000004"><a xlink:href="namespacefcmaes_1_1journal.html#ab08848e83cf71c33842407ee31354411" target="_top" xlink:title="Generates a JSON message containing trial parameter details.">
<polygon fill="white" stroke="#666666" points="662.88,-217 564.38,-217 564.38,-185 662.88,-185 662.88,-217"/>
<text text-anchor="start" x="572.38" y="-203.5" font-family="Helvetica,sans-Serif" font-size="10.00">fcmaes.journal.trial</text>
<text text-anchor="middle" x="613.62" y="-191.5" font-family="Helvetica,sans-Serif" font-size="10.00">_param</text>
</a>
</g>
</g>
<!-- Node1&#45;&gt;Node4 -->
<g id="edge3_Node000001_Node000004" class="edge">
<title>Node1&#45;&gt;Node4</title>
<g id="a_edge3_Node000001_Node000004"><a xlink:title=" ">
<path fill="none" stroke="#63b8ff" d="M691.57,-188.06C681.96,-189.67 672.28,-191.3 663.19,-192.83"/>
<polygon fill="#63b8ff" stroke="#63b8ff" points="692.03,-191.53 701.31,-186.42 690.86,-184.63 692.03,-191.53"/>
</a>
</g>
</g>
<!-- Node12 -->
<g id="Node000012" class="node">
<title>Node12</title>
<g id="a_Node000012"><a xlink:href="namespacefcmaes_1_1journal.html#a7fd5c2a880bb6da8e4e2e42790dc9430" target="_top" xlink:title="Starts a trial by recording the worker ID, study ID, and the current timestamp, and generates a JSON ...">
<polygon fill="white" stroke="#666666" points="662.88,-76 564.38,-76 564.38,-44 662.88,-44 662.88,-76"/>
<text text-anchor="start" x="572.38" y="-62.5" font-family="Helvetica,sans-Serif" font-size="10.00">fcmaes.journal.trial</text>
<text text-anchor="middle" x="613.62" y="-50.5" font-family="Helvetica,sans-Serif" font-size="10.00">_start</text>
</a>
</g>
</g>
<!-- Node1&#45;&gt;Node12 -->
<g id="edge11_Node000001_Node000012" class="edge">
<title>Node1&#45;&gt;Node12</title>
<g id="a_edge11_Node000001_Node000012"><a xlink:title=" ">
<path fill="none" stroke="#63b8ff" d="M733.39,-152.69C704.35,-130.03 661.01,-96.2 635.5,-76.29"/>
<polygon fill="#63b8ff" stroke="#63b8ff" points="731.04,-155.3 741.08,-158.69 735.35,-149.78 731.04,-155.3"/>
</a>
</g>
</g>
<!-- Node16 -->
<g id="Node000016" class="node">
<title>Node16</title>
<g id="a_Node000016"><a xlink:href="namespacefcmaes_1_1journal.html#a968c87aa2fb6e2e186e221f834d63552" target="_top" xlink:title="Creates and returns a JSON representation of a trial value message.">
<polygon fill="white" stroke="#666666" points="662.88,-167 564.38,-167 564.38,-135 662.88,-135 662.88,-167"/>
<text text-anchor="start" x="572.38" y="-153.5" font-family="Helvetica,sans-Serif" font-size="10.00">fcmaes.journal.trial</text>
<text text-anchor="middle" x="613.62" y="-141.5" font-family="Helvetica,sans-Serif" font-size="10.00">_value</text>
</a>
</g>
</g>
<!-- Node1&#45;&gt;Node16 -->
<g id="edge16_Node000001_Node000016" class="edge">
<title>Node1&#45;&gt;Node16</title>
<g id="a_edge16_Node000001_Node000016"><a xlink:title=" ">
<path fill="none" stroke="#63b8ff" d="M691.57,-163.94C681.96,-162.33 672.28,-160.7 663.19,-159.17"/>
<polygon fill="#63b8ff" stroke="#63b8ff" points="690.86,-167.37 701.31,-165.58 692.03,-160.47 690.86,-167.37"/>
</a>
</g>
</g>
<!-- Node3 -->
<g id="Node000003" class="node">
<title>Node3</title>
<g id="a_Node000003"><a xlink:href="classfcmaes_1_1journal_1_1_journal.html#acbbc07226630aecfb75ee29f74077fc7" target="_top" xlink:title="Writes the start of a study to a file.">
<polygon fill="white" stroke="#666666" points="522.75,-290 381.5,-290 381.5,-270 522.75,-270 522.75,-290"/>
<text text-anchor="middle" x="452.12" y="-276.5" font-family="Helvetica,sans-Serif" font-size="10.00">fcmaes.journal.Journal.study</text>
</a>
</g>
</g>
<!-- Node2&#45;&gt;Node3 -->
<g id="edge2_Node000002_Node000003" class="edge">
<title>Node2&#45;&gt;Node3</title>
<g id="a_edge2_Node000002_Node000003"><a xlink:title=" ">
<path fill="none" stroke="#63b8ff" d="M548.67,-271.01C540.26,-271.81 531.6,-272.62 523.09,-273.42"/>
<polygon fill="#63b8ff" stroke="#63b8ff" points="548.82,-274.52 558.45,-270.09 548.17,-267.55 548.82,-274.52"/>
</a>
</g>
</g>
<!-- Node5 -->
<g id="Node000005" class="node">
<title>Node5</title>
<g id="a_Node000005"><a xlink:href="classfcmaes_1_1journal_1_1_journal.html#a071316e37bbbe42be6c9dda9bfe0a7d7" target="_top" xlink:title="Writes a parameter value to the associated file for a given trial and worker.">
<polygon fill="white" stroke="#666666" points="524.25,-252 380,-252 380,-232 524.25,-232 524.25,-252"/>
<text text-anchor="middle" x="452.12" y="-238.5" font-family="Helvetica,sans-Serif" font-size="10.00">fcmaes.journal.Journal.param</text>
</a>
</g>
</g>
<!-- Node4&#45;&gt;Node5 -->
<g id="edge4_Node000004_Node000005" class="edge">
<title>Node4&#45;&gt;Node5</title>
<g id="a_edge4_Node000004_Node000005"><a xlink:title=" ">
<path fill="none" stroke="#63b8ff" d="M552.86,-216.36C533.15,-221.43 511.71,-226.94 493.77,-231.55"/>
<polygon fill="#63b8ff" stroke="#63b8ff" points="553.62,-219.78 562.44,-213.9 551.88,-213 553.62,-219.78"/>
</a>
</g>
</g>
<!-- Node8 -->
<g id="Node000008" class="node">
<title>Node8</title>
<g id="a_Node000008"><a xlink:href="classfcmaes_1_1journal_1_1journal__wrapper.html#a5adc885590326f2a0989cbef083646e2" target="_top" xlink:title="Stores the parameters of a specific trial for a worker.">
<polygon fill="white" stroke="#666666" points="507.75,-214 396.5,-214 396.5,-182 507.75,-182 507.75,-214"/>
<text text-anchor="start" x="404.5" y="-200.5" font-family="Helvetica,sans-Serif" font-size="10.00">fcmaes.journal.journal</text>
<text text-anchor="middle" x="452.12" y="-188.5" font-family="Helvetica,sans-Serif" font-size="10.00">_wrapper.store_x</text>
</a>
</g>
</g>
<!-- Node4&#45;&gt;Node8 -->
<g id="edge7_Node000004_Node000008" class="edge">
<title>Node4&#45;&gt;Node8</title>
<g id="a_edge7_Node000004_Node000008"><a xlink:title=" ">
<path fill="none" stroke="#63b8ff" d="M552.49,-199.87C537.97,-199.6 522.52,-199.31 508.24,-199.04"/>
<polygon fill="#63b8ff" stroke="#63b8ff" points="552.33,-203.37 562.39,-200.06 552.46,-196.37 552.33,-203.37"/>
</a>
</g>
</g>
<!-- Node6 -->
<g id="Node000006" class="node">
<title>Node6</title>
<g id="a_Node000006"><a xlink:href="classfcmaes_1_1journal_1_1_journal.html#a7f1df03b226966e2c112e449fe31747b" target="_top" xlink:title="Writes parameter values for a given trial and worker.">
<polygon fill="white" stroke="#666666" points="341.38,-252 192.62,-252 192.62,-232 341.38,-232 341.38,-252"/>
<text text-anchor="middle" x="267" y="-238.5" font-family="Helvetica,sans-Serif" font-size="10.00">fcmaes.journal.Journal.write_x</text>
</a>
</g>
</g>
<!-- Node5&#45;&gt;Node6 -->
<g id="edge5_Node000005_Node000006" class="edge">
<title>Node5&#45;&gt;Node6</title>
<g id="a_edge5_Node000005_Node000006"><a xlink:title=" ">
<path fill="none" stroke="#63b8ff" d="M368.05,-242C359.25,-242 350.34,-242 341.65,-242"/>
<polygon fill="#63b8ff" stroke="#63b8ff" points="368.02,-245.5 378.02,-242 368.02,-238.5 368.02,-245.5"/>
</a>
</g>
</g>
<!-- Node7 -->
<g id="Node000007" class="node">
<title>Node7</title>
<g id="a_Node000007"><a xlink:href="classfcmaes_1_1journal_1_1_journal.html#a745cc0929536fec00ae35f51264a1af1" target="_top" xlink:title="Writes a set of parameter values (xs) for different workers associated with a trial.">
<polygon fill="white" stroke="#666666" points="154,-252 0,-252 0,-232 154,-232 154,-252"/>
<text text-anchor="middle" x="77" y="-238.5" font-family="Helvetica,sans-Serif" font-size="10.00">fcmaes.journal.Journal.write_xs</text>
</a>
</g>
</g>
<!-- Node6&#45;&gt;Node7 -->
<g id="edge6_Node000006_Node000007" class="edge">
<title>Node6&#45;&gt;Node7</title>
<g id="a_edge6_Node000006_Node000007"><a xlink:title=" ">
<path fill="none" stroke="#63b8ff" d="M180.75,-242C171.94,-242 163.03,-242 154.33,-242"/>
<polygon fill="#63b8ff" stroke="#63b8ff" points="180.72,-245.5 190.72,-242 180.72,-238.5 180.72,-245.5"/>
</a>
</g>
</g>
<!-- Node9 -->
<g id="Node000009" class="node">
<title>Node9</title>
<g id="a_Node000009"><a xlink:href="classfcmaes_1_1journal_1_1journal__wrapper.html#ad219e74b48d4588e84683ec326143a48" target="_top" xlink:title="Executes the callable functionality, managing and processing a batch of inputs and outputs concurrent...">
<polygon fill="white" stroke="#666666" points="322.62,-126 211.38,-126 211.38,-94 322.62,-94 322.62,-126"/>
<text text-anchor="start" x="219.38" y="-112.5" font-family="Helvetica,sans-Serif" font-size="10.00">fcmaes.journal.journal</text>
<text text-anchor="middle" x="267" y="-100.5" font-family="Helvetica,sans-Serif" font-size="10.00">_wrapper.__call__</text>
</a>
</g>
</g>
<!-- Node8&#45;&gt;Node9 -->
<g id="edge8_Node000008_Node000009" class="edge">
<title>Node8&#45;&gt;Node9</title>
<g id="a_edge8_Node000008_Node000009"><a xlink:title=" ">
<path fill="none" stroke="#63b8ff" d="M386.12,-176.67C384.02,-175.5 381.97,-174.28 380,-173 360.48,-160.34 363.65,-147.46 344,-135 337.55,-130.91 330.36,-127.42 323.05,-124.47"/>
<polygon fill="#63b8ff" stroke="#63b8ff" points="384.4,-179.72 394.91,-181.07 387.53,-173.46 384.4,-179.72"/>
</a>
</g>
</g>
<!-- Node10 -->
<g id="Node000010" class="node">
<title>Node10</title>
<g id="a_Node000010"><a xlink:href="classhbv_1_1hbv.html#a89aea998d9546dc3465bf46fbee95689" target="_top" xlink:title=" ">
<polygon fill="white" stroke="#666666" points="125.5,-101 28.5,-101 28.5,-81 125.5,-81 125.5,-101"/>
<text text-anchor="middle" x="77" y="-87.5" font-family="Helvetica,sans-Serif" font-size="10.00">hbv.hbv.qd_fitness</text>
</a>
</g>
</g>
<!-- Node9&#45;&gt;Node10 -->
<g id="edge9_Node000009_Node000010" class="edge">
<title>Node9&#45;&gt;Node10</title>
<g id="a_edge9_Node000009_Node000010"><a xlink:title=" ">
<path fill="none" stroke="#63b8ff" d="M199.78,-103.31C175.44,-100.85 148.36,-98.11 125.93,-95.84"/>
<polygon fill="#63b8ff" stroke="#63b8ff" points="199.31,-106.78 209.61,-104.3 200.01,-99.81 199.31,-106.78"/>
</a>
</g>
</g>
<!-- Node11 -->
<g id="Node000011" class="node">
<title>Node11</title>
<g id="a_Node000011"><a xlink:href="classlrgv_1_1lrgv.html#a527b9b7a7927721b5320ab433bf75aea" target="_top" xlink:title=" ">
<polygon fill="white" stroke="#666666" points="125.5,-139 28.5,-139 28.5,-119 125.5,-119 125.5,-139"/>
<text text-anchor="middle" x="77" y="-125.5" font-family="Helvetica,sans-Serif" font-size="10.00">lrgv.lrgv.qd_fitness</text>
</a>
</g>
</g>
<!-- Node9&#45;&gt;Node11 -->
<g id="edge10_Node000009_Node000011" class="edge">
<title>Node9&#45;&gt;Node11</title>
<g id="a_edge10_Node000009_Node000011"><a xlink:title=" ">
<path fill="none" stroke="#63b8ff" d="M199.78,-116.69C175.44,-119.15 148.36,-121.89 125.93,-124.16"/>
<polygon fill="#63b8ff" stroke="#63b8ff" points="200.01,-120.19 209.61,-115.7 199.31,-113.22 200.01,-120.19"/>
</a>
</g>
</g>
<!-- Node13 -->
<g id="Node000013" class="node">
<title>Node13</title>
<g id="a_Node000013"><a xlink:href="classfcmaes_1_1journal_1_1journal__wrapper.html#aa7a757ccc4986688a24911071e68e034" target="_top" xlink:title="Stores the start of a trial by appending the formatted trial start string to the starts collection.">
<polygon fill="white" stroke="#666666" points="507.75,-76 396.5,-76 396.5,-44 507.75,-44 507.75,-76"/>
<text text-anchor="start" x="404.5" y="-62.5" font-family="Helvetica,sans-Serif" font-size="10.00">fcmaes.journal.journal</text>
<text text-anchor="middle" x="452.12" y="-50.5" font-family="Helvetica,sans-Serif" font-size="10.00">_wrapper.store_start</text>
</a>
</g>
</g>
<!-- Node12&#45;&gt;Node13 -->
<g id="edge12_Node000012_Node000013" class="edge">
<title>Node12&#45;&gt;Node13</title>
<g id="a_edge12_Node000012_Node000013"><a xlink:title=" ">
<path fill="none" stroke="#63b8ff" d="M552.49,-60C537.97,-60 522.52,-60 508.24,-60"/>
<polygon fill="#63b8ff" stroke="#63b8ff" points="552.39,-63.5 562.39,-60 552.39,-56.5 552.39,-63.5"/>
</a>
</g>
</g>
<!-- Node14 -->
<g id="Node000014" class="node">
<title>Node14</title>
<g id="a_Node000014"><a xlink:href="classfcmaes_1_1journal_1_1_journal.html#aeefe1aea935c585f4bbed751cfd8332f" target="_top" xlink:title="Initiates a trial session by logging the start of the trial and ensuring that the log data is immedia...">
<polygon fill="white" stroke="#666666" points="518.62,-26 385.62,-26 385.62,-6 518.62,-6 518.62,-26"/>
<text text-anchor="middle" x="452.12" y="-12.5" font-family="Helvetica,sans-Serif" font-size="10.00">fcmaes.journal.Journal.trial</text>
</a>
</g>
</g>
<!-- Node12&#45;&gt;Node14 -->
<g id="edge14_Node000012_Node000014" class="edge">
<title>Node12&#45;&gt;Node14</title>
<g id="a_edge14_Node000012_Node000014"><a xlink:title=" ">
<path fill="none" stroke="#63b8ff" d="M553.25,-43.08C543.57,-40.35 533.63,-37.58 524.25,-35 514.02,-32.19 502.95,-29.2 492.65,-26.45"/>
<polygon fill="#63b8ff" stroke="#63b8ff" points="552.01,-46.36 562.58,-45.71 553.91,-39.62 552.01,-46.36"/>
</a>
</g>
</g>
<!-- Node13&#45;&gt;Node9 -->
<g id="edge13_Node000013_Node000009" class="edge">
<title>Node13&#45;&gt;Node9</title>
<g id="a_edge13_Node000013_Node000009"><a xlink:title=" ">
<path fill="none" stroke="#63b8ff" d="M385.35,-77.96C364.89,-83.55 342.55,-89.65 322.9,-95.01"/>
<polygon fill="#63b8ff" stroke="#63b8ff" points="386,-81.41 394.72,-75.4 384.15,-74.66 386,-81.41"/>
</a>
</g>
</g>
<!-- Node15 -->
<g id="Node000015" class="node">
<title>Node15</title>
<g id="a_Node000015"><a xlink:href="classfcmaes_1_1journal_1_1_journal.html#aef6c2fd765119c081c3541b04831dedc" target="_top" xlink:title="Executes a series of trials for a given study ID.">
<polygon fill="white" stroke="#666666" points="336.12,-32 197.88,-32 197.88,0 336.12,0 336.12,-32"/>
<text text-anchor="start" x="205.88" y="-18.5" font-family="Helvetica,sans-Serif" font-size="10.00">fcmaes.journal.Journal.write</text>
<text text-anchor="middle" x="267" y="-6.5" font-family="Helvetica,sans-Serif" font-size="10.00">_starts</text>
</a>
</g>
</g>
<!-- Node14&#45;&gt;Node15 -->
<g id="edge15_Node000014_Node000015" class="edge">
<title>Node14&#45;&gt;Node15</title>
<g id="a_edge15_Node000014_Node000015"><a xlink:title=" ">
<path fill="none" stroke="#63b8ff" d="M373.94,-16C361.46,-16 348.61,-16 336.35,-16"/>
<polygon fill="#63b8ff" stroke="#63b8ff" points="373.76,-19.5 383.76,-16 373.76,-12.5 373.76,-19.5"/>
</a>
</g>
</g>
<!-- Node17 -->
<g id="Node000017" class="node">
<title>Node17</title>
<g id="a_Node000017"><a xlink:href="classfcmaes_1_1journal_1_1journal__wrapper.html#a36307cef398f9219427d7c4802c7079a" target="_top" xlink:title="Stores the provided y value, associated with a worker and trial ID, in the list of ys.">
<polygon fill="white" stroke="#666666" points="507.75,-126 396.5,-126 396.5,-94 507.75,-94 507.75,-126"/>
<text text-anchor="start" x="404.5" y="-112.5" font-family="Helvetica,sans-Serif" font-size="10.00">fcmaes.journal.journal</text>
<text text-anchor="middle" x="452.12" y="-100.5" font-family="Helvetica,sans-Serif" font-size="10.00">_wrapper.store_y</text>
</a>
</g>
</g>
<!-- Node16&#45;&gt;Node17 -->
<g id="edge17_Node000016_Node000017" class="edge">
<title>Node16&#45;&gt;Node17</title>
<g id="a_edge17_Node000016_Node000017"><a xlink:title=" ">
<path fill="none" stroke="#63b8ff" d="M552.92,-135.65C538.28,-131.89 522.66,-127.87 508.24,-124.17"/>
<polygon fill="#63b8ff" stroke="#63b8ff" points="551.88,-139 562.44,-138.1 553.62,-132.22 551.88,-139"/>
</a>
</g>
</g>
<!-- Node18 -->
<g id="Node000018" class="node">
<title>Node18</title>
<g id="a_Node000018"><a xlink:href="classfcmaes_1_1journal_1_1_journal.html#a657e3ac3b8ab3aa80bed8190a69e753d" target="_top" xlink:title="Writes the trial value to a file and ensures that data is written to disk.">
<polygon fill="white" stroke="#666666" points="522.38,-164 381.88,-164 381.88,-144 522.38,-144 522.38,-164"/>
<text text-anchor="middle" x="452.12" y="-150.5" font-family="Helvetica,sans-Serif" font-size="10.00">fcmaes.journal.Journal.value</text>
</a>
</g>
</g>
<!-- Node16&#45;&gt;Node18 -->
<g id="edge19_Node000016_Node000018" class="edge">
<title>Node16&#45;&gt;Node18</title>
<g id="a_edge19_Node000016_Node000018"><a xlink:title=" ">
<path fill="none" stroke="#63b8ff" d="M552.66,-152.13C542.88,-152.31 532.67,-152.5 522.69,-152.69"/>
<polygon fill="#63b8ff" stroke="#63b8ff" points="552.46,-155.63 562.39,-151.94 552.33,-148.63 552.46,-155.63"/>
</a>
</g>
</g>
<!-- Node17&#45;&gt;Node9 -->
<g id="edge18_Node000017_Node000009" class="edge">
<title>Node17&#45;&gt;Node9</title>
<g id="a_edge18_Node000017_Node000009"><a xlink:title=" ">
<path fill="none" stroke="#63b8ff" d="M384.79,-110C364.48,-110 342.37,-110 322.9,-110"/>
<polygon fill="#63b8ff" stroke="#63b8ff" points="384.67,-113.5 394.67,-110 384.67,-106.5 384.67,-113.5"/>
</a>
</g>
</g>
<!-- Node19 -->
<g id="Node000019" class="node">
<title>Node19</title>
<g id="a_Node000019"><a xlink:href="classfcmaes_1_1journal_1_1_journal.html#a7dd993c2fa0347ea449a35ec8c953120" target="_top" xlink:title="Writes a list of values to corresponding trial IDs for all workers.">
<polygon fill="white" stroke="#666666" points="344,-164 190,-164 190,-144 344,-144 344,-164"/>
<text text-anchor="middle" x="267" y="-150.5" font-family="Helvetica,sans-Serif" font-size="10.00">fcmaes.journal.Journal.write_ys</text>
</a>
</g>
</g>
<!-- Node18&#45;&gt;Node19 -->
<g id="edge20_Node000018_Node000019" class="edge">
<title>Node18&#45;&gt;Node19</title>
<g id="a_edge20_Node000018_Node000019"><a xlink:title=" ">
<path fill="none" stroke="#63b8ff" d="M370.41,-154C361.79,-154 353.05,-154 344.48,-154"/>
<polygon fill="#63b8ff" stroke="#63b8ff" points="370.12,-157.5 380.12,-154 370.12,-150.5 370.12,-157.5"/>
</a>
</g>
</g>
</g>
</svg>

<g id="navigator" transform="translate(0 0)" fill="#404254">
  <rect fill="#f2f5e9" fill-opacity="0.5" stroke="#606060" stroke-width=".5" x="0" y="0" width="60" height="60"/>
  <use id="zoomplus" xlink:href="#zoomPlus" x="17" y="9" onmousedown="handleZoom(evt,'in')"/>
  <use id="zoomminus" xlink:href="#zoomMin" x="42" y="9" onmousedown="handleZoom(evt,'out')"/>
  <use id="reset" xlink:href="#resetDef" x="30" y="36" onmousedown="handleReset()"/>
   <use id="arrowup" xlink:href="#arrowUp" x="0" y="0" onmousedown="handlePan(0,-1)"/>
  <use id="arrowright" xlink:href="#arrowRight" x="0" y="0" onmousedown="handlePan(1,0)"/>
  <use id="arrowdown" xlink:href="#arrowDown" x="0" y="0" onmousedown="handlePan(0,1)"/>
  <use id="arrowleft" xlink:href="#arrowLeft" x="0" y="0" onmousedown="handlePan(-1,0)"/>
</g>
<svg viewBox="0 0 15 15" width="100%" height="30px" preserveAspectRatio="xMaxYMin meet">
 <g id="arrow_out" transform="scale(0.3 0.3)">
  <a xlink:href="namespacefcmaes_1_1journal_ab2d4646b056641882ced63f7d0299978_icgraph_org.svg" target="_base">
   <rect id="button" ry="5" rx="5" y="6" x="6" height="38" width="38"
        fill="#f2f5e9" fill-opacity="0.5" stroke="#606060" stroke-width="1.0"/>
   <path id="arrow"
     d="M 11.500037,31.436501 C 11.940474,20.09759 22.043105,11.32322 32.158766,21.979434 L 37.068811,17.246167 C 37.068811,17.246167 37.088388,32 37.088388,32 L 22.160133,31.978069 C 22.160133,31.978069 26.997745,27.140456 26.997745,27.140456 C 18.528582,18.264221 13.291696,25.230495 11.500037,31.436501 z"
     style="fill:#404040;"/>
  </a>
 </g>
</svg>

<style type='text/css'>
<![CDATA[
[data-mouse-over-selected='false'] { opacity: 0.7; }
[data-mouse-over-selected='true']  { opacity: 1.0; }
]]>
</style>
<script type="application/ecmascript"><![CDATA[
document.addEventListener('DOMContentLoaded', (event) => {
  highlightEdges();
  highlightAdjacentNodes();
});
]]></script>
</svg>
