<?xml version="1.0" encoding="UTF-8" standalone="no"?>
<!DOCTYPE svg PUBLIC "-//W3C//DTD SVG 1.1//EN"
 "http://www.w3.org/Graphics/SVG/1.1/DTD/svg11.dtd">
<!-- Generated by graphviz version 12.2.1 (20241206.2353)
 -->
<!-- Title: gtoc12._mined Pages: 1 -->
<svg width="364pt" height="46pt"
 viewBox="0.00 0.00 363.50 46.00" xmlns="http://www.w3.org/2000/svg" xmlns:xlink="http://www.w3.org/1999/xlink">

<svg id="main" version="1.1" xmlns="http://www.w3.org/2000/svg" xmlns:xlink="http://www.w3.org/1999/xlink" xml:space="preserve">

<style type="text/css"><![CDATA[
.node, .edge {opacity: 0.7;}
.node.selected, .edge.selected {opacity: 1;}
.edge:hover path { stroke: red; }
.edge:hover polygon { stroke: red; fill: red; }
]]></style>
<script type="application/ecmascript" xlink:href="svg.min.js"/>
<svg id="graph" class="graph">
<g id="graph0" class="graph" transform="scale(1 1) rotate(0) translate(4 42)">
<title>gtoc12._mined</title>
<!-- Node1 -->
<g id="Node000001" class="node">
<title>Node1</title>
<g id="a_Node000001"><a xlink:title=" ">
<polygon fill="#999999" stroke="#666666" points="355.5,-20 275.75,-20 275.75,0 355.5,0 355.5,-20"/>
<text text-anchor="middle" x="315.62" y="-6.5" font-family="Helvetica,sans-Serif" font-size="10.00">gtoc12._mined</text>
</a>
</g>
</g>
<!-- Node2 -->
<g id="Node000002" class="node">
<title>Node2</title>
<g id="a_Node000002"><a xlink:href="namespacegtoc12.html#ae69e77fa378b33f00726f3d6f69299bd" target="_top" xlink:title=" ">
<polygon fill="white" stroke="#666666" points="239.75,-20 154.75,-20 154.75,0 239.75,0 239.75,-20"/>
<text text-anchor="middle" x="197.25" y="-6.5" font-family="Helvetica,sans-Serif" font-size="10.00">gtoc12.optimize</text>
</a>
</g>
</g>
<!-- Node1&#45;&gt;Node2 -->
<g id="edge1_Node000001_Node000002" class="edge">
<title>Node1&#45;&gt;Node2</title>
<g id="a_edge1_Node000001_Node000002"><a xlink:title=" ">
<path fill="none" stroke="#63b8ff" d="M264.09,-10C256.12,-10 247.96,-10 240.22,-10"/>
<polygon fill="#63b8ff" stroke="#63b8ff" points="264.04,-13.5 274.04,-10 264.04,-6.5 264.04,-13.5"/>
</a>
</g>
</g>
<!-- Node3 -->
<g id="Node000003" class="node">
<title>Node3</title>
<g id="a_Node000003"><a xlink:href="namespacegtoc12.html#a91594165754dfc90464518c70cf65911" target="_top" xlink:title=" ">
<polygon fill="white" stroke="#666666" points="118.75,-20 0,-20 0,0 118.75,0 118.75,-20"/>
<text text-anchor="middle" x="59.38" y="-6.5" font-family="Helvetica,sans-Serif" font-size="10.00">gtoc12.check_solutions</text>
</a>
</g>
</g>
<!-- Node2&#45;&gt;Node3 -->
<g id="edge2_Node000002_Node000003" class="edge">
<title>Node2&#45;&gt;Node3</title>
<g id="a_edge2_Node000002_Node000003"><a xlink:title=" ">
<path fill="none" stroke="#63b8ff" d="M143.01,-10C135.09,-10 126.88,-10 118.85,-10"/>
<polygon fill="#63b8ff" stroke="#63b8ff" points="142.86,-13.5 152.86,-10 142.86,-6.5 142.86,-13.5"/>
</a>
</g>
</g>
<!-- Node3&#45;&gt;Node3 -->
<g id="edge3_Node000003_Node000003" class="edge">
<title>Node3&#45;&gt;Node3</title>
<g id="a_edge3_Node000003_Node000003"><a xlink:title=" ">
<path fill="none" stroke="#63b8ff" d="M83.74,-31.44C80.6,-35.3 72.48,-38 59.38,-38 35.41,-38 28.11,-28.98 37.47,-20.34"/>
<polygon fill="#63b8ff" stroke="#63b8ff" points="87.19,-30.82 81.61,-21.82 80.36,-32.34 87.19,-30.82"/>
</a>
</g>
</g>
</g>
</svg>
</svg>

<style type='text/css'>
<![CDATA[
[data-mouse-over-selected='false'] { opacity: 0.7; }
[data-mouse-over-selected='true']  { opacity: 1.0; }
]]>
</style>
<script type="application/ecmascript"><![CDATA[
document.addEventListener('DOMContentLoaded', (event) => {
  highlightEdges();
  highlightAdjacentNodes();
});
]]></script>
</svg>
