<?xml version="1.0" encoding="UTF-8" standalone="no"?>
<!DOCTYPE svg PUBLIC "-//W3C//DTD SVG 1.1//EN"
 "http://www.w3.org/Graphics/SVG/1.1/DTD/svg11.dtd">
<!-- Generated by graphviz version 12.2.1 (20241206.2353)
 -->
<!-- Title: fcmaes.moretry._retry_loop Pages: 1 -->
<svg width="611pt" height="66pt"
 viewBox="0.00 0.00 611.25 66.00" xmlns="http://www.w3.org/2000/svg" xmlns:xlink="http://www.w3.org/1999/xlink">
<g id="graph0" class="graph" transform="scale(1 1) rotate(0) translate(4 62)">
<title>fcmaes.moretry._retry_loop</title>
<!-- Node1 -->
<g id="Node000001" class="node">
<title>Node1</title>
<g id="a_Node000001"><a xlink:title="Executes a retry loop strategy for multi&#45;objective optimization.">
<polygon fill="#999999" stroke="#666666" points="134.5,-39 0,-39 0,-19 134.5,-19 134.5,-39"/>
<text text-anchor="middle" x="67.25" y="-25.5" font-family="Helvetica,sans-Serif" font-size="10.00">fcmaes.moretry._retry_loop</text>
</a>
</g>
</g>
<!-- Node2 -->
<g id="Node000002" class="node">
<title>Node2</title>
<g id="a_Node000002"><a xlink:href="namespacefcmaes_1_1moretry.html#ac6f83723e5f5c51274e705d503b7133f" target="_top" xlink:title="Calculates the generalized mean (also known as the power mean) of a list of numbers.">
<polygon fill="white" stroke="#666666" points="299,-58 170.5,-58 170.5,-38 299,-38 299,-58"/>
<text text-anchor="middle" x="234.75" y="-44.5" font-family="Helvetica,sans-Serif" font-size="10.00">fcmaes.moretry._avg_exp</text>
</a>
</g>
</g>
<!-- Node1&#45;&gt;Node2 -->
<g id="edge1_Node000001_Node000002" class="edge">
<title>Node1&#45;&gt;Node2</title>
<g id="a_edge1_Node000001_Node000002"><a xlink:title=" ">
<path fill="none" stroke="#63b8ff" d="M134.61,-36.62C142.56,-37.53 150.71,-38.47 158.77,-39.39"/>
<polygon fill="#63b8ff" stroke="#63b8ff" points="158.23,-42.85 168.56,-40.52 159.02,-35.9 158.23,-42.85"/>
</a>
</g>
</g>
<!-- Node3 -->
<g id="Node000003" class="node">
<title>Node3</title>
<g id="a_Node000003"><a xlink:href="namespacefcmaes_1_1moretry.html#a47b95fe506257996c19d9189f3f005c5" target="_top" xlink:title="Plots the feasible solution space and Pareto front for a given set of data points.">
<polygon fill="white" stroke="#666666" points="285.88,-20 183.62,-20 183.62,0 285.88,0 285.88,-20"/>
<text text-anchor="middle" x="234.75" y="-6.5" font-family="Helvetica,sans-Serif" font-size="10.00">fcmaes.moretry.plot</text>
</a>
</g>
</g>
<!-- Node1&#45;&gt;Node3 -->
<g id="edge2_Node000001_Node000003" class="edge">
<title>Node1&#45;&gt;Node3</title>
<g id="a_edge2_Node000001_Node000003"><a xlink:title=" ">
<path fill="none" stroke="#63b8ff" d="M134.61,-21.38C146.88,-19.97 159.65,-18.51 171.78,-17.11"/>
<polygon fill="#63b8ff" stroke="#63b8ff" points="172.13,-20.6 181.67,-15.98 171.34,-13.64 172.13,-20.6"/>
</a>
</g>
</g>
<!-- Node4 -->
<g id="Node000004" class="node">
<title>Node4</title>
<g id="a_Node000004"><a xlink:href="namespacefcmaes_1_1moretry.html#a76f8b50c1782e6def55706f648e3e819" target="_top" xlink:title="Filter and sort elements based on Pareto efficiency.">
<polygon fill="white" stroke="#666666" points="448.5,-20 335,-20 335,0 448.5,0 448.5,-20"/>
<text text-anchor="middle" x="391.75" y="-6.5" font-family="Helvetica,sans-Serif" font-size="10.00">fcmaes.moretry.pareto</text>
</a>
</g>
</g>
<!-- Node3&#45;&gt;Node4 -->
<g id="edge3_Node000003_Node000004" class="edge">
<title>Node3&#45;&gt;Node4</title>
<g id="a_edge3_Node000003_Node000004"><a xlink:title=" ">
<path fill="none" stroke="#63b8ff" d="M286.07,-10C297.92,-10 310.73,-10 323.2,-10"/>
<polygon fill="#63b8ff" stroke="#63b8ff" points="322.99,-13.5 332.99,-10 322.99,-6.5 322.99,-13.5"/>
</a>
</g>
</g>
<!-- Node5 -->
<g id="Node000005" class="node">
<title>Node5</title>
<g id="a_Node000005"><a xlink:href="namespacefcmaes_1_1moretry.html#a56d8f2ec5777046d87dcd9a79c8168f9" target="_top" xlink:title="Identifies the Pareto&#45;optimal points from the given set of points.">
<polygon fill="white" stroke="#666666" points="603.25,-20 484.5,-20 484.5,0 603.25,0 603.25,-20"/>
<text text-anchor="middle" x="543.88" y="-6.5" font-family="Helvetica,sans-Serif" font-size="10.00">fcmaes.moretry._pareto</text>
</a>
</g>
</g>
<!-- Node4&#45;&gt;Node5 -->
<g id="edge4_Node000004_Node000005" class="edge">
<title>Node4&#45;&gt;Node5</title>
<g id="a_edge4_Node000004_Node000005"><a xlink:title=" ">
<path fill="none" stroke="#63b8ff" d="M448.65,-10C456.53,-10 464.7,-10 472.8,-10"/>
<polygon fill="#63b8ff" stroke="#63b8ff" points="472.65,-13.5 482.65,-10 472.65,-6.5 472.65,-13.5"/>
</a>
</g>
</g>
</g>
</svg>
