<?xml version="1.0" encoding="UTF-8" standalone="no"?>
<!DOCTYPE svg PUBLIC "-//W3C//DTD SVG 1.1//EN"
 "http://www.w3.org/Graphics/SVG/1.1/DTD/svg11.dtd">
<!-- Generated by graphviz version 12.2.1 (20241206.2353)
 -->
<!-- Title: quantumcomm.pymoo_par Pages: 1 -->
<svg width="469pt" height="85pt"
 viewBox="0.00 0.00 468.50 85.00" xmlns="http://www.w3.org/2000/svg" xmlns:xlink="http://www.w3.org/1999/xlink">
<g id="graph0" class="graph" transform="scale(1 1) rotate(0) translate(4 81)">
<title>quantumcomm.pymoo_par</title>
<!-- Node1 -->
<g id="Node000001" class="node">
<title>Node1</title>
<g id="a_Node000001"><a xlink:title=" ">
<polygon fill="#999999" stroke="#666666" points="131.5,-58 0,-58 0,-38 131.5,-38 131.5,-58"/>
<text text-anchor="middle" x="65.75" y="-44.5" font-family="Helvetica,sans-Serif" font-size="10.00">quantumcomm.pymoo_par</text>
</a>
</g>
</g>
<!-- Node2 -->
<g id="Node000002" class="node">
<title>Node2</title>
<g id="a_Node000002"><a xlink:href="namespacequantumcomm.html#a8419b7d865cb04abb4a75ee8457a301c" target="_top" xlink:title=" ">
<polygon fill="white" stroke="#666666" points="308.75,-77 167.5,-77 167.5,-57 308.75,-57 308.75,-77"/>
<text text-anchor="middle" x="238.12" y="-63.5" font-family="Helvetica,sans-Serif" font-size="10.00">quantumcomm.read_solution</text>
</a>
</g>
</g>
<!-- Node1&#45;&gt;Node2 -->
<g id="edge1_Node000001_Node000002" class="edge">
<title>Node1&#45;&gt;Node2</title>
<g id="a_edge1_Node000001_Node000002"><a xlink:title=" ">
<path fill="none" stroke="#63b8ff" d="M131.65,-55.24C139.51,-56.11 147.62,-57.02 155.68,-57.92"/>
<polygon fill="#63b8ff" stroke="#63b8ff" points="155.18,-61.38 165.51,-59.01 155.96,-54.43 155.18,-61.38"/>
</a>
</g>
</g>
<!-- Node3 -->
<g id="Node000003" class="node">
<title>Node3</title>
<g id="a_Node000003"><a xlink:href="namespacequantumcomm.html#a29b16ceed23f94c44a426cf51cb2670d" target="_top" xlink:title=" ">
<polygon fill="white" stroke="#666666" points="294.5,-39 181.75,-39 181.75,-19 294.5,-19 294.5,-39"/>
<text text-anchor="middle" x="238.12" y="-25.5" font-family="Helvetica,sans-Serif" font-size="10.00">quantumcomm.reduce</text>
</a>
</g>
</g>
<!-- Node1&#45;&gt;Node3 -->
<g id="edge2_Node000001_Node000003" class="edge">
<title>Node1&#45;&gt;Node3</title>
<g id="a_edge2_Node000001_Node000003"><a xlink:title=" ">
<path fill="none" stroke="#63b8ff" d="M131.65,-40.76C144.18,-39.37 157.32,-37.9 169.92,-36.49"/>
<polygon fill="#63b8ff" stroke="#63b8ff" points="170.25,-39.98 179.8,-35.39 169.48,-33.02 170.25,-39.98"/>
</a>
</g>
</g>
<!-- Node4 -->
<g id="Node000004" class="node">
<title>Node4</title>
<g id="a_Node000004"><a xlink:href="namespacefcmaes_1_1retry.html#ae5cef7db4d25eedc630e6e7b3fd077a7" target="_top" xlink:title="Minimizes a given objective function using the specified optimizer and stores the progress.">
<polygon fill="white" stroke="#666666" points="458.62,-58 346.62,-58 346.62,-38 458.62,-38 458.62,-58"/>
<text text-anchor="middle" x="402.62" y="-44.5" font-family="Helvetica,sans-Serif" font-size="10.00">fcmaes.retry.minimize</text>
</a>
</g>
</g>
<!-- Node3&#45;&gt;Node4 -->
<g id="edge3_Node000003_Node000004" class="edge">
<title>Node3&#45;&gt;Node4</title>
<g id="a_edge3_Node000003_Node000004"><a xlink:title=" ">
<path fill="none" stroke="#63b8ff" d="M294.59,-35.49C307.6,-37.01 321.58,-38.64 335.01,-40.21"/>
<polygon fill="#63b8ff" stroke="#63b8ff" points="334.29,-43.65 344.63,-41.34 335.1,-36.7 334.29,-43.65"/>
</a>
</g>
</g>
<!-- Node5 -->
<g id="Node000005" class="node">
<title>Node5</title>
<g id="a_Node000005"><a xlink:href="namespacequantumcomm.html#a84c6558e0b765a6d0b545850d3821a76" target="_top" xlink:title=" ">
<polygon fill="white" stroke="#666666" points="460.5,-20 344.75,-20 344.75,0 460.5,0 460.5,-20"/>
<text text-anchor="middle" x="402.62" y="-6.5" font-family="Helvetica,sans-Serif" font-size="10.00">quantumcomm.mo_par</text>
</a>
</g>
</g>
<!-- Node3&#45;&gt;Node5 -->
<g id="edge4_Node000003_Node000005" class="edge">
<title>Node3&#45;&gt;Node5</title>
<g id="a_edge4_Node000003_Node000005"><a xlink:title=" ">
<path fill="none" stroke="#63b8ff" d="M294.59,-22.51C307.04,-21.06 320.38,-19.5 333.28,-17.99"/>
<polygon fill="#63b8ff" stroke="#63b8ff" points="333.44,-21.5 342.97,-16.86 332.63,-14.54 333.44,-21.5"/>
</a>
</g>
</g>
</g>
</svg>
