<?xml version="1.0" encoding="UTF-8" standalone="no"?>
<!DOCTYPE svg PUBLIC "-//W3C//DTD SVG 1.1//EN"
 "http://www.w3.org/Graphics/SVG/1.1/DTD/svg11.dtd">
<!-- Generated by graphviz version 12.2.1 (20241206.2353)
 -->
<!-- Title: _fcmaescpp/include/nmsopt.h Pages: 1 -->
<svg width="155pt" height="164pt"
 viewBox="0.00 0.00 154.50 164.00" xmlns="http://www.w3.org/2000/svg" xmlns:xlink="http://www.w3.org/1999/xlink">
<g id="graph0" class="graph" transform="scale(1 1) rotate(0) translate(4 160)">
<title>_fcmaescpp/include/nmsopt.h</title>
<!-- Node1 -->
<g id="Node000001" class="node">
<title>Node1</title>
<g id="a_Node000001"><a xlink:title="The inclusion file for the CNMSeqOpt class.">
<polygon fill="#999999" stroke="#666666" points="124.75,-156 21.75,-156 21.75,-124 124.75,-124 124.75,-156"/>
<text text-anchor="start" x="29.75" y="-142.5" font-family="Helvetica,sans-Serif" font-size="10.00">_fcmaescpp/include</text>
<text text-anchor="middle" x="73.25" y="-130.5" font-family="Helvetica,sans-Serif" font-size="10.00">/nmsopt.h</text>
</a>
</g>
</g>
<!-- Node2 -->
<g id="Node000002" class="node">
<title>Node2</title>
<g id="a_Node000002"><a xlink:href="biteopt_8h.html" target="_top" xlink:title="The inclusion file for the CBiteOpt and CBiteOptDeep classes.">
<polygon fill="white" stroke="#666666" points="124.75,-88 21.75,-88 21.75,-56 124.75,-56 124.75,-88"/>
<text text-anchor="start" x="29.75" y="-74.5" font-family="Helvetica,sans-Serif" font-size="10.00">_fcmaescpp/include</text>
<text text-anchor="middle" x="73.25" y="-62.5" font-family="Helvetica,sans-Serif" font-size="10.00">/biteopt.h</text>
</a>
</g>
</g>
<!-- Node1&#45;&gt;Node2 -->
<g id="edge1_Node000001_Node000002" class="edge">
<title>Node1&#45;&gt;Node2</title>
<g id="a_edge1_Node000001_Node000002"><a xlink:title=" ">
<path fill="none" stroke="#63b8ff" d="M73.25,-112.31C73.25,-104.12 73.25,-95.38 73.25,-88.22"/>
<polygon fill="#63b8ff" stroke="#63b8ff" points="69.75,-112.18 73.25,-122.18 76.75,-112.18 69.75,-112.18"/>
</a>
</g>
</g>
<!-- Node3 -->
<g id="Node000003" class="node">
<title>Node3</title>
<g id="a_Node000003"><a xlink:href="biteoptimizer_8cpp.html" target="_top" xlink:title=" ">
<polygon fill="white" stroke="#666666" points="146.5,-20 0,-20 0,0 146.5,0 146.5,-20"/>
<text text-anchor="middle" x="73.25" y="-6.5" font-family="Helvetica,sans-Serif" font-size="10.00">_fcmaescpp/biteoptimizer.cpp</text>
</a>
</g>
</g>
<!-- Node2&#45;&gt;Node3 -->
<g id="edge2_Node000002_Node000003" class="edge">
<title>Node2&#45;&gt;Node3</title>
<g id="a_edge2_Node000002_Node000003"><a xlink:title=" ">
<path fill="none" stroke="#63b8ff" d="M73.25,-44.08C73.25,-35.6 73.25,-26.8 73.25,-20.41"/>
<polygon fill="#63b8ff" stroke="#63b8ff" points="69.75,-44.03 73.25,-54.03 76.75,-44.03 69.75,-44.03"/>
</a>
</g>
</g>
</g>
</svg>
