<?xml version="1.0" encoding="UTF-8" standalone="no"?>
<!DOCTYPE svg PUBLIC "-//W3C//DTD SVG 1.1//EN"
 "http://www.w3.org/Graphics/SVG/1.1/DTD/svg11.dtd">
<!-- Generated by graphviz version 12.2.1 (20241206.2353)
 -->
<!-- Title: optimizePGPE_C Pages: 1 -->
<svg width="424pt" height="199pt"
 viewBox="0.00 0.00 423.50 199.00" xmlns="http://www.w3.org/2000/svg" xmlns:xlink="http://www.w3.org/1999/xlink">

<svg id="main" version="1.1" xmlns="http://www.w3.org/2000/svg" xmlns:xlink="http://www.w3.org/1999/xlink" xml:space="preserve">

<style type="text/css"><![CDATA[
.node, .edge {opacity: 0.7;}
.node.selected, .edge.selected {opacity: 1;}
.edge:hover path { stroke: red; }
.edge:hover polygon { stroke: red; fill: red; }
]]></style>
<script type="application/ecmascript" xlink:href="svg.min.js"/>
<svg id="graph" class="graph">
<g id="graph0" class="graph" transform="scale(1 1) rotate(0) translate(4 195)">
<title>optimizePGPE_C</title>
<!-- Node1 -->
<g id="Node000001" class="node">
<title>Node1</title>
<g id="a_Node000001"><a xlink:title=" ">
<polygon fill="#999999" stroke="#666666" points="93.25,-115 0,-115 0,-95 93.25,-95 93.25,-115"/>
<text text-anchor="middle" x="46.62" y="-101.5" font-family="Helvetica,sans-Serif" font-size="10.00">optimizePGPE_C</text>
</a>
</g>
</g>
<!-- Node2 -->
<g id="Node000002" class="node">
<title>Node2</title>
<g id="a_Node000002"><a xlink:href="class_fitness.html#aba60038eac4e0e15d995e57f4ba079e1" target="_top" xlink:title=" ">
<polygon fill="white" stroke="#666666" points="237.12,-191 133.38,-191 133.38,-171 237.12,-171 237.12,-191"/>
<text text-anchor="middle" x="185.25" y="-177.5" font-family="Helvetica,sans-Serif" font-size="10.00">Fitness::evaluations</text>
</a>
</g>
</g>
<!-- Node1&#45;&gt;Node2 -->
<g id="edge1_Node000001_Node000002" class="edge">
<title>Node1&#45;&gt;Node2</title>
<g id="a_edge1_Node000001_Node000002"><a xlink:title=" ">
<path fill="none" stroke="#63b8ff" d="M60.21,-115.46C75.66,-127.9 103.07,-148.66 129.25,-162 132.3,-163.55 135.51,-165.03 138.78,-166.42"/>
<polygon fill="#63b8ff" stroke="#63b8ff" points="137.32,-169.61 147.91,-170.01 139.88,-163.1 137.32,-169.61"/>
</a>
</g>
</g>
<!-- Node3 -->
<g id="Node000003" class="node">
<title>Node3</title>
<g id="a_Node000003"><a xlink:href="evaluator_8h.html#ad0943ebd623281f526e5aee2aa818895" target="_top" xlink:title=" ">
<polygon fill="white" stroke="#666666" points="224.38,-153 146.12,-153 146.12,-133 224.38,-133 224.38,-153"/>
<text text-anchor="middle" x="185.25" y="-139.5" font-family="Helvetica,sans-Serif" font-size="10.00">noop_callback</text>
</a>
</g>
</g>
<!-- Node1&#45;&gt;Node3 -->
<g id="edge2_Node000001_Node000003" class="edge">
<title>Node1&#45;&gt;Node3</title>
<g id="a_edge2_Node000001_Node000003"><a xlink:title=" ">
<path fill="none" stroke="#63b8ff" d="M85.32,-115.48C101,-119.85 119.39,-124.96 136.04,-129.59"/>
<polygon fill="#63b8ff" stroke="#63b8ff" points="134.65,-132.84 145.22,-132.14 136.52,-126.09 134.65,-132.84"/>
</a>
</g>
</g>
<!-- Node4 -->
<g id="Node000004" class="node">
<title>Node4</title>
<g id="a_Node000004"><a xlink:href="class_fitness.html#a31beb7ecb5fa49ac03b43abe444ab9a6" target="_top" xlink:title=" ">
<polygon fill="white" stroke="#666666" points="241.25,-115 129.25,-115 129.25,-95 241.25,-95 241.25,-115"/>
<text text-anchor="middle" x="185.25" y="-101.5" font-family="Helvetica,sans-Serif" font-size="10.00">Fitness::setNormalize</text>
</a>
</g>
</g>
<!-- Node1&#45;&gt;Node4 -->
<g id="edge3_Node000001_Node000004" class="edge">
<title>Node1&#45;&gt;Node4</title>
<g id="a_edge3_Node000001_Node000004"><a xlink:title=" ">
<path fill="none" stroke="#63b8ff" d="M93.5,-105C101.19,-105 109.31,-105 117.4,-105"/>
<polygon fill="#63b8ff" stroke="#63b8ff" points="117.27,-108.5 127.27,-105 117.27,-101.5 117.27,-108.5"/>
</a>
</g>
</g>
<!-- Node5 -->
<g id="Node000005" class="node">
<title>Node5</title>
<g id="a_Node000005"><a xlink:href="class_fitness.html#a08a70acdfa7636ae3285e3576c9e3d11" target="_top" xlink:title=" ">
<polygon fill="white" stroke="#666666" points="232.62,-77 137.88,-77 137.88,-57 232.62,-57 232.62,-77"/>
<text text-anchor="middle" x="185.25" y="-63.5" font-family="Helvetica,sans-Serif" font-size="10.00">Fitness::terminate</text>
</a>
</g>
</g>
<!-- Node1&#45;&gt;Node5 -->
<g id="edge4_Node000001_Node000005" class="edge">
<title>Node1&#45;&gt;Node5</title>
<g id="a_edge4_Node000001_Node000005"><a xlink:title=" ">
<path fill="none" stroke="#63b8ff" d="M85.32,-94.52C101,-90.15 119.39,-85.04 136.04,-80.41"/>
<polygon fill="#63b8ff" stroke="#63b8ff" points="136.52,-83.91 145.22,-77.86 134.65,-77.16 136.52,-83.91"/>
</a>
</g>
</g>
<!-- Node6 -->
<g id="Node000006" class="node">
<title>Node6</title>
<g id="a_Node000006"><a xlink:href="class_fitness.html#a780edd5ddec4867c4d59c4cd3995f6ce" target="_top" xlink:title=" ">
<polygon fill="white" stroke="#666666" points="226.62,-39 143.88,-39 143.88,-19 226.62,-19 226.62,-39"/>
<text text-anchor="middle" x="185.25" y="-25.5" font-family="Helvetica,sans-Serif" font-size="10.00">Fitness::values</text>
</a>
</g>
</g>
<!-- Node1&#45;&gt;Node6 -->
<g id="edge5_Node000001_Node000006" class="edge">
<title>Node1&#45;&gt;Node6</title>
<g id="a_edge5_Node000001_Node000006"><a xlink:title=" ">
<path fill="none" stroke="#63b8ff" d="M60.21,-94.54C75.66,-82.1 103.07,-61.34 129.25,-48 132.3,-46.45 135.51,-44.97 138.78,-43.58"/>
<polygon fill="#63b8ff" stroke="#63b8ff" points="139.88,-46.9 147.91,-39.99 137.32,-40.39 139.88,-46.9"/>
</a>
</g>
</g>
<!-- Node7 -->
<g id="Node000007" class="node">
<title>Node7</title>
<g id="a_Node000007"><a xlink:href="class_fitness.html#a7fdca1fda75e3976b91e1e9e0eb12057" target="_top" xlink:title=" ">
<polygon fill="white" stroke="#666666" points="389.25,-58 303.5,-58 303.5,-38 389.25,-38 389.25,-58"/>
<text text-anchor="middle" x="346.38" y="-44.5" font-family="Helvetica,sans-Serif" font-size="10.00">Fitness::decode</text>
</a>
</g>
</g>
<!-- Node6&#45;&gt;Node7 -->
<g id="edge6_Node000006_Node000007" class="edge">
<title>Node6&#45;&gt;Node7</title>
<g id="a_edge6_Node000006_Node000007"><a xlink:title=" ">
<path fill="none" stroke="#63b8ff" d="M226.82,-33.84C246.64,-36.21 270.76,-39.09 292.05,-41.63"/>
<polygon fill="#63b8ff" stroke="#63b8ff" points="291.37,-45.08 301.71,-42.79 292.2,-38.13 291.37,-45.08"/>
</a>
</g>
</g>
<!-- Node8 -->
<g id="Node000008" class="node">
<title>Node8</title>
<g id="a_Node000008"><a xlink:href="class_fitness.html#a2085e5ce1a0afa5949366f580d5ec5a4" target="_top" xlink:title=" ">
<polygon fill="white" stroke="#666666" points="415.5,-20 277.25,-20 277.25,0 415.5,0 415.5,-20"/>
<text text-anchor="middle" x="346.38" y="-6.5" font-family="Helvetica,sans-Serif" font-size="10.00">Fitness::getClosestFeasible</text>
</a>
</g>
</g>
<!-- Node6&#45;&gt;Node8 -->
<g id="edge7_Node000006_Node000008" class="edge">
<title>Node6&#45;&gt;Node8</title>
<g id="a_edge7_Node000006_Node000008"><a xlink:title=" ">
<path fill="none" stroke="#63b8ff" d="M226.82,-24.16C238.69,-22.74 252.09,-21.14 265.51,-19.54"/>
<polygon fill="#63b8ff" stroke="#63b8ff" points="265.74,-23.03 275.25,-18.37 264.91,-16.08 265.74,-23.03"/>
</a>
</g>
</g>
</g>
</svg>
</svg>

<style type='text/css'>
<![CDATA[
[data-mouse-over-selected='false'] { opacity: 0.7; }
[data-mouse-over-selected='true']  { opacity: 1.0; }
]]>
</style>
<script type="application/ecmascript"><![CDATA[
document.addEventListener('DOMContentLoaded', (event) => {
  highlightEdges();
  highlightAdjacentNodes();
});
]]></script>
</svg>
