<?xml version="1.0" encoding="UTF-8" standalone="no"?>
<!DOCTYPE svg PUBLIC "-//W3C//DTD SVG 1.1//EN"
 "http://www.w3.org/Graphics/SVG/1.1/DTD/svg11.dtd">
<!-- Generated by graphviz version 12.2.1 (20241206.2353)
 -->
<!-- Title: PVTwaste::operator() Pages: 1 -->
<svg width="246pt" height="66pt"
 viewBox="0.00 0.00 246.25 66.00" xmlns="http://www.w3.org/2000/svg" xmlns:xlink="http://www.w3.org/1999/xlink">
<g id="graph0" class="graph" transform="scale(1 1) rotate(0) translate(4 62)">
<title>PVTwaste::operator()</title>
<!-- Node1 -->
<g id="Node000001" class="node">
<title>Node1</title>
<g id="a_Node000001"><a xlink:title=" ">
<polygon fill="#999999" stroke="#666666" points="108.25,-39 0,-39 0,-19 108.25,-19 108.25,-39"/>
<text text-anchor="middle" x="54.12" y="-25.5" font-family="Helvetica,sans-Serif" font-size="10.00">PVTwaste::operator()</text>
</a>
</g>
</g>
<!-- Node2 -->
<g id="Node000002" class="node">
<title>Node2</title>
<g id="a_Node000002"><a xlink:href="struct_p_v_twaste.html#a1cfca4e9f5f2698750985837e6cb9098" target="_top" xlink:title=" ">
<polygon fill="white" stroke="#666666" points="238.25,-58 144.25,-58 144.25,-38 238.25,-38 238.25,-58"/>
<text text-anchor="middle" x="191.25" y="-44.5" font-family="Helvetica,sans-Serif" font-size="10.00">PVTwaste::moonr</text>
</a>
</g>
</g>
<!-- Node1&#45;&gt;Node2 -->
<g id="edge1_Node000001_Node000002" class="edge">
<title>Node1&#45;&gt;Node2</title>
<g id="a_edge1_Node000001_Node000002"><a xlink:title=" ">
<path fill="none" stroke="#63b8ff" d="M108.53,-36.51C116.45,-37.62 124.65,-38.78 132.65,-39.9"/>
<polygon fill="#63b8ff" stroke="#63b8ff" points="131.9,-43.33 142.29,-41.26 132.87,-36.4 131.9,-43.33"/>
</a>
</g>
</g>
<!-- Node3 -->
<g id="Node000003" class="node">
<title>Node3</title>
<g id="a_Node000003"><a xlink:href="struct_p_v_twaste.html#a24eeb47274a02f75d1e1f4cce1d0e858" target="_top" xlink:title=" ">
<polygon fill="white" stroke="#666666" points="234.12,-20 148.38,-20 148.38,0 234.12,0 234.12,-20"/>
<text text-anchor="middle" x="191.25" y="-6.5" font-family="Helvetica,sans-Serif" font-size="10.00">PVTwaste::sunr</text>
</a>
</g>
</g>
<!-- Node1&#45;&gt;Node3 -->
<g id="edge2_Node000001_Node000003" class="edge">
<title>Node1&#45;&gt;Node3</title>
<g id="a_edge2_Node000001_Node000003"><a xlink:title=" ">
<path fill="none" stroke="#63b8ff" d="M108.53,-21.49C117.87,-20.18 127.58,-18.81 136.91,-17.5"/>
<polygon fill="#63b8ff" stroke="#63b8ff" points="137.14,-21 146.56,-16.14 136.17,-14.07 137.14,-21"/>
</a>
</g>
</g>
</g>
</svg>
