<?xml version="1.0" encoding="UTF-8" standalone="no"?>
<!DOCTYPE svg PUBLIC "-//W3C//DTD SVG 1.1//EN"
 "http://www.w3.org/Graphics/SVG/1.1/DTD/svg11.dtd">
<!-- Generated by graphviz version 12.2.1 (20241206.2353)
 -->
<!-- Title: initACMA_C Pages: 1 -->
<svg width="227pt" height="104pt"
 viewBox="0.00 0.00 226.75 104.00" xmlns="http://www.w3.org/2000/svg" xmlns:xlink="http://www.w3.org/1999/xlink">
<g id="graph0" class="graph" transform="scale(1 1) rotate(0) translate(4 100)">
<title>initACMA_C</title>
<!-- Node1 -->
<g id="Node000001" class="node">
<title>Node1</title>
<g id="a_Node000001"><a xlink:title=" ">
<polygon fill="#999999" stroke="#666666" points="70.75,-58 0,-58 0,-38 70.75,-38 70.75,-58"/>
<text text-anchor="middle" x="35.38" y="-44.5" font-family="Helvetica,sans-Serif" font-size="10.00">initACMA_C</text>
</a>
</g>
</g>
<!-- Node2 -->
<g id="Node000002" class="node">
<title>Node2</title>
<g id="a_Node000002"><a xlink:href="$evaluator_8h.html#ad0943ebd623281f526e5aee2aa818895" xlink:title=" ">
<polygon fill="white" stroke="#666666" points="201.88,-96 123.62,-96 123.62,-76 201.88,-76 201.88,-96"/>
<text text-anchor="middle" x="162.75" y="-82.5" font-family="Helvetica,sans-Serif" font-size="10.00">noop_callback</text>
</a>
</g>
</g>
<!-- Node1&#45;&gt;Node2 -->
<g id="edge7_Node000001_Node000002" class="edge">
<title>Node1&#45;&gt;Node2</title>
<g id="a_edge7_Node000001_Node000002"><a xlink:title=" ">
<path fill="none" stroke="#63b8ff" d="M70.97,-58.48C85.08,-62.76 101.59,-67.77 116.63,-72.33"/>
<polygon fill="#63b8ff" stroke="#63b8ff" points="115.24,-75.56 125.82,-75.11 117.27,-68.86 115.24,-75.56"/>
</a>
</g>
</g>
<!-- Node3 -->
<g id="Node000003" class="node">
<title>Node3</title>
<g id="a_Node000003"><a xlink:href="$evaluator_8h.html#ac05c49788a31e5f7cb8efbe8ca3b548e" xlink:title=" ">
<polygon fill="white" stroke="#666666" points="211.25,-58 114.25,-58 114.25,-38 211.25,-38 211.25,-58"/>
<text text-anchor="middle" x="162.75" y="-44.5" font-family="Helvetica,sans-Serif" font-size="10.00">noop_callback_par</text>
</a>
</g>
</g>
<!-- Node1&#45;&gt;Node3 -->
<g id="edge8_Node000001_Node000003" class="edge">
<title>Node1&#45;&gt;Node3</title>
<g id="a_edge8_Node000001_Node000003"><a xlink:title=" ">
<path fill="none" stroke="#63b8ff" d="M70.97,-48C80.86,-48 91.94,-48 102.86,-48"/>
<polygon fill="#63b8ff" stroke="#63b8ff" points="102.62,-51.5 112.62,-48 102.62,-44.5 102.62,-51.5"/>
</a>
</g>
</g>
<!-- Node4 -->
<g id="Node000004" class="node">
<title>Node4</title>
<g id="a_Node000004"><a xlink:href="$class_fitness.html#a31beb7ecb5fa49ac03b43abe444ab9a6" xlink:title=" ">
<polygon fill="white" stroke="#666666" points="218.75,-20 106.75,-20 106.75,0 218.75,0 218.75,-20"/>
<text text-anchor="middle" x="162.75" y="-6.5" font-family="Helvetica,sans-Serif" font-size="10.00">Fitness::setNormalize</text>
</a>
</g>
</g>
<!-- Node1&#45;&gt;Node4 -->
<g id="edge9_Node000001_Node000004" class="edge">
<title>Node1&#45;&gt;Node4</title>
<g id="a_edge9_Node000001_Node000004"><a xlink:title=" ">
<path fill="none" stroke="#63b8ff" d="M70.97,-37.52C85.08,-33.24 101.59,-28.23 116.63,-23.67"/>
<polygon fill="#63b8ff" stroke="#63b8ff" points="117.27,-27.14 125.82,-20.89 115.24,-20.44 117.27,-27.14"/>
</a>
</g>
</g>
</g>
</svg>
