<?xml version="1.0" encoding="UTF-8" standalone="no"?>
<!DOCTYPE svg PUBLIC "-//W3C//DTD SVG 1.1//EN"
 "http://www.w3.org/Graphics/SVG/1.1/DTD/svg11.dtd">
<!-- Generated by graphviz version 12.2.1 (20241206.2353)
 -->
<!-- Title: fcmaes.optimizer.Cma_lw Pages: 1 -->
<svg width="220pt" height="480pt"
 viewBox="0.00 0.00 219.50 480.00" xmlns="http://www.w3.org/2000/svg" xmlns:xlink="http://www.w3.org/1999/xlink">
<g id="graph0" class="graph" transform="scale(1 1) rotate(0) translate(4 476)">
<title>fcmaes.optimizer.Cma_lw</title>
<!-- Node1 -->
<g id="Node000001" class="node">
<title>Node1</title>
<g id="a_Node000001"><a xlink:title="CMA&#45;ES lightweight optimizer implementation.">
<polygon fill="#999999" stroke="none" points="211.5,-288 0,-288 0,0 211.5,0 211.5,-288"/>
<text text-anchor="start" x="48.75" y="-274.5" font-family="Helvetica,sans-Serif" font-size="10.00">fcmaes.optimizer.Cma_lw</text>
<text text-anchor="start" x="4" y="-258.5" font-family="Helvetica,sans-Serif" font-size="10.00">+</text>
<text text-anchor="start" x="14" y="-258.5" font-family="Helvetica,sans-Serif" font-size="10.00">popsize</text>
<text text-anchor="start" x="4" y="-242.5" font-family="Helvetica,sans-Serif" font-size="10.00">+</text>
<text text-anchor="start" x="14" y="-242.5" font-family="Helvetica,sans-Serif" font-size="10.00">stop_fitness</text>
<text text-anchor="start" x="4" y="-226.5" font-family="Helvetica,sans-Serif" font-size="10.00">+</text>
<text text-anchor="start" x="14" y="-226.5" font-family="Helvetica,sans-Serif" font-size="10.00">guess</text>
<text text-anchor="start" x="4" y="-210.5" font-family="Helvetica,sans-Serif" font-size="10.00">+</text>
<text text-anchor="start" x="14" y="-210.5" font-family="Helvetica,sans-Serif" font-size="10.00">sdevs</text>
<text text-anchor="start" x="4" y="-194.5" font-family="Helvetica,sans-Serif" font-size="10.00">+</text>
<text text-anchor="start" x="14" y="-194.5" font-family="Helvetica,sans-Serif" font-size="10.00">workers</text>
<text text-anchor="start" x="4" y="-178.5" font-family="Helvetica,sans-Serif" font-size="10.00">+</text>
<text text-anchor="start" x="14" y="-178.5" font-family="Helvetica,sans-Serif" font-size="10.00">__init__(self, Optional</text>
<text text-anchor="start" x="14" y="-166.5" font-family="Helvetica,sans-Serif" font-size="10.00">[int] max_evaluations=50000,</text>
<text text-anchor="start" x="14" y="-154.5" font-family="Helvetica,sans-Serif" font-size="10.00"> Optional[int] popsize=31,</text>
<text text-anchor="start" x="14" y="-142.5" font-family="Helvetica,sans-Serif" font-size="10.00"> Optional[ArrayLike] guess</text>
<text text-anchor="start" x="14" y="-130.5" font-family="Helvetica,sans-Serif" font-size="10.00">=None, Optional[float] stop</text>
<text text-anchor="start" x="14" y="-118.5" font-family="Helvetica,sans-Serif" font-size="10.00">_fitness=&#45;np.inf, Optional[Union</text>
<text text-anchor="start" x="14" y="-106.5" font-family="Helvetica,sans-Serif" font-size="10.00">[float, ArrayLike]] sdevs=None,</text>
<text text-anchor="start" x="14" y="-94.5" font-family="Helvetica,sans-Serif" font-size="10.00"> Optional[int] workers=None)</text>
<text text-anchor="start" x="4" y="-78.5" font-family="Helvetica,sans-Serif" font-size="10.00">+</text>
<text text-anchor="start" x="14" y="-78.5" font-family="Helvetica,sans-Serif" font-size="10.00">Tuple[np.ndarray, float,</text>
<text text-anchor="start" x="14" y="-66.5" font-family="Helvetica,sans-Serif" font-size="10.00"> int] minimize(self, Callable</text>
<text text-anchor="start" x="14" y="-54.5" font-family="Helvetica,sans-Serif" font-size="10.00">[[ArrayLike], float] fun, Optional</text>
<text text-anchor="start" x="14" y="-42.5" font-family="Helvetica,sans-Serif" font-size="10.00">[Bounds] bounds, Optional[ArrayLike]</text>
<text text-anchor="start" x="14" y="-30.5" font-family="Helvetica,sans-Serif" font-size="10.00"> guess=None, Optional[Union[float,</text>
<text text-anchor="start" x="14" y="-18.5" font-family="Helvetica,sans-Serif" font-size="10.00"> ArrayLike]] sdevs=0.3, Optional[Generator]</text>
<text text-anchor="start" x="14" y="-6.5" font-family="Helvetica,sans-Serif" font-size="10.00"> rg=Generator(PCG64DXSM()), store=None)</text>
<polygon fill="#666666" stroke="#666666" points="0,-270 0,-270 211.5,-270 211.5,-270 0,-270"/>
<polygon fill="#666666" stroke="#666666" points="0,-190 0,-190 12,-190 12,-190 0,-190"/>
<polygon fill="#666666" stroke="#666666" points="12,-190 12,-190 211.5,-190 211.5,-190 12,-190"/>
<polygon fill="none" stroke="#666666" points="0,0 0,-288 211.5,-288 211.5,0 0,0"/>
</a>
</g>
</g>
<!-- Node2 -->
<g id="Node000002" class="node">
<title>Node2</title>
<g id="a_Node000002"><a xlink:href="$classfcmaes_1_1optimizer_1_1_optimizer.html" xlink:title="Provides functionalities for optimization tasks.">
<polygon fill="white" stroke="none" points="178.88,-472 32.62,-472 32.62,-324 178.88,-324 178.88,-472"/>
<text text-anchor="start" x="45.75" y="-458.5" font-family="Helvetica,sans-Serif" font-size="10.00">fcmaes.optimizer.Optimizer</text>
<text text-anchor="start" x="36.62" y="-442.5" font-family="Helvetica,sans-Serif" font-size="10.00">+</text>
<text text-anchor="start" x="46.62" y="-442.5" font-family="Helvetica,sans-Serif" font-size="10.00">max_evaluations</text>
<text text-anchor="start" x="36.62" y="-426.5" font-family="Helvetica,sans-Serif" font-size="10.00">+</text>
<text text-anchor="start" x="46.62" y="-426.5" font-family="Helvetica,sans-Serif" font-size="10.00">name</text>
<text text-anchor="start" x="36.62" y="-410.5" font-family="Helvetica,sans-Serif" font-size="10.00">+</text>
<text text-anchor="start" x="46.62" y="-410.5" font-family="Helvetica,sans-Serif" font-size="10.00">__init__(self, Optional</text>
<text text-anchor="start" x="46.62" y="-398.5" font-family="Helvetica,sans-Serif" font-size="10.00">[int] max_evaluations=50000,</text>
<text text-anchor="start" x="46.62" y="-386.5" font-family="Helvetica,sans-Serif" font-size="10.00"> Optional[str] name=&#39;&#39;)</text>
<text text-anchor="start" x="36.62" y="-370.5" font-family="Helvetica,sans-Serif" font-size="10.00">+</text>
<text text-anchor="start" x="46.62" y="-370.5" font-family="Helvetica,sans-Serif" font-size="10.00">max_eval_num(self,</text>
<text text-anchor="start" x="46.62" y="-358.5" font-family="Helvetica,sans-Serif" font-size="10.00"> store=None)</text>
<text text-anchor="start" x="36.62" y="-342.5" font-family="Helvetica,sans-Serif" font-size="10.00">+</text>
<text text-anchor="start" x="46.62" y="-342.5" font-family="Helvetica,sans-Serif" font-size="10.00">get_count_runs(self,</text>
<text text-anchor="start" x="46.62" y="-330.5" font-family="Helvetica,sans-Serif" font-size="10.00"> store=None)</text>
<polygon fill="#666666" stroke="#666666" points="32.62,-454 32.62,-454 178.88,-454 178.88,-454 32.62,-454"/>
<polygon fill="#666666" stroke="#666666" points="32.62,-422 32.62,-422 44.62,-422 44.62,-422 32.62,-422"/>
<polygon fill="#666666" stroke="#666666" points="44.62,-422 44.62,-422 178.88,-422 178.88,-422 44.62,-422"/>
<polygon fill="none" stroke="#666666" points="32.62,-324 32.62,-472 178.88,-472 178.88,-324 32.62,-324"/>
</a>
</g>
</g>
<!-- Node2&#45;&gt;Node1 -->
<g id="edge3_Node000001_Node000002" class="edge">
<title>Node2&#45;&gt;Node1</title>
<g id="a_edge3_Node000001_Node000002"><a xlink:title=" ">
<path fill="none" stroke="#63b8ff" d="M105.75,-312.87C105.75,-304.79 105.75,-296.44 105.75,-287.99"/>
<polygon fill="none" stroke="#63b8ff" points="102.25,-312.6 105.75,-322.6 109.25,-312.6 102.25,-312.6"/>
</a>
</g>
</g>
</g>
</svg>
