<?xml version="1.0" encoding="UTF-8" standalone="no"?>
<!DOCTYPE svg PUBLIC "-//W3C//DTD SVG 1.1//EN"
 "http://www.w3.org/Graphics/SVG/1.1/DTD/svg11.dtd">
<!-- Generated by graphviz version 12.2.1 (20241206.2353)
 -->
<!-- Title: examples.kepler.kepler.Kepler.getTrueAnomaly Pages: 1 -->
<svg width="733pt" height="78pt"
 viewBox="0.00 0.00 732.75 78.00" xmlns="http://www.w3.org/2000/svg" xmlns:xlink="http://www.w3.org/1999/xlink">
<g id="graph0" class="graph" transform="scale(1 1) rotate(0) translate(4 74)">
<title>examples.kepler.kepler.Kepler.getTrueAnomaly</title>
<!-- Node1 -->
<g id="Node000001" class="node">
<title>Node1</title>
<g id="a_Node000001"><a xlink:title=" ">
<polygon fill="#999999" stroke="#666666" points="163.75,-54 0,-54 0,-22 163.75,-22 163.75,-54"/>
<text text-anchor="start" x="8" y="-40.5" font-family="Helvetica,sans-Serif" font-size="10.00">examples.kepler.kepler.Kepler.get</text>
<text text-anchor="middle" x="81.88" y="-28.5" font-family="Helvetica,sans-Serif" font-size="10.00">TrueAnomaly</text>
</a>
</g>
</g>
<!-- Node2 -->
<g id="Node000002" class="node">
<title>Node2</title>
<g id="a_Node000002"><a xlink:href="$classexamples_1_1kepler_1_1kepler_1_1_kepler.html#ace359228af6ab44df9562414d3be0b73" xlink:title=" ">
<polygon fill="white" stroke="#666666" points="387.5,-48 199.75,-48 199.75,-28 387.5,-28 387.5,-48"/>
<text text-anchor="middle" x="293.62" y="-34.5" font-family="Helvetica,sans-Serif" font-size="10.00">examples.kepler.kepler.Kepler.mean2ta</text>
</a>
</g>
</g>
<!-- Node1&#45;&gt;Node2 -->
<g id="edge9_Node000001_Node000002" class="edge">
<title>Node1&#45;&gt;Node2</title>
<g id="a_edge9_Node000001_Node000002"><a xlink:title=" ">
<path fill="none" stroke="#63b8ff" d="M163.97,-38C171.88,-38 179.99,-38 188.09,-38"/>
<polygon fill="#63b8ff" stroke="#63b8ff" points="188.01,-41.5 198.01,-38 188.01,-34.5 188.01,-41.5"/>
</a>
</g>
</g>
<!-- Node3 -->
<g id="Node000003" class="node">
<title>Node3</title>
<g id="a_Node000003"><a xlink:href="$namespaceexamples_1_1kepler_1_1kepler.html#a517d2a90d3773a272d1ee7d415799214" xlink:title=" ">
<polygon fill="white" stroke="#666666" points="543,-54 423.5,-54 423.5,-22 543,-22 543,-54"/>
<text text-anchor="start" x="431.5" y="-40.5" font-family="Helvetica,sans-Serif" font-size="10.00">examples.kepler.kepler.</text>
<text text-anchor="middle" x="483.25" y="-28.5" font-family="Helvetica,sans-Serif" font-size="10.00">_mean2ta</text>
</a>
</g>
</g>
<!-- Node2&#45;&gt;Node3 -->
<g id="edge10_Node000002_Node000003" class="edge">
<title>Node2&#45;&gt;Node3</title>
<g id="a_edge10_Node000002_Node000003"><a xlink:title=" ">
<path fill="none" stroke="#63b8ff" d="M387.89,-38C395.92,-38 403.96,-38 411.77,-38"/>
<polygon fill="#63b8ff" stroke="#63b8ff" points="411.5,-41.5 421.5,-38 411.5,-34.5 411.5,-41.5"/>
</a>
</g>
</g>
<!-- Node4 -->
<g id="Node000004" class="node">
<title>Node4</title>
<g id="a_Node000004"><a xlink:href="$namespaceexamples_1_1kepler_1_1kepler.html#a2421a039709ffc114992322c5b944ba0" xlink:title=" ">
<polygon fill="white" stroke="#666666" points="722.12,-70 581.62,-70 581.62,-50 722.12,-50 722.12,-70"/>
<text text-anchor="middle" x="651.88" y="-56.5" font-family="Helvetica,sans-Serif" font-size="10.00">examples.kepler.kepler.eps3</text>
</a>
</g>
</g>
<!-- Node3&#45;&gt;Node4 -->
<g id="edge11_Node000003_Node000004" class="edge">
<title>Node3&#45;&gt;Node4</title>
<g id="a_edge11_Node000003_Node000004"><a xlink:title=" ">
<path fill="none" stroke="#63b8ff" d="M543.46,-45.82C552.08,-46.96 561.07,-48.14 570.03,-49.33"/>
<polygon fill="#63b8ff" stroke="#63b8ff" points="569.45,-52.78 579.82,-50.62 570.36,-45.84 569.45,-52.78"/>
</a>
</g>
</g>
<!-- Node5 -->
<g id="Node000005" class="node">
<title>Node5</title>
<g id="a_Node000005"><a xlink:href="$namespaceexamples_1_1kepler_1_1kepler.html#a1270aff9b2683cf09fd997af1c49791b" xlink:title=" ">
<polygon fill="white" stroke="#666666" points="724.75,-32 579,-32 579,0 724.75,0 724.75,-32"/>
<text text-anchor="start" x="587" y="-18.5" font-family="Helvetica,sans-Serif" font-size="10.00">examples.kepler.kepler.kepler</text>
<text text-anchor="middle" x="651.88" y="-6.5" font-family="Helvetica,sans-Serif" font-size="10.00">Start3</text>
</a>
</g>
</g>
<!-- Node3&#45;&gt;Node5 -->
<g id="edge12_Node000003_Node000005" class="edge">
<title>Node3&#45;&gt;Node5</title>
<g id="a_edge12_Node000003_Node000005"><a xlink:title=" ">
<path fill="none" stroke="#63b8ff" d="M543.46,-30.18C551.22,-29.16 559.28,-28.09 567.35,-27.03"/>
<polygon fill="#63b8ff" stroke="#63b8ff" points="567.76,-30.5 577.22,-25.73 566.85,-23.56 567.76,-30.5"/>
</a>
</g>
</g>
</g>
</svg>
