<?xml version="1.0" encoding="UTF-8" standalone="no"?>
<!DOCTYPE svg PUBLIC "-//W3C//DTD SVG 1.1//EN"
 "http://www.w3.org/Graphics/SVG/1.1/DTD/svg11.dtd">
<!-- Generated by graphviz version 12.2.1 (20241206.2353)
 -->
<!-- Title: CBiteOrt::max_ Pages: 1 -->
<svg width="449pt" height="28pt"
 viewBox="0.00 0.00 449.25 28.00" xmlns="http://www.w3.org/2000/svg" xmlns:xlink="http://www.w3.org/1999/xlink">
<g id="graph0" class="graph" transform="scale(1 1) rotate(0) translate(4 24)">
<title>CBiteOrt::max_</title>
<!-- Node1 -->
<g id="Node000001" class="node">
<title>Node1</title>
<g id="a_Node000001"><a xlink:title=" ">
<polygon fill="#999999" stroke="#666666" points="441.25,-20 357,-20 357,0 441.25,0 441.25,-20"/>
<text text-anchor="middle" x="399.12" y="-6.5" font-family="Helvetica,sans-Serif" font-size="10.00">CBiteOrt::max_</text>
</a>
</g>
</g>
<!-- Node2 -->
<g id="Node000002" class="node">
<title>Node2</title>
<g id="a_Node000002"><a xlink:href="$class_c_bite_ort.html#a33285821015e487d6c933ed1d6385144" xlink:title=" ">
<polygon fill="white" stroke="#666666" points="321,-20 245,-20 245,0 321,0 321,-20"/>
<text text-anchor="middle" x="283" y="-6.5" font-family="Helvetica,sans-Serif" font-size="10.00">CBiteOrt::tql2</text>
</a>
</g>
</g>
<!-- Node1&#45;&gt;Node2 -->
<g id="edge7_Node000001_Node000002" class="edge">
<title>Node1&#45;&gt;Node2</title>
<g id="a_edge7_Node000001_Node000002"><a xlink:title=" ">
<path fill="none" stroke="#63b8ff" d="M345.24,-10C337.1,-10 328.85,-10 321.15,-10"/>
<polygon fill="#63b8ff" stroke="#63b8ff" points="345.09,-13.5 355.09,-10 345.09,-6.5 345.09,-13.5"/>
</a>
</g>
</g>
<!-- Node3 -->
<g id="Node000003" class="node">
<title>Node3</title>
<g id="a_Node000003"><a xlink:href="$class_c_bite_ort.html#a77ae9fd22421595707c336bf14d3931a" xlink:title=" ">
<polygon fill="white" stroke="#666666" points="209,-20 125.5,-20 125.5,0 209,0 209,-20"/>
<text text-anchor="middle" x="167.25" y="-6.5" font-family="Helvetica,sans-Serif" font-size="10.00">CBiteOrt::eigen</text>
</a>
</g>
</g>
<!-- Node2&#45;&gt;Node3 -->
<g id="edge8_Node000002_Node000003" class="edge">
<title>Node2&#45;&gt;Node3</title>
<g id="a_edge8_Node000002_Node000003"><a xlink:title=" ">
<path fill="none" stroke="#63b8ff" d="M233.5,-10C225.38,-10 217.02,-10 209.12,-10"/>
<polygon fill="#63b8ff" stroke="#63b8ff" points="233.24,-13.5 243.24,-10 233.24,-6.5 233.24,-13.5"/>
</a>
</g>
</g>
<!-- Node4 -->
<g id="Node000004" class="node">
<title>Node4</title>
<g id="a_Node000004"><a xlink:href="$class_c_bite_ort.html#ab718877f7b3014357fc44bc34391d827" xlink:title=" ">
<polygon fill="white" stroke="#666666" points="89.5,-20 0,-20 0,0 89.5,0 89.5,-20"/>
<text text-anchor="middle" x="44.75" y="-6.5" font-family="Helvetica,sans-Serif" font-size="10.00">CBiteOrt::update</text>
</a>
</g>
</g>
<!-- Node3&#45;&gt;Node4 -->
<g id="edge9_Node000003_Node000004" class="edge">
<title>Node3&#45;&gt;Node4</title>
<g id="a_edge9_Node000003_Node000004"><a xlink:title=" ">
<path fill="none" stroke="#63b8ff" d="M113.72,-10C105.8,-10 97.71,-10 89.99,-10"/>
<polygon fill="#63b8ff" stroke="#63b8ff" points="113.6,-13.5 123.6,-10 113.6,-6.5 113.6,-13.5"/>
</a>
</g>
</g>
</g>
</svg>
