<?xml version="1.0" encoding="UTF-8" standalone="no"?>
<!DOCTYPE svg PUBLIC "-//W3C//DTD SVG 1.1//EN"
 "http://www.w3.org/Graphics/SVG/1.1/DTD/svg11.dtd">
<!-- Generated by graphviz version 12.2.1 (20241206.2353)
 -->
<!-- Title: differential_evolution::DeOptimizer::tellAll Pages: 1 -->
<svg width="828pt" height="134pt"
 viewBox="0.00 0.00 827.75 134.00" xmlns="http://www.w3.org/2000/svg" xmlns:xlink="http://www.w3.org/1999/xlink">
<g id="graph0" class="graph" transform="scale(1 1) rotate(0) translate(4 130)">
<title>differential_evolution::DeOptimizer::tellAll</title>
<!-- Node1 -->
<g id="Node000001" class="node">
<title>Node1</title>
<g id="a_Node000001"><a xlink:title=" ">
<polygon fill="#999999" stroke="#666666" points="106.75,-76 0,-76 0,-44 106.75,-44 106.75,-76"/>
<text text-anchor="start" x="8" y="-62.5" font-family="Helvetica,sans-Serif" font-size="10.00">differential_evolution</text>
<text text-anchor="middle" x="53.38" y="-50.5" font-family="Helvetica,sans-Serif" font-size="10.00">::DeOptimizer::tellAll</text>
</a>
</g>
</g>
<!-- Node2 -->
<g id="Node000002" class="node">
<title>Node2</title>
<g id="a_Node000002"><a xlink:href="$classdifferential__evolution_1_1_de_optimizer.html#accf9be34ac5d30b9a2df15dba24f4dce" xlink:title=" ">
<polygon fill="white" stroke="#666666" points="247.25,-76 142.75,-76 142.75,-44 247.25,-44 247.25,-76"/>
<text text-anchor="start" x="150.75" y="-62.5" font-family="Helvetica,sans-Serif" font-size="10.00">differential_evolution</text>
<text text-anchor="middle" x="195" y="-50.5" font-family="Helvetica,sans-Serif" font-size="10.00">::DeOptimizer::tell</text>
</a>
</g>
</g>
<!-- Node1&#45;&gt;Node2 -->
<g id="edge19_Node000001_Node000002" class="edge">
<title>Node1&#45;&gt;Node2</title>
<g id="a_edge19_Node000001_Node000002"><a xlink:title=" ">
<path fill="none" stroke="#63b8ff" d="M107.16,-60C115.03,-60 123.22,-60 131.27,-60"/>
<polygon fill="#63b8ff" stroke="#63b8ff" points="131.01,-63.5 141.01,-60 131.01,-56.5 131.01,-63.5"/>
</a>
</g>
</g>
<!-- Node3 -->
<g id="Node000003" class="node">
<title>Node3</title>
<g id="a_Node000003"><a xlink:href="$classdifferential__evolution_1_1_de_optimizer.html#aff18de19791b75f799d4aa5e9c60b5fa" xlink:title=" ">
<polygon fill="white" stroke="#666666" points="424.5,-120 283.25,-120 283.25,-88 424.5,-88 424.5,-120"/>
<text text-anchor="start" x="291.25" y="-106.5" font-family="Helvetica,sans-Serif" font-size="10.00">differential_evolution</text>
<text text-anchor="middle" x="353.88" y="-94.5" font-family="Helvetica,sans-Serif" font-size="10.00">::DeOptimizer::next_improve</text>
</a>
</g>
</g>
<!-- Node2&#45;&gt;Node3 -->
<g id="edge20_Node000002_Node000003" class="edge">
<title>Node2&#45;&gt;Node3</title>
<g id="a_edge20_Node000002_Node000003"><a xlink:title=" ">
<path fill="none" stroke="#63b8ff" d="M247.37,-74.41C258.86,-77.63 271.24,-81.1 283.33,-84.49"/>
<polygon fill="#63b8ff" stroke="#63b8ff" points="282.29,-87.84 292.86,-87.17 284.18,-81.1 282.29,-87.84"/>
</a>
</g>
</g>
<!-- Node5 -->
<g id="Node000005" class="node">
<title>Node5</title>
<g id="a_Node000005"><a xlink:href="$classdifferential__evolution_1_1_de_optimizer.html#a922dfb6a6903d18311a87e2fe553c78b" xlink:title=" ">
<polygon fill="white" stroke="#666666" points="722.75,-76 616,-76 616,-44 722.75,-44 722.75,-76"/>
<text text-anchor="start" x="624" y="-62.5" font-family="Helvetica,sans-Serif" font-size="10.00">differential_evolution</text>
<text text-anchor="middle" x="669.38" y="-50.5" font-family="Helvetica,sans-Serif" font-size="10.00">::DeOptimizer::rnd01</text>
</a>
</g>
</g>
<!-- Node2&#45;&gt;Node5 -->
<g id="edge25_Node000002_Node000005" class="edge">
<title>Node2&#45;&gt;Node5</title>
<g id="a_edge25_Node000002_Node000005"><a xlink:title=" ">
<path fill="none" stroke="#63b8ff" d="M247.45,-60C334.22,-60 509.42,-60 604.13,-60"/>
<polygon fill="#63b8ff" stroke="#63b8ff" points="604.03,-63.5 614.03,-60 604.03,-56.5 604.03,-63.5"/>
</a>
</g>
</g>
<!-- Node8 -->
<g id="Node000008" class="node">
<title>Node8</title>
<g id="a_Node000008"><a xlink:href="$classdifferential__evolution_1_1_de_optimizer.html#a750fb2ff0c0981be30414916d8c872bf" xlink:title=" ">
<polygon fill="white" stroke="#666666" points="411,-32 296.75,-32 296.75,0 411,0 411,-32"/>
<text text-anchor="start" x="304.75" y="-18.5" font-family="Helvetica,sans-Serif" font-size="10.00">differential_evolution</text>
<text text-anchor="middle" x="353.88" y="-6.5" font-family="Helvetica,sans-Serif" font-size="10.00">::DeOptimizer::sample</text>
</a>
</g>
</g>
<!-- Node2&#45;&gt;Node8 -->
<g id="edge26_Node000002_Node000008" class="edge">
<title>Node2&#45;&gt;Node8</title>
<g id="a_edge26_Node000002_Node000008"><a xlink:title=" ">
<path fill="none" stroke="#63b8ff" d="M247.37,-45.59C259.53,-42.18 272.68,-38.49 285.44,-34.91"/>
<polygon fill="#63b8ff" stroke="#63b8ff" points="286.38,-38.29 295.06,-32.22 284.49,-31.55 286.38,-38.29"/>
</a>
</g>
</g>
<!-- Node4 -->
<g id="Node000004" class="node">
<title>Node4</title>
<g id="a_Node000004"><a xlink:href="$classdifferential__evolution_1_1_de_optimizer.html#a9f8d2654bcad80c32d9358faa62cebd9" xlink:title=" ">
<polygon fill="white" stroke="#666666" points="572.5,-120 460.5,-120 460.5,-88 572.5,-88 572.5,-120"/>
<text text-anchor="start" x="468.5" y="-106.5" font-family="Helvetica,sans-Serif" font-size="10.00">differential_evolution</text>
<text text-anchor="middle" x="516.5" y="-94.5" font-family="Helvetica,sans-Serif" font-size="10.00">::DeOptimizer::modify</text>
</a>
</g>
</g>
<!-- Node3&#45;&gt;Node4 -->
<g id="edge21_Node000003_Node000004" class="edge">
<title>Node3&#45;&gt;Node4</title>
<g id="a_edge21_Node000003_Node000004"><a xlink:title=" ">
<path fill="none" stroke="#63b8ff" d="M424.86,-104C432.81,-104 440.9,-104 448.81,-104"/>
<polygon fill="#63b8ff" stroke="#63b8ff" points="448.72,-107.5 458.72,-104 448.72,-100.5 448.72,-107.5"/>
</a>
</g>
</g>
<!-- Node4&#45;&gt;Node5 -->
<g id="edge22_Node000004_Node000005" class="edge">
<title>Node4&#45;&gt;Node5</title>
<g id="a_edge22_Node000004_Node000005"><a xlink:title=" ">
<path fill="none" stroke="#63b8ff" d="M572.82,-87.87C583.19,-84.84 594.09,-81.66 604.68,-78.57"/>
<polygon fill="#63b8ff" stroke="#63b8ff" points="605.5,-81.98 614.12,-75.82 603.54,-75.26 605.5,-81.98"/>
</a>
</g>
</g>
<!-- Node6 -->
<g id="Node000006" class="node">
<title>Node6</title>
<g id="a_Node000006"><a xlink:href="$classdifferential__evolution_1_1_de_optimizer.html#a427ae953a5503dc4369da1bbb338fe67" xlink:title=" ">
<polygon fill="white" stroke="#666666" points="730.25,-126 608.5,-126 608.5,-94 730.25,-94 730.25,-126"/>
<text text-anchor="start" x="616.5" y="-112.5" font-family="Helvetica,sans-Serif" font-size="10.00">differential_evolution</text>
<text text-anchor="middle" x="669.38" y="-100.5" font-family="Helvetica,sans-Serif" font-size="10.00">::DeOptimizer::sample_i</text>
</a>
</g>
</g>
<!-- Node4&#45;&gt;Node6 -->
<g id="edge23_Node000004_Node000006" class="edge">
<title>Node4&#45;&gt;Node6</title>
<g id="a_edge23_Node000004_Node000006"><a xlink:title=" ">
<path fill="none" stroke="#63b8ff" d="M572.82,-106.2C580.65,-106.51 588.8,-106.84 596.88,-107.16"/>
<polygon fill="#63b8ff" stroke="#63b8ff" points="596.59,-110.65 606.72,-107.55 596.86,-103.65 596.59,-110.65"/>
</a>
</g>
</g>
<!-- Node7 -->
<g id="Node000007" class="node">
<title>Node7</title>
<g id="a_Node000007"><a xlink:href="$evaluator_8h.html#aa3d770d0f4bda035e2cc8c6f5c1b0aee" xlink:title=" ">
<polygon fill="white" stroke="#666666" points="819.75,-120 766.25,-120 766.25,-100 819.75,-100 819.75,-120"/>
<text text-anchor="middle" x="793" y="-106.5" font-family="Helvetica,sans-Serif" font-size="10.00">normreal</text>
</a>
</g>
</g>
<!-- Node6&#45;&gt;Node7 -->
<g id="edge24_Node000006_Node000007" class="edge">
<title>Node6&#45;&gt;Node7</title>
<g id="a_edge24_Node000006_Node000007"><a xlink:title=" ">
<path fill="none" stroke="#63b8ff" d="M730.47,-110C738.64,-110 746.83,-110 754.44,-110"/>
<polygon fill="#63b8ff" stroke="#63b8ff" points="754.34,-113.5 764.34,-110 754.34,-106.5 754.34,-113.5"/>
</a>
</g>
</g>
<!-- Node9 -->
<g id="Node000009" class="node">
<title>Node9</title>
<g id="a_Node000009"><a xlink:href="$evaluator_8h.html#a5b652df2286e1f0c4dae7d4dd841bb8f" xlink:title=" ">
<polygon fill="white" stroke="#666666" points="547.38,-26 485.62,-26 485.62,-6 547.38,-6 547.38,-26"/>
<text text-anchor="middle" x="516.5" y="-12.5" font-family="Helvetica,sans-Serif" font-size="10.00">normalVec</text>
</a>
</g>
</g>
<!-- Node8&#45;&gt;Node9 -->
<g id="edge27_Node000008_Node000009" class="edge">
<title>Node8&#45;&gt;Node9</title>
<g id="a_edge27_Node000008_Node000009"><a xlink:title=" ">
<path fill="none" stroke="#63b8ff" d="M411.05,-16C431.73,-16 454.76,-16 473.92,-16"/>
<polygon fill="#63b8ff" stroke="#63b8ff" points="473.79,-19.5 483.79,-16 473.79,-12.5 473.79,-19.5"/>
</a>
</g>
</g>
</g>
</svg>
