<?xml version="1.0" encoding="UTF-8" standalone="no"?>
<!DOCTYPE svg PUBLIC "-//W3C//DTD SVG 1.1//EN"
 "http://www.w3.org/Graphics/SVG/1.1/DTD/svg11.dtd">
<!-- Generated by graphviz version 12.2.1 (20241206.2353)
 -->
<!-- Title: fcmaes.testfun.Wrapper Pages: 1 -->
<svg width="120pt" height="200pt"
 viewBox="0.00 0.00 120.25 200.00" xmlns="http://www.w3.org/2000/svg" xmlns:xlink="http://www.w3.org/1999/xlink">
<g id="graph0" class="graph" transform="scale(1 1) rotate(0) translate(4 196)">
<title>fcmaes.testfun.Wrapper</title>
<!-- Node1 -->
<g id="Node000001" class="node">
<title>Node1</title>
<g id="a_Node000001"><a xlink:title="Wrapper for parallel computation with shared state.">
<polygon fill="#999999" stroke="none" points="112.25,-192 0,-192 0,0 112.25,0 112.25,-192"/>
<text text-anchor="start" x="4" y="-178.5" font-family="Helvetica,sans-Serif" font-size="10.00">fcmaes.testfun.Wrapper</text>
<text text-anchor="start" x="8.81" y="-162.5" font-family="Helvetica,sans-Serif" font-size="10.00">+</text>
<text text-anchor="start" x="23.62" y="-162.5" font-family="Helvetica,sans-Serif" font-size="10.00">func</text>
<text text-anchor="start" x="8.81" y="-146.5" font-family="Helvetica,sans-Serif" font-size="10.00">+</text>
<text text-anchor="start" x="23.62" y="-146.5" font-family="Helvetica,sans-Serif" font-size="10.00">statMutex</text>
<text text-anchor="start" x="8.81" y="-130.5" font-family="Helvetica,sans-Serif" font-size="10.00">+</text>
<text text-anchor="start" x="23.62" y="-130.5" font-family="Helvetica,sans-Serif" font-size="10.00">best_x</text>
<text text-anchor="start" x="8.81" y="-114.5" font-family="Helvetica,sans-Serif" font-size="10.00">+</text>
<text text-anchor="start" x="23.62" y="-114.5" font-family="Helvetica,sans-Serif" font-size="10.00">best_y</text>
<text text-anchor="start" x="8.81" y="-98.5" font-family="Helvetica,sans-Serif" font-size="10.00">+</text>
<text text-anchor="start" x="23.62" y="-98.5" font-family="Helvetica,sans-Serif" font-size="10.00">count</text>
<text text-anchor="start" x="8.81" y="-82.5" font-family="Helvetica,sans-Serif" font-size="10.00">+</text>
<text text-anchor="start" x="23.62" y="-82.5" font-family="Helvetica,sans-Serif" font-size="10.00">__init__(self, fun,</text>
<text text-anchor="start" x="23.62" y="-70.5" font-family="Helvetica,sans-Serif" font-size="10.00"> dim)</text>
<text text-anchor="start" x="8.81" y="-54.5" font-family="Helvetica,sans-Serif" font-size="10.00">+</text>
<text text-anchor="start" x="23.62" y="-54.5" font-family="Helvetica,sans-Serif" font-size="10.00">eval(self, x)</text>
<text text-anchor="start" x="8.81" y="-38.5" font-family="Helvetica,sans-Serif" font-size="10.00">+</text>
<text text-anchor="start" x="23.62" y="-38.5" font-family="Helvetica,sans-Serif" font-size="10.00">get_best_x(self)</text>
<text text-anchor="start" x="8.81" y="-22.5" font-family="Helvetica,sans-Serif" font-size="10.00">+</text>
<text text-anchor="start" x="23.62" y="-22.5" font-family="Helvetica,sans-Serif" font-size="10.00">get_best_y(self)</text>
<text text-anchor="start" x="8.81" y="-6.5" font-family="Helvetica,sans-Serif" font-size="10.00">+</text>
<text text-anchor="start" x="23.62" y="-6.5" font-family="Helvetica,sans-Serif" font-size="10.00">get_count(self)</text>
<polygon fill="#666666" stroke="#666666" points="0,-174 0,-174 112.25,-174 112.25,-174 0,-174"/>
<polygon fill="#666666" stroke="#666666" points="0,-94 0,-94 21.62,-94 21.62,-94 0,-94"/>
<polygon fill="#666666" stroke="#666666" points="21.62,-94 21.62,-94 112.25,-94 112.25,-94 21.62,-94"/>
<polygon fill="none" stroke="#666666" points="0,0 0,-192 112.25,-192 112.25,0 0,0"/>
</a>
</g>
</g>
</g>
</svg>
