<?xml version="1.0" encoding="UTF-8" standalone="no"?>
<!DOCTYPE svg PUBLIC "-//W3C//DTD SVG 1.1//EN"
 "http://www.w3.org/Graphics/SVG/1.1/DTD/svg11.dtd">
<!-- Generated by graphviz version 12.2.1 (20241206.2353)
 -->
<!-- Title: fcmaes.advretry.Store.replace Pages: 1 -->
<svg width="701pt" height="216pt"
 viewBox="0.00 0.00 701.25 216.00" xmlns="http://www.w3.org/2000/svg" xmlns:xlink="http://www.w3.org/1999/xlink">
<g id="graph0" class="graph" transform="scale(1 1) rotate(0) translate(4 212)">
<title>fcmaes.advretry.Store.replace</title>
<!-- Node1 -->
<g id="Node000001" class="node">
<title>Node1</title>
<g id="a_Node000001"><a xlink:title="Replaces the y and x values at a specified index.">
<polygon fill="#999999" stroke="#666666" points="693.25,-158 546.75,-158 546.75,-138 693.25,-138 693.25,-158"/>
<text text-anchor="middle" x="620" y="-144.5" font-family="Helvetica,sans-Serif" font-size="10.00">fcmaes.advretry.Store.replace</text>
</a>
</g>
</g>
<!-- Node2 -->
<g id="Node000002" class="node">
<title>Node2</title>
<g id="a_Node000002"><a xlink:href="$classfcmaes_1_1advretry_1_1_store.html#a7dfa5440d1d295083cef68ea37be60fe" xlink:title="Adds a result to the current optimization process, updating the best result if necessary and storing ...">
<polygon fill="white" stroke="#666666" points="332.38,-208 201.62,-208 201.62,-176 332.38,-176 332.38,-208"/>
<text text-anchor="start" x="209.62" y="-194.5" font-family="Helvetica,sans-Serif" font-size="10.00">fcmaes.advretry.Store.add</text>
<text text-anchor="middle" x="267" y="-182.5" font-family="Helvetica,sans-Serif" font-size="10.00">_result</text>
</a>
</g>
</g>
<!-- Node1&#45;&gt;Node2 -->
<g id="edge23_Node000001_Node000002" class="edge">
<title>Node1&#45;&gt;Node2</title>
<g id="a_edge23_Node000001_Node000002"><a xlink:title=" ">
<path fill="none" stroke="#63b8ff" d="M535.25,-158.88C526.98,-159.94 518.7,-160.99 510.75,-162 450.4,-169.63 381.58,-178.12 332.67,-184.11"/>
<polygon fill="#63b8ff" stroke="#63b8ff" points="535.54,-162.37 545.01,-157.63 534.65,-155.43 535.54,-162.37"/>
</a>
</g>
</g>
<!-- Node3 -->
<g id="Node000003" class="node">
<title>Node3</title>
<g id="a_Node000003"><a xlink:href="$classfcmaes_1_1advretry_1_1_store.html#acff238ba31618eab7787f5204b5676f3" xlink:title="Sets the data for an internal storage structure and processes it.">
<polygon fill="white" stroke="#666666" points="343.25,-158 190.75,-158 190.75,-138 343.25,-138 343.25,-158"/>
<text text-anchor="middle" x="267" y="-144.5" font-family="Helvetica,sans-Serif" font-size="10.00">fcmaes.advretry.Store.set_data</text>
</a>
</g>
</g>
<!-- Node1&#45;&gt;Node3 -->
<g id="edge24_Node000001_Node000003" class="edge">
<title>Node1&#45;&gt;Node3</title>
<g id="a_edge24_Node000001_Node000003"><a xlink:title=" ">
<path fill="none" stroke="#63b8ff" d="M534.89,-148C476.71,-148 399.93,-148 343.67,-148"/>
<polygon fill="#63b8ff" stroke="#63b8ff" points="534.76,-151.5 544.76,-148 534.76,-144.5 534.76,-151.5"/>
</a>
</g>
</g>
<!-- Node6 -->
<g id="Node000006" class="node">
<title>Node6</title>
<g id="a_Node000006"><a xlink:href="$classfcmaes_1_1advretry_1_1_store.html#aa5c9f7209b6bfb5bf079ad940a84eea4" xlink:title="Sorts and updates stored data based on the given criteria.">
<polygon fill="white" stroke="#666666" points="510.75,-117 379.25,-117 379.25,-97 510.75,-97 510.75,-117"/>
<text text-anchor="middle" x="445" y="-103.5" font-family="Helvetica,sans-Serif" font-size="10.00">fcmaes.advretry.Store.sort</text>
</a>
</g>
</g>
<!-- Node1&#45;&gt;Node6 -->
<g id="edge27_Node000001_Node000006" class="edge">
<title>Node1&#45;&gt;Node6</title>
<g id="a_edge27_Node000001_Node000006"><a xlink:title=" ">
<path fill="none" stroke="#63b8ff" d="M563.87,-134.94C540.02,-129.28 512.48,-122.76 490.02,-117.43"/>
<polygon fill="#63b8ff" stroke="#63b8ff" points="562.89,-138.3 573.42,-137.2 564.5,-131.49 562.89,-138.3"/>
</a>
</g>
</g>
<!-- Node4 -->
<g id="Node000004" class="node">
<title>Node4</title>
<g id="a_Node000004"><a xlink:href="$classfcmaes_1_1advretry_1_1_store.html#adc9b28c43aee9110aef2fad53f30a077" xlink:title="Loads and processes data from a compressed file.">
<polygon fill="white" stroke="#666666" points="143.88,-139 10.88,-139 10.88,-119 143.88,-119 143.88,-139"/>
<text text-anchor="middle" x="77.38" y="-125.5" font-family="Helvetica,sans-Serif" font-size="10.00">fcmaes.advretry.Store.load</text>
</a>
</g>
</g>
<!-- Node3&#45;&gt;Node4 -->
<g id="edge25_Node000003_Node000004" class="edge">
<title>Node3&#45;&gt;Node4</title>
<g id="a_edge25_Node000003_Node000004"><a xlink:title=" ">
<path fill="none" stroke="#63b8ff" d="M179.3,-139.22C167.56,-138.03 155.66,-136.83 144.36,-135.68"/>
<polygon fill="#63b8ff" stroke="#63b8ff" points="178.69,-142.68 188.99,-140.2 179.39,-135.71 178.69,-142.68"/>
</a>
</g>
</g>
<!-- Node5 -->
<g id="Node000005" class="node">
<title>Node5</title>
<g id="a_Node000005"><a xlink:href="$classfcmaes_1_1multiretry_1_1multiretry.html#a34c47ed6cd26370e8c8d5227791921b8" xlink:title="Loads data from a compressed pickle (.pbz2) file and sets it to the current instance.">
<polygon fill="white" stroke="#666666" points="154.75,-177 0,-177 0,-157 154.75,-157 154.75,-177"/>
<text text-anchor="middle" x="77.38" y="-163.5" font-family="Helvetica,sans-Serif" font-size="10.00">fcmaes.multiretry.multiretry.load</text>
</a>
</g>
</g>
<!-- Node3&#45;&gt;Node5 -->
<g id="edge26_Node000003_Node000005" class="edge">
<title>Node3&#45;&gt;Node5</title>
<g id="a_edge26_Node000003_Node000005"><a xlink:title=" ">
<path fill="none" stroke="#63b8ff" d="M179.15,-156.8C171.07,-157.61 162.92,-158.44 154.95,-159.25"/>
<polygon fill="#63b8ff" stroke="#63b8ff" points="179.39,-160.29 188.99,-155.8 178.69,-153.32 179.39,-160.29"/>
</a>
</g>
</g>
<!-- Node6&#45;&gt;Node2 -->
<g id="edge28_Node000006_Node000002" class="edge">
<title>Node6&#45;&gt;Node2</title>
<g id="a_edge28_Node000006_Node000002"><a xlink:title=" ">
<path fill="none" stroke="#63b8ff" d="M419.34,-123.74C399.43,-136.75 370.37,-154.6 343.25,-167 336.49,-170.09 329.23,-172.99 321.99,-175.64"/>
<polygon fill="#63b8ff" stroke="#63b8ff" points="421.2,-126.71 427.6,-118.27 417.33,-120.88 421.2,-126.71"/>
</a>
</g>
</g>
<!-- Node6&#45;&gt;Node3 -->
<g id="edge33_Node000006_Node000003" class="edge">
<title>Node6&#45;&gt;Node3</title>
<g id="a_edge33_Node000006_Node000003"><a xlink:title=" ">
<path fill="none" stroke="#63b8ff" d="M388.25,-119.99C363.9,-125.66 335.74,-132.22 312.79,-137.57"/>
<polygon fill="#63b8ff" stroke="#63b8ff" points="388.71,-123.47 397.66,-117.8 387.12,-116.66 388.71,-123.47"/>
</a>
</g>
</g>
<!-- Node7 -->
<g id="Node000007" class="node">
<title>Node7</title>
<g id="a_Node000007"><a xlink:href="$classfcmaes_1_1retry_1_1_store.html#aed35531d1489fd7b28d69dc3c9794508" xlink:title="Adds a result to the data structure, updating statistical values and recording the given data point.">
<polygon fill="white" stroke="#666666" points="134.88,-98 19.88,-98 19.88,-66 134.88,-66 134.88,-98"/>
<text text-anchor="start" x="27.88" y="-84.5" font-family="Helvetica,sans-Serif" font-size="10.00">fcmaes.retry.Store.add</text>
<text text-anchor="middle" x="77.38" y="-72.5" font-family="Helvetica,sans-Serif" font-size="10.00">_result</text>
</a>
</g>
</g>
<!-- Node6&#45;&gt;Node7 -->
<g id="edge29_Node000006_Node000007" class="edge">
<title>Node6&#45;&gt;Node7</title>
<g id="a_edge29_Node000006_Node000007"><a xlink:title=" ">
<path fill="none" stroke="#63b8ff" d="M403.66,-93.09C385.44,-87.51 363.51,-81.76 343.25,-79 272.05,-69.29 189.09,-72.55 135.25,-76.57"/>
<polygon fill="#63b8ff" stroke="#63b8ff" points="402.43,-96.37 413.02,-96.05 404.55,-89.7 402.43,-96.37"/>
</a>
</g>
</g>
<!-- Node8 -->
<g id="Node000008" class="node">
<title>Node8</title>
<g id="a_Node000008"><a xlink:href="$classfcmaes_1_1advretry_1_1_store.html#ac1a185da0fdff01550d275b4635f73df" xlink:title="Compares the current count of runs against a specified limit and increments internal counters accordi...">
<polygon fill="white" stroke="#666666" points="331.25,-32 202.75,-32 202.75,0 331.25,0 331.25,-32"/>
<text text-anchor="start" x="210.75" y="-18.5" font-family="Helvetica,sans-Serif" font-size="10.00">fcmaes.advretry.Store.get</text>
<text text-anchor="middle" x="267" y="-6.5" font-family="Helvetica,sans-Serif" font-size="10.00">_runs_compare_incr</text>
</a>
</g>
</g>
<!-- Node6&#45;&gt;Node8 -->
<g id="edge30_Node000006_Node000008" class="edge">
<title>Node6&#45;&gt;Node8</title>
<g id="a_edge30_Node000006_Node000008"><a xlink:title=" ">
<path fill="none" stroke="#63b8ff" d="M419.18,-90.39C399.17,-77.39 370.06,-59.35 343.25,-46 333.56,-41.17 322.88,-36.54 312.7,-32.41"/>
<polygon fill="#63b8ff" stroke="#63b8ff" points="417.2,-93.28 427.48,-95.84 421.04,-87.42 417.2,-93.28"/>
</a>
</g>
</g>
<!-- Node9 -->
<g id="Node000009" class="node">
<title>Node9</title>
<g id="a_Node000009"><a xlink:href="$classfcmaes_1_1retry_1_1_store.html#a440b834ab3066810ed77da1c5093fa49" xlink:title="Increases the count of evaluations and performs sorting based on a condition.">
<polygon fill="white" stroke="#666666" points="324.5,-120 209.5,-120 209.5,-88 324.5,-88 324.5,-120"/>
<text text-anchor="start" x="217.5" y="-106.5" font-family="Helvetica,sans-Serif" font-size="10.00">fcmaes.retry.Store.incr</text>
<text text-anchor="middle" x="267" y="-94.5" font-family="Helvetica,sans-Serif" font-size="10.00">_count_evals</text>
</a>
</g>
</g>
<!-- Node6&#45;&gt;Node9 -->
<g id="edge31_Node000006_Node000009" class="edge">
<title>Node6&#45;&gt;Node9</title>
<g id="a_edge31_Node000006_Node000009"><a xlink:title=" ">
<path fill="none" stroke="#63b8ff" d="M367.6,-105.7C353.28,-105.45 338.54,-105.2 324.94,-104.97"/>
<polygon fill="#63b8ff" stroke="#63b8ff" points="367.39,-109.19 377.45,-105.87 367.51,-102.2 367.39,-109.19"/>
</a>
</g>
</g>
<!-- Node9&#45;&gt;Node7 -->
<g id="edge32_Node000009_Node000007" class="edge">
<title>Node9&#45;&gt;Node7</title>
<g id="a_edge32_Node000009_Node000007"><a xlink:title=" ">
<path fill="none" stroke="#63b8ff" d="M197.99,-96.02C177.42,-93.61 155.07,-90.99 135.31,-88.68"/>
<polygon fill="#63b8ff" stroke="#63b8ff" points="197.35,-99.47 207.69,-97.16 198.17,-92.52 197.35,-99.47"/>
</a>
</g>
</g>
</g>
</svg>
