<?xml version="1.0" encoding="UTF-8" standalone="no"?>
<!DOCTYPE svg PUBLIC "-//W3C//DTD SVG 1.1//EN"
 "http://www.w3.org/Graphics/SVG/1.1/DTD/svg11.dtd">
<!-- Generated by graphviz version 12.2.1 (20241206.2353)
 -->
<!-- Title: fcmaes.cmaes.Cmaes.updateCovariance Pages: 1 -->
<svg width="924pt" height="266pt"
 viewBox="0.00 0.00 924.25 266.00" xmlns="http://www.w3.org/2000/svg" xmlns:xlink="http://www.w3.org/1999/xlink">
<g id="graph0" class="graph" transform="scale(1 1) rotate(0) translate(4 262)">
<title>fcmaes.cmaes.Cmaes.updateCovariance</title>
<!-- Node1 -->
<g id="Node000001" class="node">
<title>Node1</title>
<g id="a_Node000001"><a xlink:title="Updates the covariance matrix and returns the negative covariance scaling factor.">
<polygon fill="#999999" stroke="#666666" points="916.25,-176 769,-176 769,-144 916.25,-144 916.25,-176"/>
<text text-anchor="start" x="777" y="-162.5" font-family="Helvetica,sans-Serif" font-size="10.00">fcmaes.cmaes.Cmaes.update</text>
<text text-anchor="middle" x="842.62" y="-150.5" font-family="Helvetica,sans-Serif" font-size="10.00">Covariance</text>
</a>
</g>
</g>
<!-- Node2 -->
<g id="Node000002" class="node">
<title>Node2</title>
<g id="a_Node000002"><a xlink:href="$classfcmaes_1_1cmaes_1_1_cmaes.html#a7dada2c399890feafb59c01d1f424ee5" xlink:title="Updates the evolutionary process using the Covariance Matrix Adaptation (CMA) strategy.">
<polygon fill="white" stroke="#666666" points="733,-170 563.25,-170 563.25,-150 733,-150 733,-170"/>
<text text-anchor="middle" x="648.12" y="-156.5" font-family="Helvetica,sans-Serif" font-size="10.00">fcmaes.cmaes.Cmaes.updateCMA</text>
</a>
</g>
</g>
<!-- Node1&#45;&gt;Node2 -->
<g id="edge21_Node000001_Node000002" class="edge">
<title>Node1&#45;&gt;Node2</title>
<g id="a_edge21_Node000001_Node000002"><a xlink:title=" ">
<path fill="none" stroke="#63b8ff" d="M757.14,-160C749.27,-160 741.29,-160 733.42,-160"/>
<polygon fill="#63b8ff" stroke="#63b8ff" points="757.06,-163.5 767.06,-160 757.06,-156.5 757.06,-163.5"/>
</a>
</g>
</g>
<!-- Node3 -->
<g id="Node000003" class="node">
<title>Node3</title>
<g id="a_Node000003"><a xlink:href="$classfcmaes_1_1cmaes_1_1_cmaes.html#ac7cbecf8b29fb1048bd4cc7ec900692c" xlink:title="Processes the given fitness value and solution vector, performs updates to internal data structures,...">
<polygon fill="white" stroke="#666666" points="527.25,-170 375.5,-170 375.5,-150 527.25,-150 527.25,-170"/>
<text text-anchor="middle" x="451.38" y="-156.5" font-family="Helvetica,sans-Serif" font-size="10.00">fcmaes.cmaes.Cmaes.tell_one</text>
</a>
</g>
</g>
<!-- Node2&#45;&gt;Node3 -->
<g id="edge22_Node000002_Node000003" class="edge">
<title>Node2&#45;&gt;Node3</title>
<g id="a_edge22_Node000002_Node000003"><a xlink:title=" ">
<path fill="none" stroke="#63b8ff" d="M551.52,-160C543.49,-160 535.45,-160 527.6,-160"/>
<polygon fill="#63b8ff" stroke="#63b8ff" points="551.32,-163.5 561.32,-160 551.32,-156.5 551.32,-163.5"/>
</a>
</g>
</g>
<!-- Node4 -->
<g id="Node000004" class="node">
<title>Node4</title>
<g id="a_Node000004"><a xlink:href="$classfcmaes_1_1de_1_1_d_e.html#a2d6eb4d91b58018e74be863ecf71862b" xlink:title="Performs a delayed update optimization process using multiple workers for parallel evaluation.">
<polygon fill="white" stroke="#666666" points="339.5,-198 205,-198 205,-166 339.5,-166 339.5,-198"/>
<text text-anchor="start" x="213" y="-184.5" font-family="Helvetica,sans-Serif" font-size="10.00">fcmaes.de.DE.do_optimize</text>
<text text-anchor="middle" x="272.25" y="-172.5" font-family="Helvetica,sans-Serif" font-size="10.00">_delayed_update</text>
</a>
</g>
</g>
<!-- Node3&#45;&gt;Node4 -->
<g id="edge23_Node000003_Node000004" class="edge">
<title>Node3&#45;&gt;Node4</title>
<g id="a_edge23_Node000003_Node000004"><a xlink:title=" ">
<path fill="none" stroke="#63b8ff" d="M363.71,-170.76C355.7,-171.76 347.66,-172.76 339.87,-173.73"/>
<polygon fill="#63b8ff" stroke="#63b8ff" points="364.01,-174.25 373.5,-169.55 363.14,-167.31 364.01,-174.25"/>
</a>
</g>
</g>
<!-- Node5 -->
<g id="Node000005" class="node">
<title>Node5</title>
<g id="a_Node000005"><a xlink:href="$classfcmaes_1_1de_1_1_d_e.html#aa9de9d67ac999658a523d2ad8976954b" xlink:title="Tells the algorithm about the function evaluations (objective values) for the proposed solutions and ...">
<polygon fill="white" stroke="#666666" points="319.62,-148 224.88,-148 224.88,-128 319.62,-128 319.62,-148"/>
<text text-anchor="middle" x="272.25" y="-134.5" font-family="Helvetica,sans-Serif" font-size="10.00">fcmaes.de.DE.tell</text>
</a>
</g>
</g>
<!-- Node3&#45;&gt;Node5 -->
<g id="edge24_Node000003_Node000005" class="edge">
<title>Node3&#45;&gt;Node5</title>
<g id="a_edge24_Node000003_Node000005"><a xlink:title=" ">
<path fill="none" stroke="#63b8ff" d="M364.01,-149.27C348.86,-147.39 333.63,-145.5 320.08,-143.82"/>
<polygon fill="#63b8ff" stroke="#63b8ff" points="363.14,-152.69 373.5,-150.45 364.01,-145.75 363.14,-152.69"/>
</a>
</g>
</g>
<!-- Node6 -->
<g id="Node000006" class="node">
<title>Node6</title>
<g id="a_Node000006"><a xlink:href="$classfcmaes_1_1mode_1_1_m_o_d_e.html#a6f479d982825465b97c89e528351bf36" xlink:title="Minimizes the given multi&#45;objective function in parallel, using a specified number of workers and an ...">
<polygon fill="white" stroke="#666666" points="169,-258 0,-258 0,-238 169,-238 169,-258"/>
<text text-anchor="middle" x="84.5" y="-244.5" font-family="Helvetica,sans-Serif" font-size="10.00">fcmaes.mode.MODE.minimize_par</text>
</a>
</g>
</g>
<!-- Node5&#45;&gt;Node6 -->
<g id="edge25_Node000005_Node000006" class="edge">
<title>Node5&#45;&gt;Node6</title>
<g id="a_edge25_Node000005_Node000006"><a xlink:title=" ">
<path fill="none" stroke="#63b8ff" d="M214.29,-150.74C210.99,-152.55 207.85,-154.63 205,-157 177.48,-179.86 197.14,-206.91 169,-229 164.67,-232.4 159.85,-235.21 154.77,-237.53"/>
<polygon fill="#63b8ff" stroke="#63b8ff" points="215.59,-153.99 223.23,-146.66 212.68,-147.63 215.59,-153.99"/>
</a>
</g>
</g>
<!-- Node7 -->
<g id="Node000007" class="node">
<title>Node7</title>
<g id="a_Node000007"><a xlink:href="$classfcmaes_1_1modecpp_1_1_m_o_d_e___c.html#a672b403a7e745d9e69532454f32d2b62" xlink:title="Run a parallel multi&#45;objective optimization process.">
<polygon fill="white" stroke="#666666" points="146.5,-220 22.5,-220 22.5,-188 146.5,-188 146.5,-220"/>
<text text-anchor="start" x="30.5" y="-206.5" font-family="Helvetica,sans-Serif" font-size="10.00">fcmaes.modecpp.MODE</text>
<text text-anchor="middle" x="84.5" y="-194.5" font-family="Helvetica,sans-Serif" font-size="10.00">_C.minimize_par</text>
</a>
</g>
</g>
<!-- Node5&#45;&gt;Node7 -->
<g id="edge26_Node000005_Node000007" class="edge">
<title>Node5&#45;&gt;Node7</title>
<g id="a_edge26_Node000005_Node000007"><a xlink:title=" ">
<path fill="none" stroke="#63b8ff" d="M217.72,-151.99C213.36,-153.54 209.07,-155.21 205,-157 187.83,-164.54 186.12,-171.36 169,-179 161.95,-182.14 154.4,-185.03 146.82,-187.63"/>
<polygon fill="#63b8ff" stroke="#63b8ff" points="218.76,-155.33 227.16,-148.87 216.56,-148.69 218.76,-155.33"/>
</a>
</g>
</g>
<!-- Node8 -->
<g id="Node000008" class="node">
<title>Node8</title>
<g id="a_Node000008"><a xlink:href="$classfcmaes_1_1mode_1_1_m_o_d_e.html#a3b3a358c6fded3c638706495c88eff1a" xlink:title="Minimizes a given function using a custom optimization approach until the maximum number of evaluatio...">
<polygon fill="white" stroke="#666666" points="169,-170 0,-170 0,-150 169,-150 169,-170"/>
<text text-anchor="middle" x="84.5" y="-156.5" font-family="Helvetica,sans-Serif" font-size="10.00">fcmaes.mode.MODE.minimize_ser</text>
</a>
</g>
</g>
<!-- Node5&#45;&gt;Node8 -->
<g id="edge27_Node000005_Node000008" class="edge">
<title>Node5&#45;&gt;Node8</title>
<g id="a_edge27_Node000005_Node000008"><a xlink:title=" ">
<path fill="none" stroke="#63b8ff" d="M213.02,-144.9C199.13,-146.54 184.03,-148.33 169.24,-150.08"/>
<polygon fill="#63b8ff" stroke="#63b8ff" points="213.36,-148.38 222.87,-143.73 212.53,-141.43 213.36,-148.38"/>
</a>
</g>
</g>
<!-- Node9 -->
<g id="Node000009" class="node">
<title>Node9</title>
<g id="a_Node000009"><a xlink:href="$classfcmaes_1_1modecpp_1_1_m_o_d_e___c.html#aa4a7a3e4f9a3fc84dc37faf820025306" xlink:title="Minimizes the given scalar function using a serial optimization method.">
<polygon fill="white" stroke="#666666" points="146.5,-132 22.5,-132 22.5,-100 146.5,-100 146.5,-132"/>
<text text-anchor="start" x="30.5" y="-118.5" font-family="Helvetica,sans-Serif" font-size="10.00">fcmaes.modecpp.MODE</text>
<text text-anchor="middle" x="84.5" y="-106.5" font-family="Helvetica,sans-Serif" font-size="10.00">_C.minimize_ser</text>
</a>
</g>
</g>
<!-- Node5&#45;&gt;Node9 -->
<g id="edge28_Node000005_Node000009" class="edge">
<title>Node5&#45;&gt;Node9</title>
<g id="a_edge28_Node000005_Node000009"><a xlink:title=" ">
<path fill="none" stroke="#63b8ff" d="M212.99,-131.1C191.92,-128.6 168.08,-125.78 146.76,-123.26"/>
<polygon fill="#63b8ff" stroke="#63b8ff" points="212.53,-134.57 222.87,-132.27 213.36,-127.62 212.53,-134.57"/>
</a>
</g>
</g>
<!-- Node10 -->
<g id="Node000010" class="node">
<title>Node10</title>
<g id="a_Node000010"><a xlink:href="$classfcmaes_1_1mode_1_1_m_o_d_e.html#af1ac6ae50db24a626f6649175bfecf96" xlink:title="Sets the initial guess values for an optimization or search algorithm.">
<polygon fill="white" stroke="#666666" points="146.88,-82 22.13,-82 22.13,-50 146.88,-50 146.88,-82"/>
<text text-anchor="start" x="30.12" y="-68.5" font-family="Helvetica,sans-Serif" font-size="10.00">fcmaes.mode.MODE.set</text>
<text text-anchor="middle" x="84.5" y="-56.5" font-family="Helvetica,sans-Serif" font-size="10.00">_guess</text>
</a>
</g>
</g>
<!-- Node5&#45;&gt;Node10 -->
<g id="edge29_Node000005_Node000010" class="edge">
<title>Node5&#45;&gt;Node10</title>
<g id="a_edge29_Node000005_Node000010"><a xlink:title=" ">
<path fill="none" stroke="#63b8ff" d="M240.75,-122.62C220.67,-112.83 193.64,-100.3 169,-91 161.07,-88.01 152.62,-85.13 144.24,-82.46"/>
<polygon fill="#63b8ff" stroke="#63b8ff" points="238.98,-125.65 249.49,-126.93 242.07,-119.37 238.98,-125.65"/>
</a>
</g>
</g>
<!-- Node11 -->
<g id="Node000011" class="node">
<title>Node11</title>
<g id="a_Node000011"><a xlink:href="$classfcmaes_1_1modecpp_1_1_m_o_d_e___c.html#a3267cafa8c068a367179034c3f5a562d" xlink:title="Set the initial guess values for optimization along with corresponding function evaluations.">
<polygon fill="white" stroke="#666666" points="146.5,-32 22.5,-32 22.5,0 146.5,0 146.5,-32"/>
<text text-anchor="start" x="30.5" y="-18.5" font-family="Helvetica,sans-Serif" font-size="10.00">fcmaes.modecpp.MODE</text>
<text text-anchor="middle" x="84.5" y="-6.5" font-family="Helvetica,sans-Serif" font-size="10.00">_C.set_guess</text>
</a>
</g>
</g>
<!-- Node5&#45;&gt;Node11 -->
<g id="edge30_Node000005_Node000011" class="edge">
<title>Node5&#45;&gt;Node11</title>
<g id="a_edge30_Node000005_Node000011"><a xlink:title=" ">
<path fill="none" stroke="#63b8ff" d="M255.96,-118.85C237.54,-96.99 204.6,-61.62 169,-41 162.06,-36.98 154.41,-33.55 146.65,-30.65"/>
<polygon fill="#63b8ff" stroke="#63b8ff" points="253.12,-120.91 262.18,-126.4 258.53,-116.46 253.12,-120.91"/>
</a>
</g>
</g>
</g>
</svg>
