<?xml version="1.0" encoding="UTF-8" standalone="no"?>
<!DOCTYPE svg PUBLIC "-//W3C//DTD SVG 1.1//EN"
 "http://www.w3.org/Graphics/SVG/1.1/DTD/svg11.dtd">
<!-- Generated by graphviz version 12.2.1 (20241206.2353)
 -->
<!-- Title: crmfnes::CrfmnesOptimizer::doOptimize Pages: 1 -->
<svg width="828pt" height="468pt"
 viewBox="0.00 0.00 828.25 468.00" xmlns="http://www.w3.org/2000/svg" xmlns:xlink="http://www.w3.org/1999/xlink">
<g id="graph0" class="graph" transform="scale(1 1) rotate(0) translate(4 464)">
<title>crmfnes::CrfmnesOptimizer::doOptimize</title>
<!-- Node1 -->
<g id="Node000001" class="node">
<title>Node1</title>
<g id="a_Node000001"><a xlink:title=" ">
<polygon fill="#999999" stroke="#666666" points="136.75,-314 0,-314 0,-282 136.75,-282 136.75,-314"/>
<text text-anchor="start" x="8" y="-300.5" font-family="Helvetica,sans-Serif" font-size="10.00">crmfnes::CrfmnesOptimizer</text>
<text text-anchor="middle" x="68.38" y="-288.5" font-family="Helvetica,sans-Serif" font-size="10.00">::doOptimize</text>
</a>
</g>
</g>
<!-- Node2 -->
<g id="Node000002" class="node">
<title>Node2</title>
<g id="a_Node000002"><a xlink:href="$classcrmfnes_1_1_crfmnes_optimizer.html#ac3695788414c855140e6615040309e42" xlink:title=" ">
<polygon fill="white" stroke="#666666" points="331.25,-395 172.75,-395 172.75,-375 331.25,-375 331.25,-395"/>
<text text-anchor="middle" x="252" y="-381.5" font-family="Helvetica,sans-Serif" font-size="10.00">crmfnes::CrfmnesOptimizer::ask</text>
</a>
</g>
</g>
<!-- Node1&#45;&gt;Node2 -->
<g id="edge35_Node000001_Node000002" class="edge">
<title>Node1&#45;&gt;Node2</title>
<g id="a_edge35_Node000001_Node000002"><a xlink:title=" ">
<path fill="none" stroke="#63b8ff" d="M103.54,-314.36C136.68,-330.24 186.59,-354.15 218.98,-369.66"/>
<polygon fill="#63b8ff" stroke="#63b8ff" points="217.35,-372.76 227.88,-373.93 220.38,-366.45 217.35,-372.76"/>
</a>
</g>
</g>
<!-- Node4 -->
<g id="Node000004" class="node">
<title>Node4</title>
<g id="a_Node000004"><a xlink:href="$classcrmfnes_1_1_crfmnes_optimizer.html#aae1806b3f5cca0f2f27363c38c83a836" xlink:title=" ">
<polygon fill="white" stroke="#666666" points="320.38,-292 183.62,-292 183.62,-260 320.38,-260 320.38,-292"/>
<text text-anchor="start" x="191.62" y="-278.5" font-family="Helvetica,sans-Serif" font-size="10.00">crmfnes::CrfmnesOptimizer</text>
<text text-anchor="middle" x="252" y="-266.5" font-family="Helvetica,sans-Serif" font-size="10.00">::tell</text>
</a>
</g>
</g>
<!-- Node1&#45;&gt;Node4 -->
<g id="edge37_Node000001_Node000004" class="edge">
<title>Node1&#45;&gt;Node4</title>
<g id="a_edge37_Node000001_Node000004"><a xlink:title=" ">
<path fill="none" stroke="#63b8ff" d="M137.01,-289.81C148.47,-288.42 160.46,-286.97 172.18,-285.55"/>
<polygon fill="#63b8ff" stroke="#63b8ff" points="172.3,-289.06 181.81,-284.38 171.46,-282.11 172.3,-289.06"/>
</a>
</g>
</g>
<!-- Node3 -->
<g id="Node000003" class="node">
<title>Node3</title>
<g id="a_Node000003"><a xlink:href="$evaluator_8h.html#a231544ac51b3f9312c104a3b7a3c49a6" xlink:title=" ">
<polygon fill="white" stroke="#666666" points="466.5,-460 421.25,-460 421.25,-440 466.5,-440 466.5,-460"/>
<text text-anchor="middle" x="443.88" y="-446.5" font-family="Helvetica,sans-Serif" font-size="10.00">normal</text>
</a>
</g>
</g>
<!-- Node2&#45;&gt;Node3 -->
<g id="edge36_Node000002_Node000003" class="edge">
<title>Node2&#45;&gt;Node3</title>
<g id="a_edge36_Node000002_Node000003"><a xlink:title=" ">
<path fill="none" stroke="#63b8ff" d="M276.29,-395.47C299.13,-405.48 335.12,-420.55 367.25,-431 380.99,-435.47 396.42,-439.51 409.74,-442.71"/>
<polygon fill="#63b8ff" stroke="#63b8ff" points="408.8,-446.09 419.33,-444.95 410.39,-439.27 408.8,-446.09"/>
</a>
</g>
</g>
<!-- Node5 -->
<g id="Node000005" class="node">
<title>Node5</title>
<g id="a_Node000005"><a xlink:href="$classcrmfnes_1_1_crfmnes_optimizer.html#a61b800bdcb2be2c0add38eabc9bb2df5" xlink:title=" ">
<polygon fill="white" stroke="#666666" points="520.5,-384 367.25,-384 367.25,-364 520.5,-364 520.5,-384"/>
<text text-anchor="middle" x="443.88" y="-370.5" font-family="Helvetica,sans-Serif" font-size="10.00">crmfnes::CrfmnesOptimizer::c1</text>
</a>
</g>
</g>
<!-- Node4&#45;&gt;Node5 -->
<g id="edge38_Node000004_Node000005" class="edge">
<title>Node4&#45;&gt;Node5</title>
<g id="a_edge38_Node000004_Node000005"><a xlink:title=" ">
<path fill="none" stroke="#63b8ff" d="M274.31,-292.3C296.52,-308.68 332.84,-333.76 367.25,-350 375.22,-353.76 383.93,-357.14 392.51,-360.1"/>
<polygon fill="#63b8ff" stroke="#63b8ff" points="391.22,-363.36 401.81,-363.14 393.4,-356.7 391.22,-363.36"/>
</a>
</g>
</g>
<!-- Node6 -->
<g id="Node000006" class="node">
<title>Node6</title>
<g id="a_Node000006"><a xlink:href="$classcrmfnes_1_1_crfmnes_optimizer.html#a1c0bc5770261a21ed819387c339b3c05" xlink:title=" ">
<polygon fill="white" stroke="#666666" points="693.25,-261 556.5,-261 556.5,-229 693.25,-229 693.25,-261"/>
<text text-anchor="start" x="564.5" y="-247.5" font-family="Helvetica,sans-Serif" font-size="10.00">crmfnes::CrfmnesOptimizer</text>
<text text-anchor="middle" x="624.88" y="-235.5" font-family="Helvetica,sans-Serif" font-size="10.00">::cexp</text>
</a>
</g>
</g>
<!-- Node4&#45;&gt;Node6 -->
<g id="edge39_Node000004_Node000006" class="edge">
<title>Node4&#45;&gt;Node6</title>
<g id="a_edge39_Node000004_Node000006"><a xlink:title=" ">
<path fill="none" stroke="#63b8ff" d="M288.66,-292.39C310.77,-301.64 340.05,-312.27 367.25,-317 434.35,-328.68 455.52,-337.4 520.5,-317 550.54,-307.57 579.48,-285.98 599.06,-268.89"/>
<polygon fill="#63b8ff" stroke="#63b8ff" points="601.16,-271.71 606.25,-262.42 596.47,-266.51 601.16,-271.71"/>
</a>
</g>
</g>
<!-- Node7 -->
<g id="Node000007" class="node">
<title>Node7</title>
<g id="a_Node000007"><a xlink:href="$evaluator_8h.html#a493b3a74ec3481711548e4b506b009cd" xlink:title=" ">
<polygon fill="white" stroke="#666666" points="470.62,-308 417.12,-308 417.12,-288 470.62,-288 470.62,-308"/>
<text text-anchor="middle" x="443.88" y="-294.5" font-family="Helvetica,sans-Serif" font-size="10.00">constant</text>
</a>
</g>
</g>
<!-- Node4&#45;&gt;Node7 -->
<g id="edge40_Node000004_Node000007" class="edge">
<title>Node4&#45;&gt;Node7</title>
<g id="a_edge40_Node000004_Node000007"><a xlink:title=" ">
<path fill="none" stroke="#63b8ff" d="M320.75,-283.85C349.3,-287.16 381.44,-290.88 405.58,-293.68"/>
<polygon fill="#63b8ff" stroke="#63b8ff" points="404.9,-297.12 415.23,-294.8 405.7,-290.17 404.9,-297.12"/>
</a>
</g>
</g>
<!-- Node8 -->
<g id="Node000008" class="node">
<title>Node8</title>
<g id="a_Node000008"><a xlink:href="$classcrmfnes_1_1_crfmnes_optimizer.html#ae0b69c9a8ba0266efb3fe667de42134f" xlink:title=" ">
<polygon fill="white" stroke="#666666" points="512.25,-270 375.5,-270 375.5,-238 512.25,-238 512.25,-270"/>
<text text-anchor="start" x="383.5" y="-256.5" font-family="Helvetica,sans-Serif" font-size="10.00">crmfnes::CrfmnesOptimizer</text>
<text text-anchor="middle" x="443.88" y="-244.5" font-family="Helvetica,sans-Serif" font-size="10.00">::eta_B</text>
</a>
</g>
</g>
<!-- Node4&#45;&gt;Node8 -->
<g id="edge41_Node000004_Node000008" class="edge">
<title>Node4&#45;&gt;Node8</title>
<g id="a_edge41_Node000004_Node000008"><a xlink:title=" ">
<path fill="none" stroke="#63b8ff" d="M320.75,-268.15C334.7,-266.53 349.5,-264.82 363.81,-263.16"/>
<polygon fill="#63b8ff" stroke="#63b8ff" points="364.12,-266.65 373.65,-262.02 363.32,-259.69 364.12,-266.65"/>
</a>
</g>
</g>
<!-- Node9 -->
<g id="Node000009" class="node">
<title>Node9</title>
<g id="a_Node000009"><a xlink:href="$classcrmfnes_1_1_crfmnes_optimizer.html#a1748dadb5cbf900c7835cabfbb898456" xlink:title=" ">
<polygon fill="white" stroke="#666666" points="512.25,-220 375.5,-220 375.5,-188 512.25,-188 512.25,-220"/>
<text text-anchor="start" x="383.5" y="-206.5" font-family="Helvetica,sans-Serif" font-size="10.00">crmfnes::CrfmnesOptimizer</text>
<text text-anchor="middle" x="443.88" y="-194.5" font-family="Helvetica,sans-Serif" font-size="10.00">::eta_conv_sigma</text>
</a>
</g>
</g>
<!-- Node4&#45;&gt;Node9 -->
<g id="edge42_Node000004_Node000009" class="edge">
<title>Node4&#45;&gt;Node9</title>
<g id="a_edge42_Node000004_Node000009"><a xlink:title=" ">
<path fill="none" stroke="#63b8ff" d="M291.08,-259.54C313.17,-250.19 341.61,-238.5 367.25,-229 371.63,-227.38 376.16,-225.75 380.74,-224.15"/>
<polygon fill="#63b8ff" stroke="#63b8ff" points="381.7,-227.52 390.02,-220.95 379.42,-220.9 381.7,-227.52"/>
</a>
</g>
</g>
<!-- Node10 -->
<g id="Node000010" class="node">
<title>Node10</title>
<g id="a_Node000010"><a xlink:href="$classcrmfnes_1_1_crfmnes_optimizer.html#afa07fb187d0982f0bdcf00c943e9e641" xlink:title=" ">
<polygon fill="white" stroke="#666666" points="512.25,-170 375.5,-170 375.5,-138 512.25,-138 512.25,-170"/>
<text text-anchor="start" x="383.5" y="-156.5" font-family="Helvetica,sans-Serif" font-size="10.00">crmfnes::CrfmnesOptimizer</text>
<text text-anchor="middle" x="443.88" y="-144.5" font-family="Helvetica,sans-Serif" font-size="10.00">::eta_stag_sigma</text>
</a>
</g>
</g>
<!-- Node4&#45;&gt;Node10 -->
<g id="edge43_Node000004_Node000010" class="edge">
<title>Node4&#45;&gt;Node10</title>
<g id="a_edge43_Node000004_Node000010"><a xlink:title=" ">
<path fill="none" stroke="#63b8ff" d="M268.15,-259.71C288.74,-238.43 327.55,-201.29 367.25,-179 369.73,-177.61 372.3,-176.28 374.93,-175.01"/>
<polygon fill="#63b8ff" stroke="#63b8ff" points="376.18,-178.28 383.91,-171.03 373.35,-171.88 376.18,-178.28"/>
</a>
</g>
</g>
<!-- Node11 -->
<g id="Node000011" class="node">
<title>Node11</title>
<g id="a_Node000011"><a xlink:href="$classcrmfnes_1_1_crfmnes_optimizer.html#a914d39cf65f7277f14b0ed3cbf4e0d73" xlink:title=" ">
<polygon fill="white" stroke="#666666" points="512.25,-70 375.5,-70 375.5,-38 512.25,-38 512.25,-70"/>
<text text-anchor="start" x="383.5" y="-56.5" font-family="Helvetica,sans-Serif" font-size="10.00">crmfnes::CrfmnesOptimizer</text>
<text text-anchor="middle" x="443.88" y="-44.5" font-family="Helvetica,sans-Serif" font-size="10.00">::sort_indices_by</text>
</a>
</g>
</g>
<!-- Node4&#45;&gt;Node11 -->
<g id="edge44_Node000004_Node000011" class="edge">
<title>Node4&#45;&gt;Node11</title>
<g id="a_edge44_Node000004_Node000011"><a xlink:title=" ">
<path fill="none" stroke="#63b8ff" d="M258.01,-259.57C270.32,-221.98 305.57,-129.11 367.25,-79 368.52,-77.96 369.84,-76.97 371.2,-76.02"/>
<polygon fill="#63b8ff" stroke="#63b8ff" points="372.6,-79.27 379.33,-71.09 368.97,-73.28 372.6,-79.27"/>
</a>
</g>
</g>
<!-- Node15 -->
<g id="Node000015" class="node">
<title>Node15</title>
<g id="a_Node000015"><a xlink:href="$classcrmfnes_1_1_crfmnes_optimizer.html#ad0e305a53657d5e357d198610c0c21e3" xlink:title=" ">
<polygon fill="white" stroke="#666666" points="512.25,-120 375.5,-120 375.5,-88 512.25,-88 512.25,-120"/>
<text text-anchor="start" x="383.5" y="-106.5" font-family="Helvetica,sans-Serif" font-size="10.00">crmfnes::CrfmnesOptimizer</text>
<text text-anchor="middle" x="443.88" y="-94.5" font-family="Helvetica,sans-Serif" font-size="10.00">::w_dist_hat</text>
</a>
</g>
</g>
<!-- Node4&#45;&gt;Node15 -->
<g id="edge48_Node000004_Node000015" class="edge">
<title>Node4&#45;&gt;Node15</title>
<g id="a_edge48_Node000004_Node000015"><a xlink:title=" ">
<path fill="none" stroke="#63b8ff" d="M261.35,-259.74C277.63,-229.58 316.55,-164.79 367.25,-129 368.84,-127.88 370.49,-126.8 372.18,-125.77"/>
<polygon fill="#63b8ff" stroke="#63b8ff" points="373.76,-128.89 380.92,-121.08 370.45,-122.73 373.76,-128.89"/>
</a>
</g>
</g>
<!-- Node17 -->
<g id="Node000017" class="node">
<title>Node17</title>
<g id="a_Node000017"><a xlink:href="$evaluator_8h.html#a909812174fa9829bc49f6e00edb00b90" xlink:title=" ">
<polygon fill="white" stroke="#666666" points="463.88,-422 423.88,-422 423.88,-402 463.88,-402 463.88,-422"/>
<text text-anchor="middle" x="443.88" y="-408.5" font-family="Helvetica,sans-Serif" font-size="10.00">zeros</text>
</a>
</g>
</g>
<!-- Node4&#45;&gt;Node17 -->
<g id="edge51_Node000004_Node000017" class="edge">
<title>Node4&#45;&gt;Node17</title>
<g id="a_edge51_Node000004_Node000017"><a xlink:title=" ">
<path fill="none" stroke="#63b8ff" d="M266.81,-292.18C291.72,-321.01 343.74,-379.49 367.25,-393 380.91,-400.85 397.79,-405.49 412.13,-408.22"/>
<polygon fill="#63b8ff" stroke="#63b8ff" points="411.52,-411.67 421.96,-409.84 412.66,-404.76 411.52,-411.67"/>
</a>
</g>
</g>
<!-- Node12 -->
<g id="Node000012" class="node">
<title>Node12</title>
<g id="a_Node000012"><a xlink:href="$classcrmfnes_1_1_crfmnes_optimizer.html#adae78062208e6dc79abad146a0461ec3" xlink:title=" ">
<polygon fill="white" stroke="#666666" points="693.25,-70 556.5,-70 556.5,-38 693.25,-38 693.25,-70"/>
<text text-anchor="start" x="564.5" y="-56.5" font-family="Helvetica,sans-Serif" font-size="10.00">crmfnes::CrfmnesOptimizer</text>
<text text-anchor="middle" x="624.88" y="-44.5" font-family="Helvetica,sans-Serif" font-size="10.00">::num_feasible</text>
</a>
</g>
</g>
<!-- Node11&#45;&gt;Node12 -->
<g id="edge45_Node000011_Node000012" class="edge">
<title>Node11&#45;&gt;Node12</title>
<g id="a_edge45_Node000011_Node000012"><a xlink:title=" ">
<path fill="none" stroke="#63b8ff" d="M512.55,-54C523.02,-54 533.91,-54 544.61,-54"/>
<polygon fill="#63b8ff" stroke="#63b8ff" points="544.59,-57.5 554.59,-54 544.59,-50.5 544.59,-57.5"/>
</a>
</g>
</g>
<!-- Node13 -->
<g id="Node000013" class="node">
<title>Node13</title>
<g id="a_Node000013"><a xlink:href="$evaluator_8h.html#a7689f88ea48c85c22d9b34208decd67c" xlink:title=" ">
<polygon fill="white" stroke="#666666" points="655.38,-20 594.38,-20 594.38,0 655.38,0 655.38,-20"/>
<text text-anchor="middle" x="624.88" y="-6.5" font-family="Helvetica,sans-Serif" font-size="10.00">sort_index</text>
</a>
</g>
</g>
<!-- Node11&#45;&gt;Node13 -->
<g id="edge46_Node000011_Node000013" class="edge">
<title>Node11&#45;&gt;Node13</title>
<g id="a_edge46_Node000011_Node000013"><a xlink:title=" ">
<path fill="none" stroke="#63b8ff" d="M511.78,-37.55C535.75,-31.66 562.02,-25.2 583.1,-20.02"/>
<polygon fill="#63b8ff" stroke="#63b8ff" points="583.89,-23.43 592.77,-17.65 582.22,-16.64 583.89,-23.43"/>
</a>
</g>
</g>
<!-- Node14 -->
<g id="Node000014" class="node">
<title>Node14</title>
<g id="a_Node000014"><a xlink:href="$evaluator_8h.html#a85426eb5cecc23caa06090d795034e5c" xlink:title=" ">
<polygon fill="white" stroke="#666666" points="820.25,-20 729.25,-20 729.25,0 820.25,0 820.25,-20"/>
<text text-anchor="middle" x="774.75" y="-6.5" font-family="Helvetica,sans-Serif" font-size="10.00">compareIndexVal</text>
</a>
</g>
</g>
<!-- Node13&#45;&gt;Node14 -->
<g id="edge47_Node000013_Node000014" class="edge">
<title>Node13&#45;&gt;Node14</title>
<g id="a_edge47_Node000013_Node000014"><a xlink:title=" ">
<path fill="none" stroke="#63b8ff" d="M655.8,-10C673.53,-10 696.57,-10 717.58,-10"/>
<polygon fill="#63b8ff" stroke="#63b8ff" points="717.48,-13.5 727.48,-10 717.48,-6.5 717.48,-13.5"/>
</a>
</g>
</g>
<!-- Node15&#45;&gt;Node6 -->
<g id="edge50_Node000015_Node000006" class="edge">
<title>Node15&#45;&gt;Node6</title>
<g id="a_edge50_Node000015_Node000006"><a xlink:title=" ">
<path fill="none" stroke="#63b8ff" d="M504.49,-120.34C510.1,-122.86 515.53,-125.74 520.5,-129 557.09,-153.03 588.83,-193.2 607.16,-219.4"/>
<polygon fill="#63b8ff" stroke="#63b8ff" points="604.13,-221.16 612.66,-227.44 609.91,-217.21 604.13,-221.16"/>
</a>
</g>
</g>
<!-- Node16 -->
<g id="Node000016" class="node">
<title>Node16</title>
<g id="a_Node000016"><a xlink:href="$classcrmfnes_1_1_crfmnes_optimizer.html#a13448f49cc0f161fa5fdbd6430cc7804" xlink:title=" ">
<polygon fill="white" stroke="#666666" points="693.25,-120 556.5,-120 556.5,-88 693.25,-88 693.25,-120"/>
<text text-anchor="start" x="564.5" y="-106.5" font-family="Helvetica,sans-Serif" font-size="10.00">crmfnes::CrfmnesOptimizer</text>
<text text-anchor="middle" x="624.88" y="-94.5" font-family="Helvetica,sans-Serif" font-size="10.00">::alpha_dist</text>
</a>
</g>
</g>
<!-- Node15&#45;&gt;Node16 -->
<g id="edge49_Node000015_Node000016" class="edge">
<title>Node15&#45;&gt;Node16</title>
<g id="a_edge49_Node000015_Node000016"><a xlink:title=" ">
<path fill="none" stroke="#63b8ff" d="M512.55,-104C523.02,-104 533.91,-104 544.61,-104"/>
<polygon fill="#63b8ff" stroke="#63b8ff" points="544.59,-107.5 554.59,-104 544.59,-100.5 544.59,-107.5"/>
</a>
</g>
</g>
</g>
</svg>
