<?xml version="1.0" encoding="UTF-8" standalone="no"?>
<!DOCTYPE svg PUBLIC "-//W3C//DTD SVG 1.1//EN"
 "http://www.w3.org/Graphics/SVG/1.1/DTD/svg11.dtd">
<!-- Generated by graphviz version 12.2.1 (20241206.2353)
 -->
<!-- Title: fcmaes.advretry.Store.get_runs_compare_incr Pages: 1 -->
<svg width="667pt" height="161pt"
 viewBox="0.00 0.00 666.75 161.00" xmlns="http://www.w3.org/2000/svg" xmlns:xlink="http://www.w3.org/1999/xlink">
<g id="graph0" class="graph" transform="scale(1 1) rotate(0) translate(4 157)">
<title>fcmaes.advretry.Store.get_runs_compare_incr</title>
<!-- Node1 -->
<g id="Node000001" class="node">
<title>Node1</title>
<g id="a_Node000001"><a xlink:title="Compares the current count of runs against a specified limit and increments internal counters accordi...">
<polygon fill="#999999" stroke="#666666" points="128.5,-102 0,-102 0,-70 128.5,-70 128.5,-102"/>
<text text-anchor="start" x="8" y="-88.5" font-family="Helvetica,sans-Serif" font-size="10.00">fcmaes.advretry.Store.get</text>
<text text-anchor="middle" x="64.25" y="-76.5" font-family="Helvetica,sans-Serif" font-size="10.00">_runs_compare_incr</text>
</a>
</g>
</g>
<!-- Node2 -->
<g id="Node000002" class="node">
<title>Node2</title>
<g id="a_Node000002"><a xlink:href="$classfcmaes_1_1advretry_1_1_store.html#aa5c9f7209b6bfb5bf079ad940a84eea4" xlink:title="Sorts and updates stored data based on the given criteria.">
<polygon fill="white" stroke="#666666" points="296,-96 164.5,-96 164.5,-76 296,-76 296,-96"/>
<text text-anchor="middle" x="230.25" y="-82.5" font-family="Helvetica,sans-Serif" font-size="10.00">fcmaes.advretry.Store.sort</text>
</a>
</g>
</g>
<!-- Node1&#45;&gt;Node2 -->
<g id="edge15_Node000001_Node000002" class="edge">
<title>Node1&#45;&gt;Node2</title>
<g id="a_edge15_Node000001_Node000002"><a xlink:title=" ">
<path fill="none" stroke="#63b8ff" d="M128.66,-86C136.56,-86 144.71,-86 152.78,-86"/>
<polygon fill="#63b8ff" stroke="#63b8ff" points="152.6,-89.5 162.6,-86 152.6,-82.5 152.6,-89.5"/>
</a>
</g>
</g>
<!-- Node3 -->
<g id="Node000003" class="node">
<title>Node3</title>
<g id="a_Node000003"><a xlink:href="$classfcmaes_1_1advretry_1_1_store.html#a00ab052ea8b184b7344875122481b623" xlink:title="Calculates the normalized distance between two points in a Euclidean space.">
<polygon fill="white" stroke="#666666" points="483.75,-153 332,-153 332,-133 483.75,-133 483.75,-153"/>
<text text-anchor="middle" x="407.88" y="-139.5" font-family="Helvetica,sans-Serif" font-size="10.00">fcmaes.advretry.Store.distance</text>
</a>
</g>
</g>
<!-- Node2&#45;&gt;Node3 -->
<g id="edge16_Node000002_Node000003" class="edge">
<title>Node2&#45;&gt;Node3</title>
<g id="a_edge16_Node000002_Node000003"><a xlink:title=" ">
<path fill="none" stroke="#63b8ff" d="M256.65,-96.48C276.85,-104.61 305.96,-115.81 332,-124 338.23,-125.96 344.8,-127.86 351.35,-129.65"/>
<polygon fill="#63b8ff" stroke="#63b8ff" points="350.27,-132.99 360.84,-132.17 352.07,-126.22 350.27,-132.99"/>
</a>
</g>
</g>
<!-- Node4 -->
<g id="Node000004" class="node">
<title>Node4</title>
<g id="a_Node000004"><a xlink:href="$classfcmaes_1_1advretry_1_1_store.html#a97e407315b2e0c802b9d5b4414f3f91b" xlink:title="Retrieves a segment of the xs array corresponding to the provided pid.">
<polygon fill="white" stroke="#666666" points="477.38,-115 338.38,-115 338.38,-95 477.38,-95 477.38,-115"/>
<text text-anchor="middle" x="407.88" y="-101.5" font-family="Helvetica,sans-Serif" font-size="10.00">fcmaes.advretry.Store.get_x</text>
</a>
</g>
</g>
<!-- Node2&#45;&gt;Node4 -->
<g id="edge17_Node000002_Node000004" class="edge">
<title>Node2&#45;&gt;Node4</title>
<g id="a_edge17_Node000002_Node000004"><a xlink:title=" ">
<path fill="none" stroke="#63b8ff" d="M296.15,-93.02C306.19,-94.11 316.67,-95.24 327,-96.36"/>
<polygon fill="#63b8ff" stroke="#63b8ff" points="326.3,-99.8 336.62,-97.4 327.05,-92.84 326.3,-99.8"/>
</a>
</g>
</g>
<!-- Node5 -->
<g id="Node000005" class="node">
<title>Node5</title>
<g id="a_Node000005"><a xlink:href="$classfcmaes_1_1advretry_1_1_store.html#a907617cde0def7276f1f609d7690335f" xlink:title="Fetches a value for a given ID from a dictionary of float values.">
<polygon fill="white" stroke="#666666" points="477.38,-77 338.38,-77 338.38,-57 477.38,-57 477.38,-77"/>
<text text-anchor="middle" x="407.88" y="-63.5" font-family="Helvetica,sans-Serif" font-size="10.00">fcmaes.advretry.Store.get_y</text>
</a>
</g>
</g>
<!-- Node2&#45;&gt;Node5 -->
<g id="edge18_Node000002_Node000005" class="edge">
<title>Node2&#45;&gt;Node5</title>
<g id="a_edge18_Node000002_Node000005"><a xlink:title=" ">
<path fill="none" stroke="#63b8ff" d="M296.15,-78.98C306.19,-77.89 316.67,-76.76 327,-75.64"/>
<polygon fill="#63b8ff" stroke="#63b8ff" points="327.05,-79.16 336.62,-74.6 326.3,-72.2 327.05,-79.16"/>
</a>
</g>
</g>
<!-- Node6 -->
<g id="Node000006" class="node">
<title>Node6</title>
<g id="a_Node000006"><a xlink:href="$classfcmaes_1_1advretry_1_1_store.html#a0ae90f35f58deb629c18747fbf9b1cc9" xlink:title="Replaces the y and x values at a specified index.">
<polygon fill="white" stroke="#666666" points="481.12,-39 334.62,-39 334.62,-19 481.12,-19 481.12,-39"/>
<text text-anchor="middle" x="407.88" y="-25.5" font-family="Helvetica,sans-Serif" font-size="10.00">fcmaes.advretry.Store.replace</text>
</a>
</g>
</g>
<!-- Node2&#45;&gt;Node6 -->
<g id="edge19_Node000002_Node000006" class="edge">
<title>Node2&#45;&gt;Node6</title>
<g id="a_edge19_Node000002_Node000006"><a xlink:title=" ">
<path fill="none" stroke="#63b8ff" d="M256.65,-75.52C276.85,-67.39 305.96,-56.19 332,-48 338.23,-46.04 344.8,-44.14 351.35,-42.35"/>
<polygon fill="#63b8ff" stroke="#63b8ff" points="352.07,-45.78 360.84,-39.83 350.27,-39.01 352.07,-45.78"/>
</a>
</g>
</g>
<!-- Node7 -->
<g id="Node000007" class="node">
<title>Node7</title>
<g id="a_Node000007"><a xlink:href="$classfcmaes_1_1advretry_1_1_store.html#a732636cd5ab3c40b878ef2e0274b1d1b" xlink:title="Sets a subset of the xs list for a specific process ID.">
<polygon fill="white" stroke="#666666" points="658.75,-58 519.75,-58 519.75,-38 658.75,-38 658.75,-58"/>
<text text-anchor="middle" x="589.25" y="-44.5" font-family="Helvetica,sans-Serif" font-size="10.00">fcmaes.advretry.Store.set_x</text>
</a>
</g>
</g>
<!-- Node6&#45;&gt;Node7 -->
<g id="edge20_Node000006_Node000007" class="edge">
<title>Node6&#45;&gt;Node7</title>
<g id="a_edge20_Node000006_Node000007"><a xlink:title=" ">
<path fill="none" stroke="#63b8ff" d="M481.58,-36.7C490.38,-37.63 499.42,-38.59 508.32,-39.53"/>
<polygon fill="#63b8ff" stroke="#63b8ff" points="507.69,-42.99 518,-40.56 508.43,-36.03 507.69,-42.99"/>
</a>
</g>
</g>
<!-- Node8 -->
<g id="Node000008" class="node">
<title>Node8</title>
<g id="a_Node000008"><a xlink:href="$classfcmaes_1_1advretry_1_1_store.html#a12d96e54629b449293d2aabf5542ddc1" xlink:title="Sets the value of y for a given pid within the &#39;ys&#39; mapping.">
<polygon fill="white" stroke="#666666" points="658.75,-20 519.75,-20 519.75,0 658.75,0 658.75,-20"/>
<text text-anchor="middle" x="589.25" y="-6.5" font-family="Helvetica,sans-Serif" font-size="10.00">fcmaes.advretry.Store.set_y</text>
</a>
</g>
</g>
<!-- Node6&#45;&gt;Node8 -->
<g id="edge21_Node000006_Node000008" class="edge">
<title>Node6&#45;&gt;Node8</title>
<g id="a_edge21_Node000006_Node000008"><a xlink:title=" ">
<path fill="none" stroke="#63b8ff" d="M481.58,-21.3C490.38,-20.37 499.42,-19.41 508.32,-18.47"/>
<polygon fill="#63b8ff" stroke="#63b8ff" points="508.43,-21.97 518,-17.44 507.69,-15.01 508.43,-21.97"/>
</a>
</g>
</g>
</g>
</svg>
