<?xml version="1.0" encoding="UTF-8" standalone="no"?>
<!DOCTYPE svg PUBLIC "-//W3C//DTD SVG 1.1//EN"
 "http://www.w3.org/Graphics/SVG/1.1/DTD/svg11.dtd">
<!-- Generated by graphviz version 12.2.1 (20241206.2353)
 -->
<!-- Title: acmaes::AcmaesOptimizer::tell_all Pages: 1 -->
<svg width="905pt" height="162pt"
 viewBox="0.00 0.00 905.00 161.72" xmlns="http://www.w3.org/2000/svg" xmlns:xlink="http://www.w3.org/1999/xlink">
<g id="graph0" class="graph" transform="scale(1 1) rotate(0) translate(4 157.72)">
<title>acmaes::AcmaesOptimizer::tell_all</title>
<!-- Node1 -->
<g id="Node000001" class="node">
<title>Node1</title>
<g id="a_Node000001"><a xlink:title=" ">
<polygon fill="#999999" stroke="#666666" points="134.5,-129 0,-129 0,-97 134.5,-97 134.5,-129"/>
<text text-anchor="start" x="8" y="-115.5" font-family="Helvetica,sans-Serif" font-size="10.00">acmaes::AcmaesOptimizer</text>
<text text-anchor="middle" x="67.25" y="-103.5" font-family="Helvetica,sans-Serif" font-size="10.00">::tell_all</text>
</a>
</g>
</g>
<!-- Node2 -->
<g id="Node000002" class="node">
<title>Node2</title>
<g id="a_Node000002"><a xlink:href="$classacmaes_1_1_acmaes_optimizer.html#ac1703b5f2c650cf8da235ea475e17d6f" xlink:title=" ">
<polygon fill="white" stroke="#666666" points="305,-129 170.5,-129 170.5,-97 305,-97 305,-129"/>
<text text-anchor="start" x="178.5" y="-115.5" font-family="Helvetica,sans-Serif" font-size="10.00">acmaes::AcmaesOptimizer</text>
<text text-anchor="middle" x="237.75" y="-103.5" font-family="Helvetica,sans-Serif" font-size="10.00">::tell</text>
</a>
</g>
</g>
<!-- Node1&#45;&gt;Node2 -->
<g id="edge23_Node000001_Node000002" class="edge">
<title>Node1&#45;&gt;Node2</title>
<g id="a_edge23_Node000001_Node000002"><a xlink:title=" ">
<path fill="none" stroke="#63b8ff" d="M134.85,-113C142.72,-113 150.82,-113 158.83,-113"/>
<polygon fill="#63b8ff" stroke="#63b8ff" points="158.57,-116.5 168.57,-113 158.57,-109.5 158.57,-116.5"/>
</a>
</g>
</g>
<!-- Node3 -->
<g id="Node000003" class="node">
<title>Node3</title>
<g id="a_Node000003"><a xlink:href="$evaluator_8h.html#a231544ac51b3f9312c104a3b7a3c49a6" xlink:title=" ">
<polygon fill="white" stroke="#666666" points="430.88,-145 385.62,-145 385.62,-125 430.88,-125 430.88,-145"/>
<text text-anchor="middle" x="408.25" y="-131.5" font-family="Helvetica,sans-Serif" font-size="10.00">normal</text>
</a>
</g>
</g>
<!-- Node2&#45;&gt;Node3 -->
<g id="edge24_Node000002_Node000003" class="edge">
<title>Node2&#45;&gt;Node3</title>
<g id="a_edge24_Node000002_Node000003"><a xlink:title=" ">
<path fill="none" stroke="#63b8ff" d="M305.35,-121.69C328.96,-124.78 354.51,-128.11 374.12,-130.68"/>
<polygon fill="#63b8ff" stroke="#63b8ff" points="373.63,-134.14 384,-131.96 374.53,-127.2 373.63,-134.14"/>
</a>
</g>
</g>
<!-- Node4 -->
<g id="Node000004" class="node">
<title>Node4</title>
<g id="a_Node000004"><a xlink:href="$classacmaes_1_1_acmaes_optimizer.html#a36c0bd51d20f3c63e8cadf76421fc5d4" xlink:title=" ">
<polygon fill="white" stroke="#666666" points="475.5,-107 341,-107 341,-75 475.5,-75 475.5,-107"/>
<text text-anchor="start" x="349" y="-93.5" font-family="Helvetica,sans-Serif" font-size="10.00">acmaes::AcmaesOptimizer</text>
<text text-anchor="middle" x="408.25" y="-81.5" font-family="Helvetica,sans-Serif" font-size="10.00">::updateCMA</text>
</a>
</g>
</g>
<!-- Node2&#45;&gt;Node4 -->
<g id="edge25_Node000002_Node000004" class="edge">
<title>Node2&#45;&gt;Node4</title>
<g id="a_edge25_Node000002_Node000004"><a xlink:title=" ">
<path fill="none" stroke="#63b8ff" d="M305.35,-104.31C313.22,-103.28 321.32,-102.22 329.33,-101.17"/>
<polygon fill="#63b8ff" stroke="#63b8ff" points="329.62,-104.67 339.09,-99.9 328.72,-97.72 329.62,-104.67"/>
</a>
</g>
</g>
<!-- Node5 -->
<g id="Node000005" class="node">
<title>Node5</title>
<g id="a_Node000005"><a xlink:href="$evaluator_8h.html#a7689f88ea48c85c22d9b34208decd67c" xlink:title=" ">
<polygon fill="white" stroke="#666666" points="756.5,-151 695.5,-151 695.5,-131 756.5,-131 756.5,-151"/>
<text text-anchor="middle" x="726" y="-137.5" font-family="Helvetica,sans-Serif" font-size="10.00">sort_index</text>
</a>
</g>
</g>
<!-- Node4&#45;&gt;Node5 -->
<g id="edge26_Node000004_Node000005" class="edge">
<title>Node4&#45;&gt;Node5</title>
<g id="a_edge26_Node000004_Node000005"><a xlink:title=" ">
<path fill="none" stroke="#63b8ff" d="M456.92,-107.36C463.28,-110.01 469.62,-112.91 475.5,-116 492.74,-125.06 492.91,-135.18 511.5,-141 569.17,-159.06 639.99,-154.12 683.81,-148.14"/>
<polygon fill="#63b8ff" stroke="#63b8ff" points="684.26,-151.61 693.65,-146.71 683.25,-144.69 684.26,-151.61"/>
</a>
</g>
</g>
<!-- Node7 -->
<g id="Node000007" class="node">
<title>Node7</title>
<g id="a_Node000007"><a xlink:href="$classacmaes_1_1_acmaes_optimizer.html#a6e1292651cf19abf87f9ece1aa9c92d7" xlink:title=" ">
<polygon fill="white" stroke="#666666" points="646,-132 511.5,-132 511.5,-100 646,-100 646,-132"/>
<text text-anchor="start" x="519.5" y="-118.5" font-family="Helvetica,sans-Serif" font-size="10.00">acmaes::AcmaesOptimizer</text>
<text text-anchor="middle" x="578.75" y="-106.5" font-family="Helvetica,sans-Serif" font-size="10.00">::updateBD</text>
</a>
</g>
</g>
<!-- Node4&#45;&gt;Node7 -->
<g id="edge28_Node000004_Node000007" class="edge">
<title>Node4&#45;&gt;Node7</title>
<g id="a_edge28_Node000004_Node000007"><a xlink:title=" ">
<path fill="none" stroke="#63b8ff" d="M475.85,-100.88C483.72,-102.05 491.82,-103.25 499.83,-104.44"/>
<polygon fill="#63b8ff" stroke="#63b8ff" points="499.18,-107.88 509.59,-105.89 500.21,-100.96 499.18,-107.88"/>
</a>
</g>
</g>
<!-- Node8 -->
<g id="Node000008" class="node">
<title>Node8</title>
<g id="a_Node000008"><a xlink:href="$classacmaes_1_1_acmaes_optimizer.html#a911e67d9e8445b3a8be575f184341b8e" xlink:title=" ">
<polygon fill="white" stroke="#666666" points="646,-82 511.5,-82 511.5,-50 646,-50 646,-82"/>
<text text-anchor="start" x="519.5" y="-68.5" font-family="Helvetica,sans-Serif" font-size="10.00">acmaes::AcmaesOptimizer</text>
<text text-anchor="middle" x="578.75" y="-56.5" font-family="Helvetica,sans-Serif" font-size="10.00">::updateCovariance</text>
</a>
</g>
</g>
<!-- Node4&#45;&gt;Node8 -->
<g id="edge29_Node000004_Node000008" class="edge">
<title>Node4&#45;&gt;Node8</title>
<g id="a_edge29_Node000004_Node000008"><a xlink:title=" ">
<path fill="none" stroke="#63b8ff" d="M475.85,-81.12C483.72,-79.95 491.82,-78.75 499.83,-77.56"/>
<polygon fill="#63b8ff" stroke="#63b8ff" points="500.21,-81.04 509.59,-76.11 499.18,-74.12 500.21,-81.04"/>
</a>
</g>
</g>
<!-- Node10 -->
<g id="Node000010" class="node">
<title>Node10</title>
<g id="a_Node000010"><a xlink:href="$classacmaes_1_1_acmaes_optimizer.html#ae9f3415b9bcc43366193e7d4b0beda87" xlink:title=" ">
<polygon fill="white" stroke="#666666" points="646,-32 511.5,-32 511.5,0 646,0 646,-32"/>
<text text-anchor="start" x="519.5" y="-18.5" font-family="Helvetica,sans-Serif" font-size="10.00">acmaes::AcmaesOptimizer</text>
<text text-anchor="middle" x="578.75" y="-6.5" font-family="Helvetica,sans-Serif" font-size="10.00">::updateEvolutionPaths</text>
</a>
</g>
</g>
<!-- Node4&#45;&gt;Node10 -->
<g id="edge33_Node000004_Node000010" class="edge">
<title>Node4&#45;&gt;Node10</title>
<g id="a_edge33_Node000004_Node000010"><a xlink:title=" ">
<path fill="none" stroke="#63b8ff" d="M440.67,-74.68C460.72,-64.51 487.37,-51.42 511.5,-41 514.89,-39.54 518.39,-38.07 521.93,-36.63"/>
<polygon fill="#63b8ff" stroke="#63b8ff" points="523.21,-39.89 531.21,-32.94 520.63,-33.38 523.21,-39.89"/>
</a>
</g>
</g>
<!-- Node6 -->
<g id="Node000006" class="node">
<title>Node6</title>
<g id="a_Node000006"><a xlink:href="$evaluator_8h.html#a85426eb5cecc23caa06090d795034e5c" xlink:title=" ">
<polygon fill="white" stroke="#666666" points="897,-151 806,-151 806,-131 897,-131 897,-151"/>
<text text-anchor="middle" x="851.5" y="-137.5" font-family="Helvetica,sans-Serif" font-size="10.00">compareIndexVal</text>
</a>
</g>
</g>
<!-- Node5&#45;&gt;Node6 -->
<g id="edge27_Node000005_Node000006" class="edge">
<title>Node5&#45;&gt;Node6</title>
<g id="a_edge27_Node000005_Node000006"><a xlink:title=" ">
<path fill="none" stroke="#63b8ff" d="M756.9,-141C768.27,-141 781.63,-141 794.64,-141"/>
<polygon fill="#63b8ff" stroke="#63b8ff" points="794.41,-144.5 804.41,-141 794.41,-137.5 794.41,-144.5"/>
</a>
</g>
</g>
<!-- Node8&#45;&gt;Node5 -->
<g id="edge32_Node000008_Node000005" class="edge">
<title>Node8&#45;&gt;Node5</title>
<g id="a_edge32_Node000008_Node000005"><a xlink:title=" ">
<path fill="none" stroke="#63b8ff" d="M626.95,-82.45C633.44,-85.11 639.95,-87.98 646,-91 665.42,-100.68 686.11,-113.89 701.44,-124.3"/>
<polygon fill="#63b8ff" stroke="#63b8ff" points="699.21,-127.01 709.43,-129.81 703.18,-121.25 699.21,-127.01"/>
</a>
</g>
</g>
<!-- Node9 -->
<g id="Node000009" class="node">
<title>Node9</title>
<g id="a_Node000009"><a xlink:href="$namespaceacmaes.html#a8f3b844e07e4684f10852956288758de" xlink:title=" ">
<polygon fill="white" stroke="#666666" points="770,-76 682,-76 682,-56 770,-56 770,-76"/>
<text text-anchor="middle" x="726" y="-62.5" font-family="Helvetica,sans-Serif" font-size="10.00">acmaes::inverse</text>
</a>
</g>
</g>
<!-- Node8&#45;&gt;Node9 -->
<g id="edge30_Node000008_Node000009" class="edge">
<title>Node8&#45;&gt;Node9</title>
<g id="a_edge30_Node000008_Node000009"><a xlink:title=" ">
<path fill="none" stroke="#63b8ff" d="M646.42,-66C654.35,-66 662.37,-66 670.1,-66"/>
<polygon fill="#63b8ff" stroke="#63b8ff" points="670.05,-69.5 680.05,-66 670.05,-62.5 670.05,-69.5"/>
</a>
</g>
</g>
<!-- Node9&#45;&gt;Node9 -->
<g id="edge31_Node000009_Node000009" class="edge">
<title>Node9&#45;&gt;Node9</title>
<g id="a_edge31_Node000009_Node000009"><a xlink:title=" ">
<path fill="none" stroke="#63b8ff" d="M706.06,-76.34C697.54,-84.98 704.18,-94 726,-94 737.93,-94 745.32,-91.3 748.18,-87.44"/>
<polygon fill="#63b8ff" stroke="#63b8ff" points="751.65,-86.93 746.24,-77.82 744.79,-88.32 751.65,-86.93"/>
</a>
</g>
</g>
</g>
</svg>
