<?xml version="1.0" encoding="UTF-8" standalone="no"?>
<!DOCTYPE svg PUBLIC "-//W3C//DTD SVG 1.1//EN"
 "http://www.w3.org/Graphics/SVG/1.1/DTD/svg11.dtd">
<!-- Generated by graphviz version 12.2.1 (20241206.2353)
 -->
<!-- Title: CBitePop::deleteBuffers Pages: 1 -->
<svg width="540pt" height="85pt"
 viewBox="0.00 0.00 540.00 85.00" xmlns="http://www.w3.org/2000/svg" xmlns:xlink="http://www.w3.org/1999/xlink">
<g id="graph0" class="graph" transform="scale(1 1) rotate(0) translate(4 81)">
<title>CBitePop::deleteBuffers</title>
<!-- Node1 -->
<g id="Node000001" class="node">
<title>Node1</title>
<g id="a_Node000001"><a xlink:title=" ">
<polygon fill="#999999" stroke="#666666" points="532,-39 411,-39 411,-19 532,-19 532,-39"/>
<text text-anchor="middle" x="471.5" y="-25.5" font-family="Helvetica,sans-Serif" font-size="10.00">CBitePop::deleteBuffers</text>
</a>
</g>
</g>
<!-- Node2 -->
<g id="Node000002" class="node">
<title>Node2</title>
<g id="a_Node000002"><a xlink:href="$class_c_bite_pop.html#a7488531e6b12accb61f068bbe654f580" xlink:title=" ">
<polygon fill="white" stroke="#666666" points="372.75,-58 265.25,-58 265.25,-38 372.75,-38 372.75,-58"/>
<text text-anchor="middle" x="319" y="-44.5" font-family="Helvetica,sans-Serif" font-size="10.00">CBitePop::initBuffers</text>
</a>
</g>
</g>
<!-- Node1&#45;&gt;Node2 -->
<g id="edge13_Node000001_Node000002" class="edge">
<title>Node1&#45;&gt;Node2</title>
<g id="a_edge13_Node000001_Node000002"><a xlink:title=" ">
<path fill="none" stroke="#63b8ff" d="M399.37,-37.98C390.46,-39.11 381.46,-40.24 372.9,-41.32"/>
<polygon fill="#63b8ff" stroke="#63b8ff" points="399.6,-41.48 409.08,-36.75 398.72,-34.53 399.6,-41.48"/>
</a>
</g>
</g>
<!-- Node6 -->
<g id="Node000006" class="node">
<title>Node6</title>
<g id="a_Node000006"><a xlink:href="$class_c_bite_pop.html#ac386e4638d6fc6bd5370eeae895347c3" xlink:title=" ">
<polygon fill="white" stroke="#666666" points="375,-20 263,-20 263,0 375,0 375,-20"/>
<text text-anchor="middle" x="319" y="-6.5" font-family="Helvetica,sans-Serif" font-size="10.00">CBitePop::~CBitePop</text>
</a>
</g>
</g>
<!-- Node1&#45;&gt;Node6 -->
<g id="edge18_Node000001_Node000006" class="edge">
<title>Node1&#45;&gt;Node6</title>
<g id="a_edge18_Node000001_Node000006"><a xlink:title=" ">
<path fill="none" stroke="#63b8ff" d="M399.28,-20.01C391.23,-18.99 383.12,-17.97 375.31,-16.98"/>
<polygon fill="#63b8ff" stroke="#63b8ff" points="398.72,-23.47 409.08,-21.25 399.6,-16.52 398.72,-23.47"/>
</a>
</g>
</g>
<!-- Node3 -->
<g id="Node000003" class="node">
<title>Node3</title>
<g id="a_Node000003"><a xlink:href="$class_c_bite_pop.html#a73402384f4b75abf6d956dc086ccf36e" xlink:title=" ">
<polygon fill="white" stroke="#666666" points="106,-77 0,-77 0,-57 106,-57 106,-77"/>
<text text-anchor="middle" x="53" y="-63.5" font-family="Helvetica,sans-Serif" font-size="10.00">CBitePop::CBitePop</text>
</a>
</g>
</g>
<!-- Node2&#45;&gt;Node3 -->
<g id="edge14_Node000002_Node000003" class="edge">
<title>Node2&#45;&gt;Node3</title>
<g id="a_edge14_Node000002_Node000003"><a xlink:title=" ">
<path fill="none" stroke="#63b8ff" d="M253.42,-52.65C208.13,-55.91 148.38,-60.21 106.12,-63.25"/>
<polygon fill="#63b8ff" stroke="#63b8ff" points="253.66,-56.14 263.38,-51.93 253.16,-49.16 253.66,-56.14"/>
</a>
</g>
</g>
<!-- Node4 -->
<g id="Node000004" class="node">
<title>Node4</title>
<g id="a_Node000004"><a xlink:href="$class_c_bite_pop.html#a3fc2d887ae91be62fd9fc3100268e53c" xlink:title=" ">
<polygon fill="white" stroke="#666666" points="227,-39 142,-39 142,-19 227,-19 227,-39"/>
<text text-anchor="middle" x="184.5" y="-25.5" font-family="Helvetica,sans-Serif" font-size="10.00">CBitePop::copy</text>
</a>
</g>
</g>
<!-- Node2&#45;&gt;Node4 -->
<g id="edge15_Node000002_Node000004" class="edge">
<title>Node2&#45;&gt;Node4</title>
<g id="a_edge15_Node000002_Node000004"><a xlink:title=" ">
<path fill="none" stroke="#63b8ff" d="M253.59,-38.76C244.63,-37.48 235.62,-36.19 227.22,-34.98"/>
<polygon fill="#63b8ff" stroke="#63b8ff" points="252.98,-42.21 263.37,-40.17 253.97,-35.28 252.98,-42.21"/>
</a>
</g>
</g>
<!-- Node4&#45;&gt;Node3 -->
<g id="edge16_Node000004_Node000003" class="edge">
<title>Node4&#45;&gt;Node3</title>
<g id="a_edge16_Node000004_Node000003"><a xlink:title=" ">
<path fill="none" stroke="#63b8ff" d="M136.77,-42.71C121.23,-47.27 104.18,-52.28 89.61,-56.55"/>
<polygon fill="#63b8ff" stroke="#63b8ff" points="137.71,-46.08 146.32,-39.91 135.74,-39.37 137.71,-46.08"/>
</a>
</g>
</g>
<!-- Node5 -->
<g id="Node000005" class="node">
<title>Node5</title>
<g id="a_Node000005"><a xlink:href="$class_c_bite_pop.html#ab18cf322db6ab186db1e19b53e34c232" xlink:title=" ">
<polygon fill="white" stroke="#666666" points="105.62,-39 0.38,-39 0.38,-19 105.62,-19 105.62,-39"/>
<text text-anchor="middle" x="53" y="-25.5" font-family="Helvetica,sans-Serif" font-size="10.00">CBitePop::operator=</text>
</a>
</g>
</g>
<!-- Node4&#45;&gt;Node5 -->
<g id="edge17_Node000004_Node000005" class="edge">
<title>Node4&#45;&gt;Node5</title>
<g id="a_edge17_Node000004_Node000005"><a xlink:title=" ">
<path fill="none" stroke="#63b8ff" d="M130.31,-29C122.3,-29 114.04,-29 106.06,-29"/>
<polygon fill="#63b8ff" stroke="#63b8ff" points="130.3,-32.5 140.3,-29 130.3,-25.5 130.3,-32.5"/>
</a>
</g>
</g>
</g>
</svg>
