<?xml version="1.0" encoding="UTF-8" standalone="no"?>
<!DOCTYPE svg PUBLIC "-//W3C//DTD SVG 1.1//EN"
 "http://www.w3.org/Graphics/SVG/1.1/DTD/svg11.dtd">
<!-- Generated by graphviz version 12.2.1 (20241206.2353)
 -->
<!-- Title: CBitePop::copyParams Pages: 1 -->
<svg width="435pt" height="123pt"
 viewBox="0.00 0.00 434.75 123.00" xmlns="http://www.w3.org/2000/svg" xmlns:xlink="http://www.w3.org/1999/xlink">
<g id="graph0" class="graph" transform="scale(1 1) rotate(0) translate(4 119)">
<title>CBitePop::copyParams</title>
<!-- Node1 -->
<g id="Node000001" class="node">
<title>Node1</title>
<g id="a_Node000001"><a xlink:title=" ">
<polygon fill="#999999" stroke="#666666" points="426.75,-58 308,-58 308,-38 426.75,-38 426.75,-58"/>
<text text-anchor="middle" x="367.38" y="-44.5" font-family="Helvetica,sans-Serif" font-size="10.00">CBitePop::copyParams</text>
</a>
</g>
</g>
<!-- Node2 -->
<g id="Node000002" class="node">
<title>Node2</title>
<g id="a_Node000002"><a xlink:href="$class_c_bite_pop.html#a3fc2d887ae91be62fd9fc3100268e53c" xlink:title=" ">
<polygon fill="white" stroke="#666666" points="249.5,-96 164.5,-96 164.5,-76 249.5,-76 249.5,-96"/>
<text text-anchor="middle" x="207" y="-82.5" font-family="Helvetica,sans-Serif" font-size="10.00">CBitePop::copy</text>
</a>
</g>
</g>
<!-- Node1&#45;&gt;Node2 -->
<g id="edge11_Node000001_Node000002" class="edge">
<title>Node1&#45;&gt;Node2</title>
<g id="a_edge11_Node000001_Node000002"><a xlink:title=" ">
<path fill="none" stroke="#63b8ff" d="M311.71,-61.12C291.47,-65.97 268.85,-71.4 249.92,-75.94"/>
<polygon fill="#63b8ff" stroke="#63b8ff" points="312.3,-64.57 321.21,-58.84 310.67,-57.77 312.3,-64.57"/>
</a>
</g>
</g>
<!-- Node5 -->
<g id="Node000005" class="node">
<title>Node5</title>
<g id="a_Node000005"><a xlink:href="$class_c_bite_pop.html#a7850902dad276dcecea68559eaccc168" xlink:title=" ">
<polygon fill="white" stroke="#666666" points="272,-58 142,-58 142,-38 272,-38 272,-58"/>
<text text-anchor="middle" x="207" y="-44.5" font-family="Helvetica,sans-Serif" font-size="10.00">CBitePop::updateCentroid</text>
</a>
</g>
</g>
<!-- Node1&#45;&gt;Node5 -->
<g id="edge14_Node000001_Node000005" class="edge">
<title>Node1&#45;&gt;Node5</title>
<g id="a_edge14_Node000001_Node000005"><a xlink:title=" ">
<path fill="none" stroke="#63b8ff" d="M296.6,-48C288.56,-48 280.38,-48 272.41,-48"/>
<polygon fill="#63b8ff" stroke="#63b8ff" points="296.34,-51.5 306.34,-48 296.34,-44.5 296.34,-51.5"/>
</a>
</g>
</g>
<!-- Node6 -->
<g id="Node000006" class="node">
<title>Node6</title>
<g id="a_Node000006"><a xlink:href="$class_c_bite_pop.html#aad999ddc8a2ed72ffaee0db7732c9f76" xlink:title=" ">
<polygon fill="white" stroke="#666666" points="262.25,-20 151.75,-20 151.75,0 262.25,0 262.25,-20"/>
<text text-anchor="middle" x="207" y="-6.5" font-family="Helvetica,sans-Serif" font-size="10.00">CBitePop::updatePop</text>
</a>
</g>
</g>
<!-- Node1&#45;&gt;Node6 -->
<g id="edge15_Node000001_Node000006" class="edge">
<title>Node1&#45;&gt;Node6</title>
<g id="a_edge15_Node000001_Node000006"><a xlink:title=" ">
<path fill="none" stroke="#63b8ff" d="M311.71,-34.88C292.05,-30.17 270.15,-24.91 251.55,-20.45"/>
<polygon fill="#63b8ff" stroke="#63b8ff" points="310.67,-38.23 321.21,-37.16 312.3,-31.43 310.67,-38.23"/>
</a>
</g>
</g>
<!-- Node3 -->
<g id="Node000003" class="node">
<title>Node3</title>
<g id="a_Node000003"><a xlink:href="$class_c_bite_pop.html#a73402384f4b75abf6d956dc086ccf36e" xlink:title=" ">
<polygon fill="white" stroke="#666666" points="106,-115 0,-115 0,-95 106,-95 106,-115"/>
<text text-anchor="middle" x="53" y="-101.5" font-family="Helvetica,sans-Serif" font-size="10.00">CBitePop::CBitePop</text>
</a>
</g>
</g>
<!-- Node2&#45;&gt;Node3 -->
<g id="edge12_Node000002_Node000003" class="edge">
<title>Node2&#45;&gt;Node3</title>
<g id="a_edge12_Node000002_Node000003"><a xlink:title=" ">
<path fill="none" stroke="#63b8ff" d="M152.85,-92.64C137.78,-94.53 121.4,-96.57 106.39,-98.45"/>
<polygon fill="#63b8ff" stroke="#63b8ff" points="153.07,-96.14 162.56,-91.43 152.2,-89.2 153.07,-96.14"/>
</a>
</g>
</g>
<!-- Node4 -->
<g id="Node000004" class="node">
<title>Node4</title>
<g id="a_Node000004"><a xlink:href="$class_c_bite_pop.html#ab18cf322db6ab186db1e19b53e34c232" xlink:title=" ">
<polygon fill="white" stroke="#666666" points="105.62,-77 0.38,-77 0.38,-57 105.62,-57 105.62,-77"/>
<text text-anchor="middle" x="53" y="-63.5" font-family="Helvetica,sans-Serif" font-size="10.00">CBitePop::operator=</text>
</a>
</g>
</g>
<!-- Node2&#45;&gt;Node4 -->
<g id="edge13_Node000002_Node000004" class="edge">
<title>Node2&#45;&gt;Node4</title>
<g id="a_edge13_Node000002_Node000004"><a xlink:title=" ">
<path fill="none" stroke="#63b8ff" d="M152.79,-79.35C137.65,-77.46 121.18,-75.4 106.11,-73.51"/>
<polygon fill="#63b8ff" stroke="#63b8ff" points="152.2,-82.8 162.56,-80.57 153.07,-75.86 152.2,-82.8"/>
</a>
</g>
</g>
</g>
</svg>
