<?xml version="1.0" encoding="UTF-8" standalone="no"?>
<!DOCTYPE svg PUBLIC "-//W3C//DTD SVG 1.1//EN"
 "http://www.w3.org/Graphics/SVG/1.1/DTD/svg11.dtd">
<!-- Generated by graphviz version 12.2.1 (20241206.2353)
 -->
<!-- Title: CBiteOpt::getMinSolIndex Pages: 1 -->
<svg width="434pt" height="142pt"
 viewBox="0.00 0.00 434.00 142.00" xmlns="http://www.w3.org/2000/svg" xmlns:xlink="http://www.w3.org/1999/xlink">
<g id="graph0" class="graph" transform="scale(1 1) rotate(0) translate(4 138)">
<title>CBiteOpt::getMinSolIndex</title>
<!-- Node1 -->
<g id="Node000001" class="node">
<title>Node1</title>
<g id="a_Node000001"><a xlink:title=" ">
<polygon fill="#999999" stroke="#666666" points="426,-77 296,-77 296,-57 426,-57 426,-77"/>
<text text-anchor="middle" x="361" y="-63.5" font-family="Helvetica,sans-Serif" font-size="10.00">CBiteOpt::getMinSolIndex</text>
</a>
</g>
</g>
<!-- Node2 -->
<g id="Node000002" class="node">
<title>Node2</title>
<g id="a_Node000002"><a xlink:href="$class_c_bite_opt.html#aaf2f5bc8a214a95532426c9a9b38fdb8" xlink:title=" ">
<polygon fill="white" stroke="#666666" points="257.38,-134 137.88,-134 137.88,-114 257.38,-114 257.38,-134"/>
<text text-anchor="middle" x="197.62" y="-120.5" font-family="Helvetica,sans-Serif" font-size="10.00">CBiteOpt::generateSol1</text>
</a>
</g>
</g>
<!-- Node1&#45;&gt;Node2 -->
<g id="edge17_Node000001_Node000002" class="edge">
<title>Node1&#45;&gt;Node2</title>
<g id="a_edge17_Node000001_Node000002"><a xlink:title=" ">
<path fill="none" stroke="#63b8ff" d="M323.34,-81.57C304.51,-88.88 281.14,-97.72 260,-105 251.56,-107.91 242.41,-110.85 233.8,-113.53"/>
<polygon fill="#63b8ff" stroke="#63b8ff" points="324.4,-84.91 332.44,-78.01 321.85,-78.39 324.4,-84.91"/>
</a>
</g>
</g>
<!-- Node4 -->
<g id="Node000004" class="node">
<title>Node4</title>
<g id="a_Node000004"><a xlink:href="$class_c_bite_opt.html#ab6de0da3b279e77788efed7d3e05a0e2" xlink:title=" ">
<polygon fill="white" stroke="#666666" points="257.38,-96 137.88,-96 137.88,-76 257.38,-76 257.38,-96"/>
<text text-anchor="middle" x="197.62" y="-82.5" font-family="Helvetica,sans-Serif" font-size="10.00">CBiteOpt::generateSol2</text>
</a>
</g>
</g>
<!-- Node1&#45;&gt;Node4 -->
<g id="edge19_Node000001_Node000004" class="edge">
<title>Node1&#45;&gt;Node4</title>
<g id="a_edge19_Node000001_Node000004"><a xlink:title=" ">
<path fill="none" stroke="#63b8ff" d="M284.45,-75.9C275.46,-76.95 266.38,-78.02 257.67,-79.05"/>
<polygon fill="#63b8ff" stroke="#63b8ff" points="284.73,-79.39 294.25,-74.74 283.91,-72.43 284.73,-79.39"/>
</a>
</g>
</g>
<!-- Node5 -->
<g id="Node000005" class="node">
<title>Node5</title>
<g id="a_Node000005"><a xlink:href="$class_c_bite_opt.html#abd6c435c82a97476332139663d9a1c82" xlink:title=" ">
<polygon fill="white" stroke="#666666" points="260,-58 135.25,-58 135.25,-38 260,-38 260,-58"/>
<text text-anchor="middle" x="197.62" y="-44.5" font-family="Helvetica,sans-Serif" font-size="10.00">CBiteOpt::generateSol2b</text>
</a>
</g>
</g>
<!-- Node1&#45;&gt;Node5 -->
<g id="edge21_Node000001_Node000005" class="edge">
<title>Node1&#45;&gt;Node5</title>
<g id="a_edge21_Node000001_Node000005"><a xlink:title=" ">
<path fill="none" stroke="#63b8ff" d="M284.41,-58.1C276.33,-57.15 268.18,-56.19 260.28,-55.26"/>
<polygon fill="#63b8ff" stroke="#63b8ff" points="283.91,-61.57 294.25,-59.26 284.73,-54.61 283.91,-61.57"/>
</a>
</g>
</g>
<!-- Node6 -->
<g id="Node000006" class="node">
<title>Node6</title>
<g id="a_Node000006"><a xlink:href="$class_c_bite_opt.html#a2babc6c08dad9718d349683242805bc0" xlink:title=" ">
<polygon fill="white" stroke="#666666" points="257.38,-20 137.88,-20 137.88,0 257.38,0 257.38,-20"/>
<text text-anchor="middle" x="197.62" y="-6.5" font-family="Helvetica,sans-Serif" font-size="10.00">CBiteOpt::generateSol3</text>
</a>
</g>
</g>
<!-- Node1&#45;&gt;Node6 -->
<g id="edge23_Node000001_Node000006" class="edge">
<title>Node1&#45;&gt;Node6</title>
<g id="a_edge23_Node000001_Node000006"><a xlink:title=" ">
<path fill="none" stroke="#63b8ff" d="M323.34,-52.43C304.51,-45.12 281.14,-36.28 260,-29 251.56,-26.09 242.41,-23.15 233.8,-20.47"/>
<polygon fill="#63b8ff" stroke="#63b8ff" points="321.85,-55.61 332.44,-55.99 324.4,-49.09 321.85,-55.61"/>
</a>
</g>
</g>
<!-- Node3 -->
<g id="Node000003" class="node">
<title>Node3</title>
<g id="a_Node000003"><a xlink:href="$class_c_bite_opt.html#a2f56a9d5d682c92e2da1234ed68d54ed" xlink:title=" ">
<polygon fill="white" stroke="#666666" points="99.25,-77 0,-77 0,-57 99.25,-57 99.25,-77"/>
<text text-anchor="middle" x="49.62" y="-63.5" font-family="Helvetica,sans-Serif" font-size="10.00">CBiteOpt::optimize</text>
</a>
</g>
</g>
<!-- Node2&#45;&gt;Node3 -->
<g id="edge18_Node000002_Node000003" class="edge">
<title>Node2&#45;&gt;Node3</title>
<g id="a_edge18_Node000002_Node000003"><a xlink:title=" ">
<path fill="none" stroke="#63b8ff" d="M149.68,-110.12C144.78,-108.47 139.9,-106.75 135.25,-105 113.25,-96.69 88.82,-85.5 71.89,-77.42"/>
<polygon fill="#63b8ff" stroke="#63b8ff" points="148.32,-113.35 158.91,-113.11 150.48,-106.69 148.32,-113.35"/>
</a>
</g>
</g>
<!-- Node4&#45;&gt;Node3 -->
<g id="edge20_Node000004_Node000003" class="edge">
<title>Node4&#45;&gt;Node3</title>
<g id="a_edge20_Node000004_Node000003"><a xlink:title=" ">
<path fill="none" stroke="#63b8ff" d="M126.27,-76.84C117.22,-75.67 108.12,-74.48 99.52,-73.36"/>
<polygon fill="#63b8ff" stroke="#63b8ff" points="125.79,-80.31 136.16,-78.13 126.7,-73.37 125.79,-80.31"/>
</a>
</g>
</g>
<!-- Node5&#45;&gt;Node3 -->
<g id="edge22_Node000005_Node000003" class="edge">
<title>Node5&#45;&gt;Node3</title>
<g id="a_edge22_Node000005_Node000003"><a xlink:title=" ">
<path fill="none" stroke="#63b8ff" d="M123.94,-57.46C115.71,-58.53 107.47,-59.6 99.64,-60.62"/>
<polygon fill="#63b8ff" stroke="#63b8ff" points="124.17,-60.96 133.63,-56.2 123.26,-54.02 124.17,-60.96"/>
</a>
</g>
</g>
<!-- Node6&#45;&gt;Node3 -->
<g id="edge24_Node000006_Node000003" class="edge">
<title>Node6&#45;&gt;Node3</title>
<g id="a_edge24_Node000006_Node000003"><a xlink:title=" ">
<path fill="none" stroke="#63b8ff" d="M149.68,-23.88C144.78,-25.53 139.9,-27.25 135.25,-29 113.25,-37.31 88.82,-48.5 71.89,-56.58"/>
<polygon fill="#63b8ff" stroke="#63b8ff" points="150.48,-27.31 158.91,-20.89 148.32,-20.65 150.48,-27.31"/>
</a>
</g>
</g>
</g>
</svg>
