<?xml version="1.0" encoding="UTF-8" standalone="no"?>
<!DOCTYPE svg PUBLIC "-//W3C//DTD SVG 1.1//EN"
 "http://www.w3.org/Graphics/SVG/1.1/DTD/svg11.dtd">
<!-- Generated by graphviz version 12.2.1 (20241206.2353)
 -->
<!-- Title: fcmaes.advretry.Store.get_xs Pages: 1 -->
<svg width="701pt" height="72pt"
 viewBox="0.00 0.00 701.25 72.00" xmlns="http://www.w3.org/2000/svg" xmlns:xlink="http://www.w3.org/1999/xlink">
<g id="graph0" class="graph" transform="scale(1 1) rotate(0) translate(4 68)">
<title>fcmaes.advretry.Store.get_xs</title>
<!-- Node1 -->
<g id="Node000001" class="node">
<title>Node1</title>
<g id="a_Node000001"><a xlink:title="Builds and returns an array of x values stored in the object.">
<polygon fill="#999999" stroke="#666666" points="693.25,-39 549,-39 549,-19 693.25,-19 693.25,-39"/>
<text text-anchor="middle" x="621.12" y="-25.5" font-family="Helvetica,sans-Serif" font-size="10.00">fcmaes.advretry.Store.get_xs</text>
</a>
</g>
</g>
<!-- Node2 -->
<g id="Node000002" class="node">
<title>Node2</title>
<g id="a_Node000002"><a xlink:href="$classfcmaes_1_1advretry_1_1_store.html#aabe26248085adae1ad80a9b17202e5b7" xlink:title="Retrieves and aggregates data from various attributes and methods.">
<polygon fill="white" stroke="#666666" points="513,-39 360.5,-39 360.5,-19 513,-19 513,-39"/>
<text text-anchor="middle" x="436.75" y="-25.5" font-family="Helvetica,sans-Serif" font-size="10.00">fcmaes.advretry.Store.get_data</text>
</a>
</g>
</g>
<!-- Node1&#45;&gt;Node2 -->
<g id="edge9_Node000001_Node000002" class="edge">
<title>Node1&#45;&gt;Node2</title>
<g id="a_edge9_Node000001_Node000002"><a xlink:title=" ">
<path fill="none" stroke="#63b8ff" d="M537.06,-29C529.14,-29 521.15,-29 513.31,-29"/>
<polygon fill="#63b8ff" stroke="#63b8ff" points="537.06,-32.5 547.06,-29 537.06,-25.5 537.06,-32.5"/>
</a>
</g>
</g>
<!-- Node3 -->
<g id="Node000003" class="node">
<title>Node3</title>
<g id="a_Node000003"><a xlink:href="$classfcmaes_1_1advretry_1_1_store.html#a19b9d6c0787fb06a2b00e595f487bf37" xlink:title="Saves the current data of the instance to a compressed file using bz2 and cPickle modules.">
<polygon fill="white" stroke="#666666" points="313.62,-58 177.62,-58 177.62,-38 313.62,-38 313.62,-58"/>
<text text-anchor="middle" x="245.62" y="-44.5" font-family="Helvetica,sans-Serif" font-size="10.00">fcmaes.advretry.Store.save</text>
</a>
</g>
</g>
<!-- Node2&#45;&gt;Node3 -->
<g id="edge10_Node000002_Node000003" class="edge">
<title>Node2&#45;&gt;Node3</title>
<g id="a_edge10_Node000002_Node000003"><a xlink:title=" ">
<path fill="none" stroke="#63b8ff" d="M349.03,-37.71C337.31,-38.89 325.43,-40.08 314.12,-41.22"/>
<polygon fill="#63b8ff" stroke="#63b8ff" points="349.08,-41.22 358.68,-36.74 348.38,-34.26 349.08,-41.22"/>
</a>
</g>
</g>
<!-- Node5 -->
<g id="Node000005" class="node">
<title>Node5</title>
<g id="a_Node000005"><a xlink:href="$classfcmaes_1_1multiretry_1_1multiretry.html#a68046c0b4cc7c281cec9dfa673ce58fb" xlink:title="Saves the data returned by the get_data method into a compressed bz2 file with the specified name.">
<polygon fill="white" stroke="#666666" points="324.5,-20 166.75,-20 166.75,0 324.5,0 324.5,-20"/>
<text text-anchor="middle" x="245.62" y="-6.5" font-family="Helvetica,sans-Serif" font-size="10.00">fcmaes.multiretry.multiretry.save</text>
</a>
</g>
</g>
<!-- Node2&#45;&gt;Node5 -->
<g id="edge12_Node000002_Node000005" class="edge">
<title>Node2&#45;&gt;Node5</title>
<g id="a_edge12_Node000002_Node000005"><a xlink:title=" ">
<path fill="none" stroke="#63b8ff" d="M348.92,-20.28C340.89,-19.47 332.79,-18.66 324.85,-17.86"/>
<polygon fill="#63b8ff" stroke="#63b8ff" points="348.38,-23.74 358.68,-21.26 349.08,-16.78 348.38,-23.74"/>
</a>
</g>
</g>
<!-- Node4 -->
<g id="Node000004" class="node">
<title>Node4</title>
<g id="a_Node000004"><a xlink:href="$classfcmaes_1_1advretry_1_1_store.html#a7dfa5440d1d295083cef68ea37be60fe" xlink:title="Adds a result to the current optimization process, updating the best result if necessary and storing ...">
<polygon fill="white" stroke="#666666" points="130.75,-64 0,-64 0,-32 130.75,-32 130.75,-64"/>
<text text-anchor="start" x="8" y="-50.5" font-family="Helvetica,sans-Serif" font-size="10.00">fcmaes.advretry.Store.add</text>
<text text-anchor="middle" x="65.38" y="-38.5" font-family="Helvetica,sans-Serif" font-size="10.00">_result</text>
</a>
</g>
</g>
<!-- Node3&#45;&gt;Node4 -->
<g id="edge11_Node000003_Node000004" class="edge">
<title>Node3&#45;&gt;Node4</title>
<g id="a_edge11_Node000003_Node000004"><a xlink:title=" ">
<path fill="none" stroke="#63b8ff" d="M165.79,-48C154.23,-48 142.44,-48 131.21,-48"/>
<polygon fill="#63b8ff" stroke="#63b8ff" points="165.72,-51.5 175.72,-48 165.72,-44.5 165.72,-51.5"/>
</a>
</g>
</g>
</g>
</svg>
