<?xml version="1.0" encoding="UTF-8" standalone="no"?>
<!DOCTYPE svg PUBLIC "-//W3C//DTD SVG 1.1//EN"
 "http://www.w3.org/Graphics/SVG/1.1/DTD/svg11.dtd">
<!-- Generated by graphviz version 12.2.1 (20241206.2353)
 -->
<!-- Title: mode_optimizer::MoDeOptimizer::tell Pages: 1 -->
<svg width="1271pt" height="366pt"
 viewBox="0.00 0.00 1270.50 365.61" xmlns="http://www.w3.org/2000/svg" xmlns:xlink="http://www.w3.org/1999/xlink">
<g id="graph0" class="graph" transform="scale(1 1) rotate(0) translate(4 361.61)">
<title>mode_optimizer::MoDeOptimizer::tell</title>
<!-- Node1 -->
<g id="Node000001" class="node">
<title>Node1</title>
<g id="a_Node000001"><a xlink:title=" ">
<polygon fill="#999999" stroke="#666666" points="159.25,-265 0,-265 0,-233 159.25,-233 159.25,-265"/>
<text text-anchor="start" x="8" y="-251.5" font-family="Helvetica,sans-Serif" font-size="10.00">mode_optimizer::MoDeOptimizer</text>
<text text-anchor="middle" x="79.62" y="-239.5" font-family="Helvetica,sans-Serif" font-size="10.00">::tell</text>
</a>
</g>
</g>
<!-- Node2 -->
<g id="Node000002" class="node">
<title>Node2</title>
<g id="a_Node000002"><a xlink:href="$classmode__optimizer_1_1_mo_de_optimizer.html#abe30b3010caaf8d4648b31adfa127fd2" xlink:title=" ">
<polygon fill="white" stroke="#666666" points="354.5,-265 195.25,-265 195.25,-233 354.5,-233 354.5,-265"/>
<text text-anchor="start" x="203.25" y="-251.5" font-family="Helvetica,sans-Serif" font-size="10.00">mode_optimizer::MoDeOptimizer</text>
<text text-anchor="middle" x="274.88" y="-239.5" font-family="Helvetica,sans-Serif" font-size="10.00">::tell</text>
</a>
</g>
</g>
<!-- Node1&#45;&gt;Node2 -->
<g id="edge45_Node000001_Node000002" class="edge">
<title>Node1&#45;&gt;Node2</title>
<g id="a_edge45_Node000001_Node000002"><a xlink:title=" ">
<path fill="none" stroke="#63b8ff" d="M159.51,-249C167.45,-249 175.56,-249 183.61,-249"/>
<polygon fill="#63b8ff" stroke="#63b8ff" points="183.42,-252.5 193.42,-249 183.42,-245.5 183.42,-252.5"/>
</a>
</g>
</g>
<!-- Node3 -->
<g id="Node000003" class="node">
<title>Node3</title>
<g id="a_Node000003"><a xlink:href="$classmode__optimizer_1_1_mo_de_optimizer.html#a8941e256d6ff3843da336b4473513363" xlink:title=" ">
<polygon fill="white" stroke="#666666" points="549.75,-265 390.5,-265 390.5,-233 549.75,-233 549.75,-265"/>
<text text-anchor="start" x="398.5" y="-251.5" font-family="Helvetica,sans-Serif" font-size="10.00">mode_optimizer::MoDeOptimizer</text>
<text text-anchor="middle" x="470.12" y="-239.5" font-family="Helvetica,sans-Serif" font-size="10.00">::pop_update</text>
</a>
</g>
</g>
<!-- Node2&#45;&gt;Node3 -->
<g id="edge46_Node000002_Node000003" class="edge">
<title>Node2&#45;&gt;Node3</title>
<g id="a_edge46_Node000002_Node000003"><a xlink:title=" ">
<path fill="none" stroke="#63b8ff" d="M354.76,-249C362.7,-249 370.81,-249 378.86,-249"/>
<polygon fill="#63b8ff" stroke="#63b8ff" points="378.67,-252.5 388.67,-249 378.67,-245.5 378.67,-252.5"/>
</a>
</g>
</g>
<!-- Node4 -->
<g id="Node000004" class="node">
<title>Node4</title>
<g id="a_Node000004"><a xlink:href="$classmode__optimizer_1_1_mo_de_optimizer.html#a6ef6cfaa4da734c923fcdbf8692875f5" xlink:title=" ">
<polygon fill="white" stroke="#666666" points="940.25,-334 781,-334 781,-302 940.25,-302 940.25,-334"/>
<text text-anchor="start" x="789" y="-320.5" font-family="Helvetica,sans-Serif" font-size="10.00">mode_optimizer::MoDeOptimizer</text>
<text text-anchor="middle" x="860.62" y="-308.5" font-family="Helvetica,sans-Serif" font-size="10.00">::crowd_dist</text>
</a>
</g>
</g>
<!-- Node3&#45;&gt;Node4 -->
<g id="edge47_Node000003_Node000004" class="edge">
<title>Node3&#45;&gt;Node4</title>
<g id="a_edge47_Node000003_Node000004"><a xlink:title=" ">
<path fill="none" stroke="#63b8ff" d="M550.21,-263.05C613.76,-274.33 703.04,-290.19 769.38,-301.97"/>
<polygon fill="#63b8ff" stroke="#63b8ff" points="768.7,-305.41 779.16,-303.71 769.92,-298.51 768.7,-305.41"/>
</a>
</g>
</g>
<!-- Node5 -->
<g id="Node000005" class="node">
<title>Node5</title>
<g id="a_Node000005"><a xlink:href="$evaluator_8h.html#a7689f88ea48c85c22d9b34208decd67c" xlink:title=" ">
<polygon fill="white" stroke="#666666" points="1086.38,-278 1025.38,-278 1025.38,-258 1086.38,-258 1086.38,-278"/>
<text text-anchor="middle" x="1055.88" y="-264.5" font-family="Helvetica,sans-Serif" font-size="10.00">sort_index</text>
</a>
</g>
</g>
<!-- Node3&#45;&gt;Node5 -->
<g id="edge63_Node000003_Node000005" class="edge">
<title>Node3&#45;&gt;Node5</title>
<g id="a_edge63_Node000003_Node000005"><a xlink:title=" ">
<path fill="none" stroke="#63b8ff" d="M502.06,-265.47C577.86,-303.62 778.46,-391.23 940.25,-343 977.57,-331.87 1014.05,-304.29 1035.49,-285.86"/>
<polygon fill="#63b8ff" stroke="#63b8ff" points="1037.67,-288.61 1042.84,-279.36 1033.03,-283.36 1037.67,-288.61"/>
</a>
</g>
</g>
<!-- Node8 -->
<g id="Node000008" class="node">
<title>Node8</title>
<g id="a_Node000008"><a xlink:href="$classmode__optimizer_1_1_mo_de_optimizer.html#a3762607fa33f7bb558fd7aae9690fc37" xlink:title=" ">
<polygon fill="white" stroke="#666666" points="745,-196 585.75,-196 585.75,-164 745,-164 745,-196"/>
<text text-anchor="start" x="593.75" y="-182.5" font-family="Helvetica,sans-Serif" font-size="10.00">mode_optimizer::MoDeOptimizer</text>
<text text-anchor="middle" x="665.38" y="-170.5" font-family="Helvetica,sans-Serif" font-size="10.00">::pareto</text>
</a>
</g>
</g>
<!-- Node3&#45;&gt;Node8 -->
<g id="edge51_Node000003_Node000008" class="edge">
<title>Node3&#45;&gt;Node8</title>
<g id="a_edge51_Node000003_Node000008"><a xlink:title=" ">
<path fill="none" stroke="#63b8ff" d="M516.92,-232.65C544.04,-222.97 578.63,-210.62 607.48,-200.31"/>
<polygon fill="#63b8ff" stroke="#63b8ff" points="608.57,-203.64 616.81,-196.98 606.22,-197.05 608.57,-203.64"/>
</a>
</g>
</g>
<!-- Node13 -->
<g id="Node000013" class="node">
<title>Node13</title>
<g id="a_Node000013"><a xlink:href="$classmode__optimizer_1_1_mo_de_optimizer.html#a0455034273652829d554dd3858b4b6e1" xlink:title=" ">
<polygon fill="white" stroke="#666666" points="745,-64 585.75,-64 585.75,-32 745,-32 745,-64"/>
<text text-anchor="start" x="593.75" y="-50.5" font-family="Helvetica,sans-Serif" font-size="10.00">mode_optimizer::MoDeOptimizer</text>
<text text-anchor="middle" x="665.38" y="-38.5" font-family="Helvetica,sans-Serif" font-size="10.00">::variation</text>
</a>
</g>
</g>
<!-- Node3&#45;&gt;Node13 -->
<g id="edge64_Node000003_Node000013" class="edge">
<title>Node3&#45;&gt;Node13</title>
<g id="a_edge64_Node000003_Node000013"><a xlink:title=" ">
<path fill="none" stroke="#63b8ff" d="M486.94,-232.55C520.86,-197.28 600.74,-114.19 640.72,-72.61"/>
<polygon fill="#63b8ff" stroke="#63b8ff" points="643.16,-75.12 647.56,-65.49 638.11,-70.27 643.16,-75.12"/>
</a>
</g>
</g>
<!-- Node4&#45;&gt;Node5 -->
<g id="edge48_Node000004_Node000005" class="edge">
<title>Node4&#45;&gt;Node5</title>
<g id="a_edge48_Node000004_Node000005"><a xlink:title=" ">
<path fill="none" stroke="#63b8ff" d="M925.17,-301.56C954.49,-293.97 988.44,-285.19 1014.25,-278.51"/>
<polygon fill="#63b8ff" stroke="#63b8ff" points="1014.86,-281.97 1023.66,-276.08 1013.11,-275.19 1014.86,-281.97"/>
</a>
</g>
</g>
<!-- Node7 -->
<g id="Node000007" class="node">
<title>Node7</title>
<g id="a_Node000007"><a xlink:href="$evaluator_8h.html#a909812174fa9829bc49f6e00edb00b90" xlink:title=" ">
<polygon fill="white" stroke="#666666" points="1075.88,-168 1035.88,-168 1035.88,-148 1075.88,-148 1075.88,-168"/>
<text text-anchor="middle" x="1055.88" y="-154.5" font-family="Helvetica,sans-Serif" font-size="10.00">zeros</text>
</a>
</g>
</g>
<!-- Node4&#45;&gt;Node7 -->
<g id="edge50_Node000004_Node000007" class="edge">
<title>Node4&#45;&gt;Node7</title>
<g id="a_edge50_Node000004_Node000007"><a xlink:title=" ">
<path fill="none" stroke="#63b8ff" d="M924.97,-301.51C930.33,-299.04 935.51,-296.22 940.25,-293 961.15,-278.81 959.99,-268.34 976.25,-249 997.42,-223.82 1022.31,-195.17 1038.32,-176.86"/>
<polygon fill="#63b8ff" stroke="#63b8ff" points="1040.87,-179.26 1044.83,-169.43 1035.6,-174.65 1040.87,-179.26"/>
</a>
</g>
</g>
<!-- Node6 -->
<g id="Node000006" class="node">
<title>Node6</title>
<g id="a_Node000006"><a xlink:href="$evaluator_8h.html#a85426eb5cecc23caa06090d795034e5c" xlink:title=" ">
<polygon fill="white" stroke="#666666" points="1262.5,-278 1171.5,-278 1171.5,-258 1262.5,-258 1262.5,-278"/>
<text text-anchor="middle" x="1217" y="-264.5" font-family="Helvetica,sans-Serif" font-size="10.00">compareIndexVal</text>
</a>
</g>
</g>
<!-- Node5&#45;&gt;Node6 -->
<g id="edge49_Node000005_Node000006" class="edge">
<title>Node5&#45;&gt;Node6</title>
<g id="a_edge49_Node000005_Node000006"><a xlink:title=" ">
<path fill="none" stroke="#63b8ff" d="M1086.81,-268C1107.32,-268 1135.17,-268 1159.76,-268"/>
<polygon fill="#63b8ff" stroke="#63b8ff" points="1159.65,-271.5 1169.65,-268 1159.65,-264.5 1159.65,-271.5"/>
</a>
</g>
</g>
<!-- Node8&#45;&gt;Node5 -->
<g id="edge61_Node000008_Node000005" class="edge">
<title>Node8&#45;&gt;Node5</title>
<g id="a_edge61_Node000008_Node000005"><a xlink:title=" ">
<path fill="none" stroke="#63b8ff" d="M738.99,-196.45C820.21,-214.85 948.89,-243.99 1014.1,-258.76"/>
<polygon fill="#63b8ff" stroke="#63b8ff" points="1013.14,-262.13 1023.66,-260.93 1014.68,-255.31 1013.14,-262.13"/>
</a>
</g>
</g>
<!-- Node8&#45;&gt;Node7 -->
<g id="edge62_Node000008_Node000007" class="edge">
<title>Node8&#45;&gt;Node7</title>
<g id="a_edge62_Node000008_Node000007"><a xlink:title=" ">
<path fill="none" stroke="#63b8ff" d="M730.24,-163.53C746.67,-160 764.39,-156.79 781,-155 868.79,-145.54 973.32,-151.38 1024.11,-155.3"/>
<polygon fill="#63b8ff" stroke="#63b8ff" points="1023.78,-158.79 1034.03,-156.1 1024.35,-151.81 1023.78,-158.79"/>
</a>
</g>
</g>
<!-- Node9 -->
<g id="Node000009" class="node">
<title>Node9</title>
<g id="a_Node000009"><a xlink:href="$classmode__optimizer_1_1_mo_de_optimizer.html#a1d4ce60e415e141efaef2728d9952933" xlink:title=" ">
<polygon fill="white" stroke="#666666" points="940.25,-284 781,-284 781,-252 940.25,-252 940.25,-284"/>
<text text-anchor="start" x="789" y="-270.5" font-family="Helvetica,sans-Serif" font-size="10.00">mode_optimizer::MoDeOptimizer</text>
<text text-anchor="middle" x="860.62" y="-258.5" font-family="Helvetica,sans-Serif" font-size="10.00">::objranks</text>
</a>
</g>
</g>
<!-- Node8&#45;&gt;Node9 -->
<g id="edge52_Node000008_Node000009" class="edge">
<title>Node8&#45;&gt;Node9</title>
<g id="a_edge52_Node000008_Node000009"><a xlink:title=" ">
<path fill="none" stroke="#63b8ff" d="M696.61,-196.38C719.49,-208.51 751.83,-225.1 781,-238 788.17,-241.17 795.8,-244.34 803.37,-247.35"/>
<polygon fill="#63b8ff" stroke="#63b8ff" points="801.98,-250.57 812.57,-250.95 804.53,-244.05 801.98,-250.57"/>
</a>
</g>
</g>
<!-- Node10 -->
<g id="Node000010" class="node">
<title>Node10</title>
<g id="a_Node000010"><a xlink:href="$classmode__optimizer_1_1_mo_de_optimizer.html#a10363d0716952c74500da8ca679dc95b" xlink:title=" ">
<polygon fill="white" stroke="#666666" points="940.25,-108 781,-108 781,-76 940.25,-76 940.25,-108"/>
<text text-anchor="start" x="789" y="-94.5" font-family="Helvetica,sans-Serif" font-size="10.00">mode_optimizer::MoDeOptimizer</text>
<text text-anchor="middle" x="860.62" y="-82.5" font-family="Helvetica,sans-Serif" font-size="10.00">::pareto_levels</text>
</a>
</g>
</g>
<!-- Node8&#45;&gt;Node10 -->
<g id="edge54_Node000008_Node000010" class="edge">
<title>Node8&#45;&gt;Node10</title>
<g id="a_edge54_Node000008_Node000010"><a xlink:title=" ">
<path fill="none" stroke="#63b8ff" d="M684.75,-163.59C707.16,-148.88 746.33,-128.34 781,-113 781.11,-112.95 781.22,-112.9 781.33,-112.86"/>
<polygon fill="#63b8ff" stroke="#63b8ff" points="782.47,-116.17 790.29,-109.02 779.72,-109.74 782.47,-116.17"/>
</a>
</g>
</g>
<!-- Node12 -->
<g id="Node000012" class="node">
<title>Node12</title>
<g id="a_Node000012"><a xlink:href="$classmode__optimizer_1_1_mo_de_optimizer.html#a7d415b38158a793f2a2d666e921d838b" xlink:title=" ">
<polygon fill="white" stroke="#666666" points="940.25,-196 781,-196 781,-164 940.25,-164 940.25,-196"/>
<text text-anchor="start" x="789" y="-182.5" font-family="Helvetica,sans-Serif" font-size="10.00">mode_optimizer::MoDeOptimizer</text>
<text text-anchor="middle" x="860.62" y="-170.5" font-family="Helvetica,sans-Serif" font-size="10.00">::ranks</text>
</a>
</g>
</g>
<!-- Node8&#45;&gt;Node12 -->
<g id="edge58_Node000008_Node000012" class="edge">
<title>Node8&#45;&gt;Node12</title>
<g id="a_edge58_Node000008_Node000012"><a xlink:title=" ">
<path fill="none" stroke="#63b8ff" d="M745.26,-180C753.2,-180 761.31,-180 769.36,-180"/>
<polygon fill="#63b8ff" stroke="#63b8ff" points="769.17,-183.5 779.17,-180 769.17,-176.5 769.17,-183.5"/>
</a>
</g>
</g>
<!-- Node9&#45;&gt;Node5 -->
<g id="edge53_Node000009_Node000005" class="edge">
<title>Node9&#45;&gt;Node5</title>
<g id="a_edge53_Node000009_Node000005"><a xlink:title=" ">
<path fill="none" stroke="#63b8ff" d="M940.51,-268C965.69,-268 992.54,-268 1013.89,-268"/>
<polygon fill="#63b8ff" stroke="#63b8ff" points="1013.63,-271.5 1023.63,-268 1013.63,-264.5 1013.63,-271.5"/>
</a>
</g>
</g>
<!-- Node10&#45;&gt;Node7 -->
<g id="edge57_Node000010_Node000007" class="edge">
<title>Node10&#45;&gt;Node7</title>
<g id="a_edge57_Node000010_Node000007"><a xlink:title=" ">
<path fill="none" stroke="#63b8ff" d="M909.89,-108.48C945.98,-120.81 994.18,-137.27 1024.89,-147.76"/>
<polygon fill="#63b8ff" stroke="#63b8ff" points="1023.71,-151.05 1034.3,-150.97 1025.97,-144.43 1023.71,-151.05"/>
</a>
</g>
</g>
<!-- Node10&#45;&gt;Node8 -->
<g id="edge56_Node000010_Node000008" class="edge">
<title>Node10&#45;&gt;Node8</title>
<g id="a_edge56_Node000010_Node000008"><a xlink:title=" ">
<path fill="none" stroke="#63b8ff" d="M834.92,-108.42C819.3,-115.35 798.77,-123.14 781,-131 761.73,-139.52 741.07,-149.66 722.67,-158.6"/>
<polygon fill="#63b8ff" stroke="#63b8ff" points="721.25,-155.39 713.78,-162.9 724.31,-161.69 721.25,-155.39"/>
</a>
</g>
</g>
<!-- Node11 -->
<g id="Node000011" class="node">
<title>Node11</title>
<g id="a_Node000011"><a xlink:href="$classmode__optimizer_1_1_mo_de_optimizer.html#af5f89faff00f2714a594e1d60cd2d6e3" xlink:title=" ">
<polygon fill="white" stroke="#666666" points="1135.5,-108 976.25,-108 976.25,-76 1135.5,-76 1135.5,-108"/>
<text text-anchor="start" x="984.25" y="-94.5" font-family="Helvetica,sans-Serif" font-size="10.00">mode_optimizer::MoDeOptimizer</text>
<text text-anchor="middle" x="1055.88" y="-82.5" font-family="Helvetica,sans-Serif" font-size="10.00">::is_dominated</text>
</a>
</g>
</g>
<!-- Node10&#45;&gt;Node11 -->
<g id="edge55_Node000010_Node000011" class="edge">
<title>Node10&#45;&gt;Node11</title>
<g id="a_edge55_Node000010_Node000011"><a xlink:title=" ">
<path fill="none" stroke="#63b8ff" d="M940.51,-92C948.45,-92 956.56,-92 964.61,-92"/>
<polygon fill="#63b8ff" stroke="#63b8ff" points="964.42,-95.5 974.42,-92 964.42,-88.5 964.42,-95.5"/>
</a>
</g>
</g>
<!-- Node12&#45;&gt;Node5 -->
<g id="edge59_Node000012_Node000005" class="edge">
<title>Node12&#45;&gt;Node5</title>
<g id="a_edge59_Node000012_Node000005"><a xlink:title=" ">
<path fill="none" stroke="#63b8ff" d="M907.27,-196.5C918.17,-200.69 929.69,-205.33 940.25,-210 969.83,-223.09 1002.68,-239.96 1025.61,-252.13"/>
<polygon fill="#63b8ff" stroke="#63b8ff" points="1023.9,-255.18 1034.37,-256.81 1027.2,-249.01 1023.9,-255.18"/>
</a>
</g>
</g>
<!-- Node12&#45;&gt;Node7 -->
<g id="edge60_Node000012_Node000007" class="edge">
<title>Node12&#45;&gt;Node7</title>
<g id="a_edge60_Node000012_Node000007"><a xlink:title=" ">
<path fill="none" stroke="#63b8ff" d="M940.51,-171.02C970.05,-167.66 1001.89,-164.03 1024.46,-161.46"/>
<polygon fill="#63b8ff" stroke="#63b8ff" points="1024.61,-164.97 1034.15,-160.36 1023.82,-158.01 1024.61,-164.97"/>
</a>
</g>
</g>
<!-- Node14 -->
<g id="Node000014" class="node">
<title>Node14</title>
<g id="a_Node000014"><a xlink:href="$evaluator_8h.html#a0007d50439e7d7122b6dd54d05c7c45b" xlink:title=" ">
<polygon fill="white" stroke="#666666" points="883.25,-20 838,-20 838,0 883.25,0 883.25,-20"/>
<text text-anchor="middle" x="860.62" y="-6.5" font-family="Helvetica,sans-Serif" font-size="10.00">rand01</text>
</a>
</g>
</g>
<!-- Node13&#45;&gt;Node14 -->
<g id="edge65_Node000013_Node000014" class="edge">
<title>Node13&#45;&gt;Node14</title>
<g id="a_edge65_Node000013_Node000014"><a xlink:title=" ">
<path fill="none" stroke="#63b8ff" d="M745.26,-32.49C773.57,-26.92 803.98,-20.94 826.32,-16.55"/>
<polygon fill="#63b8ff" stroke="#63b8ff" points="826.91,-20 836.04,-14.64 825.55,-13.13 826.91,-20"/>
</a>
</g>
</g>
<!-- Node15 -->
<g id="Node000015" class="node">
<title>Node15</title>
<g id="a_Node000015"><a xlink:href="$evaluator_8h.html#a28d3e754a2edfdf68753c5562acd87d0" xlink:title=" ">
<polygon fill="white" stroke="#666666" points="893,-58 828.25,-58 828.25,-38 893,-38 893,-58"/>
<text text-anchor="middle" x="860.62" y="-44.5" font-family="Helvetica,sans-Serif" font-size="10.00">uniformVec</text>
</a>
</g>
</g>
<!-- Node13&#45;&gt;Node15 -->
<g id="edge66_Node000013_Node000015" class="edge">
<title>Node13&#45;&gt;Node15</title>
<g id="a_edge66_Node000013_Node000015"><a xlink:title=" ">
<path fill="none" stroke="#63b8ff" d="M745.26,-48C769.62,-48 795.55,-48 816.55,-48"/>
<polygon fill="#63b8ff" stroke="#63b8ff" points="816.46,-51.5 826.46,-48 816.46,-44.5 816.46,-51.5"/>
</a>
</g>
</g>
</g>
</svg>
