<?xml version="1.0" encoding="UTF-8" standalone="no"?>
<!DOCTYPE svg PUBLIC "-//W3C//DTD SVG 1.1//EN"
 "http://www.w3.org/Graphics/SVG/1.1/DTD/svg11.dtd">
<!-- Generated by graphviz version 12.2.1 (20241206.2353)
 -->
<!-- Title: Fitness::decode Pages: 1 -->
<svg width="355pt" height="160pt"
 viewBox="0.00 0.00 354.50 160.00" xmlns="http://www.w3.org/2000/svg" xmlns:xlink="http://www.w3.org/1999/xlink">
<g id="graph0" class="graph" transform="scale(1 1) rotate(0) translate(4 156)">
<title>Fitness::decode</title>
<!-- Node1 -->
<g id="Node000001" class="node">
<title>Node1</title>
<g id="a_Node000001"><a xlink:title=" ">
<polygon fill="#999999" stroke="#666666" points="346.5,-95 260.75,-95 260.75,-75 346.5,-75 346.5,-95"/>
<text text-anchor="middle" x="303.62" y="-81.5" font-family="Helvetica,sans-Serif" font-size="10.00">Fitness::decode</text>
</a>
</g>
</g>
<!-- Node2 -->
<g id="Node000002" class="node">
<title>Node2</title>
<g id="a_Node000002"><a xlink:href="$acmaesoptimizer_8cpp.html#afd9ea227572135d9dd02fe7ec9d489e4" xlink:title=" ">
<polygon fill="white" stroke="#666666" points="213.88,-152 140.12,-152 140.12,-132 213.88,-132 213.88,-152"/>
<text text-anchor="middle" x="177" y="-138.5" font-family="Helvetica,sans-Serif" font-size="10.00">askACMA_C</text>
</a>
</g>
</g>
<!-- Node1&#45;&gt;Node2 -->
<g id="edge13_Node000001_Node000002" class="edge">
<title>Node1&#45;&gt;Node2</title>
<g id="a_edge13_Node000001_Node000002"><a xlink:title=" ">
<path fill="none" stroke="#63b8ff" d="M272.06,-100.51C257.79,-107.6 240.51,-115.96 224.75,-123 218.19,-125.93 211.04,-128.93 204.34,-131.66"/>
<polygon fill="#63b8ff" stroke="#63b8ff" points="273.58,-103.67 280.95,-96.06 270.45,-97.4 273.58,-103.67"/>
</a>
</g>
</g>
<!-- Node3 -->
<g id="Node000003" class="node">
<title>Node3</title>
<g id="a_Node000003"><a xlink:href="$crfmnes_8cpp.html#aa1796ba79109494532e2a57b9555b7e5" xlink:title=" ">
<polygon fill="white" stroke="#666666" points="224.38,-114 129.62,-114 129.62,-94 224.38,-94 224.38,-114"/>
<text text-anchor="middle" x="177" y="-100.5" font-family="Helvetica,sans-Serif" font-size="10.00">askCRFMNES_C</text>
</a>
</g>
</g>
<!-- Node1&#45;&gt;Node3 -->
<g id="edge14_Node000001_Node000003" class="edge">
<title>Node1&#45;&gt;Node3</title>
<g id="a_edge14_Node000001_Node000003"><a xlink:title=" ">
<path fill="none" stroke="#63b8ff" d="M249.19,-93.15C241.09,-94.38 232.8,-95.65 224.86,-96.86"/>
<polygon fill="#63b8ff" stroke="#63b8ff" points="249.58,-96.63 258.94,-91.66 248.52,-89.71 249.58,-96.63"/>
</a>
</g>
</g>
<!-- Node4 -->
<g id="Node000004" class="node">
<title>Node4</title>
<g id="a_Node000004"><a xlink:href="$class_fitness.html#a780edd5ddec4867c4d59c4cd3995f6ce" xlink:title=" ">
<polygon fill="white" stroke="#666666" points="218.38,-76 135.62,-76 135.62,-56 218.38,-56 218.38,-76"/>
<text text-anchor="middle" x="177" y="-62.5" font-family="Helvetica,sans-Serif" font-size="10.00">Fitness::values</text>
</a>
</g>
</g>
<!-- Node1&#45;&gt;Node4 -->
<g id="edge15_Node000001_Node000004" class="edge">
<title>Node1&#45;&gt;Node4</title>
<g id="a_edge15_Node000001_Node000004"><a xlink:title=" ">
<path fill="none" stroke="#63b8ff" d="M249.05,-76.83C238.8,-75.27 228.22,-73.66 218.46,-72.17"/>
<polygon fill="#63b8ff" stroke="#63b8ff" points="248.52,-80.29 258.94,-78.34 249.58,-73.37 248.52,-80.29"/>
</a>
</g>
</g>
<!-- Node6 -->
<g id="Node000006" class="node">
<title>Node6</title>
<g id="a_Node000006"><a xlink:href="$class_fitness.html#a233793c918d3978ec0e52ef8431102b6" xlink:title=" ">
<polygon fill="white" stroke="#666666" points="224.75,-20 129.25,-20 129.25,0 224.75,0 224.75,-20"/>
<text text-anchor="middle" x="177" y="-6.5" font-family="Helvetica,sans-Serif" font-size="10.00">Fitness::violations</text>
</a>
</g>
</g>
<!-- Node1&#45;&gt;Node6 -->
<g id="edge17_Node000001_Node000006" class="edge">
<title>Node1&#45;&gt;Node6</title>
<g id="a_edge17_Node000001_Node000006"><a xlink:title=" ">
<path fill="none" stroke="#63b8ff" d="M275.56,-68.71C251.14,-54.01 215.95,-32.84 195.18,-20.34"/>
<polygon fill="#63b8ff" stroke="#63b8ff" points="273.63,-71.63 284,-73.79 277.24,-65.64 273.63,-71.63"/>
</a>
</g>
</g>
<!-- Node5 -->
<g id="Node000005" class="node">
<title>Node5</title>
<g id="a_Node000005"><a xlink:href="$pgpe_8cpp.html#a83f6d1c91509d2c28e236afbea4bd172" xlink:title=" ">
<polygon fill="white" stroke="#666666" points="93.25,-76 0,-76 0,-56 93.25,-56 93.25,-76"/>
<text text-anchor="middle" x="46.62" y="-62.5" font-family="Helvetica,sans-Serif" font-size="10.00">optimizePGPE_C</text>
</a>
</g>
</g>
<!-- Node4&#45;&gt;Node5 -->
<g id="edge16_Node000004_Node000005" class="edge">
<title>Node4&#45;&gt;Node5</title>
<g id="a_edge16_Node000004_Node000005"><a xlink:title=" ">
<path fill="none" stroke="#63b8ff" d="M124.12,-66C113.93,-66 103.31,-66 93.34,-66"/>
<polygon fill="#63b8ff" stroke="#63b8ff" points="123.87,-69.5 133.87,-66 123.87,-62.5 123.87,-69.5"/>
</a>
</g>
</g>
<!-- Node6&#45;&gt;Node6 -->
<g id="edge18_Node000006_Node000006" class="edge">
<title>Node6&#45;&gt;Node6</title>
<g id="a_edge18_Node000006_Node000006"><a xlink:title=" ">
<path fill="none" stroke="#63b8ff" d="M199.38,-31.44C196.5,-35.3 189.04,-38 177,-38 154.99,-38 148.28,-28.98 156.88,-20.34"/>
<polygon fill="#63b8ff" stroke="#63b8ff" points="202.85,-30.92 197.42,-21.82 195.99,-32.32 202.85,-30.92"/>
</a>
</g>
</g>
</g>
</svg>
