<?xml version="1.0" encoding="UTF-8" standalone="no"?>
<!DOCTYPE svg PUBLIC "-//W3C//DTD SVG 1.1//EN"
 "http://www.w3.org/Graphics/SVG/1.1/DTD/svg11.dtd">
<!-- Generated by graphviz version 12.2.1 (20241206.2353)
 -->
<!-- Title: crmfnes::CrfmnesOptimizer::w_dist_hat Pages: 1 -->
<svg width="318pt" height="90pt"
 viewBox="0.00 0.00 317.50 90.00" xmlns="http://www.w3.org/2000/svg" xmlns:xlink="http://www.w3.org/1999/xlink">
<g id="graph0" class="graph" transform="scale(1 1) rotate(0) translate(4 86)">
<title>crmfnes::CrfmnesOptimizer::w_dist_hat</title>
<!-- Node1 -->
<g id="Node000001" class="node">
<title>Node1</title>
<g id="a_Node000001"><a xlink:title=" ">
<polygon fill="#999999" stroke="#666666" points="136.75,-57 0,-57 0,-25 136.75,-25 136.75,-57"/>
<text text-anchor="start" x="8" y="-43.5" font-family="Helvetica,sans-Serif" font-size="10.00">crmfnes::CrfmnesOptimizer</text>
<text text-anchor="middle" x="68.38" y="-31.5" font-family="Helvetica,sans-Serif" font-size="10.00">::w_dist_hat</text>
</a>
</g>
</g>
<!-- Node2 -->
<g id="Node000002" class="node">
<title>Node2</title>
<g id="a_Node000002"><a xlink:href="$classcrmfnes_1_1_crfmnes_optimizer.html#a13448f49cc0f161fa5fdbd6430cc7804" xlink:title=" ">
<polygon fill="white" stroke="#666666" points="309.5,-82 172.75,-82 172.75,-50 309.5,-50 309.5,-82"/>
<text text-anchor="start" x="180.75" y="-68.5" font-family="Helvetica,sans-Serif" font-size="10.00">crmfnes::CrfmnesOptimizer</text>
<text text-anchor="middle" x="241.12" y="-56.5" font-family="Helvetica,sans-Serif" font-size="10.00">::alpha_dist</text>
</a>
</g>
</g>
<!-- Node1&#45;&gt;Node2 -->
<g id="edge5_Node000001_Node000002" class="edge">
<title>Node1&#45;&gt;Node2</title>
<g id="a_edge5_Node000001_Node000002"><a xlink:title=" ">
<path fill="none" stroke="#63b8ff" d="M136.86,-50.88C144.78,-52.04 152.91,-53.23 160.98,-54.41"/>
<polygon fill="#63b8ff" stroke="#63b8ff" points="160.39,-57.86 170.79,-55.85 161.41,-50.94 160.39,-57.86"/>
</a>
</g>
</g>
<!-- Node3 -->
<g id="Node000003" class="node">
<title>Node3</title>
<g id="a_Node000003"><a xlink:href="$classcrmfnes_1_1_crfmnes_optimizer.html#a1c0bc5770261a21ed819387c339b3c05" xlink:title=" ">
<polygon fill="white" stroke="#666666" points="309.5,-32 172.75,-32 172.75,0 309.5,0 309.5,-32"/>
<text text-anchor="start" x="180.75" y="-18.5" font-family="Helvetica,sans-Serif" font-size="10.00">crmfnes::CrfmnesOptimizer</text>
<text text-anchor="middle" x="241.12" y="-6.5" font-family="Helvetica,sans-Serif" font-size="10.00">::cexp</text>
</a>
</g>
</g>
<!-- Node1&#45;&gt;Node3 -->
<g id="edge6_Node000001_Node000003" class="edge">
<title>Node1&#45;&gt;Node3</title>
<g id="a_edge6_Node000001_Node000003"><a xlink:title=" ">
<path fill="none" stroke="#63b8ff" d="M136.86,-31.12C144.78,-29.96 152.91,-28.77 160.98,-27.59"/>
<polygon fill="#63b8ff" stroke="#63b8ff" points="161.41,-31.06 170.79,-26.15 160.39,-24.14 161.41,-31.06"/>
</a>
</g>
</g>
</g>
</svg>
