<?xml version="1.0" encoding="UTF-8" standalone="no"?>
<!DOCTYPE svg PUBLIC "-//W3C//DTD SVG 1.1//EN"
 "http://www.w3.org/Graphics/SVG/1.1/DTD/svg11.dtd">
<!-- Generated by graphviz version 12.2.1 (20241206.2353)
 -->
<!-- Title: fcmaes.advretry.Store.set_data Pages: 1 -->
<svg width="691pt" height="161pt"
 viewBox="0.00 0.00 690.75 161.00" xmlns="http://www.w3.org/2000/svg" xmlns:xlink="http://www.w3.org/1999/xlink">
<g id="graph0" class="graph" transform="scale(1 1) rotate(0) translate(4 157)">
<title>fcmaes.advretry.Store.set_data</title>
<!-- Node1 -->
<g id="Node000001" class="node">
<title>Node1</title>
<g id="a_Node000001"><a xlink:title="Sets the data for an internal storage structure and processes it.">
<polygon fill="#999999" stroke="#666666" points="152.5,-115 0,-115 0,-95 152.5,-95 152.5,-115"/>
<text text-anchor="middle" x="76.25" y="-101.5" font-family="Helvetica,sans-Serif" font-size="10.00">fcmaes.advretry.Store.set_data</text>
</a>
</g>
</g>
<!-- Node2 -->
<g id="Node000002" class="node">
<title>Node2</title>
<g id="a_Node000002"><a xlink:href="$classfcmaes_1_1advretry_1_1_store.html#a0ae90f35f58deb629c18747fbf9b1cc9" xlink:title="Replaces the y and x values at a specified index.">
<polygon fill="white" stroke="#666666" points="505.12,-134 358.62,-134 358.62,-114 505.12,-114 505.12,-134"/>
<text text-anchor="middle" x="431.88" y="-120.5" font-family="Helvetica,sans-Serif" font-size="10.00">fcmaes.advretry.Store.replace</text>
</a>
</g>
</g>
<!-- Node1&#45;&gt;Node2 -->
<g id="edge17_Node000001_Node000002" class="edge">
<title>Node1&#45;&gt;Node2</title>
<g id="a_edge17_Node000001_Node000002"><a xlink:title=" ">
<path fill="none" stroke="#63b8ff" d="M152.68,-109.05C209.75,-112.12 288.11,-116.33 347.13,-119.5"/>
<polygon fill="#63b8ff" stroke="#63b8ff" points="346.6,-122.98 356.77,-120.02 346.97,-115.99 346.6,-122.98"/>
</a>
</g>
</g>
<!-- Node5 -->
<g id="Node000005" class="node">
<title>Node5</title>
<g id="a_Node000005"><a xlink:href="$classfcmaes_1_1advretry_1_1_store.html#aa5c9f7209b6bfb5bf079ad940a84eea4" xlink:title="Sorts and updates stored data based on the given criteria.">
<polygon fill="white" stroke="#666666" points="320,-96 188.5,-96 188.5,-76 320,-76 320,-96"/>
<text text-anchor="middle" x="254.25" y="-82.5" font-family="Helvetica,sans-Serif" font-size="10.00">fcmaes.advretry.Store.sort</text>
</a>
</g>
</g>
<!-- Node1&#45;&gt;Node5 -->
<g id="edge20_Node000001_Node000005" class="edge">
<title>Node1&#45;&gt;Node5</title>
<g id="a_edge20_Node000001_Node000005"><a xlink:title=" ">
<path fill="none" stroke="#63b8ff" d="M152.91,-96.83C160.89,-95.97 169.01,-95.09 176.99,-94.23"/>
<polygon fill="#63b8ff" stroke="#63b8ff" points="177.1,-97.74 186.66,-93.19 176.34,-90.78 177.1,-97.74"/>
</a>
</g>
</g>
<!-- Node3 -->
<g id="Node000003" class="node">
<title>Node3</title>
<g id="a_Node000003"><a xlink:href="$classfcmaes_1_1advretry_1_1_store.html#a732636cd5ab3c40b878ef2e0274b1d1b" xlink:title="Sets a subset of the xs list for a specific process ID.">
<polygon fill="white" stroke="#666666" points="682.75,-153 543.75,-153 543.75,-133 682.75,-133 682.75,-153"/>
<text text-anchor="middle" x="613.25" y="-139.5" font-family="Helvetica,sans-Serif" font-size="10.00">fcmaes.advretry.Store.set_x</text>
</a>
</g>
</g>
<!-- Node2&#45;&gt;Node3 -->
<g id="edge18_Node000002_Node000003" class="edge">
<title>Node2&#45;&gt;Node3</title>
<g id="a_edge18_Node000002_Node000003"><a xlink:title=" ">
<path fill="none" stroke="#63b8ff" d="M505.58,-131.7C514.38,-132.63 523.42,-133.59 532.32,-134.53"/>
<polygon fill="#63b8ff" stroke="#63b8ff" points="531.69,-137.99 542,-135.56 532.43,-131.03 531.69,-137.99"/>
</a>
</g>
</g>
<!-- Node4 -->
<g id="Node000004" class="node">
<title>Node4</title>
<g id="a_Node000004"><a xlink:href="$classfcmaes_1_1advretry_1_1_store.html#a12d96e54629b449293d2aabf5542ddc1" xlink:title="Sets the value of y for a given pid within the &#39;ys&#39; mapping.">
<polygon fill="white" stroke="#666666" points="682.75,-115 543.75,-115 543.75,-95 682.75,-95 682.75,-115"/>
<text text-anchor="middle" x="613.25" y="-101.5" font-family="Helvetica,sans-Serif" font-size="10.00">fcmaes.advretry.Store.set_y</text>
</a>
</g>
</g>
<!-- Node2&#45;&gt;Node4 -->
<g id="edge19_Node000002_Node000004" class="edge">
<title>Node2&#45;&gt;Node4</title>
<g id="a_edge19_Node000002_Node000004"><a xlink:title=" ">
<path fill="none" stroke="#63b8ff" d="M505.58,-116.3C514.38,-115.37 523.42,-114.41 532.32,-113.47"/>
<polygon fill="#63b8ff" stroke="#63b8ff" points="532.43,-116.97 542,-112.44 531.69,-110.01 532.43,-116.97"/>
</a>
</g>
</g>
<!-- Node5&#45;&gt;Node2 -->
<g id="edge24_Node000005_Node000002" class="edge">
<title>Node5&#45;&gt;Node2</title>
<g id="a_edge24_Node000005_Node000002"><a xlink:title=" ">
<path fill="none" stroke="#63b8ff" d="M303.71,-96.48C324.63,-101.01 349.31,-106.35 371.34,-111.12"/>
<polygon fill="#63b8ff" stroke="#63b8ff" points="370.58,-114.54 381.1,-113.23 372.06,-107.69 370.58,-114.54"/>
</a>
</g>
</g>
<!-- Node6 -->
<g id="Node000006" class="node">
<title>Node6</title>
<g id="a_Node000006"><a xlink:href="$classfcmaes_1_1advretry_1_1_store.html#a00ab052ea8b184b7344875122481b623" xlink:title="Calculates the normalized distance between two points in a Euclidean space.">
<polygon fill="white" stroke="#666666" points="507.75,-96 356,-96 356,-76 507.75,-76 507.75,-96"/>
<text text-anchor="middle" x="431.88" y="-82.5" font-family="Helvetica,sans-Serif" font-size="10.00">fcmaes.advretry.Store.distance</text>
</a>
</g>
</g>
<!-- Node5&#45;&gt;Node6 -->
<g id="edge21_Node000005_Node000006" class="edge">
<title>Node5&#45;&gt;Node6</title>
<g id="a_edge21_Node000005_Node000006"><a xlink:title=" ">
<path fill="none" stroke="#63b8ff" d="M320.15,-86C327.98,-86 336.08,-86 344.17,-86"/>
<polygon fill="#63b8ff" stroke="#63b8ff" points="344.05,-89.5 354.05,-86 344.05,-82.5 344.05,-89.5"/>
</a>
</g>
</g>
<!-- Node7 -->
<g id="Node000007" class="node">
<title>Node7</title>
<g id="a_Node000007"><a xlink:href="$classfcmaes_1_1advretry_1_1_store.html#a97e407315b2e0c802b9d5b4414f3f91b" xlink:title="Retrieves a segment of the xs array corresponding to the provided pid.">
<polygon fill="white" stroke="#666666" points="501.38,-58 362.38,-58 362.38,-38 501.38,-38 501.38,-58"/>
<text text-anchor="middle" x="431.88" y="-44.5" font-family="Helvetica,sans-Serif" font-size="10.00">fcmaes.advretry.Store.get_x</text>
</a>
</g>
</g>
<!-- Node5&#45;&gt;Node7 -->
<g id="edge22_Node000005_Node000007" class="edge">
<title>Node5&#45;&gt;Node7</title>
<g id="a_edge22_Node000005_Node000007"><a xlink:title=" ">
<path fill="none" stroke="#63b8ff" d="M303.71,-75.52C324.63,-70.99 349.31,-65.65 371.34,-60.88"/>
<polygon fill="#63b8ff" stroke="#63b8ff" points="372.06,-64.31 381.1,-58.77 370.58,-57.46 372.06,-64.31"/>
</a>
</g>
</g>
<!-- Node8 -->
<g id="Node000008" class="node">
<title>Node8</title>
<g id="a_Node000008"><a xlink:href="$classfcmaes_1_1advretry_1_1_store.html#a907617cde0def7276f1f609d7690335f" xlink:title="Fetches a value for a given ID from a dictionary of float values.">
<polygon fill="white" stroke="#666666" points="501.38,-20 362.38,-20 362.38,0 501.38,0 501.38,-20"/>
<text text-anchor="middle" x="431.88" y="-6.5" font-family="Helvetica,sans-Serif" font-size="10.00">fcmaes.advretry.Store.get_y</text>
</a>
</g>
</g>
<!-- Node5&#45;&gt;Node8 -->
<g id="edge23_Node000005_Node000008" class="edge">
<title>Node5&#45;&gt;Node8</title>
<g id="a_edge23_Node000005_Node000008"><a xlink:title=" ">
<path fill="none" stroke="#63b8ff" d="M270.65,-75.55C289.87,-62.93 324.11,-41.8 356,-29 360.88,-27.04 366.02,-25.24 371.22,-23.59"/>
<polygon fill="#63b8ff" stroke="#63b8ff" points="371.89,-27.04 380.49,-20.84 369.91,-20.33 371.89,-27.04"/>
</a>
</g>
</g>
</g>
</svg>
