<?xml version="1.0" encoding="UTF-8" standalone="no"?>
<!DOCTYPE svg PUBLIC "-//W3C//DTD SVG 1.1//EN"
 "http://www.w3.org/Graphics/SVG/1.1/DTD/svg11.dtd">
<!-- Generated by graphviz version 12.2.1 (20241206.2353)
 -->
<!-- Title: CBiteRnd::CBiteRnd Pages: 1 -->
<svg width="367pt" height="28pt"
 viewBox="0.00 0.00 366.50 28.00" xmlns="http://www.w3.org/2000/svg" xmlns:xlink="http://www.w3.org/1999/xlink">
<g id="graph0" class="graph" transform="scale(1 1) rotate(0) translate(4 24)">
<title>CBiteRnd::CBiteRnd</title>
<!-- Node1 -->
<g id="Node000001" class="node">
<title>Node1</title>
<g id="a_Node000001"><a xlink:title=" ">
<polygon fill="#999999" stroke="#666666" points="107.5,-20 0,-20 0,0 107.5,0 107.5,-20"/>
<text text-anchor="middle" x="53.75" y="-6.5" font-family="Helvetica,sans-Serif" font-size="10.00">CBiteRnd::CBiteRnd</text>
</a>
</g>
</g>
<!-- Node2 -->
<g id="Node000002" class="node">
<title>Node2</title>
<g id="a_Node000002"><a xlink:href="$class_c_bite_rnd.html#a568e9d76b0dcac410bdb0292d1aef2e0" xlink:title=" ">
<polygon fill="white" stroke="#666666" points="221,-20 143.5,-20 143.5,0 221,0 221,-20"/>
<text text-anchor="middle" x="182.25" y="-6.5" font-family="Helvetica,sans-Serif" font-size="10.00">CBiteRnd::init</text>
</a>
</g>
</g>
<!-- Node1&#45;&gt;Node2 -->
<g id="edge5_Node000001_Node000002" class="edge">
<title>Node1&#45;&gt;Node2</title>
<g id="a_edge5_Node000001_Node000002"><a xlink:title=" ">
<path fill="none" stroke="#63b8ff" d="M107.66,-10C115.67,-10 123.9,-10 131.83,-10"/>
<polygon fill="#63b8ff" stroke="#63b8ff" points="131.65,-13.5 141.65,-10 131.65,-6.5 131.65,-13.5"/>
</a>
</g>
</g>
<!-- Node3 -->
<g id="Node000003" class="node">
<title>Node3</title>
<g id="a_Node000003"><a xlink:href="$class_c_bite_rnd.html#ae1167f8ecac85f268ced4bc1d2fa953b" xlink:title=" ">
<polygon fill="white" stroke="#666666" points="358.5,-20 257,-20 257,0 358.5,0 358.5,-20"/>
<text text-anchor="middle" x="307.75" y="-6.5" font-family="Helvetica,sans-Serif" font-size="10.00">CBiteRnd::advance</text>
</a>
</g>
</g>
<!-- Node2&#45;&gt;Node3 -->
<g id="edge6_Node000002_Node000003" class="edge">
<title>Node2&#45;&gt;Node3</title>
<g id="a_edge6_Node000002_Node000003"><a xlink:title=" ">
<path fill="none" stroke="#63b8ff" d="M221.31,-10C228.92,-10 237.1,-10 245.27,-10"/>
<polygon fill="#63b8ff" stroke="#63b8ff" points="245.24,-13.5 255.24,-10 245.24,-6.5 245.24,-13.5"/>
</a>
</g>
</g>
</g>
</svg>
