<?xml version="1.0" encoding="UTF-8" standalone="no"?>
<!DOCTYPE svg PUBLIC "-//W3C//DTD SVG 1.1//EN"
 "http://www.w3.org/Graphics/SVG/1.1/DTD/svg11.dtd">
<!-- Generated by graphviz version 12.2.1 (20241206.2353)
 -->
<!-- Title: fcmaes.mapelites.Archive.set Pages: 1 -->
<svg width="758pt" height="230pt"
 viewBox="0.00 0.00 758.25 230.00" xmlns="http://www.w3.org/2000/svg" xmlns:xlink="http://www.w3.org/1999/xlink">
<g id="graph0" class="graph" transform="scale(1 1) rotate(0) translate(4 226)">
<title>fcmaes.mapelites.Archive.set</title>
<!-- Node1 -->
<g id="Node000001" class="node">
<title>Node1</title>
<g id="a_Node000001"><a xlink:title="Updates statistical data and modifies the internal data store with the given values if certain condit...">
<polygon fill="#999999" stroke="#666666" points="145.75,-146 0,-146 0,-126 145.75,-126 145.75,-146"/>
<text text-anchor="middle" x="72.88" y="-132.5" font-family="Helvetica,sans-Serif" font-size="10.00">fcmaes.mapelites.Archive.set</text>
</a>
</g>
</g>
<!-- Node2 -->
<g id="Node000002" class="node">
<title>Node2</title>
<g id="a_Node000002"><a xlink:href="$classfcmaes_1_1advretry_1_1_store.html#a907617cde0def7276f1f609d7690335f" xlink:title="Fetches a value for a given ID from a dictionary of float values.">
<polygon fill="white" stroke="#666666" points="332,-222 193,-222 193,-202 332,-202 332,-222"/>
<text text-anchor="middle" x="262.5" y="-208.5" font-family="Helvetica,sans-Serif" font-size="10.00">fcmaes.advretry.Store.get_y</text>
</a>
</g>
</g>
<!-- Node1&#45;&gt;Node2 -->
<g id="edge19_Node000001_Node000002" class="edge">
<title>Node1&#45;&gt;Node2</title>
<g id="a_edge19_Node000001_Node000002"><a xlink:title=" ">
<path fill="none" stroke="#63b8ff" d="M90.44,-146.46C111.11,-159.09 147.85,-180.24 181.75,-193 187.11,-195.02 192.75,-196.87 198.46,-198.56"/>
<polygon fill="#63b8ff" stroke="#63b8ff" points="197.42,-201.9 207.99,-201.2 199.29,-195.16 197.42,-201.9"/>
</a>
</g>
</g>
<!-- Node3 -->
<g id="Node000003" class="node">
<title>Node3</title>
<g id="a_Node000003"><a xlink:href="$classfcmaes_1_1mapelites_1_1_archive.html#ac9390a3bfd798bdb09d79476ed6c6584" xlink:title="Retrieves the y&#45;coordinate value at a given index from the list of y&#45;values.">
<polygon fill="white" stroke="#666666" points="340.62,-184 184.38,-184 184.38,-164 340.62,-164 340.62,-184"/>
<text text-anchor="middle" x="262.5" y="-170.5" font-family="Helvetica,sans-Serif" font-size="10.00">fcmaes.mapelites.Archive.get_y</text>
</a>
</g>
</g>
<!-- Node1&#45;&gt;Node3 -->
<g id="edge20_Node000001_Node000003" class="edge">
<title>Node1&#45;&gt;Node3</title>
<g id="a_edge20_Node000001_Node000003"><a xlink:title=" ">
<path fill="none" stroke="#63b8ff" d="M125.64,-146.48C148.3,-151.07 175.09,-156.5 198.86,-161.31"/>
<polygon fill="#63b8ff" stroke="#63b8ff" points="197.92,-164.69 208.42,-163.25 199.31,-157.83 197.92,-164.69"/>
</a>
</g>
</g>
<!-- Node4 -->
<g id="Node000004" class="node">
<title>Node4</title>
<g id="a_Node000004"><a xlink:href="$classfcmaes_1_1advretry_1_1_store.html#a12d96e54629b449293d2aabf5542ddc1" xlink:title="Sets the value of y for a given pid within the &#39;ys&#39; mapping.">
<polygon fill="white" stroke="#666666" points="332,-146 193,-146 193,-126 332,-126 332,-146"/>
<text text-anchor="middle" x="262.5" y="-132.5" font-family="Helvetica,sans-Serif" font-size="10.00">fcmaes.advretry.Store.set_y</text>
</a>
</g>
</g>
<!-- Node1&#45;&gt;Node4 -->
<g id="edge21_Node000001_Node000004" class="edge">
<title>Node1&#45;&gt;Node4</title>
<g id="a_edge21_Node000001_Node000004"><a xlink:title=" ">
<path fill="none" stroke="#63b8ff" d="M146.15,-136C157.61,-136 169.52,-136 181.15,-136"/>
<polygon fill="#63b8ff" stroke="#63b8ff" points="181.14,-139.5 191.14,-136 181.14,-132.5 181.14,-139.5"/>
</a>
</g>
</g>
<!-- Node5 -->
<g id="Node000005" class="node">
<title>Node5</title>
<g id="a_Node000005"><a xlink:href="$classfcmaes_1_1mapelites_1_1_archive.html#afc25798d5b07a1addd68fc50cec1f3e5" xlink:title="Updates the ys attribute at the specified index with a new value.">
<polygon fill="white" stroke="#666666" points="340.62,-108 184.38,-108 184.38,-88 340.62,-88 340.62,-108"/>
<text text-anchor="middle" x="262.5" y="-94.5" font-family="Helvetica,sans-Serif" font-size="10.00">fcmaes.mapelites.Archive.set_y</text>
</a>
</g>
</g>
<!-- Node1&#45;&gt;Node5 -->
<g id="edge22_Node000001_Node000005" class="edge">
<title>Node1&#45;&gt;Node5</title>
<g id="a_edge22_Node000001_Node000005"><a xlink:title=" ">
<path fill="none" stroke="#63b8ff" d="M125.64,-125.52C148.3,-120.93 175.09,-115.5 198.86,-110.69"/>
<polygon fill="#63b8ff" stroke="#63b8ff" points="199.31,-114.17 208.42,-108.75 197.92,-107.31 199.31,-114.17"/>
</a>
</g>
</g>
<!-- Node6 -->
<g id="Node000006" class="node">
<title>Node6</title>
<g id="a_Node000006"><a xlink:href="$classfcmaes_1_1mapelites_1_1_archive.html#a9aaaf43220a388cc81d0750b7849dbdc" xlink:title="Updates the statistical information for the given index and array input.">
<polygon fill="white" stroke="#666666" points="343.25,-70 181.75,-70 181.75,-38 343.25,-38 343.25,-70"/>
<text text-anchor="start" x="189.75" y="-56.5" font-family="Helvetica,sans-Serif" font-size="10.00">fcmaes.mapelites.Archive.update</text>
<text text-anchor="middle" x="262.5" y="-44.5" font-family="Helvetica,sans-Serif" font-size="10.00">_stats</text>
</a>
</g>
</g>
<!-- Node1&#45;&gt;Node6 -->
<g id="edge23_Node000001_Node000006" class="edge">
<title>Node1&#45;&gt;Node6</title>
<g id="a_edge23_Node000001_Node000006"><a xlink:title=" ">
<path fill="none" stroke="#63b8ff" d="M90.96,-125.71C111.85,-113.44 148.51,-92.85 181.75,-79 185.78,-77.32 189.96,-75.69 194.21,-74.12"/>
<polygon fill="#63b8ff" stroke="#63b8ff" points="195.15,-77.5 203.41,-70.86 192.81,-70.9 195.15,-77.5"/>
</a>
</g>
</g>
<!-- Node7 -->
<g id="Node000007" class="node">
<title>Node7</title>
<g id="a_Node000007"><a xlink:href="$classfcmaes_1_1mapelites_1_1_archive.html#a4a9c0d92560064a154b7bbcf1d537480" xlink:title="Retrieves a specific statistical value for given indices i and j.">
<polygon fill="white" stroke="#666666" points="750.25,-86 582.75,-86 582.75,-66 750.25,-66 750.25,-86"/>
<text text-anchor="middle" x="666.5" y="-72.5" font-family="Helvetica,sans-Serif" font-size="10.00">fcmaes.mapelites.Archive.get_stat</text>
</a>
</g>
</g>
<!-- Node6&#45;&gt;Node7 -->
<g id="edge24_Node000006_Node000007" class="edge">
<title>Node6&#45;&gt;Node7</title>
<g id="a_edge24_Node000006_Node000007"><a xlink:title=" ">
<path fill="none" stroke="#63b8ff" d="M328,-70.47C344.59,-74 362.49,-77.21 379.25,-79 442.94,-85.8 515.04,-84.99 570.95,-82.51"/>
<polygon fill="#63b8ff" stroke="#63b8ff" points="570.93,-86.02 580.76,-82.05 570.6,-79.03 570.93,-86.02"/>
</a>
</g>
</g>
<!-- Node8 -->
<g id="Node000008" class="node">
<title>Node8</title>
<g id="a_Node000008"><a xlink:href="$classfcmaes_1_1mapelites_1_1_archive.html#a240c31cf1f2a4a8f2fe6bef3ece80206" xlink:title="Calculates and retrieves the mean value for a specific index of data.">
<polygon fill="white" stroke="#666666" points="535.88,-70 390.12,-70 390.12,-38 535.88,-38 535.88,-70"/>
<text text-anchor="start" x="398.12" y="-56.5" font-family="Helvetica,sans-Serif" font-size="10.00">fcmaes.mapelites.Archive.get</text>
<text text-anchor="middle" x="463" y="-44.5" font-family="Helvetica,sans-Serif" font-size="10.00">_x_mean</text>
</a>
</g>
</g>
<!-- Node6&#45;&gt;Node8 -->
<g id="edge25_Node000006_Node000008" class="edge">
<title>Node6&#45;&gt;Node8</title>
<g id="a_edge25_Node000006_Node000008"><a xlink:title=" ">
<path fill="none" stroke="#63b8ff" d="M343.67,-54C355.12,-54 366.94,-54 378.46,-54"/>
<polygon fill="#63b8ff" stroke="#63b8ff" points="378.35,-57.5 388.35,-54 378.35,-50.5 378.35,-57.5"/>
</a>
</g>
</g>
<!-- Node9 -->
<g id="Node000009" class="node">
<title>Node9</title>
<g id="a_Node000009"><a xlink:href="$classfcmaes_1_1mapelites_1_1_archive.html#a574aed6e61fc20fb94b479cb8fd5fc55" xlink:title="Sets a specific portion of the stats array based on the given indices and data.">
<polygon fill="white" stroke="#666666" points="546.75,-20 379.25,-20 379.25,0 546.75,0 546.75,-20"/>
<text text-anchor="middle" x="463" y="-6.5" font-family="Helvetica,sans-Serif" font-size="10.00">fcmaes.mapelites.Archive.set_stat</text>
</a>
</g>
</g>
<!-- Node6&#45;&gt;Node9 -->
<g id="edge27_Node000006_Node000009" class="edge">
<title>Node6&#45;&gt;Node9</title>
<g id="a_edge27_Node000006_Node000009"><a xlink:title=" ">
<path fill="none" stroke="#63b8ff" d="M337.7,-37.55C359.44,-32.73 382.9,-27.53 403.51,-22.96"/>
<polygon fill="#63b8ff" stroke="#63b8ff" points="404.16,-26.41 413.17,-20.82 402.65,-19.57 404.16,-26.41"/>
</a>
</g>
</g>
<!-- Node8&#45;&gt;Node7 -->
<g id="edge26_Node000008_Node000007" class="edge">
<title>Node8&#45;&gt;Node7</title>
<g id="a_edge26_Node000008_Node000007"><a xlink:title=" ">
<path fill="none" stroke="#63b8ff" d="M536.18,-61.88C547.56,-63.12 559.47,-64.42 571.26,-65.71"/>
<polygon fill="#63b8ff" stroke="#63b8ff" points="570.69,-69.17 581.01,-66.77 571.45,-62.21 570.69,-69.17"/>
</a>
</g>
</g>
</g>
</svg>
