<?xml version="1.0" encoding="UTF-8" standalone="no"?>
<!DOCTYPE svg PUBLIC "-//W3C//DTD SVG 1.1//EN"
 "http://www.w3.org/Graphics/SVG/1.1/DTD/svg11.dtd">
<!-- Generated by graphviz version 12.2.1 (20241206.2353)
 -->
<!-- Title: CBiteOpt::updateParPop Pages: 1 -->
<svg width="287pt" height="90pt"
 viewBox="0.00 0.00 286.75 90.00" xmlns="http://www.w3.org/2000/svg" xmlns:xlink="http://www.w3.org/1999/xlink">
<g id="graph0" class="graph" transform="scale(1 1) rotate(0) translate(4 86)">
<title>CBiteOpt::updateParPop</title>
<!-- Node1 -->
<g id="Node000001" class="node">
<title>Node1</title>
<g id="a_Node000001"><a xlink:title=" ">
<polygon fill="#999999" stroke="#666666" points="124,-51 0,-51 0,-31 124,-31 124,-51"/>
<text text-anchor="middle" x="62" y="-37.5" font-family="Helvetica,sans-Serif" font-size="10.00">CBiteOpt::updateParPop</text>
</a>
</g>
</g>
<!-- Node2 -->
<g id="Node000002" class="node">
<title>Node2</title>
<g id="a_Node000002"><a xlink:href="$class_c_bite_par_pops.html#afa8a97732cea882b664c2d0fbedf2289" xlink:title=" ">
<polygon fill="white" stroke="#666666" points="278.75,-82 160,-82 160,-50 278.75,-50 278.75,-82"/>
<text text-anchor="start" x="168" y="-68.5" font-family="Helvetica,sans-Serif" font-size="10.00">CBiteParPops&lt; int64</text>
<text text-anchor="middle" x="219.38" y="-56.5" font-family="Helvetica,sans-Serif" font-size="10.00">_t &gt;::getMinDistParPop</text>
</a>
</g>
</g>
<!-- Node1&#45;&gt;Node2 -->
<g id="edge5_Node000001_Node000002" class="edge">
<title>Node1&#45;&gt;Node2</title>
<g id="a_edge5_Node000001_Node000002"><a xlink:title=" ">
<path fill="none" stroke="#63b8ff" d="M124.41,-50.88C132.31,-52.15 140.44,-53.46 148.46,-54.75"/>
<polygon fill="#63b8ff" stroke="#63b8ff" points="147.77,-58.18 158.2,-56.32 148.88,-51.27 147.77,-58.18"/>
</a>
</g>
</g>
<!-- Node3 -->
<g id="Node000003" class="node">
<title>Node3</title>
<g id="a_Node000003"><a xlink:href="$class_c_bite_pop.html#aad999ddc8a2ed72ffaee0db7732c9f76" xlink:title=" ">
<polygon fill="white" stroke="#666666" points="272,-32 166.75,-32 166.75,0 272,0 272,-32"/>
<text text-anchor="start" x="174.75" y="-18.5" font-family="Helvetica,sans-Serif" font-size="10.00">CBitePop&lt; int64_t &gt;</text>
<text text-anchor="middle" x="219.38" y="-6.5" font-family="Helvetica,sans-Serif" font-size="10.00">::updatePop</text>
</a>
</g>
</g>
<!-- Node1&#45;&gt;Node3 -->
<g id="edge6_Node000001_Node000003" class="edge">
<title>Node1&#45;&gt;Node3</title>
<g id="a_edge6_Node000001_Node000003"><a xlink:title=" ">
<path fill="none" stroke="#63b8ff" d="M124.41,-31.12C134.52,-29.49 145.01,-27.8 155.16,-26.17"/>
<polygon fill="#63b8ff" stroke="#63b8ff" points="155.62,-29.64 164.94,-24.6 154.51,-22.73 155.62,-29.64"/>
</a>
</g>
</g>
</g>
</svg>
