<?xml version="1.0" encoding="UTF-8" standalone="no"?>
<!DOCTYPE svg PUBLIC "-//W3C//DTD SVG 1.1//EN"
 "http://www.w3.org/Graphics/SVG/1.1/DTD/svg11.dtd">
<!-- Generated by graphviz version 12.2.1 (20241206.2353)
 -->
<!-- Title: fcmaes.advretry.Store.get_data Pages: 1 -->
<svg width="516pt" height="166pt"
 viewBox="0.00 0.00 515.75 166.00" xmlns="http://www.w3.org/2000/svg" xmlns:xlink="http://www.w3.org/1999/xlink">
<g id="graph0" class="graph" transform="scale(1 1) rotate(0) translate(4 162)">
<title>fcmaes.advretry.Store.get_data</title>
<!-- Node1 -->
<g id="Node000001" class="node">
<title>Node1</title>
<g id="a_Node000001"><a xlink:title="Retrieves and aggregates data from various attributes and methods.">
<polygon fill="#999999" stroke="#666666" points="152.5,-86 0,-86 0,-66 152.5,-66 152.5,-86"/>
<text text-anchor="middle" x="76.25" y="-72.5" font-family="Helvetica,sans-Serif" font-size="10.00">fcmaes.advretry.Store.get_data</text>
</a>
</g>
</g>
<!-- Node2 -->
<g id="Node000002" class="node">
<title>Node2</title>
<g id="a_Node000002"><a xlink:href="$classfcmaes_1_1advretry_1_1_store.html#a95e2b65e516214df91625c67e4ebe558" xlink:title="Returns a copy of the best solutions stored in the internal state.">
<polygon fill="white" stroke="#666666" points="324.88,-158 196.38,-158 196.38,-126 324.88,-126 324.88,-158"/>
<text text-anchor="start" x="204.38" y="-144.5" font-family="Helvetica,sans-Serif" font-size="10.00">fcmaes.advretry.Store.get</text>
<text text-anchor="middle" x="260.62" y="-132.5" font-family="Helvetica,sans-Serif" font-size="10.00">_x_best</text>
</a>
</g>
</g>
<!-- Node1&#45;&gt;Node2 -->
<g id="edge11_Node000001_Node000002" class="edge">
<title>Node1&#45;&gt;Node2</title>
<g id="a_edge11_Node000001_Node000002"><a xlink:title=" ">
<path fill="none" stroke="#63b8ff" d="M105.1,-86.39C127.57,-94.75 160.03,-106.75 188.5,-117 192.86,-118.57 197.38,-120.19 201.93,-121.8"/>
<polygon fill="#63b8ff" stroke="#63b8ff" points="200.51,-125.01 211.1,-125.05 202.85,-118.42 200.51,-125.01"/>
</a>
</g>
</g>
<!-- Node3 -->
<g id="Node000003" class="node">
<title>Node3</title>
<g id="a_Node000003"><a xlink:href="$classfcmaes_1_1advretry_1_1_store.html#a2df2e37a5663c3e12c22c4b97f2549a2" xlink:title="Builds and returns an array of x values stored in the object.">
<polygon fill="white" stroke="#666666" points="332.75,-108 188.5,-108 188.5,-88 332.75,-88 332.75,-108"/>
<text text-anchor="middle" x="260.62" y="-94.5" font-family="Helvetica,sans-Serif" font-size="10.00">fcmaes.advretry.Store.get_xs</text>
</a>
</g>
</g>
<!-- Node1&#45;&gt;Node3 -->
<g id="edge12_Node000001_Node000003" class="edge">
<title>Node1&#45;&gt;Node3</title>
<g id="a_edge12_Node000001_Node000003"><a xlink:title=" ">
<path fill="none" stroke="#63b8ff" d="M152.75,-85.11C160.74,-86.07 168.9,-87.06 176.96,-88.03"/>
<polygon fill="#63b8ff" stroke="#63b8ff" points="176.44,-91.49 186.78,-89.21 177.27,-84.54 176.44,-91.49"/>
</a>
</g>
</g>
<!-- Node5 -->
<g id="Node000005" class="node">
<title>Node5</title>
<g id="a_Node000005"><a xlink:href="$classfcmaes_1_1advretry_1_1_store.html#a801f488c7741c549ab3212f5ce52803a" xlink:title="Returns the best value of y stored in the best_y attribute.">
<polygon fill="white" stroke="#666666" points="324.88,-70 196.38,-70 196.38,-38 324.88,-38 324.88,-70"/>
<text text-anchor="start" x="204.38" y="-56.5" font-family="Helvetica,sans-Serif" font-size="10.00">fcmaes.advretry.Store.get</text>
<text text-anchor="middle" x="260.62" y="-44.5" font-family="Helvetica,sans-Serif" font-size="10.00">_y_best</text>
</a>
</g>
</g>
<!-- Node1&#45;&gt;Node5 -->
<g id="edge14_Node000001_Node000005" class="edge">
<title>Node1&#45;&gt;Node5</title>
<g id="a_edge14_Node000001_Node000005"><a xlink:title=" ">
<path fill="none" stroke="#63b8ff" d="M152.75,-66.89C163.32,-65.62 174.19,-64.31 184.76,-63.03"/>
<polygon fill="#63b8ff" stroke="#63b8ff" points="185.07,-66.52 194.58,-61.85 184.23,-59.57 185.07,-66.52"/>
</a>
</g>
</g>
<!-- Node6 -->
<g id="Node000006" class="node">
<title>Node6</title>
<g id="a_Node000006"><a xlink:href="$classfcmaes_1_1advretry_1_1_store.html#a3cc073975313c4893de761cfc9771d77" xlink:title="Gets the stored y&#45;values up to the specified count.">
<polygon fill="white" stroke="#666666" points="332.75,-20 188.5,-20 188.5,0 332.75,0 332.75,-20"/>
<text text-anchor="middle" x="260.62" y="-6.5" font-family="Helvetica,sans-Serif" font-size="10.00">fcmaes.advretry.Store.get_ys</text>
</a>
</g>
</g>
<!-- Node1&#45;&gt;Node6 -->
<g id="edge15_Node000001_Node000006" class="edge">
<title>Node1&#45;&gt;Node6</title>
<g id="a_edge15_Node000001_Node000006"><a xlink:title=" ">
<path fill="none" stroke="#63b8ff" d="M99.48,-65.53C121.69,-55.33 156.97,-39.81 188.5,-29 194.17,-27.06 200.14,-25.19 206.13,-23.43"/>
<polygon fill="#63b8ff" stroke="#63b8ff" points="206.71,-26.9 215.38,-20.81 204.8,-20.17 206.71,-26.9"/>
</a>
</g>
</g>
<!-- Node4 -->
<g id="Node000004" class="node">
<title>Node4</title>
<g id="a_Node000004"><a xlink:href="$classfcmaes_1_1advretry_1_1_store.html#a97e407315b2e0c802b9d5b4414f3f91b" xlink:title="Retrieves a segment of the xs array corresponding to the provided pid.">
<polygon fill="white" stroke="#666666" points="507.75,-108 368.75,-108 368.75,-88 507.75,-88 507.75,-108"/>
<text text-anchor="middle" x="438.25" y="-94.5" font-family="Helvetica,sans-Serif" font-size="10.00">fcmaes.advretry.Store.get_x</text>
</a>
</g>
</g>
<!-- Node3&#45;&gt;Node4 -->
<g id="edge13_Node000003_Node000004" class="edge">
<title>Node3&#45;&gt;Node4</title>
<g id="a_edge13_Node000003_Node000004"><a xlink:title=" ">
<path fill="none" stroke="#63b8ff" d="M333.06,-98C341,-98 349.12,-98 357.16,-98"/>
<polygon fill="#63b8ff" stroke="#63b8ff" points="356.92,-101.5 366.92,-98 356.92,-94.5 356.92,-101.5"/>
</a>
</g>
</g>
</g>
</svg>
