<?xml version="1.0" encoding="UTF-8" standalone="no"?>
<!DOCTYPE svg PUBLIC "-//W3C//DTD SVG 1.1//EN"
 "http://www.w3.org/Graphics/SVG/1.1/DTD/svg11.dtd">
<!-- Generated by graphviz version 12.2.1 (20241206.2353)
 -->
<!-- Title: fcmaes.evaluator.callback_so Pages: 1 -->
<svg width="146pt" height="184pt"
 viewBox="0.00 0.00 145.75 184.00" xmlns="http://www.w3.org/2000/svg" xmlns:xlink="http://www.w3.org/1999/xlink">
<g id="graph0" class="graph" transform="scale(1 1) rotate(0) translate(4 180)">
<title>fcmaes.evaluator.callback_so</title>
<!-- Node1 -->
<g id="Node000001" class="node">
<title>Node1</title>
<g id="a_Node000001"><a xlink:title="Handles callback functionality for single&#45;objective optimization purposes.">
<polygon fill="#999999" stroke="none" points="137.75,-176 0,-176 0,0 137.75,0 137.75,-176"/>
<text text-anchor="start" x="4" y="-162.5" font-family="Helvetica,sans-Serif" font-size="10.00">fcmaes.evaluator.callback_so</text>
<text text-anchor="start" x="5.81" y="-146.5" font-family="Helvetica,sans-Serif" font-size="10.00">+</text>
<text text-anchor="start" x="17.62" y="-146.5" font-family="Helvetica,sans-Serif" font-size="10.00">fun</text>
<text text-anchor="start" x="5.81" y="-130.5" font-family="Helvetica,sans-Serif" font-size="10.00">+</text>
<text text-anchor="start" x="17.62" y="-130.5" font-family="Helvetica,sans-Serif" font-size="10.00">dim</text>
<text text-anchor="start" x="5.81" y="-114.5" font-family="Helvetica,sans-Serif" font-size="10.00">+</text>
<text text-anchor="start" x="17.62" y="-114.5" font-family="Helvetica,sans-Serif" font-size="10.00">int nobj</text>
<text text-anchor="start" x="5.81" y="-98.5" font-family="Helvetica,sans-Serif" font-size="10.00">+</text>
<text text-anchor="start" x="17.62" y="-98.5" font-family="Helvetica,sans-Serif" font-size="10.00">is_terminate</text>
<text text-anchor="start" x="5.81" y="-82.5" font-family="Helvetica,sans-Serif" font-size="10.00">+</text>
<text text-anchor="start" x="17.62" y="-82.5" font-family="Helvetica,sans-Serif" font-size="10.00">__init__(self, Callable</text>
<text text-anchor="start" x="17.62" y="-70.5" font-family="Helvetica,sans-Serif" font-size="10.00">[[ArrayLike], float] fun,</text>
<text text-anchor="start" x="17.62" y="-58.5" font-family="Helvetica,sans-Serif" font-size="10.00"> int dim, Optional[Callable</text>
<text text-anchor="start" x="17.62" y="-46.5" font-family="Helvetica,sans-Serif" font-size="10.00">[[ArrayLike, float], bool]]</text>
<text text-anchor="start" x="17.62" y="-34.5" font-family="Helvetica,sans-Serif" font-size="10.00"> is_terminate=None)</text>
<text text-anchor="start" x="5.81" y="-18.5" font-family="Helvetica,sans-Serif" font-size="10.00">+</text>
<text text-anchor="start" x="17.62" y="-18.5" font-family="Helvetica,sans-Serif" font-size="10.00">__call__(self, dim,</text>
<text text-anchor="start" x="17.62" y="-6.5" font-family="Helvetica,sans-Serif" font-size="10.00"> x, y)</text>
<polygon fill="#666666" stroke="#666666" points="0,-158 0,-158 137.75,-158 137.75,-158 0,-158"/>
<polygon fill="#666666" stroke="#666666" points="0,-94 0,-94 15.62,-94 15.62,-94 0,-94"/>
<polygon fill="#666666" stroke="#666666" points="15.62,-94 15.62,-94 137.75,-94 137.75,-94 15.62,-94"/>
<polygon fill="none" stroke="#666666" points="0,0 0,-176 137.75,-176 137.75,0 0,0"/>
</a>
</g>
</g>
</g>
</svg>
