<?xml version="1.0" encoding="UTF-8" standalone="no"?>
<!DOCTYPE svg PUBLIC "-//W3C//DTD SVG 1.1//EN"
 "http://www.w3.org/Graphics/SVG/1.1/DTD/svg11.dtd">
<!-- Generated by graphviz version 12.2.1 (20241206.2353)
 -->
<!-- Title: CBitePop::getParamsOrdered Pages: 1 -->
<svg width="450pt" height="142pt"
 viewBox="0.00 0.00 449.75 142.00" xmlns="http://www.w3.org/2000/svg" xmlns:xlink="http://www.w3.org/1999/xlink">
<g id="graph0" class="graph" transform="scale(1 1) rotate(0) translate(4 138)">
<title>CBitePop::getParamsOrdered</title>
<!-- Node1 -->
<g id="Node000001" class="node">
<title>Node1</title>
<g id="a_Node000001"><a xlink:title=" ">
<polygon fill="#999999" stroke="#666666" points="441.75,-77 296,-77 296,-57 441.75,-57 441.75,-77"/>
<text text-anchor="middle" x="368.88" y="-63.5" font-family="Helvetica,sans-Serif" font-size="10.00">CBitePop::getParamsOrdered</text>
</a>
</g>
</g>
<!-- Node2 -->
<g id="Node000002" class="node">
<title>Node2</title>
<g id="a_Node000002"><a xlink:href="$class_c_bite_opt.html#aaf2f5bc8a214a95532426c9a9b38fdb8" xlink:title=" ">
<polygon fill="white" stroke="#666666" points="257.38,-134 137.88,-134 137.88,-114 257.38,-114 257.38,-134"/>
<text text-anchor="middle" x="197.62" y="-120.5" font-family="Helvetica,sans-Serif" font-size="10.00">CBiteOpt::generateSol1</text>
</a>
</g>
</g>
<!-- Node1&#45;&gt;Node2 -->
<g id="edge17_Node000001_Node000002" class="edge">
<title>Node1&#45;&gt;Node2</title>
<g id="a_edge17_Node000001_Node000002"><a xlink:title=" ">
<path fill="none" stroke="#63b8ff" d="M328.37,-81.32C308.01,-88.6 282.75,-97.48 260,-105 251.32,-107.87 241.9,-110.85 233.11,-113.58"/>
<polygon fill="#63b8ff" stroke="#63b8ff" points="329.48,-84.65 337.71,-77.97 327.11,-78.06 329.48,-84.65"/>
</a>
</g>
</g>
<!-- Node4 -->
<g id="Node000004" class="node">
<title>Node4</title>
<g id="a_Node000004"><a xlink:href="$class_c_bite_opt.html#abd6c435c82a97476332139663d9a1c82" xlink:title=" ">
<polygon fill="white" stroke="#666666" points="260,-96 135.25,-96 135.25,-76 260,-76 260,-96"/>
<text text-anchor="middle" x="197.62" y="-82.5" font-family="Helvetica,sans-Serif" font-size="10.00">CBiteOpt::generateSol2b</text>
</a>
</g>
</g>
<!-- Node1&#45;&gt;Node4 -->
<g id="edge19_Node000001_Node000004" class="edge">
<title>Node1&#45;&gt;Node4</title>
<g id="a_edge19_Node000001_Node000004"><a xlink:title=" ">
<path fill="none" stroke="#63b8ff" d="M284.23,-76.39C276.15,-77.3 268.06,-78.2 260.26,-79.08"/>
<polygon fill="#63b8ff" stroke="#63b8ff" points="284.56,-79.88 294.1,-75.28 283.77,-72.92 284.56,-79.88"/>
</a>
</g>
</g>
<!-- Node5 -->
<g id="Node000005" class="node">
<title>Node5</title>
<g id="a_Node000005"><a xlink:href="$class_c_bite_opt.html#a01e7f5a94a2ae837844f8c60ddf21db6" xlink:title=" ">
<polygon fill="white" stroke="#666666" points="257.38,-58 137.88,-58 137.88,-38 257.38,-38 257.38,-58"/>
<text text-anchor="middle" x="197.62" y="-44.5" font-family="Helvetica,sans-Serif" font-size="10.00">CBiteOpt::generateSol5</text>
</a>
</g>
</g>
<!-- Node1&#45;&gt;Node5 -->
<g id="edge21_Node000001_Node000005" class="edge">
<title>Node1&#45;&gt;Node5</title>
<g id="a_edge21_Node000001_Node000005"><a xlink:title=" ">
<path fill="none" stroke="#63b8ff" d="M284.25,-57.61C275.26,-56.6 266.25,-55.59 257.64,-54.62"/>
<polygon fill="#63b8ff" stroke="#63b8ff" points="283.77,-61.08 294.1,-58.72 284.56,-54.12 283.77,-61.08"/>
</a>
</g>
</g>
<!-- Node6 -->
<g id="Node000006" class="node">
<title>Node6</title>
<g id="a_Node000006"><a xlink:href="$class_c_bite_opt.html#aac1bd4dd832e20880872b94b07773946" xlink:title=" ">
<polygon fill="white" stroke="#666666" points="260,-20 135.25,-20 135.25,0 260,0 260,-20"/>
<text text-anchor="middle" x="197.62" y="-6.5" font-family="Helvetica,sans-Serif" font-size="10.00">CBiteOpt::generateSol5b</text>
</a>
</g>
</g>
<!-- Node1&#45;&gt;Node6 -->
<g id="edge23_Node000001_Node000006" class="edge">
<title>Node1&#45;&gt;Node6</title>
<g id="a_edge23_Node000001_Node000006"><a xlink:title=" ">
<path fill="none" stroke="#63b8ff" d="M328.37,-52.68C308.01,-45.4 282.75,-36.52 260,-29 251.32,-26.13 241.9,-23.15 233.11,-20.42"/>
<polygon fill="#63b8ff" stroke="#63b8ff" points="327.11,-55.94 337.71,-56.03 329.48,-49.35 327.11,-55.94"/>
</a>
</g>
</g>
<!-- Node3 -->
<g id="Node000003" class="node">
<title>Node3</title>
<g id="a_Node000003"><a xlink:href="$class_c_bite_opt.html#a2f56a9d5d682c92e2da1234ed68d54ed" xlink:title=" ">
<polygon fill="white" stroke="#666666" points="99.25,-77 0,-77 0,-57 99.25,-57 99.25,-77"/>
<text text-anchor="middle" x="49.62" y="-63.5" font-family="Helvetica,sans-Serif" font-size="10.00">CBiteOpt::optimize</text>
</a>
</g>
</g>
<!-- Node2&#45;&gt;Node3 -->
<g id="edge18_Node000002_Node000003" class="edge">
<title>Node2&#45;&gt;Node3</title>
<g id="a_edge18_Node000002_Node000003"><a xlink:title=" ">
<path fill="none" stroke="#63b8ff" d="M149.68,-110.12C144.78,-108.47 139.9,-106.75 135.25,-105 113.25,-96.69 88.82,-85.5 71.89,-77.42"/>
<polygon fill="#63b8ff" stroke="#63b8ff" points="148.32,-113.35 158.91,-113.11 150.48,-106.69 148.32,-113.35"/>
</a>
</g>
</g>
<!-- Node4&#45;&gt;Node3 -->
<g id="edge20_Node000004_Node000003" class="edge">
<title>Node4&#45;&gt;Node3</title>
<g id="a_edge20_Node000004_Node000003"><a xlink:title=" ">
<path fill="none" stroke="#63b8ff" d="M123.94,-76.54C115.71,-75.47 107.47,-74.4 99.64,-73.38"/>
<polygon fill="#63b8ff" stroke="#63b8ff" points="123.26,-79.98 133.63,-77.8 124.17,-73.04 123.26,-79.98"/>
</a>
</g>
</g>
<!-- Node5&#45;&gt;Node3 -->
<g id="edge22_Node000005_Node000003" class="edge">
<title>Node5&#45;&gt;Node3</title>
<g id="a_edge22_Node000005_Node000003"><a xlink:title=" ">
<path fill="none" stroke="#63b8ff" d="M126.27,-57.16C117.22,-58.33 108.12,-59.52 99.52,-60.64"/>
<polygon fill="#63b8ff" stroke="#63b8ff" points="126.7,-60.63 136.16,-55.87 125.79,-53.69 126.7,-60.63"/>
</a>
</g>
</g>
<!-- Node6&#45;&gt;Node3 -->
<g id="edge24_Node000006_Node000003" class="edge">
<title>Node6&#45;&gt;Node3</title>
<g id="a_edge24_Node000006_Node000003"><a xlink:title=" ">
<path fill="none" stroke="#63b8ff" d="M149.68,-23.88C144.78,-25.53 139.9,-27.25 135.25,-29 113.25,-37.31 88.82,-48.5 71.89,-56.58"/>
<polygon fill="#63b8ff" stroke="#63b8ff" points="150.48,-27.31 158.91,-20.89 148.32,-20.65 150.48,-27.31"/>
</a>
</g>
</g>
</g>
</svg>
