<?xml version="1.0" encoding="UTF-8" standalone="no"?>
<!DOCTYPE svg PUBLIC "-//W3C//DTD SVG 1.1//EN"
 "http://www.w3.org/Graphics/SVG/1.1/DTD/svg11.dtd">
<!-- Generated by graphviz version 12.2.1 (20241206.2353)
 -->
<!-- Title: fcmaes.journal.Journal.write_xs Pages: 1 -->
<svg width="828pt" height="78pt"
 viewBox="0.00 0.00 827.50 78.00" xmlns="http://www.w3.org/2000/svg" xmlns:xlink="http://www.w3.org/1999/xlink">
<g id="graph0" class="graph" transform="scale(1 1) rotate(0) translate(4 74)">
<title>fcmaes.journal.Journal.write_xs</title>
<!-- Node1 -->
<g id="Node000001" class="node">
<title>Node1</title>
<g id="a_Node000001"><a xlink:title="Writes a set of parameter values (xs) for different workers associated with a trial.">
<polygon fill="#999999" stroke="#666666" points="154,-48 0,-48 0,-28 154,-28 154,-48"/>
<text text-anchor="middle" x="77" y="-34.5" font-family="Helvetica,sans-Serif" font-size="10.00">fcmaes.journal.Journal.write_xs</text>
</a>
</g>
</g>
<!-- Node2 -->
<g id="Node000002" class="node">
<title>Node2</title>
<g id="a_Node000002"><a xlink:href="$classfcmaes_1_1journal_1_1_journal.html#a7f1df03b226966e2c112e449fe31747b" xlink:title="Writes parameter values for a given trial and worker.">
<polygon fill="white" stroke="#666666" points="338.75,-48 190,-48 190,-28 338.75,-28 338.75,-48"/>
<text text-anchor="middle" x="264.38" y="-34.5" font-family="Helvetica,sans-Serif" font-size="10.00">fcmaes.journal.Journal.write_x</text>
</a>
</g>
</g>
<!-- Node1&#45;&gt;Node2 -->
<g id="edge11_Node000001_Node000002" class="edge">
<title>Node1&#45;&gt;Node2</title>
<g id="a_edge11_Node000001_Node000002"><a xlink:title=" ">
<path fill="none" stroke="#63b8ff" d="M154.47,-38C162.4,-38 170.5,-38 178.51,-38"/>
<polygon fill="#63b8ff" stroke="#63b8ff" points="178.25,-41.5 188.25,-38 178.25,-34.5 178.25,-41.5"/>
</a>
</g>
</g>
<!-- Node3 -->
<g id="Node000003" class="node">
<title>Node3</title>
<g id="a_Node000003"><a xlink:href="$classfcmaes_1_1journal_1_1_journal.html#a071316e37bbbe42be6c9dda9bfe0a7d7" xlink:title="Writes a parameter value to the associated file for a given trial and worker.">
<polygon fill="white" stroke="#666666" points="519,-48 374.75,-48 374.75,-28 519,-28 519,-48"/>
<text text-anchor="middle" x="446.88" y="-34.5" font-family="Helvetica,sans-Serif" font-size="10.00">fcmaes.journal.Journal.param</text>
</a>
</g>
</g>
<!-- Node2&#45;&gt;Node3 -->
<g id="edge12_Node000002_Node000003" class="edge">
<title>Node2&#45;&gt;Node3</title>
<g id="a_edge12_Node000002_Node000003"><a xlink:title=" ">
<path fill="none" stroke="#63b8ff" d="M339.05,-38C347,-38 355.13,-38 363.18,-38"/>
<polygon fill="#63b8ff" stroke="#63b8ff" points="362.96,-41.5 372.96,-38 362.96,-34.5 362.96,-41.5"/>
</a>
</g>
</g>
<!-- Node4 -->
<g id="Node000004" class="node">
<title>Node4</title>
<g id="a_Node000004"><a xlink:href="$namespacefcmaes_1_1journal.html#ab08848e83cf71c33842407ee31354411" xlink:title="Generates a JSON message containing trial parameter details.">
<polygon fill="white" stroke="#666666" points="653.5,-54 555,-54 555,-22 653.5,-22 653.5,-54"/>
<text text-anchor="start" x="563" y="-40.5" font-family="Helvetica,sans-Serif" font-size="10.00">fcmaes.journal.trial</text>
<text text-anchor="middle" x="604.25" y="-28.5" font-family="Helvetica,sans-Serif" font-size="10.00">_param</text>
</a>
</g>
</g>
<!-- Node3&#45;&gt;Node4 -->
<g id="edge13_Node000003_Node000004" class="edge">
<title>Node3&#45;&gt;Node4</title>
<g id="a_edge13_Node000003_Node000004"><a xlink:title=" ">
<path fill="none" stroke="#63b8ff" d="M519.2,-38C527.24,-38 535.37,-38 543.24,-38"/>
<polygon fill="#63b8ff" stroke="#63b8ff" points="543.04,-41.5 553.04,-38 543.04,-34.5 543.04,-41.5"/>
</a>
</g>
</g>
<!-- Node5 -->
<g id="Node000005" class="node">
<title>Node5</title>
<g id="a_Node000005"><a xlink:href="$namespacefcmaes_1_1journal.html#a3d2994fbc61c2eb4fa0bf4b6018b055e" xlink:title="Generates a JSON representation of a float distribution within a specified range.">
<polygon fill="white" stroke="#666666" points="819.5,-70 689.5,-70 689.5,-50 819.5,-50 819.5,-70"/>
<text text-anchor="middle" x="754.5" y="-56.5" font-family="Helvetica,sans-Serif" font-size="10.00">fcmaes.journal.distribution</text>
</a>
</g>
</g>
<!-- Node4&#45;&gt;Node5 -->
<g id="edge14_Node000004_Node000005" class="edge">
<title>Node4&#45;&gt;Node5</title>
<g id="a_edge14_Node000004_Node000005"><a xlink:title=" ">
<path fill="none" stroke="#63b8ff" d="M653.79,-45.2C661.57,-46.36 669.78,-47.58 678.01,-48.8"/>
<polygon fill="#63b8ff" stroke="#63b8ff" points="677.31,-52.23 687.71,-50.24 678.33,-45.31 677.31,-52.23"/>
</a>
</g>
</g>
<!-- Node6 -->
<g id="Node000006" class="node">
<title>Node6</title>
<g id="a_Node000006"><a xlink:href="$namespacefcmaes_1_1journal.html#ab2d4646b056641882ced63f7d0299978" xlink:title="Converts a given message object to its JSON representation.">
<polygon fill="white" stroke="#666666" points="815.75,-32 693.25,-32 693.25,0 815.75,0 815.75,-32"/>
<text text-anchor="start" x="701.25" y="-18.5" font-family="Helvetica,sans-Serif" font-size="10.00">fcmaes.journal.message</text>
<text text-anchor="middle" x="754.5" y="-6.5" font-family="Helvetica,sans-Serif" font-size="10.00">_to_json</text>
</a>
</g>
</g>
<!-- Node4&#45;&gt;Node6 -->
<g id="edge15_Node000004_Node000006" class="edge">
<title>Node4&#45;&gt;Node6</title>
<g id="a_edge15_Node000004_Node000006"><a xlink:title=" ">
<path fill="none" stroke="#63b8ff" d="M653.79,-30.8C662.78,-29.46 672.33,-28.05 681.83,-26.64"/>
<polygon fill="#63b8ff" stroke="#63b8ff" points="682.05,-30.14 691.42,-25.21 681.02,-23.22 682.05,-30.14"/>
</a>
</g>
</g>
</g>
</svg>
