<?xml version="1.0" encoding="UTF-8" standalone="no"?>
<!DOCTYPE svg PUBLIC "-//W3C//DTD SVG 1.1//EN"
 "http://www.w3.org/Graphics/SVG/1.1/DTD/svg11.dtd">
<!-- Generated by graphviz version 12.2.1 (20241206.2353)
 -->
<!-- Title: CBitePop::copy Pages: 1 -->
<svg width="235pt" height="66pt"
 viewBox="0.00 0.00 235.00 66.00" xmlns="http://www.w3.org/2000/svg" xmlns:xlink="http://www.w3.org/1999/xlink">
<g id="graph0" class="graph" transform="scale(1 1) rotate(0) translate(4 62)">
<title>CBitePop::copy</title>
<!-- Node1 -->
<g id="Node000001" class="node">
<title>Node1</title>
<g id="a_Node000001"><a xlink:title=" ">
<polygon fill="#999999" stroke="#666666" points="227,-39 142,-39 142,-19 227,-19 227,-39"/>
<text text-anchor="middle" x="184.5" y="-25.5" font-family="Helvetica,sans-Serif" font-size="10.00">CBitePop::copy</text>
</a>
</g>
</g>
<!-- Node2 -->
<g id="Node000002" class="node">
<title>Node2</title>
<g id="a_Node000002"><a xlink:href="$class_c_bite_pop.html#a73402384f4b75abf6d956dc086ccf36e" xlink:title=" ">
<polygon fill="white" stroke="#666666" points="106,-58 0,-58 0,-38 106,-38 106,-58"/>
<text text-anchor="middle" x="53" y="-44.5" font-family="Helvetica,sans-Serif" font-size="10.00">CBitePop::CBitePop</text>
</a>
</g>
</g>
<!-- Node1&#45;&gt;Node2 -->
<g id="edge5_Node000001_Node000002" class="edge">
<title>Node1&#45;&gt;Node2</title>
<g id="a_edge5_Node000001_Node000002"><a xlink:title=" ">
<path fill="none" stroke="#63b8ff" d="M130.59,-36.76C122.49,-37.95 114.14,-39.18 106.06,-40.36"/>
<polygon fill="#63b8ff" stroke="#63b8ff" points="130.93,-40.25 140.32,-35.34 129.91,-33.32 130.93,-40.25"/>
</a>
</g>
</g>
<!-- Node3 -->
<g id="Node000003" class="node">
<title>Node3</title>
<g id="a_Node000003"><a xlink:href="$class_c_bite_pop.html#ab18cf322db6ab186db1e19b53e34c232" xlink:title=" ">
<polygon fill="white" stroke="#666666" points="105.62,-20 0.38,-20 0.38,0 105.62,0 105.62,-20"/>
<text text-anchor="middle" x="53" y="-6.5" font-family="Helvetica,sans-Serif" font-size="10.00">CBitePop::operator=</text>
</a>
</g>
</g>
<!-- Node1&#45;&gt;Node3 -->
<g id="edge6_Node000001_Node000003" class="edge">
<title>Node1&#45;&gt;Node3</title>
<g id="a_edge6_Node000001_Node000003"><a xlink:title=" ">
<path fill="none" stroke="#63b8ff" d="M130.59,-21.24C122.49,-20.05 114.14,-18.82 106.06,-17.64"/>
<polygon fill="#63b8ff" stroke="#63b8ff" points="129.91,-24.68 140.32,-22.66 130.93,-17.75 129.91,-24.68"/>
</a>
</g>
</g>
</g>
</svg>
