<?xml version="1.0" encoding="UTF-8" standalone="no"?>
<!DOCTYPE svg PUBLIC "-//W3C//DTD SVG 1.1//EN"
 "http://www.w3.org/Graphics/SVG/1.1/DTD/svg11.dtd">
<!-- Generated by graphviz version 12.2.1 (20241206.2353)
 -->
<!-- Title: CBiteOptDeep::getBestCost Pages: 1 -->
<svg width="454pt" height="111pt"
 viewBox="0.00 0.00 453.50 111.25" xmlns="http://www.w3.org/2000/svg" xmlns:xlink="http://www.w3.org/1999/xlink">
<g id="graph0" class="graph" transform="scale(1 1) rotate(0) translate(4 107.25)">
<title>CBiteOptDeep::getBestCost</title>
<!-- Node1 -->
<g id="Node000001" class="node">
<title>Node1</title>
<g id="a_Node000001"><a xlink:title=" ">
<polygon fill="#999999" stroke="#666666" points="445.5,-82 305,-82 305,-62 445.5,-62 445.5,-82"/>
<text text-anchor="middle" x="375.25" y="-68.5" font-family="Helvetica,sans-Serif" font-size="10.00">CBiteOptDeep::getBestCost</text>
</a>
</g>
</g>
<!-- Node1&#45;&gt;Node1 -->
<g id="edge14_Node000001_Node000001" class="edge">
<title>Node1&#45;&gt;Node1</title>
<g id="a_edge14_Node000001_Node000001"><a xlink:title=" ">
<path fill="none" stroke="#63b8ff" d="M404.85,-93.44C401.04,-97.3 391.17,-100 375.25,-100 346.13,-100 337.26,-90.98 348.64,-82.34"/>
<polygon fill="#63b8ff" stroke="#63b8ff" points="408.24,-92.55 402.26,-83.8 401.48,-94.37 408.24,-92.55"/>
</a>
</g>
</g>
<!-- Node2 -->
<g id="Node000002" class="node">
<title>Node2</title>
<g id="a_Node000002"><a xlink:href="$classbiteopt_1_1_bite_optimizer.html#a7f48d5b15bac207bebbc9492708fb3fd" xlink:title=" ">
<polygon fill="white" stroke="#666666" points="110.5,-79 0,-79 0,-47 110.5,-47 110.5,-79"/>
<text text-anchor="start" x="8" y="-65.5" font-family="Helvetica,sans-Serif" font-size="10.00">biteopt::BiteOptimizer</text>
<text text-anchor="middle" x="55.25" y="-53.5" font-family="Helvetica,sans-Serif" font-size="10.00">::doOptimize</text>
</a>
</g>
</g>
<!-- Node1&#45;&gt;Node2 -->
<g id="edge13_Node000001_Node000002" class="edge">
<title>Node1&#45;&gt;Node2</title>
<g id="a_edge13_Node000001_Node000002"><a xlink:title=" ">
<path fill="none" stroke="#63b8ff" d="M328.56,-85.31C310.22,-90 288.77,-94.68 269,-97 214.93,-103.33 200.06,-106.75 146.5,-97 127.56,-93.55 107.42,-86.34 90.99,-79.44"/>
<polygon fill="#63b8ff" stroke="#63b8ff" points="329.3,-88.73 338.07,-82.79 327.51,-81.96 329.3,-88.73"/>
</a>
</g>
</g>
<!-- Node3 -->
<g id="Node000003" class="node">
<title>Node3</title>
<g id="a_Node000003"><a xlink:href="$classbiteopt_1_1_bite_optimizer.html#aa117da98db6b95c17836e1c0acb37d88" xlink:title=" ">
<polygon fill="white" stroke="#666666" points="263,-88 152.5,-88 152.5,-56 263,-56 263,-88"/>
<text text-anchor="start" x="160.5" y="-74.5" font-family="Helvetica,sans-Serif" font-size="10.00">biteopt::BiteOptimizer</text>
<text text-anchor="middle" x="207.75" y="-62.5" font-family="Helvetica,sans-Serif" font-size="10.00">::getBestValue</text>
</a>
</g>
</g>
<!-- Node1&#45;&gt;Node3 -->
<g id="edge15_Node000001_Node000003" class="edge">
<title>Node1&#45;&gt;Node3</title>
<g id="a_edge15_Node000001_Node000003"><a xlink:title=" ">
<path fill="none" stroke="#63b8ff" d="M293.16,-72C283.04,-72 272.88,-72 263.3,-72"/>
<polygon fill="#63b8ff" stroke="#63b8ff" points="293.03,-75.5 303.03,-72 293.03,-68.5 293.03,-75.5"/>
</a>
</g>
</g>
<!-- Node4 -->
<g id="Node000004" class="node">
<title>Node4</title>
<g id="a_Node000004"><a xlink:href="$class_c_bite_opt_deep.html#a5f9dce3d0bcb37dd0d63fec707204786" xlink:title=" ">
<polygon fill="white" stroke="#666666" points="269,-20 146.5,-20 146.5,0 269,0 269,-20"/>
<text text-anchor="middle" x="207.75" y="-6.5" font-family="Helvetica,sans-Serif" font-size="10.00">CBiteOptDeep::optimize</text>
</a>
</g>
</g>
<!-- Node1&#45;&gt;Node4 -->
<g id="edge16_Node000001_Node000004" class="edge">
<title>Node1&#45;&gt;Node4</title>
<g id="a_edge16_Node000001_Node000004"><a xlink:title=" ">
<path fill="none" stroke="#63b8ff" d="M335.92,-57.64C305.53,-46.25 263.78,-30.62 236.54,-20.41"/>
<polygon fill="#63b8ff" stroke="#63b8ff" points="334.54,-60.86 345.13,-61.09 337,-54.31 334.54,-60.86"/>
</a>
</g>
</g>
<!-- Node4&#45;&gt;Node2 -->
<g id="edge17_Node000004_Node000002" class="edge">
<title>Node4&#45;&gt;Node2</title>
<g id="a_edge17_Node000004_Node000002"><a xlink:title=" ">
<path fill="none" stroke="#63b8ff" d="M166.31,-24.24C146.74,-31.13 123.13,-39.45 102.81,-46.6"/>
<polygon fill="#63b8ff" stroke="#63b8ff" points="167.32,-27.6 175.59,-20.97 164.99,-20.99 167.32,-27.6"/>
</a>
</g>
</g>
<!-- Node4&#45;&gt;Node4 -->
<g id="edge18_Node000004_Node000004" class="edge">
<title>Node4&#45;&gt;Node4</title>
<g id="a_edge18_Node000004_Node000004"><a xlink:title=" ">
<path fill="none" stroke="#63b8ff" d="M234.7,-31.44C231.23,-35.3 222.25,-38 207.75,-38 181.24,-38 173.16,-28.98 183.52,-20.34"/>
<polygon fill="#63b8ff" stroke="#63b8ff" points="238.12,-30.69 232.34,-21.81 231.32,-32.35 238.12,-30.69"/>
</a>
</g>
</g>
</g>
</svg>
