<?xml version="1.0" encoding="UTF-8" standalone="no"?>
<!DOCTYPE svg PUBLIC "-//W3C//DTD SVG 1.1//EN"
 "http://www.w3.org/Graphics/SVG/1.1/DTD/svg11.dtd">
<!-- Generated by graphviz version 12.2.1 (20241206.2353)
 -->
<!-- Title: CBiteOptDeep::updateDims Pages: 1 -->
<svg width="293pt" height="52pt"
 viewBox="0.00 0.00 292.75 52.00" xmlns="http://www.w3.org/2000/svg" xmlns:xlink="http://www.w3.org/1999/xlink">
<g id="graph0" class="graph" transform="scale(1 1) rotate(0) translate(4 48)">
<title>CBiteOptDeep::updateDims</title>
<!-- Node1 -->
<g id="Node000001" class="node">
<title>Node1</title>
<g id="a_Node000001"><a xlink:title=" ">
<polygon fill="#999999" stroke="#666666" points="284.75,-26 146.5,-26 146.5,-6 284.75,-6 284.75,-26"/>
<text text-anchor="middle" x="215.62" y="-12.5" font-family="Helvetica,sans-Serif" font-size="10.00">CBiteOptDeep::updateDims</text>
</a>
</g>
</g>
<!-- Node1&#45;&gt;Node1 -->
<g id="edge6_Node000001_Node000001" class="edge">
<title>Node1&#45;&gt;Node1</title>
<g id="a_edge6_Node000001_Node000001"><a xlink:title=" ">
<path fill="none" stroke="#63b8ff" d="M243.97,-37.44C240.32,-41.3 230.87,-44 215.62,-44 187.75,-44 179.25,-34.98 190.14,-26.34"/>
<polygon fill="#63b8ff" stroke="#63b8ff" points="247.37,-36.61 241.48,-27.8 240.59,-38.36 247.37,-36.61"/>
</a>
</g>
</g>
<!-- Node2 -->
<g id="Node000002" class="node">
<title>Node2</title>
<g id="a_Node000002"><a xlink:href="$classbiteopt_1_1_bite_optimizer.html#ac0abad8d3fbb5e91bba5c49b59a60e8b" xlink:title=" ">
<polygon fill="white" stroke="#666666" points="110.5,-32 0,-32 0,0 110.5,0 110.5,-32"/>
<text text-anchor="start" x="8" y="-18.5" font-family="Helvetica,sans-Serif" font-size="10.00">biteopt::BiteOptimizer</text>
<text text-anchor="middle" x="55.25" y="-6.5" font-family="Helvetica,sans-Serif" font-size="10.00">::BiteOptimizer</text>
</a>
</g>
</g>
<!-- Node1&#45;&gt;Node2 -->
<g id="edge5_Node000001_Node000002" class="edge">
<title>Node1&#45;&gt;Node2</title>
<g id="a_edge5_Node000001_Node000002"><a xlink:title=" ">
<path fill="none" stroke="#63b8ff" d="M134.61,-16C126.48,-16 118.35,-16 110.59,-16"/>
<polygon fill="#63b8ff" stroke="#63b8ff" points="134.57,-19.5 144.57,-16 134.57,-12.5 134.57,-19.5"/>
</a>
</g>
</g>
</g>
</svg>
