<?xml version="1.0" encoding="UTF-8" standalone="no"?>
<!DOCTYPE svg PUBLIC "-//W3C//DTD SVG 1.1//EN"
 "http://www.w3.org/Graphics/SVG/1.1/DTD/svg11.dtd">
<!-- Generated by graphviz version 12.2.1 (20241206.2353)
 -->
<!-- Title: examples.crypto.fitness.get_trades Pages: 1 -->
<svg width="493pt" height="40pt"
 viewBox="0.00 0.00 492.50 40.00" xmlns="http://www.w3.org/2000/svg" xmlns:xlink="http://www.w3.org/1999/xlink">
<g id="graph0" class="graph" transform="scale(1 1) rotate(0) translate(4 36)">
<title>examples.crypto.fitness.get_trades</title>
<!-- Node1 -->
<g id="Node000001" class="node">
<title>Node1</title>
<g id="a_Node000001"><a xlink:title=" ">
<polygon fill="#999999" stroke="#666666" points="484.5,-32 347.75,-32 347.75,0 484.5,0 484.5,-32"/>
<text text-anchor="start" x="355.75" y="-18.5" font-family="Helvetica,sans-Serif" font-size="10.00">examples.crypto.fitness.get</text>
<text text-anchor="middle" x="416.12" y="-6.5" font-family="Helvetica,sans-Serif" font-size="10.00">_trades</text>
</a>
</g>
</g>
<!-- Node2 -->
<g id="Node000002" class="node">
<title>Node2</title>
<g id="a_Node000002"><a xlink:href="$classexamples_1_1crypto_1_1fitness.html#a052fc5adc7b09eb7f0613dc254699a5d" xlink:title=" ">
<polygon fill="white" stroke="#666666" points="311.75,-32 175,-32 175,0 311.75,0 311.75,-32"/>
<text text-anchor="start" x="183" y="-18.5" font-family="Helvetica,sans-Serif" font-size="10.00">examples.crypto.fitness.get</text>
<text text-anchor="middle" x="243.38" y="-6.5" font-family="Helvetica,sans-Serif" font-size="10.00">_values</text>
</a>
</g>
</g>
<!-- Node1&#45;&gt;Node2 -->
<g id="edge5_Node000001_Node000002" class="edge">
<title>Node1&#45;&gt;Node2</title>
<g id="a_edge5_Node000001_Node000002"><a xlink:title=" ">
<path fill="none" stroke="#63b8ff" d="M336.33,-16C328.27,-16 320.13,-16 312.21,-16"/>
<polygon fill="#63b8ff" stroke="#63b8ff" points="336.13,-19.5 346.13,-16 336.13,-12.5 336.13,-19.5"/>
</a>
</g>
</g>
<!-- Node3 -->
<g id="Node000003" class="node">
<title>Node3</title>
<g id="a_Node000003"><a xlink:href="$classexamples_1_1crypto_1_1fitness.html#af74be6f5f7cb7648d11cc9852fb1ea05" xlink:title=" ">
<polygon fill="white" stroke="#666666" points="139,-26 0,-26 0,-6 139,-6 139,-26"/>
<text text-anchor="middle" x="69.5" y="-12.5" font-family="Helvetica,sans-Serif" font-size="10.00">examples.crypto.fitness.plot</text>
</a>
</g>
</g>
<!-- Node2&#45;&gt;Node3 -->
<g id="edge6_Node000002_Node000003" class="edge">
<title>Node2&#45;&gt;Node3</title>
<g id="a_edge6_Node000002_Node000003"><a xlink:title=" ">
<path fill="none" stroke="#63b8ff" d="M163.62,-16C155.55,-16 147.39,-16 139.44,-16"/>
<polygon fill="#63b8ff" stroke="#63b8ff" points="163.43,-19.5 173.43,-16 163.43,-12.5 163.43,-19.5"/>
</a>
</g>
</g>
</g>
</svg>
