<?xml version="1.0" encoding="UTF-8" standalone="no"?>
<!DOCTYPE svg PUBLIC "-//W3C//DTD SVG 1.1//EN"
 "http://www.w3.org/Graphics/SVG/1.1/DTD/svg11.dtd">
<!-- Generated by graphviz version 12.2.1 (20241206.2353)
 -->
<!-- Title: mode_optimizer::MoDeOptimizer::tell Pages: 1 -->
<svg width="1075pt" height="366pt"
 viewBox="0.00 0.00 1075.25 365.61" xmlns="http://www.w3.org/2000/svg" xmlns:xlink="http://www.w3.org/1999/xlink">
<g id="graph0" class="graph" transform="scale(1 1) rotate(0) translate(4 361.61)">
<title>mode_optimizer::MoDeOptimizer::tell</title>
<!-- Node1 -->
<g id="Node000001" class="node">
<title>Node1</title>
<g id="a_Node000001"><a xlink:title=" ">
<polygon fill="#999999" stroke="#666666" points="159.25,-265 0,-265 0,-233 159.25,-233 159.25,-265"/>
<text text-anchor="start" x="8" y="-251.5" font-family="Helvetica,sans-Serif" font-size="10.00">mode_optimizer::MoDeOptimizer</text>
<text text-anchor="middle" x="79.62" y="-239.5" font-family="Helvetica,sans-Serif" font-size="10.00">::tell</text>
</a>
</g>
</g>
<!-- Node2 -->
<g id="Node000002" class="node">
<title>Node2</title>
<g id="a_Node000002"><a xlink:href="$classmode__optimizer_1_1_mo_de_optimizer.html#a8941e256d6ff3843da336b4473513363" xlink:title=" ">
<polygon fill="white" stroke="#666666" points="354.5,-265 195.25,-265 195.25,-233 354.5,-233 354.5,-265"/>
<text text-anchor="start" x="203.25" y="-251.5" font-family="Helvetica,sans-Serif" font-size="10.00">mode_optimizer::MoDeOptimizer</text>
<text text-anchor="middle" x="274.88" y="-239.5" font-family="Helvetica,sans-Serif" font-size="10.00">::pop_update</text>
</a>
</g>
</g>
<!-- Node1&#45;&gt;Node2 -->
<g id="edge43_Node000001_Node000002" class="edge">
<title>Node1&#45;&gt;Node2</title>
<g id="a_edge43_Node000001_Node000002"><a xlink:title=" ">
<path fill="none" stroke="#63b8ff" d="M159.51,-249C167.45,-249 175.56,-249 183.61,-249"/>
<polygon fill="#63b8ff" stroke="#63b8ff" points="183.42,-252.5 193.42,-249 183.42,-245.5 183.42,-252.5"/>
</a>
</g>
</g>
<!-- Node3 -->
<g id="Node000003" class="node">
<title>Node3</title>
<g id="a_Node000003"><a xlink:href="$classmode__optimizer_1_1_mo_de_optimizer.html#a6ef6cfaa4da734c923fcdbf8692875f5" xlink:title=" ">
<polygon fill="white" stroke="#666666" points="745,-334 585.75,-334 585.75,-302 745,-302 745,-334"/>
<text text-anchor="start" x="593.75" y="-320.5" font-family="Helvetica,sans-Serif" font-size="10.00">mode_optimizer::MoDeOptimizer</text>
<text text-anchor="middle" x="665.38" y="-308.5" font-family="Helvetica,sans-Serif" font-size="10.00">::crowd_dist</text>
</a>
</g>
</g>
<!-- Node2&#45;&gt;Node3 -->
<g id="edge44_Node000002_Node000003" class="edge">
<title>Node2&#45;&gt;Node3</title>
<g id="a_edge44_Node000002_Node000003"><a xlink:title=" ">
<path fill="none" stroke="#63b8ff" d="M354.96,-263.05C418.51,-274.33 507.79,-290.19 574.13,-301.97"/>
<polygon fill="#63b8ff" stroke="#63b8ff" points="573.45,-305.41 583.91,-303.71 574.67,-298.51 573.45,-305.41"/>
</a>
</g>
</g>
<!-- Node4 -->
<g id="Node000004" class="node">
<title>Node4</title>
<g id="a_Node000004"><a xlink:href="$evaluator_8h.html#a7689f88ea48c85c22d9b34208decd67c" xlink:title=" ">
<polygon fill="white" stroke="#666666" points="891.12,-278 830.12,-278 830.12,-258 891.12,-258 891.12,-278"/>
<text text-anchor="middle" x="860.62" y="-264.5" font-family="Helvetica,sans-Serif" font-size="10.00">sort_index</text>
</a>
</g>
</g>
<!-- Node2&#45;&gt;Node4 -->
<g id="edge60_Node000002_Node000004" class="edge">
<title>Node2&#45;&gt;Node4</title>
<g id="a_edge60_Node000002_Node000004"><a xlink:title=" ">
<path fill="none" stroke="#63b8ff" d="M306.81,-265.47C382.61,-303.62 583.21,-391.23 745,-343 782.32,-331.87 818.8,-304.29 840.24,-285.86"/>
<polygon fill="#63b8ff" stroke="#63b8ff" points="842.42,-288.61 847.59,-279.36 837.78,-283.36 842.42,-288.61"/>
</a>
</g>
</g>
<!-- Node7 -->
<g id="Node000007" class="node">
<title>Node7</title>
<g id="a_Node000007"><a xlink:href="$classmode__optimizer_1_1_mo_de_optimizer.html#a3762607fa33f7bb558fd7aae9690fc37" xlink:title=" ">
<polygon fill="white" stroke="#666666" points="549.75,-196 390.5,-196 390.5,-164 549.75,-164 549.75,-196"/>
<text text-anchor="start" x="398.5" y="-182.5" font-family="Helvetica,sans-Serif" font-size="10.00">mode_optimizer::MoDeOptimizer</text>
<text text-anchor="middle" x="470.12" y="-170.5" font-family="Helvetica,sans-Serif" font-size="10.00">::pareto</text>
</a>
</g>
</g>
<!-- Node2&#45;&gt;Node7 -->
<g id="edge48_Node000002_Node000007" class="edge">
<title>Node2&#45;&gt;Node7</title>
<g id="a_edge48_Node000002_Node000007"><a xlink:title=" ">
<path fill="none" stroke="#63b8ff" d="M321.67,-232.65C348.79,-222.97 383.38,-210.62 412.23,-200.31"/>
<polygon fill="#63b8ff" stroke="#63b8ff" points="413.32,-203.64 421.56,-196.98 410.97,-197.05 413.32,-203.64"/>
</a>
</g>
</g>
<!-- Node12 -->
<g id="Node000012" class="node">
<title>Node12</title>
<g id="a_Node000012"><a xlink:href="$classmode__optimizer_1_1_mo_de_optimizer.html#a0455034273652829d554dd3858b4b6e1" xlink:title=" ">
<polygon fill="white" stroke="#666666" points="549.75,-64 390.5,-64 390.5,-32 549.75,-32 549.75,-64"/>
<text text-anchor="start" x="398.5" y="-50.5" font-family="Helvetica,sans-Serif" font-size="10.00">mode_optimizer::MoDeOptimizer</text>
<text text-anchor="middle" x="470.12" y="-38.5" font-family="Helvetica,sans-Serif" font-size="10.00">::variation</text>
</a>
</g>
</g>
<!-- Node2&#45;&gt;Node12 -->
<g id="edge61_Node000002_Node000012" class="edge">
<title>Node2&#45;&gt;Node12</title>
<g id="a_edge61_Node000002_Node000012"><a xlink:title=" ">
<path fill="none" stroke="#63b8ff" d="M291.69,-232.55C325.61,-197.28 405.49,-114.19 445.47,-72.61"/>
<polygon fill="#63b8ff" stroke="#63b8ff" points="447.91,-75.12 452.31,-65.49 442.86,-70.27 447.91,-75.12"/>
</a>
</g>
</g>
<!-- Node3&#45;&gt;Node4 -->
<g id="edge45_Node000003_Node000004" class="edge">
<title>Node3&#45;&gt;Node4</title>
<g id="a_edge45_Node000003_Node000004"><a xlink:title=" ">
<path fill="none" stroke="#63b8ff" d="M729.92,-301.56C759.24,-293.97 793.19,-285.19 819,-278.51"/>
<polygon fill="#63b8ff" stroke="#63b8ff" points="819.61,-281.97 828.41,-276.08 817.86,-275.19 819.61,-281.97"/>
</a>
</g>
</g>
<!-- Node6 -->
<g id="Node000006" class="node">
<title>Node6</title>
<g id="a_Node000006"><a xlink:href="$evaluator_8h.html#a909812174fa9829bc49f6e00edb00b90" xlink:title=" ">
<polygon fill="white" stroke="#666666" points="880.62,-168 840.62,-168 840.62,-148 880.62,-148 880.62,-168"/>
<text text-anchor="middle" x="860.62" y="-154.5" font-family="Helvetica,sans-Serif" font-size="10.00">zeros</text>
</a>
</g>
</g>
<!-- Node3&#45;&gt;Node6 -->
<g id="edge47_Node000003_Node000006" class="edge">
<title>Node3&#45;&gt;Node6</title>
<g id="a_edge47_Node000003_Node000006"><a xlink:title=" ">
<path fill="none" stroke="#63b8ff" d="M729.72,-301.51C735.08,-299.04 740.26,-296.22 745,-293 765.9,-278.81 764.74,-268.34 781,-249 802.17,-223.82 827.06,-195.17 843.07,-176.86"/>
<polygon fill="#63b8ff" stroke="#63b8ff" points="845.62,-179.26 849.58,-169.43 840.35,-174.65 845.62,-179.26"/>
</a>
</g>
</g>
<!-- Node5 -->
<g id="Node000005" class="node">
<title>Node5</title>
<g id="a_Node000005"><a xlink:href="$evaluator_8h.html#a85426eb5cecc23caa06090d795034e5c" xlink:title=" ">
<polygon fill="white" stroke="#666666" points="1067.25,-278 976.25,-278 976.25,-258 1067.25,-258 1067.25,-278"/>
<text text-anchor="middle" x="1021.75" y="-264.5" font-family="Helvetica,sans-Serif" font-size="10.00">compareIndexVal</text>
</a>
</g>
</g>
<!-- Node4&#45;&gt;Node5 -->
<g id="edge46_Node000004_Node000005" class="edge">
<title>Node4&#45;&gt;Node5</title>
<g id="a_edge46_Node000004_Node000005"><a xlink:title=" ">
<path fill="none" stroke="#63b8ff" d="M891.56,-268C912.07,-268 939.92,-268 964.51,-268"/>
<polygon fill="#63b8ff" stroke="#63b8ff" points="964.4,-271.5 974.4,-268 964.4,-264.5 964.4,-271.5"/>
</a>
</g>
</g>
<!-- Node7&#45;&gt;Node4 -->
<g id="edge58_Node000007_Node000004" class="edge">
<title>Node7&#45;&gt;Node4</title>
<g id="a_edge58_Node000007_Node000004"><a xlink:title=" ">
<path fill="none" stroke="#63b8ff" d="M543.74,-196.45C624.96,-214.85 753.64,-243.99 818.85,-258.76"/>
<polygon fill="#63b8ff" stroke="#63b8ff" points="817.89,-262.13 828.41,-260.93 819.43,-255.31 817.89,-262.13"/>
</a>
</g>
</g>
<!-- Node7&#45;&gt;Node6 -->
<g id="edge59_Node000007_Node000006" class="edge">
<title>Node7&#45;&gt;Node6</title>
<g id="a_edge59_Node000007_Node000006"><a xlink:title=" ">
<path fill="none" stroke="#63b8ff" d="M534.99,-163.53C551.42,-160 569.14,-156.79 585.75,-155 673.54,-145.54 778.07,-151.38 828.86,-155.3"/>
<polygon fill="#63b8ff" stroke="#63b8ff" points="828.53,-158.79 838.78,-156.1 829.1,-151.81 828.53,-158.79"/>
</a>
</g>
</g>
<!-- Node8 -->
<g id="Node000008" class="node">
<title>Node8</title>
<g id="a_Node000008"><a xlink:href="$classmode__optimizer_1_1_mo_de_optimizer.html#a1d4ce60e415e141efaef2728d9952933" xlink:title=" ">
<polygon fill="white" stroke="#666666" points="745,-284 585.75,-284 585.75,-252 745,-252 745,-284"/>
<text text-anchor="start" x="593.75" y="-270.5" font-family="Helvetica,sans-Serif" font-size="10.00">mode_optimizer::MoDeOptimizer</text>
<text text-anchor="middle" x="665.38" y="-258.5" font-family="Helvetica,sans-Serif" font-size="10.00">::objranks</text>
</a>
</g>
</g>
<!-- Node7&#45;&gt;Node8 -->
<g id="edge49_Node000007_Node000008" class="edge">
<title>Node7&#45;&gt;Node8</title>
<g id="a_edge49_Node000007_Node000008"><a xlink:title=" ">
<path fill="none" stroke="#63b8ff" d="M501.36,-196.38C524.24,-208.51 556.58,-225.1 585.75,-238 592.92,-241.17 600.55,-244.34 608.12,-247.35"/>
<polygon fill="#63b8ff" stroke="#63b8ff" points="606.73,-250.57 617.32,-250.95 609.28,-244.05 606.73,-250.57"/>
</a>
</g>
</g>
<!-- Node9 -->
<g id="Node000009" class="node">
<title>Node9</title>
<g id="a_Node000009"><a xlink:href="$classmode__optimizer_1_1_mo_de_optimizer.html#a10363d0716952c74500da8ca679dc95b" xlink:title=" ">
<polygon fill="white" stroke="#666666" points="745,-108 585.75,-108 585.75,-76 745,-76 745,-108"/>
<text text-anchor="start" x="593.75" y="-94.5" font-family="Helvetica,sans-Serif" font-size="10.00">mode_optimizer::MoDeOptimizer</text>
<text text-anchor="middle" x="665.38" y="-82.5" font-family="Helvetica,sans-Serif" font-size="10.00">::pareto_levels</text>
</a>
</g>
</g>
<!-- Node7&#45;&gt;Node9 -->
<g id="edge51_Node000007_Node000009" class="edge">
<title>Node7&#45;&gt;Node9</title>
<g id="a_edge51_Node000007_Node000009"><a xlink:title=" ">
<path fill="none" stroke="#63b8ff" d="M489.5,-163.59C511.91,-148.88 551.08,-128.34 585.75,-113 585.86,-112.95 585.97,-112.9 586.08,-112.86"/>
<polygon fill="#63b8ff" stroke="#63b8ff" points="587.22,-116.17 595.04,-109.02 584.47,-109.74 587.22,-116.17"/>
</a>
</g>
</g>
<!-- Node11 -->
<g id="Node000011" class="node">
<title>Node11</title>
<g id="a_Node000011"><a xlink:href="$classmode__optimizer_1_1_mo_de_optimizer.html#a7d415b38158a793f2a2d666e921d838b" xlink:title=" ">
<polygon fill="white" stroke="#666666" points="745,-196 585.75,-196 585.75,-164 745,-164 745,-196"/>
<text text-anchor="start" x="593.75" y="-182.5" font-family="Helvetica,sans-Serif" font-size="10.00">mode_optimizer::MoDeOptimizer</text>
<text text-anchor="middle" x="665.38" y="-170.5" font-family="Helvetica,sans-Serif" font-size="10.00">::ranks</text>
</a>
</g>
</g>
<!-- Node7&#45;&gt;Node11 -->
<g id="edge55_Node000007_Node000011" class="edge">
<title>Node7&#45;&gt;Node11</title>
<g id="a_edge55_Node000007_Node000011"><a xlink:title=" ">
<path fill="none" stroke="#63b8ff" d="M550.01,-180C557.95,-180 566.06,-180 574.11,-180"/>
<polygon fill="#63b8ff" stroke="#63b8ff" points="573.92,-183.5 583.92,-180 573.92,-176.5 573.92,-183.5"/>
</a>
</g>
</g>
<!-- Node8&#45;&gt;Node4 -->
<g id="edge50_Node000008_Node000004" class="edge">
<title>Node8&#45;&gt;Node4</title>
<g id="a_edge50_Node000008_Node000004"><a xlink:title=" ">
<path fill="none" stroke="#63b8ff" d="M745.26,-268C770.44,-268 797.29,-268 818.64,-268"/>
<polygon fill="#63b8ff" stroke="#63b8ff" points="818.38,-271.5 828.38,-268 818.38,-264.5 818.38,-271.5"/>
</a>
</g>
</g>
<!-- Node9&#45;&gt;Node6 -->
<g id="edge54_Node000009_Node000006" class="edge">
<title>Node9&#45;&gt;Node6</title>
<g id="a_edge54_Node000009_Node000006"><a xlink:title=" ">
<path fill="none" stroke="#63b8ff" d="M714.64,-108.48C750.73,-120.81 798.93,-137.27 829.64,-147.76"/>
<polygon fill="#63b8ff" stroke="#63b8ff" points="828.46,-151.05 839.05,-150.97 830.72,-144.43 828.46,-151.05"/>
</a>
</g>
</g>
<!-- Node9&#45;&gt;Node7 -->
<g id="edge53_Node000009_Node000007" class="edge">
<title>Node9&#45;&gt;Node7</title>
<g id="a_edge53_Node000009_Node000007"><a xlink:title=" ">
<path fill="none" stroke="#63b8ff" d="M639.67,-108.42C624.05,-115.35 603.52,-123.14 585.75,-131 566.48,-139.52 545.82,-149.66 527.42,-158.6"/>
<polygon fill="#63b8ff" stroke="#63b8ff" points="526,-155.39 518.53,-162.9 529.06,-161.69 526,-155.39"/>
</a>
</g>
</g>
<!-- Node10 -->
<g id="Node000010" class="node">
<title>Node10</title>
<g id="a_Node000010"><a xlink:href="$classmode__optimizer_1_1_mo_de_optimizer.html#af5f89faff00f2714a594e1d60cd2d6e3" xlink:title=" ">
<polygon fill="white" stroke="#666666" points="940.25,-108 781,-108 781,-76 940.25,-76 940.25,-108"/>
<text text-anchor="start" x="789" y="-94.5" font-family="Helvetica,sans-Serif" font-size="10.00">mode_optimizer::MoDeOptimizer</text>
<text text-anchor="middle" x="860.62" y="-82.5" font-family="Helvetica,sans-Serif" font-size="10.00">::is_dominated</text>
</a>
</g>
</g>
<!-- Node9&#45;&gt;Node10 -->
<g id="edge52_Node000009_Node000010" class="edge">
<title>Node9&#45;&gt;Node10</title>
<g id="a_edge52_Node000009_Node000010"><a xlink:title=" ">
<path fill="none" stroke="#63b8ff" d="M745.26,-92C753.2,-92 761.31,-92 769.36,-92"/>
<polygon fill="#63b8ff" stroke="#63b8ff" points="769.17,-95.5 779.17,-92 769.17,-88.5 769.17,-95.5"/>
</a>
</g>
</g>
<!-- Node11&#45;&gt;Node4 -->
<g id="edge56_Node000011_Node000004" class="edge">
<title>Node11&#45;&gt;Node4</title>
<g id="a_edge56_Node000011_Node000004"><a xlink:title=" ">
<path fill="none" stroke="#63b8ff" d="M712.02,-196.5C722.92,-200.69 734.44,-205.33 745,-210 774.58,-223.09 807.43,-239.96 830.36,-252.13"/>
<polygon fill="#63b8ff" stroke="#63b8ff" points="828.65,-255.18 839.12,-256.81 831.95,-249.01 828.65,-255.18"/>
</a>
</g>
</g>
<!-- Node11&#45;&gt;Node6 -->
<g id="edge57_Node000011_Node000006" class="edge">
<title>Node11&#45;&gt;Node6</title>
<g id="a_edge57_Node000011_Node000006"><a xlink:title=" ">
<path fill="none" stroke="#63b8ff" d="M745.26,-171.02C774.8,-167.66 806.64,-164.03 829.21,-161.46"/>
<polygon fill="#63b8ff" stroke="#63b8ff" points="829.36,-164.97 838.9,-160.36 828.57,-158.01 829.36,-164.97"/>
</a>
</g>
</g>
<!-- Node13 -->
<g id="Node000013" class="node">
<title>Node13</title>
<g id="a_Node000013"><a xlink:href="$evaluator_8h.html#a0007d50439e7d7122b6dd54d05c7c45b" xlink:title=" ">
<polygon fill="white" stroke="#666666" points="688,-20 642.75,-20 642.75,0 688,0 688,-20"/>
<text text-anchor="middle" x="665.38" y="-6.5" font-family="Helvetica,sans-Serif" font-size="10.00">rand01</text>
</a>
</g>
</g>
<!-- Node12&#45;&gt;Node13 -->
<g id="edge62_Node000012_Node000013" class="edge">
<title>Node12&#45;&gt;Node13</title>
<g id="a_edge62_Node000012_Node000013"><a xlink:title=" ">
<path fill="none" stroke="#63b8ff" d="M550.01,-32.49C578.32,-26.92 608.73,-20.94 631.07,-16.55"/>
<polygon fill="#63b8ff" stroke="#63b8ff" points="631.66,-20 640.79,-14.64 630.3,-13.13 631.66,-20"/>
</a>
</g>
</g>
<!-- Node14 -->
<g id="Node000014" class="node">
<title>Node14</title>
<g id="a_Node000014"><a xlink:href="$evaluator_8h.html#a28d3e754a2edfdf68753c5562acd87d0" xlink:title=" ">
<polygon fill="white" stroke="#666666" points="697.75,-58 633,-58 633,-38 697.75,-38 697.75,-58"/>
<text text-anchor="middle" x="665.38" y="-44.5" font-family="Helvetica,sans-Serif" font-size="10.00">uniformVec</text>
</a>
</g>
</g>
<!-- Node12&#45;&gt;Node14 -->
<g id="edge63_Node000012_Node000014" class="edge">
<title>Node12&#45;&gt;Node14</title>
<g id="a_edge63_Node000012_Node000014"><a xlink:title=" ">
<path fill="none" stroke="#63b8ff" d="M550.01,-48C574.37,-48 600.3,-48 621.3,-48"/>
<polygon fill="#63b8ff" stroke="#63b8ff" points="621.21,-51.5 631.21,-48 621.21,-44.5 621.21,-51.5"/>
</a>
</g>
</g>
</g>
</svg>
