<?xml version="1.0" encoding="UTF-8" standalone="no"?>
<!DOCTYPE svg PUBLIC "-//W3C//DTD SVG 1.1//EN"
 "http://www.w3.org/Graphics/SVG/1.1/DTD/svg11.dtd">
<!-- Generated by graphviz version 12.2.1 (20241206.2353)
 -->
<!-- Title: fcmaes.retry.Shared2d Pages: 1 -->
<svg width="114pt" height="156pt"
 viewBox="0.00 0.00 114.25 156.00" xmlns="http://www.w3.org/2000/svg" xmlns:xlink="http://www.w3.org/1999/xlink">
<g id="graph0" class="graph" transform="scale(1 1) rotate(0) translate(4 152)">
<title>fcmaes.retry.Shared2d</title>
<!-- Node1 -->
<g id="Node000001" class="node">
<title>Node1</title>
<g id="a_Node000001"><a xlink:title="A 2D shared memory array wrapper.">
<polygon fill="#999999" stroke="none" points="106.25,-148 0,-148 0,0 106.25,0 106.25,-148"/>
<text text-anchor="start" x="4" y="-134.5" font-family="Helvetica,sans-Serif" font-size="10.00">fcmaes.retry.Shared2d</text>
<text text-anchor="start" x="8.06" y="-118.5" font-family="Helvetica,sans-Serif" font-size="10.00">+</text>
<text text-anchor="start" x="22.12" y="-118.5" font-family="Helvetica,sans-Serif" font-size="10.00">rows</text>
<text text-anchor="start" x="8.06" y="-102.5" font-family="Helvetica,sans-Serif" font-size="10.00">+</text>
<text text-anchor="start" x="22.12" y="-102.5" font-family="Helvetica,sans-Serif" font-size="10.00">cols</text>
<text text-anchor="start" x="8.06" y="-86.5" font-family="Helvetica,sans-Serif" font-size="10.00">+</text>
<text text-anchor="start" x="22.12" y="-86.5" font-family="Helvetica,sans-Serif" font-size="10.00">dtype</text>
<text text-anchor="start" x="8.06" y="-70.5" font-family="Helvetica,sans-Serif" font-size="10.00">+</text>
<text text-anchor="start" x="22.12" y="-70.5" font-family="Helvetica,sans-Serif" font-size="10.00">ra</text>
<text text-anchor="start" x="8.06" y="-54.5" font-family="Helvetica,sans-Serif" font-size="10.00">+</text>
<text text-anchor="start" x="22.12" y="-54.5" font-family="Helvetica,sans-Serif" font-size="10.00">__init__(self, xs)</text>
<text text-anchor="start" x="8.06" y="-38.5" font-family="Helvetica,sans-Serif" font-size="10.00">+</text>
<text text-anchor="start" x="22.12" y="-38.5" font-family="Helvetica,sans-Serif" font-size="10.00">set_i(self, i, x)</text>
<text text-anchor="start" x="8.06" y="-22.5" font-family="Helvetica,sans-Serif" font-size="10.00">+</text>
<text text-anchor="start" x="22.12" y="-22.5" font-family="Helvetica,sans-Serif" font-size="10.00">view(self)</text>
<text text-anchor="start" x="8.06" y="-6.5" font-family="Helvetica,sans-Serif" font-size="10.00">+</text>
<text text-anchor="start" x="22.12" y="-6.5" font-family="Helvetica,sans-Serif" font-size="10.00">set(self, xs)</text>
<polygon fill="#666666" stroke="#666666" points="0,-130 0,-130 106.25,-130 106.25,-130 0,-130"/>
<polygon fill="#666666" stroke="#666666" points="0,-66 0,-66 20.12,-66 20.12,-66 0,-66"/>
<polygon fill="#666666" stroke="#666666" points="20.12,-66 20.12,-66 106.25,-66 106.25,-66 20.12,-66"/>
<polygon fill="none" stroke="#666666" points="0,0 0,-148 106.25,-148 106.25,0 0,0"/>
</a>
</g>
</g>
</g>
</svg>
