<?xml version="1.0" encoding="UTF-8" standalone="no"?>
<!DOCTYPE svg PUBLIC "-//W3C//DTD SVG 1.1//EN"
 "http://www.w3.org/Graphics/SVG/1.1/DTD/svg11.dtd">
<!-- Generated by graphviz version 12.2.1 (20241206.2353)
 -->
<!-- Title: dual_annealing::VisitingDistribution::visiting Pages: 1 -->
<svg width="450pt" height="104pt"
 viewBox="0.00 0.00 449.75 104.00" xmlns="http://www.w3.org/2000/svg" xmlns:xlink="http://www.w3.org/1999/xlink">
<g id="graph0" class="graph" transform="scale(1 1) rotate(0) translate(4 100)">
<title>dual_annealing::VisitingDistribution::visiting</title>
<!-- Node1 -->
<g id="Node000001" class="node">
<title>Node1</title>
<g id="a_Node000001"><a xlink:title=" ">
<polygon fill="#999999" stroke="#666666" points="118.75,-64 0,-64 0,-32 118.75,-32 118.75,-64"/>
<text text-anchor="start" x="8" y="-50.5" font-family="Helvetica,sans-Serif" font-size="10.00">dual_annealing::Visiting</text>
<text text-anchor="middle" x="59.38" y="-38.5" font-family="Helvetica,sans-Serif" font-size="10.00">Distribution::visiting</text>
</a>
</g>
</g>
<!-- Node2 -->
<g id="Node000002" class="node">
<title>Node2</title>
<g id="a_Node000002"><a xlink:href="$classdual__annealing_1_1_visiting_distribution.html#a5fb765282e4ad1fcfd42481e20ad7a09" xlink:title=" ">
<polygon fill="white" stroke="#666666" points="273.5,-64 154.75,-64 154.75,-32 273.5,-32 273.5,-64"/>
<text text-anchor="start" x="162.75" y="-50.5" font-family="Helvetica,sans-Serif" font-size="10.00">dual_annealing::Visiting</text>
<text text-anchor="middle" x="214.12" y="-38.5" font-family="Helvetica,sans-Serif" font-size="10.00">Distribution::visit_fn</text>
</a>
</g>
</g>
<!-- Node1&#45;&gt;Node2 -->
<g id="edge9_Node000001_Node000002" class="edge">
<title>Node1&#45;&gt;Node2</title>
<g id="a_edge9_Node000001_Node000002"><a xlink:title=" ">
<path fill="none" stroke="#63b8ff" d="M119,-48C126.89,-48 135.05,-48 143.11,-48"/>
<polygon fill="#63b8ff" stroke="#63b8ff" points="142.9,-51.5 152.9,-48 142.9,-44.5 142.9,-51.5"/>
</a>
</g>
</g>
<!-- Node3 -->
<g id="Node000003" class="node">
<title>Node3</title>
<g id="a_Node000003"><a xlink:href="$namespacedual__annealing.html#a151b32ba2575f7a0632b5c55162fb4bd" xlink:title=" ">
<polygon fill="white" stroke="#666666" points="429.38,-96 321.88,-96 321.88,-76 429.38,-76 429.38,-96"/>
<text text-anchor="middle" x="375.62" y="-82.5" font-family="Helvetica,sans-Serif" font-size="10.00">dual_annealing::expv</text>
</a>
</g>
</g>
<!-- Node2&#45;&gt;Node3 -->
<g id="edge10_Node000002_Node000003" class="edge">
<title>Node2&#45;&gt;Node3</title>
<g id="a_edge10_Node000002_Node000003"><a xlink:title=" ">
<path fill="none" stroke="#63b8ff" d="M273.61,-61.93C288.63,-65.51 304.74,-69.35 319.58,-72.88"/>
<polygon fill="#63b8ff" stroke="#63b8ff" points="318.63,-76.26 329.17,-75.17 320.25,-69.45 318.63,-76.26"/>
</a>
</g>
</g>
<!-- Node4 -->
<g id="Node000004" class="node">
<title>Node4</title>
<g id="a_Node000004"><a xlink:href="$namespacedual__annealing.html#aa453b3bdb1c9bcf34d298af39b661639" xlink:title=" ">
<polygon fill="white" stroke="#666666" points="427.88,-58 323.38,-58 323.38,-38 427.88,-38 427.88,-58"/>
<text text-anchor="middle" x="375.62" y="-44.5" font-family="Helvetica,sans-Serif" font-size="10.00">dual_annealing::logv</text>
</a>
</g>
</g>
<!-- Node2&#45;&gt;Node4 -->
<g id="edge11_Node000002_Node000004" class="edge">
<title>Node2&#45;&gt;Node4</title>
<g id="a_edge11_Node000002_Node000004"><a xlink:title=" ">
<path fill="none" stroke="#63b8ff" d="M273.61,-48C286,-48 299.13,-48 311.67,-48"/>
<polygon fill="#63b8ff" stroke="#63b8ff" points="311.48,-51.5 321.48,-48 311.48,-44.5 311.48,-51.5"/>
</a>
</g>
</g>
<!-- Node5 -->
<g id="Node000005" class="node">
<title>Node5</title>
<g id="a_Node000005"><a xlink:href="$namespacedual__annealing.html#a3688f9a35c8af0e21f7670473fdfc196" xlink:title=" ">
<polygon fill="white" stroke="#666666" points="441.75,-20 309.5,-20 309.5,0 441.75,0 441.75,-20"/>
<text text-anchor="middle" x="375.62" y="-6.5" font-family="Helvetica,sans-Serif" font-size="10.00">dual_annealing::normalVec</text>
</a>
</g>
</g>
<!-- Node2&#45;&gt;Node5 -->
<g id="edge12_Node000002_Node000005" class="edge">
<title>Node2&#45;&gt;Node5</title>
<g id="a_edge12_Node000002_Node000005"><a xlink:title=" ">
<path fill="none" stroke="#63b8ff" d="M273.61,-34.07C288.63,-30.49 304.74,-26.65 319.58,-23.12"/>
<polygon fill="#63b8ff" stroke="#63b8ff" points="320.25,-26.55 329.17,-20.83 318.63,-19.74 320.25,-26.55"/>
</a>
</g>
</g>
</g>
</svg>
