<?xml version="1.0" encoding="UTF-8" standalone="no"?>
<!DOCTYPE svg PUBLIC "-//W3C//DTD SVG 1.1//EN"
 "http://www.w3.org/Graphics/SVG/1.1/DTD/svg11.dtd">
<!-- Generated by graphviz version 12.2.1 (20241206.2353)
 -->
<!-- Title: biteopt::BiteOptimizer::doOptimize Pages: 1 -->
<svg width="705pt" height="93pt"
 viewBox="0.00 0.00 705.25 93.00" xmlns="http://www.w3.org/2000/svg" xmlns:xlink="http://www.w3.org/1999/xlink">
<g id="graph0" class="graph" transform="scale(1 1) rotate(0) translate(4 89)">
<title>biteopt::BiteOptimizer::doOptimize</title>
<!-- Node1 -->
<g id="Node000001" class="node">
<title>Node1</title>
<g id="a_Node000001"><a xlink:title=" ">
<polygon fill="#999999" stroke="#666666" points="110.5,-54 0,-54 0,-22 110.5,-22 110.5,-54"/>
<text text-anchor="start" x="8" y="-40.5" font-family="Helvetica,sans-Serif" font-size="10.00">biteopt::BiteOptimizer</text>
<text text-anchor="middle" x="55.25" y="-28.5" font-family="Helvetica,sans-Serif" font-size="10.00">::doOptimize</text>
</a>
</g>
</g>
<!-- Node2 -->
<g id="Node000002" class="node">
<title>Node2</title>
<g id="a_Node000002"><a xlink:href="$class_c_bite_opt_deep.html#a961516dc7772d327e64965fc3e07ce31" xlink:title=" ">
<polygon fill="white" stroke="#666666" points="445.5,-67 305,-67 305,-47 445.5,-47 445.5,-67"/>
<text text-anchor="middle" x="375.25" y="-53.5" font-family="Helvetica,sans-Serif" font-size="10.00">CBiteOptDeep::getBestCost</text>
</a>
</g>
</g>
<!-- Node1&#45;&gt;Node2 -->
<g id="edge17_Node000001_Node000002" class="edge">
<title>Node1&#45;&gt;Node2</title>
<g id="a_edge17_Node000001_Node000002"><a xlink:title=" ">
<path fill="none" stroke="#63b8ff" d="M110.61,-43.91C122.43,-45.06 134.88,-46.17 146.5,-47 195.15,-50.49 249.74,-52.94 293.28,-54.54"/>
<polygon fill="#63b8ff" stroke="#63b8ff" points="293.04,-58.03 303.16,-54.89 293.29,-51.04 293.04,-58.03"/>
</a>
</g>
</g>
<!-- Node3 -->
<g id="Node000003" class="node">
<title>Node3</title>
<g id="a_Node000003"><a xlink:href="$class_c_bite_opt_deep.html#a5f9dce3d0bcb37dd0d63fec707204786" xlink:title=" ">
<polygon fill="white" stroke="#666666" points="269,-20 146.5,-20 146.5,0 269,0 269,-20"/>
<text text-anchor="middle" x="207.75" y="-6.5" font-family="Helvetica,sans-Serif" font-size="10.00">CBiteOptDeep::optimize</text>
</a>
</g>
</g>
<!-- Node1&#45;&gt;Node3 -->
<g id="edge19_Node000001_Node000003" class="edge">
<title>Node1&#45;&gt;Node3</title>
<g id="a_edge19_Node000001_Node000003"><a xlink:title=" ">
<path fill="none" stroke="#63b8ff" d="M110.58,-27.89C119.9,-26.16 129.69,-24.34 139.3,-22.55"/>
<polygon fill="#63b8ff" stroke="#63b8ff" points="139.79,-26.02 148.98,-20.75 138.51,-19.14 139.79,-26.02"/>
</a>
</g>
</g>
<!-- Node2&#45;&gt;Node2 -->
<g id="edge18_Node000002_Node000002" class="edge">
<title>Node2&#45;&gt;Node2</title>
<g id="a_edge18_Node000002_Node000002"><a xlink:title=" ">
<path fill="none" stroke="#63b8ff" d="M352.15,-67.34C342.28,-75.98 349.98,-85 375.25,-85 389.07,-85 397.63,-82.3 400.94,-78.44"/>
<polygon fill="#63b8ff" stroke="#63b8ff" points="404.38,-77.75 398.69,-68.81 397.56,-79.35 404.38,-77.75"/>
</a>
</g>
</g>
<!-- Node3&#45;&gt;Node2 -->
<g id="edge20_Node000003_Node000002" class="edge">
<title>Node3&#45;&gt;Node2</title>
<g id="a_edge20_Node000003_Node000002"><a xlink:title=" ">
<path fill="none" stroke="#63b8ff" d="M245.48,-20.43C269.29,-27.19 300.55,-36.07 326.31,-43.38"/>
<polygon fill="#63b8ff" stroke="#63b8ff" points="325.31,-46.74 335.88,-46.1 327.22,-40 325.31,-46.74"/>
</a>
</g>
</g>
<!-- Node3&#45;&gt;Node3 -->
<g id="edge24_Node000003_Node000003" class="edge">
<title>Node3&#45;&gt;Node3</title>
<g id="a_edge24_Node000003_Node000003"><a xlink:title=" ">
<path fill="none" stroke="#63b8ff" d="M183.52,-20.34C173.16,-28.98 181.24,-38 207.75,-38 222.25,-38 231.23,-35.3 234.7,-31.44"/>
<polygon fill="#63b8ff" stroke="#63b8ff" points="238.12,-30.69 232.34,-21.81 231.32,-32.35 238.12,-30.69"/>
</a>
</g>
</g>
<!-- Node4 -->
<g id="Node000004" class="node">
<title>Node4</title>
<g id="a_Node000004"><a xlink:href="$class_c_bite_rnd.html#a4e9ad0a5c5e09149a60f849736d8d7ce" xlink:title=" ">
<polygon fill="white" stroke="#666666" points="420,-20 330.5,-20 330.5,0 420,0 420,-20"/>
<text text-anchor="middle" x="375.25" y="-6.5" font-family="Helvetica,sans-Serif" font-size="10.00">CBiteRnd::getInt</text>
</a>
</g>
</g>
<!-- Node3&#45;&gt;Node4 -->
<g id="edge21_Node000003_Node000004" class="edge">
<title>Node3&#45;&gt;Node4</title>
<g id="a_edge21_Node000003_Node000004"><a xlink:title=" ">
<path fill="none" stroke="#63b8ff" d="M269.44,-10C285.62,-10 303.02,-10 318.9,-10"/>
<polygon fill="#63b8ff" stroke="#63b8ff" points="318.64,-13.5 328.64,-10 318.64,-6.5 318.64,-13.5"/>
</a>
</g>
</g>
<!-- Node5 -->
<g id="Node000005" class="node">
<title>Node5</title>
<g id="a_Node000005"><a xlink:href="$class_c_bite_rnd.html#afdb77334884f1a612780def0dec0a326" xlink:title=" ">
<polygon fill="white" stroke="#666666" points="559.75,-20 481.5,-20 481.5,0 559.75,0 559.75,-20"/>
<text text-anchor="middle" x="520.62" y="-6.5" font-family="Helvetica,sans-Serif" font-size="10.00">CBiteRnd::get</text>
</a>
</g>
</g>
<!-- Node4&#45;&gt;Node5 -->
<g id="edge22_Node000004_Node000005" class="edge">
<title>Node4&#45;&gt;Node5</title>
<g id="a_edge22_Node000004_Node000005"><a xlink:title=" ">
<path fill="none" stroke="#63b8ff" d="M420.44,-10C436.06,-10 453.74,-10 469.8,-10"/>
<polygon fill="#63b8ff" stroke="#63b8ff" points="469.65,-13.5 479.65,-10 469.65,-6.5 469.65,-13.5"/>
</a>
</g>
</g>
<!-- Node6 -->
<g id="Node000006" class="node">
<title>Node6</title>
<g id="a_Node000006"><a xlink:href="$class_c_bite_rnd.html#ae1167f8ecac85f268ced4bc1d2fa953b" xlink:title=" ">
<polygon fill="white" stroke="#666666" points="697.25,-20 595.75,-20 595.75,0 697.25,0 697.25,-20"/>
<text text-anchor="middle" x="646.5" y="-6.5" font-family="Helvetica,sans-Serif" font-size="10.00">CBiteRnd::advance</text>
</a>
</g>
</g>
<!-- Node5&#45;&gt;Node6 -->
<g id="edge23_Node000005_Node000006" class="edge">
<title>Node5&#45;&gt;Node6</title>
<g id="a_edge23_Node000005_Node000006"><a xlink:title=" ">
<path fill="none" stroke="#63b8ff" d="M560.14,-10C567.77,-10 575.95,-10 584.12,-10"/>
<polygon fill="#63b8ff" stroke="#63b8ff" points="584.09,-13.5 594.09,-10 584.09,-6.5 584.09,-13.5"/>
</a>
</g>
</g>
</g>
</svg>
