<?xml version="1.0" encoding="UTF-8" standalone="no"?>
<!DOCTYPE svg PUBLIC "-//W3C//DTD SVG 1.1//EN"
 "http://www.w3.org/Graphics/SVG/1.1/DTD/svg11.dtd">
<!-- Generated by graphviz version 12.2.1 (20241206.2353)
 -->
<!-- Title: fcmaes.modecpp.MODE_C.set_guess Pages: 1 -->
<svg width="915pt" height="298pt"
 viewBox="0.00 0.00 914.50 298.00" xmlns="http://www.w3.org/2000/svg" xmlns:xlink="http://www.w3.org/1999/xlink">
<g id="graph0" class="graph" transform="scale(1 1) rotate(0) translate(4 294)">
<title>fcmaes.modecpp.MODE_C.set_guess</title>
<!-- Node1 -->
<g id="Node000001" class="node">
<title>Node1</title>
<g id="a_Node000001"><a xlink:title="Set the initial guess values for optimization along with corresponding function evaluations.">
<polygon fill="#999999" stroke="#666666" points="124,-158 0,-158 0,-126 124,-126 124,-158"/>
<text text-anchor="start" x="8" y="-144.5" font-family="Helvetica,sans-Serif" font-size="10.00">fcmaes.modecpp.MODE</text>
<text text-anchor="middle" x="62" y="-132.5" font-family="Helvetica,sans-Serif" font-size="10.00">_C.set_guess</text>
</a>
</g>
</g>
<!-- Node2 -->
<g id="Node000002" class="node">
<title>Node2</title>
<g id="a_Node000002"><a xlink:href="$classfcmaes_1_1cmaes_1_1_cmaes.html#a398738e6fcf7fe101cce3257fb0d579d" xlink:title="Processes the input function values and updates the internal state of the CMA&#45;ES algorithm.">
<polygon fill="white" stroke="#666666" points="303.12,-290 172.38,-290 172.38,-270 303.12,-270 303.12,-290"/>
<text text-anchor="middle" x="237.75" y="-276.5" font-family="Helvetica,sans-Serif" font-size="10.00">fcmaes.cmaes.Cmaes.tell</text>
</a>
</g>
</g>
<!-- Node1&#45;&gt;Node2 -->
<g id="edge47_Node000001_Node000002" class="edge">
<title>Node1&#45;&gt;Node2</title>
<g id="a_edge47_Node000001_Node000002"><a xlink:title=" ">
<path fill="none" stroke="#63b8ff" d="M71.63,-158.29C86.24,-184.21 118.35,-234.61 160,-261 162.3,-262.46 164.7,-263.8 167.18,-265.04"/>
<polygon fill="#63b8ff" stroke="#63b8ff" points="165.75,-268.24 176.32,-268.99 168.53,-261.81 165.75,-268.24"/>
</a>
</g>
</g>
<!-- Node3 -->
<g id="Node000003" class="node">
<title>Node3</title>
<g id="a_Node000003"><a xlink:href="$classfcmaes_1_1cmaescpp_1_1_a_c_m_a___c.html#a4677822852841d0e52baa48fa91cbcb8" xlink:title="Provides functionality to handle processed arrays and manage operations using the given inputs.">
<polygon fill="white" stroke="#666666" points="302,-252 173.5,-252 173.5,-220 302,-220 302,-252"/>
<text text-anchor="start" x="181.5" y="-238.5" font-family="Helvetica,sans-Serif" font-size="10.00">fcmaes.cmaescpp.ACMA</text>
<text text-anchor="middle" x="237.75" y="-226.5" font-family="Helvetica,sans-Serif" font-size="10.00">_C.tell</text>
</a>
</g>
</g>
<!-- Node1&#45;&gt;Node3 -->
<g id="edge48_Node000001_Node000003" class="edge">
<title>Node1&#45;&gt;Node3</title>
<g id="a_edge48_Node000001_Node000003"><a xlink:title=" ">
<path fill="none" stroke="#63b8ff" d="M82.3,-158.43C101.1,-173.76 131.02,-196.4 160,-211 163.03,-212.53 166.18,-213.99 169.39,-215.38"/>
<polygon fill="#63b8ff" stroke="#63b8ff" points="167.81,-218.52 178.39,-219.04 170.45,-212.04 167.81,-218.52"/>
</a>
</g>
</g>
<!-- Node5 -->
<g id="Node000005" class="node">
<title>Node5</title>
<g id="a_Node000005"><a xlink:href="$classfcmaes_1_1crfmnescpp_1_1_c_r_f_m_n_e_s___c.html#a30327c6b3f1ecc4add777f4a74e83533" xlink:title="Provides functionality to send an array of numerical values to a specific C&#45;based function,...">
<polygon fill="white" stroke="#666666" points="315.5,-202 160,-202 160,-170 315.5,-170 315.5,-202"/>
<text text-anchor="start" x="168" y="-188.5" font-family="Helvetica,sans-Serif" font-size="10.00">fcmaes.crfmnescpp.CRFMNES</text>
<text text-anchor="middle" x="237.75" y="-176.5" font-family="Helvetica,sans-Serif" font-size="10.00">_C.tell</text>
</a>
</g>
</g>
<!-- Node1&#45;&gt;Node5 -->
<g id="edge50_Node000001_Node000005" class="edge">
<title>Node1&#45;&gt;Node5</title>
<g id="a_edge50_Node000001_Node000005"><a xlink:title=" ">
<path fill="none" stroke="#63b8ff" d="M124.26,-157.51C136,-160.49 148.43,-163.63 160.58,-166.71"/>
<polygon fill="#63b8ff" stroke="#63b8ff" points="159.61,-170.07 170.16,-169.14 161.32,-163.29 159.61,-170.07"/>
</a>
</g>
</g>
<!-- Node6 -->
<g id="Node000006" class="node">
<title>Node6</title>
<g id="a_Node000006"><a xlink:href="$classfcmaes_1_1de_1_1_d_e.html#aa9de9d67ac999658a523d2ad8976954b" xlink:title="Tells the algorithm about the function evaluations (objective values) for the proposed solutions and ...">
<polygon fill="white" stroke="#666666" points="285.12,-152 190.38,-152 190.38,-132 285.12,-132 285.12,-152"/>
<text text-anchor="middle" x="237.75" y="-138.5" font-family="Helvetica,sans-Serif" font-size="10.00">fcmaes.de.DE.tell</text>
</a>
</g>
</g>
<!-- Node1&#45;&gt;Node6 -->
<g id="edge51_Node000001_Node000006" class="edge">
<title>Node1&#45;&gt;Node6</title>
<g id="a_edge51_Node000001_Node000006"><a xlink:title=" ">
<path fill="none" stroke="#63b8ff" d="M124.26,-142C141.97,-142 161.24,-142 178.75,-142"/>
<polygon fill="#63b8ff" stroke="#63b8ff" points="178.45,-145.5 188.45,-142 178.45,-138.5 178.45,-145.5"/>
</a>
</g>
</g>
<!-- Node15 -->
<g id="Node000015" class="node">
<title>Node15</title>
<g id="a_Node000015"><a xlink:href="$classfcmaes_1_1decpp_1_1_d_e___c.html#ad53cc4b5553a819096b47115e1f49b42" xlink:title="Updates the object with input data and performs a specific operation using the provided numerical arr...">
<polygon fill="white" stroke="#666666" points="299.38,-114 176.12,-114 176.12,-94 299.38,-94 299.38,-114"/>
<text text-anchor="middle" x="237.75" y="-100.5" font-family="Helvetica,sans-Serif" font-size="10.00">fcmaes.decpp.DE_C.tell</text>
</a>
</g>
</g>
<!-- Node1&#45;&gt;Node15 -->
<g id="edge60_Node000001_Node000015" class="edge">
<title>Node1&#45;&gt;Node15</title>
<g id="a_edge60_Node000001_Node000015"><a xlink:title=" ">
<path fill="none" stroke="#63b8ff" d="M124.26,-128.6C141.65,-124.8 160.55,-120.67 177.8,-116.89"/>
<polygon fill="#63b8ff" stroke="#63b8ff" points="178.37,-120.35 187.39,-114.8 176.87,-113.51 178.37,-120.35"/>
</a>
</g>
</g>
<!-- Node16 -->
<g id="Node000016" class="node">
<title>Node16</title>
<g id="a_Node000016"><a xlink:href="$classfcmaes_1_1mode_1_1_m_o_d_e.html#a8b928c29cf646933a1821566ec18d73a" xlink:title="Updates the internal population data with the given ys values, and optionally, with the corresponding...">
<polygon fill="white" stroke="#666666" points="299.75,-76 175.75,-76 175.75,-56 299.75,-56 299.75,-76"/>
<text text-anchor="middle" x="237.75" y="-62.5" font-family="Helvetica,sans-Serif" font-size="10.00">fcmaes.mode.MODE.tell</text>
</a>
</g>
</g>
<!-- Node1&#45;&gt;Node16 -->
<g id="edge61_Node000001_Node000016" class="edge">
<title>Node1&#45;&gt;Node16</title>
<g id="a_edge61_Node000001_Node000016"><a xlink:title=" ">
<path fill="none" stroke="#63b8ff" d="M86.32,-125.69C105.37,-113.02 133.41,-95.84 160,-85 164.83,-83.03 169.92,-81.23 175.08,-79.59"/>
<polygon fill="#63b8ff" stroke="#63b8ff" points="175.67,-83.06 184.27,-76.87 173.69,-76.35 175.67,-83.06"/>
</a>
</g>
</g>
<!-- Node24 -->
<g id="Node000024" class="node">
<title>Node24</title>
<g id="a_Node000024"><a xlink:href="$classfcmaes_1_1modecpp_1_1_m_o_d_e___c.html#adff2bdf2d7fa9dd5d8aabf4962471e07" xlink:title="Submits new candidate solutions and their corresponding function values to the optimizer.">
<polygon fill="white" stroke="#666666" points="299.75,-38 175.75,-38 175.75,-6 299.75,-6 299.75,-38"/>
<text text-anchor="start" x="183.75" y="-24.5" font-family="Helvetica,sans-Serif" font-size="10.00">fcmaes.modecpp.MODE</text>
<text text-anchor="middle" x="237.75" y="-12.5" font-family="Helvetica,sans-Serif" font-size="10.00">_C.tell</text>
</a>
</g>
</g>
<!-- Node1&#45;&gt;Node24 -->
<g id="edge69_Node000001_Node000024" class="edge">
<title>Node1&#45;&gt;Node24</title>
<g id="a_edge69_Node000001_Node000024"><a xlink:title=" ">
<path fill="none" stroke="#63b8ff" d="M75.69,-125.55C92.72,-104.51 124.93,-68.26 160,-47 162.14,-45.7 164.36,-44.46 166.63,-43.28"/>
<polygon fill="#63b8ff" stroke="#63b8ff" points="167.94,-46.53 175.5,-39.11 164.96,-40.2 167.94,-46.53"/>
</a>
</g>
</g>
<!-- Node4 -->
<g id="Node000004" class="node">
<title>Node4</title>
<g id="a_Node000004"><a xlink:href="$classfcmaes_1_1cmaescpp_1_1_a_c_m_a___c.html#a344851d94557ce52f99da907ee61590d" xlink:title="Passes flattened numpy arrays and interacts with an external C function using ctypes.">
<polygon fill="white" stroke="#666666" points="491.62,-252 363.12,-252 363.12,-220 491.62,-220 491.62,-252"/>
<text text-anchor="start" x="371.12" y="-238.5" font-family="Helvetica,sans-Serif" font-size="10.00">fcmaes.cmaescpp.ACMA</text>
<text text-anchor="middle" x="427.38" y="-226.5" font-family="Helvetica,sans-Serif" font-size="10.00">_C.tell_x_</text>
</a>
</g>
</g>
<!-- Node3&#45;&gt;Node4 -->
<g id="edge49_Node000003_Node000004" class="edge">
<title>Node3&#45;&gt;Node4</title>
<g id="a_edge49_Node000003_Node000004"><a xlink:title=" ">
<path fill="none" stroke="#63b8ff" d="M302.27,-236C318.16,-236 335.36,-236 351.74,-236"/>
<polygon fill="#63b8ff" stroke="#63b8ff" points="351.41,-239.5 361.41,-236 351.41,-232.5 351.41,-239.5"/>
</a>
</g>
</g>
<!-- Node7 -->
<g id="Node000007" class="node">
<title>Node7</title>
<g id="a_Node000007"><a xlink:href="$classfcmaes_1_1cmaes_1_1_cmaes.html#ac7cbecf8b29fb1048bd4cc7ec900692c" xlink:title="Processes the given fitness value and solution vector, performs updates to internal data structures,...">
<polygon fill="white" stroke="#666666" points="503.25,-197 351.5,-197 351.5,-177 503.25,-177 503.25,-197"/>
<text text-anchor="middle" x="427.38" y="-183.5" font-family="Helvetica,sans-Serif" font-size="10.00">fcmaes.cmaes.Cmaes.tell_one</text>
</a>
</g>
</g>
<!-- Node6&#45;&gt;Node7 -->
<g id="edge52_Node000006_Node000007" class="edge">
<title>Node6&#45;&gt;Node7</title>
<g id="a_edge52_Node000006_Node000007"><a xlink:title=" ">
<path fill="none" stroke="#63b8ff" d="M282.27,-152.44C308.93,-158.83 343.29,-167.07 371.77,-173.9"/>
<polygon fill="#63b8ff" stroke="#63b8ff" points="370.76,-177.26 381.3,-176.19 372.39,-170.45 370.76,-177.26"/>
</a>
</g>
</g>
<!-- Node12 -->
<g id="Node000012" class="node">
<title>Node12</title>
<g id="a_Node000012"><a xlink:href="$classfcmaes_1_1de_1_1_d_e.html#a882c7a58bf3f14c342d2a0e0700e31ef" xlink:title="Process a single individual&#39;s evaluation update within a population&#45;based optimization algorithm.">
<polygon fill="white" stroke="#666666" points="485.25,-152 369.5,-152 369.5,-132 485.25,-132 485.25,-152"/>
<text text-anchor="middle" x="427.38" y="-138.5" font-family="Helvetica,sans-Serif" font-size="10.00">fcmaes.de.DE.tell_one</text>
</a>
</g>
</g>
<!-- Node6&#45;&gt;Node12 -->
<g id="edge57_Node000006_Node000012" class="edge">
<title>Node6&#45;&gt;Node12</title>
<g id="a_edge57_Node000006_Node000012"><a xlink:title=" ">
<path fill="none" stroke="#63b8ff" d="M285.61,-142C307.44,-142 333.85,-142 357.86,-142"/>
<polygon fill="#63b8ff" stroke="#63b8ff" points="357.55,-145.5 367.55,-142 357.55,-138.5 357.55,-145.5"/>
</a>
</g>
</g>
<!-- Node8 -->
<g id="Node000008" class="node">
<title>Node8</title>
<g id="a_Node000008"><a xlink:href="$classfcmaes_1_1cmaes_1_1_cmaes.html#a7dada2c399890feafb59c01d1f424ee5" xlink:title="Updates the evolutionary process using the Covariance Matrix Adaptation (CMA) strategy.">
<polygon fill="white" stroke="#666666" points="709,-200 539.25,-200 539.25,-180 709,-180 709,-200"/>
<text text-anchor="middle" x="624.12" y="-186.5" font-family="Helvetica,sans-Serif" font-size="10.00">fcmaes.cmaes.Cmaes.updateCMA</text>
</a>
</g>
</g>
<!-- Node7&#45;&gt;Node8 -->
<g id="edge53_Node000007_Node000008" class="edge">
<title>Node7&#45;&gt;Node8</title>
<g id="a_edge53_Node000007_Node000008"><a xlink:title=" ">
<path fill="none" stroke="#63b8ff" d="M503.67,-188.16C511.53,-188.28 519.59,-188.41 527.63,-188.53"/>
<polygon fill="#63b8ff" stroke="#63b8ff" points="527.4,-192.03 537.45,-188.68 527.51,-185.03 527.4,-192.03"/>
</a>
</g>
</g>
<!-- Node9 -->
<g id="Node000009" class="node">
<title>Node9</title>
<g id="a_Node000009"><a xlink:href="$classfcmaes_1_1cmaes_1_1_cmaes.html#ae26e42639fa8cb28b64c1fe1bcd7109c" xlink:title="Updates the internal state of the covariance matrix and its derived attributes, such as eigenvalues,...">
<polygon fill="white" stroke="#666666" points="906.5,-287 745,-287 745,-267 906.5,-267 906.5,-287"/>
<text text-anchor="middle" x="825.75" y="-273.5" font-family="Helvetica,sans-Serif" font-size="10.00">fcmaes.cmaes.Cmaes.updateBD</text>
</a>
</g>
</g>
<!-- Node8&#45;&gt;Node9 -->
<g id="edge54_Node000008_Node000009" class="edge">
<title>Node8&#45;&gt;Node9</title>
<g id="a_edge54_Node000008_Node000009"><a xlink:title=" ">
<path fill="none" stroke="#63b8ff" d="M640.32,-200.5C662.42,-215.32 705.15,-242.32 745,-258 750.03,-259.98 755.33,-261.79 760.7,-263.44"/>
<polygon fill="#63b8ff" stroke="#63b8ff" points="759.73,-266.8 770.31,-266.18 761.65,-260.07 759.73,-266.8"/>
</a>
</g>
</g>
<!-- Node10 -->
<g id="Node000010" class="node">
<title>Node10</title>
<g id="a_Node000010"><a xlink:href="$classfcmaes_1_1cmaes_1_1_cmaes.html#afd8b8665d87f14c53cd60da16c932336" xlink:title="Updates the covariance matrix and returns the negative covariance scaling factor.">
<polygon fill="white" stroke="#666666" points="899.38,-249 752.12,-249 752.12,-217 899.38,-217 899.38,-249"/>
<text text-anchor="start" x="760.12" y="-235.5" font-family="Helvetica,sans-Serif" font-size="10.00">fcmaes.cmaes.Cmaes.update</text>
<text text-anchor="middle" x="825.75" y="-223.5" font-family="Helvetica,sans-Serif" font-size="10.00">Covariance</text>
</a>
</g>
</g>
<!-- Node8&#45;&gt;Node10 -->
<g id="edge55_Node000008_Node000010" class="edge">
<title>Node8&#45;&gt;Node10</title>
<g id="a_edge55_Node000008_Node000010"><a xlink:title=" ">
<path fill="none" stroke="#63b8ff" d="M673.7,-200.46C693.84,-204.8 717.79,-209.96 740.61,-214.88"/>
<polygon fill="#63b8ff" stroke="#63b8ff" points="739.72,-218.26 750.23,-216.95 741.19,-211.42 739.72,-218.26"/>
</a>
</g>
</g>
<!-- Node11 -->
<g id="Node000011" class="node">
<title>Node11</title>
<g id="a_Node000011"><a xlink:href="$classfcmaes_1_1cmaes_1_1_cmaes.html#ae3fd3fbe79efd9509bb8462382d63bdd" xlink:title="Updates the evolution paths required for generating new samples in the covariance matrix adaptation e...">
<polygon fill="white" stroke="#666666" points="899.38,-199 752.12,-199 752.12,-167 899.38,-167 899.38,-199"/>
<text text-anchor="start" x="760.12" y="-185.5" font-family="Helvetica,sans-Serif" font-size="10.00">fcmaes.cmaes.Cmaes.update</text>
<text text-anchor="middle" x="825.75" y="-173.5" font-family="Helvetica,sans-Serif" font-size="10.00">EvolutionPaths</text>
</a>
</g>
</g>
<!-- Node8&#45;&gt;Node11 -->
<g id="edge56_Node000008_Node000011" class="edge">
<title>Node8&#45;&gt;Node11</title>
<g id="a_edge56_Node000008_Node000011"><a xlink:title=" ">
<path fill="none" stroke="#63b8ff" d="M709.49,-187.04C719.7,-186.68 730.13,-186.32 740.33,-185.96"/>
<polygon fill="#63b8ff" stroke="#63b8ff" points="740.35,-189.46 750.23,-185.61 740.11,-182.47 740.35,-189.46"/>
</a>
</g>
</g>
<!-- Node13 -->
<g id="Node000013" class="node">
<title>Node13</title>
<g id="a_Node000013"><a xlink:href="$classfcmaes_1_1de_1_1_d_e.html#a75e2c22d49dde6bd8f31572ef39152d7" xlink:title="Compute the next feasible point to improve optimization.">
<polygon fill="white" stroke="#666666" points="677.12,-158 571.12,-158 571.12,-126 677.12,-126 677.12,-158"/>
<text text-anchor="start" x="579.12" y="-144.5" font-family="Helvetica,sans-Serif" font-size="10.00">fcmaes.de.DE._next</text>
<text text-anchor="middle" x="624.12" y="-132.5" font-family="Helvetica,sans-Serif" font-size="10.00">_improve</text>
</a>
</g>
</g>
<!-- Node12&#45;&gt;Node13 -->
<g id="edge58_Node000012_Node000013" class="edge">
<title>Node12&#45;&gt;Node13</title>
<g id="a_edge58_Node000012_Node000013"><a xlink:title=" ">
<path fill="none" stroke="#63b8ff" d="M485.49,-142C508.64,-142 535.47,-142 559.27,-142"/>
<polygon fill="#63b8ff" stroke="#63b8ff" points="559.16,-145.5 569.16,-142 559.16,-138.5 559.16,-145.5"/>
</a>
</g>
</g>
<!-- Node14 -->
<g id="Node000014" class="node">
<title>Node14</title>
<g id="a_Node000014"><a xlink:href="$classfcmaes_1_1de_1_1_d_e.html#ac3453c9ebcc0897aedb6a53a8b93ffcd" xlink:title="Checks the feasibility of a value with respect to specified bounds and adjusts it if necessary by cli...">
<polygon fill="white" stroke="#666666" points="886.25,-149 765.25,-149 765.25,-129 886.25,-129 886.25,-149"/>
<text text-anchor="middle" x="825.75" y="-135.5" font-family="Helvetica,sans-Serif" font-size="10.00">fcmaes.de.DE._feasible</text>
</a>
</g>
</g>
<!-- Node13&#45;&gt;Node14 -->
<g id="edge59_Node000013_Node000014" class="edge">
<title>Node13&#45;&gt;Node14</title>
<g id="a_edge59_Node000013_Node000014"><a xlink:title=" ">
<path fill="none" stroke="#63b8ff" d="M677.57,-141.21C700.81,-140.86 728.52,-140.45 753.58,-140.07"/>
<polygon fill="#63b8ff" stroke="#63b8ff" points="753.43,-143.57 763.38,-139.92 753.32,-136.57 753.43,-143.57"/>
</a>
</g>
</g>
<!-- Node17 -->
<g id="Node000017" class="node">
<title>Node17</title>
<g id="a_Node000017"><a xlink:href="$classfcmaes_1_1mode_1_1_m_o_d_e.html#a29791dbcb2e070361529475630de2052" xlink:title="Updates the population by performing non&#45;dominated sorting, crowding distance sorting,...">
<polygon fill="white" stroke="#666666" points="490.88,-76 363.88,-76 363.88,-44 490.88,-44 490.88,-76"/>
<text text-anchor="start" x="371.88" y="-62.5" font-family="Helvetica,sans-Serif" font-size="10.00">fcmaes.mode.MODE.pop</text>
<text text-anchor="middle" x="427.38" y="-50.5" font-family="Helvetica,sans-Serif" font-size="10.00">_update</text>
</a>
</g>
</g>
<!-- Node16&#45;&gt;Node17 -->
<g id="edge62_Node000016_Node000017" class="edge">
<title>Node16&#45;&gt;Node17</title>
<g id="a_edge62_Node000016_Node000017"><a xlink:title=" ">
<path fill="none" stroke="#63b8ff" d="M300.19,-64.04C316.84,-63.5 335.05,-62.92 352.33,-62.37"/>
<polygon fill="#63b8ff" stroke="#63b8ff" points="352.12,-65.88 362,-62.06 351.9,-58.88 352.12,-65.88"/>
</a>
</g>
</g>
<!-- Node18 -->
<g id="Node000018" class="node">
<title>Node18</title>
<g id="a_Node000018"><a xlink:href="$namespacefcmaes_1_1mode.html#a0f27ab476c153a96dba3568003ab075a" xlink:title="Calculates the crowding distance for the first objective in a multi&#45;objective optimization problem.">
<polygon fill="white" stroke="#666666" points="686.88,-108 561.38,-108 561.38,-88 686.88,-88 686.88,-108"/>
<text text-anchor="middle" x="624.12" y="-94.5" font-family="Helvetica,sans-Serif" font-size="10.00">fcmaes.mode.crowd_dist</text>
</a>
</g>
</g>
<!-- Node17&#45;&gt;Node18 -->
<g id="edge63_Node000017_Node000018" class="edge">
<title>Node17&#45;&gt;Node18</title>
<g id="a_edge63_Node000017_Node000018"><a xlink:title=" ">
<path fill="none" stroke="#63b8ff" d="M491.34,-72.29C512.82,-76.48 536.86,-81.17 558.48,-85.39"/>
<polygon fill="#63b8ff" stroke="#63b8ff" points="557.56,-88.77 568.05,-87.25 558.9,-81.9 557.56,-88.77"/>
</a>
</g>
</g>
<!-- Node19 -->
<g id="Node000019" class="node">
<title>Node19</title>
<g id="a_Node000019"><a xlink:href="$namespacefcmaes_1_1mode.html#aee5b0cd4fba6d7edff0afe48a8bc636a" xlink:title="Determines Pareto domination levels for a set of solutions considering objectives and constraint viol...">
<polygon fill="white" stroke="#666666" points="676.75,-70 571.5,-70 571.5,-38 676.75,-38 676.75,-70"/>
<text text-anchor="start" x="579.5" y="-56.5" font-family="Helvetica,sans-Serif" font-size="10.00">fcmaes.mode.pareto</text>
<text text-anchor="middle" x="624.12" y="-44.5" font-family="Helvetica,sans-Serif" font-size="10.00">_domination</text>
</a>
</g>
</g>
<!-- Node17&#45;&gt;Node19 -->
<g id="edge64_Node000017_Node000019" class="edge">
<title>Node17&#45;&gt;Node19</title>
<g id="a_edge64_Node000017_Node000019"><a xlink:title=" ">
<path fill="none" stroke="#63b8ff" d="M491.34,-58.06C513.29,-57.38 537.93,-56.62 559.9,-55.95"/>
<polygon fill="#63b8ff" stroke="#63b8ff" points="559.72,-59.46 569.61,-55.65 559.51,-52.46 559.72,-59.46"/>
</a>
</g>
</g>
<!-- Node23 -->
<g id="Node000023" class="node">
<title>Node23</title>
<g id="a_Node000023"><a xlink:href="$namespacefcmaes_1_1mode.html#afba15234474d356adb0ed83aa94f73a6" xlink:title="Applies genetic variation operations, including simulated binary crossover (SBX) and polynomial mutat...">
<polygon fill="white" stroke="#666666" points="681.62,-20 566.62,-20 566.62,0 681.62,0 681.62,-20"/>
<text text-anchor="middle" x="624.12" y="-6.5" font-family="Helvetica,sans-Serif" font-size="10.00">fcmaes.mode.variation</text>
</a>
</g>
</g>
<!-- Node17&#45;&gt;Node23 -->
<g id="edge68_Node000017_Node000023" class="edge">
<title>Node17&#45;&gt;Node23</title>
<g id="a_edge68_Node000017_Node000023"><a xlink:title=" ">
<path fill="none" stroke="#63b8ff" d="M485.2,-43.52C502.51,-38.67 521.62,-33.46 539.25,-29 547.21,-26.99 555.62,-24.96 563.92,-23.02"/>
<polygon fill="#63b8ff" stroke="#63b8ff" points="564.69,-26.44 573.65,-20.78 563.12,-19.62 564.69,-26.44"/>
</a>
</g>
</g>
<!-- Node20 -->
<g id="Node000020" class="node">
<title>Node20</title>
<g id="a_Node000020"><a xlink:href="$namespacefcmaes_1_1mode.html#a64da91b9fe11c4db2c528851fe65f4e4" xlink:title="Computes the rank of objects based on their sum of ranks across all columns.">
<polygon fill="white" stroke="#666666" points="883.25,-108 768.25,-108 768.25,-88 883.25,-88 883.25,-108"/>
<text text-anchor="middle" x="825.75" y="-94.5" font-family="Helvetica,sans-Serif" font-size="10.00">fcmaes.mode.objranks</text>
</a>
</g>
</g>
<!-- Node19&#45;&gt;Node20 -->
<g id="edge65_Node000019_Node000020" class="edge">
<title>Node19&#45;&gt;Node20</title>
<g id="a_edge65_Node000019_Node000020"><a xlink:title=" ">
<path fill="none" stroke="#63b8ff" d="M677.05,-65.45C704.39,-71.47 738,-78.88 766.25,-85.1"/>
<polygon fill="#63b8ff" stroke="#63b8ff" points="765.19,-88.46 775.71,-87.19 766.69,-81.62 765.19,-88.46"/>
</a>
</g>
</g>
<!-- Node21 -->
<g id="Node000021" class="node">
<title>Node21</title>
<g id="a_Node000021"><a xlink:href="$namespacefcmaes_1_1mode.html#a2570992dd7d42219e4b1381adff7a710" xlink:title="Determines the Pareto levels of a given set of points.">
<polygon fill="white" stroke="#666666" points="878.38,-70 773.12,-70 773.12,-38 878.38,-38 878.38,-70"/>
<text text-anchor="start" x="781.12" y="-56.5" font-family="Helvetica,sans-Serif" font-size="10.00">fcmaes.mode.pareto</text>
<text text-anchor="middle" x="825.75" y="-44.5" font-family="Helvetica,sans-Serif" font-size="10.00">_levels</text>
</a>
</g>
</g>
<!-- Node19&#45;&gt;Node21 -->
<g id="edge66_Node000019_Node000021" class="edge">
<title>Node19&#45;&gt;Node21</title>
<g id="a_edge66_Node000019_Node000021"><a xlink:title=" ">
<path fill="none" stroke="#63b8ff" d="M677.05,-54C702.83,-54 734.19,-54 761.37,-54"/>
<polygon fill="#63b8ff" stroke="#63b8ff" points="761.22,-57.5 771.22,-54 761.22,-50.5 761.22,-57.5"/>
</a>
</g>
</g>
<!-- Node22 -->
<g id="Node000022" class="node">
<title>Node22</title>
<g id="a_Node000022"><a xlink:href="$namespacefcmaes_1_1mode.html#af072da864e0f91afc47942de9a8901a5" xlink:title="Computes the ranks of constraint values, adjusted by their feasibility and scaled by the fraction of ...">
<polygon fill="white" stroke="#666666" points="876.88,-20 774.62,-20 774.62,0 876.88,0 876.88,-20"/>
<text text-anchor="middle" x="825.75" y="-6.5" font-family="Helvetica,sans-Serif" font-size="10.00">fcmaes.mode.ranks</text>
</a>
</g>
</g>
<!-- Node19&#45;&gt;Node22 -->
<g id="edge67_Node000019_Node000022" class="edge">
<title>Node19&#45;&gt;Node22</title>
<g id="a_edge67_Node000019_Node000022"><a xlink:title=" ">
<path fill="none" stroke="#63b8ff" d="M677.05,-42.55C704.39,-36.53 738,-29.12 766.25,-22.9"/>
<polygon fill="#63b8ff" stroke="#63b8ff" points="766.69,-26.38 775.71,-20.81 765.19,-19.54 766.69,-26.38"/>
</a>
</g>
</g>
</g>
</svg>
