<?xml version="1.0" encoding="UTF-8" standalone="no"?>
<!DOCTYPE svg PUBLIC "-//W3C//DTD SVG 1.1//EN"
 "http://www.w3.org/Graphics/SVG/1.1/DTD/svg11.dtd">
<!-- Generated by graphviz version 12.2.1 (20241206.2353)
 -->
<!-- Title: CBiteRnd::getRaw Pages: 1 -->
<svg width="563pt" height="180pt"
 viewBox="0.00 0.00 563.25 180.00" xmlns="http://www.w3.org/2000/svg" xmlns:xlink="http://www.w3.org/1999/xlink">
<g id="graph0" class="graph" transform="scale(1 1) rotate(0) translate(4 176)">
<title>CBiteRnd::getRaw</title>
<!-- Node1 -->
<g id="Node000001" class="node">
<title>Node1</title>
<g id="a_Node000001"><a xlink:title=" ">
<polygon fill="#999999" stroke="#666666" points="555.25,-77 456.75,-77 456.75,-57 555.25,-57 555.25,-77"/>
<text text-anchor="middle" x="506" y="-63.5" font-family="Helvetica,sans-Serif" font-size="10.00">CBiteRnd::getRaw</text>
</a>
</g>
</g>
<!-- Node2 -->
<g id="Node000002" class="node">
<title>Node2</title>
<g id="a_Node000002"><a xlink:href="$class_c_bite_opt.html#a2363863090db7154792f78ec46abcf47" xlink:title=" ">
<polygon fill="white" stroke="#666666" points="420.75,-134 296,-134 296,-114 420.75,-114 420.75,-134"/>
<text text-anchor="middle" x="358.38" y="-120.5" font-family="Helvetica,sans-Serif" font-size="10.00">CBiteOpt::generateSol2c</text>
</a>
</g>
</g>
<!-- Node1&#45;&gt;Node2 -->
<g id="edge17_Node000001_Node000002" class="edge">
<title>Node1&#45;&gt;Node2</title>
<g id="a_edge17_Node000001_Node000002"><a xlink:title=" ">
<path fill="none" stroke="#63b8ff" d="M467.75,-81.59C453.1,-87.33 436.14,-93.98 420.75,-100 409.35,-104.46 396.76,-109.39 385.96,-113.61"/>
<polygon fill="#63b8ff" stroke="#63b8ff" points="469,-84.87 477.03,-77.96 466.44,-78.35 469,-84.87"/>
</a>
</g>
</g>
<!-- Node5 -->
<g id="Node000005" class="node">
<title>Node5</title>
<g id="a_Node000005"><a xlink:href="$class_c_bite_opt.html#a01e7f5a94a2ae837844f8c60ddf21db6" xlink:title=" ">
<polygon fill="white" stroke="#666666" points="257.38,-96 137.88,-96 137.88,-76 257.38,-76 257.38,-96"/>
<text text-anchor="middle" x="197.62" y="-82.5" font-family="Helvetica,sans-Serif" font-size="10.00">CBiteOpt::generateSol5</text>
</a>
</g>
</g>
<!-- Node1&#45;&gt;Node5 -->
<g id="edge21_Node000001_Node000005" class="edge">
<title>Node1&#45;&gt;Node5</title>
<g id="a_edge21_Node000001_Node000005"><a xlink:title=" ">
<path fill="none" stroke="#63b8ff" d="M445.29,-70.7C391.12,-74.06 311.68,-78.99 257.7,-82.34"/>
<polygon fill="#63b8ff" stroke="#63b8ff" points="445.18,-74.22 454.94,-70.1 444.75,-67.23 445.18,-74.22"/>
</a>
</g>
</g>
<!-- Node6 -->
<g id="Node000006" class="node">
<title>Node6</title>
<g id="a_Node000006"><a xlink:href="$class_c_d_e_opt.html#a819e3692005dd630f7bc83d4444e23ee" xlink:title=" ">
<polygon fill="white" stroke="#666666" points="406.5,-58 310.25,-58 310.25,-38 406.5,-38 406.5,-58"/>
<text text-anchor="middle" x="358.38" y="-44.5" font-family="Helvetica,sans-Serif" font-size="10.00">CDEOpt::optimize</text>
</a>
</g>
</g>
<!-- Node1&#45;&gt;Node6 -->
<g id="edge23_Node000001_Node000006" class="edge">
<title>Node1&#45;&gt;Node6</title>
<g id="a_edge23_Node000001_Node000006"><a xlink:title=" ">
<path fill="none" stroke="#63b8ff" d="M445.37,-59.22C432.47,-57.54 419.01,-55.78 406.66,-54.17"/>
<polygon fill="#63b8ff" stroke="#63b8ff" points="444.64,-62.65 455.01,-60.48 445.55,-55.71 444.64,-62.65"/>
</a>
</g>
</g>
<!-- Node7 -->
<g id="Node000007" class="node">
<title>Node7</title>
<g id="a_Node000007"><a xlink:href="$class_c_bite_pop.html#a3b7e8d2276455475bd761e29c8c72ac6" xlink:title=" ">
<polygon fill="white" stroke="#666666" points="415.12,-20 301.62,-20 301.62,0 415.12,0 415.12,-20"/>
<text text-anchor="middle" x="358.38" y="-6.5" font-family="Helvetica,sans-Serif" font-size="10.00">CBitePop::wrapParam</text>
</a>
</g>
</g>
<!-- Node1&#45;&gt;Node7 -->
<g id="edge24_Node000001_Node000007" class="edge">
<title>Node1&#45;&gt;Node7</title>
<g id="a_edge24_Node000001_Node000007"><a xlink:title=" ">
<path fill="none" stroke="#63b8ff" d="M473.63,-51.74C457.94,-44.39 438.55,-35.74 420.75,-29 412.72,-25.96 403.96,-23.03 395.65,-20.42"/>
<polygon fill="#63b8ff" stroke="#63b8ff" points="471.93,-54.81 482.47,-55.93 474.93,-48.48 471.93,-54.81"/>
</a>
</g>
</g>
<!-- Node3 -->
<g id="Node000003" class="node">
<title>Node3</title>
<g id="a_Node000003"><a xlink:href="$class_c_bite_opt.html#a76fa9d8bf4abde13b69e06761acc82f5" xlink:title=" ">
<polygon fill="white" stroke="#666666" points="260,-172 135.25,-172 135.25,-152 260,-152 260,-172"/>
<text text-anchor="middle" x="197.62" y="-158.5" font-family="Helvetica,sans-Serif" font-size="10.00">CBiteOpt::generateSol2d</text>
</a>
</g>
</g>
<!-- Node2&#45;&gt;Node3 -->
<g id="edge18_Node000002_Node000003" class="edge">
<title>Node2&#45;&gt;Node3</title>
<g id="a_edge18_Node000002_Node000003"><a xlink:title=" ">
<path fill="none" stroke="#63b8ff" d="M302.58,-137.12C282.87,-141.83 260.92,-147.09 242.28,-151.55"/>
<polygon fill="#63b8ff" stroke="#63b8ff" points="303.19,-140.57 312.1,-134.84 301.56,-133.76 303.19,-140.57"/>
</a>
</g>
</g>
<!-- Node4 -->
<g id="Node000004" class="node">
<title>Node4</title>
<g id="a_Node000004"><a xlink:href="$class_c_bite_opt.html#a2f56a9d5d682c92e2da1234ed68d54ed" xlink:title=" ">
<polygon fill="white" stroke="#666666" points="99.25,-134 0,-134 0,-114 99.25,-114 99.25,-134"/>
<text text-anchor="middle" x="49.62" y="-120.5" font-family="Helvetica,sans-Serif" font-size="10.00">CBiteOpt::optimize</text>
</a>
</g>
</g>
<!-- Node2&#45;&gt;Node4 -->
<g id="edge20_Node000002_Node000004" class="edge">
<title>Node2&#45;&gt;Node4</title>
<g id="a_edge20_Node000002_Node000004"><a xlink:title=" ">
<path fill="none" stroke="#63b8ff" d="M284.18,-124C227.1,-124 149.4,-124 99.62,-124"/>
<polygon fill="#63b8ff" stroke="#63b8ff" points="284.16,-127.5 294.16,-124 284.15,-120.5 284.16,-127.5"/>
</a>
</g>
</g>
<!-- Node3&#45;&gt;Node4 -->
<g id="edge19_Node000003_Node000004" class="edge">
<title>Node3&#45;&gt;Node4</title>
<g id="a_edge19_Node000003_Node000004"><a xlink:title=" ">
<path fill="none" stroke="#63b8ff" d="M145.22,-148.62C127.36,-143.97 107.6,-138.83 90.78,-134.45"/>
<polygon fill="#63b8ff" stroke="#63b8ff" points="144.32,-152 154.88,-151.13 146.08,-145.23 144.32,-152"/>
</a>
</g>
</g>
<!-- Node5&#45;&gt;Node4 -->
<g id="edge22_Node000005_Node000004" class="edge">
<title>Node5&#45;&gt;Node4</title>
<g id="a_edge22_Node000005_Node000004"><a xlink:title=" ">
<path fill="none" stroke="#63b8ff" d="M145.22,-99.38C127.36,-104.03 107.6,-109.17 90.78,-113.55"/>
<polygon fill="#63b8ff" stroke="#63b8ff" points="146.08,-102.77 154.88,-96.87 144.32,-96 146.08,-102.77"/>
</a>
</g>
</g>
</g>
</svg>
