<?xml version="1.0" encoding="UTF-8" standalone="no"?>
<!DOCTYPE svg PUBLIC "-//W3C//DTD SVG 1.1//EN"
 "http://www.w3.org/Graphics/SVG/1.1/DTD/svg11.dtd">
<!-- Generated by graphviz version 12.2.1 (20241206.2353)
 -->
<!-- Title: acmaes::AcmaesOptimizer::do_optimize_delayed_update Pages: 1 -->
<svg width="927pt" height="251pt"
 viewBox="0.00 0.00 926.75 251.00" xmlns="http://www.w3.org/2000/svg" xmlns:xlink="http://www.w3.org/1999/xlink">
<g id="graph0" class="graph" transform="scale(1 1) rotate(0) translate(4 247)">
<title>acmaes::AcmaesOptimizer::do_optimize_delayed_update</title>
<!-- Node1 -->
<g id="Node000001" class="node">
<title>Node1</title>
<g id="a_Node000001"><a xlink:title=" ">
<polygon fill="#999999" stroke="#666666" points="134.5,-198 0,-198 0,-154 134.5,-154 134.5,-198"/>
<text text-anchor="start" x="8" y="-184.5" font-family="Helvetica,sans-Serif" font-size="10.00">acmaes::AcmaesOptimizer</text>
<text text-anchor="start" x="8" y="-172.5" font-family="Helvetica,sans-Serif" font-size="10.00">::do_optimize_delayed</text>
<text text-anchor="middle" x="67.25" y="-160.5" font-family="Helvetica,sans-Serif" font-size="10.00">_update</text>
</a>
</g>
</g>
<!-- Node2 -->
<g id="Node000002" class="node">
<title>Node2</title>
<g id="a_Node000002"><a xlink:href="$classacmaes_1_1_acmaes_optimizer.html#a76117dfd997b8f098304f5d4f0fbf52e" xlink:title=" ">
<polygon fill="white" stroke="#666666" points="326.75,-243 170.5,-243 170.5,-223 326.75,-223 326.75,-243"/>
<text text-anchor="middle" x="248.62" y="-229.5" font-family="Helvetica,sans-Serif" font-size="10.00">acmaes::AcmaesOptimizer::ask</text>
</a>
</g>
</g>
<!-- Node1&#45;&gt;Node2 -->
<g id="edge31_Node000001_Node000002" class="edge">
<title>Node1&#45;&gt;Node2</title>
<g id="a_edge31_Node000001_Node000002"><a xlink:title=" ">
<path fill="none" stroke="#63b8ff" d="M125.18,-198.47C139.83,-203.89 155.66,-209.43 170.5,-214 176.83,-215.95 183.5,-217.84 190.17,-219.62"/>
<polygon fill="#63b8ff" stroke="#63b8ff" points="189.28,-223 199.84,-222.12 191.04,-216.23 189.28,-223"/>
</a>
</g>
</g>
<!-- Node4 -->
<g id="Node000004" class="node">
<title>Node4</title>
<g id="a_Node000004"><a xlink:href="$classevaluator.html#a62e9fb557b5a2ecfabc49a01eb7f59d5" xlink:title=" ">
<polygon fill="white" stroke="#666666" points="297.88,-205 199.38,-205 199.38,-185 297.88,-185 297.88,-205"/>
<text text-anchor="middle" x="248.62" y="-191.5" font-family="Helvetica,sans-Serif" font-size="10.00">evaluator::evaluate</text>
</a>
</g>
</g>
<!-- Node1&#45;&gt;Node4 -->
<g id="edge33_Node000001_Node000004" class="edge">
<title>Node1&#45;&gt;Node4</title>
<g id="a_edge33_Node000001_Node000004"><a xlink:title=" ">
<path fill="none" stroke="#63b8ff" d="M134.79,-183.05C152.29,-184.9 171.06,-186.89 188.16,-188.7"/>
<polygon fill="#63b8ff" stroke="#63b8ff" points="187.31,-192.13 197.63,-189.7 188.05,-185.17 187.31,-192.13"/>
</a>
</g>
</g>
<!-- Node5 -->
<g id="Node000005" class="node">
<title>Node5</title>
<g id="a_Node000005"><a xlink:href="$classevaluator.html#a71fc6fd970c9d9f19af8202500c51b05" xlink:title=" ">
<polygon fill="white" stroke="#666666" points="291.5,-167 205.75,-167 205.75,-147 291.5,-147 291.5,-167"/>
<text text-anchor="middle" x="248.62" y="-153.5" font-family="Helvetica,sans-Serif" font-size="10.00">evaluator::result</text>
</a>
</g>
</g>
<!-- Node1&#45;&gt;Node5 -->
<g id="edge34_Node000001_Node000005" class="edge">
<title>Node1&#45;&gt;Node5</title>
<g id="a_edge34_Node000001_Node000005"><a xlink:title=" ">
<path fill="none" stroke="#63b8ff" d="M134.79,-168.95C154.36,-166.88 175.5,-164.64 194.14,-162.67"/>
<polygon fill="#63b8ff" stroke="#63b8ff" points="194.31,-166.17 203.88,-161.63 193.57,-159.21 194.31,-166.17"/>
</a>
</g>
</g>
<!-- Node6 -->
<g id="Node000006" class="node">
<title>Node6</title>
<g id="a_Node000006"><a xlink:href="$classacmaes_1_1_acmaes_optimizer.html#ac1703b5f2c650cf8da235ea475e17d6f" xlink:title=" ">
<polygon fill="white" stroke="#666666" points="315.88,-129 181.38,-129 181.38,-97 315.88,-97 315.88,-129"/>
<text text-anchor="start" x="189.38" y="-115.5" font-family="Helvetica,sans-Serif" font-size="10.00">acmaes::AcmaesOptimizer</text>
<text text-anchor="middle" x="248.62" y="-103.5" font-family="Helvetica,sans-Serif" font-size="10.00">::tell</text>
</a>
</g>
</g>
<!-- Node1&#45;&gt;Node6 -->
<g id="edge35_Node000001_Node000006" class="edge">
<title>Node1&#45;&gt;Node6</title>
<g id="a_edge35_Node000001_Node000006"><a xlink:title=" ">
<path fill="none" stroke="#63b8ff" d="M127.3,-153.57C141.41,-148.34 156.46,-142.88 170.5,-138 175.27,-136.34 180.21,-134.66 185.19,-132.99"/>
<polygon fill="#63b8ff" stroke="#63b8ff" points="186.26,-136.32 194.64,-129.85 184.05,-129.68 186.26,-136.32"/>
</a>
</g>
</g>
<!-- Node3 -->
<g id="Node000003" class="node">
<title>Node3</title>
<g id="a_Node000003"><a xlink:href="$evaluator_8h.html#a5b652df2286e1f0c4dae7d4dd841bb8f" xlink:title=" ">
<polygon fill="white" stroke="#666666" points="460.88,-243 399.12,-243 399.12,-223 460.88,-223 460.88,-243"/>
<text text-anchor="middle" x="430" y="-229.5" font-family="Helvetica,sans-Serif" font-size="10.00">normalVec</text>
</a>
</g>
</g>
<!-- Node2&#45;&gt;Node3 -->
<g id="edge32_Node000002_Node000003" class="edge">
<title>Node2&#45;&gt;Node3</title>
<g id="a_edge32_Node000002_Node000003"><a xlink:title=" ">
<path fill="none" stroke="#63b8ff" d="M327,-233C347.84,-233 369.59,-233 387.63,-233"/>
<polygon fill="#63b8ff" stroke="#63b8ff" points="387.38,-236.5 397.38,-233 387.38,-229.5 387.38,-236.5"/>
</a>
</g>
</g>
<!-- Node7 -->
<g id="Node000007" class="node">
<title>Node7</title>
<g id="a_Node000007"><a xlink:href="$evaluator_8h.html#a231544ac51b3f9312c104a3b7a3c49a6" xlink:title=" ">
<polygon fill="white" stroke="#666666" points="452.62,-145 407.38,-145 407.38,-125 452.62,-125 452.62,-145"/>
<text text-anchor="middle" x="430" y="-131.5" font-family="Helvetica,sans-Serif" font-size="10.00">normal</text>
</a>
</g>
</g>
<!-- Node6&#45;&gt;Node7 -->
<g id="edge36_Node000006_Node000007" class="edge">
<title>Node6&#45;&gt;Node7</title>
<g id="a_edge36_Node000006_Node000007"><a xlink:title=" ">
<path fill="none" stroke="#63b8ff" d="M316.16,-121.16C343.38,-124.5 373.64,-128.21 395.97,-130.95"/>
<polygon fill="#63b8ff" stroke="#63b8ff" points="395.33,-134.4 405.68,-132.14 396.18,-127.45 395.33,-134.4"/>
</a>
</g>
</g>
<!-- Node8 -->
<g id="Node000008" class="node">
<title>Node8</title>
<g id="a_Node000008"><a xlink:href="$classacmaes_1_1_acmaes_optimizer.html#a36c0bd51d20f3c63e8cadf76421fc5d4" xlink:title=" ">
<polygon fill="white" stroke="#666666" points="497.25,-107 362.75,-107 362.75,-75 497.25,-75 497.25,-107"/>
<text text-anchor="start" x="370.75" y="-93.5" font-family="Helvetica,sans-Serif" font-size="10.00">acmaes::AcmaesOptimizer</text>
<text text-anchor="middle" x="430" y="-81.5" font-family="Helvetica,sans-Serif" font-size="10.00">::updateCMA</text>
</a>
</g>
</g>
<!-- Node6&#45;&gt;Node8 -->
<g id="edge37_Node000006_Node000008" class="edge">
<title>Node6&#45;&gt;Node8</title>
<g id="a_edge37_Node000006_Node000008"><a xlink:title=" ">
<path fill="none" stroke="#63b8ff" d="M316.16,-104.84C327.57,-103.44 339.52,-101.97 351.19,-100.54"/>
<polygon fill="#63b8ff" stroke="#63b8ff" points="351.27,-104.06 360.77,-99.37 350.42,-97.11 351.27,-104.06"/>
</a>
</g>
</g>
<!-- Node9 -->
<g id="Node000009" class="node">
<title>Node9</title>
<g id="a_Node000009"><a xlink:href="$evaluator_8h.html#a7689f88ea48c85c22d9b34208decd67c" xlink:title=" ">
<polygon fill="white" stroke="#666666" points="778.25,-151 717.25,-151 717.25,-131 778.25,-131 778.25,-151"/>
<text text-anchor="middle" x="747.75" y="-137.5" font-family="Helvetica,sans-Serif" font-size="10.00">sort_index</text>
</a>
</g>
</g>
<!-- Node8&#45;&gt;Node9 -->
<g id="edge38_Node000008_Node000009" class="edge">
<title>Node8&#45;&gt;Node9</title>
<g id="a_edge38_Node000008_Node000009"><a xlink:title=" ">
<path fill="none" stroke="#63b8ff" d="M478.67,-107.36C485.03,-110.01 491.37,-112.91 497.25,-116 514.49,-125.06 514.66,-135.18 533.25,-141 590.92,-159.06 661.74,-154.12 705.56,-148.14"/>
<polygon fill="#63b8ff" stroke="#63b8ff" points="706.01,-151.61 715.4,-146.71 705,-144.69 706.01,-151.61"/>
</a>
</g>
</g>
<!-- Node11 -->
<g id="Node000011" class="node">
<title>Node11</title>
<g id="a_Node000011"><a xlink:href="$classacmaes_1_1_acmaes_optimizer.html#a6e1292651cf19abf87f9ece1aa9c92d7" xlink:title=" ">
<polygon fill="white" stroke="#666666" points="667.75,-132 533.25,-132 533.25,-100 667.75,-100 667.75,-132"/>
<text text-anchor="start" x="541.25" y="-118.5" font-family="Helvetica,sans-Serif" font-size="10.00">acmaes::AcmaesOptimizer</text>
<text text-anchor="middle" x="600.5" y="-106.5" font-family="Helvetica,sans-Serif" font-size="10.00">::updateBD</text>
</a>
</g>
</g>
<!-- Node8&#45;&gt;Node11 -->
<g id="edge40_Node000008_Node000011" class="edge">
<title>Node8&#45;&gt;Node11</title>
<g id="a_edge40_Node000008_Node000011"><a xlink:title=" ">
<path fill="none" stroke="#63b8ff" d="M497.6,-100.88C505.47,-102.05 513.57,-103.25 521.58,-104.44"/>
<polygon fill="#63b8ff" stroke="#63b8ff" points="520.93,-107.88 531.34,-105.89 521.96,-100.96 520.93,-107.88"/>
</a>
</g>
</g>
<!-- Node12 -->
<g id="Node000012" class="node">
<title>Node12</title>
<g id="a_Node000012"><a xlink:href="$classacmaes_1_1_acmaes_optimizer.html#a911e67d9e8445b3a8be575f184341b8e" xlink:title=" ">
<polygon fill="white" stroke="#666666" points="667.75,-82 533.25,-82 533.25,-50 667.75,-50 667.75,-82"/>
<text text-anchor="start" x="541.25" y="-68.5" font-family="Helvetica,sans-Serif" font-size="10.00">acmaes::AcmaesOptimizer</text>
<text text-anchor="middle" x="600.5" y="-56.5" font-family="Helvetica,sans-Serif" font-size="10.00">::updateCovariance</text>
</a>
</g>
</g>
<!-- Node8&#45;&gt;Node12 -->
<g id="edge41_Node000008_Node000012" class="edge">
<title>Node8&#45;&gt;Node12</title>
<g id="a_edge41_Node000008_Node000012"><a xlink:title=" ">
<path fill="none" stroke="#63b8ff" d="M497.6,-81.12C505.47,-79.95 513.57,-78.75 521.58,-77.56"/>
<polygon fill="#63b8ff" stroke="#63b8ff" points="521.96,-81.04 531.34,-76.11 520.93,-74.12 521.96,-81.04"/>
</a>
</g>
</g>
<!-- Node14 -->
<g id="Node000014" class="node">
<title>Node14</title>
<g id="a_Node000014"><a xlink:href="$classacmaes_1_1_acmaes_optimizer.html#ae9f3415b9bcc43366193e7d4b0beda87" xlink:title=" ">
<polygon fill="white" stroke="#666666" points="667.75,-32 533.25,-32 533.25,0 667.75,0 667.75,-32"/>
<text text-anchor="start" x="541.25" y="-18.5" font-family="Helvetica,sans-Serif" font-size="10.00">acmaes::AcmaesOptimizer</text>
<text text-anchor="middle" x="600.5" y="-6.5" font-family="Helvetica,sans-Serif" font-size="10.00">::updateEvolutionPaths</text>
</a>
</g>
</g>
<!-- Node8&#45;&gt;Node14 -->
<g id="edge45_Node000008_Node000014" class="edge">
<title>Node8&#45;&gt;Node14</title>
<g id="a_edge45_Node000008_Node000014"><a xlink:title=" ">
<path fill="none" stroke="#63b8ff" d="M462.42,-74.68C482.47,-64.51 509.12,-51.42 533.25,-41 536.64,-39.54 540.14,-38.07 543.68,-36.63"/>
<polygon fill="#63b8ff" stroke="#63b8ff" points="544.96,-39.89 552.96,-32.94 542.38,-33.38 544.96,-39.89"/>
</a>
</g>
</g>
<!-- Node10 -->
<g id="Node000010" class="node">
<title>Node10</title>
<g id="a_Node000010"><a xlink:href="$evaluator_8h.html#a85426eb5cecc23caa06090d795034e5c" xlink:title=" ">
<polygon fill="white" stroke="#666666" points="918.75,-151 827.75,-151 827.75,-131 918.75,-131 918.75,-151"/>
<text text-anchor="middle" x="873.25" y="-137.5" font-family="Helvetica,sans-Serif" font-size="10.00">compareIndexVal</text>
</a>
</g>
</g>
<!-- Node9&#45;&gt;Node10 -->
<g id="edge39_Node000009_Node000010" class="edge">
<title>Node9&#45;&gt;Node10</title>
<g id="a_edge39_Node000009_Node000010"><a xlink:title=" ">
<path fill="none" stroke="#63b8ff" d="M778.65,-141C790.02,-141 803.38,-141 816.39,-141"/>
<polygon fill="#63b8ff" stroke="#63b8ff" points="816.16,-144.5 826.16,-141 816.16,-137.5 816.16,-144.5"/>
</a>
</g>
</g>
<!-- Node12&#45;&gt;Node9 -->
<g id="edge44_Node000012_Node000009" class="edge">
<title>Node12&#45;&gt;Node9</title>
<g id="a_edge44_Node000012_Node000009"><a xlink:title=" ">
<path fill="none" stroke="#63b8ff" d="M648.7,-82.45C655.19,-85.11 661.7,-87.98 667.75,-91 687.17,-100.68 707.86,-113.89 723.19,-124.3"/>
<polygon fill="#63b8ff" stroke="#63b8ff" points="720.96,-127.01 731.18,-129.81 724.93,-121.25 720.96,-127.01"/>
</a>
</g>
</g>
<!-- Node13 -->
<g id="Node000013" class="node">
<title>Node13</title>
<g id="a_Node000013"><a xlink:href="$namespaceacmaes.html#a8f3b844e07e4684f10852956288758de" xlink:title=" ">
<polygon fill="white" stroke="#666666" points="791.75,-76 703.75,-76 703.75,-56 791.75,-56 791.75,-76"/>
<text text-anchor="middle" x="747.75" y="-62.5" font-family="Helvetica,sans-Serif" font-size="10.00">acmaes::inverse</text>
</a>
</g>
</g>
<!-- Node12&#45;&gt;Node13 -->
<g id="edge42_Node000012_Node000013" class="edge">
<title>Node12&#45;&gt;Node13</title>
<g id="a_edge42_Node000012_Node000013"><a xlink:title=" ">
<path fill="none" stroke="#63b8ff" d="M668.17,-66C676.1,-66 684.12,-66 691.85,-66"/>
<polygon fill="#63b8ff" stroke="#63b8ff" points="691.8,-69.5 701.8,-66 691.8,-62.5 691.8,-69.5"/>
</a>
</g>
</g>
<!-- Node13&#45;&gt;Node13 -->
<g id="edge43_Node000013_Node000013" class="edge">
<title>Node13&#45;&gt;Node13</title>
<g id="a_edge43_Node000013_Node000013"><a xlink:title=" ">
<path fill="none" stroke="#63b8ff" d="M727.81,-76.34C719.29,-84.98 725.93,-94 747.75,-94 759.68,-94 767.07,-91.3 769.93,-87.44"/>
<polygon fill="#63b8ff" stroke="#63b8ff" points="773.4,-86.93 767.99,-77.82 766.54,-88.32 773.4,-86.93"/>
</a>
</g>
</g>
</g>
</svg>
