<?xml version="1.0" encoding="UTF-8" standalone="no"?>
<!DOCTYPE svg PUBLIC "-//W3C//DTD SVG 1.1//EN"
 "http://www.w3.org/Graphics/SVG/1.1/DTD/svg11.dtd">
<!-- Generated by graphviz version 12.2.1 (20241206.2353)
 -->
<!-- Title: examples.crypto.fitness.mofun Pages: 1 -->
<svg width="962pt" height="132pt"
 viewBox="0.00 0.00 962.00 132.00" xmlns="http://www.w3.org/2000/svg" xmlns:xlink="http://www.w3.org/1999/xlink">
<g id="graph0" class="graph" transform="scale(1 1) rotate(0) translate(4 128)">
<title>examples.crypto.fitness.mofun</title>
<!-- Node1 -->
<g id="Node000001" class="node">
<title>Node1</title>
<g id="a_Node000001"><a xlink:title=" ">
<polygon fill="#999999" stroke="#666666" points="150.25,-86 0,-86 0,-66 150.25,-66 150.25,-86"/>
<text text-anchor="middle" x="75.12" y="-72.5" font-family="Helvetica,sans-Serif" font-size="10.00">examples.crypto.fitness.mofun</text>
</a>
</g>
</g>
<!-- Node2 -->
<g id="Node000002" class="node">
<title>Node2</title>
<g id="a_Node000002"><a xlink:href="$classexamples_1_1crypto_1_1fitness.html#a5a933388f6d0303f80251156e30e6b9b" xlink:title=" ">
<polygon fill="white" stroke="#666666" points="323,-86 186.25,-86 186.25,-66 323,-66 323,-86"/>
<text text-anchor="middle" x="254.62" y="-72.5" font-family="Helvetica,sans-Serif" font-size="10.00">examples.crypto.fitness.fun</text>
</a>
</g>
</g>
<!-- Node1&#45;&gt;Node2 -->
<g id="edge21_Node000001_Node000002" class="edge">
<title>Node1&#45;&gt;Node2</title>
<g id="a_edge21_Node000001_Node000002"><a xlink:title=" ">
<path fill="none" stroke="#63b8ff" d="M150.63,-76C158.47,-76 166.46,-76 174.35,-76"/>
<polygon fill="#63b8ff" stroke="#63b8ff" points="174.3,-79.5 184.3,-76 174.3,-72.5 174.3,-79.5"/>
</a>
</g>
</g>
<!-- Node3 -->
<g id="Node000003" class="node">
<title>Node3</title>
<g id="a_Node000003"><a xlink:href="$namespaceexamples_1_1crypto.html#a75d529296c6d83294ad1c37e55bd267f" xlink:title=" ">
<polygon fill="white" stroke="#666666" points="486.75,-86 359,-86 359,-66 486.75,-66 486.75,-86"/>
<text text-anchor="middle" x="422.88" y="-72.5" font-family="Helvetica,sans-Serif" font-size="10.00">examples.crypto.simulate</text>
</a>
</g>
</g>
<!-- Node2&#45;&gt;Node3 -->
<g id="edge22_Node000002_Node000003" class="edge">
<title>Node2&#45;&gt;Node3</title>
<g id="a_edge22_Node000002_Node000003"><a xlink:title=" ">
<path fill="none" stroke="#63b8ff" d="M323.25,-76C331.19,-76 339.33,-76 347.36,-76"/>
<polygon fill="#63b8ff" stroke="#63b8ff" points="347.09,-79.5 357.09,-76 347.09,-72.5 347.09,-79.5"/>
</a>
</g>
</g>
<!-- Node4 -->
<g id="Node000004" class="node">
<title>Node4</title>
<g id="a_Node000004"><a xlink:href="$namespaceexamples_1_1crypto.html#a38e3ca807ed30d1fa4d4a5cc478e1525" xlink:title=" ">
<polygon fill="white" stroke="#666666" points="651.25,-124 522.75,-124 522.75,-104 651.25,-104 651.25,-124"/>
<text text-anchor="middle" x="587" y="-110.5" font-family="Helvetica,sans-Serif" font-size="10.00">examples.crypto.get_ema</text>
</a>
</g>
</g>
<!-- Node3&#45;&gt;Node4 -->
<g id="edge23_Node000003_Node000004" class="edge">
<title>Node3&#45;&gt;Node4</title>
<g id="a_edge23_Node000003_Node000004"><a xlink:title=" ">
<path fill="none" stroke="#63b8ff" d="M468.61,-86.48C487.74,-90.97 510.29,-96.25 530.48,-100.99"/>
<polygon fill="#63b8ff" stroke="#63b8ff" points="529.41,-104.33 539.94,-103.2 531,-97.51 529.41,-104.33"/>
</a>
</g>
</g>
<!-- Node5 -->
<g id="Node000005" class="node">
<title>Node5</title>
<g id="a_Node000005"><a xlink:href="$namespaceexamples_1_1crypto.html#a8fe56bb9960bb347eee6e2c39ddbd90f" xlink:title=" ">
<polygon fill="white" stroke="#666666" points="651.25,-86 522.75,-86 522.75,-66 651.25,-66 651.25,-86"/>
<text text-anchor="middle" x="587" y="-72.5" font-family="Helvetica,sans-Serif" font-size="10.00">examples.crypto.get_sma</text>
</a>
</g>
</g>
<!-- Node3&#45;&gt;Node5 -->
<g id="edge24_Node000003_Node000005" class="edge">
<title>Node3&#45;&gt;Node5</title>
<g id="a_edge24_Node000003_Node000005"><a xlink:title=" ">
<path fill="none" stroke="#63b8ff" d="M487.02,-76C494.94,-76 503.09,-76 511.17,-76"/>
<polygon fill="#63b8ff" stroke="#63b8ff" points="510.98,-79.5 520.98,-76 510.98,-72.5 510.98,-79.5"/>
</a>
</g>
</g>
<!-- Node6 -->
<g id="Node000006" class="node">
<title>Node6</title>
<g id="a_Node000006"><a xlink:href="$namespaceexamples_1_1crypto.html#a61f6c93fa62a257ed271a0aa1210f604" xlink:title=" ">
<polygon fill="white" stroke="#666666" points="650.12,-48 523.88,-48 523.88,-28 650.12,-28 650.12,-48"/>
<text text-anchor="middle" x="587" y="-34.5" font-family="Helvetica,sans-Serif" font-size="10.00">examples.crypto.strategy</text>
</a>
</g>
</g>
<!-- Node3&#45;&gt;Node6 -->
<g id="edge25_Node000003_Node000006" class="edge">
<title>Node3&#45;&gt;Node6</title>
<g id="a_edge25_Node000003_Node000006"><a xlink:title=" ">
<path fill="none" stroke="#63b8ff" d="M468.61,-65.52C487.74,-61.03 510.29,-55.75 530.48,-51.01"/>
<polygon fill="#63b8ff" stroke="#63b8ff" points="531,-54.49 539.94,-48.8 529.41,-47.67 531,-54.49"/>
</a>
</g>
</g>
<!-- Node7 -->
<g id="Node000007" class="node">
<title>Node7</title>
<g id="a_Node000007"><a xlink:href="$namespaceexamples_1_1crypto.html#a54eb39bc81fed172b7d1d74dcec022c2" xlink:title=" ">
<polygon fill="white" stroke="#666666" points="954,-67 832.25,-67 832.25,-47 954,-47 954,-67"/>
<text text-anchor="middle" x="893.12" y="-53.5" font-family="Helvetica,sans-Serif" font-size="10.00">examples.crypto.buy_all</text>
</a>
</g>
</g>
<!-- Node6&#45;&gt;Node7 -->
<g id="edge26_Node000006_Node000007" class="edge">
<title>Node6&#45;&gt;Node7</title>
<g id="a_edge26_Node000006_Node000007"><a xlink:title=" ">
<path fill="none" stroke="#63b8ff" d="M632.7,-48.42C649.68,-51.88 669.26,-55.29 687.25,-57 731.4,-61.19 781.15,-61.3 820.57,-60.31"/>
<polygon fill="#63b8ff" stroke="#63b8ff" points="820.51,-63.81 830.41,-60.03 820.31,-56.81 820.51,-63.81"/>
</a>
</g>
</g>
<!-- Node8 -->
<g id="Node000008" class="node">
<title>Node8</title>
<g id="a_Node000008"><a xlink:href="$namespaceexamples_1_1crypto.html#a941dc0c737b40581bde98db6aef23525" xlink:title=" ">
<polygon fill="white" stroke="#666666" points="796.25,-48 687.25,-48 687.25,-28 796.25,-28 796.25,-48"/>
<text text-anchor="middle" x="741.75" y="-34.5" font-family="Helvetica,sans-Serif" font-size="10.00">examples.crypto.hodl</text>
</a>
</g>
</g>
<!-- Node6&#45;&gt;Node8 -->
<g id="edge27_Node000006_Node000008" class="edge">
<title>Node6&#45;&gt;Node8</title>
<g id="a_edge27_Node000006_Node000008"><a xlink:title=" ">
<path fill="none" stroke="#63b8ff" d="M650.57,-38C658.75,-38 667.14,-38 675.36,-38"/>
<polygon fill="#63b8ff" stroke="#63b8ff" points="675.31,-41.5 685.31,-38 675.31,-34.5 675.31,-41.5"/>
</a>
</g>
</g>
<!-- Node9 -->
<g id="Node000009" class="node">
<title>Node9</title>
<g id="a_Node000009"><a xlink:href="$namespaceexamples_1_1crypto.html#a8e16e3bee50df8bd1b44e55fe8950e10" xlink:title=" ">
<polygon fill="white" stroke="#666666" points="953.62,-20 832.62,-20 832.62,0 953.62,0 953.62,-20"/>
<text text-anchor="middle" x="893.12" y="-6.5" font-family="Helvetica,sans-Serif" font-size="10.00">examples.crypto.sell_all</text>
</a>
</g>
</g>
<!-- Node6&#45;&gt;Node9 -->
<g id="edge30_Node000006_Node000009" class="edge">
<title>Node6&#45;&gt;Node9</title>
<g id="a_edge30_Node000006_Node000009"><a xlink:title=" ">
<path fill="none" stroke="#63b8ff" d="M635.24,-27.51C651.63,-24.25 670.17,-21 687.25,-19 731.5,-13.82 781.45,-11.55 820.95,-10.59"/>
<polygon fill="#63b8ff" stroke="#63b8ff" points="820.89,-14.09 830.81,-10.37 820.74,-7.09 820.89,-14.09"/>
</a>
</g>
</g>
<!-- Node8&#45;&gt;Node7 -->
<g id="edge28_Node000008_Node000007" class="edge">
<title>Node8&#45;&gt;Node7</title>
<g id="a_edge28_Node000008_Node000007"><a xlink:title=" ">
<path fill="none" stroke="#63b8ff" d="M796.68,-44.86C804.46,-45.85 812.57,-46.88 820.63,-47.91"/>
<polygon fill="#63b8ff" stroke="#63b8ff" points="820.08,-51.36 830.45,-49.15 820.97,-44.42 820.08,-51.36"/>
</a>
</g>
</g>
<!-- Node8&#45;&gt;Node9 -->
<g id="edge29_Node000008_Node000009" class="edge">
<title>Node8&#45;&gt;Node9</title>
<g id="a_edge29_Node000008_Node000009"><a xlink:title=" ">
<path fill="none" stroke="#63b8ff" d="M796.68,-27.89C805.93,-26.16 815.64,-24.34 825.18,-22.55"/>
<polygon fill="#63b8ff" stroke="#63b8ff" points="825.59,-26.03 834.78,-20.75 824.3,-19.15 825.59,-26.03"/>
</a>
</g>
</g>
</g>
</svg>
