<?xml version="1.0" encoding="UTF-8" standalone="no"?>
<!DOCTYPE svg PUBLIC "-//W3C//DTD SVG 1.1//EN"
 "http://www.w3.org/Graphics/SVG/1.1/DTD/svg11.dtd">
<!-- Generated by graphviz version 12.2.1 (20241206.2353)
 -->
<!-- Title: examples.trappist_delivery.trappist_schedule._fitness_impl Pages: 1 -->
<svg width="378pt" height="140pt"
 viewBox="0.00 0.00 377.50 140.00" xmlns="http://www.w3.org/2000/svg" xmlns:xlink="http://www.w3.org/1999/xlink">
<g id="graph0" class="graph" transform="scale(1 1) rotate(0) translate(4 136)">
<title>examples.trappist_delivery.trappist_schedule._fitness_impl</title>
<!-- Node1 -->
<g id="Node000001" class="node">
<title>Node1</title>
<g id="a_Node000001"><a xlink:title="Computes the constraints and the fitness of the provided chromosome.">
<polygon fill="#999999" stroke="#666666" points="369.5,-82 202.75,-82 202.75,-50 369.5,-50 369.5,-82"/>
<text text-anchor="start" x="210.75" y="-68.5" font-family="Helvetica,sans-Serif" font-size="10.00">examples.trappist_delivery.trappist</text>
<text text-anchor="middle" x="286.12" y="-56.5" font-family="Helvetica,sans-Serif" font-size="10.00">_schedule._fitness_impl</text>
</a>
</g>
</g>
<!-- Node2 -->
<g id="Node000002" class="node">
<title>Node2</title>
<g id="a_Node000002"><a xlink:href="$classexamples_1_1trappist__delivery_1_1trappist__schedule.html#abfacff9519a7926d3958aa192c6aa54c" xlink:title="A wrapper for the fitness function (called for evaluation only).">
<polygon fill="white" stroke="#666666" points="166.75,-132 0,-132 0,-100 166.75,-100 166.75,-132"/>
<text text-anchor="start" x="8" y="-118.5" font-family="Helvetica,sans-Serif" font-size="10.00">examples.trappist_delivery.trappist</text>
<text text-anchor="middle" x="83.38" y="-106.5" font-family="Helvetica,sans-Serif" font-size="10.00">_schedule.fitness</text>
</a>
</g>
</g>
<!-- Node1&#45;&gt;Node2 -->
<g id="edge7_Node000001_Node000002" class="edge">
<title>Node1&#45;&gt;Node2</title>
<g id="a_edge7_Node000001_Node000002"><a xlink:title=" ">
<path fill="none" stroke="#63b8ff" d="M208.08,-85.19C189.06,-89.93 168.87,-94.96 150.43,-99.55"/>
<polygon fill="#63b8ff" stroke="#63b8ff" points="208.79,-88.62 217.65,-82.81 207.1,-81.83 208.79,-88.62"/>
</a>
</g>
</g>
<!-- Node3 -->
<g id="Node000003" class="node">
<title>Node3</title>
<g id="a_Node000003"><a xlink:href="$classexamples_1_1trappist__delivery_1_1trappist__schedule.html#aab08205267f0350357c54fad4df63b8c" xlink:title="Plot the total material masses accumulated at each station and the asteroid / station assignments.">
<polygon fill="white" stroke="#666666" points="166.75,-82 0,-82 0,-50 166.75,-50 166.75,-82"/>
<text text-anchor="start" x="8" y="-68.5" font-family="Helvetica,sans-Serif" font-size="10.00">examples.trappist_delivery.trappist</text>
<text text-anchor="middle" x="83.38" y="-56.5" font-family="Helvetica,sans-Serif" font-size="10.00">_schedule.plot</text>
</a>
</g>
</g>
<!-- Node1&#45;&gt;Node3 -->
<g id="edge8_Node000001_Node000003" class="edge">
<title>Node1&#45;&gt;Node3</title>
<g id="a_edge8_Node000001_Node000003"><a xlink:title=" ">
<path fill="none" stroke="#63b8ff" d="M191.03,-66C183,-66 174.92,-66 167,-66"/>
<polygon fill="#63b8ff" stroke="#63b8ff" points="190.8,-69.5 200.8,-66 190.8,-62.5 190.8,-69.5"/>
</a>
</g>
</g>
<!-- Node4 -->
<g id="Node000004" class="node">
<title>Node4</title>
<g id="a_Node000004"><a xlink:href="$classexamples_1_1trappist__delivery_1_1trappist__schedule.html#a8c08f4da8537abdfb6a83dd7682eb2ae" xlink:title="Fitness evaluation function with pretty printing.">
<polygon fill="white" stroke="#666666" points="166.75,-32 0,-32 0,0 166.75,0 166.75,-32"/>
<text text-anchor="start" x="8" y="-18.5" font-family="Helvetica,sans-Serif" font-size="10.00">examples.trappist_delivery.trappist</text>
<text text-anchor="middle" x="83.38" y="-6.5" font-family="Helvetica,sans-Serif" font-size="10.00">_schedule.pretty</text>
</a>
</g>
</g>
<!-- Node1&#45;&gt;Node4 -->
<g id="edge9_Node000001_Node000004" class="edge">
<title>Node1&#45;&gt;Node4</title>
<g id="a_edge9_Node000001_Node000004"><a xlink:title=" ">
<path fill="none" stroke="#63b8ff" d="M208.08,-46.81C189.06,-42.07 168.87,-37.04 150.43,-32.45"/>
<polygon fill="#63b8ff" stroke="#63b8ff" points="207.1,-50.17 217.65,-49.19 208.79,-43.38 207.1,-50.17"/>
</a>
</g>
</g>
</g>
</svg>
