<?xml version="1.0" encoding="UTF-8" standalone="no"?>
<!DOCTYPE svg PUBLIC "-//W3C//DTD SVG 1.1//EN"
 "http://www.w3.org/Graphics/SVG/1.1/DTD/svg11.dtd">
<!-- Generated by graphviz version 12.2.1 (20241206.2353)
 -->
<!-- Title: fcmaes.mode.MODE.ask Pages: 1 -->
<svg width="340pt" height="166pt"
 viewBox="0.00 0.00 340.00 166.00" xmlns="http://www.w3.org/2000/svg" xmlns:xlink="http://www.w3.org/1999/xlink">
<g id="graph0" class="graph" transform="scale(1 1) rotate(0) translate(4 162)">
<title>fcmaes.mode.MODE.ask</title>
<!-- Node1 -->
<g id="Node000001" class="node">
<title>Node1</title>
<g id="a_Node000001"><a xlink:title="Generates the next batch of candidate solutions and updates internal population.">
<polygon fill="#999999" stroke="#666666" points="332,-92 205,-92 205,-72 332,-72 332,-92"/>
<text text-anchor="middle" x="268.5" y="-78.5" font-family="Helvetica,sans-Serif" font-size="10.00">fcmaes.mode.MODE.ask</text>
</a>
</g>
</g>
<!-- Node2 -->
<g id="Node000002" class="node">
<title>Node2</title>
<g id="a_Node000002"><a xlink:href="$classfcmaes_1_1mode_1_1_m_o_d_e.html#a6f479d982825465b97c89e528351bf36" xlink:title="Minimizes the given multi&#45;objective function in parallel, using a specified number of workers and an ...">
<polygon fill="white" stroke="#666666" points="169,-158 0,-158 0,-138 169,-138 169,-158"/>
<text text-anchor="middle" x="84.5" y="-144.5" font-family="Helvetica,sans-Serif" font-size="10.00">fcmaes.mode.MODE.minimize_par</text>
</a>
</g>
</g>
<!-- Node1&#45;&gt;Node2 -->
<g id="edge9_Node000001_Node000002" class="edge">
<title>Node1&#45;&gt;Node2</title>
<g id="a_edge9_Node000001_Node000002"><a xlink:title=" ">
<path fill="none" stroke="#63b8ff" d="M238.84,-97.76C219.56,-107.83 193.31,-120.55 169,-129 159.59,-132.27 149.39,-135.13 139.45,-137.57"/>
<polygon fill="#63b8ff" stroke="#63b8ff" points="240.25,-100.97 247.44,-93.19 236.97,-94.79 240.25,-100.97"/>
</a>
</g>
</g>
<!-- Node3 -->
<g id="Node000003" class="node">
<title>Node3</title>
<g id="a_Node000003"><a xlink:href="$classfcmaes_1_1modecpp_1_1_m_o_d_e___c.html#a672b403a7e745d9e69532454f32d2b62" xlink:title="Run a parallel multi&#45;objective optimization process.">
<polygon fill="white" stroke="#666666" points="146.5,-120 22.5,-120 22.5,-88 146.5,-88 146.5,-120"/>
<text text-anchor="start" x="30.5" y="-106.5" font-family="Helvetica,sans-Serif" font-size="10.00">fcmaes.modecpp.MODE</text>
<text text-anchor="middle" x="84.5" y="-94.5" font-family="Helvetica,sans-Serif" font-size="10.00">_C.minimize_par</text>
</a>
</g>
</g>
<!-- Node1&#45;&gt;Node3 -->
<g id="edge10_Node000001_Node000003" class="edge">
<title>Node1&#45;&gt;Node3</title>
<g id="a_edge10_Node000001_Node000003"><a xlink:title=" ">
<path fill="none" stroke="#63b8ff" d="M193.48,-90.95C177.99,-92.82 161.82,-94.77 146.85,-96.58"/>
<polygon fill="#63b8ff" stroke="#63b8ff" points="193.6,-94.46 203.11,-89.78 192.76,-87.51 193.6,-94.46"/>
</a>
</g>
</g>
<!-- Node4 -->
<g id="Node000004" class="node">
<title>Node4</title>
<g id="a_Node000004"><a xlink:href="$classfcmaes_1_1mode_1_1_m_o_d_e.html#a3b3a358c6fded3c638706495c88eff1a" xlink:title="Minimizes a given function using a custom optimization approach until the maximum number of evaluatio...">
<polygon fill="white" stroke="#666666" points="169,-70 0,-70 0,-50 169,-50 169,-70"/>
<text text-anchor="middle" x="84.5" y="-56.5" font-family="Helvetica,sans-Serif" font-size="10.00">fcmaes.mode.MODE.minimize_ser</text>
</a>
</g>
</g>
<!-- Node1&#45;&gt;Node4 -->
<g id="edge11_Node000001_Node000004" class="edge">
<title>Node1&#45;&gt;Node4</title>
<g id="a_edge11_Node000001_Node000004"><a xlink:title=" ">
<path fill="none" stroke="#63b8ff" d="M193.2,-73.02C185.31,-72.07 177.25,-71.09 169.26,-70.12"/>
<polygon fill="#63b8ff" stroke="#63b8ff" points="192.76,-76.49 203.11,-74.22 193.6,-69.54 192.76,-76.49"/>
</a>
</g>
</g>
<!-- Node5 -->
<g id="Node000005" class="node">
<title>Node5</title>
<g id="a_Node000005"><a xlink:href="$classfcmaes_1_1modecpp_1_1_m_o_d_e___c.html#aa4a7a3e4f9a3fc84dc37faf820025306" xlink:title="Minimizes the given scalar function using a serial optimization method.">
<polygon fill="white" stroke="#666666" points="146.5,-32 22.5,-32 22.5,0 146.5,0 146.5,-32"/>
<text text-anchor="start" x="30.5" y="-18.5" font-family="Helvetica,sans-Serif" font-size="10.00">fcmaes.modecpp.MODE</text>
<text text-anchor="middle" x="84.5" y="-6.5" font-family="Helvetica,sans-Serif" font-size="10.00">_C.minimize_ser</text>
</a>
</g>
</g>
<!-- Node1&#45;&gt;Node5 -->
<g id="edge12_Node000001_Node000005" class="edge">
<title>Node1&#45;&gt;Node5</title>
<g id="a_edge12_Node000001_Node000005"><a xlink:title=" ">
<path fill="none" stroke="#63b8ff" d="M233.83,-66.97C214.95,-58.8 190.88,-48.8 169,-41 160.73,-38.05 151.93,-35.15 143.25,-32.44"/>
<polygon fill="#63b8ff" stroke="#63b8ff" points="232.33,-70.13 242.9,-70.93 235.13,-63.72 232.33,-70.13"/>
</a>
</g>
</g>
</g>
</svg>
