<?xml version="1.0" encoding="UTF-8" standalone="no"?>
<!DOCTYPE svg PUBLIC "-//W3C//DTD SVG 1.1//EN"
 "http://www.w3.org/Graphics/SVG/1.1/DTD/svg11.dtd">
<!-- Generated by graphviz version 12.2.1 (20241206.2353)
 -->
<!-- Title: examples.harvesting.fitness.fun Pages: 1 -->
<svg width="508pt" height="90pt"
 viewBox="0.00 0.00 508.25 90.00" xmlns="http://www.w3.org/2000/svg" xmlns:xlink="http://www.w3.org/1999/xlink">
<g id="graph0" class="graph" transform="scale(1 1) rotate(0) translate(4 86)">
<title>examples.harvesting.fitness.fun</title>
<!-- Node1 -->
<g id="Node000001" class="node">
<title>Node1</title>
<g id="a_Node000001"><a xlink:title=" ">
<polygon fill="#999999" stroke="#666666" points="154.75,-51 0,-51 0,-31 154.75,-31 154.75,-51"/>
<text text-anchor="middle" x="77.38" y="-37.5" font-family="Helvetica,sans-Serif" font-size="10.00">examples.harvesting.fitness.fun</text>
</a>
</g>
</g>
<!-- Node2 -->
<g id="Node000002" class="node">
<title>Node2</title>
<g id="a_Node000002"><a xlink:href="$namespaceexamples_1_1harvesting.html#a5e6fd72941106ed07937bf8806852011" xlink:title=" ">
<polygon fill="white" stroke="#666666" points="324.88,-82 194.88,-82 194.88,-50 324.88,-50 324.88,-82"/>
<text text-anchor="start" x="202.88" y="-68.5" font-family="Helvetica,sans-Serif" font-size="10.00">examples.harvesting.exec</text>
<text text-anchor="middle" x="259.88" y="-56.5" font-family="Helvetica,sans-Serif" font-size="10.00">_tasks</text>
</a>
</g>
</g>
<!-- Node1&#45;&gt;Node2 -->
<g id="edge7_Node000001_Node000002" class="edge">
<title>Node1&#45;&gt;Node2</title>
<g id="a_edge7_Node000001_Node000002"><a xlink:title=" ">
<path fill="none" stroke="#63b8ff" d="M154.14,-51.49C163.78,-52.83 173.64,-54.19 183.28,-55.53"/>
<polygon fill="#63b8ff" stroke="#63b8ff" points="182.57,-58.97 192.96,-56.87 183.53,-52.03 182.57,-58.97"/>
</a>
</g>
</g>
<!-- Node4 -->
<g id="Node000004" class="node">
<title>Node4</title>
<g id="a_Node000004"><a xlink:href="$namespaceexamples_1_1harvesting.html#ac5401be59f58e63fbbb729287a4c3171" xlink:title=" ">
<polygon fill="white" stroke="#666666" points="329,-32 190.75,-32 190.75,0 329,0 329,-32"/>
<text text-anchor="start" x="198.75" y="-18.5" font-family="Helvetica,sans-Serif" font-size="10.00">examples.harvesting.filtered</text>
<text text-anchor="middle" x="259.88" y="-6.5" font-family="Helvetica,sans-Serif" font-size="10.00">_tasks</text>
</a>
</g>
</g>
<!-- Node1&#45;&gt;Node4 -->
<g id="edge9_Node000001_Node000004" class="edge">
<title>Node1&#45;&gt;Node4</title>
<g id="a_edge9_Node000001_Node000004"><a xlink:title=" ">
<path fill="none" stroke="#63b8ff" d="M154.14,-30.51C162.43,-29.36 170.89,-28.19 179.22,-27.03"/>
<polygon fill="#63b8ff" stroke="#63b8ff" points="179.56,-30.52 188.99,-25.68 178.6,-23.58 179.56,-30.52"/>
</a>
</g>
</g>
<!-- Node3 -->
<g id="Node000003" class="node">
<title>Node3</title>
<g id="a_Node000003"><a xlink:href="$namespaceexamples_1_1harvesting.html#ad7244b0bc13af9e1df5e1a29be8200a6" xlink:title=" ">
<polygon fill="white" stroke="#666666" points="500.25,-82 365,-82 365,-50 500.25,-50 500.25,-82"/>
<text text-anchor="start" x="373" y="-68.5" font-family="Helvetica,sans-Serif" font-size="10.00">examples.harvesting.adjust</text>
<text text-anchor="middle" x="432.62" y="-56.5" font-family="Helvetica,sans-Serif" font-size="10.00">_timing</text>
</a>
</g>
</g>
<!-- Node2&#45;&gt;Node3 -->
<g id="edge8_Node000002_Node000003" class="edge">
<title>Node2&#45;&gt;Node3</title>
<g id="a_edge8_Node000002_Node000003"><a xlink:title=" ">
<path fill="none" stroke="#63b8ff" d="M324.94,-66C334.16,-66 343.73,-66 353.19,-66"/>
<polygon fill="#63b8ff" stroke="#63b8ff" points="353.12,-69.5 363.12,-66 353.12,-62.5 353.12,-69.5"/>
</a>
</g>
</g>
</g>
</svg>
