<?xml version="1.0" encoding="UTF-8" standalone="no"?>
<!DOCTYPE svg PUBLIC "-//W3C//DTD SVG 1.1//EN"
 "http://www.w3.org/Graphics/SVG/1.1/DTD/svg11.dtd">
<!-- Generated by graphviz version 12.2.1 (20241206.2353)
 -->
<!-- Title: CBiteOpt::generateSol3 Pages: 1 -->
<svg width="576pt" height="228pt"
 viewBox="0.00 0.00 576.00 228.24" xmlns="http://www.w3.org/2000/svg" xmlns:xlink="http://www.w3.org/1999/xlink">
<g id="graph0" class="graph" transform="scale(1 1) rotate(0) translate(4 224.24)">
<title>CBiteOpt::generateSol3</title>
<!-- Node1 -->
<g id="Node000001" class="node">
<title>Node1</title>
<g id="a_Node000001"><a xlink:title=" ">
<polygon fill="#999999" stroke="#666666" points="119.5,-127 0,-127 0,-107 119.5,-107 119.5,-127"/>
<text text-anchor="middle" x="59.75" y="-113.5" font-family="Helvetica,sans-Serif" font-size="10.00">CBiteOpt::generateSol3</text>
</a>
</g>
</g>
<!-- Node2 -->
<g id="Node000002" class="node">
<title>Node2</title>
<g id="a_Node000002"><a xlink:href="$class_c_bite_rnd.html#afdb77334884f1a612780def0dec0a326" xlink:title=" ">
<polygon fill="white" stroke="#666666" points="415.12,-212 336.88,-212 336.88,-192 415.12,-192 415.12,-212"/>
<text text-anchor="middle" x="376" y="-198.5" font-family="Helvetica,sans-Serif" font-size="10.00">CBiteRnd::get</text>
</a>
</g>
</g>
<!-- Node1&#45;&gt;Node2 -->
<g id="edge25_Node000001_Node000002" class="edge">
<title>Node1&#45;&gt;Node2</title>
<g id="a_edge25_Node000001_Node000002"><a xlink:title=" ">
<path fill="none" stroke="#63b8ff" d="M67.81,-127.49C81.8,-147.19 115.17,-189.16 155.5,-205 210.6,-226.64 279.65,-220.92 325.43,-213.07"/>
<polygon fill="#63b8ff" stroke="#63b8ff" points="325.85,-216.55 335.06,-211.31 324.59,-209.66 325.85,-216.55"/>
</a>
</g>
</g>
<!-- Node4 -->
<g id="Node000004" class="node">
<title>Node4</title>
<g id="a_Node000004"><a xlink:href="$class_c_bite_pop.html#a5e6ccebb178353b084084f841b09042d" xlink:title=" ">
<polygon fill="white" stroke="#666666" points="273.12,-196 167.88,-196 167.88,-164 273.12,-164 273.12,-196"/>
<text text-anchor="start" x="175.88" y="-182.5" font-family="Helvetica,sans-Serif" font-size="10.00">CBitePop&lt; int64_t &gt;</text>
<text text-anchor="middle" x="220.5" y="-170.5" font-family="Helvetica,sans-Serif" font-size="10.00">::getCentroid</text>
</a>
</g>
</g>
<!-- Node1&#45;&gt;Node4 -->
<g id="edge27_Node000001_Node000004" class="edge">
<title>Node1&#45;&gt;Node4</title>
<g id="a_edge27_Node000001_Node000004"><a xlink:title=" ">
<path fill="none" stroke="#63b8ff" d="M86.46,-127.38C105.51,-135.06 132.1,-145.74 155.5,-155 159.1,-156.43 162.82,-157.89 166.57,-159.37"/>
<polygon fill="#63b8ff" stroke="#63b8ff" points="165.14,-162.57 175.73,-162.96 167.7,-156.05 165.14,-162.57"/>
</a>
</g>
</g>
<!-- Node5 -->
<g id="Node000005" class="node">
<title>Node5</title>
<g id="a_Node000005"><a xlink:href="$class_c_bite_opt.html#af25cdfb71a0ad9081148c31da58fe949" xlink:title=" ">
<polygon fill="white" stroke="#666666" points="285.5,-146 155.5,-146 155.5,-126 285.5,-126 285.5,-146"/>
<text text-anchor="middle" x="220.5" y="-132.5" font-family="Helvetica,sans-Serif" font-size="10.00">CBiteOpt::getMinSolIndex</text>
</a>
</g>
</g>
<!-- Node1&#45;&gt;Node5 -->
<g id="edge28_Node000001_Node000005" class="edge">
<title>Node1&#45;&gt;Node5</title>
<g id="a_edge28_Node000001_Node000005"><a xlink:title=" ">
<path fill="none" stroke="#63b8ff" d="M119.86,-124.07C127.65,-125.01 135.72,-125.97 143.74,-126.93"/>
<polygon fill="#63b8ff" stroke="#63b8ff" points="143.16,-130.39 153.51,-128.1 143.99,-123.44 143.16,-130.39"/>
</a>
</g>
</g>
<!-- Node7 -->
<g id="Node000007" class="node">
<title>Node7</title>
<g id="a_Node000007"><a xlink:href="$class_c_bite_opt_base.html#abf93d2e584756812ad210f86e4f84a69" xlink:title=" ">
<polygon fill="white" stroke="#666666" points="430.5,-114 321.5,-114 321.5,-82 430.5,-82 430.5,-114"/>
<text text-anchor="start" x="329.5" y="-100.5" font-family="Helvetica,sans-Serif" font-size="10.00">CBiteOptBase&lt; int64</text>
<text text-anchor="middle" x="376" y="-88.5" font-family="Helvetica,sans-Serif" font-size="10.00">_t &gt;::select</text>
</a>
</g>
</g>
<!-- Node1&#45;&gt;Node7 -->
<g id="edge36_Node000001_Node000007" class="edge">
<title>Node1&#45;&gt;Node7</title>
<g id="a_edge36_Node000001_Node000007"><a xlink:title=" ">
<path fill="none" stroke="#63b8ff" d="M119.86,-113.43C174,-110.15 253.99,-105.32 309.94,-101.93"/>
<polygon fill="#63b8ff" stroke="#63b8ff" points="309.86,-105.45 319.63,-101.35 309.44,-98.46 309.86,-105.45"/>
</a>
</g>
</g>
<!-- Node8 -->
<g id="Node000008" class="node">
<title>Node8</title>
<g id="a_Node000008"><a xlink:href="$class_c_bite_pop.html#aaa8e3f180accfedf21218cbed8ffbb79" xlink:title=" ">
<polygon fill="white" stroke="#666666" points="273.12,-70 167.88,-70 167.88,-38 273.12,-38 273.12,-70"/>
<text text-anchor="start" x="175.88" y="-56.5" font-family="Helvetica,sans-Serif" font-size="10.00">CBitePop&lt; int64_t &gt;</text>
<text text-anchor="middle" x="220.5" y="-44.5" font-family="Helvetica,sans-Serif" font-size="10.00">::getParamsOrdered</text>
</a>
</g>
</g>
<!-- Node1&#45;&gt;Node8 -->
<g id="edge32_Node000001_Node000008" class="edge">
<title>Node1&#45;&gt;Node8</title>
<g id="a_edge32_Node000001_Node000008"><a xlink:title=" ">
<path fill="none" stroke="#63b8ff" d="M86.96,-106.6C108.81,-97.93 140.6,-85.31 167.57,-74.61"/>
<polygon fill="#63b8ff" stroke="#63b8ff" points="168.61,-77.96 176.61,-71.02 166.03,-71.46 168.61,-77.96"/>
</a>
</g>
</g>
<!-- Node9 -->
<g id="Node000009" class="node">
<title>Node9</title>
<g id="a_Node000009"><a xlink:href="$class_c_bite_rnd.html#ab73d2c6a6e4c1f5da7441168f165529d" xlink:title=" ">
<polygon fill="white" stroke="#666666" points="272.75,-20 168.25,-20 168.25,0 272.75,0 272.75,-20"/>
<text text-anchor="middle" x="220.5" y="-6.5" font-family="Helvetica,sans-Serif" font-size="10.00">CBiteRnd::getSqrInt</text>
</a>
</g>
</g>
<!-- Node1&#45;&gt;Node9 -->
<g id="edge33_Node000001_Node000009" class="edge">
<title>Node1&#45;&gt;Node9</title>
<g id="a_edge33_Node000001_Node000009"><a xlink:title=" ">
<path fill="none" stroke="#63b8ff" d="M69.01,-106.68C84.2,-88.37 118.45,-50.14 155.5,-29 158.28,-27.41 161.21,-25.94 164.22,-24.59"/>
<polygon fill="#63b8ff" stroke="#63b8ff" points="165.29,-27.94 173.28,-20.98 162.69,-21.43 165.29,-27.94"/>
</a>
</g>
</g>
<!-- Node3 -->
<g id="Node000003" class="node">
<title>Node3</title>
<g id="a_Node000003"><a xlink:href="$class_c_bite_rnd.html#ae1167f8ecac85f268ced4bc1d2fa953b" xlink:title=" ">
<polygon fill="white" stroke="#666666" points="568,-152 466.5,-152 466.5,-132 568,-132 568,-152"/>
<text text-anchor="middle" x="517.25" y="-138.5" font-family="Helvetica,sans-Serif" font-size="10.00">CBiteRnd::advance</text>
</a>
</g>
</g>
<!-- Node2&#45;&gt;Node3 -->
<g id="edge26_Node000002_Node000003" class="edge">
<title>Node2&#45;&gt;Node3</title>
<g id="a_edge26_Node000002_Node000003"><a xlink:title=" ">
<path fill="none" stroke="#63b8ff" d="M401.26,-191.55C423.52,-181.96 456.75,-167.64 481.77,-156.86"/>
<polygon fill="#63b8ff" stroke="#63b8ff" points="483.08,-160.1 490.88,-152.93 480.31,-153.67 483.08,-160.1"/>
</a>
</g>
</g>
<!-- Node6 -->
<g id="Node000006" class="node">
<title>Node6</title>
<g id="a_Node000006"><a xlink:href="$class_c_bite_rnd.html#aa4c960b792982f495cc19c04ad9c2705" xlink:title=" ">
<polygon fill="white" stroke="#666666" points="424.88,-152 327.12,-152 327.12,-132 424.88,-132 424.88,-152"/>
<text text-anchor="middle" x="376" y="-138.5" font-family="Helvetica,sans-Serif" font-size="10.00">CBiteRnd::getPow</text>
</a>
</g>
</g>
<!-- Node5&#45;&gt;Node6 -->
<g id="edge29_Node000005_Node000006" class="edge">
<title>Node5&#45;&gt;Node6</title>
<g id="a_edge29_Node000005_Node000006"><a xlink:title=" ">
<path fill="none" stroke="#63b8ff" d="M285.71,-138.51C295.63,-138.9 305.84,-139.3 315.64,-139.68"/>
<polygon fill="#63b8ff" stroke="#63b8ff" points="315.29,-143.17 325.42,-140.06 315.56,-136.17 315.29,-143.17"/>
</a>
</g>
</g>
<!-- Node5&#45;&gt;Node7 -->
<g id="edge31_Node000005_Node000007" class="edge">
<title>Node5&#45;&gt;Node7</title>
<g id="a_edge31_Node000005_Node000007"><a xlink:title=" ">
<path fill="none" stroke="#63b8ff" d="M263.85,-125.52C278.27,-121.95 294.73,-117.87 310.49,-113.97"/>
<polygon fill="#63b8ff" stroke="#63b8ff" points="310.92,-117.47 319.78,-111.67 309.24,-110.67 310.92,-117.47"/>
</a>
</g>
</g>
<!-- Node6&#45;&gt;Node3 -->
<g id="edge30_Node000006_Node000003" class="edge">
<title>Node6&#45;&gt;Node3</title>
<g id="a_edge30_Node000006_Node000003"><a xlink:title=" ">
<path fill="none" stroke="#63b8ff" d="M425.31,-142C434.8,-142 444.87,-142 454.72,-142"/>
<polygon fill="#63b8ff" stroke="#63b8ff" points="454.62,-145.5 464.62,-142 454.62,-138.5 454.62,-145.5"/>
</a>
</g>
</g>
<!-- Node10 -->
<g id="Node000010" class="node">
<title>Node10</title>
<g id="a_Node000010"><a xlink:href="$class_c_bite_rnd.html#aabbf1ffd535ca8fe31fda768f15ccd1b" xlink:title=" ">
<polygon fill="white" stroke="#666666" points="422.62,-42 329.38,-42 329.38,-22 422.62,-22 422.62,-42"/>
<text text-anchor="middle" x="376" y="-28.5" font-family="Helvetica,sans-Serif" font-size="10.00">CBiteRnd::getSqr</text>
</a>
</g>
</g>
<!-- Node9&#45;&gt;Node10 -->
<g id="edge34_Node000009_Node000010" class="edge">
<title>Node9&#45;&gt;Node10</title>
<g id="a_edge34_Node000009_Node000010"><a xlink:title=" ">
<path fill="none" stroke="#63b8ff" d="M273.04,-17.39C287.48,-19.46 303.25,-21.72 317.99,-23.83"/>
<polygon fill="#63b8ff" stroke="#63b8ff" points="317.12,-27.24 327.51,-25.19 318.11,-20.31 317.12,-27.24"/>
</a>
</g>
</g>
<!-- Node10&#45;&gt;Node3 -->
<g id="edge35_Node000010_Node000003" class="edge">
<title>Node10&#45;&gt;Node3</title>
<g id="a_edge35_Node000010_Node000003"><a xlink:title=" ">
<path fill="none" stroke="#63b8ff" d="M390.7,-42.36C401.55,-50.6 417.06,-62.45 430.5,-73 452.56,-90.33 477.52,-110.47 494.8,-124.51"/>
<polygon fill="#63b8ff" stroke="#63b8ff" points="492.4,-127.07 502.37,-130.66 496.82,-121.64 492.4,-127.07"/>
</a>
</g>
</g>
</g>
</svg>
