<?xml version="1.0" encoding="UTF-8" standalone="no"?>
<!DOCTYPE svg PUBLIC "-//W3C//DTD SVG 1.1//EN"
 "http://www.w3.org/Graphics/SVG/1.1/DTD/svg11.dtd">
<!-- Generated by graphviz version 12.2.1 (20241206.2353)
 -->
<!-- Title: CNMSeqOpt::calccent Pages: 1 -->
<svg width="264pt" height="78pt"
 viewBox="0.00 0.00 263.50 78.00" xmlns="http://www.w3.org/2000/svg" xmlns:xlink="http://www.w3.org/1999/xlink">
<g id="graph0" class="graph" transform="scale(1 1) rotate(0) translate(4 74)">
<title>CNMSeqOpt::calccent</title>
<!-- Node1 -->
<g id="Node000001" class="node">
<title>Node1</title>
<g id="a_Node000001"><a xlink:title=" ">
<polygon fill="#999999" stroke="#666666" points="115,-42 0,-42 0,-22 115,-22 115,-42"/>
<text text-anchor="middle" x="57.5" y="-28.5" font-family="Helvetica,sans-Serif" font-size="10.00">CNMSeqOpt::calccent</text>
</a>
</g>
</g>
<!-- Node2 -->
<g id="Node000002" class="node">
<title>Node2</title>
<g id="a_Node000002"><a xlink:href="$class_c_bite_pop.html#a24130fea35014433f142e3b9ed0f8929" xlink:title=" ">
<polygon fill="white" stroke="#666666" points="255.5,-70 151,-70 151,-38 255.5,-38 255.5,-70"/>
<text text-anchor="start" x="159" y="-56.5" font-family="Helvetica,sans-Serif" font-size="10.00">CBitePop&lt; double &gt;</text>
<text text-anchor="middle" x="203.25" y="-44.5" font-family="Helvetica,sans-Serif" font-size="10.00">::copyParams</text>
</a>
</g>
</g>
<!-- Node1&#45;&gt;Node2 -->
<g id="edge5_Node000001_Node000002" class="edge">
<title>Node1&#45;&gt;Node2</title>
<g id="a_edge5_Node000001_Node000002"><a xlink:title=" ">
<path fill="none" stroke="#63b8ff" d="M115.31,-40.69C123.21,-41.9 131.36,-43.15 139.35,-44.37"/>
<polygon fill="#63b8ff" stroke="#63b8ff" points="138.61,-47.8 149.02,-45.85 139.67,-40.88 138.61,-47.8"/>
</a>
</g>
</g>
<!-- Node3 -->
<g id="Node000003" class="node">
<title>Node3</title>
<g id="a_Node000003"><a xlink:href="$class_c_n_m_seq_opt.html#a2b301caae34520d6495dabb8fcfd5c63" xlink:title=" ">
<polygon fill="white" stroke="#666666" points="254,-20 152.5,-20 152.5,0 254,0 254,-20"/>
<text text-anchor="middle" x="203.25" y="-6.5" font-family="Helvetica,sans-Serif" font-size="10.00">CNMSeqOpt::findhi</text>
</a>
</g>
</g>
<!-- Node1&#45;&gt;Node3 -->
<g id="edge6_Node000001_Node000003" class="edge">
<title>Node1&#45;&gt;Node3</title>
<g id="a_edge6_Node000001_Node000003"><a xlink:title=" ">
<path fill="none" stroke="#63b8ff" d="M115.31,-23.31C123.83,-22 132.63,-20.65 141.23,-19.34"/>
<polygon fill="#63b8ff" stroke="#63b8ff" points="141.51,-22.84 150.87,-17.86 140.45,-15.92 141.51,-22.84"/>
</a>
</g>
</g>
</g>
</svg>
