<?xml version="1.0" encoding="UTF-8" standalone="no"?>
<!DOCTYPE svg PUBLIC "-//W3C//DTD SVG 1.1//EN"
 "http://www.w3.org/Graphics/SVG/1.1/DTD/svg11.dtd">
<!-- Generated by graphviz version 12.2.1 (20241206.2353)
 -->
<!-- Title: hbv.hbv.__call__ Pages: 1 -->
<svg width="200pt" height="46pt"
 viewBox="0.00 0.00 199.75 46.00" xmlns="http://www.w3.org/2000/svg" xmlns:xlink="http://www.w3.org/1999/xlink">
<g id="graph0" class="graph" transform="scale(1 1) rotate(0) translate(4 42)">
<title>hbv.hbv.__call__</title>
<!-- Node1 -->
<g id="Node000001" class="node">
<title>Node1</title>
<g id="a_Node000001"><a xlink:title=" ">
<polygon fill="#999999" stroke="#666666" points="88,-20 0,-20 0,0 88,0 88,-20"/>
<text text-anchor="middle" x="44" y="-6.5" font-family="Helvetica,sans-Serif" font-size="10.00">hbv.hbv.__call__</text>
</a>
</g>
</g>
<!-- Node2 -->
<g id="Node000002" class="node">
<title>Node2</title>
<g id="a_Node000002"><a xlink:href="$classhbv_1_1hbv.html#ae4c85c60e063bfd11874ddfd8daf2d85" xlink:title=" ">
<polygon fill="white" stroke="#666666" points="191.75,-20 124,-20 124,0 191.75,0 191.75,-20"/>
<text text-anchor="middle" x="157.88" y="-6.5" font-family="Helvetica,sans-Serif" font-size="10.00">hbv.hbv.hbv</text>
</a>
</g>
</g>
<!-- Node1&#45;&gt;Node2 -->
<g id="edge5_Node000001_Node000002" class="edge">
<title>Node1&#45;&gt;Node2</title>
<g id="a_edge5_Node000001_Node000002"><a xlink:title=" ">
<path fill="none" stroke="#63b8ff" d="M88.25,-10C96.19,-10 104.48,-10 112.44,-10"/>
<polygon fill="#63b8ff" stroke="#63b8ff" points="112.29,-13.5 122.29,-10 112.29,-6.5 112.29,-13.5"/>
</a>
</g>
</g>
<!-- Node2&#45;&gt;Node2 -->
<g id="edge6_Node000002_Node000002" class="edge">
<title>Node2&#45;&gt;Node2</title>
<g id="a_edge6_Node000002_Node000002"><a xlink:title=" ">
<path fill="none" stroke="#63b8ff" d="M139.78,-20.34C132.05,-28.98 138.08,-38 157.88,-38 168.7,-38 175.41,-35.3 178,-31.44"/>
<polygon fill="#63b8ff" stroke="#63b8ff" points="181.49,-31.03 176.24,-21.83 174.6,-32.29 181.49,-31.03"/>
</a>
</g>
</g>
</g>
</svg>
