<?xml version="1.0" encoding="UTF-8" standalone="no"?>
<!DOCTYPE svg PUBLIC "-//W3C//DTD SVG 1.1//EN"
 "http://www.w3.org/Graphics/SVG/1.1/DTD/svg11.dtd">
<!-- Generated by graphviz version 12.2.1 (20241206.2353)
 -->
<!-- Title: examples.crypto.fitness.ndfun Pages: 1 -->
<svg width="959pt" height="132pt"
 viewBox="0.00 0.00 959.00 132.00" xmlns="http://www.w3.org/2000/svg" xmlns:xlink="http://www.w3.org/1999/xlink">
<g id="graph0" class="graph" transform="scale(1 1) rotate(0) translate(4 128)">
<title>examples.crypto.fitness.ndfun</title>
<!-- Node1 -->
<g id="Node000001" class="node">
<title>Node1</title>
<g id="a_Node000001"><a xlink:title=" ">
<polygon fill="#999999" stroke="#666666" points="147.25,-86 0,-86 0,-66 147.25,-66 147.25,-86"/>
<text text-anchor="middle" x="73.62" y="-72.5" font-family="Helvetica,sans-Serif" font-size="10.00">examples.crypto.fitness.ndfun</text>
</a>
</g>
</g>
<!-- Node2 -->
<g id="Node000002" class="node">
<title>Node2</title>
<g id="a_Node000002"><a xlink:href="$classexamples_1_1crypto_1_1fitness.html#a5a933388f6d0303f80251156e30e6b9b" xlink:title=" ">
<polygon fill="white" stroke="#666666" points="320,-86 183.25,-86 183.25,-66 320,-66 320,-86"/>
<text text-anchor="middle" x="251.62" y="-72.5" font-family="Helvetica,sans-Serif" font-size="10.00">examples.crypto.fitness.fun</text>
</a>
</g>
</g>
<!-- Node1&#45;&gt;Node2 -->
<g id="edge21_Node000001_Node000002" class="edge">
<title>Node1&#45;&gt;Node2</title>
<g id="a_edge21_Node000001_Node000002"><a xlink:title=" ">
<path fill="none" stroke="#63b8ff" d="M147.74,-76C155.54,-76 163.51,-76 171.38,-76"/>
<polygon fill="#63b8ff" stroke="#63b8ff" points="171.3,-79.5 181.3,-76 171.3,-72.5 171.3,-79.5"/>
</a>
</g>
</g>
<!-- Node3 -->
<g id="Node000003" class="node">
<title>Node3</title>
<g id="a_Node000003"><a xlink:href="$namespaceexamples_1_1crypto.html#a75d529296c6d83294ad1c37e55bd267f" xlink:title=" ">
<polygon fill="white" stroke="#666666" points="483.75,-86 356,-86 356,-66 483.75,-66 483.75,-86"/>
<text text-anchor="middle" x="419.88" y="-72.5" font-family="Helvetica,sans-Serif" font-size="10.00">examples.crypto.simulate</text>
</a>
</g>
</g>
<!-- Node2&#45;&gt;Node3 -->
<g id="edge22_Node000002_Node000003" class="edge">
<title>Node2&#45;&gt;Node3</title>
<g id="a_edge22_Node000002_Node000003"><a xlink:title=" ">
<path fill="none" stroke="#63b8ff" d="M320.25,-76C328.19,-76 336.33,-76 344.36,-76"/>
<polygon fill="#63b8ff" stroke="#63b8ff" points="344.09,-79.5 354.09,-76 344.09,-72.5 344.09,-79.5"/>
</a>
</g>
</g>
<!-- Node4 -->
<g id="Node000004" class="node">
<title>Node4</title>
<g id="a_Node000004"><a xlink:href="$namespaceexamples_1_1crypto.html#a38e3ca807ed30d1fa4d4a5cc478e1525" xlink:title=" ">
<polygon fill="white" stroke="#666666" points="648.25,-124 519.75,-124 519.75,-104 648.25,-104 648.25,-124"/>
<text text-anchor="middle" x="584" y="-110.5" font-family="Helvetica,sans-Serif" font-size="10.00">examples.crypto.get_ema</text>
</a>
</g>
</g>
<!-- Node3&#45;&gt;Node4 -->
<g id="edge23_Node000003_Node000004" class="edge">
<title>Node3&#45;&gt;Node4</title>
<g id="a_edge23_Node000003_Node000004"><a xlink:title=" ">
<path fill="none" stroke="#63b8ff" d="M465.61,-86.48C484.74,-90.97 507.29,-96.25 527.48,-100.99"/>
<polygon fill="#63b8ff" stroke="#63b8ff" points="526.41,-104.33 536.94,-103.2 528,-97.51 526.41,-104.33"/>
</a>
</g>
</g>
<!-- Node5 -->
<g id="Node000005" class="node">
<title>Node5</title>
<g id="a_Node000005"><a xlink:href="$namespaceexamples_1_1crypto.html#a8fe56bb9960bb347eee6e2c39ddbd90f" xlink:title=" ">
<polygon fill="white" stroke="#666666" points="648.25,-86 519.75,-86 519.75,-66 648.25,-66 648.25,-86"/>
<text text-anchor="middle" x="584" y="-72.5" font-family="Helvetica,sans-Serif" font-size="10.00">examples.crypto.get_sma</text>
</a>
</g>
</g>
<!-- Node3&#45;&gt;Node5 -->
<g id="edge24_Node000003_Node000005" class="edge">
<title>Node3&#45;&gt;Node5</title>
<g id="a_edge24_Node000003_Node000005"><a xlink:title=" ">
<path fill="none" stroke="#63b8ff" d="M484.02,-76C491.94,-76 500.09,-76 508.17,-76"/>
<polygon fill="#63b8ff" stroke="#63b8ff" points="507.98,-79.5 517.98,-76 507.98,-72.5 507.98,-79.5"/>
</a>
</g>
</g>
<!-- Node6 -->
<g id="Node000006" class="node">
<title>Node6</title>
<g id="a_Node000006"><a xlink:href="$namespaceexamples_1_1crypto.html#a61f6c93fa62a257ed271a0aa1210f604" xlink:title=" ">
<polygon fill="white" stroke="#666666" points="647.12,-48 520.88,-48 520.88,-28 647.12,-28 647.12,-48"/>
<text text-anchor="middle" x="584" y="-34.5" font-family="Helvetica,sans-Serif" font-size="10.00">examples.crypto.strategy</text>
</a>
</g>
</g>
<!-- Node3&#45;&gt;Node6 -->
<g id="edge25_Node000003_Node000006" class="edge">
<title>Node3&#45;&gt;Node6</title>
<g id="a_edge25_Node000003_Node000006"><a xlink:title=" ">
<path fill="none" stroke="#63b8ff" d="M465.61,-65.52C484.74,-61.03 507.29,-55.75 527.48,-51.01"/>
<polygon fill="#63b8ff" stroke="#63b8ff" points="528,-54.49 536.94,-48.8 526.41,-47.67 528,-54.49"/>
</a>
</g>
</g>
<!-- Node7 -->
<g id="Node000007" class="node">
<title>Node7</title>
<g id="a_Node000007"><a xlink:href="$namespaceexamples_1_1crypto.html#a54eb39bc81fed172b7d1d74dcec022c2" xlink:title=" ">
<polygon fill="white" stroke="#666666" points="951,-67 829.25,-67 829.25,-47 951,-47 951,-67"/>
<text text-anchor="middle" x="890.12" y="-53.5" font-family="Helvetica,sans-Serif" font-size="10.00">examples.crypto.buy_all</text>
</a>
</g>
</g>
<!-- Node6&#45;&gt;Node7 -->
<g id="edge26_Node000006_Node000007" class="edge">
<title>Node6&#45;&gt;Node7</title>
<g id="a_edge26_Node000006_Node000007"><a xlink:title=" ">
<path fill="none" stroke="#63b8ff" d="M629.7,-48.42C646.68,-51.88 666.26,-55.29 684.25,-57 728.4,-61.19 778.15,-61.3 817.57,-60.31"/>
<polygon fill="#63b8ff" stroke="#63b8ff" points="817.51,-63.81 827.41,-60.03 817.31,-56.81 817.51,-63.81"/>
</a>
</g>
</g>
<!-- Node8 -->
<g id="Node000008" class="node">
<title>Node8</title>
<g id="a_Node000008"><a xlink:href="$namespaceexamples_1_1crypto.html#a941dc0c737b40581bde98db6aef23525" xlink:title=" ">
<polygon fill="white" stroke="#666666" points="793.25,-48 684.25,-48 684.25,-28 793.25,-28 793.25,-48"/>
<text text-anchor="middle" x="738.75" y="-34.5" font-family="Helvetica,sans-Serif" font-size="10.00">examples.crypto.hodl</text>
</a>
</g>
</g>
<!-- Node6&#45;&gt;Node8 -->
<g id="edge27_Node000006_Node000008" class="edge">
<title>Node6&#45;&gt;Node8</title>
<g id="a_edge27_Node000006_Node000008"><a xlink:title=" ">
<path fill="none" stroke="#63b8ff" d="M647.57,-38C655.75,-38 664.14,-38 672.36,-38"/>
<polygon fill="#63b8ff" stroke="#63b8ff" points="672.31,-41.5 682.31,-38 672.31,-34.5 672.31,-41.5"/>
</a>
</g>
</g>
<!-- Node9 -->
<g id="Node000009" class="node">
<title>Node9</title>
<g id="a_Node000009"><a xlink:href="$namespaceexamples_1_1crypto.html#a8e16e3bee50df8bd1b44e55fe8950e10" xlink:title=" ">
<polygon fill="white" stroke="#666666" points="950.62,-20 829.62,-20 829.62,0 950.62,0 950.62,-20"/>
<text text-anchor="middle" x="890.12" y="-6.5" font-family="Helvetica,sans-Serif" font-size="10.00">examples.crypto.sell_all</text>
</a>
</g>
</g>
<!-- Node6&#45;&gt;Node9 -->
<g id="edge30_Node000006_Node000009" class="edge">
<title>Node6&#45;&gt;Node9</title>
<g id="a_edge30_Node000006_Node000009"><a xlink:title=" ">
<path fill="none" stroke="#63b8ff" d="M632.24,-27.51C648.63,-24.25 667.17,-21 684.25,-19 728.5,-13.82 778.45,-11.55 817.95,-10.59"/>
<polygon fill="#63b8ff" stroke="#63b8ff" points="817.89,-14.09 827.81,-10.37 817.74,-7.09 817.89,-14.09"/>
</a>
</g>
</g>
<!-- Node8&#45;&gt;Node7 -->
<g id="edge28_Node000008_Node000007" class="edge">
<title>Node8&#45;&gt;Node7</title>
<g id="a_edge28_Node000008_Node000007"><a xlink:title=" ">
<path fill="none" stroke="#63b8ff" d="M793.68,-44.86C801.46,-45.85 809.57,-46.88 817.63,-47.91"/>
<polygon fill="#63b8ff" stroke="#63b8ff" points="817.08,-51.36 827.45,-49.15 817.97,-44.42 817.08,-51.36"/>
</a>
</g>
</g>
<!-- Node8&#45;&gt;Node9 -->
<g id="edge29_Node000008_Node000009" class="edge">
<title>Node8&#45;&gt;Node9</title>
<g id="a_edge29_Node000008_Node000009"><a xlink:title=" ">
<path fill="none" stroke="#63b8ff" d="M793.68,-27.89C802.93,-26.16 812.64,-24.34 822.18,-22.55"/>
<polygon fill="#63b8ff" stroke="#63b8ff" points="822.59,-26.03 831.78,-20.75 821.3,-19.15 822.59,-26.03"/>
</a>
</g>
</g>
</g>
</svg>
