<?xml version="1.0" encoding="UTF-8" standalone="no"?>
<!DOCTYPE svg PUBLIC "-//W3C//DTD SVG 1.1//EN"
 "http://www.w3.org/Graphics/SVG/1.1/DTD/svg11.dtd">
<!-- Generated by graphviz version 12.2.1 (20241206.2353)
 -->
<!-- Title: CBiteSelBase::select Pages: 1 -->
<svg width="458pt" height="28pt"
 viewBox="0.00 0.00 458.00 28.00" xmlns="http://www.w3.org/2000/svg" xmlns:xlink="http://www.w3.org/1999/xlink">
<g id="graph0" class="graph" transform="scale(1 1) rotate(0) translate(4 24)">
<title>CBiteSelBase::select</title>
<!-- Node1 -->
<g id="Node000001" class="node">
<title>Node1</title>
<g id="a_Node000001"><a xlink:title=" ">
<polygon fill="#999999" stroke="#666666" points="450,-20 340.25,-20 340.25,0 450,0 450,-20"/>
<text text-anchor="middle" x="395.12" y="-6.5" font-family="Helvetica,sans-Serif" font-size="10.00">CBiteSelBase::select</text>
</a>
</g>
</g>
<!-- Node2 -->
<g id="Node000002" class="node">
<title>Node2</title>
<g id="a_Node000002"><a xlink:href="$class_c_bite_sel_base.html#a608b89514f2f4430e4e0a6ff6660c7cf" xlink:title=" ">
<polygon fill="white" stroke="#666666" points="304.25,-20 199,-20 199,0 304.25,0 304.25,-20"/>
<text text-anchor="middle" x="251.62" y="-6.5" font-family="Helvetica,sans-Serif" font-size="10.00">CBiteSelBase::reset</text>
</a>
</g>
</g>
<!-- Node1&#45;&gt;Node2 -->
<g id="edge5_Node000001_Node000002" class="edge">
<title>Node1&#45;&gt;Node2</title>
<g id="a_edge5_Node000001_Node000002"><a xlink:title=" ">
<path fill="none" stroke="#63b8ff" d="M328.31,-10C320.39,-10 312.38,-10 304.69,-10"/>
<polygon fill="#63b8ff" stroke="#63b8ff" points="328.31,-13.5 338.31,-10 328.31,-6.5 328.31,-13.5"/>
</a>
</g>
</g>
<!-- Node3 -->
<g id="Node000003" class="node">
<title>Node3</title>
<g id="a_Node000003"><a xlink:href="$classexamples_1_1siemens_1_1_plant.html#a4570217ffc213f931499ca5ca147819c" xlink:title=" ">
<polygon fill="white" stroke="#666666" points="163,-20 0,-20 0,0 163,0 163,-20"/>
<text text-anchor="middle" x="81.5" y="-6.5" font-family="Helvetica,sans-Serif" font-size="10.00">examples.siemens.Plant.simulate</text>
</a>
</g>
</g>
<!-- Node2&#45;&gt;Node3 -->
<g id="edge6_Node000002_Node000003" class="edge">
<title>Node2&#45;&gt;Node3</title>
<g id="a_edge6_Node000002_Node000003"><a xlink:title=" ">
<path fill="none" stroke="#63b8ff" d="M187.44,-10C179.52,-10 171.35,-10 163.21,-10"/>
<polygon fill="#63b8ff" stroke="#63b8ff" points="187.3,-13.5 197.3,-10 187.3,-6.5 187.3,-13.5"/>
</a>
</g>
</g>
</g>
</svg>
