<?xml version="1.0" encoding="UTF-8" standalone="no"?>
<!DOCTYPE svg PUBLIC "-//W3C//DTD SVG 1.1//EN"
 "http://www.w3.org/Graphics/SVG/1.1/DTD/svg11.dtd">
<!-- Generated by graphviz version 12.2.1 (20241206.2353)
 -->
<!-- Title: acmaes::AcmaesOptimizer::tell Pages: 1 -->
<svg width="313pt" height="202pt"
 viewBox="0.00 0.00 313.00 202.00" xmlns="http://www.w3.org/2000/svg" xmlns:xlink="http://www.w3.org/1999/xlink">
<g id="graph0" class="graph" transform="scale(1 1) rotate(0) translate(4 198)">
<title>acmaes::AcmaesOptimizer::tell</title>
<!-- Node1 -->
<g id="Node000001" class="node">
<title>Node1</title>
<g id="a_Node000001"><a xlink:title=" ">
<polygon fill="#999999" stroke="#666666" points="305,-107 170.5,-107 170.5,-75 305,-75 305,-107"/>
<text text-anchor="start" x="178.5" y="-93.5" font-family="Helvetica,sans-Serif" font-size="10.00">acmaes::AcmaesOptimizer</text>
<text text-anchor="middle" x="237.75" y="-81.5" font-family="Helvetica,sans-Serif" font-size="10.00">::tell</text>
</a>
</g>
</g>
<!-- Node2 -->
<g id="Node000002" class="node">
<title>Node2</title>
<g id="a_Node000002"><a xlink:href="$classacmaes_1_1_acmaes_optimizer.html#ab3af1e3acb2561d4b0be23b402b232a9" xlink:title=" ">
<polygon fill="white" stroke="#666666" points="134.5,-194 0,-194 0,-150 134.5,-150 134.5,-194"/>
<text text-anchor="start" x="8" y="-180.5" font-family="Helvetica,sans-Serif" font-size="10.00">acmaes::AcmaesOptimizer</text>
<text text-anchor="start" x="8" y="-168.5" font-family="Helvetica,sans-Serif" font-size="10.00">::do_optimize_delayed</text>
<text text-anchor="middle" x="67.25" y="-156.5" font-family="Helvetica,sans-Serif" font-size="10.00">_update</text>
</a>
</g>
</g>
<!-- Node1&#45;&gt;Node2 -->
<g id="edge9_Node000001_Node000002" class="edge">
<title>Node1&#45;&gt;Node2</title>
<g id="a_edge9_Node000001_Node000002"><a xlink:title=" ">
<path fill="none" stroke="#63b8ff" d="M193.38,-112.41C175.22,-121.32 153.87,-131.73 134.5,-141 128.66,-143.79 122.51,-146.71 116.42,-149.58"/>
<polygon fill="#63b8ff" stroke="#63b8ff" points="194.87,-115.58 202.31,-108.02 191.79,-109.29 194.87,-115.58"/>
</a>
</g>
</g>
<!-- Node3 -->
<g id="Node000003" class="node">
<title>Node3</title>
<g id="a_Node000003"><a xlink:href="$classacmaes_1_1_acmaes_optimizer.html#a6ffd7f760692210629187fea1b98007c" xlink:title=" ">
<polygon fill="white" stroke="#666666" points="134.5,-132 0,-132 0,-100 134.5,-100 134.5,-132"/>
<text text-anchor="start" x="8" y="-118.5" font-family="Helvetica,sans-Serif" font-size="10.00">acmaes::AcmaesOptimizer</text>
<text text-anchor="middle" x="67.25" y="-106.5" font-family="Helvetica,sans-Serif" font-size="10.00">::doOptimize</text>
</a>
</g>
</g>
<!-- Node1&#45;&gt;Node3 -->
<g id="edge10_Node000001_Node000003" class="edge">
<title>Node1&#45;&gt;Node3</title>
<g id="a_edge10_Node000001_Node000003"><a xlink:title=" ">
<path fill="none" stroke="#63b8ff" d="M158.9,-102.55C150.89,-103.74 142.79,-104.94 134.91,-106.11"/>
<polygon fill="#63b8ff" stroke="#63b8ff" points="159.28,-106.03 168.66,-101.1 158.25,-99.11 159.28,-106.03"/>
</a>
</g>
</g>
<!-- Node4 -->
<g id="Node000004" class="node">
<title>Node4</title>
<g id="a_Node000004"><a xlink:href="$classacmaes_1_1_acmaes_optimizer.html#ad73e4ffab0c5d511107d58491540de24" xlink:title=" ">
<polygon fill="white" stroke="#666666" points="134.5,-82 0,-82 0,-50 134.5,-50 134.5,-82"/>
<text text-anchor="start" x="8" y="-68.5" font-family="Helvetica,sans-Serif" font-size="10.00">acmaes::AcmaesOptimizer</text>
<text text-anchor="middle" x="67.25" y="-56.5" font-family="Helvetica,sans-Serif" font-size="10.00">::tell_all</text>
</a>
</g>
</g>
<!-- Node1&#45;&gt;Node4 -->
<g id="edge11_Node000001_Node000004" class="edge">
<title>Node1&#45;&gt;Node4</title>
<g id="a_edge11_Node000001_Node000004"><a xlink:title=" ">
<path fill="none" stroke="#63b8ff" d="M158.9,-79.45C150.89,-78.26 142.79,-77.06 134.91,-75.89"/>
<polygon fill="#63b8ff" stroke="#63b8ff" points="158.25,-82.89 168.66,-80.9 159.28,-75.97 158.25,-82.89"/>
</a>
</g>
</g>
<!-- Node5 -->
<g id="Node000005" class="node">
<title>Node5</title>
<g id="a_Node000005"><a xlink:href="$classacmaes_1_1_acmaes_optimizer.html#aaabb9e299b54d36fc3244bfc05184e27" xlink:title=" ">
<polygon fill="white" stroke="#666666" points="134.5,-32 0,-32 0,0 134.5,0 134.5,-32"/>
<text text-anchor="start" x="8" y="-18.5" font-family="Helvetica,sans-Serif" font-size="10.00">acmaes::AcmaesOptimizer</text>
<text text-anchor="middle" x="67.25" y="-6.5" font-family="Helvetica,sans-Serif" font-size="10.00">::tell_all_asked</text>
</a>
</g>
</g>
<!-- Node1&#45;&gt;Node5 -->
<g id="edge12_Node000001_Node000005" class="edge">
<title>Node1&#45;&gt;Node5</title>
<g id="a_edge12_Node000001_Node000005"><a xlink:title=" ">
<path fill="none" stroke="#63b8ff" d="M195.23,-69.59C176.81,-60.39 154.76,-49.75 134.5,-41 127.73,-38.07 120.49,-35.15 113.38,-32.38"/>
<polygon fill="#63b8ff" stroke="#63b8ff" points="193.47,-72.63 203.98,-74 196.62,-66.38 193.47,-72.63"/>
</a>
</g>
</g>
</g>
</svg>
