<?xml version="1.0" encoding="UTF-8" standalone="no"?>
<!DOCTYPE svg PUBLIC "-//W3C//DTD SVG 1.1//EN"
 "http://www.w3.org/Graphics/SVG/1.1/DTD/svg11.dtd">
<!-- Generated by graphviz version 12.2.1 (20241206.2353)
 -->
<!-- Title: hbv.hbv.qd_fitness Pages: 1 -->
<svg width="1139pt" height="878pt"
 viewBox="0.00 0.00 1138.50 878.00" xmlns="http://www.w3.org/2000/svg" xmlns:xlink="http://www.w3.org/1999/xlink">
<g id="graph0" class="graph" transform="scale(1 1) rotate(0) translate(4 874)">
<title>hbv.hbv.qd_fitness</title>
<!-- Node1 -->
<g id="Node000001" class="node">
<title>Node1</title>
<g id="a_Node000001"><a xlink:title=" ">
<polygon fill="#999999" stroke="#666666" points="97,-439 0,-439 0,-419 97,-419 97,-439"/>
<text text-anchor="middle" x="48.5" y="-425.5" font-family="Helvetica,sans-Serif" font-size="10.00">hbv.hbv.qd_fitness</text>
</a>
</g>
</g>
<!-- Node2 -->
<g id="Node000002" class="node">
<title>Node2</title>
<g id="a_Node000002"><a xlink:href="$classexamples_1_1arm_1_1fitness.html#ac275bc61471d8757c126d150d47ce202" xlink:title=" ">
<polygon fill="white" stroke="#666666" points="268.62,-870 155.88,-870 155.88,-838 268.62,-838 268.62,-870"/>
<text text-anchor="start" x="163.88" y="-856.5" font-family="Helvetica,sans-Serif" font-size="10.00">examples.arm.fitness.</text>
<text text-anchor="middle" x="212.25" y="-844.5" font-family="Helvetica,sans-Serif" font-size="10.00">__call__</text>
</a>
</g>
</g>
<!-- Node1&#45;&gt;Node2 -->
<g id="edge107_Node000001_Node000002" class="edge">
<title>Node1&#45;&gt;Node2</title>
<g id="a_edge107_Node000001_Node000002"><a xlink:title=" ">
<path fill="none" stroke="#63b8ff" d="M50.28,-439.4C54.71,-496.2 78.61,-768.67 133,-829 136.63,-833.03 140.9,-836.41 145.56,-839.25"/>
<polygon fill="#63b8ff" stroke="#63b8ff" points="143.69,-842.23 154.19,-843.66 146.88,-835.99 143.69,-842.23"/>
</a>
</g>
</g>
<!-- Node4 -->
<g id="Node000004" class="node">
<title>Node4</title>
<g id="a_Node000004"><a xlink:href="$classexamples_1_1crypto_1_1fitness.html#ac24e8f7966063c3bc0cc215a561cbadb" xlink:title=" ">
<polygon fill="white" stroke="#666666" points="273.88,-770 150.62,-770 150.62,-738 273.88,-738 273.88,-770"/>
<text text-anchor="start" x="158.62" y="-756.5" font-family="Helvetica,sans-Serif" font-size="10.00">examples.crypto.fitness.</text>
<text text-anchor="middle" x="212.25" y="-744.5" font-family="Helvetica,sans-Serif" font-size="10.00">__call__</text>
</a>
</g>
</g>
<!-- Node1&#45;&gt;Node4 -->
<g id="edge109_Node000001_Node000004" class="edge">
<title>Node1&#45;&gt;Node4</title>
<g id="a_edge109_Node000001_Node000004"><a xlink:title=" ">
<path fill="none" stroke="#63b8ff" d="M49.11,-439.46C48.11,-481.89 50.13,-642.93 133,-729 135.32,-731.41 137.87,-733.58 140.59,-735.55"/>
<polygon fill="#63b8ff" stroke="#63b8ff" points="138.73,-738.52 149.1,-740.69 142.34,-732.52 138.73,-738.52"/>
</a>
</g>
</g>
<!-- Node13 -->
<g id="Node000013" class="node">
<title>Node13</title>
<g id="a_Node000013"><a xlink:href="$classexamples_1_1damp_1_1fitness.html#a182cdb7a5c25015336faa57a9afebef6" xlink:title=" ">
<polygon fill="white" stroke="#666666" points="272.38,-820 152.12,-820 152.12,-788 272.38,-788 272.38,-820"/>
<text text-anchor="start" x="160.12" y="-806.5" font-family="Helvetica,sans-Serif" font-size="10.00">examples.damp.fitness.</text>
<text text-anchor="middle" x="212.25" y="-794.5" font-family="Helvetica,sans-Serif" font-size="10.00">__call__</text>
</a>
</g>
</g>
<!-- Node1&#45;&gt;Node13 -->
<g id="edge120_Node000001_Node000013" class="edge">
<title>Node1&#45;&gt;Node13</title>
<g id="a_edge120_Node000001_Node000013"><a xlink:title=" ">
<path fill="none" stroke="#63b8ff" d="M50.62,-439.46C56.42,-492.03 84.78,-727.02 133,-779 135.7,-781.91 138.74,-784.48 142.01,-786.76"/>
<polygon fill="#63b8ff" stroke="#63b8ff" points="140.04,-789.67 150.45,-791.65 143.56,-783.61 140.04,-789.67"/>
</a>
</g>
</g>
<!-- Node15 -->
<g id="Node000015" class="node">
<title>Node15</title>
<g id="a_Node000015"><a xlink:href="$classexamples_1_1harvesting_1_1fitness.html#add29e0fd221efd5ffa3ce2f0933b633f" xlink:title=" ">
<polygon fill="white" stroke="#666666" points="282.88,-720 141.62,-720 141.62,-688 282.88,-688 282.88,-720"/>
<text text-anchor="start" x="149.62" y="-706.5" font-family="Helvetica,sans-Serif" font-size="10.00">examples.harvesting.fitness.</text>
<text text-anchor="middle" x="212.25" y="-694.5" font-family="Helvetica,sans-Serif" font-size="10.00">__call__</text>
</a>
</g>
</g>
<!-- Node1&#45;&gt;Node15 -->
<g id="edge122_Node000001_Node000015" class="edge">
<title>Node1&#45;&gt;Node15</title>
<g id="a_edge122_Node000001_Node000015"><a xlink:title=" ">
<path fill="none" stroke="#63b8ff" d="M49.78,-439.26C51.37,-476.91 62,-608.93 133,-679 133.73,-679.72 134.49,-680.43 135.26,-681.11"/>
<polygon fill="#63b8ff" stroke="#63b8ff" points="132.84,-683.67 142.97,-686.77 136.98,-678.03 132.84,-683.67"/>
</a>
</g>
</g>
<!-- Node21 -->
<g id="Node000021" class="node">
<title>Node21</title>
<g id="a_Node000021"><a xlink:href="$classfcmaes_1_1astro_1_1python__fun.html#a192073cb4d9c99ce7078bc4600bb2d7f" xlink:title="Evaluates the given callable function mapped to astro_map using the input array x.">
<polygon fill="white" stroke="#666666" points="264.88,-670 159.62,-670 159.62,-638 264.88,-638 264.88,-670"/>
<text text-anchor="start" x="167.62" y="-656.5" font-family="Helvetica,sans-Serif" font-size="10.00">fcmaes.astro.python</text>
<text text-anchor="middle" x="212.25" y="-644.5" font-family="Helvetica,sans-Serif" font-size="10.00">_fun.__call__</text>
</a>
</g>
</g>
<!-- Node1&#45;&gt;Node21 -->
<g id="edge129_Node000001_Node000021" class="edge">
<title>Node1&#45;&gt;Node21</title>
<g id="a_edge129_Node000001_Node000021"><a xlink:title=" ">
<path fill="none" stroke="#63b8ff" d="M50.78,-439.45C55.35,-472.35 73.94,-574.82 133,-629 137.78,-633.38 143.33,-637 149.23,-639.98"/>
<polygon fill="#63b8ff" stroke="#63b8ff" points="147.46,-643.03 158.02,-643.82 150.26,-636.61 147.46,-643.03"/>
</a>
</g>
</g>
<!-- Node22 -->
<g id="Node000022" class="node">
<title>Node22</title>
<g id="a_Node000022"><a xlink:href="$classfcmaes_1_1evaluator_1_1callback.html#a2725c10a3383f79e36a236de01c56c53" xlink:title="Evaluates a function with input values derived from an array slice, returning a numerical result.">
<polygon fill="white" stroke="#666666" points="278.75,-620 145.75,-620 145.75,-588 278.75,-588 278.75,-620"/>
<text text-anchor="start" x="153.75" y="-606.5" font-family="Helvetica,sans-Serif" font-size="10.00">fcmaes.evaluator.callback.</text>
<text text-anchor="middle" x="212.25" y="-594.5" font-family="Helvetica,sans-Serif" font-size="10.00">__call__</text>
</a>
</g>
</g>
<!-- Node1&#45;&gt;Node22 -->
<g id="edge130_Node000001_Node000022" class="edge">
<title>Node1&#45;&gt;Node22</title>
<g id="a_edge130_Node000001_Node000022"><a xlink:title=" ">
<path fill="none" stroke="#63b8ff" d="M52.37,-439.48C60.37,-466.68 85.49,-540.11 133,-579 134.12,-579.91 135.27,-580.8 136.45,-581.65"/>
<polygon fill="#63b8ff" stroke="#63b8ff" points="134.37,-584.48 144.72,-586.75 138.05,-578.52 134.37,-584.48"/>
</a>
</g>
</g>
<!-- Node23 -->
<g id="Node000023" class="node">
<title>Node23</title>
<g id="a_Node000023"><a xlink:href="$classfcmaes_1_1evaluator_1_1callback__mo.html#a99eab2bafd1186fff0be59544a596443" xlink:title="Executes a callable object that processes given input, evaluates a function, and optionally checks a ...">
<polygon fill="white" stroke="#666666" points="277.25,-570 147.25,-570 147.25,-538 277.25,-538 277.25,-570"/>
<text text-anchor="start" x="155.25" y="-556.5" font-family="Helvetica,sans-Serif" font-size="10.00">fcmaes.evaluator.callback</text>
<text text-anchor="middle" x="212.25" y="-544.5" font-family="Helvetica,sans-Serif" font-size="10.00">_mo.__call__</text>
</a>
</g>
</g>
<!-- Node1&#45;&gt;Node23 -->
<g id="edge131_Node000001_Node000023" class="edge">
<title>Node1&#45;&gt;Node23</title>
<g id="a_edge131_Node000001_Node000023"><a xlink:title=" ">
<path fill="none" stroke="#63b8ff" d="M55.41,-439.45C67.41,-459.71 96.59,-504.51 133,-529 134.82,-530.22 136.7,-531.39 138.64,-532.5"/>
<polygon fill="#63b8ff" stroke="#63b8ff" points="136.8,-535.5 147.3,-536.93 139.99,-529.26 136.8,-535.5"/>
</a>
</g>
</g>
<!-- Node24 -->
<g id="Node000024" class="node">
<title>Node24</title>
<g id="a_Node000024"><a xlink:href="$classfcmaes_1_1evaluator_1_1callback__par.html#a2cc5592287f3feddcda3e51dcf38054b" xlink:title="Calls the function or parallel function to evaluate the array of input values and store the results.">
<polygon fill="white" stroke="#666666" points="277.25,-520 147.25,-520 147.25,-488 277.25,-488 277.25,-520"/>
<text text-anchor="start" x="155.25" y="-506.5" font-family="Helvetica,sans-Serif" font-size="10.00">fcmaes.evaluator.callback</text>
<text text-anchor="middle" x="212.25" y="-494.5" font-family="Helvetica,sans-Serif" font-size="10.00">_par.__call__</text>
</a>
</g>
</g>
<!-- Node1&#45;&gt;Node24 -->
<g id="edge132_Node000001_Node000024" class="edge">
<title>Node1&#45;&gt;Node24</title>
<g id="a_edge132_Node000001_Node000024"><a xlink:title=" ">
<path fill="none" stroke="#63b8ff" d="M64.32,-439.31C80.58,-450.28 107.75,-467.59 133,-479 136.55,-480.6 140.24,-482.15 143.99,-483.64"/>
<polygon fill="#63b8ff" stroke="#63b8ff" points="142.66,-486.87 153.25,-487.11 145.12,-480.32 142.66,-486.87"/>
</a>
</g>
</g>
<!-- Node25 -->
<g id="Node000025" class="node">
<title>Node25</title>
<g id="a_Node000025"><a xlink:href="$classfcmaes_1_1evaluator_1_1callback__so.html#a91b3f73bc6c6999748aaf8bfb94cdd39" xlink:title="Invokes the callable object with given dimensions and inputs, processes the input buffers,...">
<polygon fill="white" stroke="#666666" points="277.25,-470 147.25,-470 147.25,-438 277.25,-438 277.25,-470"/>
<text text-anchor="start" x="155.25" y="-456.5" font-family="Helvetica,sans-Serif" font-size="10.00">fcmaes.evaluator.callback</text>
<text text-anchor="middle" x="212.25" y="-444.5" font-family="Helvetica,sans-Serif" font-size="10.00">_so.__call__</text>
</a>
</g>
</g>
<!-- Node1&#45;&gt;Node25 -->
<g id="edge133_Node000001_Node000025" class="edge">
<title>Node1&#45;&gt;Node25</title>
<g id="a_edge133_Node000001_Node000025"><a xlink:title=" ">
<path fill="none" stroke="#63b8ff" d="M97.16,-436.37C109.31,-438.24 122.68,-440.31 135.86,-442.35"/>
<polygon fill="#63b8ff" stroke="#63b8ff" points="134.94,-445.75 145.35,-443.82 136.01,-438.83 134.94,-445.75"/>
</a>
</g>
</g>
<!-- Node26 -->
<g id="Node000026" class="node">
<title>Node26</title>
<g id="a_Node000026"><a xlink:href="$classfcmaes_1_1evaluator_1_1parallel.html#a63cfd5289e05dc71f2b53e24e268350f" xlink:title="Evaluates the input using the provided evaluator function in parallel and returns the result.">
<polygon fill="white" stroke="#666666" points="276.12,-420 148.38,-420 148.38,-388 276.12,-388 276.12,-420"/>
<text text-anchor="start" x="156.38" y="-406.5" font-family="Helvetica,sans-Serif" font-size="10.00">fcmaes.evaluator.parallel.</text>
<text text-anchor="middle" x="212.25" y="-394.5" font-family="Helvetica,sans-Serif" font-size="10.00">__call__</text>
</a>
</g>
</g>
<!-- Node1&#45;&gt;Node26 -->
<g id="edge134_Node000001_Node000026" class="edge">
<title>Node1&#45;&gt;Node26</title>
<g id="a_edge134_Node000001_Node000026"><a xlink:title=" ">
<path fill="none" stroke="#63b8ff" d="M97.16,-421.63C109.6,-419.71 123.33,-417.59 136.81,-415.51"/>
<polygon fill="#63b8ff" stroke="#63b8ff" points="137.2,-418.99 146.54,-414 136.13,-412.07 137.2,-418.99"/>
</a>
</g>
</g>
<!-- Node29 -->
<g id="Node000029" class="node">
<title>Node29</title>
<g id="a_Node000029"><a xlink:href="$classfcmaes_1_1evaluator_1_1parallel__mo.html#a2e2dfb664e0d8c322934abcba87e59a4" xlink:title="Evaluates a set of inputs using a specified evaluator in a parallelized manner, producing a multi&#45;obj...">
<polygon fill="white" stroke="#666666" points="274.62,-370 149.88,-370 149.88,-338 274.62,-338 274.62,-370"/>
<text text-anchor="start" x="157.88" y="-356.5" font-family="Helvetica,sans-Serif" font-size="10.00">fcmaes.evaluator.parallel</text>
<text text-anchor="middle" x="212.25" y="-344.5" font-family="Helvetica,sans-Serif" font-size="10.00">_mo.__call__</text>
</a>
</g>
</g>
<!-- Node1&#45;&gt;Node29 -->
<g id="edge137_Node000001_Node000029" class="edge">
<title>Node1&#45;&gt;Node29</title>
<g id="a_edge137_Node000001_Node000029"><a xlink:title=" ">
<path fill="none" stroke="#63b8ff" d="M64.32,-418.69C80.58,-407.72 107.75,-390.41 133,-379 136.55,-377.4 140.24,-375.85 143.99,-374.36"/>
<polygon fill="#63b8ff" stroke="#63b8ff" points="145.12,-377.68 153.25,-370.89 142.66,-371.13 145.12,-377.68"/>
</a>
</g>
</g>
<!-- Node31 -->
<g id="Node000031" class="node">
<title>Node31</title>
<g id="a_Node000031"><a xlink:href="$classfcmaes_1_1journal_1_1journal__wrapper.html#ad219e74b48d4588e84683ec326143a48" xlink:title="Executes the callable functionality, managing and processing a batch of inputs and outputs concurrent...">
<polygon fill="white" stroke="#666666" points="267.88,-320 156.62,-320 156.62,-288 267.88,-288 267.88,-320"/>
<text text-anchor="start" x="164.62" y="-306.5" font-family="Helvetica,sans-Serif" font-size="10.00">fcmaes.journal.journal</text>
<text text-anchor="middle" x="212.25" y="-294.5" font-family="Helvetica,sans-Serif" font-size="10.00">_wrapper.__call__</text>
</a>
</g>
</g>
<!-- Node1&#45;&gt;Node31 -->
<g id="edge140_Node000001_Node000031" class="edge">
<title>Node1&#45;&gt;Node31</title>
<g id="a_edge140_Node000001_Node000031"><a xlink:title=" ">
<path fill="none" stroke="#63b8ff" d="M55.41,-418.55C67.41,-398.29 96.59,-353.49 133,-329 137.1,-326.24 141.53,-323.77 146.12,-321.56"/>
<polygon fill="#63b8ff" stroke="#63b8ff" points="147.19,-324.91 154.98,-317.73 144.41,-318.48 147.19,-324.91"/>
</a>
</g>
</g>
<!-- Node40 -->
<g id="Node000040" class="node">
<title>Node40</title>
<g id="a_Node000040"><a xlink:href="$classfcmaes_1_1mapelites_1_1in__niche__filter.html#a488d9065cc360b95c707fcd92793ff31" xlink:title="Evaluates the input by fitting it and checking against a specific index.">
<polygon fill="white" stroke="#666666" points="266,-270 158.5,-270 158.5,-238 266,-238 266,-270"/>
<text text-anchor="start" x="166.5" y="-256.5" font-family="Helvetica,sans-Serif" font-size="10.00">fcmaes.mapelites.in</text>
<text text-anchor="middle" x="212.25" y="-244.5" font-family="Helvetica,sans-Serif" font-size="10.00">_niche_filter.__call__</text>
</a>
</g>
</g>
<!-- Node1&#45;&gt;Node40 -->
<g id="edge151_Node000001_Node000040" class="edge">
<title>Node1&#45;&gt;Node40</title>
<g id="a_edge151_Node000001_Node000040"><a xlink:title=" ">
<path fill="none" stroke="#63b8ff" d="M52.37,-418.52C60.37,-391.32 85.49,-317.89 133,-279 137.51,-275.31 142.56,-272.16 147.88,-269.48"/>
<polygon fill="#63b8ff" stroke="#63b8ff" points="149.24,-272.71 156.98,-265.47 146.42,-266.3 149.24,-272.71"/>
</a>
</g>
</g>
<!-- Node41 -->
<g id="Node000041" class="node">
<title>Node41</title>
<g id="a_Node000041"><a xlink:href="$classfcmaes_1_1mapelites_1_1wrapper.html#aef447c485c8dad313f64e3df4768218e" xlink:title="Handles the evaluation of input data, including logging and archiving results, while maintaining the ...">
<polygon fill="white" stroke="#666666" points="279.12,-220 145.38,-220 145.38,-188 279.12,-188 279.12,-220"/>
<text text-anchor="start" x="153.38" y="-206.5" font-family="Helvetica,sans-Serif" font-size="10.00">fcmaes.mapelites.wrapper.</text>
<text text-anchor="middle" x="212.25" y="-194.5" font-family="Helvetica,sans-Serif" font-size="10.00">__call__</text>
</a>
</g>
</g>
<!-- Node1&#45;&gt;Node41 -->
<g id="edge152_Node000001_Node000041" class="edge">
<title>Node1&#45;&gt;Node41</title>
<g id="a_edge152_Node000001_Node000041"><a xlink:title=" ">
<path fill="none" stroke="#63b8ff" d="M50.78,-418.55C55.35,-385.65 73.94,-283.18 133,-229 133.92,-228.16 134.87,-227.34 135.84,-226.55"/>
<polygon fill="#63b8ff" stroke="#63b8ff" points="137.66,-229.55 143.96,-221.03 133.72,-223.76 137.66,-229.55"/>
</a>
</g>
</g>
<!-- Node42 -->
<g id="Node000042" class="node">
<title>Node42</title>
<g id="a_Node000042"><a xlink:href="$classfcmaes_1_1mode_1_1wrapper.html#a3da595496f0fa1e7a64955db25dec429" xlink:title="Executes the callable object with the input data, applies the function to evaluate the data,...">
<polygon fill="white" stroke="#666666" points="270.12,-170 154.38,-170 154.38,-138 270.12,-138 270.12,-170"/>
<text text-anchor="start" x="162.38" y="-156.5" font-family="Helvetica,sans-Serif" font-size="10.00">fcmaes.mode.wrapper.</text>
<text text-anchor="middle" x="212.25" y="-144.5" font-family="Helvetica,sans-Serif" font-size="10.00">__call__</text>
</a>
</g>
</g>
<!-- Node1&#45;&gt;Node42 -->
<g id="edge153_Node000001_Node000042" class="edge">
<title>Node1&#45;&gt;Node42</title>
<g id="a_edge153_Node000001_Node000042"><a xlink:title=" ">
<path fill="none" stroke="#63b8ff" d="M49.78,-418.74C51.37,-381.09 62,-249.07 133,-179 136.37,-175.68 140.18,-172.79 144.26,-170.29"/>
<polygon fill="#63b8ff" stroke="#63b8ff" points="145.59,-173.54 152.85,-165.83 142.36,-167.33 145.59,-173.54"/>
</a>
</g>
</g>
<!-- Node44 -->
<g id="Node000044" class="node">
<title>Node44</title>
<g id="a_Node000044"><a xlink:href="$classfcmaes_1_1optimizer_1_1_check_bounds.html#a85adee224b45c4a645b251017c1d604b" xlink:title="Checks if the given &#39;x_new&#39; value falls within the defined bounds.">
<polygon fill="white" stroke="#666666" points="291.5,-120 133,-120 133,-88 291.5,-88 291.5,-120"/>
<text text-anchor="start" x="141" y="-106.5" font-family="Helvetica,sans-Serif" font-size="10.00">fcmaes.optimizer.CheckBounds.</text>
<text text-anchor="middle" x="212.25" y="-94.5" font-family="Helvetica,sans-Serif" font-size="10.00">__call__</text>
</a>
</g>
</g>
<!-- Node1&#45;&gt;Node44 -->
<g id="edge155_Node000001_Node000044" class="edge">
<title>Node1&#45;&gt;Node44</title>
<g id="a_edge155_Node000001_Node000044"><a xlink:title=" ">
<path fill="none" stroke="#63b8ff" d="M49.11,-418.54C48.11,-376.11 50.13,-215.07 133,-129 133.59,-128.38 134.2,-127.78 134.83,-127.2"/>
<polygon fill="#63b8ff" stroke="#63b8ff" points="136.67,-130.19 142.44,-121.3 132.39,-124.66 136.67,-130.19"/>
</a>
</g>
</g>
<!-- Node45 -->
<g id="Node000045" class="node">
<title>Node45</title>
<g id="a_Node000045"><a xlink:href="$classfcmaes_1_1optimizer_1_1wrapper.html#a430bf153bd7cabe32d29db369f16b53e" xlink:title="Executes the callable object with the given input x, tracking its evaluations and logging improvement...">
<polygon fill="white" stroke="#666666" points="278,-70 146.5,-70 146.5,-38 278,-38 278,-70"/>
<text text-anchor="start" x="154.5" y="-56.5" font-family="Helvetica,sans-Serif" font-size="10.00">fcmaes.optimizer.wrapper.</text>
<text text-anchor="middle" x="212.25" y="-44.5" font-family="Helvetica,sans-Serif" font-size="10.00">__call__</text>
</a>
</g>
</g>
<!-- Node1&#45;&gt;Node45 -->
<g id="edge156_Node000001_Node000045" class="edge">
<title>Node1&#45;&gt;Node45</title>
<g id="a_edge156_Node000001_Node000045"><a xlink:title=" ">
<path fill="none" stroke="#63b8ff" d="M50.62,-418.54C56.42,-365.97 84.78,-130.98 133,-79 134.18,-77.73 135.43,-76.52 136.73,-75.37"/>
<polygon fill="#63b8ff" stroke="#63b8ff" points="138.76,-78.22 144.82,-69.53 134.66,-72.54 138.76,-78.22"/>
</a>
</g>
</g>
<!-- Node46 -->
<g id="Node000046" class="node">
<title>Node46</title>
<g id="a_Node000046"><a xlink:href="$classhbv_1_1hbv.html#af5f8604b9c3d15a55b152cee78d56e39" xlink:title=" ">
<polygon fill="white" stroke="#666666" points="256.25,-20 168.25,-20 168.25,0 256.25,0 256.25,-20"/>
<text text-anchor="middle" x="212.25" y="-6.5" font-family="Helvetica,sans-Serif" font-size="10.00">hbv.hbv.__call__</text>
</a>
</g>
</g>
<!-- Node1&#45;&gt;Node46 -->
<g id="edge157_Node000001_Node000046" class="edge">
<title>Node1&#45;&gt;Node46</title>
<g id="a_edge157_Node000001_Node000046"><a xlink:title=" ">
<path fill="none" stroke="#63b8ff" d="M50.21,-418.54C54.27,-361.38 76.5,-87.36 133,-29 139.5,-22.29 147.94,-17.79 156.86,-14.8"/>
<polygon fill="#63b8ff" stroke="#63b8ff" points="157.66,-18.2 166.42,-12.24 155.86,-11.44 157.66,-18.2"/>
</a>
</g>
</g>
<!-- Node3 -->
<g id="Node000003" class="node">
<title>Node3</title>
<g id="a_Node000003"><a xlink:href="$namespaceexamples_1_1arm.html#a80e778de36aaf3dc8e17664107b0e7d3" xlink:title="Calculates links positions given joint angles.">
<polygon fill="white" stroke="#666666" points="461.25,-870 348.5,-870 348.5,-838 461.25,-838 461.25,-870"/>
<text text-anchor="start" x="356.5" y="-856.5" font-family="Helvetica,sans-Serif" font-size="10.00">examples.arm.forward</text>
<text text-anchor="middle" x="404.88" y="-844.5" font-family="Helvetica,sans-Serif" font-size="10.00">_kinematics</text>
</a>
</g>
</g>
<!-- Node2&#45;&gt;Node3 -->
<g id="edge108_Node000002_Node000003" class="edge">
<title>Node2&#45;&gt;Node3</title>
<g id="a_edge108_Node000002_Node000003"><a xlink:title=" ">
<path fill="none" stroke="#63b8ff" d="M268.9,-854C290.14,-854 314.58,-854 336.78,-854"/>
<polygon fill="#63b8ff" stroke="#63b8ff" points="336.64,-857.5 346.64,-854 336.64,-850.5 336.64,-857.5"/>
</a>
</g>
</g>
<!-- Node5 -->
<g id="Node000005" class="node">
<title>Node5</title>
<g id="a_Node000005"><a xlink:href="$classexamples_1_1crypto_1_1fitness.html#a5a933388f6d0303f80251156e30e6b9b" xlink:title=" ">
<polygon fill="white" stroke="#666666" points="473.25,-761 336.5,-761 336.5,-741 473.25,-741 473.25,-761"/>
<text text-anchor="middle" x="404.88" y="-747.5" font-family="Helvetica,sans-Serif" font-size="10.00">examples.crypto.fitness.fun</text>
</a>
</g>
</g>
<!-- Node4&#45;&gt;Node5 -->
<g id="edge110_Node000004_Node000005" class="edge">
<title>Node4&#45;&gt;Node5</title>
<g id="a_edge110_Node000004_Node000005"><a xlink:title=" ">
<path fill="none" stroke="#63b8ff" d="M274.35,-753.04C290.37,-752.79 307.87,-752.51 324.68,-752.25"/>
<polygon fill="#63b8ff" stroke="#63b8ff" points="324.72,-755.75 334.67,-752.09 324.61,-748.75 324.72,-755.75"/>
</a>
</g>
</g>
<!-- Node6 -->
<g id="Node000006" class="node">
<title>Node6</title>
<g id="a_Node000006"><a xlink:href="$namespaceexamples_1_1crypto.html#a75d529296c6d83294ad1c37e55bd267f" xlink:title=" ">
<polygon fill="white" stroke="#666666" points="651.25,-761 523.5,-761 523.5,-741 651.25,-741 651.25,-761"/>
<text text-anchor="middle" x="587.38" y="-747.5" font-family="Helvetica,sans-Serif" font-size="10.00">examples.crypto.simulate</text>
</a>
</g>
</g>
<!-- Node5&#45;&gt;Node6 -->
<g id="edge111_Node000005_Node000006" class="edge">
<title>Node5&#45;&gt;Node6</title>
<g id="a_edge111_Node000005_Node000006"><a xlink:title=" ">
<path fill="none" stroke="#63b8ff" d="M473.6,-751C486.01,-751 499.02,-751 511.62,-751"/>
<polygon fill="#63b8ff" stroke="#63b8ff" points="511.53,-754.5 521.53,-751 511.53,-747.5 511.53,-754.5"/>
</a>
</g>
</g>
<!-- Node7 -->
<g id="Node000007" class="node">
<title>Node7</title>
<g id="a_Node000007"><a xlink:href="$namespaceexamples_1_1crypto.html#a38e3ca807ed30d1fa4d4a5cc478e1525" xlink:title=" ">
<polygon fill="white" stroke="#666666" points="824.38,-799 695.88,-799 695.88,-779 824.38,-779 824.38,-799"/>
<text text-anchor="middle" x="760.12" y="-785.5" font-family="Helvetica,sans-Serif" font-size="10.00">examples.crypto.get_ema</text>
</a>
</g>
</g>
<!-- Node6&#45;&gt;Node7 -->
<g id="edge112_Node000006_Node000007" class="edge">
<title>Node6&#45;&gt;Node7</title>
<g id="a_edge112_Node000006_Node000007"><a xlink:title=" ">
<path fill="none" stroke="#63b8ff" d="M635.49,-761.48C655.73,-765.99 679.6,-771.3 700.94,-776.05"/>
<polygon fill="#63b8ff" stroke="#63b8ff" points="700.17,-779.47 710.69,-778.22 701.69,-772.63 700.17,-779.47"/>
</a>
</g>
</g>
<!-- Node8 -->
<g id="Node000008" class="node">
<title>Node8</title>
<g id="a_Node000008"><a xlink:href="$namespaceexamples_1_1crypto.html#a8fe56bb9960bb347eee6e2c39ddbd90f" xlink:title=" ">
<polygon fill="white" stroke="#666666" points="824.38,-761 695.88,-761 695.88,-741 824.38,-741 824.38,-761"/>
<text text-anchor="middle" x="760.12" y="-747.5" font-family="Helvetica,sans-Serif" font-size="10.00">examples.crypto.get_sma</text>
</a>
</g>
</g>
<!-- Node6&#45;&gt;Node8 -->
<g id="edge113_Node000006_Node000008" class="edge">
<title>Node6&#45;&gt;Node8</title>
<g id="a_edge113_Node000006_Node000008"><a xlink:title=" ">
<path fill="none" stroke="#63b8ff" d="M651.47,-751C662.12,-751 673.26,-751 684.17,-751"/>
<polygon fill="#63b8ff" stroke="#63b8ff" points="683.92,-754.5 693.92,-751 683.92,-747.5 683.92,-754.5"/>
</a>
</g>
</g>
<!-- Node9 -->
<g id="Node000009" class="node">
<title>Node9</title>
<g id="a_Node000009"><a xlink:href="$namespaceexamples_1_1crypto.html#a61f6c93fa62a257ed271a0aa1210f604" xlink:title=" ">
<polygon fill="white" stroke="#666666" points="823.25,-723 697,-723 697,-703 823.25,-703 823.25,-723"/>
<text text-anchor="middle" x="760.12" y="-709.5" font-family="Helvetica,sans-Serif" font-size="10.00">examples.crypto.strategy</text>
</a>
</g>
</g>
<!-- Node6&#45;&gt;Node9 -->
<g id="edge114_Node000006_Node000009" class="edge">
<title>Node6&#45;&gt;Node9</title>
<g id="a_edge114_Node000006_Node000009"><a xlink:title=" ">
<path fill="none" stroke="#63b8ff" d="M635.49,-740.52C655.73,-736.01 679.6,-730.7 700.94,-725.95"/>
<polygon fill="#63b8ff" stroke="#63b8ff" points="701.69,-729.37 710.69,-723.78 700.17,-722.53 701.69,-729.37"/>
</a>
</g>
</g>
<!-- Node10 -->
<g id="Node000010" class="node">
<title>Node10</title>
<g id="a_Node000010"><a xlink:href="$namespaceexamples_1_1crypto.html#a54eb39bc81fed172b7d1d74dcec022c2" xlink:title=" ">
<polygon fill="white" stroke="#666666" points="1130.5,-742 1008.75,-742 1008.75,-722 1130.5,-722 1130.5,-742"/>
<text text-anchor="middle" x="1069.62" y="-728.5" font-family="Helvetica,sans-Serif" font-size="10.00">examples.crypto.buy_all</text>
</a>
</g>
</g>
<!-- Node9&#45;&gt;Node10 -->
<g id="edge115_Node000009_Node000010" class="edge">
<title>Node9&#45;&gt;Node10</title>
<g id="a_edge115_Node000009_Node000010"><a xlink:title=" ">
<path fill="none" stroke="#63b8ff" d="M807.62,-723.47C825.12,-726.92 845.26,-730.3 863.75,-732 907.92,-736.05 957.66,-736.16 997.08,-735.2"/>
<polygon fill="#63b8ff" stroke="#63b8ff" points="997.02,-738.7 1006.92,-734.93 996.82,-731.71 997.02,-738.7"/>
</a>
</g>
</g>
<!-- Node11 -->
<g id="Node000011" class="node">
<title>Node11</title>
<g id="a_Node000011"><a xlink:href="$namespaceexamples_1_1crypto.html#a941dc0c737b40581bde98db6aef23525" xlink:title=" ">
<polygon fill="white" stroke="#666666" points="972.75,-723 863.75,-723 863.75,-703 972.75,-703 972.75,-723"/>
<text text-anchor="middle" x="918.25" y="-709.5" font-family="Helvetica,sans-Serif" font-size="10.00">examples.crypto.hodl</text>
</a>
</g>
</g>
<!-- Node9&#45;&gt;Node11 -->
<g id="edge116_Node000009_Node000011" class="edge">
<title>Node9&#45;&gt;Node11</title>
<g id="a_edge116_Node000009_Node000011"><a xlink:title=" ">
<path fill="none" stroke="#63b8ff" d="M823.73,-713C833.14,-713 842.86,-713 852.31,-713"/>
<polygon fill="#63b8ff" stroke="#63b8ff" points="852.16,-716.5 862.16,-713 852.16,-709.5 852.16,-716.5"/>
</a>
</g>
</g>
<!-- Node12 -->
<g id="Node000012" class="node">
<title>Node12</title>
<g id="a_Node000012"><a xlink:href="$namespaceexamples_1_1crypto.html#a8e16e3bee50df8bd1b44e55fe8950e10" xlink:title=" ">
<polygon fill="white" stroke="#666666" points="1130.12,-695 1009.12,-695 1009.12,-675 1130.12,-675 1130.12,-695"/>
<text text-anchor="middle" x="1069.62" y="-681.5" font-family="Helvetica,sans-Serif" font-size="10.00">examples.crypto.sell_all</text>
</a>
</g>
</g>
<!-- Node9&#45;&gt;Node12 -->
<g id="edge119_Node000009_Node000012" class="edge">
<title>Node9&#45;&gt;Node12</title>
<g id="a_edge119_Node000009_Node000012"><a xlink:title=" ">
<path fill="none" stroke="#63b8ff" d="M809.98,-702.52C826.93,-699.27 846.11,-696.01 863.75,-694 908.02,-688.95 957.97,-686.69 997.46,-685.7"/>
<polygon fill="#63b8ff" stroke="#63b8ff" points="997.41,-689.2 1007.32,-685.47 997.25,-682.2 997.41,-689.2"/>
</a>
</g>
</g>
<!-- Node11&#45;&gt;Node10 -->
<g id="edge117_Node000011_Node000010" class="edge">
<title>Node11&#45;&gt;Node10</title>
<g id="a_edge117_Node000011_Node000010"><a xlink:title=" ">
<path fill="none" stroke="#63b8ff" d="M973.18,-719.86C980.96,-720.85 989.07,-721.88 997.13,-722.91"/>
<polygon fill="#63b8ff" stroke="#63b8ff" points="996.58,-726.36 1006.95,-724.15 997.47,-719.42 996.58,-726.36"/>
</a>
</g>
</g>
<!-- Node11&#45;&gt;Node12 -->
<g id="edge118_Node000011_Node000012" class="edge">
<title>Node11&#45;&gt;Node12</title>
<g id="a_edge118_Node000011_Node000012"><a xlink:title=" ">
<path fill="none" stroke="#63b8ff" d="M973.18,-702.89C982.43,-701.16 992.14,-699.34 1001.68,-697.55"/>
<polygon fill="#63b8ff" stroke="#63b8ff" points="1002.09,-701.03 1011.28,-695.75 1000.8,-694.15 1002.09,-701.03"/>
</a>
</g>
</g>
<!-- Node14 -->
<g id="Node000014" class="node">
<title>Node14</title>
<g id="a_Node000014"><a xlink:href="$namespaceexamples_1_1damp.html#ae2820d97b3059c42c2e26899fada5bae" xlink:title=" ">
<polygon fill="white" stroke="#666666" points="474,-814 335.75,-814 335.75,-794 474,-794 474,-814"/>
<text text-anchor="middle" x="404.88" y="-800.5" font-family="Helvetica,sans-Serif" font-size="10.00">examples.damp.integrate_C</text>
</a>
</g>
</g>
<!-- Node13&#45;&gt;Node14 -->
<g id="edge121_Node000013_Node000014" class="edge">
<title>Node13&#45;&gt;Node14</title>
<g id="a_edge121_Node000013_Node000014"><a xlink:title=" ">
<path fill="none" stroke="#63b8ff" d="M272.78,-804C289.09,-804 307.03,-804 324.27,-804"/>
<polygon fill="#63b8ff" stroke="#63b8ff" points="323.96,-807.5 333.96,-804 323.96,-800.5 323.96,-807.5"/>
</a>
</g>
</g>
<!-- Node15&#45;&gt;Node5 -->
<g id="edge123_Node000015_Node000005" class="edge">
<title>Node15&#45;&gt;Node5</title>
<g id="a_edge123_Node000015_Node000005"><a xlink:title=" ">
<path fill="none" stroke="#63b8ff" d="M279.92,-720.44C302.96,-726.12 328.46,-732.41 350.31,-737.79"/>
<polygon fill="#63b8ff" stroke="#63b8ff" points="349.36,-741.16 359.91,-740.16 351.04,-734.37 349.36,-741.16"/>
</a>
</g>
</g>
<!-- Node16 -->
<g id="Node000016" class="node">
<title>Node16</title>
<g id="a_Node000016"><a xlink:href="$classexamples_1_1f8_1_1f8__problem.html#a017bafba8cac9022a8683804494191ad" xlink:title=" ">
<polygon fill="white" stroke="#666666" points="473.25,-720 336.5,-720 336.5,-700 473.25,-700 473.25,-720"/>
<text text-anchor="middle" x="404.88" y="-706.5" font-family="Helvetica,sans-Serif" font-size="10.00">examples.f8.f8_problem.fun</text>
</a>
</g>
</g>
<!-- Node15&#45;&gt;Node16 -->
<g id="edge124_Node000015_Node000016" class="edge">
<title>Node15&#45;&gt;Node16</title>
<g id="a_edge124_Node000015_Node000016"><a xlink:title=" ">
<path fill="none" stroke="#63b8ff" d="M283.15,-706.2C296.68,-706.63 310.95,-707.08 324.75,-707.51"/>
<polygon fill="#63b8ff" stroke="#63b8ff" points="324.59,-711.01 334.7,-707.82 324.81,-704.01 324.59,-711.01"/>
</a>
</g>
</g>
<!-- Node17 -->
<g id="Node000017" class="node">
<title>Node17</title>
<g id="a_Node000017"><a xlink:href="$classexamples_1_1harvesting_1_1fitness.html#ac9d51d3f1b4b38e405e5cce9fdd48b7d" xlink:title=" ">
<polygon fill="white" stroke="#666666" points="482.25,-682 327.5,-682 327.5,-662 482.25,-662 482.25,-682"/>
<text text-anchor="middle" x="404.88" y="-668.5" font-family="Helvetica,sans-Serif" font-size="10.00">examples.harvesting.fitness.fun</text>
</a>
</g>
</g>
<!-- Node15&#45;&gt;Node17 -->
<g id="edge125_Node000015_Node000017" class="edge">
<title>Node15&#45;&gt;Node17</title>
<g id="a_edge125_Node000015_Node000017"><a xlink:title=" ">
<path fill="none" stroke="#63b8ff" d="M283.15,-692.27C298.54,-689.68 314.88,-686.94 330.41,-684.33"/>
<polygon fill="#63b8ff" stroke="#63b8ff" points="330.77,-687.82 340.06,-682.71 329.61,-680.92 330.77,-687.82"/>
</a>
</g>
</g>
<!-- Node18 -->
<g id="Node000018" class="node">
<title>Node18</title>
<g id="a_Node000018"><a xlink:href="$namespaceexamples_1_1harvesting.html#a5e6fd72941106ed07937bf8806852011" xlink:title=" ">
<polygon fill="white" stroke="#666666" points="652.38,-656 522.38,-656 522.38,-624 652.38,-624 652.38,-656"/>
<text text-anchor="start" x="530.38" y="-642.5" font-family="Helvetica,sans-Serif" font-size="10.00">examples.harvesting.exec</text>
<text text-anchor="middle" x="587.38" y="-630.5" font-family="Helvetica,sans-Serif" font-size="10.00">_tasks</text>
</a>
</g>
</g>
<!-- Node17&#45;&gt;Node18 -->
<g id="edge126_Node000017_Node000018" class="edge">
<title>Node17&#45;&gt;Node18</title>
<g id="a_edge126_Node000017_Node000018"><a xlink:title=" ">
<path fill="none" stroke="#63b8ff" d="M464.98,-661.52C479.7,-658.91 495.69,-656.08 511.08,-653.35"/>
<polygon fill="#63b8ff" stroke="#63b8ff" points="511.43,-656.84 520.67,-651.65 510.21,-649.95 511.43,-656.84"/>
</a>
</g>
</g>
<!-- Node20 -->
<g id="Node000020" class="node">
<title>Node20</title>
<g id="a_Node000020"><a xlink:href="$namespaceexamples_1_1harvesting.html#ac5401be59f58e63fbbb729287a4c3171" xlink:title=" ">
<polygon fill="white" stroke="#666666" points="656.5,-706 518.25,-706 518.25,-674 656.5,-674 656.5,-706"/>
<text text-anchor="start" x="526.25" y="-692.5" font-family="Helvetica,sans-Serif" font-size="10.00">examples.harvesting.filtered</text>
<text text-anchor="middle" x="587.38" y="-680.5" font-family="Helvetica,sans-Serif" font-size="10.00">_tasks</text>
</a>
</g>
</g>
<!-- Node17&#45;&gt;Node20 -->
<g id="edge128_Node000017_Node000020" class="edge">
<title>Node17&#45;&gt;Node20</title>
<g id="a_edge128_Node000017_Node000020"><a xlink:title=" ">
<path fill="none" stroke="#63b8ff" d="M482.68,-679.66C490.64,-680.45 498.74,-681.26 506.73,-682.06"/>
<polygon fill="#63b8ff" stroke="#63b8ff" points="506.11,-685.51 516.41,-683.02 506.81,-678.55 506.11,-685.51"/>
</a>
</g>
</g>
<!-- Node19 -->
<g id="Node000019" class="node">
<title>Node19</title>
<g id="a_Node000019"><a xlink:href="$namespaceexamples_1_1harvesting.html#ad7244b0bc13af9e1df5e1a29be8200a6" xlink:title=" ">
<polygon fill="white" stroke="#666666" points="827.75,-656 692.5,-656 692.5,-624 827.75,-624 827.75,-656"/>
<text text-anchor="start" x="700.5" y="-642.5" font-family="Helvetica,sans-Serif" font-size="10.00">examples.harvesting.adjust</text>
<text text-anchor="middle" x="760.12" y="-630.5" font-family="Helvetica,sans-Serif" font-size="10.00">_timing</text>
</a>
</g>
</g>
<!-- Node18&#45;&gt;Node19 -->
<g id="edge127_Node000018_Node000019" class="edge">
<title>Node18&#45;&gt;Node19</title>
<g id="a_edge127_Node000018_Node000019"><a xlink:title=" ">
<path fill="none" stroke="#63b8ff" d="M652.44,-640C661.66,-640 671.23,-640 680.69,-640"/>
<polygon fill="#63b8ff" stroke="#63b8ff" points="680.62,-643.5 690.62,-640 680.62,-636.5 680.62,-643.5"/>
</a>
</g>
</g>
<!-- Node27 -->
<g id="Node000027" class="node">
<title>Node27</title>
<g id="a_Node000027"><a xlink:href="$namespacefcmaes_1_1evaluator.html#a3f1de81bb9ebb3f1026990d51627f5e3" xlink:title="Evaluates a set of inputs in parallel using a provided evaluator function.">
<polygon fill="white" stroke="#666666" points="460.88,-420 348.88,-420 348.88,-388 460.88,-388 460.88,-420"/>
<text text-anchor="start" x="356.88" y="-406.5" font-family="Helvetica,sans-Serif" font-size="10.00">fcmaes.evaluator.eval</text>
<text text-anchor="middle" x="404.88" y="-394.5" font-family="Helvetica,sans-Serif" font-size="10.00">_parallel</text>
</a>
</g>
</g>
<!-- Node26&#45;&gt;Node27 -->
<g id="edge135_Node000026_Node000027" class="edge">
<title>Node26&#45;&gt;Node27</title>
<g id="a_edge135_Node000026_Node000027"><a xlink:title=" ">
<path fill="none" stroke="#63b8ff" d="M276.46,-404C295.94,-404 317.44,-404 337.15,-404"/>
<polygon fill="#63b8ff" stroke="#63b8ff" points="337,-407.5 347,-404 337,-400.5 337,-407.5"/>
</a>
</g>
</g>
<!-- Node28 -->
<g id="Node000028" class="node">
<title>Node28</title>
<g id="a_Node000028"><a xlink:href="$namespacefcmaes_1_1evaluator.html#afe255aa77cf706556cd5740a6d9dc120" xlink:title="Evaluates a segment of data in parallel by sending and receiving data through a pipe.">
<polygon fill="white" stroke="#666666" points="646,-395 528.75,-395 528.75,-363 646,-363 646,-395"/>
<text text-anchor="start" x="536.75" y="-381.5" font-family="Helvetica,sans-Serif" font-size="10.00">fcmaes.evaluator._eval</text>
<text text-anchor="middle" x="587.38" y="-369.5" font-family="Helvetica,sans-Serif" font-size="10.00">_parallel_segment</text>
</a>
</g>
</g>
<!-- Node27&#45;&gt;Node28 -->
<g id="edge136_Node000027_Node000028" class="edge">
<title>Node27&#45;&gt;Node28</title>
<g id="a_edge136_Node000027_Node000028"><a xlink:title=" ">
<path fill="none" stroke="#63b8ff" d="M461.01,-396.36C478.7,-393.91 498.52,-391.17 517.08,-388.6"/>
<polygon fill="#63b8ff" stroke="#63b8ff" points="517.52,-392.07 526.95,-387.23 516.56,-385.14 517.52,-392.07"/>
</a>
</g>
</g>
<!-- Node30 -->
<g id="Node000030" class="node">
<title>Node30</title>
<g id="a_Node000030"><a xlink:href="$namespacefcmaes_1_1evaluator.html#a7fd3b71184ba68c9fc886a0da91030a1" xlink:title="Evaluates a population of solutions in parallel for a multi&#45;objective optimization problem.">
<polygon fill="white" stroke="#666666" points="460.88,-370 348.88,-370 348.88,-338 460.88,-338 460.88,-370"/>
<text text-anchor="start" x="356.88" y="-356.5" font-family="Helvetica,sans-Serif" font-size="10.00">fcmaes.evaluator.eval</text>
<text text-anchor="middle" x="404.88" y="-344.5" font-family="Helvetica,sans-Serif" font-size="10.00">_parallel_mo</text>
</a>
</g>
</g>
<!-- Node29&#45;&gt;Node30 -->
<g id="edge138_Node000029_Node000030" class="edge">
<title>Node29&#45;&gt;Node30</title>
<g id="a_edge138_Node000029_Node000030"><a xlink:title=" ">
<path fill="none" stroke="#63b8ff" d="M274.88,-354C294.79,-354 316.96,-354 337.22,-354"/>
<polygon fill="#63b8ff" stroke="#63b8ff" points="337.06,-357.5 347.06,-354 337.06,-350.5 337.06,-357.5"/>
</a>
</g>
</g>
<!-- Node30&#45;&gt;Node28 -->
<g id="edge139_Node000030_Node000028" class="edge">
<title>Node30&#45;&gt;Node28</title>
<g id="a_edge139_Node000030_Node000028"><a xlink:title=" ">
<path fill="none" stroke="#63b8ff" d="M461.01,-361.64C478.7,-364.09 498.52,-366.83 517.08,-369.4"/>
<polygon fill="#63b8ff" stroke="#63b8ff" points="516.56,-372.86 526.95,-370.77 517.52,-365.93 516.56,-372.86"/>
</a>
</g>
</g>
<!-- Node32 -->
<g id="Node000032" class="node">
<title>Node32</title>
<g id="a_Node000032"><a xlink:href="$classfcmaes_1_1journal_1_1journal__wrapper.html#aa7a757ccc4986688a24911071e68e034" xlink:title="Stores the start of a trial by appending the formatted trial start string to the starts collection.">
<polygon fill="white" stroke="#666666" points="460.5,-270 349.25,-270 349.25,-238 460.5,-238 460.5,-270"/>
<text text-anchor="start" x="357.25" y="-256.5" font-family="Helvetica,sans-Serif" font-size="10.00">fcmaes.journal.journal</text>
<text text-anchor="middle" x="404.88" y="-244.5" font-family="Helvetica,sans-Serif" font-size="10.00">_wrapper.store_start</text>
</a>
</g>
</g>
<!-- Node31&#45;&gt;Node32 -->
<g id="edge141_Node000031_Node000032" class="edge">
<title>Node31&#45;&gt;Node32</title>
<g id="a_edge141_Node000031_Node000032"><a xlink:title=" ">
<path fill="none" stroke="#63b8ff" d="M268.13,-289.61C289.97,-283.88 315.27,-277.24 338.08,-271.26"/>
<polygon fill="#63b8ff" stroke="#63b8ff" points="338.8,-274.69 347.59,-268.76 337.03,-267.92 338.8,-274.69"/>
</a>
</g>
</g>
<!-- Node35 -->
<g id="Node000035" class="node">
<title>Node35</title>
<g id="a_Node000035"><a xlink:href="$classfcmaes_1_1journal_1_1journal__wrapper.html#a5adc885590326f2a0989cbef083646e2" xlink:title="Stores the parameters of a specific trial for a worker.">
<polygon fill="white" stroke="#666666" points="460.5,-220 349.25,-220 349.25,-188 460.5,-188 460.5,-220"/>
<text text-anchor="start" x="357.25" y="-206.5" font-family="Helvetica,sans-Serif" font-size="10.00">fcmaes.journal.journal</text>
<text text-anchor="middle" x="404.88" y="-194.5" font-family="Helvetica,sans-Serif" font-size="10.00">_wrapper.store_x</text>
</a>
</g>
</g>
<!-- Node31&#45;&gt;Node35 -->
<g id="edge144_Node000031_Node000035" class="edge">
<title>Node31&#45;&gt;Node35</title>
<g id="a_edge144_Node000031_Node000035"><a xlink:title=" ">
<path fill="none" stroke="#63b8ff" d="M268.04,-291.48C276.33,-288.21 284.46,-284.11 291.5,-279 313.66,-262.91 305.4,-245.17 327.5,-229 330.91,-226.51 334.58,-224.25 338.41,-222.22"/>
<polygon fill="#63b8ff" stroke="#63b8ff" points="339.88,-225.39 347.44,-217.97 336.9,-219.06 339.88,-225.39"/>
</a>
</g>
</g>
<!-- Node38 -->
<g id="Node000038" class="node">
<title>Node38</title>
<g id="a_Node000038"><a xlink:href="$classfcmaes_1_1journal_1_1journal__wrapper.html#a36307cef398f9219427d7c4802c7079a" xlink:title="Stores the provided y value, associated with a worker and trial ID, in the list of ys.">
<polygon fill="white" stroke="#666666" points="460.5,-320 349.25,-320 349.25,-288 460.5,-288 460.5,-320"/>
<text text-anchor="start" x="357.25" y="-306.5" font-family="Helvetica,sans-Serif" font-size="10.00">fcmaes.journal.journal</text>
<text text-anchor="middle" x="404.88" y="-294.5" font-family="Helvetica,sans-Serif" font-size="10.00">_wrapper.store_y</text>
</a>
</g>
</g>
<!-- Node31&#45;&gt;Node38 -->
<g id="edge148_Node000031_Node000038" class="edge">
<title>Node31&#45;&gt;Node38</title>
<g id="a_edge148_Node000031_Node000038"><a xlink:title=" ">
<path fill="none" stroke="#63b8ff" d="M268.13,-304C289.87,-304 315.04,-304 337.77,-304"/>
<polygon fill="#63b8ff" stroke="#63b8ff" points="337.54,-307.5 347.54,-304 337.54,-300.5 337.54,-307.5"/>
</a>
</g>
</g>
<!-- Node33 -->
<g id="Node000033" class="node">
<title>Node33</title>
<g id="a_Node000033"><a xlink:href="$namespacefcmaes_1_1journal.html#a7fd5c2a880bb6da8e4e2e42790dc9430" xlink:title="Starts a trial by recording the worker ID, study ID, and the current timestamp, and generates a JSON ...">
<polygon fill="white" stroke="#666666" points="636.62,-270 538.12,-270 538.12,-238 636.62,-238 636.62,-270"/>
<text text-anchor="start" x="546.12" y="-256.5" font-family="Helvetica,sans-Serif" font-size="10.00">fcmaes.journal.trial</text>
<text text-anchor="middle" x="587.38" y="-244.5" font-family="Helvetica,sans-Serif" font-size="10.00">_start</text>
</a>
</g>
</g>
<!-- Node32&#45;&gt;Node33 -->
<g id="edge142_Node000032_Node000033" class="edge">
<title>Node32&#45;&gt;Node33</title>
<g id="a_edge142_Node000032_Node000033"><a xlink:title=" ">
<path fill="none" stroke="#63b8ff" d="M460.52,-254C481.27,-254 505.01,-254 526.24,-254"/>
<polygon fill="#63b8ff" stroke="#63b8ff" points="526.22,-257.5 536.22,-254 526.22,-250.5 526.22,-257.5"/>
</a>
</g>
</g>
<!-- Node34 -->
<g id="Node000034" class="node">
<title>Node34</title>
<g id="a_Node000034"><a xlink:href="$namespacefcmaes_1_1journal.html#ab2d4646b056641882ced63f7d0299978" xlink:title="Converts a given message object to its JSON representation.">
<polygon fill="white" stroke="#666666" points="821.38,-270 698.88,-270 698.88,-238 821.38,-238 821.38,-270"/>
<text text-anchor="start" x="706.88" y="-256.5" font-family="Helvetica,sans-Serif" font-size="10.00">fcmaes.journal.message</text>
<text text-anchor="middle" x="760.12" y="-244.5" font-family="Helvetica,sans-Serif" font-size="10.00">_to_json</text>
</a>
</g>
</g>
<!-- Node33&#45;&gt;Node34 -->
<g id="edge143_Node000033_Node000034" class="edge">
<title>Node33&#45;&gt;Node34</title>
<g id="a_edge143_Node000033_Node000034"><a xlink:title=" ">
<path fill="none" stroke="#63b8ff" d="M636.85,-254C652.62,-254 670.47,-254 687.56,-254"/>
<polygon fill="#63b8ff" stroke="#63b8ff" points="687.14,-257.5 697.14,-254 687.14,-250.5 687.14,-257.5"/>
</a>
</g>
</g>
<!-- Node36 -->
<g id="Node000036" class="node">
<title>Node36</title>
<g id="a_Node000036"><a xlink:href="$namespacefcmaes_1_1journal.html#ab08848e83cf71c33842407ee31354411" xlink:title="Generates a JSON message containing trial parameter details.">
<polygon fill="white" stroke="#666666" points="636.62,-220 538.12,-220 538.12,-188 636.62,-188 636.62,-220"/>
<text text-anchor="start" x="546.12" y="-206.5" font-family="Helvetica,sans-Serif" font-size="10.00">fcmaes.journal.trial</text>
<text text-anchor="middle" x="587.38" y="-194.5" font-family="Helvetica,sans-Serif" font-size="10.00">_param</text>
</a>
</g>
</g>
<!-- Node35&#45;&gt;Node36 -->
<g id="edge145_Node000035_Node000036" class="edge">
<title>Node35&#45;&gt;Node36</title>
<g id="a_edge145_Node000035_Node000036"><a xlink:title=" ">
<path fill="none" stroke="#63b8ff" d="M460.52,-204C481.27,-204 505.01,-204 526.24,-204"/>
<polygon fill="#63b8ff" stroke="#63b8ff" points="526.22,-207.5 536.22,-204 526.22,-200.5 526.22,-207.5"/>
</a>
</g>
</g>
<!-- Node36&#45;&gt;Node34 -->
<g id="edge147_Node000036_Node000034" class="edge">
<title>Node36&#45;&gt;Node34</title>
<g id="a_edge147_Node000036_Node000034"><a xlink:title=" ">
<path fill="none" stroke="#63b8ff" d="M636.85,-218.19C653.99,-223.21 673.6,-228.96 692.01,-234.35"/>
<polygon fill="#63b8ff" stroke="#63b8ff" points="690.96,-237.69 701.54,-237.14 692.92,-230.97 690.96,-237.69"/>
</a>
</g>
</g>
<!-- Node37 -->
<g id="Node000037" class="node">
<title>Node37</title>
<g id="a_Node000037"><a xlink:href="$namespacefcmaes_1_1journal.html#a3d2994fbc61c2eb4fa0bf4b6018b055e" xlink:title="Generates a JSON representation of a float distribution within a specified range.">
<polygon fill="white" stroke="#666666" points="825.12,-214 695.12,-214 695.12,-194 825.12,-194 825.12,-214"/>
<text text-anchor="middle" x="760.12" y="-200.5" font-family="Helvetica,sans-Serif" font-size="10.00">fcmaes.journal.distribution</text>
</a>
</g>
</g>
<!-- Node36&#45;&gt;Node37 -->
<g id="edge146_Node000036_Node000037" class="edge">
<title>Node36&#45;&gt;Node37</title>
<g id="a_edge146_Node000036_Node000037"><a xlink:title=" ">
<path fill="none" stroke="#63b8ff" d="M636.85,-204C651.37,-204 667.65,-204 683.48,-204"/>
<polygon fill="#63b8ff" stroke="#63b8ff" points="683.38,-207.5 693.38,-204 683.38,-200.5 683.38,-207.5"/>
</a>
</g>
</g>
<!-- Node39 -->
<g id="Node000039" class="node">
<title>Node39</title>
<g id="a_Node000039"><a xlink:href="$namespacefcmaes_1_1journal.html#a968c87aa2fb6e2e186e221f834d63552" xlink:title="Creates and returns a JSON representation of a trial value message.">
<polygon fill="white" stroke="#666666" points="636.62,-320 538.12,-320 538.12,-288 636.62,-288 636.62,-320"/>
<text text-anchor="start" x="546.12" y="-306.5" font-family="Helvetica,sans-Serif" font-size="10.00">fcmaes.journal.trial</text>
<text text-anchor="middle" x="587.38" y="-294.5" font-family="Helvetica,sans-Serif" font-size="10.00">_value</text>
</a>
</g>
</g>
<!-- Node38&#45;&gt;Node39 -->
<g id="edge149_Node000038_Node000039" class="edge">
<title>Node38&#45;&gt;Node39</title>
<g id="a_edge149_Node000038_Node000039"><a xlink:title=" ">
<path fill="none" stroke="#63b8ff" d="M460.52,-304C481.27,-304 505.01,-304 526.24,-304"/>
<polygon fill="#63b8ff" stroke="#63b8ff" points="526.22,-307.5 536.22,-304 526.22,-300.5 526.22,-307.5"/>
</a>
</g>
</g>
<!-- Node39&#45;&gt;Node34 -->
<g id="edge150_Node000039_Node000034" class="edge">
<title>Node39&#45;&gt;Node34</title>
<g id="a_edge150_Node000039_Node000034"><a xlink:title=" ">
<path fill="none" stroke="#63b8ff" d="M636.85,-289.81C653.99,-284.79 673.6,-279.04 692.01,-273.65"/>
<polygon fill="#63b8ff" stroke="#63b8ff" points="692.92,-277.03 701.54,-270.86 690.96,-270.31 692.92,-277.03"/>
</a>
</g>
</g>
<!-- Node43 -->
<g id="Node000043" class="node">
<title>Node43</title>
<g id="a_Node000043"><a xlink:href="$namespacefcmaes_1_1mode.html#afc694697801d4ac2a3e8956987220939" xlink:title="Determines if a given solution is feasible based on constraints and tolerance.">
<polygon fill="white" stroke="#666666" points="467.25,-164 342.5,-164 342.5,-144 467.25,-144 467.25,-164"/>
<text text-anchor="middle" x="404.88" y="-150.5" font-family="Helvetica,sans-Serif" font-size="10.00">fcmaes.mode.is_feasible</text>
</a>
</g>
</g>
<!-- Node42&#45;&gt;Node43 -->
<g id="edge154_Node000042_Node000043" class="edge">
<title>Node42&#45;&gt;Node43</title>
<g id="a_edge154_Node000042_Node000043"><a xlink:title=" ">
<path fill="none" stroke="#63b8ff" d="M270.44,-154C289.42,-154 310.8,-154 330.81,-154"/>
<polygon fill="#63b8ff" stroke="#63b8ff" points="330.56,-157.5 340.56,-154 330.56,-150.5 330.56,-157.5"/>
</a>
</g>
</g>
<!-- Node47 -->
<g id="Node000047" class="node">
<title>Node47</title>
<g id="a_Node000047"><a xlink:href="$classhbv_1_1hbv.html#ae4c85c60e063bfd11874ddfd8daf2d85" xlink:title=" ">
<polygon fill="white" stroke="#666666" points="438.75,-20 371,-20 371,0 438.75,0 438.75,-20"/>
<text text-anchor="middle" x="404.88" y="-6.5" font-family="Helvetica,sans-Serif" font-size="10.00">hbv.hbv.hbv</text>
</a>
</g>
</g>
<!-- Node46&#45;&gt;Node47 -->
<g id="edge158_Node000046_Node000047" class="edge">
<title>Node46&#45;&gt;Node47</title>
<g id="a_edge158_Node000046_Node000047"><a xlink:title=" ">
<path fill="none" stroke="#63b8ff" d="M256.51,-10C287.19,-10 328.25,-10 359.24,-10"/>
<polygon fill="#63b8ff" stroke="#63b8ff" points="359.07,-13.5 369.07,-10 359.07,-6.5 359.07,-13.5"/>
</a>
</g>
</g>
<!-- Node47&#45;&gt;Node47 -->
<g id="edge159_Node000047_Node000047" class="edge">
<title>Node47&#45;&gt;Node47</title>
<g id="a_edge159_Node000047_Node000047"><a xlink:title=" ">
<path fill="none" stroke="#63b8ff" d="M375.88,-20.34C363.49,-28.98 373.15,-38 404.88,-38 422.72,-38 433.58,-35.14 437.47,-31.11"/>
<polygon fill="#63b8ff" stroke="#63b8ff" points="440.84,-30.15 434.35,-21.77 434.2,-32.37 440.84,-30.15"/>
</a>
</g>
</g>
</g>
</svg>
