<?xml version="1.0" encoding="UTF-8" standalone="no"?>
<!DOCTYPE svg PUBLIC "-//W3C//DTD SVG 1.1//EN"
 "http://www.w3.org/Graphics/SVG/1.1/DTD/svg11.dtd">
<!-- Generated by graphviz version 12.2.1 (20241206.2353)
 -->
<!-- Title: acmaes::AcmaesOptimizer::updateCovariance Pages: 1 -->
<svg width="394pt" height="84pt"
 viewBox="0.00 0.00 393.50 84.00" xmlns="http://www.w3.org/2000/svg" xmlns:xlink="http://www.w3.org/1999/xlink">
<g id="graph0" class="graph" transform="scale(1 1) rotate(0) translate(4 80)">
<title>acmaes::AcmaesOptimizer::updateCovariance</title>
<!-- Node1 -->
<g id="Node000001" class="node">
<title>Node1</title>
<g id="a_Node000001"><a xlink:title=" ">
<polygon fill="#999999" stroke="#666666" points="134.5,-45 0,-45 0,-13 134.5,-13 134.5,-45"/>
<text text-anchor="start" x="8" y="-31.5" font-family="Helvetica,sans-Serif" font-size="10.00">acmaes::AcmaesOptimizer</text>
<text text-anchor="middle" x="67.25" y="-19.5" font-family="Helvetica,sans-Serif" font-size="10.00">::updateCovariance</text>
</a>
</g>
</g>
<!-- Node2 -->
<g id="Node000002" class="node">
<title>Node2</title>
<g id="a_Node000002"><a xlink:href="$namespaceacmaes.html#a8f3b844e07e4684f10852956288758de" xlink:title=" ">
<polygon fill="white" stroke="#666666" points="258.5,-58 170.5,-58 170.5,-38 258.5,-38 258.5,-58"/>
<text text-anchor="middle" x="214.5" y="-44.5" font-family="Helvetica,sans-Serif" font-size="10.00">acmaes::inverse</text>
</a>
</g>
</g>
<!-- Node1&#45;&gt;Node2 -->
<g id="edge9_Node000001_Node000002" class="edge">
<title>Node1&#45;&gt;Node2</title>
<g id="a_edge9_Node000001_Node000002"><a xlink:title=" ">
<path fill="none" stroke="#63b8ff" d="M134.92,-37.72C142.94,-38.77 151.06,-39.83 158.87,-40.85"/>
<polygon fill="#63b8ff" stroke="#63b8ff" points="158.2,-44.3 168.57,-42.12 159.11,-37.35 158.2,-44.3"/>
</a>
</g>
</g>
<!-- Node3 -->
<g id="Node000003" class="node">
<title>Node3</title>
<g id="a_Node000003"><a xlink:href="$evaluator_8h.html#a7689f88ea48c85c22d9b34208decd67c" xlink:title=" ">
<polygon fill="white" stroke="#666666" points="245,-20 184,-20 184,0 245,0 245,-20"/>
<text text-anchor="middle" x="214.5" y="-6.5" font-family="Helvetica,sans-Serif" font-size="10.00">sort_index</text>
</a>
</g>
</g>
<!-- Node1&#45;&gt;Node3 -->
<g id="edge11_Node000001_Node000003" class="edge">
<title>Node1&#45;&gt;Node3</title>
<g id="a_edge11_Node000001_Node000003"><a xlink:title=" ">
<path fill="none" stroke="#63b8ff" d="M134.92,-20.28C147.79,-18.6 160.9,-16.88 172.64,-15.34"/>
<polygon fill="#63b8ff" stroke="#63b8ff" points="172.9,-18.84 182.36,-14.07 171.99,-11.9 172.9,-18.84"/>
</a>
</g>
</g>
<!-- Node2&#45;&gt;Node2 -->
<g id="edge10_Node000002_Node000002" class="edge">
<title>Node2&#45;&gt;Node2</title>
<g id="a_edge10_Node000002_Node000002"><a xlink:title=" ">
<path fill="none" stroke="#63b8ff" d="M194.56,-58.34C186.04,-66.98 192.68,-76 214.5,-76 226.43,-76 233.82,-73.3 236.68,-69.44"/>
<polygon fill="#63b8ff" stroke="#63b8ff" points="240.15,-68.93 234.74,-59.82 233.29,-70.32 240.15,-68.93"/>
</a>
</g>
</g>
<!-- Node4 -->
<g id="Node000004" class="node">
<title>Node4</title>
<g id="a_Node000004"><a xlink:href="$evaluator_8h.html#a85426eb5cecc23caa06090d795034e5c" xlink:title=" ">
<polygon fill="white" stroke="#666666" points="385.5,-20 294.5,-20 294.5,0 385.5,0 385.5,-20"/>
<text text-anchor="middle" x="340" y="-6.5" font-family="Helvetica,sans-Serif" font-size="10.00">compareIndexVal</text>
</a>
</g>
</g>
<!-- Node3&#45;&gt;Node4 -->
<g id="edge12_Node000003_Node000004" class="edge">
<title>Node3&#45;&gt;Node4</title>
<g id="a_edge12_Node000003_Node000004"><a xlink:title=" ">
<path fill="none" stroke="#63b8ff" d="M245.4,-10C256.77,-10 270.13,-10 283.14,-10"/>
<polygon fill="#63b8ff" stroke="#63b8ff" points="282.91,-13.5 292.91,-10 282.91,-6.5 282.91,-13.5"/>
</a>
</g>
</g>
</g>
</svg>
