<?xml version="1.0" encoding="UTF-8" standalone="no"?>
<!DOCTYPE svg PUBLIC "-//W3C//DTD SVG 1.1//EN"
 "http://www.w3.org/Graphics/SVG/1.1/DTD/svg11.dtd">
<!-- Generated by graphviz version 12.2.1 (20241206.2353)
 -->
<!-- Title: evaluator::evaluator_job::evaluator_job Pages: 1 -->
<svg width="337pt" height="66pt"
 viewBox="0.00 0.00 336.50 66.00" xmlns="http://www.w3.org/2000/svg" xmlns:xlink="http://www.w3.org/1999/xlink">
<g id="graph0" class="graph" transform="scale(1 1) rotate(0) translate(4 62)">
<title>evaluator::evaluator_job::evaluator_job</title>
<!-- Node1 -->
<g id="Node000001" class="node">
<title>Node1</title>
<g id="a_Node000001"><a xlink:title=" ">
<polygon fill="#999999" stroke="#666666" points="101.5,-45 0,-45 0,-13 101.5,-13 101.5,-45"/>
<text text-anchor="start" x="8" y="-31.5" font-family="Helvetica,sans-Serif" font-size="10.00">evaluator::evaluator</text>
<text text-anchor="middle" x="50.75" y="-19.5" font-family="Helvetica,sans-Serif" font-size="10.00">_job::evaluator_job</text>
</a>
</g>
</g>
<!-- Node2 -->
<g id="Node000002" class="node">
<title>Node2</title>
<g id="a_Node000002"><a xlink:href="$classevaluator.html#ad503d1b0d07dc0123f2619f613fe2365" xlink:title=" ">
<polygon fill="white" stroke="#666666" points="239,-58 137.5,-58 137.5,-38 239,-38 239,-58"/>
<text text-anchor="middle" x="188.25" y="-44.5" font-family="Helvetica,sans-Serif" font-size="10.00">evaluator::evaluator</text>
</a>
</g>
</g>
<!-- Node1&#45;&gt;Node2 -->
<g id="edge7_Node000001_Node000002" class="edge">
<title>Node1&#45;&gt;Node2</title>
<g id="a_edge7_Node000001_Node000002"><a xlink:title=" ">
<path fill="none" stroke="#63b8ff" d="M101.82,-36.02C109.71,-37.13 117.95,-38.28 126.06,-39.42"/>
<polygon fill="#63b8ff" stroke="#63b8ff" points="125.5,-42.88 135.89,-40.8 126.47,-35.94 125.5,-42.88"/>
</a>
</g>
</g>
<!-- Node3 -->
<g id="Node000003" class="node">
<title>Node3</title>
<g id="a_Node000003"><a xlink:href="$classevaluator.html#a39a80a3c8535b71a004ef2b395015ade" xlink:title=" ">
<polygon fill="white" stroke="#666666" points="236.38,-20 140.12,-20 140.12,0 236.38,0 236.38,-20"/>
<text text-anchor="middle" x="188.25" y="-6.5" font-family="Helvetica,sans-Serif" font-size="10.00">evaluator::execute</text>
</a>
</g>
</g>
<!-- Node1&#45;&gt;Node3 -->
<g id="edge8_Node000001_Node000003" class="edge">
<title>Node1&#45;&gt;Node3</title>
<g id="a_edge8_Node000001_Node000003"><a xlink:title=" ">
<path fill="none" stroke="#63b8ff" d="M101.82,-21.98C110.51,-20.76 119.62,-19.48 128.52,-18.23"/>
<polygon fill="#63b8ff" stroke="#63b8ff" points="128.72,-21.74 138.14,-16.89 127.75,-14.81 128.72,-21.74"/>
</a>
</g>
</g>
<!-- Node4 -->
<g id="Node000004" class="node">
<title>Node4</title>
<g id="a_Node000004"><a xlink:href="$evaluator_8h.html#a493b3a74ec3481711548e4b506b009cd" xlink:title=" ">
<polygon fill="white" stroke="#666666" points="328.5,-20 275,-20 275,0 328.5,0 328.5,-20"/>
<text text-anchor="middle" x="301.75" y="-6.5" font-family="Helvetica,sans-Serif" font-size="10.00">constant</text>
</a>
</g>
</g>
<!-- Node3&#45;&gt;Node4 -->
<g id="edge9_Node000003_Node000004" class="edge">
<title>Node3&#45;&gt;Node4</title>
<g id="a_edge9_Node000003_Node000004"><a xlink:title=" ">
<path fill="none" stroke="#63b8ff" d="M236.86,-10C245.63,-10 254.67,-10 263.1,-10"/>
<polygon fill="#63b8ff" stroke="#63b8ff" points="262.99,-13.5 272.99,-10 262.99,-6.5 262.99,-13.5"/>
</a>
</g>
</g>
</g>
</svg>
