<?xml version="1.0" encoding="UTF-8" standalone="no"?>
<!DOCTYPE svg PUBLIC "-//W3C//DTD SVG 1.1//EN"
 "http://www.w3.org/Graphics/SVG/1.1/DTD/svg11.dtd">
<!-- Generated by graphviz version 12.2.1 (20241206.2353)
 -->
<!-- Title: quantumcomm.constellation_udp.fitness Pages: 1 -->
<svg width="667pt" height="340pt"
 viewBox="0.00 0.00 666.75 340.00" xmlns="http://www.w3.org/2000/svg" xmlns:xlink="http://www.w3.org/1999/xlink">
<g id="graph0" class="graph" transform="scale(1 1) rotate(0) translate(4 336)">
<title>quantumcomm.constellation_udp.fitness</title>
<!-- Node1 -->
<g id="Node000001" class="node">
<title>Node1</title>
<g id="a_Node000001"><a xlink:title="Evaluate the fitness of the decision variables.">
<polygon fill="#999999" stroke="#666666" points="138.25,-182 0,-182 0,-150 138.25,-150 138.25,-182"/>
<text text-anchor="start" x="8" y="-168.5" font-family="Helvetica,sans-Serif" font-size="10.00">quantumcomm.constellation</text>
<text text-anchor="middle" x="69.12" y="-156.5" font-family="Helvetica,sans-Serif" font-size="10.00">_udp.fitness</text>
</a>
</g>
</g>
<!-- Node2 -->
<g id="Node000002" class="node">
<title>Node2</title>
<g id="a_Node000002"><a xlink:href="$classquantumcomm_1_1constellation__udp.html#a5827f9a431732de6732e1d7a4d0a5fe5" xlink:title="Computes the average shortest path length between the source and destination partitions of nodes in t...">
<polygon fill="white" stroke="#666666" points="313.25,-332 174.25,-332 174.25,-300 313.25,-300 313.25,-332"/>
<text text-anchor="start" x="182.25" y="-318.5" font-family="Helvetica,sans-Serif" font-size="10.00">quantumcomm.constellation</text>
<text text-anchor="middle" x="243.75" y="-306.5" font-family="Helvetica,sans-Serif" font-size="10.00">_udp.average_shortest_path</text>
</a>
</g>
</g>
<!-- Node1&#45;&gt;Node2 -->
<g id="edge25_Node000001_Node000002" class="edge">
<title>Node1&#45;&gt;Node2</title>
<g id="a_edge25_Node000001_Node000002"><a xlink:title=" ">
<path fill="none" stroke="#63b8ff" d="M79.59,-182.15C95.79,-208.48 131.28,-260.77 174.25,-291 175.82,-292.1 177.44,-293.16 179.1,-294.18"/>
<polygon fill="#63b8ff" stroke="#63b8ff" points="177.21,-297.14 187.67,-298.83 180.55,-290.98 177.21,-297.14"/>
</a>
</g>
</g>
<!-- Node3 -->
<g id="Node000003" class="node">
<title>Node3</title>
<g id="a_Node000003"><a xlink:href="$classquantumcomm_1_1constellation__udp.html#a06e2f7fe5888de4c38d08d4b1f290511" xlink:title="Builds a networkx graph from the satellite positions.">
<polygon fill="white" stroke="#666666" points="312.88,-282 174.62,-282 174.62,-250 312.88,-250 312.88,-282"/>
<text text-anchor="start" x="182.62" y="-268.5" font-family="Helvetica,sans-Serif" font-size="10.00">quantumcomm.constellation</text>
<text text-anchor="middle" x="243.75" y="-256.5" font-family="Helvetica,sans-Serif" font-size="10.00">_udp.build_graph</text>
</a>
</g>
</g>
<!-- Node1&#45;&gt;Node3 -->
<g id="edge26_Node000001_Node000003" class="edge">
<title>Node1&#45;&gt;Node3</title>
<g id="a_edge26_Node000001_Node000003"><a xlink:title=" ">
<path fill="none" stroke="#63b8ff" d="M89.41,-182.38C109.54,-198.88 142.55,-224.21 174.25,-241 176.89,-242.4 179.62,-243.75 182.4,-245.05"/>
<polygon fill="#63b8ff" stroke="#63b8ff" points="180.71,-248.13 191.28,-248.94 183.52,-241.72 180.71,-248.13"/>
</a>
</g>
</g>
<!-- Node8 -->
<g id="Node000008" class="node">
<title>Node8</title>
<g id="a_Node000008"><a xlink:href="$classquantumcomm_1_1constellation__udp.html#a46cbd774de9aefba3ee882c665072446" xlink:title="Construct cumulative position of Walker satellites, motherships and rovers.">
<polygon fill="white" stroke="#666666" points="312.88,-232 174.62,-232 174.62,-200 312.88,-200 312.88,-232"/>
<text text-anchor="start" x="182.62" y="-218.5" font-family="Helvetica,sans-Serif" font-size="10.00">quantumcomm.constellation</text>
<text text-anchor="middle" x="243.75" y="-206.5" font-family="Helvetica,sans-Serif" font-size="10.00">_udp.construct_pos</text>
</a>
</g>
</g>
<!-- Node1&#45;&gt;Node8 -->
<g id="edge31_Node000001_Node000008" class="edge">
<title>Node1&#45;&gt;Node8</title>
<g id="a_edge31_Node000001_Node000008"><a xlink:title=" ">
<path fill="none" stroke="#63b8ff" d="M126.65,-182.37C142.07,-186.84 158.93,-191.72 174.91,-196.35"/>
<polygon fill="#63b8ff" stroke="#63b8ff" points="173.77,-199.66 184.35,-199.08 175.72,-192.94 173.77,-199.66"/>
</a>
</g>
</g>
<!-- Node9 -->
<g id="Node000009" class="node">
<title>Node9</title>
<g id="a_Node000009"><a xlink:href="$namespacequantumcomm.html#ab6b2e04e125b00253e56eea291fb11a5" xlink:title="Computes the position of the rovers at time t based on the initial latitude and longitude.">
<polygon fill="white" stroke="#666666" points="305.75,-182 181.75,-182 181.75,-150 305.75,-150 305.75,-182"/>
<text text-anchor="start" x="189.75" y="-168.5" font-family="Helvetica,sans-Serif" font-size="10.00">quantumcomm.construct</text>
<text text-anchor="middle" x="243.75" y="-156.5" font-family="Helvetica,sans-Serif" font-size="10.00">_rover_pos</text>
</a>
</g>
</g>
<!-- Node1&#45;&gt;Node9 -->
<g id="edge32_Node000001_Node000009" class="edge">
<title>Node1&#45;&gt;Node9</title>
<g id="a_edge32_Node000001_Node000009"><a xlink:title=" ">
<path fill="none" stroke="#63b8ff" d="M138.35,-166C148.8,-166 159.62,-166 170.16,-166"/>
<polygon fill="#63b8ff" stroke="#63b8ff" points="169.95,-169.5 179.95,-166 169.95,-162.5 169.95,-169.5"/>
</a>
</g>
</g>
<!-- Node10 -->
<g id="Node000010" class="node">
<title>Node10</title>
<g id="a_Node000010"><a xlink:href="$classquantumcomm_1_1constellation__udp.html#a0488615446771fa666b9fa156ab6627e" xlink:title="Generates two Walker constellations according to specifications.">
<polygon fill="white" stroke="#666666" points="312.88,-132 174.62,-132 174.62,-100 312.88,-100 312.88,-132"/>
<text text-anchor="start" x="182.62" y="-118.5" font-family="Helvetica,sans-Serif" font-size="10.00">quantumcomm.constellation</text>
<text text-anchor="middle" x="243.75" y="-106.5" font-family="Helvetica,sans-Serif" font-size="10.00">_udp.construct_walkers</text>
</a>
</g>
</g>
<!-- Node1&#45;&gt;Node10 -->
<g id="edge33_Node000001_Node000010" class="edge">
<title>Node1&#45;&gt;Node10</title>
<g id="a_edge33_Node000001_Node000010"><a xlink:title=" ">
<path fill="none" stroke="#63b8ff" d="M126.65,-149.63C142.07,-145.16 158.93,-140.28 174.91,-135.65"/>
<polygon fill="#63b8ff" stroke="#63b8ff" points="175.72,-139.06 184.35,-132.92 173.77,-132.34 175.72,-139.06"/>
</a>
</g>
</g>
<!-- Node12 -->
<g id="Node000012" class="node">
<title>Node12</title>
<g id="a_Node000012"><a xlink:href="$classquantumcomm_1_1constellation__udp.html#a793f1ab728c23da59e9c59f30396cf73" xlink:title="Evaluate the rover constraint (minimum distance between any two rovers)">
<polygon fill="white" stroke="#666666" points="312.88,-82 174.62,-82 174.62,-50 312.88,-50 312.88,-82"/>
<text text-anchor="start" x="182.62" y="-68.5" font-family="Helvetica,sans-Serif" font-size="10.00">quantumcomm.constellation</text>
<text text-anchor="middle" x="243.75" y="-56.5" font-family="Helvetica,sans-Serif" font-size="10.00">_udp.get_rover_constraint</text>
</a>
</g>
</g>
<!-- Node1&#45;&gt;Node12 -->
<g id="edge35_Node000001_Node000012" class="edge">
<title>Node1&#45;&gt;Node12</title>
<g id="a_edge35_Node000001_Node000012"><a xlink:title=" ">
<path fill="none" stroke="#63b8ff" d="M89.41,-149.62C109.54,-133.12 142.55,-107.79 174.25,-91 176.89,-89.6 179.62,-88.25 182.4,-86.95"/>
<polygon fill="#63b8ff" stroke="#63b8ff" points="183.52,-90.28 191.28,-83.06 180.71,-83.87 183.52,-90.28"/>
</a>
</g>
</g>
<!-- Node13 -->
<g id="Node000013" class="node">
<title>Node13</title>
<g id="a_Node000013"><a xlink:href="$classquantumcomm_1_1constellation__udp.html#a228c4f828e7c8261bbeedd69d6d19573" xlink:title="Evaluate the satellite constraint (minimum distance between any two satellites)">
<polygon fill="white" stroke="#666666" points="312.88,-32 174.62,-32 174.62,0 312.88,0 312.88,-32"/>
<text text-anchor="start" x="182.62" y="-18.5" font-family="Helvetica,sans-Serif" font-size="10.00">quantumcomm.constellation</text>
<text text-anchor="middle" x="243.75" y="-6.5" font-family="Helvetica,sans-Serif" font-size="10.00">_udp.get_sat_constraint</text>
</a>
</g>
</g>
<!-- Node1&#45;&gt;Node13 -->
<g id="edge36_Node000001_Node000013" class="edge">
<title>Node1&#45;&gt;Node13</title>
<g id="a_edge36_Node000001_Node000013"><a xlink:title=" ">
<path fill="none" stroke="#63b8ff" d="M79.59,-149.85C95.79,-123.52 131.28,-71.23 174.25,-41 175.82,-39.9 177.44,-38.84 179.1,-37.82"/>
<polygon fill="#63b8ff" stroke="#63b8ff" points="180.55,-41.02 187.67,-33.17 177.21,-34.86 180.55,-41.02"/>
</a>
</g>
</g>
<!-- Node4 -->
<g id="Node000004" class="node">
<title>Node4</title>
<g id="a_Node000004"><a xlink:href="$namespacequantumcomm.html#a0b9a5d09cf8b8062250d0631d392b9e4" xlink:title=" ">
<polygon fill="white" stroke="#666666" points="491.25,-276 349.25,-276 349.25,-256 491.25,-256 491.25,-276"/>
<text text-anchor="middle" x="420.25" y="-262.5" font-family="Helvetica,sans-Serif" font-size="10.00">quantumcomm.get_adjmatrix</text>
</a>
</g>
</g>
<!-- Node3&#45;&gt;Node4 -->
<g id="edge27_Node000003_Node000004" class="edge">
<title>Node3&#45;&gt;Node4</title>
<g id="a_edge27_Node000003_Node000004"><a xlink:title=" ">
<path fill="none" stroke="#63b8ff" d="M313.22,-266C321.2,-266 329.4,-266 337.54,-266"/>
<polygon fill="#63b8ff" stroke="#63b8ff" points="337.46,-269.5 347.46,-266 337.46,-262.5 337.46,-269.5"/>
</a>
</g>
</g>
<!-- Node5 -->
<g id="Node000005" class="node">
<title>Node5</title>
<g id="a_Node000005"><a xlink:href="$namespacequantumcomm.html#adeb3d6f34e9ce9bde81d145e0cb4b1c6" xlink:title="Given two position vectors returns the distance of the line of sight to the origin.">
<polygon fill="white" stroke="#666666" points="649,-326 537,-326 537,-294 649,-294 649,-326"/>
<text text-anchor="start" x="545" y="-312.5" font-family="Helvetica,sans-Serif" font-size="10.00">quantumcomm.line_of</text>
<text text-anchor="middle" x="593" y="-300.5" font-family="Helvetica,sans-Serif" font-size="10.00">_sight</text>
</a>
</g>
</g>
<!-- Node4&#45;&gt;Node5 -->
<g id="edge28_Node000004_Node000005" class="edge">
<title>Node4&#45;&gt;Node5</title>
<g id="a_edge28_Node000004_Node000005"><a xlink:title=" ">
<path fill="none" stroke="#63b8ff" d="M461.72,-276.43C480.78,-281.34 504.02,-287.33 525.56,-292.88"/>
<polygon fill="#63b8ff" stroke="#63b8ff" points="524.62,-296.25 535.18,-295.36 526.37,-289.47 524.62,-296.25"/>
</a>
</g>
</g>
<!-- Node6 -->
<g id="Node000006" class="node">
<title>Node6</title>
<g id="a_Node000006"><a xlink:href="$namespacequantumcomm.html#af0f5b86687bc9356f53b8e0fcd826c2d" xlink:title="Computes the edge weight according to QKD probabilities.">
<polygon fill="white" stroke="#666666" points="658.75,-276 527.25,-276 527.25,-256 658.75,-256 658.75,-276"/>
<text text-anchor="middle" x="593" y="-262.5" font-family="Helvetica,sans-Serif" font-size="10.00">quantumcomm.qkd_metric</text>
</a>
</g>
</g>
<!-- Node4&#45;&gt;Node6 -->
<g id="edge29_Node000004_Node000006" class="edge">
<title>Node4&#45;&gt;Node6</title>
<g id="a_edge29_Node000004_Node000006"><a xlink:title=" ">
<path fill="none" stroke="#63b8ff" d="M491.69,-266C499.53,-266 507.54,-266 515.45,-266"/>
<polygon fill="#63b8ff" stroke="#63b8ff" points="515.42,-269.5 525.42,-266 515.42,-262.5 515.42,-269.5"/>
</a>
</g>
</g>
<!-- Node7 -->
<g id="Node000007" class="node">
<title>Node7</title>
<g id="a_Node000007"><a xlink:href="$namespacequantumcomm.html#a32214ea35bfdc5ac32988510e98f5643" xlink:title="Computes the cosine of the zenith angle (theta_z) of the LOS between source and destination node.">
<polygon fill="white" stroke="#666666" points="647.88,-238 538.12,-238 538.12,-206 647.88,-206 647.88,-238"/>
<text text-anchor="start" x="546.12" y="-224.5" font-family="Helvetica,sans-Serif" font-size="10.00">quantumcomm.zenith</text>
<text text-anchor="middle" x="593" y="-212.5" font-family="Helvetica,sans-Serif" font-size="10.00">_angle</text>
</a>
</g>
</g>
<!-- Node4&#45;&gt;Node7 -->
<g id="edge30_Node000004_Node000007" class="edge">
<title>Node4&#45;&gt;Node7</title>
<g id="a_edge30_Node000004_Node000007"><a xlink:title=" ">
<path fill="none" stroke="#63b8ff" d="M461.72,-255.57C481.2,-250.55 505.06,-244.4 527,-238.75"/>
<polygon fill="#63b8ff" stroke="#63b8ff" points="527.66,-242.2 536.47,-236.31 525.91,-235.42 527.66,-242.2"/>
</a>
</g>
</g>
<!-- Node11 -->
<g id="Node000011" class="node">
<title>Node11</title>
<g id="a_Node000011"><a xlink:href="$classquantumcomm_1_1constellation__udp.html#a7751ec7ef991c732aeffdb2ac59332e6" xlink:title="Generates a Walker constallation as a SatrecArray.">
<polygon fill="white" stroke="#666666" points="489.38,-132 351.12,-132 351.12,-100 489.38,-100 489.38,-132"/>
<text text-anchor="start" x="359.12" y="-118.5" font-family="Helvetica,sans-Serif" font-size="10.00">quantumcomm.constellation</text>
<text text-anchor="middle" x="420.25" y="-106.5" font-family="Helvetica,sans-Serif" font-size="10.00">_udp.generate_walker</text>
</a>
</g>
</g>
<!-- Node10&#45;&gt;Node11 -->
<g id="edge34_Node000010_Node000011" class="edge">
<title>Node10&#45;&gt;Node11</title>
<g id="a_edge34_Node000010_Node000011"><a xlink:title=" ">
<path fill="none" stroke="#63b8ff" d="M313.22,-116C321.78,-116 330.6,-116 339.32,-116"/>
<polygon fill="#63b8ff" stroke="#63b8ff" points="339.18,-119.5 349.18,-116 339.18,-112.5 339.18,-119.5"/>
</a>
</g>
</g>
</g>
</svg>
