<?xml version="1.0" encoding="UTF-8" standalone="no"?>
<!DOCTYPE svg PUBLIC "-//W3C//DTD SVG 1.1//EN"
 "http://www.w3.org/Graphics/SVG/1.1/DTD/svg11.dtd">
<!-- Generated by graphviz version 12.2.1 (20241206.2353)
 -->
<!-- Title: examples.kepler.kepler.Kepler.getEccentricAnomaly2 Pages: 1 -->
<svg width="933pt" height="78pt"
 viewBox="0.00 0.00 932.50 78.00" xmlns="http://www.w3.org/2000/svg" xmlns:xlink="http://www.w3.org/1999/xlink">
<g id="graph0" class="graph" transform="scale(1 1) rotate(0) translate(4 74)">
<title>examples.kepler.kepler.Kepler.getEccentricAnomaly2</title>
<!-- Node1 -->
<g id="Node000001" class="node">
<title>Node1</title>
<g id="a_Node000001"><a xlink:title=" ">
<polygon fill="#999999" stroke="#666666" points="163.75,-54 0,-54 0,-22 163.75,-22 163.75,-54"/>
<text text-anchor="start" x="8" y="-40.5" font-family="Helvetica,sans-Serif" font-size="10.00">examples.kepler.kepler.Kepler.get</text>
<text text-anchor="middle" x="81.88" y="-28.5" font-family="Helvetica,sans-Serif" font-size="10.00">EccentricAnomaly2</text>
</a>
</g>
</g>
<!-- Node2 -->
<g id="Node000002" class="node">
<title>Node2</title>
<g id="a_Node000002"><a xlink:href="$classexamples_1_1kepler_1_1kepler_1_1_kepler.html#a0789b3d8b3a7dfa103714ca48cd34c49" xlink:title=" ">
<polygon fill="white" stroke="#666666" points="363.5,-54 199.75,-54 199.75,-22 363.5,-22 363.5,-54"/>
<text text-anchor="start" x="207.75" y="-40.5" font-family="Helvetica,sans-Serif" font-size="10.00">examples.kepler.kepler.Kepler.get</text>
<text text-anchor="middle" x="281.62" y="-28.5" font-family="Helvetica,sans-Serif" font-size="10.00">TrueAnomaly</text>
</a>
</g>
</g>
<!-- Node1&#45;&gt;Node2 -->
<g id="edge11_Node000001_Node000002" class="edge">
<title>Node1&#45;&gt;Node2</title>
<g id="a_edge11_Node000001_Node000002"><a xlink:title=" ">
<path fill="none" stroke="#63b8ff" d="M164.16,-38C172.06,-38 180.1,-38 188.09,-38"/>
<polygon fill="#63b8ff" stroke="#63b8ff" points="187.82,-41.5 197.82,-38 187.82,-34.5 187.82,-41.5"/>
</a>
</g>
</g>
<!-- Node3 -->
<g id="Node000003" class="node">
<title>Node3</title>
<g id="a_Node000003"><a xlink:href="$classexamples_1_1kepler_1_1kepler_1_1_kepler.html#ace359228af6ab44df9562414d3be0b73" xlink:title=" ">
<polygon fill="white" stroke="#666666" points="587.25,-48 399.5,-48 399.5,-28 587.25,-28 587.25,-48"/>
<text text-anchor="middle" x="493.38" y="-34.5" font-family="Helvetica,sans-Serif" font-size="10.00">examples.kepler.kepler.Kepler.mean2ta</text>
</a>
</g>
</g>
<!-- Node2&#45;&gt;Node3 -->
<g id="edge12_Node000002_Node000003" class="edge">
<title>Node2&#45;&gt;Node3</title>
<g id="a_edge12_Node000002_Node000003"><a xlink:title=" ">
<path fill="none" stroke="#63b8ff" d="M363.72,-38C371.63,-38 379.74,-38 387.84,-38"/>
<polygon fill="#63b8ff" stroke="#63b8ff" points="387.76,-41.5 397.76,-38 387.76,-34.5 387.76,-41.5"/>
</a>
</g>
</g>
<!-- Node4 -->
<g id="Node000004" class="node">
<title>Node4</title>
<g id="a_Node000004"><a xlink:href="$namespaceexamples_1_1kepler_1_1kepler.html#a517d2a90d3773a272d1ee7d415799214" xlink:title=" ">
<polygon fill="white" stroke="#666666" points="742.75,-54 623.25,-54 623.25,-22 742.75,-22 742.75,-54"/>
<text text-anchor="start" x="631.25" y="-40.5" font-family="Helvetica,sans-Serif" font-size="10.00">examples.kepler.kepler.</text>
<text text-anchor="middle" x="683" y="-28.5" font-family="Helvetica,sans-Serif" font-size="10.00">_mean2ta</text>
</a>
</g>
</g>
<!-- Node3&#45;&gt;Node4 -->
<g id="edge13_Node000003_Node000004" class="edge">
<title>Node3&#45;&gt;Node4</title>
<g id="a_edge13_Node000003_Node000004"><a xlink:title=" ">
<path fill="none" stroke="#63b8ff" d="M587.64,-38C595.67,-38 603.71,-38 611.52,-38"/>
<polygon fill="#63b8ff" stroke="#63b8ff" points="611.25,-41.5 621.25,-38 611.25,-34.5 611.25,-41.5"/>
</a>
</g>
</g>
<!-- Node5 -->
<g id="Node000005" class="node">
<title>Node5</title>
<g id="a_Node000005"><a xlink:href="$namespaceexamples_1_1kepler_1_1kepler.html#a2421a039709ffc114992322c5b944ba0" xlink:title=" ">
<polygon fill="white" stroke="#666666" points="921.88,-70 781.38,-70 781.38,-50 921.88,-50 921.88,-70"/>
<text text-anchor="middle" x="851.62" y="-56.5" font-family="Helvetica,sans-Serif" font-size="10.00">examples.kepler.kepler.eps3</text>
</a>
</g>
</g>
<!-- Node4&#45;&gt;Node5 -->
<g id="edge14_Node000004_Node000005" class="edge">
<title>Node4&#45;&gt;Node5</title>
<g id="a_edge14_Node000004_Node000005"><a xlink:title=" ">
<path fill="none" stroke="#63b8ff" d="M743.21,-45.82C751.83,-46.96 760.82,-48.14 769.78,-49.33"/>
<polygon fill="#63b8ff" stroke="#63b8ff" points="769.2,-52.78 779.57,-50.62 770.11,-45.84 769.2,-52.78"/>
</a>
</g>
</g>
<!-- Node6 -->
<g id="Node000006" class="node">
<title>Node6</title>
<g id="a_Node000006"><a xlink:href="$namespaceexamples_1_1kepler_1_1kepler.html#a1270aff9b2683cf09fd997af1c49791b" xlink:title=" ">
<polygon fill="white" stroke="#666666" points="924.5,-32 778.75,-32 778.75,0 924.5,0 924.5,-32"/>
<text text-anchor="start" x="786.75" y="-18.5" font-family="Helvetica,sans-Serif" font-size="10.00">examples.kepler.kepler.kepler</text>
<text text-anchor="middle" x="851.62" y="-6.5" font-family="Helvetica,sans-Serif" font-size="10.00">Start3</text>
</a>
</g>
</g>
<!-- Node4&#45;&gt;Node6 -->
<g id="edge15_Node000004_Node000006" class="edge">
<title>Node4&#45;&gt;Node6</title>
<g id="a_edge15_Node000004_Node000006"><a xlink:title=" ">
<path fill="none" stroke="#63b8ff" d="M743.21,-30.18C750.97,-29.16 759.03,-28.09 767.1,-27.03"/>
<polygon fill="#63b8ff" stroke="#63b8ff" points="767.51,-30.5 776.97,-25.73 766.6,-23.56 767.51,-30.5"/>
</a>
</g>
</g>
</g>
</svg>
