<?xml version="1.0" encoding="UTF-8" standalone="no"?>
<!DOCTYPE svg PUBLIC "-//W3C//DTD SVG 1.1//EN"
 "http://www.w3.org/Graphics/SVG/1.1/DTD/svg11.dtd">
<!-- Generated by graphviz version 12.2.1 (20241206.2353)
 -->
<!-- Title: CSMAESOpt::sample Pages: 1 -->
<svg width="281pt" height="78pt"
 viewBox="0.00 0.00 280.75 78.00" xmlns="http://www.w3.org/2000/svg" xmlns:xlink="http://www.w3.org/1999/xlink">
<g id="graph0" class="graph" transform="scale(1 1) rotate(0) translate(4 74)">
<title>CSMAESOpt::sample</title>
<!-- Node1 -->
<g id="Node000001" class="node">
<title>Node1</title>
<g id="a_Node000001"><a xlink:title=" ">
<polygon fill="#999999" stroke="#666666" points="112,-48 0,-48 0,-28 112,-28 112,-48"/>
<text text-anchor="middle" x="56" y="-34.5" font-family="Helvetica,sans-Serif" font-size="10.00">CSMAESOpt::sample</text>
</a>
</g>
</g>
<!-- Node2 -->
<g id="Node000002" class="node">
<title>Node2</title>
<g id="a_Node000002"><a xlink:href="$class_c_s_m_a_e_s_opt.html#a65fddc11f5608ddba75e7994441a5a5c" xlink:title=" ">
<polygon fill="white" stroke="#666666" points="272.75,-70 148,-70 148,-50 272.75,-50 272.75,-70"/>
<text text-anchor="middle" x="210.38" y="-56.5" font-family="Helvetica,sans-Serif" font-size="10.00">CSMAESOpt::isFeasible</text>
</a>
</g>
</g>
<!-- Node1&#45;&gt;Node2 -->
<g id="edge5_Node000001_Node000002" class="edge">
<title>Node1&#45;&gt;Node2</title>
<g id="a_edge5_Node000001_Node000002"><a xlink:title=" ">
<path fill="none" stroke="#63b8ff" d="M112.44,-46C120.19,-47.12 128.25,-48.29 136.27,-49.44"/>
<polygon fill="#63b8ff" stroke="#63b8ff" points="135.63,-52.89 146.03,-50.85 136.64,-45.96 135.63,-52.89"/>
</a>
</g>
</g>
<!-- Node3 -->
<g id="Node000003" class="node">
<title>Node3</title>
<g id="a_Node000003"><a xlink:href="$class_c_bite_opt_base.html#a634a498e8ebd71bbf87fd1df02f178e0" xlink:title=" ">
<polygon fill="white" stroke="#666666" points="268.62,-32 152.12,-32 152.12,0 268.62,0 268.62,-32"/>
<text text-anchor="start" x="160.12" y="-18.5" font-family="Helvetica,sans-Serif" font-size="10.00">CBiteOptBase&lt; double</text>
<text text-anchor="middle" x="210.38" y="-6.5" font-family="Helvetica,sans-Serif" font-size="10.00"> &gt;::wrapParamReal</text>
</a>
</g>
</g>
<!-- Node1&#45;&gt;Node3 -->
<g id="edge6_Node000001_Node000003" class="edge">
<title>Node1&#45;&gt;Node3</title>
<g id="a_edge6_Node000001_Node000003"><a xlink:title=" ">
<path fill="none" stroke="#63b8ff" d="M112.44,-30C121.52,-28.69 131.02,-27.31 140.37,-25.96"/>
<polygon fill="#63b8ff" stroke="#63b8ff" points="140.77,-29.44 150.17,-24.55 139.77,-22.51 140.77,-29.44"/>
</a>
</g>
</g>
</g>
</svg>
