<?xml version="1.0" encoding="UTF-8" standalone="no"?>
<!DOCTYPE svg PUBLIC "-//W3C//DTD SVG 1.1//EN"
 "http://www.w3.org/Graphics/SVG/1.1/DTD/svg11.dtd">
<!-- Generated by graphviz version 12.2.1 (20241206.2353)
 -->
<!-- Title: CBiteOpt::generateSol5b Pages: 1 -->
<svg width="726pt" height="297pt"
 viewBox="0.00 0.00 726.25 297.00" xmlns="http://www.w3.org/2000/svg" xmlns:xlink="http://www.w3.org/1999/xlink">
<g id="graph0" class="graph" transform="scale(1 1) rotate(0) translate(4 293)">
<title>CBiteOpt::generateSol5b</title>
<!-- Node1 -->
<g id="Node000001" class="node">
<title>Node1</title>
<g id="a_Node000001"><a xlink:title=" ">
<polygon fill="#999999" stroke="#666666" points="124.75,-153 0,-153 0,-133 124.75,-133 124.75,-153"/>
<text text-anchor="middle" x="62.38" y="-139.5" font-family="Helvetica,sans-Serif" font-size="10.00">CBiteOpt::generateSol5b</text>
</a>
</g>
</g>
<!-- Node2 -->
<g id="Node000002" class="node">
<title>Node2</title>
<g id="a_Node000002"><a xlink:href="$class_c_bite_pop.html#ad427518ed1d47fbe3c2222b3a11badb7" xlink:title=" ">
<polygon fill="white" stroke="#666666" points="449.62,-251 344.38,-251 344.38,-219 449.62,-219 449.62,-251"/>
<text text-anchor="start" x="352.38" y="-237.5" font-family="Helvetica,sans-Serif" font-size="10.00">CBitePop&lt; int64_t &gt;</text>
<text text-anchor="middle" x="397" y="-225.5" font-family="Helvetica,sans-Serif" font-size="10.00">::CBitePop</text>
</a>
</g>
</g>
<!-- Node1&#45;&gt;Node2 -->
<g id="edge37_Node000001_Node000002" class="edge">
<title>Node1&#45;&gt;Node2</title>
<g id="a_edge37_Node000001_Node000002"><a xlink:title=" ">
<path fill="none" stroke="#63b8ff" d="M72.62,-153.46C88.6,-170.72 123.29,-204.67 160.75,-219 216.15,-240.19 284.19,-242.52 332.82,-240.55"/>
<polygon fill="#63b8ff" stroke="#63b8ff" points="332.8,-244.05 342.62,-240.07 332.46,-237.06 332.8,-244.05"/>
</a>
</g>
</g>
<!-- Node3 -->
<g id="Node000003" class="node">
<title>Node3</title>
<g id="a_Node000003"><a xlink:href="$class_c_bite_rnd.html#a6ccc0608cbc9080d9509a0e4c483adfe" xlink:title=" ">
<polygon fill="white" stroke="#666666" points="579.25,-134 489,-134 489,-114 579.25,-114 579.25,-134"/>
<text text-anchor="middle" x="534.12" y="-120.5" font-family="Helvetica,sans-Serif" font-size="10.00">CBiteRnd::getBit</text>
</a>
</g>
</g>
<!-- Node1&#45;&gt;Node3 -->
<g id="edge38_Node000001_Node000003" class="edge">
<title>Node1&#45;&gt;Node3</title>
<g id="a_edge38_Node000001_Node000003"><a xlink:title=" ">
<path fill="none" stroke="#63b8ff" d="M124.79,-140.52C216.66,-136.8 388.53,-129.85 477.13,-126.26"/>
<polygon fill="#63b8ff" stroke="#63b8ff" points="477.19,-129.77 487.04,-125.86 476.9,-122.77 477.19,-129.77"/>
</a>
</g>
</g>
<!-- Node5 -->
<g id="Node000005" class="node">
<title>Node5</title>
<g id="a_Node000005"><a xlink:href="$class_c_bite_pop.html#a5aef425d751172e1fff38a455cb51d34" xlink:title=" ">
<polygon fill="white" stroke="#666666" points="298.62,-58 168.62,-58 168.62,-38 298.62,-38 298.62,-58"/>
<text text-anchor="middle" x="233.62" y="-44.5" font-family="Helvetica,sans-Serif" font-size="10.00">CBitePop::getCurPopSize</text>
</a>
</g>
</g>
<!-- Node1&#45;&gt;Node5 -->
<g id="edge40_Node000001_Node000005" class="edge">
<title>Node1&#45;&gt;Node5</title>
<g id="a_edge40_Node000001_Node000005"><a xlink:title=" ">
<path fill="none" stroke="#63b8ff" d="M73.76,-132.51C90.56,-116.13 125.4,-84.54 160.75,-67 164.27,-65.25 167.96,-63.66 171.75,-62.19"/>
<polygon fill="#63b8ff" stroke="#63b8ff" points="172.84,-65.52 181.13,-58.92 170.54,-58.91 172.84,-65.52"/>
</a>
</g>
</g>
<!-- Node6 -->
<g id="Node000006" class="node">
<title>Node6</title>
<g id="a_Node000006"><a xlink:href="$class_c_bite_pop.html#aaa8e3f180accfedf21218cbed8ffbb79" xlink:title=" ">
<polygon fill="white" stroke="#666666" points="306.5,-20 160.75,-20 160.75,0 306.5,0 306.5,-20"/>
<text text-anchor="middle" x="233.62" y="-6.5" font-family="Helvetica,sans-Serif" font-size="10.00">CBitePop::getParamsOrdered</text>
</a>
</g>
</g>
<!-- Node1&#45;&gt;Node6 -->
<g id="edge41_Node000001_Node000006" class="edge">
<title>Node1&#45;&gt;Node6</title>
<g id="a_edge41_Node000001_Node000006"><a xlink:title=" ">
<path fill="none" stroke="#63b8ff" d="M69.19,-132.66C82.38,-110.16 116.9,-56.57 160.75,-29 163.06,-27.55 165.47,-26.21 167.96,-24.97"/>
<polygon fill="#63b8ff" stroke="#63b8ff" points="169.32,-28.2 177.13,-21.03 166.56,-21.77 169.32,-28.2"/>
</a>
</g>
</g>
<!-- Node7 -->
<g id="Node000007" class="node">
<title>Node7</title>
<g id="a_Node000007"><a xlink:href="$class_c_bite_rnd.html#ab73d2c6a6e4c1f5da7441168f165529d" xlink:title=" ">
<polygon fill="white" stroke="#666666" points="285.88,-96 181.38,-96 181.38,-76 285.88,-76 285.88,-96"/>
<text text-anchor="middle" x="233.62" y="-82.5" font-family="Helvetica,sans-Serif" font-size="10.00">CBiteRnd::getSqrInt</text>
</a>
</g>
</g>
<!-- Node1&#45;&gt;Node7 -->
<g id="edge42_Node000001_Node000007" class="edge">
<title>Node1&#45;&gt;Node7</title>
<g id="a_edge42_Node000001_Node000007"><a xlink:title=" ">
<path fill="none" stroke="#63b8ff" d="M94.06,-132.56C113.23,-126.05 138.42,-117.51 160.75,-110 170.35,-106.77 180.68,-103.31 190.43,-100.05"/>
<polygon fill="#63b8ff" stroke="#63b8ff" points="191.31,-103.45 199.69,-96.96 189.1,-96.81 191.31,-103.45"/>
</a>
</g>
</g>
<!-- Node9 -->
<g id="Node000009" class="node">
<title>Node9</title>
<g id="a_Node000009"><a xlink:href="$class_c_bite_opt_base.html#abf93d2e584756812ad210f86e4f84a69" xlink:title=" ">
<polygon fill="white" stroke="#666666" points="451.5,-201 342.5,-201 342.5,-169 451.5,-169 451.5,-201"/>
<text text-anchor="start" x="350.5" y="-187.5" font-family="Helvetica,sans-Serif" font-size="10.00">CBiteOptBase&lt; int64</text>
<text text-anchor="middle" x="397" y="-175.5" font-family="Helvetica,sans-Serif" font-size="10.00">_t &gt;::select</text>
</a>
</g>
</g>
<!-- Node1&#45;&gt;Node9 -->
<g id="edge45_Node000001_Node000009" class="edge">
<title>Node1&#45;&gt;Node9</title>
<g id="a_edge45_Node000001_Node000009"><a xlink:title=" ">
<path fill="none" stroke="#63b8ff" d="M125.16,-150.8C183.76,-158.2 271.47,-169.28 331.08,-176.8"/>
<polygon fill="#63b8ff" stroke="#63b8ff" points="330.38,-180.24 340.74,-178.02 331.26,-173.3 330.38,-180.24"/>
</a>
</g>
</g>
<!-- Node10 -->
<g id="Node000010" class="node">
<title>Node10</title>
<g id="a_Node000010"><a xlink:href="$class_c_bite_opt.html#ab98060db69130d7610818bddda8c7115" xlink:title=" ">
<polygon fill="white" stroke="#666666" points="292.62,-210 174.62,-210 174.62,-190 292.62,-190 292.62,-210"/>
<text text-anchor="middle" x="233.62" y="-196.5" font-family="Helvetica,sans-Serif" font-size="10.00">CBiteOpt::selectAltPop</text>
</a>
</g>
</g>
<!-- Node1&#45;&gt;Node10 -->
<g id="edge46_Node000001_Node000010" class="edge">
<title>Node1&#45;&gt;Node10</title>
<g id="a_edge46_Node000001_Node000010"><a xlink:title=" ">
<path fill="none" stroke="#63b8ff" d="M94.06,-153.44C113.23,-159.95 138.42,-168.49 160.75,-176 170.35,-179.23 180.68,-182.69 190.43,-185.95"/>
<polygon fill="#63b8ff" stroke="#63b8ff" points="189.1,-189.19 199.69,-189.04 191.31,-182.55 189.1,-189.19"/>
</a>
</g>
</g>
<!-- Node11 -->
<g id="Node000011" class="node">
<title>Node11</title>
<g id="a_Node000011"><a xlink:href="$class_c_bite_opt.html#a344271b2490d03eaa0c8e1ab062d916d" xlink:title=" ">
<polygon fill="white" stroke="#666666" points="294.12,-286 173.12,-286 173.12,-266 294.12,-266 294.12,-286"/>
<text text-anchor="middle" x="233.62" y="-272.5" font-family="Helvetica,sans-Serif" font-size="10.00">CBiteOpt::selectParPop</text>
</a>
</g>
</g>
<!-- Node1&#45;&gt;Node11 -->
<g id="edge49_Node000001_Node000011" class="edge">
<title>Node1&#45;&gt;Node11</title>
<g id="a_edge49_Node000001_Node000011"><a xlink:title=" ">
<path fill="none" stroke="#63b8ff" d="M69.85,-153.32C83.84,-174.79 118.99,-224.52 160.75,-252 166.24,-255.61 172.33,-258.73 178.57,-261.41"/>
<polygon fill="#63b8ff" stroke="#63b8ff" points="177.13,-264.61 187.72,-264.96 179.67,-258.08 177.13,-264.61"/>
</a>
</g>
</g>
<!-- Node4 -->
<g id="Node000004" class="node">
<title>Node4</title>
<g id="a_Node000004"><a xlink:href="$class_c_bite_rnd.html#ae1167f8ecac85f268ced4bc1d2fa953b" xlink:title=" ">
<polygon fill="white" stroke="#666666" points="718.25,-134 616.75,-134 616.75,-114 718.25,-114 718.25,-134"/>
<text text-anchor="middle" x="667.5" y="-120.5" font-family="Helvetica,sans-Serif" font-size="10.00">CBiteRnd::advance</text>
</a>
</g>
</g>
<!-- Node3&#45;&gt;Node4 -->
<g id="edge39_Node000003_Node000004" class="edge">
<title>Node3&#45;&gt;Node4</title>
<g id="a_edge39_Node000003_Node000004"><a xlink:title=" ">
<path fill="none" stroke="#63b8ff" d="M579.6,-124C587.88,-124 596.67,-124 605.35,-124"/>
<polygon fill="#63b8ff" stroke="#63b8ff" points="605.13,-127.5 615.13,-124 605.13,-120.5 605.13,-127.5"/>
</a>
</g>
</g>
<!-- Node8 -->
<g id="Node000008" class="node">
<title>Node8</title>
<g id="a_Node000008"><a xlink:href="$class_c_bite_rnd.html#aabbf1ffd535ca8fe31fda768f15ccd1b" xlink:title=" ">
<polygon fill="white" stroke="#666666" points="580.75,-96 487.5,-96 487.5,-76 580.75,-76 580.75,-96"/>
<text text-anchor="middle" x="534.12" y="-82.5" font-family="Helvetica,sans-Serif" font-size="10.00">CBiteRnd::getSqr</text>
</a>
</g>
</g>
<!-- Node7&#45;&gt;Node8 -->
<g id="edge43_Node000007_Node000008" class="edge">
<title>Node7&#45;&gt;Node8</title>
<g id="a_edge43_Node000007_Node000008"><a xlink:title=" ">
<path fill="none" stroke="#63b8ff" d="M286.28,-86C339.25,-86 421.41,-86 476.22,-86"/>
<polygon fill="#63b8ff" stroke="#63b8ff" points="475.96,-89.5 485.96,-86 475.96,-82.5 475.96,-89.5"/>
</a>
</g>
</g>
<!-- Node8&#45;&gt;Node4 -->
<g id="edge44_Node000008_Node000004" class="edge">
<title>Node8&#45;&gt;Node4</title>
<g id="a_edge44_Node000008_Node000004"><a xlink:title=" ">
<path fill="none" stroke="#63b8ff" d="M571.37,-96.48C586.31,-100.8 603.8,-105.86 619.68,-110.46"/>
<polygon fill="#63b8ff" stroke="#63b8ff" points="618.34,-113.71 628.92,-113.13 620.28,-106.99 618.34,-113.71"/>
</a>
</g>
</g>
<!-- Node10&#45;&gt;Node2 -->
<g id="edge47_Node000010_Node000002" class="edge">
<title>Node10&#45;&gt;Node2</title>
<g id="a_edge47_Node000010_Node000002"><a xlink:title=" ">
<path fill="none" stroke="#63b8ff" d="M282.61,-210.41C298.46,-213.84 316.34,-217.72 333.13,-221.37"/>
<polygon fill="#63b8ff" stroke="#63b8ff" points="331.99,-224.7 342.5,-223.4 333.47,-217.86 331.99,-224.7"/>
</a>
</g>
</g>
<!-- Node10&#45;&gt;Node9 -->
<g id="edge48_Node000010_Node000009" class="edge">
<title>Node10&#45;&gt;Node9</title>
<g id="a_edge48_Node000010_Node000009"><a xlink:title=" ">
<path fill="none" stroke="#63b8ff" d="M292.89,-194.58C305.19,-193.44 318.25,-192.23 330.79,-191.06"/>
<polygon fill="#63b8ff" stroke="#63b8ff" points="330.98,-194.56 340.62,-190.15 330.34,-187.59 330.98,-194.56"/>
</a>
</g>
</g>
<!-- Node11&#45;&gt;Node2 -->
<g id="edge50_Node000011_Node000002" class="edge">
<title>Node11&#45;&gt;Node2</title>
<g id="a_edge50_Node000011_Node000002"><a xlink:title=" ">
<path fill="none" stroke="#63b8ff" d="M275.76,-265.55C293.09,-261.15 313.66,-255.92 332.83,-251.05"/>
<polygon fill="#63b8ff" stroke="#63b8ff" points="333.63,-254.46 342.46,-248.6 331.91,-247.67 333.63,-254.46"/>
</a>
</g>
</g>
<!-- Node11&#45;&gt;Node9 -->
<g id="edge54_Node000011_Node000009" class="edge">
<title>Node11&#45;&gt;Node9</title>
<g id="a_edge54_Node000011_Node000009"><a xlink:title=" ">
<path fill="none" stroke="#63b8ff" d="M250.38,-265.59C271.11,-252.08 308.85,-228.08 342.5,-210 344.7,-208.82 346.97,-207.63 349.27,-206.46"/>
<polygon fill="#63b8ff" stroke="#63b8ff" points="350.71,-209.65 358.11,-202.08 347.6,-203.38 350.71,-209.65"/>
</a>
</g>
</g>
<!-- Node12 -->
<g id="Node000012" class="node">
<title>Node12</title>
<g id="a_Node000012"><a xlink:href="$class_c_bite_rnd.html#a4e9ad0a5c5e09149a60f849736d8d7ce" xlink:title=" ">
<polygon fill="white" stroke="#666666" points="441.75,-289 352.25,-289 352.25,-269 441.75,-269 441.75,-289"/>
<text text-anchor="middle" x="397" y="-275.5" font-family="Helvetica,sans-Serif" font-size="10.00">CBiteRnd::getInt</text>
</a>
</g>
</g>
<!-- Node11&#45;&gt;Node12 -->
<g id="edge51_Node000011_Node000012" class="edge">
<title>Node11&#45;&gt;Node12</title>
<g id="a_edge51_Node000011_Node000012"><a xlink:title=" ">
<path fill="none" stroke="#63b8ff" d="M294.26,-277.11C309.5,-277.39 325.81,-277.7 340.82,-277.97"/>
<polygon fill="#63b8ff" stroke="#63b8ff" points="340.42,-281.47 350.48,-278.15 340.55,-274.47 340.42,-281.47"/>
</a>
</g>
</g>
<!-- Node13 -->
<g id="Node000013" class="node">
<title>Node13</title>
<g id="a_Node000013"><a xlink:href="$class_c_bite_rnd.html#afdb77334884f1a612780def0dec0a326" xlink:title=" ">
<polygon fill="white" stroke="#666666" points="573.25,-230 495,-230 495,-210 573.25,-210 573.25,-230"/>
<text text-anchor="middle" x="534.12" y="-216.5" font-family="Helvetica,sans-Serif" font-size="10.00">CBiteRnd::get</text>
</a>
</g>
</g>
<!-- Node12&#45;&gt;Node13 -->
<g id="edge52_Node000012_Node000013" class="edge">
<title>Node12&#45;&gt;Node13</title>
<g id="a_edge52_Node000012_Node000013"><a xlink:title=" ">
<path fill="none" stroke="#63b8ff" d="M429.35,-268.54C436.68,-265.91 444.41,-262.98 451.5,-260 469.11,-252.59 488.32,-243.24 503.67,-235.45"/>
<polygon fill="#63b8ff" stroke="#63b8ff" points="504.98,-238.71 512.28,-231.03 501.78,-232.48 504.98,-238.71"/>
</a>
</g>
</g>
<!-- Node13&#45;&gt;Node4 -->
<g id="edge53_Node000013_Node000004" class="edge">
<title>Node13&#45;&gt;Node4</title>
<g id="a_edge53_Node000013_Node000004"><a xlink:title=" ">
<path fill="none" stroke="#63b8ff" d="M549.43,-209.54C571.94,-193.1 615.84,-161.02 643.02,-141.16"/>
<polygon fill="#63b8ff" stroke="#63b8ff" points="644.98,-144.06 650.99,-135.34 640.85,-138.41 644.98,-144.06"/>
</a>
</g>
</g>
</g>
</svg>
