<?xml version="1.0" encoding="UTF-8" standalone="no"?>
<!DOCTYPE svg PUBLIC "-//W3C//DTD SVG 1.1//EN"
 "http://www.w3.org/Graphics/SVG/1.1/DTD/svg11.dtd">
<!-- Generated by graphviz version 12.2.1 (20241206.2353)
 -->
<!-- Title: fcmaes.optimizer.Crfmnes.minimize Pages: 1 -->
<svg width="375pt" height="140pt"
 viewBox="0.00 0.00 375.25 140.00" xmlns="http://www.w3.org/2000/svg" xmlns:xlink="http://www.w3.org/1999/xlink">
<g id="graph0" class="graph" transform="scale(1 1) rotate(0) translate(4 136)">
<title>fcmaes.optimizer.Crfmnes.minimize</title>
<!-- Node1 -->
<g id="Node000001" class="node">
<title>Node1</title>
<g id="a_Node000001"><a xlink:title="Minimizes a given objective function using a specific optimization strategy.">
<polygon fill="#999999" stroke="#666666" points="173.5,-76 0,-76 0,-56 173.5,-56 173.5,-76"/>
<text text-anchor="middle" x="86.75" y="-62.5" font-family="Helvetica,sans-Serif" font-size="10.00">fcmaes.optimizer.Crfmnes.minimize</text>
</a>
</g>
</g>
<!-- Node2 -->
<g id="Node000002" class="node">
<title>Node2</title>
<g id="a_Node000002"><a xlink:href="$classfcmaes_1_1advretry_1_1_store.html#a329ccb4c8a17a35fec30a506495dee61" xlink:title="Retrieves the count of runs.">
<polygon fill="white" stroke="#666666" points="352.62,-132 224.12,-132 224.12,-100 352.62,-100 352.62,-132"/>
<text text-anchor="start" x="232.12" y="-118.5" font-family="Helvetica,sans-Serif" font-size="10.00">fcmaes.advretry.Store.get</text>
<text text-anchor="middle" x="288.38" y="-106.5" font-family="Helvetica,sans-Serif" font-size="10.00">_count_runs</text>
</a>
</g>
</g>
<!-- Node1&#45;&gt;Node2 -->
<g id="edge7_Node000001_Node000002" class="edge">
<title>Node1&#45;&gt;Node2</title>
<g id="a_edge7_Node000001_Node000002"><a xlink:title=" ">
<path fill="none" stroke="#63b8ff" d="M129.6,-76.48C153.72,-82.52 184.76,-90.3 212.91,-97.35"/>
<polygon fill="#63b8ff" stroke="#63b8ff" points="211.93,-100.71 222.48,-99.75 213.63,-93.92 211.93,-100.71"/>
</a>
</g>
</g>
<!-- Node3 -->
<g id="Node000003" class="node">
<title>Node3</title>
<g id="a_Node000003"><a xlink:href="$classfcmaes_1_1optimizer_1_1_optimizer.html#acf09b9b314cc4faf25c9935e76ae1821" xlink:title="Gets the count of runs from the provided store.">
<polygon fill="white" stroke="#666666" points="364.62,-82 212.12,-82 212.12,-50 364.62,-50 364.62,-82"/>
<text text-anchor="start" x="220.12" y="-68.5" font-family="Helvetica,sans-Serif" font-size="10.00">fcmaes.optimizer.Optimizer.get</text>
<text text-anchor="middle" x="288.38" y="-56.5" font-family="Helvetica,sans-Serif" font-size="10.00">_count_runs</text>
</a>
</g>
</g>
<!-- Node1&#45;&gt;Node3 -->
<g id="edge8_Node000001_Node000003" class="edge">
<title>Node1&#45;&gt;Node3</title>
<g id="a_edge8_Node000001_Node000003"><a xlink:title=" ">
<path fill="none" stroke="#63b8ff" d="M173.86,-66C182.66,-66 191.61,-66 200.43,-66"/>
<polygon fill="#63b8ff" stroke="#63b8ff" points="200.4,-69.5 210.4,-66 200.4,-62.5 200.4,-69.5"/>
</a>
</g>
</g>
<!-- Node4 -->
<g id="Node000004" class="node">
<title>Node4</title>
<g id="a_Node000004"><a xlink:href="$classfcmaes_1_1optimizer_1_1_optimizer.html#adfc4b7f5b36503f186c68d521a9ede8a" xlink:title="Evaluates and returns the maximum number of evaluations based on the provided store or the object&#39;s d...">
<polygon fill="white" stroke="#666666" points="367.25,-32 209.5,-32 209.5,0 367.25,0 367.25,-32"/>
<text text-anchor="start" x="217.5" y="-18.5" font-family="Helvetica,sans-Serif" font-size="10.00">fcmaes.optimizer.Optimizer.max</text>
<text text-anchor="middle" x="288.38" y="-6.5" font-family="Helvetica,sans-Serif" font-size="10.00">_eval_num</text>
</a>
</g>
</g>
<!-- Node1&#45;&gt;Node4 -->
<g id="edge9_Node000001_Node000004" class="edge">
<title>Node1&#45;&gt;Node4</title>
<g id="a_edge9_Node000001_Node000004"><a xlink:title=" ">
<path fill="none" stroke="#63b8ff" d="M129.6,-55.52C153.11,-49.63 183.2,-42.09 210.78,-35.18"/>
<polygon fill="#63b8ff" stroke="#63b8ff" points="211.3,-38.66 220.15,-32.84 209.59,-31.87 211.3,-38.66"/>
</a>
</g>
</g>
</g>
</svg>
