<?xml version="1.0" encoding="UTF-8" standalone="no"?>
<!DOCTYPE svg PUBLIC "-//W3C//DTD SVG 1.1//EN"
 "http://www.w3.org/Graphics/SVG/1.1/DTD/svg11.dtd">
<!-- Generated by graphviz version 12.2.1 (20241206.2353)
 -->
<!-- Title: fcmaes.journal.Journal.study Pages: 1 -->
<svg width="451pt" height="40pt"
 viewBox="0.00 0.00 450.50 40.00" xmlns="http://www.w3.org/2000/svg" xmlns:xlink="http://www.w3.org/1999/xlink">
<g id="graph0" class="graph" transform="scale(1 1) rotate(0) translate(4 36)">
<title>fcmaes.journal.Journal.study</title>
<!-- Node1 -->
<g id="Node000001" class="node">
<title>Node1</title>
<g id="a_Node000001"><a xlink:title="Writes the start of a study to a file.">
<polygon fill="#999999" stroke="#666666" points="141.25,-26 0,-26 0,-6 141.25,-6 141.25,-26"/>
<text text-anchor="middle" x="70.62" y="-12.5" font-family="Helvetica,sans-Serif" font-size="10.00">fcmaes.journal.Journal.study</text>
</a>
</g>
</g>
<!-- Node2 -->
<g id="Node000002" class="node">
<title>Node2</title>
<g id="a_Node000002"><a xlink:href="$namespacefcmaes_1_1journal.html#a10dd7671556c1ec184e8402909fead3e" xlink:title="Creates and returns a JSON representation of a study start message.">
<polygon fill="white" stroke="#666666" points="284,-32 177.25,-32 177.25,0 284,0 284,-32"/>
<text text-anchor="start" x="185.25" y="-18.5" font-family="Helvetica,sans-Serif" font-size="10.00">fcmaes.journal.study</text>
<text text-anchor="middle" x="230.62" y="-6.5" font-family="Helvetica,sans-Serif" font-size="10.00">_start</text>
</a>
</g>
</g>
<!-- Node1&#45;&gt;Node2 -->
<g id="edge5_Node000001_Node000002" class="edge">
<title>Node1&#45;&gt;Node2</title>
<g id="a_edge5_Node000001_Node000002"><a xlink:title=" ">
<path fill="none" stroke="#63b8ff" d="M141.39,-16C149.38,-16 157.51,-16 165.43,-16"/>
<polygon fill="#63b8ff" stroke="#63b8ff" points="165.34,-19.5 175.34,-16 165.33,-12.5 165.34,-19.5"/>
</a>
</g>
</g>
<!-- Node3 -->
<g id="Node000003" class="node">
<title>Node3</title>
<g id="a_Node000003"><a xlink:href="$namespacefcmaes_1_1journal.html#ab2d4646b056641882ced63f7d0299978" xlink:title="Converts a given message object to its JSON representation.">
<polygon fill="white" stroke="#666666" points="442.5,-32 320,-32 320,0 442.5,0 442.5,-32"/>
<text text-anchor="start" x="328" y="-18.5" font-family="Helvetica,sans-Serif" font-size="10.00">fcmaes.journal.message</text>
<text text-anchor="middle" x="381.25" y="-6.5" font-family="Helvetica,sans-Serif" font-size="10.00">_to_json</text>
</a>
</g>
</g>
<!-- Node2&#45;&gt;Node3 -->
<g id="edge6_Node000002_Node000003" class="edge">
<title>Node2&#45;&gt;Node3</title>
<g id="a_edge6_Node000002_Node000003"><a xlink:title=" ">
<path fill="none" stroke="#63b8ff" d="M284.44,-16C292.21,-16 300.32,-16 308.4,-16"/>
<polygon fill="#63b8ff" stroke="#63b8ff" points="308.23,-19.5 318.23,-16 308.23,-12.5 308.23,-19.5"/>
</a>
</g>
</g>
</g>
</svg>
