<?xml version="1.0" encoding="UTF-8" standalone="no"?>
<!DOCTYPE svg PUBLIC "-//W3C//DTD SVG 1.1//EN"
 "http://www.w3.org/Graphics/SVG/1.1/DTD/svg11.dtd">
<!-- Generated by graphviz version 12.2.1 (20241206.2353)
 -->
<!-- Title: fcmaes.mode.MODE.minimize_ser Pages: 1 -->
<svg width="964pt" height="550pt"
 viewBox="0.00 0.00 964.00 550.00" xmlns="http://www.w3.org/2000/svg" xmlns:xlink="http://www.w3.org/1999/xlink">
<g id="graph0" class="graph" transform="scale(1 1) rotate(0) translate(4 546)">
<title>fcmaes.mode.MODE.minimize_ser</title>
<!-- Node1 -->
<g id="Node000001" class="node">
<title>Node1</title>
<g id="a_Node000001"><a xlink:title="Minimizes a given function using a custom optimization approach until the maximum number of evaluatio...">
<polygon fill="#999999" stroke="#666666" points="169,-309 0,-309 0,-289 169,-289 169,-309"/>
<text text-anchor="middle" x="84.5" y="-295.5" font-family="Helvetica,sans-Serif" font-size="10.00">fcmaes.mode.MODE.minimize_ser</text>
</a>
</g>
</g>
<!-- Node2 -->
<g id="Node000002" class="node">
<title>Node2</title>
<g id="a_Node000002"><a xlink:href="$classfcmaes_1_1cmaes_1_1_cmaes.html#a56c7e2c2ad921a3fc6263e5be6a873f8" xlink:title="Generates a NumPy array by decoding elements in the current data structure.">
<polygon fill="white" stroke="#666666" points="349.62,-542 215.88,-542 215.88,-522 349.62,-522 349.62,-542"/>
<text text-anchor="middle" x="282.75" y="-528.5" font-family="Helvetica,sans-Serif" font-size="10.00">fcmaes.cmaes.Cmaes.ask</text>
</a>
</g>
</g>
<!-- Node1&#45;&gt;Node2 -->
<g id="edge65_Node000001_Node000002" class="edge">
<title>Node1&#45;&gt;Node2</title>
<g id="a_edge65_Node000001_Node000002"><a xlink:title=" ">
<path fill="none" stroke="#63b8ff" d="M88.12,-309.44C97.42,-344.27 132.28,-457.48 205,-513 206.54,-514.17 208.14,-515.28 209.79,-516.31"/>
<polygon fill="#63b8ff" stroke="#63b8ff" points="207.92,-519.28 218.4,-520.83 211.17,-513.08 207.92,-519.28"/>
</a>
</g>
</g>
<!-- Node4 -->
<g id="Node000004" class="node">
<title>Node4</title>
<g id="a_Node000004"><a xlink:href="$classfcmaes_1_1cmaescpp_1_1_a_c_m_a___c.html#ad7ca82faa65b471b66977e2f18676025" xlink:title="Generates and retrieves a population of candidate solutions.">
<polygon fill="white" stroke="#666666" points="347,-504 218.5,-504 218.5,-472 347,-472 347,-504"/>
<text text-anchor="start" x="226.5" y="-490.5" font-family="Helvetica,sans-Serif" font-size="10.00">fcmaes.cmaescpp.ACMA</text>
<text text-anchor="middle" x="282.75" y="-478.5" font-family="Helvetica,sans-Serif" font-size="10.00">_C.ask</text>
</a>
</g>
</g>
<!-- Node1&#45;&gt;Node4 -->
<g id="edge67_Node000001_Node000004" class="edge">
<title>Node1&#45;&gt;Node4</title>
<g id="a_edge67_Node000001_Node000004"><a xlink:title=" ">
<path fill="none" stroke="#63b8ff" d="M90.08,-309.18C103.47,-337.81 145.42,-419.74 205,-463 206.56,-464.13 208.17,-465.21 209.83,-466.25"/>
<polygon fill="#63b8ff" stroke="#63b8ff" points="207.95,-469.21 218.4,-470.95 211.31,-463.07 207.95,-469.21"/>
</a>
</g>
</g>
<!-- Node5 -->
<g id="Node000005" class="node">
<title>Node5</title>
<g id="a_Node000005"><a xlink:href="$classfcmaes_1_1crfmnescpp_1_1_c_r_f_m_n_e_s___c.html#a70d038e8b7f0c094ef4eb618fffbb1ed" xlink:title="Generates a population of candidate solutions using the CR&#45;FM&#45;NES algorithm.">
<polygon fill="white" stroke="#666666" points="360.5,-454 205,-454 205,-422 360.5,-422 360.5,-454"/>
<text text-anchor="start" x="213" y="-440.5" font-family="Helvetica,sans-Serif" font-size="10.00">fcmaes.crfmnescpp.CRFMNES</text>
<text text-anchor="middle" x="282.75" y="-428.5" font-family="Helvetica,sans-Serif" font-size="10.00">_C.ask</text>
</a>
</g>
</g>
<!-- Node1&#45;&gt;Node5 -->
<g id="edge68_Node000001_Node000005" class="edge">
<title>Node1&#45;&gt;Node5</title>
<g id="a_edge68_Node000001_Node000005"><a xlink:title=" ">
<path fill="none" stroke="#63b8ff" d="M93.62,-309.42C111.43,-331.61 156.26,-383.89 205,-413 207.28,-414.36 209.65,-415.66 212.08,-416.9"/>
<polygon fill="#63b8ff" stroke="#63b8ff" points="210.4,-419.98 220.94,-421 213.33,-413.63 210.4,-419.98"/>
</a>
</g>
</g>
<!-- Node6 -->
<g id="Node000006" class="node">
<title>Node6</title>
<g id="a_Node000006"><a xlink:href="$classfcmaes_1_1de_1_1_d_e.html#acc2a7649411442c90167d856c673ccb4" xlink:title="Generates and returns the next set of samples to be evaluated based on the evolutionary strategy.">
<polygon fill="white" stroke="#666666" points="331.62,-404 233.88,-404 233.88,-384 331.62,-384 331.62,-404"/>
<text text-anchor="middle" x="282.75" y="-390.5" font-family="Helvetica,sans-Serif" font-size="10.00">fcmaes.de.DE.ask</text>
</a>
</g>
</g>
<!-- Node1&#45;&gt;Node6 -->
<g id="edge69_Node000001_Node000006" class="edge">
<title>Node1&#45;&gt;Node6</title>
<g id="a_edge69_Node000001_Node000006"><a xlink:title=" ">
<path fill="none" stroke="#63b8ff" d="M98.67,-309.43C119.87,-325.72 163.41,-357.19 205,-375 210.6,-377.4 216.56,-379.54 222.6,-381.43"/>
<polygon fill="#63b8ff" stroke="#63b8ff" points="221.44,-384.74 232.02,-384.16 223.39,-378.02 221.44,-384.74"/>
</a>
</g>
</g>
<!-- Node8 -->
<g id="Node000008" class="node">
<title>Node8</title>
<g id="a_Node000008"><a xlink:href="$classfcmaes_1_1decpp_1_1_d_e___c.html#ac938731f80bce720692af9b7b84e41d0" xlink:title="Generates a new population of candidate solutions using the DE (Differential Evolution) algorithm.">
<polygon fill="white" stroke="#666666" points="345.88,-366 219.62,-366 219.62,-346 345.88,-346 345.88,-366"/>
<text text-anchor="middle" x="282.75" y="-352.5" font-family="Helvetica,sans-Serif" font-size="10.00">fcmaes.decpp.DE_C.ask</text>
</a>
</g>
</g>
<!-- Node1&#45;&gt;Node8 -->
<g id="edge71_Node000001_Node000008" class="edge">
<title>Node1&#45;&gt;Node8</title>
<g id="a_edge71_Node000001_Node000008"><a xlink:title=" ">
<path fill="none" stroke="#63b8ff" d="M116.28,-309.4C140.32,-317.37 174.62,-328.42 205,-337 211.85,-338.93 219.07,-340.86 226.23,-342.71"/>
<polygon fill="#63b8ff" stroke="#63b8ff" points="225.36,-346.1 235.92,-345.17 227.08,-339.32 225.36,-346.1"/>
</a>
</g>
</g>
<!-- Node9 -->
<g id="Node000009" class="node">
<title>Node9</title>
<g id="a_Node000009"><a xlink:href="$classfcmaes_1_1mode_1_1_m_o_d_e.html#a1893dc839f866ab4d22f7fd13489bf73" xlink:title="Generates the next batch of candidate solutions and updates internal population.">
<polygon fill="white" stroke="#666666" points="346.25,-328 219.25,-328 219.25,-308 346.25,-308 346.25,-328"/>
<text text-anchor="middle" x="282.75" y="-314.5" font-family="Helvetica,sans-Serif" font-size="10.00">fcmaes.mode.MODE.ask</text>
</a>
</g>
</g>
<!-- Node1&#45;&gt;Node9 -->
<g id="edge72_Node000001_Node000009" class="edge">
<title>Node1&#45;&gt;Node9</title>
<g id="a_edge72_Node000001_Node000009"><a xlink:title=" ">
<path fill="none" stroke="#63b8ff" d="M169.3,-307.11C182.06,-308.35 195.15,-309.62 207.69,-310.83"/>
<polygon fill="#63b8ff" stroke="#63b8ff" points="207.22,-314.3 217.51,-311.78 207.89,-307.33 207.22,-314.3"/>
</a>
</g>
</g>
<!-- Node11 -->
<g id="Node000011" class="node">
<title>Node11</title>
<g id="a_Node000011"><a xlink:href="$classfcmaes_1_1cmaes_1_1_cmaes.html#a398738e6fcf7fe101cce3257fb0d579d" xlink:title="Processes the input function values and updates the internal state of the CMA&#45;ES algorithm.">
<polygon fill="white" stroke="#666666" points="348.12,-290 217.38,-290 217.38,-270 348.12,-270 348.12,-290"/>
<text text-anchor="middle" x="282.75" y="-276.5" font-family="Helvetica,sans-Serif" font-size="10.00">fcmaes.cmaes.Cmaes.tell</text>
</a>
</g>
</g>
<!-- Node1&#45;&gt;Node11 -->
<g id="edge75_Node000001_Node000011" class="edge">
<title>Node1&#45;&gt;Node11</title>
<g id="a_edge75_Node000001_Node000011"><a xlink:title=" ">
<path fill="none" stroke="#63b8ff" d="M169.3,-290.89C181.38,-289.72 193.75,-288.52 205.67,-287.37"/>
<polygon fill="#63b8ff" stroke="#63b8ff" points="205.81,-290.87 215.42,-286.42 205.13,-283.9 205.81,-290.87"/>
</a>
</g>
</g>
<!-- Node12 -->
<g id="Node000012" class="node">
<title>Node12</title>
<g id="a_Node000012"><a xlink:href="$classfcmaes_1_1cmaescpp_1_1_a_c_m_a___c.html#a4677822852841d0e52baa48fa91cbcb8" xlink:title="Provides functionality to handle processed arrays and manage operations using the given inputs.">
<polygon fill="white" stroke="#666666" points="347,-252 218.5,-252 218.5,-220 347,-220 347,-252"/>
<text text-anchor="start" x="226.5" y="-238.5" font-family="Helvetica,sans-Serif" font-size="10.00">fcmaes.cmaescpp.ACMA</text>
<text text-anchor="middle" x="282.75" y="-226.5" font-family="Helvetica,sans-Serif" font-size="10.00">_C.tell</text>
</a>
</g>
</g>
<!-- Node1&#45;&gt;Node12 -->
<g id="edge76_Node000001_Node000012" class="edge">
<title>Node1&#45;&gt;Node12</title>
<g id="a_edge76_Node000001_Node000012"><a xlink:title=" ">
<path fill="none" stroke="#63b8ff" d="M117.91,-288.6C145.51,-279.74 185.96,-266.75 219.76,-255.9"/>
<polygon fill="#63b8ff" stroke="#63b8ff" points="220.58,-259.31 229.03,-252.92 218.44,-252.65 220.58,-259.31"/>
</a>
</g>
</g>
<!-- Node14 -->
<g id="Node000014" class="node">
<title>Node14</title>
<g id="a_Node000014"><a xlink:href="$classfcmaes_1_1crfmnescpp_1_1_c_r_f_m_n_e_s___c.html#a30327c6b3f1ecc4add777f4a74e83533" xlink:title="Provides functionality to send an array of numerical values to a specific C&#45;based function,...">
<polygon fill="white" stroke="#666666" points="360.5,-202 205,-202 205,-170 360.5,-170 360.5,-202"/>
<text text-anchor="start" x="213" y="-188.5" font-family="Helvetica,sans-Serif" font-size="10.00">fcmaes.crfmnescpp.CRFMNES</text>
<text text-anchor="middle" x="282.75" y="-176.5" font-family="Helvetica,sans-Serif" font-size="10.00">_C.tell</text>
</a>
</g>
</g>
<!-- Node1&#45;&gt;Node14 -->
<g id="edge78_Node000001_Node000014" class="edge">
<title>Node1&#45;&gt;Node14</title>
<g id="a_edge78_Node000001_Node000014"><a xlink:title=" ">
<path fill="none" stroke="#63b8ff" d="M96.87,-288.65C117.2,-270.62 161.69,-233.26 205,-211 207.86,-209.53 210.83,-208.12 213.86,-206.77"/>
<polygon fill="#63b8ff" stroke="#63b8ff" points="215.03,-210.08 222.94,-203.02 212.36,-203.61 215.03,-210.08"/>
</a>
</g>
</g>
<!-- Node15 -->
<g id="Node000015" class="node">
<title>Node15</title>
<g id="a_Node000015"><a xlink:href="$classfcmaes_1_1de_1_1_d_e.html#aa9de9d67ac999658a523d2ad8976954b" xlink:title="Tells the algorithm about the function evaluations (objective values) for the proposed solutions and ...">
<polygon fill="white" stroke="#666666" points="330.12,-152 235.38,-152 235.38,-132 330.12,-132 330.12,-152"/>
<text text-anchor="middle" x="282.75" y="-138.5" font-family="Helvetica,sans-Serif" font-size="10.00">fcmaes.de.DE.tell</text>
</a>
</g>
</g>
<!-- Node1&#45;&gt;Node15 -->
<g id="edge79_Node000001_Node000015" class="edge">
<title>Node1&#45;&gt;Node15</title>
<g id="a_edge79_Node000001_Node000015"><a xlink:title=" ">
<path fill="none" stroke="#63b8ff" d="M91.24,-288.79C106.3,-263.02 149.61,-194.95 205,-161 210.99,-157.33 217.65,-154.36 224.48,-151.97"/>
<polygon fill="#63b8ff" stroke="#63b8ff" points="225.29,-155.39 233.83,-149.11 223.24,-148.69 225.29,-155.39"/>
</a>
</g>
</g>
<!-- Node24 -->
<g id="Node000024" class="node">
<title>Node24</title>
<g id="a_Node000024"><a xlink:href="$classfcmaes_1_1decpp_1_1_d_e___c.html#ad53cc4b5553a819096b47115e1f49b42" xlink:title="Updates the object with input data and performs a specific operation using the provided numerical arr...">
<polygon fill="white" stroke="#666666" points="344.38,-114 221.12,-114 221.12,-94 344.38,-94 344.38,-114"/>
<text text-anchor="middle" x="282.75" y="-100.5" font-family="Helvetica,sans-Serif" font-size="10.00">fcmaes.decpp.DE_C.tell</text>
</a>
</g>
</g>
<!-- Node1&#45;&gt;Node24 -->
<g id="edge88_Node000001_Node000024" class="edge">
<title>Node1&#45;&gt;Node24</title>
<g id="a_edge88_Node000001_Node000024"><a xlink:title=" ">
<path fill="none" stroke="#63b8ff" d="M89.35,-288.73C101.34,-258.22 141.06,-167.55 205,-123 206.94,-121.65 208.96,-120.4 211.05,-119.23"/>
<polygon fill="#63b8ff" stroke="#63b8ff" points="212.32,-122.5 219.85,-115.05 209.32,-116.18 212.32,-122.5"/>
</a>
</g>
</g>
<!-- Node25 -->
<g id="Node000025" class="node">
<title>Node25</title>
<g id="a_Node000025"><a xlink:href="$classfcmaes_1_1mode_1_1_m_o_d_e.html#a8b928c29cf646933a1821566ec18d73a" xlink:title="Updates the internal population data with the given ys values, and optionally, with the corresponding...">
<polygon fill="white" stroke="#666666" points="344.75,-70 220.75,-70 220.75,-50 344.75,-50 344.75,-70"/>
<text text-anchor="middle" x="282.75" y="-56.5" font-family="Helvetica,sans-Serif" font-size="10.00">fcmaes.mode.MODE.tell</text>
</a>
</g>
</g>
<!-- Node1&#45;&gt;Node25 -->
<g id="edge89_Node000001_Node000025" class="edge">
<title>Node1&#45;&gt;Node25</title>
<g id="a_edge89_Node000001_Node000025"><a xlink:title=" ">
<path fill="none" stroke="#63b8ff" d="M88.28,-288.76C98.08,-254.56 134.34,-143.11 205,-85 209.8,-81.05 215.25,-77.72 220.97,-74.91"/>
<polygon fill="#63b8ff" stroke="#63b8ff" points="222.28,-78.16 230.09,-70.99 219.52,-71.72 222.28,-78.16"/>
</a>
</g>
</g>
<!-- Node3 -->
<g id="Node000003" class="node">
<title>Node3</title>
<g id="a_Node000003"><a xlink:href="$classfcmaes_1_1cmaes_1_1_cmaes.html#aff1c6aff205dfd66b677b1237f3566e7" xlink:title="Generates a new population of candidate solutions for optimization.">
<polygon fill="white" stroke="#666666" points="552.75,-542 396.5,-542 396.5,-522 552.75,-522 552.75,-542"/>
<text text-anchor="middle" x="474.62" y="-528.5" font-family="Helvetica,sans-Serif" font-size="10.00">fcmaes.cmaes.Cmaes.newArgs</text>
</a>
</g>
</g>
<!-- Node2&#45;&gt;Node3 -->
<g id="edge66_Node000002_Node000003" class="edge">
<title>Node2&#45;&gt;Node3</title>
<g id="a_edge66_Node000002_Node000003"><a xlink:title=" ">
<path fill="none" stroke="#63b8ff" d="M349.89,-532C361.25,-532 373.21,-532 385.04,-532"/>
<polygon fill="#63b8ff" stroke="#63b8ff" points="384.8,-535.5 394.8,-532 384.8,-528.5 384.8,-535.5"/>
</a>
</g>
</g>
<!-- Node7 -->
<g id="Node000007" class="node">
<title>Node7</title>
<g id="a_Node000007"><a xlink:href="$classfcmaes_1_1de_1_1_d_e.html#af65d189c855a19bc82ea60b185482757" xlink:title="Determines the next vector in an evolutionary computation process.">
<polygon fill="white" stroke="#666666" points="532.88,-385 416.38,-385 416.38,-365 532.88,-365 532.88,-385"/>
<text text-anchor="middle" x="474.62" y="-371.5" font-family="Helvetica,sans-Serif" font-size="10.00">fcmaes.de.DE._next_x</text>
</a>
</g>
</g>
<!-- Node6&#45;&gt;Node7 -->
<g id="edge70_Node000006_Node000007" class="edge">
<title>Node6&#45;&gt;Node7</title>
<g id="a_edge70_Node000006_Node000007"><a xlink:title=" ">
<path fill="none" stroke="#63b8ff" d="M331.66,-389.21C353.76,-386.99 380.41,-384.33 404.62,-381.91"/>
<polygon fill="#63b8ff" stroke="#63b8ff" points="404.8,-385.4 414.4,-380.93 404.1,-378.44 404.8,-385.4"/>
</a>
</g>
</g>
<!-- Node9&#45;&gt;Node7 -->
<g id="edge73_Node000009_Node000007" class="edge">
<title>Node9&#45;&gt;Node7</title>
<g id="a_edge73_Node000009_Node000007"><a xlink:title=" ">
<path fill="none" stroke="#63b8ff" d="M328.56,-328.44C339.08,-331.07 350.22,-334.01 360.5,-337 385.06,-344.15 412.25,-353.25 433.81,-360.74"/>
<polygon fill="#63b8ff" stroke="#63b8ff" points="432.51,-364 443.1,-364 434.82,-357.39 432.51,-364"/>
</a>
</g>
</g>
<!-- Node10 -->
<g id="Node000010" class="node">
<title>Node10</title>
<g id="a_Node000010"><a xlink:href="$classfcmaes_1_1mode_1_1_m_o_d_e.html#a4e75c17eaa625b8be5fa0ccb0d64bd05" xlink:title="Determines the next candidate solution vector based on the current population and the DE (Differentia...">
<polygon fill="white" stroke="#666666" points="547.5,-328 401.75,-328 401.75,-308 547.5,-308 547.5,-328"/>
<text text-anchor="middle" x="474.62" y="-314.5" font-family="Helvetica,sans-Serif" font-size="10.00">fcmaes.mode.MODE._next_x</text>
</a>
</g>
</g>
<!-- Node9&#45;&gt;Node10 -->
<g id="edge74_Node000009_Node000010" class="edge">
<title>Node9&#45;&gt;Node10</title>
<g id="a_edge74_Node000009_Node000010"><a xlink:title=" ">
<path fill="none" stroke="#63b8ff" d="M346.71,-318C360.51,-318 375.33,-318 389.8,-318"/>
<polygon fill="#63b8ff" stroke="#63b8ff" points="389.79,-321.5 399.79,-318 389.79,-314.5 389.79,-321.5"/>
</a>
</g>
</g>
<!-- Node13 -->
<g id="Node000013" class="node">
<title>Node13</title>
<g id="a_Node000013"><a xlink:href="$classfcmaes_1_1cmaescpp_1_1_a_c_m_a___c.html#a344851d94557ce52f99da907ee61590d" xlink:title="Passes flattened numpy arrays and interacts with an external C function using ctypes.">
<polygon fill="white" stroke="#666666" points="538.88,-252 410.38,-252 410.38,-220 538.88,-220 538.88,-252"/>
<text text-anchor="start" x="418.38" y="-238.5" font-family="Helvetica,sans-Serif" font-size="10.00">fcmaes.cmaescpp.ACMA</text>
<text text-anchor="middle" x="474.62" y="-226.5" font-family="Helvetica,sans-Serif" font-size="10.00">_C.tell_x_</text>
</a>
</g>
</g>
<!-- Node12&#45;&gt;Node13 -->
<g id="edge77_Node000012_Node000013" class="edge">
<title>Node12&#45;&gt;Node13</title>
<g id="a_edge77_Node000012_Node000013"><a xlink:title=" ">
<path fill="none" stroke="#63b8ff" d="M347.24,-236C363.87,-236 381.94,-236 399.09,-236"/>
<polygon fill="#63b8ff" stroke="#63b8ff" points="398.68,-239.5 408.68,-236 398.68,-232.5 398.68,-239.5"/>
</a>
</g>
</g>
<!-- Node16 -->
<g id="Node000016" class="node">
<title>Node16</title>
<g id="a_Node000016"><a xlink:href="$classfcmaes_1_1cmaes_1_1_cmaes.html#ac7cbecf8b29fb1048bd4cc7ec900692c" xlink:title="Processes the given fitness value and solution vector, performs updates to internal data structures,...">
<polygon fill="white" stroke="#666666" points="550.5,-197 398.75,-197 398.75,-177 550.5,-177 550.5,-197"/>
<text text-anchor="middle" x="474.62" y="-183.5" font-family="Helvetica,sans-Serif" font-size="10.00">fcmaes.cmaes.Cmaes.tell_one</text>
</a>
</g>
</g>
<!-- Node15&#45;&gt;Node16 -->
<g id="edge80_Node000015_Node000016" class="edge">
<title>Node15&#45;&gt;Node16</title>
<g id="a_edge80_Node000015_Node000016"><a xlink:title=" ">
<path fill="none" stroke="#63b8ff" d="M327.79,-152.44C354.77,-158.83 389.54,-167.07 418.37,-173.9"/>
<polygon fill="#63b8ff" stroke="#63b8ff" points="417.49,-177.29 428.02,-176.19 419.1,-170.48 417.49,-177.29"/>
</a>
</g>
</g>
<!-- Node21 -->
<g id="Node000021" class="node">
<title>Node21</title>
<g id="a_Node000021"><a xlink:href="$classfcmaes_1_1de_1_1_d_e.html#a882c7a58bf3f14c342d2a0e0700e31ef" xlink:title="Process a single individual&#39;s evaluation update within a population&#45;based optimization algorithm.">
<polygon fill="white" stroke="#666666" points="532.5,-152 416.75,-152 416.75,-132 532.5,-132 532.5,-152"/>
<text text-anchor="middle" x="474.62" y="-138.5" font-family="Helvetica,sans-Serif" font-size="10.00">fcmaes.de.DE.tell_one</text>
</a>
</g>
</g>
<!-- Node15&#45;&gt;Node21 -->
<g id="edge85_Node000015_Node000021" class="edge">
<title>Node15&#45;&gt;Node21</title>
<g id="a_edge85_Node000015_Node000021"><a xlink:title=" ">
<path fill="none" stroke="#63b8ff" d="M330.2,-142C352.76,-142 380.32,-142 405.23,-142"/>
<polygon fill="#63b8ff" stroke="#63b8ff" points="404.95,-145.5 414.95,-142 404.95,-138.5 404.95,-145.5"/>
</a>
</g>
</g>
<!-- Node17 -->
<g id="Node000017" class="node">
<title>Node17</title>
<g id="a_Node000017"><a xlink:href="$classfcmaes_1_1cmaes_1_1_cmaes.html#a7dada2c399890feafb59c01d1f424ee5" xlink:title="Updates the evolutionary process using the Covariance Matrix Adaptation (CMA) strategy.">
<polygon fill="white" stroke="#666666" points="758.5,-200 588.75,-200 588.75,-180 758.5,-180 758.5,-200"/>
<text text-anchor="middle" x="673.62" y="-186.5" font-family="Helvetica,sans-Serif" font-size="10.00">fcmaes.cmaes.Cmaes.updateCMA</text>
</a>
</g>
</g>
<!-- Node16&#45;&gt;Node17 -->
<g id="edge81_Node000016_Node000017" class="edge">
<title>Node16&#45;&gt;Node17</title>
<g id="a_edge81_Node000016_Node000017"><a xlink:title=" ">
<path fill="none" stroke="#63b8ff" d="M550.95,-188.15C559.48,-188.28 568.26,-188.41 577.01,-188.54"/>
<polygon fill="#63b8ff" stroke="#63b8ff" points="576.91,-192.04 586.96,-188.7 577.01,-185.04 576.91,-192.04"/>
</a>
</g>
</g>
<!-- Node18 -->
<g id="Node000018" class="node">
<title>Node18</title>
<g id="a_Node000018"><a xlink:href="$classfcmaes_1_1cmaes_1_1_cmaes.html#ae26e42639fa8cb28b64c1fe1bcd7109c" xlink:title="Updates the internal state of the covariance matrix and its derived attributes, such as eigenvalues,...">
<polygon fill="white" stroke="#666666" points="956,-287 794.5,-287 794.5,-267 956,-267 956,-287"/>
<text text-anchor="middle" x="875.25" y="-273.5" font-family="Helvetica,sans-Serif" font-size="10.00">fcmaes.cmaes.Cmaes.updateBD</text>
</a>
</g>
</g>
<!-- Node17&#45;&gt;Node18 -->
<g id="edge82_Node000017_Node000018" class="edge">
<title>Node17&#45;&gt;Node18</title>
<g id="a_edge82_Node000017_Node000018"><a xlink:title=" ">
<path fill="none" stroke="#63b8ff" d="M689.82,-200.5C711.92,-215.32 754.65,-242.32 794.5,-258 799.53,-259.98 804.83,-261.79 810.2,-263.44"/>
<polygon fill="#63b8ff" stroke="#63b8ff" points="809.23,-266.8 819.81,-266.18 811.15,-260.07 809.23,-266.8"/>
</a>
</g>
</g>
<!-- Node19 -->
<g id="Node000019" class="node">
<title>Node19</title>
<g id="a_Node000019"><a xlink:href="$classfcmaes_1_1cmaes_1_1_cmaes.html#afd8b8665d87f14c53cd60da16c932336" xlink:title="Updates the covariance matrix and returns the negative covariance scaling factor.">
<polygon fill="white" stroke="#666666" points="948.88,-249 801.62,-249 801.62,-217 948.88,-217 948.88,-249"/>
<text text-anchor="start" x="809.62" y="-235.5" font-family="Helvetica,sans-Serif" font-size="10.00">fcmaes.cmaes.Cmaes.update</text>
<text text-anchor="middle" x="875.25" y="-223.5" font-family="Helvetica,sans-Serif" font-size="10.00">Covariance</text>
</a>
</g>
</g>
<!-- Node17&#45;&gt;Node19 -->
<g id="edge83_Node000017_Node000019" class="edge">
<title>Node17&#45;&gt;Node19</title>
<g id="a_edge83_Node000017_Node000019"><a xlink:title=" ">
<path fill="none" stroke="#63b8ff" d="M723.2,-200.46C743.34,-204.8 767.29,-209.96 790.11,-214.88"/>
<polygon fill="#63b8ff" stroke="#63b8ff" points="789.22,-218.26 799.73,-216.95 790.69,-211.42 789.22,-218.26"/>
</a>
</g>
</g>
<!-- Node20 -->
<g id="Node000020" class="node">
<title>Node20</title>
<g id="a_Node000020"><a xlink:href="$classfcmaes_1_1cmaes_1_1_cmaes.html#ae3fd3fbe79efd9509bb8462382d63bdd" xlink:title="Updates the evolution paths required for generating new samples in the covariance matrix adaptation e...">
<polygon fill="white" stroke="#666666" points="948.88,-199 801.62,-199 801.62,-167 948.88,-167 948.88,-199"/>
<text text-anchor="start" x="809.62" y="-185.5" font-family="Helvetica,sans-Serif" font-size="10.00">fcmaes.cmaes.Cmaes.update</text>
<text text-anchor="middle" x="875.25" y="-173.5" font-family="Helvetica,sans-Serif" font-size="10.00">EvolutionPaths</text>
</a>
</g>
</g>
<!-- Node17&#45;&gt;Node20 -->
<g id="edge84_Node000017_Node000020" class="edge">
<title>Node17&#45;&gt;Node20</title>
<g id="a_edge84_Node000017_Node000020"><a xlink:title=" ">
<path fill="none" stroke="#63b8ff" d="M758.99,-187.04C769.2,-186.68 779.63,-186.32 789.83,-185.96"/>
<polygon fill="#63b8ff" stroke="#63b8ff" points="789.85,-189.46 799.73,-185.61 789.61,-182.47 789.85,-189.46"/>
</a>
</g>
</g>
<!-- Node22 -->
<g id="Node000022" class="node">
<title>Node22</title>
<g id="a_Node000022"><a xlink:href="$classfcmaes_1_1de_1_1_d_e.html#a75e2c22d49dde6bd8f31572ef39152d7" xlink:title="Compute the next feasible point to improve optimization.">
<polygon fill="white" stroke="#666666" points="726.62,-158 620.62,-158 620.62,-126 726.62,-126 726.62,-158"/>
<text text-anchor="start" x="628.62" y="-144.5" font-family="Helvetica,sans-Serif" font-size="10.00">fcmaes.de.DE._next</text>
<text text-anchor="middle" x="673.62" y="-132.5" font-family="Helvetica,sans-Serif" font-size="10.00">_improve</text>
</a>
</g>
</g>
<!-- Node21&#45;&gt;Node22 -->
<g id="edge86_Node000021_Node000022" class="edge">
<title>Node21&#45;&gt;Node22</title>
<g id="a_edge86_Node000021_Node000022"><a xlink:title=" ">
<path fill="none" stroke="#63b8ff" d="M532.87,-142C556.7,-142 584.47,-142 608.94,-142"/>
<polygon fill="#63b8ff" stroke="#63b8ff" points="608.78,-145.5 618.78,-142 608.78,-138.5 608.78,-145.5"/>
</a>
</g>
</g>
<!-- Node23 -->
<g id="Node000023" class="node">
<title>Node23</title>
<g id="a_Node000023"><a xlink:href="$classfcmaes_1_1de_1_1_d_e.html#ac3453c9ebcc0897aedb6a53a8b93ffcd" xlink:title="Checks the feasibility of a value with respect to specified bounds and adjusts it if necessary by cli...">
<polygon fill="white" stroke="#666666" points="935.75,-149 814.75,-149 814.75,-129 935.75,-129 935.75,-149"/>
<text text-anchor="middle" x="875.25" y="-135.5" font-family="Helvetica,sans-Serif" font-size="10.00">fcmaes.de.DE._feasible</text>
</a>
</g>
</g>
<!-- Node22&#45;&gt;Node23 -->
<g id="edge87_Node000022_Node000023" class="edge">
<title>Node22&#45;&gt;Node23</title>
<g id="a_edge87_Node000022_Node000023"><a xlink:title=" ">
<path fill="none" stroke="#63b8ff" d="M727.07,-141.21C750.31,-140.86 778.02,-140.45 803.08,-140.07"/>
<polygon fill="#63b8ff" stroke="#63b8ff" points="802.93,-143.57 812.88,-139.92 802.82,-136.57 802.93,-143.57"/>
</a>
</g>
</g>
<!-- Node26 -->
<g id="Node000026" class="node">
<title>Node26</title>
<g id="a_Node000026"><a xlink:href="$classfcmaes_1_1mode_1_1_m_o_d_e.html#a29791dbcb2e070361529475630de2052" xlink:title="Updates the population by performing non&#45;dominated sorting, crowding distance sorting,...">
<polygon fill="white" stroke="#666666" points="538.12,-73 411.12,-73 411.12,-41 538.12,-41 538.12,-73"/>
<text text-anchor="start" x="419.12" y="-59.5" font-family="Helvetica,sans-Serif" font-size="10.00">fcmaes.mode.MODE.pop</text>
<text text-anchor="middle" x="474.62" y="-47.5" font-family="Helvetica,sans-Serif" font-size="10.00">_update</text>
</a>
</g>
</g>
<!-- Node25&#45;&gt;Node26 -->
<g id="edge90_Node000025_Node000026" class="edge">
<title>Node25&#45;&gt;Node26</title>
<g id="a_edge90_Node000025_Node000026"><a xlink:title=" ">
<path fill="none" stroke="#63b8ff" d="M345.13,-59.03C362.46,-58.76 381.5,-58.46 399.48,-58.17"/>
<polygon fill="#63b8ff" stroke="#63b8ff" points="399.37,-61.67 409.31,-58.02 399.26,-54.67 399.37,-61.67"/>
</a>
</g>
</g>
<!-- Node27 -->
<g id="Node000027" class="node">
<title>Node27</title>
<g id="a_Node000027"><a xlink:href="$namespacefcmaes_1_1mode.html#a0f27ab476c153a96dba3568003ab075a" xlink:title="Calculates the crowding distance for the first objective in a multi&#45;objective optimization problem.">
<polygon fill="white" stroke="#666666" points="736.38,-108 610.88,-108 610.88,-88 736.38,-88 736.38,-108"/>
<text text-anchor="middle" x="673.62" y="-94.5" font-family="Helvetica,sans-Serif" font-size="10.00">fcmaes.mode.crowd_dist</text>
</a>
</g>
</g>
<!-- Node26&#45;&gt;Node27 -->
<g id="edge91_Node000026_Node000027" class="edge">
<title>Node26&#45;&gt;Node27</title>
<g id="a_edge91_Node000026_Node000027"><a xlink:title=" ">
<path fill="none" stroke="#63b8ff" d="M538.5,-70.09C561.82,-74.94 588.22,-80.43 611.39,-85.26"/>
<polygon fill="#63b8ff" stroke="#63b8ff" points="610.5,-88.64 621,-87.26 611.92,-81.79 610.5,-88.64"/>
</a>
</g>
</g>
<!-- Node28 -->
<g id="Node000028" class="node">
<title>Node28</title>
<g id="a_Node000028"><a xlink:href="$namespacefcmaes_1_1mode.html#aee5b0cd4fba6d7edff0afe48a8bc636a" xlink:title="Determines Pareto domination levels for a set of solutions considering objectives and constraint viol...">
<polygon fill="white" stroke="#666666" points="726.25,-70 621,-70 621,-38 726.25,-38 726.25,-70"/>
<text text-anchor="start" x="629" y="-56.5" font-family="Helvetica,sans-Serif" font-size="10.00">fcmaes.mode.pareto</text>
<text text-anchor="middle" x="673.62" y="-44.5" font-family="Helvetica,sans-Serif" font-size="10.00">_domination</text>
</a>
</g>
</g>
<!-- Node26&#45;&gt;Node28 -->
<g id="edge92_Node000026_Node000028" class="edge">
<title>Node26&#45;&gt;Node28</title>
<g id="a_edge92_Node000026_Node000028"><a xlink:title=" ">
<path fill="none" stroke="#63b8ff" d="M538.5,-56.04C561.14,-55.7 586.67,-55.31 609.35,-54.96"/>
<polygon fill="#63b8ff" stroke="#63b8ff" points="609.11,-58.47 619.05,-54.82 609,-51.47 609.11,-58.47"/>
</a>
</g>
</g>
<!-- Node32 -->
<g id="Node000032" class="node">
<title>Node32</title>
<g id="a_Node000032"><a xlink:href="$namespacefcmaes_1_1mode.html#afba15234474d356adb0ed83aa94f73a6" xlink:title="Applies genetic variation operations, including simulated binary crossover (SBX) and polynomial mutat...">
<polygon fill="white" stroke="#666666" points="731.12,-20 616.12,-20 616.12,0 731.12,0 731.12,-20"/>
<text text-anchor="middle" x="673.62" y="-6.5" font-family="Helvetica,sans-Serif" font-size="10.00">fcmaes.mode.variation</text>
</a>
</g>
</g>
<!-- Node26&#45;&gt;Node32 -->
<g id="edge96_Node000026_Node000032" class="edge">
<title>Node26&#45;&gt;Node32</title>
<g id="a_edge96_Node000026_Node000032"><a xlink:title=" ">
<path fill="none" stroke="#63b8ff" d="M538.4,-41.23C554.77,-37.18 572.41,-32.87 588.75,-29 597.03,-27.04 605.79,-25.01 614.39,-23.03"/>
<polygon fill="#63b8ff" stroke="#63b8ff" points="615.12,-26.46 624.09,-20.82 613.56,-19.63 615.12,-26.46"/>
</a>
</g>
</g>
<!-- Node29 -->
<g id="Node000029" class="node">
<title>Node29</title>
<g id="a_Node000029"><a xlink:href="$namespacefcmaes_1_1mode.html#a64da91b9fe11c4db2c528851fe65f4e4" xlink:title="Computes the rank of objects based on their sum of ranks across all columns.">
<polygon fill="white" stroke="#666666" points="932.75,-108 817.75,-108 817.75,-88 932.75,-88 932.75,-108"/>
<text text-anchor="middle" x="875.25" y="-94.5" font-family="Helvetica,sans-Serif" font-size="10.00">fcmaes.mode.objranks</text>
</a>
</g>
</g>
<!-- Node28&#45;&gt;Node29 -->
<g id="edge93_Node000028_Node000029" class="edge">
<title>Node28&#45;&gt;Node29</title>
<g id="a_edge93_Node000028_Node000029"><a xlink:title=" ">
<path fill="none" stroke="#63b8ff" d="M726.55,-65.45C753.89,-71.47 787.5,-78.88 815.75,-85.1"/>
<polygon fill="#63b8ff" stroke="#63b8ff" points="814.69,-88.46 825.21,-87.19 816.19,-81.62 814.69,-88.46"/>
</a>
</g>
</g>
<!-- Node30 -->
<g id="Node000030" class="node">
<title>Node30</title>
<g id="a_Node000030"><a xlink:href="$namespacefcmaes_1_1mode.html#a2570992dd7d42219e4b1381adff7a710" xlink:title="Determines the Pareto levels of a given set of points.">
<polygon fill="white" stroke="#666666" points="927.88,-70 822.62,-70 822.62,-38 927.88,-38 927.88,-70"/>
<text text-anchor="start" x="830.62" y="-56.5" font-family="Helvetica,sans-Serif" font-size="10.00">fcmaes.mode.pareto</text>
<text text-anchor="middle" x="875.25" y="-44.5" font-family="Helvetica,sans-Serif" font-size="10.00">_levels</text>
</a>
</g>
</g>
<!-- Node28&#45;&gt;Node30 -->
<g id="edge94_Node000028_Node000030" class="edge">
<title>Node28&#45;&gt;Node30</title>
<g id="a_edge94_Node000028_Node000030"><a xlink:title=" ">
<path fill="none" stroke="#63b8ff" d="M726.55,-54C752.33,-54 783.69,-54 810.87,-54"/>
<polygon fill="#63b8ff" stroke="#63b8ff" points="810.72,-57.5 820.72,-54 810.72,-50.5 810.72,-57.5"/>
</a>
</g>
</g>
<!-- Node31 -->
<g id="Node000031" class="node">
<title>Node31</title>
<g id="a_Node000031"><a xlink:href="$namespacefcmaes_1_1mode.html#af072da864e0f91afc47942de9a8901a5" xlink:title="Computes the ranks of constraint values, adjusted by their feasibility and scaled by the fraction of ...">
<polygon fill="white" stroke="#666666" points="926.38,-20 824.12,-20 824.12,0 926.38,0 926.38,-20"/>
<text text-anchor="middle" x="875.25" y="-6.5" font-family="Helvetica,sans-Serif" font-size="10.00">fcmaes.mode.ranks</text>
</a>
</g>
</g>
<!-- Node28&#45;&gt;Node31 -->
<g id="edge95_Node000028_Node000031" class="edge">
<title>Node28&#45;&gt;Node31</title>
<g id="a_edge95_Node000028_Node000031"><a xlink:title=" ">
<path fill="none" stroke="#63b8ff" d="M726.55,-42.55C753.89,-36.53 787.5,-29.12 815.75,-22.9"/>
<polygon fill="#63b8ff" stroke="#63b8ff" points="816.19,-26.38 825.21,-20.81 814.69,-19.54 816.19,-26.38"/>
</a>
</g>
</g>
</g>
</svg>
