<?xml version="1.0" encoding="UTF-8" standalone="no"?>
<!DOCTYPE svg PUBLIC "-//W3C//DTD SVG 1.1//EN"
 "http://www.w3.org/Graphics/SVG/1.1/DTD/svg11.dtd">
<!-- Generated by graphviz version 12.2.1 (20241206.2353)
 -->
<!-- Title: CBiteOpt::generateSol8 Pages: 1 -->
<svg width="550pt" height="216pt"
 viewBox="0.00 0.00 549.75 216.00" xmlns="http://www.w3.org/2000/svg" xmlns:xlink="http://www.w3.org/1999/xlink">
<g id="graph0" class="graph" transform="scale(1 1) rotate(0) translate(4 212)">
<title>CBiteOpt::generateSol8</title>
<!-- Node1 -->
<g id="Node000001" class="node">
<title>Node1</title>
<g id="a_Node000001"><a xlink:title=" ">
<polygon fill="#999999" stroke="#666666" points="119.5,-114 0,-114 0,-94 119.5,-94 119.5,-114"/>
<text text-anchor="middle" x="59.75" y="-100.5" font-family="Helvetica,sans-Serif" font-size="10.00">CBiteOpt::generateSol8</text>
</a>
</g>
</g>
<!-- Node2 -->
<g id="Node000002" class="node">
<title>Node2</title>
<g id="a_Node000002"><a xlink:href="$class_c_bite_pop.html#a24130fea35014433f142e3b9ed0f8929" xlink:title=" ">
<polygon fill="white" stroke="#666666" points="267.88,-208 162.62,-208 162.62,-176 267.88,-176 267.88,-208"/>
<text text-anchor="start" x="170.62" y="-194.5" font-family="Helvetica,sans-Serif" font-size="10.00">CBitePop&lt; int64_t &gt;</text>
<text text-anchor="middle" x="215.25" y="-182.5" font-family="Helvetica,sans-Serif" font-size="10.00">::copyParams</text>
</a>
</g>
</g>
<!-- Node1&#45;&gt;Node2 -->
<g id="edge19_Node000001_Node000002" class="edge">
<title>Node1&#45;&gt;Node2</title>
<g id="a_edge19_Node000001_Node000002"><a xlink:title=" ">
<path fill="none" stroke="#63b8ff" d="M74.69,-114.46C92.72,-127.71 125.42,-150.78 155.5,-167 157.85,-168.27 160.27,-169.51 162.74,-170.74"/>
<polygon fill="#63b8ff" stroke="#63b8ff" points="161.12,-173.84 171.65,-174.96 164.11,-167.51 161.12,-173.84"/>
</a>
</g>
</g>
<!-- Node3 -->
<g id="Node000003" class="node">
<title>Node3</title>
<g id="a_Node000003"><a xlink:href="$class_c_bite_rnd.html#a3f6c22ff1f6f19de24f7c837530f31c4" xlink:title=" ">
<polygon fill="white" stroke="#666666" points="275,-158 155.5,-158 155.5,-138 275,-138 275,-158"/>
<text text-anchor="middle" x="215.25" y="-144.5" font-family="Helvetica,sans-Serif" font-size="10.00">CBiteRnd::getGaussian</text>
</a>
</g>
</g>
<!-- Node1&#45;&gt;Node3 -->
<g id="edge20_Node000001_Node000003" class="edge">
<title>Node1&#45;&gt;Node3</title>
<g id="a_edge20_Node000001_Node000003"><a xlink:title=" ">
<path fill="none" stroke="#63b8ff" d="M97.13,-114.43C117.98,-120.41 144.4,-127.98 166.87,-134.42"/>
<polygon fill="#63b8ff" stroke="#63b8ff" points="165.84,-137.76 176.41,-137.15 167.76,-131.03 165.84,-137.76"/>
</a>
</g>
</g>
<!-- Node6 -->
<g id="Node000006" class="node">
<title>Node6</title>
<g id="a_Node000006"><a xlink:href="$class_c_bite_pop.html#aaa8e3f180accfedf21218cbed8ffbb79" xlink:title=" ">
<polygon fill="white" stroke="#666666" points="267.88,-120 162.62,-120 162.62,-88 267.88,-88 267.88,-120"/>
<text text-anchor="start" x="170.62" y="-106.5" font-family="Helvetica,sans-Serif" font-size="10.00">CBitePop&lt; int64_t &gt;</text>
<text text-anchor="middle" x="215.25" y="-94.5" font-family="Helvetica,sans-Serif" font-size="10.00">::getParamsOrdered</text>
</a>
</g>
</g>
<!-- Node1&#45;&gt;Node6 -->
<g id="edge23_Node000001_Node000006" class="edge">
<title>Node1&#45;&gt;Node6</title>
<g id="a_edge23_Node000001_Node000006"><a xlink:title=" ">
<path fill="none" stroke="#63b8ff" d="M119.66,-104C129.86,-104 140.5,-104 150.81,-104"/>
<polygon fill="#63b8ff" stroke="#63b8ff" points="150.76,-107.5 160.75,-104 150.75,-100.5 150.76,-107.5"/>
</a>
</g>
</g>
<!-- Node7 -->
<g id="Node000007" class="node">
<title>Node7</title>
<g id="a_Node000007"><a xlink:href="$class_c_bite_rnd.html#ab73d2c6a6e4c1f5da7441168f165529d" xlink:title=" ">
<polygon fill="white" stroke="#666666" points="267.5,-70 163,-70 163,-50 267.5,-50 267.5,-70"/>
<text text-anchor="middle" x="215.25" y="-56.5" font-family="Helvetica,sans-Serif" font-size="10.00">CBiteRnd::getSqrInt</text>
</a>
</g>
</g>
<!-- Node1&#45;&gt;Node7 -->
<g id="edge24_Node000001_Node000007" class="edge">
<title>Node1&#45;&gt;Node7</title>
<g id="a_edge24_Node000001_Node000007"><a xlink:title=" ">
<path fill="none" stroke="#63b8ff" d="M97.13,-93.57C117.98,-87.59 144.4,-80.02 166.87,-73.58"/>
<polygon fill="#63b8ff" stroke="#63b8ff" points="167.76,-76.97 176.41,-70.85 165.84,-70.24 167.76,-76.97"/>
</a>
</g>
</g>
<!-- Node9 -->
<g id="Node000009" class="node">
<title>Node9</title>
<g id="a_Node000009"><a xlink:href="$class_c_bite_opt_base.html#abf93d2e584756812ad210f86e4f84a69" xlink:title=" ">
<polygon fill="white" stroke="#666666" points="269.75,-32 160.75,-32 160.75,0 269.75,0 269.75,-32"/>
<text text-anchor="start" x="168.75" y="-18.5" font-family="Helvetica,sans-Serif" font-size="10.00">CBiteOptBase&lt; int64</text>
<text text-anchor="middle" x="215.25" y="-6.5" font-family="Helvetica,sans-Serif" font-size="10.00">_t &gt;::select</text>
</a>
</g>
</g>
<!-- Node1&#45;&gt;Node9 -->
<g id="edge27_Node000001_Node000009" class="edge">
<title>Node1&#45;&gt;Node9</title>
<g id="a_edge27_Node000001_Node000009"><a xlink:title=" ">
<path fill="none" stroke="#63b8ff" d="M74.69,-93.54C92.72,-80.29 125.42,-57.22 155.5,-41 157.85,-39.73 160.27,-38.49 162.74,-37.26"/>
<polygon fill="#63b8ff" stroke="#63b8ff" points="164.11,-40.49 171.65,-33.04 161.12,-34.16 164.11,-40.49"/>
</a>
</g>
</g>
<!-- Node4 -->
<g id="Node000004" class="node">
<title>Node4</title>
<g id="a_Node000004"><a xlink:href="$class_c_bite_rnd.html#afdb77334884f1a612780def0dec0a326" xlink:title=" ">
<polygon fill="white" stroke="#666666" points="396.75,-145 318.5,-145 318.5,-125 396.75,-125 396.75,-145"/>
<text text-anchor="middle" x="357.62" y="-131.5" font-family="Helvetica,sans-Serif" font-size="10.00">CBiteRnd::get</text>
</a>
</g>
</g>
<!-- Node3&#45;&gt;Node4 -->
<g id="edge21_Node000003_Node000004" class="edge">
<title>Node3&#45;&gt;Node4</title>
<g id="a_edge21_Node000003_Node000004"><a xlink:title=" ">
<path fill="none" stroke="#63b8ff" d="M275.37,-142.52C285.94,-141.55 296.84,-140.54 307.1,-139.59"/>
<polygon fill="#63b8ff" stroke="#63b8ff" points="307.21,-143.09 316.85,-138.68 306.57,-136.12 307.21,-143.09"/>
</a>
</g>
</g>
<!-- Node5 -->
<g id="Node000005" class="node">
<title>Node5</title>
<g id="a_Node000005"><a xlink:href="$class_c_bite_rnd.html#ae1167f8ecac85f268ced4bc1d2fa953b" xlink:title=" ">
<polygon fill="white" stroke="#666666" points="541.75,-114 440.25,-114 440.25,-94 541.75,-94 541.75,-114"/>
<text text-anchor="middle" x="491" y="-100.5" font-family="Helvetica,sans-Serif" font-size="10.00">CBiteRnd::advance</text>
</a>
</g>
</g>
<!-- Node4&#45;&gt;Node5 -->
<g id="edge22_Node000004_Node000005" class="edge">
<title>Node4&#45;&gt;Node5</title>
<g id="a_edge22_Node000004_Node000005"><a xlink:title=" ">
<path fill="none" stroke="#63b8ff" d="M396.98,-125.95C408.81,-123.16 422.08,-120.03 434.82,-117.02"/>
<polygon fill="#63b8ff" stroke="#63b8ff" points="435.41,-120.48 444.34,-114.77 433.81,-113.66 435.41,-120.48"/>
</a>
</g>
</g>
<!-- Node8 -->
<g id="Node000008" class="node">
<title>Node8</title>
<g id="a_Node000008"><a xlink:href="$class_c_bite_rnd.html#aabbf1ffd535ca8fe31fda768f15ccd1b" xlink:title=" ">
<polygon fill="white" stroke="#666666" points="404.25,-95 311,-95 311,-75 404.25,-75 404.25,-95"/>
<text text-anchor="middle" x="357.62" y="-81.5" font-family="Helvetica,sans-Serif" font-size="10.00">CBiteRnd::getSqr</text>
</a>
</g>
</g>
<!-- Node7&#45;&gt;Node8 -->
<g id="edge25_Node000007_Node000008" class="edge">
<title>Node7&#45;&gt;Node8</title>
<g id="a_edge25_Node000007_Node000008"><a xlink:title=" ">
<path fill="none" stroke="#63b8ff" d="M267.72,-69.17C278.07,-71.01 289,-72.96 299.52,-74.83"/>
<polygon fill="#63b8ff" stroke="#63b8ff" points="298.78,-78.25 309.24,-76.56 300.01,-71.36 298.78,-78.25"/>
</a>
</g>
</g>
<!-- Node8&#45;&gt;Node5 -->
<g id="edge26_Node000008_Node000005" class="edge">
<title>Node8&#45;&gt;Node5</title>
<g id="a_edge26_Node000008_Node000005"><a xlink:title=" ">
<path fill="none" stroke="#63b8ff" d="M404.57,-91.65C412.32,-92.77 420.47,-93.94 428.53,-95.11"/>
<polygon fill="#63b8ff" stroke="#63b8ff" points="427.93,-98.56 438.33,-96.53 428.93,-91.63 427.93,-98.56"/>
</a>
</g>
</g>
</g>
</svg>
