<?xml version="1.0" encoding="UTF-8" standalone="no"?>
<!DOCTYPE svg PUBLIC "-//W3C//DTD SVG 1.1//EN"
 "http://www.w3.org/Graphics/SVG/1.1/DTD/svg11.dtd">
<!-- Generated by graphviz version 12.2.1 (20241206.2353)
 -->
<!-- Title: fcmaes.de.DE._sample Pages: 1 -->
<svg width="211pt" height="66pt"
 viewBox="0.00 0.00 211.00 66.00" xmlns="http://www.w3.org/2000/svg" xmlns:xlink="http://www.w3.org/1999/xlink">
<g id="graph0" class="graph" transform="scale(1 1) rotate(0) translate(4 62)">
<title>fcmaes.de.DE._sample</title>
<!-- Node1 -->
<g id="Node000001" class="node">
<title>Node1</title>
<g id="a_Node000001"><a xlink:title="Generates a sample from the specified distribution.">
<polygon fill="#999999" stroke="#666666" points="118.75,-39 0,-39 0,-19 118.75,-19 118.75,-39"/>
<text text-anchor="middle" x="59.38" y="-25.5" font-family="Helvetica,sans-Serif" font-size="10.00">fcmaes.de.DE._sample</text>
</a>
</g>
</g>
<!-- Node2 -->
<g id="Node000002" class="node">
<title>Node2</title>
<g id="a_Node000002"><a xlink:href="$evaluator_8h.html#a231544ac51b3f9312c104a3b7a3c49a6" xlink:title=" ">
<polygon fill="white" stroke="#666666" points="201.5,-58 156.25,-58 156.25,-38 201.5,-38 201.5,-58"/>
<text text-anchor="middle" x="178.88" y="-44.5" font-family="Helvetica,sans-Serif" font-size="10.00">normal</text>
</a>
</g>
</g>
<!-- Node1&#45;&gt;Node2 -->
<g id="edge5_Node000001_Node000002" class="edge">
<title>Node1&#45;&gt;Node2</title>
<g id="a_edge5_Node000001_Node000002"><a xlink:title=" ">
<path fill="none" stroke="#63b8ff" d="M119.12,-38.5C127.81,-39.9 136.5,-41.31 144.43,-42.59"/>
<polygon fill="#63b8ff" stroke="#63b8ff" points="143.85,-46.04 154.28,-44.18 144.97,-39.13 143.85,-46.04"/>
</a>
</g>
</g>
<!-- Node3 -->
<g id="Node000003" class="node">
<title>Node3</title>
<g id="a_Node000003"><a xlink:href="$evaluator_8h.html#ad408c1ac0c479863b2d1291c483c5593" xlink:title=" ">
<polygon fill="white" stroke="#666666" points="203,-20 154.75,-20 154.75,0 203,0 203,-20"/>
<text text-anchor="middle" x="178.88" y="-6.5" font-family="Helvetica,sans-Serif" font-size="10.00">uniform</text>
</a>
</g>
</g>
<!-- Node1&#45;&gt;Node3 -->
<g id="edge6_Node000001_Node000003" class="edge">
<title>Node1&#45;&gt;Node3</title>
<g id="a_edge6_Node000001_Node000003"><a xlink:title=" ">
<path fill="none" stroke="#63b8ff" d="M119.12,-19.5C127.33,-18.17 135.54,-16.85 143.11,-15.62"/>
<polygon fill="#63b8ff" stroke="#63b8ff" points="143.57,-19.09 152.89,-14.04 142.45,-12.18 143.57,-19.09"/>
</a>
</g>
</g>
</g>
</svg>
