<?xml version="1.0" encoding="UTF-8" standalone="no"?>
<!DOCTYPE svg PUBLIC "-//W3C//DTD SVG 1.1//EN"
 "http://www.w3.org/Graphics/SVG/1.1/DTD/svg11.dtd">
<!-- Generated by graphviz version 12.2.1 (20241206.2353)
 -->
<!-- Title: CBitePop::CBitePop Pages: 1 -->
<svg width="548pt" height="123pt"
 viewBox="0.00 0.00 548.25 123.00" xmlns="http://www.w3.org/2000/svg" xmlns:xlink="http://www.w3.org/1999/xlink">
<g id="graph0" class="graph" transform="scale(1 1) rotate(0) translate(4 119)">
<title>CBitePop::CBitePop</title>
<!-- Node1 -->
<g id="Node000001" class="node">
<title>Node1</title>
<g id="a_Node000001"><a xlink:title=" ">
<polygon fill="#999999" stroke="#666666" points="106,-77 0,-77 0,-57 106,-57 106,-77"/>
<text text-anchor="middle" x="53" y="-63.5" font-family="Helvetica,sans-Serif" font-size="10.00">CBitePop::CBitePop</text>
</a>
</g>
</g>
<!-- Node2 -->
<g id="Node000002" class="node">
<title>Node2</title>
<g id="a_Node000002"><a xlink:href="$class_c_bite_pop.html#ad427518ed1d47fbe3c2222b3a11badb7" xlink:title=" ">
<polygon fill="white" stroke="#666666" points="375.38,-115 269.38,-115 269.38,-95 375.38,-95 375.38,-115"/>
<text text-anchor="middle" x="322.38" y="-101.5" font-family="Helvetica,sans-Serif" font-size="10.00">CBitePop::CBitePop</text>
</a>
</g>
</g>
<!-- Node1&#45;&gt;Node2 -->
<g id="edge17_Node000001_Node000002" class="edge">
<title>Node1&#45;&gt;Node2</title>
<g id="a_edge17_Node000001_Node000002"><a xlink:title=" ">
<path fill="none" stroke="#63b8ff" d="M98.14,-77.5C112.11,-80.56 127.65,-83.7 142,-86 180.2,-92.13 223.3,-96.77 257.68,-99.93"/>
<polygon fill="#63b8ff" stroke="#63b8ff" points="257.2,-103.4 267.48,-100.81 257.83,-96.43 257.2,-103.4"/>
</a>
</g>
</g>
<!-- Node3 -->
<g id="Node000003" class="node">
<title>Node3</title>
<g id="a_Node000003"><a xlink:href="$class_c_bite_pop.html#a3fc2d887ae91be62fd9fc3100268e53c" xlink:title=" ">
<polygon fill="white" stroke="#666666" points="227,-77 142,-77 142,-57 227,-57 227,-77"/>
<text text-anchor="middle" x="184.5" y="-63.5" font-family="Helvetica,sans-Serif" font-size="10.00">CBitePop::copy</text>
</a>
</g>
</g>
<!-- Node1&#45;&gt;Node3 -->
<g id="edge18_Node000001_Node000003" class="edge">
<title>Node1&#45;&gt;Node3</title>
<g id="a_edge18_Node000001_Node000003"><a xlink:title=" ">
<path fill="none" stroke="#63b8ff" d="M106.3,-67C114.22,-67 122.4,-67 130.35,-67"/>
<polygon fill="#63b8ff" stroke="#63b8ff" points="130.24,-70.5 140.24,-67 130.24,-63.5 130.24,-70.5"/>
</a>
</g>
</g>
<!-- Node5 -->
<g id="Node000005" class="node">
<title>Node5</title>
<g id="a_Node000005"><a xlink:href="$class_c_bite_pop.html#a7488531e6b12accb61f068bbe654f580" xlink:title=" ">
<polygon fill="white" stroke="#666666" points="376.12,-39 268.62,-39 268.62,-19 376.12,-19 376.12,-39"/>
<text text-anchor="middle" x="322.38" y="-25.5" font-family="Helvetica,sans-Serif" font-size="10.00">CBitePop::initBuffers</text>
</a>
</g>
</g>
<!-- Node1&#45;&gt;Node5 -->
<g id="edge24_Node000001_Node000005" class="edge">
<title>Node1&#45;&gt;Node5</title>
<g id="a_edge24_Node000001_Node000005"><a xlink:title=" ">
<path fill="none" stroke="#63b8ff" d="M98.14,-56.5C112.11,-53.44 127.65,-50.3 142,-48 179.92,-41.92 222.67,-37.3 256.93,-34.14"/>
<polygon fill="#63b8ff" stroke="#63b8ff" points="257.04,-37.65 266.69,-33.26 256.42,-30.68 257.04,-37.65"/>
</a>
</g>
</g>
<!-- Node3&#45;&gt;Node2 -->
<g id="edge19_Node000003_Node000002" class="edge">
<title>Node3&#45;&gt;Node2</title>
<g id="a_edge19_Node000003_Node000002"><a xlink:title=" ">
<path fill="none" stroke="#63b8ff" d="M222.99,-77.48C238.43,-81.8 256.53,-86.86 272.95,-91.46"/>
<polygon fill="#63b8ff" stroke="#63b8ff" points="271.98,-94.82 282.55,-94.14 273.86,-88.08 271.98,-94.82"/>
</a>
</g>
</g>
<!-- Node4 -->
<g id="Node000004" class="node">
<title>Node4</title>
<g id="a_Node000004"><a xlink:href="$class_c_bite_pop.html#a24130fea35014433f142e3b9ed0f8929" xlink:title=" ">
<polygon fill="white" stroke="#666666" points="381.75,-77 263,-77 263,-57 381.75,-57 381.75,-77"/>
<text text-anchor="middle" x="322.38" y="-63.5" font-family="Helvetica,sans-Serif" font-size="10.00">CBitePop::copyParams</text>
</a>
</g>
</g>
<!-- Node3&#45;&gt;Node4 -->
<g id="edge20_Node000003_Node000004" class="edge">
<title>Node3&#45;&gt;Node4</title>
<g id="a_edge20_Node000003_Node000004"><a xlink:title=" ">
<path fill="none" stroke="#63b8ff" d="M227.38,-67C235.1,-67 243.34,-67 251.63,-67"/>
<polygon fill="#63b8ff" stroke="#63b8ff" points="251.39,-70.5 261.39,-67 251.39,-63.5 251.39,-70.5"/>
</a>
</g>
</g>
<!-- Node3&#45;&gt;Node5 -->
<g id="edge21_Node000003_Node000005" class="edge">
<title>Node3&#45;&gt;Node5</title>
<g id="a_edge21_Node000003_Node000005"><a xlink:title=" ">
<path fill="none" stroke="#63b8ff" d="M222.99,-56.52C238.43,-52.2 256.53,-47.14 272.95,-42.54"/>
<polygon fill="#63b8ff" stroke="#63b8ff" points="273.86,-45.92 282.55,-39.86 271.98,-39.18 273.86,-45.92"/>
</a>
</g>
</g>
<!-- Node6 -->
<g id="Node000006" class="node">
<title>Node6</title>
<g id="a_Node000006"><a xlink:href="$class_c_bite_pop.html#ad4e3a3c5b7a25ad02ef0231bd3fe8388" xlink:title=" ">
<polygon fill="white" stroke="#666666" points="540.25,-58 417.75,-58 417.75,-38 540.25,-38 540.25,-58"/>
<text text-anchor="middle" x="479" y="-44.5" font-family="Helvetica,sans-Serif" font-size="10.00">CBitePop::calcLP1Coeff</text>
</a>
</g>
</g>
<!-- Node5&#45;&gt;Node6 -->
<g id="edge22_Node000005_Node000006" class="edge">
<title>Node5&#45;&gt;Node6</title>
<g id="a_edge22_Node000005_Node000006"><a xlink:title=" ">
<path fill="none" stroke="#63b8ff" d="M376.59,-35.54C386.11,-36.71 396.17,-37.95 406.11,-39.17"/>
<polygon fill="#63b8ff" stroke="#63b8ff" points="405.4,-42.61 415.75,-40.35 406.25,-35.66 405.4,-42.61"/>
</a>
</g>
</g>
<!-- Node7 -->
<g id="Node000007" class="node">
<title>Node7</title>
<g id="a_Node000007"><a xlink:href="$class_c_bite_pop.html#a47de1dedd30171e9fc9ae9475998d51d" xlink:title=" ">
<polygon fill="white" stroke="#666666" points="539.5,-20 418.5,-20 418.5,0 539.5,0 539.5,-20"/>
<text text-anchor="middle" x="479" y="-6.5" font-family="Helvetica,sans-Serif" font-size="10.00">CBitePop::deleteBuffers</text>
</a>
</g>
</g>
<!-- Node5&#45;&gt;Node7 -->
<g id="edge23_Node000005_Node000007" class="edge">
<title>Node5&#45;&gt;Node7</title>
<g id="a_edge23_Node000005_Node000007"><a xlink:title=" ">
<path fill="none" stroke="#63b8ff" d="M376.59,-22.46C386.3,-21.27 396.57,-20.01 406.71,-18.76"/>
<polygon fill="#63b8ff" stroke="#63b8ff" points="407.06,-22.24 416.55,-17.55 406.2,-15.3 407.06,-22.24"/>
</a>
</g>
</g>
</g>
</svg>
