<?xml version="1.0" encoding="UTF-8" standalone="no"?>
<!DOCTYPE svg PUBLIC "-//W3C//DTD SVG 1.1//EN"
 "http://www.w3.org/Graphics/SVG/1.1/DTD/svg11.dtd">
<!-- Generated by graphviz version 12.2.1 (20241206.2353)
 -->
<!-- Title: fcmaes.mapelites.Archive.set_ys Pages: 1 -->
<svg width="362pt" height="66pt"
 viewBox="0.00 0.00 361.75 66.00" xmlns="http://www.w3.org/2000/svg" xmlns:xlink="http://www.w3.org/1999/xlink">
<g id="graph0" class="graph" transform="scale(1 1) rotate(0) translate(4 62)">
<title>fcmaes.mapelites.Archive.set_ys</title>
<!-- Node1 -->
<g id="Node000001" class="node">
<title>Node1</title>
<g id="a_Node000001"><a xlink:title="Sets multiple y&#45;values for the object by iterating over the provided array&#45;like collection.">
<polygon fill="#999999" stroke="#666666" points="161.5,-39 0,-39 0,-19 161.5,-19 161.5,-39"/>
<text text-anchor="middle" x="80.75" y="-25.5" font-family="Helvetica,sans-Serif" font-size="10.00">fcmaes.mapelites.Archive.set_ys</text>
</a>
</g>
</g>
<!-- Node2 -->
<g id="Node000002" class="node">
<title>Node2</title>
<g id="a_Node000002"><a xlink:href="$classfcmaes_1_1advretry_1_1_store.html#a12d96e54629b449293d2aabf5542ddc1" xlink:title="Sets the value of y for a given pid within the &#39;ys&#39; mapping.">
<polygon fill="white" stroke="#666666" points="345.12,-58 206.12,-58 206.12,-38 345.12,-38 345.12,-58"/>
<text text-anchor="middle" x="275.62" y="-44.5" font-family="Helvetica,sans-Serif" font-size="10.00">fcmaes.advretry.Store.set_y</text>
</a>
</g>
</g>
<!-- Node1&#45;&gt;Node2 -->
<g id="edge5_Node000001_Node000002" class="edge">
<title>Node1&#45;&gt;Node2</title>
<g id="a_edge5_Node000001_Node000002"><a xlink:title=" ">
<path fill="none" stroke="#63b8ff" d="M161.87,-36.89C172.7,-37.96 183.82,-39.05 194.64,-40.12"/>
<polygon fill="#63b8ff" stroke="#63b8ff" points="194,-43.57 204.3,-41.07 194.69,-36.61 194,-43.57"/>
</a>
</g>
</g>
<!-- Node3 -->
<g id="Node000003" class="node">
<title>Node3</title>
<g id="a_Node000003"><a xlink:href="$classfcmaes_1_1mapelites_1_1_archive.html#afc25798d5b07a1addd68fc50cec1f3e5" xlink:title="Updates the ys attribute at the specified index with a new value.">
<polygon fill="white" stroke="#666666" points="353.75,-20 197.5,-20 197.5,0 353.75,0 353.75,-20"/>
<text text-anchor="middle" x="275.62" y="-6.5" font-family="Helvetica,sans-Serif" font-size="10.00">fcmaes.mapelites.Archive.set_y</text>
</a>
</g>
</g>
<!-- Node1&#45;&gt;Node3 -->
<g id="edge6_Node000001_Node000003" class="edge">
<title>Node1&#45;&gt;Node3</title>
<g id="a_edge6_Node000001_Node000003"><a xlink:title=" ">
<path fill="none" stroke="#63b8ff" d="M161.87,-21.11C169.82,-20.32 177.92,-19.53 185.95,-18.74"/>
<polygon fill="#63b8ff" stroke="#63b8ff" points="186.12,-22.24 195.73,-17.77 185.43,-15.27 186.12,-22.24"/>
</a>
</g>
</g>
</g>
</svg>
