<?xml version="1.0" encoding="UTF-8" standalone="no"?>
<!DOCTYPE svg PUBLIC "-//W3C//DTD SVG 1.1//EN"
 "http://www.w3.org/Graphics/SVG/1.1/DTD/svg11.dtd">
<!-- Generated by graphviz version 12.2.1 (20241206.2353)
 -->
<!-- Title: CBiteRnd::getSqrInt Pages: 1 -->
<svg width="379pt" height="28pt"
 viewBox="0.00 0.00 379.25 28.00" xmlns="http://www.w3.org/2000/svg" xmlns:xlink="http://www.w3.org/1999/xlink">
<g id="graph0" class="graph" transform="scale(1 1) rotate(0) translate(4 24)">
<title>CBiteRnd::getSqrInt</title>
<!-- Node1 -->
<g id="Node000001" class="node">
<title>Node1</title>
<g id="a_Node000001"><a xlink:title=" ">
<polygon fill="#999999" stroke="#666666" points="104.5,-20 0,-20 0,0 104.5,0 104.5,-20"/>
<text text-anchor="middle" x="52.25" y="-6.5" font-family="Helvetica,sans-Serif" font-size="10.00">CBiteRnd::getSqrInt</text>
</a>
</g>
</g>
<!-- Node2 -->
<g id="Node000002" class="node">
<title>Node2</title>
<g id="a_Node000002"><a xlink:href="$class_c_bite_rnd.html#aabbf1ffd535ca8fe31fda768f15ccd1b" xlink:title=" ">
<polygon fill="white" stroke="#666666" points="233.75,-20 140.5,-20 140.5,0 233.75,0 233.75,-20"/>
<text text-anchor="middle" x="187.12" y="-6.5" font-family="Helvetica,sans-Serif" font-size="10.00">CBiteRnd::getSqr</text>
</a>
</g>
</g>
<!-- Node1&#45;&gt;Node2 -->
<g id="edge5_Node000001_Node000002" class="edge">
<title>Node1&#45;&gt;Node2</title>
<g id="a_edge5_Node000001_Node000002"><a xlink:title=" ">
<path fill="none" stroke="#63b8ff" d="M104.62,-10C112.47,-10 120.62,-10 128.59,-10"/>
<polygon fill="#63b8ff" stroke="#63b8ff" points="128.58,-13.5 138.58,-10 128.58,-6.5 128.58,-13.5"/>
</a>
</g>
</g>
<!-- Node3 -->
<g id="Node000003" class="node">
<title>Node3</title>
<g id="a_Node000003"><a xlink:href="$class_c_bite_rnd.html#ae1167f8ecac85f268ced4bc1d2fa953b" xlink:title=" ">
<polygon fill="white" stroke="#666666" points="371.25,-20 269.75,-20 269.75,0 371.25,0 371.25,-20"/>
<text text-anchor="middle" x="320.5" y="-6.5" font-family="Helvetica,sans-Serif" font-size="10.00">CBiteRnd::advance</text>
</a>
</g>
</g>
<!-- Node2&#45;&gt;Node3 -->
<g id="edge6_Node000002_Node000003" class="edge">
<title>Node2&#45;&gt;Node3</title>
<g id="a_edge6_Node000002_Node000003"><a xlink:title=" ">
<path fill="none" stroke="#63b8ff" d="M234.07,-10C241.82,-10 249.97,-10 258.03,-10"/>
<polygon fill="#63b8ff" stroke="#63b8ff" points="257.81,-13.5 267.81,-10 257.81,-6.5 257.81,-13.5"/>
</a>
</g>
</g>
</g>
</svg>
