<?xml version="1.0" encoding="UTF-8" standalone="no"?>
<!DOCTYPE svg PUBLIC "-//W3C//DTD SVG 1.1//EN"
 "http://www.w3.org/Graphics/SVG/1.1/DTD/svg11.dtd">
<!-- Generated by graphviz version 12.2.1 (20241206.2353)
 -->
<!-- Title: examples.kepler.kepler.Kepler.getEccentricAnomaly Pages: 1 -->
<svg width="764pt" height="78pt"
 viewBox="0.00 0.00 764.25 78.00" xmlns="http://www.w3.org/2000/svg" xmlns:xlink="http://www.w3.org/1999/xlink">
<g id="graph0" class="graph" transform="scale(1 1) rotate(0) translate(4 74)">
<title>examples.kepler.kepler.Kepler.getEccentricAnomaly</title>
<!-- Node1 -->
<g id="Node000001" class="node">
<title>Node1</title>
<g id="a_Node000001"><a xlink:title=" ">
<polygon fill="#999999" stroke="#666666" points="163.75,-54 0,-54 0,-22 163.75,-22 163.75,-54"/>
<text text-anchor="start" x="8" y="-40.5" font-family="Helvetica,sans-Serif" font-size="10.00">examples.kepler.kepler.Kepler.get</text>
<text text-anchor="middle" x="81.88" y="-28.5" font-family="Helvetica,sans-Serif" font-size="10.00">EccentricAnomaly</text>
</a>
</g>
</g>
<!-- Node2 -->
<g id="Node000002" class="node">
<title>Node2</title>
<g id="a_Node000002"><a xlink:href="$classexamples_1_1kepler_1_1kepler_1_1_kepler.html#a30c2309d5290666bb3aaa6e85b2dc5f7" xlink:title=" ">
<polygon fill="white" stroke="#666666" points="419,-48 199.75,-48 199.75,-28 419,-28 419,-48"/>
<text text-anchor="middle" x="309.38" y="-34.5" font-family="Helvetica,sans-Serif" font-size="10.00">examples.kepler.kepler.Kepler.mean2eccentric</text>
</a>
</g>
</g>
<!-- Node1&#45;&gt;Node2 -->
<g id="edge9_Node000001_Node000002" class="edge">
<title>Node1&#45;&gt;Node2</title>
<g id="a_edge9_Node000001_Node000002"><a xlink:title=" ">
<path fill="none" stroke="#63b8ff" d="M163.97,-38C171.78,-38 179.81,-38 187.89,-38"/>
<polygon fill="#63b8ff" stroke="#63b8ff" points="187.82,-41.5 197.82,-38 187.82,-34.5 187.82,-41.5"/>
</a>
</g>
</g>
<!-- Node3 -->
<g id="Node000003" class="node">
<title>Node3</title>
<g id="a_Node000003"><a xlink:href="$namespaceexamples_1_1kepler_1_1kepler.html#a1e36aa5defd99e317d30a5db994a0576" xlink:title=" ">
<polygon fill="white" stroke="#666666" points="574.5,-54 455,-54 455,-22 574.5,-22 574.5,-54"/>
<text text-anchor="start" x="463" y="-40.5" font-family="Helvetica,sans-Serif" font-size="10.00">examples.kepler.kepler.</text>
<text text-anchor="middle" x="514.75" y="-28.5" font-family="Helvetica,sans-Serif" font-size="10.00">_mean2eccentric</text>
</a>
</g>
</g>
<!-- Node2&#45;&gt;Node3 -->
<g id="edge10_Node000002_Node000003" class="edge">
<title>Node2&#45;&gt;Node3</title>
<g id="a_edge10_Node000002_Node000003"><a xlink:title=" ">
<path fill="none" stroke="#63b8ff" d="M419.21,-38C427.39,-38 435.52,-38 443.36,-38"/>
<polygon fill="#63b8ff" stroke="#63b8ff" points="443.13,-41.5 453.13,-38 443.13,-34.5 443.13,-41.5"/>
</a>
</g>
</g>
<!-- Node4 -->
<g id="Node000004" class="node">
<title>Node4</title>
<g id="a_Node000004"><a xlink:href="$namespaceexamples_1_1kepler_1_1kepler.html#a2421a039709ffc114992322c5b944ba0" xlink:title=" ">
<polygon fill="white" stroke="#666666" points="753.62,-70 613.12,-70 613.12,-50 753.62,-50 753.62,-70"/>
<text text-anchor="middle" x="683.38" y="-56.5" font-family="Helvetica,sans-Serif" font-size="10.00">examples.kepler.kepler.eps3</text>
</a>
</g>
</g>
<!-- Node3&#45;&gt;Node4 -->
<g id="edge11_Node000003_Node000004" class="edge">
<title>Node3&#45;&gt;Node4</title>
<g id="a_edge11_Node000003_Node000004"><a xlink:title=" ">
<path fill="none" stroke="#63b8ff" d="M574.96,-45.82C583.58,-46.96 592.57,-48.14 601.53,-49.33"/>
<polygon fill="#63b8ff" stroke="#63b8ff" points="600.95,-52.78 611.32,-50.62 601.86,-45.84 600.95,-52.78"/>
</a>
</g>
</g>
<!-- Node5 -->
<g id="Node000005" class="node">
<title>Node5</title>
<g id="a_Node000005"><a xlink:href="$namespaceexamples_1_1kepler_1_1kepler.html#a1270aff9b2683cf09fd997af1c49791b" xlink:title=" ">
<polygon fill="white" stroke="#666666" points="756.25,-32 610.5,-32 610.5,0 756.25,0 756.25,-32"/>
<text text-anchor="start" x="618.5" y="-18.5" font-family="Helvetica,sans-Serif" font-size="10.00">examples.kepler.kepler.kepler</text>
<text text-anchor="middle" x="683.38" y="-6.5" font-family="Helvetica,sans-Serif" font-size="10.00">Start3</text>
</a>
</g>
</g>
<!-- Node3&#45;&gt;Node5 -->
<g id="edge12_Node000003_Node000005" class="edge">
<title>Node3&#45;&gt;Node5</title>
<g id="a_edge12_Node000003_Node000005"><a xlink:title=" ">
<path fill="none" stroke="#63b8ff" d="M574.96,-30.18C582.72,-29.16 590.78,-28.09 598.85,-27.03"/>
<polygon fill="#63b8ff" stroke="#63b8ff" points="599.26,-30.5 608.72,-25.73 598.35,-23.56 599.26,-30.5"/>
</a>
</g>
</g>
</g>
</svg>
