<?xml version="1.0" encoding="UTF-8" standalone="no"?>
<!DOCTYPE svg PUBLIC "-//W3C//DTD SVG 1.1//EN"
 "http://www.w3.org/Graphics/SVG/1.1/DTD/svg11.dtd">
<!-- Generated by graphviz version 12.2.1 (20241206.2353)
 -->
<!-- Title: fcmaes.modecpp.MODE_C.minimize_ser Pages: 1 -->
<svg width="919pt" height="600pt"
 viewBox="0.00 0.00 919.00 600.00" xmlns="http://www.w3.org/2000/svg" xmlns:xlink="http://www.w3.org/1999/xlink">
<g id="graph0" class="graph" transform="scale(1 1) rotate(0) translate(4 596)">
<title>fcmaes.modecpp.MODE_C.minimize_ser</title>
<!-- Node1 -->
<g id="Node000001" class="node">
<title>Node1</title>
<g id="a_Node000001"><a xlink:title="Minimizes the given scalar function using a serial optimization method.">
<polygon fill="#999999" stroke="#666666" points="124,-318 0,-318 0,-286 124,-286 124,-318"/>
<text text-anchor="start" x="8" y="-304.5" font-family="Helvetica,sans-Serif" font-size="10.00">fcmaes.modecpp.MODE</text>
<text text-anchor="middle" x="62" y="-292.5" font-family="Helvetica,sans-Serif" font-size="10.00">_C.minimize_ser</text>
</a>
</g>
</g>
<!-- Node2 -->
<g id="Node000002" class="node">
<title>Node2</title>
<g id="a_Node000002"><a xlink:href="$classfcmaes_1_1cmaes_1_1_cmaes.html#a56c7e2c2ad921a3fc6263e5be6a873f8" xlink:title="Generates a NumPy array by decoding elements in the current data structure.">
<polygon fill="white" stroke="#666666" points="304.62,-592 170.88,-592 170.88,-572 304.62,-572 304.62,-592"/>
<text text-anchor="middle" x="237.75" y="-578.5" font-family="Helvetica,sans-Serif" font-size="10.00">fcmaes.cmaes.Cmaes.ask</text>
</a>
</g>
</g>
<!-- Node1&#45;&gt;Node2 -->
<g id="edge69_Node000001_Node000002" class="edge">
<title>Node1&#45;&gt;Node2</title>
<g id="a_edge69_Node000001_Node000002"><a xlink:title=" ">
<path fill="none" stroke="#63b8ff" d="M63.99,-318.36C67.67,-364.33 84.63,-495.71 160,-563 160.95,-563.85 161.93,-564.65 162.93,-565.43"/>
<polygon fill="#63b8ff" stroke="#63b8ff" points="161.04,-568.38 171.38,-570.7 164.75,-562.44 161.04,-568.38"/>
</a>
</g>
</g>
<!-- Node4 -->
<g id="Node000004" class="node">
<title>Node4</title>
<g id="a_Node000004"><a xlink:href="$classfcmaes_1_1cmaescpp_1_1_a_c_m_a___c.html#ad7ca82faa65b471b66977e2f18676025" xlink:title="Generates and retrieves a population of candidate solutions.">
<polygon fill="white" stroke="#666666" points="302,-554 173.5,-554 173.5,-522 302,-522 302,-554"/>
<text text-anchor="start" x="181.5" y="-540.5" font-family="Helvetica,sans-Serif" font-size="10.00">fcmaes.cmaescpp.ACMA</text>
<text text-anchor="middle" x="237.75" y="-528.5" font-family="Helvetica,sans-Serif" font-size="10.00">_C.ask</text>
</a>
</g>
</g>
<!-- Node1&#45;&gt;Node4 -->
<g id="edge71_Node000001_Node000004" class="edge">
<title>Node1&#45;&gt;Node4</title>
<g id="a_edge71_Node000001_Node000004"><a xlink:title=" ">
<path fill="none" stroke="#63b8ff" d="M65.89,-318.39C73.69,-357.79 98.87,-458.58 160,-513 161.24,-514.11 162.54,-515.16 163.87,-516.18"/>
<polygon fill="#63b8ff" stroke="#63b8ff" points="161.65,-518.91 171.95,-521.37 165.43,-513.02 161.65,-518.91"/>
</a>
</g>
</g>
<!-- Node5 -->
<g id="Node000005" class="node">
<title>Node5</title>
<g id="a_Node000005"><a xlink:href="$classfcmaes_1_1crfmnescpp_1_1_c_r_f_m_n_e_s___c.html#a70d038e8b7f0c094ef4eb618fffbb1ed" xlink:title="Generates a population of candidate solutions using the CR&#45;FM&#45;NES algorithm.">
<polygon fill="white" stroke="#666666" points="315.5,-504 160,-504 160,-472 315.5,-472 315.5,-504"/>
<text text-anchor="start" x="168" y="-490.5" font-family="Helvetica,sans-Serif" font-size="10.00">fcmaes.crfmnescpp.CRFMNES</text>
<text text-anchor="middle" x="237.75" y="-478.5" font-family="Helvetica,sans-Serif" font-size="10.00">_C.ask</text>
</a>
</g>
</g>
<!-- Node1&#45;&gt;Node5 -->
<g id="edge72_Node000001_Node000005" class="edge">
<title>Node1&#45;&gt;Node5</title>
<g id="a_edge72_Node000001_Node000005"><a xlink:title=" ">
<path fill="none" stroke="#63b8ff" d="M68.41,-318.32C79.98,-350.71 110.19,-423.4 160,-463 161.14,-463.91 162.32,-464.78 163.52,-465.63"/>
<polygon fill="#63b8ff" stroke="#63b8ff" points="161.59,-468.55 171.96,-470.72 165.21,-462.56 161.59,-468.55"/>
</a>
</g>
</g>
<!-- Node6 -->
<g id="Node000006" class="node">
<title>Node6</title>
<g id="a_Node000006"><a xlink:href="$classfcmaes_1_1de_1_1_d_e.html#acc2a7649411442c90167d856c673ccb4" xlink:title="Generates and returns the next set of samples to be evaluated based on the evolutionary strategy.">
<polygon fill="white" stroke="#666666" points="286.62,-454 188.88,-454 188.88,-434 286.62,-434 286.62,-454"/>
<text text-anchor="middle" x="237.75" y="-440.5" font-family="Helvetica,sans-Serif" font-size="10.00">fcmaes.de.DE.ask</text>
</a>
</g>
</g>
<!-- Node1&#45;&gt;Node6 -->
<g id="edge73_Node000001_Node000006" class="edge">
<title>Node1&#45;&gt;Node6</title>
<g id="a_edge73_Node000001_Node000006"><a xlink:title=" ">
<path fill="none" stroke="#63b8ff" d="M71.26,-318.41C85.55,-345.07 117.49,-397.58 160,-425 165.47,-428.53 171.54,-431.4 177.81,-433.74"/>
<polygon fill="#63b8ff" stroke="#63b8ff" points="176.44,-436.97 187.04,-436.73 178.6,-430.31 176.44,-436.97"/>
</a>
</g>
</g>
<!-- Node8 -->
<g id="Node000008" class="node">
<title>Node8</title>
<g id="a_Node000008"><a xlink:href="$classfcmaes_1_1decpp_1_1_d_e___c.html#ac938731f80bce720692af9b7b84e41d0" xlink:title="Generates a new population of candidate solutions using the DE (Differential Evolution) algorithm.">
<polygon fill="white" stroke="#666666" points="300.88,-416 174.62,-416 174.62,-396 300.88,-396 300.88,-416"/>
<text text-anchor="middle" x="237.75" y="-402.5" font-family="Helvetica,sans-Serif" font-size="10.00">fcmaes.decpp.DE_C.ask</text>
</a>
</g>
</g>
<!-- Node1&#45;&gt;Node8 -->
<g id="edge75_Node000001_Node000008" class="edge">
<title>Node1&#45;&gt;Node8</title>
<g id="a_edge75_Node000001_Node000008"><a xlink:title=" ">
<path fill="none" stroke="#63b8ff" d="M77.06,-318.37C94.55,-337.68 126.26,-369.38 160,-387 163.29,-388.72 166.73,-390.28 170.27,-391.71"/>
<polygon fill="#63b8ff" stroke="#63b8ff" points="169.06,-394.99 179.65,-395.08 171.42,-388.4 169.06,-394.99"/>
</a>
</g>
</g>
<!-- Node9 -->
<g id="Node000009" class="node">
<title>Node9</title>
<g id="a_Node000009"><a xlink:href="$classfcmaes_1_1mode_1_1_m_o_d_e.html#a1893dc839f866ab4d22f7fd13489bf73" xlink:title="Generates the next batch of candidate solutions and updates internal population.">
<polygon fill="white" stroke="#666666" points="301.25,-378 174.25,-378 174.25,-358 301.25,-358 301.25,-378"/>
<text text-anchor="middle" x="237.75" y="-364.5" font-family="Helvetica,sans-Serif" font-size="10.00">fcmaes.mode.MODE.ask</text>
</a>
</g>
</g>
<!-- Node1&#45;&gt;Node9 -->
<g id="edge76_Node000001_Node000009" class="edge">
<title>Node1&#45;&gt;Node9</title>
<g id="a_edge76_Node000001_Node000009"><a xlink:title=" ">
<path fill="none" stroke="#63b8ff" d="M92.88,-318.49C111.71,-328.37 136.77,-340.6 160,-349 165.43,-350.96 171.14,-352.79 176.91,-354.48"/>
<polygon fill="#63b8ff" stroke="#63b8ff" points="175.95,-357.85 186.52,-357.15 177.82,-351.1 175.95,-357.85"/>
</a>
</g>
</g>
<!-- Node11 -->
<g id="Node000011" class="node">
<title>Node11</title>
<g id="a_Node000011"><a xlink:href="$classfcmaes_1_1modecpp_1_1_m_o_d_e___c.html#ae42863ed67ebbb8f39a488a9caecebc1" xlink:title="Generates and retrieves a new population of candidate solutions.">
<polygon fill="white" stroke="#666666" points="299.75,-340 175.75,-340 175.75,-308 299.75,-308 299.75,-340"/>
<text text-anchor="start" x="183.75" y="-326.5" font-family="Helvetica,sans-Serif" font-size="10.00">fcmaes.modecpp.MODE</text>
<text text-anchor="middle" x="237.75" y="-314.5" font-family="Helvetica,sans-Serif" font-size="10.00">_C.ask</text>
</a>
</g>
</g>
<!-- Node1&#45;&gt;Node11 -->
<g id="edge79_Node000001_Node000011" class="edge">
<title>Node1&#45;&gt;Node11</title>
<g id="a_edge79_Node000001_Node000011"><a xlink:title=" ">
<path fill="none" stroke="#63b8ff" d="M124.26,-309.76C137.23,-311.4 151.05,-313.15 164.39,-314.84"/>
<polygon fill="#63b8ff" stroke="#63b8ff" points="163.6,-318.27 173.96,-316.05 164.48,-311.32 163.6,-318.27"/>
</a>
</g>
</g>
<!-- Node12 -->
<g id="Node000012" class="node">
<title>Node12</title>
<g id="a_Node000012"><a xlink:href="$classfcmaes_1_1cmaes_1_1_cmaes.html#a398738e6fcf7fe101cce3257fb0d579d" xlink:title="Processes the input function values and updates the internal state of the CMA&#45;ES algorithm.">
<polygon fill="white" stroke="#666666" points="303.12,-290 172.38,-290 172.38,-270 303.12,-270 303.12,-290"/>
<text text-anchor="middle" x="237.75" y="-276.5" font-family="Helvetica,sans-Serif" font-size="10.00">fcmaes.cmaes.Cmaes.tell</text>
</a>
</g>
</g>
<!-- Node1&#45;&gt;Node12 -->
<g id="edge80_Node000001_Node000012" class="edge">
<title>Node1&#45;&gt;Node12</title>
<g id="a_edge80_Node000001_Node000012"><a xlink:title=" ">
<path fill="none" stroke="#63b8ff" d="M124.26,-294.24C136.08,-292.75 148.59,-291.16 160.81,-289.62"/>
<polygon fill="#63b8ff" stroke="#63b8ff" points="160.94,-293.13 170.42,-288.4 160.06,-286.18 160.94,-293.13"/>
</a>
</g>
</g>
<!-- Node13 -->
<g id="Node000013" class="node">
<title>Node13</title>
<g id="a_Node000013"><a xlink:href="$classfcmaes_1_1cmaescpp_1_1_a_c_m_a___c.html#a4677822852841d0e52baa48fa91cbcb8" xlink:title="Provides functionality to handle processed arrays and manage operations using the given inputs.">
<polygon fill="white" stroke="#666666" points="302,-252 173.5,-252 173.5,-220 302,-220 302,-252"/>
<text text-anchor="start" x="181.5" y="-238.5" font-family="Helvetica,sans-Serif" font-size="10.00">fcmaes.cmaescpp.ACMA</text>
<text text-anchor="middle" x="237.75" y="-226.5" font-family="Helvetica,sans-Serif" font-size="10.00">_C.tell</text>
</a>
</g>
</g>
<!-- Node1&#45;&gt;Node13 -->
<g id="edge81_Node000001_Node000013" class="edge">
<title>Node1&#45;&gt;Node13</title>
<g id="a_edge81_Node000001_Node000013"><a xlink:title=" ">
<path fill="none" stroke="#63b8ff" d="M99.55,-285.68C117.6,-277.85 139.79,-268.55 160,-261 164.36,-259.37 168.87,-257.75 173.44,-256.15"/>
<polygon fill="#63b8ff" stroke="#63b8ff" points="174.36,-259.54 182.68,-252.98 172.08,-252.91 174.36,-259.54"/>
</a>
</g>
</g>
<!-- Node15 -->
<g id="Node000015" class="node">
<title>Node15</title>
<g id="a_Node000015"><a xlink:href="$classfcmaes_1_1crfmnescpp_1_1_c_r_f_m_n_e_s___c.html#a30327c6b3f1ecc4add777f4a74e83533" xlink:title="Provides functionality to send an array of numerical values to a specific C&#45;based function,...">
<polygon fill="white" stroke="#666666" points="315.5,-202 160,-202 160,-170 315.5,-170 315.5,-202"/>
<text text-anchor="start" x="168" y="-188.5" font-family="Helvetica,sans-Serif" font-size="10.00">fcmaes.crfmnescpp.CRFMNES</text>
<text text-anchor="middle" x="237.75" y="-176.5" font-family="Helvetica,sans-Serif" font-size="10.00">_C.tell</text>
</a>
</g>
</g>
<!-- Node1&#45;&gt;Node15 -->
<g id="edge83_Node000001_Node000015" class="edge">
<title>Node1&#45;&gt;Node15</title>
<g id="a_edge83_Node000001_Node000015"><a xlink:title=" ">
<path fill="none" stroke="#63b8ff" d="M76.44,-285.57C93.78,-265.35 125.82,-231.22 160,-211 162.29,-209.65 164.66,-208.35 167.09,-207.12"/>
<polygon fill="#63b8ff" stroke="#63b8ff" points="168.34,-210.4 175.97,-203.04 165.42,-204.04 168.34,-210.4"/>
</a>
</g>
</g>
<!-- Node16 -->
<g id="Node000016" class="node">
<title>Node16</title>
<g id="a_Node000016"><a xlink:href="$classfcmaes_1_1de_1_1_d_e.html#aa9de9d67ac999658a523d2ad8976954b" xlink:title="Tells the algorithm about the function evaluations (objective values) for the proposed solutions and ...">
<polygon fill="white" stroke="#666666" points="285.12,-152 190.38,-152 190.38,-132 285.12,-132 285.12,-152"/>
<text text-anchor="middle" x="237.75" y="-138.5" font-family="Helvetica,sans-Serif" font-size="10.00">fcmaes.de.DE.tell</text>
</a>
</g>
</g>
<!-- Node1&#45;&gt;Node16 -->
<g id="edge84_Node000001_Node000016" class="edge">
<title>Node1&#45;&gt;Node16</title>
<g id="a_edge84_Node000001_Node000016"><a xlink:title=" ">
<path fill="none" stroke="#63b8ff" d="M69.56,-285.59C82.31,-255.89 113.34,-193.3 160,-161 165.85,-156.95 172.48,-153.76 179.33,-151.25"/>
<polygon fill="#63b8ff" stroke="#63b8ff" points="180.27,-154.63 188.76,-148.29 178.17,-147.95 180.27,-154.63"/>
</a>
</g>
</g>
<!-- Node25 -->
<g id="Node000025" class="node">
<title>Node25</title>
<g id="a_Node000025"><a xlink:href="$classfcmaes_1_1decpp_1_1_d_e___c.html#ad53cc4b5553a819096b47115e1f49b42" xlink:title="Updates the object with input data and performs a specific operation using the provided numerical arr...">
<polygon fill="white" stroke="#666666" points="299.38,-114 176.12,-114 176.12,-94 299.38,-94 299.38,-114"/>
<text text-anchor="middle" x="237.75" y="-100.5" font-family="Helvetica,sans-Serif" font-size="10.00">fcmaes.decpp.DE_C.tell</text>
</a>
</g>
</g>
<!-- Node1&#45;&gt;Node25 -->
<g id="edge93_Node000001_Node000025" class="edge">
<title>Node1&#45;&gt;Node25</title>
<g id="a_edge93_Node000001_Node000025"><a xlink:title=" ">
<path fill="none" stroke="#63b8ff" d="M67.01,-285.73C76.61,-250.33 104.37,-166.04 160,-123 161.79,-121.61 163.67,-120.33 165.62,-119.13"/>
<polygon fill="#63b8ff" stroke="#63b8ff" points="167.19,-122.26 174.5,-114.59 164.01,-116.03 167.19,-122.26"/>
</a>
</g>
</g>
<!-- Node26 -->
<g id="Node000026" class="node">
<title>Node26</title>
<g id="a_Node000026"><a xlink:href="$classfcmaes_1_1mode_1_1_m_o_d_e.html#a8b928c29cf646933a1821566ec18d73a" xlink:title="Updates the internal population data with the given ys values, and optionally, with the corresponding...">
<polygon fill="white" stroke="#666666" points="299.75,-76 175.75,-76 175.75,-56 299.75,-56 299.75,-76"/>
<text text-anchor="middle" x="237.75" y="-62.5" font-family="Helvetica,sans-Serif" font-size="10.00">fcmaes.mode.MODE.tell</text>
</a>
</g>
</g>
<!-- Node1&#45;&gt;Node26 -->
<g id="edge94_Node000001_Node000026" class="edge">
<title>Node1&#45;&gt;Node26</title>
<g id="a_edge94_Node000001_Node000026"><a xlink:title=" ">
<path fill="none" stroke="#63b8ff" d="M65.34,-285.76C72.06,-245.26 95.27,-139.14 160,-85 161.74,-83.55 163.57,-82.2 165.48,-80.96"/>
<polygon fill="#63b8ff" stroke="#63b8ff" points="167.07,-84.07 174.22,-76.25 163.76,-77.91 167.07,-84.07"/>
</a>
</g>
</g>
<!-- Node34 -->
<g id="Node000034" class="node">
<title>Node34</title>
<g id="a_Node000034"><a xlink:href="$classfcmaes_1_1modecpp_1_1_m_o_d_e___c.html#adff2bdf2d7fa9dd5d8aabf4962471e07" xlink:title="Submits new candidate solutions and their corresponding function values to the optimizer.">
<polygon fill="white" stroke="#666666" points="299.75,-38 175.75,-38 175.75,-6 299.75,-6 299.75,-38"/>
<text text-anchor="start" x="183.75" y="-24.5" font-family="Helvetica,sans-Serif" font-size="10.00">fcmaes.modecpp.MODE</text>
<text text-anchor="middle" x="237.75" y="-12.5" font-family="Helvetica,sans-Serif" font-size="10.00">_C.tell</text>
</a>
</g>
</g>
<!-- Node1&#45;&gt;Node34 -->
<g id="edge102_Node000001_Node000034" class="edge">
<title>Node1&#45;&gt;Node34</title>
<g id="a_edge102_Node000001_Node000034"><a xlink:title=" ">
<path fill="none" stroke="#63b8ff" d="M64.43,-285.63C69.21,-240.82 88.66,-114.95 160,-47 161.86,-45.23 163.84,-43.59 165.92,-42.06"/>
<polygon fill="#63b8ff" stroke="#63b8ff" points="167.63,-45.12 174.3,-36.89 163.95,-39.16 167.63,-45.12"/>
</a>
</g>
</g>
<!-- Node3 -->
<g id="Node000003" class="node">
<title>Node3</title>
<g id="a_Node000003"><a xlink:href="$classfcmaes_1_1cmaes_1_1_cmaes.html#aff1c6aff205dfd66b677b1237f3566e7" xlink:title="Generates a new population of candidate solutions for optimization.">
<polygon fill="white" stroke="#666666" points="507.75,-592 351.5,-592 351.5,-572 507.75,-572 507.75,-592"/>
<text text-anchor="middle" x="429.62" y="-578.5" font-family="Helvetica,sans-Serif" font-size="10.00">fcmaes.cmaes.Cmaes.newArgs</text>
</a>
</g>
</g>
<!-- Node2&#45;&gt;Node3 -->
<g id="edge70_Node000002_Node000003" class="edge">
<title>Node2&#45;&gt;Node3</title>
<g id="a_edge70_Node000002_Node000003"><a xlink:title=" ">
<path fill="none" stroke="#63b8ff" d="M304.89,-582C316.25,-582 328.21,-582 340.04,-582"/>
<polygon fill="#63b8ff" stroke="#63b8ff" points="339.8,-585.5 349.8,-582 339.8,-578.5 339.8,-585.5"/>
</a>
</g>
</g>
<!-- Node7 -->
<g id="Node000007" class="node">
<title>Node7</title>
<g id="a_Node000007"><a xlink:href="$classfcmaes_1_1de_1_1_d_e.html#af65d189c855a19bc82ea60b185482757" xlink:title="Determines the next vector in an evolutionary computation process.">
<polygon fill="white" stroke="#666666" points="487.88,-435 371.38,-435 371.38,-415 487.88,-415 487.88,-435"/>
<text text-anchor="middle" x="429.62" y="-421.5" font-family="Helvetica,sans-Serif" font-size="10.00">fcmaes.de.DE._next_x</text>
</a>
</g>
</g>
<!-- Node6&#45;&gt;Node7 -->
<g id="edge74_Node000006_Node000007" class="edge">
<title>Node6&#45;&gt;Node7</title>
<g id="a_edge74_Node000006_Node000007"><a xlink:title=" ">
<path fill="none" stroke="#63b8ff" d="M286.66,-439.21C308.76,-436.99 335.41,-434.33 359.62,-431.91"/>
<polygon fill="#63b8ff" stroke="#63b8ff" points="359.8,-435.4 369.4,-430.93 359.1,-428.44 359.8,-435.4"/>
</a>
</g>
</g>
<!-- Node9&#45;&gt;Node7 -->
<g id="edge77_Node000009_Node000007" class="edge">
<title>Node9&#45;&gt;Node7</title>
<g id="a_edge77_Node000009_Node000007"><a xlink:title=" ">
<path fill="none" stroke="#63b8ff" d="M283.56,-378.44C294.08,-381.07 305.22,-384.01 315.5,-387 340.06,-394.15 367.25,-403.25 388.81,-410.74"/>
<polygon fill="#63b8ff" stroke="#63b8ff" points="387.51,-414 398.1,-414 389.82,-407.39 387.51,-414"/>
</a>
</g>
</g>
<!-- Node10 -->
<g id="Node000010" class="node">
<title>Node10</title>
<g id="a_Node000010"><a xlink:href="$classfcmaes_1_1mode_1_1_m_o_d_e.html#a4e75c17eaa625b8be5fa0ccb0d64bd05" xlink:title="Determines the next candidate solution vector based on the current population and the DE (Differentia...">
<polygon fill="white" stroke="#666666" points="502.5,-378 356.75,-378 356.75,-358 502.5,-358 502.5,-378"/>
<text text-anchor="middle" x="429.62" y="-364.5" font-family="Helvetica,sans-Serif" font-size="10.00">fcmaes.mode.MODE._next_x</text>
</a>
</g>
</g>
<!-- Node9&#45;&gt;Node10 -->
<g id="edge78_Node000009_Node000010" class="edge">
<title>Node9&#45;&gt;Node10</title>
<g id="a_edge78_Node000009_Node000010"><a xlink:title=" ">
<path fill="none" stroke="#63b8ff" d="M301.71,-368C315.51,-368 330.33,-368 344.8,-368"/>
<polygon fill="#63b8ff" stroke="#63b8ff" points="344.79,-371.5 354.79,-368 344.79,-364.5 344.79,-371.5"/>
</a>
</g>
</g>
<!-- Node14 -->
<g id="Node000014" class="node">
<title>Node14</title>
<g id="a_Node000014"><a xlink:href="$classfcmaes_1_1cmaescpp_1_1_a_c_m_a___c.html#a344851d94557ce52f99da907ee61590d" xlink:title="Passes flattened numpy arrays and interacts with an external C function using ctypes.">
<polygon fill="white" stroke="#666666" points="493.88,-252 365.38,-252 365.38,-220 493.88,-220 493.88,-252"/>
<text text-anchor="start" x="373.38" y="-238.5" font-family="Helvetica,sans-Serif" font-size="10.00">fcmaes.cmaescpp.ACMA</text>
<text text-anchor="middle" x="429.62" y="-226.5" font-family="Helvetica,sans-Serif" font-size="10.00">_C.tell_x_</text>
</a>
</g>
</g>
<!-- Node13&#45;&gt;Node14 -->
<g id="edge82_Node000013_Node000014" class="edge">
<title>Node13&#45;&gt;Node14</title>
<g id="a_edge82_Node000013_Node000014"><a xlink:title=" ">
<path fill="none" stroke="#63b8ff" d="M302.24,-236C318.87,-236 336.94,-236 354.09,-236"/>
<polygon fill="#63b8ff" stroke="#63b8ff" points="353.68,-239.5 363.68,-236 353.68,-232.5 353.68,-239.5"/>
</a>
</g>
</g>
<!-- Node17 -->
<g id="Node000017" class="node">
<title>Node17</title>
<g id="a_Node000017"><a xlink:href="$classfcmaes_1_1cmaes_1_1_cmaes.html#ac7cbecf8b29fb1048bd4cc7ec900692c" xlink:title="Processes the given fitness value and solution vector, performs updates to internal data structures,...">
<polygon fill="white" stroke="#666666" points="505.5,-197 353.75,-197 353.75,-177 505.5,-177 505.5,-197"/>
<text text-anchor="middle" x="429.62" y="-183.5" font-family="Helvetica,sans-Serif" font-size="10.00">fcmaes.cmaes.Cmaes.tell_one</text>
</a>
</g>
</g>
<!-- Node16&#45;&gt;Node17 -->
<g id="edge85_Node000016_Node000017" class="edge">
<title>Node16&#45;&gt;Node17</title>
<g id="a_edge85_Node000016_Node000017"><a xlink:title=" ">
<path fill="none" stroke="#63b8ff" d="M282.79,-152.44C309.77,-158.83 344.54,-167.07 373.37,-173.9"/>
<polygon fill="#63b8ff" stroke="#63b8ff" points="372.49,-177.29 383.02,-176.19 374.1,-170.48 372.49,-177.29"/>
</a>
</g>
</g>
<!-- Node22 -->
<g id="Node000022" class="node">
<title>Node22</title>
<g id="a_Node000022"><a xlink:href="$classfcmaes_1_1de_1_1_d_e.html#a882c7a58bf3f14c342d2a0e0700e31ef" xlink:title="Process a single individual&#39;s evaluation update within a population&#45;based optimization algorithm.">
<polygon fill="white" stroke="#666666" points="487.5,-152 371.75,-152 371.75,-132 487.5,-132 487.5,-152"/>
<text text-anchor="middle" x="429.62" y="-138.5" font-family="Helvetica,sans-Serif" font-size="10.00">fcmaes.de.DE.tell_one</text>
</a>
</g>
</g>
<!-- Node16&#45;&gt;Node22 -->
<g id="edge90_Node000016_Node000022" class="edge">
<title>Node16&#45;&gt;Node22</title>
<g id="a_edge90_Node000016_Node000022"><a xlink:title=" ">
<path fill="none" stroke="#63b8ff" d="M285.2,-142C307.76,-142 335.32,-142 360.23,-142"/>
<polygon fill="#63b8ff" stroke="#63b8ff" points="359.95,-145.5 369.95,-142 359.95,-138.5 359.95,-145.5"/>
</a>
</g>
</g>
<!-- Node18 -->
<g id="Node000018" class="node">
<title>Node18</title>
<g id="a_Node000018"><a xlink:href="$classfcmaes_1_1cmaes_1_1_cmaes.html#a7dada2c399890feafb59c01d1f424ee5" xlink:title="Updates the evolutionary process using the Covariance Matrix Adaptation (CMA) strategy.">
<polygon fill="white" stroke="#666666" points="713.5,-200 543.75,-200 543.75,-180 713.5,-180 713.5,-200"/>
<text text-anchor="middle" x="628.62" y="-186.5" font-family="Helvetica,sans-Serif" font-size="10.00">fcmaes.cmaes.Cmaes.updateCMA</text>
</a>
</g>
</g>
<!-- Node17&#45;&gt;Node18 -->
<g id="edge86_Node000017_Node000018" class="edge">
<title>Node17&#45;&gt;Node18</title>
<g id="a_edge86_Node000017_Node000018"><a xlink:title=" ">
<path fill="none" stroke="#63b8ff" d="M505.95,-188.15C514.48,-188.28 523.26,-188.41 532.01,-188.54"/>
<polygon fill="#63b8ff" stroke="#63b8ff" points="531.91,-192.04 541.96,-188.7 532.01,-185.04 531.91,-192.04"/>
</a>
</g>
</g>
<!-- Node19 -->
<g id="Node000019" class="node">
<title>Node19</title>
<g id="a_Node000019"><a xlink:href="$classfcmaes_1_1cmaes_1_1_cmaes.html#ae26e42639fa8cb28b64c1fe1bcd7109c" xlink:title="Updates the internal state of the covariance matrix and its derived attributes, such as eigenvalues,...">
<polygon fill="white" stroke="#666666" points="911,-287 749.5,-287 749.5,-267 911,-267 911,-287"/>
<text text-anchor="middle" x="830.25" y="-273.5" font-family="Helvetica,sans-Serif" font-size="10.00">fcmaes.cmaes.Cmaes.updateBD</text>
</a>
</g>
</g>
<!-- Node18&#45;&gt;Node19 -->
<g id="edge87_Node000018_Node000019" class="edge">
<title>Node18&#45;&gt;Node19</title>
<g id="a_edge87_Node000018_Node000019"><a xlink:title=" ">
<path fill="none" stroke="#63b8ff" d="M644.82,-200.5C666.92,-215.32 709.65,-242.32 749.5,-258 754.53,-259.98 759.83,-261.79 765.2,-263.44"/>
<polygon fill="#63b8ff" stroke="#63b8ff" points="764.23,-266.8 774.81,-266.18 766.15,-260.07 764.23,-266.8"/>
</a>
</g>
</g>
<!-- Node20 -->
<g id="Node000020" class="node">
<title>Node20</title>
<g id="a_Node000020"><a xlink:href="$classfcmaes_1_1cmaes_1_1_cmaes.html#afd8b8665d87f14c53cd60da16c932336" xlink:title="Updates the covariance matrix and returns the negative covariance scaling factor.">
<polygon fill="white" stroke="#666666" points="903.88,-249 756.62,-249 756.62,-217 903.88,-217 903.88,-249"/>
<text text-anchor="start" x="764.62" y="-235.5" font-family="Helvetica,sans-Serif" font-size="10.00">fcmaes.cmaes.Cmaes.update</text>
<text text-anchor="middle" x="830.25" y="-223.5" font-family="Helvetica,sans-Serif" font-size="10.00">Covariance</text>
</a>
</g>
</g>
<!-- Node18&#45;&gt;Node20 -->
<g id="edge88_Node000018_Node000020" class="edge">
<title>Node18&#45;&gt;Node20</title>
<g id="a_edge88_Node000018_Node000020"><a xlink:title=" ">
<path fill="none" stroke="#63b8ff" d="M678.2,-200.46C698.34,-204.8 722.29,-209.96 745.11,-214.88"/>
<polygon fill="#63b8ff" stroke="#63b8ff" points="744.22,-218.26 754.73,-216.95 745.69,-211.42 744.22,-218.26"/>
</a>
</g>
</g>
<!-- Node21 -->
<g id="Node000021" class="node">
<title>Node21</title>
<g id="a_Node000021"><a xlink:href="$classfcmaes_1_1cmaes_1_1_cmaes.html#ae3fd3fbe79efd9509bb8462382d63bdd" xlink:title="Updates the evolution paths required for generating new samples in the covariance matrix adaptation e...">
<polygon fill="white" stroke="#666666" points="903.88,-199 756.62,-199 756.62,-167 903.88,-167 903.88,-199"/>
<text text-anchor="start" x="764.62" y="-185.5" font-family="Helvetica,sans-Serif" font-size="10.00">fcmaes.cmaes.Cmaes.update</text>
<text text-anchor="middle" x="830.25" y="-173.5" font-family="Helvetica,sans-Serif" font-size="10.00">EvolutionPaths</text>
</a>
</g>
</g>
<!-- Node18&#45;&gt;Node21 -->
<g id="edge89_Node000018_Node000021" class="edge">
<title>Node18&#45;&gt;Node21</title>
<g id="a_edge89_Node000018_Node000021"><a xlink:title=" ">
<path fill="none" stroke="#63b8ff" d="M713.99,-187.04C724.2,-186.68 734.63,-186.32 744.83,-185.96"/>
<polygon fill="#63b8ff" stroke="#63b8ff" points="744.85,-189.46 754.73,-185.61 744.61,-182.47 744.85,-189.46"/>
</a>
</g>
</g>
<!-- Node23 -->
<g id="Node000023" class="node">
<title>Node23</title>
<g id="a_Node000023"><a xlink:href="$classfcmaes_1_1de_1_1_d_e.html#a75e2c22d49dde6bd8f31572ef39152d7" xlink:title="Compute the next feasible point to improve optimization.">
<polygon fill="white" stroke="#666666" points="681.62,-158 575.62,-158 575.62,-126 681.62,-126 681.62,-158"/>
<text text-anchor="start" x="583.62" y="-144.5" font-family="Helvetica,sans-Serif" font-size="10.00">fcmaes.de.DE._next</text>
<text text-anchor="middle" x="628.62" y="-132.5" font-family="Helvetica,sans-Serif" font-size="10.00">_improve</text>
</a>
</g>
</g>
<!-- Node22&#45;&gt;Node23 -->
<g id="edge91_Node000022_Node000023" class="edge">
<title>Node22&#45;&gt;Node23</title>
<g id="a_edge91_Node000022_Node000023"><a xlink:title=" ">
<path fill="none" stroke="#63b8ff" d="M487.87,-142C511.7,-142 539.47,-142 563.94,-142"/>
<polygon fill="#63b8ff" stroke="#63b8ff" points="563.78,-145.5 573.78,-142 563.78,-138.5 563.78,-145.5"/>
</a>
</g>
</g>
<!-- Node24 -->
<g id="Node000024" class="node">
<title>Node24</title>
<g id="a_Node000024"><a xlink:href="$classfcmaes_1_1de_1_1_d_e.html#ac3453c9ebcc0897aedb6a53a8b93ffcd" xlink:title="Checks the feasibility of a value with respect to specified bounds and adjusts it if necessary by cli...">
<polygon fill="white" stroke="#666666" points="890.75,-149 769.75,-149 769.75,-129 890.75,-129 890.75,-149"/>
<text text-anchor="middle" x="830.25" y="-135.5" font-family="Helvetica,sans-Serif" font-size="10.00">fcmaes.de.DE._feasible</text>
</a>
</g>
</g>
<!-- Node23&#45;&gt;Node24 -->
<g id="edge92_Node000023_Node000024" class="edge">
<title>Node23&#45;&gt;Node24</title>
<g id="a_edge92_Node000023_Node000024"><a xlink:title=" ">
<path fill="none" stroke="#63b8ff" d="M682.07,-141.21C705.31,-140.86 733.02,-140.45 758.08,-140.07"/>
<polygon fill="#63b8ff" stroke="#63b8ff" points="757.93,-143.57 767.88,-139.92 757.82,-136.57 757.93,-143.57"/>
</a>
</g>
</g>
<!-- Node27 -->
<g id="Node000027" class="node">
<title>Node27</title>
<g id="a_Node000027"><a xlink:href="$classfcmaes_1_1mode_1_1_m_o_d_e.html#a29791dbcb2e070361529475630de2052" xlink:title="Updates the population by performing non&#45;dominated sorting, crowding distance sorting,...">
<polygon fill="white" stroke="#666666" points="493.12,-76 366.12,-76 366.12,-44 493.12,-44 493.12,-76"/>
<text text-anchor="start" x="374.12" y="-62.5" font-family="Helvetica,sans-Serif" font-size="10.00">fcmaes.mode.MODE.pop</text>
<text text-anchor="middle" x="429.62" y="-50.5" font-family="Helvetica,sans-Serif" font-size="10.00">_update</text>
</a>
</g>
</g>
<!-- Node26&#45;&gt;Node27 -->
<g id="edge95_Node000026_Node000027" class="edge">
<title>Node26&#45;&gt;Node27</title>
<g id="a_edge95_Node000026_Node000027"><a xlink:title=" ">
<path fill="none" stroke="#63b8ff" d="M300.13,-64.06C317.46,-63.51 336.5,-62.91 354.48,-62.34"/>
<polygon fill="#63b8ff" stroke="#63b8ff" points="354.43,-65.85 364.31,-62.03 354.2,-58.85 354.43,-65.85"/>
</a>
</g>
</g>
<!-- Node28 -->
<g id="Node000028" class="node">
<title>Node28</title>
<g id="a_Node000028"><a xlink:href="$namespacefcmaes_1_1mode.html#a0f27ab476c153a96dba3568003ab075a" xlink:title="Calculates the crowding distance for the first objective in a multi&#45;objective optimization problem.">
<polygon fill="white" stroke="#666666" points="691.38,-108 565.88,-108 565.88,-88 691.38,-88 691.38,-108"/>
<text text-anchor="middle" x="628.62" y="-94.5" font-family="Helvetica,sans-Serif" font-size="10.00">fcmaes.mode.crowd_dist</text>
</a>
</g>
</g>
<!-- Node27&#45;&gt;Node28 -->
<g id="edge96_Node000027_Node000028" class="edge">
<title>Node27&#45;&gt;Node28</title>
<g id="a_edge96_Node000027_Node000028"><a xlink:title=" ">
<path fill="none" stroke="#63b8ff" d="M493.5,-72.13C515.36,-76.35 539.93,-81.08 562.01,-85.34"/>
<polygon fill="#63b8ff" stroke="#63b8ff" points="561.33,-88.78 571.81,-87.23 562.66,-81.9 561.33,-88.78"/>
</a>
</g>
</g>
<!-- Node29 -->
<g id="Node000029" class="node">
<title>Node29</title>
<g id="a_Node000029"><a xlink:href="$namespacefcmaes_1_1mode.html#aee5b0cd4fba6d7edff0afe48a8bc636a" xlink:title="Determines Pareto domination levels for a set of solutions considering objectives and constraint viol...">
<polygon fill="white" stroke="#666666" points="681.25,-70 576,-70 576,-38 681.25,-38 681.25,-70"/>
<text text-anchor="start" x="584" y="-56.5" font-family="Helvetica,sans-Serif" font-size="10.00">fcmaes.mode.pareto</text>
<text text-anchor="middle" x="628.62" y="-44.5" font-family="Helvetica,sans-Serif" font-size="10.00">_domination</text>
</a>
</g>
</g>
<!-- Node27&#45;&gt;Node29 -->
<g id="edge97_Node000027_Node000029" class="edge">
<title>Node27&#45;&gt;Node29</title>
<g id="a_edge97_Node000027_Node000029"><a xlink:title=" ">
<path fill="none" stroke="#63b8ff" d="M493.5,-58.09C516.14,-57.4 541.67,-56.62 564.35,-55.93"/>
<polygon fill="#63b8ff" stroke="#63b8ff" points="564.16,-59.43 574.05,-55.63 563.95,-52.44 564.16,-59.43"/>
</a>
</g>
</g>
<!-- Node33 -->
<g id="Node000033" class="node">
<title>Node33</title>
<g id="a_Node000033"><a xlink:href="$namespacefcmaes_1_1mode.html#afba15234474d356adb0ed83aa94f73a6" xlink:title="Applies genetic variation operations, including simulated binary crossover (SBX) and polynomial mutat...">
<polygon fill="white" stroke="#666666" points="686.12,-20 571.12,-20 571.12,0 686.12,0 686.12,-20"/>
<text text-anchor="middle" x="628.62" y="-6.5" font-family="Helvetica,sans-Serif" font-size="10.00">fcmaes.mode.variation</text>
</a>
</g>
</g>
<!-- Node27&#45;&gt;Node33 -->
<g id="edge101_Node000027_Node000033" class="edge">
<title>Node27&#45;&gt;Node33</title>
<g id="a_edge101_Node000027_Node000033"><a xlink:title=" ">
<path fill="none" stroke="#63b8ff" d="M488.63,-43.57C506.28,-38.71 525.77,-33.5 543.75,-29 551.72,-27.01 560.13,-24.99 568.43,-23.06"/>
<polygon fill="#63b8ff" stroke="#63b8ff" points="569.2,-26.48 578.16,-20.82 567.63,-19.65 569.2,-26.48"/>
</a>
</g>
</g>
<!-- Node30 -->
<g id="Node000030" class="node">
<title>Node30</title>
<g id="a_Node000030"><a xlink:href="$namespacefcmaes_1_1mode.html#a64da91b9fe11c4db2c528851fe65f4e4" xlink:title="Computes the rank of objects based on their sum of ranks across all columns.">
<polygon fill="white" stroke="#666666" points="887.75,-108 772.75,-108 772.75,-88 887.75,-88 887.75,-108"/>
<text text-anchor="middle" x="830.25" y="-94.5" font-family="Helvetica,sans-Serif" font-size="10.00">fcmaes.mode.objranks</text>
</a>
</g>
</g>
<!-- Node29&#45;&gt;Node30 -->
<g id="edge98_Node000029_Node000030" class="edge">
<title>Node29&#45;&gt;Node30</title>
<g id="a_edge98_Node000029_Node000030"><a xlink:title=" ">
<path fill="none" stroke="#63b8ff" d="M681.55,-65.45C708.89,-71.47 742.5,-78.88 770.75,-85.1"/>
<polygon fill="#63b8ff" stroke="#63b8ff" points="769.69,-88.46 780.21,-87.19 771.19,-81.62 769.69,-88.46"/>
</a>
</g>
</g>
<!-- Node31 -->
<g id="Node000031" class="node">
<title>Node31</title>
<g id="a_Node000031"><a xlink:href="$namespacefcmaes_1_1mode.html#a2570992dd7d42219e4b1381adff7a710" xlink:title="Determines the Pareto levels of a given set of points.">
<polygon fill="white" stroke="#666666" points="882.88,-70 777.62,-70 777.62,-38 882.88,-38 882.88,-70"/>
<text text-anchor="start" x="785.62" y="-56.5" font-family="Helvetica,sans-Serif" font-size="10.00">fcmaes.mode.pareto</text>
<text text-anchor="middle" x="830.25" y="-44.5" font-family="Helvetica,sans-Serif" font-size="10.00">_levels</text>
</a>
</g>
</g>
<!-- Node29&#45;&gt;Node31 -->
<g id="edge99_Node000029_Node000031" class="edge">
<title>Node29&#45;&gt;Node31</title>
<g id="a_edge99_Node000029_Node000031"><a xlink:title=" ">
<path fill="none" stroke="#63b8ff" d="M681.55,-54C707.33,-54 738.69,-54 765.87,-54"/>
<polygon fill="#63b8ff" stroke="#63b8ff" points="765.72,-57.5 775.72,-54 765.72,-50.5 765.72,-57.5"/>
</a>
</g>
</g>
<!-- Node32 -->
<g id="Node000032" class="node">
<title>Node32</title>
<g id="a_Node000032"><a xlink:href="$namespacefcmaes_1_1mode.html#af072da864e0f91afc47942de9a8901a5" xlink:title="Computes the ranks of constraint values, adjusted by their feasibility and scaled by the fraction of ...">
<polygon fill="white" stroke="#666666" points="881.38,-20 779.12,-20 779.12,0 881.38,0 881.38,-20"/>
<text text-anchor="middle" x="830.25" y="-6.5" font-family="Helvetica,sans-Serif" font-size="10.00">fcmaes.mode.ranks</text>
</a>
</g>
</g>
<!-- Node29&#45;&gt;Node32 -->
<g id="edge100_Node000029_Node000032" class="edge">
<title>Node29&#45;&gt;Node32</title>
<g id="a_edge100_Node000029_Node000032"><a xlink:title=" ">
<path fill="none" stroke="#63b8ff" d="M681.55,-42.55C708.89,-36.53 742.5,-29.12 770.75,-22.9"/>
<polygon fill="#63b8ff" stroke="#63b8ff" points="771.19,-26.38 780.21,-20.81 769.69,-19.54 771.19,-26.38"/>
</a>
</g>
</g>
</g>
</svg>
