<?xml version="1.0" encoding="UTF-8" standalone="no"?>
<!DOCTYPE svg PUBLIC "-//W3C//DTD SVG 1.1//EN"
 "http://www.w3.org/Graphics/SVG/1.1/DTD/svg11.dtd">
<!-- Generated by graphviz version 12.2.1 (20241206.2353)
 -->
<!-- Title: CBitePop::getGaussianInt Pages: 1 -->
<svg width="545pt" height="28pt"
 viewBox="0.00 0.00 545.25 28.00" xmlns="http://www.w3.org/2000/svg" xmlns:xlink="http://www.w3.org/1999/xlink">
<g id="graph0" class="graph" transform="scale(1 1) rotate(0) translate(4 24)">
<title>CBitePop::getGaussianInt</title>
<!-- Node1 -->
<g id="Node000001" class="node">
<title>Node1</title>
<g id="a_Node000001"><a xlink:title=" ">
<polygon fill="#999999" stroke="#666666" points="130,-20 0,-20 0,0 130,0 130,-20"/>
<text text-anchor="middle" x="65" y="-6.5" font-family="Helvetica,sans-Serif" font-size="10.00">CBitePop::getGaussianInt</text>
</a>
</g>
</g>
<!-- Node2 -->
<g id="Node000002" class="node">
<title>Node2</title>
<g id="a_Node000002"><a xlink:href="$class_c_bite_rnd.html#a3f6c22ff1f6f19de24f7c837530f31c4" xlink:title=" ">
<polygon fill="white" stroke="#666666" points="285.5,-20 166,-20 166,0 285.5,0 285.5,-20"/>
<text text-anchor="middle" x="225.75" y="-6.5" font-family="Helvetica,sans-Serif" font-size="10.00">CBiteRnd::getGaussian</text>
</a>
</g>
</g>
<!-- Node1&#45;&gt;Node2 -->
<g id="edge7_Node000001_Node000002" class="edge">
<title>Node1&#45;&gt;Node2</title>
<g id="a_edge7_Node000001_Node000002"><a xlink:title=" ">
<path fill="none" stroke="#63b8ff" d="M130.11,-10C138.07,-10 146.23,-10 154.28,-10"/>
<polygon fill="#63b8ff" stroke="#63b8ff" points="154.02,-13.5 164.02,-10 154.02,-6.5 154.02,-13.5"/>
</a>
</g>
</g>
<!-- Node3 -->
<g id="Node000003" class="node">
<title>Node3</title>
<g id="a_Node000003"><a xlink:href="$class_c_bite_rnd.html#afdb77334884f1a612780def0dec0a326" xlink:title=" ">
<polygon fill="white" stroke="#666666" points="399.75,-20 321.5,-20 321.5,0 399.75,0 399.75,-20"/>
<text text-anchor="middle" x="360.62" y="-6.5" font-family="Helvetica,sans-Serif" font-size="10.00">CBiteRnd::get</text>
</a>
</g>
</g>
<!-- Node2&#45;&gt;Node3 -->
<g id="edge8_Node000002_Node000003" class="edge">
<title>Node2&#45;&gt;Node3</title>
<g id="a_edge8_Node000002_Node000003"><a xlink:title=" ">
<path fill="none" stroke="#63b8ff" d="M285.8,-10C293.91,-10 302.16,-10 310.07,-10"/>
<polygon fill="#63b8ff" stroke="#63b8ff" points="309.84,-13.5 319.84,-10 309.84,-6.5 309.84,-13.5"/>
</a>
</g>
</g>
<!-- Node4 -->
<g id="Node000004" class="node">
<title>Node4</title>
<g id="a_Node000004"><a xlink:href="$class_c_bite_rnd.html#ae1167f8ecac85f268ced4bc1d2fa953b" xlink:title=" ">
<polygon fill="white" stroke="#666666" points="537.25,-20 435.75,-20 435.75,0 537.25,0 537.25,-20"/>
<text text-anchor="middle" x="486.5" y="-6.5" font-family="Helvetica,sans-Serif" font-size="10.00">CBiteRnd::advance</text>
</a>
</g>
</g>
<!-- Node3&#45;&gt;Node4 -->
<g id="edge9_Node000003_Node000004" class="edge">
<title>Node3&#45;&gt;Node4</title>
<g id="a_edge9_Node000003_Node000004"><a xlink:title=" ">
<path fill="none" stroke="#63b8ff" d="M400.14,-10C407.77,-10 415.95,-10 424.12,-10"/>
<polygon fill="#63b8ff" stroke="#63b8ff" points="424.09,-13.5 434.09,-10 424.09,-6.5 424.09,-13.5"/>
</a>
</g>
</g>
</g>
</svg>
