<?xml version="1.0" encoding="UTF-8" standalone="no"?>
<!DOCTYPE svg PUBLIC "-//W3C//DTD SVG 1.1//EN"
 "http://www.w3.org/Graphics/SVG/1.1/DTD/svg11.dtd">
<!-- Generated by graphviz version 12.2.1 (20241206.2353)
 -->
<!-- Title: _fcmaescpp/daoptimizer.cpp Pages: 1 -->
<svg width="930pt" height="140pt"
 viewBox="0.00 0.00 930.25 140.00" xmlns="http://www.w3.org/2000/svg" xmlns:xlink="http://www.w3.org/1999/xlink">
<g id="graph0" class="graph" transform="scale(1 1) rotate(0) translate(4 136)">
<title>_fcmaescpp/daoptimizer.cpp</title>
<!-- Node1 -->
<g id="Node000001" class="node">
<title>Node1</title>
<g id="a_Node000001"><a xlink:title=" ">
<polygon fill="#999999" stroke="#666666" points="307,-132 165.75,-132 165.75,-112 307,-112 307,-132"/>
<text text-anchor="middle" x="236.38" y="-118.5" font-family="Helvetica,sans-Serif" font-size="10.00">_fcmaescpp/daoptimizer.cpp</text>
</a>
</g>
</g>
<!-- Node2 -->
<g id="Node000002" class="node">
<title>Node2</title>
<g id="a_Node000002"><a xlink:title=" ">
<polygon fill="#e0e0e0" stroke="#999999" points="64.75,-20 0,-20 0,0 64.75,0 64.75,-20"/>
<text text-anchor="middle" x="32.38" y="-6.5" font-family="Helvetica,sans-Serif" font-size="10.00">Eigen/Core</text>
</a>
</g>
</g>
<!-- Node1&#45;&gt;Node2 -->
<g id="edge33_Node000001_Node000002" class="edge">
<title>Node1&#45;&gt;Node2</title>
<g id="a_edge33_Node000001_Node000002"><a xlink:title=" ">
<path fill="none" stroke="#63b8ff" d="M165.48,-113.12C116.81,-106.18 58.11,-94.3 41.38,-76 30.55,-64.17 28.91,-45.69 29.63,-31.46"/>
<polygon fill="#63b8ff" stroke="#63b8ff" points="33.08,-32.11 30.54,-21.83 26.11,-31.45 33.08,-32.11"/>
</a>
</g>
</g>
<!-- Node3 -->
<g id="Node000003" class="node">
<title>Node3</title>
<g id="a_Node000003"><a xlink:title=" ">
<polygon fill="#e0e0e0" stroke="#999999" points="104.12,-76 50.62,-76 50.62,-56 104.12,-56 104.12,-76"/>
<text text-anchor="middle" x="77.38" y="-62.5" font-family="Helvetica,sans-Serif" font-size="10.00">iostream</text>
</a>
</g>
</g>
<!-- Node1&#45;&gt;Node3 -->
<g id="edge34_Node000001_Node000003" class="edge">
<title>Node1&#45;&gt;Node3</title>
<g id="a_edge34_Node000001_Node000003"><a xlink:title=" ">
<path fill="none" stroke="#63b8ff" d="M208.68,-111.59C182.84,-102.82 144.06,-89.65 115.34,-79.89"/>
<polygon fill="#63b8ff" stroke="#63b8ff" points="116.52,-76.6 105.92,-76.69 114.26,-83.22 116.52,-76.6"/>
</a>
</g>
</g>
<!-- Node4 -->
<g id="Node000004" class="node">
<title>Node4</title>
<g id="a_Node000004"><a xlink:title=" ">
<polygon fill="#e0e0e0" stroke="#999999" points="164.88,-76 121.88,-76 121.88,-56 164.88,-56 164.88,-76"/>
<text text-anchor="middle" x="143.38" y="-62.5" font-family="Helvetica,sans-Serif" font-size="10.00">float.h</text>
</a>
</g>
</g>
<!-- Node1&#45;&gt;Node4 -->
<g id="edge35_Node000001_Node000004" class="edge">
<title>Node1&#45;&gt;Node4</title>
<g id="a_edge35_Node000001_Node000004"><a xlink:title=" ">
<path fill="none" stroke="#63b8ff" d="M220.18,-111.59C206.13,-103.44 185.54,-91.48 169.22,-82"/>
<polygon fill="#63b8ff" stroke="#63b8ff" points="171.42,-79.23 161.01,-77.24 167.9,-85.29 171.42,-79.23"/>
</a>
</g>
</g>
<!-- Node5 -->
<g id="Node000005" class="node">
<title>Node5</title>
<g id="a_Node000005"><a xlink:title=" ">
<polygon fill="#e0e0e0" stroke="#999999" points="229.38,-76 183.38,-76 183.38,-56 229.38,-56 229.38,-76"/>
<text text-anchor="middle" x="206.38" y="-62.5" font-family="Helvetica,sans-Serif" font-size="10.00">math.h</text>
</a>
</g>
</g>
<!-- Node1&#45;&gt;Node5 -->
<g id="edge36_Node000001_Node000005" class="edge">
<title>Node1&#45;&gt;Node5</title>
<g id="a_edge36_Node000001_Node000005"><a xlink:title=" ">
<path fill="none" stroke="#63b8ff" d="M231.15,-111.59C227.28,-104.63 221.87,-94.89 217.09,-86.29"/>
<polygon fill="#63b8ff" stroke="#63b8ff" points="220.19,-84.66 212.28,-77.62 214.07,-88.06 220.19,-84.66"/>
</a>
</g>
</g>
<!-- Node6 -->
<g id="Node000006" class="node">
<title>Node6</title>
<g id="a_Node000006"><a xlink:title=" ">
<polygon fill="#e0e0e0" stroke="#999999" points="287.38,-76 247.38,-76 247.38,-56 287.38,-56 287.38,-76"/>
<text text-anchor="middle" x="267.38" y="-62.5" font-family="Helvetica,sans-Serif" font-size="10.00">ctime</text>
</a>
</g>
</g>
<!-- Node1&#45;&gt;Node6 -->
<g id="edge37_Node000001_Node000006" class="edge">
<title>Node1&#45;&gt;Node6</title>
<g id="a_edge37_Node000001_Node000006"><a xlink:title=" ">
<path fill="none" stroke="#63b8ff" d="M241.77,-111.59C245.82,-104.55 251.49,-94.67 256.47,-86"/>
<polygon fill="#63b8ff" stroke="#63b8ff" points="259.34,-88.03 261.28,-77.61 253.27,-84.54 259.34,-88.03"/>
</a>
</g>
</g>
<!-- Node7 -->
<g id="Node000007" class="node">
<title>Node7</title>
<g id="a_Node000007"><a xlink:title=" ">
<polygon fill="#e0e0e0" stroke="#999999" points="353.5,-76 305.25,-76 305.25,-56 353.5,-56 353.5,-76"/>
<text text-anchor="middle" x="329.38" y="-62.5" font-family="Helvetica,sans-Serif" font-size="10.00">random</text>
</a>
</g>
</g>
<!-- Node1&#45;&gt;Node7 -->
<g id="edge38_Node000001_Node000007" class="edge">
<title>Node1&#45;&gt;Node7</title>
<g id="a_edge38_Node000001_Node000007"><a xlink:title=" ">
<path fill="none" stroke="#63b8ff" d="M252.57,-111.59C266.62,-103.44 287.21,-91.48 303.53,-82"/>
<polygon fill="#63b8ff" stroke="#63b8ff" points="304.85,-85.29 311.74,-77.24 301.33,-79.23 304.85,-85.29"/>
</a>
</g>
</g>
<!-- Node8 -->
<g id="Node000008" class="node">
<title>Node8</title>
<g id="a_Node000008"><a xlink:href="$_l_b_f_g_s_b_8h.html" xlink:title=" ">
<polygon fill="white" stroke="#666666" points="435,-76 371.75,-76 371.75,-56 435,-56 435,-76"/>
<text text-anchor="middle" x="403.38" y="-62.5" font-family="Helvetica,sans-Serif" font-size="10.00">LBFGSB.h</text>
</a>
</g>
</g>
<!-- Node1&#45;&gt;Node8 -->
<g id="edge39_Node000001_Node000008" class="edge">
<title>Node1&#45;&gt;Node8</title>
<g id="a_edge39_Node000001_Node000008"><a xlink:title=" ">
<path fill="none" stroke="#63b8ff" d="M265.46,-111.59C292.6,-102.82 333.31,-89.66 363.47,-79.9"/>
<polygon fill="#63b8ff" stroke="#63b8ff" points="364.18,-83.35 372.62,-76.95 362.03,-76.69 364.18,-83.35"/>
</a>
</g>
</g>
<!-- Node16 -->
<g id="Node000016" class="node">
<title>Node16</title>
<g id="a_Node000016"><a xlink:title=" ">
<polygon fill="#e0e0e0" stroke="#999999" points="541.38,-76 453.38,-76 453.38,-56 541.38,-56 541.38,-76"/>
<text text-anchor="middle" x="497.38" y="-62.5" font-family="Helvetica,sans-Serif" font-size="10.00">pcg_random.hpp</text>
</a>
</g>
</g>
<!-- Node1&#45;&gt;Node16 -->
<g id="edge48_Node000001_Node000016" class="edge">
<title>Node1&#45;&gt;Node16</title>
<g id="a_edge48_Node000001_Node000016"><a xlink:title=" ">
<path fill="none" stroke="#63b8ff" d="M282.14,-111.53C326.67,-102.32 394.39,-88.31 441.95,-78.47"/>
<polygon fill="#63b8ff" stroke="#63b8ff" points="442.41,-81.95 451.49,-76.49 440.99,-75.09 442.41,-81.95"/>
</a>
</g>
</g>
<!-- Node8&#45;&gt;Node2 -->
<g id="edge42_Node000008_Node000002" class="edge">
<title>Node8&#45;&gt;Node2</title>
<g id="a_edge42_Node000008_Node000002"><a xlink:title=" ">
<path fill="none" stroke="#63b8ff" d="M371.65,-57.75C368.52,-57.12 365.39,-56.52 362.38,-56 239.2,-34.58 206.97,-38.87 83.38,-20 81.05,-19.64 78.67,-19.27 76.26,-18.88"/>
<polygon fill="#63b8ff" stroke="#63b8ff" points="76.92,-15.44 66.48,-17.24 75.76,-22.34 76.92,-15.44"/>
</a>
</g>
</g>
<!-- Node9 -->
<g id="Node000009" class="node">
<title>Node9</title>
<g id="a_Node000009"><a xlink:title=" ">
<polygon fill="#e0e0e0" stroke="#999999" points="150.75,-20 92,-20 92,0 150.75,0 150.75,-20"/>
<text text-anchor="middle" x="121.38" y="-6.5" font-family="Helvetica,sans-Serif" font-size="10.00">stdexcept</text>
</a>
</g>
</g>
<!-- Node8&#45;&gt;Node9 -->
<g id="edge40_Node000008_Node000009" class="edge">
<title>Node8&#45;&gt;Node9</title>
<g id="a_edge40_Node000008_Node000009"><a xlink:title=" ">
<path fill="none" stroke="#63b8ff" d="M371.62,-57.9C368.5,-57.24 365.38,-56.6 362.38,-56 276.43,-38.91 251.64,-38.28 162.37,-20.31"/>
<polygon fill="#63b8ff" stroke="#63b8ff" points="163.13,-16.9 152.63,-18.34 161.74,-23.76 163.13,-16.9"/>
</a>
</g>
</g>
<!-- Node10 -->
<g id="Node000010" class="node">
<title>Node10</title>
<g id="a_Node000010"><a xlink:title=" ">
<polygon fill="#e0e0e0" stroke="#999999" points="211.88,-20 168.88,-20 168.88,0 211.88,0 211.88,-20"/>
<text text-anchor="middle" x="190.38" y="-6.5" font-family="Helvetica,sans-Serif" font-size="10.00">vector</text>
</a>
</g>
</g>
<!-- Node8&#45;&gt;Node10 -->
<g id="edge41_Node000008_Node000010" class="edge">
<title>Node8&#45;&gt;Node10</title>
<g id="a_edge41_Node000008_Node000010"><a xlink:title=" ">
<path fill="none" stroke="#63b8ff" d="M371.38,-57.5C337.09,-49.37 280.8,-35.78 223.14,-20.39"/>
<polygon fill="#63b8ff" stroke="#63b8ff" points="224.39,-17.1 213.82,-17.89 222.57,-23.87 224.39,-17.1"/>
</a>
</g>
</g>
<!-- Node11 -->
<g id="Node000011" class="node">
<title>Node11</title>
<g id="a_Node000011"><a xlink:title=" ">
<polygon fill="#e0e0e0" stroke="#999999" points="328.62,-20 230.12,-20 230.12,0 328.62,0 328.62,-20"/>
<text text-anchor="middle" x="279.38" y="-6.5" font-family="Helvetica,sans-Serif" font-size="10.00">LBFGSpp/Param.h</text>
</a>
</g>
</g>
<!-- Node8&#45;&gt;Node11 -->
<g id="edge43_Node000008_Node000011" class="edge">
<title>Node8&#45;&gt;Node11</title>
<g id="a_edge43_Node000008_Node000011"><a xlink:title=" ">
<path fill="none" stroke="#63b8ff" d="M381.78,-55.59C362.42,-47.17 333.77,-34.69 311.69,-25.07"/>
<polygon fill="#63b8ff" stroke="#63b8ff" points="313.1,-21.87 302.53,-21.08 310.3,-28.29 313.1,-21.87"/>
</a>
</g>
</g>
<!-- Node12 -->
<g id="Node000012" class="node">
<title>Node12</title>
<g id="a_Node000012"><a xlink:title=" ">
<polygon fill="#e0e0e0" stroke="#999999" points="460.12,-20 346.62,-20 346.62,0 460.12,0 460.12,-20"/>
<text text-anchor="middle" x="403.38" y="-6.5" font-family="Helvetica,sans-Serif" font-size="10.00">LBFGSpp/BFGSMat.h</text>
</a>
</g>
</g>
<!-- Node8&#45;&gt;Node12 -->
<g id="edge44_Node000008_Node000012" class="edge">
<title>Node8&#45;&gt;Node12</title>
<g id="a_edge44_Node000008_Node000012"><a xlink:title=" ">
<path fill="none" stroke="#63b8ff" d="M403.38,-55.59C403.38,-49.01 403.38,-39.96 403.38,-31.73"/>
<polygon fill="#63b8ff" stroke="#63b8ff" points="406.88,-31.81 403.38,-21.81 399.88,-31.81 406.88,-31.81"/>
</a>
</g>
</g>
<!-- Node13 -->
<g id="Node000013" class="node">
<title>Node13</title>
<g id="a_Node000013"><a xlink:title=" ">
<polygon fill="#e0e0e0" stroke="#999999" points="580.88,-20 477.88,-20 477.88,0 580.88,0 580.88,-20"/>
<text text-anchor="middle" x="529.38" y="-6.5" font-family="Helvetica,sans-Serif" font-size="10.00">LBFGSpp/Cauchy.h</text>
</a>
</g>
</g>
<!-- Node8&#45;&gt;Node13 -->
<g id="edge45_Node000008_Node000013" class="edge">
<title>Node8&#45;&gt;Node13</title>
<g id="a_edge45_Node000008_Node000013"><a xlink:title=" ">
<path fill="none" stroke="#63b8ff" d="M425.32,-55.59C445.08,-47.13 474.37,-34.58 496.84,-24.94"/>
<polygon fill="#63b8ff" stroke="#63b8ff" points="498.05,-28.23 505.87,-21.08 495.29,-21.8 498.05,-28.23"/>
</a>
</g>
</g>
<!-- Node14 -->
<g id="Node000014" class="node">
<title>Node14</title>
<g id="a_Node000014"><a xlink:title=" ">
<polygon fill="#e0e0e0" stroke="#999999" points="728,-20 598.75,-20 598.75,0 728,0 728,-20"/>
<text text-anchor="middle" x="663.38" y="-6.5" font-family="Helvetica,sans-Serif" font-size="10.00">LBFGSpp/SubspaceMin.h</text>
</a>
</g>
</g>
<!-- Node8&#45;&gt;Node14 -->
<g id="edge46_Node000008_Node000014" class="edge">
<title>Node8&#45;&gt;Node14</title>
<g id="a_edge46_Node000008_Node000014"><a xlink:title=" ">
<path fill="none" stroke="#63b8ff" d="M435.15,-57.98C438.27,-57.31 441.38,-56.64 444.38,-56 498.86,-44.42 561.08,-31.68 605.24,-22.72"/>
<polygon fill="#63b8ff" stroke="#63b8ff" points="605.76,-26.19 614.86,-20.77 604.37,-19.33 605.76,-26.19"/>
</a>
</g>
</g>
<!-- Node15 -->
<g id="Node000015" class="node">
<title>Node15</title>
<g id="a_Node000015"><a xlink:title=" ">
<polygon fill="#e0e0e0" stroke="#999999" points="922.25,-20 746.5,-20 746.5,0 922.25,0 922.25,-20"/>
<text text-anchor="middle" x="834.38" y="-6.5" font-family="Helvetica,sans-Serif" font-size="10.00">LBFGSpp/LineSearchMoreThuente.h</text>
</a>
</g>
</g>
<!-- Node8&#45;&gt;Node15 -->
<g id="edge47_Node000008_Node000015" class="edge">
<title>Node8&#45;&gt;Node15</title>
<g id="a_edge47_Node000008_Node000015"><a xlink:title=" ">
<path fill="none" stroke="#63b8ff" d="M435.1,-57.7C438.22,-57.09 441.36,-56.5 444.38,-56 498.37,-46.98 638.17,-31.56 734.82,-21.33"/>
<polygon fill="#63b8ff" stroke="#63b8ff" points="735.01,-24.83 744.59,-20.29 734.27,-17.86 735.01,-24.83"/>
</a>
</g>
</g>
</g>
</svg>
