<?xml version="1.0" encoding="UTF-8" standalone="no"?>
<!DOCTYPE svg PUBLIC "-//W3C//DTD SVG 1.1//EN"
 "http://www.w3.org/Graphics/SVG/1.1/DTD/svg11.dtd">
<!-- Generated by graphviz version 12.2.1 (20241206.2353)
 -->
<!-- Title: rand01 Pages: 1 -->
<svg width="856pt" height="128pt"
 viewBox="0.00 0.00 856.00 128.00" xmlns="http://www.w3.org/2000/svg" xmlns:xlink="http://www.w3.org/1999/xlink">
<g id="graph0" class="graph" transform="scale(1 1) rotate(0) translate(4 124)">
<title>rand01</title>
<!-- Node1 -->
<g id="Node000001" class="node">
<title>Node1</title>
<g id="a_Node000001"><a xlink:title=" ">
<polygon fill="#999999" stroke="#666666" points="848,-70 802.75,-70 802.75,-50 848,-50 848,-70"/>
<text text-anchor="middle" x="825.38" y="-56.5" font-family="Helvetica,sans-Serif" font-size="10.00">rand01</text>
</a>
</g>
</g>
<!-- Node2 -->
<g id="Node000002" class="node">
<title>Node2</title>
<g id="a_Node000002"><a xlink:href="$classmode__optimizer_1_1_mo_de_optimizer.html#af3c43901c39d8ee6f6ec5fb1d02f327e" xlink:title=" ">
<polygon fill="white" stroke="#666666" points="766.75,-120 607.5,-120 607.5,-88 766.75,-88 766.75,-120"/>
<text text-anchor="start" x="615.5" y="-106.5" font-family="Helvetica,sans-Serif" font-size="10.00">mode_optimizer::MoDeOptimizer</text>
<text text-anchor="middle" x="687.12" y="-94.5" font-family="Helvetica,sans-Serif" font-size="10.00">::modify</text>
</a>
</g>
</g>
<!-- Node1&#45;&gt;Node2 -->
<g id="edge17_Node000001_Node000002" class="edge">
<title>Node1&#45;&gt;Node2</title>
<g id="a_edge17_Node000001_Node000002"><a xlink:title=" ">
<path fill="none" stroke="#63b8ff" d="M791.71,-70.55C775.97,-75.63 756.72,-81.85 739.11,-87.54"/>
<polygon fill="#63b8ff" stroke="#63b8ff" points="792.6,-73.94 801.04,-67.53 790.45,-67.28 792.6,-73.94"/>
</a>
</g>
</g>
<!-- Node3 -->
<g id="Node000003" class="node">
<title>Node3</title>
<g id="a_Node000003"><a xlink:href="$classmode__optimizer_1_1_mo_de_optimizer.html#ae0edab6fb47d84a669d402f893ff4b6f" xlink:title=" ">
<polygon fill="white" stroke="#666666" points="571.5,-101 412.25,-101 412.25,-69 571.5,-69 571.5,-101"/>
<text text-anchor="start" x="420.25" y="-87.5" font-family="Helvetica,sans-Serif" font-size="10.00">mode_optimizer::MoDeOptimizer</text>
<text text-anchor="middle" x="491.88" y="-75.5" font-family="Helvetica,sans-Serif" font-size="10.00">::nextX</text>
</a>
</g>
</g>
<!-- Node1&#45;&gt;Node3 -->
<g id="edge20_Node000001_Node000003" class="edge">
<title>Node1&#45;&gt;Node3</title>
<g id="a_edge20_Node000001_Node000003"><a xlink:title=" ">
<path fill="none" stroke="#63b8ff" d="M791.1,-62.51C740.27,-66.34 641.85,-73.77 571.99,-79.03"/>
<polygon fill="#63b8ff" stroke="#63b8ff" points="791.15,-66.02 800.86,-61.77 790.62,-59.04 791.15,-66.02"/>
</a>
</g>
</g>
<!-- Node5 -->
<g id="Node000005" class="node">
<title>Node5</title>
<g id="a_Node000005"><a xlink:href="$classmode__optimizer_1_1_mo_de_optimizer.html#a0455034273652829d554dd3858b4b6e1" xlink:title=" ">
<polygon fill="white" stroke="#666666" points="766.75,-32 607.5,-32 607.5,0 766.75,0 766.75,-32"/>
<text text-anchor="start" x="615.5" y="-18.5" font-family="Helvetica,sans-Serif" font-size="10.00">mode_optimizer::MoDeOptimizer</text>
<text text-anchor="middle" x="687.12" y="-6.5" font-family="Helvetica,sans-Serif" font-size="10.00">::variation</text>
</a>
</g>
</g>
<!-- Node1&#45;&gt;Node5 -->
<g id="edge21_Node000001_Node000005" class="edge">
<title>Node1&#45;&gt;Node5</title>
<g id="a_edge21_Node000001_Node000005"><a xlink:title=" ">
<path fill="none" stroke="#63b8ff" d="M791.71,-49.45C775.97,-44.37 756.72,-38.15 739.11,-32.46"/>
<polygon fill="#63b8ff" stroke="#63b8ff" points="790.45,-52.72 801.04,-52.47 792.6,-46.06 790.45,-52.72"/>
</a>
</g>
</g>
<!-- Node2&#45;&gt;Node3 -->
<g id="edge18_Node000002_Node000003" class="edge">
<title>Node2&#45;&gt;Node3</title>
<g id="a_edge18_Node000002_Node000003"><a xlink:title=" ">
<path fill="none" stroke="#63b8ff" d="M595.92,-95.13C587.87,-94.34 579.76,-93.54 571.82,-92.76"/>
<polygon fill="#63b8ff" stroke="#63b8ff" points="595.44,-98.6 605.74,-96.1 596.13,-91.63 595.44,-98.6"/>
</a>
</g>
</g>
<!-- Node4 -->
<g id="Node000004" class="node">
<title>Node4</title>
<g id="a_Node000004"><a xlink:href="$classmode__optimizer_1_1_mo_de_optimizer.html#a5abdc69324e8a71cfdebde3f5692e2ca" xlink:title=" ">
<polygon fill="white" stroke="#666666" points="376.25,-95 195.25,-95 195.25,-75 376.25,-75 376.25,-95"/>
<text text-anchor="middle" x="285.75" y="-81.5" font-family="Helvetica,sans-Serif" font-size="10.00">mode_optimizer::MoDeOptimizer::ask</text>
</a>
</g>
</g>
<!-- Node3&#45;&gt;Node4 -->
<g id="edge19_Node000003_Node000004" class="edge">
<title>Node3&#45;&gt;Node4</title>
<g id="a_edge19_Node000003_Node000004"><a xlink:title=" ">
<path fill="none" stroke="#63b8ff" d="M400.47,-85C392.57,-85 384.57,-85 376.67,-85"/>
<polygon fill="#63b8ff" stroke="#63b8ff" points="400.44,-88.5 410.44,-85 400.44,-81.5 400.44,-88.5"/>
</a>
</g>
</g>
<!-- Node6 -->
<g id="Node000006" class="node">
<title>Node6</title>
<g id="a_Node000006"><a xlink:href="$classmode__optimizer_1_1_mo_de_optimizer.html#a8941e256d6ff3843da336b4473513363" xlink:title=" ">
<polygon fill="white" stroke="#666666" points="571.5,-32 412.25,-32 412.25,0 571.5,0 571.5,-32"/>
<text text-anchor="start" x="420.25" y="-18.5" font-family="Helvetica,sans-Serif" font-size="10.00">mode_optimizer::MoDeOptimizer</text>
<text text-anchor="middle" x="491.88" y="-6.5" font-family="Helvetica,sans-Serif" font-size="10.00">::pop_update</text>
</a>
</g>
</g>
<!-- Node5&#45;&gt;Node6 -->
<g id="edge22_Node000005_Node000006" class="edge">
<title>Node5&#45;&gt;Node6</title>
<g id="a_edge22_Node000005_Node000006"><a xlink:title=" ">
<path fill="none" stroke="#63b8ff" d="M595.92,-16C587.87,-16 579.76,-16 571.82,-16"/>
<polygon fill="#63b8ff" stroke="#63b8ff" points="595.73,-19.5 605.73,-16 595.73,-12.5 595.73,-19.5"/>
</a>
</g>
</g>
<!-- Node7 -->
<g id="Node000007" class="node">
<title>Node7</title>
<g id="a_Node000007"><a xlink:href="$classmode__optimizer_1_1_mo_de_optimizer.html#abe30b3010caaf8d4648b31adfa127fd2" xlink:title=" ">
<polygon fill="white" stroke="#666666" points="365.38,-32 206.12,-32 206.12,0 365.38,0 365.38,-32"/>
<text text-anchor="start" x="214.12" y="-18.5" font-family="Helvetica,sans-Serif" font-size="10.00">mode_optimizer::MoDeOptimizer</text>
<text text-anchor="middle" x="285.75" y="-6.5" font-family="Helvetica,sans-Serif" font-size="10.00">::tell</text>
</a>
</g>
</g>
<!-- Node6&#45;&gt;Node7 -->
<g id="edge23_Node000006_Node000007" class="edge">
<title>Node6&#45;&gt;Node7</title>
<g id="a_edge23_Node000006_Node000007"><a xlink:title=" ">
<path fill="none" stroke="#63b8ff" d="M400.48,-16C388.92,-16 377.16,-16 365.8,-16"/>
<polygon fill="#63b8ff" stroke="#63b8ff" points="400.44,-19.5 410.44,-16 400.44,-12.5 400.44,-19.5"/>
</a>
</g>
</g>
<!-- Node8 -->
<g id="Node000008" class="node">
<title>Node8</title>
<g id="a_Node000008"><a xlink:href="$classmode__optimizer_1_1_mo_de_optimizer.html#a9d11baa8f5e4d3e4f68fe678918eb09a" xlink:title=" ">
<polygon fill="white" stroke="#666666" points="159.25,-32 0,-32 0,0 159.25,0 159.25,-32"/>
<text text-anchor="start" x="8" y="-18.5" font-family="Helvetica,sans-Serif" font-size="10.00">mode_optimizer::MoDeOptimizer</text>
<text text-anchor="middle" x="79.62" y="-6.5" font-family="Helvetica,sans-Serif" font-size="10.00">::tell</text>
</a>
</g>
</g>
<!-- Node7&#45;&gt;Node8 -->
<g id="edge24_Node000007_Node000008" class="edge">
<title>Node7&#45;&gt;Node8</title>
<g id="a_edge24_Node000007_Node000008"><a xlink:title=" ">
<path fill="none" stroke="#63b8ff" d="M194.36,-16C182.8,-16 171.03,-16 159.67,-16"/>
<polygon fill="#63b8ff" stroke="#63b8ff" points="194.32,-19.5 204.32,-16 194.32,-12.5 194.32,-19.5"/>
</a>
</g>
</g>
</g>
</svg>
