<?xml version="1.0" encoding="UTF-8" standalone="no"?>
<!DOCTYPE svg PUBLIC "-//W3C//DTD SVG 1.1//EN"
 "http://www.w3.org/Graphics/SVG/1.1/DTD/svg11.dtd">
<!-- Generated by graphviz version 12.2.1 (20241206.2353)
 -->
<!-- Title: _fcmaescpp/include/evaluator.h Pages: 1 -->
<svg width="810pt" height="96pt"
 viewBox="0.00 0.00 810.38 96.00" xmlns="http://www.w3.org/2000/svg" xmlns:xlink="http://www.w3.org/1999/xlink">
<g id="graph0" class="graph" transform="scale(1 1) rotate(0) translate(4 92)">
<title>_fcmaescpp/include/evaluator.h</title>
<!-- Node1 -->
<g id="Node000001" class="node">
<title>Node1</title>
<g id="a_Node000001"><a xlink:title=" ">
<polygon fill="#999999" stroke="#666666" points="422.88,-88 319.88,-88 319.88,-56 422.88,-56 422.88,-88"/>
<text text-anchor="start" x="327.88" y="-74.5" font-family="Helvetica,sans-Serif" font-size="10.00">_fcmaescpp/include</text>
<text text-anchor="middle" x="371.38" y="-62.5" font-family="Helvetica,sans-Serif" font-size="10.00">/evaluator.h</text>
</a>
</g>
</g>
<!-- Node2 -->
<g id="Node000002" class="node">
<title>Node2</title>
<g id="a_Node000002"><a xlink:title=" ">
<polygon fill="#e0e0e0" stroke="#999999" points="64.75,-20 0,-20 0,0 64.75,0 64.75,-20"/>
<text text-anchor="middle" x="32.38" y="-6.5" font-family="Helvetica,sans-Serif" font-size="10.00">Eigen/Core</text>
</a>
</g>
</g>
<!-- Node1&#45;&gt;Node2 -->
<g id="edge23_Node000001_Node000002" class="edge">
<title>Node1&#45;&gt;Node2</title>
<g id="a_edge23_Node000001_Node000002"><a xlink:title=" ">
<path fill="none" stroke="#63b8ff" d="M319.56,-62.88C262.33,-53.75 167.2,-38.08 76.11,-20.47"/>
<polygon fill="#63b8ff" stroke="#63b8ff" points="76.99,-17.07 66.51,-18.6 75.65,-23.94 76.99,-17.07"/>
</a>
</g>
</g>
<!-- Node3 -->
<g id="Node000003" class="node">
<title>Node3</title>
<g id="a_Node000003"><a xlink:title=" ">
<polygon fill="#e0e0e0" stroke="#999999" points="136.12,-20 82.62,-20 82.62,0 136.12,0 136.12,-20"/>
<text text-anchor="middle" x="109.38" y="-6.5" font-family="Helvetica,sans-Serif" font-size="10.00">iostream</text>
</a>
</g>
</g>
<!-- Node1&#45;&gt;Node3 -->
<g id="edge24_Node000001_Node000003" class="edge">
<title>Node1&#45;&gt;Node3</title>
<g id="a_edge24_Node000001_Node000003"><a xlink:title=" ">
<path fill="none" stroke="#63b8ff" d="M319.69,-59.69C276.25,-50.11 212.24,-35.8 147.33,-20.43"/>
<polygon fill="#63b8ff" stroke="#63b8ff" points="148.5,-17.1 137.96,-18.2 146.88,-23.92 148.5,-17.1"/>
</a>
</g>
</g>
<!-- Node4 -->
<g id="Node000004" class="node">
<title>Node4</title>
<g id="a_Node000004"><a xlink:title=" ">
<polygon fill="#e0e0e0" stroke="#999999" points="210.25,-20 154.5,-20 154.5,0 210.25,0 210.25,-20"/>
<text text-anchor="middle" x="182.38" y="-6.5" font-family="Helvetica,sans-Serif" font-size="10.00">algorithm</text>
</a>
</g>
</g>
<!-- Node1&#45;&gt;Node4 -->
<g id="edge25_Node000001_Node000004" class="edge">
<title>Node1&#45;&gt;Node4</title>
<g id="a_edge25_Node000001_Node000004"><a xlink:title=" ">
<path fill="none" stroke="#63b8ff" d="M322.7,-55.55C291.18,-45.54 250.69,-32.69 221.31,-23.36"/>
<polygon fill="#63b8ff" stroke="#63b8ff" points="222.67,-20.12 212.08,-20.43 220.55,-26.79 222.67,-20.12"/>
</a>
</g>
</g>
<!-- Node5 -->
<g id="Node000005" class="node">
<title>Node5</title>
<g id="a_Node000005"><a xlink:title=" ">
<polygon fill="#e0e0e0" stroke="#999999" points="270.5,-20 228.25,-20 228.25,0 270.5,0 270.5,-20"/>
<text text-anchor="middle" x="249.38" y="-6.5" font-family="Helvetica,sans-Serif" font-size="10.00">queue</text>
</a>
</g>
</g>
<!-- Node1&#45;&gt;Node5 -->
<g id="edge26_Node000001_Node000005" class="edge">
<title>Node1&#45;&gt;Node5</title>
<g id="a_edge26_Node000001_Node000005"><a xlink:title=" ">
<path fill="none" stroke="#63b8ff" d="M339.96,-55.55C321.07,-46.26 297.19,-34.52 278.7,-25.42"/>
<polygon fill="#63b8ff" stroke="#63b8ff" points="280.38,-22.35 269.86,-21.08 277.29,-28.63 280.38,-22.35"/>
</a>
</g>
</g>
<!-- Node6 -->
<g id="Node000006" class="node">
<title>Node6</title>
<g id="a_Node000006"><a xlink:title=" ">
<polygon fill="#e0e0e0" stroke="#999999" points="331.88,-20 288.88,-20 288.88,0 331.88,0 331.88,-20"/>
<text text-anchor="middle" x="310.38" y="-6.5" font-family="Helvetica,sans-Serif" font-size="10.00">mutex</text>
</a>
</g>
</g>
<!-- Node1&#45;&gt;Node6 -->
<g id="edge27_Node000001_Node000006" class="edge">
<title>Node1&#45;&gt;Node6</title>
<g id="a_edge27_Node000001_Node000006"><a xlink:title=" ">
<path fill="none" stroke="#63b8ff" d="M355.67,-55.55C347.19,-47.22 336.71,-36.91 327.97,-28.3"/>
<polygon fill="#63b8ff" stroke="#63b8ff" points="330.6,-25.99 321.02,-21.47 325.69,-30.98 330.6,-25.99"/>
</a>
</g>
</g>
<!-- Node7 -->
<g id="Node000007" class="node">
<title>Node7</title>
<g id="a_Node000007"><a xlink:title=" ">
<polygon fill="#e0e0e0" stroke="#999999" points="392.88,-20 349.88,-20 349.88,0 392.88,0 392.88,-20"/>
<text text-anchor="middle" x="371.38" y="-6.5" font-family="Helvetica,sans-Serif" font-size="10.00">thread</text>
</a>
</g>
</g>
<!-- Node1&#45;&gt;Node7 -->
<g id="edge28_Node000001_Node000007" class="edge">
<title>Node1&#45;&gt;Node7</title>
<g id="a_edge28_Node000001_Node000007"><a xlink:title=" ">
<path fill="none" stroke="#63b8ff" d="M371.38,-55.55C371.38,-48.34 371.38,-39.66 371.38,-31.88"/>
<polygon fill="#63b8ff" stroke="#63b8ff" points="374.88,-31.92 371.38,-21.92 367.88,-31.92 374.88,-31.92"/>
</a>
</g>
</g>
<!-- Node8 -->
<g id="Node000008" class="node">
<title>Node8</title>
<g id="a_Node000008"><a xlink:title=" ">
<polygon fill="#e0e0e0" stroke="#999999" points="459.5,-20 411.25,-20 411.25,0 459.5,0 459.5,-20"/>
<text text-anchor="middle" x="435.38" y="-6.5" font-family="Helvetica,sans-Serif" font-size="10.00">random</text>
</a>
</g>
</g>
<!-- Node1&#45;&gt;Node8 -->
<g id="edge29_Node000001_Node000008" class="edge">
<title>Node1&#45;&gt;Node8</title>
<g id="a_edge29_Node000001_Node000008"><a xlink:title=" ">
<path fill="none" stroke="#63b8ff" d="M387.86,-55.55C396.84,-47.13 407.97,-36.69 417.2,-28.04"/>
<polygon fill="#63b8ff" stroke="#63b8ff" points="419.33,-30.84 424.24,-21.44 414.55,-25.73 419.33,-30.84"/>
</a>
</g>
</g>
<!-- Node9 -->
<g id="Node000009" class="node">
<title>Node9</title>
<g id="a_Node000009"><a xlink:title=" ">
<polygon fill="#e0e0e0" stroke="#999999" points="520.88,-20 477.88,-20 477.88,0 520.88,0 520.88,-20"/>
<text text-anchor="middle" x="499.38" y="-6.5" font-family="Helvetica,sans-Serif" font-size="10.00">vector</text>
</a>
</g>
</g>
<!-- Node1&#45;&gt;Node9 -->
<g id="edge30_Node000001_Node000009" class="edge">
<title>Node1&#45;&gt;Node9</title>
<g id="a_edge30_Node000001_Node000009"><a xlink:title=" ">
<path fill="none" stroke="#63b8ff" d="M404.34,-55.55C424.25,-46.22 449.44,-34.41 468.88,-25.29"/>
<polygon fill="#63b8ff" stroke="#63b8ff" points="470.37,-28.46 477.93,-21.05 467.39,-22.13 470.37,-28.46"/>
</a>
</g>
</g>
<!-- Node10 -->
<g id="Node000010" class="node">
<title>Node10</title>
<g id="a_Node000010"><a xlink:title=" ">
<polygon fill="#e0e0e0" stroke="#999999" points="584,-20 538.75,-20 538.75,0 584,0 584,-20"/>
<text text-anchor="middle" x="561.38" y="-6.5" font-family="Helvetica,sans-Serif" font-size="10.00">chrono</text>
</a>
</g>
</g>
<!-- Node1&#45;&gt;Node10 -->
<g id="edge31_Node000001_Node000010" class="edge">
<title>Node1&#45;&gt;Node10</title>
<g id="a_edge31_Node000001_Node000010"><a xlink:title=" ">
<path fill="none" stroke="#63b8ff" d="M420.3,-55.55C454.04,-44.9 498,-31.01 527.82,-21.6"/>
<polygon fill="#63b8ff" stroke="#63b8ff" points="528.58,-25.03 537.06,-18.68 526.47,-18.35 528.58,-25.03"/>
</a>
</g>
</g>
<!-- Node11 -->
<g id="Node000011" class="node">
<title>Node11</title>
<g id="a_Node000011"><a xlink:title=" ">
<polygon fill="#e0e0e0" stroke="#999999" points="696.38,-20 602.38,-20 602.38,0 696.38,0 696.38,-20"/>
<text text-anchor="middle" x="649.38" y="-6.5" font-family="Helvetica,sans-Serif" font-size="10.00">condition_variable</text>
</a>
</g>
</g>
<!-- Node1&#45;&gt;Node11 -->
<g id="edge32_Node000001_Node000011" class="edge">
<title>Node1&#45;&gt;Node11</title>
<g id="a_edge32_Node000001_Node000011"><a xlink:title=" ">
<path fill="none" stroke="#63b8ff" d="M423.34,-59.78C472.04,-49.27 544.58,-33.62 594.27,-22.89"/>
<polygon fill="#63b8ff" stroke="#63b8ff" points="594.93,-26.33 603.96,-20.8 593.45,-19.49 594.93,-26.33"/>
</a>
</g>
</g>
<!-- Node12 -->
<g id="Node000012" class="node">
<title>Node12</title>
<g id="a_Node000012"><a xlink:title=" ">
<polygon fill="#e0e0e0" stroke="#999999" points="802.38,-20 714.38,-20 714.38,0 802.38,0 802.38,-20"/>
<text text-anchor="middle" x="758.38" y="-6.5" font-family="Helvetica,sans-Serif" font-size="10.00">pcg_random.hpp</text>
</a>
</g>
</g>
<!-- Node1&#45;&gt;Node12 -->
<g id="edge33_Node000001_Node000012" class="edge">
<title>Node1&#45;&gt;Node12</title>
<g id="a_edge33_Node000001_Node000012"><a xlink:title=" ">
<path fill="none" stroke="#63b8ff" d="M423.2,-63.36C486.65,-53.95 597.7,-37.27 702.98,-20.36"/>
<polygon fill="#63b8ff" stroke="#63b8ff" points="703.33,-23.85 712.64,-18.81 702.21,-16.94 703.33,-23.85"/>
</a>
</g>
</g>
</g>
</svg>
