<?xml version="1.0" encoding="UTF-8" standalone="no"?>
<!DOCTYPE svg PUBLIC "-//W3C//DTD SVG 1.1//EN"
 "http://www.w3.org/Graphics/SVG/1.1/DTD/svg11.dtd">
<!-- Generated by graphviz version 12.2.1 (20241206.2353)
 -->
<!-- Title: noop_callback Pages: 1 -->
<svg width="238pt" height="256pt"
 viewBox="0.00 0.00 238.00 256.00" xmlns="http://www.w3.org/2000/svg" xmlns:xlink="http://www.w3.org/1999/xlink">
<g id="graph0" class="graph" transform="scale(1 1) rotate(0) translate(4 252)">
<title>noop_callback</title>
<!-- Node1 -->
<g id="Node000001" class="node">
<title>Node1</title>
<g id="a_Node000001"><a xlink:title=" ">
<polygon fill="#999999" stroke="#666666" points="230,-134 151.75,-134 151.75,-114 230,-114 230,-134"/>
<text text-anchor="middle" x="190.88" y="-120.5" font-family="Helvetica,sans-Serif" font-size="10.00">noop_callback</text>
</a>
</g>
</g>
<!-- Node2 -->
<g id="Node000002" class="node">
<title>Node2</title>
<g id="a_Node000002"><a xlink:href="$acmaesoptimizer_8cpp.html#ab128d45080b4023edb28550611997afe" xlink:title=" ">
<polygon fill="white" stroke="#666666" points="93.25,-248 22.5,-248 22.5,-228 93.25,-228 93.25,-248"/>
<text text-anchor="middle" x="57.88" y="-234.5" font-family="Helvetica,sans-Serif" font-size="10.00">initACMA_C</text>
</a>
</g>
</g>
<!-- Node1&#45;&gt;Node2 -->
<g id="edge15_Node000001_Node000002" class="edge">
<title>Node1&#45;&gt;Node2</title>
<g id="a_edge15_Node000001_Node000002"><a xlink:title=" ">
<path fill="none" stroke="#63b8ff" d="M178.78,-144.51C166.17,-165.98 143.68,-199.26 115.75,-219 109.12,-223.69 101.25,-227.28 93.51,-230.01"/>
<polygon fill="#63b8ff" stroke="#63b8ff" points="181.82,-146.24 183.7,-135.81 175.73,-142.79 181.82,-146.24"/>
</a>
</g>
</g>
<!-- Node3 -->
<g id="Node000003" class="node">
<title>Node3</title>
<g id="a_Node000003"><a xlink:href="$crfmnes_8cpp.html#a8ad70c1b6cadd1ed7b3bfa0d60d96911" xlink:title=" ">
<polygon fill="white" stroke="#666666" points="103.75,-210 12,-210 12,-190 103.75,-190 103.75,-210"/>
<text text-anchor="middle" x="57.88" y="-196.5" font-family="Helvetica,sans-Serif" font-size="10.00">initCRFMNES_C</text>
</a>
</g>
</g>
<!-- Node1&#45;&gt;Node3 -->
<g id="edge16_Node000001_Node000003" class="edge">
<title>Node1&#45;&gt;Node3</title>
<g id="a_edge16_Node000001_Node000003"><a xlink:title=" ">
<path fill="none" stroke="#63b8ff" d="M170.7,-141.64C156.42,-154.03 135.97,-170.24 115.75,-181 109.59,-184.28 102.76,-187.14 96.03,-189.58"/>
<polygon fill="#63b8ff" stroke="#63b8ff" points="172.85,-144.41 178,-135.15 168.2,-139.18 172.85,-144.41"/>
</a>
</g>
</g>
<!-- Node4 -->
<g id="Node000004" class="node">
<title>Node4</title>
<g id="a_Node000004"><a xlink:href="$deoptimizer_8cpp.html#a8af4088f11fb8bc902b5a17f4b3c67f4" xlink:title=" ">
<polygon fill="white" stroke="#666666" points="85.75,-172 30,-172 30,-152 85.75,-152 85.75,-172"/>
<text text-anchor="middle" x="57.88" y="-158.5" font-family="Helvetica,sans-Serif" font-size="10.00">initDE_C</text>
</a>
</g>
</g>
<!-- Node1&#45;&gt;Node4 -->
<g id="edge17_Node000001_Node000004" class="edge">
<title>Node1&#45;&gt;Node4</title>
<g id="a_edge17_Node000001_Node000004"><a xlink:title=" ">
<path fill="none" stroke="#63b8ff" d="M142.85,-137.64C123.83,-143.16 102.55,-149.33 86.17,-154.08"/>
<polygon fill="#63b8ff" stroke="#63b8ff" points="143.65,-141.05 152.28,-134.91 141.7,-134.33 143.65,-141.05"/>
</a>
</g>
</g>
<!-- Node5 -->
<g id="Node000005" class="node">
<title>Node5</title>
<g id="a_Node000005"><a xlink:href="$modeoptimizer_8cpp.html#a53418a6215cc2512fc8379c813113f7f" xlink:title=" ">
<polygon fill="white" stroke="#666666" points="93.62,-134 22.12,-134 22.12,-114 93.62,-114 93.62,-134"/>
<text text-anchor="middle" x="57.88" y="-120.5" font-family="Helvetica,sans-Serif" font-size="10.00">initMODE_C</text>
</a>
</g>
</g>
<!-- Node1&#45;&gt;Node5 -->
<g id="edge18_Node000001_Node000005" class="edge">
<title>Node1&#45;&gt;Node5</title>
<g id="a_edge18_Node000001_Node000005"><a xlink:title=" ">
<path fill="none" stroke="#63b8ff" d="M139.89,-124C124.61,-124 108.14,-124 94.07,-124"/>
<polygon fill="#63b8ff" stroke="#63b8ff" points="139.77,-127.5 149.77,-124 139.77,-120.5 139.77,-127.5"/>
</a>
</g>
</g>
<!-- Node6 -->
<g id="Node000006" class="node">
<title>Node6</title>
<g id="a_Node000006"><a xlink:href="$pgpe_8cpp.html#a15e7e7ada6ad4ab26263681ac00ac55b" xlink:title=" ">
<polygon fill="white" stroke="#666666" points="92.5,-96 23.25,-96 23.25,-76 92.5,-76 92.5,-96"/>
<text text-anchor="middle" x="57.88" y="-82.5" font-family="Helvetica,sans-Serif" font-size="10.00">initPGPE_C</text>
</a>
</g>
</g>
<!-- Node1&#45;&gt;Node6 -->
<g id="edge19_Node000001_Node000006" class="edge">
<title>Node1&#45;&gt;Node6</title>
<g id="a_edge19_Node000001_Node000006"><a xlink:title=" ">
<path fill="none" stroke="#63b8ff" d="M143.09,-110.43C126.43,-105.6 108.01,-100.25 92.65,-95.8"/>
<polygon fill="#63b8ff" stroke="#63b8ff" points="141.7,-113.67 152.28,-113.09 143.65,-106.95 141.7,-113.67"/>
</a>
</g>
</g>
<!-- Node7 -->
<g id="Node000007" class="node">
<title>Node7</title>
<g id="a_Node000007"><a xlink:href="$crfmnes_8cpp.html#a9081791c22cd931e965641b985273b52" xlink:title=" ">
<polygon fill="white" stroke="#666666" points="115.75,-58 0,-58 0,-38 115.75,-38 115.75,-58"/>
<text text-anchor="middle" x="57.88" y="-44.5" font-family="Helvetica,sans-Serif" font-size="10.00">optimizeCRFMNES_C</text>
</a>
</g>
</g>
<!-- Node1&#45;&gt;Node7 -->
<g id="edge20_Node000001_Node000007" class="edge">
<title>Node1&#45;&gt;Node7</title>
<g id="a_edge20_Node000001_Node000007"><a xlink:title=" ">
<path fill="none" stroke="#63b8ff" d="M170.7,-106.36C156.42,-93.97 135.97,-77.76 115.75,-67 109.59,-63.72 102.76,-60.86 96.03,-58.42"/>
<polygon fill="#63b8ff" stroke="#63b8ff" points="168.2,-108.82 178,-112.85 172.85,-103.59 168.2,-108.82"/>
</a>
</g>
</g>
<!-- Node8 -->
<g id="Node000008" class="node">
<title>Node8</title>
<g id="a_Node000008"><a xlink:href="$pgpe_8cpp.html#a83f6d1c91509d2c28e236afbea4bd172" xlink:title=" ">
<polygon fill="white" stroke="#666666" points="104.5,-20 11.25,-20 11.25,0 104.5,0 104.5,-20"/>
<text text-anchor="middle" x="57.88" y="-6.5" font-family="Helvetica,sans-Serif" font-size="10.00">optimizePGPE_C</text>
</a>
</g>
</g>
<!-- Node1&#45;&gt;Node8 -->
<g id="edge21_Node000001_Node000008" class="edge">
<title>Node1&#45;&gt;Node8</title>
<g id="a_edge21_Node000001_Node000008"><a xlink:title=" ">
<path fill="none" stroke="#63b8ff" d="M178.78,-103.49C166.17,-82.02 143.68,-48.74 115.75,-29 110.9,-25.57 105.4,-22.73 99.76,-20.38"/>
<polygon fill="#63b8ff" stroke="#63b8ff" points="175.73,-105.21 183.7,-112.19 181.82,-101.76 175.73,-105.21"/>
</a>
</g>
</g>
</g>
</svg>
