<?xml version="1.0" encoding="UTF-8" standalone="no"?>
<!DOCTYPE svg PUBLIC "-//W3C//DTD SVG 1.1//EN"
 "http://www.w3.org/Graphics/SVG/1.1/DTD/svg11.dtd">
<!-- Generated by graphviz version 12.2.1 (20241206.2353)
 -->
<!-- Title: initMODE_C Pages: 1 -->
<svg width="213pt" height="66pt"
 viewBox="0.00 0.00 212.50 66.00" xmlns="http://www.w3.org/2000/svg" xmlns:xlink="http://www.w3.org/1999/xlink">
<g id="graph0" class="graph" transform="scale(1 1) rotate(0) translate(4 62)">
<title>initMODE_C</title>
<!-- Node1 -->
<g id="Node000001" class="node">
<title>Node1</title>
<g id="a_Node000001"><a xlink:title=" ">
<polygon fill="#999999" stroke="#666666" points="71.5,-39 0,-39 0,-19 71.5,-19 71.5,-39"/>
<text text-anchor="middle" x="35.75" y="-25.5" font-family="Helvetica,sans-Serif" font-size="10.00">initMODE_C</text>
</a>
</g>
</g>
<!-- Node2 -->
<g id="Node000002" class="node">
<title>Node2</title>
<g id="a_Node000002"><a xlink:href="$evaluator_8h.html#ad0943ebd623281f526e5aee2aa818895" xlink:title=" ">
<polygon fill="white" stroke="#666666" points="195.12,-58 116.88,-58 116.88,-38 195.12,-38 195.12,-58"/>
<text text-anchor="middle" x="156" y="-44.5" font-family="Helvetica,sans-Serif" font-size="10.00">noop_callback</text>
</a>
</g>
</g>
<!-- Node1&#45;&gt;Node2 -->
<g id="edge5_Node000001_Node000002" class="edge">
<title>Node1&#45;&gt;Node2</title>
<g id="a_edge5_Node000001_Node000002"><a xlink:title=" ">
<path fill="none" stroke="#63b8ff" d="M71.91,-34.65C82.43,-36.34 94.16,-38.23 105.43,-40.03"/>
<polygon fill="#63b8ff" stroke="#63b8ff" points="104.54,-43.44 114.97,-41.57 105.65,-36.53 104.54,-43.44"/>
</a>
</g>
</g>
<!-- Node3 -->
<g id="Node000003" class="node">
<title>Node3</title>
<g id="a_Node000003"><a xlink:href="$evaluator_8h.html#ac05c49788a31e5f7cb8efbe8ca3b548e" xlink:title=" ">
<polygon fill="white" stroke="#666666" points="204.5,-20 107.5,-20 107.5,0 204.5,0 204.5,-20"/>
<text text-anchor="middle" x="156" y="-6.5" font-family="Helvetica,sans-Serif" font-size="10.00">noop_callback_par</text>
</a>
</g>
</g>
<!-- Node1&#45;&gt;Node3 -->
<g id="edge6_Node000001_Node000003" class="edge">
<title>Node1&#45;&gt;Node3</title>
<g id="a_edge6_Node000001_Node000003"><a xlink:title=" ">
<path fill="none" stroke="#63b8ff" d="M71.91,-23.35C79.49,-22.13 87.71,-20.81 95.92,-19.49"/>
<polygon fill="#63b8ff" stroke="#63b8ff" points="96.25,-22.98 105.57,-17.94 95.14,-16.07 96.25,-22.98"/>
</a>
</g>
</g>
</g>
</svg>
