<?xml version="1.0" encoding="UTF-8" standalone="no"?>
<!DOCTYPE svg PUBLIC "-//W3C//DTD SVG 1.1//EN"
 "http://www.w3.org/Graphics/SVG/1.1/DTD/svg11.dtd">
<!-- Generated by graphviz version 12.2.1 (20241206.2353)
 -->
<!-- Title: examples.gear_train.test_optimizer_adv Pages: 1 -->
<svg width="632pt" height="78pt"
 viewBox="0.00 0.00 631.50 78.00" xmlns="http://www.w3.org/2000/svg" xmlns:xlink="http://www.w3.org/1999/xlink">
<g id="graph0" class="graph" transform="scale(1 1) rotate(0) translate(4 74)">
<title>examples.gear_train.test_optimizer_adv</title>
<!-- Node1 -->
<g id="Node000001" class="node">
<title>Node1</title>
<g id="a_Node000001"><a xlink:title=" ">
<polygon fill="#999999" stroke="#666666" points="123.25,-48 0,-48 0,-16 123.25,-16 123.25,-48"/>
<text text-anchor="start" x="8" y="-34.5" font-family="Helvetica,sans-Serif" font-size="10.00">examples.gear_train.test</text>
<text text-anchor="middle" x="61.62" y="-22.5" font-family="Helvetica,sans-Serif" font-size="10.00">_optimizer_adv</text>
</a>
</g>
</g>
<!-- Node1&#45;&gt;Node1 -->
<g id="edge15_Node000001_Node000001" class="edge">
<title>Node1&#45;&gt;Node1</title>
<g id="a_edge15_Node000001_Node000001"><a xlink:title=" ">
<path fill="none" stroke="#63b8ff" d="M32.99,-48.44C27.65,-57.58 37.19,-66 61.62,-66 74.99,-66 83.89,-63.48 88.35,-59.71"/>
<polygon fill="#63b8ff" stroke="#63b8ff" points="91.79,-60.38 90,-49.94 84.88,-59.21 91.79,-60.38"/>
</a>
</g>
</g>
<!-- Node2 -->
<g id="Node000002" class="node">
<title>Node2</title>
<g id="a_Node000002"><a xlink:href="$namespaceexamples_1_1gear__train.html#a5f77cab0f2182c613735dba90ac0a2b2" xlink:title=" ">
<polygon fill="white" stroke="#666666" points="284.75,-48 159.25,-48 159.25,-16 284.75,-16 284.75,-48"/>
<text text-anchor="start" x="167.25" y="-34.5" font-family="Helvetica,sans-Serif" font-size="10.00">examples.gear_train.print</text>
<text text-anchor="middle" x="222" y="-22.5" font-family="Helvetica,sans-Serif" font-size="10.00">_result</text>
</a>
</g>
</g>
<!-- Node1&#45;&gt;Node2 -->
<g id="edge11_Node000001_Node000002" class="edge">
<title>Node1&#45;&gt;Node2</title>
<g id="a_edge11_Node000001_Node000002"><a xlink:title=" ">
<path fill="none" stroke="#63b8ff" d="M123.4,-32C131.29,-32 139.43,-32 147.5,-32"/>
<polygon fill="#63b8ff" stroke="#63b8ff" points="147.3,-35.5 157.3,-32 147.3,-28.5 147.3,-35.5"/>
</a>
</g>
</g>
<!-- Node3 -->
<g id="Node000003" class="node">
<title>Node3</title>
<g id="a_Node000003"><a xlink:href="$namespaceexamples_1_1gear__train.html#a8650b80b6d76475be4dfd225a55c62b0" xlink:title=" ">
<polygon fill="white" stroke="#666666" points="436.88,-70 330.12,-70 330.12,-38 436.88,-38 436.88,-70"/>
<text text-anchor="start" x="338.12" y="-56.5" font-family="Helvetica,sans-Serif" font-size="10.00">examples.gear_train.</text>
<text text-anchor="middle" x="383.5" y="-44.5" font-family="Helvetica,sans-Serif" font-size="10.00">_feasible</text>
</a>
</g>
</g>
<!-- Node2&#45;&gt;Node3 -->
<g id="edge12_Node000002_Node000003" class="edge">
<title>Node2&#45;&gt;Node3</title>
<g id="a_edge12_Node000002_Node000003"><a xlink:title=" ">
<path fill="none" stroke="#63b8ff" d="M285.12,-40.57C296.09,-42.08 307.53,-43.66 318.56,-45.18"/>
<polygon fill="#63b8ff" stroke="#63b8ff" points="317.97,-48.63 328.35,-46.53 318.92,-41.7 317.97,-48.63"/>
</a>
</g>
</g>
<!-- Node5 -->
<g id="Node000005" class="node">
<title>Node5</title>
<g id="a_Node000005"><a xlink:href="$namespaceexamples_1_1gear__train.html#aa60f94f1dcb8bd291893acc7c3284ffb" xlink:title=" ">
<polygon fill="white" stroke="#666666" points="446.25,-20 320.75,-20 320.75,0 446.25,0 446.25,-20"/>
<text text-anchor="middle" x="383.5" y="-6.5" font-family="Helvetica,sans-Serif" font-size="10.00">examples.gear_train.ratio</text>
</a>
</g>
</g>
<!-- Node2&#45;&gt;Node5 -->
<g id="edge14_Node000002_Node000005" class="edge">
<title>Node2&#45;&gt;Node5</title>
<g id="a_edge14_Node000002_Node000005"><a xlink:title=" ">
<path fill="none" stroke="#63b8ff" d="M285.12,-23.43C292.97,-22.35 301.06,-21.23 309.06,-20.13"/>
<polygon fill="#63b8ff" stroke="#63b8ff" points="309.36,-23.62 318.78,-18.79 308.4,-16.69 309.36,-23.62"/>
</a>
</g>
</g>
<!-- Node4 -->
<g id="Node000004" class="node">
<title>Node4</title>
<g id="a_Node000004"><a xlink:href="$namespaceexamples_1_1gear__train.html#aed91576b10d97cb488c1badbe66e796c" xlink:title=" ">
<polygon fill="white" stroke="#666666" points="623.5,-64 482.25,-64 482.25,-44 623.5,-44 623.5,-64"/>
<text text-anchor="middle" x="552.88" y="-50.5" font-family="Helvetica,sans-Serif" font-size="10.00">examples.gear_train.discrete</text>
</a>
</g>
</g>
<!-- Node3&#45;&gt;Node4 -->
<g id="edge13_Node000003_Node000004" class="edge">
<title>Node3&#45;&gt;Node4</title>
<g id="a_edge13_Node000003_Node000004"><a xlink:title=" ">
<path fill="none" stroke="#63b8ff" d="M437,-54C447.64,-54 459.07,-54 470.44,-54"/>
<polygon fill="#63b8ff" stroke="#63b8ff" points="470.25,-57.5 480.25,-54 470.25,-50.5 470.25,-57.5"/>
</a>
</g>
</g>
</g>
</svg>
