<?xml version="1.0" encoding="UTF-8" standalone="no"?>
<!DOCTYPE svg PUBLIC "-//W3C//DTD SVG 1.1//EN"
 "http://www.w3.org/Graphics/SVG/1.1/DTD/svg11.dtd">
<!-- Generated by graphviz version 12.2.1 (20241206.2353)
 -->
<!-- Title: examples.yahpo.plot Pages: 1 -->
<svg width="264pt" height="140pt"
 viewBox="0.00 0.00 264.25 140.00" xmlns="http://www.w3.org/2000/svg" xmlns:xlink="http://www.w3.org/1999/xlink">
<g id="graph0" class="graph" transform="scale(1 1) rotate(0) translate(4 136)">
<title>examples.yahpo.plot</title>
<!-- Node1 -->
<g id="Node000001" class="node">
<title>Node1</title>
<g id="a_Node000001"><a xlink:title=" ">
<polygon fill="#999999" stroke="#666666" points="256.25,-76 150.25,-76 150.25,-56 256.25,-56 256.25,-76"/>
<text text-anchor="middle" x="203.25" y="-62.5" font-family="Helvetica,sans-Serif" font-size="10.00">examples.yahpo.plot</text>
</a>
</g>
</g>
<!-- Node2 -->
<g id="Node000002" class="node">
<title>Node2</title>
<g id="a_Node000002"><a xlink:href="$namespaceexamples_1_1yahpo.html#aca8ebb42199ed8663e4d2fb1704bb11d" xlink:title=" ">
<polygon fill="white" stroke="#666666" points="109,-132 5.25,-132 5.25,-100 109,-100 109,-132"/>
<text text-anchor="start" x="13.25" y="-118.5" font-family="Helvetica,sans-Serif" font-size="10.00">examples.yahpo.opt</text>
<text text-anchor="middle" x="57.13" y="-106.5" font-family="Helvetica,sans-Serif" font-size="10.00">_ranger_hardware</text>
</a>
</g>
</g>
<!-- Node1&#45;&gt;Node2 -->
<g id="edge13_Node000001_Node000002" class="edge">
<title>Node1&#45;&gt;Node2</title>
<g id="a_edge13_Node000001_Node000002"><a xlink:title=" ">
<path fill="none" stroke="#63b8ff" d="M143.1,-79.87C124.52,-86.03 104.77,-93.22 88.98,-99.64"/>
<polygon fill="#63b8ff" stroke="#63b8ff" points="143.99,-83.26 152.42,-76.84 141.83,-76.6 143.99,-83.26"/>
</a>
</g>
</g>
<!-- Node3 -->
<g id="Node000003" class="node">
<title>Node3</title>
<g id="a_Node000003"><a xlink:href="$namespaceexamples_1_1yahpo.html#a657da003ad951471dc74d132dda50c01" xlink:title=" ">
<polygon fill="white" stroke="#666666" points="114.25,-82 0,-82 0,-50 114.25,-50 114.25,-82"/>
<text text-anchor="start" x="8" y="-68.5" font-family="Helvetica,sans-Serif" font-size="10.00">examples.yahpo.opt</text>
<text text-anchor="middle" x="57.13" y="-56.5" font-family="Helvetica,sans-Serif" font-size="10.00">_ranger_interpretability</text>
</a>
</g>
</g>
<!-- Node1&#45;&gt;Node3 -->
<g id="edge15_Node000001_Node000003" class="edge">
<title>Node1&#45;&gt;Node3</title>
<g id="a_edge15_Node000001_Node000003"><a xlink:title=" ">
<path fill="none" stroke="#63b8ff" d="M138.37,-59.29C130.47,-59.21 122.44,-59.25 114.66,-59.39"/>
<polygon fill="#63b8ff" stroke="#63b8ff" points="138.24,-62.79 148.3,-59.45 138.36,-55.79 138.24,-62.79"/>
</a>
</g>
</g>
<!-- Node4 -->
<g id="Node000004" class="node">
<title>Node4</title>
<g id="a_Node000004"><a xlink:href="$namespaceexamples_1_1yahpo.html#aa0f008c277a52f11bb7ae3430c49384c" xlink:title=" ">
<polygon fill="white" stroke="#666666" points="109,-32 5.25,-32 5.25,0 109,0 109,-32"/>
<text text-anchor="start" x="13.25" y="-18.5" font-family="Helvetica,sans-Serif" font-size="10.00">examples.yahpo.opt</text>
<text text-anchor="middle" x="57.13" y="-6.5" font-family="Helvetica,sans-Serif" font-size="10.00">_xgboost</text>
</a>
</g>
</g>
<!-- Node1&#45;&gt;Node4 -->
<g id="edge17_Node000001_Node000004" class="edge">
<title>Node1&#45;&gt;Node4</title>
<g id="a_edge17_Node000001_Node000004"><a xlink:title=" ">
<path fill="none" stroke="#63b8ff" d="M174.81,-51.05C156.31,-43.36 131.33,-34.34 109.23,-27.24"/>
<polygon fill="#63b8ff" stroke="#63b8ff" points="173.19,-54.16 183.76,-54.91 175.97,-47.73 173.19,-54.16"/>
</a>
</g>
</g>
<!-- Node2&#45;&gt;Node1 -->
<g id="edge14_Node000002_Node000001" class="edge">
<title>Node2&#45;&gt;Node1</title>
<g id="a_edge14_Node000002_Node000001"><a xlink:title=" ">
<path fill="none" stroke="#63b8ff" d="M119.99,-101.23C143.74,-93.27 168.99,-83.8 185.15,-76.49"/>
<polygon fill="#63b8ff" stroke="#63b8ff" points="119.07,-97.84 110.66,-104.29 121.26,-104.49 119.07,-97.84"/>
</a>
</g>
</g>
<!-- Node3&#45;&gt;Node1 -->
<g id="edge16_Node000003_Node000001" class="edge">
<title>Node3&#45;&gt;Node1</title>
<g id="a_edge16_Node000003_Node000001"><a xlink:title=" ">
<path fill="none" stroke="#63b8ff" d="M125.92,-72.74C133.94,-72.78 142.04,-72.71 149.81,-72.52"/>
<polygon fill="#63b8ff" stroke="#63b8ff" points="126.21,-69.24 116.17,-72.63 126.13,-76.24 126.21,-69.24"/>
</a>
</g>
</g>
<!-- Node4&#45;&gt;Node1 -->
<g id="edge18_Node000004_Node000001" class="edge">
<title>Node4&#45;&gt;Node1</title>
<g id="a_edge18_Node000004_Node000001"><a xlink:title=" ">
<path fill="none" stroke="#63b8ff" d="M99.66,-36.59C116.59,-43.13 136.28,-50.04 153.86,-55.63"/>
<polygon fill="#63b8ff" stroke="#63b8ff" points="100.98,-33.35 90.39,-32.92 98.4,-39.85 100.98,-33.35"/>
</a>
</g>
</g>
</g>
</svg>
