<?xml version="1.0" encoding="UTF-8" standalone="no"?>
<!DOCTYPE svg PUBLIC "-//W3C//DTD SVG 1.1//EN"
 "http://www.w3.org/Graphics/SVG/1.1/DTD/svg11.dtd">
<!-- Generated by graphviz version 12.2.1 (20241206.2353)
 -->
<!-- Title: dual_annealing::minLBFGS Pages: 1 -->
<svg width="478pt" height="190pt"
 viewBox="0.00 0.00 477.50 190.00" xmlns="http://www.w3.org/2000/svg" xmlns:xlink="http://www.w3.org/1999/xlink">
<g id="graph0" class="graph" transform="scale(1 1) rotate(0) translate(4 186)">
<title>dual_annealing::minLBFGS</title>
<!-- Node1 -->
<g id="Node000001" class="node">
<title>Node1</title>
<g id="a_Node000001"><a xlink:title=" ">
<polygon fill="#999999" stroke="#666666" points="134.5,-101 0,-101 0,-81 134.5,-81 134.5,-101"/>
<text text-anchor="middle" x="67.25" y="-87.5" font-family="Helvetica,sans-Serif" font-size="10.00">dual_annealing::minLBFGS</text>
</a>
</g>
</g>
<!-- Node2 -->
<g id="Node000002" class="node">
<title>Node2</title>
<g id="a_Node000002"><a xlink:href="$class_l_b_f_g_spp_1_1_l_b_f_g_s_b_solver.html#a420f4521286e2ac37a37f41b9f5767a9" xlink:title=" ">
<polygon fill="white" stroke="#666666" points="302,-107 170.5,-107 170.5,-75 302,-75 302,-107"/>
<text text-anchor="start" x="178.5" y="-93.5" font-family="Helvetica,sans-Serif" font-size="10.00">LBFGSpp::LBFGSBSolver</text>
<text text-anchor="middle" x="236.25" y="-81.5" font-family="Helvetica,sans-Serif" font-size="10.00">::minimize</text>
</a>
</g>
</g>
<!-- Node1&#45;&gt;Node2 -->
<g id="edge11_Node000001_Node000002" class="edge">
<title>Node1&#45;&gt;Node2</title>
<g id="a_edge11_Node000001_Node000002"><a xlink:title=" ">
<path fill="none" stroke="#63b8ff" d="M134.73,-91C142.65,-91 150.77,-91 158.81,-91"/>
<polygon fill="#63b8ff" stroke="#63b8ff" points="158.57,-94.5 168.57,-91 158.57,-87.5 158.57,-94.5"/>
</a>
</g>
</g>
<!-- Node3 -->
<g id="Node000003" class="node">
<title>Node3</title>
<g id="a_Node000003"><a xlink:href="$class_l_b_f_g_spp_1_1_l_b_f_g_s_b_solver.html#a88780c13f50eaaf437bcbbb54d7a7f3c" xlink:title=" ">
<polygon fill="white" stroke="#666666" points="469.5,-182 338,-182 338,-150 469.5,-150 469.5,-182"/>
<text text-anchor="start" x="346" y="-168.5" font-family="Helvetica,sans-Serif" font-size="10.00">LBFGSpp::LBFGSBSolver</text>
<text text-anchor="middle" x="403.75" y="-156.5" font-family="Helvetica,sans-Serif" font-size="10.00">::force_bounds</text>
</a>
</g>
</g>
<!-- Node2&#45;&gt;Node3 -->
<g id="edge12_Node000002_Node000003" class="edge">
<title>Node2&#45;&gt;Node3</title>
<g id="a_edge12_Node000002_Node000003"><a xlink:title=" ">
<path fill="none" stroke="#63b8ff" d="M268.21,-107.29C287.96,-117.45 314.23,-130.54 338,-141 341.31,-142.46 344.73,-143.91 348.2,-145.35"/>
<polygon fill="#63b8ff" stroke="#63b8ff" points="346.66,-148.51 357.24,-149.03 349.29,-142.02 346.66,-148.51"/>
</a>
</g>
</g>
<!-- Node4 -->
<g id="Node000004" class="node">
<title>Node4</title>
<g id="a_Node000004"><a xlink:href="$class_l_b_f_g_spp_1_1_l_b_f_g_s_b_solver.html#a788f97964a14b4b6db287f9e2646f2f6" xlink:title=" ">
<polygon fill="white" stroke="#666666" points="469.5,-132 338,-132 338,-100 469.5,-100 469.5,-132"/>
<text text-anchor="start" x="346" y="-118.5" font-family="Helvetica,sans-Serif" font-size="10.00">LBFGSpp::LBFGSBSolver</text>
<text text-anchor="middle" x="403.75" y="-106.5" font-family="Helvetica,sans-Serif" font-size="10.00">::max_step_size</text>
</a>
</g>
</g>
<!-- Node2&#45;&gt;Node4 -->
<g id="edge13_Node000002_Node000004" class="edge">
<title>Node2&#45;&gt;Node4</title>
<g id="a_edge13_Node000002_Node000004"><a xlink:title=" ">
<path fill="none" stroke="#63b8ff" d="M302.18,-100.81C310.13,-102.01 318.29,-103.24 326.38,-104.46"/>
<polygon fill="#63b8ff" stroke="#63b8ff" points="325.82,-107.92 336.23,-105.95 326.87,-101 325.82,-107.92"/>
</a>
</g>
</g>
<!-- Node5 -->
<g id="Node000005" class="node">
<title>Node5</title>
<g id="a_Node000005"><a xlink:href="$class_l_b_f_g_spp_1_1_l_b_f_g_s_b_solver.html#a57692ffc3df2f5152f8ef27dfb4f9cac" xlink:title=" ">
<polygon fill="white" stroke="#666666" points="469.5,-82 338,-82 338,-50 469.5,-50 469.5,-82"/>
<text text-anchor="start" x="346" y="-68.5" font-family="Helvetica,sans-Serif" font-size="10.00">LBFGSpp::LBFGSBSolver</text>
<text text-anchor="middle" x="403.75" y="-56.5" font-family="Helvetica,sans-Serif" font-size="10.00">::proj_grad_norm</text>
</a>
</g>
</g>
<!-- Node2&#45;&gt;Node5 -->
<g id="edge14_Node000002_Node000005" class="edge">
<title>Node2&#45;&gt;Node5</title>
<g id="a_edge14_Node000002_Node000005"><a xlink:title=" ">
<path fill="none" stroke="#63b8ff" d="M302.18,-81.19C310.13,-79.99 318.29,-78.76 326.38,-77.54"/>
<polygon fill="#63b8ff" stroke="#63b8ff" points="326.87,-81 336.23,-76.05 325.82,-74.08 326.87,-81"/>
</a>
</g>
</g>
<!-- Node6 -->
<g id="Node000006" class="node">
<title>Node6</title>
<g id="a_Node000006"><a xlink:href="$class_l_b_f_g_spp_1_1_l_b_f_g_s_b_solver.html#a2b265895288516adbacc3e25fabe2829" xlink:title=" ">
<polygon fill="white" stroke="#666666" points="469.5,-32 338,-32 338,0 469.5,0 469.5,-32"/>
<text text-anchor="start" x="346" y="-18.5" font-family="Helvetica,sans-Serif" font-size="10.00">LBFGSpp::LBFGSBSolver</text>
<text text-anchor="middle" x="403.75" y="-6.5" font-family="Helvetica,sans-Serif" font-size="10.00">::reset</text>
</a>
</g>
</g>
<!-- Node2&#45;&gt;Node6 -->
<g id="edge15_Node000002_Node000006" class="edge">
<title>Node2&#45;&gt;Node6</title>
<g id="a_edge15_Node000002_Node000006"><a xlink:title=" ">
<path fill="none" stroke="#63b8ff" d="M268.21,-74.71C287.96,-64.55 314.23,-51.46 338,-41 341.31,-39.54 344.73,-38.09 348.2,-36.65"/>
<polygon fill="#63b8ff" stroke="#63b8ff" points="349.29,-39.98 357.24,-32.97 346.66,-33.49 349.29,-39.98"/>
</a>
</g>
</g>
</g>
</svg>
