<?xml version="1.0" encoding="UTF-8" standalone="no"?>
<!DOCTYPE svg PUBLIC "-//W3C//DTD SVG 1.1//EN"
 "http://www.w3.org/Graphics/SVG/1.1/DTD/svg11.dtd">
<!-- Generated by graphviz version 12.2.1 (20241206.2353)
 -->
<!-- Title: examples.repython.div Pages: 1 -->
<svg width="439pt" height="490pt"
 viewBox="0.00 0.00 438.50 490.00" xmlns="http://www.w3.org/2000/svg" xmlns:xlink="http://www.w3.org/1999/xlink">
<g id="graph0" class="graph" transform="scale(1 1) rotate(0) translate(4 486)">
<title>examples.repython.div</title>
<!-- Node1 -->
<g id="Node000001" class="node">
<title>Node1</title>
<g id="a_Node000001"><a xlink:title="Divide x1 / x2, return 0 where x2 == 0.">
<polygon fill="#999999" stroke="#666666" points="430.5,-301 316.25,-301 316.25,-281 430.5,-281 430.5,-301"/>
<text text-anchor="middle" x="373.38" y="-287.5" font-family="Helvetica,sans-Serif" font-size="10.00">examples.repython.div</text>
</a>
</g>
</g>
<!-- Node2 -->
<g id="Node000002" class="node">
<title>Node2</title>
<g id="a_Node000002"><a xlink:href="$namespaceexamples_1_1repython.html#ab0c3b123150d77d0235996369f952c7a" xlink:title=" ">
<polygon fill="white" stroke="#666666" points="280.25,-426 160,-426 160,-406 280.25,-406 280.25,-426"/>
<text text-anchor="middle" x="220.12" y="-412.5" font-family="Helvetica,sans-Serif" font-size="10.00">examples.repython.re_1</text>
</a>
</g>
</g>
<!-- Node1&#45;&gt;Node2 -->
<g id="edge33_Node000001_Node000002" class="edge">
<title>Node1&#45;&gt;Node2</title>
<g id="a_edge33_Node000001_Node000002"><a xlink:title=" ">
<path fill="none" stroke="#63b8ff" d="M354.1,-309.4C336.02,-327.23 307.22,-354.63 280.25,-376 266.55,-386.85 250.01,-397.88 237.91,-405.61"/>
<polygon fill="#63b8ff" stroke="#63b8ff" points="356.36,-312.09 360.99,-302.56 351.43,-307.12 356.36,-312.09"/>
</a>
</g>
</g>
<!-- Node5 -->
<g id="Node000005" class="node">
<title>Node5</title>
<g id="a_Node000005"><a xlink:href="$namespaceexamples_1_1repython.html#aa59bb6e94f8b70a49a0679275692624d" xlink:title=" ">
<polygon fill="white" stroke="#666666" points="280.25,-367 160,-367 160,-347 280.25,-347 280.25,-367"/>
<text text-anchor="middle" x="220.12" y="-353.5" font-family="Helvetica,sans-Serif" font-size="10.00">examples.repython.re_2</text>
</a>
</g>
</g>
<!-- Node1&#45;&gt;Node5 -->
<g id="edge36_Node000001_Node000005" class="edge">
<title>Node1&#45;&gt;Node5</title>
<g id="a_edge36_Node000001_Node000005"><a xlink:title=" ">
<path fill="none" stroke="#63b8ff" d="M338.13,-305.95C309.71,-318.34 270.05,-335.65 244.98,-346.59"/>
<polygon fill="#63b8ff" stroke="#63b8ff" points="339.26,-309.27 347.02,-302.06 336.46,-302.85 339.26,-309.27"/>
</a>
</g>
</g>
<!-- Node7 -->
<g id="Node000007" class="node">
<title>Node7</title>
<g id="a_Node000007"><a xlink:href="$namespaceexamples_1_1repython.html#ad37cdaa66ca5a84df03975c4a8c42832" xlink:title=" ">
<polygon fill="white" stroke="#666666" points="280.25,-320 160,-320 160,-300 280.25,-300 280.25,-320"/>
<text text-anchor="middle" x="220.12" y="-306.5" font-family="Helvetica,sans-Serif" font-size="10.00">examples.repython.re_3</text>
</a>
</g>
</g>
<!-- Node1&#45;&gt;Node7 -->
<g id="edge38_Node000001_Node000007" class="edge">
<title>Node1&#45;&gt;Node7</title>
<g id="a_edge38_Node000001_Node000007"><a xlink:title=" ">
<path fill="none" stroke="#63b8ff" d="M304.76,-299.49C296.68,-300.51 288.48,-301.54 280.53,-302.54"/>
<polygon fill="#63b8ff" stroke="#63b8ff" points="305.07,-302.98 314.55,-298.26 304.2,-296.04 305.07,-302.98"/>
</a>
</g>
</g>
<!-- Node9 -->
<g id="Node000009" class="node">
<title>Node9</title>
<g id="a_Node000009"><a xlink:href="$namespaceexamples_1_1repython.html#ac603d498fc30083478073cb180210714" xlink:title=" ">
<polygon fill="white" stroke="#666666" points="280.25,-276 160,-276 160,-256 280.25,-256 280.25,-276"/>
<text text-anchor="middle" x="220.12" y="-262.5" font-family="Helvetica,sans-Serif" font-size="10.00">examples.repython.re_4</text>
</a>
</g>
</g>
<!-- Node1&#45;&gt;Node9 -->
<g id="edge40_Node000001_Node000009" class="edge">
<title>Node1&#45;&gt;Node9</title>
<g id="a_edge40_Node000001_Node000009"><a xlink:title=" ">
<path fill="none" stroke="#63b8ff" d="M304.76,-279.82C296.68,-278.49 288.48,-277.13 280.53,-275.82"/>
<polygon fill="#63b8ff" stroke="#63b8ff" points="304.12,-283.27 314.56,-281.44 305.27,-276.36 304.12,-283.27"/>
</a>
</g>
</g>
<!-- Node12 -->
<g id="Node000012" class="node">
<title>Node12</title>
<g id="a_Node000012"><a xlink:href="$namespaceexamples_1_1repython.html#a000f26546a03c5a3ca895f1d77100808" xlink:title=" ">
<polygon fill="white" stroke="#666666" points="280.25,-176 160,-176 160,-156 280.25,-156 280.25,-176"/>
<text text-anchor="middle" x="220.12" y="-162.5" font-family="Helvetica,sans-Serif" font-size="10.00">examples.repython.re_5</text>
</a>
</g>
</g>
<!-- Node1&#45;&gt;Node12 -->
<g id="edge43_Node000001_Node000012" class="edge">
<title>Node1&#45;&gt;Node12</title>
<g id="a_edge43_Node000001_Node000012"><a xlink:title=" ">
<path fill="none" stroke="#63b8ff" d="M351.12,-273.44C319.1,-246.97 259.47,-197.69 233.62,-176.32"/>
<polygon fill="#63b8ff" stroke="#63b8ff" points="348.64,-275.92 358.57,-279.59 353.09,-270.52 348.64,-275.92"/>
</a>
</g>
</g>
<!-- Node15 -->
<g id="Node000015" class="node">
<title>Node15</title>
<g id="a_Node000015"><a xlink:href="$namespaceexamples_1_1repython.html#aac7cd61f81d591e151154ba29c9d4c7d" xlink:title=" ">
<polygon fill="white" stroke="#666666" points="280.25,-76 160,-76 160,-56 280.25,-56 280.25,-76"/>
<text text-anchor="middle" x="220.12" y="-62.5" font-family="Helvetica,sans-Serif" font-size="10.00">examples.repython.re_6</text>
</a>
</g>
</g>
<!-- Node1&#45;&gt;Node15 -->
<g id="edge46_Node000001_Node000015" class="edge">
<title>Node1&#45;&gt;Node15</title>
<g id="a_edge46_Node000001_Node000015"><a xlink:title=" ">
<path fill="none" stroke="#63b8ff" d="M360.3,-271.29C343.05,-243.33 310.11,-190.66 280.25,-147 262.56,-121.13 240.52,-91.6 228.99,-76.34"/>
<polygon fill="#63b8ff" stroke="#63b8ff" points="357.09,-272.76 365.32,-279.45 363.06,-269.09 357.09,-272.76"/>
</a>
</g>
</g>
<!-- Node3 -->
<g id="Node000003" class="node">
<title>Node3</title>
<g id="a_Node000003"><a xlink:href="$classexamples_1_1repython_1_1_r_e1.html#a62aecf645bd5e046d838fd49c9e6387d" xlink:title=" ">
<polygon fill="white" stroke="#666666" points="124,-482 0,-482 0,-450 124,-450 124,-482"/>
<text text-anchor="start" x="8" y="-468.5" font-family="Helvetica,sans-Serif" font-size="10.00">examples.repython.RE1.</text>
<text text-anchor="middle" x="62" y="-456.5" font-family="Helvetica,sans-Serif" font-size="10.00">__call__</text>
</a>
</g>
</g>
<!-- Node2&#45;&gt;Node3 -->
<g id="edge34_Node000002_Node000003" class="edge">
<title>Node2&#45;&gt;Node3</title>
<g id="a_edge34_Node000002_Node000003"><a xlink:title=" ">
<path fill="none" stroke="#63b8ff" d="M175.66,-429.92C156.66,-436 134.25,-443.18 114.43,-449.53"/>
<polygon fill="#63b8ff" stroke="#63b8ff" points="176.5,-433.33 184.95,-426.94 174.36,-426.66 176.5,-433.33"/>
</a>
</g>
</g>
<!-- Node4 -->
<g id="Node000004" class="node">
<title>Node4</title>
<g id="a_Node000004"><a xlink:href="$classexamples_1_1repython_1_1_r_e1__pymoo.html#aad366e994f5fabef85e0031f3e91fba0" xlink:title=" ">
<polygon fill="white" stroke="#666666" points="122.5,-432 1.5,-432 1.5,-400 122.5,-400 122.5,-432"/>
<text text-anchor="start" x="9.5" y="-418.5" font-family="Helvetica,sans-Serif" font-size="10.00">examples.repython.RE1</text>
<text text-anchor="middle" x="62" y="-406.5" font-family="Helvetica,sans-Serif" font-size="10.00">_pymoo._evaluate</text>
</a>
</g>
</g>
<!-- Node2&#45;&gt;Node4 -->
<g id="edge35_Node000002_Node000004" class="edge">
<title>Node2&#45;&gt;Node4</title>
<g id="a_edge35_Node000002_Node000004"><a xlink:title=" ">
<path fill="none" stroke="#63b8ff" d="M148.2,-416C139.72,-416 131.12,-416 122.82,-416"/>
<polygon fill="#63b8ff" stroke="#63b8ff" points="148.14,-419.5 158.14,-416 148.14,-412.5 148.14,-419.5"/>
</a>
</g>
</g>
<!-- Node6 -->
<g id="Node000006" class="node">
<title>Node6</title>
<g id="a_Node000006"><a xlink:href="$classexamples_1_1repython_1_1_r_e2.html#a7b942a0dcfcc17647034a022e4ee8b22" xlink:title=" ">
<polygon fill="white" stroke="#666666" points="124,-382 0,-382 0,-350 124,-350 124,-382"/>
<text text-anchor="start" x="8" y="-368.5" font-family="Helvetica,sans-Serif" font-size="10.00">examples.repython.RE2.</text>
<text text-anchor="middle" x="62" y="-356.5" font-family="Helvetica,sans-Serif" font-size="10.00">__call__</text>
</a>
</g>
</g>
<!-- Node5&#45;&gt;Node6 -->
<g id="edge37_Node000005_Node000006" class="edge">
<title>Node5&#45;&gt;Node6</title>
<g id="a_edge37_Node000005_Node000006"><a xlink:title=" ">
<path fill="none" stroke="#63b8ff" d="M148.42,-361.08C140.39,-361.54 132.27,-362.01 124.38,-362.46"/>
<polygon fill="#63b8ff" stroke="#63b8ff" points="148.36,-364.59 158.14,-360.52 147.96,-357.6 148.36,-364.59"/>
</a>
</g>
</g>
<!-- Node8 -->
<g id="Node000008" class="node">
<title>Node8</title>
<g id="a_Node000008"><a xlink:href="$classexamples_1_1repython_1_1_r_e3.html#a08282daa4c00b48d3bea50d8a3a7d34b" xlink:title=" ">
<polygon fill="white" stroke="#666666" points="124,-332 0,-332 0,-300 124,-300 124,-332"/>
<text text-anchor="start" x="8" y="-318.5" font-family="Helvetica,sans-Serif" font-size="10.00">examples.repython.RE3.</text>
<text text-anchor="middle" x="62" y="-306.5" font-family="Helvetica,sans-Serif" font-size="10.00">__call__</text>
</a>
</g>
</g>
<!-- Node7&#45;&gt;Node8 -->
<g id="edge39_Node000007_Node000008" class="edge">
<title>Node7&#45;&gt;Node8</title>
<g id="a_edge39_Node000007_Node000008"><a xlink:title=" ">
<path fill="none" stroke="#63b8ff" d="M148.42,-312.72C140.39,-313.03 132.27,-313.34 124.38,-313.64"/>
<polygon fill="#63b8ff" stroke="#63b8ff" points="148.28,-316.23 158.14,-312.34 148.02,-309.23 148.28,-316.23"/>
</a>
</g>
</g>
<!-- Node10 -->
<g id="Node000010" class="node">
<title>Node10</title>
<g id="a_Node000010"><a xlink:href="$classexamples_1_1repython_1_1_r_e4.html#a7b8f06f5b59df54411b2d5b578e25e7d" xlink:title=" ">
<polygon fill="white" stroke="#666666" points="124,-282 0,-282 0,-250 124,-250 124,-282"/>
<text text-anchor="start" x="8" y="-268.5" font-family="Helvetica,sans-Serif" font-size="10.00">examples.repython.RE4.</text>
<text text-anchor="middle" x="62" y="-256.5" font-family="Helvetica,sans-Serif" font-size="10.00">__call__</text>
</a>
</g>
</g>
<!-- Node9&#45;&gt;Node10 -->
<g id="edge41_Node000009_Node000010" class="edge">
<title>Node9&#45;&gt;Node10</title>
<g id="a_edge41_Node000009_Node000010"><a xlink:title=" ">
<path fill="none" stroke="#63b8ff" d="M148.42,-266C140.39,-266 132.27,-266 124.38,-266"/>
<polygon fill="#63b8ff" stroke="#63b8ff" points="148.14,-269.5 158.14,-266 148.14,-262.5 148.14,-269.5"/>
</a>
</g>
</g>
<!-- Node11 -->
<g id="Node000011" class="node">
<title>Node11</title>
<g id="a_Node000011"><a xlink:href="$classexamples_1_1repython_1_1_r_e4__pymoo.html#ae7a6d3acc7b15ffaa2e242622a1aef31" xlink:title=" ">
<polygon fill="white" stroke="#666666" points="122.5,-232 1.5,-232 1.5,-200 122.5,-200 122.5,-232"/>
<text text-anchor="start" x="9.5" y="-218.5" font-family="Helvetica,sans-Serif" font-size="10.00">examples.repython.RE4</text>
<text text-anchor="middle" x="62" y="-206.5" font-family="Helvetica,sans-Serif" font-size="10.00">_pymoo._evaluate</text>
</a>
</g>
</g>
<!-- Node9&#45;&gt;Node11 -->
<g id="edge42_Node000009_Node000011" class="edge">
<title>Node9&#45;&gt;Node11</title>
<g id="a_edge42_Node000009_Node000011"><a xlink:title=" ">
<path fill="none" stroke="#63b8ff" d="M175.66,-252.08C156.66,-246 134.25,-238.82 114.43,-232.47"/>
<polygon fill="#63b8ff" stroke="#63b8ff" points="174.36,-255.34 184.95,-255.06 176.5,-248.67 174.36,-255.34"/>
</a>
</g>
</g>
<!-- Node13 -->
<g id="Node000013" class="node">
<title>Node13</title>
<g id="a_Node000013"><a xlink:href="$classexamples_1_1repython_1_1_r_e5.html#a541c8e896355cdd229f7ba2f4caaa388" xlink:title=" ">
<polygon fill="white" stroke="#666666" points="124,-182 0,-182 0,-150 124,-150 124,-182"/>
<text text-anchor="start" x="8" y="-168.5" font-family="Helvetica,sans-Serif" font-size="10.00">examples.repython.RE5.</text>
<text text-anchor="middle" x="62" y="-156.5" font-family="Helvetica,sans-Serif" font-size="10.00">__call__</text>
</a>
</g>
</g>
<!-- Node12&#45;&gt;Node13 -->
<g id="edge44_Node000012_Node000013" class="edge">
<title>Node12&#45;&gt;Node13</title>
<g id="a_edge44_Node000012_Node000013"><a xlink:title=" ">
<path fill="none" stroke="#63b8ff" d="M148.42,-166C140.39,-166 132.27,-166 124.38,-166"/>
<polygon fill="#63b8ff" stroke="#63b8ff" points="148.14,-169.5 158.14,-166 148.14,-162.5 148.14,-169.5"/>
</a>
</g>
</g>
<!-- Node14 -->
<g id="Node000014" class="node">
<title>Node14</title>
<g id="a_Node000014"><a xlink:href="$classexamples_1_1repython_1_1_r_e5__pymoo.html#a12ef1c4f5bf91156884a5dbc7ff821ad" xlink:title=" ">
<polygon fill="white" stroke="#666666" points="122.5,-132 1.5,-132 1.5,-100 122.5,-100 122.5,-132"/>
<text text-anchor="start" x="9.5" y="-118.5" font-family="Helvetica,sans-Serif" font-size="10.00">examples.repython.RE5</text>
<text text-anchor="middle" x="62" y="-106.5" font-family="Helvetica,sans-Serif" font-size="10.00">_pymoo._evaluate</text>
</a>
</g>
</g>
<!-- Node12&#45;&gt;Node14 -->
<g id="edge45_Node000012_Node000014" class="edge">
<title>Node12&#45;&gt;Node14</title>
<g id="a_edge45_Node000012_Node000014"><a xlink:title=" ">
<path fill="none" stroke="#63b8ff" d="M175.66,-152.08C156.66,-146 134.25,-138.82 114.43,-132.47"/>
<polygon fill="#63b8ff" stroke="#63b8ff" points="174.36,-155.34 184.95,-155.06 176.5,-148.67 174.36,-155.34"/>
</a>
</g>
</g>
<!-- Node16 -->
<g id="Node000016" class="node">
<title>Node16</title>
<g id="a_Node000016"><a xlink:href="$classexamples_1_1repython_1_1_r_e6.html#a56f855d154ebcc64d04ef7c7fe046491" xlink:title=" ">
<polygon fill="white" stroke="#666666" points="124,-82 0,-82 0,-50 124,-50 124,-82"/>
<text text-anchor="start" x="8" y="-68.5" font-family="Helvetica,sans-Serif" font-size="10.00">examples.repython.RE6.</text>
<text text-anchor="middle" x="62" y="-56.5" font-family="Helvetica,sans-Serif" font-size="10.00">__call__</text>
</a>
</g>
</g>
<!-- Node15&#45;&gt;Node16 -->
<g id="edge47_Node000015_Node000016" class="edge">
<title>Node15&#45;&gt;Node16</title>
<g id="a_edge47_Node000015_Node000016"><a xlink:title=" ">
<path fill="none" stroke="#63b8ff" d="M148.42,-66C140.39,-66 132.27,-66 124.38,-66"/>
<polygon fill="#63b8ff" stroke="#63b8ff" points="148.14,-69.5 158.14,-66 148.14,-62.5 148.14,-69.5"/>
</a>
</g>
</g>
<!-- Node17 -->
<g id="Node000017" class="node">
<title>Node17</title>
<g id="a_Node000017"><a xlink:href="$classexamples_1_1repython_1_1_r_e6__pymoo.html#a0c6a821c85abf0e96e076bc4f93df826" xlink:title=" ">
<polygon fill="white" stroke="#666666" points="122.5,-32 1.5,-32 1.5,0 122.5,0 122.5,-32"/>
<text text-anchor="start" x="9.5" y="-18.5" font-family="Helvetica,sans-Serif" font-size="10.00">examples.repython.RE6</text>
<text text-anchor="middle" x="62" y="-6.5" font-family="Helvetica,sans-Serif" font-size="10.00">_pymoo._evaluate</text>
</a>
</g>
</g>
<!-- Node15&#45;&gt;Node17 -->
<g id="edge48_Node000015_Node000017" class="edge">
<title>Node15&#45;&gt;Node17</title>
<g id="a_edge48_Node000015_Node000017"><a xlink:title=" ">
<path fill="none" stroke="#63b8ff" d="M175.66,-52.08C156.66,-46 134.25,-38.82 114.43,-32.47"/>
<polygon fill="#63b8ff" stroke="#63b8ff" points="174.36,-55.34 184.95,-55.06 176.5,-48.67 174.36,-55.34"/>
</a>
</g>
</g>
</g>
</svg>
