<?xml version="1.0" encoding="UTF-8" standalone="no"?>
<!DOCTYPE svg PUBLIC "-//W3C//DTD SVG 1.1//EN"
 "http://www.w3.org/Graphics/SVG/1.1/DTD/svg11.dtd">
<!-- Generated by graphviz version 12.2.1 (20241206.2353)
 -->
<!-- Title: predict.find_other_model Pages: 1 -->
<svg width="276pt" height="53pt"
 viewBox="0.00 0.00 275.75 53.00" xmlns="http://www.w3.org/2000/svg" xmlns:xlink="http://www.w3.org/1999/xlink">
<g id="graph0" class="graph" transform="scale(1 1) rotate(0) translate(4 49)">
<title>predict.find_other_model</title>
<!-- Node1 -->
<g id="Node000001" class="node">
<title>Node1</title>
<g id="a_Node000001"><a xlink:title=" ">
<polygon fill="#999999" stroke="#666666" points="91,-45 0,-45 0,-13 91,-13 91,-45"/>
<text text-anchor="start" x="8" y="-31.5" font-family="Helvetica,sans-Serif" font-size="10.00">predict.find_other</text>
<text text-anchor="middle" x="45.5" y="-19.5" font-family="Helvetica,sans-Serif" font-size="10.00">_model</text>
</a>
</g>
</g>
<!-- Node2 -->
<g id="Node000002" class="node">
<title>Node2</title>
<g id="a_Node000002"><a xlink:href="$namespacepredict.html#a9eb8a7f2d97c2232ac5e77fa90d9df04" xlink:title=" ">
<polygon fill="white" stroke="#666666" points="267.75,-39 216.5,-39 216.5,-19 267.75,-19 267.75,-39"/>
<text text-anchor="middle" x="242.12" y="-25.5" font-family="Helvetica,sans-Serif" font-size="10.00">predict.r</text>
</a>
</g>
</g>
<!-- Node1&#45;&gt;Node2 -->
<g id="edge7_Node000001_Node000002" class="edge">
<title>Node1&#45;&gt;Node2</title>
<g id="a_edge7_Node000001_Node000002"><a xlink:title=" ">
<path fill="none" stroke="#63b8ff" d="M91.15,-29C125.63,-29 172.74,-29 204.9,-29"/>
<polygon fill="#63b8ff" stroke="#63b8ff" points="204.51,-32.5 214.51,-29 204.51,-25.5 204.51,-32.5"/>
</a>
</g>
</g>
<!-- Node3 -->
<g id="Node000003" class="node">
<title>Node3</title>
<g id="a_Node000003"><a xlink:href="$namespacepredict.html#aabf7895b0c2014fbaf861964feb49186" xlink:title=" ">
<polygon fill="white" stroke="#666666" points="180.5,-20 127,-20 127,0 180.5,0 180.5,-20"/>
<text text-anchor="middle" x="153.75" y="-6.5" font-family="Helvetica,sans-Serif" font-size="10.00">predict.rl</text>
</a>
</g>
</g>
<!-- Node1&#45;&gt;Node3 -->
<g id="edge8_Node000001_Node000003" class="edge">
<title>Node1&#45;&gt;Node3</title>
<g id="a_edge8_Node000001_Node000003"><a xlink:title=" ">
<path fill="none" stroke="#63b8ff" d="M91.25,-21C99.24,-19.57 107.48,-18.1 115.23,-16.71"/>
<polygon fill="#63b8ff" stroke="#63b8ff" points="115.82,-20.16 125.05,-14.95 114.59,-13.27 115.82,-20.16"/>
</a>
</g>
</g>
<!-- Node3&#45;&gt;Node2 -->
<g id="edge9_Node000003_Node000002" class="edge">
<title>Node3&#45;&gt;Node2</title>
<g id="a_edge9_Node000003_Node000002"><a xlink:title=" ">
<path fill="none" stroke="#63b8ff" d="M180.67,-15.7C188.3,-17.38 196.79,-19.25 204.95,-21.04"/>
<polygon fill="#63b8ff" stroke="#63b8ff" points="204.12,-24.44 214.64,-23.17 205.63,-17.61 204.12,-24.44"/>
</a>
</g>
</g>
</g>
</svg>
