<?xml version="1.0" encoding="UTF-8" standalone="no"?>
<!DOCTYPE svg PUBLIC "-//W3C//DTD SVG 1.1//EN"
 "http://www.w3.org/Graphics/SVG/1.1/DTD/svg11.dtd">
<!-- Generated by graphviz version 12.2.1 (20241206.2353)
 -->
<!-- Title: examples.gear_train.print_result Pages: 1 -->
<svg width="472pt" height="78pt"
 viewBox="0.00 0.00 472.25 78.00" xmlns="http://www.w3.org/2000/svg" xmlns:xlink="http://www.w3.org/1999/xlink">
<g id="graph0" class="graph" transform="scale(1 1) rotate(0) translate(4 74)">
<title>examples.gear_train.print_result</title>
<!-- Node1 -->
<g id="Node000001" class="node">
<title>Node1</title>
<g id="a_Node000001"><a xlink:title=" ">
<polygon fill="#999999" stroke="#666666" points="125.5,-48 0,-48 0,-16 125.5,-16 125.5,-48"/>
<text text-anchor="start" x="8" y="-34.5" font-family="Helvetica,sans-Serif" font-size="10.00">examples.gear_train.print</text>
<text text-anchor="middle" x="62.75" y="-22.5" font-family="Helvetica,sans-Serif" font-size="10.00">_result</text>
</a>
</g>
</g>
<!-- Node2 -->
<g id="Node000002" class="node">
<title>Node2</title>
<g id="a_Node000002"><a xlink:href="$namespaceexamples_1_1gear__train.html#a8650b80b6d76475be4dfd225a55c62b0" xlink:title=" ">
<polygon fill="white" stroke="#666666" points="277.62,-70 170.88,-70 170.88,-38 277.62,-38 277.62,-70"/>
<text text-anchor="start" x="178.88" y="-56.5" font-family="Helvetica,sans-Serif" font-size="10.00">examples.gear_train.</text>
<text text-anchor="middle" x="224.25" y="-44.5" font-family="Helvetica,sans-Serif" font-size="10.00">_feasible</text>
</a>
</g>
</g>
<!-- Node1&#45;&gt;Node2 -->
<g id="edge7_Node000001_Node000002" class="edge">
<title>Node1&#45;&gt;Node2</title>
<g id="a_edge7_Node000001_Node000002"><a xlink:title=" ">
<path fill="none" stroke="#63b8ff" d="M125.87,-40.57C136.84,-42.08 148.28,-43.66 159.31,-45.18"/>
<polygon fill="#63b8ff" stroke="#63b8ff" points="158.72,-48.63 169.1,-46.53 159.67,-41.7 158.72,-48.63"/>
</a>
</g>
</g>
<!-- Node4 -->
<g id="Node000004" class="node">
<title>Node4</title>
<g id="a_Node000004"><a xlink:href="$namespaceexamples_1_1gear__train.html#aa60f94f1dcb8bd291893acc7c3284ffb" xlink:title=" ">
<polygon fill="white" stroke="#666666" points="287,-20 161.5,-20 161.5,0 287,0 287,-20"/>
<text text-anchor="middle" x="224.25" y="-6.5" font-family="Helvetica,sans-Serif" font-size="10.00">examples.gear_train.ratio</text>
</a>
</g>
</g>
<!-- Node1&#45;&gt;Node4 -->
<g id="edge9_Node000001_Node000004" class="edge">
<title>Node1&#45;&gt;Node4</title>
<g id="a_edge9_Node000001_Node000004"><a xlink:title=" ">
<path fill="none" stroke="#63b8ff" d="M125.87,-23.43C133.72,-22.35 141.81,-21.23 149.81,-20.13"/>
<polygon fill="#63b8ff" stroke="#63b8ff" points="150.11,-23.62 159.53,-18.79 149.15,-16.69 150.11,-23.62"/>
</a>
</g>
</g>
<!-- Node3 -->
<g id="Node000003" class="node">
<title>Node3</title>
<g id="a_Node000003"><a xlink:href="$namespaceexamples_1_1gear__train.html#aed91576b10d97cb488c1badbe66e796c" xlink:title=" ">
<polygon fill="white" stroke="#666666" points="464.25,-64 323,-64 323,-44 464.25,-44 464.25,-64"/>
<text text-anchor="middle" x="393.62" y="-50.5" font-family="Helvetica,sans-Serif" font-size="10.00">examples.gear_train.discrete</text>
</a>
</g>
</g>
<!-- Node2&#45;&gt;Node3 -->
<g id="edge8_Node000002_Node000003" class="edge">
<title>Node2&#45;&gt;Node3</title>
<g id="a_edge8_Node000002_Node000003"><a xlink:title=" ">
<path fill="none" stroke="#63b8ff" d="M277.75,-54C288.39,-54 299.82,-54 311.19,-54"/>
<polygon fill="#63b8ff" stroke="#63b8ff" points="311,-57.5 321,-54 311,-50.5 311,-57.5"/>
</a>
</g>
</g>
</g>
</svg>
