<?xml version="1.0" encoding="UTF-8" standalone="no"?>
<!DOCTYPE svg PUBLIC "-//W3C//DTD SVG 1.1//EN"
 "http://www.w3.org/Graphics/SVG/1.1/DTD/svg11.dtd">
<!-- Generated by graphviz version 12.2.1 (20241206.2353)
 -->
<!-- Title: examples.crypto.get_sma Pages: 1 -->
<svg width="834pt" height="266pt"
 viewBox="0.00 0.00 834.25 266.00" xmlns="http://www.w3.org/2000/svg" xmlns:xlink="http://www.w3.org/1999/xlink">
<g id="graph0" class="graph" transform="scale(1 1) rotate(0) translate(4 262)">
<title>examples.crypto.get_sma</title>
<!-- Node1 -->
<g id="Node000001" class="node">
<title>Node1</title>
<g id="a_Node000001"><a xlink:title=" ">
<polygon fill="#999999" stroke="#666666" points="826.25,-98 697.75,-98 697.75,-78 826.25,-78 826.25,-98"/>
<text text-anchor="middle" x="762" y="-84.5" font-family="Helvetica,sans-Serif" font-size="10.00">examples.crypto.get_sma</text>
</a>
</g>
</g>
<!-- Node2 -->
<g id="Node000002" class="node">
<title>Node2</title>
<g id="a_Node000002"><a xlink:href="$namespaceexamples_1_1crypto.html#a75d529296c6d83294ad1c37e55bd267f" xlink:title=" ">
<polygon fill="white" stroke="#666666" points="661.75,-98 534,-98 534,-78 661.75,-78 661.75,-98"/>
<text text-anchor="middle" x="597.88" y="-84.5" font-family="Helvetica,sans-Serif" font-size="10.00">examples.crypto.simulate</text>
</a>
</g>
</g>
<!-- Node1&#45;&gt;Node2 -->
<g id="edge31_Node000001_Node000002" class="edge">
<title>Node1&#45;&gt;Node2</title>
<g id="a_edge31_Node000001_Node000002"><a xlink:title=" ">
<path fill="none" stroke="#63b8ff" d="M686.1,-88C678.05,-88 669.93,-88 662.04,-88"/>
<polygon fill="#63b8ff" stroke="#63b8ff" points="685.88,-91.5 695.88,-88 685.88,-84.5 685.88,-91.5"/>
</a>
</g>
</g>
<!-- Node3 -->
<g id="Node000003" class="node">
<title>Node3</title>
<g id="a_Node000003"><a xlink:href="$classexamples_1_1crypto_1_1fitness.html#a5a933388f6d0303f80251156e30e6b9b" xlink:title=" ">
<polygon fill="white" stroke="#666666" points="498,-148 361.25,-148 361.25,-128 498,-128 498,-148"/>
<text text-anchor="middle" x="429.62" y="-134.5" font-family="Helvetica,sans-Serif" font-size="10.00">examples.crypto.fitness.fun</text>
</a>
</g>
</g>
<!-- Node2&#45;&gt;Node3 -->
<g id="edge32_Node000002_Node000003" class="edge">
<title>Node2&#45;&gt;Node3</title>
<g id="a_edge32_Node000002_Node000003"><a xlink:title=" ">
<path fill="none" stroke="#63b8ff" d="M551.25,-101.72C524.17,-109.87 490.36,-120.04 465.43,-127.53"/>
<polygon fill="#63b8ff" stroke="#63b8ff" points="552.01,-105.15 560.57,-98.92 549.99,-98.45 552.01,-105.15"/>
</a>
</g>
</g>
<!-- Node11 -->
<g id="Node000011" class="node">
<title>Node11</title>
<g id="a_Node000011"><a xlink:href="$classexamples_1_1crypto_1_1fitness.html#a92e26f20d8494227c6ef3ff4cf6cae71" xlink:title=" ">
<polygon fill="white" stroke="#666666" points="498,-82 361.25,-82 361.25,-50 498,-50 498,-82"/>
<text text-anchor="start" x="369.25" y="-68.5" font-family="Helvetica,sans-Serif" font-size="10.00">examples.crypto.fitness.get</text>
<text text-anchor="middle" x="429.62" y="-56.5" font-family="Helvetica,sans-Serif" font-size="10.00">_trades</text>
</a>
</g>
</g>
<!-- Node2&#45;&gt;Node11 -->
<g id="edge43_Node000002_Node000011" class="edge">
<title>Node2&#45;&gt;Node11</title>
<g id="a_edge43_Node000002_Node000011"><a xlink:title=" ">
<path fill="none" stroke="#63b8ff" d="M522.39,-78.14C514.43,-77.09 506.36,-76.02 498.48,-74.98"/>
<polygon fill="#63b8ff" stroke="#63b8ff" points="521.68,-81.58 532.05,-79.42 522.59,-74.64 521.68,-81.58"/>
</a>
</g>
</g>
<!-- Node4 -->
<g id="Node000004" class="node">
<title>Node4</title>
<g id="a_Node000004"><a xlink:href="$classexamples_1_1crypto_1_1fitness.html#ac24e8f7966063c3bc0cc215a561cbadb" xlink:title=" ">
<polygon fill="white" stroke="#666666" points="311.75,-132 188.5,-132 188.5,-100 311.75,-100 311.75,-132"/>
<text text-anchor="start" x="196.5" y="-118.5" font-family="Helvetica,sans-Serif" font-size="10.00">examples.crypto.fitness.</text>
<text text-anchor="middle" x="250.12" y="-106.5" font-family="Helvetica,sans-Serif" font-size="10.00">__call__</text>
</a>
</g>
</g>
<!-- Node3&#45;&gt;Node4 -->
<g id="edge33_Node000003_Node000004" class="edge">
<title>Node3&#45;&gt;Node4</title>
<g id="a_edge33_Node000003_Node000004"><a xlink:title=" ">
<path fill="none" stroke="#63b8ff" d="M349.34,-128.17C336.8,-126.62 324.01,-125.03 311.98,-123.54"/>
<polygon fill="#63b8ff" stroke="#63b8ff" points="348.9,-131.65 359.26,-129.4 349.76,-124.7 348.9,-131.65"/>
</a>
</g>
</g>
<!-- Node7 -->
<g id="Node000007" class="node">
<title>Node7</title>
<g id="a_Node000007"><a xlink:href="$classexamples_1_1harvesting_1_1fitness.html#add29e0fd221efd5ffa3ce2f0933b633f" xlink:title=" ">
<polygon fill="white" stroke="#666666" points="320.75,-82 179.5,-82 179.5,-50 320.75,-50 320.75,-82"/>
<text text-anchor="start" x="187.5" y="-68.5" font-family="Helvetica,sans-Serif" font-size="10.00">examples.harvesting.fitness.</text>
<text text-anchor="middle" x="250.12" y="-56.5" font-family="Helvetica,sans-Serif" font-size="10.00">__call__</text>
</a>
</g>
</g>
<!-- Node3&#45;&gt;Node7 -->
<g id="edge36_Node000003_Node000007" class="edge">
<title>Node3&#45;&gt;Node7</title>
<g id="a_edge36_Node000003_Node000007"><a xlink:title=" ">
<path fill="none" stroke="#63b8ff" d="M397.28,-122.75C376.97,-113.11 349.81,-100.7 325.25,-91 317.8,-88.06 309.84,-85.14 302.01,-82.4"/>
<polygon fill="#63b8ff" stroke="#63b8ff" points="395.62,-125.83 406.15,-126.99 398.64,-119.51 395.62,-125.83"/>
</a>
</g>
</g>
<!-- Node8 -->
<g id="Node000008" class="node">
<title>Node8</title>
<g id="a_Node000008"><a xlink:href="$classexamples_1_1jobshop_1_1fitness.html#a65088d25d52805209f6dfec80ed1aa9f" xlink:title=" ">
<polygon fill="white" stroke="#666666" points="315.12,-258 185.12,-258 185.12,-226 315.12,-226 315.12,-258"/>
<text text-anchor="start" x="193.12" y="-244.5" font-family="Helvetica,sans-Serif" font-size="10.00">examples.jobshop.fitness.</text>
<text text-anchor="middle" x="250.12" y="-232.5" font-family="Helvetica,sans-Serif" font-size="10.00">__call__</text>
</a>
</g>
</g>
<!-- Node3&#45;&gt;Node8 -->
<g id="edge39_Node000003_Node000008" class="edge">
<title>Node3&#45;&gt;Node8</title>
<g id="a_edge39_Node000003_Node000008"><a xlink:title=" ">
<path fill="none" stroke="#63b8ff" d="M409.27,-155.93C389.44,-173.51 357.1,-200.06 325.25,-217 319.37,-220.13 313.03,-222.97 306.62,-225.53"/>
<polygon fill="#63b8ff" stroke="#63b8ff" points="411.49,-158.64 416.57,-149.34 406.8,-153.44 411.49,-158.64"/>
</a>
</g>
</g>
<!-- Node9 -->
<g id="Node000009" class="node">
<title>Node9</title>
<g id="a_Node000009"><a xlink:href="$classexamples_1_1crypto_1_1fitness.html#a1209aafc30c6a32427e2707c0bcadd22" xlink:title=" ">
<polygon fill="white" stroke="#666666" points="325.25,-208 175,-208 175,-188 325.25,-188 325.25,-208"/>
<text text-anchor="middle" x="250.12" y="-194.5" font-family="Helvetica,sans-Serif" font-size="10.00">examples.crypto.fitness.mofun</text>
</a>
</g>
</g>
<!-- Node3&#45;&gt;Node9 -->
<g id="edge41_Node000003_Node000009" class="edge">
<title>Node3&#45;&gt;Node9</title>
<g id="a_edge41_Node000003_Node000009"><a xlink:title=" ">
<path fill="none" stroke="#63b8ff" d="M394.29,-152.89C374.36,-161.21 348.64,-171.4 325.25,-179 315.77,-182.08 305.49,-184.99 295.68,-187.56"/>
<polygon fill="#63b8ff" stroke="#63b8ff" points="395.47,-156.19 403.32,-149.07 392.74,-149.74 395.47,-156.19"/>
</a>
</g>
</g>
<!-- Node10 -->
<g id="Node000010" class="node">
<title>Node10</title>
<g id="a_Node000010"><a xlink:href="$classexamples_1_1crypto_1_1fitness.html#a3ba688bf0d5b34a2cc6268a2248dfaa0" xlink:title=" ">
<polygon fill="white" stroke="#666666" points="323.75,-170 176.5,-170 176.5,-150 323.75,-150 323.75,-170"/>
<text text-anchor="middle" x="250.12" y="-156.5" font-family="Helvetica,sans-Serif" font-size="10.00">examples.crypto.fitness.ndfun</text>
</a>
</g>
</g>
<!-- Node3&#45;&gt;Node10 -->
<g id="edge42_Node000003_Node000010" class="edge">
<title>Node3&#45;&gt;Node10</title>
<g id="a_edge42_Node000003_Node000010"><a xlink:title=" ">
<path fill="none" stroke="#63b8ff" d="M349.34,-147.83C340.9,-148.87 332.34,-149.93 323.97,-150.97"/>
<polygon fill="#63b8ff" stroke="#63b8ff" points="349.76,-151.3 359.26,-146.6 348.9,-144.35 349.76,-151.3"/>
</a>
</g>
</g>
<!-- Node5 -->
<g id="Node000005" class="node">
<title>Node5</title>
<g id="a_Node000005"><a xlink:href="$classhbv_1_1hbv.html#a89aea998d9546dc3465bf46fbee95689" xlink:title=" ">
<polygon fill="white" stroke="#666666" points="118,-82 21,-82 21,-62 118,-62 118,-82"/>
<text text-anchor="middle" x="69.5" y="-68.5" font-family="Helvetica,sans-Serif" font-size="10.00">hbv.hbv.qd_fitness</text>
</a>
</g>
</g>
<!-- Node4&#45;&gt;Node5 -->
<g id="edge34_Node000004_Node000005" class="edge">
<title>Node4&#45;&gt;Node5</title>
<g id="a_edge34_Node000004_Node000005"><a xlink:title=" ">
<path fill="none" stroke="#63b8ff" d="M177.24,-98.29C155.41,-92.92 132.14,-87.18 112.91,-82.45"/>
<polygon fill="#63b8ff" stroke="#63b8ff" points="176.14,-101.63 186.68,-100.62 177.81,-94.83 176.14,-101.63"/>
</a>
</g>
</g>
<!-- Node6 -->
<g id="Node000006" class="node">
<title>Node6</title>
<g id="a_Node000006"><a xlink:href="$classlrgv_1_1lrgv.html#a527b9b7a7927721b5320ab433bf75aea" xlink:title=" ">
<polygon fill="white" stroke="#666666" points="118,-126 21,-126 21,-106 118,-106 118,-126"/>
<text text-anchor="middle" x="69.5" y="-112.5" font-family="Helvetica,sans-Serif" font-size="10.00">lrgv.lrgv.qd_fitness</text>
</a>
</g>
</g>
<!-- Node4&#45;&gt;Node6 -->
<g id="edge35_Node000004_Node000006" class="edge">
<title>Node4&#45;&gt;Node6</title>
<g id="a_edge35_Node000004_Node000006"><a xlink:title=" ">
<path fill="none" stroke="#63b8ff" d="M176.72,-116C157.02,-116 136.19,-116 118.24,-116"/>
<polygon fill="#63b8ff" stroke="#63b8ff" points="176.64,-119.5 186.64,-116 176.64,-112.5 176.64,-119.5"/>
</a>
</g>
</g>
<!-- Node7&#45;&gt;Node5 -->
<g id="edge37_Node000007_Node000005" class="edge">
<title>Node7&#45;&gt;Node5</title>
<g id="a_edge37_Node000007_Node000005"><a xlink:title=" ">
<path fill="none" stroke="#63b8ff" d="M167.97,-68.73C151,-69.3 133.64,-69.88 118.35,-70.39"/>
<polygon fill="#63b8ff" stroke="#63b8ff" points="167.65,-72.24 177.53,-68.4 167.42,-65.24 167.65,-72.24"/>
</a>
</g>
</g>
<!-- Node7&#45;&gt;Node6 -->
<g id="edge38_Node000007_Node000006" class="edge">
<title>Node7&#45;&gt;Node6</title>
<g id="a_edge38_Node000007_Node000006"><a xlink:title=" ">
<path fill="none" stroke="#63b8ff" d="M179.57,-85.47C155.1,-92.32 128.55,-99.75 107.77,-105.57"/>
<polygon fill="#63b8ff" stroke="#63b8ff" points="180.49,-88.85 189.18,-82.78 178.61,-82.11 180.49,-88.85"/>
</a>
</g>
</g>
<!-- Node8&#45;&gt;Node6 -->
<g id="edge40_Node000008_Node000006" class="edge">
<title>Node8&#45;&gt;Node6</title>
<g id="a_edge40_Node000008_Node000006"><a xlink:title=" ">
<path fill="none" stroke="#63b8ff" d="M181.57,-220.7C179.32,-219.53 177.12,-218.29 175,-217 133.19,-191.55 94.74,-146.67 78.56,-126.42"/>
<polygon fill="#63b8ff" stroke="#63b8ff" points="179.8,-223.74 190.34,-224.87 182.81,-217.42 179.8,-223.74"/>
</a>
</g>
</g>
<!-- Node12 -->
<g id="Node000012" class="node">
<title>Node12</title>
<g id="a_Node000012"><a xlink:href="$classexamples_1_1crypto_1_1fitness.html#a052fc5adc7b09eb7f0613dc254699a5d" xlink:title=" ">
<polygon fill="white" stroke="#666666" points="318.5,-32 181.75,-32 181.75,0 318.5,0 318.5,-32"/>
<text text-anchor="start" x="189.75" y="-18.5" font-family="Helvetica,sans-Serif" font-size="10.00">examples.crypto.fitness.get</text>
<text text-anchor="middle" x="250.12" y="-6.5" font-family="Helvetica,sans-Serif" font-size="10.00">_values</text>
</a>
</g>
</g>
<!-- Node11&#45;&gt;Node12 -->
<g id="edge44_Node000011_Node000012" class="edge">
<title>Node11&#45;&gt;Node12</title>
<g id="a_edge44_Node000011_Node000012"><a xlink:title=" ">
<path fill="none" stroke="#63b8ff" d="M359.79,-46.61C343.24,-41.95 325.71,-37.01 309.68,-32.49"/>
<polygon fill="#63b8ff" stroke="#63b8ff" points="358.47,-49.88 369.05,-49.22 360.37,-43.14 358.47,-49.88"/>
</a>
</g>
</g>
<!-- Node13 -->
<g id="Node000013" class="node">
<title>Node13</title>
<g id="a_Node000013"><a xlink:href="$classexamples_1_1crypto_1_1fitness.html#af74be6f5f7cb7648d11cc9852fb1ea05" xlink:title=" ">
<polygon fill="white" stroke="#666666" points="139,-26 0,-26 0,-6 139,-6 139,-26"/>
<text text-anchor="middle" x="69.5" y="-12.5" font-family="Helvetica,sans-Serif" font-size="10.00">examples.crypto.fitness.plot</text>
</a>
</g>
</g>
<!-- Node12&#45;&gt;Node13 -->
<g id="edge45_Node000012_Node000013" class="edge">
<title>Node12&#45;&gt;Node13</title>
<g id="a_edge45_Node000012_Node000013"><a xlink:title=" ">
<path fill="none" stroke="#63b8ff" d="M169.95,-16C159.78,-16 149.42,-16 139.42,-16"/>
<polygon fill="#63b8ff" stroke="#63b8ff" points="169.83,-19.5 179.83,-16 169.83,-12.5 169.83,-19.5"/>
</a>
</g>
</g>
</g>
</svg>
