<?xml version="1.0" encoding="UTF-8" standalone="no"?>
<!DOCTYPE svg PUBLIC "-//W3C//DTD SVG 1.1//EN"
 "http://www.w3.org/Graphics/SVG/1.1/DTD/svg11.dtd">
<!-- Generated by graphviz version 12.2.1 (20241206.2353)
 -->
<!-- Title: examples.scheduling.select_dvs Pages: 1 -->
<svg width="577pt" height="140pt"
 viewBox="0.00 0.00 576.50 140.00" xmlns="http://www.w3.org/2000/svg" xmlns:xlink="http://www.w3.org/1999/xlink">
<g id="graph0" class="graph" transform="scale(1 1) rotate(0) translate(4 136)">
<title>examples.scheduling.select_dvs</title>
<!-- Node1 -->
<g id="Node000001" class="node">
<title>Node1</title>
<g id="a_Node000001"><a xlink:title=" ">
<polygon fill="#999999" stroke="#666666" points="568.5,-67 410.75,-67 410.75,-47 568.5,-47 568.5,-67"/>
<text text-anchor="middle" x="489.62" y="-53.5" font-family="Helvetica,sans-Serif" font-size="10.00">examples.scheduling.select_dvs</text>
</a>
</g>
</g>
<!-- Node2 -->
<g id="Node000002" class="node">
<title>Node2</title>
<g id="a_Node000002"><a xlink:href="$classexamples_1_1scheduling_1_1fitness.html#a4eff7a725e23a7148b932307532f6542" xlink:title=" ">
<polygon fill="white" stroke="#666666" points="157.38,-132 14.62,-132 14.62,-100 157.38,-100 157.38,-132"/>
<text text-anchor="start" x="22.62" y="-118.5" font-family="Helvetica,sans-Serif" font-size="10.00">examples.scheduling.fitness.</text>
<text text-anchor="middle" x="86" y="-106.5" font-family="Helvetica,sans-Serif" font-size="10.00">__call__</text>
</a>
</g>
</g>
<!-- Node1&#45;&gt;Node2 -->
<g id="edge17_Node000001_Node000002" class="edge">
<title>Node1&#45;&gt;Node2</title>
<g id="a_edge17_Node000001_Node000002"><a xlink:title=" ">
<path fill="none" stroke="#63b8ff" d="M463.62,-73.39C441.34,-86.97 407.31,-105.25 374.75,-113 302.33,-130.24 216.74,-128.43 157.83,-123.9"/>
<polygon fill="#63b8ff" stroke="#63b8ff" points="465.36,-76.43 471.98,-68.16 461.65,-70.5 465.36,-76.43"/>
</a>
</g>
</g>
<!-- Node3 -->
<g id="Node000003" class="node">
<title>Node3</title>
<g id="a_Node000003"><a xlink:href="$classexamples_1_1scheduling_1_1fitness.html#a8d58e9d7e95ceb929858cdc06b0eda47" xlink:title=" ">
<polygon fill="white" stroke="#666666" points="164.12,-67 7.88,-67 7.88,-47 164.12,-47 164.12,-67"/>
<text text-anchor="middle" x="86" y="-53.5" font-family="Helvetica,sans-Serif" font-size="10.00">examples.scheduling.fitness.fun</text>
</a>
</g>
</g>
<!-- Node1&#45;&gt;Node3 -->
<g id="edge18_Node000001_Node000003" class="edge">
<title>Node1&#45;&gt;Node3</title>
<g id="a_edge18_Node000001_Node000003"><a xlink:title=" ">
<path fill="none" stroke="#63b8ff" d="M399.2,-57C328.73,-57 231.5,-57 164.36,-57"/>
<polygon fill="#63b8ff" stroke="#63b8ff" points="399.2,-60.5 409.2,-57 399.2,-53.5 399.2,-60.5"/>
</a>
</g>
</g>
<!-- Node4 -->
<g id="Node000004" class="node">
<title>Node4</title>
<g id="a_Node000004"><a xlink:href="$classexamples_1_1scheduling_1_1fitness.html#a713c154b74b96a06274438bae71e2419" xlink:title=" ">
<polygon fill="white" stroke="#666666" points="172,-20 0,-20 0,0 172,0 172,-20"/>
<text text-anchor="middle" x="86" y="-6.5" font-family="Helvetica,sans-Serif" font-size="10.00">examples.scheduling.fitness.qd_fun</text>
</a>
</g>
</g>
<!-- Node1&#45;&gt;Node4 -->
<g id="edge19_Node000001_Node000004" class="edge">
<title>Node1&#45;&gt;Node4</title>
<g id="a_edge19_Node000001_Node000004"><a xlink:title=" ">
<path fill="none" stroke="#63b8ff" d="M399.64,-46.59C331.88,-38.66 239.18,-27.81 172.34,-19.99"/>
<polygon fill="#63b8ff" stroke="#63b8ff" points="398.87,-50.02 409.21,-47.71 399.68,-43.07 398.87,-50.02"/>
</a>
</g>
</g>
<!-- Node5 -->
<g id="Node000005" class="node">
<title>Node5</title>
<g id="a_Node000005"><a xlink:href="$classexamples_1_1scheduling_1_1fitness.html#a0dcc50199c64159aae9a5a89326d1cc6" xlink:title=" ">
<polygon fill="white" stroke="#666666" points="374.75,-86 208,-86 208,-66 374.75,-66 374.75,-86"/>
<text text-anchor="middle" x="291.38" y="-72.5" font-family="Helvetica,sans-Serif" font-size="10.00">examples.scheduling.fitness.score</text>
</a>
</g>
</g>
<!-- Node1&#45;&gt;Node5 -->
<g id="edge20_Node000001_Node000005" class="edge">
<title>Node1&#45;&gt;Node5</title>
<g id="a_edge20_Node000001_Node000005"><a xlink:title=" ">
<path fill="none" stroke="#63b8ff" d="M399.2,-65.66C391.16,-66.44 383.04,-67.22 375.06,-67.99"/>
<polygon fill="#63b8ff" stroke="#63b8ff" points="399.38,-69.16 408.99,-64.71 398.7,-62.19 399.38,-69.16"/>
</a>
</g>
</g>
<!-- Node5&#45;&gt;Node2 -->
<g id="edge21_Node000005_Node000002" class="edge">
<title>Node5&#45;&gt;Node2</title>
<g id="a_edge21_Node000005_Node000002"><a xlink:title=" ">
<path fill="none" stroke="#63b8ff" d="M226.12,-88.64C204.4,-92.91 180.04,-97.7 157.85,-102.07"/>
<polygon fill="#63b8ff" stroke="#63b8ff" points="226.58,-92.11 235.72,-86.75 225.23,-85.25 226.58,-92.11"/>
</a>
</g>
</g>
<!-- Node5&#45;&gt;Node3 -->
<g id="edge22_Node000005_Node000003" class="edge">
<title>Node5&#45;&gt;Node3</title>
<g id="a_edge22_Node000005_Node000003"><a xlink:title=" ">
<path fill="none" stroke="#63b8ff" d="M196.51,-67.23C185.76,-66.23 174.9,-65.21 164.39,-64.23"/>
<polygon fill="#63b8ff" stroke="#63b8ff" points="195.87,-70.69 206.15,-68.13 196.52,-63.72 195.87,-70.69"/>
</a>
</g>
</g>
<!-- Node5&#45;&gt;Node4 -->
<g id="edge23_Node000005_Node000004" class="edge">
<title>Node5&#45;&gt;Node4</title>
<g id="a_edge23_Node000005_Node000004"><a xlink:title=" ">
<path fill="none" stroke="#63b8ff" d="M247.32,-62.03C208.95,-49.58 153.67,-31.64 119.07,-20.41"/>
<polygon fill="#63b8ff" stroke="#63b8ff" points="246.12,-65.32 256.71,-65.07 248.28,-58.66 246.12,-65.32"/>
</a>
</g>
</g>
<!-- Node5&#45;&gt;Node5 -->
<g id="edge24_Node000005_Node000005" class="edge">
<title>Node5&#45;&gt;Node5</title>
<g id="a_edge24_Node000005_Node000005"><a xlink:title=" ">
<path fill="none" stroke="#63b8ff" d="M326.78,-97.11C322.56,-101.14 310.76,-104 291.38,-104 256.91,-104 246.41,-94.98 259.88,-86.34"/>
<polygon fill="#63b8ff" stroke="#63b8ff" points="330.09,-95.97 323.39,-87.76 323.51,-98.36 330.09,-95.97"/>
</a>
</g>
</g>
</g>
</svg>
