<?xml version="1.0" encoding="UTF-8" standalone="no"?>
<!DOCTYPE svg PUBLIC "-//W3C//DTD SVG 1.1//EN"
 "http://www.w3.org/Graphics/SVG/1.1/DTD/svg11.dtd">
<!-- Generated by graphviz version 12.2.1 (20241206.2353)
 -->
<!-- Title: fcmaes.diversifier.run_minimize_ Pages: 1 -->
<svg width="440pt" height="109pt"
 viewBox="0.00 0.00 440.00 109.00" xmlns="http://www.w3.org/2000/svg" xmlns:xlink="http://www.w3.org/1999/xlink">
<g id="graph0" class="graph" transform="scale(1 1) rotate(0) translate(4 105)">
<title>fcmaes.diversifier.run_minimize_</title>
<!-- Node1 -->
<g id="Node000001" class="node">
<title>Node1</title>
<g id="a_Node000001"><a xlink:title="Executes the optimization processes involving MAP&#45;Elites or solvers in a sequential or multiple confi...">
<polygon fill="#999999" stroke="#666666" points="109.75,-54 0,-54 0,-22 109.75,-22 109.75,-54"/>
<text text-anchor="start" x="8" y="-40.5" font-family="Helvetica,sans-Serif" font-size="10.00">fcmaes.diversifier.run</text>
<text text-anchor="middle" x="54.88" y="-28.5" font-family="Helvetica,sans-Serif" font-size="10.00">_minimize_</text>
</a>
</g>
</g>
<!-- Node2 -->
<g id="Node000002" class="node">
<title>Node2</title>
<g id="a_Node000002"><a xlink:href="$namespacefcmaes_1_1diversifier.html#a4e57f15d7add818aaf5dfe6223e98475" xlink:title="Minimizes a given objective function using an evolutionary algorithm or the B.I.T....">
<polygon fill="white" stroke="#666666" points="286.25,-70 145.75,-70 145.75,-50 286.25,-50 286.25,-70"/>
<text text-anchor="middle" x="216" y="-56.5" font-family="Helvetica,sans-Serif" font-size="10.00">fcmaes.diversifier.minimize_</text>
</a>
</g>
</g>
<!-- Node1&#45;&gt;Node2 -->
<g id="edge9_Node000001_Node000002" class="edge">
<title>Node1&#45;&gt;Node2</title>
<g id="a_edge9_Node000001_Node000002"><a xlink:title=" ">
<path fill="none" stroke="#63b8ff" d="M110.19,-45.51C117.9,-46.58 125.97,-47.69 134.05,-48.81"/>
<polygon fill="#63b8ff" stroke="#63b8ff" points="133.57,-52.27 143.95,-50.18 134.53,-45.34 133.57,-52.27"/>
</a>
</g>
</g>
<!-- Node5 -->
<g id="Node000005" class="node">
<title>Node5</title>
<g id="a_Node000005"><a xlink:href="$namespacefcmaes_1_1diversifier.html#ae5fd5f192aa814e8e6abe660f4592d7d" xlink:title="Executes the MAP&#45;Elites algorithm for a given archive and fitness function.">
<polygon fill="white" stroke="#666666" points="270.88,-32 161.12,-32 161.12,0 270.88,0 270.88,-32"/>
<text text-anchor="start" x="169.12" y="-18.5" font-family="Helvetica,sans-Serif" font-size="10.00">fcmaes.diversifier.run</text>
<text text-anchor="middle" x="216" y="-6.5" font-family="Helvetica,sans-Serif" font-size="10.00">_map_elites_</text>
</a>
</g>
</g>
<!-- Node1&#45;&gt;Node5 -->
<g id="edge12_Node000001_Node000005" class="edge">
<title>Node1&#45;&gt;Node5</title>
<g id="a_edge12_Node000001_Node000005"><a xlink:title=" ">
<path fill="none" stroke="#63b8ff" d="M110.19,-30.49C122.8,-28.75 136.34,-26.87 149.37,-25.07"/>
<polygon fill="#63b8ff" stroke="#63b8ff" points="149.73,-28.56 159.16,-23.72 148.77,-21.62 149.73,-28.56"/>
</a>
</g>
</g>
<!-- Node3 -->
<g id="Node000003" class="node">
<title>Node3</title>
<g id="a_Node000003"><a xlink:href="$namespacefcmaes_1_1diversifier.html#a7360db2f799d60d42b8a3f76650f075a" xlink:title="Selects and initializes the appropriate optimization solver based on the specified parameters.">
<polygon fill="white" stroke="#666666" points="432,-101 322.25,-101 322.25,-69 432,-69 432,-101"/>
<text text-anchor="start" x="330.25" y="-87.5" font-family="Helvetica,sans-Serif" font-size="10.00">fcmaes.diversifier.get</text>
<text text-anchor="middle" x="377.12" y="-75.5" font-family="Helvetica,sans-Serif" font-size="10.00">_solver_</text>
</a>
</g>
</g>
<!-- Node2&#45;&gt;Node3 -->
<g id="edge10_Node000002_Node000003" class="edge">
<title>Node2&#45;&gt;Node3</title>
<g id="a_edge10_Node000002_Node000003"><a xlink:title=" ">
<path fill="none" stroke="#63b8ff" d="M283.56,-70.46C292.54,-71.87 301.75,-73.32 310.71,-74.72"/>
<polygon fill="#63b8ff" stroke="#63b8ff" points="309.98,-78.15 320.4,-76.25 311.07,-71.24 309.98,-78.15"/>
</a>
</g>
</g>
<!-- Node4 -->
<g id="Node000004" class="node">
<title>Node4</title>
<g id="a_Node000004"><a xlink:href="$namespacefcmaes_1_1diversifier.html#a91529f8a57353a18ce9ce8ea0e372f63" xlink:title="Runs the BiteOpt algorithm to optimize a given fitness function.">
<polygon fill="white" stroke="#666666" points="432,-51 322.25,-51 322.25,-19 432,-19 432,-51"/>
<text text-anchor="start" x="330.25" y="-37.5" font-family="Helvetica,sans-Serif" font-size="10.00">fcmaes.diversifier.run</text>
<text text-anchor="middle" x="377.12" y="-25.5" font-family="Helvetica,sans-Serif" font-size="10.00">_bite_</text>
</a>
</g>
</g>
<!-- Node2&#45;&gt;Node4 -->
<g id="edge11_Node000002_Node000004" class="edge">
<title>Node2&#45;&gt;Node4</title>
<g id="a_edge11_Node000002_Node000004"><a xlink:title=" ">
<path fill="none" stroke="#63b8ff" d="M283.56,-49.54C292.54,-48.13 301.75,-46.68 310.71,-45.28"/>
<polygon fill="#63b8ff" stroke="#63b8ff" points="311.07,-48.76 320.4,-43.75 309.98,-41.85 311.07,-48.76"/>
</a>
</g>
</g>
</g>
</svg>
