<?xml version="1.0" encoding="UTF-8" standalone="no"?>
<!DOCTYPE svg PUBLIC "-//W3C//DTD SVG 1.1//EN"
 "http://www.w3.org/Graphics/SVG/1.1/DTD/svg11.dtd">
<!-- Generated by graphviz version 12.2.1 (20241206.2353)
 -->
<!-- Title: examples.prophet_opt.convert_x Pages: 1 -->
<svg width="553pt" height="146pt"
 viewBox="0.00 0.00 552.50 146.00" xmlns="http://www.w3.org/2000/svg" xmlns:xlink="http://www.w3.org/1999/xlink">
<g id="graph0" class="graph" transform="scale(1 1) rotate(0) translate(4 142)">
<title>examples.prophet_opt.convert_x</title>
<!-- Node1 -->
<g id="Node000001" class="node">
<title>Node1</title>
<g id="a_Node000001"><a xlink:title=" ">
<polygon fill="#999999" stroke="#666666" points="544.5,-60 386.75,-60 386.75,-40 544.5,-40 544.5,-60"/>
<text text-anchor="middle" x="465.62" y="-46.5" font-family="Helvetica,sans-Serif" font-size="10.00">examples.prophet_opt.convert_x</text>
</a>
</g>
</g>
<!-- Node2 -->
<g id="Node000002" class="node">
<title>Node2</title>
<g id="a_Node000002"><a xlink:href="$namespaceexamples_1_1prophet__opt.html#a18a248c54de45c4841f27809e3a642b1" xlink:title=" ">
<polygon fill="white" stroke="#666666" points="342.88,-94 214.38,-94 214.38,-62 342.88,-62 342.88,-94"/>
<text text-anchor="start" x="222.38" y="-80.5" font-family="Helvetica,sans-Serif" font-size="10.00">examples.prophet_opt.btc</text>
<text text-anchor="middle" x="278.62" y="-68.5" font-family="Helvetica,sans-Serif" font-size="10.00">_show_x</text>
</a>
</g>
</g>
<!-- Node1&#45;&gt;Node2 -->
<g id="edge15_Node000001_Node000002" class="edge">
<title>Node1&#45;&gt;Node2</title>
<g id="a_edge15_Node000001_Node000002"><a xlink:title=" ">
<path fill="none" stroke="#63b8ff" d="M384.5,-62.13C370.69,-64.22 356.5,-66.37 343.19,-68.38"/>
<polygon fill="#63b8ff" stroke="#63b8ff" points="384.61,-65.65 393.98,-60.69 383.57,-58.73 384.61,-65.65"/>
</a>
</g>
</g>
<!-- Node6 -->
<g id="Node000006" class="node">
<title>Node6</title>
<g id="a_Node000006"><a xlink:href="$namespaceexamples_1_1prophet__opt.html#ab552129c694447ce6fc44ad3f49825e9" xlink:title=" ">
<polygon fill="white" stroke="#666666" points="350.75,-38 206.5,-38 206.5,-18 350.75,-18 350.75,-38"/>
<text text-anchor="middle" x="278.62" y="-24.5" font-family="Helvetica,sans-Serif" font-size="10.00">examples.prophet_opt.fitness</text>
</a>
</g>
</g>
<!-- Node1&#45;&gt;Node6 -->
<g id="edge20_Node000001_Node000006" class="edge">
<title>Node1&#45;&gt;Node6</title>
<g id="a_edge20_Node000001_Node000006"><a xlink:title=" ">
<path fill="none" stroke="#63b8ff" d="M375.09,-39.35C367.03,-38.39 358.94,-37.43 351.07,-36.5"/>
<polygon fill="#63b8ff" stroke="#63b8ff" points="374.59,-42.82 384.93,-40.52 375.42,-35.87 374.59,-42.82"/>
</a>
</g>
</g>
<!-- Node3 -->
<g id="Node000003" class="node">
<title>Node3</title>
<g id="a_Node000003"><a xlink:href="$namespaceexamples_1_1prophet__opt.html#a89edb34f6787ecf7671d592512524b7f" xlink:title=" ">
<polygon fill="white" stroke="#666666" points="170.5,-138 0,-138 0,-118 170.5,-118 170.5,-138"/>
<text text-anchor="middle" x="85.25" y="-124.5" font-family="Helvetica,sans-Serif" font-size="10.00">examples.prophet_opt.optimize_btc</text>
</a>
</g>
</g>
<!-- Node2&#45;&gt;Node3 -->
<g id="edge16_Node000002_Node000003" class="edge">
<title>Node2&#45;&gt;Node3</title>
<g id="a_edge16_Node000002_Node000003"><a xlink:title=" ">
<path fill="none" stroke="#63b8ff" d="M212.19,-97.61C198.46,-101.53 184.04,-105.52 170.5,-109 159.03,-111.95 146.61,-114.89 134.93,-117.54"/>
<polygon fill="#63b8ff" stroke="#63b8ff" points="212.93,-101.04 221.57,-94.9 210.99,-94.31 212.93,-101.04"/>
</a>
</g>
</g>
<!-- Node4 -->
<g id="Node000004" class="node">
<title>Node4</title>
<g id="a_Node000004"><a xlink:href="$namespaceexamples_1_1prophet__opt.html#a6036ff4e616cbf09671db7d938061190" xlink:title=" ">
<polygon fill="white" stroke="#666666" points="161.12,-100 9.38,-100 9.38,-68 161.12,-68 161.12,-100"/>
<text text-anchor="start" x="17.38" y="-86.5" font-family="Helvetica,sans-Serif" font-size="10.00">examples.prophet_opt.optimize</text>
<text text-anchor="middle" x="85.25" y="-74.5" font-family="Helvetica,sans-Serif" font-size="10.00">_btc_ask_tell</text>
</a>
</g>
</g>
<!-- Node2&#45;&gt;Node4 -->
<g id="edge17_Node000002_Node000004" class="edge">
<title>Node2&#45;&gt;Node4</title>
<g id="a_edge17_Node000002_Node000004"><a xlink:title=" ">
<path fill="none" stroke="#63b8ff" d="M202.65,-80.35C189.06,-80.78 174.89,-81.22 161.31,-81.65"/>
<polygon fill="#63b8ff" stroke="#63b8ff" points="202.5,-83.86 212.39,-80.05 202.28,-76.86 202.5,-83.86"/>
</a>
</g>
</g>
<!-- Node5 -->
<g id="Node000005" class="node">
<title>Node5</title>
<g id="a_Node000005"><a xlink:href="$namespaceexamples_1_1prophet__opt.html#ae9fc3dd94248f2146ad53fcf139d55fb" xlink:title=" ">
<polygon fill="white" stroke="#666666" points="154.38,-32 16.12,-32 16.12,0 154.38,0 154.38,-32"/>
<text text-anchor="start" x="24.12" y="-18.5" font-family="Helvetica,sans-Serif" font-size="10.00">examples.prophet_opt.show</text>
<text text-anchor="middle" x="85.25" y="-6.5" font-family="Helvetica,sans-Serif" font-size="10.00">_good_result</text>
</a>
</g>
</g>
<!-- Node2&#45;&gt;Node5 -->
<g id="edge18_Node000002_Node000005" class="edge">
<title>Node2&#45;&gt;Node5</title>
<g id="a_edge18_Node000002_Node000005"><a xlink:title=" ">
<path fill="none" stroke="#63b8ff" d="M216.14,-58.08C190.57,-49.8 161.24,-40.3 136.94,-32.42"/>
<polygon fill="#63b8ff" stroke="#63b8ff" points="214.81,-61.33 225.4,-61.08 216.97,-54.67 214.81,-61.33"/>
</a>
</g>
</g>
<!-- Node5&#45;&gt;Node5 -->
<g id="edge19_Node000005_Node000005" class="edge">
<title>Node5&#45;&gt;Node5</title>
<g id="a_edge19_Node000005_Node000005"><a xlink:title=" ">
<path fill="none" stroke="#63b8ff" d="M117.48,-43.71C112.1,-47.48 101.36,-50 85.25,-50 55.79,-50 44.28,-41.58 50.73,-32.44"/>
<polygon fill="#63b8ff" stroke="#63b8ff" points="120.9,-44.42 119.47,-33.93 114.04,-43.02 120.9,-44.42"/>
</a>
</g>
</g>
<!-- Node6&#45;&gt;Node5 -->
<g id="edge21_Node000006_Node000005" class="edge">
<title>Node6&#45;&gt;Node5</title>
<g id="a_edge21_Node000006_Node000005"><a xlink:title=" ">
<path fill="none" stroke="#63b8ff" d="M194.96,-22.82C181.57,-21.98 167.84,-21.12 154.84,-20.3"/>
<polygon fill="#63b8ff" stroke="#63b8ff" points="194.38,-26.29 204.58,-23.42 194.82,-19.3 194.38,-26.29"/>
</a>
</g>
</g>
</g>
</svg>
