<?xml version="1.0" encoding="UTF-8" standalone="no"?>
<!DOCTYPE svg PUBLIC "-//W3C//DTD SVG 1.1//EN"
 "http://www.w3.org/Graphics/SVG/1.1/DTD/svg11.dtd">
<!-- Generated by graphviz version 12.2.1 (20241206.2353)
 -->
<!-- Title: examples.cassini_minlp.test_multiretry Pages: 1 -->
<svg width="328pt" height="52pt"
 viewBox="0.00 0.00 328.00 52.00" xmlns="http://www.w3.org/2000/svg" xmlns:xlink="http://www.w3.org/1999/xlink">
<g id="graph0" class="graph" transform="scale(1 1) rotate(0) translate(4 48)">
<title>examples.cassini_minlp.test_multiretry</title>
<!-- Node1 -->
<g id="Node000001" class="node">
<title>Node1</title>
<g id="a_Node000001"><a xlink:title=" ">
<polygon fill="#999999" stroke="#666666" points="320,-32 180.25,-32 180.25,0 320,0 320,-32"/>
<text text-anchor="start" x="188.25" y="-18.5" font-family="Helvetica,sans-Serif" font-size="10.00">examples.cassini_minlp.test</text>
<text text-anchor="middle" x="250.12" y="-6.5" font-family="Helvetica,sans-Serif" font-size="10.00">_multiretry</text>
</a>
</g>
</g>
<!-- Node2 -->
<g id="Node000002" class="node">
<title>Node2</title>
<g id="a_Node000002"><a xlink:href="$namespaceexamples_1_1cassini__minlp.html#a686d98230d20b74f09e6ad1839f06ffc" xlink:title=" ">
<polygon fill="white" stroke="#666666" points="144.25,-26 0,-26 0,-6 144.25,-6 144.25,-26"/>
<text text-anchor="middle" x="72.12" y="-12.5" font-family="Helvetica,sans-Serif" font-size="10.00">examples.cassini_minlp.main</text>
</a>
</g>
</g>
<!-- Node1&#45;&gt;Node2 -->
<g id="edge5_Node000001_Node000002" class="edge">
<title>Node1&#45;&gt;Node2</title>
<g id="a_edge5_Node000001_Node000002"><a xlink:title=" ">
<path fill="none" stroke="#63b8ff" d="M168.34,-16C160.45,-16 152.48,-16 144.68,-16"/>
<polygon fill="#63b8ff" stroke="#63b8ff" points="168.3,-19.5 178.3,-16 168.3,-12.5 168.3,-19.5"/>
</a>
</g>
</g>
<!-- Node2&#45;&gt;Node2 -->
<g id="edge6_Node000002_Node000002" class="edge">
<title>Node2&#45;&gt;Node2</title>
<g id="a_edge6_Node000002_Node000002"><a xlink:title=" ">
<path fill="none" stroke="#63b8ff" d="M103.92,-37.11C100.13,-41.14 89.53,-44 72.12,-44 41.18,-44 31.76,-34.98 43.84,-26.34"/>
<polygon fill="#63b8ff" stroke="#63b8ff" points="107.3,-36.2 100.88,-27.78 100.65,-38.37 107.3,-36.2"/>
</a>
</g>
</g>
</g>
</svg>
