<?xml version="1.0" encoding="UTF-8" standalone="no"?>
<!DOCTYPE svg PUBLIC "-//W3C//DTD SVG 1.1//EN"
 "http://www.w3.org/Graphics/SVG/1.1/DTD/svg11.dtd">
<!-- Generated by graphviz version 12.2.1 (20241206.2353)
 -->
<!-- Title: fcmaes.moretry.plot Pages: 1 -->
<svg width="415pt" height="28pt"
 viewBox="0.00 0.00 414.50 28.00" xmlns="http://www.w3.org/2000/svg" xmlns:xlink="http://www.w3.org/1999/xlink">
<g id="graph0" class="graph" transform="scale(1 1) rotate(0) translate(4 24)">
<title>fcmaes.moretry.plot</title>
<!-- Node1 -->
<g id="Node000001" class="node">
<title>Node1</title>
<g id="a_Node000001"><a xlink:title="Plots the feasible solution space and Pareto front for a given set of data points.">
<polygon fill="#999999" stroke="#666666" points="102.25,-20 0,-20 0,0 102.25,0 102.25,-20"/>
<text text-anchor="middle" x="51.12" y="-6.5" font-family="Helvetica,sans-Serif" font-size="10.00">fcmaes.moretry.plot</text>
</a>
</g>
</g>
<!-- Node2 -->
<g id="Node000002" class="node">
<title>Node2</title>
<g id="a_Node000002"><a xlink:href="$namespacefcmaes_1_1moretry.html#a76f8b50c1782e6def55706f648e3e819" xlink:title="Filter and sort elements based on Pareto efficiency.">
<polygon fill="white" stroke="#666666" points="251.75,-20 138.25,-20 138.25,0 251.75,0 251.75,-20"/>
<text text-anchor="middle" x="195" y="-6.5" font-family="Helvetica,sans-Serif" font-size="10.00">fcmaes.moretry.pareto</text>
</a>
</g>
</g>
<!-- Node1&#45;&gt;Node2 -->
<g id="edge5_Node000001_Node000002" class="edge">
<title>Node1&#45;&gt;Node2</title>
<g id="a_edge5_Node000001_Node000002"><a xlink:title=" ">
<path fill="none" stroke="#63b8ff" d="M102.54,-10C110.34,-10 118.5,-10 126.59,-10"/>
<polygon fill="#63b8ff" stroke="#63b8ff" points="126.44,-13.5 136.44,-10 126.44,-6.5 126.44,-13.5"/>
</a>
</g>
</g>
<!-- Node3 -->
<g id="Node000003" class="node">
<title>Node3</title>
<g id="a_Node000003"><a xlink:href="$namespacefcmaes_1_1moretry.html#a56d8f2ec5777046d87dcd9a79c8168f9" xlink:title="Identifies the Pareto&#45;optimal points from the given set of points.">
<polygon fill="white" stroke="#666666" points="406.5,-20 287.75,-20 287.75,0 406.5,0 406.5,-20"/>
<text text-anchor="middle" x="347.12" y="-6.5" font-family="Helvetica,sans-Serif" font-size="10.00">fcmaes.moretry._pareto</text>
</a>
</g>
</g>
<!-- Node2&#45;&gt;Node3 -->
<g id="edge6_Node000002_Node000003" class="edge">
<title>Node2&#45;&gt;Node3</title>
<g id="a_edge6_Node000002_Node000003"><a xlink:title=" ">
<path fill="none" stroke="#63b8ff" d="M251.9,-10C259.78,-10 267.95,-10 276.05,-10"/>
<polygon fill="#63b8ff" stroke="#63b8ff" points="275.9,-13.5 285.9,-10 275.9,-6.5 275.9,-13.5"/>
</a>
</g>
</g>
</g>
</svg>
