<?xml version="1.0" encoding="UTF-8" standalone="no"?>
<!DOCTYPE svg PUBLIC "-//W3C//DTD SVG 1.1//EN"
 "http://www.w3.org/Graphics/SVG/1.1/DTD/svg11.dtd">
<!-- Generated by graphviz version 12.2.1 (20241206.2353)
 -->
<!-- Title: examples.elitescass2.launch Pages: 1 -->
<svg width="338pt" height="90pt"
 viewBox="0.00 0.00 337.75 90.00" xmlns="http://www.w3.org/2000/svg" xmlns:xlink="http://www.w3.org/1999/xlink">
<g id="graph0" class="graph" transform="scale(1 1) rotate(0) translate(4 86)">
<title>examples.elitescass2.launch</title>
<!-- Node1 -->
<g id="Node000001" class="node">
<title>Node1</title>
<g id="a_Node000001"><a xlink:title=" ">
<polygon fill="#999999" stroke="#666666" points="329.75,-51 187.75,-51 187.75,-31 329.75,-31 329.75,-51"/>
<text text-anchor="middle" x="258.75" y="-37.5" font-family="Helvetica,sans-Serif" font-size="10.00">examples.elitescass2.launch</text>
</a>
</g>
</g>
<!-- Node2 -->
<g id="Node000002" class="node">
<title>Node2</title>
<g id="a_Node000002"><a xlink:href="$classexamples_1_1elitescass2_1_1_cassini2__me.html#a668a8d93c21c94c40c4917e8e232453a" xlink:title=" ">
<polygon fill="white" stroke="#666666" points="151.75,-82 0,-82 0,-50 151.75,-50 151.75,-82"/>
<text text-anchor="start" x="8" y="-68.5" font-family="Helvetica,sans-Serif" font-size="10.00">examples.elitescass2.Cassini2</text>
<text text-anchor="middle" x="75.88" y="-56.5" font-family="Helvetica,sans-Serif" font-size="10.00">_me.descriptors</text>
</a>
</g>
</g>
<!-- Node1&#45;&gt;Node2 -->
<g id="edge5_Node000001_Node000002" class="edge">
<title>Node1&#45;&gt;Node2</title>
<g id="a_edge5_Node000001_Node000002"><a xlink:title=" ">
<path fill="none" stroke="#63b8ff" d="M176.13,-52.28C168.17,-53.38 160.11,-54.5 152.22,-55.59"/>
<polygon fill="#63b8ff" stroke="#63b8ff" points="176.38,-55.78 185.8,-50.94 175.42,-48.85 176.38,-55.78"/>
</a>
</g>
</g>
<!-- Node3 -->
<g id="Node000003" class="node">
<title>Node3</title>
<g id="a_Node000003"><a xlink:href="$classexamples_1_1elitescass2_1_1_cassini2__me.html#a2ef9f353092f4e6e21687a58c231fca0" xlink:title=" ">
<polygon fill="white" stroke="#666666" points="151.75,-32 0,-32 0,0 151.75,0 151.75,-32"/>
<text text-anchor="start" x="8" y="-18.5" font-family="Helvetica,sans-Serif" font-size="10.00">examples.elitescass2.Cassini2</text>
<text text-anchor="middle" x="75.88" y="-6.5" font-family="Helvetica,sans-Serif" font-size="10.00">_me.qd_fitness</text>
</a>
</g>
</g>
<!-- Node1&#45;&gt;Node3 -->
<g id="edge6_Node000001_Node000003" class="edge">
<title>Node1&#45;&gt;Node3</title>
<g id="a_edge6_Node000001_Node000003"><a xlink:title=" ">
<path fill="none" stroke="#63b8ff" d="M176.13,-29.72C168.17,-28.62 160.11,-27.5 152.22,-26.41"/>
<polygon fill="#63b8ff" stroke="#63b8ff" points="175.42,-33.15 185.8,-31.06 176.38,-26.22 175.42,-33.15"/>
</a>
</g>
</g>
</g>
</svg>
