<?xml version="1.0" encoding="UTF-8" standalone="no"?>
<!DOCTYPE svg PUBLIC "-//W3C//DTD SVG 1.1//EN"
 "http://www.w3.org/Graphics/SVG/1.1/DTD/svg11.dtd">
<!-- Generated by graphviz version 12.2.1 (20241206.2353)
 -->
<!-- Title: examples.spring.print_result Pages: 1 -->
<svg width="632pt" height="135pt"
 viewBox="0.00 0.00 632.25 135.17" xmlns="http://www.w3.org/2000/svg" xmlns:xlink="http://www.w3.org/1999/xlink">
<g id="graph0" class="graph" transform="scale(1 1) rotate(0) translate(4 131.17)">
<title>examples.spring.print_result</title>
<!-- Node1 -->
<g id="Node000001" class="node">
<title>Node1</title>
<g id="a_Node000001"><a xlink:title=" ">
<polygon fill="#999999" stroke="#666666" points="109,-73.17 0,-73.17 0,-41.17 109,-41.17 109,-73.17"/>
<text text-anchor="start" x="8" y="-59.67" font-family="Helvetica,sans-Serif" font-size="10.00">examples.spring.print</text>
<text text-anchor="middle" x="54.5" y="-47.67" font-family="Helvetica,sans-Serif" font-size="10.00">_result</text>
</a>
</g>
</g>
<!-- Node2 -->
<g id="Node000002" class="node">
<title>Node2</title>
<g id="a_Node000002"><a xlink:href="$namespaceexamples_1_1spring.html#ab4b7a17b6f29a47a16b6e750c9f44b6a" xlink:title=" ">
<polygon fill="white" stroke="#666666" points="274.25,-127.17 145,-127.17 145,-107.17 274.25,-107.17 274.25,-127.17"/>
<text text-anchor="middle" x="209.62" y="-113.67" font-family="Helvetica,sans-Serif" font-size="10.00">examples.spring._feasible</text>
</a>
</g>
</g>
<!-- Node1&#45;&gt;Node2 -->
<g id="edge15_Node000001_Node000002" class="edge">
<title>Node1&#45;&gt;Node2</title>
<g id="a_edge15_Node000001_Node000002"><a xlink:title=" ">
<path fill="none" stroke="#63b8ff" d="M95.97,-73.66C111.3,-79.85 128.93,-86.9 145,-93.17 153.11,-96.33 161.82,-99.66 170.12,-102.8"/>
<polygon fill="#63b8ff" stroke="#63b8ff" points="168.69,-106 179.28,-106.25 171.16,-99.45 168.69,-106"/>
</a>
</g>
</g>
<!-- Node3 -->
<g id="Node000003" class="node">
<title>Node3</title>
<g id="a_Node000003"><a xlink:href="$namespaceexamples_1_1spring.html#ad819bd367024b1a2ff5dcdcf9baf0f26" xlink:title=" ">
<polygon fill="white" stroke="#666666" points="432,-65.17 310.25,-65.17 310.25,-45.17 432,-45.17 432,-65.17"/>
<text text-anchor="middle" x="371.12" y="-51.67" font-family="Helvetica,sans-Serif" font-size="10.00">examples.spring.penalty</text>
</a>
</g>
</g>
<!-- Node1&#45;&gt;Node3 -->
<g id="edge16_Node000001_Node000003" class="edge">
<title>Node1&#45;&gt;Node3</title>
<g id="a_edge16_Node000001_Node000003"><a xlink:title=" ">
<path fill="none" stroke="#63b8ff" d="M109.45,-59.27C121.17,-59.64 133.5,-59.97 145,-60.17 202.44,-61.13 216.83,-61.66 274.25,-60.17 282.06,-59.96 290.23,-59.67 298.36,-59.32"/>
<polygon fill="#63b8ff" stroke="#63b8ff" points="298.45,-62.82 308.28,-58.86 298.13,-55.83 298.45,-62.82"/>
</a>
</g>
</g>
<!-- Node5 -->
<g id="Node000005" class="node">
<title>Node5</title>
<g id="a_Node000005"><a xlink:href="$namespaceexamples_1_1spring.html#a44581395454773e536a02fcb79378602" xlink:title=" ">
<polygon fill="white" stroke="#666666" points="430.5,-24.17 311.75,-24.17 311.75,-4.17 430.5,-4.17 430.5,-24.17"/>
<text text-anchor="middle" x="371.12" y="-10.67" font-family="Helvetica,sans-Serif" font-size="10.00">examples.spring.weight</text>
</a>
</g>
</g>
<!-- Node1&#45;&gt;Node5 -->
<g id="edge18_Node000001_Node000005" class="edge">
<title>Node1&#45;&gt;Node5</title>
<g id="a_edge18_Node000001_Node000005"><a xlink:title=" ">
<path fill="none" stroke="#63b8ff" d="M78.91,-40.82C96.26,-29.75 120.97,-16.09 145,-10.17 195.8,2.36 255.02,0.69 299.97,-3.75"/>
<polygon fill="#63b8ff" stroke="#63b8ff" points="299.55,-7.22 309.86,-4.8 300.29,-0.26 299.55,-7.22"/>
</a>
</g>
</g>
<!-- Node6 -->
<g id="Node000006" class="node">
<title>Node6</title>
<g id="a_Node000006"><a xlink:href="$namespaceexamples_1_1spring.html#a39b97ec21efea793b97726fa1bdc4d0b" xlink:title=" ">
<polygon fill="white" stroke="#666666" points="269,-51.17 150.25,-51.17 150.25,-19.17 269,-19.17 269,-51.17"/>
<text text-anchor="start" x="158.25" y="-37.67" font-family="Helvetica,sans-Serif" font-size="10.00">examples.spring.weight</text>
<text text-anchor="middle" x="209.62" y="-25.67" font-family="Helvetica,sans-Serif" font-size="10.00">_penalty</text>
</a>
</g>
</g>
<!-- Node1&#45;&gt;Node6 -->
<g id="edge19_Node000001_Node000006" class="edge">
<title>Node1&#45;&gt;Node6</title>
<g id="a_edge19_Node000001_Node000006"><a xlink:title=" ">
<path fill="none" stroke="#63b8ff" d="M109.49,-49.41C118.89,-48.06 128.8,-46.64 138.56,-45.23"/>
<polygon fill="#63b8ff" stroke="#63b8ff" points="139.02,-48.7 148.42,-43.82 138.03,-41.77 139.02,-48.7"/>
</a>
</g>
</g>
<!-- Node4 -->
<g id="Node000004" class="node">
<title>Node4</title>
<g id="a_Node000004"><a xlink:href="$namespaceexamples_1_1spring.html#a682c6c4156dd71a76e42d83aa869de29" xlink:title=" ">
<polygon fill="white" stroke="#666666" points="624.25,-65.17 468,-65.17 468,-45.17 624.25,-45.17 624.25,-65.17"/>
<text text-anchor="middle" x="546.12" y="-51.67" font-family="Helvetica,sans-Serif" font-size="10.00">examples.spring.constraint_ineq</text>
</a>
</g>
</g>
<!-- Node3&#45;&gt;Node4 -->
<g id="edge17_Node000003_Node000004" class="edge">
<title>Node3&#45;&gt;Node4</title>
<g id="a_edge17_Node000003_Node000004"><a xlink:title=" ">
<path fill="none" stroke="#63b8ff" d="M432.15,-55.17C439.91,-55.17 447.98,-55.17 456.09,-55.17"/>
<polygon fill="#63b8ff" stroke="#63b8ff" points="456.02,-58.67 466.02,-55.17 456.02,-51.67 456.02,-58.67"/>
</a>
</g>
</g>
<!-- Node6&#45;&gt;Node3 -->
<g id="edge20_Node000006_Node000003" class="edge">
<title>Node6&#45;&gt;Node3</title>
<g id="a_edge20_Node000006_Node000003"><a xlink:title=" ">
<path fill="none" stroke="#63b8ff" d="M269.11,-42.5C278.63,-43.7 288.59,-44.94 298.39,-46.17"/>
<polygon fill="#63b8ff" stroke="#63b8ff" points="297.91,-49.64 308.27,-47.41 298.78,-42.69 297.91,-49.64"/>
</a>
</g>
</g>
<!-- Node6&#45;&gt;Node5 -->
<g id="edge21_Node000006_Node000005" class="edge">
<title>Node6&#45;&gt;Node5</title>
<g id="a_edge21_Node000006_Node000005"><a xlink:title=" ">
<path fill="none" stroke="#63b8ff" d="M269.11,-27.47C279.23,-26.13 289.84,-24.74 300.23,-23.37"/>
<polygon fill="#63b8ff" stroke="#63b8ff" points="300.42,-26.88 309.88,-22.1 299.51,-19.94 300.42,-26.88"/>
</a>
</g>
</g>
</g>
</svg>
