<?xml version="1.0" encoding="UTF-8" standalone="no"?>
<!DOCTYPE svg PUBLIC "-//W3C//DTD SVG 1.1//EN"
 "http://www.w3.org/Graphics/SVG/1.1/DTD/svg11.dtd">
<!-- Generated by graphviz version 12.2.1 (20241206.2353)
 -->
<!-- Title: quantumcomm.read_solution Pages: 1 -->
<svg width="466pt" height="66pt"
 viewBox="0.00 0.00 465.50 66.00" xmlns="http://www.w3.org/2000/svg" xmlns:xlink="http://www.w3.org/1999/xlink">
<g id="graph0" class="graph" transform="scale(1 1) rotate(0) translate(4 62)">
<title>quantumcomm.read_solution</title>
<!-- Node1 -->
<g id="Node000001" class="node">
<title>Node1</title>
<g id="a_Node000001"><a xlink:title=" ">
<polygon fill="#999999" stroke="#666666" points="457.5,-39 316.25,-39 316.25,-19 457.5,-19 457.5,-39"/>
<text text-anchor="middle" x="386.88" y="-25.5" font-family="Helvetica,sans-Serif" font-size="10.00">quantumcomm.read_solution</text>
</a>
</g>
</g>
<!-- Node2 -->
<g id="Node000002" class="node">
<title>Node2</title>
<g id="a_Node000002"><a xlink:href="$namespacequantumcomm.html#a9179fbf0ec29e945c2af91b0202b0e99" xlink:title=" ">
<polygon fill="white" stroke="#666666" points="275,-58 154,-58 154,-38 275,-38 275,-58"/>
<text text-anchor="middle" x="214.5" y="-44.5" font-family="Helvetica,sans-Serif" font-size="10.00">quantumcomm.get_arch</text>
</a>
</g>
</g>
<!-- Node1&#45;&gt;Node2 -->
<g id="edge7_Node000001_Node000002" class="edge">
<title>Node1&#45;&gt;Node2</title>
<g id="a_edge7_Node000001_Node000002"><a xlink:title=" ">
<path fill="none" stroke="#63b8ff" d="M304.91,-38.03C294.96,-39.14 284.94,-40.26 275.38,-41.32"/>
<polygon fill="#63b8ff" stroke="#63b8ff" points="305.03,-41.54 314.58,-36.95 304.25,-34.58 305.03,-41.54"/>
</a>
</g>
</g>
<!-- Node4 -->
<g id="Node000004" class="node">
<title>Node4</title>
<g id="a_Node000004"><a xlink:href="$namespacequantumcomm.html#a1b51de779f54455f301b965bca17467c" xlink:title=" ">
<polygon fill="white" stroke="#666666" points="280.25,-20 148.75,-20 148.75,0 280.25,0 280.25,-20"/>
<text text-anchor="middle" x="214.5" y="-6.5" font-family="Helvetica,sans-Serif" font-size="10.00">quantumcomm.pymoo_par</text>
</a>
</g>
</g>
<!-- Node1&#45;&gt;Node4 -->
<g id="edge9_Node000001_Node000004" class="edge">
<title>Node1&#45;&gt;Node4</title>
<g id="a_edge9_Node000001_Node000004"><a xlink:title=" ">
<path fill="none" stroke="#63b8ff" d="M304.69,-19.95C296.58,-19.04 288.43,-18.13 280.52,-17.25"/>
<polygon fill="#63b8ff" stroke="#63b8ff" points="304.25,-23.42 314.58,-21.05 305.03,-16.46 304.25,-23.42"/>
</a>
</g>
</g>
<!-- Node3 -->
<g id="Node000003" class="node">
<title>Node3</title>
<g id="a_Node000003"><a xlink:href="$namespacequantumcomm.html#a7b02c8bc9af9b7e849783b5a8cbfc014" xlink:title=" ">
<polygon fill="white" stroke="#666666" points="112.75,-58 0,-58 0,-38 112.75,-38 112.75,-58"/>
<text text-anchor="middle" x="56.38" y="-44.5" font-family="Helvetica,sans-Serif" font-size="10.00">quantumcomm.nd_par</text>
</a>
</g>
</g>
<!-- Node2&#45;&gt;Node3 -->
<g id="edge8_Node000002_Node000003" class="edge">
<title>Node2&#45;&gt;Node3</title>
<g id="a_edge8_Node000002_Node000003"><a xlink:title=" ">
<path fill="none" stroke="#63b8ff" d="M142.2,-48C132.41,-48 122.48,-48 113.03,-48"/>
<polygon fill="#63b8ff" stroke="#63b8ff" points="142.07,-51.5 152.07,-48 142.07,-44.5 142.07,-51.5"/>
</a>
</g>
</g>
</g>
</svg>
