<?xml version="1.0" encoding="UTF-8" standalone="no"?>
<!DOCTYPE svg PUBLIC "-//W3C//DTD SVG 1.1//EN"
 "http://www.w3.org/Graphics/SVG/1.1/DTD/svg11.dtd">
<!-- Generated by graphviz version 12.2.1 (20241206.2353)
 -->
<!-- Title: examples.prophet_opt.optimize_btc_ask_tell Pages: 1 -->
<svg width="727pt" height="122pt"
 viewBox="0.00 0.00 726.75 122.00" xmlns="http://www.w3.org/2000/svg" xmlns:xlink="http://www.w3.org/1999/xlink">
<g id="graph0" class="graph" transform="scale(1 1) rotate(0) translate(4 118)">
<title>examples.prophet_opt.optimize_btc_ask_tell</title>
<!-- Node1 -->
<g id="Node000001" class="node">
<title>Node1</title>
<g id="a_Node000001"><a xlink:title=" ">
<polygon fill="#999999" stroke="#666666" points="151.75,-48 0,-48 0,-16 151.75,-16 151.75,-48"/>
<text text-anchor="start" x="8" y="-34.5" font-family="Helvetica,sans-Serif" font-size="10.00">examples.prophet_opt.optimize</text>
<text text-anchor="middle" x="75.88" y="-22.5" font-family="Helvetica,sans-Serif" font-size="10.00">_btc_ask_tell</text>
</a>
</g>
</g>
<!-- Node2 -->
<g id="Node000002" class="node">
<title>Node2</title>
<g id="a_Node000002"><a xlink:href="$namespaceexamples_1_1prophet__opt.html#a18a248c54de45c4841f27809e3a642b1" xlink:title=" ">
<polygon fill="white" stroke="#666666" points="330.5,-70 202,-70 202,-38 330.5,-38 330.5,-70"/>
<text text-anchor="start" x="210" y="-56.5" font-family="Helvetica,sans-Serif" font-size="10.00">examples.prophet_opt.btc</text>
<text text-anchor="middle" x="266.25" y="-44.5" font-family="Helvetica,sans-Serif" font-size="10.00">_show_x</text>
</a>
</g>
</g>
<!-- Node1&#45;&gt;Node2 -->
<g id="edge13_Node000001_Node000002" class="edge">
<title>Node1&#45;&gt;Node2</title>
<g id="a_edge13_Node000001_Node000002"><a xlink:title=" ">
<path fill="none" stroke="#63b8ff" d="M152.14,-40.79C164.69,-42.26 177.71,-43.78 190.26,-45.24"/>
<polygon fill="#63b8ff" stroke="#63b8ff" points="189.78,-48.71 200.12,-46.39 190.59,-41.76 189.78,-48.71"/>
</a>
</g>
</g>
<!-- Node7 -->
<g id="Node000007" class="node">
<title>Node7</title>
<g id="a_Node000007"><a xlink:href="$namespaceexamples_1_1prophet__opt.html#a7549217e0180b68ae1bd365ca7287fe4" xlink:title=" ">
<polygon fill="white" stroke="#666666" points="344.75,-20 187.75,-20 187.75,0 344.75,0 344.75,-20"/>
<text text-anchor="middle" x="266.25" y="-6.5" font-family="Helvetica,sans-Serif" font-size="10.00">examples.prophet_opt.load_data</text>
</a>
</g>
</g>
<!-- Node1&#45;&gt;Node7 -->
<g id="edge18_Node000001_Node000007" class="edge">
<title>Node1&#45;&gt;Node7</title>
<g id="a_edge18_Node000001_Node000007"><a xlink:title=" ">
<path fill="none" stroke="#63b8ff" d="M152.14,-23.21C160.01,-22.29 168.06,-21.35 176.07,-20.42"/>
<polygon fill="#63b8ff" stroke="#63b8ff" points="176.3,-23.91 185.83,-19.28 175.49,-16.96 176.3,-23.91"/>
</a>
</g>
</g>
<!-- Node3 -->
<g id="Node000003" class="node">
<title>Node3</title>
<g id="a_Node000003"><a xlink:href="$namespaceexamples_1_1prophet__opt.html#ae4e0f5b1e89fcbb3c76d779137998d54" xlink:title=" ">
<polygon fill="white" stroke="#666666" points="523.88,-92 395.38,-92 395.38,-60 523.88,-60 523.88,-92"/>
<text text-anchor="start" x="403.38" y="-78.5" font-family="Helvetica,sans-Serif" font-size="10.00">examples.prophet_opt.btc</text>
<text text-anchor="middle" x="459.62" y="-66.5" font-family="Helvetica,sans-Serif" font-size="10.00">_show_params</text>
</a>
</g>
</g>
<!-- Node2&#45;&gt;Node3 -->
<g id="edge14_Node000002_Node000003" class="edge">
<title>Node2&#45;&gt;Node3</title>
<g id="a_edge14_Node000002_Node000003"><a xlink:title=" ">
<path fill="none" stroke="#63b8ff" d="M330.98,-61.33C347.92,-63.27 366.38,-65.4 383.86,-67.41"/>
<polygon fill="#63b8ff" stroke="#63b8ff" points="383.34,-70.87 393.67,-68.53 384.14,-63.91 383.34,-70.87"/>
</a>
</g>
</g>
<!-- Node6 -->
<g id="Node000006" class="node">
<title>Node6</title>
<g id="a_Node000006"><a xlink:href="$namespaceexamples_1_1prophet__opt.html#a6de43eaac1a61a76257187d2827f2ece" xlink:title=" ">
<polygon fill="white" stroke="#666666" points="538.5,-42 380.75,-42 380.75,-22 538.5,-22 538.5,-42"/>
<text text-anchor="middle" x="459.62" y="-28.5" font-family="Helvetica,sans-Serif" font-size="10.00">examples.prophet_opt.convert_x</text>
</a>
</g>
</g>
<!-- Node2&#45;&gt;Node6 -->
<g id="edge17_Node000002_Node000006" class="edge">
<title>Node2&#45;&gt;Node6</title>
<g id="a_edge17_Node000002_Node000006"><a xlink:title=" ">
<path fill="none" stroke="#63b8ff" d="M330.98,-46.67C343.25,-45.26 356.32,-43.76 369.24,-42.28"/>
<polygon fill="#63b8ff" stroke="#63b8ff" points="369.49,-45.77 379.03,-41.15 368.69,-38.82 369.49,-45.77"/>
</a>
</g>
</g>
<!-- Node4 -->
<g id="Node000004" class="node">
<title>Node4</title>
<g id="a_Node000004"><a xlink:href="$namespaceexamples_1_1prophet__opt.html#aaef1882f68b34d7af026e8781098c1d5" xlink:title=" ">
<polygon fill="white" stroke="#666666" points="710.88,-114 582.38,-114 582.38,-82 710.88,-82 710.88,-114"/>
<text text-anchor="start" x="590.38" y="-100.5" font-family="Helvetica,sans-Serif" font-size="10.00">examples.prophet_opt.btc</text>
<text text-anchor="middle" x="646.62" y="-88.5" font-family="Helvetica,sans-Serif" font-size="10.00">_eval_params</text>
</a>
</g>
</g>
<!-- Node3&#45;&gt;Node4 -->
<g id="edge15_Node000003_Node000004" class="edge">
<title>Node3&#45;&gt;Node4</title>
<g id="a_edge15_Node000003_Node000004"><a xlink:title=" ">
<path fill="none" stroke="#63b8ff" d="M524.29,-83.57C539.35,-85.36 555.53,-87.29 571.02,-89.13"/>
<polygon fill="#63b8ff" stroke="#63b8ff" points="570.31,-92.57 580.65,-90.27 571.14,-85.62 570.31,-92.57"/>
</a>
</g>
</g>
<!-- Node5 -->
<g id="Node000005" class="node">
<title>Node5</title>
<g id="a_Node000005"><a xlink:href="$namespaceexamples_1_1prophet__opt.html#a8a4ce6e419eeaa24cd84dcbd0930f019" xlink:title=" ">
<polygon fill="white" stroke="#666666" points="718.75,-64 574.5,-64 574.5,-44 718.75,-44 718.75,-64"/>
<text text-anchor="middle" x="646.62" y="-50.5" font-family="Helvetica,sans-Serif" font-size="10.00">examples.prophet_opt.plot_df</text>
</a>
</g>
</g>
<!-- Node3&#45;&gt;Node5 -->
<g id="edge16_Node000003_Node000005" class="edge">
<title>Node3&#45;&gt;Node5</title>
<g id="a_edge16_Node000003_Node000005"><a xlink:title=" ">
<path fill="none" stroke="#63b8ff" d="M524.29,-68.43C536.74,-66.95 549.96,-65.38 562.93,-63.83"/>
<polygon fill="#63b8ff" stroke="#63b8ff" points="563.21,-67.33 572.72,-62.67 562.38,-60.37 563.21,-67.33"/>
</a>
</g>
</g>
</g>
</svg>
