<?xml version="1.0" encoding="UTF-8" standalone="no"?>
<!DOCTYPE svg PUBLIC "-//W3C//DTD SVG 1.1//EN"
 "http://www.w3.org/Graphics/SVG/1.1/DTD/svg11.dtd">
<!-- Generated by graphviz version 12.2.1 (20241206.2353)
 -->
<!-- Title: examples.cassini_minlp.main Pages: 1 -->
<svg width="535pt" height="52pt"
 viewBox="0.00 0.00 534.50 52.00" xmlns="http://www.w3.org/2000/svg" xmlns:xlink="http://www.w3.org/1999/xlink">
<g id="graph0" class="graph" transform="scale(1 1) rotate(0) translate(4 48)">
<title>examples.cassini_minlp.main</title>
<!-- Node1 -->
<g id="Node000001" class="node">
<title>Node1</title>
<g id="a_Node000001"><a xlink:title=" ">
<polygon fill="#999999" stroke="#666666" points="144.25,-26 0,-26 0,-6 144.25,-6 144.25,-26"/>
<text text-anchor="middle" x="72.12" y="-12.5" font-family="Helvetica,sans-Serif" font-size="10.00">examples.cassini_minlp.main</text>
</a>
</g>
</g>
<!-- Node1&#45;&gt;Node1 -->
<g id="edge7_Node000001_Node000001" class="edge">
<title>Node1&#45;&gt;Node1</title>
<g id="a_edge7_Node000001_Node000001"><a xlink:title=" ">
<path fill="none" stroke="#63b8ff" d="M43.84,-26.34C31.76,-34.98 41.18,-44 72.12,-44 89.53,-44 100.13,-41.14 103.92,-37.11"/>
<polygon fill="#63b8ff" stroke="#63b8ff" points="107.3,-36.2 100.88,-27.78 100.65,-38.37 107.3,-36.2"/>
</a>
</g>
</g>
<!-- Node2 -->
<g id="Node000002" class="node">
<title>Node2</title>
<g id="a_Node000002"><a xlink:href="$namespaceexamples_1_1cassini__minlp.html#a94bf22b64964bb0a72821a4c7b85d291" xlink:title=" ">
<polygon fill="white" stroke="#666666" points="320,-32 180.25,-32 180.25,0 320,0 320,-32"/>
<text text-anchor="start" x="188.25" y="-18.5" font-family="Helvetica,sans-Serif" font-size="10.00">examples.cassini_minlp.test</text>
<text text-anchor="middle" x="250.12" y="-6.5" font-family="Helvetica,sans-Serif" font-size="10.00">_multiretry</text>
</a>
</g>
</g>
<!-- Node1&#45;&gt;Node2 -->
<g id="edge8_Node000001_Node000002" class="edge">
<title>Node1&#45;&gt;Node2</title>
<g id="a_edge8_Node000001_Node000002"><a xlink:title=" ">
<path fill="none" stroke="#63b8ff" d="M144.71,-16C152.51,-16 160.49,-16 168.39,-16"/>
<polygon fill="#63b8ff" stroke="#63b8ff" points="168.37,-19.5 178.37,-16 168.37,-12.5 168.37,-19.5"/>
</a>
</g>
</g>
<!-- Node3 -->
<g id="Node000003" class="node">
<title>Node3</title>
<g id="a_Node000003"><a xlink:href="$namespaceexamples_1_1cassini__minlp.html#a3f4fa3576b8750954c4b7713b129b8a5" xlink:title=" ">
<polygon fill="white" stroke="#666666" points="526.5,-26 356,-26 356,-6 526.5,-6 526.5,-26"/>
<text text-anchor="middle" x="441.25" y="-12.5" font-family="Helvetica,sans-Serif" font-size="10.00">examples.cassini_minlp.sequences</text>
</a>
</g>
</g>
<!-- Node2&#45;&gt;Node3 -->
<g id="edge9_Node000002_Node000003" class="edge">
<title>Node2&#45;&gt;Node3</title>
<g id="a_edge9_Node000002_Node000003"><a xlink:title=" ">
<path fill="none" stroke="#63b8ff" d="M320.47,-16C328.28,-16 336.34,-16 344.41,-16"/>
<polygon fill="#63b8ff" stroke="#63b8ff" points="344.29,-19.5 354.29,-16 344.29,-12.5 344.29,-19.5"/>
</a>
</g>
</g>
</g>
</svg>
