<?xml version="1.0" encoding="UTF-8" standalone="no"?>
<!DOCTYPE svg PUBLIC "-//W3C//DTD SVG 1.1//EN"
 "http://www.w3.org/Graphics/SVG/1.1/DTD/svg11.dtd">
<!-- Generated by graphviz version 12.2.1 (20241206.2353)
 -->
<!-- Title: examples.vessel.penalty Pages: 1 -->
<svg width="590pt" height="62pt"
 viewBox="0.00 0.00 589.50 62.00" xmlns="http://www.w3.org/2000/svg" xmlns:xlink="http://www.w3.org/1999/xlink">
<g id="graph0" class="graph" transform="scale(1 1) rotate(0) translate(4 58)">
<title>examples.vessel.penalty</title>
<!-- Node1 -->
<g id="Node000001" class="node">
<title>Node1</title>
<g id="a_Node000001"><a xlink:title=" ">
<polygon fill="#999999" stroke="#666666" points="581.5,-26 457.5,-26 457.5,-6 581.5,-6 581.5,-26"/>
<text text-anchor="middle" x="519.5" y="-12.5" font-family="Helvetica,sans-Serif" font-size="10.00">examples.vessel.penalty</text>
</a>
</g>
</g>
<!-- Node2 -->
<g id="Node000002" class="node">
<title>Node2</title>
<g id="a_Node000002"><a xlink:href="$namespaceexamples_1_1vessel.html#a95a5805807fc62c2224ce037be72bee4" xlink:title=" ">
<polygon fill="white" stroke="#666666" points="421.5,-54 292.25,-54 292.25,-22 421.5,-22 421.5,-54"/>
<text text-anchor="start" x="300.25" y="-40.5" font-family="Helvetica,sans-Serif" font-size="10.00">examples.vessel.feasable</text>
<text text-anchor="middle" x="356.88" y="-28.5" font-family="Helvetica,sans-Serif" font-size="10.00">_cost_penalty</text>
</a>
</g>
</g>
<!-- Node1&#45;&gt;Node2 -->
<g id="edge9_Node000001_Node000002" class="edge">
<title>Node1&#45;&gt;Node2</title>
<g id="a_edge9_Node000001_Node000002"><a xlink:title=" ">
<path fill="none" stroke="#63b8ff" d="M446.02,-25.93C437.95,-27.03 429.77,-28.15 421.82,-29.24"/>
<polygon fill="#63b8ff" stroke="#63b8ff" points="446.38,-29.41 455.82,-24.59 445.43,-22.47 446.38,-29.41"/>
</a>
</g>
</g>
<!-- Node3 -->
<g id="Node000003" class="node">
<title>Node3</title>
<g id="a_Node000003"><a xlink:href="$namespaceexamples_1_1vessel.html#aa3edc89d9a8061a39a6985e4a588ec96" xlink:title=" ">
<polygon fill="white" stroke="#666666" points="256.25,-32 145,-32 145,0 256.25,0 256.25,-32"/>
<text text-anchor="start" x="153" y="-18.5" font-family="Helvetica,sans-Serif" font-size="10.00">examples.vessel.print</text>
<text text-anchor="middle" x="200.62" y="-6.5" font-family="Helvetica,sans-Serif" font-size="10.00">_result</text>
</a>
</g>
</g>
<!-- Node1&#45;&gt;Node3 -->
<g id="edge12_Node000001_Node000003" class="edge">
<title>Node1&#45;&gt;Node3</title>
<g id="a_edge12_Node000001_Node000003"><a xlink:title=" ">
<path fill="none" stroke="#63b8ff" d="M445.71,-13.51C437.54,-13.3 429.34,-13.12 421.5,-13 364.06,-12.11 349.69,-12.05 292.25,-13 280.76,-13.19 268.45,-13.52 256.73,-13.88"/>
<polygon fill="#63b8ff" stroke="#63b8ff" points="445.59,-17 455.68,-13.78 445.78,-10.01 445.59,-17"/>
</a>
</g>
</g>
<!-- Node2&#45;&gt;Node3 -->
<g id="edge10_Node000002_Node000003" class="edge">
<title>Node2&#45;&gt;Node3</title>
<g id="a_edge10_Node000002_Node000003"><a xlink:title=" ">
<path fill="none" stroke="#63b8ff" d="M280.41,-27.24C272.32,-26.08 264.21,-24.93 256.42,-23.82"/>
<polygon fill="#63b8ff" stroke="#63b8ff" points="279.91,-30.7 290.3,-28.65 280.9,-23.77 279.91,-30.7"/>
</a>
</g>
</g>
<!-- Node4 -->
<g id="Node000004" class="node">
<title>Node4</title>
<g id="a_Node000004"><a xlink:href="$namespaceexamples_1_1vessel.html#a876eb8e7aeeebb524d51f11ef3ecc488" xlink:title=" ">
<polygon fill="white" stroke="#666666" points="109,-32 0,-32 0,0 109,0 109,-32"/>
<text text-anchor="start" x="8" y="-18.5" font-family="Helvetica,sans-Serif" font-size="10.00">examples.vessel.test</text>
<text text-anchor="middle" x="54.5" y="-6.5" font-family="Helvetica,sans-Serif" font-size="10.00">_minimize_SLSQP</text>
</a>
</g>
</g>
<!-- Node3&#45;&gt;Node4 -->
<g id="edge11_Node000003_Node000004" class="edge">
<title>Node3&#45;&gt;Node4</title>
<g id="a_edge11_Node000003_Node000004"><a xlink:title=" ">
<path fill="none" stroke="#63b8ff" d="M133.41,-16C125.34,-16 117.16,-16 109.29,-16"/>
<polygon fill="#63b8ff" stroke="#63b8ff" points="133.21,-19.5 143.21,-16 133.21,-12.5 133.21,-19.5"/>
</a>
</g>
</g>
</g>
</svg>
