<?xml version="1.0" encoding="UTF-8" standalone="no"?>
<!DOCTYPE svg PUBLIC "-//W3C//DTD SVG 1.1//EN"
 "http://www.w3.org/Graphics/SVG/1.1/DTD/svg11.dtd">
<!-- Generated by graphviz version 12.2.1 (20241206.2353)
 -->
<!-- Title: anpcpc.calc_distance_ Pages: 1 -->
<svg width="623pt" height="78pt"
 viewBox="0.00 0.00 622.50 78.00" xmlns="http://www.w3.org/2000/svg" xmlns:xlink="http://www.w3.org/1999/xlink">
<g id="graph0" class="graph" transform="scale(1 1) rotate(0) translate(4 74)">
<title>anpcpc.calc_distance_</title>
<!-- Node1 -->
<g id="Node000001" class="node">
<title>Node1</title>
<g id="a_Node000001"><a xlink:title=" ">
<polygon fill="#999999" stroke="#666666" points="614.5,-48 498.75,-48 498.75,-28 614.5,-28 614.5,-48"/>
<text text-anchor="middle" x="556.62" y="-34.5" font-family="Helvetica,sans-Serif" font-size="10.00">anpcpc.calc_distance_</text>
</a>
</g>
</g>
<!-- Node2 -->
<g id="Node000002" class="node">
<title>Node2</title>
<g id="a_Node000002"><a xlink:href="$namespaceanpcpc.html#a6f7639f06e2fed3d414229306a974296" xlink:title=" ">
<polygon fill="white" stroke="#666666" points="462.75,-48 377.75,-48 377.75,-28 462.75,-28 462.75,-48"/>
<text text-anchor="middle" x="420.25" y="-34.5" font-family="Helvetica,sans-Serif" font-size="10.00">anpcpc.fitness_</text>
</a>
</g>
</g>
<!-- Node1&#45;&gt;Node2 -->
<g id="edge9_Node000001_Node000002" class="edge">
<title>Node1&#45;&gt;Node2</title>
<g id="a_edge9_Node000001_Node000002"><a xlink:title=" ">
<path fill="none" stroke="#63b8ff" d="M487.14,-38C478.99,-38 470.86,-38 463.24,-38"/>
<polygon fill="#63b8ff" stroke="#63b8ff" points="487.12,-41.5 497.12,-38 487.12,-34.5 487.12,-41.5"/>
</a>
</g>
</g>
<!-- Node3 -->
<g id="Node000003" class="node">
<title>Node3</title>
<g id="a_Node000003"><a xlink:href="$classanpcpc_1_1_a_n_p_c_p_c.html#a1a9e91f15724d47e3ca531214abb18db" xlink:title=" ">
<polygon fill="white" stroke="#666666" points="341.75,-48 216.25,-48 216.25,-28 341.75,-28 341.75,-48"/>
<text text-anchor="middle" x="279" y="-34.5" font-family="Helvetica,sans-Serif" font-size="10.00">anpcpc.ANPCPC.fitness</text>
</a>
</g>
</g>
<!-- Node2&#45;&gt;Node3 -->
<g id="edge10_Node000002_Node000003" class="edge">
<title>Node2&#45;&gt;Node3</title>
<g id="a_edge10_Node000002_Node000003"><a xlink:title=" ">
<path fill="none" stroke="#63b8ff" d="M366.19,-38C358.31,-38 350.13,-38 342.09,-38"/>
<polygon fill="#63b8ff" stroke="#63b8ff" points="365.96,-41.5 375.96,-38 365.96,-34.5 365.96,-41.5"/>
</a>
</g>
</g>
<!-- Node4 -->
<g id="Node000004" class="node">
<title>Node4</title>
<g id="a_Node000004"><a xlink:href="$classexamples_1_1employee_1_1problem.html#a96c79aee6dab29a25fd28b0b383f1916" xlink:title=" ">
<polygon fill="white" stroke="#666666" points="180.25,-70 0,-70 0,-50 180.25,-50 180.25,-70"/>
<text text-anchor="middle" x="90.12" y="-56.5" font-family="Helvetica,sans-Serif" font-size="10.00">examples.employee.problem.optimize</text>
</a>
</g>
</g>
<!-- Node3&#45;&gt;Node4 -->
<g id="edge11_Node000003_Node000004" class="edge">
<title>Node3&#45;&gt;Node4</title>
<g id="a_edge11_Node000003_Node000004"><a xlink:title=" ">
<path fill="none" stroke="#63b8ff" d="M204.56,-46.65C196.52,-47.59 188.26,-48.56 180.06,-49.53"/>
<polygon fill="#63b8ff" stroke="#63b8ff" points="204.75,-50.15 214.27,-45.5 203.93,-43.2 204.75,-50.15"/>
</a>
</g>
</g>
<!-- Node5 -->
<g id="Node000005" class="node">
<title>Node5</title>
<g id="a_Node000005"><a xlink:href="$classquantumcomm_1_1constellation__udp.html#a8c60ffafb21bc14b969a3f3f4079d24d" xlink:title="A verbose evaluation of the fitness functions.">
<polygon fill="white" stroke="#666666" points="159.25,-32 21,-32 21,0 159.25,0 159.25,-32"/>
<text text-anchor="start" x="29" y="-18.5" font-family="Helvetica,sans-Serif" font-size="10.00">quantumcomm.constellation</text>
<text text-anchor="middle" x="90.12" y="-6.5" font-family="Helvetica,sans-Serif" font-size="10.00">_udp.pretty</text>
</a>
</g>
</g>
<!-- Node3&#45;&gt;Node5 -->
<g id="edge12_Node000003_Node000005" class="edge">
<title>Node3&#45;&gt;Node5</title>
<g id="a_edge12_Node000003_Node000005"><a xlink:title=" ">
<path fill="none" stroke="#63b8ff" d="M204.58,-29.36C189.74,-27.61 174.18,-25.78 159.51,-24.05"/>
<polygon fill="#63b8ff" stroke="#63b8ff" points="203.93,-32.8 214.27,-30.5 204.75,-25.85 203.93,-32.8"/>
</a>
</g>
</g>
</g>
</svg>
