<?xml version="1.0" encoding="UTF-8" standalone="no"?>
<!DOCTYPE svg PUBLIC "-//W3C//DTD SVG 1.1//EN"
 "http://www.w3.org/Graphics/SVG/1.1/DTD/svg11.dtd">
<!-- Generated by graphviz version 12.2.1 (20241206.2353)
 -->
<!-- Title: examples.scheduling.timings Pages: 1 -->
<svg width="734pt" height="228pt"
 viewBox="0.00 0.00 733.50 228.28" xmlns="http://www.w3.org/2000/svg" xmlns:xlink="http://www.w3.org/1999/xlink">
<g id="graph0" class="graph" transform="scale(1 1) rotate(0) translate(4 224.28)">
<title>examples.scheduling.timings</title>
<!-- Node1 -->
<g id="Node000001" class="node">
<title>Node1</title>
<g id="a_Node000001"><a xlink:title=" ">
<polygon fill="#999999" stroke="#666666" points="725.5,-143 583.5,-143 583.5,-123 725.5,-123 725.5,-143"/>
<text text-anchor="middle" x="654.5" y="-129.5" font-family="Helvetica,sans-Serif" font-size="10.00">examples.scheduling.timings</text>
</a>
</g>
</g>
<!-- Node2 -->
<g id="Node000002" class="node">
<title>Node2</title>
<g id="a_Node000002"><a xlink:href="$classexamples_1_1scheduling_1_1fitness.html#a4eff7a725e23a7148b932307532f6542" xlink:title=" ">
<polygon fill="white" stroke="#666666" points="157.38,-102 14.62,-102 14.62,-70 157.38,-70 157.38,-102"/>
<text text-anchor="start" x="22.62" y="-88.5" font-family="Helvetica,sans-Serif" font-size="10.00">examples.scheduling.fitness.</text>
<text text-anchor="middle" x="86" y="-76.5" font-family="Helvetica,sans-Serif" font-size="10.00">__call__</text>
</a>
</g>
</g>
<!-- Node1&#45;&gt;Node2 -->
<g id="edge25_Node000001_Node000002" class="edge">
<title>Node1&#45;&gt;Node2</title>
<g id="a_edge25_Node000001_Node000002"><a xlink:title=" ">
<path fill="none" stroke="#63b8ff" d="M571.66,-137.83C481.83,-141.59 333.67,-143.23 208,-123 181.76,-118.78 153.29,-110.28 130.56,-102.49"/>
<polygon fill="#63b8ff" stroke="#63b8ff" points="571.78,-141.33 581.62,-137.39 571.47,-134.33 571.78,-141.33"/>
</a>
</g>
</g>
<!-- Node3 -->
<g id="Node000003" class="node">
<title>Node3</title>
<g id="a_Node000003"><a xlink:href="$classexamples_1_1scheduling_1_1fitness.html#a8d58e9d7e95ceb929858cdc06b0eda47" xlink:title=" ">
<polygon fill="white" stroke="#666666" points="164.12,-152 7.88,-152 7.88,-132 164.12,-132 164.12,-152"/>
<text text-anchor="middle" x="86" y="-138.5" font-family="Helvetica,sans-Serif" font-size="10.00">examples.scheduling.fitness.fun</text>
</a>
</g>
</g>
<!-- Node1&#45;&gt;Node3 -->
<g id="edge26_Node000001_Node000003" class="edge">
<title>Node1&#45;&gt;Node3</title>
<g id="a_edge26_Node000001_Node000003"><a xlink:title=" ">
<path fill="none" stroke="#63b8ff" d="M631.74,-150.12C611.32,-165.02 579.23,-185.52 547.5,-194 401.73,-232.95 355.79,-224.41 208,-194 169.26,-186.03 127.62,-165.08 104.69,-152.34"/>
<polygon fill="#63b8ff" stroke="#63b8ff" points="633.68,-153.04 639.57,-144.24 629.47,-147.44 633.68,-153.04"/>
</a>
</g>
</g>
<!-- Node4 -->
<g id="Node000004" class="node">
<title>Node4</title>
<g id="a_Node000004"><a xlink:href="$classexamples_1_1scheduling_1_1fitness.html#a713c154b74b96a06274438bae71e2419" xlink:title=" ">
<polygon fill="white" stroke="#666666" points="172,-20 0,-20 0,0 172,0 172,-20"/>
<text text-anchor="middle" x="86" y="-6.5" font-family="Helvetica,sans-Serif" font-size="10.00">examples.scheduling.fitness.qd_fun</text>
</a>
</g>
</g>
<!-- Node1&#45;&gt;Node4 -->
<g id="edge27_Node000001_Node000004" class="edge">
<title>Node1&#45;&gt;Node4</title>
<g id="a_edge27_Node000001_Node000004"><a xlink:title=" ">
<path fill="none" stroke="#63b8ff" d="M630.65,-115.81C609.93,-100.97 578.04,-79.93 547.5,-67 424.54,-14.95 267.76,-6.41 172.5,-6.85"/>
<polygon fill="#63b8ff" stroke="#63b8ff" points="628.51,-118.58 638.65,-121.65 632.63,-112.93 628.51,-118.58"/>
</a>
</g>
</g>
<!-- Node5 -->
<g id="Node000005" class="node">
<title>Node5</title>
<g id="a_Node000005"><a xlink:href="$namespaceexamples_1_1scheduling.html#af71d892a26a7cf4e51f3d0c28dd3d93b" xlink:title=" ">
<polygon fill="white" stroke="#666666" points="547.5,-96 410.75,-96 410.75,-76 547.5,-76 547.5,-96"/>
<text text-anchor="middle" x="479.12" y="-82.5" font-family="Helvetica,sans-Serif" font-size="10.00">examples.scheduling.select</text>
</a>
</g>
</g>
<!-- Node1&#45;&gt;Node5 -->
<g id="edge28_Node000001_Node000005" class="edge">
<title>Node1&#45;&gt;Node5</title>
<g id="a_edge28_Node000001_Node000005"><a xlink:title=" ">
<path fill="none" stroke="#63b8ff" d="M604.21,-119.64C577.12,-112.29 544,-103.32 518.79,-96.48"/>
<polygon fill="#63b8ff" stroke="#63b8ff" points="602.99,-122.93 613.56,-122.17 604.83,-116.18 602.99,-122.93"/>
</a>
</g>
</g>
<!-- Node5&#45;&gt;Node2 -->
<g id="edge29_Node000005_Node000002" class="edge">
<title>Node5&#45;&gt;Node2</title>
<g id="a_edge29_Node000005_Node000002"><a xlink:title=" ">
<path fill="none" stroke="#63b8ff" d="M420.25,-73.45C405.49,-70.78 389.59,-68.35 374.75,-67 300.94,-60.27 281.89,-61.23 208,-67 191.68,-68.27 174.23,-70.5 157.8,-72.99"/>
<polygon fill="#63b8ff" stroke="#63b8ff" points="419.32,-76.84 429.8,-75.25 420.62,-69.96 419.32,-76.84"/>
</a>
</g>
</g>
<!-- Node5&#45;&gt;Node3 -->
<g id="edge30_Node000005_Node000003" class="edge">
<title>Node5&#45;&gt;Node3</title>
<g id="a_edge30_Node000005_Node000003"><a xlink:title=" ">
<path fill="none" stroke="#63b8ff" d="M444.47,-100.73C424.58,-108.75 398.69,-118.03 374.75,-123 304.53,-137.59 222.8,-141.8 164.42,-142.68"/>
<polygon fill="#63b8ff" stroke="#63b8ff" points="445.55,-104.07 453.45,-97.02 442.87,-97.6 445.55,-104.07"/>
</a>
</g>
</g>
<!-- Node5&#45;&gt;Node4 -->
<g id="edge31_Node000005_Node000004" class="edge">
<title>Node5&#45;&gt;Node4</title>
<g id="a_edge31_Node000005_Node000004"><a xlink:title=" ">
<path fill="none" stroke="#63b8ff" d="M431.98,-72.45C414.19,-67.5 393.62,-62.12 374.75,-58 303.12,-42.37 220.5,-29.07 162.22,-20.46"/>
<polygon fill="#63b8ff" stroke="#63b8ff" points="430.9,-75.78 441.48,-75.13 432.8,-69.05 430.9,-75.78"/>
</a>
</g>
</g>
<!-- Node6 -->
<g id="Node000006" class="node">
<title>Node6</title>
<g id="a_Node000006"><a xlink:href="$classexamples_1_1scheduling_1_1fitness.html#a0dcc50199c64159aae9a5a89326d1cc6" xlink:title=" ">
<polygon fill="white" stroke="#666666" points="374.75,-96 208,-96 208,-76 374.75,-76 374.75,-96"/>
<text text-anchor="middle" x="291.38" y="-82.5" font-family="Helvetica,sans-Serif" font-size="10.00">examples.scheduling.fitness.score</text>
</a>
</g>
</g>
<!-- Node5&#45;&gt;Node6 -->
<g id="edge32_Node000005_Node000006" class="edge">
<title>Node5&#45;&gt;Node6</title>
<g id="a_edge32_Node000005_Node000006"><a xlink:title=" ">
<path fill="none" stroke="#63b8ff" d="M398.91,-86C391.06,-86 383.08,-86 375.21,-86"/>
<polygon fill="#63b8ff" stroke="#63b8ff" points="398.76,-89.5 408.76,-86 398.76,-82.5 398.76,-89.5"/>
</a>
</g>
</g>
<!-- Node6&#45;&gt;Node2 -->
<g id="edge33_Node000006_Node000002" class="edge">
<title>Node6&#45;&gt;Node2</title>
<g id="a_edge33_Node000006_Node000002"><a xlink:title=" ">
<path fill="none" stroke="#63b8ff" d="M196.28,-86C183.27,-86 170.09,-86 157.6,-86"/>
<polygon fill="#63b8ff" stroke="#63b8ff" points="196.14,-89.5 206.14,-86 196.14,-82.5 196.14,-89.5"/>
</a>
</g>
</g>
<!-- Node6&#45;&gt;Node3 -->
<g id="edge34_Node000006_Node000003" class="edge">
<title>Node6&#45;&gt;Node3</title>
<g id="a_edge34_Node000006_Node000003"><a xlink:title=" ">
<path fill="none" stroke="#63b8ff" d="M241.9,-99.35C206.07,-109.21 157.96,-122.46 124.92,-131.56"/>
<polygon fill="#63b8ff" stroke="#63b8ff" points="242.43,-102.83 251.14,-96.8 240.57,-96.08 242.43,-102.83"/>
</a>
</g>
</g>
<!-- Node6&#45;&gt;Node4 -->
<g id="edge35_Node000006_Node000004" class="edge">
<title>Node6&#45;&gt;Node4</title>
<g id="a_edge35_Node000006_Node000004"><a xlink:title=" ">
<path fill="none" stroke="#63b8ff" d="M251.86,-71.61C211.88,-56.67 150.34,-33.67 114.84,-20.4"/>
<polygon fill="#63b8ff" stroke="#63b8ff" points="250.51,-74.84 261.11,-75.06 252.96,-68.28 250.51,-74.84"/>
</a>
</g>
</g>
<!-- Node6&#45;&gt;Node6 -->
<g id="edge36_Node000006_Node000006" class="edge">
<title>Node6&#45;&gt;Node6</title>
<g id="a_edge36_Node000006_Node000006"><a xlink:title=" ">
<path fill="none" stroke="#63b8ff" d="M324.91,-107.11C320.91,-111.14 309.73,-114 291.38,-114 258.74,-114 248.79,-104.98 261.54,-96.34"/>
<polygon fill="#63b8ff" stroke="#63b8ff" points="328.26,-106.09 321.7,-97.77 321.64,-108.36 328.26,-106.09"/>
</a>
</g>
</g>
</g>
</svg>
