<?xml version="1.0" encoding="UTF-8" standalone="no"?>
<!DOCTYPE svg PUBLIC "-//W3C//DTD SVG 1.1//EN"
 "http://www.w3.org/Graphics/SVG/1.1/DTD/svg11.dtd">
<!-- Generated by graphviz version 12.2.1 (20241206.2353)
 -->
<!-- Title: examples.vessel._feasible Pages: 1 -->
<svg width="786pt" height="112pt"
 viewBox="0.00 0.00 786.25 112.00" xmlns="http://www.w3.org/2000/svg" xmlns:xlink="http://www.w3.org/1999/xlink">
<g id="graph0" class="graph" transform="scale(1 1) rotate(0) translate(4 108)">
<title>examples.vessel._feasible</title>
<!-- Node1 -->
<g id="Node000001" class="node">
<title>Node1</title>
<g id="a_Node000001"><a xlink:title=" ">
<polygon fill="#999999" stroke="#666666" points="778.25,-26 646.75,-26 646.75,-6 778.25,-6 778.25,-26"/>
<text text-anchor="middle" x="712.5" y="-12.5" font-family="Helvetica,sans-Serif" font-size="10.00">examples.vessel._feasible</text>
</a>
</g>
</g>
<!-- Node2 -->
<g id="Node000002" class="node">
<title>Node2</title>
<g id="a_Node000002"><a xlink:href="$namespaceexamples_1_1vessel.html#a68aa194637f52a545cb4d8e1f552f3f8" xlink:title=" ">
<polygon fill="white" stroke="#666666" points="610.75,-48 457.5,-48 457.5,-28 610.75,-28 610.75,-48"/>
<text text-anchor="middle" x="534.12" y="-34.5" font-family="Helvetica,sans-Serif" font-size="10.00">examples.vessel.feasable_cost</text>
</a>
</g>
</g>
<!-- Node1&#45;&gt;Node2 -->
<g id="edge13_Node000001_Node000002" class="edge">
<title>Node1&#45;&gt;Node2</title>
<g id="a_edge13_Node000001_Node000002"><a xlink:title=" ">
<path fill="none" stroke="#63b8ff" d="M635.15,-25.52C627.16,-26.52 619.04,-27.53 611.06,-28.53"/>
<polygon fill="#63b8ff" stroke="#63b8ff" points="635.33,-29.03 644.82,-24.32 634.47,-22.08 635.33,-29.03"/>
</a>
</g>
</g>
<!-- Node5 -->
<g id="Node000005" class="node">
<title>Node5</title>
<g id="a_Node000005"><a xlink:href="$namespaceexamples_1_1vessel.html#aa3edc89d9a8061a39a6985e4a588ec96" xlink:title=" ">
<polygon fill="white" stroke="#666666" points="256.25,-32 145,-32 145,0 256.25,0 256.25,-32"/>
<text text-anchor="start" x="153" y="-18.5" font-family="Helvetica,sans-Serif" font-size="10.00">examples.vessel.print</text>
<text text-anchor="middle" x="200.62" y="-6.5" font-family="Helvetica,sans-Serif" font-size="10.00">_result</text>
</a>
</g>
</g>
<!-- Node1&#45;&gt;Node5 -->
<g id="edge18_Node000001_Node000005" class="edge">
<title>Node1&#45;&gt;Node5</title>
<g id="a_edge18_Node000001_Node000005"><a xlink:title=" ">
<path fill="none" stroke="#63b8ff" d="M635.01,-14.37C550.96,-12.82 411.98,-11.02 292.25,-13 280.76,-13.19 268.45,-13.52 256.73,-13.88"/>
<polygon fill="#63b8ff" stroke="#63b8ff" points="634.92,-17.86 644.98,-14.55 635.05,-10.87 634.92,-17.86"/>
</a>
</g>
</g>
<!-- Node3 -->
<g id="Node000003" class="node">
<title>Node3</title>
<g id="a_Node000003"><a xlink:href="$namespaceexamples_1_1vessel.html#afff096102e6cd9739381cfac25c0e450" xlink:title=" ">
<polygon fill="white" stroke="#666666" points="412.5,-104 301.25,-104 301.25,-72 412.5,-72 412.5,-104"/>
<text text-anchor="start" x="309.25" y="-90.5" font-family="Helvetica,sans-Serif" font-size="10.00">examples.vessel.cost</text>
<text text-anchor="middle" x="356.88" y="-78.5" font-family="Helvetica,sans-Serif" font-size="10.00">_int_penalty</text>
</a>
</g>
</g>
<!-- Node2&#45;&gt;Node3 -->
<g id="edge14_Node000002_Node000003" class="edge">
<title>Node2&#45;&gt;Node3</title>
<g id="a_edge14_Node000002_Node000003"><a xlink:title=" ">
<path fill="none" stroke="#63b8ff" d="M485.44,-51.6C463.02,-58 436.16,-65.67 412.88,-72.31"/>
<polygon fill="#63b8ff" stroke="#63b8ff" points="486.28,-55.01 494.93,-48.9 484.35,-48.27 486.28,-55.01"/>
</a>
</g>
</g>
<!-- Node4 -->
<g id="Node000004" class="node">
<title>Node4</title>
<g id="a_Node000004"><a xlink:href="$namespaceexamples_1_1vessel.html#a95a5805807fc62c2224ce037be72bee4" xlink:title=" ">
<polygon fill="white" stroke="#666666" points="421.5,-54 292.25,-54 292.25,-22 421.5,-22 421.5,-54"/>
<text text-anchor="start" x="300.25" y="-40.5" font-family="Helvetica,sans-Serif" font-size="10.00">examples.vessel.feasable</text>
<text text-anchor="middle" x="356.88" y="-28.5" font-family="Helvetica,sans-Serif" font-size="10.00">_cost_penalty</text>
</a>
</g>
</g>
<!-- Node2&#45;&gt;Node4 -->
<g id="edge15_Node000002_Node000004" class="edge">
<title>Node2&#45;&gt;Node4</title>
<g id="a_edge15_Node000002_Node000004"><a xlink:title=" ">
<path fill="none" stroke="#63b8ff" d="M445.69,-38C437.66,-38 429.62,-38 421.85,-38"/>
<polygon fill="#63b8ff" stroke="#63b8ff" points="445.51,-41.5 455.51,-38 445.51,-34.5 445.51,-41.5"/>
</a>
</g>
</g>
<!-- Node4&#45;&gt;Node5 -->
<g id="edge16_Node000004_Node000005" class="edge">
<title>Node4&#45;&gt;Node5</title>
<g id="a_edge16_Node000004_Node000005"><a xlink:title=" ">
<path fill="none" stroke="#63b8ff" d="M280.41,-27.24C272.32,-26.08 264.21,-24.93 256.42,-23.82"/>
<polygon fill="#63b8ff" stroke="#63b8ff" points="279.91,-30.7 290.3,-28.65 280.9,-23.77 279.91,-30.7"/>
</a>
</g>
</g>
<!-- Node6 -->
<g id="Node000006" class="node">
<title>Node6</title>
<g id="a_Node000006"><a xlink:href="$namespaceexamples_1_1vessel.html#a876eb8e7aeeebb524d51f11ef3ecc488" xlink:title=" ">
<polygon fill="white" stroke="#666666" points="109,-32 0,-32 0,0 109,0 109,-32"/>
<text text-anchor="start" x="8" y="-18.5" font-family="Helvetica,sans-Serif" font-size="10.00">examples.vessel.test</text>
<text text-anchor="middle" x="54.5" y="-6.5" font-family="Helvetica,sans-Serif" font-size="10.00">_minimize_SLSQP</text>
</a>
</g>
</g>
<!-- Node5&#45;&gt;Node6 -->
<g id="edge17_Node000005_Node000006" class="edge">
<title>Node5&#45;&gt;Node6</title>
<g id="a_edge17_Node000005_Node000006"><a xlink:title=" ">
<path fill="none" stroke="#63b8ff" d="M133.41,-16C125.34,-16 117.16,-16 109.29,-16"/>
<polygon fill="#63b8ff" stroke="#63b8ff" points="133.21,-19.5 143.21,-16 133.21,-12.5 133.21,-19.5"/>
</a>
</g>
</g>
</g>
</svg>
