<?xml version="1.0" encoding="UTF-8" standalone="no"?>
<!DOCTYPE svg PUBLIC "-//W3C//DTD SVG 1.1//EN"
 "http://www.w3.org/Graphics/SVG/1.1/DTD/svg11.dtd">
<!-- Generated by graphviz version 12.2.1 (20241206.2353)
 -->
<!-- Title: examples.crypto.strategy Pages: 1 -->
<svg width="437pt" height="75pt"
 viewBox="0.00 0.00 437.00 75.00" xmlns="http://www.w3.org/2000/svg" xmlns:xlink="http://www.w3.org/1999/xlink">
<g id="graph0" class="graph" transform="scale(1 1) rotate(0) translate(4 71)">
<title>examples.crypto.strategy</title>
<!-- Node1 -->
<g id="Node000001" class="node">
<title>Node1</title>
<g id="a_Node000001"><a xlink:title=" ">
<polygon fill="#999999" stroke="#666666" points="126.25,-48 0,-48 0,-28 126.25,-28 126.25,-48"/>
<text text-anchor="middle" x="63.12" y="-34.5" font-family="Helvetica,sans-Serif" font-size="10.00">examples.crypto.strategy</text>
</a>
</g>
</g>
<!-- Node2 -->
<g id="Node000002" class="node">
<title>Node2</title>
<g id="a_Node000002"><a xlink:href="$namespaceexamples_1_1crypto.html#a54eb39bc81fed172b7d1d74dcec022c2" xlink:title=" ">
<polygon fill="white" stroke="#666666" points="429,-67 307.25,-67 307.25,-47 429,-47 429,-67"/>
<text text-anchor="middle" x="368.12" y="-53.5" font-family="Helvetica,sans-Serif" font-size="10.00">examples.crypto.buy_all</text>
</a>
</g>
</g>
<!-- Node1&#45;&gt;Node2 -->
<g id="edge11_Node000001_Node000002" class="edge">
<title>Node1&#45;&gt;Node2</title>
<g id="a_edge11_Node000001_Node000002"><a xlink:title=" ">
<path fill="none" stroke="#63b8ff" d="M108.31,-48.42C125.1,-51.88 144.46,-55.29 162.25,-57 206.4,-61.23 256.14,-61.34 295.56,-60.34"/>
<polygon fill="#63b8ff" stroke="#63b8ff" points="295.51,-63.85 305.4,-60.06 295.31,-56.85 295.51,-63.85"/>
</a>
</g>
</g>
<!-- Node3 -->
<g id="Node000003" class="node">
<title>Node3</title>
<g id="a_Node000003"><a xlink:href="$namespaceexamples_1_1crypto.html#a941dc0c737b40581bde98db6aef23525" xlink:title=" ">
<polygon fill="white" stroke="#666666" points="271.25,-48 162.25,-48 162.25,-28 271.25,-28 271.25,-48"/>
<text text-anchor="middle" x="216.75" y="-34.5" font-family="Helvetica,sans-Serif" font-size="10.00">examples.crypto.hodl</text>
</a>
</g>
</g>
<!-- Node1&#45;&gt;Node3 -->
<g id="edge12_Node000001_Node000003" class="edge">
<title>Node1&#45;&gt;Node3</title>
<g id="a_edge12_Node000001_Node000003"><a xlink:title=" ">
<path fill="none" stroke="#63b8ff" d="M126.67,-38C134.56,-38 142.65,-38 150.59,-38"/>
<polygon fill="#63b8ff" stroke="#63b8ff" points="150.54,-41.5 160.54,-38 150.54,-34.5 150.54,-41.5"/>
</a>
</g>
</g>
<!-- Node4 -->
<g id="Node000004" class="node">
<title>Node4</title>
<g id="a_Node000004"><a xlink:href="$namespaceexamples_1_1crypto.html#a8e16e3bee50df8bd1b44e55fe8950e10" xlink:title=" ">
<polygon fill="white" stroke="#666666" points="428.62,-20 307.62,-20 307.62,0 428.62,0 428.62,-20"/>
<text text-anchor="middle" x="368.12" y="-6.5" font-family="Helvetica,sans-Serif" font-size="10.00">examples.crypto.sell_all</text>
</a>
</g>
</g>
<!-- Node1&#45;&gt;Node4 -->
<g id="edge15_Node000001_Node000004" class="edge">
<title>Node1&#45;&gt;Node4</title>
<g id="a_edge15_Node000001_Node000004"><a xlink:title=" ">
<path fill="none" stroke="#63b8ff" d="M110.82,-27.5C127.02,-24.25 145.36,-20.99 162.25,-19 206.5,-13.77 256.45,-11.51 295.94,-10.55"/>
<polygon fill="#63b8ff" stroke="#63b8ff" points="295.89,-14.06 305.81,-10.34 295.73,-7.06 295.89,-14.06"/>
</a>
</g>
</g>
<!-- Node3&#45;&gt;Node2 -->
<g id="edge13_Node000003_Node000002" class="edge">
<title>Node3&#45;&gt;Node2</title>
<g id="a_edge13_Node000003_Node000002"><a xlink:title=" ">
<path fill="none" stroke="#63b8ff" d="M271.68,-44.86C279.46,-45.85 287.57,-46.88 295.63,-47.91"/>
<polygon fill="#63b8ff" stroke="#63b8ff" points="295.08,-51.36 305.45,-49.15 295.97,-44.42 295.08,-51.36"/>
</a>
</g>
</g>
<!-- Node3&#45;&gt;Node4 -->
<g id="edge14_Node000003_Node000004" class="edge">
<title>Node3&#45;&gt;Node4</title>
<g id="a_edge14_Node000003_Node000004"><a xlink:title=" ">
<path fill="none" stroke="#63b8ff" d="M271.68,-27.89C280.93,-26.16 290.64,-24.34 300.18,-22.55"/>
<polygon fill="#63b8ff" stroke="#63b8ff" points="300.59,-26.03 309.78,-20.75 299.3,-19.15 300.59,-26.03"/>
</a>
</g>
</g>
</g>
</svg>
