<?xml version="1.0" encoding="UTF-8" standalone="no"?>
<!DOCTYPE svg PUBLIC "-//W3C//DTD SVG 1.1//EN"
 "http://www.w3.org/Graphics/SVG/1.1/DTD/svg11.dtd">
<!-- Generated by graphviz version 12.2.1 (20241206.2353)
 -->
<!-- Title: fcmaes.mode.pareto_levels Pages: 1 -->
<svg width="783pt" height="266pt"
 viewBox="0.00 0.00 782.50 266.00" xmlns="http://www.w3.org/2000/svg" xmlns:xlink="http://www.w3.org/1999/xlink">
<g id="graph0" class="graph" transform="scale(1 1) rotate(0) translate(4 262)">
<title>fcmaes.mode.pareto_levels</title>
<!-- Node1 -->
<g id="Node000001" class="node">
<title>Node1</title>
<g id="a_Node000001"><a xlink:title="Determines the Pareto levels of a given set of points.">
<polygon fill="#999999" stroke="#666666" points="774.5,-176 669.25,-176 669.25,-144 774.5,-144 774.5,-176"/>
<text text-anchor="start" x="677.25" y="-162.5" font-family="Helvetica,sans-Serif" font-size="10.00">fcmaes.mode.pareto</text>
<text text-anchor="middle" x="721.88" y="-150.5" font-family="Helvetica,sans-Serif" font-size="10.00">_levels</text>
</a>
</g>
</g>
<!-- Node2 -->
<g id="Node000002" class="node">
<title>Node2</title>
<g id="a_Node000002"><a xlink:href="$namespacefcmaes_1_1mode.html#aee5b0cd4fba6d7edff0afe48a8bc636a" xlink:title="Determines Pareto domination levels for a set of solutions considering objectives and constraint viol...">
<polygon fill="white" stroke="#666666" points="633.25,-176 528,-176 528,-144 633.25,-144 633.25,-176"/>
<text text-anchor="start" x="536" y="-162.5" font-family="Helvetica,sans-Serif" font-size="10.00">fcmaes.mode.pareto</text>
<text text-anchor="middle" x="580.62" y="-150.5" font-family="Helvetica,sans-Serif" font-size="10.00">_domination</text>
</a>
</g>
</g>
<!-- Node1&#45;&gt;Node2 -->
<g id="edge21_Node000001_Node000002" class="edge">
<title>Node1&#45;&gt;Node2</title>
<g id="a_edge21_Node000001_Node000002"><a xlink:title=" ">
<path fill="none" stroke="#63b8ff" d="M657.71,-160C649.61,-160 641.4,-160 633.52,-160"/>
<polygon fill="#63b8ff" stroke="#63b8ff" points="657.51,-163.5 667.51,-160 657.51,-156.5 657.51,-163.5"/>
</a>
</g>
</g>
<!-- Node3 -->
<g id="Node000003" class="node">
<title>Node3</title>
<g id="a_Node000003"><a xlink:href="$namespacefcmaes_1_1mode.html#a4648393e4988cb88b634bc6969891383" xlink:title="Sorts solutions based on Pareto dominance and crowding distance.">
<polygon fill="white" stroke="#666666" points="492,-192 365,-192 365,-172 492,-172 492,-192"/>
<text text-anchor="middle" x="428.5" y="-178.5" font-family="Helvetica,sans-Serif" font-size="10.00">fcmaes.mode.pareto_sort</text>
</a>
</g>
</g>
<!-- Node2&#45;&gt;Node3 -->
<g id="edge22_Node000002_Node000003" class="edge">
<title>Node2&#45;&gt;Node3</title>
<g id="a_edge22_Node000002_Node000003"><a xlink:title=" ">
<path fill="none" stroke="#63b8ff" d="M516.16,-169.3C508.28,-170.46 500.22,-171.64 492.35,-172.79"/>
<polygon fill="#63b8ff" stroke="#63b8ff" points="516.66,-172.77 526.04,-167.85 515.64,-165.84 516.66,-172.77"/>
</a>
</g>
</g>
<!-- Node4 -->
<g id="Node000004" class="node">
<title>Node4</title>
<g id="a_Node000004"><a xlink:href="$classfcmaes_1_1mode_1_1_m_o_d_e.html#a29791dbcb2e070361529475630de2052" xlink:title="Updates the population by performing non&#45;dominated sorting, crowding distance sorting,...">
<polygon fill="white" stroke="#666666" points="492,-154 365,-154 365,-122 492,-122 492,-154"/>
<text text-anchor="start" x="373" y="-140.5" font-family="Helvetica,sans-Serif" font-size="10.00">fcmaes.mode.MODE.pop</text>
<text text-anchor="middle" x="428.5" y="-128.5" font-family="Helvetica,sans-Serif" font-size="10.00">_update</text>
</a>
</g>
</g>
<!-- Node2&#45;&gt;Node4 -->
<g id="edge23_Node000002_Node000004" class="edge">
<title>Node2&#45;&gt;Node4</title>
<g id="a_edge23_Node000002_Node000004"><a xlink:title=" ">
<path fill="none" stroke="#63b8ff" d="M516.16,-150.7C508.28,-149.54 500.22,-148.36 492.35,-147.21"/>
<polygon fill="#63b8ff" stroke="#63b8ff" points="515.64,-154.16 526.04,-152.15 516.66,-147.23 515.64,-154.16"/>
</a>
</g>
</g>
<!-- Node5 -->
<g id="Node000005" class="node">
<title>Node5</title>
<g id="a_Node000005"><a xlink:href="$classfcmaes_1_1mode_1_1_m_o_d_e.html#a8b928c29cf646933a1821566ec18d73a" xlink:title="Updates the internal population data with the given ys values, and optionally, with the corresponding...">
<polygon fill="white" stroke="#666666" points="329,-148 205,-148 205,-128 329,-128 329,-148"/>
<text text-anchor="middle" x="267" y="-134.5" font-family="Helvetica,sans-Serif" font-size="10.00">fcmaes.mode.MODE.tell</text>
</a>
</g>
</g>
<!-- Node4&#45;&gt;Node5 -->
<g id="edge24_Node000004_Node000005" class="edge">
<title>Node4&#45;&gt;Node5</title>
<g id="a_edge24_Node000004_Node000005"><a xlink:title=" ">
<path fill="none" stroke="#63b8ff" d="M353.56,-138C345.46,-138 337.28,-138 329.35,-138"/>
<polygon fill="#63b8ff" stroke="#63b8ff" points="353.41,-141.5 363.41,-138 353.41,-134.5 353.41,-141.5"/>
</a>
</g>
</g>
<!-- Node6 -->
<g id="Node000006" class="node">
<title>Node6</title>
<g id="a_Node000006"><a xlink:href="$classfcmaes_1_1mode_1_1_m_o_d_e.html#a6f479d982825465b97c89e528351bf36" xlink:title="Minimizes the given multi&#45;objective function in parallel, using a specified number of workers and an ...">
<polygon fill="white" stroke="#666666" points="169,-258 0,-258 0,-238 169,-238 169,-258"/>
<text text-anchor="middle" x="84.5" y="-244.5" font-family="Helvetica,sans-Serif" font-size="10.00">fcmaes.mode.MODE.minimize_par</text>
</a>
</g>
</g>
<!-- Node5&#45;&gt;Node6 -->
<g id="edge25_Node000005_Node000006" class="edge">
<title>Node5&#45;&gt;Node6</title>
<g id="a_edge25_Node000005_Node000006"><a xlink:title=" ">
<path fill="none" stroke="#63b8ff" d="M250.93,-157.26C233.49,-178.19 202.79,-211.03 169,-229 162.57,-232.42 155.54,-235.23 148.38,-237.53"/>
<polygon fill="#63b8ff" stroke="#63b8ff" points="253.65,-159.46 257.23,-149.49 248.21,-155.05 253.65,-159.46"/>
</a>
</g>
</g>
<!-- Node7 -->
<g id="Node000007" class="node">
<title>Node7</title>
<g id="a_Node000007"><a xlink:href="$classfcmaes_1_1modecpp_1_1_m_o_d_e___c.html#a672b403a7e745d9e69532454f32d2b62" xlink:title="Run a parallel multi&#45;objective optimization process.">
<polygon fill="white" stroke="#666666" points="146.5,-220 22.5,-220 22.5,-188 146.5,-188 146.5,-220"/>
<text text-anchor="start" x="30.5" y="-206.5" font-family="Helvetica,sans-Serif" font-size="10.00">fcmaes.modecpp.MODE</text>
<text text-anchor="middle" x="84.5" y="-194.5" font-family="Helvetica,sans-Serif" font-size="10.00">_C.minimize_par</text>
</a>
</g>
</g>
<!-- Node5&#45;&gt;Node7 -->
<g id="edge26_Node000005_Node000007" class="edge">
<title>Node5&#45;&gt;Node7</title>
<g id="a_edge26_Node000005_Node000007"><a xlink:title=" ">
<path fill="none" stroke="#63b8ff" d="M232.86,-153.07C214.28,-161.24 190.57,-171.24 169,-179 160.74,-181.97 151.94,-184.88 143.26,-187.6"/>
<polygon fill="#63b8ff" stroke="#63b8ff" points="234.05,-156.37 241.77,-149.11 231.21,-149.97 234.05,-156.37"/>
</a>
</g>
</g>
<!-- Node8 -->
<g id="Node000008" class="node">
<title>Node8</title>
<g id="a_Node000008"><a xlink:href="$classfcmaes_1_1mode_1_1_m_o_d_e.html#a3b3a358c6fded3c638706495c88eff1a" xlink:title="Minimizes a given function using a custom optimization approach until the maximum number of evaluatio...">
<polygon fill="white" stroke="#666666" points="169,-170 0,-170 0,-150 169,-150 169,-170"/>
<text text-anchor="middle" x="84.5" y="-156.5" font-family="Helvetica,sans-Serif" font-size="10.00">fcmaes.mode.MODE.minimize_ser</text>
</a>
</g>
</g>
<!-- Node5&#45;&gt;Node8 -->
<g id="edge27_Node000005_Node000008" class="edge">
<title>Node5&#45;&gt;Node8</title>
<g id="a_edge27_Node000005_Node000008"><a xlink:title=" ">
<path fill="none" stroke="#63b8ff" d="M193.28,-146.86C185.42,-147.82 177.37,-148.8 169.39,-149.77"/>
<polygon fill="#63b8ff" stroke="#63b8ff" points="193.63,-150.35 203.14,-145.66 192.79,-143.4 193.63,-150.35"/>
</a>
</g>
</g>
<!-- Node9 -->
<g id="Node000009" class="node">
<title>Node9</title>
<g id="a_Node000009"><a xlink:href="$classfcmaes_1_1modecpp_1_1_m_o_d_e___c.html#aa4a7a3e4f9a3fc84dc37faf820025306" xlink:title="Minimizes the given scalar function using a serial optimization method.">
<polygon fill="white" stroke="#666666" points="146.5,-132 22.5,-132 22.5,-100 146.5,-100 146.5,-132"/>
<text text-anchor="start" x="30.5" y="-118.5" font-family="Helvetica,sans-Serif" font-size="10.00">fcmaes.modecpp.MODE</text>
<text text-anchor="middle" x="84.5" y="-106.5" font-family="Helvetica,sans-Serif" font-size="10.00">_C.minimize_ser</text>
</a>
</g>
</g>
<!-- Node5&#45;&gt;Node9 -->
<g id="edge28_Node000005_Node000009" class="edge">
<title>Node5&#45;&gt;Node9</title>
<g id="a_edge28_Node000005_Node000009"><a xlink:title=" ">
<path fill="none" stroke="#63b8ff" d="M193.56,-129.17C178.13,-127.29 161.97,-125.32 147,-123.5"/>
<polygon fill="#63b8ff" stroke="#63b8ff" points="192.79,-132.6 203.14,-130.34 193.63,-125.65 192.79,-132.6"/>
</a>
</g>
</g>
<!-- Node10 -->
<g id="Node000010" class="node">
<title>Node10</title>
<g id="a_Node000010"><a xlink:href="$classfcmaes_1_1mode_1_1_m_o_d_e.html#af1ac6ae50db24a626f6649175bfecf96" xlink:title="Sets the initial guess values for an optimization or search algorithm.">
<polygon fill="white" stroke="#666666" points="146.88,-82 22.13,-82 22.13,-50 146.88,-50 146.88,-82"/>
<text text-anchor="start" x="30.12" y="-68.5" font-family="Helvetica,sans-Serif" font-size="10.00">fcmaes.mode.MODE.set</text>
<text text-anchor="middle" x="84.5" y="-56.5" font-family="Helvetica,sans-Serif" font-size="10.00">_guess</text>
</a>
</g>
</g>
<!-- Node5&#45;&gt;Node10 -->
<g id="edge29_Node000005_Node000010" class="edge">
<title>Node5&#45;&gt;Node10</title>
<g id="a_edge29_Node000005_Node000010"><a xlink:title=" ">
<path fill="none" stroke="#63b8ff" d="M236.63,-122.24C217.67,-112.46 192.29,-100.06 169,-91 161.24,-87.98 152.97,-85.11 144.75,-82.45"/>
<polygon fill="#63b8ff" stroke="#63b8ff" points="234.89,-125.28 245.38,-126.82 238.14,-119.08 234.89,-125.28"/>
</a>
</g>
</g>
<!-- Node11 -->
<g id="Node000011" class="node">
<title>Node11</title>
<g id="a_Node000011"><a xlink:href="$classfcmaes_1_1modecpp_1_1_m_o_d_e___c.html#a3267cafa8c068a367179034c3f5a562d" xlink:title="Set the initial guess values for optimization along with corresponding function evaluations.">
<polygon fill="white" stroke="#666666" points="146.5,-32 22.5,-32 22.5,0 146.5,0 146.5,-32"/>
<text text-anchor="start" x="30.5" y="-18.5" font-family="Helvetica,sans-Serif" font-size="10.00">fcmaes.modecpp.MODE</text>
<text text-anchor="middle" x="84.5" y="-6.5" font-family="Helvetica,sans-Serif" font-size="10.00">_C.set_guess</text>
</a>
</g>
</g>
<!-- Node5&#45;&gt;Node11 -->
<g id="edge30_Node000005_Node000011" class="edge">
<title>Node5&#45;&gt;Node11</title>
<g id="a_edge30_Node000005_Node000011"><a xlink:title=" ">
<path fill="none" stroke="#63b8ff" d="M251.48,-118.52C234.16,-96.61 203.23,-61.43 169,-41 162.11,-36.89 154.5,-33.41 146.75,-30.47"/>
<polygon fill="#63b8ff" stroke="#63b8ff" points="248.64,-120.57 257.51,-126.35 254.18,-116.29 248.64,-120.57"/>
</a>
</g>
</g>
</g>
</svg>
