<?xml version="1.0" encoding="UTF-8" standalone="no"?>
<!DOCTYPE svg PUBLIC "-//W3C//DTD SVG 1.1//EN"
 "http://www.w3.org/Graphics/SVG/1.1/DTD/svg11.dtd">
<!-- Generated by graphviz version 12.2.1 (20241206.2353)
 -->
<!-- Title: fcmaes.diversifier.get_solver_ Pages: 1 -->
<svg width="440pt" height="40pt"
 viewBox="0.00 0.00 440.00 40.00" xmlns="http://www.w3.org/2000/svg" xmlns:xlink="http://www.w3.org/1999/xlink">
<g id="graph0" class="graph" transform="scale(1 1) rotate(0) translate(4 36)">
<title>fcmaes.diversifier.get_solver_</title>
<!-- Node1 -->
<g id="Node000001" class="node">
<title>Node1</title>
<g id="a_Node000001"><a xlink:title="Selects and initializes the appropriate optimization solver based on the specified parameters.">
<polygon fill="#999999" stroke="#666666" points="432,-32 322.25,-32 322.25,0 432,0 432,-32"/>
<text text-anchor="start" x="330.25" y="-18.5" font-family="Helvetica,sans-Serif" font-size="10.00">fcmaes.diversifier.get</text>
<text text-anchor="middle" x="377.12" y="-6.5" font-family="Helvetica,sans-Serif" font-size="10.00">_solver_</text>
</a>
</g>
</g>
<!-- Node2 -->
<g id="Node000002" class="node">
<title>Node2</title>
<g id="a_Node000002"><a xlink:href="$namespacefcmaes_1_1diversifier.html#a4e57f15d7add818aaf5dfe6223e98475" xlink:title="Minimizes a given objective function using an evolutionary algorithm or the B.I.T....">
<polygon fill="white" stroke="#666666" points="286.25,-26 145.75,-26 145.75,-6 286.25,-6 286.25,-26"/>
<text text-anchor="middle" x="216" y="-12.5" font-family="Helvetica,sans-Serif" font-size="10.00">fcmaes.diversifier.minimize_</text>
</a>
</g>
</g>
<!-- Node1&#45;&gt;Node2 -->
<g id="edge5_Node000001_Node000002" class="edge">
<title>Node1&#45;&gt;Node2</title>
<g id="a_edge5_Node000001_Node000002"><a xlink:title=" ">
<path fill="none" stroke="#63b8ff" d="M310.43,-16C302.55,-16 294.48,-16 286.55,-16"/>
<polygon fill="#63b8ff" stroke="#63b8ff" points="310.29,-19.5 320.29,-16 310.29,-12.5 310.29,-19.5"/>
</a>
</g>
</g>
<!-- Node3 -->
<g id="Node000003" class="node">
<title>Node3</title>
<g id="a_Node000003"><a xlink:href="$namespacefcmaes_1_1diversifier.html#a37838757d6fbed5b0cd7e56fa51f194e" xlink:title="Executes the optimization processes involving MAP&#45;Elites or solvers in a sequential or multiple confi...">
<polygon fill="white" stroke="#666666" points="109.75,-32 0,-32 0,0 109.75,0 109.75,-32"/>
<text text-anchor="start" x="8" y="-18.5" font-family="Helvetica,sans-Serif" font-size="10.00">fcmaes.diversifier.run</text>
<text text-anchor="middle" x="54.88" y="-6.5" font-family="Helvetica,sans-Serif" font-size="10.00">_minimize_</text>
</a>
</g>
</g>
<!-- Node2&#45;&gt;Node3 -->
<g id="edge6_Node000002_Node000003" class="edge">
<title>Node2&#45;&gt;Node3</title>
<g id="a_edge6_Node000002_Node000003"><a xlink:title=" ">
<path fill="none" stroke="#63b8ff" d="M134.18,-16C126.04,-16 117.91,-16 110.15,-16"/>
<polygon fill="#63b8ff" stroke="#63b8ff" points="134.15,-19.5 144.15,-16 134.15,-12.5 134.15,-19.5"/>
</a>
</g>
</g>
</g>
</svg>
