<?xml version="1.0" encoding="UTF-8" standalone="no"?>
<!DOCTYPE svg PUBLIC "-//W3C//DTD SVG 1.1//EN"
 "http://www.w3.org/Graphics/SVG/1.1/DTD/svg11.dtd">
<!-- Generated by graphviz version 12.2.1 (20241206.2353)
 -->
<!-- Title: examples.trappist_delivery._fitness Pages: 1 -->
<svg width="350pt" height="66pt"
 viewBox="0.00 0.00 349.75 66.00" xmlns="http://www.w3.org/2000/svg" xmlns:xlink="http://www.w3.org/1999/xlink">
<g id="graph0" class="graph" transform="scale(1 1) rotate(0) translate(4 62)">
<title>examples.trappist_delivery._fitness</title>
<!-- Node1 -->
<g id="Node000001" class="node">
<title>Node1</title>
<g id="a_Node000001"><a xlink:title=" ">
<polygon fill="#999999" stroke="#666666" points="134.5,-45 0,-45 0,-13 134.5,-13 134.5,-45"/>
<text text-anchor="start" x="8" y="-31.5" font-family="Helvetica,sans-Serif" font-size="10.00">examples.trappist_delivery.</text>
<text text-anchor="middle" x="67.25" y="-19.5" font-family="Helvetica,sans-Serif" font-size="10.00">_fitness</text>
</a>
</g>
</g>
<!-- Node2 -->
<g id="Node000002" class="node">
<title>Node2</title>
<g id="a_Node000002"><a xlink:href="$namespaceexamples_1_1trappist__delivery.html#a3edb3cf576e5d7d7c04b7537dca935d5" xlink:title=" ">
<polygon fill="white" stroke="#666666" points="336.5,-58 175.75,-58 175.75,-38 336.5,-38 336.5,-58"/>
<text text-anchor="middle" x="256.12" y="-44.5" font-family="Helvetica,sans-Serif" font-size="10.00">examples.trappist_delivery.check</text>
</a>
</g>
</g>
<!-- Node1&#45;&gt;Node2 -->
<g id="edge5_Node000001_Node000002" class="edge">
<title>Node1&#45;&gt;Node2</title>
<g id="a_edge5_Node000001_Node000002"><a xlink:title=" ">
<path fill="none" stroke="#63b8ff" d="M134.92,-35.78C144.34,-36.74 154.16,-37.73 163.94,-38.73"/>
<polygon fill="#63b8ff" stroke="#63b8ff" points="163.57,-42.21 173.87,-39.74 164.28,-35.25 163.57,-42.21"/>
</a>
</g>
</g>
<!-- Node3 -->
<g id="Node000003" class="node">
<title>Node3</title>
<g id="a_Node000003"><a xlink:href="$namespaceexamples_1_1trappist__delivery.html#af96d18a768624688d121c794e4f942f0" xlink:title=" ">
<polygon fill="white" stroke="#666666" points="341.75,-20 170.5,-20 170.5,0 341.75,0 341.75,-20"/>
<text text-anchor="middle" x="256.12" y="-6.5" font-family="Helvetica,sans-Serif" font-size="10.00">examples.trappist_delivery.optimize</text>
</a>
</g>
</g>
<!-- Node1&#45;&gt;Node3 -->
<g id="edge6_Node000001_Node000003" class="edge">
<title>Node1&#45;&gt;Node3</title>
<g id="a_edge6_Node000001_Node000003"><a xlink:title=" ">
<path fill="none" stroke="#63b8ff" d="M134.92,-22.22C142.69,-21.43 150.73,-20.61 158.79,-19.79"/>
<polygon fill="#63b8ff" stroke="#63b8ff" points="159.08,-23.28 168.68,-18.79 158.38,-16.32 159.08,-23.28"/>
</a>
</g>
</g>
</g>
</svg>
