<?xml version="1.0" encoding="UTF-8" standalone="no"?>
<!DOCTYPE svg PUBLIC "-//W3C//DTD SVG 1.1//EN"
 "http://www.w3.org/Graphics/SVG/1.1/DTD/svg11.dtd">
<!-- Generated by graphviz version 12.2.1 (20241206.2353)
 -->
<!-- Title: examples.jobshop.optall Pages: 1 -->
<svg width="468pt" height="28pt"
 viewBox="0.00 0.00 467.75 28.00" xmlns="http://www.w3.org/2000/svg" xmlns:xlink="http://www.w3.org/1999/xlink">
<g id="graph0" class="graph" transform="scale(1 1) rotate(0) translate(4 24)">
<title>examples.jobshop.optall</title>
<!-- Node1 -->
<g id="Node000001" class="node">
<title>Node1</title>
<g id="a_Node000001"><a xlink:title=" ">
<polygon fill="#999999" stroke="#666666" points="121,-20 0,-20 0,0 121,0 121,-20"/>
<text text-anchor="middle" x="60.5" y="-6.5" font-family="Helvetica,sans-Serif" font-size="10.00">examples.jobshop.optall</text>
</a>
</g>
</g>
<!-- Node2 -->
<g id="Node000002" class="node">
<title>Node2</title>
<g id="a_Node000002"><a xlink:href="$namespaceexamples_1_1jobshop.html#ab7d20451a09c85673eb6f79306479319" xlink:title=" ">
<polygon fill="white" stroke="#666666" points="291.5,-20 157,-20 157,0 291.5,0 291.5,-20"/>
<text text-anchor="middle" x="224.25" y="-6.5" font-family="Helvetica,sans-Serif" font-size="10.00">examples.jobshop.optimize</text>
</a>
</g>
</g>
<!-- Node1&#45;&gt;Node2 -->
<g id="edge5_Node000001_Node000002" class="edge">
<title>Node1&#45;&gt;Node2</title>
<g id="a_edge5_Node000001_Node000002"><a xlink:title=" ">
<path fill="none" stroke="#63b8ff" d="M121.27,-10C129.1,-10 137.21,-10 145.29,-10"/>
<polygon fill="#63b8ff" stroke="#63b8ff" points="145.13,-13.5 155.13,-10 145.13,-6.5 145.13,-13.5"/>
</a>
</g>
</g>
<!-- Node3 -->
<g id="Node000003" class="node">
<title>Node3</title>
<g id="a_Node000003"><a xlink:href="$namespaceexamples_1_1jobshop.html#a6346fe9e3884169bb758fec8c703bec4" xlink:title=" ">
<polygon fill="white" stroke="#666666" points="459.75,-20 327.5,-20 327.5,0 459.75,0 459.75,-20"/>
<text text-anchor="middle" x="393.62" y="-6.5" font-family="Helvetica,sans-Serif" font-size="10.00">examples.jobshop.read_fjs</text>
</a>
</g>
</g>
<!-- Node2&#45;&gt;Node3 -->
<g id="edge6_Node000002_Node000003" class="edge">
<title>Node2&#45;&gt;Node3</title>
<g id="a_edge6_Node000002_Node000003"><a xlink:title=" ">
<path fill="none" stroke="#63b8ff" d="M291.88,-10C299.66,-10 307.64,-10 315.55,-10"/>
<polygon fill="#63b8ff" stroke="#63b8ff" points="315.53,-13.5 325.53,-10 315.53,-6.5 315.53,-13.5"/>
</a>
</g>
</g>
</g>
</svg>
