<?xml version="1.0" encoding="UTF-8" standalone="no"?>
<!DOCTYPE svg PUBLIC "-//W3C//DTD SVG 1.1//EN"
 "http://www.w3.org/Graphics/SVG/1.1/DTD/svg11.dtd">
<!-- Generated by graphviz version 12.2.1 (20241206.2353)
 -->
<!-- Title: fcmaes.evaluator._eval_parallel_segment Pages: 1 -->
<svg width="570pt" height="90pt"
 viewBox="0.00 0.00 570.00 90.00" xmlns="http://www.w3.org/2000/svg" xmlns:xlink="http://www.w3.org/1999/xlink">
<g id="graph0" class="graph" transform="scale(1 1) rotate(0) translate(4 86)">
<title>fcmaes.evaluator._eval_parallel_segment</title>
<!-- Node1 -->
<g id="Node000001" class="node">
<title>Node1</title>
<g id="a_Node000001"><a xlink:title="Evaluates a segment of data in parallel by sending and receiving data through a pipe.">
<polygon fill="#999999" stroke="#666666" points="562,-57 444.75,-57 444.75,-25 562,-25 562,-57"/>
<text text-anchor="start" x="452.75" y="-43.5" font-family="Helvetica,sans-Serif" font-size="10.00">fcmaes.evaluator._eval</text>
<text text-anchor="middle" x="503.38" y="-31.5" font-family="Helvetica,sans-Serif" font-size="10.00">_parallel_segment</text>
</a>
</g>
</g>
<!-- Node2 -->
<g id="Node000002" class="node">
<title>Node2</title>
<g id="a_Node000002"><a xlink:href="$namespacefcmaes_1_1evaluator.html#a3f1de81bb9ebb3f1026990d51627f5e3" xlink:title="Evaluates a set of inputs in parallel using a provided evaluator function.">
<polygon fill="white" stroke="#666666" points="408.75,-82 296.75,-82 296.75,-50 408.75,-50 408.75,-82"/>
<text text-anchor="start" x="304.75" y="-68.5" font-family="Helvetica,sans-Serif" font-size="10.00">fcmaes.evaluator.eval</text>
<text text-anchor="middle" x="352.75" y="-56.5" font-family="Helvetica,sans-Serif" font-size="10.00">_parallel</text>
</a>
</g>
</g>
<!-- Node1&#45;&gt;Node2 -->
<g id="edge17_Node000001_Node000002" class="edge">
<title>Node1&#45;&gt;Node2</title>
<g id="a_edge17_Node000001_Node000002"><a xlink:title=" ">
<path fill="none" stroke="#63b8ff" d="M433.35,-52.61C425.12,-53.99 416.8,-55.39 408.8,-56.74"/>
<polygon fill="#63b8ff" stroke="#63b8ff" points="433.71,-56.1 442.99,-50.99 432.55,-49.2 433.71,-56.1"/>
</a>
</g>
</g>
<!-- Node6 -->
<g id="Node000006" class="node">
<title>Node6</title>
<g id="a_Node000006"><a xlink:href="$namespacefcmaes_1_1evaluator.html#a7fd3b71184ba68c9fc886a0da91030a1" xlink:title="Evaluates a population of solutions in parallel for a multi&#45;objective optimization problem.">
<polygon fill="white" stroke="#666666" points="408.75,-32 296.75,-32 296.75,0 408.75,0 408.75,-32"/>
<text text-anchor="start" x="304.75" y="-18.5" font-family="Helvetica,sans-Serif" font-size="10.00">fcmaes.evaluator.eval</text>
<text text-anchor="middle" x="352.75" y="-6.5" font-family="Helvetica,sans-Serif" font-size="10.00">_parallel_mo</text>
</a>
</g>
</g>
<!-- Node1&#45;&gt;Node6 -->
<g id="edge21_Node000001_Node000006" class="edge">
<title>Node1&#45;&gt;Node6</title>
<g id="a_edge21_Node000001_Node000006"><a xlink:title=" ">
<path fill="none" stroke="#63b8ff" d="M433.35,-29.39C425.12,-28.01 416.8,-26.61 408.8,-25.26"/>
<polygon fill="#63b8ff" stroke="#63b8ff" points="432.55,-32.8 442.99,-31.01 433.71,-25.9 432.55,-32.8"/>
</a>
</g>
</g>
<!-- Node3 -->
<g id="Node000003" class="node">
<title>Node3</title>
<g id="a_Node000003"><a xlink:href="$classfcmaes_1_1evaluator_1_1parallel.html#a63cfd5289e05dc71f2b53e24e268350f" xlink:title="Evaluates the input using the provided evaluator function in parallel and returns the result.">
<polygon fill="white" stroke="#666666" points="260.75,-82 133,-82 133,-50 260.75,-50 260.75,-82"/>
<text text-anchor="start" x="141" y="-68.5" font-family="Helvetica,sans-Serif" font-size="10.00">fcmaes.evaluator.parallel.</text>
<text text-anchor="middle" x="196.88" y="-56.5" font-family="Helvetica,sans-Serif" font-size="10.00">__call__</text>
</a>
</g>
</g>
<!-- Node2&#45;&gt;Node3 -->
<g id="edge18_Node000002_Node000003" class="edge">
<title>Node2&#45;&gt;Node3</title>
<g id="a_edge18_Node000002_Node000003"><a xlink:title=" ">
<path fill="none" stroke="#63b8ff" d="M285.15,-66C277.22,-66 269.14,-66 261.25,-66"/>
<polygon fill="#63b8ff" stroke="#63b8ff" points="285.12,-69.5 295.12,-66 285.12,-62.5 285.12,-69.5"/>
</a>
</g>
</g>
<!-- Node4 -->
<g id="Node000004" class="node">
<title>Node4</title>
<g id="a_Node000004"><a xlink:href="$classhbv_1_1hbv.html#a89aea998d9546dc3465bf46fbee95689" xlink:title=" ">
<polygon fill="white" stroke="#666666" points="97,-73 0,-73 0,-53 97,-53 97,-73"/>
<text text-anchor="middle" x="48.5" y="-59.5" font-family="Helvetica,sans-Serif" font-size="10.00">hbv.hbv.qd_fitness</text>
</a>
</g>
</g>
<!-- Node3&#45;&gt;Node4 -->
<g id="edge19_Node000003_Node000004" class="edge">
<title>Node3&#45;&gt;Node4</title>
<g id="a_edge19_Node000003_Node000004"><a xlink:title=" ">
<path fill="none" stroke="#63b8ff" d="M121.17,-64.47C113.13,-64.3 105.11,-64.14 97.5,-63.98"/>
<polygon fill="#63b8ff" stroke="#63b8ff" points="120.94,-67.96 131.01,-64.67 121.08,-60.97 120.94,-67.96"/>
</a>
</g>
</g>
<!-- Node5 -->
<g id="Node000005" class="node">
<title>Node5</title>
<g id="a_Node000005"><a xlink:href="$classlrgv_1_1lrgv.html#a527b9b7a7927721b5320ab433bf75aea" xlink:title=" ">
<polygon fill="white" stroke="#666666" points="97,-32 0,-32 0,-12 97,-12 97,-32"/>
<text text-anchor="middle" x="48.5" y="-18.5" font-family="Helvetica,sans-Serif" font-size="10.00">lrgv.lrgv.qd_fitness</text>
</a>
</g>
</g>
<!-- Node3&#45;&gt;Node5 -->
<g id="edge20_Node000003_Node000005" class="edge">
<title>Node3&#45;&gt;Node5</title>
<g id="a_edge20_Node000003_Node000005"><a xlink:title=" ">
<path fill="none" stroke="#63b8ff" d="M130.42,-46.33C114.44,-41.52 97.97,-36.57 84.08,-32.4"/>
<polygon fill="#63b8ff" stroke="#63b8ff" points="129.34,-49.65 139.92,-49.18 131.35,-42.95 129.34,-49.65"/>
</a>
</g>
</g>
<!-- Node7 -->
<g id="Node000007" class="node">
<title>Node7</title>
<g id="a_Node000007"><a xlink:href="$classfcmaes_1_1evaluator_1_1parallel__mo.html#a2e2dfb664e0d8c322934abcba87e59a4" xlink:title="Evaluates a set of inputs using a specified evaluator in a parallelized manner, producing a multi&#45;obj...">
<polygon fill="white" stroke="#666666" points="259.25,-32 134.5,-32 134.5,0 259.25,0 259.25,-32"/>
<text text-anchor="start" x="142.5" y="-18.5" font-family="Helvetica,sans-Serif" font-size="10.00">fcmaes.evaluator.parallel</text>
<text text-anchor="middle" x="196.88" y="-6.5" font-family="Helvetica,sans-Serif" font-size="10.00">_mo.__call__</text>
</a>
</g>
</g>
<!-- Node6&#45;&gt;Node7 -->
<g id="edge22_Node000006_Node000007" class="edge">
<title>Node6&#45;&gt;Node7</title>
<g id="a_edge22_Node000006_Node000007"><a xlink:title=" ">
<path fill="none" stroke="#63b8ff" d="M285.21,-16C276.72,-16 268.07,-16 259.66,-16"/>
<polygon fill="#63b8ff" stroke="#63b8ff" points="285.12,-19.5 295.12,-16 285.12,-12.5 285.12,-19.5"/>
</a>
</g>
</g>
<!-- Node7&#45;&gt;Node4 -->
<g id="edge23_Node000007_Node000004" class="edge">
<title>Node7&#45;&gt;Node4</title>
<g id="a_edge23_Node000007_Node000004"><a xlink:title=" ">
<path fill="none" stroke="#63b8ff" d="M133.78,-35.94C116.01,-41.64 97.36,-47.63 82.13,-52.52"/>
<polygon fill="#63b8ff" stroke="#63b8ff" points="134.79,-39.29 143.24,-32.9 132.65,-32.63 134.79,-39.29"/>
</a>
</g>
</g>
<!-- Node7&#45;&gt;Node5 -->
<g id="edge24_Node000007_Node000005" class="edge">
<title>Node7&#45;&gt;Node5</title>
<g id="a_edge24_Node000007_Node000005"><a xlink:title=" ">
<path fill="none" stroke="#63b8ff" d="M122.86,-18.99C114.18,-19.35 105.49,-19.7 97.29,-20.04"/>
<polygon fill="#63b8ff" stroke="#63b8ff" points="122.86,-22.5 132.71,-18.59 122.58,-15.5 122.86,-22.5"/>
</a>
</g>
</g>
</g>
</svg>
