<?xml version="1.0" encoding="UTF-8" standalone="no"?>
<!DOCTYPE svg PUBLIC "-//W3C//DTD SVG 1.1//EN"
 "http://www.w3.org/Graphics/SVG/1.1/DTD/svg11.dtd">
<!-- Generated by graphviz version 12.2.1 (20241206.2353)
 -->
<!-- Title: examples.prophet_opt.btc_eval_params Pages: 1 -->
<svg width="688pt" height="146pt"
 viewBox="0.00 0.00 687.75 146.00" xmlns="http://www.w3.org/2000/svg" xmlns:xlink="http://www.w3.org/1999/xlink">
<g id="graph0" class="graph" transform="scale(1 1) rotate(0) translate(4 142)">
<title>examples.prophet_opt.btc_eval_params</title>
<!-- Node1 -->
<g id="Node000001" class="node">
<title>Node1</title>
<g id="a_Node000001"><a xlink:title=" ">
<polygon fill="#999999" stroke="#666666" points="679.75,-67 551.25,-67 551.25,-35 679.75,-35 679.75,-67"/>
<text text-anchor="start" x="559.25" y="-53.5" font-family="Helvetica,sans-Serif" font-size="10.00">examples.prophet_opt.btc</text>
<text text-anchor="middle" x="615.5" y="-41.5" font-family="Helvetica,sans-Serif" font-size="10.00">_eval_params</text>
</a>
</g>
</g>
<!-- Node2 -->
<g id="Node000002" class="node">
<title>Node2</title>
<g id="a_Node000002"><a xlink:href="$namespaceexamples_1_1prophet__opt.html#ae4e0f5b1e89fcbb3c76d779137998d54" xlink:title=" ">
<polygon fill="white" stroke="#666666" points="515.25,-95 386.75,-95 386.75,-63 515.25,-63 515.25,-95"/>
<text text-anchor="start" x="394.75" y="-81.5" font-family="Helvetica,sans-Serif" font-size="10.00">examples.prophet_opt.btc</text>
<text text-anchor="middle" x="451" y="-69.5" font-family="Helvetica,sans-Serif" font-size="10.00">_show_params</text>
</a>
</g>
</g>
<!-- Node1&#45;&gt;Node2 -->
<g id="edge17_Node000001_Node000002" class="edge">
<title>Node1&#45;&gt;Node2</title>
<g id="a_edge17_Node000001_Node000002"><a xlink:title=" ">
<path fill="none" stroke="#63b8ff" d="M539.86,-63.86C531.77,-65.25 523.6,-66.66 515.65,-68.03"/>
<polygon fill="#63b8ff" stroke="#63b8ff" points="540.46,-67.31 549.72,-62.16 539.27,-60.41 540.46,-67.31"/>
</a>
</g>
</g>
<!-- Node7 -->
<g id="Node000007" class="node">
<title>Node7</title>
<g id="a_Node000007"><a xlink:href="$namespaceexamples_1_1prophet__opt.html#ab552129c694447ce6fc44ad3f49825e9" xlink:title=" ">
<polygon fill="white" stroke="#666666" points="350.75,-27 206.5,-27 206.5,-7 350.75,-7 350.75,-27"/>
<text text-anchor="middle" x="278.62" y="-13.5" font-family="Helvetica,sans-Serif" font-size="10.00">examples.prophet_opt.fitness</text>
</a>
</g>
</g>
<!-- Node1&#45;&gt;Node7 -->
<g id="edge23_Node000001_Node000007" class="edge">
<title>Node1&#45;&gt;Node7</title>
<g id="a_edge23_Node000001_Node000007"><a xlink:title=" ">
<path fill="none" stroke="#63b8ff" d="M539.78,-43.41C483.46,-37.7 406.7,-29.9 351.16,-24.26"/>
<polygon fill="#63b8ff" stroke="#63b8ff" points="539.31,-46.88 549.61,-44.41 540.02,-39.92 539.31,-46.88"/>
</a>
</g>
</g>
<!-- Node3 -->
<g id="Node000003" class="node">
<title>Node3</title>
<g id="a_Node000003"><a xlink:href="$namespaceexamples_1_1prophet__opt.html#a18a248c54de45c4841f27809e3a642b1" xlink:title=" ">
<polygon fill="white" stroke="#666666" points="342.88,-98 214.38,-98 214.38,-66 342.88,-66 342.88,-98"/>
<text text-anchor="start" x="222.38" y="-84.5" font-family="Helvetica,sans-Serif" font-size="10.00">examples.prophet_opt.btc</text>
<text text-anchor="middle" x="278.62" y="-72.5" font-family="Helvetica,sans-Serif" font-size="10.00">_show_x</text>
</a>
</g>
</g>
<!-- Node2&#45;&gt;Node3 -->
<g id="edge18_Node000002_Node000003" class="edge">
<title>Node2&#45;&gt;Node3</title>
<g id="a_edge18_Node000002_Node000003"><a xlink:title=" ">
<path fill="none" stroke="#63b8ff" d="M375.1,-80.32C364.43,-80.51 353.54,-80.7 343.12,-80.88"/>
<polygon fill="#63b8ff" stroke="#63b8ff" points="375.11,-83.82 385.05,-80.14 374.99,-76.82 375.11,-83.82"/>
</a>
</g>
</g>
<!-- Node4 -->
<g id="Node000004" class="node">
<title>Node4</title>
<g id="a_Node000004"><a xlink:href="$namespaceexamples_1_1prophet__opt.html#a89edb34f6787ecf7671d592512524b7f" xlink:title=" ">
<polygon fill="white" stroke="#666666" points="170.5,-138 0,-138 0,-118 170.5,-118 170.5,-138"/>
<text text-anchor="middle" x="85.25" y="-124.5" font-family="Helvetica,sans-Serif" font-size="10.00">examples.prophet_opt.optimize_btc</text>
</a>
</g>
</g>
<!-- Node3&#45;&gt;Node4 -->
<g id="edge19_Node000003_Node000004" class="edge">
<title>Node3&#45;&gt;Node4</title>
<g id="a_edge19_Node000003_Node000004"><a xlink:title=" ">
<path fill="none" stroke="#63b8ff" d="M203.13,-101.03C192.2,-103.75 181.06,-106.48 170.5,-109 158.54,-111.86 145.6,-114.83 133.53,-117.56"/>
<polygon fill="#63b8ff" stroke="#63b8ff" points="203.64,-104.51 212.49,-98.69 201.94,-97.72 203.64,-104.51"/>
</a>
</g>
</g>
<!-- Node5 -->
<g id="Node000005" class="node">
<title>Node5</title>
<g id="a_Node000005"><a xlink:href="$namespaceexamples_1_1prophet__opt.html#a6036ff4e616cbf09671db7d938061190" xlink:title=" ">
<polygon fill="white" stroke="#666666" points="161.12,-100 9.38,-100 9.38,-68 161.12,-68 161.12,-100"/>
<text text-anchor="start" x="17.38" y="-86.5" font-family="Helvetica,sans-Serif" font-size="10.00">examples.prophet_opt.optimize</text>
<text text-anchor="middle" x="85.25" y="-74.5" font-family="Helvetica,sans-Serif" font-size="10.00">_btc_ask_tell</text>
</a>
</g>
</g>
<!-- Node3&#45;&gt;Node5 -->
<g id="edge20_Node000003_Node000005" class="edge">
<title>Node3&#45;&gt;Node5</title>
<g id="a_edge20_Node000003_Node000005"><a xlink:title=" ">
<path fill="none" stroke="#63b8ff" d="M202.65,-82.78C189.06,-82.93 174.89,-83.07 161.31,-83.22"/>
<polygon fill="#63b8ff" stroke="#63b8ff" points="202.42,-86.29 212.39,-82.68 202.35,-79.29 202.42,-86.29"/>
</a>
</g>
</g>
<!-- Node6 -->
<g id="Node000006" class="node">
<title>Node6</title>
<g id="a_Node000006"><a xlink:href="$namespaceexamples_1_1prophet__opt.html#ae9fc3dd94248f2146ad53fcf139d55fb" xlink:title=" ">
<polygon fill="white" stroke="#666666" points="154.38,-32 16.12,-32 16.12,0 154.38,0 154.38,-32"/>
<text text-anchor="start" x="24.12" y="-18.5" font-family="Helvetica,sans-Serif" font-size="10.00">examples.prophet_opt.show</text>
<text text-anchor="middle" x="85.25" y="-6.5" font-family="Helvetica,sans-Serif" font-size="10.00">_good_result</text>
</a>
</g>
</g>
<!-- Node3&#45;&gt;Node6 -->
<g id="edge21_Node000003_Node000006" class="edge">
<title>Node3&#45;&gt;Node6</title>
<g id="a_edge21_Node000003_Node000006"><a xlink:title=" ">
<path fill="none" stroke="#63b8ff" d="M219.21,-61.85C191.83,-52.41 159.63,-41.31 133.77,-32.39"/>
<polygon fill="#63b8ff" stroke="#63b8ff" points="217.8,-65.07 228.4,-65.02 220.08,-58.45 217.8,-65.07"/>
</a>
</g>
</g>
<!-- Node6&#45;&gt;Node6 -->
<g id="edge22_Node000006_Node000006" class="edge">
<title>Node6&#45;&gt;Node6</title>
<g id="a_edge22_Node000006_Node000006"><a xlink:title=" ">
<path fill="none" stroke="#63b8ff" d="M117.48,-43.71C112.1,-47.48 101.36,-50 85.25,-50 55.79,-50 44.28,-41.58 50.73,-32.44"/>
<polygon fill="#63b8ff" stroke="#63b8ff" points="120.9,-44.42 119.47,-33.93 114.04,-43.02 120.9,-44.42"/>
</a>
</g>
</g>
<!-- Node7&#45;&gt;Node6 -->
<g id="edge24_Node000007_Node000006" class="edge">
<title>Node7&#45;&gt;Node6</title>
<g id="a_edge24_Node000007_Node000006"><a xlink:title=" ">
<path fill="none" stroke="#63b8ff" d="M194.96,-16.57C181.57,-16.5 167.84,-16.43 154.84,-16.36"/>
<polygon fill="#63b8ff" stroke="#63b8ff" points="194.56,-20.07 204.58,-16.62 194.6,-13.07 194.56,-20.07"/>
</a>
</g>
</g>
</g>
</svg>
