<?xml version="1.0" encoding="UTF-8" standalone="no"?>
<!DOCTYPE svg PUBLIC "-//W3C//DTD SVG 1.1//EN"
 "http://www.w3.org/Graphics/SVG/1.1/DTD/svg11.dtd">
<!-- Generated by graphviz version 12.2.1 (20241206.2353)
 -->
<!-- Title: anpcp.selection_ Pages: 1 -->
<svg width="490pt" height="88pt"
 viewBox="0.00 0.00 489.50 88.00" xmlns="http://www.w3.org/2000/svg" xmlns:xlink="http://www.w3.org/1999/xlink">
<g id="graph0" class="graph" transform="scale(1 1) rotate(0) translate(4 84)">
<title>anpcp.selection_</title>
<!-- Node1 -->
<g id="Node000001" class="node">
<title>Node1</title>
<g id="a_Node000001"><a xlink:title=" ">
<polygon fill="#999999" stroke="#666666" points="481.5,-39 392,-39 392,-19 481.5,-19 481.5,-39"/>
<text text-anchor="middle" x="436.75" y="-25.5" font-family="Helvetica,sans-Serif" font-size="10.00">anpcp.selection_</text>
</a>
</g>
</g>
<!-- Node2 -->
<g id="Node000002" class="node">
<title>Node2</title>
<g id="a_Node000002"><a xlink:href="$classanpcp_1_1_a_n_p_c_p.html#a36e56d4bbe8efd193c8f57419b2eeb87" xlink:title=" ">
<polygon fill="white" stroke="#666666" points="341.75,-58 230.5,-58 230.5,-38 341.75,-38 341.75,-58"/>
<text text-anchor="middle" x="286.12" y="-44.5" font-family="Helvetica,sans-Serif" font-size="10.00">anpcp.ANPCP.fitness</text>
</a>
</g>
</g>
<!-- Node1&#45;&gt;Node2 -->
<g id="edge9_Node000001_Node000002" class="edge">
<title>Node1&#45;&gt;Node2</title>
<g id="a_edge9_Node000001_Node000002"><a xlink:title=" ">
<path fill="none" stroke="#63b8ff" d="M380.37,-36.08C367.9,-37.67 354.67,-39.37 342.21,-40.96"/>
<polygon fill="#63b8ff" stroke="#63b8ff" points="380.58,-39.58 390.06,-34.84 379.7,-32.64 380.58,-39.58"/>
</a>
</g>
</g>
<!-- Node5 -->
<g id="Node000005" class="node">
<title>Node5</title>
<g id="a_Node000005"><a xlink:href="$classanpcp_1_1_a_n_p_c_p.html#a98d874863228ee290ddd16d9063cc2b2" xlink:title=" ">
<polygon fill="white" stroke="#666666" points="356,-20 216.25,-20 216.25,0 356,0 356,-20"/>
<text text-anchor="middle" x="286.12" y="-6.5" font-family="Helvetica,sans-Serif" font-size="10.00">anpcp.ANPCP.get_selection</text>
</a>
</g>
</g>
<!-- Node1&#45;&gt;Node5 -->
<g id="edge12_Node000001_Node000005" class="edge">
<title>Node1&#45;&gt;Node5</title>
<g id="a_edge12_Node000001_Node000005"><a xlink:title=" ">
<path fill="none" stroke="#63b8ff" d="M380.39,-21.92C372.6,-20.93 364.5,-19.89 356.48,-18.87"/>
<polygon fill="#63b8ff" stroke="#63b8ff" points="379.7,-25.36 390.06,-23.16 380.58,-18.42 379.7,-25.36"/>
</a>
</g>
</g>
<!-- Node3 -->
<g id="Node000003" class="node">
<title>Node3</title>
<g id="a_Node000003"><a xlink:href="$classexamples_1_1employee_1_1problem.html#a96c79aee6dab29a25fd28b0b383f1916" xlink:title=" ">
<polygon fill="white" stroke="#666666" points="180.25,-80 0,-80 0,-60 180.25,-60 180.25,-80"/>
<text text-anchor="middle" x="90.12" y="-66.5" font-family="Helvetica,sans-Serif" font-size="10.00">examples.employee.problem.optimize</text>
</a>
</g>
</g>
<!-- Node2&#45;&gt;Node3 -->
<g id="edge10_Node000002_Node000003" class="edge">
<title>Node2&#45;&gt;Node3</title>
<g id="a_edge10_Node000002_Node000003"><a xlink:title=" ">
<path fill="none" stroke="#63b8ff" d="M218.92,-55.51C206.54,-56.91 193.41,-58.4 180.47,-59.87"/>
<polygon fill="#63b8ff" stroke="#63b8ff" points="219.01,-59.02 228.55,-54.42 218.22,-52.07 219.01,-59.02"/>
</a>
</g>
</g>
<!-- Node4 -->
<g id="Node000004" class="node">
<title>Node4</title>
<g id="a_Node000004"><a xlink:href="$classquantumcomm_1_1constellation__udp.html#a8c60ffafb21bc14b969a3f3f4079d24d" xlink:title="A verbose evaluation of the fitness functions.">
<polygon fill="white" stroke="#666666" points="159.25,-42 21,-42 21,-10 159.25,-10 159.25,-42"/>
<text text-anchor="start" x="29" y="-28.5" font-family="Helvetica,sans-Serif" font-size="10.00">quantumcomm.constellation</text>
<text text-anchor="middle" x="90.12" y="-16.5" font-family="Helvetica,sans-Serif" font-size="10.00">_udp.pretty</text>
</a>
</g>
</g>
<!-- Node2&#45;&gt;Node4 -->
<g id="edge11_Node000002_Node000004" class="edge">
<title>Node2&#45;&gt;Node4</title>
<g id="a_edge11_Node000002_Node000004"><a xlink:title=" ">
<path fill="none" stroke="#63b8ff" d="M218.72,-40.47C199.59,-38.3 178.71,-35.93 159.47,-33.75"/>
<polygon fill="#63b8ff" stroke="#63b8ff" points="218.22,-43.93 228.55,-41.58 219.01,-36.98 218.22,-43.93"/>
</a>
</g>
</g>
</g>
</svg>
