<?xml version="1.0" encoding="UTF-8" standalone="no"?>
<!DOCTYPE svg PUBLIC "-//W3C//DTD SVG 1.1//EN"
 "http://www.w3.org/Graphics/SVG/1.1/DTD/svg11.dtd">
<!-- Generated by graphviz version 12.2.1 (20241206.2353)
 -->
<!-- Title: predict.read_data Pages: 1 -->
<svg width="511pt" height="108pt"
 viewBox="0.00 0.00 510.75 108.00" xmlns="http://www.w3.org/2000/svg" xmlns:xlink="http://www.w3.org/1999/xlink">
<g id="graph0" class="graph" transform="scale(1 1) rotate(0) translate(4 104)">
<title>predict.read_data</title>
<!-- Node1 -->
<g id="Node000001" class="node">
<title>Node1</title>
<g id="a_Node000001"><a xlink:title=" ">
<polygon fill="#999999" stroke="#666666" points="502.75,-76 411.75,-76 411.75,-56 502.75,-56 502.75,-76"/>
<text text-anchor="middle" x="457.25" y="-62.5" font-family="Helvetica,sans-Serif" font-size="10.00">predict.read_data</text>
</a>
</g>
</g>
<!-- Node2 -->
<g id="Node000002" class="node">
<title>Node2</title>
<g id="a_Node000002"><a xlink:href="$namespacepredict.html#afdbf92a42255fcb6b3887ac00ea347f9" xlink:title=" ">
<polygon fill="white" stroke="#666666" points="375.75,-76 260,-76 260,-56 375.75,-56 375.75,-76"/>
<text text-anchor="middle" x="317.88" y="-62.5" font-family="Helvetica,sans-Serif" font-size="10.00">predict.collect_all_data</text>
</a>
</g>
</g>
<!-- Node1&#45;&gt;Node2 -->
<g id="edge15_Node000001_Node000002" class="edge">
<title>Node1&#45;&gt;Node2</title>
<g id="a_edge15_Node000001_Node000002"><a xlink:title=" ">
<path fill="none" stroke="#63b8ff" d="M399.91,-66C392.02,-66 383.9,-66 375.99,-66"/>
<polygon fill="#63b8ff" stroke="#63b8ff" points="399.75,-69.5 409.75,-66 399.75,-62.5 399.75,-69.5"/>
</a>
</g>
</g>
<!-- Node3 -->
<g id="Node000003" class="node">
<title>Node3</title>
<g id="a_Node000003"><a xlink:href="$namespacepredict.html#a3a578b72e4180dffe78dd9382cb34426" xlink:title=" ">
<polygon fill="white" stroke="#666666" points="94,-82 0,-82 0,-50 94,-50 94,-82"/>
<text text-anchor="start" x="8" y="-68.5" font-family="Helvetica,sans-Serif" font-size="10.00">predict.test_harris</text>
<text text-anchor="middle" x="47" y="-56.5" font-family="Helvetica,sans-Serif" font-size="10.00">_estimate_eps</text>
</a>
</g>
</g>
<!-- Node2&#45;&gt;Node3 -->
<g id="edge16_Node000002_Node000003" class="edge">
<title>Node2&#45;&gt;Node3</title>
<g id="a_edge16_Node000002_Node000003"><a xlink:title=" ">
<path fill="none" stroke="#63b8ff" d="M275.74,-79.57C259.77,-84.17 241.22,-88.72 224,-91 182.58,-96.48 171.32,-97.16 130,-91 117.93,-89.2 105.18,-85.99 93.42,-82.45"/>
<polygon fill="#63b8ff" stroke="#63b8ff" points="276.3,-83.05 284.88,-76.83 274.3,-76.34 276.3,-83.05"/>
</a>
</g>
</g>
<!-- Node4 -->
<g id="Node000004" class="node">
<title>Node4</title>
<g id="a_Node000004"><a xlink:href="$namespacepredict.html#ad246ba8a830fe9fd72e974cf6daeaff8" xlink:title=" ">
<polygon fill="white" stroke="#666666" points="224,-82 130,-82 130,-50 224,-50 224,-82"/>
<text text-anchor="start" x="138" y="-68.5" font-family="Helvetica,sans-Serif" font-size="10.00">predict.test_harris</text>
<text text-anchor="middle" x="177" y="-56.5" font-family="Helvetica,sans-Serif" font-size="10.00">_prediciton</text>
</a>
</g>
</g>
<!-- Node2&#45;&gt;Node4 -->
<g id="edge18_Node000002_Node000004" class="edge">
<title>Node2&#45;&gt;Node4</title>
<g id="a_edge18_Node000002_Node000004"><a xlink:title=" ">
<path fill="none" stroke="#63b8ff" d="M248.14,-66C240.01,-66 231.86,-66 224.14,-66"/>
<polygon fill="#63b8ff" stroke="#63b8ff" points="248.07,-69.5 258.07,-66 248.07,-62.5 248.07,-69.5"/>
</a>
</g>
</g>
<!-- Node5 -->
<g id="Node000005" class="node">
<title>Node5</title>
<g id="a_Node000005"><a xlink:href="$namespacepredict.html#ad721282821c568630118f56abb709e48" xlink:title=" ">
<polygon fill="white" stroke="#666666" points="224,-32 130,-32 130,0 224,0 224,-32"/>
<text text-anchor="start" x="138" y="-18.5" font-family="Helvetica,sans-Serif" font-size="10.00">predict.test_harris</text>
<text text-anchor="middle" x="177" y="-6.5" font-family="Helvetica,sans-Serif" font-size="10.00">_prediciton_eps</text>
</a>
</g>
</g>
<!-- Node2&#45;&gt;Node5 -->
<g id="edge20_Node000002_Node000005" class="edge">
<title>Node2&#45;&gt;Node5</title>
<g id="a_edge20_Node000002_Node000005"><a xlink:title=" ">
<path fill="none" stroke="#63b8ff" d="M277.26,-51.74C260.57,-45.73 241.05,-38.7 223.75,-32.47"/>
<polygon fill="#63b8ff" stroke="#63b8ff" points="275.74,-54.91 286.34,-55.01 278.12,-48.33 275.74,-54.91"/>
</a>
</g>
</g>
<!-- Node3&#45;&gt;Node3 -->
<g id="edge17_Node000003_Node000003" class="edge">
<title>Node3&#45;&gt;Node3</title>
<g id="a_edge17_Node000003_Node000003"><a xlink:title=" ">
<path fill="none" stroke="#63b8ff" d="M68.66,-93.71C65.05,-97.48 57.83,-100 47,-100 27.2,-100 19.46,-91.58 23.79,-82.44"/>
<polygon fill="#63b8ff" stroke="#63b8ff" points="72.11,-94.33 70,-83.94 65.18,-93.37 72.11,-94.33"/>
</a>
</g>
</g>
<!-- Node4&#45;&gt;Node3 -->
<g id="edge19_Node000004_Node000003" class="edge">
<title>Node4&#45;&gt;Node3</title>
<g id="a_edge19_Node000004_Node000003"><a xlink:title=" ">
<path fill="none" stroke="#63b8ff" d="M118.44,-66C110.3,-66 102.03,-66 94.14,-66"/>
<polygon fill="#63b8ff" stroke="#63b8ff" points="118.28,-69.5 128.28,-66 118.28,-62.5 118.28,-69.5"/>
</a>
</g>
</g>
<!-- Node5&#45;&gt;Node3 -->
<g id="edge21_Node000005_Node000003" class="edge">
<title>Node5&#45;&gt;Node3</title>
<g id="a_edge21_Node000005_Node000003"><a xlink:title=" ">
<path fill="none" stroke="#63b8ff" d="M123.57,-36.48C112.39,-40.85 100.73,-45.4 90.01,-49.59"/>
<polygon fill="#63b8ff" stroke="#63b8ff" points="124.64,-39.82 132.68,-32.92 122.09,-33.3 124.64,-39.82"/>
</a>
</g>
</g>
</g>
</svg>
