<?xml version="1.0" encoding="UTF-8" standalone="no"?>
<!DOCTYPE svg PUBLIC "-//W3C//DTD SVG 1.1//EN"
 "http://www.w3.org/Graphics/SVG/1.1/DTD/svg11.dtd">
<!-- Generated by graphviz version 12.2.1 (20241206.2353)
 -->
<!-- Title: examples.scheduling.trajectory_selection Pages: 1 -->
<svg width="764pt" height="251pt"
 viewBox="0.00 0.00 763.50 251.07" xmlns="http://www.w3.org/2000/svg" xmlns:xlink="http://www.w3.org/1999/xlink">
<g id="graph0" class="graph" transform="scale(1 1) rotate(0) translate(4 247.07)">
<title>examples.scheduling.trajectory_selection</title>
<!-- Node1 -->
<g id="Node000001" class="node">
<title>Node1</title>
<g id="a_Node000001"><a xlink:title=" ">
<polygon fill="#999999" stroke="#666666" points="755.5,-118.38 604.5,-118.38 604.5,-86.38 755.5,-86.38 755.5,-118.38"/>
<text text-anchor="start" x="612.5" y="-104.88" font-family="Helvetica,sans-Serif" font-size="10.00">examples.scheduling.trajectory</text>
<text text-anchor="middle" x="680" y="-92.88" font-family="Helvetica,sans-Serif" font-size="10.00">_selection</text>
</a>
</g>
</g>
<!-- Node2 -->
<g id="Node000002" class="node">
<title>Node2</title>
<g id="a_Node000002"><a xlink:href="$classexamples_1_1scheduling_1_1fitness.html#a4eff7a725e23a7148b932307532f6542" xlink:title=" ">
<polygon fill="white" stroke="#666666" points="157.38,-137.38 14.62,-137.38 14.62,-105.38 157.38,-105.38 157.38,-137.38"/>
<text text-anchor="start" x="22.62" y="-123.88" font-family="Helvetica,sans-Serif" font-size="10.00">examples.scheduling.fitness.</text>
<text text-anchor="middle" x="86" y="-111.88" font-family="Helvetica,sans-Serif" font-size="10.00">__call__</text>
</a>
</g>
</g>
<!-- Node1&#45;&gt;Node2 -->
<g id="edge43_Node000001_Node000002" class="edge">
<title>Node1&#45;&gt;Node2</title>
<g id="a_edge43_Node000001_Node000002"><a xlink:title=" ">
<path fill="none" stroke="#63b8ff" d="M606.59,-83.3C513.31,-61.71 346.67,-33.36 208,-64.38 173.33,-72.14 136.88,-90.99 113.16,-104.89"/>
<polygon fill="#63b8ff" stroke="#63b8ff" points="605.58,-86.66 616.12,-85.54 607.19,-79.84 605.58,-86.66"/>
</a>
</g>
</g>
<!-- Node3 -->
<g id="Node000003" class="node">
<title>Node3</title>
<g id="a_Node000003"><a xlink:href="$namespaceexamples_1_1scheduling.html#ad2889b9007308a61135c1b5faeca5d11" xlink:title=" ">
<polygon fill="white" stroke="#666666" points="365.38,-93.38 217.38,-93.38 217.38,-73.38 365.38,-73.38 365.38,-93.38"/>
<text text-anchor="middle" x="291.38" y="-79.88" font-family="Helvetica,sans-Serif" font-size="10.00">examples.scheduling.ast_num</text>
</a>
</g>
</g>
<!-- Node1&#45;&gt;Node3 -->
<g id="edge44_Node000001_Node000003" class="edge">
<title>Node1&#45;&gt;Node3</title>
<g id="a_edge44_Node000001_Node000003"><a xlink:title=" ">
<path fill="none" stroke="#63b8ff" d="M593.31,-98.17C525.04,-94.82 430.5,-90.17 365.71,-86.99"/>
<polygon fill="#63b8ff" stroke="#63b8ff" points="592.78,-101.65 602.94,-98.65 593.13,-94.66 592.78,-101.65"/>
</a>
</g>
</g>
<!-- Node4 -->
<g id="Node000004" class="node">
<title>Node4</title>
<g id="a_Node000004"><a xlink:href="$classexamples_1_1scheduling_1_1fitness.html#a8d58e9d7e95ceb929858cdc06b0eda47" xlink:title=" ">
<polygon fill="white" stroke="#666666" points="164.12,-225.38 7.88,-225.38 7.88,-205.38 164.12,-205.38 164.12,-225.38"/>
<text text-anchor="middle" x="86" y="-211.88" font-family="Helvetica,sans-Serif" font-size="10.00">examples.scheduling.fitness.fun</text>
</a>
</g>
</g>
<!-- Node1&#45;&gt;Node4 -->
<g id="edge48_Node000001_Node000004" class="edge">
<title>Node1&#45;&gt;Node4</title>
<g id="a_edge48_Node000001_Node000004"><a xlink:title=" ">
<path fill="none" stroke="#63b8ff" d="M650.51,-125.68C629.05,-142.28 598.32,-164.1 568.5,-178.38 487.43,-217.21 463.69,-223.36 374.75,-236.38 301.42,-247.12 281.84,-242.74 208,-236.38 184.1,-234.33 157.84,-230.02 135.91,-225.84"/>
<polygon fill="#63b8ff" stroke="#63b8ff" points="652.51,-128.56 658.21,-119.63 648.18,-123.06 652.51,-128.56"/>
</a>
</g>
</g>
<!-- Node5 -->
<g id="Node000005" class="node">
<title>Node5</title>
<g id="a_Node000005"><a xlink:href="$classexamples_1_1scheduling_1_1fitness.html#a713c154b74b96a06274438bae71e2419" xlink:title=" ">
<polygon fill="white" stroke="#666666" points="172,-55.38 0,-55.38 0,-35.38 172,-35.38 172,-55.38"/>
<text text-anchor="middle" x="86" y="-41.88" font-family="Helvetica,sans-Serif" font-size="10.00">examples.scheduling.fitness.qd_fun</text>
</a>
</g>
</g>
<!-- Node1&#45;&gt;Node5 -->
<g id="edge49_Node000001_Node000005" class="edge">
<title>Node1&#45;&gt;Node5</title>
<g id="a_edge49_Node000001_Node000005"><a xlink:title=" ">
<path fill="none" stroke="#63b8ff" d="M640.29,-80.83C619.53,-70.05 593.2,-57.58 568.5,-49.38 415.59,1.36 367.6,10.61 208,-11.38 175.58,-15.85 139.61,-26.76 115.38,-35.02"/>
<polygon fill="#63b8ff" stroke="#63b8ff" points="638.48,-83.84 648.96,-85.42 641.75,-77.65 638.48,-83.84"/>
</a>
</g>
</g>
<!-- Node6 -->
<g id="Node000006" class="node">
<title>Node6</title>
<g id="a_Node000006"><a xlink:href="$namespaceexamples_1_1scheduling.html#af71d892a26a7cf4e51f3d0c28dd3d93b" xlink:title=" ">
<polygon fill="white" stroke="#666666" points="558,-131.38 421.25,-131.38 421.25,-111.38 558,-111.38 558,-131.38"/>
<text text-anchor="middle" x="489.62" y="-117.88" font-family="Helvetica,sans-Serif" font-size="10.00">examples.scheduling.select</text>
</a>
</g>
</g>
<!-- Node1&#45;&gt;Node6 -->
<g id="edge50_Node000001_Node000006" class="edge">
<title>Node1&#45;&gt;Node6</title>
<g id="a_edge50_Node000001_Node000006"><a xlink:title=" ">
<path fill="none" stroke="#63b8ff" d="M592.59,-111.1C581.1,-112.26 569.45,-113.43 558.34,-114.55"/>
<polygon fill="#63b8ff" stroke="#63b8ff" points="592.9,-114.59 602.5,-110.1 592.2,-107.62 592.9,-114.59"/>
</a>
</g>
</g>
<!-- Node8 -->
<g id="Node000008" class="node">
<title>Node8</title>
<g id="a_Node000008"><a xlink:href="$namespaceexamples_1_1scheduling.html#aef8d4dd874790f032aa9f541c3c199a6" xlink:title=" ">
<polygon fill="white" stroke="#666666" points="568.5,-169.38 410.75,-169.38 410.75,-149.38 568.5,-149.38 568.5,-169.38"/>
<text text-anchor="middle" x="489.62" y="-155.88" font-family="Helvetica,sans-Serif" font-size="10.00">examples.scheduling.select_dvs</text>
</a>
</g>
</g>
<!-- Node1&#45;&gt;Node8 -->
<g id="edge59_Node000001_Node000008" class="edge">
<title>Node1&#45;&gt;Node8</title>
<g id="a_edge59_Node000001_Node000008"><a xlink:title=" ">
<path fill="none" stroke="#63b8ff" d="M623.53,-122.57C606.03,-128.64 586.56,-135.09 568.5,-140.38 558.22,-143.4 547.07,-146.32 536.52,-148.93"/>
<polygon fill="#63b8ff" stroke="#63b8ff" points="624.43,-125.97 632.71,-119.36 622.12,-119.36 624.43,-125.97"/>
</a>
</g>
</g>
<!-- Node3&#45;&gt;Node2 -->
<g id="edge45_Node000003_Node000002" class="edge">
<title>Node3&#45;&gt;Node2</title>
<g id="a_edge45_Node000003_Node000002"><a xlink:title=" ">
<path fill="none" stroke="#63b8ff" d="M223.2,-95.94C202.23,-99.85 179.05,-104.19 157.84,-108.15"/>
<polygon fill="#63b8ff" stroke="#63b8ff" points="223.59,-99.42 232.78,-94.15 222.3,-92.54 223.59,-99.42"/>
</a>
</g>
</g>
<!-- Node3&#45;&gt;Node4 -->
<g id="edge46_Node000003_Node000004" class="edge">
<title>Node3&#45;&gt;Node4</title>
<g id="a_edge46_Node000003_Node000004"><a xlink:title=" ">
<path fill="none" stroke="#63b8ff" d="M264.8,-99.98C222.32,-127.55 138.39,-182.03 103.17,-204.89"/>
<polygon fill="#63b8ff" stroke="#63b8ff" points="266.66,-102.95 273.15,-94.57 262.85,-97.07 266.66,-102.95"/>
</a>
</g>
</g>
<!-- Node3&#45;&gt;Node5 -->
<g id="edge47_Node000003_Node000005" class="edge">
<title>Node3&#45;&gt;Node5</title>
<g id="a_edge47_Node000003_Node000005"><a xlink:title=" ">
<path fill="none" stroke="#63b8ff" d="M222.99,-70.79C197.03,-65.94 167.69,-60.46 142.93,-55.83"/>
<polygon fill="#63b8ff" stroke="#63b8ff" points="222.3,-74.23 232.78,-72.62 223.59,-67.34 222.3,-74.23"/>
</a>
</g>
</g>
<!-- Node6&#45;&gt;Node2 -->
<g id="edge51_Node000006_Node000002" class="edge">
<title>Node6&#45;&gt;Node2</title>
<g id="a_edge51_Node000006_Node000002"><a xlink:title=" ">
<path fill="none" stroke="#63b8ff" d="M409.49,-121.38C336.18,-121.38 228.13,-121.38 157.66,-121.38"/>
<polygon fill="#63b8ff" stroke="#63b8ff" points="409.44,-124.88 419.44,-121.38 409.44,-117.88 409.44,-124.88"/>
</a>
</g>
</g>
<!-- Node6&#45;&gt;Node4 -->
<g id="edge52_Node000006_Node000004" class="edge">
<title>Node6&#45;&gt;Node4</title>
<g id="a_edge52_Node000006_Node000004"><a xlink:title=" ">
<path fill="none" stroke="#63b8ff" d="M416.45,-136.74C414.48,-137.87 412.58,-139.08 410.75,-140.38 386.66,-157.56 400.24,-181.36 374.75,-196.38 340.41,-216.63 237.44,-219.04 164.52,-217.97"/>
<polygon fill="#63b8ff" stroke="#63b8ff" points="417.9,-139.92 425.36,-132.4 414.84,-133.63 417.9,-139.92"/>
</a>
</g>
</g>
<!-- Node6&#45;&gt;Node5 -->
<g id="edge53_Node000006_Node000005" class="edge">
<title>Node6&#45;&gt;Node5</title>
<g id="a_edge53_Node000006_Node000005"><a xlink:title=" ">
<path fill="none" stroke="#63b8ff" d="M472.32,-102.4C452.05,-80.42 415.16,-45.42 374.75,-31.38 289,-1.59 180.2,-21.08 124.14,-34.95"/>
<polygon fill="#63b8ff" stroke="#63b8ff" points="469.66,-104.68 478.94,-109.8 474.88,-100.01 469.66,-104.68"/>
</a>
</g>
</g>
<!-- Node7 -->
<g id="Node000007" class="node">
<title>Node7</title>
<g id="a_Node000007"><a xlink:href="$classexamples_1_1scheduling_1_1fitness.html#a0dcc50199c64159aae9a5a89326d1cc6" xlink:title=" ">
<polygon fill="white" stroke="#666666" points="374.75,-169.38 208,-169.38 208,-149.38 374.75,-149.38 374.75,-169.38"/>
<text text-anchor="middle" x="291.38" y="-155.88" font-family="Helvetica,sans-Serif" font-size="10.00">examples.scheduling.fitness.score</text>
</a>
</g>
</g>
<!-- Node6&#45;&gt;Node7 -->
<g id="edge54_Node000006_Node000007" class="edge">
<title>Node6&#45;&gt;Node7</title>
<g id="a_edge54_Node000006_Node000007"><a xlink:title=" ">
<path fill="none" stroke="#63b8ff" d="M423.26,-134.04C398.29,-138.87 370.13,-144.33 346.34,-148.93"/>
<polygon fill="#63b8ff" stroke="#63b8ff" points="423.84,-137.49 432.99,-132.16 422.51,-130.62 423.84,-137.49"/>
</a>
</g>
</g>
<!-- Node7&#45;&gt;Node2 -->
<g id="edge55_Node000007_Node000002" class="edge">
<title>Node7&#45;&gt;Node2</title>
<g id="a_edge55_Node000007_Node000002"><a xlink:title=" ">
<path fill="none" stroke="#63b8ff" d="M223.2,-146.83C202.23,-142.92 179.05,-138.58 157.84,-134.62"/>
<polygon fill="#63b8ff" stroke="#63b8ff" points="222.3,-150.23 232.78,-148.62 223.59,-143.34 222.3,-150.23"/>
</a>
</g>
</g>
<!-- Node7&#45;&gt;Node4 -->
<g id="edge56_Node000007_Node000004" class="edge">
<title>Node7&#45;&gt;Node4</title>
<g id="a_edge56_Node000007_Node000004"><a xlink:title=" ">
<path fill="none" stroke="#63b8ff" d="M241.9,-172.73C206.07,-182.6 157.96,-195.84 124.92,-204.94"/>
<polygon fill="#63b8ff" stroke="#63b8ff" points="242.43,-176.22 251.14,-170.19 240.57,-169.47 242.43,-176.22"/>
</a>
</g>
</g>
<!-- Node7&#45;&gt;Node5 -->
<g id="edge57_Node000007_Node000005" class="edge">
<title>Node7&#45;&gt;Node5</title>
<g id="a_edge57_Node000007_Node000005"><a xlink:title=" ">
<path fill="none" stroke="#63b8ff" d="M262.04,-143.5C219.73,-119.78 141.2,-75.77 105.51,-55.76"/>
<polygon fill="#63b8ff" stroke="#63b8ff" points="260.21,-146.49 270.65,-148.33 263.64,-140.38 260.21,-146.49"/>
</a>
</g>
</g>
<!-- Node7&#45;&gt;Node7 -->
<g id="edge58_Node000007_Node000007" class="edge">
<title>Node7&#45;&gt;Node7</title>
<g id="a_edge58_Node000007_Node000007"><a xlink:title=" ">
<path fill="none" stroke="#63b8ff" d="M326.78,-180.49C322.56,-184.53 310.76,-187.38 291.38,-187.38 256.91,-187.38 246.41,-178.36 259.88,-169.72"/>
<polygon fill="#63b8ff" stroke="#63b8ff" points="330.09,-179.35 323.39,-171.15 323.51,-181.74 330.09,-179.35"/>
</a>
</g>
</g>
<!-- Node8&#45;&gt;Node2 -->
<g id="edge60_Node000008_Node000002" class="edge">
<title>Node8&#45;&gt;Node2</title>
<g id="a_edge60_Node000008_Node000002"><a xlink:title=" ">
<path fill="none" stroke="#63b8ff" d="M453.73,-173.88C431.55,-182.3 401.97,-192.07 374.75,-196.38 301.55,-207.98 279.28,-216.68 208,-196.38 168.07,-185.01 128.44,-156.27 105.91,-137.85"/>
<polygon fill="#63b8ff" stroke="#63b8ff" points="454.84,-177.21 462.89,-170.31 452.3,-170.68 454.84,-177.21"/>
</a>
</g>
</g>
<!-- Node8&#45;&gt;Node4 -->
<g id="edge61_Node000008_Node000004" class="edge">
<title>Node8&#45;&gt;Node4</title>
<g id="a_edge61_Node000008_Node000004"><a xlink:title=" ">
<path fill="none" stroke="#63b8ff" d="M464.06,-175.92C441.83,-189.81 407.63,-208.62 374.75,-216.38 304.98,-232.87 223.02,-230.56 164.45,-225.35"/>
<polygon fill="#63b8ff" stroke="#63b8ff" points="465.87,-178.91 472.39,-170.57 462.09,-173.02 465.87,-178.91"/>
</a>
</g>
</g>
<!-- Node8&#45;&gt;Node5 -->
<g id="edge62_Node000008_Node000005" class="edge">
<title>Node8&#45;&gt;Node5</title>
<g id="a_edge62_Node000008_Node000005"><a xlink:title=" ">
<path fill="none" stroke="#63b8ff" d="M414.84,-143.43C413.43,-142.47 412.06,-141.46 410.75,-140.38 381.78,-116.77 405.66,-85.4 374.75,-64.38 342.87,-42.71 245.22,-40.23 172.46,-41.71"/>
<polygon fill="#63b8ff" stroke="#63b8ff" points="412.94,-146.37 423.37,-148.22 416.37,-140.27 412.94,-146.37"/>
</a>
</g>
</g>
<!-- Node8&#45;&gt;Node7 -->
<g id="edge63_Node000008_Node000007" class="edge">
<title>Node8&#45;&gt;Node7</title>
<g id="a_edge63_Node000008_Node000007"><a xlink:title=" ">
<path fill="none" stroke="#63b8ff" d="M399.2,-159.38C391.16,-159.38 383.04,-159.38 375.06,-159.38"/>
<polygon fill="#63b8ff" stroke="#63b8ff" points="398.98,-162.88 408.98,-159.38 398.98,-155.88 398.98,-162.88"/>
</a>
</g>
</g>
</g>
</svg>
