<?xml version="1.0" encoding="UTF-8" standalone="no"?>
<!DOCTYPE svg PUBLIC "-//W3C//DTD SVG 1.1//EN"
 "http://www.w3.org/Graphics/SVG/1.1/DTD/svg11.dtd">
<!-- Generated by graphviz version 12.2.1 (20241206.2353)
 -->
<!-- Title: examples.tdesign.spherical_to_cartesian Pages: 1 -->
<svg width="481pt" height="90pt"
 viewBox="0.00 0.00 480.50 90.00" xmlns="http://www.w3.org/2000/svg" xmlns:xlink="http://www.w3.org/1999/xlink">
<g id="graph0" class="graph" transform="scale(1 1) rotate(0) translate(4 86)">
<title>examples.tdesign.spherical_to_cartesian</title>
<!-- Node1 -->
<g id="Node000001" class="node">
<title>Node1</title>
<g id="a_Node000001"><a xlink:title=" ">
<polygon fill="#999999" stroke="#666666" points="472.5,-57 338,-57 338,-25 472.5,-25 472.5,-57"/>
<text text-anchor="start" x="346" y="-43.5" font-family="Helvetica,sans-Serif" font-size="10.00">examples.tdesign.spherical</text>
<text text-anchor="middle" x="405.25" y="-31.5" font-family="Helvetica,sans-Serif" font-size="10.00">_to_cartesian</text>
</a>
</g>
</g>
<!-- Node2 -->
<g id="Node000002" class="node">
<title>Node2</title>
<g id="a_Node000002"><a xlink:href="$namespaceexamples_1_1tdesign.html#ae536e1afa6d09f1d3d8354727738b2df" xlink:title="Visualize points on the unit sphere.">
<polygon fill="white" stroke="#666666" points="302,-57 168.25,-57 168.25,-25 302,-25 302,-57"/>
<text text-anchor="start" x="176.25" y="-43.5" font-family="Helvetica,sans-Serif" font-size="10.00">examples.tdesign.visualize</text>
<text text-anchor="middle" x="235.12" y="-31.5" font-family="Helvetica,sans-Serif" font-size="10.00">_points</text>
</a>
</g>
</g>
<!-- Node1&#45;&gt;Node2 -->
<g id="edge7_Node000001_Node000002" class="edge">
<title>Node1&#45;&gt;Node2</title>
<g id="a_edge7_Node000001_Node000002"><a xlink:title=" ">
<path fill="none" stroke="#63b8ff" d="M326.49,-41C318.42,-41 310.28,-41 302.37,-41"/>
<polygon fill="#63b8ff" stroke="#63b8ff" points="326.29,-44.5 336.29,-41 326.29,-37.5 326.29,-44.5"/>
</a>
</g>
</g>
<!-- Node3 -->
<g id="Node000003" class="node">
<title>Node3</title>
<g id="a_Node000003"><a xlink:href="$namespaceexamples_1_1tdesign.html#a2045c59f87224672cc3e092a27f3af23" xlink:title=" ">
<polygon fill="white" stroke="#666666" points="132.25,-82 0,-82 0,-50 132.25,-50 132.25,-82"/>
<text text-anchor="start" x="8" y="-68.5" font-family="Helvetica,sans-Serif" font-size="10.00">examples.tdesign.optimize</text>
<text text-anchor="middle" x="66.12" y="-56.5" font-family="Helvetica,sans-Serif" font-size="10.00">_weighted</text>
</a>
</g>
</g>
<!-- Node2&#45;&gt;Node3 -->
<g id="edge8_Node000002_Node000003" class="edge">
<title>Node2&#45;&gt;Node3</title>
<g id="a_edge8_Node000002_Node000003"><a xlink:title=" ">
<path fill="none" stroke="#63b8ff" d="M156.79,-52.58C148.72,-53.79 140.57,-55.01 132.65,-56.19"/>
<polygon fill="#63b8ff" stroke="#63b8ff" points="157.25,-56.05 166.63,-51.1 156.22,-49.12 157.25,-56.05"/>
</a>
</g>
</g>
<!-- Node4 -->
<g id="Node000004" class="node">
<title>Node4</title>
<g id="a_Node000004"><a xlink:href="$namespaceexamples_1_1tdesign.html#afed335728de9256c19b963026d24a9c4" xlink:title=" ">
<polygon fill="white" stroke="#666666" points="125.5,-32 6.75,-32 6.75,0 125.5,0 125.5,-32"/>
<text text-anchor="start" x="14.75" y="-18.5" font-family="Helvetica,sans-Serif" font-size="10.00">examples.tdesign.show</text>
<text text-anchor="middle" x="66.12" y="-6.5" font-family="Helvetica,sans-Serif" font-size="10.00">_results</text>
</a>
</g>
</g>
<!-- Node2&#45;&gt;Node4 -->
<g id="edge9_Node000002_Node000004" class="edge">
<title>Node2&#45;&gt;Node4</title>
<g id="a_edge9_Node000002_Node000004"><a xlink:title=" ">
<path fill="none" stroke="#63b8ff" d="M156.89,-29.44C146.47,-27.88 135.91,-26.3 125.88,-24.8"/>
<polygon fill="#63b8ff" stroke="#63b8ff" points="156.22,-32.88 166.63,-30.9 157.25,-25.95 156.22,-32.88"/>
</a>
</g>
</g>
</g>
</svg>
