<?xml version="1.0" encoding="UTF-8" standalone="no"?>
<!DOCTYPE svg PUBLIC "-//W3C//DTD SVG 1.1//EN"
 "http://www.w3.org/Graphics/SVG/1.1/DTD/svg11.dtd">
<!-- Generated by graphviz version 12.2.1 (20241206.2353)
 -->
<!-- Title: examples.benchmark_gtop_pygmo._test_optimizer Pages: 1 -->
<svg width="363pt" height="58pt"
 viewBox="0.00 0.00 362.50 58.00" xmlns="http://www.w3.org/2000/svg" xmlns:xlink="http://www.w3.org/1999/xlink">
<g id="graph0" class="graph" transform="scale(1 1) rotate(0) translate(4 54)">
<title>examples.benchmark_gtop_pygmo._test_optimizer</title>
<!-- Node1 -->
<g id="Node000001" class="node">
<title>Node1</title>
<g id="a_Node000001"><a xlink:title=" ">
<polygon fill="#999999" stroke="#666666" points="354.5,-32 210.25,-32 210.25,0 354.5,0 354.5,-32"/>
<text text-anchor="start" x="218.25" y="-18.5" font-family="Helvetica,sans-Serif" font-size="10.00">examples.benchmark</text>
<text text-anchor="middle" x="282.38" y="-6.5" font-family="Helvetica,sans-Serif" font-size="10.00">_gtop_pygmo._test_optimizer</text>
</a>
</g>
</g>
<!-- Node2 -->
<g id="Node000002" class="node">
<title>Node2</title>
<g id="a_Node000002"><a xlink:href="$namespaceexamples_1_1benchmark__gtop__pygmo.html#aeccaaa319086484e7320dee37695e81d" xlink:title=" ">
<polygon fill="white" stroke="#666666" points="174.25,-32 0,-32 0,0 174.25,0 174.25,-32"/>
<text text-anchor="start" x="8" y="-18.5" font-family="Helvetica,sans-Serif" font-size="10.00">examples.benchmark</text>
<text text-anchor="middle" x="87.12" y="-6.5" font-family="Helvetica,sans-Serif" font-size="10.00">_gtop_pygmo.test_coordinated_retry</text>
</a>
</g>
</g>
<!-- Node1&#45;&gt;Node2 -->
<g id="edge5_Node000001_Node000002" class="edge">
<title>Node1&#45;&gt;Node2</title>
<g id="a_edge5_Node000001_Node000002"><a xlink:title=" ">
<path fill="none" stroke="#63b8ff" d="M198.5,-16C190.6,-16 182.57,-16 174.63,-16"/>
<polygon fill="#63b8ff" stroke="#63b8ff" points="198.45,-19.5 208.45,-16 198.45,-12.5 198.45,-19.5"/>
</a>
</g>
</g>
<!-- Node2&#45;&gt;Node2 -->
<g id="edge6_Node000002_Node000002" class="edge">
<title>Node2&#45;&gt;Node2</title>
<g id="a_edge6_Node000002_Node000002"><a xlink:title=" ">
<path fill="none" stroke="#63b8ff" d="M119.66,-43.71C114.24,-47.48 103.39,-50 87.12,-50 57.38,-50 45.76,-41.58 52.27,-32.44"/>
<polygon fill="#63b8ff" stroke="#63b8ff" points="123.09,-44.43 121.68,-33.93 116.23,-43.01 123.09,-44.43"/>
</a>
</g>
</g>
</g>
</svg>
