<?xml version="1.0" encoding="UTF-8" standalone="no"?>
<!DOCTYPE svg PUBLIC "-//W3C//DTD SVG 1.1//EN"
 "http://www.w3.org/Graphics/SVG/1.1/DTD/svg11.dtd">
<!-- Generated by graphviz version 12.2.1 (20241206.2353)
 -->
<!-- Title: fcmaes.retry.plot Pages: 1 -->
<svg width="227pt" height="46pt"
 viewBox="0.00 0.00 226.75 46.00" xmlns="http://www.w3.org/2000/svg" xmlns:xlink="http://www.w3.org/1999/xlink">
<g id="graph0" class="graph" transform="scale(1 1) rotate(0) translate(4 42)">
<title>fcmaes.retry.plot</title>
<!-- Node1 -->
<g id="Node000001" class="node">
<title>Node1</title>
<g id="a_Node000001"><a xlink:title="Plots a given front using either 2D or 3D visualization, with options for interpolation and customiza...">
<polygon fill="#999999" stroke="#666666" points="88.75,-20 0,-20 0,0 88.75,0 88.75,-20"/>
<text text-anchor="middle" x="44.38" y="-6.5" font-family="Helvetica,sans-Serif" font-size="10.00">fcmaes.retry.plot</text>
</a>
</g>
</g>
<!-- Node1&#45;&gt;Node1 -->
<g id="edge5_Node000001_Node000001" class="edge">
<title>Node1&#45;&gt;Node1</title>
<g id="a_edge5_Node000001_Node000001"><a xlink:title=" ">
<path fill="none" stroke="#63b8ff" d="M24.14,-20.34C15.49,-28.98 22.23,-38 44.38,-38 56.48,-38 63.99,-35.3 66.89,-31.44"/>
<polygon fill="#63b8ff" stroke="#63b8ff" points="70.35,-30.92 64.92,-21.82 63.5,-32.32 70.35,-30.92"/>
</a>
</g>
</g>
<!-- Node2 -->
<g id="Node000002" class="node">
<title>Node2</title>
<g id="a_Node000002"><a xlink:href="$namespacefcmaes_1_1retry.html#a754240fc233254e554ddcc58503d84a3" xlink:title="Creates and saves a 3D scatter plot from given data.">
<polygon fill="white" stroke="#666666" points="218.75,-20 124.75,-20 124.75,0 218.75,0 218.75,-20"/>
<text text-anchor="middle" x="171.75" y="-6.5" font-family="Helvetica,sans-Serif" font-size="10.00">fcmaes.retry.plot3</text>
</a>
</g>
</g>
<!-- Node1&#45;&gt;Node2 -->
<g id="edge6_Node000001_Node000002" class="edge">
<title>Node1&#45;&gt;Node2</title>
<g id="a_edge6_Node000001_Node000002"><a xlink:title=" ">
<path fill="none" stroke="#63b8ff" d="M89.23,-10C97,-10 105.2,-10 113.29,-10"/>
<polygon fill="#63b8ff" stroke="#63b8ff" points="113.07,-13.5 123.07,-10 113.07,-6.5 113.07,-13.5"/>
</a>
</g>
</g>
</g>
</svg>
