<?xml version="1.0" encoding="UTF-8" standalone="no"?>
<!DOCTYPE svg PUBLIC "-//W3C//DTD SVG 1.1//EN"
 "http://www.w3.org/Graphics/SVG/1.1/DTD/svg11.dtd">
<!-- Generated by graphviz version 12.2.1 (20241206.2353)
 -->
<!-- Title: fcmaes.journal.trial_param Pages: 1 -->
<svg width="662pt" height="107pt"
 viewBox="0.00 0.00 661.50 107.00" xmlns="http://www.w3.org/2000/svg" xmlns:xlink="http://www.w3.org/1999/xlink">
<g id="graph0" class="graph" transform="scale(1 1) rotate(0) translate(4 103)">
<title>fcmaes.journal.trial_param</title>
<!-- Node1 -->
<g id="Node000001" class="node">
<title>Node1</title>
<g id="a_Node000001"><a xlink:title="Generates a JSON message containing trial parameter details.">
<polygon fill="#999999" stroke="#666666" points="653.5,-83 555,-83 555,-51 653.5,-51 653.5,-83"/>
<text text-anchor="start" x="563" y="-69.5" font-family="Helvetica,sans-Serif" font-size="10.00">fcmaes.journal.trial</text>
<text text-anchor="middle" x="604.25" y="-57.5" font-family="Helvetica,sans-Serif" font-size="10.00">_param</text>
</a>
</g>
</g>
<!-- Node2 -->
<g id="Node000002" class="node">
<title>Node2</title>
<g id="a_Node000002"><a xlink:href="$classfcmaes_1_1journal_1_1_journal.html#a071316e37bbbe42be6c9dda9bfe0a7d7" xlink:title="Writes a parameter value to the associated file for a given trial and worker.">
<polygon fill="white" stroke="#666666" points="519,-99 374.75,-99 374.75,-79 519,-79 519,-99"/>
<text text-anchor="middle" x="446.88" y="-85.5" font-family="Helvetica,sans-Serif" font-size="10.00">fcmaes.journal.Journal.param</text>
</a>
</g>
</g>
<!-- Node1&#45;&gt;Node2 -->
<g id="edge15_Node000001_Node000002" class="edge">
<title>Node1&#45;&gt;Node2</title>
<g id="a_edge15_Node000001_Node000002"><a xlink:title=" ">
<path fill="none" stroke="#63b8ff" d="M543.3,-75.49C535.5,-76.59 527.45,-77.73 519.48,-78.86"/>
<polygon fill="#63b8ff" stroke="#63b8ff" points="543.61,-78.98 553.02,-74.11 542.62,-72.05 543.61,-78.98"/>
</a>
</g>
</g>
<!-- Node5 -->
<g id="Node000005" class="node">
<title>Node5</title>
<g id="a_Node000005"><a xlink:href="$classfcmaes_1_1journal_1_1journal__wrapper.html#a5adc885590326f2a0989cbef083646e2" xlink:title="Stores the parameters of a specific trial for a worker.">
<polygon fill="white" stroke="#666666" points="502.5,-61 391.25,-61 391.25,-29 502.5,-29 502.5,-61"/>
<text text-anchor="start" x="399.25" y="-47.5" font-family="Helvetica,sans-Serif" font-size="10.00">fcmaes.journal.journal</text>
<text text-anchor="middle" x="446.88" y="-35.5" font-family="Helvetica,sans-Serif" font-size="10.00">_wrapper.store_x</text>
</a>
</g>
</g>
<!-- Node1&#45;&gt;Node5 -->
<g id="edge18_Node000001_Node000005" class="edge">
<title>Node1&#45;&gt;Node5</title>
<g id="a_edge18_Node000001_Node000005"><a xlink:title=" ">
<path fill="none" stroke="#63b8ff" d="M543.12,-58.49C529.89,-56.61 515.95,-54.64 502.93,-52.8"/>
<polygon fill="#63b8ff" stroke="#63b8ff" points="542.62,-61.95 553.02,-59.89 543.61,-55.02 542.62,-61.95"/>
</a>
</g>
</g>
<!-- Node3 -->
<g id="Node000003" class="node">
<title>Node3</title>
<g id="a_Node000003"><a xlink:href="$classfcmaes_1_1journal_1_1_journal.html#a7f1df03b226966e2c112e449fe31747b" xlink:title="Writes parameter values for a given trial and worker.">
<polygon fill="white" stroke="#666666" points="338.75,-99 190,-99 190,-79 338.75,-79 338.75,-99"/>
<text text-anchor="middle" x="264.38" y="-85.5" font-family="Helvetica,sans-Serif" font-size="10.00">fcmaes.journal.Journal.write_x</text>
</a>
</g>
</g>
<!-- Node2&#45;&gt;Node3 -->
<g id="edge16_Node000002_Node000003" class="edge">
<title>Node2&#45;&gt;Node3</title>
<g id="a_edge16_Node000002_Node000003"><a xlink:title=" ">
<path fill="none" stroke="#63b8ff" d="M363.01,-89C354.99,-89 346.88,-89 338.96,-89"/>
<polygon fill="#63b8ff" stroke="#63b8ff" points="362.76,-92.5 372.76,-89 362.76,-85.5 362.76,-92.5"/>
</a>
</g>
</g>
<!-- Node4 -->
<g id="Node000004" class="node">
<title>Node4</title>
<g id="a_Node000004"><a xlink:href="$classfcmaes_1_1journal_1_1_journal.html#a745cc0929536fec00ae35f51264a1af1" xlink:title="Writes a set of parameter values (xs) for different workers associated with a trial.">
<polygon fill="white" stroke="#666666" points="154,-99 0,-99 0,-79 154,-79 154,-99"/>
<text text-anchor="middle" x="77" y="-85.5" font-family="Helvetica,sans-Serif" font-size="10.00">fcmaes.journal.Journal.write_xs</text>
</a>
</g>
</g>
<!-- Node3&#45;&gt;Node4 -->
<g id="edge17_Node000003_Node000004" class="edge">
<title>Node3&#45;&gt;Node4</title>
<g id="a_edge17_Node000003_Node000004"><a xlink:title=" ">
<path fill="none" stroke="#63b8ff" d="M178.32,-89C170.3,-89 162.21,-89 154.28,-89"/>
<polygon fill="#63b8ff" stroke="#63b8ff" points="178.06,-92.5 188.06,-89 178.06,-85.5 178.06,-92.5"/>
</a>
</g>
</g>
<!-- Node6 -->
<g id="Node000006" class="node">
<title>Node6</title>
<g id="a_Node000006"><a xlink:href="$classfcmaes_1_1journal_1_1journal__wrapper.html#ad219e74b48d4588e84683ec326143a48" xlink:title="Executes the callable functionality, managing and processing a batch of inputs and outputs concurrent...">
<polygon fill="white" stroke="#666666" points="320,-61 208.75,-61 208.75,-29 320,-29 320,-61"/>
<text text-anchor="start" x="216.75" y="-47.5" font-family="Helvetica,sans-Serif" font-size="10.00">fcmaes.journal.journal</text>
<text text-anchor="middle" x="264.38" y="-35.5" font-family="Helvetica,sans-Serif" font-size="10.00">_wrapper.__call__</text>
</a>
</g>
</g>
<!-- Node5&#45;&gt;Node6 -->
<g id="edge19_Node000005_Node000006" class="edge">
<title>Node5&#45;&gt;Node6</title>
<g id="a_edge19_Node000005_Node000006"><a xlink:title=" ">
<path fill="none" stroke="#63b8ff" d="M379.95,-45C360.41,-45 339.23,-45 320.46,-45"/>
<polygon fill="#63b8ff" stroke="#63b8ff" points="379.72,-48.5 389.72,-45 379.72,-41.5 379.72,-48.5"/>
</a>
</g>
</g>
<!-- Node7 -->
<g id="Node000007" class="node">
<title>Node7</title>
<g id="a_Node000007"><a xlink:href="$classhbv_1_1hbv.html#a89aea998d9546dc3465bf46fbee95689" xlink:title=" ">
<polygon fill="white" stroke="#666666" points="125.5,-58 28.5,-58 28.5,-38 125.5,-38 125.5,-58"/>
<text text-anchor="middle" x="77" y="-44.5" font-family="Helvetica,sans-Serif" font-size="10.00">hbv.hbv.qd_fitness</text>
</a>
</g>
</g>
<!-- Node6&#45;&gt;Node7 -->
<g id="edge20_Node000006_Node000007" class="edge">
<title>Node6&#45;&gt;Node7</title>
<g id="a_edge20_Node000006_Node000007"><a xlink:title=" ">
<path fill="none" stroke="#63b8ff" d="M196.97,-46.07C173.52,-46.45 147.62,-46.87 125.99,-47.22"/>
<polygon fill="#63b8ff" stroke="#63b8ff" points="196.8,-49.58 206.74,-45.92 196.69,-42.58 196.8,-49.58"/>
</a>
</g>
</g>
<!-- Node8 -->
<g id="Node000008" class="node">
<title>Node8</title>
<g id="a_Node000008"><a xlink:href="$classlrgv_1_1lrgv.html#a527b9b7a7927721b5320ab433bf75aea" xlink:title=" ">
<polygon fill="white" stroke="#666666" points="125.5,-20 28.5,-20 28.5,0 125.5,0 125.5,-20"/>
<text text-anchor="middle" x="77" y="-6.5" font-family="Helvetica,sans-Serif" font-size="10.00">lrgv.lrgv.qd_fitness</text>
</a>
</g>
</g>
<!-- Node6&#45;&gt;Node8 -->
<g id="edge21_Node000006_Node000008" class="edge">
<title>Node6&#45;&gt;Node8</title>
<g id="a_edge21_Node000006_Node000008"><a xlink:title=" ">
<path fill="none" stroke="#63b8ff" d="M196.97,-32.46C173.52,-28.03 147.62,-23.14 125.99,-19.06"/>
<polygon fill="#63b8ff" stroke="#63b8ff" points="196.3,-35.9 206.77,-34.31 197.59,-29.02 196.3,-35.9"/>
</a>
</g>
</g>
</g>
</svg>
