<?xml version="1.0" encoding="UTF-8" standalone="no"?>
<!DOCTYPE svg PUBLIC "-//W3C//DTD SVG 1.1//EN"
 "http://www.w3.org/Graphics/SVG/1.1/DTD/svg11.dtd">
<!-- Generated by graphviz version 12.2.1 (20241206.2353)
 -->
<!-- Title: fcmaes.testfun._rastrigin_mean Pages: 1 -->
<svg width="321pt" height="66pt"
 viewBox="0.00 0.00 321.25 66.00" xmlns="http://www.w3.org/2000/svg" xmlns:xlink="http://www.w3.org/1999/xlink">
<g id="graph0" class="graph" transform="scale(1 1) rotate(0) translate(4 62)">
<title>fcmaes.testfun._rastrigin_mean</title>
<!-- Node1 -->
<g id="Node000001" class="node">
<title>Node1</title>
<g id="a_Node000001"><a xlink:title="Computes the mean output of the Rastrigin function over n modifications of input x.">
<polygon fill="#999999" stroke="#666666" points="153.25,-39 0,-39 0,-19 153.25,-19 153.25,-39"/>
<text text-anchor="middle" x="76.62" y="-25.5" font-family="Helvetica,sans-Serif" font-size="10.00">fcmaes.testfun._rastrigin_mean</text>
</a>
</g>
</g>
<!-- Node2 -->
<g id="Node000002" class="node">
<title>Node2</title>
<g id="a_Node000002"><a xlink:href="$namespacefcmaes_1_1testfun.html#abe5db8aa47b5d50d2100075d9600ba6c" xlink:title="Applies a random modification to an array.">
<polygon fill="white" stroke="#666666" points="310.62,-58 191.88,-58 191.88,-38 310.62,-38 310.62,-58"/>
<text text-anchor="middle" x="251.25" y="-44.5" font-family="Helvetica,sans-Serif" font-size="10.00">fcmaes.testfun._modify</text>
</a>
</g>
</g>
<!-- Node1&#45;&gt;Node2 -->
<g id="edge5_Node000001_Node000002" class="edge">
<title>Node1&#45;&gt;Node2</title>
<g id="a_edge5_Node000001_Node000002"><a xlink:title=" ">
<path fill="none" stroke="#63b8ff" d="M153.59,-37.36C162.4,-38.33 171.35,-39.32 180.07,-40.28"/>
<polygon fill="#63b8ff" stroke="#63b8ff" points="179.55,-43.74 189.87,-41.35 180.31,-36.78 179.55,-43.74"/>
</a>
</g>
</g>
<!-- Node3 -->
<g id="Node000003" class="node">
<title>Node3</title>
<g id="a_Node000003"><a xlink:href="$namespacefcmaes_1_1testfun.html#aabd797a31cba75eb6dcd83bd586bf3e3" xlink:title="Computes the Rastrigin function value for a given input vector.">
<polygon fill="white" stroke="#666666" points="313.25,-20 189.25,-20 189.25,0 313.25,0 313.25,-20"/>
<text text-anchor="middle" x="251.25" y="-6.5" font-family="Helvetica,sans-Serif" font-size="10.00">fcmaes.testfun._rastrigin</text>
</a>
</g>
</g>
<!-- Node1&#45;&gt;Node3 -->
<g id="edge6_Node000001_Node000003" class="edge">
<title>Node1&#45;&gt;Node3</title>
<g id="a_edge6_Node000001_Node000003"><a xlink:title=" ">
<path fill="none" stroke="#63b8ff" d="M153.59,-20.64C161.49,-19.77 169.51,-18.89 177.38,-18.02"/>
<polygon fill="#63b8ff" stroke="#63b8ff" points="177.7,-21.51 187.25,-16.93 176.93,-14.55 177.7,-21.51"/>
</a>
</g>
</g>
</g>
</svg>
