<?xml version="1.0" encoding="UTF-8" standalone="no"?>
<!DOCTYPE svg PUBLIC "-//W3C//DTD SVG 1.1//EN"
 "http://www.w3.org/Graphics/SVG/1.1/DTD/svg11.dtd">
<!-- Generated by graphviz version 12.2.1 (20241206.2353)
 -->
<!-- Title: examples.yahpo.opt_ranger_interpretability Pages: 1 -->
<svg width="404pt" height="90pt"
 viewBox="0.00 0.00 404.00 90.00" xmlns="http://www.w3.org/2000/svg" xmlns:xlink="http://www.w3.org/1999/xlink">
<g id="graph0" class="graph" transform="scale(1 1) rotate(0) translate(4 86)">
<title>examples.yahpo.opt_ranger_interpretability</title>
<!-- Node1 -->
<g id="Node000001" class="node">
<title>Node1</title>
<g id="a_Node000001"><a xlink:title=" ">
<polygon fill="#999999" stroke="#666666" points="396,-57 281.75,-57 281.75,-25 396,-25 396,-57"/>
<text text-anchor="start" x="289.75" y="-43.5" font-family="Helvetica,sans-Serif" font-size="10.00">examples.yahpo.opt</text>
<text text-anchor="middle" x="338.88" y="-31.5" font-family="Helvetica,sans-Serif" font-size="10.00">_ranger_interpretability</text>
</a>
</g>
</g>
<!-- Node2 -->
<g id="Node000002" class="node">
<title>Node2</title>
<g id="a_Node000002"><a xlink:href="$namespaceexamples_1_1yahpo.html#a00ed0fa5c4577f6841d751aa5de9beb4" xlink:title=" ">
<polygon fill="white" stroke="#666666" points="245.75,-51 139.75,-51 139.75,-31 245.75,-31 245.75,-51"/>
<text text-anchor="middle" x="192.75" y="-37.5" font-family="Helvetica,sans-Serif" font-size="10.00">examples.yahpo.plot</text>
</a>
</g>
</g>
<!-- Node1&#45;&gt;Node2 -->
<g id="edge13_Node000001_Node000002" class="edge">
<title>Node1&#45;&gt;Node2</title>
<g id="a_edge13_Node000001_Node000002"><a xlink:title=" ">
<path fill="none" stroke="#63b8ff" d="M269.98,-34.26C261.89,-34.22 253.73,-34.3 245.91,-34.48"/>
<polygon fill="#63b8ff" stroke="#63b8ff" points="269.77,-37.76 279.81,-34.37 269.85,-30.76 269.77,-37.76"/>
</a>
</g>
</g>
<!-- Node2&#45;&gt;Node1 -->
<g id="edge16_Node000002_Node000001" class="edge">
<title>Node2&#45;&gt;Node1</title>
<g id="a_edge16_Node000002_Node000001"><a xlink:title=" ">
<path fill="none" stroke="#63b8ff" d="M257.15,-47.71C265.2,-47.79 273.39,-47.76 281.33,-47.61"/>
<polygon fill="#63b8ff" stroke="#63b8ff" points="257.48,-44.21 247.42,-47.54 257.36,-51.21 257.48,-44.21"/>
</a>
</g>
</g>
<!-- Node3 -->
<g id="Node000003" class="node">
<title>Node3</title>
<g id="a_Node000003"><a xlink:href="$namespaceexamples_1_1yahpo.html#aca8ebb42199ed8663e4d2fb1704bb11d" xlink:title=" ">
<polygon fill="white" stroke="#666666" points="103.75,-82 0,-82 0,-50 103.75,-50 103.75,-82"/>
<text text-anchor="start" x="8" y="-68.5" font-family="Helvetica,sans-Serif" font-size="10.00">examples.yahpo.opt</text>
<text text-anchor="middle" x="51.88" y="-56.5" font-family="Helvetica,sans-Serif" font-size="10.00">_ranger_hardware</text>
</a>
</g>
</g>
<!-- Node2&#45;&gt;Node3 -->
<g id="edge14_Node000002_Node000003" class="edge">
<title>Node2&#45;&gt;Node3</title>
<g id="a_edge14_Node000002_Node000003"><a xlink:title=" ">
<path fill="none" stroke="#63b8ff" d="M128.51,-45.66C120.27,-47.08 111.9,-48.65 103.89,-50.28"/>
<polygon fill="#63b8ff" stroke="#63b8ff" points="128.85,-49.15 138.15,-44.07 127.71,-42.24 128.85,-49.15"/>
</a>
</g>
</g>
<!-- Node4 -->
<g id="Node000004" class="node">
<title>Node4</title>
<g id="a_Node000004"><a xlink:href="$namespaceexamples_1_1yahpo.html#aa0f008c277a52f11bb7ae3430c49384c" xlink:title=" ">
<polygon fill="white" stroke="#666666" points="103.75,-32 0,-32 0,0 103.75,0 103.75,-32"/>
<text text-anchor="start" x="8" y="-18.5" font-family="Helvetica,sans-Serif" font-size="10.00">examples.yahpo.opt</text>
<text text-anchor="middle" x="51.88" y="-6.5" font-family="Helvetica,sans-Serif" font-size="10.00">_xgboost</text>
</a>
</g>
</g>
<!-- Node2&#45;&gt;Node4 -->
<g id="edge17_Node000002_Node000004" class="edge">
<title>Node2&#45;&gt;Node4</title>
<g id="a_edge17_Node000002_Node000004"><a xlink:title=" ">
<path fill="none" stroke="#63b8ff" d="M153.25,-27.95C138.06,-24.55 120.39,-21.23 104.14,-18.69"/>
<polygon fill="#63b8ff" stroke="#63b8ff" points="152.3,-31.33 162.84,-30.21 153.91,-24.51 152.3,-31.33"/>
</a>
</g>
</g>
<!-- Node3&#45;&gt;Node2 -->
<g id="edge15_Node000003_Node000002" class="edge">
<title>Node3&#45;&gt;Node2</title>
<g id="a_edge15_Node000003_Node000002"><a xlink:title=" ">
<path fill="none" stroke="#63b8ff" d="M115.31,-61.48C132.48,-58.54 150.24,-54.94 164.31,-51.44"/>
<polygon fill="#63b8ff" stroke="#63b8ff" points="114.94,-57.99 105.64,-63.07 116.07,-64.9 114.94,-57.99"/>
</a>
</g>
</g>
<!-- Node4&#45;&gt;Node2 -->
<g id="edge18_Node000004_Node000002" class="edge">
<title>Node4&#45;&gt;Node2</title>
<g id="a_edge18_Node000004_Node000002"><a xlink:title=" ">
<path fill="none" stroke="#63b8ff" d="M114.99,-33.9C123.23,-35.46 131.6,-36.91 139.64,-38.18"/>
<polygon fill="#63b8ff" stroke="#63b8ff" points="115.86,-30.5 105.38,-32.01 114.51,-37.37 115.86,-30.5"/>
</a>
</g>
</g>
</g>
</svg>
