<?xml version="1.0" encoding="UTF-8" standalone="no"?>
<!DOCTYPE svg PUBLIC "-//W3C//DTD SVG 1.1//EN"
 "http://www.w3.org/Graphics/SVG/1.1/DTD/svg11.dtd">
<!-- Generated by graphviz version 12.2.1 (20241206.2353)
 -->
<!-- Title: edgecover.nodes Pages: 1 -->
<svg width="265pt" height="66pt"
 viewBox="0.00 0.00 265.00 66.00" xmlns="http://www.w3.org/2000/svg" xmlns:xlink="http://www.w3.org/1999/xlink">
<g id="graph0" class="graph" transform="scale(1 1) rotate(0) translate(4 62)">
<title>edgecover.nodes</title>
<!-- Node1 -->
<g id="Node000001" class="node">
<title>Node1</title>
<g id="a_Node000001"><a xlink:title=" ">
<polygon fill="#999999" stroke="#666666" points="257,-39 166.75,-39 166.75,-19 257,-19 257,-39"/>
<text text-anchor="middle" x="211.88" y="-25.5" font-family="Helvetica,sans-Serif" font-size="10.00">edgecover.nodes</text>
</a>
</g>
</g>
<!-- Node2 -->
<g id="Node000002" class="node">
<title>Node2</title>
<g id="a_Node000002"><a xlink:href="$classedgecover_1_1problem.html#a8ad14faff9c46c2d1da7ddf258b015b2" xlink:title=" ">
<polygon fill="white" stroke="#666666" points="130.75,-58 0,-58 0,-38 130.75,-38 130.75,-58"/>
<text text-anchor="middle" x="65.38" y="-44.5" font-family="Helvetica,sans-Serif" font-size="10.00">edgecover.problem.fitness</text>
</a>
</g>
</g>
<!-- Node1&#45;&gt;Node2 -->
<g id="edge5_Node000001_Node000002" class="edge">
<title>Node1&#45;&gt;Node2</title>
<g id="a_edge5_Node000001_Node000002"><a xlink:title=" ">
<path fill="none" stroke="#63b8ff" d="M155.12,-36.33C147.29,-37.36 139.19,-38.43 131.21,-39.47"/>
<polygon fill="#63b8ff" stroke="#63b8ff" points="155.38,-39.83 164.84,-35.05 154.47,-32.89 155.38,-39.83"/>
</a>
</g>
</g>
<!-- Node3 -->
<g id="Node000003" class="node">
<title>Node3</title>
<g id="a_Node000003"><a xlink:href="$namespaceedgecover.html#a182ff9dbc428e26929d7fa0413315027" xlink:title=" ">
<polygon fill="white" stroke="#666666" points="118.38,-20 12.38,-20 12.38,0 118.38,0 118.38,-20"/>
<text text-anchor="middle" x="65.38" y="-6.5" font-family="Helvetica,sans-Serif" font-size="10.00">edgecover.solve_opt</text>
</a>
</g>
</g>
<!-- Node1&#45;&gt;Node3 -->
<g id="edge6_Node000001_Node000003" class="edge">
<title>Node1&#45;&gt;Node3</title>
<g id="a_edge6_Node000001_Node000003"><a xlink:title=" ">
<path fill="none" stroke="#63b8ff" d="M155.09,-21.66C143.1,-20.09 130.47,-18.43 118.62,-16.87"/>
<polygon fill="#63b8ff" stroke="#63b8ff" points="154.47,-25.11 164.84,-22.95 155.38,-18.17 154.47,-25.11"/>
</a>
</g>
</g>
</g>
</svg>
