<?xml version="1.0" encoding="UTF-8" standalone="no"?>
<!DOCTYPE svg PUBLIC "-//W3C//DTD SVG 1.1//EN"
 "http://www.w3.org/Graphics/SVG/1.1/DTD/svg11.dtd">
<!-- Generated by graphviz version 12.2.1 (20241206.2353)
 -->
<!-- Title: examples.jobshop.main Pages: 1 -->
<svg width="466pt" height="46pt"
 viewBox="0.00 0.00 465.50 46.00" xmlns="http://www.w3.org/2000/svg" xmlns:xlink="http://www.w3.org/1999/xlink">
<g id="graph0" class="graph" transform="scale(1 1) rotate(0) translate(4 42)">
<title>examples.jobshop.main</title>
<!-- Node1 -->
<g id="Node000001" class="node">
<title>Node1</title>
<g id="a_Node000001"><a xlink:title=" ">
<polygon fill="#999999" stroke="#666666" points="118.75,-20 0,-20 0,0 118.75,0 118.75,-20"/>
<text text-anchor="middle" x="59.38" y="-6.5" font-family="Helvetica,sans-Serif" font-size="10.00">examples.jobshop.main</text>
</a>
</g>
</g>
<!-- Node1&#45;&gt;Node1 -->
<g id="edge7_Node000001_Node000001" class="edge">
<title>Node1&#45;&gt;Node1</title>
<g id="a_edge7_Node000001_Node000001"><a xlink:title=" ">
<path fill="none" stroke="#63b8ff" d="M33.54,-20.34C22.49,-28.98 31.11,-38 59.38,-38 74.83,-38 84.42,-35.3 88.12,-31.44"/>
<polygon fill="#63b8ff" stroke="#63b8ff" points="91.51,-30.59 85.6,-21.8 84.74,-32.36 91.51,-30.59"/>
</a>
</g>
</g>
<!-- Node2 -->
<g id="Node000002" class="node">
<title>Node2</title>
<g id="a_Node000002"><a xlink:href="$namespaceexamples_1_1jobshop.html#ab7d20451a09c85673eb6f79306479319" xlink:title=" ">
<polygon fill="white" stroke="#666666" points="289.25,-20 154.75,-20 154.75,0 289.25,0 289.25,-20"/>
<text text-anchor="middle" x="222" y="-6.5" font-family="Helvetica,sans-Serif" font-size="10.00">examples.jobshop.optimize</text>
</a>
</g>
</g>
<!-- Node1&#45;&gt;Node2 -->
<g id="edge8_Node000001_Node000002" class="edge">
<title>Node1&#45;&gt;Node2</title>
<g id="a_edge8_Node000001_Node000002"><a xlink:title=" ">
<path fill="none" stroke="#63b8ff" d="M118.82,-10C126.68,-10 134.85,-10 142.99,-10"/>
<polygon fill="#63b8ff" stroke="#63b8ff" points="142.92,-13.5 152.92,-10 142.92,-6.5 142.92,-13.5"/>
</a>
</g>
</g>
<!-- Node3 -->
<g id="Node000003" class="node">
<title>Node3</title>
<g id="a_Node000003"><a xlink:href="$namespaceexamples_1_1jobshop.html#a6346fe9e3884169bb758fec8c703bec4" xlink:title=" ">
<polygon fill="white" stroke="#666666" points="457.5,-20 325.25,-20 325.25,0 457.5,0 457.5,-20"/>
<text text-anchor="middle" x="391.38" y="-6.5" font-family="Helvetica,sans-Serif" font-size="10.00">examples.jobshop.read_fjs</text>
</a>
</g>
</g>
<!-- Node2&#45;&gt;Node3 -->
<g id="edge9_Node000002_Node000003" class="edge">
<title>Node2&#45;&gt;Node3</title>
<g id="a_edge9_Node000002_Node000003"><a xlink:title=" ">
<path fill="none" stroke="#63b8ff" d="M289.63,-10C297.41,-10 305.39,-10 313.3,-10"/>
<polygon fill="#63b8ff" stroke="#63b8ff" points="313.28,-13.5 323.28,-10 313.28,-6.5 313.28,-13.5"/>
</a>
</g>
</g>
</g>
</svg>
