<?xml version="1.0" encoding="UTF-8" standalone="no"?>
<!DOCTYPE svg PUBLIC "-//W3C//DTD SVG 1.1//EN"
 "http://www.w3.org/Graphics/SVG/1.1/DTD/svg11.dtd">
<!-- Generated by graphviz version 12.2.1 (20241206.2353)
 -->
<!-- Title: hbv.plot3d Pages: 1 -->
<svg width="313pt" height="46pt"
 viewBox="0.00 0.00 313.25 46.00" xmlns="http://www.w3.org/2000/svg" xmlns:xlink="http://www.w3.org/1999/xlink">
<g id="graph0" class="graph" transform="scale(1 1) rotate(0) translate(4 42)">
<title>hbv.plot3d</title>
<!-- Node1 -->
<g id="Node000001" class="node">
<title>Node1</title>
<g id="a_Node000001"><a xlink:title=" ">
<polygon fill="#999999" stroke="#666666" points="305.25,-20 245,-20 245,0 305.25,0 305.25,-20"/>
<text text-anchor="middle" x="275.12" y="-6.5" font-family="Helvetica,sans-Serif" font-size="10.00">hbv.plot3d</text>
</a>
</g>
</g>
<!-- Node2 -->
<g id="Node000002" class="node">
<title>Node2</title>
<g id="a_Node000002"><a xlink:href="$namespacehbv.html#a9517c57f4d7c2b62d429da020f8213ad" xlink:title=" ">
<polygon fill="white" stroke="#666666" points="209,-20 122.5,-20 122.5,0 209,0 209,-20"/>
<text text-anchor="middle" x="165.75" y="-6.5" font-family="Helvetica,sans-Serif" font-size="10.00">hbv.plot_archive</text>
</a>
</g>
</g>
<!-- Node1&#45;&gt;Node2 -->
<g id="edge7_Node000001_Node000002" class="edge">
<title>Node1&#45;&gt;Node2</title>
<g id="a_edge7_Node000001_Node000002"><a xlink:title=" ">
<path fill="none" stroke="#63b8ff" d="M233.01,-10C225.19,-10 217,-10 209.14,-10"/>
<polygon fill="#63b8ff" stroke="#63b8ff" points="232.99,-13.5 242.99,-10 232.99,-6.5 232.99,-13.5"/>
</a>
</g>
</g>
<!-- Node3 -->
<g id="Node000003" class="node">
<title>Node3</title>
<g id="a_Node000003"><a xlink:href="$namespacehbv.html#ab4adfe2a468412f8ef0d14c6b70285eb" xlink:title=" ">
<polygon fill="white" stroke="#666666" points="86.5,-20 0,-20 0,0 86.5,0 86.5,-20"/>
<text text-anchor="middle" x="43.25" y="-6.5" font-family="Helvetica,sans-Serif" font-size="10.00">hbv.optimize_qd</text>
</a>
</g>
</g>
<!-- Node2&#45;&gt;Node3 -->
<g id="edge8_Node000002_Node000003" class="edge">
<title>Node2&#45;&gt;Node3</title>
<g id="a_edge8_Node000002_Node000003"><a xlink:title=" ">
<path fill="none" stroke="#63b8ff" d="M110.97,-10C102.86,-10 94.59,-10 86.76,-10"/>
<polygon fill="#63b8ff" stroke="#63b8ff" points="110.75,-13.5 120.75,-10 110.75,-6.5 110.75,-13.5"/>
</a>
</g>
</g>
<!-- Node3&#45;&gt;Node3 -->
<g id="edge9_Node000003_Node000003" class="edge">
<title>Node3&#45;&gt;Node3</title>
<g id="a_edge9_Node000003_Node000003"><a xlink:title=" ">
<path fill="none" stroke="#63b8ff" d="M64.9,-31.44C62.11,-35.3 54.9,-38 43.25,-38 21.96,-38 15.47,-28.98 23.79,-20.34"/>
<polygon fill="#63b8ff" stroke="#63b8ff" points="68.37,-30.96 63.01,-21.82 61.51,-32.31 68.37,-30.96"/>
</a>
</g>
</g>
</g>
</svg>
