<?xml version="1.0" encoding="UTF-8" standalone="no"?>
<!DOCTYPE svg PUBLIC "-//W3C//DTD SVG 1.1//EN"
 "http://www.w3.org/Graphics/SVG/1.1/DTD/svg11.dtd">
<!-- Generated by graphviz version 12.2.1 (20241206.2353)
 -->
<!-- Title: edgecover.solve_opt Pages: 1 -->
<svg width="436pt" height="104pt"
 viewBox="0.00 0.00 436.25 104.00" xmlns="http://www.w3.org/2000/svg" xmlns:xlink="http://www.w3.org/1999/xlink">
<g id="graph0" class="graph" transform="scale(1 1) rotate(0) translate(4 100)">
<title>edgecover.solve_opt</title>
<!-- Node1 -->
<g id="Node000001" class="node">
<title>Node1</title>
<g id="a_Node000001"><a xlink:title=" ">
<polygon fill="#999999" stroke="#666666" points="106,-58 0,-58 0,-38 106,-38 106,-58"/>
<text text-anchor="middle" x="53" y="-44.5" font-family="Helvetica,sans-Serif" font-size="10.00">edgecover.solve_opt</text>
</a>
</g>
</g>
<!-- Node2 -->
<g id="Node000002" class="node">
<title>Node2</title>
<g id="a_Node000002"><a xlink:href="$namespaceedgecover.html#ac5b3a2a87224ba1241ca69d49adc5c3e" xlink:title=" ">
<polygon fill="white" stroke="#666666" points="245.75,-96 155.5,-96 155.5,-76 245.75,-76 245.75,-96"/>
<text text-anchor="middle" x="200.62" y="-82.5" font-family="Helvetica,sans-Serif" font-size="10.00">edgecover.nodes</text>
</a>
</g>
</g>
<!-- Node1&#45;&gt;Node2 -->
<g id="edge9_Node000001_Node000002" class="edge">
<title>Node1&#45;&gt;Node2</title>
<g id="a_edge9_Node000001_Node000002"><a xlink:title=" ">
<path fill="none" stroke="#63b8ff" d="M94.18,-58.48C110.97,-62.87 130.68,-68.01 148.49,-72.66"/>
<polygon fill="#63b8ff" stroke="#63b8ff" points="147.55,-76.03 158.11,-75.17 149.32,-69.26 147.55,-76.03"/>
</a>
</g>
</g>
<!-- Node3 -->
<g id="Node000003" class="node">
<title>Node3</title>
<g id="a_Node000003"><a xlink:href="$namespaceedgecover.html#ad20c66f5851e97419ed4bda2ef1aa333" xlink:title=" ">
<polygon fill="white" stroke="#666666" points="259.25,-58 142,-58 142,-38 259.25,-38 259.25,-58"/>
<text text-anchor="middle" x="200.62" y="-44.5" font-family="Helvetica,sans-Serif" font-size="10.00">edgecover.not_covered</text>
</a>
</g>
</g>
<!-- Node1&#45;&gt;Node3 -->
<g id="edge10_Node000001_Node000003" class="edge">
<title>Node1&#45;&gt;Node3</title>
<g id="a_edge10_Node000001_Node000003"><a xlink:title=" ">
<path fill="none" stroke="#63b8ff" d="M106.16,-48C114.04,-48 122.27,-48 130.44,-48"/>
<polygon fill="#63b8ff" stroke="#63b8ff" points="130.39,-51.5 140.39,-48 130.39,-44.5 130.39,-51.5"/>
</a>
</g>
</g>
<!-- Node5 -->
<g id="Node000005" class="node">
<title>Node5</title>
<g id="a_Node000005"><a xlink:href="$namespaceedgecover.html#a1b8b28cc53b6df88c1a30a41217fe0a2" xlink:title=" ">
<polygon fill="white" stroke="#666666" points="252.88,-20 148.38,-20 148.38,0 252.88,0 252.88,-20"/>
<text text-anchor="middle" x="200.62" y="-6.5" font-family="Helvetica,sans-Serif" font-size="10.00">edgecover.num_true</text>
</a>
</g>
</g>
<!-- Node1&#45;&gt;Node5 -->
<g id="edge12_Node000001_Node000005" class="edge">
<title>Node1&#45;&gt;Node5</title>
<g id="a_edge12_Node000001_Node000005"><a xlink:title=" ">
<path fill="none" stroke="#63b8ff" d="M94.18,-37.52C110.97,-33.13 130.68,-27.99 148.49,-23.34"/>
<polygon fill="#63b8ff" stroke="#63b8ff" points="149.32,-26.74 158.11,-20.83 147.55,-19.97 149.32,-26.74"/>
</a>
</g>
</g>
<!-- Node4 -->
<g id="Node000004" class="node">
<title>Node4</title>
<g id="a_Node000004"><a xlink:href="$namespaceedgecover.html#a9247b4fa16dbb502c6e5e1bd0c30ca12" xlink:title=" ">
<polygon fill="white" stroke="#666666" points="428.25,-58 295.25,-58 295.25,-38 428.25,-38 428.25,-58"/>
<text text-anchor="middle" x="361.75" y="-44.5" font-family="Helvetica,sans-Serif" font-size="10.00">edgecover.numba_covered</text>
</a>
</g>
</g>
<!-- Node3&#45;&gt;Node4 -->
<g id="edge11_Node000003_Node000004" class="edge">
<title>Node3&#45;&gt;Node4</title>
<g id="a_edge11_Node000003_Node000004"><a xlink:title=" ">
<path fill="none" stroke="#63b8ff" d="M259.52,-48C267.31,-48 275.41,-48 283.47,-48"/>
<polygon fill="#63b8ff" stroke="#63b8ff" points="283.29,-51.5 293.29,-48 283.29,-44.5 283.29,-51.5"/>
</a>
</g>
</g>
</g>
</svg>
