<?xml version="1.0" encoding="UTF-8" standalone="no"?>
<!DOCTYPE svg PUBLIC "-//W3C//DTD SVG 1.1//EN"
 "http://www.w3.org/Graphics/SVG/1.1/DTD/svg11.dtd">
<!-- Generated by graphviz version 12.2.1 (20241206.2353)
 -->
<!-- Title: gtoc12.optimize Pages: 1 -->
<svg width="212pt" height="66pt"
 viewBox="0.00 0.00 211.75 66.00" xmlns="http://www.w3.org/2000/svg" xmlns:xlink="http://www.w3.org/1999/xlink">
<g id="graph0" class="graph" transform="scale(1 1) rotate(0) translate(4 62)">
<title>gtoc12.optimize</title>
<!-- Node1 -->
<g id="Node000001" class="node">
<title>Node1</title>
<g id="a_Node000001"><a xlink:title=" ">
<polygon fill="#999999" stroke="#666666" points="85,-39 0,-39 0,-19 85,-19 85,-39"/>
<text text-anchor="middle" x="42.5" y="-25.5" font-family="Helvetica,sans-Serif" font-size="10.00">gtoc12.optimize</text>
</a>
</g>
</g>
<!-- Node2 -->
<g id="Node000002" class="node">
<title>Node2</title>
<g id="a_Node000002"><a xlink:href="$namespacegtoc12.html#a26efcf6f474611baf2b8b91f3008f879" xlink:title=" ">
<polygon fill="white" stroke="#666666" points="202.25,-58 122.5,-58 122.5,-38 202.25,-38 202.25,-58"/>
<text text-anchor="middle" x="162.38" y="-44.5" font-family="Helvetica,sans-Serif" font-size="10.00">gtoc12._mined</text>
</a>
</g>
</g>
<!-- Node1&#45;&gt;Node2 -->
<g id="edge5_Node000001_Node000002" class="edge">
<title>Node1&#45;&gt;Node2</title>
<g id="a_edge5_Node000001_Node000002"><a xlink:title=" ">
<path fill="none" stroke="#63b8ff" d="M85.39,-35.75C93.76,-37.1 102.64,-38.53 111.26,-39.92"/>
<polygon fill="#63b8ff" stroke="#63b8ff" points="110.45,-43.34 120.88,-41.47 111.57,-36.43 110.45,-43.34"/>
</a>
</g>
</g>
<!-- Node3 -->
<g id="Node000003" class="node">
<title>Node3</title>
<g id="a_Node000003"><a xlink:href="$namespacegtoc12.html#a0550f7dc70affbfd3edcc196396272e3" xlink:title=" ">
<polygon fill="white" stroke="#666666" points="203.75,-20 121,-20 121,0 203.75,0 203.75,-20"/>
<text text-anchor="middle" x="162.38" y="-6.5" font-family="Helvetica,sans-Serif" font-size="10.00">gtoc12._reduce</text>
</a>
</g>
</g>
<!-- Node1&#45;&gt;Node3 -->
<g id="edge6_Node000001_Node000003" class="edge">
<title>Node1&#45;&gt;Node3</title>
<g id="a_edge6_Node000001_Node000003"><a xlink:title=" ">
<path fill="none" stroke="#63b8ff" d="M85.39,-22.25C93.22,-20.99 101.48,-19.65 109.56,-18.35"/>
<polygon fill="#63b8ff" stroke="#63b8ff" points="110,-21.83 119.31,-16.78 108.88,-14.92 110,-21.83"/>
</a>
</g>
</g>
</g>
</svg>
