<?xml version="1.0" encoding="UTF-8" standalone="no"?>
<!DOCTYPE svg PUBLIC "-//W3C//DTD SVG 1.1//EN"
 "http://www.w3.org/Graphics/SVG/1.1/DTD/svg11.dtd">
<!-- Generated by graphviz version 12.2.1 (20241206.2353)
 -->
<!-- Title: examples.examples.main Pages: 1 -->
<svg width="451pt" height="52pt"
 viewBox="0.00 0.00 450.50 52.00" xmlns="http://www.w3.org/2000/svg" xmlns:xlink="http://www.w3.org/1999/xlink">
<g id="graph0" class="graph" transform="scale(1 1) rotate(0) translate(4 48)">
<title>examples.examples.main</title>
<!-- Node1 -->
<g id="Node000001" class="node">
<title>Node1</title>
<g id="a_Node000001"><a xlink:title=" ">
<polygon fill="#999999" stroke="#666666" points="127,-26 0,-26 0,-6 127,-6 127,-26"/>
<text text-anchor="middle" x="63.5" y="-12.5" font-family="Helvetica,sans-Serif" font-size="10.00">examples.examples.main</text>
</a>
</g>
</g>
<!-- Node1&#45;&gt;Node1 -->
<g id="edge7_Node000001_Node000001" class="edge">
<title>Node1&#45;&gt;Node1</title>
<g id="a_edge7_Node000001_Node000001"><a xlink:title=" ">
<path fill="none" stroke="#63b8ff" d="M36.77,-26.34C25.34,-34.98 34.25,-44 63.5,-44 79.49,-44 89.41,-41.3 93.24,-37.44"/>
<polygon fill="#63b8ff" stroke="#63b8ff" points="96.62,-36.54 90.63,-27.8 89.86,-38.37 96.62,-36.54"/>
</a>
</g>
</g>
<!-- Node2 -->
<g id="Node000002" class="node">
<title>Node2</title>
<g id="a_Node000002"><a xlink:href="$namespaceexamples_1_1examples.html#a89bf5fd91d6193ce7f87fd23624ccbda" xlink:title=" ">
<polygon fill="white" stroke="#666666" points="300.5,-26 163,-26 163,-6 300.5,-6 300.5,-26"/>
<text text-anchor="middle" x="231.75" y="-12.5" font-family="Helvetica,sans-Serif" font-size="10.00">examples.examples.test_all</text>
</a>
</g>
</g>
<!-- Node1&#45;&gt;Node2 -->
<g id="edge8_Node000001_Node000002" class="edge">
<title>Node1&#45;&gt;Node2</title>
<g id="a_edge8_Node000001_Node000002"><a xlink:title=" ">
<path fill="none" stroke="#63b8ff" d="M127.35,-16C135.16,-16 143.23,-16 151.25,-16"/>
<polygon fill="#63b8ff" stroke="#63b8ff" points="151.02,-19.5 161.02,-16 151.02,-12.5 151.02,-19.5"/>
</a>
</g>
</g>
<!-- Node3 -->
<g id="Node000003" class="node">
<title>Node3</title>
<g id="a_Node000003"><a xlink:href="$namespaceexamples_1_1examples.html#aa1b20c9243f3ec91c6265811bb3dd8a8" xlink:title=" ">
<polygon fill="white" stroke="#666666" points="442.5,-32 336.5,-32 336.5,0 442.5,0 442.5,-32"/>
<text text-anchor="start" x="344.5" y="-18.5" font-family="Helvetica,sans-Serif" font-size="10.00">examples.examples.</text>
<text text-anchor="middle" x="389.5" y="-6.5" font-family="Helvetica,sans-Serif" font-size="10.00">_test_optimizer</text>
</a>
</g>
</g>
<!-- Node2&#45;&gt;Node3 -->
<g id="edge9_Node000002_Node000003" class="edge">
<title>Node2&#45;&gt;Node3</title>
<g id="a_edge9_Node000002_Node000003"><a xlink:title=" ">
<path fill="none" stroke="#63b8ff" d="M300.61,-16C308.65,-16 316.84,-16 324.82,-16"/>
<polygon fill="#63b8ff" stroke="#63b8ff" points="324.81,-19.5 334.81,-16 324.81,-12.5 324.81,-19.5"/>
</a>
</g>
</g>
</g>
</svg>
