<?xml version="1.0" encoding="UTF-8" standalone="no"?>
<!DOCTYPE svg PUBLIC "-//W3C//DTD SVG 1.1//EN"
 "http://www.w3.org/Graphics/SVG/1.1/DTD/svg11.dtd">
<!-- Generated by graphviz version 12.2.1 (20241206.2353)
 -->
<!-- Title: dual_annealing::normalVec Pages: 1 -->
<svg width="516pt" height="90pt"
 viewBox="0.00 0.00 515.75 90.00" xmlns="http://www.w3.org/2000/svg" xmlns:xlink="http://www.w3.org/1999/xlink">
<g id="graph0" class="graph" transform="scale(1 1) rotate(0) translate(4 86)">
<title>dual_annealing::normalVec</title>
<!-- Node1 -->
<g id="Node000001" class="node">
<title>Node1</title>
<g id="a_Node000001"><a xlink:title=" ">
<polygon fill="#999999" stroke="#666666" points="507.75,-51 375.5,-51 375.5,-31 507.75,-31 507.75,-51"/>
<text text-anchor="middle" x="441.62" y="-37.5" font-family="Helvetica,sans-Serif" font-size="10.00">dual_annealing::normalVec</text>
</a>
</g>
</g>
<!-- Node2 -->
<g id="Node000002" class="node">
<title>Node2</title>
<g id="a_Node000002"><a xlink:href="$classdual__annealing_1_1_energy_state.html#a44539c22d2beaefdaf44bad69a84a570" xlink:title=" ">
<polygon fill="white" stroke="#666666" points="339.5,-82 199,-82 199,-50 339.5,-50 339.5,-82"/>
<text text-anchor="start" x="207" y="-68.5" font-family="Helvetica,sans-Serif" font-size="10.00">dual_annealing::EnergyState</text>
<text text-anchor="middle" x="269.25" y="-56.5" font-family="Helvetica,sans-Serif" font-size="10.00">::reset</text>
</a>
</g>
</g>
<!-- Node1&#45;&gt;Node2 -->
<g id="edge9_Node000001_Node000002" class="edge">
<title>Node1&#45;&gt;Node2</title>
<g id="a_edge9_Node000001_Node000002"><a xlink:title=" ">
<path fill="none" stroke="#63b8ff" d="M364.02,-52.24C356.02,-53.42 347.91,-54.6 339.99,-55.77"/>
<polygon fill="#63b8ff" stroke="#63b8ff" points="364.36,-55.73 373.74,-50.81 363.34,-48.8 364.36,-55.73"/>
</a>
</g>
</g>
<!-- Node4 -->
<g id="Node000004" class="node">
<title>Node4</title>
<g id="a_Node000004"><a xlink:href="$classdual__annealing_1_1_visiting_distribution.html#a5fb765282e4ad1fcfd42481e20ad7a09" xlink:title=" ">
<polygon fill="white" stroke="#666666" points="328.62,-32 209.88,-32 209.88,0 328.62,0 328.62,-32"/>
<text text-anchor="start" x="217.88" y="-18.5" font-family="Helvetica,sans-Serif" font-size="10.00">dual_annealing::Visiting</text>
<text text-anchor="middle" x="269.25" y="-6.5" font-family="Helvetica,sans-Serif" font-size="10.00">Distribution::visit_fn</text>
</a>
</g>
</g>
<!-- Node1&#45;&gt;Node4 -->
<g id="edge11_Node000001_Node000004" class="edge">
<title>Node1&#45;&gt;Node4</title>
<g id="a_edge11_Node000001_Node000004"><a xlink:title=" ">
<path fill="none" stroke="#63b8ff" d="M364.07,-29.77C352.31,-28.04 340.34,-26.28 329.05,-24.63"/>
<polygon fill="#63b8ff" stroke="#63b8ff" points="363.34,-33.2 373.74,-31.19 364.36,-26.27 363.34,-33.2"/>
</a>
</g>
</g>
<!-- Node3 -->
<g id="Node000003" class="node">
<title>Node3</title>
<g id="a_Node000003"><a xlink:href="$classexamples_1_1siemens_1_1_plant.html#a4570217ffc213f931499ca5ca147819c" xlink:title=" ">
<polygon fill="white" stroke="#666666" points="163,-76 0,-76 0,-56 163,-56 163,-76"/>
<text text-anchor="middle" x="81.5" y="-62.5" font-family="Helvetica,sans-Serif" font-size="10.00">examples.siemens.Plant.simulate</text>
</a>
</g>
</g>
<!-- Node2&#45;&gt;Node3 -->
<g id="edge10_Node000002_Node000003" class="edge">
<title>Node2&#45;&gt;Node3</title>
<g id="a_edge10_Node000002_Node000003"><a xlink:title=" ">
<path fill="none" stroke="#63b8ff" d="M187.07,-66C179.15,-66 171.12,-66 163.21,-66"/>
<polygon fill="#63b8ff" stroke="#63b8ff" points="187.04,-69.5 197.04,-66 187.04,-62.5 187.04,-69.5"/>
</a>
</g>
</g>
<!-- Node5 -->
<g id="Node000005" class="node">
<title>Node5</title>
<g id="a_Node000005"><a xlink:href="$classdual__annealing_1_1_visiting_distribution.html#a0c95415e2aa6426dbe64d65eb799c7f7" xlink:title=" ">
<polygon fill="white" stroke="#666666" points="140.88,-32 22.12,-32 22.12,0 140.88,0 140.88,-32"/>
<text text-anchor="start" x="30.12" y="-18.5" font-family="Helvetica,sans-Serif" font-size="10.00">dual_annealing::Visiting</text>
<text text-anchor="middle" x="81.5" y="-6.5" font-family="Helvetica,sans-Serif" font-size="10.00">Distribution::visiting</text>
</a>
</g>
</g>
<!-- Node4&#45;&gt;Node5 -->
<g id="edge12_Node000004_Node000005" class="edge">
<title>Node4&#45;&gt;Node5</title>
<g id="a_edge12_Node000004_Node000005"><a xlink:title=" ">
<path fill="none" stroke="#63b8ff" d="M198.01,-16C179.29,-16 159.25,-16 141.21,-16"/>
<polygon fill="#63b8ff" stroke="#63b8ff" points="197.96,-19.5 207.96,-16 197.96,-12.5 197.96,-19.5"/>
</a>
</g>
</g>
</g>
</svg>
