<?xml version="1.0" encoding="UTF-8" standalone="no"?>
<!DOCTYPE svg PUBLIC "-//W3C//DTD SVG 1.1//EN"
 "http://www.w3.org/Graphics/SVG/1.1/DTD/svg11.dtd">
<!-- Generated by graphviz version 12.2.1 (20241206.2353)
 -->
<!-- Title: initPGPE_C Pages: 1 -->
<svg width="225pt" height="104pt"
 viewBox="0.00 0.00 225.25 104.00" xmlns="http://www.w3.org/2000/svg" xmlns:xlink="http://www.w3.org/1999/xlink">
<g id="graph0" class="graph" transform="scale(1 1) rotate(0) translate(4 100)">
<title>initPGPE_C</title>
<!-- Node1 -->
<g id="Node000001" class="node">
<title>Node1</title>
<g id="a_Node000001"><a xlink:title=" ">
<polygon fill="#999999" stroke="#666666" points="69.25,-58 0,-58 0,-38 69.25,-38 69.25,-58"/>
<text text-anchor="middle" x="34.62" y="-44.5" font-family="Helvetica,sans-Serif" font-size="10.00">initPGPE_C</text>
</a>
</g>
</g>
<!-- Node2 -->
<g id="Node000002" class="node">
<title>Node2</title>
<g id="a_Node000002"><a xlink:href="$evaluator_8h.html#ad0943ebd623281f526e5aee2aa818895" xlink:title=" ">
<polygon fill="white" stroke="#666666" points="200.38,-96 122.12,-96 122.12,-76 200.38,-76 200.38,-96"/>
<text text-anchor="middle" x="161.25" y="-82.5" font-family="Helvetica,sans-Serif" font-size="10.00">noop_callback</text>
</a>
</g>
</g>
<!-- Node1&#45;&gt;Node2 -->
<g id="edge7_Node000001_Node000002" class="edge">
<title>Node1&#45;&gt;Node2</title>
<g id="a_edge7_Node000001_Node000002"><a xlink:title=" ">
<path fill="none" stroke="#63b8ff" d="M69.68,-58.38C83.83,-62.7 100.45,-67.76 115.56,-72.37"/>
<polygon fill="#63b8ff" stroke="#63b8ff" points="114.2,-75.62 124.79,-75.19 116.24,-68.92 114.2,-75.62"/>
</a>
</g>
</g>
<!-- Node3 -->
<g id="Node000003" class="node">
<title>Node3</title>
<g id="a_Node000003"><a xlink:href="$evaluator_8h.html#ac05c49788a31e5f7cb8efbe8ca3b548e" xlink:title=" ">
<polygon fill="white" stroke="#666666" points="209.75,-58 112.75,-58 112.75,-38 209.75,-38 209.75,-58"/>
<text text-anchor="middle" x="161.25" y="-44.5" font-family="Helvetica,sans-Serif" font-size="10.00">noop_callback_par</text>
</a>
</g>
</g>
<!-- Node1&#45;&gt;Node3 -->
<g id="edge8_Node000001_Node000003" class="edge">
<title>Node1&#45;&gt;Node3</title>
<g id="a_edge8_Node000001_Node000003"><a xlink:title=" ">
<path fill="none" stroke="#63b8ff" d="M69.68,-48C79.52,-48 90.56,-48 101.45,-48"/>
<polygon fill="#63b8ff" stroke="#63b8ff" points="101.18,-51.5 111.18,-48 101.18,-44.5 101.18,-51.5"/>
</a>
</g>
</g>
<!-- Node4 -->
<g id="Node000004" class="node">
<title>Node4</title>
<g id="a_Node000004"><a xlink:href="$class_fitness.html#a31beb7ecb5fa49ac03b43abe444ab9a6" xlink:title=" ">
<polygon fill="white" stroke="#666666" points="217.25,-20 105.25,-20 105.25,0 217.25,0 217.25,-20"/>
<text text-anchor="middle" x="161.25" y="-6.5" font-family="Helvetica,sans-Serif" font-size="10.00">Fitness::setNormalize</text>
</a>
</g>
</g>
<!-- Node1&#45;&gt;Node4 -->
<g id="edge9_Node000001_Node000004" class="edge">
<title>Node1&#45;&gt;Node4</title>
<g id="a_edge9_Node000001_Node000004"><a xlink:title=" ">
<path fill="none" stroke="#63b8ff" d="M69.68,-37.62C83.83,-33.3 100.45,-28.24 115.56,-23.63"/>
<polygon fill="#63b8ff" stroke="#63b8ff" points="116.24,-27.08 124.79,-20.81 114.2,-20.38 116.24,-27.08"/>
</a>
</g>
</g>
</g>
</svg>
