<?xml version="1.0" encoding="UTF-8" standalone="no"?>
<!DOCTYPE svg PUBLIC "-//W3C//DTD SVG 1.1//EN"
 "http://www.w3.org/Graphics/SVG/1.1/DTD/svg11.dtd">
<!-- Generated by graphviz version 12.2.1 (20241206.2353)
 -->
<!-- Title: _fcmaescpp/pgpe.cpp Pages: 1 -->
<svg width="808pt" height="140pt"
 viewBox="0.00 0.00 808.00 140.00" xmlns="http://www.w3.org/2000/svg" xmlns:xlink="http://www.w3.org/1999/xlink">
<g id="graph0" class="graph" transform="scale(1 1) rotate(0) translate(4 136)">
<title>_fcmaescpp/pgpe.cpp</title>
<!-- Node1 -->
<g id="Node000001" class="node">
<title>Node1</title>
<g id="a_Node000001"><a xlink:title=" ">
<polygon fill="#999999" stroke="#666666" points="394.38,-132 282.38,-132 282.38,-112 394.38,-112 394.38,-132"/>
<text text-anchor="middle" x="338.38" y="-118.5" font-family="Helvetica,sans-Serif" font-size="10.00">_fcmaescpp/pgpe.cpp</text>
</a>
</g>
</g>
<!-- Node2 -->
<g id="Node000002" class="node">
<title>Node2</title>
<g id="a_Node000002"><a xlink:title=" ">
<polygon fill="#e0e0e0" stroke="#999999" points="64.75,-20 0,-20 0,0 64.75,0 64.75,-20"/>
<text text-anchor="middle" x="32.38" y="-6.5" font-family="Helvetica,sans-Serif" font-size="10.00">Eigen/Core</text>
</a>
</g>
</g>
<!-- Node1&#45;&gt;Node2 -->
<g id="edge43_Node000001_Node000002" class="edge">
<title>Node1&#45;&gt;Node2</title>
<g id="a_edge43_Node000001_Node000002"><a xlink:title=" ">
<path fill="none" stroke="#63b8ff" d="M298.16,-111.53C265.27,-103.36 217.77,-90.61 177.38,-76 135.97,-61.03 89.83,-39.46 60.95,-25.34"/>
<polygon fill="#63b8ff" stroke="#63b8ff" points="62.65,-22.27 52.14,-20.99 59.56,-28.55 62.65,-22.27"/>
</a>
</g>
</g>
<!-- Node3 -->
<g id="Node000003" class="node">
<title>Node3</title>
<g id="a_Node000003"><a xlink:title=" ">
<polygon fill="#e0e0e0" stroke="#999999" points="136.12,-20 82.62,-20 82.62,0 136.12,0 136.12,-20"/>
<text text-anchor="middle" x="109.38" y="-6.5" font-family="Helvetica,sans-Serif" font-size="10.00">iostream</text>
</a>
</g>
</g>
<!-- Node1&#45;&gt;Node3 -->
<g id="edge44_Node000001_Node000003" class="edge">
<title>Node1&#45;&gt;Node3</title>
<g id="a_edge44_Node000001_Node000003"><a xlink:title=" ">
<path fill="none" stroke="#63b8ff" d="M308.67,-111.52C284,-103.25 248.25,-90.37 218.38,-76 187.83,-61.31 154.64,-40.81 133.01,-26.78"/>
<polygon fill="#63b8ff" stroke="#63b8ff" points="134.93,-23.85 124.65,-21.29 131.09,-29.71 134.93,-23.85"/>
</a>
</g>
</g>
<!-- Node4 -->
<g id="Node000004" class="node">
<title>Node4</title>
<g id="a_Node000004"><a xlink:title=" ">
<polygon fill="#e0e0e0" stroke="#999999" points="400.88,-76 351.88,-76 351.88,-56 400.88,-56 400.88,-76"/>
<text text-anchor="middle" x="376.38" y="-62.5" font-family="Helvetica,sans-Serif" font-size="10.00">fstream</text>
</a>
</g>
</g>
<!-- Node1&#45;&gt;Node4 -->
<g id="edge45_Node000001_Node000004" class="edge">
<title>Node1&#45;&gt;Node4</title>
<g id="a_edge45_Node000001_Node000004"><a xlink:title=" ">
<path fill="none" stroke="#63b8ff" d="M344.99,-111.59C350.06,-104.39 357.21,-94.23 363.4,-85.43"/>
<polygon fill="#63b8ff" stroke="#63b8ff" points="366.07,-87.73 368.96,-77.54 360.34,-83.7 366.07,-87.73"/>
</a>
</g>
</g>
<!-- Node5 -->
<g id="Node000005" class="node">
<title>Node5</title>
<g id="a_Node000005"><a xlink:title=" ">
<polygon fill="#e0e0e0" stroke="#999999" points="461.88,-76 418.88,-76 418.88,-56 461.88,-56 461.88,-76"/>
<text text-anchor="middle" x="440.38" y="-62.5" font-family="Helvetica,sans-Serif" font-size="10.00">float.h</text>
</a>
</g>
</g>
<!-- Node1&#45;&gt;Node5 -->
<g id="edge46_Node000001_Node000005" class="edge">
<title>Node1&#45;&gt;Node5</title>
<g id="a_edge46_Node000001_Node000005"><a xlink:title=" ">
<path fill="none" stroke="#63b8ff" d="M356.14,-111.59C371.7,-103.36 394.56,-91.26 412.54,-81.74"/>
<polygon fill="#63b8ff" stroke="#63b8ff" points="413.93,-84.96 421.13,-77.19 410.66,-78.77 413.93,-84.96"/>
</a>
</g>
</g>
<!-- Node6 -->
<g id="Node000006" class="node">
<title>Node6</title>
<g id="a_Node000006"><a xlink:title=" ">
<polygon fill="#e0e0e0" stroke="#999999" points="528.5,-76 480.25,-76 480.25,-56 528.5,-56 528.5,-76"/>
<text text-anchor="middle" x="504.38" y="-62.5" font-family="Helvetica,sans-Serif" font-size="10.00">stdint.h</text>
</a>
</g>
</g>
<!-- Node1&#45;&gt;Node6 -->
<g id="edge47_Node000001_Node000006" class="edge">
<title>Node1&#45;&gt;Node6</title>
<g id="a_edge47_Node000001_Node000006"><a xlink:title=" ">
<path fill="none" stroke="#63b8ff" d="M367.29,-111.59C395.54,-102.4 438.6,-88.4 468.91,-78.54"/>
<polygon fill="#63b8ff" stroke="#63b8ff" points="469.98,-81.87 478.4,-75.45 467.81,-75.21 469.98,-81.87"/>
</a>
</g>
</g>
<!-- Node7 -->
<g id="Node000007" class="node">
<title>Node7</title>
<g id="a_Node000007"><a xlink:title=" ">
<polygon fill="#e0e0e0" stroke="#999999" points="586.38,-76 546.38,-76 546.38,-56 586.38,-56 586.38,-76"/>
<text text-anchor="middle" x="566.38" y="-62.5" font-family="Helvetica,sans-Serif" font-size="10.00">ctime</text>
</a>
</g>
</g>
<!-- Node1&#45;&gt;Node7 -->
<g id="edge48_Node000001_Node000007" class="edge">
<title>Node1&#45;&gt;Node7</title>
<g id="a_edge48_Node000001_Node000007"><a xlink:title=" ">
<path fill="none" stroke="#63b8ff" d="M384.87,-111.57C422.91,-103.61 478.32,-91.46 535.15,-76.44"/>
<polygon fill="#63b8ff" stroke="#63b8ff" points="535.93,-79.85 544.69,-73.89 534.13,-73.09 535.93,-79.85"/>
</a>
</g>
</g>
<!-- Node8 -->
<g id="Node000008" class="node">
<title>Node8</title>
<g id="a_Node000008"><a xlink:title=" ">
<polygon fill="#e0e0e0" stroke="#999999" points="202.5,-20 154.25,-20 154.25,0 202.5,0 202.5,-20"/>
<text text-anchor="middle" x="178.38" y="-6.5" font-family="Helvetica,sans-Serif" font-size="10.00">random</text>
</a>
</g>
</g>
<!-- Node1&#45;&gt;Node8 -->
<g id="edge49_Node000001_Node000008" class="edge">
<title>Node1&#45;&gt;Node8</title>
<g id="a_edge49_Node000001_Node000008"><a xlink:title=" ">
<path fill="none" stroke="#63b8ff" d="M314.2,-111.6C294.97,-103.57 267.82,-90.95 246.38,-76 226.59,-62.21 207.01,-42.7 193.98,-28.66"/>
<polygon fill="#63b8ff" stroke="#63b8ff" points="196.75,-26.51 187.44,-21.46 191.57,-31.22 196.75,-26.51"/>
</a>
</g>
</g>
<!-- Node9 -->
<g id="Node000009" class="node">
<title>Node9</title>
<g id="a_Node000009"><a xlink:title=" ">
<polygon fill="#e0e0e0" stroke="#999999" points="262.5,-20 220.25,-20 220.25,0 262.5,0 262.5,-20"/>
<text text-anchor="middle" x="241.38" y="-6.5" font-family="Helvetica,sans-Serif" font-size="10.00">queue</text>
</a>
</g>
</g>
<!-- Node1&#45;&gt;Node9 -->
<g id="edge50_Node000001_Node000009" class="edge">
<title>Node1&#45;&gt;Node9</title>
<g id="a_edge50_Node000001_Node000009"><a xlink:title=" ">
<path fill="none" stroke="#63b8ff" d="M311.69,-111.63C294.7,-104.37 273.51,-92.72 260.38,-76 250.36,-63.26 245.63,-45.4 243.38,-31.62"/>
<polygon fill="#63b8ff" stroke="#63b8ff" points="246.88,-31.36 242.14,-21.89 239.94,-32.25 246.88,-31.36"/>
</a>
</g>
</g>
<!-- Node10 -->
<g id="Node000010" class="node">
<title>Node10</title>
<g id="a_Node000010"><a xlink:title=" ">
<polygon fill="#e0e0e0" stroke="#999999" points="641.88,-76 604.88,-76 604.88,-56 641.88,-56 641.88,-76"/>
<text text-anchor="middle" x="623.38" y="-62.5" font-family="Helvetica,sans-Serif" font-size="10.00">tuple</text>
</a>
</g>
</g>
<!-- Node1&#45;&gt;Node10 -->
<g id="edge51_Node000001_Node000010" class="edge">
<title>Node1&#45;&gt;Node10</title>
<g id="a_edge51_Node000001_Node000010"><a xlink:title=" ">
<path fill="none" stroke="#63b8ff" d="M394.74,-113.41C444.66,-106.18 519.67,-94.07 593.6,-76.14"/>
<polygon fill="#63b8ff" stroke="#63b8ff" points="594.16,-79.61 603.03,-73.82 592.48,-72.81 594.16,-79.61"/>
</a>
</g>
</g>
<!-- Node11 -->
<g id="Node000011" class="node">
<title>Node11</title>
<g id="a_Node000011"><a xlink:href="$evaluator_8h.html" xlink:title=" ">
<polygon fill="white" stroke="#666666" points="333.38,-76 269.38,-76 269.38,-56 333.38,-56 333.38,-76"/>
<text text-anchor="middle" x="301.38" y="-62.5" font-family="Helvetica,sans-Serif" font-size="10.00">evaluator.h</text>
</a>
</g>
</g>
<!-- Node1&#45;&gt;Node11 -->
<g id="edge52_Node000001_Node000011" class="edge">
<title>Node1&#45;&gt;Node11</title>
<g id="a_edge52_Node000001_Node000011"><a xlink:title=" ">
<path fill="none" stroke="#63b8ff" d="M331.93,-111.59C327.05,-104.47 320.18,-94.45 314.2,-85.72"/>
<polygon fill="#63b8ff" stroke="#63b8ff" points="317.14,-83.82 308.6,-77.55 311.37,-87.77 317.14,-83.82"/>
</a>
</g>
</g>
<!-- Node11&#45;&gt;Node2 -->
<g id="edge53_Node000011_Node000002" class="edge">
<title>Node11&#45;&gt;Node2</title>
<g id="a_edge53_Node000011_Node000002"><a xlink:title=" ">
<path fill="none" stroke="#63b8ff" d="M269.24,-58.88C227.12,-50.81 150.69,-36 76.03,-20.52"/>
<polygon fill="#63b8ff" stroke="#63b8ff" points="77.02,-17.15 66.52,-18.54 75.59,-24.01 77.02,-17.15"/>
</a>
</g>
</g>
<!-- Node11&#45;&gt;Node3 -->
<g id="edge54_Node000011_Node000003" class="edge">
<title>Node11&#45;&gt;Node3</title>
<g id="a_edge54_Node000011_Node000003"><a xlink:title=" ">
<path fill="none" stroke="#63b8ff" d="M269.24,-55.96C235.62,-46.51 182.88,-31.67 147.26,-21.65"/>
<polygon fill="#63b8ff" stroke="#63b8ff" points="148.37,-18.33 137.8,-18.99 146.47,-25.07 148.37,-18.33"/>
</a>
</g>
</g>
<!-- Node11&#45;&gt;Node8 -->
<g id="edge59_Node000011_Node000008" class="edge">
<title>Node11&#45;&gt;Node8</title>
<g id="a_edge59_Node000011_Node000008"><a xlink:title=" ">
<path fill="none" stroke="#63b8ff" d="M279.95,-55.59C260.75,-47.17 232.33,-34.69 210.43,-25.07"/>
<polygon fill="#63b8ff" stroke="#63b8ff" points="211.92,-21.9 201.35,-21.09 209.1,-28.31 211.92,-21.9"/>
</a>
</g>
</g>
<!-- Node11&#45;&gt;Node9 -->
<g id="edge56_Node000011_Node000009" class="edge">
<title>Node11&#45;&gt;Node9</title>
<g id="a_edge56_Node000011_Node000009"><a xlink:title=" ">
<path fill="none" stroke="#63b8ff" d="M290.92,-55.59C282.41,-47.93 270.16,-36.91 259.98,-27.75"/>
<polygon fill="#63b8ff" stroke="#63b8ff" points="262.61,-25.4 252.83,-21.31 257.92,-30.6 262.61,-25.4"/>
</a>
</g>
</g>
<!-- Node12 -->
<g id="Node000012" class="node">
<title>Node12</title>
<g id="a_Node000012"><a xlink:title=" ">
<polygon fill="#e0e0e0" stroke="#999999" points="554.25,-20 498.5,-20 498.5,0 554.25,0 554.25,-20"/>
<text text-anchor="middle" x="526.38" y="-6.5" font-family="Helvetica,sans-Serif" font-size="10.00">algorithm</text>
</a>
</g>
</g>
<!-- Node11&#45;&gt;Node12 -->
<g id="edge55_Node000011_Node000012" class="edge">
<title>Node11&#45;&gt;Node12</title>
<g id="a_edge55_Node000011_Node000012"><a xlink:title=" ">
<path fill="none" stroke="#63b8ff" d="M333.65,-57.31C368.91,-48.9 427.36,-34.95 486.96,-20.58"/>
<polygon fill="#63b8ff" stroke="#63b8ff" points="487.72,-23.99 496.62,-18.24 486.08,-17.19 487.72,-23.99"/>
</a>
</g>
</g>
<!-- Node13 -->
<g id="Node000013" class="node">
<title>Node13</title>
<g id="a_Node000013"><a xlink:title=" ">
<polygon fill="#e0e0e0" stroke="#999999" points="614.88,-20 571.88,-20 571.88,0 614.88,0 614.88,-20"/>
<text text-anchor="middle" x="593.38" y="-6.5" font-family="Helvetica,sans-Serif" font-size="10.00">mutex</text>
</a>
</g>
</g>
<!-- Node11&#45;&gt;Node13 -->
<g id="edge57_Node000011_Node000013" class="edge">
<title>Node11&#45;&gt;Node13</title>
<g id="a_edge57_Node000011_Node000013"><a xlink:title=" ">
<path fill="none" stroke="#63b8ff" d="M333.45,-57.96C336.79,-57.27 340.15,-56.61 343.38,-56 437.21,-38.28 464.86,-41.97 560.46,-20.45"/>
<polygon fill="#63b8ff" stroke="#63b8ff" points="561.07,-23.9 570.03,-18.25 559.5,-17.08 561.07,-23.9"/>
</a>
</g>
</g>
<!-- Node14 -->
<g id="Node000014" class="node">
<title>Node14</title>
<g id="a_Node000014"><a xlink:title=" ">
<polygon fill="#e0e0e0" stroke="#999999" points="675.88,-20 632.88,-20 632.88,0 675.88,0 675.88,-20"/>
<text text-anchor="middle" x="654.38" y="-6.5" font-family="Helvetica,sans-Serif" font-size="10.00">thread</text>
</a>
</g>
</g>
<!-- Node11&#45;&gt;Node14 -->
<g id="edge58_Node000011_Node000014" class="edge">
<title>Node11&#45;&gt;Node14</title>
<g id="a_edge58_Node000011_Node000014"><a xlink:title=" ">
<path fill="none" stroke="#63b8ff" d="M333.43,-57.84C336.78,-57.18 340.14,-56.55 343.38,-56 463.97,-35.39 499.23,-45.56 621.6,-20.31"/>
<polygon fill="#63b8ff" stroke="#63b8ff" points="621.98,-23.8 631.05,-18.32 620.54,-16.95 621.98,-23.8"/>
</a>
</g>
</g>
<!-- Node15 -->
<g id="Node000015" class="node">
<title>Node15</title>
<g id="a_Node000015"><a xlink:title=" ">
<polygon fill="#e0e0e0" stroke="#999999" points="736.88,-20 693.88,-20 693.88,0 736.88,0 736.88,-20"/>
<text text-anchor="middle" x="715.38" y="-6.5" font-family="Helvetica,sans-Serif" font-size="10.00">vector</text>
</a>
</g>
</g>
<!-- Node11&#45;&gt;Node15 -->
<g id="edge60_Node000011_Node000015" class="edge">
<title>Node11&#45;&gt;Node15</title>
<g id="a_edge60_Node000011_Node000015"><a xlink:title=" ">
<path fill="none" stroke="#63b8ff" d="M333.87,-57.68C337.07,-57.07 340.28,-56.49 343.38,-56 490.77,-32.52 533.53,-49.26 682.62,-20.23"/>
<polygon fill="#63b8ff" stroke="#63b8ff" points="682.93,-23.74 692.05,-18.36 681.56,-16.88 682.93,-23.74"/>
</a>
</g>
</g>
<!-- Node16 -->
<g id="Node000016" class="node">
<title>Node16</title>
<g id="a_Node000016"><a xlink:title=" ">
<polygon fill="#e0e0e0" stroke="#999999" points="800,-20 754.75,-20 754.75,0 800,0 800,-20"/>
<text text-anchor="middle" x="777.38" y="-6.5" font-family="Helvetica,sans-Serif" font-size="10.00">chrono</text>
</a>
</g>
</g>
<!-- Node11&#45;&gt;Node16 -->
<g id="edge61_Node000011_Node000016" class="edge">
<title>Node11&#45;&gt;Node16</title>
<g id="a_edge61_Node000011_Node000016"><a xlink:title=" ">
<path fill="none" stroke="#63b8ff" d="M333.86,-57.63C337.07,-57.03 340.28,-56.47 343.38,-56 517.53,-29.66 567.6,-52.26 743.27,-20.27"/>
<polygon fill="#63b8ff" stroke="#63b8ff" points="743.79,-23.73 752.98,-18.46 742.51,-16.85 743.79,-23.73"/>
</a>
</g>
</g>
<!-- Node17 -->
<g id="Node000017" class="node">
<title>Node17</title>
<g id="a_Node000017"><a xlink:title=" ">
<polygon fill="#e0e0e0" stroke="#999999" points="374.38,-20 280.38,-20 280.38,0 374.38,0 374.38,-20"/>
<text text-anchor="middle" x="327.38" y="-6.5" font-family="Helvetica,sans-Serif" font-size="10.00">condition_variable</text>
</a>
</g>
</g>
<!-- Node11&#45;&gt;Node17 -->
<g id="edge62_Node000011_Node000017" class="edge">
<title>Node11&#45;&gt;Node17</title>
<g id="a_edge62_Node000011_Node000017"><a xlink:title=" ">
<path fill="none" stroke="#63b8ff" d="M305.9,-55.59C309.22,-48.7 313.84,-39.1 317.95,-30.57"/>
<polygon fill="#63b8ff" stroke="#63b8ff" points="321.06,-32.19 322.24,-21.66 314.75,-29.15 321.06,-32.19"/>
</a>
</g>
</g>
<!-- Node18 -->
<g id="Node000018" class="node">
<title>Node18</title>
<g id="a_Node000018"><a xlink:title=" ">
<polygon fill="#e0e0e0" stroke="#999999" points="480.38,-20 392.38,-20 392.38,0 480.38,0 480.38,-20"/>
<text text-anchor="middle" x="436.38" y="-6.5" font-family="Helvetica,sans-Serif" font-size="10.00">pcg_random.hpp</text>
</a>
</g>
</g>
<!-- Node11&#45;&gt;Node18 -->
<g id="edge63_Node000011_Node000018" class="edge">
<title>Node11&#45;&gt;Node18</title>
<g id="a_edge63_Node000011_Node000018"><a xlink:title=" ">
<path fill="none" stroke="#63b8ff" d="M324.89,-55.59C346.25,-47.05 378.01,-34.35 402.17,-24.68"/>
<polygon fill="#63b8ff" stroke="#63b8ff" points="403.29,-28.01 411.27,-21.04 400.69,-21.51 403.29,-28.01"/>
</a>
</g>
</g>
</g>
</svg>
