<?xml version="1.0" encoding="UTF-8" standalone="no"?>
<!DOCTYPE svg PUBLIC "-//W3C//DTD SVG 1.1//EN"
 "http://www.w3.org/Graphics/SVG/1.1/DTD/svg11.dtd">
<!-- Generated by graphviz version 12.2.1 (20241206.2353)
 -->
<!-- Title: vec_id Pages: 1 -->
<svg width="118pt" height="88pt"
 viewBox="0.00 0.00 117.50 88.00" xmlns="http://www.w3.org/2000/svg" xmlns:xlink="http://www.w3.org/1999/xlink">
<g id="graph0" class="graph" transform="scale(1 1) rotate(0) translate(4 84)">
<title>vec_id</title>
<!-- Node1 -->
<g id="Node000001" class="node">
<title>Node1</title>
<g id="a_Node000001"><a xlink:title=" ">
<polygon fill="#999999" stroke="none" points="109.5,-80 0,-80 0,0 109.5,0 109.5,-80"/>
<text text-anchor="start" x="40.5" y="-66.5" font-family="Helvetica,sans-Serif" font-size="10.00">vec_id</text>
<text text-anchor="start" x="4" y="-50.5" font-family="Helvetica,sans-Serif" font-size="10.00">+</text>
<text text-anchor="start" x="14" y="-50.5" font-family="Helvetica,sans-Serif" font-size="10.00">int _id</text>
<text text-anchor="start" x="4" y="-34.5" font-family="Helvetica,sans-Serif" font-size="10.00">+</text>
<text text-anchor="start" x="14" y="-34.5" font-family="Helvetica,sans-Serif" font-size="10.00">vec _v</text>
<text text-anchor="start" x="4" y="-18.5" font-family="Helvetica,sans-Serif" font-size="10.00">+</text>
<text text-anchor="start" x="14" y="-18.5" font-family="Helvetica,sans-Serif" font-size="10.00">vec_id(const vec &amp;v,</text>
<text text-anchor="start" x="14" y="-6.5" font-family="Helvetica,sans-Serif" font-size="10.00"> int id)</text>
<polygon fill="#666666" stroke="#666666" points="0,-62 0,-62 109.5,-62 109.5,-62 0,-62"/>
<polygon fill="#666666" stroke="#666666" points="0,-30 0,-30 12,-30 12,-30 0,-30"/>
<polygon fill="#666666" stroke="#666666" points="12,-30 12,-30 109.5,-30 109.5,-30 12,-30"/>
<polygon fill="none" stroke="#666666" points="0,0 0,-80 109.5,-80 109.5,0 0,0"/>
</a>
</g>
</g>
</g>
</svg>
